G75*
%MOIN*%
%OFA0B0*%
%FSLAX25Y25*%
%IPPOS*%
%LPD*%
%AMOC8*
5,1,8,0,0,1.08239X$1,22.5*
%
%ADD10C,0.06000*%
%ADD11C,0.06299*%
%ADD12C,0.07400*%
%ADD13C,0.05800*%
%ADD14C,0.06000*%
%ADD15C,0.01000*%
%ADD16C,0.03569*%
%ADD17C,0.01600*%
D10*
X0190500Y0239000D02*
X0196500Y0239000D01*
X0196500Y0249000D02*
X0190500Y0249000D01*
X0190500Y0259000D02*
X0196500Y0259000D01*
D11*
X0042750Y0226687D03*
X0042750Y0218813D03*
X0040250Y0144187D03*
X0040250Y0136313D03*
D12*
X0065250Y0220250D03*
X0065250Y0230250D03*
X0065250Y0240250D03*
X0065250Y0250250D03*
X0065250Y0260250D03*
X0065250Y0270250D03*
X0065250Y0280250D03*
X0065250Y0290250D03*
X0065250Y0300250D03*
X0141500Y0341500D03*
X0151500Y0341500D03*
X0161500Y0341500D03*
X0171500Y0341500D03*
X0181500Y0341500D03*
X0191500Y0341500D03*
X0201500Y0341500D03*
X0211500Y0341500D03*
X0221500Y0341500D03*
X0231500Y0341500D03*
X0155250Y0261500D03*
X0155250Y0251500D03*
X0155250Y0241500D03*
X0155250Y0231500D03*
X0155250Y0221500D03*
X0151500Y0021500D03*
X0141500Y0021500D03*
X0161500Y0021500D03*
X0171500Y0021500D03*
X0181500Y0021500D03*
X0191500Y0021500D03*
X0201500Y0021500D03*
X0211500Y0021500D03*
X0221500Y0021500D03*
X0231500Y0021500D03*
D13*
X0066500Y0060250D03*
X0076500Y0060250D03*
X0086500Y0060250D03*
X0096500Y0060250D03*
X0106500Y0060250D03*
X0116500Y0060250D03*
X0126500Y0060250D03*
X0136500Y0060250D03*
X0146500Y0060250D03*
X0156500Y0060250D03*
X0166500Y0060250D03*
X0176500Y0060250D03*
X0186500Y0060250D03*
X0196500Y0060250D03*
X0206500Y0060250D03*
X0216500Y0060250D03*
X0226500Y0060250D03*
X0236500Y0060250D03*
X0246500Y0060250D03*
X0256500Y0060250D03*
X0266500Y0060250D03*
X0276500Y0060250D03*
X0286500Y0060250D03*
X0296500Y0060250D03*
X0296500Y0120250D03*
X0286500Y0120250D03*
X0276500Y0120250D03*
X0266500Y0120250D03*
X0256500Y0120250D03*
X0246500Y0120250D03*
X0236500Y0120250D03*
X0226500Y0120250D03*
X0216500Y0120250D03*
X0206500Y0120250D03*
X0196500Y0120250D03*
X0186500Y0120250D03*
X0176500Y0120250D03*
X0166500Y0120250D03*
X0156500Y0120250D03*
X0146500Y0120250D03*
X0136500Y0120250D03*
X0126500Y0120250D03*
X0116500Y0120250D03*
X0116500Y0110250D03*
X0106500Y0110250D03*
X0106500Y0120250D03*
X0096500Y0120250D03*
X0096500Y0110250D03*
X0086500Y0120250D03*
X0076500Y0120250D03*
X0076500Y0110250D03*
X0066500Y0120250D03*
D14*
X0130250Y0136500D03*
X0130250Y0146500D03*
X0130250Y0156500D03*
X0130250Y0166500D03*
X0130250Y0176500D03*
X0130250Y0186500D03*
X0130250Y0196500D03*
X0130250Y0206500D03*
X0156500Y0200250D03*
X0166500Y0200250D03*
X0176500Y0200250D03*
X0186500Y0200250D03*
X0196500Y0200250D03*
X0206500Y0200250D03*
X0216500Y0200250D03*
D15*
X0221500Y0321500D02*
X0201500Y0341500D01*
X0221500Y0321500D02*
X0240500Y0321500D01*
X0055500Y0275500D02*
X0055500Y0239437D01*
X0042750Y0226687D01*
X0166500Y0060250D02*
X0166500Y0036500D01*
X0181500Y0021500D01*
X0191500Y0021500D02*
X0176500Y0036500D01*
X0176500Y0060250D01*
D16*
X0166500Y0128500D03*
X0192500Y0166500D03*
X0176500Y0190500D03*
X0166500Y0180500D03*
X0156500Y0191500D03*
X0165500Y0213500D03*
X0121500Y0196500D03*
X0111500Y0191500D03*
X0106500Y0186500D03*
X0080500Y0176500D03*
X0057500Y0166500D03*
X0066500Y0128500D03*
X0091500Y0220500D03*
X0101500Y0230500D03*
X0080500Y0240500D03*
X0106500Y0250500D03*
X0117500Y0276000D03*
X0146500Y0271500D03*
X0195250Y0300250D03*
X0235500Y0317500D03*
X0240500Y0321500D03*
X0133500Y0323500D03*
X0055500Y0275500D03*
X0222500Y0132500D03*
D17*
X0222500Y0194250D01*
X0216500Y0200250D01*
X0216500Y0216000D01*
X0193500Y0239000D01*
X0199000Y0239000D01*
X0211500Y0251500D01*
X0211500Y0281500D01*
X0195250Y0297750D01*
X0195250Y0300250D01*
X0205500Y0317500D02*
X0181500Y0341500D01*
X0171500Y0341500D02*
X0171500Y0335500D01*
X0162500Y0326500D01*
X0162500Y0218500D01*
X0150500Y0204500D01*
X0150500Y0137500D01*
X0156500Y0131500D01*
X0156500Y0120250D01*
X0166500Y0120250D02*
X0166500Y0128500D01*
X0181500Y0115500D02*
X0181500Y0165500D01*
X0166500Y0180500D01*
X0166500Y0200250D01*
X0156500Y0200250D02*
X0156500Y0191500D01*
X0176500Y0190500D02*
X0176500Y0177500D01*
X0191500Y0162500D01*
X0191500Y0114500D01*
X0196500Y0109500D01*
X0196500Y0060250D01*
X0186500Y0060250D02*
X0186500Y0110500D01*
X0181500Y0115500D01*
X0196500Y0120250D02*
X0196500Y0166500D01*
X0192500Y0166500D01*
X0196500Y0166500D02*
X0196500Y0190250D01*
X0186500Y0200250D01*
X0176500Y0200250D02*
X0176500Y0190500D01*
X0165500Y0213500D02*
X0165500Y0258500D01*
X0166000Y0259000D01*
X0193500Y0259000D01*
X0150500Y0270500D02*
X0150500Y0319500D01*
X0161500Y0330500D01*
X0161500Y0341500D01*
X0151500Y0341500D02*
X0151500Y0330500D01*
X0138500Y0317500D01*
X0138500Y0133500D01*
X0136500Y0131500D01*
X0136500Y0120250D01*
X0131500Y0128500D02*
X0135500Y0134500D01*
X0135500Y0206500D01*
X0130250Y0206500D01*
X0121500Y0196500D02*
X0121500Y0065250D01*
X0126500Y0060250D01*
X0131500Y0065250D02*
X0131500Y0128500D01*
X0146500Y0120250D02*
X0146500Y0266500D01*
X0150500Y0270500D01*
X0146500Y0271500D02*
X0143500Y0271500D01*
X0141500Y0269500D01*
X0141500Y0021500D01*
X0136500Y0060250D02*
X0131500Y0065250D01*
X0116500Y0060250D02*
X0111500Y0065250D01*
X0111500Y0191500D01*
X0106500Y0186500D02*
X0106500Y0250500D01*
X0133500Y0277500D01*
X0133500Y0323500D01*
X0129500Y0328000D02*
X0141500Y0340000D01*
X0141500Y0341500D01*
X0129500Y0328000D02*
X0129500Y0287500D01*
X0117500Y0276000D01*
X0080500Y0240500D02*
X0080500Y0176500D01*
X0057500Y0166500D02*
X0057500Y0260250D01*
X0065250Y0260250D01*
X0101500Y0230500D02*
X0101500Y0065250D01*
X0106500Y0060250D01*
X0096500Y0060250D02*
X0091500Y0065250D01*
X0091500Y0220500D01*
X0066500Y0128500D02*
X0066500Y0120250D01*
X0205500Y0317500D02*
X0235500Y0317500D01*
M02*
