G04 EAGLE Gerber X2 export*
%TF.Part,Single*%
%TF.FileFunction,Other,Solder side*%
%TF.FilePolarity,Positive*%
%TF.GenerationSoftware,Autodesk,EAGLE,9.0.1*%
%TF.CreationDate,2018-10-26T07:28:08Z*%
G75*
%MOMM*%
%FSLAX34Y34*%
%LPD*%
%AMOC8*
5,1,8,0,0,1.08239X$1,22.5*%
G01*
%ADD10C,1.879600*%
%ADD11C,1.676400*%
%ADD12C,2.184400*%
%ADD13P,2.364373X8X22.500000*%
%ADD14C,1.676400*%
%ADD15C,0.756400*%
%ADD16C,0.406400*%
%ADD17C,0.254000*%
%ADD18C,1.206400*%
%ADD19C,0.812800*%
%ADD20C,0.956400*%

G36*
X684394Y379746D02*
X684394Y379746D01*
X684513Y379753D01*
X684551Y379766D01*
X684592Y379771D01*
X684702Y379814D01*
X684815Y379851D01*
X684850Y379873D01*
X684887Y379888D01*
X684983Y379958D01*
X685084Y380021D01*
X685112Y380051D01*
X685145Y380074D01*
X685221Y380166D01*
X685302Y380253D01*
X685322Y380288D01*
X685347Y380319D01*
X685398Y380427D01*
X685456Y380531D01*
X685466Y380571D01*
X685483Y380607D01*
X685505Y380724D01*
X685535Y380839D01*
X685539Y380900D01*
X685543Y380920D01*
X685541Y380940D01*
X685545Y381000D01*
X685545Y471014D01*
X685533Y471112D01*
X685530Y471211D01*
X685513Y471270D01*
X685505Y471330D01*
X685469Y471422D01*
X685441Y471517D01*
X685411Y471569D01*
X685388Y471625D01*
X685330Y471705D01*
X685280Y471791D01*
X685214Y471866D01*
X685202Y471883D01*
X685192Y471890D01*
X685174Y471912D01*
X683841Y473244D01*
X683033Y475194D01*
X683033Y477306D01*
X683841Y479256D01*
X685334Y480749D01*
X687284Y481557D01*
X689396Y481557D01*
X691346Y480749D01*
X692839Y479256D01*
X693647Y477306D01*
X693647Y475194D01*
X692839Y473244D01*
X691506Y471912D01*
X691446Y471833D01*
X691378Y471761D01*
X691349Y471708D01*
X691312Y471660D01*
X691272Y471569D01*
X691224Y471483D01*
X691209Y471424D01*
X691185Y471368D01*
X691170Y471271D01*
X691145Y471175D01*
X691139Y471075D01*
X691135Y471054D01*
X691137Y471042D01*
X691135Y471014D01*
X691135Y381000D01*
X691150Y380882D01*
X691157Y380763D01*
X691170Y380725D01*
X691175Y380684D01*
X691218Y380574D01*
X691255Y380461D01*
X691277Y380426D01*
X691292Y380389D01*
X691361Y380293D01*
X691425Y380192D01*
X691455Y380164D01*
X691478Y380131D01*
X691570Y380056D01*
X691657Y379974D01*
X691692Y379954D01*
X691723Y379929D01*
X691831Y379878D01*
X691935Y379820D01*
X691975Y379810D01*
X692011Y379793D01*
X692128Y379771D01*
X692243Y379741D01*
X692303Y379737D01*
X692323Y379733D01*
X692344Y379735D01*
X692404Y379731D01*
X695706Y379731D01*
X695824Y379746D01*
X695943Y379753D01*
X695981Y379766D01*
X696022Y379771D01*
X696132Y379814D01*
X696245Y379851D01*
X696280Y379873D01*
X696317Y379888D01*
X696413Y379958D01*
X696514Y380021D01*
X696542Y380051D01*
X696575Y380074D01*
X696651Y380166D01*
X696732Y380253D01*
X696752Y380288D01*
X696777Y380319D01*
X696828Y380427D01*
X696886Y380531D01*
X696896Y380571D01*
X696913Y380607D01*
X696935Y380724D01*
X696965Y380839D01*
X696969Y380900D01*
X696973Y380920D01*
X696971Y380940D01*
X696975Y381000D01*
X696975Y394814D01*
X696963Y394912D01*
X696960Y395011D01*
X696943Y395070D01*
X696935Y395130D01*
X696899Y395222D01*
X696871Y395317D01*
X696841Y395369D01*
X696818Y395425D01*
X696760Y395505D01*
X696710Y395591D01*
X696644Y395666D01*
X696632Y395683D01*
X696622Y395690D01*
X696604Y395712D01*
X695271Y397044D01*
X694463Y398994D01*
X694463Y401106D01*
X695271Y403056D01*
X696764Y404549D01*
X698714Y405357D01*
X700826Y405357D01*
X702776Y404549D01*
X704269Y403056D01*
X705077Y401106D01*
X705077Y398994D01*
X704269Y397044D01*
X702936Y395712D01*
X702876Y395633D01*
X702808Y395561D01*
X702779Y395508D01*
X702742Y395460D01*
X702702Y395369D01*
X702654Y395283D01*
X702639Y395224D01*
X702615Y395168D01*
X702600Y395071D01*
X702575Y394975D01*
X702569Y394875D01*
X702565Y394854D01*
X702567Y394842D01*
X702565Y394814D01*
X702565Y382683D01*
X702577Y382585D01*
X702580Y382486D01*
X702597Y382428D01*
X702605Y382368D01*
X702641Y382276D01*
X702669Y382181D01*
X702699Y382128D01*
X702722Y382072D01*
X702780Y381992D01*
X702830Y381907D01*
X702896Y381831D01*
X702908Y381815D01*
X702918Y381807D01*
X702936Y381786D01*
X704620Y380103D01*
X704698Y380042D01*
X704770Y379974D01*
X704823Y379945D01*
X704871Y379908D01*
X704962Y379868D01*
X705049Y379820D01*
X705107Y379805D01*
X705163Y379781D01*
X705261Y379766D01*
X705357Y379741D01*
X705457Y379735D01*
X705477Y379731D01*
X705489Y379733D01*
X705517Y379731D01*
X813816Y379731D01*
X813934Y379746D01*
X814053Y379753D01*
X814091Y379766D01*
X814132Y379771D01*
X814242Y379814D01*
X814355Y379851D01*
X814390Y379873D01*
X814427Y379888D01*
X814523Y379958D01*
X814624Y380021D01*
X814652Y380051D01*
X814685Y380074D01*
X814761Y380166D01*
X814842Y380253D01*
X814862Y380288D01*
X814887Y380319D01*
X814938Y380427D01*
X814996Y380531D01*
X815006Y380571D01*
X815023Y380607D01*
X815045Y380724D01*
X815075Y380839D01*
X815079Y380900D01*
X815083Y380920D01*
X815081Y380940D01*
X815085Y381000D01*
X815085Y454548D01*
X864244Y503706D01*
X864304Y503784D01*
X864372Y503856D01*
X864401Y503909D01*
X864438Y503957D01*
X864478Y504048D01*
X864526Y504135D01*
X864541Y504193D01*
X864565Y504249D01*
X864580Y504347D01*
X864605Y504443D01*
X864611Y504543D01*
X864615Y504563D01*
X864613Y504575D01*
X864615Y504603D01*
X864615Y563797D01*
X864612Y563826D01*
X864614Y563856D01*
X864596Y563958D01*
X864593Y564009D01*
X864586Y564032D01*
X864575Y564112D01*
X864565Y564140D01*
X864560Y564169D01*
X864506Y564287D01*
X864458Y564408D01*
X864441Y564432D01*
X864429Y564459D01*
X864348Y564560D01*
X864272Y564665D01*
X864249Y564684D01*
X864230Y564707D01*
X864127Y564785D01*
X864027Y564868D01*
X864000Y564881D01*
X863976Y564899D01*
X863832Y564969D01*
X861223Y566050D01*
X858150Y569123D01*
X856487Y573137D01*
X856487Y577483D01*
X858150Y581497D01*
X861223Y584570D01*
X865237Y586233D01*
X869583Y586233D01*
X873597Y584570D01*
X876670Y581497D01*
X878333Y577483D01*
X878333Y573137D01*
X876670Y569123D01*
X873597Y566050D01*
X870988Y564969D01*
X870963Y564955D01*
X870935Y564946D01*
X870825Y564876D01*
X870712Y564812D01*
X870691Y564791D01*
X870666Y564776D01*
X870577Y564681D01*
X870484Y564591D01*
X870468Y564565D01*
X870448Y564544D01*
X870385Y564430D01*
X870317Y564320D01*
X870309Y564291D01*
X870294Y564265D01*
X870270Y564171D01*
X870267Y564165D01*
X870263Y564144D01*
X870262Y564140D01*
X870224Y564016D01*
X870222Y563986D01*
X870215Y563958D01*
X870209Y563860D01*
X870207Y563853D01*
X870208Y563845D01*
X870205Y563797D01*
X870205Y501762D01*
X821046Y452604D01*
X820986Y452526D01*
X820918Y452454D01*
X820889Y452401D01*
X820852Y452353D01*
X820812Y452262D01*
X820764Y452175D01*
X820749Y452117D01*
X820725Y452061D01*
X820710Y451963D01*
X820685Y451867D01*
X820679Y451767D01*
X820675Y451747D01*
X820677Y451735D01*
X820675Y451707D01*
X820675Y381000D01*
X820690Y380882D01*
X820697Y380763D01*
X820710Y380725D01*
X820715Y380684D01*
X820758Y380574D01*
X820795Y380461D01*
X820817Y380426D01*
X820832Y380389D01*
X820901Y380293D01*
X820965Y380192D01*
X820995Y380164D01*
X821018Y380131D01*
X821110Y380056D01*
X821197Y379974D01*
X821232Y379954D01*
X821263Y379929D01*
X821371Y379878D01*
X821475Y379820D01*
X821515Y379810D01*
X821551Y379793D01*
X821668Y379771D01*
X821783Y379741D01*
X821843Y379737D01*
X821863Y379733D01*
X821884Y379735D01*
X821944Y379731D01*
X836676Y379731D01*
X836794Y379746D01*
X836913Y379753D01*
X836951Y379766D01*
X836992Y379771D01*
X837102Y379814D01*
X837215Y379851D01*
X837250Y379873D01*
X837287Y379888D01*
X837383Y379958D01*
X837484Y380021D01*
X837512Y380051D01*
X837545Y380074D01*
X837621Y380166D01*
X837702Y380253D01*
X837722Y380288D01*
X837747Y380319D01*
X837798Y380427D01*
X837856Y380531D01*
X837866Y380571D01*
X837883Y380607D01*
X837905Y380724D01*
X837935Y380839D01*
X837939Y380900D01*
X837943Y380920D01*
X837941Y380940D01*
X837945Y381000D01*
X837945Y455774D01*
X837933Y455872D01*
X837930Y455971D01*
X837913Y456030D01*
X837905Y456090D01*
X837869Y456182D01*
X837841Y456277D01*
X837811Y456329D01*
X837788Y456385D01*
X837730Y456465D01*
X837680Y456551D01*
X837614Y456626D01*
X837602Y456643D01*
X837592Y456650D01*
X837574Y456672D01*
X836241Y458004D01*
X835433Y459954D01*
X835433Y462066D01*
X836241Y464016D01*
X837734Y465509D01*
X839684Y466317D01*
X841796Y466317D01*
X843746Y465509D01*
X845239Y464016D01*
X846047Y462066D01*
X846047Y459954D01*
X845239Y458004D01*
X843906Y456672D01*
X843846Y456593D01*
X843778Y456521D01*
X843749Y456468D01*
X843712Y456420D01*
X843672Y456329D01*
X843624Y456243D01*
X843609Y456184D01*
X843585Y456128D01*
X843570Y456031D01*
X843545Y455935D01*
X843539Y455835D01*
X843535Y455814D01*
X843537Y455802D01*
X843535Y455774D01*
X843535Y381000D01*
X843550Y380882D01*
X843557Y380763D01*
X843570Y380725D01*
X843575Y380684D01*
X843618Y380574D01*
X843655Y380461D01*
X843677Y380426D01*
X843692Y380389D01*
X843761Y380293D01*
X843825Y380192D01*
X843855Y380164D01*
X843878Y380131D01*
X843970Y380056D01*
X844057Y379974D01*
X844092Y379954D01*
X844123Y379929D01*
X844231Y379878D01*
X844335Y379820D01*
X844375Y379810D01*
X844411Y379793D01*
X844528Y379771D01*
X844643Y379741D01*
X844703Y379737D01*
X844723Y379733D01*
X844744Y379735D01*
X844804Y379731D01*
X848106Y379731D01*
X848224Y379746D01*
X848343Y379753D01*
X848381Y379766D01*
X848422Y379771D01*
X848532Y379814D01*
X848645Y379851D01*
X848680Y379873D01*
X848717Y379888D01*
X848813Y379958D01*
X848914Y380021D01*
X848942Y380051D01*
X848975Y380074D01*
X849051Y380166D01*
X849132Y380253D01*
X849152Y380288D01*
X849177Y380319D01*
X849228Y380427D01*
X849286Y380531D01*
X849296Y380571D01*
X849313Y380607D01*
X849335Y380724D01*
X849365Y380839D01*
X849369Y380900D01*
X849373Y380920D01*
X849371Y380940D01*
X849375Y381000D01*
X849375Y463394D01*
X849363Y463492D01*
X849360Y463591D01*
X849343Y463650D01*
X849335Y463710D01*
X849299Y463802D01*
X849271Y463897D01*
X849241Y463949D01*
X849218Y464005D01*
X849160Y464085D01*
X849110Y464171D01*
X849044Y464246D01*
X849032Y464263D01*
X849022Y464270D01*
X849004Y464292D01*
X847671Y465624D01*
X846863Y467574D01*
X846863Y469686D01*
X847671Y471636D01*
X849164Y473129D01*
X851114Y473937D01*
X853226Y473937D01*
X855176Y473129D01*
X856669Y471636D01*
X857477Y469686D01*
X857477Y467574D01*
X856669Y465624D01*
X855336Y464292D01*
X855276Y464213D01*
X855208Y464141D01*
X855179Y464088D01*
X855142Y464040D01*
X855102Y463949D01*
X855054Y463863D01*
X855039Y463804D01*
X855015Y463748D01*
X855000Y463651D01*
X854975Y463555D01*
X854969Y463455D01*
X854965Y463434D01*
X854967Y463422D01*
X854965Y463394D01*
X854965Y381000D01*
X854980Y380882D01*
X854987Y380763D01*
X855000Y380725D01*
X855005Y380684D01*
X855048Y380574D01*
X855085Y380461D01*
X855107Y380426D01*
X855122Y380389D01*
X855191Y380293D01*
X855255Y380192D01*
X855285Y380164D01*
X855308Y380131D01*
X855400Y380056D01*
X855487Y379974D01*
X855522Y379954D01*
X855553Y379929D01*
X855661Y379878D01*
X855765Y379820D01*
X855805Y379810D01*
X855841Y379793D01*
X855958Y379771D01*
X856073Y379741D01*
X856133Y379737D01*
X856153Y379733D01*
X856174Y379735D01*
X856234Y379731D01*
X947420Y379731D01*
X947518Y379743D01*
X947617Y379746D01*
X947675Y379763D01*
X947736Y379771D01*
X947828Y379807D01*
X947923Y379835D01*
X947975Y379865D01*
X948031Y379888D01*
X948111Y379946D01*
X948197Y379996D01*
X948272Y380062D01*
X948289Y380074D01*
X948296Y380084D01*
X948318Y380103D01*
X971178Y402963D01*
X971238Y403041D01*
X971306Y403113D01*
X971330Y403157D01*
X971338Y403166D01*
X971342Y403174D01*
X971372Y403214D01*
X971412Y403305D01*
X971460Y403391D01*
X971475Y403450D01*
X971499Y403506D01*
X971514Y403604D01*
X971539Y403699D01*
X971545Y403799D01*
X971549Y403820D01*
X971547Y403832D01*
X971549Y403860D01*
X971549Y537210D01*
X971545Y537244D01*
X971547Y537277D01*
X971525Y537401D01*
X971509Y537526D01*
X971497Y537557D01*
X971491Y537590D01*
X971439Y537705D01*
X971392Y537821D01*
X971373Y537849D01*
X971358Y537879D01*
X971265Y538010D01*
X921735Y598970D01*
X921731Y598974D01*
X921729Y598978D01*
X921616Y599085D01*
X921505Y599190D01*
X921501Y599193D01*
X921497Y599196D01*
X921362Y599271D01*
X921228Y599346D01*
X921223Y599347D01*
X921219Y599350D01*
X921070Y599388D01*
X920921Y599428D01*
X920916Y599428D01*
X920911Y599429D01*
X920750Y599439D01*
X147320Y599439D01*
X147222Y599427D01*
X147123Y599424D01*
X147065Y599407D01*
X147004Y599399D01*
X146912Y599363D01*
X146817Y599335D01*
X146765Y599305D01*
X146709Y599282D01*
X146629Y599224D01*
X146543Y599174D01*
X146468Y599108D01*
X146451Y599096D01*
X146444Y599086D01*
X146423Y599068D01*
X142613Y595258D01*
X142552Y595179D01*
X142484Y595107D01*
X142455Y595054D01*
X142418Y595006D01*
X142378Y594915D01*
X142330Y594829D01*
X142315Y594770D01*
X142291Y594714D01*
X142276Y594616D01*
X142251Y594521D01*
X142245Y594421D01*
X142241Y594400D01*
X142243Y594388D01*
X142241Y594360D01*
X142241Y556260D01*
X142253Y556162D01*
X142256Y556063D01*
X142273Y556005D01*
X142281Y555944D01*
X142317Y555852D01*
X142345Y555757D01*
X142375Y555705D01*
X142398Y555649D01*
X142456Y555569D01*
X142506Y555483D01*
X142572Y555408D01*
X142584Y555391D01*
X142594Y555384D01*
X142613Y555363D01*
X154043Y543933D01*
X154121Y543872D01*
X154193Y543804D01*
X154246Y543775D01*
X154294Y543738D01*
X154385Y543698D01*
X154471Y543650D01*
X154530Y543635D01*
X154586Y543611D01*
X154684Y543596D01*
X154779Y543571D01*
X154879Y543565D01*
X154900Y543561D01*
X154912Y543563D01*
X154940Y543561D01*
X209296Y543561D01*
X209414Y543576D01*
X209533Y543583D01*
X209571Y543596D01*
X209612Y543601D01*
X209722Y543644D01*
X209835Y543681D01*
X209870Y543703D01*
X209907Y543718D01*
X210003Y543788D01*
X210104Y543851D01*
X210132Y543881D01*
X210165Y543904D01*
X210241Y543996D01*
X210322Y544083D01*
X210342Y544118D01*
X210367Y544149D01*
X210418Y544257D01*
X210476Y544361D01*
X210486Y544401D01*
X210503Y544437D01*
X210525Y544554D01*
X210555Y544669D01*
X210559Y544730D01*
X210563Y544750D01*
X210561Y544770D01*
X210565Y544830D01*
X210565Y557447D01*
X210562Y557476D01*
X210564Y557506D01*
X210546Y557606D01*
X210543Y557663D01*
X210535Y557688D01*
X210525Y557762D01*
X210515Y557790D01*
X210510Y557819D01*
X210456Y557937D01*
X210408Y558058D01*
X210391Y558082D01*
X210379Y558109D01*
X210298Y558210D01*
X210222Y558315D01*
X210199Y558334D01*
X210180Y558357D01*
X210077Y558435D01*
X209977Y558518D01*
X209950Y558531D01*
X209926Y558549D01*
X209782Y558619D01*
X207173Y559700D01*
X204100Y562773D01*
X202437Y566787D01*
X202437Y571133D01*
X204100Y575147D01*
X207173Y578220D01*
X211187Y579883D01*
X215533Y579883D01*
X219547Y578220D01*
X222620Y575147D01*
X224283Y571133D01*
X224283Y566787D01*
X222620Y562773D01*
X219547Y559700D01*
X216938Y558619D01*
X216913Y558605D01*
X216885Y558596D01*
X216775Y558526D01*
X216662Y558462D01*
X216641Y558441D01*
X216616Y558426D01*
X216527Y558331D01*
X216434Y558241D01*
X216418Y558215D01*
X216398Y558194D01*
X216335Y558080D01*
X216267Y557970D01*
X216259Y557941D01*
X216244Y557915D01*
X216222Y557830D01*
X216217Y557819D01*
X216211Y557786D01*
X216174Y557666D01*
X216172Y557636D01*
X216165Y557608D01*
X216159Y557516D01*
X216157Y557506D01*
X216158Y557497D01*
X216155Y557447D01*
X216155Y544830D01*
X216170Y544712D01*
X216177Y544593D01*
X216190Y544555D01*
X216195Y544514D01*
X216238Y544404D01*
X216275Y544291D01*
X216297Y544256D01*
X216312Y544219D01*
X216381Y544123D01*
X216445Y544022D01*
X216475Y543994D01*
X216498Y543961D01*
X216590Y543886D01*
X216677Y543804D01*
X216712Y543784D01*
X216743Y543759D01*
X216851Y543708D01*
X216955Y543650D01*
X216995Y543640D01*
X217031Y543623D01*
X217148Y543601D01*
X217263Y543571D01*
X217323Y543567D01*
X217343Y543563D01*
X217364Y543565D01*
X217424Y543561D01*
X257143Y543561D01*
X257280Y543578D01*
X257419Y543591D01*
X257438Y543598D01*
X257458Y543601D01*
X257587Y543652D01*
X257718Y543699D01*
X257735Y543710D01*
X257754Y543718D01*
X257866Y543799D01*
X257981Y543877D01*
X257995Y543893D01*
X258011Y543904D01*
X258100Y544012D01*
X258192Y544116D01*
X258201Y544134D01*
X258214Y544149D01*
X258273Y544275D01*
X258337Y544399D01*
X258341Y544419D01*
X258350Y544437D01*
X258376Y544573D01*
X258406Y544709D01*
X258406Y544730D01*
X258409Y544750D01*
X258401Y544888D01*
X258397Y545027D01*
X258391Y545047D01*
X258390Y545067D01*
X258347Y545199D01*
X258308Y545333D01*
X258298Y545350D01*
X258292Y545369D01*
X258217Y545487D01*
X258147Y545607D01*
X258128Y545628D01*
X258121Y545638D01*
X258107Y545652D01*
X258040Y545728D01*
X244925Y558843D01*
X244901Y558861D01*
X244882Y558883D01*
X244776Y558958D01*
X244674Y559038D01*
X244646Y559050D01*
X244622Y559066D01*
X244501Y559112D01*
X244382Y559164D01*
X244353Y559169D01*
X244325Y559179D01*
X244196Y559194D01*
X244068Y559214D01*
X244038Y559211D01*
X244009Y559214D01*
X243880Y559196D01*
X243751Y559184D01*
X243723Y559174D01*
X243694Y559170D01*
X243542Y559118D01*
X240933Y558037D01*
X236587Y558037D01*
X232573Y559700D01*
X229500Y562773D01*
X227837Y566787D01*
X227837Y571133D01*
X229500Y575147D01*
X232573Y578220D01*
X236587Y579883D01*
X240933Y579883D01*
X244947Y578220D01*
X248020Y575147D01*
X249683Y571133D01*
X249683Y566787D01*
X248602Y564178D01*
X248594Y564150D01*
X248581Y564124D01*
X248552Y563997D01*
X248518Y563872D01*
X248518Y563842D01*
X248511Y563813D01*
X248515Y563684D01*
X248513Y563554D01*
X248520Y563525D01*
X248521Y563495D01*
X248557Y563371D01*
X248587Y563244D01*
X248601Y563218D01*
X248609Y563190D01*
X248675Y563078D01*
X248736Y562963D01*
X248756Y562941D01*
X248771Y562916D01*
X248877Y562795D01*
X267740Y543933D01*
X267818Y543872D01*
X267890Y543804D01*
X267943Y543775D01*
X267991Y543738D01*
X268082Y543698D01*
X268169Y543650D01*
X268227Y543635D01*
X268283Y543611D01*
X268381Y543596D01*
X268477Y543571D01*
X268577Y543565D01*
X268597Y543561D01*
X268609Y543563D01*
X268637Y543561D01*
X403051Y543561D01*
X403150Y543573D01*
X403249Y543576D01*
X403307Y543593D01*
X403367Y543601D01*
X403459Y543637D01*
X403554Y543665D01*
X403606Y543695D01*
X403663Y543718D01*
X403743Y543776D01*
X403828Y543826D01*
X403903Y543892D01*
X403920Y543904D01*
X403928Y543914D01*
X403949Y543933D01*
X410854Y550838D01*
X412908Y551689D01*
X705819Y551689D01*
X705918Y551701D01*
X706017Y551704D01*
X706075Y551721D01*
X706135Y551729D01*
X706227Y551765D01*
X706322Y551793D01*
X706374Y551823D01*
X706431Y551846D01*
X706511Y551904D01*
X706596Y551954D01*
X706671Y552020D01*
X706688Y552032D01*
X706696Y552042D01*
X706717Y552060D01*
X714130Y559473D01*
X714190Y559551D01*
X714258Y559624D01*
X714287Y559677D01*
X714324Y559724D01*
X714364Y559815D01*
X714412Y559902D01*
X714427Y559961D01*
X714451Y560016D01*
X714466Y560114D01*
X714491Y560210D01*
X714497Y560310D01*
X714501Y560330D01*
X714499Y560343D01*
X714501Y560371D01*
X714501Y564954D01*
X714498Y564984D01*
X714500Y565013D01*
X714478Y565141D01*
X714461Y565270D01*
X714451Y565297D01*
X714445Y565326D01*
X714392Y565445D01*
X714344Y565565D01*
X714327Y565589D01*
X714315Y565616D01*
X714234Y565718D01*
X714158Y565823D01*
X714135Y565842D01*
X714116Y565865D01*
X714013Y565943D01*
X713999Y565954D01*
X710830Y569123D01*
X709167Y573137D01*
X709167Y577483D01*
X710830Y581497D01*
X713903Y584570D01*
X717917Y586233D01*
X722263Y586233D01*
X726277Y584570D01*
X729350Y581497D01*
X731013Y577483D01*
X731013Y573137D01*
X729350Y569123D01*
X726210Y565983D01*
X726186Y565969D01*
X726165Y565949D01*
X726140Y565933D01*
X726051Y565838D01*
X725958Y565748D01*
X725942Y565723D01*
X725922Y565701D01*
X725859Y565588D01*
X725791Y565477D01*
X725783Y565449D01*
X725768Y565423D01*
X725736Y565297D01*
X725698Y565173D01*
X725696Y565143D01*
X725689Y565115D01*
X725679Y564954D01*
X725679Y556418D01*
X724828Y554364D01*
X711826Y541362D01*
X709772Y540511D01*
X518668Y540511D01*
X518530Y540494D01*
X518392Y540481D01*
X518373Y540474D01*
X518352Y540471D01*
X518223Y540420D01*
X518092Y540373D01*
X518076Y540362D01*
X518057Y540354D01*
X517944Y540273D01*
X517829Y540195D01*
X517816Y540179D01*
X517799Y540168D01*
X517711Y540060D01*
X517619Y539956D01*
X517610Y539938D01*
X517597Y539923D01*
X517537Y539797D01*
X517474Y539673D01*
X517470Y539653D01*
X517461Y539635D01*
X517435Y539499D01*
X517404Y539363D01*
X517405Y539342D01*
X517401Y539323D01*
X517410Y539184D01*
X517414Y539045D01*
X517420Y539025D01*
X517421Y539005D01*
X517464Y538873D01*
X517503Y538739D01*
X517513Y538722D01*
X517519Y538703D01*
X517593Y538585D01*
X517664Y538465D01*
X517683Y538444D01*
X517689Y538434D01*
X517704Y538420D01*
X517770Y538345D01*
X560109Y496006D01*
X560203Y495933D01*
X560292Y495854D01*
X560328Y495836D01*
X560360Y495811D01*
X560469Y495764D01*
X560575Y495710D01*
X560615Y495701D01*
X560652Y495685D01*
X560770Y495666D01*
X560886Y495640D01*
X560926Y495641D01*
X560966Y495635D01*
X561085Y495646D01*
X561204Y495650D01*
X561242Y495661D01*
X561283Y495665D01*
X561395Y495705D01*
X561509Y495738D01*
X561544Y495759D01*
X561582Y495772D01*
X561680Y495839D01*
X561783Y495900D01*
X561828Y495940D01*
X561845Y495951D01*
X561859Y495966D01*
X561904Y496006D01*
X582332Y516434D01*
X582392Y516512D01*
X582460Y516584D01*
X582489Y516637D01*
X582526Y516685D01*
X582566Y516776D01*
X582614Y516863D01*
X582629Y516921D01*
X582653Y516977D01*
X582668Y517075D01*
X582693Y517171D01*
X582699Y517271D01*
X582703Y517291D01*
X582701Y517303D01*
X582703Y517331D01*
X582703Y519216D01*
X583511Y521166D01*
X585004Y522659D01*
X586954Y523467D01*
X589066Y523467D01*
X591016Y522659D01*
X592509Y521166D01*
X593317Y519216D01*
X593317Y518409D01*
X593329Y518311D01*
X593332Y518212D01*
X593349Y518154D01*
X593357Y518093D01*
X593393Y518001D01*
X593421Y517906D01*
X593451Y517854D01*
X593474Y517798D01*
X593532Y517718D01*
X593582Y517632D01*
X593648Y517557D01*
X593660Y517540D01*
X593670Y517533D01*
X593688Y517511D01*
X601811Y509388D01*
X601890Y509328D01*
X601962Y509260D01*
X602015Y509231D01*
X602063Y509194D01*
X602154Y509154D01*
X602240Y509106D01*
X602299Y509091D01*
X602355Y509067D01*
X602453Y509052D01*
X602548Y509027D01*
X602648Y509021D01*
X602669Y509017D01*
X602681Y509019D01*
X602709Y509017D01*
X608936Y509017D01*
X609034Y509029D01*
X609133Y509032D01*
X609192Y509049D01*
X609252Y509057D01*
X609344Y509093D01*
X609439Y509121D01*
X609491Y509151D01*
X609547Y509174D01*
X609627Y509232D01*
X609713Y509282D01*
X609788Y509348D01*
X609805Y509360D01*
X609812Y509370D01*
X609834Y509388D01*
X610404Y509959D01*
X612354Y510767D01*
X614466Y510767D01*
X616416Y509959D01*
X617909Y508466D01*
X618717Y506516D01*
X618717Y504404D01*
X617909Y502454D01*
X616416Y500961D01*
X614466Y500153D01*
X612354Y500153D01*
X610404Y500961D01*
X609834Y501532D01*
X609755Y501592D01*
X609683Y501660D01*
X609630Y501689D01*
X609582Y501726D01*
X609491Y501766D01*
X609405Y501814D01*
X609346Y501829D01*
X609290Y501853D01*
X609193Y501868D01*
X609097Y501893D01*
X608997Y501899D01*
X608976Y501903D01*
X608964Y501901D01*
X608936Y501903D01*
X599237Y501903D01*
X588659Y512482D01*
X588580Y512542D01*
X588508Y512610D01*
X588455Y512639D01*
X588407Y512676D01*
X588316Y512716D01*
X588230Y512764D01*
X588171Y512779D01*
X588115Y512803D01*
X588017Y512818D01*
X587922Y512843D01*
X587822Y512849D01*
X587801Y512853D01*
X587789Y512851D01*
X587761Y512853D01*
X587181Y512853D01*
X587083Y512841D01*
X586984Y512838D01*
X586926Y512821D01*
X586866Y512813D01*
X586774Y512777D01*
X586679Y512749D01*
X586626Y512719D01*
X586570Y512696D01*
X586490Y512638D01*
X586405Y512588D01*
X586329Y512522D01*
X586313Y512510D01*
X586305Y512500D01*
X586284Y512482D01*
X565856Y492054D01*
X565783Y491960D01*
X565704Y491871D01*
X565686Y491835D01*
X565661Y491803D01*
X565614Y491693D01*
X565560Y491587D01*
X565551Y491548D01*
X565535Y491511D01*
X565516Y491393D01*
X565490Y491277D01*
X565491Y491237D01*
X565485Y491197D01*
X565496Y491078D01*
X565500Y490959D01*
X565511Y490920D01*
X565515Y490880D01*
X565555Y490768D01*
X565588Y490654D01*
X565609Y490619D01*
X565622Y490581D01*
X565689Y490482D01*
X565750Y490380D01*
X565790Y490334D01*
X565801Y490318D01*
X565816Y490304D01*
X565856Y490259D01*
X676013Y380103D01*
X676091Y380042D01*
X676163Y379974D01*
X676216Y379945D01*
X676264Y379908D01*
X676355Y379868D01*
X676441Y379820D01*
X676500Y379805D01*
X676556Y379781D01*
X676654Y379766D01*
X676749Y379741D01*
X676849Y379735D01*
X676870Y379731D01*
X676882Y379733D01*
X676910Y379731D01*
X684276Y379731D01*
X684394Y379746D01*
G37*
%LPC*%
G36*
X805394Y482373D02*
X805394Y482373D01*
X803444Y483181D01*
X802112Y484514D01*
X802033Y484574D01*
X801961Y484642D01*
X801908Y484671D01*
X801860Y484708D01*
X801769Y484748D01*
X801683Y484796D01*
X801624Y484811D01*
X801568Y484835D01*
X801471Y484850D01*
X801375Y484875D01*
X801275Y484881D01*
X801254Y484885D01*
X801242Y484883D01*
X801214Y484885D01*
X660512Y484885D01*
X629106Y516292D01*
X629028Y516352D01*
X628956Y516420D01*
X628903Y516449D01*
X628855Y516486D01*
X628764Y516526D01*
X628677Y516574D01*
X628619Y516589D01*
X628563Y516613D01*
X628465Y516628D01*
X628369Y516653D01*
X628269Y516659D01*
X628249Y516663D01*
X628237Y516661D01*
X628209Y516663D01*
X626324Y516663D01*
X624374Y517471D01*
X622881Y518964D01*
X622073Y520914D01*
X622073Y523026D01*
X622881Y524976D01*
X624374Y526469D01*
X626324Y527277D01*
X628436Y527277D01*
X630386Y526469D01*
X631879Y524976D01*
X632687Y523026D01*
X632687Y521141D01*
X632699Y521043D01*
X632702Y520944D01*
X632719Y520886D01*
X632727Y520826D01*
X632763Y520734D01*
X632791Y520639D01*
X632821Y520586D01*
X632844Y520530D01*
X632902Y520450D01*
X632952Y520365D01*
X633018Y520289D01*
X633030Y520273D01*
X633040Y520265D01*
X633058Y520244D01*
X662456Y490846D01*
X662534Y490786D01*
X662606Y490718D01*
X662659Y490689D01*
X662707Y490652D01*
X662798Y490612D01*
X662885Y490564D01*
X662943Y490549D01*
X662999Y490525D01*
X663097Y490510D01*
X663193Y490485D01*
X663293Y490479D01*
X663313Y490475D01*
X663325Y490477D01*
X663353Y490475D01*
X770325Y490475D01*
X770375Y490481D01*
X770424Y490479D01*
X770532Y490501D01*
X770641Y490515D01*
X770687Y490533D01*
X770736Y490543D01*
X770834Y490591D01*
X770936Y490632D01*
X770976Y490661D01*
X771021Y490683D01*
X771105Y490754D01*
X771194Y490818D01*
X771225Y490857D01*
X771263Y490889D01*
X771327Y490979D01*
X771397Y491063D01*
X771418Y491108D01*
X771446Y491149D01*
X771485Y491252D01*
X771532Y491351D01*
X771541Y491400D01*
X771559Y491446D01*
X771571Y491556D01*
X771592Y491663D01*
X771589Y491713D01*
X771594Y491762D01*
X771579Y491871D01*
X771572Y491981D01*
X771557Y492028D01*
X771550Y492077D01*
X771498Y492230D01*
X770663Y494244D01*
X770663Y496356D01*
X771471Y498306D01*
X772964Y499799D01*
X774914Y500607D01*
X777026Y500607D01*
X778976Y499799D01*
X780308Y498466D01*
X780387Y498406D01*
X780459Y498338D01*
X780512Y498309D01*
X780560Y498272D01*
X780651Y498232D01*
X780737Y498184D01*
X780796Y498169D01*
X780852Y498145D01*
X780949Y498130D01*
X781045Y498105D01*
X781145Y498099D01*
X781166Y498095D01*
X781178Y498097D01*
X781206Y498095D01*
X826658Y498095D01*
X831394Y493358D01*
X831472Y493298D01*
X831544Y493230D01*
X831597Y493201D01*
X831645Y493164D01*
X831736Y493124D01*
X831823Y493076D01*
X831881Y493061D01*
X831937Y493037D01*
X832035Y493022D01*
X832131Y492997D01*
X832231Y492991D01*
X832251Y492987D01*
X832263Y492989D01*
X832291Y492987D01*
X834176Y492987D01*
X836126Y492179D01*
X837619Y490686D01*
X838427Y488736D01*
X838427Y486624D01*
X837619Y484674D01*
X836126Y483181D01*
X834176Y482373D01*
X832064Y482373D01*
X830114Y483181D01*
X828621Y484674D01*
X827813Y486624D01*
X827813Y488509D01*
X827801Y488607D01*
X827798Y488706D01*
X827781Y488764D01*
X827773Y488824D01*
X827737Y488916D01*
X827709Y489011D01*
X827679Y489064D01*
X827656Y489120D01*
X827598Y489200D01*
X827548Y489285D01*
X827482Y489361D01*
X827470Y489377D01*
X827460Y489385D01*
X827442Y489406D01*
X824714Y492134D01*
X824636Y492194D01*
X824564Y492262D01*
X824511Y492291D01*
X824463Y492328D01*
X824372Y492368D01*
X824285Y492416D01*
X824227Y492431D01*
X824171Y492455D01*
X824073Y492470D01*
X823977Y492495D01*
X823877Y492501D01*
X823857Y492505D01*
X823845Y492503D01*
X823817Y492505D01*
X812095Y492505D01*
X812045Y492499D01*
X811996Y492501D01*
X811888Y492479D01*
X811779Y492465D01*
X811733Y492447D01*
X811684Y492437D01*
X811586Y492389D01*
X811484Y492348D01*
X811443Y492319D01*
X811399Y492297D01*
X811315Y492226D01*
X811226Y492162D01*
X811195Y492123D01*
X811157Y492091D01*
X811094Y492001D01*
X811023Y491917D01*
X811002Y491872D01*
X810974Y491831D01*
X810935Y491728D01*
X810888Y491629D01*
X810879Y491580D01*
X810861Y491534D01*
X810849Y491424D01*
X810828Y491317D01*
X810831Y491267D01*
X810826Y491218D01*
X810841Y491109D01*
X810848Y490999D01*
X810863Y490952D01*
X810870Y490903D01*
X810922Y490750D01*
X811757Y488736D01*
X811757Y486624D01*
X810949Y484674D01*
X809456Y483181D01*
X807506Y482373D01*
X805394Y482373D01*
G37*
%LPD*%
%LPC*%
G36*
X937184Y407720D02*
X937184Y407720D01*
X929893Y415011D01*
X929893Y425322D01*
X937184Y432614D01*
X947496Y432614D01*
X954787Y425322D01*
X954787Y415011D01*
X947496Y407720D01*
X937184Y407720D01*
G37*
%LPD*%
%LPC*%
G36*
X839837Y564387D02*
X839837Y564387D01*
X835823Y566050D01*
X832750Y569123D01*
X831087Y573137D01*
X831087Y577483D01*
X832750Y581497D01*
X835823Y584570D01*
X839837Y586233D01*
X844183Y586233D01*
X848197Y584570D01*
X851270Y581497D01*
X852933Y577483D01*
X852933Y573137D01*
X851270Y569123D01*
X848197Y566050D01*
X844183Y564387D01*
X839837Y564387D01*
G37*
%LPD*%
%LPC*%
G36*
X667117Y564387D02*
X667117Y564387D01*
X663103Y566050D01*
X660030Y569123D01*
X658367Y573137D01*
X658367Y577483D01*
X660030Y581497D01*
X663103Y584570D01*
X667117Y586233D01*
X671463Y586233D01*
X675477Y584570D01*
X678550Y581497D01*
X680213Y577483D01*
X680213Y573137D01*
X678550Y569123D01*
X675477Y566050D01*
X671463Y564387D01*
X667117Y564387D01*
G37*
%LPD*%
%LPC*%
G36*
X692517Y564387D02*
X692517Y564387D01*
X688503Y566050D01*
X685430Y569123D01*
X683767Y573137D01*
X683767Y577483D01*
X685430Y581497D01*
X688503Y584570D01*
X692517Y586233D01*
X696863Y586233D01*
X700877Y584570D01*
X703950Y581497D01*
X705613Y577483D01*
X705613Y573137D01*
X703950Y569123D01*
X700877Y566050D01*
X696863Y564387D01*
X692517Y564387D01*
G37*
%LPD*%
%LPC*%
G36*
X743317Y564387D02*
X743317Y564387D01*
X739303Y566050D01*
X736230Y569123D01*
X734567Y573137D01*
X734567Y577483D01*
X736230Y581497D01*
X739303Y584570D01*
X743317Y586233D01*
X747663Y586233D01*
X751677Y584570D01*
X754750Y581497D01*
X756413Y577483D01*
X756413Y573137D01*
X754750Y569123D01*
X751677Y566050D01*
X747663Y564387D01*
X743317Y564387D01*
G37*
%LPD*%
%LPC*%
G36*
X814437Y564387D02*
X814437Y564387D01*
X810423Y566050D01*
X807350Y569123D01*
X805687Y573137D01*
X805687Y577483D01*
X807350Y581497D01*
X810423Y584570D01*
X814437Y586233D01*
X818783Y586233D01*
X822797Y584570D01*
X825870Y581497D01*
X827533Y577483D01*
X827533Y573137D01*
X825870Y569123D01*
X822797Y566050D01*
X818783Y564387D01*
X814437Y564387D01*
G37*
%LPD*%
%LPC*%
G36*
X890637Y564387D02*
X890637Y564387D01*
X886623Y566050D01*
X883550Y569123D01*
X881887Y573137D01*
X881887Y577483D01*
X883550Y581497D01*
X886623Y584570D01*
X890637Y586233D01*
X894983Y586233D01*
X898997Y584570D01*
X902070Y581497D01*
X903733Y577483D01*
X903733Y573137D01*
X902070Y569123D01*
X898997Y566050D01*
X894983Y564387D01*
X890637Y564387D01*
G37*
%LPD*%
%LPC*%
G36*
X789037Y564387D02*
X789037Y564387D01*
X785023Y566050D01*
X781950Y569123D01*
X780287Y573137D01*
X780287Y577483D01*
X781950Y581497D01*
X785023Y584570D01*
X789037Y586233D01*
X793383Y586233D01*
X797397Y584570D01*
X800470Y581497D01*
X802133Y577483D01*
X802133Y573137D01*
X800470Y569123D01*
X797397Y566050D01*
X793383Y564387D01*
X789037Y564387D01*
G37*
%LPD*%
%LPC*%
G36*
X916037Y526287D02*
X916037Y526287D01*
X912023Y527950D01*
X908950Y531023D01*
X907287Y535037D01*
X907287Y539383D01*
X908950Y543397D01*
X912023Y546470D01*
X916037Y548133D01*
X920383Y548133D01*
X924397Y546470D01*
X927470Y543397D01*
X929133Y539383D01*
X929133Y535037D01*
X927470Y531023D01*
X924397Y527950D01*
X920383Y526287D01*
X916037Y526287D01*
G37*
%LPD*%
%LPC*%
G36*
X795387Y526287D02*
X795387Y526287D01*
X791373Y527950D01*
X788300Y531023D01*
X786637Y535037D01*
X786637Y539383D01*
X788300Y543397D01*
X791373Y546470D01*
X795387Y548133D01*
X799733Y548133D01*
X803747Y546470D01*
X806820Y543397D01*
X808483Y539383D01*
X808483Y535037D01*
X806820Y531023D01*
X803747Y527950D01*
X799733Y526287D01*
X795387Y526287D01*
G37*
%LPD*%
%LPC*%
G36*
X846187Y500887D02*
X846187Y500887D01*
X842173Y502550D01*
X839100Y505623D01*
X837437Y509637D01*
X837437Y513983D01*
X839100Y517997D01*
X842173Y521070D01*
X846187Y522733D01*
X850533Y522733D01*
X854547Y521070D01*
X857620Y517997D01*
X859283Y513983D01*
X859283Y509637D01*
X857620Y505623D01*
X854547Y502550D01*
X850533Y500887D01*
X846187Y500887D01*
G37*
%LPD*%
%LPC*%
G36*
X820787Y500887D02*
X820787Y500887D01*
X816773Y502550D01*
X813700Y505623D01*
X812037Y509637D01*
X812037Y513983D01*
X813700Y517997D01*
X816773Y521070D01*
X820787Y522733D01*
X825133Y522733D01*
X829147Y521070D01*
X832220Y517997D01*
X833883Y513983D01*
X833883Y509637D01*
X832220Y505623D01*
X829147Y502550D01*
X825133Y500887D01*
X820787Y500887D01*
G37*
%LPD*%
%LPC*%
G36*
X312787Y558037D02*
X312787Y558037D01*
X308773Y559700D01*
X305700Y562773D01*
X304037Y566787D01*
X304037Y571133D01*
X305700Y575147D01*
X308773Y578220D01*
X312787Y579883D01*
X317133Y579883D01*
X321147Y578220D01*
X324220Y575147D01*
X325883Y571133D01*
X325883Y566787D01*
X324220Y562773D01*
X321147Y559700D01*
X317133Y558037D01*
X312787Y558037D01*
G37*
%LPD*%
%LPC*%
G36*
X160387Y558037D02*
X160387Y558037D01*
X156373Y559700D01*
X153300Y562773D01*
X151637Y566787D01*
X151637Y571133D01*
X153300Y575147D01*
X156373Y578220D01*
X160387Y579883D01*
X164733Y579883D01*
X168747Y578220D01*
X171820Y575147D01*
X173483Y571133D01*
X173483Y566787D01*
X171820Y562773D01*
X168747Y559700D01*
X164733Y558037D01*
X160387Y558037D01*
G37*
%LPD*%
%LPC*%
G36*
X795387Y500887D02*
X795387Y500887D01*
X791373Y502550D01*
X788300Y505623D01*
X786637Y509637D01*
X786637Y513983D01*
X788300Y517997D01*
X791373Y521070D01*
X795387Y522733D01*
X799733Y522733D01*
X803747Y521070D01*
X806820Y517997D01*
X808483Y513983D01*
X808483Y509637D01*
X806820Y505623D01*
X803747Y502550D01*
X799733Y500887D01*
X795387Y500887D01*
G37*
%LPD*%
%LPC*%
G36*
X941437Y500887D02*
X941437Y500887D01*
X937423Y502550D01*
X934350Y505623D01*
X932687Y509637D01*
X932687Y513983D01*
X934350Y517997D01*
X937423Y521070D01*
X941437Y522733D01*
X945783Y522733D01*
X949797Y521070D01*
X952870Y517997D01*
X954533Y513983D01*
X954533Y509637D01*
X952870Y505623D01*
X949797Y502550D01*
X945783Y500887D01*
X941437Y500887D01*
G37*
%LPD*%
%LPC*%
G36*
X916037Y500887D02*
X916037Y500887D01*
X912023Y502550D01*
X908950Y505623D01*
X907287Y509637D01*
X907287Y513983D01*
X908950Y517997D01*
X912023Y521070D01*
X916037Y522733D01*
X920383Y522733D01*
X924397Y521070D01*
X927470Y517997D01*
X929133Y513983D01*
X929133Y509637D01*
X927470Y505623D01*
X924397Y502550D01*
X920383Y500887D01*
X916037Y500887D01*
G37*
%LPD*%
%LPC*%
G36*
X890637Y500887D02*
X890637Y500887D01*
X886623Y502550D01*
X883550Y505623D01*
X881887Y509637D01*
X881887Y513983D01*
X883550Y517997D01*
X886623Y521070D01*
X890637Y522733D01*
X894983Y522733D01*
X898997Y521070D01*
X902070Y517997D01*
X903733Y513983D01*
X903733Y509637D01*
X902070Y505623D01*
X898997Y502550D01*
X894983Y500887D01*
X890637Y500887D01*
G37*
%LPD*%
%LPC*%
G36*
X820787Y526287D02*
X820787Y526287D01*
X816773Y527950D01*
X813700Y531023D01*
X812037Y535037D01*
X812037Y539383D01*
X813700Y543397D01*
X816773Y546470D01*
X820787Y548133D01*
X825133Y548133D01*
X829147Y546470D01*
X832220Y543397D01*
X833883Y539383D01*
X833883Y535037D01*
X832220Y531023D01*
X829147Y527950D01*
X825133Y526287D01*
X820787Y526287D01*
G37*
%LPD*%
%LPC*%
G36*
X846187Y526287D02*
X846187Y526287D01*
X842173Y527950D01*
X839100Y531023D01*
X837437Y535037D01*
X837437Y539383D01*
X839100Y543397D01*
X842173Y546470D01*
X846187Y548133D01*
X850533Y548133D01*
X854547Y546470D01*
X857620Y543397D01*
X859283Y539383D01*
X859283Y535037D01*
X857620Y531023D01*
X854547Y527950D01*
X850533Y526287D01*
X846187Y526287D01*
G37*
%LPD*%
%LPC*%
G36*
X890637Y526287D02*
X890637Y526287D01*
X886623Y527950D01*
X883550Y531023D01*
X881887Y535037D01*
X881887Y539383D01*
X883550Y543397D01*
X886623Y546470D01*
X890637Y548133D01*
X894983Y548133D01*
X898997Y546470D01*
X902070Y543397D01*
X903733Y539383D01*
X903733Y535037D01*
X902070Y531023D01*
X898997Y527950D01*
X894983Y526287D01*
X890637Y526287D01*
G37*
%LPD*%
%LPC*%
G36*
X941437Y526287D02*
X941437Y526287D01*
X937423Y527950D01*
X934350Y531023D01*
X932687Y535037D01*
X932687Y539383D01*
X934350Y543397D01*
X937423Y546470D01*
X941437Y548133D01*
X945783Y548133D01*
X949797Y546470D01*
X952870Y543397D01*
X954533Y539383D01*
X954533Y535037D01*
X952870Y531023D01*
X949797Y527950D01*
X945783Y526287D01*
X941437Y526287D01*
G37*
%LPD*%
%LPC*%
G36*
X752054Y404903D02*
X752054Y404903D01*
X750104Y405711D01*
X748611Y407204D01*
X747803Y409154D01*
X747803Y411266D01*
X748611Y413216D01*
X750104Y414709D01*
X752054Y415517D01*
X753939Y415517D01*
X754037Y415529D01*
X754136Y415532D01*
X754194Y415549D01*
X754254Y415557D01*
X754346Y415593D01*
X754441Y415621D01*
X754494Y415651D01*
X754550Y415674D01*
X754630Y415732D01*
X754715Y415782D01*
X754791Y415848D01*
X754807Y415860D01*
X754815Y415870D01*
X754836Y415888D01*
X758302Y419355D01*
X779624Y419355D01*
X779722Y419367D01*
X779821Y419370D01*
X779880Y419387D01*
X779940Y419395D01*
X780032Y419431D01*
X780127Y419459D01*
X780179Y419489D01*
X780235Y419512D01*
X780315Y419570D01*
X780401Y419620D01*
X780476Y419686D01*
X780493Y419698D01*
X780500Y419708D01*
X780522Y419726D01*
X781854Y421059D01*
X783804Y421867D01*
X785916Y421867D01*
X787866Y421059D01*
X789359Y419566D01*
X790167Y417616D01*
X790167Y415504D01*
X789359Y413554D01*
X787866Y412061D01*
X785916Y411253D01*
X783804Y411253D01*
X781854Y412061D01*
X780522Y413394D01*
X780443Y413454D01*
X780371Y413522D01*
X780318Y413551D01*
X780270Y413588D01*
X780179Y413628D01*
X780093Y413676D01*
X780034Y413691D01*
X779978Y413715D01*
X779881Y413730D01*
X779785Y413755D01*
X779685Y413761D01*
X779664Y413765D01*
X779652Y413763D01*
X779624Y413765D01*
X761143Y413765D01*
X761045Y413753D01*
X760946Y413750D01*
X760888Y413733D01*
X760828Y413725D01*
X760736Y413689D01*
X760641Y413661D01*
X760588Y413631D01*
X760532Y413608D01*
X760452Y413550D01*
X760367Y413500D01*
X760291Y413434D01*
X760275Y413422D01*
X760267Y413412D01*
X760246Y413394D01*
X758788Y411936D01*
X758728Y411858D01*
X758660Y411786D01*
X758631Y411733D01*
X758594Y411685D01*
X758554Y411594D01*
X758506Y411507D01*
X758491Y411449D01*
X758467Y411393D01*
X758452Y411295D01*
X758427Y411199D01*
X758421Y411099D01*
X758417Y411079D01*
X758419Y411067D01*
X758417Y411039D01*
X758417Y409154D01*
X757609Y407204D01*
X756116Y405711D01*
X754166Y404903D01*
X752054Y404903D01*
G37*
%LPD*%
%LPC*%
G36*
X894079Y422706D02*
X894079Y422706D01*
X894079Y433395D01*
X894693Y433298D01*
X896708Y432643D01*
X898596Y431681D01*
X900310Y430436D01*
X901809Y428937D01*
X903054Y427223D01*
X904016Y425335D01*
X904671Y423319D01*
X904768Y422706D01*
X894079Y422706D01*
G37*
%LPD*%
%LPC*%
G36*
X878312Y422706D02*
X878312Y422706D01*
X878409Y423319D01*
X879064Y425335D01*
X880026Y427223D01*
X881271Y428937D01*
X882770Y430436D01*
X884484Y431681D01*
X886372Y432643D01*
X888387Y433298D01*
X889001Y433395D01*
X889001Y422706D01*
X878312Y422706D01*
G37*
%LPD*%
%LPC*%
G36*
X894079Y417628D02*
X894079Y417628D01*
X904768Y417628D01*
X904671Y417014D01*
X904016Y414999D01*
X903054Y413111D01*
X901809Y411396D01*
X900310Y409898D01*
X898596Y408652D01*
X896708Y407690D01*
X894693Y407036D01*
X894079Y406938D01*
X894079Y417628D01*
G37*
%LPD*%
%LPC*%
G36*
X888387Y407036D02*
X888387Y407036D01*
X886372Y407690D01*
X884484Y408652D01*
X882770Y409898D01*
X881271Y411396D01*
X880026Y413111D01*
X879064Y414999D01*
X878409Y417014D01*
X878312Y417628D01*
X889001Y417628D01*
X889001Y406938D01*
X888387Y407036D01*
G37*
%LPD*%
%LPC*%
G36*
X292099Y571499D02*
X292099Y571499D01*
X292099Y580645D01*
X292356Y580605D01*
X294143Y580024D01*
X295817Y579171D01*
X297338Y578066D01*
X298666Y576738D01*
X299771Y575217D01*
X300624Y573543D01*
X301205Y571756D01*
X301245Y571499D01*
X292099Y571499D01*
G37*
%LPD*%
%LPC*%
G36*
X190499Y571499D02*
X190499Y571499D01*
X190499Y580645D01*
X190756Y580605D01*
X192543Y580024D01*
X194217Y579171D01*
X195738Y578066D01*
X197066Y576738D01*
X198171Y575217D01*
X199024Y573543D01*
X199605Y571756D01*
X199645Y571499D01*
X190499Y571499D01*
G37*
%LPD*%
%LPC*%
G36*
X277875Y571499D02*
X277875Y571499D01*
X277915Y571756D01*
X278496Y573543D01*
X279349Y575217D01*
X280454Y576738D01*
X281782Y578066D01*
X283303Y579171D01*
X284977Y580024D01*
X286764Y580605D01*
X287021Y580645D01*
X287021Y571499D01*
X277875Y571499D01*
G37*
%LPD*%
%LPC*%
G36*
X176275Y571499D02*
X176275Y571499D01*
X176315Y571756D01*
X176896Y573543D01*
X177749Y575217D01*
X178854Y576738D01*
X180182Y578066D01*
X181703Y579171D01*
X183377Y580024D01*
X185164Y580605D01*
X185421Y580645D01*
X185421Y571499D01*
X176275Y571499D01*
G37*
%LPD*%
%LPC*%
G36*
X190499Y566421D02*
X190499Y566421D01*
X199645Y566421D01*
X199605Y566164D01*
X199024Y564377D01*
X198171Y562703D01*
X197066Y561182D01*
X195738Y559854D01*
X194217Y558749D01*
X192543Y557896D01*
X190756Y557315D01*
X190499Y557275D01*
X190499Y566421D01*
G37*
%LPD*%
%LPC*%
G36*
X292099Y566421D02*
X292099Y566421D01*
X301245Y566421D01*
X301205Y566164D01*
X300624Y564377D01*
X299771Y562703D01*
X298666Y561182D01*
X297338Y559854D01*
X295817Y558749D01*
X294143Y557896D01*
X292356Y557315D01*
X292099Y557275D01*
X292099Y566421D01*
G37*
%LPD*%
%LPC*%
G36*
X185164Y557315D02*
X185164Y557315D01*
X183377Y557896D01*
X181703Y558749D01*
X180182Y559854D01*
X178854Y561182D01*
X177749Y562703D01*
X176896Y564377D01*
X176315Y566164D01*
X176275Y566421D01*
X185421Y566421D01*
X185421Y557275D01*
X185164Y557315D01*
G37*
%LPD*%
%LPC*%
G36*
X286764Y557315D02*
X286764Y557315D01*
X284977Y557896D01*
X283303Y558749D01*
X281782Y559854D01*
X280454Y561182D01*
X279349Y562703D01*
X278496Y564377D01*
X277915Y566164D01*
X277875Y566421D01*
X287021Y566421D01*
X287021Y557275D01*
X286764Y557315D01*
G37*
%LPD*%
%LPC*%
G36*
X289559Y568959D02*
X289559Y568959D01*
X289559Y568961D01*
X289561Y568961D01*
X289561Y568959D01*
X289559Y568959D01*
G37*
%LPD*%
%LPC*%
G36*
X187959Y568959D02*
X187959Y568959D01*
X187959Y568961D01*
X187961Y568961D01*
X187961Y568959D01*
X187959Y568959D01*
G37*
%LPD*%
%LPC*%
G36*
X891539Y420166D02*
X891539Y420166D01*
X891539Y420168D01*
X891541Y420168D01*
X891541Y420166D01*
X891539Y420166D01*
G37*
%LPD*%
D10*
X505460Y124460D03*
X505460Y99060D03*
X480060Y124460D03*
X480060Y99060D03*
X454660Y124460D03*
X454660Y99060D03*
X429260Y124460D03*
X429260Y99060D03*
X403860Y124460D03*
X403860Y99060D03*
X378460Y124460D03*
X378460Y99060D03*
X353060Y124460D03*
X353060Y99060D03*
X327660Y124460D03*
X327660Y99060D03*
X302260Y124460D03*
X302260Y99060D03*
X276860Y124460D03*
X276860Y99060D03*
X772160Y124460D03*
X772160Y99060D03*
X746760Y124460D03*
X746760Y99060D03*
X721360Y124460D03*
X721360Y99060D03*
X695960Y124460D03*
X695960Y99060D03*
X670560Y124460D03*
X670560Y99060D03*
X645160Y124460D03*
X645160Y99060D03*
X619760Y124460D03*
X619760Y99060D03*
X594360Y124460D03*
X594360Y99060D03*
X568960Y124460D03*
X568960Y99060D03*
X543560Y124460D03*
X543560Y99060D03*
X937260Y162560D03*
X937260Y137160D03*
X911860Y162560D03*
X911860Y137160D03*
X886460Y162560D03*
X886460Y137160D03*
X861060Y162560D03*
X861060Y137160D03*
X892810Y575310D03*
X867410Y575310D03*
X842010Y575310D03*
X816610Y575310D03*
X791210Y575310D03*
X797560Y511810D03*
X797560Y537210D03*
X822960Y511810D03*
X822960Y537210D03*
X848360Y511810D03*
X848360Y537210D03*
X892810Y511810D03*
X892810Y537210D03*
X918210Y511810D03*
X918210Y537210D03*
X943610Y511810D03*
X943610Y537210D03*
X276860Y187960D03*
X276860Y213360D03*
X276860Y238760D03*
X276860Y264160D03*
X276860Y289560D03*
X632460Y187960D03*
X632460Y213360D03*
X632460Y238760D03*
X632460Y264160D03*
X632460Y289560D03*
D11*
X161290Y314960D03*
X135890Y314960D03*
X186690Y314960D03*
D10*
X118110Y480060D03*
X118110Y505460D03*
X175260Y207010D03*
X200660Y207010D03*
X930910Y99060D03*
X905510Y99060D03*
X820420Y99060D03*
X845820Y99060D03*
X238760Y568960D03*
X213360Y568960D03*
X187960Y568960D03*
X162560Y568960D03*
X314960Y568960D03*
X289560Y568960D03*
X669290Y575310D03*
X694690Y575310D03*
X720090Y575310D03*
X745490Y575310D03*
D12*
X891540Y420167D03*
D13*
X942340Y420167D03*
D14*
X262890Y329692D02*
X262890Y312928D01*
X288290Y312928D02*
X288290Y329692D01*
X313690Y329692D02*
X313690Y312928D01*
D10*
X955040Y342900D03*
X955040Y317500D03*
X955040Y292100D03*
D15*
X613410Y505460D03*
D16*
X600710Y505460D01*
X588010Y518160D01*
D15*
X588010Y518160D03*
D17*
X492760Y422910D01*
D15*
X492760Y422910D03*
X721360Y162786D03*
D17*
X708660Y150086D01*
X708660Y139700D01*
D15*
X708660Y139700D03*
X397510Y270736D03*
D17*
X397736Y270510D01*
X416560Y270510D01*
D15*
X416560Y270510D03*
X784860Y416560D03*
D17*
X759460Y416560D01*
X753110Y410210D01*
D15*
X753110Y410210D03*
X365760Y156210D03*
X403860Y156210D03*
D17*
X375510Y156210D02*
X365760Y156210D01*
X375510Y156210D02*
X375736Y156436D01*
X381184Y156436D01*
X381410Y156210D01*
X403860Y156210D01*
D15*
X833120Y255270D03*
D17*
X875030Y255270D01*
D15*
X875030Y255270D03*
X787400Y152400D03*
D17*
X795020Y144780D01*
X806450Y144780D01*
X817880Y133350D01*
X817880Y129540D01*
D15*
X817880Y129540D03*
X734118Y156144D03*
D17*
X734118Y110548D01*
X734060Y110490D01*
D15*
X734060Y110490D03*
X791210Y308384D03*
X764540Y346710D03*
D17*
X632460Y187960D02*
X632460Y111760D01*
X619760Y99060D01*
X791210Y308384D02*
X791210Y320040D01*
X764540Y346710D01*
D15*
X807720Y291902D03*
X461010Y232410D03*
D17*
X461010Y251460D01*
X467360Y257810D01*
D15*
X467360Y257810D03*
X410210Y228600D03*
D17*
X416108Y222702D01*
X416108Y209748D01*
D15*
X416108Y209748D03*
X429260Y302260D03*
D17*
X429260Y378460D01*
D15*
X429260Y378460D03*
D17*
X302260Y149860D02*
X302260Y124460D01*
X302260Y149860D02*
X295910Y156210D01*
X276860Y156210D01*
X251460Y181610D01*
X251460Y264160D01*
X276860Y289560D01*
D15*
X651510Y238760D03*
D17*
X676910Y238760D01*
D15*
X676910Y238760D03*
X718820Y236220D03*
D17*
X718820Y255270D01*
D15*
X718820Y255270D03*
X738710Y275160D03*
D17*
X764540Y300990D01*
X810260Y300990D01*
D15*
X810260Y300990D03*
X829310Y289560D03*
D17*
X894080Y289560D01*
X901700Y281940D01*
X901700Y240030D01*
X882650Y220980D01*
D15*
X882650Y220980D03*
D17*
X327660Y134210D02*
X327660Y124460D01*
X327660Y134210D02*
X313485Y154735D01*
D15*
X313485Y154735D03*
X264160Y156210D03*
D17*
X244884Y175486D01*
X244884Y245110D01*
D15*
X244884Y245110D03*
D17*
X308610Y168910D02*
X353060Y124460D01*
X308610Y168910D02*
X270510Y168910D01*
X257810Y181610D01*
X257810Y232410D01*
X264160Y238760D01*
X276860Y238760D01*
X289560Y213360D02*
X378460Y124460D01*
X289560Y213360D02*
X276860Y213360D01*
X568960Y226060D02*
X568960Y124460D01*
X568960Y226060D02*
X632460Y289560D01*
X594360Y226060D02*
X594360Y124460D01*
X594360Y226060D02*
X632460Y264160D01*
X613410Y130810D02*
X619760Y124460D01*
X613410Y130810D02*
X613410Y219710D01*
X632460Y238760D01*
X651510Y130810D02*
X645160Y124460D01*
X651510Y130810D02*
X651510Y200660D01*
X638810Y213360D01*
X632460Y213360D01*
X505460Y226060D02*
X505460Y124460D01*
X505460Y226060D02*
X492760Y238760D01*
D15*
X492760Y238760D03*
D17*
X480060Y238760D02*
X480060Y124460D01*
X480060Y238760D02*
X473710Y245110D01*
D15*
X473710Y245110D03*
D17*
X429260Y149860D02*
X454660Y124460D01*
X429260Y149860D02*
X429260Y251460D01*
D15*
X429260Y251460D03*
X422834Y257886D03*
D17*
X422834Y254334D02*
X422684Y254184D01*
X422834Y254334D02*
X422834Y257886D01*
X422684Y131036D02*
X429260Y124460D01*
X422684Y131036D02*
X422684Y254184D01*
X378460Y149860D02*
X403860Y124460D01*
D15*
X378460Y149860D03*
X898730Y216330D03*
D17*
X904670Y216330D01*
X928370Y240030D01*
X928370Y278130D01*
X901700Y304800D01*
X863600Y304800D01*
X840740Y327660D01*
X840740Y461010D01*
D15*
X840740Y461010D03*
X806450Y487680D03*
D17*
X661670Y487680D01*
X627380Y521970D01*
D15*
X627380Y521970D03*
X607286Y384810D03*
D17*
X772386Y219710D01*
X791210Y219710D01*
D15*
X791210Y219710D03*
X600710Y397510D03*
D17*
X600710Y340360D01*
X594360Y334010D01*
D15*
X594360Y334010D03*
X775970Y495300D03*
D17*
X825500Y495300D01*
X833120Y487680D01*
D15*
X833120Y487680D03*
X852170Y468630D03*
D17*
X852170Y365760D01*
X939800Y278130D01*
X939800Y209550D01*
X928370Y198120D01*
X890270Y198120D01*
D15*
X890270Y198120D03*
X632460Y372110D03*
D17*
X778284Y226286D01*
X778510Y226286D01*
D15*
X778510Y226286D03*
X661670Y182880D03*
D17*
X661670Y144780D01*
X657860Y140970D01*
X657860Y87630D01*
X669290Y76200D02*
X878840Y76200D01*
X886460Y83820D01*
X886460Y102870D01*
X897890Y114300D01*
X947420Y114300D01*
X958850Y125730D01*
X958850Y148590D01*
X944880Y162560D01*
X937260Y162560D01*
X669290Y76200D02*
X657860Y87630D01*
D15*
X775970Y190500D03*
D17*
X802640Y190500D01*
X810260Y182880D01*
X866140Y182880D01*
X886460Y162560D01*
D15*
X753336Y156210D03*
D17*
X753336Y147546D01*
X759912Y140970D01*
D15*
X759912Y140970D03*
X787400Y137160D03*
D17*
X802640Y121920D01*
X901700Y121920D01*
X911860Y132080D01*
X911860Y137160D01*
D15*
X715010Y220980D03*
D17*
X733220Y239190D01*
X733220Y244680D01*
D15*
X733220Y244680D03*
X756080Y267540D03*
D17*
X770480Y281940D01*
X882650Y281940D01*
D15*
X882650Y281940D03*
X920750Y247650D03*
D17*
X863600Y190500D01*
X840740Y190500D01*
D15*
X840740Y190500D03*
X817880Y289560D03*
D17*
X817880Y453390D01*
X867410Y502920D01*
X867410Y575310D01*
D15*
X371399Y212649D03*
D17*
X373154Y214404D01*
X378644Y214404D01*
X414020Y249780D01*
X414020Y259080D01*
X418874Y263934D01*
X419284Y263934D01*
X423136Y267786D01*
X423136Y268196D01*
X440690Y285750D01*
X589280Y285750D02*
X608076Y304546D01*
X661924Y304546D02*
X684276Y282194D01*
X684276Y235966D02*
X673100Y224790D01*
D15*
X673100Y224790D03*
D17*
X589280Y285750D02*
X440690Y285750D01*
X608076Y304546D02*
X661924Y304546D01*
X684276Y282194D02*
X684276Y235966D01*
D15*
X375920Y220980D03*
D17*
X387350Y232410D01*
X387350Y285750D01*
X394970Y293370D01*
X589280Y293370D02*
X604520Y308610D01*
X665480Y308610D01*
X688340Y285750D02*
X688340Y228334D01*
D15*
X688340Y228334D03*
D17*
X589280Y293370D02*
X394970Y293370D01*
X665480Y308610D02*
X688340Y285750D01*
D15*
X372110Y181384D03*
D17*
X415882Y181384D01*
X416108Y181610D01*
D15*
X416108Y181610D03*
X365760Y200660D03*
D17*
X416108Y200660D01*
D15*
X416108Y200660D03*
X435836Y200660D03*
D17*
X467134Y200660D01*
X473484Y194310D01*
D15*
X473484Y194310D03*
X695960Y169136D03*
D17*
X721134Y198120D01*
X737870Y198120D01*
D15*
X737870Y198120D03*
X321310Y207010D03*
D17*
X334010Y219710D01*
X267970Y539750D02*
X238760Y568960D01*
X267970Y539750D02*
X312420Y539750D01*
X334010Y518160D01*
X334010Y219710D01*
D15*
X308610Y207010D03*
D17*
X326390Y224790D01*
X326390Y415290D01*
X292100Y415290D01*
X213360Y494030D02*
X213360Y568960D01*
X213360Y494030D02*
X292100Y415290D01*
X766488Y130132D02*
X772160Y124460D01*
X766488Y130132D02*
X766488Y194310D01*
D15*
X766488Y194310D03*
D17*
X746760Y162560D02*
X746760Y124460D01*
X759912Y175712D02*
X759912Y207010D01*
D15*
X759912Y207010D03*
D17*
X759912Y175712D02*
X746760Y162560D01*
X721360Y153670D02*
X721360Y124460D01*
X753336Y181836D02*
X753336Y219710D01*
D15*
X753336Y219710D03*
D17*
X753336Y181836D02*
X721360Y153670D01*
X695960Y149860D02*
X695960Y124460D01*
X695960Y149860D02*
X721360Y175260D01*
X734060Y175260D01*
X746760Y187960D01*
X746760Y232410D01*
D15*
X746760Y232410D03*
D18*
X394970Y590550D03*
D19*
X701040Y590550D01*
X186690Y350520D02*
X186690Y314960D01*
X186690Y350520D02*
X186690Y567690D01*
X187960Y568960D01*
D16*
X891540Y381000D02*
X955040Y317500D01*
X891540Y381000D02*
X891540Y420167D01*
D19*
X288290Y339090D02*
X288290Y321310D01*
X288290Y339090D02*
X274320Y353060D01*
X189230Y353060D01*
X186690Y350520D01*
D15*
X670130Y197280D03*
D17*
X670130Y153240D01*
X669290Y152400D01*
D15*
X669290Y152400D03*
X520700Y167640D03*
D17*
X520700Y205740D01*
X589280Y274320D01*
D15*
X589280Y274320D03*
X722630Y358140D03*
D17*
X699770Y381000D01*
X699770Y400050D01*
D15*
X699770Y400050D03*
X695960Y320040D03*
D17*
X688340Y331470D01*
X688340Y476250D01*
D15*
X688340Y476250D03*
X759460Y316230D03*
X779780Y358140D03*
D17*
X757964Y349434D02*
X757964Y343986D01*
X757964Y349434D02*
X761816Y353286D01*
X757964Y343986D02*
X759460Y342490D01*
X774926Y353286D02*
X779780Y358140D01*
X774926Y353286D02*
X761816Y353286D01*
X759460Y342490D02*
X759460Y316230D01*
D15*
X726440Y345440D03*
D17*
X751840Y370840D01*
X795020Y370840D01*
X800298Y365562D01*
X805378Y310106D01*
D15*
X805378Y310106D03*
X828040Y302260D03*
D17*
X850900Y302260D01*
X855980Y297180D01*
D15*
X855980Y297180D03*
D19*
X313690Y321310D02*
X313690Y402590D01*
X314960Y403860D01*
D20*
X314960Y403860D03*
X347980Y480060D03*
D19*
X414020Y546100D01*
X708660Y546100D01*
X720090Y557530D01*
X720090Y575310D01*
M02*
