M48
;GenerationSoftware,Autodesk,EAGLE,9.0.1*%
;CreationDate,2018-10-26T07:28:26Z*%
FMAT,2
ICI,OFF
METRIC,TZ,000.000
T9C0.350
T8C0.550
T7C0.800
T6C0.850
T5C0.900
T4C1.016
T3C1.118
T2C2.540
T1C3.302
%
G90
M71
T1
X28829Y49657
T2
X96266Y8636
X11176Y58801
X96266Y58801
X11176Y8636
T3
X26289Y32131
X31369Y32131
X28829Y32131
T4
X95504Y31750
X95504Y29210
X50546Y12446
X50546Y9906
X48006Y12446
X48006Y9906
X45466Y12446
X45466Y9906
X42926Y12446
X42926Y9906
X40386Y12446
X40386Y9906
X37846Y12446
X37846Y9906
X35306Y12446
X35306Y9906
X32766Y12446
X32766Y9906
X30226Y12446
X30226Y9906
X27686Y12446
X27686Y9906
X77216Y12446
X77216Y9906
X74676Y12446
X72136Y12446
X74676Y9906
X72136Y9906
X69596Y12446
X69596Y9906
X67056Y12446
X67056Y9906
X64516Y12446
X64516Y9906
X61976Y12446
X61976Y9906
X59436Y12446
X59436Y9906
X56896Y12446
X56896Y9906
X54356Y12446
X54356Y9906
X93726Y16256
X93726Y13716
X91186Y16256
X91186Y13716
X88646Y16256
X88646Y13716
X86106Y16256
X86106Y13716
X89281Y57531
X86741Y57531
X84201Y57531
X81661Y57531
X79121Y57531
X79756Y51181
X79756Y53721
X82296Y51181
X82296Y53721
X84836Y51181
X84836Y53721
X89281Y51181
X89281Y53721
X91821Y51181
X91821Y53721
X94361Y51181
X94361Y53721
X27686Y18796
X27686Y21336
X27686Y23876
X27686Y26416
X27686Y28956
X63246Y18796
X63246Y21336
X63246Y23876
X63246Y26416
X63246Y28956
X11811Y48006
X11811Y50546
X17526Y20701
X20066Y20701
X93091Y9906
X90551Y9906
X82042Y9906
X84582Y9906
X23876Y56896
X21336Y56896
X18796Y56896
X16256Y56896
X31496Y56896
X28956Y56896
X66929Y57531
X69469Y57531
X72009Y57531
X74549Y57531
X89154Y42017
X94234Y42017
X95504Y34290
T5
X18669Y31496
X13589Y31496
X16129Y31496
T6
X14646Y25776
X14646Y21976
T7
X39497Y59055
T8
X34798Y48006
X31496Y40386
T9
X75311Y41021
X36576Y15621
X40386Y15621
X83312Y25527
X87503Y25527
X78740Y15240
X81788Y12954
X73412Y15614
X73406Y11049
X79121Y30838
X76454Y34671
X80772Y29190
X46101Y23241
X46736Y25781
X41021Y22860
X41611Y20975
X42926Y30226
X42926Y37846
X67691Y23876
X71882Y23622
X71882Y25527
X73871Y27516
X81026Y30099
X82931Y28956
X88265Y22098
X31349Y15474
X26416Y15621
X24488Y24511
X49276Y23876
X47371Y24511
X42926Y25146
X42283Y25789
X37846Y14986
X89873Y21633
X84074Y46101
X80645Y48768
X62738Y52197
X60729Y38481
X79121Y21971
X60071Y39751
X59436Y33401
X77597Y49530
X83312Y48768
X85217Y46863
X89027Y19812
X63246Y37211
X77851Y22629
X66167Y18288
X77597Y19050
X75334Y15621
X75991Y14097
X78740Y13716
X71501Y22098
X73322Y24468
X75608Y26754
X88265Y28194
X92075Y24765
X84074Y19050
X81788Y28956
X37140Y21265
X67310Y22479
X37592Y22098
X68834Y22833
X37211Y18138
X41611Y18161
X36576Y20066
X41611Y20066
X43584Y20066
X47348Y19431
X69596Y16914
X73787Y19812
X32131Y20701
X76649Y19431
X61341Y50546
X75334Y21971
X74676Y23241
X58801Y51816
X67013Y19728
X66929Y15240
X52070Y16764
X58928Y27432
X72263Y35814
X69977Y40005
X69596Y32004
X68834Y47625
X75946Y31623
X75991Y20701
X72644Y34544
X80538Y31011
X82804Y30226
X49276Y42291
X65151Y23876
X72136Y16279
X70866Y13970
X39751Y27074
X41656Y27051
X85598Y29718
X30861Y20701
X78486Y41656
X77978Y35814
M30