%
M48
M72
T01C0.01378
T02C0.03150
T03C0.03200
T04C0.04000
T05C0.04400
T06C0.12000
T07C0.25000
%
T01
X121300Y86300
X126300Y56300
X161300Y71300
X171300Y41300
X211300Y72300
X206300Y85300
X191300Y86300
X228300Y68300
X151300Y156300
X122300Y180300
X153300Y281300
T02
X136300Y101300
X136300Y91300
X136300Y81300
X136300Y71300
X106300Y71300
X106300Y81300
X106300Y91300
X106300Y101300
T03
X96300Y121300
X96300Y131300
X111300Y151300
X121300Y151300
X131300Y151300
X146300Y131300
X146300Y121300
X181000Y121200
X181000Y171200
X80000Y152800
X80000Y102800
T04
X50900Y107000
X50900Y97000
X50900Y87000
X141300Y21300
X151300Y21300
X161300Y21300
X171300Y21300
X181300Y21300
X191300Y21300
X201300Y21300
X211300Y21300
X221300Y21300
X231300Y21300
X242300Y32300
X252300Y32300
X301300Y67300
X301300Y77300
X315200Y87100
X315200Y97100
X315200Y107100
X314900Y121300
X304900Y121300
X304900Y132200
X314900Y132200
X316400Y147700
X306400Y147700
X306500Y158500
X316500Y158500
X181300Y101300
X181300Y91300
X181300Y81300
X50750Y231700
X51300Y246300
X51300Y256300
X118300Y333000
X128300Y333000
X141300Y341300
X151300Y341300
X161300Y341300
X171300Y341300
X181300Y341300
X191300Y341300
X201300Y341300
X211300Y341300
X221300Y341300
X231300Y341300
T05
X170800Y166300
X130800Y166300
T06
X85100Y58700
X150100Y58700
X210600Y58700
X275600Y58700
X275600Y308700
X210600Y308700
X150100Y308700
X85100Y308700
T07
X38800Y181300
X323800Y181300
M30
