G04 EAGLE Gerber X2 export*
%TF.Part,Single*%
%TF.FileFunction,Other,Silk screen CMP*%
%TF.FilePolarity,Positive*%
%TF.GenerationSoftware,Autodesk,EAGLE,8.7.1*%
%TF.CreationDate,2018-05-15T06:37:00Z*%
G75*
%MOMM*%
%FSLAX34Y34*%
%LPD*%
%AMOC8*
5,1,8,0,0,1.08239X$1,22.5*%
G01*
%ADD10C,0.000000*%
%ADD11C,0.152400*%
%ADD12C,0.127000*%
%ADD13C,0.101600*%
%ADD14C,0.609600*%
%ADD15R,22.860000X0.076200*%
%ADD16R,7.010400X0.076200*%
%ADD17R,13.716000X0.076200*%
%ADD18R,6.858000X0.076200*%
%ADD19R,13.411200X0.076200*%
%ADD20R,6.553200X0.076200*%
%ADD21R,13.030200X0.076200*%
%ADD22R,6.324600X0.076200*%
%ADD23R,12.725400X0.076200*%
%ADD24R,6.172200X0.076200*%
%ADD25R,12.573000X0.076200*%
%ADD26R,5.943600X0.076200*%
%ADD27R,12.268200X0.076200*%
%ADD28R,5.791200X0.076200*%
%ADD29R,12.039600X0.076200*%
%ADD30R,5.638800X0.076200*%
%ADD31R,11.811000X0.076200*%
%ADD32R,5.562600X0.076200*%
%ADD33R,11.658600X0.076200*%
%ADD34R,5.410200X0.076200*%
%ADD35R,11.430000X0.076200*%
%ADD36R,5.257800X0.076200*%
%ADD37R,11.277600X0.076200*%
%ADD38R,5.181600X0.076200*%
%ADD39R,11.201400X0.076200*%
%ADD40R,5.105400X0.076200*%
%ADD41R,10.972800X0.076200*%
%ADD42R,4.953000X0.076200*%
%ADD43R,10.820400X0.076200*%
%ADD44R,1.600200X0.076200*%
%ADD45R,10.744200X0.076200*%
%ADD46R,4.800600X0.076200*%
%ADD47R,2.209800X0.076200*%
%ADD48R,10.591800X0.076200*%
%ADD49R,4.724400X0.076200*%
%ADD50R,3.048000X0.076200*%
%ADD51R,0.990600X0.076200*%
%ADD52R,9.220200X0.076200*%
%ADD53R,4.648200X0.076200*%
%ADD54R,3.733800X0.076200*%
%ADD55R,0.762000X0.076200*%
%ADD56R,9.144000X0.076200*%
%ADD57R,4.572000X0.076200*%
%ADD58R,4.191000X0.076200*%
%ADD59R,0.685800X0.076200*%
%ADD60R,8.991600X0.076200*%
%ADD61R,0.228600X0.076200*%
%ADD62R,4.419600X0.076200*%
%ADD63R,0.152400X0.076200*%
%ADD64R,8.915400X0.076200*%
%ADD65R,0.381000X0.076200*%
%ADD66R,4.495800X0.076200*%
%ADD67R,0.076200X0.076200*%
%ADD68R,8.686800X0.076200*%
%ADD69R,0.457200X0.076200*%
%ADD70R,0.533400X0.076200*%
%ADD71R,5.334000X0.076200*%
%ADD72R,8.534400X0.076200*%
%ADD73R,4.343400X0.076200*%
%ADD74R,4.267200X0.076200*%
%ADD75R,0.304800X0.076200*%
%ADD76R,5.715000X0.076200*%
%ADD77R,6.019800X0.076200*%
%ADD78R,6.096000X0.076200*%
%ADD79R,4.114800X0.076200*%
%ADD80R,8.458200X0.076200*%
%ADD81R,8.305800X0.076200*%
%ADD82R,8.153400X0.076200*%
%ADD83R,4.038600X0.076200*%
%ADD84R,8.077200X0.076200*%
%ADD85R,6.477000X0.076200*%
%ADD86R,7.924800X0.076200*%
%ADD87R,7.848600X0.076200*%
%ADD88R,0.838200X0.076200*%
%ADD89R,6.781800X0.076200*%
%ADD90R,7.696200X0.076200*%
%ADD91R,0.609600X0.076200*%
%ADD92R,0.914400X0.076200*%
%ADD93R,6.934200X0.076200*%
%ADD94R,7.620000X0.076200*%
%ADD95R,3.962400X0.076200*%
%ADD96R,7.086600X0.076200*%
%ADD97R,7.467600X0.076200*%
%ADD98R,7.315200X0.076200*%
%ADD99R,7.391400X0.076200*%
%ADD100R,8.229600X0.076200*%
%ADD101R,7.239000X0.076200*%
%ADD102R,8.382000X0.076200*%
%ADD103R,8.610600X0.076200*%
%ADD104R,8.839200X0.076200*%
%ADD105R,6.705600X0.076200*%
%ADD106R,9.372600X0.076200*%
%ADD107R,6.248400X0.076200*%
%ADD108R,9.525000X0.076200*%
%ADD109R,9.753600X0.076200*%
%ADD110R,9.829800X0.076200*%
%ADD111R,9.982200X0.076200*%
%ADD112R,10.134600X0.076200*%
%ADD113R,10.210800X0.076200*%
%ADD114R,5.486400X0.076200*%
%ADD115R,10.363200X0.076200*%
%ADD116R,10.515600X0.076200*%
%ADD117R,5.029200X0.076200*%
%ADD118R,10.896600X0.076200*%
%ADD119R,11.049000X0.076200*%
%ADD120R,4.876800X0.076200*%
%ADD121R,11.125200X0.076200*%
%ADD122R,11.506200X0.076200*%
%ADD123R,11.887200X0.076200*%
%ADD124R,12.115800X0.076200*%
%ADD125R,12.192000X0.076200*%
%ADD126R,12.496800X0.076200*%
%ADD127R,16.992600X0.076200*%
%ADD128R,16.916400X0.076200*%
%ADD129R,16.840200X0.076200*%
%ADD130R,16.764000X0.076200*%
%ADD131R,5.867400X0.076200*%
%ADD132R,10.668000X0.076200*%
%ADD133R,10.439400X0.076200*%
%ADD134R,9.906000X0.076200*%
%ADD135R,9.677400X0.076200*%
%ADD136R,1.447800X0.076200*%
%ADD137R,1.752600X0.076200*%
%ADD138R,2.743200X0.076200*%
%ADD139R,1.295400X0.076200*%
%ADD140R,1.676400X0.076200*%
%ADD141R,3.200400X0.076200*%
%ADD142R,1.066800X0.076200*%
%ADD143R,1.371600X0.076200*%
%ADD144R,1.524000X0.076200*%
%ADD145R,2.667000X0.076200*%
%ADD146R,3.352800X0.076200*%
%ADD147R,1.219200X0.076200*%
%ADD148R,2.514600X0.076200*%
%ADD149R,3.505200X0.076200*%
%ADD150R,3.581400X0.076200*%
%ADD151R,1.143000X0.076200*%
%ADD152R,3.810000X0.076200*%
%ADD153R,2.362200X0.076200*%
%ADD154R,2.286000X0.076200*%
%ADD155R,3.886200X0.076200*%
%ADD156R,2.133600X0.076200*%
%ADD157R,2.057400X0.076200*%
%ADD158R,1.905000X0.076200*%
%ADD159R,1.828800X0.076200*%
%ADD160R,1.981200X0.076200*%
%ADD161R,2.590800X0.076200*%
%ADD162R,2.438400X0.076200*%
%ADD163R,3.657600X0.076200*%
%ADD164R,2.819400X0.076200*%
%ADD165R,2.971800X0.076200*%
%ADD166R,3.124200X0.076200*%
%ADD167R,3.429000X0.076200*%
%ADD168R,3.276600X0.076200*%
%ADD169R,2.895600X0.076200*%
%ADD170R,13.106400X0.076200*%
%ADD171R,12.954000X0.076200*%
%ADD172R,12.877800X0.076200*%
%ADD173R,8.763000X0.076200*%
%ADD174R,12.801600X0.076200*%
%ADD175R,12.649200X0.076200*%
%ADD176R,9.067800X0.076200*%
%ADD177R,12.344400X0.076200*%
%ADD178R,9.448800X0.076200*%
%ADD179R,9.601200X0.076200*%
%ADD180R,11.963400X0.076200*%
%ADD181R,11.734800X0.076200*%
%ADD182R,11.582400X0.076200*%
%ADD183R,10.287000X0.076200*%
%ADD184R,11.353800X0.076200*%
%ADD185R,12.420600X0.076200*%
%ADD186R,13.258800X0.076200*%
%ADD187R,13.335000X0.076200*%
%ADD188R,13.639800X0.076200*%
%ADD189R,13.792200X0.076200*%
%ADD190R,13.868400X0.076200*%
%ADD191R,14.020800X0.076200*%
%ADD192R,14.173200X0.076200*%
%ADD193R,14.325600X0.076200*%
%ADD194R,14.401800X0.076200*%
%ADD195R,14.630400X0.076200*%
%ADD196R,7.772400X0.076200*%
%ADD197R,14.782800X0.076200*%
%ADD198R,14.859000X0.076200*%
%ADD199R,7.543800X0.076200*%
%ADD200R,15.087600X0.076200*%
%ADD201R,15.240000X0.076200*%
%ADD202R,15.392400X0.076200*%
%ADD203R,7.162800X0.076200*%
%ADD204R,15.468600X0.076200*%
%ADD205R,15.697200X0.076200*%
%ADD206R,15.849600X0.076200*%
%ADD207R,16.002000X0.076200*%
%ADD208R,6.629400X0.076200*%
%ADD209R,16.154400X0.076200*%
%ADD210C,0.076200*%
%ADD211C,0.203200*%
%ADD212R,0.863600X0.609600*%
%ADD213R,0.609600X0.863600*%
%ADD214R,0.508000X2.540000*%
%ADD215R,1.905000X0.762000*%
%ADD216C,0.508000*%
%ADD217R,0.762000X10.668000*%
%ADD218R,0.508000X1.905000*%
%ADD219R,0.508000X0.762000*%
%ADD220C,0.012700*%


D10*
X63500Y457200D02*
X63510Y457979D01*
X63538Y458758D01*
X63586Y459536D01*
X63653Y460312D01*
X63739Y461087D01*
X63844Y461859D01*
X63967Y462628D01*
X64110Y463394D01*
X64271Y464156D01*
X64452Y464915D01*
X64650Y465668D01*
X64867Y466417D01*
X65102Y467159D01*
X65356Y467896D01*
X65627Y468627D01*
X65917Y469350D01*
X66224Y470066D01*
X66548Y470775D01*
X66890Y471475D01*
X67249Y472167D01*
X67625Y472850D01*
X68017Y473523D01*
X68426Y474186D01*
X68851Y474839D01*
X69292Y475482D01*
X69748Y476113D01*
X70220Y476734D01*
X70707Y477342D01*
X71209Y477938D01*
X71725Y478522D01*
X72255Y479093D01*
X72799Y479651D01*
X73357Y480195D01*
X73928Y480725D01*
X74512Y481241D01*
X75108Y481743D01*
X75716Y482230D01*
X76337Y482702D01*
X76968Y483158D01*
X77611Y483599D01*
X78264Y484024D01*
X78927Y484433D01*
X79600Y484825D01*
X80283Y485201D01*
X80975Y485560D01*
X81675Y485902D01*
X82384Y486226D01*
X83100Y486533D01*
X83823Y486823D01*
X84554Y487094D01*
X85291Y487348D01*
X86033Y487583D01*
X86782Y487800D01*
X87535Y487998D01*
X88294Y488179D01*
X89056Y488340D01*
X89822Y488483D01*
X90591Y488606D01*
X91363Y488711D01*
X92138Y488797D01*
X92914Y488864D01*
X93692Y488912D01*
X94471Y488940D01*
X95250Y488950D01*
X96029Y488940D01*
X96808Y488912D01*
X97586Y488864D01*
X98362Y488797D01*
X99137Y488711D01*
X99909Y488606D01*
X100678Y488483D01*
X101444Y488340D01*
X102206Y488179D01*
X102965Y487998D01*
X103718Y487800D01*
X104467Y487583D01*
X105209Y487348D01*
X105946Y487094D01*
X106677Y486823D01*
X107400Y486533D01*
X108116Y486226D01*
X108825Y485902D01*
X109525Y485560D01*
X110217Y485201D01*
X110900Y484825D01*
X111573Y484433D01*
X112236Y484024D01*
X112889Y483599D01*
X113532Y483158D01*
X114163Y482702D01*
X114784Y482230D01*
X115392Y481743D01*
X115988Y481241D01*
X116572Y480725D01*
X117143Y480195D01*
X117701Y479651D01*
X118245Y479093D01*
X118775Y478522D01*
X119291Y477938D01*
X119793Y477342D01*
X120280Y476734D01*
X120752Y476113D01*
X121208Y475482D01*
X121649Y474839D01*
X122074Y474186D01*
X122483Y473523D01*
X122875Y472850D01*
X123251Y472167D01*
X123610Y471475D01*
X123952Y470775D01*
X124276Y470066D01*
X124583Y469350D01*
X124873Y468627D01*
X125144Y467896D01*
X125398Y467159D01*
X125633Y466417D01*
X125850Y465668D01*
X126048Y464915D01*
X126229Y464156D01*
X126390Y463394D01*
X126533Y462628D01*
X126656Y461859D01*
X126761Y461087D01*
X126847Y460312D01*
X126914Y459536D01*
X126962Y458758D01*
X126990Y457979D01*
X127000Y457200D01*
X126990Y456421D01*
X126962Y455642D01*
X126914Y454864D01*
X126847Y454088D01*
X126761Y453313D01*
X126656Y452541D01*
X126533Y451772D01*
X126390Y451006D01*
X126229Y450244D01*
X126048Y449485D01*
X125850Y448732D01*
X125633Y447983D01*
X125398Y447241D01*
X125144Y446504D01*
X124873Y445773D01*
X124583Y445050D01*
X124276Y444334D01*
X123952Y443625D01*
X123610Y442925D01*
X123251Y442233D01*
X122875Y441550D01*
X122483Y440877D01*
X122074Y440214D01*
X121649Y439561D01*
X121208Y438918D01*
X120752Y438287D01*
X120280Y437666D01*
X119793Y437058D01*
X119291Y436462D01*
X118775Y435878D01*
X118245Y435307D01*
X117701Y434749D01*
X117143Y434205D01*
X116572Y433675D01*
X115988Y433159D01*
X115392Y432657D01*
X114784Y432170D01*
X114163Y431698D01*
X113532Y431242D01*
X112889Y430801D01*
X112236Y430376D01*
X111573Y429967D01*
X110900Y429575D01*
X110217Y429199D01*
X109525Y428840D01*
X108825Y428498D01*
X108116Y428174D01*
X107400Y427867D01*
X106677Y427577D01*
X105946Y427306D01*
X105209Y427052D01*
X104467Y426817D01*
X103718Y426600D01*
X102965Y426402D01*
X102206Y426221D01*
X101444Y426060D01*
X100678Y425917D01*
X99909Y425794D01*
X99137Y425689D01*
X98362Y425603D01*
X97586Y425536D01*
X96808Y425488D01*
X96029Y425460D01*
X95250Y425450D01*
X94471Y425460D01*
X93692Y425488D01*
X92914Y425536D01*
X92138Y425603D01*
X91363Y425689D01*
X90591Y425794D01*
X89822Y425917D01*
X89056Y426060D01*
X88294Y426221D01*
X87535Y426402D01*
X86782Y426600D01*
X86033Y426817D01*
X85291Y427052D01*
X84554Y427306D01*
X83823Y427577D01*
X83100Y427867D01*
X82384Y428174D01*
X81675Y428498D01*
X80975Y428840D01*
X80283Y429199D01*
X79600Y429575D01*
X78927Y429967D01*
X78264Y430376D01*
X77611Y430801D01*
X76968Y431242D01*
X76337Y431698D01*
X75716Y432170D01*
X75108Y432657D01*
X74512Y433159D01*
X73928Y433675D01*
X73357Y434205D01*
X72799Y434749D01*
X72255Y435307D01*
X71725Y435878D01*
X71209Y436462D01*
X70707Y437058D01*
X70220Y437666D01*
X69748Y438287D01*
X69292Y438918D01*
X68851Y439561D01*
X68426Y440214D01*
X68017Y440877D01*
X67625Y441550D01*
X67249Y442233D01*
X66890Y442925D01*
X66548Y443625D01*
X66224Y444334D01*
X65917Y445050D01*
X65627Y445773D01*
X65356Y446504D01*
X65102Y447241D01*
X64867Y447983D01*
X64650Y448732D01*
X64452Y449485D01*
X64271Y450244D01*
X64110Y451006D01*
X63967Y451772D01*
X63844Y452541D01*
X63739Y453313D01*
X63653Y454088D01*
X63586Y454864D01*
X63538Y455642D01*
X63510Y456421D01*
X63500Y457200D01*
X787400Y457200D02*
X787410Y457979D01*
X787438Y458758D01*
X787486Y459536D01*
X787553Y460312D01*
X787639Y461087D01*
X787744Y461859D01*
X787867Y462628D01*
X788010Y463394D01*
X788171Y464156D01*
X788352Y464915D01*
X788550Y465668D01*
X788767Y466417D01*
X789002Y467159D01*
X789256Y467896D01*
X789527Y468627D01*
X789817Y469350D01*
X790124Y470066D01*
X790448Y470775D01*
X790790Y471475D01*
X791149Y472167D01*
X791525Y472850D01*
X791917Y473523D01*
X792326Y474186D01*
X792751Y474839D01*
X793192Y475482D01*
X793648Y476113D01*
X794120Y476734D01*
X794607Y477342D01*
X795109Y477938D01*
X795625Y478522D01*
X796155Y479093D01*
X796699Y479651D01*
X797257Y480195D01*
X797828Y480725D01*
X798412Y481241D01*
X799008Y481743D01*
X799616Y482230D01*
X800237Y482702D01*
X800868Y483158D01*
X801511Y483599D01*
X802164Y484024D01*
X802827Y484433D01*
X803500Y484825D01*
X804183Y485201D01*
X804875Y485560D01*
X805575Y485902D01*
X806284Y486226D01*
X807000Y486533D01*
X807723Y486823D01*
X808454Y487094D01*
X809191Y487348D01*
X809933Y487583D01*
X810682Y487800D01*
X811435Y487998D01*
X812194Y488179D01*
X812956Y488340D01*
X813722Y488483D01*
X814491Y488606D01*
X815263Y488711D01*
X816038Y488797D01*
X816814Y488864D01*
X817592Y488912D01*
X818371Y488940D01*
X819150Y488950D01*
X819929Y488940D01*
X820708Y488912D01*
X821486Y488864D01*
X822262Y488797D01*
X823037Y488711D01*
X823809Y488606D01*
X824578Y488483D01*
X825344Y488340D01*
X826106Y488179D01*
X826865Y487998D01*
X827618Y487800D01*
X828367Y487583D01*
X829109Y487348D01*
X829846Y487094D01*
X830577Y486823D01*
X831300Y486533D01*
X832016Y486226D01*
X832725Y485902D01*
X833425Y485560D01*
X834117Y485201D01*
X834800Y484825D01*
X835473Y484433D01*
X836136Y484024D01*
X836789Y483599D01*
X837432Y483158D01*
X838063Y482702D01*
X838684Y482230D01*
X839292Y481743D01*
X839888Y481241D01*
X840472Y480725D01*
X841043Y480195D01*
X841601Y479651D01*
X842145Y479093D01*
X842675Y478522D01*
X843191Y477938D01*
X843693Y477342D01*
X844180Y476734D01*
X844652Y476113D01*
X845108Y475482D01*
X845549Y474839D01*
X845974Y474186D01*
X846383Y473523D01*
X846775Y472850D01*
X847151Y472167D01*
X847510Y471475D01*
X847852Y470775D01*
X848176Y470066D01*
X848483Y469350D01*
X848773Y468627D01*
X849044Y467896D01*
X849298Y467159D01*
X849533Y466417D01*
X849750Y465668D01*
X849948Y464915D01*
X850129Y464156D01*
X850290Y463394D01*
X850433Y462628D01*
X850556Y461859D01*
X850661Y461087D01*
X850747Y460312D01*
X850814Y459536D01*
X850862Y458758D01*
X850890Y457979D01*
X850900Y457200D01*
X850890Y456421D01*
X850862Y455642D01*
X850814Y454864D01*
X850747Y454088D01*
X850661Y453313D01*
X850556Y452541D01*
X850433Y451772D01*
X850290Y451006D01*
X850129Y450244D01*
X849948Y449485D01*
X849750Y448732D01*
X849533Y447983D01*
X849298Y447241D01*
X849044Y446504D01*
X848773Y445773D01*
X848483Y445050D01*
X848176Y444334D01*
X847852Y443625D01*
X847510Y442925D01*
X847151Y442233D01*
X846775Y441550D01*
X846383Y440877D01*
X845974Y440214D01*
X845549Y439561D01*
X845108Y438918D01*
X844652Y438287D01*
X844180Y437666D01*
X843693Y437058D01*
X843191Y436462D01*
X842675Y435878D01*
X842145Y435307D01*
X841601Y434749D01*
X841043Y434205D01*
X840472Y433675D01*
X839888Y433159D01*
X839292Y432657D01*
X838684Y432170D01*
X838063Y431698D01*
X837432Y431242D01*
X836789Y430801D01*
X836136Y430376D01*
X835473Y429967D01*
X834800Y429575D01*
X834117Y429199D01*
X833425Y428840D01*
X832725Y428498D01*
X832016Y428174D01*
X831300Y427867D01*
X830577Y427577D01*
X829846Y427306D01*
X829109Y427052D01*
X828367Y426817D01*
X827618Y426600D01*
X826865Y426402D01*
X826106Y426221D01*
X825344Y426060D01*
X824578Y425917D01*
X823809Y425794D01*
X823037Y425689D01*
X822262Y425603D01*
X821486Y425536D01*
X820708Y425488D01*
X819929Y425460D01*
X819150Y425450D01*
X818371Y425460D01*
X817592Y425488D01*
X816814Y425536D01*
X816038Y425603D01*
X815263Y425689D01*
X814491Y425794D01*
X813722Y425917D01*
X812956Y426060D01*
X812194Y426221D01*
X811435Y426402D01*
X810682Y426600D01*
X809933Y426817D01*
X809191Y427052D01*
X808454Y427306D01*
X807723Y427577D01*
X807000Y427867D01*
X806284Y428174D01*
X805575Y428498D01*
X804875Y428840D01*
X804183Y429199D01*
X803500Y429575D01*
X802827Y429967D01*
X802164Y430376D01*
X801511Y430801D01*
X800868Y431242D01*
X800237Y431698D01*
X799616Y432170D01*
X799008Y432657D01*
X798412Y433159D01*
X797828Y433675D01*
X797257Y434205D01*
X796699Y434749D01*
X796155Y435307D01*
X795625Y435878D01*
X795109Y436462D01*
X794607Y437058D01*
X794120Y437666D01*
X793648Y438287D01*
X793192Y438918D01*
X792751Y439561D01*
X792326Y440214D01*
X791917Y440877D01*
X791525Y441550D01*
X791149Y442233D01*
X790790Y442925D01*
X790448Y443625D01*
X790124Y444334D01*
X789817Y445050D01*
X789527Y445773D01*
X789256Y446504D01*
X789002Y447241D01*
X788767Y447983D01*
X788550Y448732D01*
X788352Y449485D01*
X788171Y450244D01*
X788010Y451006D01*
X787867Y451772D01*
X787744Y452541D01*
X787639Y453313D01*
X787553Y454088D01*
X787486Y454864D01*
X787438Y455642D01*
X787410Y456421D01*
X787400Y457200D01*
D11*
X0Y457200D02*
X138Y468420D01*
X551Y479634D01*
X1239Y490834D01*
X2202Y502013D01*
X3438Y513166D01*
X4948Y524285D01*
X6731Y535364D01*
X8785Y546395D01*
X11109Y557373D01*
X13702Y568291D01*
X16562Y579141D01*
X19687Y589918D01*
X23076Y600615D01*
X26726Y611226D01*
X30636Y621744D01*
X34802Y632163D01*
X39223Y642476D01*
X43896Y652678D01*
X48818Y662762D01*
X53986Y672723D01*
X59396Y682553D01*
X65046Y692248D01*
X70933Y701801D01*
X77052Y711207D01*
X83400Y720460D01*
X89974Y729554D01*
X96768Y738484D01*
X103780Y747245D01*
X111004Y755831D01*
X118437Y764237D01*
X126074Y772458D01*
X133911Y780489D01*
X141942Y788326D01*
X150163Y795963D01*
X158569Y803396D01*
X167155Y810620D01*
X175916Y817632D01*
X184846Y824426D01*
X193940Y831000D01*
X203193Y837348D01*
X212599Y843467D01*
X222152Y849354D01*
X231847Y855004D01*
X241677Y860414D01*
X251638Y865582D01*
X261722Y870504D01*
X271924Y875177D01*
X282237Y879598D01*
X292656Y883764D01*
X303174Y887674D01*
X313785Y891324D01*
X324482Y894713D01*
X335259Y897838D01*
X346109Y900698D01*
X357027Y903291D01*
X368005Y905615D01*
X379036Y907669D01*
X390115Y909452D01*
X401234Y910962D01*
X412387Y912198D01*
X423566Y913161D01*
X434766Y913849D01*
X445980Y914262D01*
X457200Y914400D01*
X468420Y914262D01*
X479634Y913849D01*
X490834Y913161D01*
X502013Y912198D01*
X513166Y910962D01*
X524285Y909452D01*
X535364Y907669D01*
X546395Y905615D01*
X557373Y903291D01*
X568291Y900698D01*
X579141Y897838D01*
X589918Y894713D01*
X600615Y891324D01*
X611226Y887674D01*
X621744Y883764D01*
X632163Y879598D01*
X642476Y875177D01*
X652678Y870504D01*
X662762Y865582D01*
X672723Y860414D01*
X682553Y855004D01*
X692248Y849354D01*
X701801Y843467D01*
X711207Y837348D01*
X720460Y831000D01*
X729554Y824426D01*
X738484Y817632D01*
X747245Y810620D01*
X755831Y803396D01*
X764237Y795963D01*
X772458Y788326D01*
X780489Y780489D01*
X788326Y772458D01*
X795963Y764237D01*
X803396Y755831D01*
X810620Y747245D01*
X817632Y738484D01*
X824426Y729554D01*
X831000Y720460D01*
X837348Y711207D01*
X843467Y701801D01*
X849354Y692248D01*
X855004Y682553D01*
X860414Y672723D01*
X865582Y662762D01*
X870504Y652678D01*
X875177Y642476D01*
X879598Y632163D01*
X883764Y621744D01*
X887674Y611226D01*
X891324Y600615D01*
X894713Y589918D01*
X897838Y579141D01*
X900698Y568291D01*
X903291Y557373D01*
X905615Y546395D01*
X907669Y535364D01*
X909452Y524285D01*
X910962Y513166D01*
X912198Y502013D01*
X913161Y490834D01*
X913849Y479634D01*
X914262Y468420D01*
X914400Y457200D01*
X914262Y445980D01*
X913849Y434766D01*
X913161Y423566D01*
X912198Y412387D01*
X910962Y401234D01*
X909452Y390115D01*
X907669Y379036D01*
X905615Y368005D01*
X903291Y357027D01*
X900698Y346109D01*
X897838Y335259D01*
X894713Y324482D01*
X891324Y313785D01*
X887674Y303174D01*
X883764Y292656D01*
X879598Y282237D01*
X875177Y271924D01*
X870504Y261722D01*
X865582Y251638D01*
X860414Y241677D01*
X855004Y231847D01*
X849354Y222152D01*
X843467Y212599D01*
X837348Y203193D01*
X831000Y193940D01*
X824426Y184846D01*
X817632Y175916D01*
X810620Y167155D01*
X803396Y158569D01*
X795963Y150163D01*
X788326Y141942D01*
X780489Y133911D01*
X772458Y126074D01*
X764237Y118437D01*
X755831Y111004D01*
X747245Y103780D01*
X738484Y96768D01*
X729554Y89974D01*
X720460Y83400D01*
X711207Y77052D01*
X701801Y70933D01*
X692248Y65046D01*
X682553Y59396D01*
X672723Y53986D01*
X662762Y48818D01*
X652678Y43896D01*
X642476Y39223D01*
X632163Y34802D01*
X621744Y30636D01*
X611226Y26726D01*
X600615Y23076D01*
X589918Y19687D01*
X579141Y16562D01*
X568291Y13702D01*
X557373Y11109D01*
X546395Y8785D01*
X535364Y6731D01*
X524285Y4948D01*
X513166Y3438D01*
X502013Y2202D01*
X490834Y1239D01*
X479634Y551D01*
X468420Y138D01*
X457200Y0D01*
X445980Y138D01*
X434766Y551D01*
X423566Y1239D01*
X412387Y2202D01*
X401234Y3438D01*
X390115Y4948D01*
X379036Y6731D01*
X368005Y8785D01*
X357027Y11109D01*
X346109Y13702D01*
X335259Y16562D01*
X324482Y19687D01*
X313785Y23076D01*
X303174Y26726D01*
X292656Y30636D01*
X282237Y34802D01*
X271924Y39223D01*
X261722Y43896D01*
X251638Y48818D01*
X241677Y53986D01*
X231847Y59396D01*
X222152Y65046D01*
X212599Y70933D01*
X203193Y77052D01*
X193940Y83400D01*
X184846Y89974D01*
X175916Y96768D01*
X167155Y103780D01*
X158569Y111004D01*
X150163Y118437D01*
X141942Y126074D01*
X133911Y133911D01*
X126074Y141942D01*
X118437Y150163D01*
X111004Y158569D01*
X103780Y167155D01*
X96768Y175916D01*
X89974Y184846D01*
X83400Y193940D01*
X77052Y203193D01*
X70933Y212599D01*
X65046Y222152D01*
X59396Y231847D01*
X53986Y241677D01*
X48818Y251638D01*
X43896Y261722D01*
X39223Y271924D01*
X34802Y282237D01*
X30636Y292656D01*
X26726Y303174D01*
X23076Y313785D01*
X19687Y324482D01*
X16562Y335259D01*
X13702Y346109D01*
X11109Y357027D01*
X8785Y368005D01*
X6731Y379036D01*
X4948Y390115D01*
X3438Y401234D01*
X2202Y412387D01*
X1239Y423566D01*
X551Y434766D01*
X138Y445980D01*
X0Y457200D01*
X433832Y734822D02*
X433832Y751092D01*
X433832Y734822D02*
X444679Y734822D01*
X452915Y734822D02*
X458339Y734822D01*
X461050Y737534D01*
X461050Y742957D01*
X458339Y745669D01*
X452915Y745669D01*
X450204Y742957D01*
X450204Y737534D01*
X452915Y734822D01*
X466575Y734822D02*
X466575Y745669D01*
X474710Y745669D01*
X477422Y742957D01*
X477422Y734822D01*
X488370Y729399D02*
X491082Y729399D01*
X493793Y732110D01*
X493793Y745669D01*
X485658Y745669D01*
X482947Y742957D01*
X482947Y737534D01*
X485658Y734822D01*
X493793Y734822D01*
X499318Y734822D02*
X499318Y751092D01*
X502030Y745669D02*
X499318Y742957D01*
X502030Y745669D02*
X507453Y745669D01*
X510165Y742957D01*
X510165Y734822D01*
X518401Y734822D02*
X523825Y734822D01*
X526536Y737534D01*
X526536Y742957D01*
X523825Y745669D01*
X518401Y745669D01*
X515690Y742957D01*
X515690Y737534D01*
X518401Y734822D01*
X532061Y734822D02*
X532061Y745669D01*
X532061Y740245D02*
X537485Y745669D01*
X540196Y745669D01*
X545704Y745669D02*
X545704Y734822D01*
X545704Y745669D02*
X553839Y745669D01*
X556551Y742957D01*
X556551Y734822D01*
X578447Y734822D02*
X578447Y751092D01*
X586582Y751092D01*
X589294Y748380D01*
X589294Y742957D01*
X586582Y740245D01*
X578447Y740245D01*
X583871Y740245D02*
X589294Y734822D01*
X597531Y734822D02*
X602954Y734822D01*
X605666Y737534D01*
X605666Y742957D01*
X602954Y745669D01*
X597531Y745669D01*
X594819Y742957D01*
X594819Y737534D01*
X597531Y734822D01*
X613902Y745669D02*
X622037Y745669D01*
X613902Y745669D02*
X611191Y742957D01*
X611191Y737534D01*
X613902Y734822D01*
X622037Y734822D01*
X627562Y734822D02*
X627562Y751092D01*
X627562Y740245D02*
X635697Y734822D01*
X627562Y740245D02*
X635697Y745669D01*
X643917Y734822D02*
X649340Y734822D01*
X643917Y734822D02*
X641205Y737534D01*
X641205Y742957D01*
X643917Y745669D01*
X649340Y745669D01*
X652052Y742957D01*
X652052Y740245D01*
X641205Y740245D01*
X660288Y737534D02*
X660288Y748380D01*
X660288Y737534D02*
X663000Y734822D01*
X663000Y745669D02*
X657577Y745669D01*
X668491Y745669D02*
X668491Y734822D01*
X668491Y740245D02*
X673914Y745669D01*
X676626Y745669D01*
X682134Y745669D02*
X682134Y737534D01*
X684846Y734822D01*
X692981Y734822D01*
X692981Y732110D02*
X692981Y745669D01*
X692981Y732110D02*
X690269Y729399D01*
X687557Y729399D01*
X714877Y734822D02*
X714877Y745669D01*
X720300Y751092D01*
X725724Y745669D01*
X725724Y734822D01*
X725724Y742957D02*
X714877Y742957D01*
X731249Y734822D02*
X739384Y734822D01*
X742095Y737534D01*
X739384Y740245D01*
X733960Y740245D01*
X731249Y742957D01*
X733960Y745669D01*
X742095Y745669D01*
X747620Y734822D02*
X755755Y734822D01*
X758467Y737534D01*
X755755Y740245D01*
X750332Y740245D01*
X747620Y742957D01*
X750332Y745669D01*
X758467Y745669D01*
X766703Y734822D02*
X772127Y734822D01*
X774838Y737534D01*
X774838Y742957D01*
X772127Y745669D01*
X766703Y745669D01*
X763992Y742957D01*
X763992Y737534D01*
X766703Y734822D01*
X780363Y745669D02*
X783075Y745669D01*
X783075Y734822D01*
X780363Y734822D02*
X785787Y734822D01*
X783075Y751092D02*
X783075Y753804D01*
X793989Y745669D02*
X802124Y745669D01*
X793989Y745669D02*
X791278Y742957D01*
X791278Y737534D01*
X793989Y734822D01*
X802124Y734822D01*
X810361Y745669D02*
X815784Y745669D01*
X818496Y742957D01*
X818496Y734822D01*
X810361Y734822D01*
X807649Y737534D01*
X810361Y740245D01*
X818496Y740245D01*
X826733Y737534D02*
X826733Y748380D01*
X826733Y737534D02*
X829444Y734822D01*
X829444Y745669D02*
X824021Y745669D01*
X834935Y745669D02*
X837647Y745669D01*
X837647Y734822D01*
X834935Y734822D02*
X840359Y734822D01*
X837647Y751092D02*
X837647Y753804D01*
X848561Y734822D02*
X853985Y734822D01*
X856696Y737534D01*
X856696Y742957D01*
X853985Y745669D01*
X848561Y745669D01*
X845850Y742957D01*
X845850Y737534D01*
X848561Y734822D01*
X862221Y734822D02*
X862221Y745669D01*
X870356Y745669D01*
X873068Y742957D01*
X873068Y734822D01*
D12*
X451485Y726072D02*
X451485Y713150D01*
X454070Y710565D01*
X459239Y710565D01*
X461823Y713150D01*
X461823Y726072D01*
X466921Y720903D02*
X466921Y710565D01*
X466921Y720903D02*
X474675Y720903D01*
X477259Y718319D01*
X477259Y710565D01*
X482357Y720903D02*
X484942Y720903D01*
X484942Y710565D01*
X487526Y710565D02*
X482357Y710565D01*
X484942Y726072D02*
X484942Y728657D01*
X492648Y720903D02*
X497817Y710565D01*
X502986Y720903D01*
X510668Y710565D02*
X515838Y710565D01*
X510668Y710565D02*
X508084Y713150D01*
X508084Y718319D01*
X510668Y720903D01*
X515838Y720903D01*
X518422Y718319D01*
X518422Y715734D01*
X508084Y715734D01*
X523520Y710565D02*
X523520Y720903D01*
X523520Y715734D02*
X528689Y720903D01*
X531274Y720903D01*
X536383Y710565D02*
X544137Y710565D01*
X546721Y713150D01*
X544137Y715734D01*
X538968Y715734D01*
X536383Y718319D01*
X538968Y720903D01*
X546721Y720903D01*
X551819Y720903D02*
X554404Y720903D01*
X554404Y710565D01*
X556988Y710565D02*
X551819Y710565D01*
X554404Y726072D02*
X554404Y728657D01*
X564695Y723488D02*
X564695Y713150D01*
X567279Y710565D01*
X567279Y720903D02*
X562110Y720903D01*
X572401Y720903D02*
X572401Y713150D01*
X574985Y710565D01*
X582739Y710565D01*
X582739Y707980D02*
X582739Y720903D01*
X582739Y707980D02*
X580154Y705396D01*
X577570Y705396D01*
X605857Y710565D02*
X611027Y710565D01*
X613611Y713150D01*
X613611Y718319D01*
X611027Y720903D01*
X605857Y720903D01*
X603273Y718319D01*
X603273Y713150D01*
X605857Y710565D01*
X621293Y710565D02*
X621293Y723488D01*
X623878Y726072D01*
X623878Y718319D02*
X618709Y718319D01*
X649605Y726072D02*
X649605Y710565D01*
X644436Y726072D02*
X654774Y726072D01*
X662456Y710565D02*
X667625Y710565D01*
X662456Y710565D02*
X659872Y713150D01*
X659872Y718319D01*
X662456Y720903D01*
X667625Y720903D01*
X670210Y718319D01*
X670210Y715734D01*
X659872Y715734D01*
X675308Y720903D02*
X685646Y710565D01*
X675308Y710565D02*
X685646Y720903D01*
X693328Y720903D02*
X698498Y720903D01*
X701082Y718319D01*
X701082Y710565D01*
X693328Y710565D01*
X690744Y713150D01*
X693328Y715734D01*
X701082Y715734D01*
X706180Y710565D02*
X713934Y710565D01*
X716518Y713150D01*
X713934Y715734D01*
X708764Y715734D01*
X706180Y718319D01*
X708764Y720903D01*
X716518Y720903D01*
X739637Y720903D02*
X744806Y720903D01*
X747390Y718319D01*
X747390Y710565D01*
X739637Y710565D01*
X737052Y713150D01*
X739637Y715734D01*
X747390Y715734D01*
X755073Y713150D02*
X755073Y723488D01*
X755073Y713150D02*
X757657Y710565D01*
X757657Y720903D02*
X752488Y720903D01*
X778215Y720903D02*
X778215Y710565D01*
X778215Y720903D02*
X783384Y726072D01*
X788553Y720903D01*
X788553Y710565D01*
X788553Y718319D02*
X778215Y718319D01*
X793651Y720903D02*
X793651Y713150D01*
X796235Y710565D01*
X803989Y710565D01*
X803989Y720903D01*
X809087Y710565D02*
X816841Y710565D01*
X819425Y713150D01*
X816841Y715734D01*
X811672Y715734D01*
X809087Y718319D01*
X811672Y720903D01*
X819425Y720903D01*
X827108Y723488D02*
X827108Y713150D01*
X829692Y710565D01*
X829692Y720903D02*
X824523Y720903D01*
X834814Y720903D02*
X837398Y720903D01*
X837398Y710565D01*
X834814Y710565D02*
X839983Y710565D01*
X837398Y726072D02*
X837398Y728657D01*
X845104Y720903D02*
X845104Y710565D01*
X845104Y720903D02*
X852858Y720903D01*
X855443Y718319D01*
X855443Y710565D01*
D13*
X458978Y698257D02*
X458978Y685038D01*
X458978Y698257D02*
X467791Y698257D01*
X463384Y691648D02*
X458978Y691648D01*
X472075Y698257D02*
X474278Y698257D01*
X474278Y685038D01*
X472075Y685038D02*
X476482Y685038D01*
X480807Y693851D02*
X483010Y693851D01*
X483010Y685038D01*
X480807Y685038D02*
X485213Y685038D01*
X483010Y698257D02*
X483010Y700461D01*
X493945Y680632D02*
X496148Y680632D01*
X498351Y682835D01*
X498351Y693851D01*
X491741Y693851D01*
X489538Y691648D01*
X489538Y687241D01*
X491741Y685038D01*
X498351Y685038D01*
X502636Y685038D02*
X502636Y698257D01*
X504839Y693851D02*
X502636Y691648D01*
X504839Y693851D02*
X509245Y693851D01*
X511448Y691648D01*
X511448Y685038D01*
X517936Y687241D02*
X517936Y696054D01*
X517936Y687241D02*
X520139Y685038D01*
X520139Y693851D02*
X515733Y693851D01*
X544171Y698257D02*
X546374Y696054D01*
X544171Y698257D02*
X539765Y698257D01*
X537562Y696054D01*
X537562Y687241D01*
X539765Y685038D01*
X544171Y685038D01*
X546374Y687241D01*
X552862Y685038D02*
X557268Y685038D01*
X559472Y687241D01*
X559472Y691648D01*
X557268Y693851D01*
X552862Y693851D01*
X550659Y691648D01*
X550659Y687241D01*
X552862Y685038D01*
X563756Y685038D02*
X563756Y693851D01*
X565959Y693851D01*
X568162Y691648D01*
X568162Y685038D01*
X568162Y691648D02*
X570366Y693851D01*
X572569Y691648D01*
X572569Y685038D01*
X576853Y680632D02*
X576853Y693851D01*
X583463Y693851D01*
X585666Y691648D01*
X585666Y687241D01*
X583463Y685038D01*
X576853Y685038D01*
X589951Y687241D02*
X589951Y693851D01*
X589951Y687241D02*
X592154Y685038D01*
X598763Y685038D01*
X598763Y693851D01*
X605251Y696054D02*
X605251Y687241D01*
X607454Y685038D01*
X607454Y693851D02*
X603048Y693851D01*
X613982Y685038D02*
X618389Y685038D01*
X613982Y685038D02*
X611779Y687241D01*
X611779Y691648D01*
X613982Y693851D01*
X618389Y693851D01*
X620592Y691648D01*
X620592Y689444D01*
X611779Y689444D01*
X624877Y685038D02*
X624877Y693851D01*
X629283Y693851D02*
X624877Y689444D01*
X629283Y693851D02*
X631486Y693851D01*
X655498Y698257D02*
X657701Y696054D01*
X655498Y698257D02*
X651091Y698257D01*
X648888Y696054D01*
X648888Y693851D01*
X651091Y691648D01*
X655498Y691648D01*
X657701Y689444D01*
X657701Y687241D01*
X655498Y685038D01*
X651091Y685038D01*
X648888Y687241D01*
X664189Y687241D02*
X664189Y696054D01*
X664189Y687241D02*
X666392Y685038D01*
X666392Y693851D02*
X661985Y693851D01*
X670717Y693851D02*
X670717Y685038D01*
X670717Y689444D02*
X675123Y693851D01*
X677327Y693851D01*
X683834Y693851D02*
X688241Y693851D01*
X690444Y691648D01*
X690444Y685038D01*
X683834Y685038D01*
X681631Y687241D01*
X683834Y689444D01*
X690444Y689444D01*
X696932Y687241D02*
X696932Y696054D01*
X696932Y687241D02*
X699135Y685038D01*
X699135Y693851D02*
X694729Y693851D01*
X705663Y685038D02*
X710070Y685038D01*
X712273Y687241D01*
X712273Y691648D01*
X710070Y693851D01*
X705663Y693851D01*
X703460Y691648D01*
X703460Y687241D01*
X705663Y685038D01*
X716557Y698257D02*
X718760Y698257D01*
X718760Y685038D01*
X716557Y685038D02*
X720964Y685038D01*
X727492Y685038D02*
X731898Y685038D01*
X734102Y687241D01*
X734102Y691648D01*
X731898Y693851D01*
X727492Y693851D01*
X725289Y691648D01*
X725289Y687241D01*
X727492Y685038D01*
X742792Y680632D02*
X744996Y680632D01*
X747199Y682835D01*
X747199Y693851D01*
X740589Y693851D01*
X738386Y691648D01*
X738386Y687241D01*
X740589Y685038D01*
X747199Y685038D01*
X755890Y680632D02*
X758093Y680632D01*
X760296Y682835D01*
X760296Y693851D01*
X753686Y693851D01*
X751483Y691648D01*
X751483Y687241D01*
X753686Y685038D01*
X760296Y685038D01*
X766784Y685038D02*
X771190Y685038D01*
X766784Y685038D02*
X764581Y687241D01*
X764581Y691648D01*
X766784Y693851D01*
X771190Y693851D01*
X773393Y691648D01*
X773393Y689444D01*
X764581Y689444D01*
X777678Y685038D02*
X777678Y693851D01*
X782084Y693851D02*
X777678Y689444D01*
X782084Y693851D02*
X784287Y693851D01*
X801689Y698257D02*
X801689Y685038D01*
X801689Y698257D02*
X808299Y698257D01*
X810502Y696054D01*
X810502Y693851D01*
X808299Y691648D01*
X810502Y689444D01*
X810502Y687241D01*
X808299Y685038D01*
X801689Y685038D01*
X801689Y691648D02*
X808299Y691648D01*
X816990Y685038D02*
X821396Y685038D01*
X823599Y687241D01*
X823599Y691648D01*
X821396Y693851D01*
X816990Y693851D01*
X814787Y691648D01*
X814787Y687241D01*
X816990Y685038D01*
X830087Y693851D02*
X834494Y693851D01*
X836697Y691648D01*
X836697Y685038D01*
X830087Y685038D01*
X827884Y687241D01*
X830087Y689444D01*
X836697Y689444D01*
X840981Y685038D02*
X840981Y693851D01*
X840981Y689444D02*
X845388Y693851D01*
X847591Y693851D01*
X860708Y698257D02*
X860708Y685038D01*
X854099Y685038D01*
X851896Y687241D01*
X851896Y691648D01*
X854099Y693851D01*
X860708Y693851D01*
X878090Y698257D02*
X878090Y685038D01*
X878090Y698257D02*
X884700Y698257D01*
X886903Y696054D01*
X886903Y691648D01*
X884700Y689444D01*
X878090Y689444D01*
X882496Y689444D02*
X886903Y685038D01*
X893390Y685038D02*
X897797Y685038D01*
X893390Y685038D02*
X891187Y687241D01*
X891187Y691648D01*
X893390Y693851D01*
X897797Y693851D01*
X900000Y691648D01*
X900000Y689444D01*
X891187Y689444D01*
X904285Y693851D02*
X908691Y685038D01*
X913097Y693851D01*
X930479Y698257D02*
X930479Y685038D01*
X930479Y698257D02*
X937089Y698257D01*
X939292Y696054D01*
X939292Y693851D01*
X937089Y691648D01*
X939292Y689444D01*
X939292Y687241D01*
X937089Y685038D01*
X930479Y685038D01*
X930479Y691648D02*
X937089Y691648D01*
X943576Y687241D02*
X943576Y685038D01*
X943576Y687241D02*
X945779Y687241D01*
X945779Y685038D01*
X943576Y685038D01*
D14*
X458216Y669290D02*
X408940Y759460D01*
X458216Y669290D02*
X770890Y669544D01*
D15*
X632841Y425958D03*
X632079Y426720D03*
X632079Y427482D03*
X632079Y428244D03*
X632079Y429006D03*
X632079Y429768D03*
X632079Y430530D03*
X632079Y431292D03*
X632079Y432054D03*
X632079Y432816D03*
X632079Y433578D03*
X632079Y434340D03*
X632079Y435102D03*
X632079Y435864D03*
X632079Y436626D03*
X632079Y437388D03*
X632079Y438150D03*
X632079Y438912D03*
X632079Y439674D03*
X632079Y440436D03*
X632079Y441198D03*
X632079Y441960D03*
X632079Y442722D03*
X632079Y443484D03*
X632079Y444246D03*
X632079Y445008D03*
X632079Y445770D03*
X632079Y446532D03*
X632079Y447294D03*
X632079Y448056D03*
X632079Y448818D03*
X632079Y449580D03*
X632079Y450342D03*
X632079Y451104D03*
X632079Y451866D03*
X632079Y452628D03*
X632079Y453390D03*
X632079Y454152D03*
X632079Y454914D03*
X632079Y455676D03*
X632079Y456438D03*
X632079Y457200D03*
X632079Y457962D03*
D16*
X552831Y458724D03*
D17*
X677799Y458724D03*
D18*
X552069Y459486D03*
D19*
X679323Y459486D03*
D20*
X550545Y460248D03*
D21*
X681228Y460248D03*
D22*
X549402Y461010D03*
D23*
X682752Y461010D03*
D24*
X548640Y461772D03*
D25*
X683514Y461772D03*
D26*
X547497Y462534D03*
D27*
X685038Y462534D03*
D28*
X546735Y463296D03*
D29*
X686181Y463296D03*
D30*
X545973Y464058D03*
D31*
X687324Y464058D03*
D32*
X545592Y464820D03*
D33*
X688086Y464820D03*
D34*
X544830Y465582D03*
D35*
X689229Y465582D03*
D36*
X544068Y466344D03*
D37*
X689991Y466344D03*
D38*
X543687Y467106D03*
D39*
X690372Y467106D03*
D40*
X543306Y467868D03*
D41*
X691515Y467868D03*
D42*
X542544Y468630D03*
D43*
X692277Y468630D03*
D42*
X542544Y469392D03*
D44*
X614934Y469392D03*
D45*
X692658Y469392D03*
D46*
X541782Y470154D03*
D47*
X615696Y470154D03*
D48*
X693420Y470154D03*
D49*
X541401Y470916D03*
D50*
X616077Y470916D03*
D51*
X646938Y470916D03*
D52*
X700278Y470916D03*
D53*
X541020Y471678D03*
D54*
X616458Y471678D03*
D55*
X647319Y471678D03*
D56*
X700659Y471678D03*
D57*
X540639Y472440D03*
D58*
X616458Y472440D03*
D59*
X647700Y472440D03*
D60*
X701421Y472440D03*
D61*
X653034Y472440D03*
D57*
X540639Y473202D03*
D62*
X616839Y473202D03*
D63*
X645795Y473202D03*
X649605Y473202D03*
D64*
X701802Y473202D03*
D65*
X653796Y473202D03*
D66*
X540258Y473964D03*
D46*
X617220Y473964D03*
D67*
X646176Y473964D03*
D68*
X702945Y473964D03*
D67*
X647700Y473964D03*
D69*
X654177Y473964D03*
D66*
X540258Y474726D03*
D40*
X617220Y474726D03*
D68*
X702945Y474726D03*
D67*
X647700Y474726D03*
D70*
X655320Y474726D03*
D62*
X539877Y475488D03*
D71*
X616839Y475488D03*
D67*
X645414Y475488D03*
D72*
X703707Y475488D03*
D63*
X647319Y475488D03*
D67*
X649986Y475488D03*
D69*
X656463Y475488D03*
D73*
X539496Y476250D03*
D32*
X617220Y476250D03*
D72*
X703707Y476250D03*
D67*
X646938Y476250D03*
X651510Y476250D03*
D69*
X657987Y476250D03*
D74*
X539115Y477012D03*
D30*
X616077Y477012D03*
D72*
X703707Y477012D03*
D67*
X646176Y477012D03*
X653034Y477012D03*
D75*
X658749Y477012D03*
D74*
X539115Y477774D03*
D76*
X615696Y477774D03*
D72*
X703707Y477774D03*
D67*
X649986Y477774D03*
D63*
X654177Y477774D03*
D61*
X659130Y477774D03*
D74*
X539115Y478536D03*
D77*
X616458Y478536D03*
D72*
X703707Y478536D03*
D67*
X647700Y478536D03*
X655320Y478536D03*
X659892Y478536D03*
D58*
X538734Y479298D03*
D78*
X615315Y479298D03*
D72*
X703707Y479298D03*
D67*
X649224Y479298D03*
X656844Y479298D03*
D58*
X538734Y480060D03*
D24*
X614934Y480060D03*
D72*
X703707Y480060D03*
D63*
X650367Y480060D03*
X657987Y480060D03*
D79*
X538353Y480822D03*
D24*
X614934Y480822D03*
D80*
X704088Y480822D03*
D67*
X646938Y480822D03*
X651510Y480822D03*
D63*
X658749Y480822D03*
D79*
X538353Y481584D03*
D22*
X614172Y481584D03*
D81*
X704850Y481584D03*
D61*
X647700Y481584D03*
D63*
X652653Y481584D03*
X660273Y481584D03*
D79*
X538353Y482346D03*
D22*
X613410Y482346D03*
D82*
X705612Y482346D03*
D65*
X648462Y482346D03*
D63*
X661035Y482346D03*
D83*
X537972Y483108D03*
D22*
X613410Y483108D03*
D84*
X705993Y483108D03*
D69*
X648843Y483108D03*
D61*
X655320Y483108D03*
D69*
X661797Y483108D03*
D83*
X537972Y483870D03*
D85*
X613410Y483870D03*
D86*
X706755Y483870D03*
D69*
X649605Y483870D03*
X661797Y483870D03*
D83*
X537972Y484632D03*
D20*
X613791Y484632D03*
D87*
X707136Y484632D03*
D69*
X651129Y484632D03*
D88*
X661416Y484632D03*
D83*
X537972Y485394D03*
D89*
X614172Y485394D03*
D90*
X707898Y485394D03*
D91*
X652653Y485394D03*
D92*
X662559Y485394D03*
D83*
X537972Y486156D03*
D93*
X614172Y486156D03*
D94*
X708279Y486156D03*
D65*
X653034Y486156D03*
D88*
X663702Y486156D03*
D95*
X537591Y486918D03*
D96*
X614934Y486918D03*
D61*
X657606Y486918D03*
D97*
X709041Y486918D03*
D67*
X653034Y486918D03*
D88*
X665226Y486918D03*
D95*
X537591Y487680D03*
D98*
X615315Y487680D03*
D91*
X657225Y487680D03*
D99*
X709422Y487680D03*
D92*
X666369Y487680D03*
D95*
X537591Y488442D03*
D100*
X619887Y488442D03*
D101*
X710184Y488442D03*
D88*
X667512Y488442D03*
D95*
X537591Y489204D03*
D102*
X620649Y489204D03*
D96*
X710946Y489204D03*
D88*
X669036Y489204D03*
D95*
X537591Y489966D03*
D103*
X621030Y489966D03*
D93*
X711708Y489966D03*
D88*
X670560Y489966D03*
D95*
X537591Y490728D03*
D68*
X621411Y490728D03*
D18*
X712089Y490728D03*
D92*
X671703Y490728D03*
D95*
X537591Y491490D03*
D104*
X622173Y491490D03*
D105*
X712851Y491490D03*
D88*
X672846Y491490D03*
D95*
X537591Y492252D03*
D60*
X622173Y492252D03*
D20*
X713613Y492252D03*
D55*
X673989Y492252D03*
D95*
X537591Y493014D03*
D52*
X623316Y493014D03*
D85*
X713994Y493014D03*
D92*
X675513Y493014D03*
D95*
X537591Y493776D03*
D52*
X623316Y493776D03*
D22*
X714756Y493776D03*
D55*
X676275Y493776D03*
D95*
X537591Y494538D03*
D106*
X624078Y494538D03*
D107*
X715137Y494538D03*
D92*
X677799Y494538D03*
D95*
X537591Y495300D03*
D108*
X624840Y495300D03*
D77*
X716280Y495300D03*
D88*
X678942Y495300D03*
D95*
X537591Y496062D03*
D109*
X625221Y496062D03*
D77*
X716280Y496062D03*
D92*
X680085Y496062D03*
D95*
X537591Y496824D03*
D110*
X625602Y496824D03*
D28*
X717423Y496824D03*
D88*
X681228Y496824D03*
D95*
X537591Y497586D03*
D111*
X626364Y497586D03*
D30*
X718185Y497586D03*
D88*
X682752Y497586D03*
D95*
X537591Y498348D03*
D112*
X627126Y498348D03*
D32*
X718566Y498348D03*
D51*
X684276Y498348D03*
D95*
X537591Y499110D03*
D113*
X627507Y499110D03*
D114*
X718947Y499110D03*
D88*
X685038Y499110D03*
D95*
X537591Y499872D03*
D115*
X628269Y499872D03*
D71*
X719709Y499872D03*
D55*
X686181Y499872D03*
D83*
X537972Y500634D03*
D116*
X629031Y500634D03*
D36*
X720090Y500634D03*
D59*
X686562Y500634D03*
D67*
X691896Y500634D03*
D83*
X537972Y501396D03*
D48*
X629412Y501396D03*
D40*
X720852Y501396D03*
D69*
X686943Y501396D03*
D63*
X692277Y501396D03*
D83*
X537972Y502158D03*
D45*
X630174Y502158D03*
D117*
X721233Y502158D03*
D61*
X687324Y502158D03*
D75*
X692277Y502158D03*
D83*
X537972Y502920D03*
D118*
X630936Y502920D03*
D42*
X721614Y502920D03*
D69*
X693039Y502920D03*
D83*
X537972Y503682D03*
D119*
X631698Y503682D03*
D120*
X721995Y503682D03*
D91*
X693039Y503682D03*
D83*
X537972Y504444D03*
D121*
X632079Y504444D03*
D49*
X722757Y504444D03*
D59*
X693420Y504444D03*
D83*
X537972Y505206D03*
D37*
X632841Y505206D03*
D57*
X723519Y505206D03*
D59*
X694944Y505206D03*
D79*
X538353Y505968D03*
D35*
X633603Y505968D03*
D57*
X723519Y505968D03*
D59*
X695706Y505968D03*
D79*
X538353Y506730D03*
D122*
X633984Y506730D03*
D66*
X723900Y506730D03*
D70*
X697230Y506730D03*
D79*
X538353Y507492D03*
D33*
X634746Y507492D03*
D62*
X724281Y507492D03*
D69*
X698373Y507492D03*
D58*
X538734Y508254D03*
D123*
X635889Y508254D03*
D73*
X724662Y508254D03*
D75*
X699897Y508254D03*
D58*
X538734Y509016D03*
D124*
X637032Y509016D03*
D74*
X725043Y509016D03*
D75*
X700659Y509016D03*
D58*
X538734Y509778D03*
D125*
X637413Y509778D03*
D74*
X725043Y509778D03*
D58*
X538734Y510540D03*
D126*
X638937Y510540D03*
D73*
X724662Y510540D03*
D58*
X538734Y511302D03*
D127*
X661416Y511302D03*
D74*
X539115Y512064D03*
D128*
X661797Y512064D03*
D74*
X539115Y512826D03*
D128*
X661797Y512826D03*
D74*
X539115Y513588D03*
D128*
X661797Y513588D03*
D74*
X539115Y514350D03*
D128*
X661797Y514350D03*
D73*
X539496Y515112D03*
D128*
X661797Y515112D03*
D73*
X539496Y515874D03*
D129*
X662178Y515874D03*
D62*
X539877Y516636D03*
D129*
X662178Y516636D03*
D62*
X539877Y517398D03*
D129*
X662178Y517398D03*
D62*
X539877Y518160D03*
D130*
X662559Y518160D03*
D62*
X539877Y518922D03*
D130*
X662559Y518922D03*
D66*
X540258Y519684D03*
D130*
X662559Y519684D03*
D66*
X540258Y520446D03*
D131*
X608076Y520446D03*
D132*
X693039Y520446D03*
D66*
X540258Y521208D03*
D28*
X608457Y521208D03*
D133*
X694182Y521208D03*
D67*
X638556Y521208D03*
D57*
X540639Y521970D03*
D76*
X608076Y521970D03*
D115*
X694563Y521970D03*
D75*
X639699Y521970D03*
D57*
X540639Y522732D03*
D30*
X607695Y522732D03*
D113*
X695325Y522732D03*
D69*
X639699Y522732D03*
D57*
X540639Y523494D03*
D30*
X607695Y523494D03*
D111*
X696468Y523494D03*
D91*
X640461Y523494D03*
D53*
X541020Y524256D03*
D93*
X601218Y524256D03*
D134*
X696849Y524256D03*
D92*
X641223Y524256D03*
D53*
X541020Y525018D03*
D16*
X600075Y525018D03*
D135*
X697992Y525018D03*
D51*
X641604Y525018D03*
D49*
X541401Y525780D03*
D92*
X603885Y525780D03*
D136*
X627888Y525780D03*
D137*
X658368Y525780D03*
D138*
X683895Y525780D03*
D53*
X723138Y525780D03*
D139*
X642366Y525780D03*
D57*
X540639Y526542D03*
D92*
X603885Y526542D03*
D136*
X627888Y526542D03*
D140*
X657987Y526542D03*
D138*
X683895Y526542D03*
D57*
X723519Y526542D03*
D141*
X581787Y526542D03*
D142*
X614553Y526542D03*
D139*
X642366Y526542D03*
D67*
X669036Y526542D03*
X698754Y526542D03*
D62*
X539877Y527304D03*
D92*
X603885Y527304D03*
D143*
X627507Y527304D03*
D144*
X657225Y527304D03*
D145*
X683514Y527304D03*
D73*
X724662Y527304D03*
D146*
X581025Y527304D03*
D142*
X614553Y527304D03*
D147*
X641985Y527304D03*
D61*
X668274Y527304D03*
D63*
X699135Y527304D03*
D74*
X539115Y528066D03*
D92*
X603885Y528066D03*
D139*
X627126Y528066D03*
D143*
X655701Y528066D03*
D148*
X683514Y528066D03*
D58*
X725424Y528066D03*
D149*
X580263Y528066D03*
D142*
X614553Y528066D03*
D139*
X641604Y528066D03*
D65*
X667512Y528066D03*
X699516Y528066D03*
D58*
X538734Y528828D03*
D92*
X603885Y528828D03*
D139*
X627126Y528828D03*
D147*
X654939Y528828D03*
D148*
X683514Y528828D03*
D95*
X726567Y528828D03*
D150*
X579882Y528828D03*
D142*
X614553Y528828D03*
D139*
X640842Y528828D03*
D91*
X667131Y528828D03*
D59*
X700278Y528828D03*
D58*
X538734Y529590D03*
D92*
X603885Y529590D03*
D147*
X626745Y529590D03*
D151*
X653796Y529590D03*
D148*
X683514Y529590D03*
D152*
X727329Y529590D03*
D54*
X579120Y529590D03*
D142*
X614553Y529590D03*
D147*
X640461Y529590D03*
D88*
X665988Y529590D03*
D92*
X701421Y529590D03*
D79*
X538353Y530352D03*
D92*
X603885Y530352D03*
D147*
X626745Y530352D03*
D92*
X652653Y530352D03*
D153*
X683514Y530352D03*
D54*
X727710Y530352D03*
X579120Y530352D03*
D142*
X614553Y530352D03*
D139*
X640080Y530352D03*
D51*
X665226Y530352D03*
X701802Y530352D03*
D83*
X537972Y531114D03*
D92*
X603885Y531114D03*
D151*
X626364Y531114D03*
D51*
X652272Y531114D03*
D154*
X683895Y531114D03*
D54*
X727710Y531114D03*
D152*
X578739Y531114D03*
D142*
X614553Y531114D03*
D139*
X640080Y531114D03*
D147*
X664845Y531114D03*
X702183Y531114D03*
D83*
X537972Y531876D03*
D92*
X603885Y531876D03*
D151*
X626364Y531876D03*
D142*
X652653Y531876D03*
D154*
X683895Y531876D03*
D54*
X727710Y531876D03*
D155*
X578358Y531876D03*
D142*
X614553Y531876D03*
D139*
X639318Y531876D03*
X665226Y531876D03*
D147*
X702183Y531876D03*
D95*
X537591Y532638D03*
D92*
X603885Y532638D03*
D151*
X626364Y532638D03*
X652272Y532638D03*
D47*
X683514Y532638D03*
D54*
X727710Y532638D03*
D155*
X578358Y532638D03*
D142*
X614553Y532638D03*
D139*
X639318Y532638D03*
D147*
X665607Y532638D03*
D151*
X701802Y532638D03*
D95*
X537591Y533400D03*
D92*
X603885Y533400D03*
D142*
X625983Y533400D03*
D147*
X652653Y533400D03*
D156*
X683895Y533400D03*
D152*
X727329Y533400D03*
D95*
X577977Y533400D03*
D142*
X614553Y533400D03*
D147*
X638937Y533400D03*
X665607Y533400D03*
X701421Y533400D03*
D155*
X537210Y534162D03*
D92*
X603885Y534162D03*
D51*
X625602Y534162D03*
D139*
X652272Y534162D03*
D157*
X683514Y534162D03*
D152*
X727329Y534162D03*
D95*
X577977Y534162D03*
D142*
X614553Y534162D03*
D147*
X638175Y534162D03*
X666369Y534162D03*
D151*
X701040Y534162D03*
D155*
X537210Y534924D03*
D92*
X603885Y534924D03*
D51*
X625602Y534924D03*
D143*
X652653Y534924D03*
D158*
X683514Y534924D03*
D155*
X726948Y534924D03*
D83*
X577596Y534924D03*
D142*
X614553Y534924D03*
D139*
X637794Y534924D03*
D147*
X666369Y534924D03*
X700659Y534924D03*
D152*
X536829Y535686D03*
D92*
X603885Y535686D03*
X625221Y535686D03*
D136*
X652272Y535686D03*
D158*
X683514Y535686D03*
D155*
X726948Y535686D03*
D83*
X577596Y535686D03*
D142*
X614553Y535686D03*
D139*
X637794Y535686D03*
D151*
X666750Y535686D03*
X700278Y535686D03*
D152*
X536829Y536448D03*
D92*
X603885Y536448D03*
X625221Y536448D03*
D136*
X652272Y536448D03*
D159*
X683895Y536448D03*
D95*
X726567Y536448D03*
D83*
X577596Y536448D03*
D142*
X614553Y536448D03*
D147*
X637413Y536448D03*
X667131Y536448D03*
X699897Y536448D03*
D152*
X536829Y537210D03*
D92*
X603885Y537210D03*
X625221Y537210D03*
D44*
X652272Y537210D03*
D137*
X683514Y537210D03*
D95*
X726567Y537210D03*
D79*
X577215Y537210D03*
D142*
X614553Y537210D03*
D139*
X637032Y537210D03*
D147*
X667893Y537210D03*
X699897Y537210D03*
D152*
X536829Y537972D03*
D92*
X603885Y537972D03*
D88*
X624840Y537972D03*
D140*
X652653Y537972D03*
X683895Y537972D03*
D95*
X726567Y537972D03*
D147*
X562737Y537972D03*
D142*
X614553Y537972D03*
D139*
X637032Y537972D03*
D147*
X667893Y537972D03*
D151*
X699516Y537972D03*
D152*
X536829Y538734D03*
D155*
X589026Y538734D03*
D55*
X624459Y538734D03*
D140*
X652653Y538734D03*
X683895Y538734D03*
D83*
X726186Y538734D03*
D147*
X562737Y538734D03*
D142*
X614553Y538734D03*
D139*
X636270Y538734D03*
D151*
X668274Y538734D03*
D147*
X699135Y538734D03*
D152*
X536829Y539496D03*
D61*
X570738Y539496D03*
D156*
X597789Y539496D03*
D55*
X624459Y539496D03*
D159*
X652653Y539496D03*
D44*
X683514Y539496D03*
D83*
X726186Y539496D03*
D147*
X562737Y539496D03*
D142*
X614553Y539496D03*
D143*
X635889Y539496D03*
D147*
X668655Y539496D03*
D151*
X698754Y539496D03*
D152*
X536829Y540258D03*
D61*
X570738Y540258D03*
D156*
X597789Y540258D03*
D55*
X624459Y540258D03*
D159*
X652653Y540258D03*
D136*
X683514Y540258D03*
D79*
X725805Y540258D03*
D147*
X562737Y540258D03*
D142*
X614553Y540258D03*
D139*
X635508Y540258D03*
D147*
X668655Y540258D03*
D151*
X697992Y540258D03*
D152*
X536829Y541020D03*
D75*
X571119Y541020D03*
D156*
X597789Y541020D03*
D59*
X624078Y541020D03*
D158*
X652272Y541020D03*
D143*
X683895Y541020D03*
D79*
X725805Y541020D03*
D147*
X562737Y541020D03*
D142*
X614553Y541020D03*
D147*
X635127Y541020D03*
X669417Y541020D03*
X697611Y541020D03*
D152*
X536829Y541782D03*
D75*
X571119Y541782D03*
D157*
X598170Y541782D03*
D59*
X624078Y541782D03*
D157*
X652272Y541782D03*
D143*
X683895Y541782D03*
D58*
X725424Y541782D03*
D147*
X562737Y541782D03*
D142*
X614553Y541782D03*
D139*
X634746Y541782D03*
D147*
X670179Y541782D03*
X697611Y541782D03*
D152*
X536829Y542544D03*
D65*
X571500Y542544D03*
D157*
X598170Y542544D03*
D91*
X623697Y542544D03*
D156*
X652653Y542544D03*
D139*
X683514Y542544D03*
D58*
X725424Y542544D03*
D147*
X562737Y542544D03*
D142*
X614553Y542544D03*
D139*
X634746Y542544D03*
D147*
X670179Y542544D03*
D151*
X697230Y542544D03*
D152*
X536829Y543306D03*
D65*
X571500Y543306D03*
D160*
X598551Y543306D03*
D70*
X623316Y543306D03*
D157*
X653034Y543306D03*
D147*
X683895Y543306D03*
D74*
X725043Y543306D03*
D147*
X562737Y543306D03*
D142*
X614553Y543306D03*
D143*
X634365Y543306D03*
D147*
X670179Y543306D03*
X696849Y543306D03*
D152*
X536829Y544068D03*
D69*
X571881Y544068D03*
D158*
X598932Y544068D03*
D70*
X623316Y544068D03*
D158*
X653796Y544068D03*
D151*
X683514Y544068D03*
D74*
X725043Y544068D03*
D147*
X562737Y544068D03*
D142*
X614553Y544068D03*
D144*
X634365Y544068D03*
D147*
X670941Y544068D03*
D151*
X696468Y544068D03*
D152*
X536829Y544830D03*
D70*
X572262Y544830D03*
D158*
X598932Y544830D03*
D70*
X623316Y544830D03*
D160*
X654177Y544830D03*
D151*
X683514Y544830D03*
D74*
X725043Y544830D03*
D147*
X562737Y544830D03*
D142*
X614553Y544830D03*
D140*
X635127Y544830D03*
D147*
X670941Y544830D03*
D151*
X696468Y544830D03*
D152*
X536829Y545592D03*
D70*
X572262Y545592D03*
D159*
X599313Y545592D03*
D69*
X622935Y545592D03*
D158*
X654558Y545592D03*
D142*
X683895Y545592D03*
D73*
X724662Y545592D03*
D147*
X562737Y545592D03*
D142*
X614553Y545592D03*
D140*
X635127Y545592D03*
D151*
X671322Y545592D03*
X695706Y545592D03*
D152*
X536829Y546354D03*
D91*
X572643Y546354D03*
D159*
X599313Y546354D03*
D69*
X622935Y546354D03*
D137*
X655320Y546354D03*
D51*
X683514Y546354D03*
D62*
X724281Y546354D03*
D147*
X562737Y546354D03*
D142*
X614553Y546354D03*
D159*
X635127Y546354D03*
D147*
X671703Y546354D03*
D151*
X695706Y546354D03*
D152*
X536829Y547116D03*
D59*
X573024Y547116D03*
D137*
X599694Y547116D03*
D65*
X622554Y547116D03*
D137*
X656082Y547116D03*
D88*
X683514Y547116D03*
D62*
X724281Y547116D03*
D147*
X562737Y547116D03*
D142*
X614553Y547116D03*
D160*
X635889Y547116D03*
D147*
X671703Y547116D03*
D151*
X694944Y547116D03*
D152*
X536829Y547878D03*
D59*
X573024Y547878D03*
D140*
X600075Y547878D03*
D65*
X622554Y547878D03*
D137*
X656082Y547878D03*
D88*
X683514Y547878D03*
D66*
X723900Y547878D03*
D147*
X562737Y547878D03*
D142*
X614553Y547878D03*
D156*
X635889Y547878D03*
D147*
X672465Y547878D03*
X694563Y547878D03*
D152*
X536829Y548640D03*
D55*
X573405Y548640D03*
D140*
X600075Y548640D03*
D65*
X622554Y548640D03*
D137*
X656844Y548640D03*
D55*
X683895Y548640D03*
D66*
X723900Y548640D03*
D147*
X562737Y548640D03*
D142*
X614553Y548640D03*
D156*
X635889Y548640D03*
D151*
X672846Y548640D03*
D147*
X694563Y548640D03*
D152*
X536829Y549402D03*
D88*
X573786Y549402D03*
D44*
X600456Y549402D03*
D75*
X622173Y549402D03*
D137*
X657606Y549402D03*
D59*
X683514Y549402D03*
D66*
X723900Y549402D03*
D147*
X562737Y549402D03*
D142*
X614553Y549402D03*
D47*
X636270Y549402D03*
D147*
X673227Y549402D03*
D151*
X694182Y549402D03*
D152*
X536829Y550164D03*
D92*
X574167Y550164D03*
D44*
X600456Y550164D03*
D61*
X621792Y550164D03*
D137*
X657606Y550164D03*
D59*
X683514Y550164D03*
D57*
X723519Y550164D03*
D147*
X562737Y550164D03*
D142*
X614553Y550164D03*
D153*
X636270Y550164D03*
D147*
X673227Y550164D03*
X693801Y550164D03*
D152*
X536829Y550926D03*
D92*
X574167Y550926D03*
D144*
X600837Y550926D03*
D61*
X621792Y550926D03*
D140*
X657987Y550926D03*
D91*
X683895Y550926D03*
D57*
X723519Y550926D03*
D147*
X562737Y550926D03*
D142*
X614553Y550926D03*
D136*
X640842Y550926D03*
D151*
X673608Y550926D03*
D147*
X693801Y550926D03*
D152*
X536829Y551688D03*
D51*
X574548Y551688D03*
D136*
X601218Y551688D03*
D147*
X626745Y551688D03*
D137*
X658368Y551688D03*
D70*
X683514Y551688D03*
D57*
X723519Y551688D03*
D147*
X562737Y551688D03*
D142*
X614553Y551688D03*
D139*
X642366Y551688D03*
D147*
X673989Y551688D03*
D151*
X693420Y551688D03*
D152*
X536829Y552450D03*
D142*
X574929Y552450D03*
D143*
X601599Y552450D03*
D136*
X627888Y552450D03*
D137*
X658368Y552450D03*
D65*
X683514Y552450D03*
D53*
X723138Y552450D03*
D147*
X562737Y552450D03*
D142*
X614553Y552450D03*
D147*
X642747Y552450D03*
D151*
X674370Y552450D03*
X692658Y552450D03*
D152*
X536829Y553212D03*
D151*
X575310Y553212D03*
D143*
X601599Y553212D03*
D144*
X628269Y553212D03*
D159*
X658749Y553212D03*
D75*
X683895Y553212D03*
D49*
X722757Y553212D03*
D147*
X562737Y553212D03*
D142*
X614553Y553212D03*
D151*
X643128Y553212D03*
D147*
X674751Y553212D03*
X692277Y553212D03*
D152*
X536829Y553974D03*
D151*
X575310Y553974D03*
D139*
X601980Y553974D03*
D144*
X628269Y553974D03*
D137*
X659130Y553974D03*
D75*
X683895Y553974D03*
D49*
X722757Y553974D03*
D147*
X562737Y553974D03*
D142*
X614553Y553974D03*
X643509Y553974D03*
D151*
X675132Y553974D03*
X691896Y553974D03*
D152*
X536829Y554736D03*
D147*
X575691Y554736D03*
D139*
X601980Y554736D03*
D140*
X629031Y554736D03*
D159*
X659511Y554736D03*
D61*
X683514Y554736D03*
D49*
X722757Y554736D03*
D147*
X562737Y554736D03*
D142*
X614553Y554736D03*
D151*
X643890Y554736D03*
D147*
X675513Y554736D03*
D151*
X691896Y554736D03*
D152*
X536829Y555498D03*
D139*
X576072Y555498D03*
D147*
X602361Y555498D03*
D140*
X629031Y555498D03*
D159*
X659511Y555498D03*
D63*
X683895Y555498D03*
D46*
X722376Y555498D03*
D147*
X562737Y555498D03*
D142*
X614553Y555498D03*
D151*
X643890Y555498D03*
X675894Y555498D03*
D147*
X691515Y555498D03*
D152*
X536829Y556260D03*
D139*
X576072Y556260D03*
D151*
X602742Y556260D03*
D140*
X629031Y556260D03*
D137*
X659892Y556260D03*
D63*
X683895Y556260D03*
D46*
X722376Y556260D03*
D147*
X562737Y556260D03*
D142*
X614553Y556260D03*
D151*
X643890Y556260D03*
X675894Y556260D03*
X691134Y556260D03*
D152*
X536829Y557022D03*
D143*
X576453Y557022D03*
D142*
X603123Y557022D03*
D140*
X629031Y557022D03*
D159*
X660273Y557022D03*
D67*
X683514Y557022D03*
D120*
X721995Y557022D03*
D147*
X562737Y557022D03*
D142*
X614553Y557022D03*
D147*
X644271Y557022D03*
X676275Y557022D03*
D142*
X690753Y557022D03*
D152*
X536829Y557784D03*
D136*
X576834Y557784D03*
D142*
X603123Y557784D03*
D140*
X629031Y557784D03*
D159*
X660273Y557784D03*
D42*
X721614Y557784D03*
D147*
X562737Y557784D03*
D142*
X614553Y557784D03*
D147*
X644271Y557784D03*
D151*
X676656Y557784D03*
X690372Y557784D03*
D152*
X536829Y558546D03*
D144*
X577215Y558546D03*
D51*
X603504Y558546D03*
D140*
X629031Y558546D03*
D158*
X660654Y558546D03*
D42*
X721614Y558546D03*
D147*
X562737Y558546D03*
D142*
X614553Y558546D03*
D147*
X644271Y558546D03*
X677037Y558546D03*
X689991Y558546D03*
D152*
X536829Y559308D03*
D44*
X577596Y559308D03*
D92*
X603885Y559308D03*
D44*
X628650Y559308D03*
D158*
X660654Y559308D03*
D42*
X721614Y559308D03*
D147*
X562737Y559308D03*
D142*
X614553Y559308D03*
D147*
X644271Y559308D03*
D153*
X683514Y559308D03*
D152*
X536829Y560070D03*
D140*
X577977Y560070D03*
D88*
X604266Y560070D03*
D144*
X628269Y560070D03*
D158*
X660654Y560070D03*
D117*
X721233Y560070D03*
D147*
X562737Y560070D03*
D142*
X614553Y560070D03*
D151*
X643890Y560070D03*
D153*
X683514Y560070D03*
D152*
X536829Y560832D03*
D137*
X578358Y560832D03*
D88*
X604266Y560832D03*
D144*
X628269Y560832D03*
D160*
X661035Y560832D03*
D117*
X721233Y560832D03*
D147*
X562737Y560832D03*
D142*
X614553Y560832D03*
D139*
X643128Y560832D03*
D154*
X683895Y560832D03*
D152*
X536829Y561594D03*
D137*
X578358Y561594D03*
D55*
X604647Y561594D03*
D143*
X627507Y561594D03*
D156*
X661035Y561594D03*
D117*
X721233Y561594D03*
D147*
X562737Y561594D03*
D142*
X614553Y561594D03*
D139*
X643128Y561594D03*
D47*
X683514Y561594D03*
D152*
X536829Y562356D03*
D159*
X578739Y562356D03*
D59*
X605028Y562356D03*
D156*
X661035Y562356D03*
D40*
X720852Y562356D03*
D147*
X562737Y562356D03*
D142*
X614553Y562356D03*
D139*
X642366Y562356D03*
D156*
X683895Y562356D03*
D152*
X536829Y563118D03*
D158*
X579120Y563118D03*
D91*
X605409Y563118D03*
D47*
X661416Y563118D03*
D40*
X720852Y563118D03*
D147*
X562737Y563118D03*
D142*
X614553Y563118D03*
D144*
X641223Y563118D03*
D157*
X683514Y563118D03*
D152*
X536829Y563880D03*
D160*
X579501Y563880D03*
D70*
X605790Y563880D03*
D154*
X661035Y563880D03*
D38*
X720471Y563880D03*
D147*
X562737Y563880D03*
D95*
X629031Y563880D03*
D160*
X683133Y563880D03*
D152*
X536829Y564642D03*
D157*
X579882Y564642D03*
D70*
X605790Y564642D03*
D154*
X661035Y564642D03*
D38*
X720471Y564642D03*
D147*
X562737Y564642D03*
D155*
X628650Y564642D03*
D158*
X683514Y564642D03*
D152*
X536829Y565404D03*
D156*
X580263Y565404D03*
D65*
X606552Y565404D03*
D153*
X661416Y565404D03*
D36*
X720090Y565404D03*
D147*
X562737Y565404D03*
D155*
X628650Y565404D03*
D159*
X683895Y565404D03*
D152*
X536829Y566166D03*
D47*
X580644Y566166D03*
D65*
X606552Y566166D03*
D148*
X661416Y566166D03*
D36*
X720090Y566166D03*
D147*
X562737Y566166D03*
D155*
X628650Y566166D03*
D137*
X683514Y566166D03*
D152*
X536829Y566928D03*
D47*
X580644Y566928D03*
D75*
X606933Y566928D03*
D148*
X661416Y566928D03*
D71*
X719709Y566928D03*
D147*
X562737Y566928D03*
D152*
X628269Y566928D03*
D137*
X683514Y566928D03*
D152*
X536829Y567690D03*
D153*
X581406Y567690D03*
D63*
X607695Y567690D03*
D161*
X661035Y567690D03*
D71*
X719709Y567690D03*
D147*
X562737Y567690D03*
D54*
X627888Y567690D03*
D44*
X683514Y567690D03*
D152*
X536829Y568452D03*
D162*
X581787Y568452D03*
D63*
X607695Y568452D03*
D138*
X661035Y568452D03*
D71*
X719709Y568452D03*
D147*
X562737Y568452D03*
D54*
X627888Y568452D03*
D44*
X683514Y568452D03*
D152*
X536829Y569214D03*
D162*
X581787Y569214D03*
D67*
X608076Y569214D03*
D138*
X661035Y569214D03*
D34*
X719328Y569214D03*
D147*
X562737Y569214D03*
D163*
X627507Y569214D03*
D136*
X683514Y569214D03*
D152*
X536829Y569976D03*
D148*
X582168Y569976D03*
D67*
X608076Y569976D03*
D164*
X660654Y569976D03*
D114*
X718947Y569976D03*
D147*
X562737Y569976D03*
D149*
X626745Y569976D03*
D136*
X683514Y569976D03*
D152*
X536829Y570738D03*
D145*
X582930Y570738D03*
D67*
X608076Y570738D03*
D165*
X660654Y570738D03*
D114*
X718947Y570738D03*
D147*
X562737Y570738D03*
D149*
X626745Y570738D03*
D143*
X683895Y570738D03*
D152*
X536829Y571500D03*
D145*
X582930Y571500D03*
D67*
X608076Y571500D03*
D166*
X660654Y571500D03*
D114*
X718947Y571500D03*
D147*
X562737Y571500D03*
D167*
X626364Y571500D03*
D139*
X683514Y571500D03*
D152*
X536829Y572262D03*
D138*
X583311Y572262D03*
D67*
X608076Y572262D03*
D141*
X660273Y572262D03*
D32*
X718566Y572262D03*
D147*
X562737Y572262D03*
D168*
X625602Y572262D03*
D151*
X683514Y572262D03*
D152*
X536829Y573024D03*
D169*
X584073Y573024D03*
D67*
X608076Y573024D03*
D146*
X660273Y573024D03*
D30*
X718185Y573024D03*
D147*
X562737Y573024D03*
D166*
X624840Y573024D03*
D51*
X683514Y573024D03*
D152*
X536829Y573786D03*
D165*
X584454Y573786D03*
D67*
X608076Y573786D03*
D163*
X659511Y573786D03*
D76*
X717804Y573786D03*
D147*
X562737Y573786D03*
D50*
X624459Y573786D03*
D92*
X683133Y573786D03*
D152*
X536829Y574548D03*
D165*
X584454Y574548D03*
D67*
X608076Y574548D03*
D163*
X659511Y574548D03*
D28*
X717423Y574548D03*
D147*
X562737Y574548D03*
D164*
X623316Y574548D03*
D91*
X683895Y574548D03*
D152*
X536829Y575310D03*
D50*
X584835Y575310D03*
D67*
X608076Y575310D03*
D79*
X658749Y575310D03*
D131*
X717042Y575310D03*
D102*
X559689Y576072D03*
D97*
X645033Y576072D03*
D78*
X715899Y576072D03*
D102*
X559689Y576834D03*
D170*
X680847Y576834D03*
D80*
X560070Y577596D03*
D21*
X681228Y577596D03*
D103*
X560832Y578358D03*
D171*
X681609Y578358D03*
D68*
X561213Y579120D03*
D172*
X681990Y579120D03*
D173*
X561594Y579882D03*
D174*
X682371Y579882D03*
D104*
X561975Y580644D03*
D23*
X682752Y580644D03*
D64*
X562356Y581406D03*
D175*
X683133Y581406D03*
D60*
X562737Y582168D03*
D25*
X683514Y582168D03*
D176*
X563118Y582930D03*
D126*
X683895Y582930D03*
D52*
X563880Y583692D03*
D126*
X683895Y583692D03*
D52*
X563880Y584454D03*
D177*
X684657Y584454D03*
D106*
X564642Y585216D03*
D27*
X685038Y585216D03*
D178*
X565023Y585978D03*
D125*
X685419Y585978D03*
D108*
X565404Y586740D03*
D124*
X685800Y586740D03*
D179*
X565785Y587502D03*
D29*
X686181Y587502D03*
D135*
X566166Y588264D03*
D180*
X686562Y588264D03*
D110*
X566928Y589026D03*
D123*
X686943Y589026D03*
D134*
X567309Y589788D03*
D31*
X687324Y589788D03*
D111*
X567690Y590550D03*
D181*
X687705Y590550D03*
D112*
X568452Y591312D03*
D182*
X688467Y591312D03*
D113*
X568833Y592074D03*
D122*
X688848Y592074D03*
D183*
X569214Y592836D03*
D35*
X689229Y592836D03*
D115*
X569595Y593598D03*
D184*
X689610Y593598D03*
D116*
X570357Y594360D03*
D37*
X689991Y594360D03*
D48*
X570738Y595122D03*
D39*
X690372Y595122D03*
D45*
X571500Y595884D03*
D119*
X691134Y595884D03*
D43*
X571881Y596646D03*
D41*
X691515Y596646D03*
X572643Y597408D03*
D118*
X691896Y597408D03*
D119*
X573024Y598170D03*
D43*
X692277Y598170D03*
D121*
X573405Y598932D03*
D132*
X693039Y598932D03*
D37*
X574167Y599694D03*
D132*
X693039Y599694D03*
D184*
X574548Y600456D03*
D116*
X693801Y600456D03*
D122*
X575310Y601218D03*
D133*
X694182Y601218D03*
D182*
X575691Y601980D03*
D115*
X694563Y601980D03*
D33*
X576072Y602742D03*
D113*
X695325Y602742D03*
D31*
X576834Y603504D03*
D112*
X695706Y603504D03*
D180*
X577596Y604266D03*
D111*
X696468Y604266D03*
D29*
X577977Y605028D03*
D134*
X696849Y605028D03*
D124*
X578358Y605790D03*
D110*
X697230Y605790D03*
D27*
X579120Y606552D03*
D135*
X697992Y606552D03*
D185*
X579882Y607314D03*
D135*
X697992Y607314D03*
D126*
X580263Y608076D03*
D108*
X698754Y608076D03*
D175*
X581025Y608838D03*
D106*
X699516Y608838D03*
D174*
X581787Y609600D03*
D52*
X700278Y609600D03*
D171*
X582549Y610362D03*
D52*
X700278Y610362D03*
D21*
X582930Y611124D03*
D176*
X701040Y611124D03*
D186*
X584073Y611886D03*
D64*
X701802Y611886D03*
D187*
X584454Y612648D03*
D64*
X701802Y612648D03*
D19*
X584835Y613410D03*
D173*
X702564Y613410D03*
D188*
X585978Y614172D03*
D103*
X703326Y614172D03*
D189*
X586740Y614934D03*
D72*
X703707Y614934D03*
D190*
X587121Y615696D03*
D102*
X704469Y615696D03*
D191*
X587883Y616458D03*
D100*
X705231Y616458D03*
D192*
X588645Y617220D03*
D82*
X705612Y617220D03*
D193*
X589407Y617982D03*
D84*
X705993Y617982D03*
D194*
X589788Y618744D03*
D86*
X706755Y618744D03*
D195*
X590931Y619506D03*
D196*
X707517Y619506D03*
D197*
X591693Y620268D03*
D90*
X707898Y620268D03*
D198*
X592074Y621030D03*
D199*
X708660Y621030D03*
D200*
X593217Y621792D03*
D99*
X709422Y621792D03*
D201*
X593979Y622554D03*
D101*
X710184Y622554D03*
D202*
X594741Y623316D03*
D203*
X710565Y623316D03*
D204*
X595122Y624078D03*
D16*
X711327Y624078D03*
D205*
X596265Y624840D03*
D18*
X712089Y624840D03*
D206*
X597027Y625602D03*
D89*
X712470Y625602D03*
D207*
X597789Y626364D03*
D208*
X713232Y626364D03*
D209*
X598551Y627126D03*
D20*
X713613Y627126D03*
D15*
X632079Y627888D03*
X632079Y628650D03*
X632079Y629412D03*
X632079Y630174D03*
X632079Y630936D03*
X632079Y631698D03*
X632079Y632460D03*
X632079Y633222D03*
X632079Y633984D03*
X632079Y634746D03*
X632079Y635508D03*
X632079Y636270D03*
X632079Y637032D03*
X632079Y637794D03*
X632079Y638556D03*
X632079Y639318D03*
X632079Y640080D03*
X632079Y640842D03*
X632079Y641604D03*
X632079Y642366D03*
X632079Y643128D03*
X632079Y643890D03*
X632079Y644652D03*
X632079Y645414D03*
X632079Y646176D03*
X632079Y646938D03*
X632079Y647700D03*
X632079Y648462D03*
X632079Y649224D03*
X632079Y649986D03*
X632079Y650748D03*
X632079Y651510D03*
X632079Y652272D03*
X632079Y653034D03*
X632079Y653796D03*
D210*
X299847Y751039D02*
X294932Y751039D01*
X292475Y753497D01*
X294932Y755954D01*
X299847Y755954D01*
X296161Y755954D02*
X296161Y751039D01*
X298618Y758524D02*
X292475Y758524D01*
X298618Y758524D02*
X299847Y759752D01*
X299847Y762210D01*
X298618Y763438D01*
X292475Y763438D01*
X292475Y766008D02*
X299847Y770923D01*
X299847Y766008D02*
X292475Y770923D01*
X301076Y773492D02*
X301076Y778407D01*
X299847Y780976D02*
X292475Y780976D01*
X292475Y784662D01*
X293703Y785891D01*
X296161Y785891D01*
X297390Y784662D01*
X297390Y780976D01*
X299847Y788460D02*
X292475Y788460D01*
X297390Y790918D02*
X299847Y788460D01*
X297390Y790918D02*
X299847Y793375D01*
X292475Y793375D01*
X301076Y795944D02*
X301076Y800859D01*
X292475Y804657D02*
X292475Y807115D01*
X292475Y804657D02*
X293703Y803429D01*
X298618Y803429D01*
X299847Y804657D01*
X299847Y807115D01*
X298618Y808343D01*
X293703Y808343D01*
X292475Y807115D01*
X292475Y810913D02*
X298618Y810913D01*
X299847Y812141D01*
X299847Y814599D01*
X298618Y815828D01*
X292475Y815828D01*
X292475Y820854D02*
X299847Y820854D01*
X292475Y818397D02*
X292475Y823312D01*
X319907Y806707D02*
X321135Y807936D01*
X319907Y806707D02*
X319907Y804250D01*
X321135Y803021D01*
X326050Y803021D01*
X327279Y804250D01*
X327279Y806707D01*
X326050Y807936D01*
X323593Y807936D01*
X323593Y805478D01*
X327279Y810505D02*
X319907Y810505D01*
X327279Y815420D01*
X319907Y815420D01*
X319907Y817989D02*
X327279Y817989D01*
X327279Y821675D01*
X326050Y822904D01*
X321135Y822904D01*
X319907Y821675D01*
X319907Y817989D01*
X87887Y271913D02*
X89116Y270685D01*
X87887Y271913D02*
X85430Y271913D01*
X84201Y270685D01*
X84201Y265770D01*
X85430Y264541D01*
X87887Y264541D01*
X89116Y265770D01*
X89116Y268227D01*
X86658Y268227D01*
X91685Y264541D02*
X91685Y271913D01*
X96600Y264541D01*
X96600Y271913D01*
X99169Y271913D02*
X99169Y264541D01*
X102855Y264541D01*
X104084Y265770D01*
X104084Y270685D01*
X102855Y271913D01*
X99169Y271913D01*
X84201Y246513D02*
X84201Y239141D01*
X84201Y246513D02*
X87887Y246513D01*
X89116Y245285D01*
X89116Y242827D01*
X87887Y241598D01*
X84201Y241598D01*
X86658Y241598D02*
X89116Y239141D01*
X96600Y239141D02*
X91685Y246513D01*
X96600Y246513D02*
X91685Y239141D01*
X99169Y244056D02*
X101627Y246513D01*
X101627Y239141D01*
X104084Y239141D02*
X99169Y239141D01*
X86658Y221113D02*
X86658Y213741D01*
X84201Y221113D02*
X89116Y221113D01*
X91685Y221113D02*
X96600Y213741D01*
X91685Y213741D02*
X96600Y221113D01*
X99169Y218656D02*
X101627Y221113D01*
X101627Y213741D01*
X104084Y213741D02*
X99169Y213741D01*
X821947Y274453D02*
X823176Y273225D01*
X821947Y274453D02*
X819490Y274453D01*
X818261Y273225D01*
X818261Y268310D01*
X819490Y267081D01*
X821947Y267081D01*
X823176Y268310D01*
X823176Y270767D01*
X820718Y270767D01*
X825745Y267081D02*
X825745Y274453D01*
X830660Y267081D01*
X830660Y274453D01*
X833229Y274453D02*
X833229Y267081D01*
X836915Y267081D01*
X838144Y268310D01*
X838144Y273225D01*
X836915Y274453D01*
X833229Y274453D01*
X818261Y249053D02*
X818261Y241681D01*
X818261Y249053D02*
X821947Y249053D01*
X823176Y247825D01*
X823176Y245367D01*
X821947Y244138D01*
X818261Y244138D01*
X820718Y244138D02*
X823176Y241681D01*
X830660Y241681D02*
X825745Y249053D01*
X830660Y249053D02*
X825745Y241681D01*
X833229Y241681D02*
X838144Y241681D01*
X833229Y241681D02*
X838144Y246596D01*
X838144Y247825D01*
X836915Y249053D01*
X834458Y249053D01*
X833229Y247825D01*
X820718Y226193D02*
X820718Y218821D01*
X818261Y226193D02*
X823176Y226193D01*
X825745Y226193D02*
X830660Y218821D01*
X825745Y218821D02*
X830660Y226193D01*
X833229Y218821D02*
X838144Y218821D01*
X833229Y218821D02*
X838144Y223736D01*
X838144Y224965D01*
X836915Y226193D01*
X834458Y226193D01*
X833229Y224965D01*
X815207Y311407D02*
X816435Y312636D01*
X815207Y311407D02*
X815207Y308950D01*
X816435Y307721D01*
X821350Y307721D01*
X822579Y308950D01*
X822579Y311407D01*
X821350Y312636D01*
X818893Y312636D01*
X818893Y310178D01*
X822579Y315205D02*
X815207Y315205D01*
X822579Y320120D01*
X815207Y320120D01*
X815207Y322689D02*
X822579Y322689D01*
X822579Y326375D01*
X821350Y327604D01*
X816435Y327604D01*
X815207Y326375D01*
X815207Y322689D01*
X751459Y307721D02*
X744087Y307721D01*
X751459Y307721D02*
X751459Y312636D01*
X751459Y315205D02*
X751459Y317663D01*
X751459Y316434D02*
X744087Y316434D01*
X744087Y315205D02*
X744087Y317663D01*
X744087Y320195D02*
X751459Y320195D01*
X744087Y320195D02*
X744087Y323881D01*
X745315Y325109D01*
X747773Y325109D01*
X749002Y323881D01*
X749002Y320195D01*
X744087Y328907D02*
X744087Y331365D01*
X744087Y328907D02*
X745315Y327679D01*
X750230Y327679D01*
X751459Y328907D01*
X751459Y331365D01*
X750230Y332594D01*
X745315Y332594D01*
X744087Y331365D01*
X747773Y335163D02*
X747773Y340078D01*
X750230Y337620D02*
X745315Y337620D01*
X817747Y379987D02*
X818975Y381216D01*
X817747Y379987D02*
X817747Y377530D01*
X818975Y376301D01*
X823890Y376301D01*
X825119Y377530D01*
X825119Y379987D01*
X823890Y381216D01*
X821433Y381216D01*
X821433Y378758D01*
X825119Y383785D02*
X817747Y383785D01*
X825119Y388700D01*
X817747Y388700D01*
X817747Y391269D02*
X825119Y391269D01*
X825119Y394955D01*
X823890Y396184D01*
X818975Y396184D01*
X817747Y394955D01*
X817747Y391269D01*
X753999Y377530D02*
X752770Y376301D01*
X753999Y377530D02*
X753999Y379987D01*
X752770Y381216D01*
X747855Y381216D01*
X746627Y379987D01*
X746627Y377530D01*
X747855Y376301D01*
X749084Y376301D01*
X750313Y377530D01*
X750313Y381216D01*
X751542Y383785D02*
X746627Y383785D01*
X751542Y383785D02*
X753999Y386243D01*
X751542Y388700D01*
X746627Y388700D01*
X750313Y391269D02*
X750313Y396184D01*
X752770Y393727D02*
X747855Y393727D01*
X45936Y588185D02*
X44707Y589413D01*
X42250Y589413D01*
X41021Y588185D01*
X41021Y586956D01*
X42250Y585727D01*
X44707Y585727D01*
X45936Y584498D01*
X45936Y583270D01*
X44707Y582041D01*
X42250Y582041D01*
X41021Y583270D01*
X48505Y589413D02*
X53420Y589413D01*
X48505Y589413D02*
X48505Y582041D01*
X53420Y582041D01*
X50963Y585727D02*
X48505Y585727D01*
X55989Y582041D02*
X55989Y589413D01*
X59675Y589413D01*
X60904Y588185D01*
X60904Y585727D01*
X59675Y584498D01*
X55989Y584498D01*
X63473Y582041D02*
X63473Y586956D01*
X65931Y589413D01*
X68388Y586956D01*
X68388Y582041D01*
X68388Y585727D02*
X63473Y585727D01*
X70958Y582041D02*
X70958Y589413D01*
X74644Y589413D01*
X75872Y588185D01*
X75872Y585727D01*
X74644Y584498D01*
X70958Y584498D01*
X73415Y584498D02*
X75872Y582041D01*
X78442Y582041D02*
X78442Y586956D01*
X80899Y589413D01*
X83357Y586956D01*
X83357Y582041D01*
X83357Y585727D02*
X78442Y585727D01*
X88383Y582041D02*
X88383Y589413D01*
X85926Y589413D02*
X90841Y589413D01*
X94639Y589413D02*
X97096Y589413D01*
X94639Y589413D02*
X93410Y588185D01*
X93410Y583270D01*
X94639Y582041D01*
X97096Y582041D01*
X98325Y583270D01*
X98325Y588185D01*
X97096Y589413D01*
X100894Y589413D02*
X100894Y582041D01*
X100894Y589413D02*
X104580Y589413D01*
X105809Y588185D01*
X105809Y585727D01*
X104580Y584498D01*
X100894Y584498D01*
X103352Y584498D02*
X105809Y582041D01*
X89116Y649145D02*
X87887Y650373D01*
X85430Y650373D01*
X84201Y649145D01*
X84201Y644230D01*
X85430Y643001D01*
X87887Y643001D01*
X89116Y644230D01*
X89116Y646687D01*
X86658Y646687D01*
X91685Y643001D02*
X91685Y650373D01*
X96600Y643001D01*
X96600Y650373D01*
X99169Y650373D02*
X99169Y643001D01*
X102855Y643001D01*
X104084Y644230D01*
X104084Y649145D01*
X102855Y650373D01*
X99169Y650373D01*
X46101Y625056D02*
X46101Y620141D01*
X46101Y625056D02*
X48558Y627513D01*
X51016Y625056D01*
X51016Y620141D01*
X51016Y623827D02*
X46101Y623827D01*
X53585Y627513D02*
X53585Y620141D01*
X58500Y620141D01*
X63527Y620141D02*
X63527Y627513D01*
X65984Y627513D02*
X61069Y627513D01*
X68553Y620141D02*
X71011Y620141D01*
X69782Y620141D02*
X69782Y627513D01*
X68553Y627513D02*
X71011Y627513D01*
X73543Y627513D02*
X73543Y620141D01*
X76000Y625056D02*
X73543Y627513D01*
X76000Y625056D02*
X78458Y627513D01*
X78458Y620141D01*
X81027Y625056D02*
X83484Y627513D01*
X83484Y620141D01*
X81027Y620141D02*
X85942Y620141D01*
X88511Y618912D02*
X93426Y618912D01*
X100910Y626285D02*
X99682Y627513D01*
X97224Y627513D01*
X95995Y626285D01*
X95995Y625056D01*
X97224Y623827D01*
X99682Y623827D01*
X100910Y622598D01*
X100910Y621370D01*
X99682Y620141D01*
X97224Y620141D01*
X95995Y621370D01*
X103480Y620141D02*
X103480Y627513D01*
X105937Y622598D02*
X103480Y620141D01*
X105937Y622598D02*
X108394Y620141D01*
X108394Y627513D01*
X683641Y178016D02*
X683641Y173101D01*
X683641Y178016D02*
X686098Y180473D01*
X688556Y178016D01*
X688556Y173101D01*
X688556Y176787D02*
X683641Y176787D01*
X691125Y180473D02*
X691125Y173101D01*
X696040Y173101D01*
X701067Y173101D02*
X701067Y180473D01*
X703524Y180473D02*
X698609Y180473D01*
X706093Y173101D02*
X708551Y173101D01*
X707322Y173101D02*
X707322Y180473D01*
X706093Y180473D02*
X708551Y180473D01*
X711083Y180473D02*
X711083Y173101D01*
X713540Y178016D02*
X711083Y180473D01*
X713540Y178016D02*
X715998Y180473D01*
X715998Y173101D01*
X718567Y173101D02*
X723482Y173101D01*
X718567Y173101D02*
X723482Y178016D01*
X723482Y179245D01*
X722253Y180473D01*
X719796Y180473D01*
X718567Y179245D01*
X726051Y171872D02*
X730966Y171872D01*
X738450Y179245D02*
X737222Y180473D01*
X734764Y180473D01*
X733535Y179245D01*
X733535Y178016D01*
X734764Y176787D01*
X737222Y176787D01*
X738450Y175558D01*
X738450Y174330D01*
X737222Y173101D01*
X734764Y173101D01*
X733535Y174330D01*
X741020Y173101D02*
X741020Y180473D01*
X743477Y175558D02*
X741020Y173101D01*
X743477Y175558D02*
X745934Y173101D01*
X745934Y180473D01*
X726656Y197025D02*
X725427Y198253D01*
X722970Y198253D01*
X721741Y197025D01*
X721741Y192110D01*
X722970Y190881D01*
X725427Y190881D01*
X726656Y192110D01*
X726656Y194567D01*
X724198Y194567D01*
X729225Y190881D02*
X729225Y198253D01*
X734140Y190881D01*
X734140Y198253D01*
X736709Y198253D02*
X736709Y190881D01*
X740395Y190881D01*
X741624Y192110D01*
X741624Y197025D01*
X740395Y198253D01*
X736709Y198253D01*
X614299Y101981D02*
X609384Y101981D01*
X606927Y104438D01*
X609384Y106896D01*
X614299Y106896D01*
X610613Y106896D02*
X610613Y101981D01*
X613070Y109465D02*
X606927Y109465D01*
X613070Y109465D02*
X614299Y110694D01*
X614299Y113151D01*
X613070Y114380D01*
X606927Y114380D01*
X606927Y116949D02*
X614299Y121864D01*
X614299Y116949D02*
X606927Y121864D01*
X615528Y124433D02*
X615528Y129348D01*
X614299Y131918D02*
X606927Y131918D01*
X606927Y135604D01*
X608155Y136832D01*
X610613Y136832D01*
X611842Y135604D01*
X611842Y131918D01*
X614299Y139402D02*
X606927Y139402D01*
X611842Y141859D02*
X614299Y139402D01*
X611842Y141859D02*
X614299Y144317D01*
X606927Y144317D01*
X615528Y146886D02*
X615528Y151801D01*
X606927Y155599D02*
X606927Y158056D01*
X606927Y155599D02*
X608155Y154370D01*
X613070Y154370D01*
X614299Y155599D01*
X614299Y158056D01*
X613070Y159285D01*
X608155Y159285D01*
X606927Y158056D01*
X606927Y161854D02*
X613070Y161854D01*
X614299Y163083D01*
X614299Y165540D01*
X613070Y166769D01*
X606927Y166769D01*
X606927Y171796D02*
X614299Y171796D01*
X606927Y169338D02*
X606927Y174253D01*
X636095Y106896D02*
X634867Y105667D01*
X634867Y103210D01*
X636095Y101981D01*
X641010Y101981D01*
X642239Y103210D01*
X642239Y105667D01*
X641010Y106896D01*
X638553Y106896D01*
X638553Y104438D01*
X642239Y109465D02*
X634867Y109465D01*
X642239Y114380D01*
X634867Y114380D01*
X634867Y116949D02*
X642239Y116949D01*
X642239Y120635D01*
X641010Y121864D01*
X636095Y121864D01*
X634867Y120635D01*
X634867Y116949D01*
D211*
X768858Y411988D02*
X781558Y411988D01*
X787908Y405638D01*
X787908Y392938D02*
X781558Y386588D01*
X787908Y405638D02*
X794258Y411988D01*
X806958Y411988D01*
X813308Y405638D01*
X813308Y392938D02*
X806958Y386588D01*
X794258Y386588D01*
X787908Y392938D01*
X762508Y392938D02*
X762508Y405638D01*
X768858Y411988D01*
X762508Y392938D02*
X768858Y386588D01*
X781558Y386588D01*
X813308Y392938D02*
X813308Y405638D01*
D12*
X763948Y413893D02*
X763143Y414698D01*
X763948Y413893D02*
X765558Y413893D01*
X766363Y414698D01*
X766363Y417918D01*
X765558Y418723D01*
X763948Y418723D01*
X763143Y417918D01*
X763143Y417113D01*
X763948Y416308D01*
X766363Y416308D01*
X768756Y415503D02*
X768756Y418723D01*
X768756Y415503D02*
X770366Y413893D01*
X771976Y415503D01*
X771976Y418723D01*
X774369Y413088D02*
X777589Y413088D01*
X779982Y413893D02*
X779982Y418723D01*
X782397Y418723D01*
X783202Y417918D01*
X783202Y417113D01*
X782397Y416308D01*
X783202Y415503D01*
X783202Y414698D01*
X782397Y413893D01*
X779982Y413893D01*
X779982Y416308D02*
X782397Y416308D01*
X785595Y417113D02*
X785595Y413893D01*
X785595Y417113D02*
X787205Y418723D01*
X788815Y417113D01*
X788815Y413893D01*
X788815Y416308D02*
X785595Y416308D01*
X792819Y413893D02*
X792819Y418723D01*
X794429Y418723D02*
X791208Y418723D01*
X798432Y418723D02*
X798432Y413893D01*
X796822Y418723D02*
X800042Y418723D01*
X802435Y413088D02*
X805655Y413088D01*
X808048Y413893D02*
X809658Y413893D01*
X808853Y413893D02*
X808853Y418723D01*
X808048Y418723D02*
X809658Y418723D01*
X811790Y418723D02*
X811790Y413893D01*
X815010Y413893D02*
X811790Y418723D01*
X815010Y418723D02*
X815010Y413893D01*
X817403Y413893D02*
X817403Y418723D01*
X819818Y418723D01*
X820623Y417918D01*
X820623Y416308D01*
X819818Y415503D01*
X817403Y415503D01*
D10*
X785368Y399288D02*
X765048Y399288D01*
X775208Y389128D02*
X775208Y409448D01*
D211*
X777494Y317500D02*
X764794Y317500D01*
X777494Y317500D02*
X783844Y311150D01*
X783844Y298450D02*
X777494Y292100D01*
X783844Y311150D02*
X790194Y317500D01*
X802894Y317500D01*
X809244Y311150D01*
X809244Y298450D02*
X802894Y292100D01*
X790194Y292100D01*
X783844Y298450D01*
X758444Y298450D02*
X758444Y311150D01*
X764794Y317500D01*
X758444Y298450D02*
X764794Y292100D01*
X777494Y292100D01*
X809244Y298450D02*
X809244Y311150D01*
D12*
X759079Y319405D02*
X759079Y324235D01*
X759079Y319405D02*
X762299Y319405D01*
X764692Y319405D02*
X766302Y319405D01*
X765497Y319405D02*
X765497Y324235D01*
X764692Y324235D02*
X766302Y324235D01*
X768434Y324235D02*
X768434Y319405D01*
X768434Y324235D02*
X770849Y324235D01*
X771654Y323430D01*
X771654Y321820D01*
X770849Y321015D01*
X768434Y321015D01*
X774852Y324235D02*
X776462Y324235D01*
X774852Y324235D02*
X774047Y323430D01*
X774047Y320210D01*
X774852Y319405D01*
X776462Y319405D01*
X777267Y320210D01*
X777267Y323430D01*
X776462Y324235D01*
X779660Y318600D02*
X782880Y318600D01*
X785273Y319405D02*
X786883Y319405D01*
X786078Y319405D02*
X786078Y324235D01*
X785273Y324235D02*
X786883Y324235D01*
X789016Y324235D02*
X789016Y319405D01*
X792236Y319405D02*
X789016Y324235D01*
X792236Y324235D02*
X792236Y319405D01*
X794629Y319405D02*
X794629Y324235D01*
X797044Y324235D01*
X797849Y323430D01*
X797849Y321820D01*
X797044Y321015D01*
X794629Y321015D01*
D10*
X781304Y304800D02*
X760984Y304800D01*
X771144Y294640D02*
X771144Y314960D01*
D211*
X138303Y591566D02*
X131953Y597916D01*
X119253Y597916D01*
X112903Y591566D01*
X112903Y578866D01*
X119253Y572516D01*
X131953Y572516D01*
X138303Y578866D01*
X138303Y591566D01*
D12*
X116758Y603846D02*
X115953Y604651D01*
X114343Y604651D01*
X113538Y603846D01*
X113538Y603041D01*
X114343Y602236D01*
X115953Y602236D01*
X116758Y601431D01*
X116758Y600626D01*
X115953Y599821D01*
X114343Y599821D01*
X113538Y600626D01*
X119151Y604651D02*
X122371Y604651D01*
X119151Y604651D02*
X119151Y599821D01*
X122371Y599821D01*
X120761Y602236D02*
X119151Y602236D01*
X124764Y599821D02*
X124764Y604651D01*
X127179Y604651D01*
X127984Y603846D01*
X127984Y602236D01*
X127179Y601431D01*
X124764Y601431D01*
X130377Y599821D02*
X130377Y603041D01*
X131987Y604651D01*
X133597Y603041D01*
X133597Y599821D01*
X133597Y602236D02*
X130377Y602236D01*
X135990Y599821D02*
X135990Y604651D01*
X138405Y604651D01*
X139210Y603846D01*
X139210Y602236D01*
X138405Y601431D01*
X135990Y601431D01*
X137600Y601431D02*
X139210Y599821D01*
X141603Y599821D02*
X141603Y603041D01*
X143214Y604651D01*
X144824Y603041D01*
X144824Y599821D01*
X144824Y602236D02*
X141603Y602236D01*
X148827Y599821D02*
X148827Y604651D01*
X147217Y604651D02*
X150437Y604651D01*
X153635Y604651D02*
X155245Y604651D01*
X153635Y604651D02*
X152830Y603846D01*
X152830Y600626D01*
X153635Y599821D01*
X155245Y599821D01*
X156050Y600626D01*
X156050Y603846D01*
X155245Y604651D01*
X158443Y604651D02*
X158443Y599821D01*
X158443Y604651D02*
X160858Y604651D01*
X161663Y603846D01*
X161663Y602236D01*
X160858Y601431D01*
X158443Y601431D01*
X160053Y601431D02*
X161663Y599821D01*
X164056Y599016D02*
X167276Y599016D01*
X169669Y599821D02*
X169669Y604651D01*
X172084Y604651D01*
X172889Y603846D01*
X172889Y602236D01*
X172084Y601431D01*
X169669Y601431D01*
X175282Y599821D02*
X176892Y599821D01*
X176087Y599821D02*
X176087Y604651D01*
X175282Y604651D02*
X176892Y604651D01*
X179024Y604651D02*
X179024Y599821D01*
X182244Y599821D02*
X179024Y604651D01*
X182244Y604651D02*
X182244Y599821D01*
D10*
X135763Y585216D02*
X115443Y585216D01*
X125603Y575056D02*
X125603Y595376D01*
D211*
X803656Y230632D02*
X810006Y224282D01*
X810006Y211582D01*
X803656Y205232D01*
X790956Y205232D02*
X784606Y211582D01*
X784606Y224282D01*
X790956Y230632D01*
X810006Y262382D02*
X810006Y275082D01*
X810006Y262382D02*
X803656Y256032D01*
X790956Y256032D02*
X784606Y262382D01*
X803656Y256032D02*
X810006Y249682D01*
X810006Y236982D01*
X803656Y230632D01*
X790956Y230632D02*
X784606Y236982D01*
X784606Y249682D01*
X790956Y256032D01*
X790956Y281432D02*
X803656Y281432D01*
X810006Y275082D01*
X790956Y281432D02*
X784606Y275082D01*
X784606Y262382D01*
X790956Y205232D02*
X803656Y205232D01*
D12*
X813517Y222194D02*
X816737Y222194D01*
X813517Y222194D02*
X811907Y223804D01*
X813517Y225414D01*
X816737Y225414D01*
X814322Y225414D02*
X814322Y222194D01*
X811907Y227807D02*
X816737Y227807D01*
X816737Y231027D01*
X816737Y235030D02*
X811907Y235030D01*
X811907Y233420D02*
X811907Y236640D01*
X816737Y239033D02*
X816737Y240643D01*
X816737Y239838D02*
X811907Y239838D01*
X811907Y239033D02*
X811907Y240643D01*
X811907Y242775D02*
X816737Y242775D01*
X813517Y244385D02*
X811907Y242775D01*
X813517Y244385D02*
X811907Y245995D01*
X816737Y245995D01*
X811907Y248388D02*
X811907Y251608D01*
X811907Y248388D02*
X816737Y248388D01*
X816737Y251608D01*
X814322Y249998D02*
X814322Y248388D01*
X816737Y255611D02*
X811907Y255611D01*
X811907Y254001D02*
X811907Y257221D01*
X811907Y259614D02*
X811907Y262834D01*
X811907Y259614D02*
X816737Y259614D01*
X816737Y262834D01*
X814322Y261224D02*
X814322Y259614D01*
X816737Y265227D02*
X811907Y265227D01*
X811907Y267643D01*
X812712Y268448D01*
X814322Y268448D01*
X815127Y267643D01*
X815127Y265227D01*
X815127Y266838D02*
X816737Y268448D01*
X817542Y270841D02*
X817542Y274061D01*
X816737Y276454D02*
X816737Y279674D01*
X816737Y276454D02*
X813517Y279674D01*
X812712Y279674D01*
X811907Y278869D01*
X811907Y277259D01*
X812712Y276454D01*
D10*
X807466Y268732D02*
X787146Y268732D01*
X797306Y258572D02*
X797306Y278892D01*
D211*
X138684Y224028D02*
X132334Y230378D01*
X138684Y224028D02*
X138684Y211328D01*
X132334Y204978D01*
X119634Y204978D02*
X113284Y211328D01*
X113284Y224028D01*
X119634Y230378D01*
X138684Y262128D02*
X138684Y274828D01*
X138684Y262128D02*
X132334Y255778D01*
X119634Y255778D02*
X113284Y262128D01*
X132334Y255778D02*
X138684Y249428D01*
X138684Y236728D01*
X132334Y230378D01*
X119634Y230378D02*
X113284Y236728D01*
X113284Y249428D01*
X119634Y255778D01*
X119634Y281178D02*
X132334Y281178D01*
X138684Y274828D01*
X119634Y281178D02*
X113284Y274828D01*
X113284Y262128D01*
X119634Y204978D02*
X132334Y204978D01*
D12*
X142195Y221940D02*
X145415Y221940D01*
X142195Y221940D02*
X140585Y223550D01*
X142195Y225160D01*
X145415Y225160D01*
X143000Y225160D02*
X143000Y221940D01*
X140585Y227553D02*
X145415Y227553D01*
X145415Y230773D01*
X145415Y234776D02*
X140585Y234776D01*
X140585Y233166D02*
X140585Y236386D01*
X145415Y238779D02*
X145415Y240389D01*
X145415Y239584D02*
X140585Y239584D01*
X140585Y238779D02*
X140585Y240389D01*
X140585Y242521D02*
X145415Y242521D01*
X142195Y244131D02*
X140585Y242521D01*
X142195Y244131D02*
X140585Y245741D01*
X145415Y245741D01*
X140585Y248134D02*
X140585Y251354D01*
X140585Y248134D02*
X145415Y248134D01*
X145415Y251354D01*
X143000Y249744D02*
X143000Y248134D01*
X145415Y255357D02*
X140585Y255357D01*
X140585Y253747D02*
X140585Y256967D01*
X140585Y259360D02*
X140585Y262580D01*
X140585Y259360D02*
X145415Y259360D01*
X145415Y262580D01*
X143000Y260970D02*
X143000Y259360D01*
X145415Y264973D02*
X140585Y264973D01*
X140585Y267389D01*
X141390Y268194D01*
X143000Y268194D01*
X143805Y267389D01*
X143805Y264973D01*
X143805Y266584D02*
X145415Y268194D01*
X146220Y270587D02*
X146220Y273807D01*
X142195Y276200D02*
X140585Y277810D01*
X145415Y277810D01*
X145415Y276200D02*
X145415Y279420D01*
D10*
X136144Y268478D02*
X115824Y268478D01*
X125984Y258318D02*
X125984Y278638D01*
D211*
X764794Y345186D02*
X777494Y345186D01*
X783844Y338836D01*
X783844Y326136D02*
X777494Y319786D01*
X783844Y338836D02*
X790194Y345186D01*
X802894Y345186D01*
X809244Y338836D01*
X809244Y326136D02*
X802894Y319786D01*
X790194Y319786D01*
X783844Y326136D01*
X758444Y326136D02*
X758444Y338836D01*
X764794Y345186D01*
X758444Y326136D02*
X764794Y319786D01*
X777494Y319786D01*
X809244Y326136D02*
X809244Y338836D01*
D12*
X759079Y347091D02*
X759079Y351921D01*
X759079Y347091D02*
X762299Y347091D01*
X764692Y347091D02*
X766302Y347091D01*
X765497Y347091D02*
X765497Y351921D01*
X764692Y351921D02*
X766302Y351921D01*
X768434Y351921D02*
X768434Y347091D01*
X768434Y351921D02*
X770849Y351921D01*
X771654Y351116D01*
X771654Y349506D01*
X770849Y348701D01*
X768434Y348701D01*
X774852Y351921D02*
X776462Y351921D01*
X774852Y351921D02*
X774047Y351116D01*
X774047Y347896D01*
X774852Y347091D01*
X776462Y347091D01*
X777267Y347896D01*
X777267Y351116D01*
X776462Y351921D01*
X779660Y346286D02*
X782880Y346286D01*
X786078Y351921D02*
X787689Y351921D01*
X786078Y351921D02*
X785273Y351116D01*
X785273Y347896D01*
X786078Y347091D01*
X787689Y347091D01*
X788494Y347896D01*
X788494Y351116D01*
X787689Y351921D01*
X790887Y351921D02*
X790887Y347896D01*
X791692Y347091D01*
X793302Y347091D01*
X794107Y347896D01*
X794107Y351921D01*
X798110Y351921D02*
X798110Y347091D01*
X796500Y351921D02*
X799720Y351921D01*
D10*
X781304Y332486D02*
X760984Y332486D01*
X771144Y322326D02*
X771144Y342646D01*
D211*
X768604Y384556D02*
X781304Y384556D01*
X787654Y378206D01*
X787654Y365506D02*
X781304Y359156D01*
X787654Y378206D02*
X794004Y384556D01*
X806704Y384556D01*
X813054Y378206D01*
X813054Y365506D02*
X806704Y359156D01*
X794004Y359156D01*
X787654Y365506D01*
X762254Y365506D02*
X762254Y378206D01*
X768604Y384556D01*
X762254Y365506D02*
X768604Y359156D01*
X781304Y359156D01*
X813054Y365506D02*
X813054Y378206D01*
D12*
X763694Y386461D02*
X762889Y387266D01*
X763694Y386461D02*
X765304Y386461D01*
X766109Y387266D01*
X766109Y390486D01*
X765304Y391291D01*
X763694Y391291D01*
X762889Y390486D01*
X762889Y389681D01*
X763694Y388876D01*
X766109Y388876D01*
X768502Y388071D02*
X768502Y391291D01*
X768502Y388071D02*
X770112Y386461D01*
X771722Y388071D01*
X771722Y391291D01*
X774115Y385656D02*
X777335Y385656D01*
X779728Y386461D02*
X779728Y391291D01*
X782143Y391291D01*
X782948Y390486D01*
X782948Y389681D01*
X782143Y388876D01*
X782948Y388071D01*
X782948Y387266D01*
X782143Y386461D01*
X779728Y386461D01*
X779728Y388876D02*
X782143Y388876D01*
X785341Y389681D02*
X785341Y386461D01*
X785341Y389681D02*
X786951Y391291D01*
X788561Y389681D01*
X788561Y386461D01*
X788561Y388876D02*
X785341Y388876D01*
X792565Y386461D02*
X792565Y391291D01*
X794175Y391291D02*
X790954Y391291D01*
X798178Y391291D02*
X798178Y386461D01*
X796568Y391291D02*
X799788Y391291D01*
X802181Y385656D02*
X805401Y385656D01*
X808599Y391291D02*
X810209Y391291D01*
X808599Y391291D02*
X807794Y390486D01*
X807794Y387266D01*
X808599Y386461D01*
X810209Y386461D01*
X811014Y387266D01*
X811014Y390486D01*
X810209Y391291D01*
X813407Y391291D02*
X813407Y387266D01*
X814212Y386461D01*
X815822Y386461D01*
X816627Y387266D01*
X816627Y391291D01*
X820630Y391291D02*
X820630Y386461D01*
X819020Y391291D02*
X822240Y391291D01*
D10*
X785114Y371856D02*
X764794Y371856D01*
X774954Y361696D02*
X774954Y382016D01*
D211*
X303530Y855218D02*
X290830Y855218D01*
X303530Y855218D02*
X309880Y848868D01*
X309880Y836168D02*
X303530Y829818D01*
X309880Y848868D02*
X316230Y855218D01*
X328930Y855218D01*
X335280Y848868D01*
X335280Y836168D02*
X328930Y829818D01*
X316230Y829818D01*
X309880Y836168D01*
X284480Y836168D02*
X284480Y848868D01*
X290830Y855218D01*
X284480Y836168D02*
X290830Y829818D01*
X303530Y829818D01*
X335280Y836168D02*
X335280Y848868D01*
D12*
X288335Y861148D02*
X287530Y861953D01*
X285920Y861953D01*
X285115Y861148D01*
X285115Y860343D01*
X285920Y859538D01*
X287530Y859538D01*
X288335Y858733D01*
X288335Y857928D01*
X287530Y857123D01*
X285920Y857123D01*
X285115Y857928D01*
X290728Y857123D02*
X290728Y861953D01*
X292338Y858733D02*
X290728Y857123D01*
X292338Y858733D02*
X293948Y857123D01*
X293948Y861953D01*
X296341Y856318D02*
X299561Y856318D01*
X301954Y857123D02*
X301954Y861953D01*
X303564Y860343D01*
X305174Y861953D01*
X305174Y857123D01*
X308372Y861953D02*
X309982Y861953D01*
X308372Y861953D02*
X307567Y861148D01*
X307567Y857928D01*
X308372Y857123D01*
X309982Y857123D01*
X310787Y857928D01*
X310787Y861148D01*
X309982Y861953D01*
X313180Y861953D02*
X313180Y857123D01*
X315596Y857123D01*
X316401Y857928D01*
X316401Y861148D01*
X315596Y861953D01*
X313180Y861953D01*
X318794Y861953D02*
X322014Y861953D01*
X318794Y861953D02*
X318794Y857123D01*
X322014Y857123D01*
X320404Y859538D02*
X318794Y859538D01*
X324407Y856318D02*
X327627Y856318D01*
X330020Y857123D02*
X330020Y861953D01*
X332435Y861953D01*
X333240Y861148D01*
X333240Y859538D01*
X332435Y858733D01*
X330020Y858733D01*
X335633Y857123D02*
X335633Y861953D01*
X337243Y858733D02*
X335633Y857123D01*
X337243Y858733D02*
X338853Y857123D01*
X338853Y861953D01*
X341246Y856318D02*
X344466Y856318D01*
X347664Y861953D02*
X349274Y861953D01*
X347664Y861953D02*
X346859Y861148D01*
X346859Y857928D01*
X347664Y857123D01*
X349274Y857123D01*
X350079Y857928D01*
X350079Y861148D01*
X349274Y861953D01*
X352472Y861953D02*
X352472Y857928D01*
X353277Y857123D01*
X354887Y857123D01*
X355692Y857928D01*
X355692Y861953D01*
X359695Y861953D02*
X359695Y857123D01*
X358085Y861953D02*
X361305Y861953D01*
D10*
X307340Y842518D02*
X287020Y842518D01*
X297180Y832358D02*
X297180Y852678D01*
D11*
X275590Y316230D02*
X275490Y316228D01*
X275391Y316222D01*
X275291Y316212D01*
X275193Y316199D01*
X275094Y316181D01*
X274997Y316160D01*
X274901Y316135D01*
X274805Y316106D01*
X274711Y316073D01*
X274618Y316037D01*
X274527Y315997D01*
X274437Y315953D01*
X274349Y315906D01*
X274263Y315856D01*
X274179Y315802D01*
X274097Y315745D01*
X274018Y315685D01*
X273940Y315621D01*
X273866Y315555D01*
X273794Y315486D01*
X273725Y315414D01*
X273659Y315340D01*
X273595Y315262D01*
X273535Y315183D01*
X273478Y315101D01*
X273424Y315017D01*
X273374Y314931D01*
X273327Y314843D01*
X273283Y314753D01*
X273243Y314662D01*
X273207Y314569D01*
X273174Y314475D01*
X273145Y314379D01*
X273120Y314283D01*
X273099Y314186D01*
X273081Y314087D01*
X273068Y313989D01*
X273058Y313889D01*
X273052Y313790D01*
X273050Y313690D01*
X273050Y295910D02*
X273052Y295810D01*
X273058Y295711D01*
X273068Y295611D01*
X273081Y295513D01*
X273099Y295414D01*
X273120Y295317D01*
X273145Y295221D01*
X273174Y295125D01*
X273207Y295031D01*
X273243Y294938D01*
X273283Y294847D01*
X273327Y294757D01*
X273374Y294669D01*
X273424Y294583D01*
X273478Y294499D01*
X273535Y294417D01*
X273595Y294338D01*
X273659Y294260D01*
X273725Y294186D01*
X273794Y294114D01*
X273866Y294045D01*
X273940Y293979D01*
X274018Y293915D01*
X274097Y293855D01*
X274179Y293798D01*
X274263Y293744D01*
X274349Y293694D01*
X274437Y293647D01*
X274527Y293603D01*
X274618Y293563D01*
X274711Y293527D01*
X274805Y293494D01*
X274901Y293465D01*
X274997Y293440D01*
X275094Y293419D01*
X275193Y293401D01*
X275291Y293388D01*
X275391Y293378D01*
X275490Y293372D01*
X275590Y293370D01*
X334010Y293370D02*
X334110Y293372D01*
X334209Y293378D01*
X334309Y293388D01*
X334407Y293401D01*
X334506Y293419D01*
X334603Y293440D01*
X334699Y293465D01*
X334795Y293494D01*
X334889Y293527D01*
X334982Y293563D01*
X335073Y293603D01*
X335163Y293647D01*
X335251Y293694D01*
X335337Y293744D01*
X335421Y293798D01*
X335503Y293855D01*
X335582Y293915D01*
X335660Y293979D01*
X335734Y294045D01*
X335806Y294114D01*
X335875Y294186D01*
X335941Y294260D01*
X336005Y294338D01*
X336065Y294417D01*
X336122Y294499D01*
X336176Y294583D01*
X336226Y294669D01*
X336273Y294757D01*
X336317Y294847D01*
X336357Y294938D01*
X336393Y295031D01*
X336426Y295125D01*
X336455Y295221D01*
X336480Y295317D01*
X336501Y295414D01*
X336519Y295513D01*
X336532Y295611D01*
X336542Y295711D01*
X336548Y295810D01*
X336550Y295910D01*
X336550Y313690D02*
X336548Y313790D01*
X336542Y313889D01*
X336532Y313989D01*
X336519Y314087D01*
X336501Y314186D01*
X336480Y314283D01*
X336455Y314379D01*
X336426Y314475D01*
X336393Y314569D01*
X336357Y314662D01*
X336317Y314753D01*
X336273Y314843D01*
X336226Y314931D01*
X336176Y315017D01*
X336122Y315101D01*
X336065Y315183D01*
X336005Y315262D01*
X335941Y315340D01*
X335875Y315414D01*
X335806Y315486D01*
X335734Y315555D01*
X335660Y315621D01*
X335582Y315685D01*
X335503Y315745D01*
X335421Y315802D01*
X335337Y315856D01*
X335251Y315906D01*
X335163Y315953D01*
X335073Y315997D01*
X334982Y316037D01*
X334889Y316073D01*
X334795Y316106D01*
X334699Y316135D01*
X334603Y316160D01*
X334506Y316181D01*
X334407Y316199D01*
X334309Y316212D01*
X334209Y316222D01*
X334110Y316228D01*
X334010Y316230D01*
X273050Y313690D02*
X273050Y295910D01*
X275590Y316230D02*
X279400Y316230D01*
X280670Y314960D01*
X279400Y293370D02*
X275590Y293370D01*
X279400Y293370D02*
X280670Y294640D01*
X328930Y314960D02*
X330200Y316230D01*
X328930Y314960D02*
X280670Y314960D01*
X328930Y294640D02*
X330200Y293370D01*
X328930Y294640D02*
X280670Y294640D01*
X330200Y316230D02*
X334010Y316230D01*
X334010Y293370D02*
X330200Y293370D01*
X336550Y295910D02*
X336550Y313690D01*
D14*
X345440Y304800D02*
X349250Y304800D01*
X264160Y304800D02*
X260350Y304800D01*
D12*
X273685Y319405D02*
X273685Y330845D01*
X279405Y330845D01*
X281312Y328938D01*
X281312Y325125D01*
X279405Y323218D01*
X273685Y323218D01*
X277498Y323218D02*
X281312Y319405D01*
X285379Y327032D02*
X289192Y330845D01*
X289192Y319405D01*
X285379Y319405D02*
X293005Y319405D01*
X286388Y310017D02*
X282575Y306204D01*
X286388Y310017D02*
X286388Y298577D01*
X282575Y298577D02*
X290202Y298577D01*
X294269Y300484D02*
X294269Y308110D01*
X296176Y310017D01*
X299989Y310017D01*
X301895Y308110D01*
X301895Y300484D01*
X299989Y298577D01*
X296176Y298577D01*
X294269Y300484D01*
X301895Y308110D01*
X305963Y310017D02*
X305963Y298577D01*
X305963Y302390D02*
X311683Y298577D01*
X305963Y302390D02*
X311683Y306204D01*
D212*
X340868Y304800D03*
X268732Y304800D03*
X353568Y304800D03*
X256032Y304800D03*
D10*
X294640Y304800D02*
X314960Y304800D01*
X304800Y294640D02*
X304800Y314960D01*
D11*
X275590Y341630D02*
X275490Y341628D01*
X275391Y341622D01*
X275291Y341612D01*
X275193Y341599D01*
X275094Y341581D01*
X274997Y341560D01*
X274901Y341535D01*
X274805Y341506D01*
X274711Y341473D01*
X274618Y341437D01*
X274527Y341397D01*
X274437Y341353D01*
X274349Y341306D01*
X274263Y341256D01*
X274179Y341202D01*
X274097Y341145D01*
X274018Y341085D01*
X273940Y341021D01*
X273866Y340955D01*
X273794Y340886D01*
X273725Y340814D01*
X273659Y340740D01*
X273595Y340662D01*
X273535Y340583D01*
X273478Y340501D01*
X273424Y340417D01*
X273374Y340331D01*
X273327Y340243D01*
X273283Y340153D01*
X273243Y340062D01*
X273207Y339969D01*
X273174Y339875D01*
X273145Y339779D01*
X273120Y339683D01*
X273099Y339586D01*
X273081Y339487D01*
X273068Y339389D01*
X273058Y339289D01*
X273052Y339190D01*
X273050Y339090D01*
X273050Y321310D02*
X273052Y321210D01*
X273058Y321111D01*
X273068Y321011D01*
X273081Y320913D01*
X273099Y320814D01*
X273120Y320717D01*
X273145Y320621D01*
X273174Y320525D01*
X273207Y320431D01*
X273243Y320338D01*
X273283Y320247D01*
X273327Y320157D01*
X273374Y320069D01*
X273424Y319983D01*
X273478Y319899D01*
X273535Y319817D01*
X273595Y319738D01*
X273659Y319660D01*
X273725Y319586D01*
X273794Y319514D01*
X273866Y319445D01*
X273940Y319379D01*
X274018Y319315D01*
X274097Y319255D01*
X274179Y319198D01*
X274263Y319144D01*
X274349Y319094D01*
X274437Y319047D01*
X274527Y319003D01*
X274618Y318963D01*
X274711Y318927D01*
X274805Y318894D01*
X274901Y318865D01*
X274997Y318840D01*
X275094Y318819D01*
X275193Y318801D01*
X275291Y318788D01*
X275391Y318778D01*
X275490Y318772D01*
X275590Y318770D01*
X334010Y318770D02*
X334110Y318772D01*
X334209Y318778D01*
X334309Y318788D01*
X334407Y318801D01*
X334506Y318819D01*
X334603Y318840D01*
X334699Y318865D01*
X334795Y318894D01*
X334889Y318927D01*
X334982Y318963D01*
X335073Y319003D01*
X335163Y319047D01*
X335251Y319094D01*
X335337Y319144D01*
X335421Y319198D01*
X335503Y319255D01*
X335582Y319315D01*
X335660Y319379D01*
X335734Y319445D01*
X335806Y319514D01*
X335875Y319586D01*
X335941Y319660D01*
X336005Y319738D01*
X336065Y319817D01*
X336122Y319899D01*
X336176Y319983D01*
X336226Y320069D01*
X336273Y320157D01*
X336317Y320247D01*
X336357Y320338D01*
X336393Y320431D01*
X336426Y320525D01*
X336455Y320621D01*
X336480Y320717D01*
X336501Y320814D01*
X336519Y320913D01*
X336532Y321011D01*
X336542Y321111D01*
X336548Y321210D01*
X336550Y321310D01*
X336550Y339090D02*
X336548Y339190D01*
X336542Y339289D01*
X336532Y339389D01*
X336519Y339487D01*
X336501Y339586D01*
X336480Y339683D01*
X336455Y339779D01*
X336426Y339875D01*
X336393Y339969D01*
X336357Y340062D01*
X336317Y340153D01*
X336273Y340243D01*
X336226Y340331D01*
X336176Y340417D01*
X336122Y340501D01*
X336065Y340583D01*
X336005Y340662D01*
X335941Y340740D01*
X335875Y340814D01*
X335806Y340886D01*
X335734Y340955D01*
X335660Y341021D01*
X335582Y341085D01*
X335503Y341145D01*
X335421Y341202D01*
X335337Y341256D01*
X335251Y341306D01*
X335163Y341353D01*
X335073Y341397D01*
X334982Y341437D01*
X334889Y341473D01*
X334795Y341506D01*
X334699Y341535D01*
X334603Y341560D01*
X334506Y341581D01*
X334407Y341599D01*
X334309Y341612D01*
X334209Y341622D01*
X334110Y341628D01*
X334010Y341630D01*
X273050Y339090D02*
X273050Y321310D01*
X275590Y341630D02*
X279400Y341630D01*
X280670Y340360D01*
X279400Y318770D02*
X275590Y318770D01*
X279400Y318770D02*
X280670Y320040D01*
X328930Y340360D02*
X330200Y341630D01*
X328930Y340360D02*
X280670Y340360D01*
X328930Y320040D02*
X330200Y318770D01*
X328930Y320040D02*
X280670Y320040D01*
X330200Y341630D02*
X334010Y341630D01*
X334010Y318770D02*
X330200Y318770D01*
X336550Y321310D02*
X336550Y339090D01*
D14*
X345440Y330200D02*
X349250Y330200D01*
X264160Y330200D02*
X260350Y330200D01*
D12*
X273685Y344805D02*
X273685Y356245D01*
X279405Y356245D01*
X281312Y354338D01*
X281312Y350525D01*
X279405Y348618D01*
X273685Y348618D01*
X277498Y348618D02*
X281312Y344805D01*
X285379Y344805D02*
X293005Y344805D01*
X285379Y344805D02*
X293005Y352432D01*
X293005Y354338D01*
X291099Y356245D01*
X287286Y356245D01*
X285379Y354338D01*
X286388Y335417D02*
X282575Y331604D01*
X286388Y335417D02*
X286388Y323977D01*
X282575Y323977D02*
X290202Y323977D01*
X294269Y325884D02*
X294269Y333510D01*
X296176Y335417D01*
X299989Y335417D01*
X301895Y333510D01*
X301895Y325884D01*
X299989Y323977D01*
X296176Y323977D01*
X294269Y325884D01*
X301895Y333510D01*
X305963Y333510D02*
X305963Y325884D01*
X305963Y333510D02*
X307870Y335417D01*
X311683Y335417D01*
X313589Y333510D01*
X313589Y325884D01*
X311683Y323977D01*
X307870Y323977D01*
X305963Y325884D01*
X313589Y333510D01*
D212*
X340868Y330200D03*
X268732Y330200D03*
X353568Y330200D03*
X256032Y330200D03*
D10*
X294640Y330200D02*
X314960Y330200D01*
X304800Y320040D02*
X304800Y340360D01*
D11*
X191008Y289560D02*
X190908Y289562D01*
X190809Y289568D01*
X190709Y289578D01*
X190611Y289591D01*
X190512Y289609D01*
X190415Y289630D01*
X190319Y289655D01*
X190223Y289684D01*
X190129Y289717D01*
X190036Y289753D01*
X189945Y289793D01*
X189855Y289837D01*
X189767Y289884D01*
X189681Y289934D01*
X189597Y289988D01*
X189515Y290045D01*
X189436Y290105D01*
X189358Y290169D01*
X189284Y290235D01*
X189212Y290304D01*
X189143Y290376D01*
X189077Y290450D01*
X189013Y290528D01*
X188953Y290607D01*
X188896Y290689D01*
X188842Y290773D01*
X188792Y290859D01*
X188745Y290947D01*
X188701Y291037D01*
X188661Y291128D01*
X188625Y291221D01*
X188592Y291315D01*
X188563Y291411D01*
X188538Y291507D01*
X188517Y291604D01*
X188499Y291703D01*
X188486Y291801D01*
X188476Y291901D01*
X188470Y292000D01*
X188468Y292100D01*
X208788Y289560D02*
X208888Y289562D01*
X208987Y289568D01*
X209087Y289578D01*
X209185Y289591D01*
X209284Y289609D01*
X209381Y289630D01*
X209477Y289655D01*
X209573Y289684D01*
X209667Y289717D01*
X209760Y289753D01*
X209851Y289793D01*
X209941Y289837D01*
X210029Y289884D01*
X210115Y289934D01*
X210199Y289988D01*
X210281Y290045D01*
X210360Y290105D01*
X210438Y290169D01*
X210512Y290235D01*
X210584Y290304D01*
X210653Y290376D01*
X210719Y290450D01*
X210783Y290528D01*
X210843Y290607D01*
X210900Y290689D01*
X210954Y290773D01*
X211004Y290859D01*
X211051Y290947D01*
X211095Y291037D01*
X211135Y291128D01*
X211171Y291221D01*
X211204Y291315D01*
X211233Y291411D01*
X211258Y291507D01*
X211279Y291604D01*
X211297Y291703D01*
X211310Y291801D01*
X211320Y291901D01*
X211326Y292000D01*
X211328Y292100D01*
X211328Y350520D02*
X211326Y350620D01*
X211320Y350719D01*
X211310Y350819D01*
X211297Y350917D01*
X211279Y351016D01*
X211258Y351113D01*
X211233Y351209D01*
X211204Y351305D01*
X211171Y351399D01*
X211135Y351492D01*
X211095Y351583D01*
X211051Y351673D01*
X211004Y351761D01*
X210954Y351847D01*
X210900Y351931D01*
X210843Y352013D01*
X210783Y352092D01*
X210719Y352170D01*
X210653Y352244D01*
X210584Y352316D01*
X210512Y352385D01*
X210438Y352451D01*
X210360Y352515D01*
X210281Y352575D01*
X210199Y352632D01*
X210115Y352686D01*
X210029Y352736D01*
X209941Y352783D01*
X209851Y352827D01*
X209760Y352867D01*
X209667Y352903D01*
X209573Y352936D01*
X209477Y352965D01*
X209381Y352990D01*
X209284Y353011D01*
X209185Y353029D01*
X209087Y353042D01*
X208987Y353052D01*
X208888Y353058D01*
X208788Y353060D01*
X191008Y353060D02*
X190908Y353058D01*
X190809Y353052D01*
X190709Y353042D01*
X190611Y353029D01*
X190512Y353011D01*
X190415Y352990D01*
X190319Y352965D01*
X190223Y352936D01*
X190129Y352903D01*
X190036Y352867D01*
X189945Y352827D01*
X189855Y352783D01*
X189767Y352736D01*
X189681Y352686D01*
X189597Y352632D01*
X189515Y352575D01*
X189436Y352515D01*
X189358Y352451D01*
X189284Y352385D01*
X189212Y352316D01*
X189143Y352244D01*
X189077Y352170D01*
X189013Y352092D01*
X188953Y352013D01*
X188896Y351931D01*
X188842Y351847D01*
X188792Y351761D01*
X188745Y351673D01*
X188701Y351583D01*
X188661Y351492D01*
X188625Y351399D01*
X188592Y351305D01*
X188563Y351209D01*
X188538Y351113D01*
X188517Y351016D01*
X188499Y350917D01*
X188486Y350819D01*
X188476Y350719D01*
X188470Y350620D01*
X188468Y350520D01*
X191008Y289560D02*
X208788Y289560D01*
X188468Y292100D02*
X188468Y295910D01*
X189738Y297180D01*
X211328Y295910D02*
X211328Y292100D01*
X211328Y295910D02*
X210058Y297180D01*
X189738Y345440D02*
X188468Y346710D01*
X189738Y345440D02*
X189738Y297180D01*
X210058Y345440D02*
X211328Y346710D01*
X210058Y345440D02*
X210058Y297180D01*
X188468Y346710D02*
X188468Y350520D01*
X211328Y350520D02*
X211328Y346710D01*
X208788Y353060D02*
X191008Y353060D01*
D14*
X199898Y361950D02*
X199898Y365760D01*
X199898Y280670D02*
X199898Y276860D01*
D12*
X185293Y290195D02*
X173853Y290195D01*
X173853Y295915D01*
X175760Y297822D01*
X179573Y297822D01*
X181480Y295915D01*
X181480Y290195D01*
X181480Y294008D02*
X185293Y297822D01*
X175760Y301889D02*
X173853Y303796D01*
X173853Y307609D01*
X175760Y309515D01*
X177667Y309515D01*
X179573Y307609D01*
X179573Y305702D01*
X179573Y307609D02*
X181480Y309515D01*
X183386Y309515D01*
X185293Y307609D01*
X185293Y303796D01*
X183386Y301889D01*
X194681Y302898D02*
X198495Y299085D01*
X194681Y302898D02*
X206121Y302898D01*
X206121Y299085D02*
X206121Y306712D01*
X206121Y310779D02*
X206121Y318405D01*
X206121Y310779D02*
X198495Y318405D01*
X196588Y318405D01*
X194681Y316499D01*
X194681Y312686D01*
X196588Y310779D01*
X194681Y322473D02*
X194681Y330099D01*
X194681Y322473D02*
X200401Y322473D01*
X198495Y326286D01*
X198495Y328193D01*
X200401Y330099D01*
X204214Y330099D01*
X206121Y328193D01*
X206121Y324380D01*
X204214Y322473D01*
D213*
X199898Y357378D03*
X199898Y285242D03*
X199898Y370078D03*
X199898Y272542D03*
D10*
X189738Y321310D02*
X210058Y321310D01*
X199898Y311150D02*
X199898Y331470D01*
D11*
X465328Y399796D02*
X465428Y399794D01*
X465527Y399788D01*
X465627Y399778D01*
X465725Y399765D01*
X465824Y399747D01*
X465921Y399726D01*
X466017Y399701D01*
X466113Y399672D01*
X466207Y399639D01*
X466300Y399603D01*
X466391Y399563D01*
X466481Y399519D01*
X466569Y399472D01*
X466655Y399422D01*
X466739Y399368D01*
X466821Y399311D01*
X466900Y399251D01*
X466978Y399187D01*
X467052Y399121D01*
X467124Y399052D01*
X467193Y398980D01*
X467259Y398906D01*
X467323Y398828D01*
X467383Y398749D01*
X467440Y398667D01*
X467494Y398583D01*
X467544Y398497D01*
X467591Y398409D01*
X467635Y398319D01*
X467675Y398228D01*
X467711Y398135D01*
X467744Y398041D01*
X467773Y397945D01*
X467798Y397849D01*
X467819Y397752D01*
X467837Y397653D01*
X467850Y397555D01*
X467860Y397455D01*
X467866Y397356D01*
X467868Y397256D01*
X447548Y399796D02*
X447448Y399794D01*
X447349Y399788D01*
X447249Y399778D01*
X447151Y399765D01*
X447052Y399747D01*
X446955Y399726D01*
X446859Y399701D01*
X446763Y399672D01*
X446669Y399639D01*
X446576Y399603D01*
X446485Y399563D01*
X446395Y399519D01*
X446307Y399472D01*
X446221Y399422D01*
X446137Y399368D01*
X446055Y399311D01*
X445976Y399251D01*
X445898Y399187D01*
X445824Y399121D01*
X445752Y399052D01*
X445683Y398980D01*
X445617Y398906D01*
X445553Y398828D01*
X445493Y398749D01*
X445436Y398667D01*
X445382Y398583D01*
X445332Y398497D01*
X445285Y398409D01*
X445241Y398319D01*
X445201Y398228D01*
X445165Y398135D01*
X445132Y398041D01*
X445103Y397945D01*
X445078Y397849D01*
X445057Y397752D01*
X445039Y397653D01*
X445026Y397555D01*
X445016Y397455D01*
X445010Y397356D01*
X445008Y397256D01*
X445008Y338836D02*
X445010Y338736D01*
X445016Y338637D01*
X445026Y338537D01*
X445039Y338439D01*
X445057Y338340D01*
X445078Y338243D01*
X445103Y338147D01*
X445132Y338051D01*
X445165Y337957D01*
X445201Y337864D01*
X445241Y337773D01*
X445285Y337683D01*
X445332Y337595D01*
X445382Y337509D01*
X445436Y337425D01*
X445493Y337343D01*
X445553Y337264D01*
X445617Y337186D01*
X445683Y337112D01*
X445752Y337040D01*
X445824Y336971D01*
X445898Y336905D01*
X445976Y336841D01*
X446055Y336781D01*
X446137Y336724D01*
X446221Y336670D01*
X446307Y336620D01*
X446395Y336573D01*
X446485Y336529D01*
X446576Y336489D01*
X446669Y336453D01*
X446763Y336420D01*
X446859Y336391D01*
X446955Y336366D01*
X447052Y336345D01*
X447151Y336327D01*
X447249Y336314D01*
X447349Y336304D01*
X447448Y336298D01*
X447548Y336296D01*
X465328Y336296D02*
X465428Y336298D01*
X465527Y336304D01*
X465627Y336314D01*
X465725Y336327D01*
X465824Y336345D01*
X465921Y336366D01*
X466017Y336391D01*
X466113Y336420D01*
X466207Y336453D01*
X466300Y336489D01*
X466391Y336529D01*
X466481Y336573D01*
X466569Y336620D01*
X466655Y336670D01*
X466739Y336724D01*
X466821Y336781D01*
X466900Y336841D01*
X466978Y336905D01*
X467052Y336971D01*
X467124Y337040D01*
X467193Y337112D01*
X467259Y337186D01*
X467323Y337264D01*
X467383Y337343D01*
X467440Y337425D01*
X467494Y337509D01*
X467544Y337595D01*
X467591Y337683D01*
X467635Y337773D01*
X467675Y337864D01*
X467711Y337957D01*
X467744Y338051D01*
X467773Y338147D01*
X467798Y338243D01*
X467819Y338340D01*
X467837Y338439D01*
X467850Y338537D01*
X467860Y338637D01*
X467866Y338736D01*
X467868Y338836D01*
X465328Y399796D02*
X447548Y399796D01*
X467868Y397256D02*
X467868Y393446D01*
X466598Y392176D01*
X445008Y393446D02*
X445008Y397256D01*
X445008Y393446D02*
X446278Y392176D01*
X466598Y343916D02*
X467868Y342646D01*
X466598Y343916D02*
X466598Y392176D01*
X446278Y343916D02*
X445008Y342646D01*
X446278Y343916D02*
X446278Y392176D01*
X467868Y342646D02*
X467868Y338836D01*
X445008Y338836D02*
X445008Y342646D01*
X447548Y336296D02*
X465328Y336296D01*
D14*
X456438Y327406D02*
X456438Y323596D01*
X456438Y408686D02*
X456438Y412496D01*
D12*
X471033Y377043D02*
X482473Y377043D01*
X471033Y377043D02*
X471033Y382763D01*
X472940Y384670D01*
X476753Y384670D01*
X478660Y382763D01*
X478660Y377043D01*
X478660Y380856D02*
X482473Y384670D01*
X482473Y394457D02*
X471033Y394457D01*
X476753Y388737D01*
X476753Y396364D01*
X454019Y370102D02*
X450205Y373915D01*
X461645Y373915D01*
X461645Y370102D02*
X461645Y377729D01*
X461645Y381796D02*
X450205Y381796D01*
X457832Y381796D02*
X461645Y387516D01*
X457832Y381796D02*
X454019Y387516D01*
D213*
X456438Y331978D03*
X456438Y404114D03*
X456438Y319278D03*
X456438Y416814D03*
D10*
X446278Y368046D02*
X466598Y368046D01*
X456438Y357886D02*
X456438Y378206D01*
D11*
X400050Y431800D02*
X359410Y431800D01*
X359410Y406400D01*
X400050Y406400D01*
X400050Y431800D01*
X386080Y419100D02*
X379730Y419100D01*
X369570Y412750D02*
X369570Y425450D01*
X379730Y419100D01*
X364490Y419100D01*
X369570Y412750D02*
X379730Y419100D01*
X379730Y412750D01*
X379730Y419100D02*
X379730Y425450D01*
D12*
X377297Y401965D02*
X377297Y390525D01*
X383017Y390525D01*
X384924Y392432D01*
X384924Y400058D01*
X383017Y401965D01*
X377297Y401965D01*
X388991Y398152D02*
X392804Y401965D01*
X392804Y390525D01*
X388991Y390525D02*
X396618Y390525D01*
X334334Y446415D02*
X330521Y442602D01*
X334334Y446415D02*
X334334Y434975D01*
X330521Y434975D02*
X338148Y434975D01*
X342215Y434975D02*
X342215Y446415D01*
X349842Y434975D01*
X349842Y446415D01*
X359629Y446415D02*
X359629Y434975D01*
X353909Y440695D02*
X359629Y446415D01*
X361535Y440695D02*
X353909Y440695D01*
X365603Y436882D02*
X365603Y444508D01*
X367510Y446415D01*
X371323Y446415D01*
X373229Y444508D01*
X373229Y436882D01*
X371323Y434975D01*
X367510Y434975D01*
X365603Y436882D01*
X373229Y444508D01*
X377297Y444508D02*
X377297Y436882D01*
X377297Y444508D02*
X379204Y446415D01*
X383017Y446415D01*
X384923Y444508D01*
X384923Y436882D01*
X383017Y434975D01*
X379204Y434975D01*
X377297Y436882D01*
X384923Y444508D01*
X394711Y446415D02*
X394711Y434975D01*
X388991Y440695D02*
X394711Y446415D01*
X396617Y440695D02*
X388991Y440695D01*
D214*
X393700Y419100D03*
D215*
X349885Y419100D03*
X409575Y419100D03*
D10*
X389890Y419100D02*
X369570Y419100D01*
X379730Y408940D02*
X379730Y429260D01*
X197612Y145796D02*
X197617Y146170D01*
X197630Y146544D01*
X197653Y146917D01*
X197685Y147290D01*
X197727Y147662D01*
X197777Y148032D01*
X197836Y148401D01*
X197905Y148769D01*
X197982Y149135D01*
X198069Y149499D01*
X198164Y149861D01*
X198268Y150220D01*
X198381Y150577D01*
X198503Y150930D01*
X198633Y151281D01*
X198772Y151628D01*
X198919Y151972D01*
X199075Y152312D01*
X199239Y152648D01*
X199412Y152980D01*
X199592Y153308D01*
X199780Y153631D01*
X199976Y153949D01*
X200180Y154263D01*
X200392Y154571D01*
X200611Y154874D01*
X200838Y155172D01*
X201071Y155464D01*
X201312Y155750D01*
X201560Y156031D01*
X201814Y156305D01*
X202076Y156572D01*
X202343Y156834D01*
X202617Y157088D01*
X202898Y157336D01*
X203184Y157577D01*
X203476Y157810D01*
X203774Y158037D01*
X204077Y158256D01*
X204385Y158468D01*
X204699Y158672D01*
X205017Y158868D01*
X205340Y159056D01*
X205668Y159236D01*
X206000Y159409D01*
X206336Y159573D01*
X206676Y159729D01*
X207020Y159876D01*
X207367Y160015D01*
X207718Y160145D01*
X208071Y160267D01*
X208428Y160380D01*
X208787Y160484D01*
X209149Y160579D01*
X209513Y160666D01*
X209879Y160743D01*
X210247Y160812D01*
X210616Y160871D01*
X210986Y160921D01*
X211358Y160963D01*
X211731Y160995D01*
X212104Y161018D01*
X212478Y161031D01*
X212852Y161036D01*
X213226Y161031D01*
X213600Y161018D01*
X213973Y160995D01*
X214346Y160963D01*
X214718Y160921D01*
X215088Y160871D01*
X215457Y160812D01*
X215825Y160743D01*
X216191Y160666D01*
X216555Y160579D01*
X216917Y160484D01*
X217276Y160380D01*
X217633Y160267D01*
X217986Y160145D01*
X218337Y160015D01*
X218684Y159876D01*
X219028Y159729D01*
X219368Y159573D01*
X219704Y159409D01*
X220036Y159236D01*
X220364Y159056D01*
X220687Y158868D01*
X221005Y158672D01*
X221319Y158468D01*
X221627Y158256D01*
X221930Y158037D01*
X222228Y157810D01*
X222520Y157577D01*
X222806Y157336D01*
X223087Y157088D01*
X223361Y156834D01*
X223628Y156572D01*
X223890Y156305D01*
X224144Y156031D01*
X224392Y155750D01*
X224633Y155464D01*
X224866Y155172D01*
X225093Y154874D01*
X225312Y154571D01*
X225524Y154263D01*
X225728Y153949D01*
X225924Y153631D01*
X226112Y153308D01*
X226292Y152980D01*
X226465Y152648D01*
X226629Y152312D01*
X226785Y151972D01*
X226932Y151628D01*
X227071Y151281D01*
X227201Y150930D01*
X227323Y150577D01*
X227436Y150220D01*
X227540Y149861D01*
X227635Y149499D01*
X227722Y149135D01*
X227799Y148769D01*
X227868Y148401D01*
X227927Y148032D01*
X227977Y147662D01*
X228019Y147290D01*
X228051Y146917D01*
X228074Y146544D01*
X228087Y146170D01*
X228092Y145796D01*
X228087Y145422D01*
X228074Y145048D01*
X228051Y144675D01*
X228019Y144302D01*
X227977Y143930D01*
X227927Y143560D01*
X227868Y143191D01*
X227799Y142823D01*
X227722Y142457D01*
X227635Y142093D01*
X227540Y141731D01*
X227436Y141372D01*
X227323Y141015D01*
X227201Y140662D01*
X227071Y140311D01*
X226932Y139964D01*
X226785Y139620D01*
X226629Y139280D01*
X226465Y138944D01*
X226292Y138612D01*
X226112Y138284D01*
X225924Y137961D01*
X225728Y137643D01*
X225524Y137329D01*
X225312Y137021D01*
X225093Y136718D01*
X224866Y136420D01*
X224633Y136128D01*
X224392Y135842D01*
X224144Y135561D01*
X223890Y135287D01*
X223628Y135020D01*
X223361Y134758D01*
X223087Y134504D01*
X222806Y134256D01*
X222520Y134015D01*
X222228Y133782D01*
X221930Y133555D01*
X221627Y133336D01*
X221319Y133124D01*
X221005Y132920D01*
X220687Y132724D01*
X220364Y132536D01*
X220036Y132356D01*
X219704Y132183D01*
X219368Y132019D01*
X219028Y131863D01*
X218684Y131716D01*
X218337Y131577D01*
X217986Y131447D01*
X217633Y131325D01*
X217276Y131212D01*
X216917Y131108D01*
X216555Y131013D01*
X216191Y130926D01*
X215825Y130849D01*
X215457Y130780D01*
X215088Y130721D01*
X214718Y130671D01*
X214346Y130629D01*
X213973Y130597D01*
X213600Y130574D01*
X213226Y130561D01*
X212852Y130556D01*
X212478Y130561D01*
X212104Y130574D01*
X211731Y130597D01*
X211358Y130629D01*
X210986Y130671D01*
X210616Y130721D01*
X210247Y130780D01*
X209879Y130849D01*
X209513Y130926D01*
X209149Y131013D01*
X208787Y131108D01*
X208428Y131212D01*
X208071Y131325D01*
X207718Y131447D01*
X207367Y131577D01*
X207020Y131716D01*
X206676Y131863D01*
X206336Y132019D01*
X206000Y132183D01*
X205668Y132356D01*
X205340Y132536D01*
X205017Y132724D01*
X204699Y132920D01*
X204385Y133124D01*
X204077Y133336D01*
X203774Y133555D01*
X203476Y133782D01*
X203184Y134015D01*
X202898Y134256D01*
X202617Y134504D01*
X202343Y134758D01*
X202076Y135020D01*
X201814Y135287D01*
X201560Y135561D01*
X201312Y135842D01*
X201071Y136128D01*
X200838Y136420D01*
X200611Y136718D01*
X200392Y137021D01*
X200180Y137329D01*
X199976Y137643D01*
X199780Y137961D01*
X199592Y138284D01*
X199412Y138612D01*
X199239Y138944D01*
X199075Y139280D01*
X198919Y139620D01*
X198772Y139964D01*
X198633Y140311D01*
X198503Y140662D01*
X198381Y141015D01*
X198268Y141372D01*
X198164Y141731D01*
X198069Y142093D01*
X197982Y142457D01*
X197905Y142823D01*
X197836Y143191D01*
X197777Y143560D01*
X197727Y143930D01*
X197685Y144302D01*
X197653Y144675D01*
X197630Y145048D01*
X197617Y145422D01*
X197612Y145796D01*
X362712Y145796D02*
X362717Y146170D01*
X362730Y146544D01*
X362753Y146917D01*
X362785Y147290D01*
X362827Y147662D01*
X362877Y148032D01*
X362936Y148401D01*
X363005Y148769D01*
X363082Y149135D01*
X363169Y149499D01*
X363264Y149861D01*
X363368Y150220D01*
X363481Y150577D01*
X363603Y150930D01*
X363733Y151281D01*
X363872Y151628D01*
X364019Y151972D01*
X364175Y152312D01*
X364339Y152648D01*
X364512Y152980D01*
X364692Y153308D01*
X364880Y153631D01*
X365076Y153949D01*
X365280Y154263D01*
X365492Y154571D01*
X365711Y154874D01*
X365938Y155172D01*
X366171Y155464D01*
X366412Y155750D01*
X366660Y156031D01*
X366914Y156305D01*
X367176Y156572D01*
X367443Y156834D01*
X367717Y157088D01*
X367998Y157336D01*
X368284Y157577D01*
X368576Y157810D01*
X368874Y158037D01*
X369177Y158256D01*
X369485Y158468D01*
X369799Y158672D01*
X370117Y158868D01*
X370440Y159056D01*
X370768Y159236D01*
X371100Y159409D01*
X371436Y159573D01*
X371776Y159729D01*
X372120Y159876D01*
X372467Y160015D01*
X372818Y160145D01*
X373171Y160267D01*
X373528Y160380D01*
X373887Y160484D01*
X374249Y160579D01*
X374613Y160666D01*
X374979Y160743D01*
X375347Y160812D01*
X375716Y160871D01*
X376086Y160921D01*
X376458Y160963D01*
X376831Y160995D01*
X377204Y161018D01*
X377578Y161031D01*
X377952Y161036D01*
X378326Y161031D01*
X378700Y161018D01*
X379073Y160995D01*
X379446Y160963D01*
X379818Y160921D01*
X380188Y160871D01*
X380557Y160812D01*
X380925Y160743D01*
X381291Y160666D01*
X381655Y160579D01*
X382017Y160484D01*
X382376Y160380D01*
X382733Y160267D01*
X383086Y160145D01*
X383437Y160015D01*
X383784Y159876D01*
X384128Y159729D01*
X384468Y159573D01*
X384804Y159409D01*
X385136Y159236D01*
X385464Y159056D01*
X385787Y158868D01*
X386105Y158672D01*
X386419Y158468D01*
X386727Y158256D01*
X387030Y158037D01*
X387328Y157810D01*
X387620Y157577D01*
X387906Y157336D01*
X388187Y157088D01*
X388461Y156834D01*
X388728Y156572D01*
X388990Y156305D01*
X389244Y156031D01*
X389492Y155750D01*
X389733Y155464D01*
X389966Y155172D01*
X390193Y154874D01*
X390412Y154571D01*
X390624Y154263D01*
X390828Y153949D01*
X391024Y153631D01*
X391212Y153308D01*
X391392Y152980D01*
X391565Y152648D01*
X391729Y152312D01*
X391885Y151972D01*
X392032Y151628D01*
X392171Y151281D01*
X392301Y150930D01*
X392423Y150577D01*
X392536Y150220D01*
X392640Y149861D01*
X392735Y149499D01*
X392822Y149135D01*
X392899Y148769D01*
X392968Y148401D01*
X393027Y148032D01*
X393077Y147662D01*
X393119Y147290D01*
X393151Y146917D01*
X393174Y146544D01*
X393187Y146170D01*
X393192Y145796D01*
X393187Y145422D01*
X393174Y145048D01*
X393151Y144675D01*
X393119Y144302D01*
X393077Y143930D01*
X393027Y143560D01*
X392968Y143191D01*
X392899Y142823D01*
X392822Y142457D01*
X392735Y142093D01*
X392640Y141731D01*
X392536Y141372D01*
X392423Y141015D01*
X392301Y140662D01*
X392171Y140311D01*
X392032Y139964D01*
X391885Y139620D01*
X391729Y139280D01*
X391565Y138944D01*
X391392Y138612D01*
X391212Y138284D01*
X391024Y137961D01*
X390828Y137643D01*
X390624Y137329D01*
X390412Y137021D01*
X390193Y136718D01*
X389966Y136420D01*
X389733Y136128D01*
X389492Y135842D01*
X389244Y135561D01*
X388990Y135287D01*
X388728Y135020D01*
X388461Y134758D01*
X388187Y134504D01*
X387906Y134256D01*
X387620Y134015D01*
X387328Y133782D01*
X387030Y133555D01*
X386727Y133336D01*
X386419Y133124D01*
X386105Y132920D01*
X385787Y132724D01*
X385464Y132536D01*
X385136Y132356D01*
X384804Y132183D01*
X384468Y132019D01*
X384128Y131863D01*
X383784Y131716D01*
X383437Y131577D01*
X383086Y131447D01*
X382733Y131325D01*
X382376Y131212D01*
X382017Y131108D01*
X381655Y131013D01*
X381291Y130926D01*
X380925Y130849D01*
X380557Y130780D01*
X380188Y130721D01*
X379818Y130671D01*
X379446Y130629D01*
X379073Y130597D01*
X378700Y130574D01*
X378326Y130561D01*
X377952Y130556D01*
X377578Y130561D01*
X377204Y130574D01*
X376831Y130597D01*
X376458Y130629D01*
X376086Y130671D01*
X375716Y130721D01*
X375347Y130780D01*
X374979Y130849D01*
X374613Y130926D01*
X374249Y131013D01*
X373887Y131108D01*
X373528Y131212D01*
X373171Y131325D01*
X372818Y131447D01*
X372467Y131577D01*
X372120Y131716D01*
X371776Y131863D01*
X371436Y132019D01*
X371100Y132183D01*
X370768Y132356D01*
X370440Y132536D01*
X370117Y132724D01*
X369799Y132920D01*
X369485Y133124D01*
X369177Y133336D01*
X368874Y133555D01*
X368576Y133782D01*
X368284Y134015D01*
X367998Y134256D01*
X367717Y134504D01*
X367443Y134758D01*
X367176Y135020D01*
X366914Y135287D01*
X366660Y135561D01*
X366412Y135842D01*
X366171Y136128D01*
X365938Y136420D01*
X365711Y136718D01*
X365492Y137021D01*
X365280Y137329D01*
X365076Y137643D01*
X364880Y137961D01*
X364692Y138284D01*
X364512Y138612D01*
X364339Y138944D01*
X364175Y139280D01*
X364019Y139620D01*
X363872Y139964D01*
X363733Y140311D01*
X363603Y140662D01*
X363481Y141015D01*
X363368Y141372D01*
X363264Y141731D01*
X363169Y142093D01*
X363082Y142457D01*
X363005Y142823D01*
X362936Y143191D01*
X362877Y143560D01*
X362827Y143930D01*
X362785Y144302D01*
X362753Y144675D01*
X362730Y145048D01*
X362717Y145422D01*
X362712Y145796D01*
X362712Y780796D02*
X362717Y781170D01*
X362730Y781544D01*
X362753Y781917D01*
X362785Y782290D01*
X362827Y782662D01*
X362877Y783032D01*
X362936Y783401D01*
X363005Y783769D01*
X363082Y784135D01*
X363169Y784499D01*
X363264Y784861D01*
X363368Y785220D01*
X363481Y785577D01*
X363603Y785930D01*
X363733Y786281D01*
X363872Y786628D01*
X364019Y786972D01*
X364175Y787312D01*
X364339Y787648D01*
X364512Y787980D01*
X364692Y788308D01*
X364880Y788631D01*
X365076Y788949D01*
X365280Y789263D01*
X365492Y789571D01*
X365711Y789874D01*
X365938Y790172D01*
X366171Y790464D01*
X366412Y790750D01*
X366660Y791031D01*
X366914Y791305D01*
X367176Y791572D01*
X367443Y791834D01*
X367717Y792088D01*
X367998Y792336D01*
X368284Y792577D01*
X368576Y792810D01*
X368874Y793037D01*
X369177Y793256D01*
X369485Y793468D01*
X369799Y793672D01*
X370117Y793868D01*
X370440Y794056D01*
X370768Y794236D01*
X371100Y794409D01*
X371436Y794573D01*
X371776Y794729D01*
X372120Y794876D01*
X372467Y795015D01*
X372818Y795145D01*
X373171Y795267D01*
X373528Y795380D01*
X373887Y795484D01*
X374249Y795579D01*
X374613Y795666D01*
X374979Y795743D01*
X375347Y795812D01*
X375716Y795871D01*
X376086Y795921D01*
X376458Y795963D01*
X376831Y795995D01*
X377204Y796018D01*
X377578Y796031D01*
X377952Y796036D01*
X378326Y796031D01*
X378700Y796018D01*
X379073Y795995D01*
X379446Y795963D01*
X379818Y795921D01*
X380188Y795871D01*
X380557Y795812D01*
X380925Y795743D01*
X381291Y795666D01*
X381655Y795579D01*
X382017Y795484D01*
X382376Y795380D01*
X382733Y795267D01*
X383086Y795145D01*
X383437Y795015D01*
X383784Y794876D01*
X384128Y794729D01*
X384468Y794573D01*
X384804Y794409D01*
X385136Y794236D01*
X385464Y794056D01*
X385787Y793868D01*
X386105Y793672D01*
X386419Y793468D01*
X386727Y793256D01*
X387030Y793037D01*
X387328Y792810D01*
X387620Y792577D01*
X387906Y792336D01*
X388187Y792088D01*
X388461Y791834D01*
X388728Y791572D01*
X388990Y791305D01*
X389244Y791031D01*
X389492Y790750D01*
X389733Y790464D01*
X389966Y790172D01*
X390193Y789874D01*
X390412Y789571D01*
X390624Y789263D01*
X390828Y788949D01*
X391024Y788631D01*
X391212Y788308D01*
X391392Y787980D01*
X391565Y787648D01*
X391729Y787312D01*
X391885Y786972D01*
X392032Y786628D01*
X392171Y786281D01*
X392301Y785930D01*
X392423Y785577D01*
X392536Y785220D01*
X392640Y784861D01*
X392735Y784499D01*
X392822Y784135D01*
X392899Y783769D01*
X392968Y783401D01*
X393027Y783032D01*
X393077Y782662D01*
X393119Y782290D01*
X393151Y781917D01*
X393174Y781544D01*
X393187Y781170D01*
X393192Y780796D01*
X393187Y780422D01*
X393174Y780048D01*
X393151Y779675D01*
X393119Y779302D01*
X393077Y778930D01*
X393027Y778560D01*
X392968Y778191D01*
X392899Y777823D01*
X392822Y777457D01*
X392735Y777093D01*
X392640Y776731D01*
X392536Y776372D01*
X392423Y776015D01*
X392301Y775662D01*
X392171Y775311D01*
X392032Y774964D01*
X391885Y774620D01*
X391729Y774280D01*
X391565Y773944D01*
X391392Y773612D01*
X391212Y773284D01*
X391024Y772961D01*
X390828Y772643D01*
X390624Y772329D01*
X390412Y772021D01*
X390193Y771718D01*
X389966Y771420D01*
X389733Y771128D01*
X389492Y770842D01*
X389244Y770561D01*
X388990Y770287D01*
X388728Y770020D01*
X388461Y769758D01*
X388187Y769504D01*
X387906Y769256D01*
X387620Y769015D01*
X387328Y768782D01*
X387030Y768555D01*
X386727Y768336D01*
X386419Y768124D01*
X386105Y767920D01*
X385787Y767724D01*
X385464Y767536D01*
X385136Y767356D01*
X384804Y767183D01*
X384468Y767019D01*
X384128Y766863D01*
X383784Y766716D01*
X383437Y766577D01*
X383086Y766447D01*
X382733Y766325D01*
X382376Y766212D01*
X382017Y766108D01*
X381655Y766013D01*
X381291Y765926D01*
X380925Y765849D01*
X380557Y765780D01*
X380188Y765721D01*
X379818Y765671D01*
X379446Y765629D01*
X379073Y765597D01*
X378700Y765574D01*
X378326Y765561D01*
X377952Y765556D01*
X377578Y765561D01*
X377204Y765574D01*
X376831Y765597D01*
X376458Y765629D01*
X376086Y765671D01*
X375716Y765721D01*
X375347Y765780D01*
X374979Y765849D01*
X374613Y765926D01*
X374249Y766013D01*
X373887Y766108D01*
X373528Y766212D01*
X373171Y766325D01*
X372818Y766447D01*
X372467Y766577D01*
X372120Y766716D01*
X371776Y766863D01*
X371436Y767019D01*
X371100Y767183D01*
X370768Y767356D01*
X370440Y767536D01*
X370117Y767724D01*
X369799Y767920D01*
X369485Y768124D01*
X369177Y768336D01*
X368874Y768555D01*
X368576Y768782D01*
X368284Y769015D01*
X367998Y769256D01*
X367717Y769504D01*
X367443Y769758D01*
X367176Y770020D01*
X366914Y770287D01*
X366660Y770561D01*
X366412Y770842D01*
X366171Y771128D01*
X365938Y771420D01*
X365711Y771718D01*
X365492Y772021D01*
X365280Y772329D01*
X365076Y772643D01*
X364880Y772961D01*
X364692Y773284D01*
X364512Y773612D01*
X364339Y773944D01*
X364175Y774280D01*
X364019Y774620D01*
X363872Y774964D01*
X363733Y775311D01*
X363603Y775662D01*
X363481Y776015D01*
X363368Y776372D01*
X363264Y776731D01*
X363169Y777093D01*
X363082Y777457D01*
X363005Y777823D01*
X362936Y778191D01*
X362877Y778560D01*
X362827Y778930D01*
X362785Y779302D01*
X362753Y779675D01*
X362730Y780048D01*
X362717Y780422D01*
X362712Y780796D01*
X197612Y780796D02*
X197617Y781170D01*
X197630Y781544D01*
X197653Y781917D01*
X197685Y782290D01*
X197727Y782662D01*
X197777Y783032D01*
X197836Y783401D01*
X197905Y783769D01*
X197982Y784135D01*
X198069Y784499D01*
X198164Y784861D01*
X198268Y785220D01*
X198381Y785577D01*
X198503Y785930D01*
X198633Y786281D01*
X198772Y786628D01*
X198919Y786972D01*
X199075Y787312D01*
X199239Y787648D01*
X199412Y787980D01*
X199592Y788308D01*
X199780Y788631D01*
X199976Y788949D01*
X200180Y789263D01*
X200392Y789571D01*
X200611Y789874D01*
X200838Y790172D01*
X201071Y790464D01*
X201312Y790750D01*
X201560Y791031D01*
X201814Y791305D01*
X202076Y791572D01*
X202343Y791834D01*
X202617Y792088D01*
X202898Y792336D01*
X203184Y792577D01*
X203476Y792810D01*
X203774Y793037D01*
X204077Y793256D01*
X204385Y793468D01*
X204699Y793672D01*
X205017Y793868D01*
X205340Y794056D01*
X205668Y794236D01*
X206000Y794409D01*
X206336Y794573D01*
X206676Y794729D01*
X207020Y794876D01*
X207367Y795015D01*
X207718Y795145D01*
X208071Y795267D01*
X208428Y795380D01*
X208787Y795484D01*
X209149Y795579D01*
X209513Y795666D01*
X209879Y795743D01*
X210247Y795812D01*
X210616Y795871D01*
X210986Y795921D01*
X211358Y795963D01*
X211731Y795995D01*
X212104Y796018D01*
X212478Y796031D01*
X212852Y796036D01*
X213226Y796031D01*
X213600Y796018D01*
X213973Y795995D01*
X214346Y795963D01*
X214718Y795921D01*
X215088Y795871D01*
X215457Y795812D01*
X215825Y795743D01*
X216191Y795666D01*
X216555Y795579D01*
X216917Y795484D01*
X217276Y795380D01*
X217633Y795267D01*
X217986Y795145D01*
X218337Y795015D01*
X218684Y794876D01*
X219028Y794729D01*
X219368Y794573D01*
X219704Y794409D01*
X220036Y794236D01*
X220364Y794056D01*
X220687Y793868D01*
X221005Y793672D01*
X221319Y793468D01*
X221627Y793256D01*
X221930Y793037D01*
X222228Y792810D01*
X222520Y792577D01*
X222806Y792336D01*
X223087Y792088D01*
X223361Y791834D01*
X223628Y791572D01*
X223890Y791305D01*
X224144Y791031D01*
X224392Y790750D01*
X224633Y790464D01*
X224866Y790172D01*
X225093Y789874D01*
X225312Y789571D01*
X225524Y789263D01*
X225728Y788949D01*
X225924Y788631D01*
X226112Y788308D01*
X226292Y787980D01*
X226465Y787648D01*
X226629Y787312D01*
X226785Y786972D01*
X226932Y786628D01*
X227071Y786281D01*
X227201Y785930D01*
X227323Y785577D01*
X227436Y785220D01*
X227540Y784861D01*
X227635Y784499D01*
X227722Y784135D01*
X227799Y783769D01*
X227868Y783401D01*
X227927Y783032D01*
X227977Y782662D01*
X228019Y782290D01*
X228051Y781917D01*
X228074Y781544D01*
X228087Y781170D01*
X228092Y780796D01*
X228087Y780422D01*
X228074Y780048D01*
X228051Y779675D01*
X228019Y779302D01*
X227977Y778930D01*
X227927Y778560D01*
X227868Y778191D01*
X227799Y777823D01*
X227722Y777457D01*
X227635Y777093D01*
X227540Y776731D01*
X227436Y776372D01*
X227323Y776015D01*
X227201Y775662D01*
X227071Y775311D01*
X226932Y774964D01*
X226785Y774620D01*
X226629Y774280D01*
X226465Y773944D01*
X226292Y773612D01*
X226112Y773284D01*
X225924Y772961D01*
X225728Y772643D01*
X225524Y772329D01*
X225312Y772021D01*
X225093Y771718D01*
X224866Y771420D01*
X224633Y771128D01*
X224392Y770842D01*
X224144Y770561D01*
X223890Y770287D01*
X223628Y770020D01*
X223361Y769758D01*
X223087Y769504D01*
X222806Y769256D01*
X222520Y769015D01*
X222228Y768782D01*
X221930Y768555D01*
X221627Y768336D01*
X221319Y768124D01*
X221005Y767920D01*
X220687Y767724D01*
X220364Y767536D01*
X220036Y767356D01*
X219704Y767183D01*
X219368Y767019D01*
X219028Y766863D01*
X218684Y766716D01*
X218337Y766577D01*
X217986Y766447D01*
X217633Y766325D01*
X217276Y766212D01*
X216917Y766108D01*
X216555Y766013D01*
X216191Y765926D01*
X215825Y765849D01*
X215457Y765780D01*
X215088Y765721D01*
X214718Y765671D01*
X214346Y765629D01*
X213973Y765597D01*
X213600Y765574D01*
X213226Y765561D01*
X212852Y765556D01*
X212478Y765561D01*
X212104Y765574D01*
X211731Y765597D01*
X211358Y765629D01*
X210986Y765671D01*
X210616Y765721D01*
X210247Y765780D01*
X209879Y765849D01*
X209513Y765926D01*
X209149Y766013D01*
X208787Y766108D01*
X208428Y766212D01*
X208071Y766325D01*
X207718Y766447D01*
X207367Y766577D01*
X207020Y766716D01*
X206676Y766863D01*
X206336Y767019D01*
X206000Y767183D01*
X205668Y767356D01*
X205340Y767536D01*
X205017Y767724D01*
X204699Y767920D01*
X204385Y768124D01*
X204077Y768336D01*
X203774Y768555D01*
X203476Y768782D01*
X203184Y769015D01*
X202898Y769256D01*
X202617Y769504D01*
X202343Y769758D01*
X202076Y770020D01*
X201814Y770287D01*
X201560Y770561D01*
X201312Y770842D01*
X201071Y771128D01*
X200838Y771420D01*
X200611Y771718D01*
X200392Y772021D01*
X200180Y772329D01*
X199976Y772643D01*
X199780Y772961D01*
X199592Y773284D01*
X199412Y773612D01*
X199239Y773944D01*
X199075Y774280D01*
X198919Y774620D01*
X198772Y774964D01*
X198633Y775311D01*
X198503Y775662D01*
X198381Y776015D01*
X198268Y776372D01*
X198164Y776731D01*
X198069Y777093D01*
X197982Y777457D01*
X197905Y777823D01*
X197836Y778191D01*
X197777Y778560D01*
X197727Y778930D01*
X197685Y779302D01*
X197653Y779675D01*
X197630Y780048D01*
X197617Y780422D01*
X197612Y780796D01*
D12*
X181102Y114046D02*
X409702Y114046D01*
X409702Y812546D01*
X181102Y812546D01*
X181102Y114046D01*
D10*
X170942Y114046D02*
X191262Y114046D01*
X181102Y103886D02*
X181102Y124206D01*
X516382Y145796D02*
X516387Y146170D01*
X516400Y146544D01*
X516423Y146917D01*
X516455Y147290D01*
X516497Y147662D01*
X516547Y148032D01*
X516606Y148401D01*
X516675Y148769D01*
X516752Y149135D01*
X516839Y149499D01*
X516934Y149861D01*
X517038Y150220D01*
X517151Y150577D01*
X517273Y150930D01*
X517403Y151281D01*
X517542Y151628D01*
X517689Y151972D01*
X517845Y152312D01*
X518009Y152648D01*
X518182Y152980D01*
X518362Y153308D01*
X518550Y153631D01*
X518746Y153949D01*
X518950Y154263D01*
X519162Y154571D01*
X519381Y154874D01*
X519608Y155172D01*
X519841Y155464D01*
X520082Y155750D01*
X520330Y156031D01*
X520584Y156305D01*
X520846Y156572D01*
X521113Y156834D01*
X521387Y157088D01*
X521668Y157336D01*
X521954Y157577D01*
X522246Y157810D01*
X522544Y158037D01*
X522847Y158256D01*
X523155Y158468D01*
X523469Y158672D01*
X523787Y158868D01*
X524110Y159056D01*
X524438Y159236D01*
X524770Y159409D01*
X525106Y159573D01*
X525446Y159729D01*
X525790Y159876D01*
X526137Y160015D01*
X526488Y160145D01*
X526841Y160267D01*
X527198Y160380D01*
X527557Y160484D01*
X527919Y160579D01*
X528283Y160666D01*
X528649Y160743D01*
X529017Y160812D01*
X529386Y160871D01*
X529756Y160921D01*
X530128Y160963D01*
X530501Y160995D01*
X530874Y161018D01*
X531248Y161031D01*
X531622Y161036D01*
X531996Y161031D01*
X532370Y161018D01*
X532743Y160995D01*
X533116Y160963D01*
X533488Y160921D01*
X533858Y160871D01*
X534227Y160812D01*
X534595Y160743D01*
X534961Y160666D01*
X535325Y160579D01*
X535687Y160484D01*
X536046Y160380D01*
X536403Y160267D01*
X536756Y160145D01*
X537107Y160015D01*
X537454Y159876D01*
X537798Y159729D01*
X538138Y159573D01*
X538474Y159409D01*
X538806Y159236D01*
X539134Y159056D01*
X539457Y158868D01*
X539775Y158672D01*
X540089Y158468D01*
X540397Y158256D01*
X540700Y158037D01*
X540998Y157810D01*
X541290Y157577D01*
X541576Y157336D01*
X541857Y157088D01*
X542131Y156834D01*
X542398Y156572D01*
X542660Y156305D01*
X542914Y156031D01*
X543162Y155750D01*
X543403Y155464D01*
X543636Y155172D01*
X543863Y154874D01*
X544082Y154571D01*
X544294Y154263D01*
X544498Y153949D01*
X544694Y153631D01*
X544882Y153308D01*
X545062Y152980D01*
X545235Y152648D01*
X545399Y152312D01*
X545555Y151972D01*
X545702Y151628D01*
X545841Y151281D01*
X545971Y150930D01*
X546093Y150577D01*
X546206Y150220D01*
X546310Y149861D01*
X546405Y149499D01*
X546492Y149135D01*
X546569Y148769D01*
X546638Y148401D01*
X546697Y148032D01*
X546747Y147662D01*
X546789Y147290D01*
X546821Y146917D01*
X546844Y146544D01*
X546857Y146170D01*
X546862Y145796D01*
X546857Y145422D01*
X546844Y145048D01*
X546821Y144675D01*
X546789Y144302D01*
X546747Y143930D01*
X546697Y143560D01*
X546638Y143191D01*
X546569Y142823D01*
X546492Y142457D01*
X546405Y142093D01*
X546310Y141731D01*
X546206Y141372D01*
X546093Y141015D01*
X545971Y140662D01*
X545841Y140311D01*
X545702Y139964D01*
X545555Y139620D01*
X545399Y139280D01*
X545235Y138944D01*
X545062Y138612D01*
X544882Y138284D01*
X544694Y137961D01*
X544498Y137643D01*
X544294Y137329D01*
X544082Y137021D01*
X543863Y136718D01*
X543636Y136420D01*
X543403Y136128D01*
X543162Y135842D01*
X542914Y135561D01*
X542660Y135287D01*
X542398Y135020D01*
X542131Y134758D01*
X541857Y134504D01*
X541576Y134256D01*
X541290Y134015D01*
X540998Y133782D01*
X540700Y133555D01*
X540397Y133336D01*
X540089Y133124D01*
X539775Y132920D01*
X539457Y132724D01*
X539134Y132536D01*
X538806Y132356D01*
X538474Y132183D01*
X538138Y132019D01*
X537798Y131863D01*
X537454Y131716D01*
X537107Y131577D01*
X536756Y131447D01*
X536403Y131325D01*
X536046Y131212D01*
X535687Y131108D01*
X535325Y131013D01*
X534961Y130926D01*
X534595Y130849D01*
X534227Y130780D01*
X533858Y130721D01*
X533488Y130671D01*
X533116Y130629D01*
X532743Y130597D01*
X532370Y130574D01*
X531996Y130561D01*
X531622Y130556D01*
X531248Y130561D01*
X530874Y130574D01*
X530501Y130597D01*
X530128Y130629D01*
X529756Y130671D01*
X529386Y130721D01*
X529017Y130780D01*
X528649Y130849D01*
X528283Y130926D01*
X527919Y131013D01*
X527557Y131108D01*
X527198Y131212D01*
X526841Y131325D01*
X526488Y131447D01*
X526137Y131577D01*
X525790Y131716D01*
X525446Y131863D01*
X525106Y132019D01*
X524770Y132183D01*
X524438Y132356D01*
X524110Y132536D01*
X523787Y132724D01*
X523469Y132920D01*
X523155Y133124D01*
X522847Y133336D01*
X522544Y133555D01*
X522246Y133782D01*
X521954Y134015D01*
X521668Y134256D01*
X521387Y134504D01*
X521113Y134758D01*
X520846Y135020D01*
X520584Y135287D01*
X520330Y135561D01*
X520082Y135842D01*
X519841Y136128D01*
X519608Y136420D01*
X519381Y136718D01*
X519162Y137021D01*
X518950Y137329D01*
X518746Y137643D01*
X518550Y137961D01*
X518362Y138284D01*
X518182Y138612D01*
X518009Y138944D01*
X517845Y139280D01*
X517689Y139620D01*
X517542Y139964D01*
X517403Y140311D01*
X517273Y140662D01*
X517151Y141015D01*
X517038Y141372D01*
X516934Y141731D01*
X516839Y142093D01*
X516752Y142457D01*
X516675Y142823D01*
X516606Y143191D01*
X516547Y143560D01*
X516497Y143930D01*
X516455Y144302D01*
X516423Y144675D01*
X516400Y145048D01*
X516387Y145422D01*
X516382Y145796D01*
X681482Y145796D02*
X681487Y146170D01*
X681500Y146544D01*
X681523Y146917D01*
X681555Y147290D01*
X681597Y147662D01*
X681647Y148032D01*
X681706Y148401D01*
X681775Y148769D01*
X681852Y149135D01*
X681939Y149499D01*
X682034Y149861D01*
X682138Y150220D01*
X682251Y150577D01*
X682373Y150930D01*
X682503Y151281D01*
X682642Y151628D01*
X682789Y151972D01*
X682945Y152312D01*
X683109Y152648D01*
X683282Y152980D01*
X683462Y153308D01*
X683650Y153631D01*
X683846Y153949D01*
X684050Y154263D01*
X684262Y154571D01*
X684481Y154874D01*
X684708Y155172D01*
X684941Y155464D01*
X685182Y155750D01*
X685430Y156031D01*
X685684Y156305D01*
X685946Y156572D01*
X686213Y156834D01*
X686487Y157088D01*
X686768Y157336D01*
X687054Y157577D01*
X687346Y157810D01*
X687644Y158037D01*
X687947Y158256D01*
X688255Y158468D01*
X688569Y158672D01*
X688887Y158868D01*
X689210Y159056D01*
X689538Y159236D01*
X689870Y159409D01*
X690206Y159573D01*
X690546Y159729D01*
X690890Y159876D01*
X691237Y160015D01*
X691588Y160145D01*
X691941Y160267D01*
X692298Y160380D01*
X692657Y160484D01*
X693019Y160579D01*
X693383Y160666D01*
X693749Y160743D01*
X694117Y160812D01*
X694486Y160871D01*
X694856Y160921D01*
X695228Y160963D01*
X695601Y160995D01*
X695974Y161018D01*
X696348Y161031D01*
X696722Y161036D01*
X697096Y161031D01*
X697470Y161018D01*
X697843Y160995D01*
X698216Y160963D01*
X698588Y160921D01*
X698958Y160871D01*
X699327Y160812D01*
X699695Y160743D01*
X700061Y160666D01*
X700425Y160579D01*
X700787Y160484D01*
X701146Y160380D01*
X701503Y160267D01*
X701856Y160145D01*
X702207Y160015D01*
X702554Y159876D01*
X702898Y159729D01*
X703238Y159573D01*
X703574Y159409D01*
X703906Y159236D01*
X704234Y159056D01*
X704557Y158868D01*
X704875Y158672D01*
X705189Y158468D01*
X705497Y158256D01*
X705800Y158037D01*
X706098Y157810D01*
X706390Y157577D01*
X706676Y157336D01*
X706957Y157088D01*
X707231Y156834D01*
X707498Y156572D01*
X707760Y156305D01*
X708014Y156031D01*
X708262Y155750D01*
X708503Y155464D01*
X708736Y155172D01*
X708963Y154874D01*
X709182Y154571D01*
X709394Y154263D01*
X709598Y153949D01*
X709794Y153631D01*
X709982Y153308D01*
X710162Y152980D01*
X710335Y152648D01*
X710499Y152312D01*
X710655Y151972D01*
X710802Y151628D01*
X710941Y151281D01*
X711071Y150930D01*
X711193Y150577D01*
X711306Y150220D01*
X711410Y149861D01*
X711505Y149499D01*
X711592Y149135D01*
X711669Y148769D01*
X711738Y148401D01*
X711797Y148032D01*
X711847Y147662D01*
X711889Y147290D01*
X711921Y146917D01*
X711944Y146544D01*
X711957Y146170D01*
X711962Y145796D01*
X711957Y145422D01*
X711944Y145048D01*
X711921Y144675D01*
X711889Y144302D01*
X711847Y143930D01*
X711797Y143560D01*
X711738Y143191D01*
X711669Y142823D01*
X711592Y142457D01*
X711505Y142093D01*
X711410Y141731D01*
X711306Y141372D01*
X711193Y141015D01*
X711071Y140662D01*
X710941Y140311D01*
X710802Y139964D01*
X710655Y139620D01*
X710499Y139280D01*
X710335Y138944D01*
X710162Y138612D01*
X709982Y138284D01*
X709794Y137961D01*
X709598Y137643D01*
X709394Y137329D01*
X709182Y137021D01*
X708963Y136718D01*
X708736Y136420D01*
X708503Y136128D01*
X708262Y135842D01*
X708014Y135561D01*
X707760Y135287D01*
X707498Y135020D01*
X707231Y134758D01*
X706957Y134504D01*
X706676Y134256D01*
X706390Y134015D01*
X706098Y133782D01*
X705800Y133555D01*
X705497Y133336D01*
X705189Y133124D01*
X704875Y132920D01*
X704557Y132724D01*
X704234Y132536D01*
X703906Y132356D01*
X703574Y132183D01*
X703238Y132019D01*
X702898Y131863D01*
X702554Y131716D01*
X702207Y131577D01*
X701856Y131447D01*
X701503Y131325D01*
X701146Y131212D01*
X700787Y131108D01*
X700425Y131013D01*
X700061Y130926D01*
X699695Y130849D01*
X699327Y130780D01*
X698958Y130721D01*
X698588Y130671D01*
X698216Y130629D01*
X697843Y130597D01*
X697470Y130574D01*
X697096Y130561D01*
X696722Y130556D01*
X696348Y130561D01*
X695974Y130574D01*
X695601Y130597D01*
X695228Y130629D01*
X694856Y130671D01*
X694486Y130721D01*
X694117Y130780D01*
X693749Y130849D01*
X693383Y130926D01*
X693019Y131013D01*
X692657Y131108D01*
X692298Y131212D01*
X691941Y131325D01*
X691588Y131447D01*
X691237Y131577D01*
X690890Y131716D01*
X690546Y131863D01*
X690206Y132019D01*
X689870Y132183D01*
X689538Y132356D01*
X689210Y132536D01*
X688887Y132724D01*
X688569Y132920D01*
X688255Y133124D01*
X687947Y133336D01*
X687644Y133555D01*
X687346Y133782D01*
X687054Y134015D01*
X686768Y134256D01*
X686487Y134504D01*
X686213Y134758D01*
X685946Y135020D01*
X685684Y135287D01*
X685430Y135561D01*
X685182Y135842D01*
X684941Y136128D01*
X684708Y136420D01*
X684481Y136718D01*
X684262Y137021D01*
X684050Y137329D01*
X683846Y137643D01*
X683650Y137961D01*
X683462Y138284D01*
X683282Y138612D01*
X683109Y138944D01*
X682945Y139280D01*
X682789Y139620D01*
X682642Y139964D01*
X682503Y140311D01*
X682373Y140662D01*
X682251Y141015D01*
X682138Y141372D01*
X682034Y141731D01*
X681939Y142093D01*
X681852Y142457D01*
X681775Y142823D01*
X681706Y143191D01*
X681647Y143560D01*
X681597Y143930D01*
X681555Y144302D01*
X681523Y144675D01*
X681500Y145048D01*
X681487Y145422D01*
X681482Y145796D01*
X681482Y780796D02*
X681487Y781170D01*
X681500Y781544D01*
X681523Y781917D01*
X681555Y782290D01*
X681597Y782662D01*
X681647Y783032D01*
X681706Y783401D01*
X681775Y783769D01*
X681852Y784135D01*
X681939Y784499D01*
X682034Y784861D01*
X682138Y785220D01*
X682251Y785577D01*
X682373Y785930D01*
X682503Y786281D01*
X682642Y786628D01*
X682789Y786972D01*
X682945Y787312D01*
X683109Y787648D01*
X683282Y787980D01*
X683462Y788308D01*
X683650Y788631D01*
X683846Y788949D01*
X684050Y789263D01*
X684262Y789571D01*
X684481Y789874D01*
X684708Y790172D01*
X684941Y790464D01*
X685182Y790750D01*
X685430Y791031D01*
X685684Y791305D01*
X685946Y791572D01*
X686213Y791834D01*
X686487Y792088D01*
X686768Y792336D01*
X687054Y792577D01*
X687346Y792810D01*
X687644Y793037D01*
X687947Y793256D01*
X688255Y793468D01*
X688569Y793672D01*
X688887Y793868D01*
X689210Y794056D01*
X689538Y794236D01*
X689870Y794409D01*
X690206Y794573D01*
X690546Y794729D01*
X690890Y794876D01*
X691237Y795015D01*
X691588Y795145D01*
X691941Y795267D01*
X692298Y795380D01*
X692657Y795484D01*
X693019Y795579D01*
X693383Y795666D01*
X693749Y795743D01*
X694117Y795812D01*
X694486Y795871D01*
X694856Y795921D01*
X695228Y795963D01*
X695601Y795995D01*
X695974Y796018D01*
X696348Y796031D01*
X696722Y796036D01*
X697096Y796031D01*
X697470Y796018D01*
X697843Y795995D01*
X698216Y795963D01*
X698588Y795921D01*
X698958Y795871D01*
X699327Y795812D01*
X699695Y795743D01*
X700061Y795666D01*
X700425Y795579D01*
X700787Y795484D01*
X701146Y795380D01*
X701503Y795267D01*
X701856Y795145D01*
X702207Y795015D01*
X702554Y794876D01*
X702898Y794729D01*
X703238Y794573D01*
X703574Y794409D01*
X703906Y794236D01*
X704234Y794056D01*
X704557Y793868D01*
X704875Y793672D01*
X705189Y793468D01*
X705497Y793256D01*
X705800Y793037D01*
X706098Y792810D01*
X706390Y792577D01*
X706676Y792336D01*
X706957Y792088D01*
X707231Y791834D01*
X707498Y791572D01*
X707760Y791305D01*
X708014Y791031D01*
X708262Y790750D01*
X708503Y790464D01*
X708736Y790172D01*
X708963Y789874D01*
X709182Y789571D01*
X709394Y789263D01*
X709598Y788949D01*
X709794Y788631D01*
X709982Y788308D01*
X710162Y787980D01*
X710335Y787648D01*
X710499Y787312D01*
X710655Y786972D01*
X710802Y786628D01*
X710941Y786281D01*
X711071Y785930D01*
X711193Y785577D01*
X711306Y785220D01*
X711410Y784861D01*
X711505Y784499D01*
X711592Y784135D01*
X711669Y783769D01*
X711738Y783401D01*
X711797Y783032D01*
X711847Y782662D01*
X711889Y782290D01*
X711921Y781917D01*
X711944Y781544D01*
X711957Y781170D01*
X711962Y780796D01*
X711957Y780422D01*
X711944Y780048D01*
X711921Y779675D01*
X711889Y779302D01*
X711847Y778930D01*
X711797Y778560D01*
X711738Y778191D01*
X711669Y777823D01*
X711592Y777457D01*
X711505Y777093D01*
X711410Y776731D01*
X711306Y776372D01*
X711193Y776015D01*
X711071Y775662D01*
X710941Y775311D01*
X710802Y774964D01*
X710655Y774620D01*
X710499Y774280D01*
X710335Y773944D01*
X710162Y773612D01*
X709982Y773284D01*
X709794Y772961D01*
X709598Y772643D01*
X709394Y772329D01*
X709182Y772021D01*
X708963Y771718D01*
X708736Y771420D01*
X708503Y771128D01*
X708262Y770842D01*
X708014Y770561D01*
X707760Y770287D01*
X707498Y770020D01*
X707231Y769758D01*
X706957Y769504D01*
X706676Y769256D01*
X706390Y769015D01*
X706098Y768782D01*
X705800Y768555D01*
X705497Y768336D01*
X705189Y768124D01*
X704875Y767920D01*
X704557Y767724D01*
X704234Y767536D01*
X703906Y767356D01*
X703574Y767183D01*
X703238Y767019D01*
X702898Y766863D01*
X702554Y766716D01*
X702207Y766577D01*
X701856Y766447D01*
X701503Y766325D01*
X701146Y766212D01*
X700787Y766108D01*
X700425Y766013D01*
X700061Y765926D01*
X699695Y765849D01*
X699327Y765780D01*
X698958Y765721D01*
X698588Y765671D01*
X698216Y765629D01*
X697843Y765597D01*
X697470Y765574D01*
X697096Y765561D01*
X696722Y765556D01*
X696348Y765561D01*
X695974Y765574D01*
X695601Y765597D01*
X695228Y765629D01*
X694856Y765671D01*
X694486Y765721D01*
X694117Y765780D01*
X693749Y765849D01*
X693383Y765926D01*
X693019Y766013D01*
X692657Y766108D01*
X692298Y766212D01*
X691941Y766325D01*
X691588Y766447D01*
X691237Y766577D01*
X690890Y766716D01*
X690546Y766863D01*
X690206Y767019D01*
X689870Y767183D01*
X689538Y767356D01*
X689210Y767536D01*
X688887Y767724D01*
X688569Y767920D01*
X688255Y768124D01*
X687947Y768336D01*
X687644Y768555D01*
X687346Y768782D01*
X687054Y769015D01*
X686768Y769256D01*
X686487Y769504D01*
X686213Y769758D01*
X685946Y770020D01*
X685684Y770287D01*
X685430Y770561D01*
X685182Y770842D01*
X684941Y771128D01*
X684708Y771420D01*
X684481Y771718D01*
X684262Y772021D01*
X684050Y772329D01*
X683846Y772643D01*
X683650Y772961D01*
X683462Y773284D01*
X683282Y773612D01*
X683109Y773944D01*
X682945Y774280D01*
X682789Y774620D01*
X682642Y774964D01*
X682503Y775311D01*
X682373Y775662D01*
X682251Y776015D01*
X682138Y776372D01*
X682034Y776731D01*
X681939Y777093D01*
X681852Y777457D01*
X681775Y777823D01*
X681706Y778191D01*
X681647Y778560D01*
X681597Y778930D01*
X681555Y779302D01*
X681523Y779675D01*
X681500Y780048D01*
X681487Y780422D01*
X681482Y780796D01*
X516382Y780796D02*
X516387Y781170D01*
X516400Y781544D01*
X516423Y781917D01*
X516455Y782290D01*
X516497Y782662D01*
X516547Y783032D01*
X516606Y783401D01*
X516675Y783769D01*
X516752Y784135D01*
X516839Y784499D01*
X516934Y784861D01*
X517038Y785220D01*
X517151Y785577D01*
X517273Y785930D01*
X517403Y786281D01*
X517542Y786628D01*
X517689Y786972D01*
X517845Y787312D01*
X518009Y787648D01*
X518182Y787980D01*
X518362Y788308D01*
X518550Y788631D01*
X518746Y788949D01*
X518950Y789263D01*
X519162Y789571D01*
X519381Y789874D01*
X519608Y790172D01*
X519841Y790464D01*
X520082Y790750D01*
X520330Y791031D01*
X520584Y791305D01*
X520846Y791572D01*
X521113Y791834D01*
X521387Y792088D01*
X521668Y792336D01*
X521954Y792577D01*
X522246Y792810D01*
X522544Y793037D01*
X522847Y793256D01*
X523155Y793468D01*
X523469Y793672D01*
X523787Y793868D01*
X524110Y794056D01*
X524438Y794236D01*
X524770Y794409D01*
X525106Y794573D01*
X525446Y794729D01*
X525790Y794876D01*
X526137Y795015D01*
X526488Y795145D01*
X526841Y795267D01*
X527198Y795380D01*
X527557Y795484D01*
X527919Y795579D01*
X528283Y795666D01*
X528649Y795743D01*
X529017Y795812D01*
X529386Y795871D01*
X529756Y795921D01*
X530128Y795963D01*
X530501Y795995D01*
X530874Y796018D01*
X531248Y796031D01*
X531622Y796036D01*
X531996Y796031D01*
X532370Y796018D01*
X532743Y795995D01*
X533116Y795963D01*
X533488Y795921D01*
X533858Y795871D01*
X534227Y795812D01*
X534595Y795743D01*
X534961Y795666D01*
X535325Y795579D01*
X535687Y795484D01*
X536046Y795380D01*
X536403Y795267D01*
X536756Y795145D01*
X537107Y795015D01*
X537454Y794876D01*
X537798Y794729D01*
X538138Y794573D01*
X538474Y794409D01*
X538806Y794236D01*
X539134Y794056D01*
X539457Y793868D01*
X539775Y793672D01*
X540089Y793468D01*
X540397Y793256D01*
X540700Y793037D01*
X540998Y792810D01*
X541290Y792577D01*
X541576Y792336D01*
X541857Y792088D01*
X542131Y791834D01*
X542398Y791572D01*
X542660Y791305D01*
X542914Y791031D01*
X543162Y790750D01*
X543403Y790464D01*
X543636Y790172D01*
X543863Y789874D01*
X544082Y789571D01*
X544294Y789263D01*
X544498Y788949D01*
X544694Y788631D01*
X544882Y788308D01*
X545062Y787980D01*
X545235Y787648D01*
X545399Y787312D01*
X545555Y786972D01*
X545702Y786628D01*
X545841Y786281D01*
X545971Y785930D01*
X546093Y785577D01*
X546206Y785220D01*
X546310Y784861D01*
X546405Y784499D01*
X546492Y784135D01*
X546569Y783769D01*
X546638Y783401D01*
X546697Y783032D01*
X546747Y782662D01*
X546789Y782290D01*
X546821Y781917D01*
X546844Y781544D01*
X546857Y781170D01*
X546862Y780796D01*
X546857Y780422D01*
X546844Y780048D01*
X546821Y779675D01*
X546789Y779302D01*
X546747Y778930D01*
X546697Y778560D01*
X546638Y778191D01*
X546569Y777823D01*
X546492Y777457D01*
X546405Y777093D01*
X546310Y776731D01*
X546206Y776372D01*
X546093Y776015D01*
X545971Y775662D01*
X545841Y775311D01*
X545702Y774964D01*
X545555Y774620D01*
X545399Y774280D01*
X545235Y773944D01*
X545062Y773612D01*
X544882Y773284D01*
X544694Y772961D01*
X544498Y772643D01*
X544294Y772329D01*
X544082Y772021D01*
X543863Y771718D01*
X543636Y771420D01*
X543403Y771128D01*
X543162Y770842D01*
X542914Y770561D01*
X542660Y770287D01*
X542398Y770020D01*
X542131Y769758D01*
X541857Y769504D01*
X541576Y769256D01*
X541290Y769015D01*
X540998Y768782D01*
X540700Y768555D01*
X540397Y768336D01*
X540089Y768124D01*
X539775Y767920D01*
X539457Y767724D01*
X539134Y767536D01*
X538806Y767356D01*
X538474Y767183D01*
X538138Y767019D01*
X537798Y766863D01*
X537454Y766716D01*
X537107Y766577D01*
X536756Y766447D01*
X536403Y766325D01*
X536046Y766212D01*
X535687Y766108D01*
X535325Y766013D01*
X534961Y765926D01*
X534595Y765849D01*
X534227Y765780D01*
X533858Y765721D01*
X533488Y765671D01*
X533116Y765629D01*
X532743Y765597D01*
X532370Y765574D01*
X531996Y765561D01*
X531622Y765556D01*
X531248Y765561D01*
X530874Y765574D01*
X530501Y765597D01*
X530128Y765629D01*
X529756Y765671D01*
X529386Y765721D01*
X529017Y765780D01*
X528649Y765849D01*
X528283Y765926D01*
X527919Y766013D01*
X527557Y766108D01*
X527198Y766212D01*
X526841Y766325D01*
X526488Y766447D01*
X526137Y766577D01*
X525790Y766716D01*
X525446Y766863D01*
X525106Y767019D01*
X524770Y767183D01*
X524438Y767356D01*
X524110Y767536D01*
X523787Y767724D01*
X523469Y767920D01*
X523155Y768124D01*
X522847Y768336D01*
X522544Y768555D01*
X522246Y768782D01*
X521954Y769015D01*
X521668Y769256D01*
X521387Y769504D01*
X521113Y769758D01*
X520846Y770020D01*
X520584Y770287D01*
X520330Y770561D01*
X520082Y770842D01*
X519841Y771128D01*
X519608Y771420D01*
X519381Y771718D01*
X519162Y772021D01*
X518950Y772329D01*
X518746Y772643D01*
X518550Y772961D01*
X518362Y773284D01*
X518182Y773612D01*
X518009Y773944D01*
X517845Y774280D01*
X517689Y774620D01*
X517542Y774964D01*
X517403Y775311D01*
X517273Y775662D01*
X517151Y776015D01*
X517038Y776372D01*
X516934Y776731D01*
X516839Y777093D01*
X516752Y777457D01*
X516675Y777823D01*
X516606Y778191D01*
X516547Y778560D01*
X516497Y778930D01*
X516455Y779302D01*
X516423Y779675D01*
X516400Y780048D01*
X516387Y780422D01*
X516382Y780796D01*
D12*
X499872Y114046D02*
X728472Y114046D01*
X728472Y812546D01*
X499872Y812546D01*
X499872Y114046D01*
D10*
X489712Y114046D02*
X510032Y114046D01*
X499872Y103886D02*
X499872Y124206D01*
D211*
X501650Y63500D02*
X514350Y63500D01*
X520700Y57150D01*
X520700Y44450D02*
X514350Y38100D01*
X476250Y63500D02*
X469900Y57150D01*
X476250Y63500D02*
X488950Y63500D01*
X495300Y57150D01*
X495300Y44450D02*
X488950Y38100D01*
X476250Y38100D01*
X469900Y44450D01*
X495300Y57150D02*
X501650Y63500D01*
X495300Y44450D02*
X501650Y38100D01*
X514350Y38100D01*
X438150Y63500D02*
X425450Y63500D01*
X438150Y63500D02*
X444500Y57150D01*
X444500Y44450D02*
X438150Y38100D01*
X444500Y57150D02*
X450850Y63500D01*
X463550Y63500D01*
X469900Y57150D01*
X469900Y44450D02*
X463550Y38100D01*
X450850Y38100D01*
X444500Y44450D01*
X400050Y63500D02*
X393700Y57150D01*
X400050Y63500D02*
X412750Y63500D01*
X419100Y57150D01*
X419100Y44450D02*
X412750Y38100D01*
X400050Y38100D01*
X393700Y44450D01*
X419100Y57150D02*
X425450Y63500D01*
X419100Y44450D02*
X425450Y38100D01*
X438150Y38100D01*
X361950Y63500D02*
X349250Y63500D01*
X361950Y63500D02*
X368300Y57150D01*
X368300Y44450D02*
X361950Y38100D01*
X368300Y57150D02*
X374650Y63500D01*
X387350Y63500D01*
X393700Y57150D01*
X393700Y44450D02*
X387350Y38100D01*
X374650Y38100D01*
X368300Y44450D01*
X342900Y44450D02*
X342900Y57150D01*
X349250Y63500D01*
X342900Y44450D02*
X349250Y38100D01*
X361950Y38100D01*
X527050Y63500D02*
X539750Y63500D01*
X546100Y57150D01*
X546100Y44450D02*
X539750Y38100D01*
X520700Y57150D02*
X527050Y63500D01*
X520700Y44450D02*
X527050Y38100D01*
X539750Y38100D01*
X552450Y63500D02*
X565150Y63500D01*
X571500Y57150D01*
X571500Y44450D02*
X565150Y38100D01*
X546100Y57150D02*
X552450Y63500D01*
X546100Y44450D02*
X552450Y38100D01*
X565150Y38100D01*
X577850Y63500D02*
X590550Y63500D01*
X596900Y57150D01*
X596900Y44450D01*
X590550Y38100D01*
X571500Y57150D02*
X577850Y63500D01*
X571500Y44450D02*
X577850Y38100D01*
X590550Y38100D01*
D12*
X344340Y65405D02*
X343535Y66210D01*
X344340Y65405D02*
X345145Y65405D01*
X345950Y66210D01*
X345950Y70235D01*
X345145Y70235D02*
X346755Y70235D01*
X349148Y68625D02*
X350758Y70235D01*
X350758Y65405D01*
X349148Y65405D02*
X352368Y65405D01*
D10*
X345440Y50800D02*
X365760Y50800D01*
X355600Y40640D02*
X355600Y60960D01*
D211*
X501650Y876300D02*
X514350Y876300D01*
X520700Y869950D01*
X520700Y857250D02*
X514350Y850900D01*
X476250Y876300D02*
X469900Y869950D01*
X476250Y876300D02*
X488950Y876300D01*
X495300Y869950D01*
X495300Y857250D02*
X488950Y850900D01*
X476250Y850900D01*
X469900Y857250D01*
X495300Y869950D02*
X501650Y876300D01*
X495300Y857250D02*
X501650Y850900D01*
X514350Y850900D01*
X438150Y876300D02*
X425450Y876300D01*
X438150Y876300D02*
X444500Y869950D01*
X444500Y857250D02*
X438150Y850900D01*
X444500Y869950D02*
X450850Y876300D01*
X463550Y876300D01*
X469900Y869950D01*
X469900Y857250D02*
X463550Y850900D01*
X450850Y850900D01*
X444500Y857250D01*
X400050Y876300D02*
X393700Y869950D01*
X400050Y876300D02*
X412750Y876300D01*
X419100Y869950D01*
X419100Y857250D02*
X412750Y850900D01*
X400050Y850900D01*
X393700Y857250D01*
X419100Y869950D02*
X425450Y876300D01*
X419100Y857250D02*
X425450Y850900D01*
X438150Y850900D01*
X361950Y876300D02*
X349250Y876300D01*
X361950Y876300D02*
X368300Y869950D01*
X368300Y857250D02*
X361950Y850900D01*
X368300Y869950D02*
X374650Y876300D01*
X387350Y876300D01*
X393700Y869950D01*
X393700Y857250D02*
X387350Y850900D01*
X374650Y850900D01*
X368300Y857250D01*
X342900Y857250D02*
X342900Y869950D01*
X349250Y876300D01*
X342900Y857250D02*
X349250Y850900D01*
X361950Y850900D01*
X527050Y876300D02*
X539750Y876300D01*
X546100Y869950D01*
X546100Y857250D02*
X539750Y850900D01*
X520700Y869950D02*
X527050Y876300D01*
X520700Y857250D02*
X527050Y850900D01*
X539750Y850900D01*
X552450Y876300D02*
X565150Y876300D01*
X571500Y869950D01*
X571500Y857250D02*
X565150Y850900D01*
X546100Y869950D02*
X552450Y876300D01*
X546100Y857250D02*
X552450Y850900D01*
X565150Y850900D01*
X577850Y876300D02*
X590550Y876300D01*
X596900Y869950D01*
X596900Y857250D01*
X590550Y850900D01*
X571500Y869950D02*
X577850Y876300D01*
X571500Y857250D02*
X577850Y850900D01*
X590550Y850900D01*
D12*
X344340Y878205D02*
X343535Y879010D01*
X344340Y878205D02*
X345145Y878205D01*
X345950Y879010D01*
X345950Y883035D01*
X345145Y883035D02*
X346755Y883035D01*
X349148Y878205D02*
X352368Y878205D01*
X349148Y878205D02*
X352368Y881425D01*
X352368Y882230D01*
X351563Y883035D01*
X349953Y883035D01*
X349148Y882230D01*
D10*
X345440Y863600D02*
X365760Y863600D01*
X355600Y853440D02*
X355600Y873760D01*
D12*
X266700Y279400D02*
X266700Y165100D01*
X342900Y165100D01*
X342900Y279400D01*
X266700Y279400D01*
X279400Y266700D02*
X279404Y267012D01*
X279415Y267323D01*
X279434Y267634D01*
X279461Y267945D01*
X279496Y268255D01*
X279537Y268563D01*
X279587Y268871D01*
X279644Y269178D01*
X279709Y269483D01*
X279781Y269786D01*
X279860Y270087D01*
X279947Y270387D01*
X280041Y270684D01*
X280142Y270979D01*
X280251Y271271D01*
X280367Y271560D01*
X280490Y271847D01*
X280619Y272130D01*
X280756Y272410D01*
X280900Y272687D01*
X281050Y272960D01*
X281207Y273229D01*
X281370Y273494D01*
X281540Y273756D01*
X281717Y274013D01*
X281899Y274265D01*
X282088Y274513D01*
X282283Y274757D01*
X282483Y274995D01*
X282690Y275229D01*
X282902Y275457D01*
X283120Y275680D01*
X283343Y275898D01*
X283571Y276110D01*
X283805Y276317D01*
X284043Y276517D01*
X284287Y276712D01*
X284535Y276901D01*
X284787Y277083D01*
X285044Y277260D01*
X285306Y277430D01*
X285571Y277593D01*
X285840Y277750D01*
X286113Y277900D01*
X286390Y278044D01*
X286670Y278181D01*
X286953Y278310D01*
X287240Y278433D01*
X287529Y278549D01*
X287821Y278658D01*
X288116Y278759D01*
X288413Y278853D01*
X288713Y278940D01*
X289014Y279019D01*
X289317Y279091D01*
X289622Y279156D01*
X289929Y279213D01*
X290237Y279263D01*
X290545Y279304D01*
X290855Y279339D01*
X291166Y279366D01*
X291477Y279385D01*
X291788Y279396D01*
X292100Y279400D01*
X292412Y279396D01*
X292723Y279385D01*
X293034Y279366D01*
X293345Y279339D01*
X293655Y279304D01*
X293963Y279263D01*
X294271Y279213D01*
X294578Y279156D01*
X294883Y279091D01*
X295186Y279019D01*
X295487Y278940D01*
X295787Y278853D01*
X296084Y278759D01*
X296379Y278658D01*
X296671Y278549D01*
X296960Y278433D01*
X297247Y278310D01*
X297530Y278181D01*
X297810Y278044D01*
X298087Y277900D01*
X298360Y277750D01*
X298629Y277593D01*
X298894Y277430D01*
X299156Y277260D01*
X299413Y277083D01*
X299665Y276901D01*
X299913Y276712D01*
X300157Y276517D01*
X300395Y276317D01*
X300629Y276110D01*
X300857Y275898D01*
X301080Y275680D01*
X301298Y275457D01*
X301510Y275229D01*
X301717Y274995D01*
X301917Y274757D01*
X302112Y274513D01*
X302301Y274265D01*
X302483Y274013D01*
X302660Y273756D01*
X302830Y273494D01*
X302993Y273229D01*
X303150Y272960D01*
X303300Y272687D01*
X303444Y272410D01*
X303581Y272130D01*
X303710Y271847D01*
X303833Y271560D01*
X303949Y271271D01*
X304058Y270979D01*
X304159Y270684D01*
X304253Y270387D01*
X304340Y270087D01*
X304419Y269786D01*
X304491Y269483D01*
X304556Y269178D01*
X304613Y268871D01*
X304663Y268563D01*
X304704Y268255D01*
X304739Y267945D01*
X304766Y267634D01*
X304785Y267323D01*
X304796Y267012D01*
X304800Y266700D01*
X304796Y266388D01*
X304785Y266077D01*
X304766Y265766D01*
X304739Y265455D01*
X304704Y265145D01*
X304663Y264837D01*
X304613Y264529D01*
X304556Y264222D01*
X304491Y263917D01*
X304419Y263614D01*
X304340Y263313D01*
X304253Y263013D01*
X304159Y262716D01*
X304058Y262421D01*
X303949Y262129D01*
X303833Y261840D01*
X303710Y261553D01*
X303581Y261270D01*
X303444Y260990D01*
X303300Y260713D01*
X303150Y260440D01*
X302993Y260171D01*
X302830Y259906D01*
X302660Y259644D01*
X302483Y259387D01*
X302301Y259135D01*
X302112Y258887D01*
X301917Y258643D01*
X301717Y258405D01*
X301510Y258171D01*
X301298Y257943D01*
X301080Y257720D01*
X300857Y257502D01*
X300629Y257290D01*
X300395Y257083D01*
X300157Y256883D01*
X299913Y256688D01*
X299665Y256499D01*
X299413Y256317D01*
X299156Y256140D01*
X298894Y255970D01*
X298629Y255807D01*
X298360Y255650D01*
X298087Y255500D01*
X297810Y255356D01*
X297530Y255219D01*
X297247Y255090D01*
X296960Y254967D01*
X296671Y254851D01*
X296379Y254742D01*
X296084Y254641D01*
X295787Y254547D01*
X295487Y254460D01*
X295186Y254381D01*
X294883Y254309D01*
X294578Y254244D01*
X294271Y254187D01*
X293963Y254137D01*
X293655Y254096D01*
X293345Y254061D01*
X293034Y254034D01*
X292723Y254015D01*
X292412Y254004D01*
X292100Y254000D01*
X291788Y254004D01*
X291477Y254015D01*
X291166Y254034D01*
X290855Y254061D01*
X290545Y254096D01*
X290237Y254137D01*
X289929Y254187D01*
X289622Y254244D01*
X289317Y254309D01*
X289014Y254381D01*
X288713Y254460D01*
X288413Y254547D01*
X288116Y254641D01*
X287821Y254742D01*
X287529Y254851D01*
X287240Y254967D01*
X286953Y255090D01*
X286670Y255219D01*
X286390Y255356D01*
X286113Y255500D01*
X285840Y255650D01*
X285571Y255807D01*
X285306Y255970D01*
X285044Y256140D01*
X284787Y256317D01*
X284535Y256499D01*
X284287Y256688D01*
X284043Y256883D01*
X283805Y257083D01*
X283571Y257290D01*
X283343Y257502D01*
X283120Y257720D01*
X282902Y257943D01*
X282690Y258171D01*
X282483Y258405D01*
X282283Y258643D01*
X282088Y258887D01*
X281899Y259135D01*
X281717Y259387D01*
X281540Y259644D01*
X281370Y259906D01*
X281207Y260171D01*
X281050Y260440D01*
X280900Y260713D01*
X280756Y260990D01*
X280619Y261270D01*
X280490Y261553D01*
X280367Y261840D01*
X280251Y262129D01*
X280142Y262421D01*
X280041Y262716D01*
X279947Y263013D01*
X279860Y263313D01*
X279781Y263614D01*
X279709Y263917D01*
X279644Y264222D01*
X279587Y264529D01*
X279537Y264837D01*
X279496Y265145D01*
X279461Y265455D01*
X279434Y265766D01*
X279415Y266077D01*
X279404Y266388D01*
X279400Y266700D01*
D10*
X276860Y177800D02*
X256540Y177800D01*
X266700Y167640D02*
X266700Y187960D01*
D11*
X472440Y278130D02*
X474980Y275590D01*
X474980Y181610D01*
X472440Y179070D01*
X472440Y278130D02*
X443230Y279400D01*
X443230Y177800D02*
X472440Y179070D01*
D216*
X468884Y183642D03*
D12*
X482084Y178435D02*
X489710Y178435D01*
X482084Y178435D02*
X480177Y180342D01*
X480177Y184155D01*
X482084Y186062D01*
X489710Y186062D01*
X491617Y184155D01*
X491617Y180342D01*
X489710Y178435D01*
X487804Y182248D02*
X491617Y186062D01*
X482084Y190129D02*
X480177Y192036D01*
X480177Y195849D01*
X482084Y197755D01*
X483991Y197755D01*
X485897Y195849D01*
X485897Y193942D01*
X485897Y195849D02*
X487804Y197755D01*
X489710Y197755D01*
X491617Y195849D01*
X491617Y192036D01*
X489710Y190129D01*
X495925Y178435D02*
X507365Y178435D01*
X495925Y178435D02*
X495925Y184155D01*
X497832Y186062D01*
X499739Y186062D01*
X501645Y184155D01*
X503552Y186062D01*
X505458Y186062D01*
X507365Y184155D01*
X507365Y178435D01*
X501645Y178435D02*
X501645Y184155D01*
X505458Y190129D02*
X495925Y190129D01*
X505458Y190129D02*
X507365Y192036D01*
X507365Y195849D01*
X505458Y197755D01*
X495925Y197755D01*
X495925Y201823D02*
X495925Y209449D01*
X497832Y209449D01*
X505458Y201823D01*
X507365Y201823D01*
X507365Y209449D01*
X499739Y213517D02*
X495925Y217330D01*
X507365Y217330D01*
X507365Y213517D02*
X507365Y221143D01*
X499739Y225211D02*
X495925Y229024D01*
X507365Y229024D01*
X507365Y225211D02*
X507365Y232837D01*
X507365Y236905D02*
X495925Y236905D01*
X495925Y242625D01*
X497832Y244531D01*
X499739Y244531D01*
X501645Y242625D01*
X503552Y244531D01*
X505458Y244531D01*
X507365Y242625D01*
X507365Y236905D01*
X501645Y236905D02*
X501645Y242625D01*
X503552Y248599D02*
X495925Y248599D01*
X503552Y248599D02*
X507365Y252412D01*
X503552Y256225D01*
X495925Y256225D01*
D217*
X435610Y228600D03*
D218*
X441960Y184785D03*
D219*
X441960Y215900D03*
X441960Y241300D03*
D218*
X441960Y272415D03*
D10*
X441960Y228600D02*
X421640Y228600D01*
X431800Y218440D02*
X431800Y238760D01*
D12*
X325750Y364490D02*
X283850Y364490D01*
D220*
X329420Y392660D02*
X328386Y392173D01*
X328105Y392748D01*
X327810Y393317D01*
X327501Y393877D01*
X327178Y394430D01*
X326842Y394975D01*
X326493Y395511D01*
X326130Y396039D01*
X325755Y396558D01*
X325367Y397067D01*
X324967Y397567D01*
X324554Y398056D01*
X324130Y398536D01*
X323694Y399005D01*
X323247Y399463D01*
X322788Y399910D01*
X322319Y400345D01*
X321839Y400769D01*
X321349Y401181D01*
X320850Y401581D01*
X320340Y401968D01*
X319821Y402343D01*
X319293Y402705D01*
X318756Y403054D01*
X318211Y403390D01*
X317658Y403712D01*
X317097Y404021D01*
X316528Y404315D01*
X315953Y404596D01*
X315371Y404862D01*
X314782Y405114D01*
X314188Y405352D01*
X313588Y405575D01*
X312982Y405783D01*
X312372Y405976D01*
X311757Y406155D01*
X311138Y406318D01*
X310515Y406466D01*
X309889Y406598D01*
X309260Y406715D01*
X308627Y406817D01*
X307993Y406903D01*
X307357Y406973D01*
X306719Y407028D01*
X306080Y407068D01*
X305440Y407091D01*
X304800Y407099D01*
X304160Y407091D01*
X303520Y407068D01*
X302881Y407028D01*
X302243Y406973D01*
X301607Y406903D01*
X300973Y406817D01*
X300340Y406715D01*
X299711Y406598D01*
X299085Y406466D01*
X298462Y406318D01*
X297843Y406155D01*
X297228Y405976D01*
X296618Y405783D01*
X296012Y405575D01*
X295412Y405352D01*
X294818Y405114D01*
X294229Y404862D01*
X293647Y404596D01*
X293072Y404315D01*
X292503Y404021D01*
X291942Y403712D01*
X291389Y403390D01*
X290844Y403054D01*
X290307Y402705D01*
X289779Y402343D01*
X289260Y401968D01*
X288750Y401581D01*
X288251Y401181D01*
X287761Y400769D01*
X287281Y400345D01*
X286812Y399910D01*
X286353Y399463D01*
X285906Y399005D01*
X285470Y398536D01*
X285046Y398056D01*
X284633Y397567D01*
X284233Y397067D01*
X283845Y396558D01*
X283470Y396039D01*
X283107Y395511D01*
X282758Y394975D01*
X282422Y394430D01*
X282099Y393877D01*
X281790Y393317D01*
X281495Y392748D01*
X281214Y392173D01*
X280180Y392660D01*
X280179Y392660D01*
X280473Y393261D01*
X280781Y393854D01*
X281104Y394439D01*
X281440Y395016D01*
X281791Y395585D01*
X282156Y396145D01*
X282534Y396696D01*
X282926Y397237D01*
X283331Y397769D01*
X283749Y398291D01*
X284179Y398802D01*
X284622Y399302D01*
X285077Y399792D01*
X285544Y400270D01*
X286022Y400736D01*
X286512Y401191D01*
X287013Y401634D01*
X287524Y402064D01*
X288046Y402481D01*
X288578Y402886D01*
X289120Y403277D01*
X289671Y403655D01*
X290231Y404019D01*
X290801Y404370D01*
X291378Y404706D01*
X291964Y405028D01*
X292557Y405336D01*
X293157Y405629D01*
X293765Y405907D01*
X294379Y406170D01*
X295000Y406418D01*
X295626Y406651D01*
X296258Y406868D01*
X296896Y407070D01*
X297537Y407256D01*
X298184Y407426D01*
X298834Y407581D01*
X299488Y407719D01*
X300145Y407841D01*
X300805Y407947D01*
X301467Y408037D01*
X302131Y408111D01*
X302797Y408168D01*
X303464Y408209D01*
X304132Y408234D01*
X304800Y408242D01*
X305468Y408234D01*
X306136Y408209D01*
X306803Y408168D01*
X307469Y408111D01*
X308133Y408037D01*
X308795Y407947D01*
X309455Y407841D01*
X310112Y407719D01*
X310766Y407581D01*
X311416Y407426D01*
X312063Y407256D01*
X312704Y407070D01*
X313342Y406868D01*
X313974Y406651D01*
X314600Y406418D01*
X315221Y406170D01*
X315835Y405907D01*
X316443Y405629D01*
X317043Y405336D01*
X317636Y405028D01*
X318222Y404706D01*
X318799Y404370D01*
X319369Y404019D01*
X319929Y403655D01*
X320480Y403277D01*
X321022Y402886D01*
X321554Y402481D01*
X322076Y402064D01*
X322587Y401634D01*
X323088Y401191D01*
X323578Y400736D01*
X324056Y400270D01*
X324523Y399792D01*
X324978Y399302D01*
X325421Y398802D01*
X325851Y398291D01*
X326269Y397769D01*
X326674Y397237D01*
X327066Y396696D01*
X327444Y396145D01*
X327809Y395585D01*
X328160Y395016D01*
X328496Y394439D01*
X328819Y393854D01*
X329127Y393261D01*
X329421Y392660D01*
X329312Y392609D01*
X329020Y393207D01*
X328713Y393797D01*
X328392Y394380D01*
X328057Y394955D01*
X327707Y395521D01*
X327344Y396078D01*
X326968Y396627D01*
X326578Y397166D01*
X326175Y397695D01*
X325759Y398215D01*
X325330Y398724D01*
X324889Y399222D01*
X324436Y399709D01*
X323971Y400185D01*
X323495Y400650D01*
X323007Y401102D01*
X322509Y401543D01*
X321999Y401971D01*
X321480Y402387D01*
X320950Y402789D01*
X320411Y403179D01*
X319862Y403555D01*
X319304Y403918D01*
X318738Y404267D01*
X318163Y404602D01*
X317580Y404922D01*
X316989Y405229D01*
X316391Y405520D01*
X315786Y405797D01*
X315175Y406059D01*
X314557Y406306D01*
X313933Y406538D01*
X313304Y406754D01*
X312670Y406955D01*
X312031Y407140D01*
X311387Y407310D01*
X310740Y407464D01*
X310089Y407601D01*
X309435Y407723D01*
X308778Y407829D01*
X308118Y407918D01*
X307457Y407992D01*
X306794Y408049D01*
X306130Y408089D01*
X305465Y408114D01*
X304800Y408122D01*
X304135Y408114D01*
X303470Y408089D01*
X302806Y408049D01*
X302143Y407992D01*
X301482Y407918D01*
X300822Y407829D01*
X300165Y407723D01*
X299511Y407601D01*
X298860Y407464D01*
X298213Y407310D01*
X297569Y407140D01*
X296930Y406955D01*
X296296Y406754D01*
X295667Y406538D01*
X295043Y406306D01*
X294425Y406059D01*
X293814Y405797D01*
X293209Y405520D01*
X292611Y405229D01*
X292020Y404922D01*
X291437Y404602D01*
X290862Y404267D01*
X290296Y403918D01*
X289738Y403555D01*
X289189Y403179D01*
X288650Y402789D01*
X288120Y402387D01*
X287601Y401971D01*
X287091Y401543D01*
X286593Y401102D01*
X286105Y400650D01*
X285629Y400185D01*
X285164Y399709D01*
X284711Y399222D01*
X284270Y398724D01*
X283841Y398215D01*
X283425Y397695D01*
X283022Y397166D01*
X282632Y396627D01*
X282256Y396078D01*
X281893Y395521D01*
X281543Y394955D01*
X281208Y394380D01*
X280887Y393797D01*
X280580Y393207D01*
X280288Y392609D01*
X280397Y392558D01*
X280687Y393153D01*
X280993Y393741D01*
X281313Y394321D01*
X281646Y394893D01*
X281994Y395457D01*
X282356Y396012D01*
X282731Y396558D01*
X283119Y397095D01*
X283520Y397622D01*
X283934Y398139D01*
X284361Y398645D01*
X284800Y399141D01*
X285251Y399626D01*
X285714Y400100D01*
X286188Y400563D01*
X286674Y401013D01*
X287170Y401452D01*
X287677Y401878D01*
X288194Y402292D01*
X288721Y402693D01*
X289258Y403081D01*
X289805Y403456D01*
X290360Y403817D01*
X290924Y404164D01*
X291496Y404497D01*
X292077Y404817D01*
X292665Y405122D01*
X293260Y405412D01*
X293863Y405688D01*
X294471Y405949D01*
X295086Y406194D01*
X295707Y406425D01*
X296334Y406640D01*
X296965Y406840D01*
X297602Y407025D01*
X298242Y407194D01*
X298887Y407347D01*
X299535Y407484D01*
X300186Y407605D01*
X300840Y407710D01*
X301496Y407799D01*
X302155Y407872D01*
X302815Y407929D01*
X303476Y407970D01*
X304138Y407994D01*
X304800Y408002D01*
X305462Y407994D01*
X306124Y407970D01*
X306785Y407929D01*
X307445Y407872D01*
X308104Y407799D01*
X308760Y407710D01*
X309414Y407605D01*
X310065Y407484D01*
X310713Y407347D01*
X311358Y407194D01*
X311998Y407025D01*
X312635Y406840D01*
X313266Y406640D01*
X313893Y406425D01*
X314514Y406194D01*
X315129Y405949D01*
X315737Y405688D01*
X316340Y405412D01*
X316935Y405122D01*
X317523Y404817D01*
X318104Y404497D01*
X318676Y404164D01*
X319240Y403817D01*
X319795Y403456D01*
X320342Y403081D01*
X320879Y402693D01*
X321406Y402292D01*
X321923Y401878D01*
X322430Y401452D01*
X322926Y401013D01*
X323412Y400563D01*
X323886Y400100D01*
X324349Y399626D01*
X324800Y399141D01*
X325239Y398645D01*
X325666Y398139D01*
X326080Y397622D01*
X326481Y397095D01*
X326869Y396558D01*
X327244Y396012D01*
X327606Y395457D01*
X327954Y394893D01*
X328287Y394321D01*
X328607Y393741D01*
X328913Y393153D01*
X329203Y392558D01*
X329095Y392507D01*
X328805Y393099D01*
X328501Y393684D01*
X328183Y394262D01*
X327851Y394832D01*
X327504Y395393D01*
X327144Y395945D01*
X326771Y396489D01*
X326385Y397023D01*
X325985Y397548D01*
X325573Y398063D01*
X325148Y398567D01*
X324711Y399061D01*
X324262Y399544D01*
X323801Y400016D01*
X323329Y400476D01*
X322846Y400925D01*
X322352Y401361D01*
X321847Y401786D01*
X321332Y402198D01*
X320807Y402597D01*
X320272Y402983D01*
X319728Y403356D01*
X319176Y403715D01*
X318614Y404061D01*
X318044Y404393D01*
X317466Y404711D01*
X316881Y405014D01*
X316288Y405303D01*
X315689Y405578D01*
X315083Y405838D01*
X314470Y406082D01*
X313852Y406312D01*
X313228Y406527D01*
X312600Y406726D01*
X311966Y406909D01*
X311329Y407077D01*
X310687Y407229D01*
X310042Y407366D01*
X309394Y407487D01*
X308743Y407591D01*
X308089Y407680D01*
X307434Y407753D01*
X306777Y407809D01*
X306118Y407850D01*
X305459Y407874D01*
X304800Y407882D01*
X304141Y407874D01*
X303482Y407850D01*
X302823Y407809D01*
X302166Y407753D01*
X301511Y407680D01*
X300857Y407591D01*
X300206Y407487D01*
X299558Y407366D01*
X298913Y407229D01*
X298271Y407077D01*
X297634Y406909D01*
X297000Y406726D01*
X296372Y406527D01*
X295748Y406312D01*
X295130Y406082D01*
X294517Y405838D01*
X293911Y405578D01*
X293312Y405303D01*
X292719Y405014D01*
X292134Y404711D01*
X291556Y404393D01*
X290986Y404061D01*
X290424Y403715D01*
X289872Y403356D01*
X289328Y402983D01*
X288793Y402597D01*
X288268Y402198D01*
X287753Y401786D01*
X287248Y401361D01*
X286754Y400925D01*
X286271Y400476D01*
X285799Y400016D01*
X285338Y399544D01*
X284889Y399061D01*
X284452Y398567D01*
X284027Y398063D01*
X283615Y397548D01*
X283215Y397023D01*
X282829Y396489D01*
X282456Y395945D01*
X282096Y395393D01*
X281749Y394832D01*
X281417Y394262D01*
X281099Y393684D01*
X280795Y393099D01*
X280505Y392507D01*
X280614Y392456D01*
X280902Y393045D01*
X281205Y393628D01*
X281522Y394203D01*
X281852Y394770D01*
X282197Y395329D01*
X282555Y395879D01*
X282927Y396420D01*
X283312Y396952D01*
X283710Y397474D01*
X284120Y397987D01*
X284543Y398489D01*
X284978Y398980D01*
X285425Y399461D01*
X285884Y399931D01*
X286354Y400389D01*
X286835Y400836D01*
X287327Y401271D01*
X287829Y401693D01*
X288342Y402103D01*
X288865Y402500D01*
X289397Y402885D01*
X289938Y403256D01*
X290489Y403614D01*
X291048Y403958D01*
X291615Y404289D01*
X292190Y404605D01*
X292773Y404907D01*
X293363Y405195D01*
X293960Y405468D01*
X294563Y405727D01*
X295173Y405970D01*
X295788Y406199D01*
X296409Y406413D01*
X297035Y406611D01*
X297666Y406794D01*
X298300Y406961D01*
X298939Y407112D01*
X299582Y407248D01*
X300227Y407368D01*
X300875Y407473D01*
X301526Y407561D01*
X302178Y407633D01*
X302832Y407690D01*
X303487Y407730D01*
X304144Y407754D01*
X304800Y407762D01*
X305456Y407754D01*
X306113Y407730D01*
X306768Y407690D01*
X307422Y407633D01*
X308074Y407561D01*
X308725Y407473D01*
X309373Y407368D01*
X310018Y407248D01*
X310661Y407112D01*
X311300Y406961D01*
X311934Y406794D01*
X312565Y406611D01*
X313191Y406413D01*
X313812Y406199D01*
X314427Y405970D01*
X315037Y405727D01*
X315640Y405468D01*
X316237Y405195D01*
X316827Y404907D01*
X317410Y404605D01*
X317985Y404289D01*
X318552Y403958D01*
X319111Y403614D01*
X319662Y403256D01*
X320203Y402885D01*
X320735Y402500D01*
X321258Y402103D01*
X321771Y401693D01*
X322273Y401271D01*
X322765Y400836D01*
X323246Y400389D01*
X323716Y399931D01*
X324175Y399461D01*
X324622Y398980D01*
X325057Y398489D01*
X325480Y397987D01*
X325890Y397474D01*
X326288Y396952D01*
X326673Y396420D01*
X327045Y395879D01*
X327403Y395329D01*
X327748Y394770D01*
X328078Y394203D01*
X328395Y393628D01*
X328698Y393045D01*
X328986Y392456D01*
X328878Y392405D01*
X328591Y392992D01*
X328289Y393572D01*
X327974Y394144D01*
X327645Y394709D01*
X327301Y395265D01*
X326945Y395812D01*
X326575Y396351D01*
X326192Y396881D01*
X325796Y397401D01*
X325387Y397911D01*
X324966Y398411D01*
X324533Y398900D01*
X324088Y399379D01*
X323631Y399846D01*
X323163Y400302D01*
X322684Y400747D01*
X322195Y401180D01*
X321694Y401600D01*
X321184Y402009D01*
X320664Y402404D01*
X320134Y402787D01*
X319595Y403156D01*
X319047Y403513D01*
X318491Y403855D01*
X317926Y404184D01*
X317353Y404499D01*
X316773Y404800D01*
X316186Y405087D01*
X315591Y405359D01*
X314991Y405616D01*
X314384Y405859D01*
X313771Y406086D01*
X313153Y406299D01*
X312530Y406496D01*
X311902Y406678D01*
X311270Y406844D01*
X310634Y406995D01*
X309995Y407131D01*
X309353Y407250D01*
X308707Y407354D01*
X308060Y407442D01*
X307410Y407514D01*
X306759Y407570D01*
X306107Y407610D01*
X305454Y407634D01*
X304800Y407642D01*
X304146Y407634D01*
X303493Y407610D01*
X302841Y407570D01*
X302190Y407514D01*
X301540Y407442D01*
X300893Y407354D01*
X300247Y407250D01*
X299605Y407131D01*
X298966Y406995D01*
X298330Y406844D01*
X297698Y406678D01*
X297070Y406496D01*
X296447Y406299D01*
X295829Y406086D01*
X295216Y405859D01*
X294609Y405616D01*
X294009Y405359D01*
X293414Y405087D01*
X292827Y404800D01*
X292247Y404499D01*
X291674Y404184D01*
X291109Y403855D01*
X290553Y403513D01*
X290005Y403156D01*
X289466Y402787D01*
X288936Y402404D01*
X288416Y402009D01*
X287906Y401600D01*
X287405Y401180D01*
X286916Y400747D01*
X286437Y400302D01*
X285969Y399846D01*
X285512Y399379D01*
X285067Y398900D01*
X284634Y398411D01*
X284213Y397911D01*
X283804Y397401D01*
X283408Y396881D01*
X283025Y396351D01*
X282655Y395812D01*
X282299Y395265D01*
X281955Y394709D01*
X281626Y394144D01*
X281311Y393572D01*
X281009Y392992D01*
X280722Y392405D01*
X280831Y392353D01*
X281117Y392938D01*
X281417Y393515D01*
X281731Y394085D01*
X282058Y394647D01*
X282400Y395201D01*
X282755Y395746D01*
X283123Y396282D01*
X283505Y396809D01*
X283899Y397327D01*
X284306Y397835D01*
X284725Y398332D01*
X285156Y398819D01*
X285599Y399296D01*
X286054Y399761D01*
X286519Y400216D01*
X286996Y400658D01*
X287484Y401089D01*
X287982Y401508D01*
X288490Y401914D01*
X289008Y402308D01*
X289535Y402689D01*
X290072Y403057D01*
X290617Y403411D01*
X291171Y403752D01*
X291733Y404080D01*
X292303Y404393D01*
X292881Y404693D01*
X293466Y404978D01*
X294057Y405249D01*
X294655Y405505D01*
X295260Y405747D01*
X295869Y405973D01*
X296485Y406185D01*
X297105Y406381D01*
X297730Y406562D01*
X298359Y406728D01*
X298992Y406878D01*
X299628Y407013D01*
X300268Y407132D01*
X300910Y407235D01*
X301555Y407323D01*
X302202Y407394D01*
X302850Y407450D01*
X303499Y407490D01*
X304149Y407514D01*
X304800Y407522D01*
X305451Y407514D01*
X306101Y407490D01*
X306750Y407450D01*
X307398Y407394D01*
X308045Y407323D01*
X308690Y407235D01*
X309332Y407132D01*
X309972Y407013D01*
X310608Y406878D01*
X311241Y406728D01*
X311870Y406562D01*
X312495Y406381D01*
X313115Y406185D01*
X313731Y405973D01*
X314340Y405747D01*
X314945Y405505D01*
X315543Y405249D01*
X316134Y404978D01*
X316719Y404693D01*
X317297Y404393D01*
X317867Y404080D01*
X318429Y403752D01*
X318983Y403411D01*
X319528Y403057D01*
X320065Y402689D01*
X320592Y402308D01*
X321110Y401914D01*
X321618Y401508D01*
X322116Y401089D01*
X322604Y400658D01*
X323081Y400216D01*
X323546Y399761D01*
X324001Y399296D01*
X324444Y398819D01*
X324875Y398332D01*
X325294Y397835D01*
X325701Y397327D01*
X326095Y396809D01*
X326477Y396282D01*
X326845Y395746D01*
X327200Y395201D01*
X327542Y394647D01*
X327869Y394085D01*
X328183Y393515D01*
X328483Y392938D01*
X328769Y392353D01*
X328660Y392302D01*
X328376Y392884D01*
X328077Y393459D01*
X327765Y394026D01*
X327438Y394585D01*
X327098Y395137D01*
X326745Y395679D01*
X326378Y396213D01*
X325999Y396738D01*
X325606Y397253D01*
X325201Y397759D01*
X324784Y398254D01*
X324355Y398739D01*
X323914Y399213D01*
X323461Y399677D01*
X322998Y400129D01*
X322523Y400569D01*
X322038Y400998D01*
X321542Y401415D01*
X321036Y401820D01*
X320521Y402212D01*
X319996Y402591D01*
X319461Y402957D01*
X318918Y403310D01*
X318367Y403650D01*
X317807Y403976D01*
X317240Y404288D01*
X316665Y404586D01*
X316083Y404870D01*
X315494Y405139D01*
X314899Y405394D01*
X314297Y405635D01*
X313690Y405860D01*
X313078Y406071D01*
X312460Y406266D01*
X311838Y406447D01*
X311212Y406612D01*
X310582Y406761D01*
X309948Y406895D01*
X309311Y407014D01*
X308672Y407117D01*
X308030Y407204D01*
X307387Y407275D01*
X306741Y407331D01*
X306095Y407370D01*
X305448Y407394D01*
X304800Y407402D01*
X304152Y407394D01*
X303505Y407370D01*
X302859Y407331D01*
X302213Y407275D01*
X301570Y407204D01*
X300928Y407117D01*
X300289Y407014D01*
X299652Y406895D01*
X299018Y406761D01*
X298388Y406612D01*
X297762Y406447D01*
X297140Y406266D01*
X296522Y406071D01*
X295910Y405860D01*
X295303Y405635D01*
X294701Y405394D01*
X294106Y405139D01*
X293517Y404870D01*
X292935Y404586D01*
X292360Y404288D01*
X291793Y403976D01*
X291233Y403650D01*
X290682Y403310D01*
X290139Y402957D01*
X289604Y402591D01*
X289079Y402212D01*
X288564Y401820D01*
X288058Y401415D01*
X287562Y400998D01*
X287077Y400569D01*
X286602Y400129D01*
X286139Y399677D01*
X285686Y399213D01*
X285245Y398739D01*
X284816Y398254D01*
X284399Y397759D01*
X283994Y397253D01*
X283601Y396738D01*
X283222Y396213D01*
X282855Y395679D01*
X282502Y395137D01*
X282162Y394585D01*
X281835Y394026D01*
X281523Y393459D01*
X281224Y392884D01*
X280940Y392302D01*
X281048Y392251D01*
X281331Y392830D01*
X281628Y393403D01*
X281940Y393967D01*
X282265Y394524D01*
X282603Y395073D01*
X282955Y395613D01*
X283320Y396144D01*
X283698Y396667D01*
X284088Y397179D01*
X284492Y397683D01*
X284907Y398176D01*
X285334Y398659D01*
X285773Y399131D01*
X286224Y399592D01*
X286685Y400042D01*
X287158Y400481D01*
X287641Y400907D01*
X288134Y401322D01*
X288638Y401725D01*
X289151Y402115D01*
X289674Y402493D01*
X290205Y402857D01*
X290746Y403209D01*
X291295Y403547D01*
X291852Y403871D01*
X292417Y404182D01*
X292989Y404479D01*
X293569Y404761D01*
X294155Y405030D01*
X294747Y405283D01*
X295346Y405523D01*
X295950Y405747D01*
X296560Y405957D01*
X297175Y406151D01*
X297794Y406331D01*
X298417Y406495D01*
X299045Y406644D01*
X299675Y406778D01*
X300309Y406895D01*
X300946Y406998D01*
X301584Y407085D01*
X302225Y407156D01*
X302868Y407211D01*
X303511Y407250D01*
X304155Y407274D01*
X304800Y407282D01*
X305445Y407274D01*
X306089Y407250D01*
X306732Y407211D01*
X307375Y407156D01*
X308016Y407085D01*
X308654Y406998D01*
X309291Y406895D01*
X309925Y406778D01*
X310555Y406644D01*
X311183Y406495D01*
X311806Y406331D01*
X312425Y406151D01*
X313040Y405957D01*
X313650Y405747D01*
X314254Y405523D01*
X314853Y405283D01*
X315445Y405030D01*
X316031Y404761D01*
X316611Y404479D01*
X317183Y404182D01*
X317748Y403871D01*
X318305Y403547D01*
X318854Y403209D01*
X319395Y402857D01*
X319926Y402493D01*
X320449Y402115D01*
X320962Y401725D01*
X321466Y401322D01*
X321959Y400907D01*
X322442Y400481D01*
X322915Y400042D01*
X323376Y399592D01*
X323827Y399131D01*
X324266Y398659D01*
X324693Y398176D01*
X325108Y397683D01*
X325512Y397179D01*
X325902Y396667D01*
X326280Y396144D01*
X326645Y395613D01*
X326997Y395073D01*
X327335Y394524D01*
X327660Y393967D01*
X327972Y393403D01*
X328269Y392830D01*
X328552Y392251D01*
X328443Y392200D01*
X328162Y392777D01*
X327866Y393346D01*
X327556Y393908D01*
X327232Y394462D01*
X326895Y395009D01*
X326545Y395546D01*
X326182Y396075D01*
X325806Y396595D01*
X325417Y397106D01*
X325016Y397607D01*
X324602Y398097D01*
X324177Y398578D01*
X323740Y399048D01*
X323291Y399507D01*
X322832Y399955D01*
X322362Y400392D01*
X321881Y400817D01*
X321389Y401230D01*
X320888Y401630D01*
X320377Y402019D01*
X319857Y402395D01*
X319328Y402758D01*
X318790Y403107D01*
X318243Y403444D01*
X317689Y403767D01*
X317127Y404076D01*
X316557Y404371D01*
X315980Y404653D01*
X315397Y404920D01*
X314807Y405173D01*
X314211Y405411D01*
X313609Y405634D01*
X313002Y405843D01*
X312390Y406037D01*
X311774Y406215D01*
X311153Y406379D01*
X310529Y406527D01*
X309901Y406660D01*
X309270Y406777D01*
X308637Y406879D01*
X308001Y406965D01*
X307363Y407036D01*
X306724Y407091D01*
X306083Y407131D01*
X305442Y407154D01*
X304800Y407162D01*
X304158Y407154D01*
X303517Y407131D01*
X302876Y407091D01*
X302237Y407036D01*
X301599Y406965D01*
X300963Y406879D01*
X300330Y406777D01*
X299699Y406660D01*
X299071Y406527D01*
X298447Y406379D01*
X297826Y406215D01*
X297210Y406037D01*
X296598Y405843D01*
X295991Y405634D01*
X295389Y405411D01*
X294793Y405173D01*
X294203Y404920D01*
X293620Y404653D01*
X293043Y404371D01*
X292473Y404076D01*
X291911Y403767D01*
X291357Y403444D01*
X290810Y403107D01*
X290272Y402758D01*
X289743Y402395D01*
X289223Y402019D01*
X288712Y401630D01*
X288211Y401230D01*
X287719Y400817D01*
X287238Y400392D01*
X286768Y399955D01*
X286309Y399507D01*
X285860Y399048D01*
X285423Y398578D01*
X284998Y398097D01*
X284584Y397607D01*
X284183Y397106D01*
X283794Y396595D01*
X283418Y396075D01*
X283055Y395546D01*
X282705Y395009D01*
X282368Y394462D01*
X282044Y393908D01*
X281734Y393346D01*
X281438Y392777D01*
X281157Y392200D01*
X280175Y369341D02*
X281210Y369827D01*
X281209Y369827D02*
X281464Y369304D01*
X281730Y368788D01*
X282008Y368277D01*
X282297Y367773D01*
X282597Y367275D01*
X282908Y366784D01*
X283230Y366300D01*
X283563Y365824D01*
X283906Y365355D01*
X284259Y364894D01*
X283362Y364186D01*
X282992Y364668D01*
X282634Y365158D01*
X282286Y365656D01*
X281950Y366161D01*
X281625Y366674D01*
X281311Y367194D01*
X281009Y367721D01*
X280719Y368254D01*
X280441Y368794D01*
X280175Y369340D01*
X280283Y369391D01*
X280548Y368848D01*
X280825Y368310D01*
X281114Y367779D01*
X281415Y367255D01*
X281727Y366737D01*
X282050Y366227D01*
X282385Y365723D01*
X282731Y365228D01*
X283088Y364740D01*
X283456Y364260D01*
X283550Y364335D01*
X283184Y364812D01*
X282829Y365298D01*
X282484Y365791D01*
X282151Y366292D01*
X281829Y366800D01*
X281518Y367316D01*
X281219Y367838D01*
X280931Y368366D01*
X280656Y368901D01*
X280392Y369442D01*
X280501Y369493D01*
X280763Y368955D01*
X281037Y368422D01*
X281324Y367896D01*
X281621Y367376D01*
X281931Y366863D01*
X282251Y366358D01*
X282583Y365859D01*
X282926Y365368D01*
X283280Y364884D01*
X283645Y364409D01*
X283739Y364483D01*
X283376Y364956D01*
X283024Y365438D01*
X282682Y365927D01*
X282352Y366423D01*
X282033Y366927D01*
X281725Y367437D01*
X281428Y367955D01*
X281144Y368478D01*
X280870Y369008D01*
X280609Y369545D01*
X280718Y369596D01*
X280978Y369062D01*
X281250Y368534D01*
X281533Y368013D01*
X281828Y367498D01*
X282135Y366990D01*
X282453Y366488D01*
X282782Y365994D01*
X283121Y365508D01*
X283472Y365029D01*
X283833Y364557D01*
X283927Y364632D01*
X283568Y365101D01*
X283219Y365577D01*
X282881Y366062D01*
X282553Y366554D01*
X282237Y367053D01*
X281932Y367559D01*
X281638Y368071D01*
X281356Y368590D01*
X281085Y369116D01*
X280826Y369647D01*
X280935Y369698D01*
X281193Y369169D01*
X281462Y368646D01*
X281743Y368130D01*
X282035Y367620D01*
X282339Y367116D01*
X282654Y366619D01*
X282980Y366130D01*
X283316Y365647D01*
X283664Y365173D01*
X284021Y364706D01*
X284116Y364780D01*
X283760Y365245D01*
X283414Y365717D01*
X283079Y366197D01*
X282755Y366685D01*
X282441Y367179D01*
X282139Y367680D01*
X281848Y368188D01*
X281568Y368702D01*
X281300Y369223D01*
X281043Y369749D01*
X281152Y369800D01*
X281407Y369276D01*
X281674Y368758D01*
X281953Y368247D01*
X282242Y367741D01*
X282543Y367242D01*
X282855Y366750D01*
X283178Y366265D01*
X283511Y365787D01*
X283856Y365317D01*
X284210Y364855D01*
D12*
X290760Y379730D02*
X293440Y379730D01*
X316160Y379730D02*
X318840Y379730D01*
D220*
X326238Y364186D02*
X325340Y364894D01*
X325341Y364894D02*
X325710Y365376D01*
X326068Y365866D01*
X326414Y366365D01*
X326749Y366872D01*
X327071Y367386D01*
X327382Y367908D01*
X327681Y368436D01*
X327967Y368972D01*
X328240Y369514D01*
X328501Y370062D01*
X329540Y369586D01*
X329268Y369013D01*
X328982Y368447D01*
X328683Y367887D01*
X328371Y367335D01*
X328046Y366790D01*
X327709Y366252D01*
X327360Y365723D01*
X326998Y365202D01*
X326624Y364690D01*
X326238Y364186D01*
X326144Y364260D01*
X326528Y364762D01*
X326900Y365272D01*
X327260Y365790D01*
X327608Y366317D01*
X327944Y366852D01*
X328267Y367395D01*
X328578Y367945D01*
X328875Y368502D01*
X329160Y369066D01*
X329431Y369636D01*
X329322Y369686D01*
X329052Y369118D01*
X328769Y368557D01*
X328472Y368003D01*
X328163Y367455D01*
X327842Y366915D01*
X327508Y366382D01*
X327161Y365858D01*
X326802Y365342D01*
X326432Y364834D01*
X326050Y364335D01*
X325955Y364409D01*
X326336Y364906D01*
X326705Y365411D01*
X327062Y365925D01*
X327407Y366447D01*
X327739Y366978D01*
X328060Y367515D01*
X328367Y368060D01*
X328662Y368612D01*
X328944Y369171D01*
X329213Y369736D01*
X329104Y369786D01*
X328836Y369224D01*
X328555Y368667D01*
X328262Y368118D01*
X327956Y367575D01*
X327637Y367040D01*
X327306Y366512D01*
X326962Y365993D01*
X326607Y365481D01*
X326240Y364978D01*
X325861Y364483D01*
X325767Y364557D01*
X326144Y365050D01*
X326509Y365551D01*
X326863Y366060D01*
X327205Y366577D01*
X327535Y367103D01*
X327852Y367636D01*
X328157Y368176D01*
X328449Y368722D01*
X328728Y369276D01*
X328995Y369836D01*
X328886Y369886D01*
X328620Y369329D01*
X328342Y368778D01*
X328051Y368233D01*
X327748Y367696D01*
X327432Y367165D01*
X327104Y366642D01*
X326764Y366127D01*
X326412Y365620D01*
X326048Y365122D01*
X325673Y364632D01*
X325579Y364706D01*
X325952Y365194D01*
X326314Y365690D01*
X326665Y366195D01*
X327003Y366708D01*
X327330Y367228D01*
X327644Y367756D01*
X327946Y368291D01*
X328236Y368833D01*
X328513Y369381D01*
X328777Y369936D01*
X328667Y369986D01*
X328405Y369434D01*
X328129Y368888D01*
X327841Y368349D01*
X327540Y367816D01*
X327227Y367291D01*
X326902Y366773D01*
X326565Y366262D01*
X326217Y365760D01*
X325856Y365266D01*
X325484Y364780D01*
X325390Y364855D01*
X325760Y365338D01*
X326119Y365830D01*
X326466Y366330D01*
X326802Y366838D01*
X327125Y367353D01*
X327437Y367876D01*
X327736Y368406D01*
X328023Y368943D01*
X328297Y369487D01*
X328558Y370036D01*
D12*
X280035Y414022D02*
X280035Y421648D01*
X281942Y423555D01*
X285755Y423555D01*
X287662Y421648D01*
X287662Y414022D01*
X285755Y412115D01*
X281942Y412115D01*
X280035Y414022D01*
X283848Y415928D02*
X287662Y412115D01*
X291729Y419742D02*
X295542Y423555D01*
X295542Y412115D01*
X291729Y412115D02*
X299355Y412115D01*
X287662Y348615D02*
X280035Y348615D01*
X287662Y356242D01*
X287662Y358148D01*
X285755Y360055D01*
X281942Y360055D01*
X280035Y358148D01*
X291729Y360055D02*
X291729Y348615D01*
X299355Y348615D02*
X291729Y360055D01*
X299355Y360055D02*
X299355Y348615D01*
X303423Y348615D02*
X311049Y348615D01*
X303423Y348615D02*
X311049Y356242D01*
X311049Y358148D01*
X309143Y360055D01*
X305330Y360055D01*
X303423Y358148D01*
X315117Y350522D02*
X317024Y348615D01*
X320837Y348615D01*
X322743Y350522D01*
X322743Y358148D01*
X320837Y360055D01*
X317024Y360055D01*
X315117Y358148D01*
X315117Y356242D01*
X317024Y354335D01*
X322743Y354335D01*
X326811Y350522D02*
X326811Y358148D01*
X328718Y360055D01*
X332531Y360055D01*
X334437Y358148D01*
X334437Y350522D01*
X332531Y348615D01*
X328718Y348615D01*
X326811Y350522D01*
X334437Y358148D01*
X338505Y360055D02*
X346131Y360055D01*
X346131Y358148D01*
X338505Y350522D01*
X338505Y348615D01*
D10*
X314960Y393700D02*
X294640Y393700D01*
X304800Y383540D02*
X304800Y403860D01*
D211*
X749300Y173990D02*
X749300Y161290D01*
X749300Y173990D02*
X755650Y180340D01*
X768350Y180340D02*
X774700Y173990D01*
X755650Y180340D02*
X749300Y186690D01*
X749300Y199390D01*
X755650Y205740D01*
X768350Y205740D02*
X774700Y199390D01*
X774700Y186690D01*
X768350Y180340D01*
X768350Y154940D02*
X755650Y154940D01*
X749300Y161290D01*
X768350Y154940D02*
X774700Y161290D01*
X774700Y173990D01*
X768350Y205740D02*
X755650Y205740D01*
D12*
X747395Y155575D02*
X744175Y155575D01*
X742565Y157185D01*
X744175Y158795D01*
X747395Y158795D01*
X744980Y158795D02*
X744980Y155575D01*
X742565Y161188D02*
X747395Y161188D01*
X747395Y164408D01*
X747395Y168411D02*
X742565Y168411D01*
X742565Y166801D02*
X742565Y170021D01*
X748200Y172414D02*
X748200Y175634D01*
X743370Y181247D02*
X742565Y180442D01*
X742565Y178832D01*
X743370Y178027D01*
X744175Y178027D01*
X744980Y178832D01*
X744980Y180442D01*
X745785Y181247D01*
X746590Y181247D01*
X747395Y180442D01*
X747395Y178832D01*
X746590Y178027D01*
X747395Y183640D02*
X742565Y183640D01*
X745785Y185251D02*
X747395Y183640D01*
X745785Y185251D02*
X747395Y186861D01*
X742565Y186861D01*
X747395Y189254D02*
X747395Y192474D01*
X747395Y189254D02*
X744175Y192474D01*
X743370Y192474D01*
X742565Y191669D01*
X742565Y190059D01*
X743370Y189254D01*
D10*
X751840Y167640D02*
X772160Y167640D01*
X762000Y157480D02*
X762000Y177800D01*
D211*
X114300Y615950D02*
X114300Y628650D01*
X120650Y635000D01*
X133350Y635000D02*
X139700Y628650D01*
X120650Y635000D02*
X114300Y641350D01*
X114300Y654050D01*
X120650Y660400D01*
X133350Y660400D02*
X139700Y654050D01*
X139700Y641350D01*
X133350Y635000D01*
X133350Y609600D02*
X120650Y609600D01*
X114300Y615950D01*
X133350Y609600D02*
X139700Y615950D01*
X139700Y628650D01*
X133350Y660400D02*
X120650Y660400D01*
D12*
X112395Y610235D02*
X109175Y610235D01*
X107565Y611845D01*
X109175Y613455D01*
X112395Y613455D01*
X109980Y613455D02*
X109980Y610235D01*
X107565Y615848D02*
X112395Y615848D01*
X112395Y619068D01*
X112395Y623071D02*
X107565Y623071D01*
X107565Y621461D02*
X107565Y624681D01*
X113200Y627074D02*
X113200Y630294D01*
X108370Y635907D02*
X107565Y635102D01*
X107565Y633492D01*
X108370Y632687D01*
X109175Y632687D01*
X109980Y633492D01*
X109980Y635102D01*
X110785Y635907D01*
X111590Y635907D01*
X112395Y635102D01*
X112395Y633492D01*
X111590Y632687D01*
X112395Y638300D02*
X107565Y638300D01*
X110785Y639911D02*
X112395Y638300D01*
X110785Y639911D02*
X112395Y641521D01*
X107565Y641521D01*
X109175Y643914D02*
X107565Y645524D01*
X112395Y645524D01*
X112395Y643914D02*
X112395Y647134D01*
D10*
X116840Y622300D02*
X137160Y622300D01*
X127000Y612140D02*
X127000Y632460D01*
D211*
X605790Y91440D02*
X618490Y91440D01*
X624840Y85090D01*
X624840Y72390D02*
X618490Y66040D01*
X624840Y85090D02*
X631190Y91440D01*
X643890Y91440D01*
X650240Y85090D01*
X650240Y72390D02*
X643890Y66040D01*
X631190Y66040D01*
X624840Y72390D01*
X599440Y72390D02*
X599440Y85090D01*
X605790Y91440D01*
X599440Y72390D02*
X605790Y66040D01*
X618490Y66040D01*
X650240Y72390D02*
X650240Y85090D01*
D12*
X603295Y97370D02*
X602490Y98175D01*
X600880Y98175D01*
X600075Y97370D01*
X600075Y96565D01*
X600880Y95760D01*
X602490Y95760D01*
X603295Y94955D01*
X603295Y94150D01*
X602490Y93345D01*
X600880Y93345D01*
X600075Y94150D01*
X605688Y93345D02*
X605688Y98175D01*
X607298Y94955D02*
X605688Y93345D01*
X607298Y94955D02*
X608908Y93345D01*
X608908Y98175D01*
X611301Y92540D02*
X614521Y92540D01*
X616914Y93345D02*
X616914Y98175D01*
X618524Y96565D01*
X620134Y98175D01*
X620134Y93345D01*
X623332Y98175D02*
X624942Y98175D01*
X623332Y98175D02*
X622527Y97370D01*
X622527Y94150D01*
X623332Y93345D01*
X624942Y93345D01*
X625747Y94150D01*
X625747Y97370D01*
X624942Y98175D01*
X628140Y98175D02*
X628140Y93345D01*
X630556Y93345D01*
X631361Y94150D01*
X631361Y97370D01*
X630556Y98175D01*
X628140Y98175D01*
X633754Y98175D02*
X636974Y98175D01*
X633754Y98175D02*
X633754Y93345D01*
X636974Y93345D01*
X635364Y95760D02*
X633754Y95760D01*
X639367Y92540D02*
X642587Y92540D01*
X644980Y93345D02*
X644980Y98175D01*
X647395Y98175D01*
X648200Y97370D01*
X648200Y95760D01*
X647395Y94955D01*
X644980Y94955D01*
X650593Y93345D02*
X650593Y98175D01*
X652203Y94955D02*
X650593Y93345D01*
X652203Y94955D02*
X653813Y93345D01*
X653813Y98175D01*
X656206Y92540D02*
X659426Y92540D01*
X662624Y98175D02*
X664234Y98175D01*
X662624Y98175D02*
X661819Y97370D01*
X661819Y94150D01*
X662624Y93345D01*
X664234Y93345D01*
X665039Y94150D01*
X665039Y97370D01*
X664234Y98175D01*
X667432Y98175D02*
X667432Y94150D01*
X668237Y93345D01*
X669847Y93345D01*
X670652Y94150D01*
X670652Y98175D01*
X674655Y98175D02*
X674655Y93345D01*
X673045Y98175D02*
X676265Y98175D01*
X678658Y96565D02*
X680268Y98175D01*
X680268Y93345D01*
X678658Y93345D02*
X681878Y93345D01*
D10*
X622300Y78740D02*
X601980Y78740D01*
X612140Y68580D02*
X612140Y88900D01*
M02*
