G04 EAGLE Gerber X2 export*
%TF.Part,Single*%
%TF.FileFunction,Other,Component side*%
%TF.FilePolarity,Positive*%
%TF.GenerationSoftware,Autodesk,EAGLE,8.7.1*%
%TF.CreationDate,2018-05-15T06:37:00Z*%
G75*
%MOMM*%
%FSLAX34Y34*%
%LPD*%
%AMOC8*
5,1,8,0,0,1.08239X$1,22.5*%
G01*
%ADD10C,1.879600*%
%ADD11P,1.814519X8X22.500000*%
%ADD12P,1.814519X8X112.500000*%
%ADD13P,1.814519X8X292.500000*%
%ADD14C,1.930400*%
%ADD15C,1.308000*%
%ADD16C,1.524000*%
%ADD17C,1.320800*%
%ADD18C,0.406400*%
%ADD19C,0.756400*%

G36*
X467349Y11042D02*
X467349Y11042D01*
X467393Y11040D01*
X507854Y13808D01*
X507878Y13813D01*
X507923Y13815D01*
X547964Y20251D01*
X547987Y20259D01*
X548032Y20265D01*
X587322Y30315D01*
X587344Y30325D01*
X587388Y30335D01*
X625601Y43916D01*
X625623Y43928D01*
X625665Y43942D01*
X662485Y60942D01*
X662506Y60956D01*
X662547Y60974D01*
X697669Y81251D01*
X697688Y81267D01*
X697727Y81288D01*
X730859Y104676D01*
X730877Y104693D01*
X730914Y104718D01*
X761782Y131021D01*
X761798Y131040D01*
X761833Y131069D01*
X790181Y160070D01*
X790195Y160090D01*
X790227Y160122D01*
X815821Y191581D01*
X815833Y191602D01*
X815862Y191636D01*
X816476Y192549D01*
X818011Y194833D01*
X818523Y195594D01*
X820058Y197878D01*
X821594Y200161D01*
X822105Y200923D01*
X823129Y202445D01*
X823641Y203206D01*
X825176Y205490D01*
X826711Y207774D01*
X826712Y207774D01*
X827223Y208535D01*
X828759Y210819D01*
X830294Y213103D01*
X830806Y213864D01*
X831829Y215386D01*
X831830Y215386D01*
X832341Y216148D01*
X833877Y218431D01*
X835412Y220715D01*
X835924Y221476D01*
X837459Y223760D01*
X838489Y225292D01*
X838500Y225315D01*
X838525Y225352D01*
X857998Y260926D01*
X858006Y260949D01*
X858028Y260988D01*
X874186Y298185D01*
X874192Y298209D01*
X874210Y298250D01*
X886918Y336763D01*
X886922Y336787D01*
X886937Y336829D01*
X896090Y376338D01*
X896091Y376363D01*
X896102Y376406D01*
X901624Y416583D01*
X901624Y416608D01*
X901631Y416652D01*
X903476Y457165D01*
X903474Y457190D01*
X903476Y457235D01*
X901631Y497748D01*
X901626Y497772D01*
X901624Y497817D01*
X896102Y537994D01*
X896095Y538018D01*
X896090Y538062D01*
X886937Y577571D01*
X886927Y577594D01*
X886918Y577637D01*
X874210Y616150D01*
X874199Y616172D01*
X874186Y616215D01*
X858028Y653412D01*
X858015Y653433D01*
X857998Y653474D01*
X838525Y689048D01*
X838510Y689068D01*
X838489Y689108D01*
X815862Y722764D01*
X815845Y722782D01*
X815821Y722819D01*
X790227Y754278D01*
X790209Y754295D01*
X790181Y754330D01*
X761833Y783331D01*
X761813Y783346D01*
X761782Y783379D01*
X730914Y809682D01*
X730893Y809695D01*
X730859Y809724D01*
X697727Y833112D01*
X697705Y833122D01*
X697669Y833149D01*
X662547Y853426D01*
X662524Y853435D01*
X662485Y853458D01*
X625665Y870458D01*
X625641Y870465D01*
X625601Y870484D01*
X587388Y884065D01*
X587363Y884070D01*
X587322Y884085D01*
X548032Y894135D01*
X548007Y894137D01*
X547964Y894149D01*
X507923Y900585D01*
X507898Y900585D01*
X507854Y900592D01*
X467393Y903360D01*
X467369Y903358D01*
X467324Y903362D01*
X426780Y902438D01*
X426755Y902434D01*
X426710Y902434D01*
X386418Y897827D01*
X386394Y897821D01*
X386349Y897816D01*
X346643Y889565D01*
X346620Y889556D01*
X346576Y889548D01*
X307784Y877720D01*
X307761Y877709D01*
X307718Y877697D01*
X270163Y862391D01*
X270142Y862378D01*
X270100Y862362D01*
X234092Y843704D01*
X234072Y843689D01*
X234032Y843669D01*
X199869Y821814D01*
X199851Y821798D01*
X199813Y821774D01*
X167779Y796903D01*
X167763Y796885D01*
X167727Y796858D01*
X138088Y769178D01*
X138072Y769158D01*
X138039Y769128D01*
X111040Y738867D01*
X111027Y738846D01*
X110996Y738813D01*
X86861Y706222D01*
X86850Y706200D01*
X86822Y706164D01*
X65751Y671513D01*
X65741Y671490D01*
X65717Y671452D01*
X47884Y635029D01*
X47877Y635005D01*
X47856Y634965D01*
X33409Y597071D01*
X33404Y597047D01*
X33387Y597005D01*
X31793Y591316D01*
X31153Y589032D01*
X30513Y586748D01*
X27527Y576091D01*
X26887Y573807D01*
X23901Y563150D01*
X23901Y563149D01*
X23261Y560866D01*
X22622Y558582D01*
X22446Y557954D01*
X22443Y557929D01*
X22430Y557887D01*
X15085Y518002D01*
X15084Y517977D01*
X15075Y517934D01*
X11388Y477547D01*
X11389Y477522D01*
X11384Y477477D01*
X11384Y436923D01*
X11388Y436898D01*
X11388Y436853D01*
X15075Y396466D01*
X15082Y396442D01*
X15085Y396398D01*
X22430Y356513D01*
X22438Y356490D01*
X22446Y356446D01*
X33387Y317395D01*
X33398Y317372D01*
X33409Y317329D01*
X47856Y279435D01*
X47869Y279413D01*
X47884Y279371D01*
X65717Y242948D01*
X65732Y242927D01*
X65751Y242887D01*
X86822Y208236D01*
X86839Y208217D01*
X86861Y208178D01*
X110996Y175587D01*
X111014Y175570D01*
X111040Y175533D01*
X138039Y145272D01*
X138059Y145256D01*
X138088Y145222D01*
X167727Y117542D01*
X167747Y117528D01*
X167779Y117497D01*
X199813Y92626D01*
X199835Y92614D01*
X199869Y92586D01*
X234032Y70731D01*
X234055Y70721D01*
X234092Y70696D01*
X270100Y52038D01*
X270124Y52030D01*
X270163Y52009D01*
X307718Y36703D01*
X307743Y36697D01*
X307784Y36680D01*
X346576Y24852D01*
X346600Y24849D01*
X346643Y24835D01*
X386350Y16584D01*
X386374Y16582D01*
X386418Y16573D01*
X426710Y11966D01*
X426735Y11967D01*
X426780Y11962D01*
X467324Y11038D01*
X467349Y11042D01*
G37*
%LPC*%
G36*
X429627Y39877D02*
X429627Y39877D01*
X425613Y41540D01*
X422540Y44613D01*
X420877Y48627D01*
X420877Y52973D01*
X422540Y56987D01*
X425613Y60060D01*
X426249Y60323D01*
X426348Y60385D01*
X426449Y60445D01*
X426453Y60450D01*
X426458Y60453D01*
X426532Y60543D01*
X426609Y60632D01*
X426611Y60638D01*
X426615Y60643D01*
X426657Y60750D01*
X426701Y60860D01*
X426702Y60868D01*
X426703Y60872D01*
X426704Y60890D01*
X426719Y61027D01*
X426719Y61080D01*
X426714Y61114D01*
X426714Y61118D01*
X426712Y61124D01*
X426705Y61170D01*
X426697Y61261D01*
X426685Y61291D01*
X426680Y61323D01*
X426637Y61404D01*
X426601Y61487D01*
X426575Y61520D01*
X426564Y61540D01*
X426541Y61562D01*
X426496Y61618D01*
X417218Y70896D01*
X417145Y70949D01*
X417075Y71009D01*
X417045Y71021D01*
X417019Y71040D01*
X416932Y71067D01*
X416847Y71101D01*
X416806Y71105D01*
X416784Y71112D01*
X416751Y71111D01*
X416680Y71119D01*
X404295Y71119D01*
X299719Y175695D01*
X299719Y184658D01*
X299716Y184678D01*
X299718Y184697D01*
X299696Y184799D01*
X299680Y184901D01*
X299670Y184918D01*
X299666Y184938D01*
X299613Y185027D01*
X299564Y185118D01*
X299550Y185132D01*
X299540Y185149D01*
X299461Y185216D01*
X299386Y185288D01*
X299368Y185296D01*
X299353Y185309D01*
X299257Y185348D01*
X299163Y185391D01*
X299143Y185393D01*
X299125Y185401D01*
X298958Y185419D01*
X280301Y185419D01*
X280230Y185408D01*
X280158Y185406D01*
X280109Y185388D01*
X280058Y185380D01*
X279995Y185346D01*
X279927Y185321D01*
X279886Y185289D01*
X279840Y185264D01*
X279791Y185212D01*
X279735Y185168D01*
X279707Y185124D01*
X279671Y185086D01*
X279641Y185021D01*
X279602Y184961D01*
X279589Y184910D01*
X279567Y184863D01*
X279560Y184792D01*
X279542Y184722D01*
X279546Y184670D01*
X279540Y184619D01*
X279556Y184548D01*
X279561Y184477D01*
X279582Y184429D01*
X279593Y184378D01*
X279629Y184317D01*
X279658Y184251D01*
X279702Y184195D01*
X279719Y184167D01*
X279737Y184152D01*
X279762Y184120D01*
X280293Y183589D01*
X281287Y182101D01*
X281972Y180449D01*
X282196Y179323D01*
X267462Y179323D01*
X267442Y179320D01*
X267423Y179322D01*
X267321Y179300D01*
X267219Y179283D01*
X267202Y179274D01*
X267182Y179270D01*
X267093Y179217D01*
X267002Y179168D01*
X266988Y179154D01*
X266971Y179144D01*
X266904Y179065D01*
X266833Y178990D01*
X266824Y178972D01*
X266811Y178957D01*
X266773Y178861D01*
X266729Y178767D01*
X266727Y178747D01*
X266719Y178729D01*
X266701Y178562D01*
X266701Y177799D01*
X266699Y177799D01*
X266699Y178562D01*
X266696Y178582D01*
X266698Y178601D01*
X266676Y178703D01*
X266659Y178805D01*
X266650Y178822D01*
X266646Y178842D01*
X266593Y178931D01*
X266544Y179022D01*
X266530Y179036D01*
X266520Y179053D01*
X266441Y179120D01*
X266366Y179191D01*
X266348Y179200D01*
X266333Y179213D01*
X266237Y179252D01*
X266143Y179295D01*
X266123Y179297D01*
X266105Y179305D01*
X265938Y179323D01*
X251204Y179323D01*
X251428Y180449D01*
X252113Y182101D01*
X253107Y183589D01*
X253638Y184120D01*
X253680Y184178D01*
X253729Y184230D01*
X253751Y184277D01*
X253781Y184319D01*
X253802Y184388D01*
X253833Y184453D01*
X253838Y184505D01*
X253854Y184555D01*
X253852Y184626D01*
X253860Y184697D01*
X253849Y184748D01*
X253847Y184800D01*
X253823Y184868D01*
X253807Y184938D01*
X253781Y184983D01*
X253763Y185031D01*
X253718Y185087D01*
X253681Y185149D01*
X253642Y185183D01*
X253609Y185223D01*
X253549Y185262D01*
X253494Y185309D01*
X253446Y185328D01*
X253402Y185356D01*
X253333Y185374D01*
X253266Y185401D01*
X253195Y185409D01*
X253164Y185417D01*
X253140Y185415D01*
X253099Y185419D01*
X151057Y185419D01*
X129623Y206854D01*
X129528Y206922D01*
X129434Y206992D01*
X129428Y206994D01*
X129423Y206997D01*
X129312Y207032D01*
X129200Y207068D01*
X129194Y207068D01*
X129188Y207070D01*
X129071Y207067D01*
X128954Y207066D01*
X128947Y207064D01*
X128942Y207063D01*
X128925Y207057D01*
X128793Y207019D01*
X128157Y206755D01*
X123811Y206755D01*
X119797Y208418D01*
X116724Y211491D01*
X115061Y215505D01*
X115061Y219851D01*
X116724Y223865D01*
X119797Y226938D01*
X123811Y228601D01*
X128157Y228601D01*
X132171Y226938D01*
X135244Y223865D01*
X136907Y219851D01*
X136907Y215505D01*
X136643Y214869D01*
X136616Y214755D01*
X136588Y214642D01*
X136588Y214635D01*
X136587Y214629D01*
X136598Y214513D01*
X136607Y214396D01*
X136609Y214391D01*
X136610Y214384D01*
X136658Y214277D01*
X136703Y214170D01*
X136708Y214164D01*
X136710Y214160D01*
X136723Y214146D01*
X136808Y214039D01*
X155044Y195804D01*
X155117Y195751D01*
X155187Y195691D01*
X155217Y195679D01*
X155243Y195660D01*
X155330Y195633D01*
X155415Y195599D01*
X155456Y195595D01*
X155478Y195588D01*
X155511Y195589D01*
X155582Y195581D01*
X254536Y195581D01*
X254607Y195592D01*
X254679Y195594D01*
X254728Y195612D01*
X254779Y195620D01*
X254842Y195654D01*
X254910Y195679D01*
X254950Y195711D01*
X254996Y195736D01*
X255046Y195788D01*
X255102Y195832D01*
X255130Y195876D01*
X255166Y195914D01*
X255196Y195979D01*
X255235Y196039D01*
X255247Y196090D01*
X255269Y196137D01*
X255277Y196208D01*
X255295Y196278D01*
X255291Y196330D01*
X255296Y196381D01*
X255281Y196452D01*
X255276Y196523D01*
X255255Y196571D01*
X255244Y196622D01*
X255207Y196683D01*
X255179Y196749D01*
X255135Y196805D01*
X255118Y196833D01*
X255100Y196848D01*
X255075Y196880D01*
X253323Y198632D01*
X252095Y201596D01*
X252095Y204804D01*
X253323Y207768D01*
X255075Y209520D01*
X255116Y209578D01*
X255166Y209630D01*
X255188Y209677D01*
X255218Y209719D01*
X255239Y209788D01*
X255269Y209853D01*
X255275Y209905D01*
X255290Y209955D01*
X255289Y210026D01*
X255296Y210097D01*
X255285Y210148D01*
X255284Y210200D01*
X255259Y210268D01*
X255244Y210338D01*
X255217Y210383D01*
X255200Y210431D01*
X255155Y210487D01*
X255118Y210549D01*
X255078Y210583D01*
X255046Y210623D01*
X254986Y210662D01*
X254931Y210709D01*
X254883Y210728D01*
X254839Y210756D01*
X254770Y210774D01*
X254703Y210801D01*
X254632Y210809D01*
X254600Y210817D01*
X254577Y210815D01*
X254536Y210819D01*
X151057Y210819D01*
X129623Y232254D01*
X129528Y232322D01*
X129434Y232392D01*
X129428Y232394D01*
X129423Y232397D01*
X129312Y232432D01*
X129200Y232468D01*
X129194Y232468D01*
X129188Y232470D01*
X129071Y232467D01*
X128954Y232466D01*
X128947Y232464D01*
X128942Y232463D01*
X128925Y232457D01*
X128793Y232419D01*
X128157Y232155D01*
X123811Y232155D01*
X119797Y233818D01*
X116724Y236891D01*
X115061Y240905D01*
X115061Y245251D01*
X116724Y249265D01*
X119797Y252338D01*
X123811Y254001D01*
X128157Y254001D01*
X132171Y252338D01*
X135244Y249265D01*
X136907Y245251D01*
X136907Y240905D01*
X136643Y240269D01*
X136616Y240155D01*
X136588Y240042D01*
X136588Y240035D01*
X136587Y240029D01*
X136598Y239913D01*
X136607Y239796D01*
X136609Y239791D01*
X136610Y239784D01*
X136658Y239677D01*
X136703Y239570D01*
X136708Y239564D01*
X136710Y239560D01*
X136723Y239546D01*
X136808Y239439D01*
X155044Y221204D01*
X155117Y221151D01*
X155187Y221091D01*
X155217Y221079D01*
X155243Y221060D01*
X155330Y221033D01*
X155415Y220999D01*
X155456Y220995D01*
X155478Y220988D01*
X155511Y220989D01*
X155582Y220981D01*
X254536Y220981D01*
X254607Y220992D01*
X254679Y220994D01*
X254728Y221012D01*
X254779Y221020D01*
X254842Y221054D01*
X254910Y221079D01*
X254950Y221111D01*
X254996Y221136D01*
X255046Y221188D01*
X255102Y221232D01*
X255130Y221276D01*
X255166Y221314D01*
X255196Y221379D01*
X255235Y221439D01*
X255247Y221490D01*
X255269Y221537D01*
X255277Y221608D01*
X255295Y221678D01*
X255291Y221730D01*
X255296Y221781D01*
X255281Y221852D01*
X255276Y221923D01*
X255255Y221971D01*
X255244Y222022D01*
X255207Y222083D01*
X255179Y222149D01*
X255135Y222205D01*
X255118Y222233D01*
X255100Y222248D01*
X255075Y222280D01*
X253323Y224032D01*
X252095Y226996D01*
X252095Y230204D01*
X253323Y233168D01*
X255592Y235437D01*
X258556Y236665D01*
X274844Y236665D01*
X277808Y235437D01*
X280077Y233168D01*
X281305Y230204D01*
X281305Y226996D01*
X280077Y224032D01*
X278325Y222280D01*
X278284Y222222D01*
X278234Y222170D01*
X278212Y222123D01*
X278182Y222081D01*
X278161Y222012D01*
X278131Y221947D01*
X278125Y221895D01*
X278110Y221845D01*
X278111Y221774D01*
X278104Y221703D01*
X278115Y221652D01*
X278116Y221600D01*
X278141Y221532D01*
X278156Y221462D01*
X278183Y221417D01*
X278200Y221369D01*
X278245Y221313D01*
X278282Y221251D01*
X278322Y221217D01*
X278354Y221177D01*
X278414Y221138D01*
X278469Y221091D01*
X278517Y221072D01*
X278561Y221044D01*
X278630Y221026D01*
X278697Y220999D01*
X278768Y220991D01*
X278800Y220983D01*
X278823Y220985D01*
X278864Y220981D01*
X300624Y220981D01*
X300714Y220995D01*
X300805Y221003D01*
X300834Y221015D01*
X300866Y221020D01*
X300947Y221063D01*
X301031Y221099D01*
X301063Y221125D01*
X301084Y221136D01*
X301106Y221159D01*
X301162Y221204D01*
X301218Y221260D01*
X303542Y222223D01*
X306058Y222223D01*
X308382Y221260D01*
X310160Y219482D01*
X311123Y217158D01*
X311123Y214642D01*
X310160Y212318D01*
X308382Y210540D01*
X306058Y209577D01*
X303542Y209577D01*
X301218Y210540D01*
X301162Y210596D01*
X301088Y210649D01*
X301019Y210709D01*
X300988Y210721D01*
X300962Y210740D01*
X300875Y210767D01*
X300790Y210801D01*
X300749Y210805D01*
X300727Y210812D01*
X300695Y210811D01*
X300624Y210819D01*
X278864Y210819D01*
X278793Y210808D01*
X278721Y210806D01*
X278672Y210788D01*
X278621Y210780D01*
X278558Y210746D01*
X278490Y210721D01*
X278450Y210689D01*
X278404Y210664D01*
X278354Y210612D01*
X278298Y210568D01*
X278270Y210524D01*
X278234Y210486D01*
X278204Y210421D01*
X278165Y210361D01*
X278153Y210310D01*
X278131Y210263D01*
X278123Y210192D01*
X278105Y210122D01*
X278109Y210070D01*
X278104Y210019D01*
X278119Y209948D01*
X278124Y209877D01*
X278145Y209829D01*
X278156Y209778D01*
X278193Y209717D01*
X278221Y209651D01*
X278265Y209595D01*
X278282Y209567D01*
X278300Y209552D01*
X278325Y209520D01*
X280077Y207768D01*
X281305Y204804D01*
X281305Y201596D01*
X280077Y198632D01*
X278325Y196880D01*
X278284Y196822D01*
X278234Y196770D01*
X278212Y196723D01*
X278182Y196681D01*
X278161Y196612D01*
X278131Y196547D01*
X278125Y196495D01*
X278110Y196445D01*
X278111Y196374D01*
X278104Y196303D01*
X278115Y196252D01*
X278116Y196200D01*
X278141Y196132D01*
X278156Y196062D01*
X278183Y196017D01*
X278200Y195969D01*
X278245Y195913D01*
X278282Y195851D01*
X278322Y195817D01*
X278354Y195777D01*
X278414Y195738D01*
X278469Y195691D01*
X278517Y195672D01*
X278561Y195644D01*
X278630Y195626D01*
X278697Y195599D01*
X278768Y195591D01*
X278800Y195583D01*
X278823Y195585D01*
X278864Y195581D01*
X306905Y195581D01*
X309881Y192605D01*
X309881Y180220D01*
X309895Y180130D01*
X309903Y180039D01*
X309915Y180009D01*
X309920Y179977D01*
X309963Y179896D01*
X309999Y179813D01*
X310025Y179780D01*
X310036Y179760D01*
X310059Y179738D01*
X310104Y179682D01*
X352452Y137333D01*
X352491Y137305D01*
X352524Y137270D01*
X352591Y137234D01*
X352652Y137189D01*
X352698Y137175D01*
X352740Y137152D01*
X352815Y137139D01*
X352887Y137117D01*
X352935Y137118D01*
X352982Y137110D01*
X353057Y137121D01*
X353133Y137123D01*
X353178Y137140D01*
X353225Y137147D01*
X353293Y137182D01*
X353364Y137208D01*
X353402Y137238D01*
X353444Y137260D01*
X353497Y137314D01*
X353556Y137362D01*
X353582Y137402D01*
X353615Y137436D01*
X353648Y137505D01*
X353689Y137568D01*
X353701Y137615D01*
X353721Y137658D01*
X353731Y137733D01*
X353749Y137807D01*
X353745Y137855D01*
X353751Y137902D01*
X353732Y138030D01*
X353730Y138052D01*
X353727Y138058D01*
X353726Y138068D01*
X352551Y142452D01*
X352551Y149140D01*
X354282Y155600D01*
X357626Y161392D01*
X362356Y166122D01*
X368148Y169466D01*
X374608Y171197D01*
X381296Y171197D01*
X387756Y169466D01*
X393548Y166122D01*
X398278Y161392D01*
X401622Y155600D01*
X403353Y149140D01*
X403353Y142452D01*
X401622Y135992D01*
X398278Y130200D01*
X393548Y125470D01*
X387756Y122126D01*
X381296Y120395D01*
X374608Y120395D01*
X370224Y121570D01*
X370177Y121575D01*
X370131Y121589D01*
X370055Y121587D01*
X369980Y121594D01*
X369933Y121584D01*
X369885Y121582D01*
X369814Y121556D01*
X369740Y121539D01*
X369699Y121514D01*
X369654Y121498D01*
X369595Y121451D01*
X369530Y121411D01*
X369499Y121374D01*
X369462Y121344D01*
X369421Y121281D01*
X369372Y121222D01*
X369355Y121178D01*
X369329Y121137D01*
X369310Y121064D01*
X369283Y120993D01*
X369280Y120945D01*
X369269Y120899D01*
X369275Y120823D01*
X369271Y120748D01*
X369284Y120701D01*
X369288Y120654D01*
X369317Y120584D01*
X369338Y120511D01*
X369365Y120471D01*
X369384Y120427D01*
X369464Y120327D01*
X369477Y120308D01*
X369483Y120304D01*
X369489Y120296D01*
X408282Y81504D01*
X408355Y81451D01*
X408425Y81391D01*
X408455Y81379D01*
X408481Y81360D01*
X408568Y81333D01*
X408653Y81299D01*
X408694Y81295D01*
X408716Y81288D01*
X408749Y81289D01*
X408820Y81281D01*
X421205Y81281D01*
X436881Y65605D01*
X436881Y61027D01*
X436899Y60912D01*
X436917Y60796D01*
X436919Y60790D01*
X436920Y60784D01*
X436975Y60681D01*
X437028Y60577D01*
X437033Y60572D01*
X437036Y60567D01*
X437120Y60486D01*
X437204Y60404D01*
X437210Y60401D01*
X437214Y60397D01*
X437231Y60389D01*
X437351Y60323D01*
X437987Y60060D01*
X441060Y56987D01*
X442723Y52973D01*
X442723Y48627D01*
X441060Y44613D01*
X437987Y41540D01*
X433973Y39877D01*
X429627Y39877D01*
G37*
%LPD*%
%LPC*%
G36*
X430542Y95277D02*
X430542Y95277D01*
X428218Y96240D01*
X426440Y98018D01*
X425477Y100342D01*
X425477Y102858D01*
X426440Y105182D01*
X428218Y106960D01*
X430542Y107923D01*
X430622Y107923D01*
X430712Y107937D01*
X430803Y107945D01*
X430833Y107957D01*
X430865Y107962D01*
X430946Y108005D01*
X431029Y108041D01*
X431062Y108067D01*
X431082Y108078D01*
X431104Y108101D01*
X431160Y108146D01*
X477296Y154282D01*
X477349Y154355D01*
X477409Y154425D01*
X477421Y154455D01*
X477440Y154481D01*
X477467Y154568D01*
X477501Y154653D01*
X477505Y154694D01*
X477512Y154716D01*
X477511Y154749D01*
X477519Y154820D01*
X477519Y171958D01*
X477516Y171978D01*
X477518Y171997D01*
X477496Y172099D01*
X477480Y172201D01*
X477470Y172218D01*
X477466Y172238D01*
X477413Y172327D01*
X477364Y172418D01*
X477350Y172432D01*
X477340Y172449D01*
X477261Y172516D01*
X477186Y172588D01*
X477168Y172596D01*
X477153Y172609D01*
X477057Y172648D01*
X476963Y172691D01*
X476943Y172693D01*
X476925Y172701D01*
X476758Y172719D01*
X410576Y172719D01*
X410486Y172705D01*
X410395Y172697D01*
X410366Y172685D01*
X410334Y172680D01*
X410253Y172637D01*
X410169Y172601D01*
X410137Y172575D01*
X410116Y172564D01*
X410094Y172541D01*
X410038Y172496D01*
X409982Y172440D01*
X407658Y171477D01*
X405142Y171477D01*
X402818Y172440D01*
X401040Y174218D01*
X400077Y176542D01*
X400077Y179058D01*
X401040Y181382D01*
X402818Y183160D01*
X405142Y184123D01*
X407658Y184123D01*
X409982Y183160D01*
X410038Y183104D01*
X410112Y183051D01*
X410181Y182991D01*
X410212Y182979D01*
X410238Y182960D01*
X410325Y182933D01*
X410410Y182899D01*
X410451Y182895D01*
X410473Y182888D01*
X410505Y182889D01*
X410576Y182881D01*
X476758Y182881D01*
X476778Y182884D01*
X476797Y182882D01*
X476899Y182904D01*
X477001Y182920D01*
X477018Y182930D01*
X477038Y182934D01*
X477127Y182987D01*
X477218Y183036D01*
X477232Y183050D01*
X477249Y183060D01*
X477316Y183139D01*
X477388Y183214D01*
X477396Y183232D01*
X477409Y183247D01*
X477448Y183343D01*
X477491Y183437D01*
X477493Y183457D01*
X477501Y183475D01*
X477519Y183642D01*
X477519Y211724D01*
X477505Y211814D01*
X477497Y211905D01*
X477485Y211934D01*
X477480Y211966D01*
X477437Y212047D01*
X477401Y212131D01*
X477375Y212163D01*
X477364Y212184D01*
X477341Y212206D01*
X477296Y212262D01*
X477240Y212318D01*
X476277Y214642D01*
X476277Y217158D01*
X477240Y219482D01*
X479018Y221260D01*
X480937Y222055D01*
X481020Y222106D01*
X481106Y222152D01*
X481123Y222170D01*
X481146Y222184D01*
X481208Y222260D01*
X481275Y222330D01*
X481286Y222354D01*
X481303Y222374D01*
X481338Y222465D01*
X481379Y222553D01*
X481381Y222579D01*
X481391Y222603D01*
X481395Y222701D01*
X481406Y222797D01*
X481400Y222823D01*
X481401Y222849D01*
X481374Y222943D01*
X481353Y223038D01*
X481340Y223060D01*
X481333Y223085D01*
X481277Y223165D01*
X481227Y223249D01*
X481207Y223266D01*
X481192Y223287D01*
X481114Y223346D01*
X481040Y223409D01*
X481016Y223419D01*
X480995Y223434D01*
X480903Y223464D01*
X480812Y223501D01*
X480780Y223504D01*
X480761Y223510D01*
X480728Y223510D01*
X480645Y223519D01*
X472987Y223519D01*
X472897Y223505D01*
X472806Y223497D01*
X472776Y223485D01*
X472744Y223480D01*
X472664Y223437D01*
X472580Y223401D01*
X472548Y223375D01*
X472527Y223364D01*
X472505Y223341D01*
X472449Y223296D01*
X470000Y220847D01*
X466639Y219455D01*
X447761Y219455D01*
X444400Y220847D01*
X441951Y223296D01*
X441877Y223349D01*
X441808Y223409D01*
X441778Y223421D01*
X441751Y223440D01*
X441664Y223467D01*
X441580Y223501D01*
X441539Y223505D01*
X441516Y223512D01*
X441484Y223511D01*
X441413Y223519D01*
X356080Y223519D01*
X355990Y223505D01*
X355899Y223497D01*
X355869Y223485D01*
X355837Y223480D01*
X355756Y223437D01*
X355673Y223401D01*
X355640Y223375D01*
X355620Y223364D01*
X355598Y223341D01*
X355542Y223296D01*
X354008Y221763D01*
X351044Y220535D01*
X334756Y220535D01*
X331792Y221763D01*
X329523Y224032D01*
X328295Y226996D01*
X328295Y230204D01*
X329523Y233168D01*
X331792Y235437D01*
X334756Y236665D01*
X351044Y236665D01*
X354008Y235437D01*
X355542Y233904D01*
X355615Y233851D01*
X355685Y233791D01*
X355715Y233779D01*
X355741Y233760D01*
X355828Y233733D01*
X355913Y233699D01*
X355954Y233695D01*
X355976Y233688D01*
X356009Y233689D01*
X356080Y233681D01*
X441413Y233681D01*
X441503Y233695D01*
X441594Y233703D01*
X441624Y233715D01*
X441656Y233720D01*
X441736Y233763D01*
X441820Y233799D01*
X441852Y233825D01*
X441873Y233836D01*
X441895Y233859D01*
X441951Y233904D01*
X444400Y236353D01*
X447761Y237745D01*
X466639Y237745D01*
X470000Y236353D01*
X472449Y233904D01*
X472523Y233851D01*
X472592Y233791D01*
X472622Y233779D01*
X472649Y233760D01*
X472736Y233733D01*
X472820Y233699D01*
X472861Y233695D01*
X472884Y233688D01*
X472916Y233689D01*
X472987Y233681D01*
X629278Y233681D01*
X629368Y233695D01*
X629459Y233703D01*
X629489Y233715D01*
X629521Y233720D01*
X629602Y233763D01*
X629685Y233799D01*
X629718Y233825D01*
X629738Y233836D01*
X629760Y233859D01*
X629816Y233904D01*
X764130Y368217D01*
X764197Y368311D01*
X764268Y368406D01*
X764270Y368412D01*
X764273Y368417D01*
X764308Y368528D01*
X764344Y368640D01*
X764344Y368646D01*
X764346Y368652D01*
X764343Y368769D01*
X764342Y368886D01*
X764340Y368893D01*
X764339Y368898D01*
X764333Y368915D01*
X764295Y369047D01*
X764031Y369683D01*
X764031Y374029D01*
X765694Y378043D01*
X768767Y381116D01*
X769403Y381380D01*
X769503Y381441D01*
X769603Y381501D01*
X769607Y381506D01*
X769612Y381509D01*
X769686Y381598D01*
X769763Y381688D01*
X769765Y381694D01*
X769769Y381699D01*
X769811Y381806D01*
X769855Y381916D01*
X769856Y381924D01*
X769857Y381928D01*
X769858Y381947D01*
X769873Y382083D01*
X769873Y389166D01*
X769854Y389281D01*
X769837Y389397D01*
X769835Y389403D01*
X769834Y389409D01*
X769779Y389512D01*
X769726Y389617D01*
X769721Y389621D01*
X769718Y389627D01*
X769634Y389706D01*
X769550Y389789D01*
X769544Y389792D01*
X769540Y389796D01*
X769523Y389804D01*
X769403Y389870D01*
X769021Y390028D01*
X765948Y393101D01*
X764285Y397115D01*
X764285Y401461D01*
X765948Y405475D01*
X769021Y408548D01*
X773035Y410211D01*
X777381Y410211D01*
X781395Y408548D01*
X784468Y405475D01*
X786131Y401461D01*
X786131Y397115D01*
X784468Y393101D01*
X781395Y390028D01*
X780505Y389659D01*
X780405Y389598D01*
X780305Y389538D01*
X780301Y389533D01*
X780296Y389530D01*
X780221Y389440D01*
X780145Y389351D01*
X780143Y389345D01*
X780139Y389340D01*
X780097Y389232D01*
X780053Y389123D01*
X780052Y389115D01*
X780051Y389111D01*
X780050Y389092D01*
X780035Y388956D01*
X780035Y382083D01*
X780054Y381968D01*
X780071Y381852D01*
X780073Y381846D01*
X780074Y381840D01*
X780129Y381737D01*
X780182Y381633D01*
X780187Y381628D01*
X780190Y381623D01*
X780274Y381543D01*
X780358Y381460D01*
X780364Y381457D01*
X780368Y381453D01*
X780385Y381446D01*
X780505Y381380D01*
X781141Y381116D01*
X784214Y378043D01*
X785877Y374029D01*
X785877Y369683D01*
X784214Y365669D01*
X781141Y362596D01*
X777127Y360933D01*
X772781Y360933D01*
X772145Y361197D01*
X772031Y361224D01*
X771918Y361252D01*
X771911Y361252D01*
X771905Y361253D01*
X771789Y361242D01*
X771672Y361233D01*
X771667Y361231D01*
X771660Y361230D01*
X771553Y361182D01*
X771446Y361137D01*
X771440Y361132D01*
X771436Y361130D01*
X771422Y361117D01*
X771315Y361032D01*
X633803Y223519D01*
X484555Y223519D01*
X484459Y223504D01*
X484362Y223494D01*
X484338Y223484D01*
X484312Y223480D01*
X484226Y223434D01*
X484137Y223394D01*
X484118Y223377D01*
X484094Y223364D01*
X484027Y223294D01*
X483956Y223228D01*
X483943Y223205D01*
X483925Y223186D01*
X483884Y223098D01*
X483837Y223012D01*
X483832Y222987D01*
X483821Y222963D01*
X483811Y222866D01*
X483793Y222770D01*
X483797Y222744D01*
X483794Y222719D01*
X483815Y222623D01*
X483829Y222527D01*
X483841Y222504D01*
X483847Y222478D01*
X483897Y222395D01*
X483941Y222308D01*
X483959Y222289D01*
X483973Y222267D01*
X484047Y222204D01*
X484116Y222136D01*
X484145Y222120D01*
X484160Y222107D01*
X484190Y222095D01*
X484263Y222055D01*
X486182Y221260D01*
X487960Y219482D01*
X488923Y217158D01*
X488923Y214642D01*
X487960Y212318D01*
X487904Y212262D01*
X487851Y212188D01*
X487791Y212119D01*
X487779Y212088D01*
X487760Y212062D01*
X487733Y211975D01*
X487699Y211890D01*
X487695Y211849D01*
X487688Y211827D01*
X487689Y211795D01*
X487681Y211724D01*
X487681Y186182D01*
X487684Y186162D01*
X487682Y186143D01*
X487704Y186041D01*
X487720Y185939D01*
X487730Y185922D01*
X487734Y185902D01*
X487787Y185813D01*
X487836Y185722D01*
X487850Y185708D01*
X487860Y185691D01*
X487939Y185624D01*
X488014Y185552D01*
X488032Y185544D01*
X488047Y185531D01*
X488143Y185492D01*
X488237Y185449D01*
X488257Y185447D01*
X488275Y185439D01*
X488442Y185421D01*
X529224Y185421D01*
X529314Y185435D01*
X529405Y185443D01*
X529434Y185455D01*
X529466Y185460D01*
X529547Y185503D01*
X529631Y185539D01*
X529663Y185565D01*
X529684Y185576D01*
X529706Y185599D01*
X529762Y185644D01*
X529818Y185700D01*
X532142Y186663D01*
X534658Y186663D01*
X536982Y185700D01*
X538760Y183922D01*
X539723Y181598D01*
X539723Y179082D01*
X538760Y176758D01*
X536982Y174980D01*
X534658Y174017D01*
X532142Y174017D01*
X529818Y174980D01*
X529762Y175036D01*
X529688Y175089D01*
X529619Y175149D01*
X529588Y175161D01*
X529562Y175180D01*
X529475Y175207D01*
X529390Y175241D01*
X529349Y175245D01*
X529327Y175252D01*
X529295Y175251D01*
X529224Y175259D01*
X488442Y175259D01*
X488422Y175256D01*
X488403Y175258D01*
X488301Y175236D01*
X488199Y175220D01*
X488182Y175210D01*
X488162Y175206D01*
X488073Y175153D01*
X487982Y175104D01*
X487968Y175090D01*
X487951Y175080D01*
X487884Y175001D01*
X487812Y174926D01*
X487804Y174908D01*
X487791Y174893D01*
X487752Y174797D01*
X487709Y174703D01*
X487707Y174683D01*
X487699Y174665D01*
X487681Y174498D01*
X487681Y150295D01*
X438346Y100960D01*
X438293Y100887D01*
X438233Y100817D01*
X438221Y100787D01*
X438202Y100761D01*
X438175Y100674D01*
X438141Y100589D01*
X438137Y100548D01*
X438130Y100526D01*
X438131Y100493D01*
X438123Y100422D01*
X438123Y100342D01*
X437160Y98018D01*
X435382Y96240D01*
X433058Y95277D01*
X430542Y95277D01*
G37*
%LPD*%
%LPC*%
G36*
X455027Y39877D02*
X455027Y39877D01*
X451013Y41540D01*
X447940Y44613D01*
X446277Y48627D01*
X446277Y52973D01*
X447940Y56987D01*
X451013Y60060D01*
X455027Y61723D01*
X459373Y61723D01*
X460009Y61459D01*
X460123Y61432D01*
X460236Y61404D01*
X460243Y61404D01*
X460249Y61403D01*
X460365Y61414D01*
X460482Y61423D01*
X460487Y61425D01*
X460494Y61426D01*
X460601Y61474D01*
X460708Y61519D01*
X460714Y61524D01*
X460718Y61526D01*
X460732Y61539D01*
X460839Y61624D01*
X515396Y116182D01*
X518595Y119381D01*
X526282Y119381D01*
X526306Y119385D01*
X526330Y119382D01*
X526427Y119404D01*
X526525Y119420D01*
X526546Y119432D01*
X526570Y119437D01*
X526654Y119489D01*
X526742Y119536D01*
X526759Y119553D01*
X526779Y119566D01*
X526843Y119642D01*
X526912Y119714D01*
X526922Y119736D01*
X526937Y119754D01*
X526973Y119847D01*
X527015Y119937D01*
X527018Y119961D01*
X527027Y119983D01*
X527031Y120083D01*
X527042Y120181D01*
X527037Y120205D01*
X527038Y120229D01*
X527011Y120325D01*
X526990Y120422D01*
X526978Y120442D01*
X526971Y120466D01*
X526915Y120548D01*
X526864Y120633D01*
X526846Y120649D01*
X526832Y120668D01*
X526753Y120728D01*
X526677Y120793D01*
X526655Y120802D01*
X526635Y120816D01*
X526479Y120877D01*
X521818Y122126D01*
X516026Y125470D01*
X511296Y130200D01*
X507952Y135992D01*
X506221Y142452D01*
X506221Y149140D01*
X507952Y155600D01*
X511296Y161392D01*
X516026Y166122D01*
X521818Y169466D01*
X528278Y171197D01*
X534966Y171197D01*
X541426Y169466D01*
X547218Y166122D01*
X551948Y161392D01*
X555292Y155600D01*
X557023Y149140D01*
X557023Y142452D01*
X555292Y135992D01*
X551948Y130200D01*
X547218Y125470D01*
X541426Y122126D01*
X536765Y120877D01*
X536743Y120867D01*
X536719Y120863D01*
X536631Y120817D01*
X536541Y120776D01*
X536523Y120760D01*
X536502Y120748D01*
X536433Y120676D01*
X536361Y120609D01*
X536349Y120588D01*
X536332Y120570D01*
X536291Y120480D01*
X536243Y120393D01*
X536239Y120369D01*
X536229Y120347D01*
X536218Y120248D01*
X536201Y120150D01*
X536204Y120126D01*
X536202Y120103D01*
X536223Y120005D01*
X536238Y119907D01*
X536249Y119886D01*
X536254Y119862D01*
X536305Y119777D01*
X536351Y119688D01*
X536368Y119672D01*
X536380Y119651D01*
X536456Y119586D01*
X536527Y119517D01*
X536549Y119507D01*
X536567Y119491D01*
X536660Y119454D01*
X536749Y119411D01*
X536773Y119408D01*
X536795Y119399D01*
X536962Y119381D01*
X569080Y119381D01*
X569170Y119395D01*
X569261Y119403D01*
X569291Y119415D01*
X569323Y119420D01*
X569404Y119463D01*
X569487Y119499D01*
X569520Y119525D01*
X569540Y119536D01*
X569562Y119559D01*
X569618Y119604D01*
X698427Y248413D01*
X787079Y248413D01*
X787194Y248432D01*
X787310Y248449D01*
X787316Y248451D01*
X787322Y248452D01*
X787425Y248507D01*
X787529Y248560D01*
X787534Y248565D01*
X787539Y248568D01*
X787618Y248651D01*
X787702Y248736D01*
X787705Y248742D01*
X787709Y248746D01*
X787716Y248763D01*
X787782Y248883D01*
X788046Y249519D01*
X791119Y252592D01*
X795133Y254255D01*
X799479Y254255D01*
X803493Y252592D01*
X806566Y249519D01*
X808229Y245505D01*
X808229Y241159D01*
X806566Y237145D01*
X803493Y234072D01*
X799479Y232409D01*
X795133Y232409D01*
X791119Y234072D01*
X788046Y237145D01*
X787782Y237781D01*
X787721Y237881D01*
X787661Y237981D01*
X787656Y237985D01*
X787653Y237990D01*
X787563Y238065D01*
X787474Y238141D01*
X787468Y238143D01*
X787463Y238147D01*
X787355Y238189D01*
X787246Y238233D01*
X787238Y238234D01*
X787234Y238235D01*
X787215Y238236D01*
X787079Y238251D01*
X702952Y238251D01*
X702862Y238237D01*
X702771Y238229D01*
X702741Y238217D01*
X702709Y238212D01*
X702628Y238169D01*
X702545Y238133D01*
X702512Y238107D01*
X702492Y238096D01*
X702470Y238073D01*
X702414Y238028D01*
X573605Y109219D01*
X523120Y109219D01*
X523030Y109205D01*
X522939Y109197D01*
X522909Y109185D01*
X522877Y109180D01*
X522796Y109137D01*
X522712Y109101D01*
X522680Y109075D01*
X522660Y109064D01*
X522637Y109041D01*
X522582Y108996D01*
X468024Y54439D01*
X467956Y54344D01*
X467886Y54250D01*
X467884Y54244D01*
X467881Y54239D01*
X467846Y54128D01*
X467810Y54016D01*
X467810Y54010D01*
X467808Y54004D01*
X467811Y53887D01*
X467812Y53770D01*
X467814Y53763D01*
X467815Y53758D01*
X467821Y53741D01*
X467859Y53609D01*
X468123Y52973D01*
X468123Y48627D01*
X466460Y44613D01*
X463387Y41540D01*
X459373Y39877D01*
X455027Y39877D01*
G37*
%LPD*%
%LPC*%
G36*
X123430Y574293D02*
X123430Y574293D01*
X119416Y575956D01*
X116343Y579029D01*
X114680Y583043D01*
X114680Y587389D01*
X116343Y591403D01*
X119416Y594476D01*
X123430Y596139D01*
X127776Y596139D01*
X128412Y595875D01*
X128526Y595848D01*
X128639Y595820D01*
X128646Y595820D01*
X128652Y595819D01*
X128768Y595830D01*
X128885Y595839D01*
X128890Y595841D01*
X128897Y595842D01*
X129004Y595890D01*
X129111Y595935D01*
X129117Y595940D01*
X129121Y595942D01*
X129135Y595955D01*
X129242Y596040D01*
X373283Y840082D01*
X376482Y843281D01*
X492880Y843281D01*
X492970Y843295D01*
X493061Y843303D01*
X493091Y843315D01*
X493123Y843320D01*
X493204Y843363D01*
X493287Y843399D01*
X493320Y843425D01*
X493340Y843436D01*
X493362Y843459D01*
X493418Y843504D01*
X502696Y852782D01*
X502749Y852855D01*
X502809Y852925D01*
X502821Y852955D01*
X502840Y852981D01*
X502867Y853068D01*
X502901Y853153D01*
X502905Y853194D01*
X502912Y853216D01*
X502911Y853249D01*
X502919Y853320D01*
X502919Y853373D01*
X502906Y853454D01*
X502906Y853462D01*
X502904Y853468D01*
X502901Y853487D01*
X502883Y853604D01*
X502881Y853610D01*
X502880Y853616D01*
X502825Y853719D01*
X502772Y853823D01*
X502767Y853828D01*
X502764Y853833D01*
X502681Y853913D01*
X502596Y853996D01*
X502590Y853999D01*
X502586Y854003D01*
X502569Y854010D01*
X502449Y854076D01*
X501813Y854340D01*
X498740Y857413D01*
X497077Y861427D01*
X497077Y865773D01*
X498740Y869787D01*
X501813Y872860D01*
X505827Y874523D01*
X510173Y874523D01*
X514187Y872860D01*
X517260Y869787D01*
X518923Y865773D01*
X518923Y861427D01*
X517260Y857413D01*
X514187Y854340D01*
X513551Y854076D01*
X513451Y854015D01*
X513351Y853955D01*
X513347Y853950D01*
X513342Y853947D01*
X513267Y853857D01*
X513191Y853768D01*
X513189Y853762D01*
X513185Y853757D01*
X513143Y853649D01*
X513099Y853540D01*
X513098Y853532D01*
X513097Y853528D01*
X513096Y853509D01*
X513081Y853373D01*
X513081Y848795D01*
X497405Y833119D01*
X381007Y833119D01*
X380917Y833105D01*
X380826Y833097D01*
X380796Y833085D01*
X380764Y833080D01*
X380683Y833037D01*
X380599Y833001D01*
X380567Y832975D01*
X380547Y832964D01*
X380524Y832941D01*
X380469Y832896D01*
X136427Y588855D01*
X136360Y588761D01*
X136289Y588666D01*
X136287Y588660D01*
X136284Y588655D01*
X136249Y588544D01*
X136213Y588432D01*
X136213Y588426D01*
X136211Y588420D01*
X136214Y588303D01*
X136215Y588186D01*
X136217Y588179D01*
X136218Y588174D01*
X136224Y588157D01*
X136262Y588025D01*
X136526Y587389D01*
X136526Y583043D01*
X134863Y579029D01*
X131790Y575956D01*
X127776Y574293D01*
X123430Y574293D01*
G37*
%LPD*%
%LPC*%
G36*
X813632Y415289D02*
X813632Y415289D01*
X802973Y418145D01*
X793416Y423663D01*
X785613Y431466D01*
X780095Y441023D01*
X777239Y451682D01*
X777239Y462718D01*
X780095Y473377D01*
X785613Y482934D01*
X793416Y490737D01*
X802973Y496255D01*
X813632Y499111D01*
X824668Y499111D01*
X835327Y496255D01*
X844884Y490737D01*
X852687Y482934D01*
X858205Y473377D01*
X861061Y462718D01*
X861061Y451682D01*
X858205Y441023D01*
X852687Y431466D01*
X844884Y423663D01*
X835327Y418145D01*
X824668Y415289D01*
X813632Y415289D01*
G37*
%LPD*%
%LPC*%
G36*
X89732Y415289D02*
X89732Y415289D01*
X79073Y418145D01*
X69516Y423663D01*
X61713Y431466D01*
X56195Y441023D01*
X53339Y451682D01*
X53339Y462718D01*
X56195Y473377D01*
X61713Y482934D01*
X69516Y490737D01*
X79073Y496255D01*
X89732Y499111D01*
X100768Y499111D01*
X111427Y496255D01*
X120984Y490737D01*
X128787Y482934D01*
X134305Y473377D01*
X137161Y462718D01*
X137161Y451682D01*
X134305Y441023D01*
X128787Y431466D01*
X120984Y423663D01*
X111427Y418145D01*
X100768Y415289D01*
X89732Y415289D01*
G37*
%LPD*%
%LPC*%
G36*
X452334Y294639D02*
X452334Y294639D01*
X446531Y300442D01*
X446531Y308650D01*
X451134Y313253D01*
X451187Y313326D01*
X451247Y313396D01*
X451259Y313426D01*
X451278Y313452D01*
X451305Y313539D01*
X451339Y313624D01*
X451343Y313665D01*
X451350Y313687D01*
X451349Y313720D01*
X451357Y313791D01*
X451357Y390772D01*
X451343Y390862D01*
X451335Y390953D01*
X451323Y390983D01*
X451318Y391015D01*
X451275Y391096D01*
X451239Y391179D01*
X451213Y391212D01*
X451202Y391232D01*
X451179Y391254D01*
X451134Y391310D01*
X434363Y408082D01*
X434269Y408149D01*
X434175Y408219D01*
X434169Y408221D01*
X434164Y408225D01*
X434053Y408259D01*
X433941Y408296D01*
X433934Y408296D01*
X433928Y408297D01*
X433812Y408294D01*
X433695Y408293D01*
X433688Y408291D01*
X433683Y408291D01*
X433665Y408285D01*
X433534Y408247D01*
X432753Y407923D01*
X428307Y407923D01*
X424199Y409625D01*
X421055Y412769D01*
X419353Y416877D01*
X419353Y421323D01*
X421055Y425431D01*
X424199Y428575D01*
X424979Y428898D01*
X425079Y428960D01*
X425179Y429020D01*
X425183Y429025D01*
X425188Y429028D01*
X425263Y429118D01*
X425339Y429207D01*
X425341Y429213D01*
X425345Y429218D01*
X425387Y429326D01*
X425431Y429435D01*
X425432Y429443D01*
X425433Y429447D01*
X425434Y429465D01*
X425449Y429602D01*
X425449Y664330D01*
X425435Y664420D01*
X425427Y664511D01*
X425415Y664541D01*
X425410Y664573D01*
X425367Y664654D01*
X425331Y664737D01*
X425305Y664770D01*
X425294Y664790D01*
X425271Y664812D01*
X425226Y664868D01*
X385440Y704654D01*
X385367Y704707D01*
X385297Y704767D01*
X385267Y704779D01*
X385241Y704798D01*
X385154Y704825D01*
X385069Y704859D01*
X385028Y704863D01*
X385006Y704870D01*
X384973Y704869D01*
X384902Y704877D01*
X384822Y704877D01*
X382498Y705840D01*
X380720Y707618D01*
X379757Y709942D01*
X379757Y712458D01*
X380720Y714782D01*
X382498Y716560D01*
X384822Y717523D01*
X387338Y717523D01*
X389662Y716560D01*
X391440Y714782D01*
X392403Y712458D01*
X392403Y712378D01*
X392417Y712288D01*
X392425Y712197D01*
X392437Y712167D01*
X392442Y712135D01*
X392485Y712054D01*
X392521Y711971D01*
X392547Y711938D01*
X392558Y711918D01*
X392581Y711896D01*
X392626Y711840D01*
X435611Y668855D01*
X435611Y429602D01*
X435630Y429487D01*
X435647Y429371D01*
X435649Y429365D01*
X435650Y429359D01*
X435705Y429256D01*
X435758Y429152D01*
X435763Y429147D01*
X435766Y429142D01*
X435850Y429062D01*
X435934Y428979D01*
X435940Y428976D01*
X435944Y428972D01*
X435961Y428964D01*
X436081Y428898D01*
X436861Y428575D01*
X440005Y425431D01*
X441707Y421323D01*
X441707Y416877D01*
X441383Y416096D01*
X441357Y415983D01*
X441328Y415869D01*
X441329Y415863D01*
X441327Y415857D01*
X441338Y415740D01*
X441347Y415624D01*
X441350Y415618D01*
X441350Y415612D01*
X441398Y415504D01*
X441444Y415398D01*
X441448Y415392D01*
X441450Y415387D01*
X441463Y415373D01*
X441548Y415267D01*
X458320Y398496D01*
X461519Y395297D01*
X461519Y313791D01*
X461533Y313701D01*
X461541Y313610D01*
X461553Y313580D01*
X461558Y313548D01*
X461601Y313467D01*
X461637Y313384D01*
X461663Y313351D01*
X461674Y313331D01*
X461697Y313309D01*
X461742Y313253D01*
X466345Y308650D01*
X466345Y300442D01*
X460542Y294639D01*
X452334Y294639D01*
G37*
%LPD*%
%LPC*%
G36*
X480427Y39877D02*
X480427Y39877D01*
X476413Y41540D01*
X473340Y44613D01*
X471677Y48627D01*
X471677Y52973D01*
X473340Y56987D01*
X476413Y60060D01*
X480427Y61723D01*
X484773Y61723D01*
X485409Y61459D01*
X485523Y61432D01*
X485636Y61404D01*
X485643Y61404D01*
X485649Y61403D01*
X485765Y61414D01*
X485882Y61423D01*
X485887Y61425D01*
X485894Y61426D01*
X486001Y61474D01*
X486108Y61519D01*
X486114Y61524D01*
X486118Y61526D01*
X486132Y61539D01*
X486239Y61624D01*
X531295Y106681D01*
X581780Y106681D01*
X581870Y106695D01*
X581961Y106703D01*
X581991Y106715D01*
X582023Y106720D01*
X582104Y106763D01*
X582187Y106799D01*
X582220Y106825D01*
X582240Y106836D01*
X582262Y106859D01*
X582318Y106904D01*
X698427Y223013D01*
X787079Y223013D01*
X787194Y223032D01*
X787310Y223049D01*
X787316Y223051D01*
X787322Y223052D01*
X787425Y223107D01*
X787529Y223160D01*
X787534Y223165D01*
X787539Y223168D01*
X787618Y223251D01*
X787702Y223336D01*
X787705Y223342D01*
X787709Y223346D01*
X787716Y223363D01*
X787782Y223483D01*
X788046Y224119D01*
X791119Y227192D01*
X795133Y228855D01*
X799479Y228855D01*
X803493Y227192D01*
X806566Y224119D01*
X808229Y220105D01*
X808229Y215759D01*
X806566Y211745D01*
X803493Y208672D01*
X799479Y207009D01*
X795133Y207009D01*
X791119Y208672D01*
X788046Y211745D01*
X787782Y212381D01*
X787721Y212481D01*
X787661Y212581D01*
X787656Y212585D01*
X787653Y212590D01*
X787563Y212665D01*
X787474Y212741D01*
X787468Y212743D01*
X787463Y212747D01*
X787355Y212789D01*
X787246Y212833D01*
X787238Y212834D01*
X787234Y212835D01*
X787215Y212836D01*
X787079Y212851D01*
X702952Y212851D01*
X702862Y212837D01*
X702771Y212829D01*
X702741Y212817D01*
X702709Y212812D01*
X702628Y212769D01*
X702545Y212733D01*
X702512Y212707D01*
X702492Y212696D01*
X702470Y212673D01*
X702414Y212628D01*
X586305Y96519D01*
X535820Y96519D01*
X535730Y96505D01*
X535639Y96497D01*
X535609Y96485D01*
X535577Y96480D01*
X535496Y96437D01*
X535413Y96401D01*
X535380Y96375D01*
X535360Y96364D01*
X535338Y96341D01*
X535282Y96296D01*
X493424Y54439D01*
X493356Y54344D01*
X493286Y54250D01*
X493284Y54244D01*
X493281Y54239D01*
X493246Y54128D01*
X493210Y54016D01*
X493210Y54010D01*
X493208Y54004D01*
X493211Y53887D01*
X493212Y53770D01*
X493214Y53763D01*
X493215Y53758D01*
X493221Y53741D01*
X493259Y53609D01*
X493523Y52973D01*
X493523Y48627D01*
X491860Y44613D01*
X488787Y41540D01*
X484773Y39877D01*
X480427Y39877D01*
G37*
%LPD*%
%LPC*%
G36*
X693378Y755395D02*
X693378Y755395D01*
X686918Y757126D01*
X681126Y760470D01*
X676396Y765200D01*
X673052Y770992D01*
X671321Y777452D01*
X671321Y784140D01*
X673052Y790600D01*
X676396Y796392D01*
X681126Y801122D01*
X686918Y804466D01*
X693378Y806197D01*
X700066Y806197D01*
X706526Y804466D01*
X712318Y801122D01*
X717048Y796392D01*
X720392Y790600D01*
X722123Y784140D01*
X722123Y777452D01*
X720392Y770992D01*
X717048Y765200D01*
X712318Y760470D01*
X706526Y757126D01*
X700066Y755395D01*
X693378Y755395D01*
G37*
%LPD*%
%LPC*%
G36*
X209508Y120395D02*
X209508Y120395D01*
X203048Y122126D01*
X197256Y125470D01*
X192526Y130200D01*
X189182Y135992D01*
X187451Y142452D01*
X187451Y149140D01*
X189182Y155600D01*
X192526Y161392D01*
X197256Y166122D01*
X203048Y169466D01*
X209508Y171197D01*
X216196Y171197D01*
X222656Y169466D01*
X228448Y166122D01*
X233178Y161392D01*
X236522Y155600D01*
X238253Y149140D01*
X238253Y142452D01*
X236522Y135992D01*
X233178Y130200D01*
X228448Y125470D01*
X222656Y122126D01*
X216196Y120395D01*
X209508Y120395D01*
G37*
%LPD*%
%LPC*%
G36*
X528278Y755395D02*
X528278Y755395D01*
X521818Y757126D01*
X516026Y760470D01*
X511296Y765200D01*
X507952Y770992D01*
X506221Y777452D01*
X506221Y784140D01*
X507952Y790600D01*
X511296Y796392D01*
X516026Y801122D01*
X521818Y804466D01*
X528278Y806197D01*
X534966Y806197D01*
X541426Y804466D01*
X547218Y801122D01*
X551948Y796392D01*
X555292Y790600D01*
X557023Y784140D01*
X557023Y777452D01*
X555292Y770992D01*
X551948Y765200D01*
X547218Y760470D01*
X541426Y757126D01*
X534966Y755395D01*
X528278Y755395D01*
G37*
%LPD*%
%LPC*%
G36*
X374608Y755395D02*
X374608Y755395D01*
X368148Y757126D01*
X362356Y760470D01*
X357626Y765200D01*
X354282Y770992D01*
X352551Y777452D01*
X352551Y784140D01*
X354282Y790600D01*
X357626Y796392D01*
X362356Y801122D01*
X368148Y804466D01*
X374608Y806197D01*
X381296Y806197D01*
X387756Y804466D01*
X393548Y801122D01*
X398278Y796392D01*
X401622Y790600D01*
X403353Y784140D01*
X403353Y777452D01*
X401622Y770992D01*
X398278Y765200D01*
X393548Y760470D01*
X387756Y757126D01*
X381296Y755395D01*
X374608Y755395D01*
G37*
%LPD*%
%LPC*%
G36*
X209508Y755395D02*
X209508Y755395D01*
X203048Y757126D01*
X197256Y760470D01*
X192526Y765200D01*
X189182Y770992D01*
X187451Y777452D01*
X187451Y784140D01*
X189182Y790600D01*
X192526Y796392D01*
X197256Y801122D01*
X203048Y804466D01*
X209508Y806197D01*
X216196Y806197D01*
X222656Y804466D01*
X228448Y801122D01*
X233178Y796392D01*
X236522Y790600D01*
X238253Y784140D01*
X238253Y777452D01*
X236522Y770992D01*
X233178Y765200D01*
X228448Y760470D01*
X222656Y757126D01*
X216196Y755395D01*
X209508Y755395D01*
G37*
%LPD*%
%LPC*%
G36*
X693378Y120395D02*
X693378Y120395D01*
X686918Y122126D01*
X681126Y125470D01*
X676396Y130200D01*
X673052Y135992D01*
X671321Y142452D01*
X671321Y149140D01*
X673052Y155600D01*
X676396Y161392D01*
X681126Y166122D01*
X686918Y169466D01*
X693378Y171197D01*
X700066Y171197D01*
X706526Y169466D01*
X712318Y166122D01*
X717048Y161392D01*
X720392Y155600D01*
X722123Y149140D01*
X722123Y142452D01*
X720392Y135992D01*
X717048Y130200D01*
X712318Y125470D01*
X706526Y122126D01*
X700066Y120395D01*
X693378Y120395D01*
G37*
%LPD*%
%LPC*%
G36*
X447761Y194055D02*
X447761Y194055D01*
X444400Y195447D01*
X441951Y197896D01*
X441877Y197949D01*
X441808Y198009D01*
X441778Y198021D01*
X441751Y198040D01*
X441664Y198067D01*
X441580Y198101D01*
X441539Y198105D01*
X441516Y198112D01*
X441484Y198111D01*
X441413Y198119D01*
X356080Y198119D01*
X355990Y198105D01*
X355899Y198097D01*
X355869Y198085D01*
X355837Y198080D01*
X355756Y198037D01*
X355673Y198001D01*
X355640Y197975D01*
X355620Y197964D01*
X355598Y197941D01*
X355542Y197896D01*
X354008Y196363D01*
X351044Y195135D01*
X334756Y195135D01*
X331792Y196363D01*
X329523Y198632D01*
X328295Y201596D01*
X328295Y204804D01*
X329523Y207768D01*
X331792Y210037D01*
X334756Y211265D01*
X351044Y211265D01*
X354008Y210037D01*
X355542Y208504D01*
X355615Y208451D01*
X355685Y208391D01*
X355715Y208379D01*
X355741Y208360D01*
X355828Y208333D01*
X355913Y208299D01*
X355954Y208295D01*
X355976Y208288D01*
X356009Y208289D01*
X356080Y208281D01*
X441413Y208281D01*
X441503Y208295D01*
X441594Y208303D01*
X441624Y208315D01*
X441656Y208320D01*
X441736Y208363D01*
X441820Y208399D01*
X441852Y208425D01*
X441873Y208436D01*
X441895Y208459D01*
X441951Y208504D01*
X444400Y210953D01*
X447761Y212345D01*
X466639Y212345D01*
X470000Y210953D01*
X472573Y208380D01*
X473965Y205019D01*
X473965Y201381D01*
X472573Y198020D01*
X470000Y195447D01*
X466639Y194055D01*
X447761Y194055D01*
G37*
%LPD*%
%LPC*%
G36*
X404227Y39877D02*
X404227Y39877D01*
X400213Y41540D01*
X397140Y44613D01*
X395477Y48627D01*
X395477Y52973D01*
X395741Y53609D01*
X395768Y53723D01*
X395796Y53836D01*
X395796Y53843D01*
X395797Y53849D01*
X395786Y53965D01*
X395777Y54082D01*
X395775Y54087D01*
X395774Y54094D01*
X395726Y54201D01*
X395681Y54308D01*
X395676Y54314D01*
X395674Y54318D01*
X395661Y54332D01*
X395576Y54439D01*
X316860Y133154D01*
X316787Y133207D01*
X316717Y133267D01*
X316687Y133279D01*
X316661Y133298D01*
X316574Y133325D01*
X316489Y133359D01*
X316448Y133363D01*
X316426Y133370D01*
X316393Y133369D01*
X316322Y133377D01*
X316242Y133377D01*
X313918Y134340D01*
X312140Y136118D01*
X311177Y138442D01*
X311177Y140958D01*
X312140Y143282D01*
X313918Y145060D01*
X316242Y146023D01*
X318758Y146023D01*
X321082Y145060D01*
X322860Y143282D01*
X323823Y140958D01*
X323823Y140878D01*
X323837Y140788D01*
X323845Y140697D01*
X323857Y140667D01*
X323862Y140635D01*
X323905Y140554D01*
X323941Y140471D01*
X323967Y140438D01*
X323978Y140418D01*
X324001Y140396D01*
X324046Y140340D01*
X402761Y61624D01*
X402856Y61556D01*
X402950Y61486D01*
X402956Y61484D01*
X402961Y61481D01*
X403072Y61446D01*
X403184Y61410D01*
X403190Y61410D01*
X403196Y61408D01*
X403313Y61411D01*
X403430Y61412D01*
X403437Y61414D01*
X403442Y61415D01*
X403459Y61421D01*
X403591Y61459D01*
X404227Y61723D01*
X408573Y61723D01*
X412587Y60060D01*
X415660Y56987D01*
X417323Y52973D01*
X417323Y48627D01*
X415660Y44613D01*
X412587Y41540D01*
X408573Y39877D01*
X404227Y39877D01*
G37*
%LPD*%
%LPC*%
G36*
X379742Y387377D02*
X379742Y387377D01*
X377418Y388340D01*
X375640Y390118D01*
X374677Y392442D01*
X374677Y392522D01*
X374663Y392612D01*
X374655Y392703D01*
X374643Y392733D01*
X374638Y392765D01*
X374595Y392846D01*
X374559Y392929D01*
X374533Y392962D01*
X374522Y392982D01*
X374499Y393004D01*
X374454Y393060D01*
X318158Y449356D01*
X318085Y449409D01*
X318015Y449469D01*
X317985Y449481D01*
X317959Y449500D01*
X317872Y449527D01*
X317787Y449561D01*
X317746Y449565D01*
X317724Y449572D01*
X317691Y449571D01*
X317620Y449579D01*
X311516Y449579D01*
X311426Y449565D01*
X311335Y449557D01*
X311305Y449545D01*
X311274Y449540D01*
X311193Y449497D01*
X311109Y449461D01*
X311077Y449435D01*
X311056Y449424D01*
X311034Y449401D01*
X310978Y449356D01*
X310922Y449300D01*
X308598Y448337D01*
X306082Y448337D01*
X303758Y449300D01*
X301980Y451078D01*
X301017Y453402D01*
X301017Y455918D01*
X301980Y458242D01*
X303758Y460020D01*
X306082Y460983D01*
X308598Y460983D01*
X310922Y460020D01*
X310978Y459964D01*
X311052Y459911D01*
X311121Y459851D01*
X311151Y459839D01*
X311178Y459820D01*
X311265Y459793D01*
X311350Y459759D01*
X311390Y459755D01*
X311413Y459748D01*
X311445Y459749D01*
X311516Y459741D01*
X322145Y459741D01*
X381640Y400246D01*
X381713Y400193D01*
X381783Y400133D01*
X381813Y400121D01*
X381839Y400102D01*
X381926Y400075D01*
X382011Y400041D01*
X382052Y400037D01*
X382074Y400030D01*
X382107Y400031D01*
X382178Y400023D01*
X382258Y400023D01*
X384582Y399060D01*
X386360Y397282D01*
X387323Y394958D01*
X387323Y392442D01*
X386360Y390118D01*
X384582Y388340D01*
X382258Y387377D01*
X379742Y387377D01*
G37*
%LPD*%
%LPC*%
G36*
X575322Y163857D02*
X575322Y163857D01*
X572998Y164820D01*
X571220Y166598D01*
X570260Y168917D01*
X570214Y168990D01*
X570176Y169068D01*
X570145Y169102D01*
X570142Y169108D01*
X570141Y169109D01*
X570130Y169126D01*
X570106Y169145D01*
X570064Y169193D01*
X526596Y208085D01*
X526536Y208123D01*
X526483Y208169D01*
X526433Y208189D01*
X526388Y208218D01*
X526320Y208234D01*
X526255Y208261D01*
X526181Y208269D01*
X526149Y208277D01*
X526127Y208275D01*
X526088Y208279D01*
X524876Y208279D01*
X524786Y208265D01*
X524695Y208257D01*
X524666Y208245D01*
X524634Y208240D01*
X524553Y208197D01*
X524469Y208161D01*
X524437Y208135D01*
X524416Y208124D01*
X524394Y208101D01*
X524338Y208056D01*
X524282Y208000D01*
X521958Y207037D01*
X519442Y207037D01*
X517118Y208000D01*
X515340Y209778D01*
X514377Y212102D01*
X514377Y214618D01*
X515340Y216942D01*
X517118Y218720D01*
X519442Y219683D01*
X521958Y219683D01*
X524282Y218720D01*
X524338Y218664D01*
X524412Y218611D01*
X524481Y218551D01*
X524512Y218539D01*
X524538Y218520D01*
X524625Y218493D01*
X524710Y218459D01*
X524751Y218455D01*
X524773Y218448D01*
X524805Y218449D01*
X524876Y218441D01*
X528158Y218441D01*
X528174Y218443D01*
X528200Y218442D01*
X530158Y218551D01*
X530207Y218531D01*
X530252Y218502D01*
X530320Y218486D01*
X530385Y218459D01*
X530409Y218457D01*
X531798Y217067D01*
X531811Y217058D01*
X531829Y217038D01*
X576916Y176697D01*
X576976Y176659D01*
X577029Y176613D01*
X577079Y176593D01*
X577124Y176564D01*
X577192Y176548D01*
X577257Y176521D01*
X577331Y176513D01*
X577362Y176505D01*
X577385Y176507D01*
X577424Y176503D01*
X577838Y176503D01*
X580162Y175540D01*
X581940Y173762D01*
X582903Y171438D01*
X582903Y168922D01*
X581940Y166598D01*
X580162Y164820D01*
X577838Y163857D01*
X575322Y163857D01*
G37*
%LPD*%
%LPC*%
G36*
X768971Y293877D02*
X768971Y293877D01*
X764957Y295540D01*
X761884Y298613D01*
X760221Y302627D01*
X760221Y306973D01*
X761884Y310987D01*
X764957Y314060D01*
X765593Y314324D01*
X765693Y314385D01*
X765793Y314445D01*
X765797Y314450D01*
X765802Y314453D01*
X765876Y314542D01*
X765953Y314632D01*
X765955Y314638D01*
X765959Y314643D01*
X766001Y314751D01*
X766045Y314860D01*
X766046Y314868D01*
X766047Y314872D01*
X766048Y314891D01*
X766063Y315027D01*
X766063Y322259D01*
X766045Y322373D01*
X766027Y322490D01*
X766025Y322496D01*
X766024Y322502D01*
X765969Y322605D01*
X765916Y322709D01*
X765911Y322714D01*
X765908Y322719D01*
X765824Y322799D01*
X765740Y322882D01*
X765734Y322885D01*
X765730Y322889D01*
X765713Y322896D01*
X765593Y322962D01*
X764957Y323226D01*
X761884Y326299D01*
X760221Y330313D01*
X760221Y334659D01*
X761884Y338673D01*
X764957Y341746D01*
X768971Y343409D01*
X773317Y343409D01*
X777331Y341746D01*
X780404Y338673D01*
X782067Y334659D01*
X782067Y330313D01*
X780404Y326299D01*
X777331Y323226D01*
X776695Y322962D01*
X776595Y322901D01*
X776495Y322841D01*
X776491Y322836D01*
X776486Y322833D01*
X776411Y322743D01*
X776335Y322654D01*
X776333Y322648D01*
X776329Y322643D01*
X776287Y322535D01*
X776243Y322426D01*
X776242Y322418D01*
X776241Y322414D01*
X776240Y322395D01*
X776225Y322259D01*
X776225Y315027D01*
X776244Y314912D01*
X776261Y314796D01*
X776263Y314790D01*
X776264Y314784D01*
X776319Y314681D01*
X776372Y314577D01*
X776377Y314572D01*
X776380Y314567D01*
X776464Y314487D01*
X776548Y314404D01*
X776554Y314401D01*
X776558Y314397D01*
X776575Y314390D01*
X776695Y314324D01*
X777331Y314060D01*
X780404Y310987D01*
X782067Y306973D01*
X782067Y302627D01*
X780404Y298613D01*
X777331Y295540D01*
X773317Y293877D01*
X768971Y293877D01*
G37*
%LPD*%
%LPC*%
G36*
X447761Y244855D02*
X447761Y244855D01*
X444400Y246247D01*
X441827Y248820D01*
X440435Y252181D01*
X440435Y255819D01*
X441827Y259180D01*
X444400Y261753D01*
X447761Y263145D01*
X466639Y263145D01*
X470000Y261753D01*
X472573Y259180D01*
X473965Y255819D01*
X473965Y252181D01*
X472573Y248820D01*
X470000Y246247D01*
X466639Y244855D01*
X447761Y244855D01*
G37*
%LPD*%
%LPC*%
G36*
X328583Y366267D02*
X328583Y366267D01*
X325595Y367505D01*
X323309Y369791D01*
X322071Y372779D01*
X322071Y389221D01*
X323309Y392209D01*
X325595Y394495D01*
X328583Y395733D01*
X331817Y395733D01*
X334805Y394495D01*
X337091Y392209D01*
X338329Y389221D01*
X338329Y372779D01*
X337091Y369791D01*
X334805Y367505D01*
X331817Y366267D01*
X328583Y366267D01*
G37*
%LPD*%
%LPC*%
G36*
X303183Y366267D02*
X303183Y366267D01*
X300195Y367505D01*
X297909Y369791D01*
X296671Y372779D01*
X296671Y389221D01*
X297909Y392209D01*
X300195Y394495D01*
X303183Y395733D01*
X306417Y395733D01*
X309405Y394495D01*
X311691Y392209D01*
X312929Y389221D01*
X312929Y372779D01*
X311691Y369791D01*
X309405Y367505D01*
X306417Y366267D01*
X303183Y366267D01*
G37*
%LPD*%
%LPC*%
G36*
X277783Y366267D02*
X277783Y366267D01*
X274795Y367505D01*
X272509Y369791D01*
X271271Y372779D01*
X271271Y389221D01*
X272509Y392209D01*
X274795Y394495D01*
X277783Y395733D01*
X281017Y395733D01*
X284005Y394495D01*
X286291Y392209D01*
X287529Y389221D01*
X287529Y372779D01*
X286291Y369791D01*
X284005Y367505D01*
X281017Y366267D01*
X277783Y366267D01*
G37*
%LPD*%
%LPC*%
G36*
X334756Y245935D02*
X334756Y245935D01*
X331792Y247163D01*
X329523Y249432D01*
X328295Y252396D01*
X328295Y255604D01*
X329523Y258568D01*
X331792Y260837D01*
X334756Y262065D01*
X351044Y262065D01*
X354008Y260837D01*
X356277Y258568D01*
X357505Y255604D01*
X357505Y252396D01*
X356277Y249432D01*
X354008Y247163D01*
X351044Y245935D01*
X334756Y245935D01*
G37*
%LPD*%
%LPC*%
G36*
X334756Y169735D02*
X334756Y169735D01*
X331792Y170963D01*
X329523Y173232D01*
X328295Y176196D01*
X328295Y179404D01*
X329523Y182368D01*
X331792Y184637D01*
X334756Y185865D01*
X351044Y185865D01*
X354008Y184637D01*
X356277Y182368D01*
X357505Y179404D01*
X357505Y176196D01*
X356277Y173232D01*
X354008Y170963D01*
X351044Y169735D01*
X334756Y169735D01*
G37*
%LPD*%
%LPC*%
G36*
X258556Y245935D02*
X258556Y245935D01*
X255592Y247163D01*
X253323Y249432D01*
X252095Y252396D01*
X252095Y255604D01*
X253323Y258568D01*
X255592Y260837D01*
X258556Y262065D01*
X274844Y262065D01*
X277808Y260837D01*
X280077Y258568D01*
X281305Y255604D01*
X281305Y252396D01*
X280077Y249432D01*
X277808Y247163D01*
X274844Y245935D01*
X258556Y245935D01*
G37*
%LPD*%
%LPC*%
G36*
X326707Y407923D02*
X326707Y407923D01*
X322599Y409625D01*
X319455Y412769D01*
X317753Y416877D01*
X317753Y421323D01*
X319455Y425431D01*
X322599Y428575D01*
X326707Y430277D01*
X331153Y430277D01*
X335261Y428575D01*
X338405Y425431D01*
X340107Y421323D01*
X340107Y416877D01*
X338405Y412769D01*
X335261Y409625D01*
X331153Y407923D01*
X326707Y407923D01*
G37*
%LPD*%
%LPC*%
G36*
X531227Y852677D02*
X531227Y852677D01*
X527213Y854340D01*
X524140Y857413D01*
X522477Y861427D01*
X522477Y865773D01*
X524140Y869787D01*
X527213Y872860D01*
X531227Y874523D01*
X535573Y874523D01*
X539587Y872860D01*
X542660Y869787D01*
X544323Y865773D01*
X544323Y861427D01*
X542660Y857413D01*
X539587Y854340D01*
X535573Y852677D01*
X531227Y852677D01*
G37*
%LPD*%
%LPC*%
G36*
X124827Y611377D02*
X124827Y611377D01*
X120813Y613040D01*
X117740Y616113D01*
X116077Y620127D01*
X116077Y624473D01*
X117740Y628487D01*
X120813Y631560D01*
X124827Y633223D01*
X129173Y633223D01*
X133187Y631560D01*
X136260Y628487D01*
X137923Y624473D01*
X137923Y620127D01*
X136260Y616113D01*
X133187Y613040D01*
X129173Y611377D01*
X124827Y611377D01*
G37*
%LPD*%
%LPC*%
G36*
X582027Y852677D02*
X582027Y852677D01*
X578013Y854340D01*
X574940Y857413D01*
X573277Y861427D01*
X573277Y865773D01*
X574940Y869787D01*
X578013Y872860D01*
X582027Y874523D01*
X586373Y874523D01*
X590387Y872860D01*
X593460Y869787D01*
X595123Y865773D01*
X595123Y861427D01*
X593460Y857413D01*
X590387Y854340D01*
X586373Y852677D01*
X582027Y852677D01*
G37*
%LPD*%
%LPC*%
G36*
X556627Y852677D02*
X556627Y852677D01*
X552613Y854340D01*
X549540Y857413D01*
X547877Y861427D01*
X547877Y865773D01*
X549540Y869787D01*
X552613Y872860D01*
X556627Y874523D01*
X560973Y874523D01*
X564987Y872860D01*
X568060Y869787D01*
X569723Y865773D01*
X569723Y861427D01*
X568060Y857413D01*
X564987Y854340D01*
X560973Y852677D01*
X556627Y852677D01*
G37*
%LPD*%
%LPC*%
G36*
X480427Y852677D02*
X480427Y852677D01*
X476413Y854340D01*
X473340Y857413D01*
X471677Y861427D01*
X471677Y865773D01*
X473340Y869787D01*
X476413Y872860D01*
X480427Y874523D01*
X484773Y874523D01*
X488787Y872860D01*
X491860Y869787D01*
X493523Y865773D01*
X493523Y861427D01*
X491860Y857413D01*
X488787Y854340D01*
X484773Y852677D01*
X480427Y852677D01*
G37*
%LPD*%
%LPC*%
G36*
X759827Y156717D02*
X759827Y156717D01*
X755813Y158380D01*
X752740Y161453D01*
X751077Y165467D01*
X751077Y169813D01*
X752740Y173827D01*
X755813Y176900D01*
X759827Y178563D01*
X764173Y178563D01*
X768187Y176900D01*
X771260Y173827D01*
X772923Y169813D01*
X772923Y165467D01*
X771260Y161453D01*
X768187Y158380D01*
X764173Y156717D01*
X759827Y156717D01*
G37*
%LPD*%
%LPC*%
G36*
X455027Y852677D02*
X455027Y852677D01*
X451013Y854340D01*
X447940Y857413D01*
X446277Y861427D01*
X446277Y865773D01*
X447940Y869787D01*
X451013Y872860D01*
X455027Y874523D01*
X459373Y874523D01*
X463387Y872860D01*
X466460Y869787D01*
X468123Y865773D01*
X468123Y861427D01*
X466460Y857413D01*
X463387Y854340D01*
X459373Y852677D01*
X455027Y852677D01*
G37*
%LPD*%
%LPC*%
G36*
X429627Y852677D02*
X429627Y852677D01*
X425613Y854340D01*
X422540Y857413D01*
X420877Y861427D01*
X420877Y865773D01*
X422540Y869787D01*
X425613Y872860D01*
X429627Y874523D01*
X433973Y874523D01*
X437987Y872860D01*
X441060Y869787D01*
X442723Y865773D01*
X442723Y861427D01*
X441060Y857413D01*
X437987Y854340D01*
X433973Y852677D01*
X429627Y852677D01*
G37*
%LPD*%
%LPC*%
G36*
X404227Y852677D02*
X404227Y852677D01*
X400213Y854340D01*
X397140Y857413D01*
X395477Y861427D01*
X395477Y865773D01*
X397140Y869787D01*
X400213Y872860D01*
X404227Y874523D01*
X408573Y874523D01*
X412587Y872860D01*
X415660Y869787D01*
X417323Y865773D01*
X417323Y861427D01*
X415660Y857413D01*
X412587Y854340D01*
X408573Y852677D01*
X404227Y852677D01*
G37*
%LPD*%
%LPC*%
G36*
X378827Y852677D02*
X378827Y852677D01*
X374813Y854340D01*
X371740Y857413D01*
X370077Y861427D01*
X370077Y865773D01*
X371740Y869787D01*
X374813Y872860D01*
X378827Y874523D01*
X383173Y874523D01*
X387187Y872860D01*
X390260Y869787D01*
X391923Y865773D01*
X391923Y861427D01*
X390260Y857413D01*
X387187Y854340D01*
X383173Y852677D01*
X378827Y852677D01*
G37*
%LPD*%
%LPC*%
G36*
X378827Y39877D02*
X378827Y39877D01*
X374813Y41540D01*
X371740Y44613D01*
X370077Y48627D01*
X370077Y52973D01*
X371740Y56987D01*
X374813Y60060D01*
X378827Y61723D01*
X383173Y61723D01*
X387187Y60060D01*
X390260Y56987D01*
X391923Y52973D01*
X391923Y48627D01*
X390260Y44613D01*
X387187Y41540D01*
X383173Y39877D01*
X378827Y39877D01*
G37*
%LPD*%
%LPC*%
G36*
X505827Y39877D02*
X505827Y39877D01*
X501813Y41540D01*
X498740Y44613D01*
X497077Y48627D01*
X497077Y52973D01*
X498740Y56987D01*
X501813Y60060D01*
X505827Y61723D01*
X510173Y61723D01*
X514187Y60060D01*
X517260Y56987D01*
X518923Y52973D01*
X518923Y48627D01*
X517260Y44613D01*
X514187Y41540D01*
X510173Y39877D01*
X505827Y39877D01*
G37*
%LPD*%
%LPC*%
G36*
X531227Y39877D02*
X531227Y39877D01*
X527213Y41540D01*
X524140Y44613D01*
X522477Y48627D01*
X522477Y52973D01*
X524140Y56987D01*
X527213Y60060D01*
X531227Y61723D01*
X535573Y61723D01*
X539587Y60060D01*
X542660Y56987D01*
X544323Y52973D01*
X544323Y48627D01*
X542660Y44613D01*
X539587Y41540D01*
X535573Y39877D01*
X531227Y39877D01*
G37*
%LPD*%
%LPC*%
G36*
X295007Y831595D02*
X295007Y831595D01*
X290993Y833258D01*
X287920Y836331D01*
X286257Y840345D01*
X286257Y844691D01*
X287920Y848705D01*
X290993Y851778D01*
X295007Y853441D01*
X299353Y853441D01*
X303367Y851778D01*
X306440Y848705D01*
X308103Y844691D01*
X308103Y840345D01*
X306440Y836331D01*
X303367Y833258D01*
X299353Y831595D01*
X295007Y831595D01*
G37*
%LPD*%
%LPC*%
G36*
X556627Y39877D02*
X556627Y39877D01*
X552613Y41540D01*
X549540Y44613D01*
X547877Y48627D01*
X547877Y52973D01*
X549540Y56987D01*
X552613Y60060D01*
X556627Y61723D01*
X560973Y61723D01*
X564987Y60060D01*
X568060Y56987D01*
X569723Y52973D01*
X569723Y48627D01*
X568060Y44613D01*
X564987Y41540D01*
X560973Y39877D01*
X556627Y39877D01*
G37*
%LPD*%
%LPC*%
G36*
X582027Y39877D02*
X582027Y39877D01*
X578013Y41540D01*
X574940Y44613D01*
X573277Y48627D01*
X573277Y52973D01*
X574940Y56987D01*
X578013Y60060D01*
X582027Y61723D01*
X586373Y61723D01*
X590387Y60060D01*
X593460Y56987D01*
X595123Y52973D01*
X595123Y48627D01*
X593460Y44613D01*
X590387Y41540D01*
X586373Y39877D01*
X582027Y39877D01*
G37*
%LPD*%
%LPC*%
G36*
X609967Y67817D02*
X609967Y67817D01*
X605953Y69480D01*
X602880Y72553D01*
X601217Y76567D01*
X601217Y80913D01*
X602880Y84927D01*
X605953Y88000D01*
X609967Y89663D01*
X614313Y89663D01*
X618327Y88000D01*
X621400Y84927D01*
X623063Y80913D01*
X623063Y76567D01*
X621400Y72553D01*
X618327Y69480D01*
X614313Y67817D01*
X609967Y67817D01*
G37*
%LPD*%
%LPC*%
G36*
X353427Y39877D02*
X353427Y39877D01*
X349413Y41540D01*
X346340Y44613D01*
X344677Y48627D01*
X344677Y52973D01*
X346340Y56987D01*
X349413Y60060D01*
X353427Y61723D01*
X357773Y61723D01*
X361787Y60060D01*
X364860Y56987D01*
X366523Y52973D01*
X366523Y48627D01*
X364860Y44613D01*
X361787Y41540D01*
X357773Y39877D01*
X353427Y39877D01*
G37*
%LPD*%
%LPC*%
G36*
X195794Y374903D02*
X195794Y374903D01*
X189991Y380706D01*
X189991Y388914D01*
X195794Y394717D01*
X204002Y394717D01*
X209805Y388914D01*
X209805Y380706D01*
X204002Y374903D01*
X195794Y374903D01*
G37*
%LPD*%
%LPC*%
G36*
X364196Y320293D02*
X364196Y320293D01*
X358393Y326096D01*
X358393Y334304D01*
X364196Y340107D01*
X372404Y340107D01*
X378207Y334304D01*
X378207Y326096D01*
X372404Y320293D01*
X364196Y320293D01*
G37*
%LPD*%
%LPC*%
G36*
X237196Y320293D02*
X237196Y320293D01*
X231393Y326096D01*
X231393Y334304D01*
X237196Y340107D01*
X245404Y340107D01*
X251207Y334304D01*
X251207Y326096D01*
X245404Y320293D01*
X237196Y320293D01*
G37*
%LPD*%
%LPC*%
G36*
X452334Y421639D02*
X452334Y421639D01*
X446531Y427442D01*
X446531Y435650D01*
X452334Y441453D01*
X460542Y441453D01*
X466345Y435650D01*
X466345Y427442D01*
X460542Y421639D01*
X452334Y421639D01*
G37*
%LPD*%
%LPC*%
G36*
X364196Y294893D02*
X364196Y294893D01*
X358393Y300696D01*
X358393Y308904D01*
X364196Y314707D01*
X372404Y314707D01*
X378207Y308904D01*
X378207Y300696D01*
X372404Y294893D01*
X364196Y294893D01*
G37*
%LPD*%
%LPC*%
G36*
X268223Y168719D02*
X268223Y168719D01*
X268223Y176277D01*
X282196Y176277D01*
X281972Y175151D01*
X281287Y173499D01*
X280293Y172011D01*
X279029Y170747D01*
X277541Y169753D01*
X275889Y169068D01*
X274134Y168719D01*
X268223Y168719D01*
G37*
%LPD*%
%LPC*%
G36*
X259266Y168719D02*
X259266Y168719D01*
X257511Y169068D01*
X255859Y169753D01*
X254371Y170747D01*
X253107Y172011D01*
X252113Y173499D01*
X251428Y175151D01*
X251204Y176277D01*
X265177Y176277D01*
X265177Y168719D01*
X259266Y168719D01*
G37*
%LPD*%
%LPC*%
G36*
X357123Y865123D02*
X357123Y865123D01*
X357123Y875446D01*
X358396Y875245D01*
X360183Y874664D01*
X361857Y873811D01*
X363378Y872706D01*
X364706Y871378D01*
X365811Y869857D01*
X366664Y868183D01*
X367245Y866396D01*
X367446Y865123D01*
X357123Y865123D01*
G37*
%LPD*%
%LPC*%
G36*
X324103Y844041D02*
X324103Y844041D01*
X324103Y854364D01*
X325376Y854163D01*
X327163Y853582D01*
X328837Y852729D01*
X330358Y851624D01*
X331686Y850296D01*
X332791Y848775D01*
X333644Y847101D01*
X334225Y845314D01*
X334426Y844041D01*
X324103Y844041D01*
G37*
%LPD*%
%LPC*%
G36*
X128523Y649223D02*
X128523Y649223D01*
X128523Y659546D01*
X129796Y659345D01*
X131583Y658764D01*
X133257Y657911D01*
X134778Y656806D01*
X136106Y655478D01*
X137211Y653957D01*
X138064Y652283D01*
X138645Y650496D01*
X138846Y649223D01*
X128523Y649223D01*
G37*
%LPD*%
%LPC*%
G36*
X802131Y400811D02*
X802131Y400811D01*
X802131Y411134D01*
X803404Y410933D01*
X805191Y410352D01*
X806865Y409499D01*
X808386Y408394D01*
X809714Y407066D01*
X810819Y405545D01*
X811672Y403871D01*
X812253Y402084D01*
X812454Y400811D01*
X802131Y400811D01*
G37*
%LPD*%
%LPC*%
G36*
X801877Y373379D02*
X801877Y373379D01*
X801877Y383702D01*
X803150Y383501D01*
X804937Y382920D01*
X806611Y382067D01*
X808132Y380962D01*
X809460Y379634D01*
X810565Y378113D01*
X811418Y376439D01*
X811999Y374652D01*
X812200Y373379D01*
X801877Y373379D01*
G37*
%LPD*%
%LPC*%
G36*
X798067Y334009D02*
X798067Y334009D01*
X798067Y344332D01*
X799340Y344131D01*
X801127Y343550D01*
X802801Y342697D01*
X804322Y341592D01*
X805650Y340264D01*
X806755Y338743D01*
X807608Y337069D01*
X808189Y335282D01*
X808390Y334009D01*
X798067Y334009D01*
G37*
%LPD*%
%LPC*%
G36*
X127507Y270001D02*
X127507Y270001D01*
X127507Y280324D01*
X128780Y280123D01*
X130567Y279542D01*
X132241Y278689D01*
X133762Y277584D01*
X135090Y276256D01*
X136195Y274735D01*
X137048Y273061D01*
X137629Y271274D01*
X137830Y270001D01*
X127507Y270001D01*
G37*
%LPD*%
%LPC*%
G36*
X798067Y306323D02*
X798067Y306323D01*
X798067Y316646D01*
X799340Y316445D01*
X801127Y315864D01*
X802801Y315011D01*
X804322Y313906D01*
X805650Y312578D01*
X806755Y311057D01*
X807608Y309383D01*
X808189Y307596D01*
X808390Y306323D01*
X798067Y306323D01*
G37*
%LPD*%
%LPC*%
G36*
X798829Y270255D02*
X798829Y270255D01*
X798829Y280578D01*
X800102Y280377D01*
X801889Y279796D01*
X803563Y278943D01*
X805084Y277838D01*
X806412Y276510D01*
X807517Y274989D01*
X808370Y273315D01*
X808951Y271528D01*
X809152Y270255D01*
X798829Y270255D01*
G37*
%LPD*%
%LPC*%
G36*
X763523Y194563D02*
X763523Y194563D01*
X763523Y204886D01*
X764796Y204685D01*
X766583Y204104D01*
X768257Y203251D01*
X769778Y202146D01*
X771106Y200818D01*
X772211Y199297D01*
X773064Y197623D01*
X773645Y195836D01*
X773846Y194563D01*
X763523Y194563D01*
G37*
%LPD*%
%LPC*%
G36*
X639063Y80263D02*
X639063Y80263D01*
X639063Y90586D01*
X640336Y90385D01*
X642123Y89804D01*
X643797Y88951D01*
X645318Y87846D01*
X646646Y86518D01*
X647751Y84997D01*
X648604Y83323D01*
X649185Y81536D01*
X649386Y80263D01*
X639063Y80263D01*
G37*
%LPD*%
%LPC*%
G36*
X802131Y397765D02*
X802131Y397765D01*
X812454Y397765D01*
X812253Y396492D01*
X811672Y394705D01*
X810819Y393031D01*
X809714Y391510D01*
X808386Y390182D01*
X806865Y389077D01*
X805191Y388224D01*
X803404Y387643D01*
X802131Y387442D01*
X802131Y397765D01*
G37*
%LPD*%
%LPC*%
G36*
X798067Y330963D02*
X798067Y330963D01*
X808390Y330963D01*
X808189Y329690D01*
X807608Y327903D01*
X806755Y326229D01*
X805650Y324708D01*
X804322Y323380D01*
X802801Y322275D01*
X801127Y321422D01*
X799340Y320841D01*
X798067Y320640D01*
X798067Y330963D01*
G37*
%LPD*%
%LPC*%
G36*
X788508Y373379D02*
X788508Y373379D01*
X788709Y374652D01*
X789290Y376439D01*
X790143Y378113D01*
X791248Y379634D01*
X792576Y380962D01*
X794097Y382067D01*
X795771Y382920D01*
X797558Y383501D01*
X798831Y383702D01*
X798831Y373379D01*
X788508Y373379D01*
G37*
%LPD*%
%LPC*%
G36*
X324103Y840995D02*
X324103Y840995D01*
X334426Y840995D01*
X334225Y839722D01*
X333644Y837935D01*
X332791Y836261D01*
X331686Y834740D01*
X330358Y833412D01*
X328837Y832307D01*
X327163Y831454D01*
X325376Y830873D01*
X324103Y830672D01*
X324103Y840995D01*
G37*
%LPD*%
%LPC*%
G36*
X310734Y844041D02*
X310734Y844041D01*
X310935Y845314D01*
X311516Y847101D01*
X312369Y848775D01*
X313474Y850296D01*
X314802Y851624D01*
X316323Y852729D01*
X317997Y853582D01*
X319784Y854163D01*
X321057Y854364D01*
X321057Y844041D01*
X310734Y844041D01*
G37*
%LPD*%
%LPC*%
G36*
X798067Y303277D02*
X798067Y303277D01*
X808390Y303277D01*
X808189Y302004D01*
X807608Y300217D01*
X806755Y298543D01*
X805650Y297022D01*
X804322Y295694D01*
X802801Y294589D01*
X801127Y293736D01*
X799340Y293155D01*
X798067Y292954D01*
X798067Y303277D01*
G37*
%LPD*%
%LPC*%
G36*
X357123Y862077D02*
X357123Y862077D01*
X367446Y862077D01*
X367245Y860804D01*
X366664Y859017D01*
X365811Y857343D01*
X364706Y855822D01*
X363378Y854494D01*
X361857Y853389D01*
X360183Y852536D01*
X358396Y851955D01*
X357123Y851754D01*
X357123Y862077D01*
G37*
%LPD*%
%LPC*%
G36*
X763523Y191517D02*
X763523Y191517D01*
X773846Y191517D01*
X773645Y190244D01*
X773064Y188457D01*
X772211Y186783D01*
X771106Y185262D01*
X769778Y183934D01*
X768257Y182829D01*
X766583Y181976D01*
X764796Y181395D01*
X763523Y181194D01*
X763523Y191517D01*
G37*
%LPD*%
%LPC*%
G36*
X785460Y270255D02*
X785460Y270255D01*
X785661Y271528D01*
X786242Y273315D01*
X787095Y274989D01*
X788200Y276510D01*
X789528Y277838D01*
X791049Y278943D01*
X792723Y279796D01*
X794510Y280377D01*
X795783Y280578D01*
X795783Y270255D01*
X785460Y270255D01*
G37*
%LPD*%
%LPC*%
G36*
X784698Y306323D02*
X784698Y306323D01*
X784899Y307596D01*
X785480Y309383D01*
X786333Y311057D01*
X787438Y312578D01*
X788766Y313906D01*
X790287Y315011D01*
X791961Y315864D01*
X793748Y316445D01*
X795021Y316646D01*
X795021Y306323D01*
X784698Y306323D01*
G37*
%LPD*%
%LPC*%
G36*
X801877Y370333D02*
X801877Y370333D01*
X812200Y370333D01*
X811999Y369060D01*
X811418Y367273D01*
X810565Y365599D01*
X809460Y364078D01*
X808132Y362750D01*
X806611Y361645D01*
X804937Y360792D01*
X803150Y360211D01*
X801877Y360010D01*
X801877Y370333D01*
G37*
%LPD*%
%LPC*%
G36*
X114138Y270001D02*
X114138Y270001D01*
X114339Y271274D01*
X114920Y273061D01*
X115773Y274735D01*
X116878Y276256D01*
X118206Y277584D01*
X119727Y278689D01*
X121401Y279542D01*
X123188Y280123D01*
X124461Y280324D01*
X124461Y270001D01*
X114138Y270001D01*
G37*
%LPD*%
%LPC*%
G36*
X343754Y865123D02*
X343754Y865123D01*
X343955Y866396D01*
X344536Y868183D01*
X345389Y869857D01*
X346494Y871378D01*
X347822Y872706D01*
X349343Y873811D01*
X351017Y874664D01*
X352804Y875245D01*
X354077Y875446D01*
X354077Y865123D01*
X343754Y865123D01*
G37*
%LPD*%
%LPC*%
G36*
X750154Y194563D02*
X750154Y194563D01*
X750355Y195836D01*
X750936Y197623D01*
X751789Y199297D01*
X752894Y200818D01*
X754222Y202146D01*
X755743Y203251D01*
X757417Y204104D01*
X759204Y204685D01*
X760477Y204886D01*
X760477Y194563D01*
X750154Y194563D01*
G37*
%LPD*%
%LPC*%
G36*
X788762Y400811D02*
X788762Y400811D01*
X788963Y402084D01*
X789544Y403871D01*
X790397Y405545D01*
X791502Y407066D01*
X792830Y408394D01*
X794351Y409499D01*
X796025Y410352D01*
X797812Y410933D01*
X799085Y411134D01*
X799085Y400811D01*
X788762Y400811D01*
G37*
%LPD*%
%LPC*%
G36*
X128523Y646177D02*
X128523Y646177D01*
X138846Y646177D01*
X138645Y644904D01*
X138064Y643117D01*
X137211Y641443D01*
X136106Y639922D01*
X134778Y638594D01*
X133257Y637489D01*
X131583Y636636D01*
X129796Y636055D01*
X128523Y635854D01*
X128523Y646177D01*
G37*
%LPD*%
%LPC*%
G36*
X798829Y267209D02*
X798829Y267209D01*
X809152Y267209D01*
X808951Y265936D01*
X808370Y264149D01*
X807517Y262475D01*
X806412Y260954D01*
X805084Y259626D01*
X803563Y258521D01*
X801889Y257668D01*
X800102Y257087D01*
X798829Y256886D01*
X798829Y267209D01*
G37*
%LPD*%
%LPC*%
G36*
X115154Y649223D02*
X115154Y649223D01*
X115355Y650496D01*
X115936Y652283D01*
X116789Y653957D01*
X117894Y655478D01*
X119222Y656806D01*
X120743Y657911D01*
X122417Y658764D01*
X124204Y659345D01*
X125477Y659546D01*
X125477Y649223D01*
X115154Y649223D01*
G37*
%LPD*%
%LPC*%
G36*
X127507Y266955D02*
X127507Y266955D01*
X137830Y266955D01*
X137629Y265682D01*
X137048Y263895D01*
X136195Y262221D01*
X135090Y260700D01*
X133762Y259372D01*
X132241Y258267D01*
X130567Y257414D01*
X128780Y256833D01*
X127507Y256632D01*
X127507Y266955D01*
G37*
%LPD*%
%LPC*%
G36*
X625694Y80263D02*
X625694Y80263D01*
X625895Y81536D01*
X626476Y83323D01*
X627329Y84997D01*
X628434Y86518D01*
X629762Y87846D01*
X631283Y88951D01*
X632957Y89804D01*
X634744Y90385D01*
X636017Y90586D01*
X636017Y80263D01*
X625694Y80263D01*
G37*
%LPD*%
%LPC*%
G36*
X639063Y77217D02*
X639063Y77217D01*
X649386Y77217D01*
X649185Y75944D01*
X648604Y74157D01*
X647751Y72483D01*
X646646Y70962D01*
X645318Y69634D01*
X643797Y68529D01*
X642123Y67676D01*
X640336Y67095D01*
X639063Y66894D01*
X639063Y77217D01*
G37*
%LPD*%
%LPC*%
G36*
X784698Y334009D02*
X784698Y334009D01*
X784899Y335282D01*
X785480Y337069D01*
X786333Y338743D01*
X787438Y340264D01*
X788766Y341592D01*
X790287Y342697D01*
X791961Y343550D01*
X793748Y344131D01*
X795021Y344332D01*
X795021Y334009D01*
X784698Y334009D01*
G37*
%LPD*%
%LPC*%
G36*
X797812Y387643D02*
X797812Y387643D01*
X796025Y388224D01*
X794351Y389077D01*
X792830Y390182D01*
X791502Y391510D01*
X790397Y393031D01*
X789544Y394705D01*
X788963Y396492D01*
X788762Y397765D01*
X799085Y397765D01*
X799085Y387442D01*
X797812Y387643D01*
G37*
%LPD*%
%LPC*%
G36*
X793748Y293155D02*
X793748Y293155D01*
X791961Y293736D01*
X790287Y294589D01*
X788766Y295694D01*
X787438Y297022D01*
X786333Y298543D01*
X785480Y300217D01*
X784899Y302004D01*
X784698Y303277D01*
X795021Y303277D01*
X795021Y292954D01*
X793748Y293155D01*
G37*
%LPD*%
%LPC*%
G36*
X793748Y320841D02*
X793748Y320841D01*
X791961Y321422D01*
X790287Y322275D01*
X788766Y323380D01*
X787438Y324708D01*
X786333Y326229D01*
X785480Y327903D01*
X784899Y329690D01*
X784698Y330963D01*
X795021Y330963D01*
X795021Y320640D01*
X793748Y320841D01*
G37*
%LPD*%
%LPC*%
G36*
X794510Y257087D02*
X794510Y257087D01*
X792723Y257668D01*
X791049Y258521D01*
X789528Y259626D01*
X788200Y260954D01*
X787095Y262475D01*
X786242Y264149D01*
X785661Y265936D01*
X785460Y267209D01*
X795783Y267209D01*
X795783Y256886D01*
X794510Y257087D01*
G37*
%LPD*%
%LPC*%
G36*
X123188Y256833D02*
X123188Y256833D01*
X121401Y257414D01*
X119727Y258267D01*
X118206Y259372D01*
X116878Y260700D01*
X115773Y262221D01*
X114920Y263895D01*
X114339Y265682D01*
X114138Y266955D01*
X124461Y266955D01*
X124461Y256632D01*
X123188Y256833D01*
G37*
%LPD*%
%LPC*%
G36*
X124204Y636055D02*
X124204Y636055D01*
X122417Y636636D01*
X120743Y637489D01*
X119222Y638594D01*
X117894Y639922D01*
X116789Y641443D01*
X115936Y643117D01*
X115355Y644904D01*
X115154Y646177D01*
X125477Y646177D01*
X125477Y635854D01*
X124204Y636055D01*
G37*
%LPD*%
%LPC*%
G36*
X352804Y851955D02*
X352804Y851955D01*
X351017Y852536D01*
X349343Y853389D01*
X347822Y854494D01*
X346494Y855822D01*
X345389Y857343D01*
X344536Y859017D01*
X343955Y860804D01*
X343754Y862077D01*
X354077Y862077D01*
X354077Y851754D01*
X352804Y851955D01*
G37*
%LPD*%
%LPC*%
G36*
X319784Y830873D02*
X319784Y830873D01*
X317997Y831454D01*
X316323Y832307D01*
X314802Y833412D01*
X313474Y834740D01*
X312369Y836261D01*
X311516Y837935D01*
X310935Y839722D01*
X310734Y840995D01*
X321057Y840995D01*
X321057Y830672D01*
X319784Y830873D01*
G37*
%LPD*%
%LPC*%
G36*
X797558Y360211D02*
X797558Y360211D01*
X795771Y360792D01*
X794097Y361645D01*
X792576Y362750D01*
X791248Y364078D01*
X790143Y365599D01*
X789290Y367273D01*
X788709Y369060D01*
X788508Y370333D01*
X798831Y370333D01*
X798831Y360010D01*
X797558Y360211D01*
G37*
%LPD*%
%LPC*%
G36*
X759204Y181395D02*
X759204Y181395D01*
X757417Y181976D01*
X755743Y182829D01*
X754222Y183934D01*
X752894Y185262D01*
X751789Y186783D01*
X750936Y188457D01*
X750355Y190244D01*
X750154Y191517D01*
X760477Y191517D01*
X760477Y181194D01*
X759204Y181395D01*
G37*
%LPD*%
%LPC*%
G36*
X634744Y67095D02*
X634744Y67095D01*
X632957Y67676D01*
X631283Y68529D01*
X629762Y69634D01*
X628434Y70962D01*
X627329Y72483D01*
X626476Y74157D01*
X625895Y75944D01*
X625694Y77217D01*
X636017Y77217D01*
X636017Y66894D01*
X634744Y67095D01*
G37*
%LPD*%
%LPC*%
G36*
X201421Y259333D02*
X201421Y259333D01*
X201421Y268733D01*
X204422Y268733D01*
X210821Y262334D01*
X210821Y259333D01*
X201421Y259333D01*
G37*
%LPD*%
%LPC*%
G36*
X242823Y306323D02*
X242823Y306323D01*
X242823Y315723D01*
X245824Y315723D01*
X252223Y309324D01*
X252223Y306323D01*
X242823Y306323D01*
G37*
%LPD*%
%LPC*%
G36*
X188975Y259333D02*
X188975Y259333D01*
X188975Y262334D01*
X195374Y268733D01*
X198375Y268733D01*
X198375Y259333D01*
X188975Y259333D01*
G37*
%LPD*%
%LPC*%
G36*
X201421Y246887D02*
X201421Y246887D01*
X201421Y256287D01*
X210821Y256287D01*
X210821Y253286D01*
X204422Y246887D01*
X201421Y246887D01*
G37*
%LPD*%
%LPC*%
G36*
X230377Y306323D02*
X230377Y306323D01*
X230377Y309324D01*
X236776Y315723D01*
X239777Y315723D01*
X239777Y306323D01*
X230377Y306323D01*
G37*
%LPD*%
%LPC*%
G36*
X242823Y293877D02*
X242823Y293877D01*
X242823Y303277D01*
X252223Y303277D01*
X252223Y300276D01*
X245824Y293877D01*
X242823Y293877D01*
G37*
%LPD*%
%LPC*%
G36*
X236776Y293877D02*
X236776Y293877D01*
X230377Y300276D01*
X230377Y303277D01*
X239777Y303277D01*
X239777Y293877D01*
X236776Y293877D01*
G37*
%LPD*%
%LPC*%
G36*
X195374Y246887D02*
X195374Y246887D01*
X188975Y253286D01*
X188975Y256287D01*
X198375Y256287D01*
X198375Y246887D01*
X195374Y246887D01*
G37*
%LPD*%
%LPC*%
G36*
X796543Y304799D02*
X796543Y304799D01*
X796543Y304801D01*
X796545Y304801D01*
X796545Y304799D01*
X796543Y304799D01*
G37*
%LPD*%
%LPC*%
G36*
X241299Y304799D02*
X241299Y304799D01*
X241299Y304801D01*
X241301Y304801D01*
X241301Y304799D01*
X241299Y304799D01*
G37*
%LPD*%
%LPC*%
G36*
X797305Y268731D02*
X797305Y268731D01*
X797305Y268733D01*
X797307Y268733D01*
X797307Y268731D01*
X797305Y268731D01*
G37*
%LPD*%
%LPC*%
G36*
X125983Y268477D02*
X125983Y268477D01*
X125983Y268479D01*
X125985Y268479D01*
X125985Y268477D01*
X125983Y268477D01*
G37*
%LPD*%
%LPC*%
G36*
X796543Y332485D02*
X796543Y332485D01*
X796543Y332487D01*
X796545Y332487D01*
X796545Y332485D01*
X796543Y332485D01*
G37*
%LPD*%
%LPC*%
G36*
X199897Y257809D02*
X199897Y257809D01*
X199897Y257811D01*
X199899Y257811D01*
X199899Y257809D01*
X199897Y257809D01*
G37*
%LPD*%
%LPC*%
G36*
X126999Y647699D02*
X126999Y647699D01*
X126999Y647701D01*
X127001Y647701D01*
X127001Y647699D01*
X126999Y647699D01*
G37*
%LPD*%
%LPC*%
G36*
X761999Y193039D02*
X761999Y193039D01*
X761999Y193041D01*
X762001Y193041D01*
X762001Y193039D01*
X761999Y193039D01*
G37*
%LPD*%
%LPC*%
G36*
X637539Y78739D02*
X637539Y78739D01*
X637539Y78741D01*
X637541Y78741D01*
X637541Y78739D01*
X637539Y78739D01*
G37*
%LPD*%
%LPC*%
G36*
X322579Y842517D02*
X322579Y842517D01*
X322579Y842519D01*
X322581Y842519D01*
X322581Y842517D01*
X322579Y842517D01*
G37*
%LPD*%
%LPC*%
G36*
X800607Y399287D02*
X800607Y399287D01*
X800607Y399289D01*
X800609Y399289D01*
X800609Y399287D01*
X800607Y399287D01*
G37*
%LPD*%
%LPC*%
G36*
X800353Y371855D02*
X800353Y371855D01*
X800353Y371857D01*
X800355Y371857D01*
X800355Y371855D01*
X800353Y371855D01*
G37*
%LPD*%
%LPC*%
G36*
X355599Y863599D02*
X355599Y863599D01*
X355599Y863601D01*
X355601Y863601D01*
X355601Y863599D01*
X355599Y863599D01*
G37*
%LPD*%
D10*
X775208Y399288D03*
X800608Y399288D03*
X771144Y304800D03*
X796544Y304800D03*
X125603Y585216D03*
X797306Y268732D03*
X797306Y243332D03*
X797306Y217932D03*
X125984Y268478D03*
X125984Y243078D03*
X125984Y217678D03*
X771144Y332486D03*
X796544Y332486D03*
X774954Y371856D03*
X800354Y371856D03*
X297180Y842518D03*
X322580Y842518D03*
D11*
X241300Y304800D03*
X368300Y304800D03*
X241300Y330200D03*
X368300Y330200D03*
D12*
X199898Y257810D03*
X199898Y384810D03*
D13*
X456438Y431546D03*
X456438Y304546D03*
D14*
X328930Y419100D03*
X430530Y419100D03*
D10*
X355600Y50800D03*
X381000Y50800D03*
X406400Y50800D03*
X431800Y50800D03*
X457200Y50800D03*
X482600Y50800D03*
X508000Y50800D03*
X533400Y50800D03*
X558800Y50800D03*
X584200Y50800D03*
X355600Y863600D03*
X381000Y863600D03*
X406400Y863600D03*
X431800Y863600D03*
X457200Y863600D03*
X482600Y863600D03*
X508000Y863600D03*
X533400Y863600D03*
X558800Y863600D03*
X584200Y863600D03*
D15*
X273240Y177800D02*
X260160Y177800D01*
X260160Y203200D02*
X273240Y203200D01*
X273240Y228600D02*
X260160Y228600D01*
X260160Y254000D02*
X273240Y254000D01*
X336360Y254000D02*
X349440Y254000D01*
X349440Y228600D02*
X336360Y228600D01*
X336360Y203200D02*
X349440Y203200D01*
X349440Y177800D02*
X336360Y177800D01*
D16*
X449580Y203200D02*
X464820Y203200D01*
X464820Y228600D02*
X449580Y228600D01*
X449580Y254000D02*
X464820Y254000D01*
D17*
X279400Y374396D02*
X279400Y387604D01*
X330200Y387604D02*
X330200Y374396D01*
X304800Y374396D02*
X304800Y387604D01*
D10*
X762000Y167640D03*
X762000Y193040D03*
X127000Y622300D03*
X127000Y647700D03*
X612140Y78740D03*
X637540Y78740D03*
D18*
X153162Y190500D02*
X125984Y217678D01*
X153162Y190500D02*
X304800Y190500D01*
X304800Y177800D01*
X406400Y76200D02*
X419100Y76200D01*
X431800Y63500D01*
X431800Y50800D01*
X406400Y76200D02*
X304800Y177800D01*
X153162Y215900D02*
X125984Y243078D01*
X153162Y215900D02*
X304800Y215900D01*
D19*
X304800Y215900D03*
X317500Y139700D03*
D18*
X406400Y50800D01*
X482600Y50800D02*
X533400Y101600D01*
X584200Y101600D01*
X700532Y217932D01*
X797306Y217932D01*
X520700Y114300D02*
X457200Y50800D01*
X520700Y114300D02*
X571500Y114300D01*
X700532Y243332D01*
X797306Y243332D01*
X457200Y228600D02*
X342900Y228600D01*
X457200Y228600D02*
X631698Y228600D01*
X774954Y371856D01*
X774954Y399034D01*
X775208Y399288D01*
X771144Y332486D02*
X771144Y304800D01*
X457200Y203200D02*
X342900Y203200D01*
X431165Y418465D02*
X430530Y419100D01*
X431165Y418465D02*
X456438Y393192D01*
X456438Y304546D01*
X431165Y418465D02*
X431165Y419735D01*
D19*
X576580Y170180D03*
D18*
X528320Y213360D01*
X520700Y213360D01*
D19*
X520700Y213360D03*
D18*
X430530Y419100D02*
X430530Y666750D01*
X386080Y711200D01*
D19*
X386080Y711200D03*
X482600Y215900D03*
D18*
X482600Y180340D01*
X482600Y177800D01*
X482600Y152400D01*
X431800Y101600D01*
D19*
X431800Y101600D03*
X533400Y180340D03*
D18*
X482600Y180340D01*
X482600Y177800D02*
X406400Y177800D01*
D19*
X406400Y177800D03*
X381000Y393700D03*
D18*
X320040Y454660D01*
X307340Y454660D01*
D19*
X307340Y454660D03*
D18*
X125603Y585216D02*
X378587Y838200D01*
X495300Y838200D01*
X508000Y850900D01*
X508000Y863600D01*
M02*
