G04 EAGLE Gerber X2 export*
%TF.Part,Single*%
%TF.FileFunction,Other,Solder stop mask CMP*%
%TF.FilePolarity,Positive*%
%TF.GenerationSoftware,Autodesk,EAGLE,9.0.1*%
%TF.CreationDate,2019-01-14T12:18:35Z*%
G75*
%MOMM*%
%FSLAX34Y34*%
%LPD*%
%AMOC8*
5,1,8,0,0,1.08239X$1,22.5*%
G01*
%ADD10R,1.703200X1.503200*%
%ADD11R,1.219200X1.219200*%
%ADD12R,1.603200X3.759200*%
%ADD13R,1.203200X1.303200*%
%ADD14R,1.303200X1.203200*%
%ADD15R,1.503200X1.703200*%
%ADD16R,3.203200X1.603200*%
%ADD17R,2.203200X2.603200*%
%ADD18R,0.703200X2.511200*%
%ADD19C,1.203200*%
%ADD20R,1.727200X2.387600*%
%ADD21R,3.503200X2.703200*%
%ADD22R,1.603200X1.603200*%
%ADD23R,1.553200X1.003200*%
%ADD24R,1.703200X0.553200*%
%ADD25R,0.553200X1.703200*%
%ADD26R,6.403200X5.603200*%
%ADD27R,1.803200X1.203200*%
%ADD28R,0.553200X0.433200*%
%ADD29R,0.433200X0.553200*%
%ADD30C,2.003200*%
%ADD31C,2.082800*%
%ADD32R,3.303200X5.803200*%
%ADD33R,1.403200X1.403200*%
%ADD34R,2.235200X2.235200*%
%ADD35C,2.235200*%
%ADD36R,1.203200X1.403200*%
%ADD37C,1.524000*%
%ADD38R,1.103200X0.653200*%
%ADD39R,1.753200X1.503200*%
%ADD40R,1.903200X0.903200*%
%ADD41P,6.731600X8X202.500000*%
%ADD42R,2.403200X1.053200*%
%ADD43R,1.253200X1.203200*%
%ADD44R,1.600200X0.551200*%
%ADD45C,1.411200*%
%ADD46R,2.203200X1.203200*%
%ADD47C,3.203200*%
%ADD48R,0.753200X1.403200*%
%ADD49C,1.611200*%
%ADD50C,1.879600*%
%ADD51C,5.537200*%
%ADD52C,0.959600*%
%ADD53C,1.109600*%
%ADD54C,1.209600*%
%ADD55C,1.059600*%
%ADD56C,1.309600*%


D10*
X207010Y1019200D03*
X207010Y1038200D03*
X166370Y997560D03*
X166370Y978560D03*
D11*
X1204595Y947420D03*
X1185545Y947420D03*
X432435Y711200D03*
X413385Y711200D03*
X1204595Y934720D03*
X1185545Y934720D03*
D12*
X1162050Y837060D03*
X1162050Y890140D03*
D11*
X434975Y457200D03*
X415925Y457200D03*
D12*
X1530350Y720220D03*
X1530350Y773300D03*
D11*
X1207135Y1046480D03*
X1188085Y1046480D03*
X437515Y208280D03*
X418465Y208280D03*
D12*
X1162050Y707520D03*
X1162050Y760600D03*
D10*
X227330Y1019200D03*
X227330Y1038200D03*
D12*
X1530350Y600840D03*
X1530350Y653920D03*
D11*
X1204595Y909320D03*
X1185545Y909320D03*
X1204595Y922020D03*
X1185545Y922020D03*
D12*
X1162050Y966600D03*
X1162050Y1019680D03*
X1530350Y976760D03*
X1530350Y1029840D03*
D11*
X1204595Y784860D03*
X1185545Y784860D03*
D12*
X1164590Y306200D03*
X1164590Y359280D03*
X1530350Y854840D03*
X1530350Y907920D03*
D11*
X1207135Y650240D03*
X1188085Y650240D03*
D12*
X1162050Y572900D03*
X1162050Y625980D03*
D10*
X186690Y1019200D03*
X186690Y1038200D03*
D12*
X1530350Y461140D03*
X1530350Y514220D03*
D11*
X1204595Y520700D03*
X1185545Y520700D03*
D12*
X1162050Y445900D03*
X1162050Y498980D03*
X1530350Y326520D03*
X1530350Y379600D03*
D11*
X1204595Y383540D03*
X1185545Y383540D03*
D10*
X364490Y996340D03*
X364490Y1015340D03*
D13*
X1380490Y226940D03*
X1380490Y209940D03*
X1314450Y226940D03*
X1314450Y209940D03*
X1395730Y226940D03*
X1395730Y209940D03*
D14*
X543170Y523240D03*
X526170Y523240D03*
D15*
X621690Y574040D03*
X640690Y574040D03*
D14*
X955430Y530860D03*
X972430Y530860D03*
X1044330Y464820D03*
X1061330Y464820D03*
X1044330Y449580D03*
X1061330Y449580D03*
D15*
X513690Y807720D03*
X494690Y807720D03*
D10*
X166370Y1038200D03*
X166370Y1019200D03*
D16*
X1064390Y937260D03*
X1112390Y937260D03*
X1216790Y246380D03*
X1264790Y246380D03*
D15*
X448970Y604520D03*
X467970Y604520D03*
X210210Y929640D03*
X229210Y929640D03*
D10*
X186690Y997560D03*
X186690Y978560D03*
D17*
X337370Y981000D03*
D18*
X309370Y975360D03*
X301370Y975360D03*
X293370Y975360D03*
X285370Y975360D03*
X277370Y975360D03*
D17*
X337370Y1036000D03*
X249370Y981000D03*
X249370Y1036000D03*
D19*
X315370Y1006000D03*
X271370Y1006000D03*
D20*
X197485Y635000D03*
X160655Y635000D03*
X200025Y383540D03*
X163195Y383540D03*
X200025Y424180D03*
X163195Y424180D03*
X200025Y464820D03*
X163195Y464820D03*
X200025Y505460D03*
X163195Y505460D03*
X271145Y383540D03*
X234315Y383540D03*
X271145Y424180D03*
X234315Y424180D03*
X271145Y464820D03*
X234315Y464820D03*
X271145Y505460D03*
X234315Y505460D03*
D21*
X1235710Y768060D03*
X1235710Y700060D03*
D22*
X217170Y998940D03*
X217170Y961940D03*
D21*
X1235710Y633440D03*
X1235710Y565440D03*
D20*
X197485Y134620D03*
X160655Y134620D03*
X197485Y175260D03*
X160655Y175260D03*
X197485Y215900D03*
X160655Y215900D03*
X197485Y256540D03*
X160655Y256540D03*
X268605Y134620D03*
X231775Y134620D03*
X268605Y175260D03*
X231775Y175260D03*
X268605Y215900D03*
X231775Y215900D03*
X268605Y256540D03*
X231775Y256540D03*
D21*
X1233170Y1024600D03*
X1233170Y956600D03*
D20*
X268605Y635000D03*
X231775Y635000D03*
D21*
X1233170Y897600D03*
X1233170Y829600D03*
X1235710Y503900D03*
X1235710Y435900D03*
X1235710Y366740D03*
X1235710Y298740D03*
D23*
X1370330Y99060D03*
X1395730Y99060D03*
X1395730Y187960D03*
X1370330Y187960D03*
X951230Y449580D03*
X976630Y449580D03*
X951230Y464820D03*
X976630Y464820D03*
X953770Y421640D03*
X979170Y421640D03*
D20*
X268605Y675640D03*
X231775Y675640D03*
X268605Y716280D03*
X231775Y716280D03*
X268605Y756920D03*
X231775Y756920D03*
X197485Y756920D03*
X160655Y756920D03*
X197485Y716280D03*
X160655Y716280D03*
X197485Y675640D03*
X160655Y675640D03*
D13*
X1365250Y209940D03*
X1365250Y226940D03*
D24*
X723910Y616260D03*
X723910Y611260D03*
X723910Y606260D03*
X723910Y601260D03*
X723910Y596260D03*
X723910Y591260D03*
X723910Y586260D03*
X723910Y581260D03*
X723910Y576260D03*
X723910Y571260D03*
X723910Y566260D03*
X723910Y561260D03*
X723910Y556260D03*
X723910Y551260D03*
X723910Y546260D03*
X723910Y541260D03*
X723910Y536260D03*
X723910Y531260D03*
X723910Y526260D03*
X723910Y521260D03*
X723910Y516260D03*
X723910Y511260D03*
X723910Y506260D03*
X723910Y501260D03*
X723910Y496260D03*
D25*
X743910Y476260D03*
X748910Y476260D03*
X753910Y476260D03*
X758910Y476260D03*
X763910Y476260D03*
X768910Y476260D03*
X773910Y476260D03*
X778910Y476260D03*
X783910Y476260D03*
X788910Y476260D03*
X793910Y476260D03*
X798910Y476260D03*
X803910Y476260D03*
X808910Y476260D03*
X813910Y476260D03*
X818910Y476260D03*
X823910Y476260D03*
X828910Y476260D03*
X833910Y476260D03*
X838910Y476260D03*
X843910Y476260D03*
X848910Y476260D03*
X853910Y476260D03*
X858910Y476260D03*
X863910Y476260D03*
D24*
X883910Y496260D03*
X883910Y501260D03*
X883910Y506260D03*
X883910Y511260D03*
X883910Y516260D03*
X883910Y521260D03*
X883910Y526260D03*
X883910Y531260D03*
X883910Y536260D03*
X883910Y541260D03*
X883910Y546260D03*
X883910Y551260D03*
X883910Y556260D03*
X883910Y561260D03*
X883910Y566260D03*
X883910Y571260D03*
X883910Y576260D03*
X883910Y581260D03*
X883910Y586260D03*
X883910Y591260D03*
X883910Y596260D03*
X883910Y601260D03*
X883910Y606260D03*
X883910Y611260D03*
X883910Y616260D03*
D25*
X863910Y636260D03*
X858910Y636260D03*
X853910Y636260D03*
X848910Y636260D03*
X843910Y636260D03*
X838910Y636260D03*
X833910Y636260D03*
X828910Y636260D03*
X823910Y636260D03*
X818910Y636260D03*
X813910Y636260D03*
X808910Y636260D03*
X803910Y636260D03*
X798910Y636260D03*
X793910Y636260D03*
X788910Y636260D03*
X783910Y636260D03*
X778910Y636260D03*
X773910Y636260D03*
X768910Y636260D03*
X763910Y636260D03*
X758910Y636260D03*
X753910Y636260D03*
X748910Y636260D03*
X743910Y636260D03*
D26*
X1080370Y637540D03*
D27*
X1007370Y660340D03*
X1007370Y614740D03*
D28*
X997450Y456810D03*
X997450Y452510D03*
X997450Y461110D03*
X997450Y465410D03*
X997450Y469710D03*
X997450Y448210D03*
X997450Y443910D03*
X997450Y439610D03*
D29*
X1007500Y439910D03*
X1011800Y439910D03*
X1016100Y439910D03*
X1003200Y439910D03*
X1003200Y469410D03*
X1007500Y469410D03*
X1011800Y469410D03*
X1016100Y469410D03*
D28*
X1021850Y456810D03*
X1021850Y452510D03*
X1021850Y448210D03*
X1021850Y443910D03*
X1021850Y439610D03*
X1021850Y461110D03*
X1021850Y465410D03*
X1021850Y469710D03*
D30*
X345550Y444500D02*
X327550Y444500D01*
X378350Y457200D02*
X396350Y457200D01*
X345550Y469900D02*
X327550Y469900D01*
X378350Y482600D02*
X396350Y482600D01*
X345550Y495300D02*
X327550Y495300D01*
X378350Y508000D02*
X396350Y508000D01*
X396350Y431800D02*
X378350Y431800D01*
X345550Y419100D02*
X327550Y419100D01*
X378350Y406400D02*
X396350Y406400D01*
X345550Y393700D02*
X327550Y393700D01*
X378350Y381000D02*
X396350Y381000D01*
X345550Y520700D02*
X327550Y520700D01*
X378350Y533400D02*
X396350Y533400D01*
X345550Y368300D02*
X327550Y368300D01*
X378350Y355600D02*
X396350Y355600D01*
D26*
X1080370Y850900D03*
D27*
X1007370Y873700D03*
X1007370Y828100D03*
D30*
X343010Y698500D02*
X325010Y698500D01*
X375810Y711200D02*
X393810Y711200D01*
X343010Y723900D02*
X325010Y723900D01*
X375810Y736600D02*
X393810Y736600D01*
X343010Y749300D02*
X325010Y749300D01*
X375810Y762000D02*
X393810Y762000D01*
X393810Y685800D02*
X375810Y685800D01*
X343010Y673100D02*
X325010Y673100D01*
X375810Y660400D02*
X393810Y660400D01*
X343010Y647700D02*
X325010Y647700D01*
X375810Y635000D02*
X393810Y635000D01*
X343010Y774700D02*
X325010Y774700D01*
X375810Y787400D02*
X393810Y787400D01*
X343010Y622300D02*
X325010Y622300D01*
X375810Y609600D02*
X393810Y609600D01*
D26*
X1080370Y779780D03*
D27*
X1007370Y802580D03*
X1007370Y756980D03*
D26*
X1080370Y708660D03*
D27*
X1007370Y731460D03*
X1007370Y685860D03*
D30*
X345550Y195580D02*
X327550Y195580D01*
X378350Y208280D02*
X396350Y208280D01*
X345550Y220980D02*
X327550Y220980D01*
X378350Y233680D02*
X396350Y233680D01*
X345550Y246380D02*
X327550Y246380D01*
X378350Y259080D02*
X396350Y259080D01*
X396350Y182880D02*
X378350Y182880D01*
X345550Y170180D02*
X327550Y170180D01*
X378350Y157480D02*
X396350Y157480D01*
X345550Y144780D02*
X327550Y144780D01*
X378350Y132080D02*
X396350Y132080D01*
X345550Y271780D02*
X327550Y271780D01*
X378350Y284480D02*
X396350Y284480D01*
X345550Y119380D02*
X327550Y119380D01*
X378350Y106680D02*
X396350Y106680D01*
D31*
X598170Y523240D03*
X572770Y523240D03*
X598170Y548640D03*
X572770Y548640D03*
X598170Y574040D03*
X572770Y574040D03*
X1588770Y977900D03*
X1588770Y1003300D03*
X1588770Y1028700D03*
X1588770Y601980D03*
X1588770Y627380D03*
X1588770Y652780D03*
X1614170Y601980D03*
X1614170Y627380D03*
X1614170Y652780D03*
X1639570Y601980D03*
X1639570Y627380D03*
X1639570Y652780D03*
X1588770Y462280D03*
X1588770Y487680D03*
X1588770Y513080D03*
X1614170Y462280D03*
X1614170Y487680D03*
X1614170Y513080D03*
X1639570Y462280D03*
X1639570Y487680D03*
X1639570Y513080D03*
X1588770Y327660D03*
X1588770Y353060D03*
X1588770Y378460D03*
X1614170Y327660D03*
X1614170Y353060D03*
X1614170Y378460D03*
X1639570Y327660D03*
X1639570Y353060D03*
X1639570Y378460D03*
X956310Y165100D03*
X981710Y165100D03*
X1007110Y165100D03*
X1032510Y165100D03*
X1614170Y977900D03*
X1614170Y1003300D03*
X1614170Y1028700D03*
X956310Y139700D03*
X981710Y139700D03*
X1007110Y139700D03*
X1032510Y139700D03*
X956310Y114300D03*
X981710Y114300D03*
X1007110Y114300D03*
X1032510Y114300D03*
X956310Y88900D03*
X981710Y88900D03*
X1007110Y88900D03*
X1032510Y88900D03*
X765810Y1016000D03*
X791210Y1016000D03*
X816610Y1016000D03*
X842010Y1016000D03*
X867410Y1016000D03*
X892810Y1016000D03*
X918210Y1016000D03*
X943610Y1016000D03*
X765810Y1041400D03*
X791210Y1041400D03*
X816610Y1041400D03*
X842010Y1041400D03*
X867410Y1041400D03*
X892810Y1041400D03*
X918210Y1041400D03*
X943610Y1041400D03*
X740410Y990600D03*
X715010Y990600D03*
X689610Y990600D03*
X664210Y990600D03*
X638810Y990600D03*
X613410Y990600D03*
X588010Y990600D03*
X562610Y990600D03*
X562610Y1041400D03*
X588010Y1041400D03*
X613410Y1041400D03*
X638810Y1041400D03*
X664210Y1041400D03*
X689610Y1041400D03*
X715010Y1041400D03*
X740410Y1041400D03*
X562610Y1016000D03*
X588010Y1016000D03*
X613410Y1016000D03*
X638810Y1016000D03*
X664210Y1016000D03*
X689610Y1016000D03*
X715010Y1016000D03*
X740410Y1016000D03*
X943610Y988060D03*
X918210Y988060D03*
X892810Y988060D03*
X867410Y988060D03*
X842010Y988060D03*
X816610Y988060D03*
X791210Y988060D03*
X765810Y988060D03*
X712470Y88900D03*
X737870Y88900D03*
X763270Y88900D03*
X788670Y88900D03*
X814070Y88900D03*
X839470Y88900D03*
X864870Y88900D03*
X890270Y88900D03*
X915670Y88900D03*
X1639570Y977900D03*
X1639570Y1003300D03*
X1639570Y1028700D03*
X1588770Y853440D03*
X1588770Y878840D03*
X1588770Y904240D03*
X1614170Y853440D03*
X1614170Y878840D03*
X1614170Y904240D03*
X1639570Y853440D03*
X1639570Y878840D03*
X1639570Y904240D03*
X1588770Y721360D03*
X1588770Y746760D03*
X1588770Y772160D03*
X1614170Y721360D03*
X1614170Y746760D03*
X1614170Y772160D03*
X1639570Y721360D03*
X1639570Y746760D03*
X1639570Y772160D03*
D32*
X1289850Y732790D03*
X1389850Y732790D03*
X1292390Y600710D03*
X1392390Y600710D03*
X1289850Y994410D03*
X1389850Y994410D03*
X1289850Y864870D03*
X1389850Y864870D03*
X1292390Y471170D03*
X1392390Y471170D03*
X1292390Y334010D03*
X1392390Y334010D03*
D33*
X82550Y1039200D03*
X82550Y1018200D03*
X668950Y472440D03*
X689950Y472440D03*
X102870Y1018200D03*
X102870Y1039200D03*
X123190Y1018200D03*
X123190Y1039200D03*
X1372530Y167640D03*
X1393530Y167640D03*
D34*
X110490Y609600D03*
D35*
X110490Y659600D03*
D34*
X110490Y734060D03*
D35*
X110490Y784060D03*
D34*
X113030Y355600D03*
D35*
X113030Y405600D03*
D34*
X113030Y480060D03*
D35*
X113030Y530060D03*
D34*
X113030Y104140D03*
D35*
X113030Y154140D03*
D34*
X113030Y226060D03*
D35*
X113030Y276060D03*
D31*
X448310Y88900D03*
X473710Y88900D03*
X499110Y88900D03*
X524510Y88900D03*
X549910Y88900D03*
X575310Y88900D03*
X600710Y88900D03*
X626110Y88900D03*
X651510Y88900D03*
X676910Y88900D03*
D36*
X1002030Y543400D03*
X1011530Y523400D03*
X992530Y523400D03*
X1037590Y543400D03*
X1047090Y523400D03*
X1028090Y523400D03*
D10*
X760730Y374040D03*
X760730Y393040D03*
D37*
X1450086Y708660D02*
X1463294Y708660D01*
X1463294Y759460D02*
X1450086Y759460D01*
X1450086Y734060D02*
X1463294Y734060D01*
D13*
X1465190Y675640D03*
X1448190Y675640D03*
D37*
X1450086Y589280D02*
X1463294Y589280D01*
X1463294Y640080D02*
X1450086Y640080D01*
X1450086Y614680D02*
X1463294Y614680D01*
D13*
X1465190Y556260D03*
X1448190Y556260D03*
D37*
X1450086Y977900D02*
X1463294Y977900D01*
X1463294Y1028700D02*
X1450086Y1028700D01*
X1450086Y1003300D02*
X1463294Y1003300D01*
D13*
X1465190Y944880D03*
X1448190Y944880D03*
D37*
X1450086Y840740D02*
X1463294Y840740D01*
X1463294Y891540D02*
X1450086Y891540D01*
X1450086Y866140D02*
X1463294Y866140D01*
D13*
X1465190Y807720D03*
X1448190Y807720D03*
D37*
X1450086Y449580D02*
X1463294Y449580D01*
X1463294Y500380D02*
X1450086Y500380D01*
X1450086Y474980D02*
X1463294Y474980D01*
D13*
X1467730Y416560D03*
X1450730Y416560D03*
D10*
X801370Y393040D03*
X801370Y374040D03*
D37*
X1450086Y309880D02*
X1463294Y309880D01*
X1463294Y360680D02*
X1450086Y360680D01*
X1450086Y335280D02*
X1463294Y335280D01*
D13*
X1465190Y276860D03*
X1448190Y276860D03*
D38*
X1554870Y807420D03*
X1571870Y807420D03*
X1554870Y816420D03*
X1554870Y824420D03*
X1554870Y833420D03*
X1571870Y833420D03*
X1571870Y816420D03*
X1571870Y824420D03*
X1554870Y413720D03*
X1571870Y413720D03*
X1554870Y422720D03*
X1554870Y430720D03*
X1554870Y439720D03*
X1571870Y439720D03*
X1571870Y422720D03*
X1571870Y430720D03*
X1554870Y931880D03*
X1571870Y931880D03*
X1554870Y940880D03*
X1554870Y948880D03*
X1554870Y957880D03*
X1571870Y957880D03*
X1571870Y940880D03*
X1571870Y948880D03*
X1554870Y553420D03*
X1571870Y553420D03*
X1554870Y562420D03*
X1554870Y570420D03*
X1554870Y579420D03*
X1571870Y579420D03*
X1571870Y562420D03*
X1571870Y570420D03*
D10*
X1497330Y581000D03*
X1497330Y562000D03*
X146050Y1038200D03*
X146050Y1019200D03*
D15*
X521310Y604520D03*
X502310Y604520D03*
D10*
X562610Y873100D03*
X562610Y854100D03*
D14*
X1391530Y81280D03*
X1374530Y81280D03*
D13*
X1299210Y226940D03*
X1299210Y209940D03*
D14*
X1374530Y149860D03*
X1391530Y149860D03*
X1026550Y487680D03*
X1043550Y487680D03*
D13*
X1075690Y427600D03*
X1075690Y410600D03*
X1065530Y512200D03*
X1065530Y529200D03*
X1055370Y565540D03*
X1055370Y582540D03*
D10*
X82550Y995020D03*
X82550Y976020D03*
D14*
X1001150Y421640D03*
X1018150Y421640D03*
D13*
X953770Y503800D03*
X953770Y486800D03*
X969010Y503800D03*
X969010Y486800D03*
X1002030Y503800D03*
X1002030Y486800D03*
X984250Y503800D03*
X984250Y486800D03*
D15*
X708050Y472440D03*
X727050Y472440D03*
X1036930Y563880D03*
X1017930Y563880D03*
D10*
X834390Y393040D03*
X834390Y374040D03*
X105410Y995020D03*
X105410Y976020D03*
X125730Y995020D03*
X125730Y976020D03*
D39*
X543180Y649880D03*
X622680Y649880D03*
X543180Y604880D03*
X622680Y604880D03*
D40*
X781050Y395540D03*
X781050Y383540D03*
X781050Y371540D03*
D41*
X1073870Y1016000D03*
X1003870Y1016000D03*
D42*
X1619250Y136110D03*
X1619250Y163610D03*
D43*
X1604000Y149860D03*
X1634500Y149860D03*
D44*
X256810Y859450D03*
X256810Y865950D03*
X256810Y872450D03*
X256810Y878950D03*
X256810Y885450D03*
X256810Y891950D03*
X256810Y898450D03*
X256810Y911450D03*
X256810Y904950D03*
X256810Y917950D03*
X256810Y924450D03*
X256810Y930950D03*
X256810Y937450D03*
X256810Y943950D03*
X329930Y859450D03*
X329930Y865950D03*
X329930Y872450D03*
X329930Y878950D03*
X329930Y885450D03*
X329930Y891950D03*
X329930Y898450D03*
X329930Y904950D03*
X329930Y911450D03*
X329930Y917950D03*
X329930Y924450D03*
X329930Y930950D03*
X329930Y937450D03*
X329930Y943950D03*
D45*
X527470Y834940D02*
X539550Y834940D01*
X539550Y854940D02*
X527470Y854940D01*
X527470Y874940D02*
X539550Y874940D01*
X539550Y894940D02*
X527470Y894940D01*
X527470Y914940D02*
X539550Y914940D01*
X539550Y934940D02*
X527470Y934940D01*
X527470Y954940D02*
X539550Y954940D01*
X539550Y974940D02*
X527470Y974940D01*
X387470Y834940D02*
X375390Y834940D01*
X375390Y854940D02*
X387470Y854940D01*
X387470Y874940D02*
X375390Y874940D01*
X375390Y894940D02*
X387470Y894940D01*
X387470Y914940D02*
X375390Y914940D01*
X375390Y934940D02*
X387470Y934940D01*
X387470Y954940D02*
X375390Y954940D01*
X375390Y974940D02*
X387470Y974940D01*
D46*
X1417330Y232600D03*
X1417330Y217600D03*
X1417330Y202600D03*
X1417330Y187600D03*
X1417330Y172600D03*
X1417330Y157600D03*
X1417330Y142600D03*
X1417330Y127600D03*
X1417330Y112600D03*
X1417330Y97600D03*
X1577330Y97600D03*
X1577330Y112600D03*
X1577330Y127600D03*
X1577330Y142600D03*
X1577330Y157600D03*
X1577330Y172600D03*
X1577330Y187600D03*
X1577330Y202600D03*
X1577330Y217600D03*
X1577330Y232600D03*
D47*
X1499330Y173100D03*
D48*
X1349350Y233981D03*
X1339850Y233981D03*
X1330350Y233981D03*
X1330350Y207979D03*
X1349350Y207979D03*
X1054710Y429561D03*
X1045210Y429561D03*
X1035710Y429561D03*
X1035710Y403559D03*
X1054710Y403559D03*
D49*
X1269250Y127000D03*
X1334250Y127000D03*
D15*
X1268070Y193040D03*
X1249070Y193040D03*
D50*
X1215390Y127000D03*
X1215390Y101600D03*
X1215390Y152400D03*
D51*
X1686560Y41910D03*
X1686560Y1085850D03*
X54610Y1085850D03*
X54610Y41910D03*
D52*
X758190Y533400D03*
X661670Y581660D03*
D53*
X1433830Y932180D03*
D54*
X1446530Y795020D03*
X1431290Y673100D03*
X1436370Y543560D03*
X1449070Y403860D03*
X1433830Y264160D03*
D52*
X605790Y645160D03*
X547370Y571500D03*
X534670Y508000D03*
X440690Y751840D03*
X450850Y711200D03*
D54*
X504190Y838200D03*
X1060450Y909320D03*
X1080770Y889000D03*
D52*
X984250Y541020D03*
X1088390Y561340D03*
X1479550Y675640D03*
X1093470Y543560D03*
X1111024Y538480D03*
X1172210Y546100D03*
D55*
X938530Y119380D03*
X930910Y91440D03*
D52*
X1061330Y449580D03*
X628650Y561234D03*
X763270Y574040D03*
X770890Y604520D03*
X790400Y414830D03*
X796290Y345440D03*
X790166Y426720D03*
X783590Y347980D03*
X781050Y429260D03*
X775894Y353136D03*
X702310Y548640D03*
X694690Y556260D03*
X679026Y490220D03*
X671830Y241300D03*
X661670Y528320D03*
X636270Y228148D03*
X681990Y213360D03*
X840938Y514684D03*
X989330Y556260D03*
X1436370Y594360D03*
X1413510Y538480D03*
X1108710Y591820D03*
X1080770Y513080D03*
X1053158Y512094D03*
X831850Y514684D03*
X1002030Y556260D03*
X821690Y492760D03*
X913130Y520700D03*
X943610Y518160D03*
X1178420Y477520D03*
X1433830Y690880D03*
X516890Y556260D03*
X511810Y665480D03*
X440690Y788472D03*
X354330Y822960D03*
X356870Y845820D03*
X524510Y665480D03*
X438150Y797560D03*
X971550Y246380D03*
D54*
X491490Y825500D03*
D56*
X199390Y401518D03*
X191770Y607060D03*
D52*
X288290Y929640D03*
X242570Y960120D03*
X346710Y863600D03*
X113030Y805180D03*
X87630Y792480D03*
X90170Y579120D03*
X143510Y581660D03*
X425450Y584200D03*
X935990Y535940D03*
X709930Y256540D03*
X684530Y198120D03*
X527050Y228148D03*
X783590Y546100D03*
X793750Y535940D03*
X1614170Y271780D03*
X938530Y149860D03*
X941070Y104140D03*
X806450Y408940D03*
X806450Y360680D03*
X797362Y408940D03*
X803270Y351592D03*
X875030Y370840D03*
X713966Y297180D03*
X748030Y264160D03*
X717626Y225984D03*
X688114Y492760D03*
X598170Y497840D03*
X524510Y271780D03*
X481330Y248920D03*
X613410Y528320D03*
X554990Y314960D03*
X524510Y284480D03*
X468630Y248920D03*
X461010Y132080D03*
X626110Y528320D03*
X554990Y553720D03*
X537210Y543560D03*
X524510Y309880D03*
X181610Y304800D03*
X290830Y81280D03*
X1007110Y586740D03*
X1202690Y490220D03*
X1195070Y426720D03*
D54*
X1024890Y881380D03*
D52*
X740410Y571500D03*
X745490Y597916D03*
X768350Y454660D03*
X842010Y441960D03*
X831850Y340360D03*
X709930Y231140D03*
X694690Y193040D03*
X242570Y914400D03*
X232410Y980440D03*
X770890Y533400D03*
X1055370Y594360D03*
X869950Y673100D03*
X443230Y525780D03*
X869950Y662940D03*
X438150Y510540D03*
X869950Y652780D03*
X963930Y678180D03*
X443230Y541020D03*
D56*
X140970Y360680D03*
X199390Y363220D03*
X181610Y444500D03*
X252730Y441960D03*
X181610Y482600D03*
X257810Y485140D03*
X140970Y538480D03*
X186690Y538480D03*
X179070Y652780D03*
X179070Y695960D03*
X288290Y655320D03*
X181610Y734060D03*
X288290Y736600D03*
D52*
X964142Y669092D03*
X963930Y657860D03*
X554990Y683260D03*
X963930Y647700D03*
X562610Y695960D03*
X963930Y635000D03*
X554990Y703580D03*
X461010Y706120D03*
X494030Y711200D03*
X557530Y716280D03*
X999490Y703580D03*
X415925Y457200D03*
X451302Y497840D03*
X450850Y561340D03*
X961390Y1023620D03*
X969010Y965200D03*
X1007110Y777240D03*
D56*
X179070Y190500D03*
X247650Y190500D03*
X179070Y231140D03*
X250190Y233680D03*
X184150Y284480D03*
D52*
X481330Y234724D03*
X509270Y259080D03*
X524510Y259080D03*
X641350Y259080D03*
X712470Y276860D03*
X1078230Y563880D03*
X1040130Y601980D03*
X1007110Y601980D03*
D54*
X361950Y965200D03*
D52*
X1019810Y220980D03*
X1383030Y111760D03*
X1446530Y220980D03*
D54*
X941070Y205740D03*
X961390Y228600D03*
D52*
X1007110Y251460D03*
X1032510Y213360D03*
X1294130Y190500D03*
X501650Y665480D03*
X491490Y736600D03*
X651510Y541020D03*
X633730Y480060D03*
X435610Y419100D03*
X661670Y538480D03*
X643890Y487680D03*
X455930Y485140D03*
X359410Y457200D03*
X666750Y490220D03*
X654050Y234724D03*
X929414Y528320D03*
X712470Y266700D03*
X643890Y248920D03*
X524510Y248920D03*
X509270Y248920D03*
X554990Y292100D03*
X615950Y454660D03*
X740410Y459740D03*
X829310Y548640D03*
X825070Y531700D03*
X749498Y459528D03*
X621106Y446964D03*
X568530Y296340D03*
X1052830Y233680D03*
X1357630Y154940D03*
X1045210Y223520D03*
X1319530Y180340D03*
X850026Y513080D03*
X816610Y510540D03*
X775970Y523240D03*
X679450Y640080D03*
X852170Y502920D03*
X808914Y505384D03*
X775970Y514152D03*
X689610Y645160D03*
X727050Y472440D03*
X712470Y287020D03*
D54*
X1433830Y1041400D03*
X1388110Y924560D03*
X1388110Y787400D03*
X1390650Y650240D03*
X1393190Y520700D03*
X1405890Y386080D03*
D52*
X1525270Y947420D03*
X1530426Y939724D03*
X1540510Y937260D03*
X1545590Y924560D03*
X1550670Y848360D03*
X1553210Y795020D03*
X1563370Y848360D03*
X1579030Y800326D03*
X1560830Y596900D03*
X1554254Y604520D03*
X1540379Y573909D03*
X1531291Y571500D03*
X1553210Y457200D03*
X1545514Y452044D03*
X1537970Y436880D03*
X1530350Y429260D03*
X1515110Y635000D03*
X1601470Y452120D03*
X1578610Y500380D03*
X1601470Y591820D03*
X1576070Y640080D03*
X1591310Y807720D03*
X1576070Y866140D03*
X1576070Y1016000D03*
X1601470Y965200D03*
X1032510Y505460D03*
X1052830Y502920D03*
X1014730Y449580D03*
X1019810Y408940D03*
X1017270Y510540D03*
X1014730Y487680D03*
X1007110Y457200D03*
X1077186Y454660D03*
M02*
