M48
;GenerationSoftware,Autodesk,EAGLE,8.7.1*%
;CreationDate,2018-08-06T05:08:26Z*%
FMAT,2
ICI,OFF
METRIC,TZ,000.000
T7C0.250
T6C0.350
T5C0.700
T4C0.900
T3C1.000
T2C1.016
T1C1.300
%
G90
M71
T1
X27432Y49478
X27432Y42978
X12498Y50292
X18998Y50292
X9092Y50292
X2592Y50292
T2
X27432Y34798
X24892Y34798
X27432Y37338
X24892Y37338
X27432Y39878
X24892Y39878
X28448Y29718
X28448Y27178
X28448Y24638
X28448Y22098
X12700Y5080
X12700Y2540
X9906Y2540
X9906Y5080
T3
X25441Y5318
X21041Y5318
T4
X3100Y28702
X9600Y28702
T5
X3810Y37846
X8890Y37846
T6
X12954Y22098
X14986Y19812
X4572Y45466
X3302Y48491
X4826Y49276
X25603Y31090
X24003Y32690
X21627Y25143
X26670Y28702
X5486Y22174
X2972Y26975
X5486Y20117
X14402Y37948
X20345Y24460
X20320Y29591
X25146Y29032
X25832Y33604
X26467Y26111
X22835Y26289
X14859Y32461
X29464Y12954
X4318Y27178
X8382Y44704
X10694Y23394
X17374Y42291
X19431Y35662
X19406Y28600
X12116Y43891
X4318Y23622
X17526Y32004
X21844Y10414
X17780Y12954
X16256Y22098
X17018Y23876
X4318Y12446
X8128Y21590
X16002Y29261
X14859Y31318
X12344Y36576
X11430Y36576
X12344Y34061
X16002Y37719
X16459Y36119
X10744Y40691
X13030Y40691
X19431Y27203
X7772Y26975
X7772Y29489
X12116Y27889
X10287Y34061
X13716Y13716
X14224Y11938
X7112Y17272
X14859Y29489
X13970Y48768
X12192Y48260
X10160Y45466
X29464Y14732
X23114Y41910
X23114Y39116
X21082Y36830
X21844Y34290
X19304Y30226
X24727Y26885
X16536Y32486
X16510Y30734
X9906Y30480
X6858Y28448
X12954Y16764
X12954Y14732
T7
X23320Y27813
M30