G04 EAGLE Gerber X2 export*
%TF.Part,Single*%
%TF.FileFunction,Other,Solder stop mask SOL*%
%TF.FilePolarity,Positive*%
%TF.GenerationSoftware,Autodesk,EAGLE,8.7.1*%
%TF.CreationDate,2018-08-06T05:08:06Z*%
G75*
%MOMM*%
%FSLAX34Y34*%
%LPD*%
%AMOC8*
5,1,8,0,0,1.08239X$1,22.5*%
G01*
%ADD10C,1.203200*%
%ADD11C,2.082800*%
%ADD12C,2.743200*%
%ADD13R,0.903200X0.553200*%
%ADD14C,1.854200*%
%ADD15C,1.611200*%
%ADD16C,0.959600*%
%ADD17C,0.859600*%


D10*
X210410Y53180D03*
X254410Y53180D03*
D11*
X274320Y347980D03*
X248920Y347980D03*
X274320Y373380D03*
X248920Y373380D03*
X274320Y398780D03*
X248920Y398780D03*
X284480Y297180D03*
X284480Y271780D03*
X284480Y246380D03*
X284480Y220980D03*
D12*
X274320Y429780D03*
X274320Y494780D03*
X124980Y502920D03*
X189980Y502920D03*
X90920Y502920D03*
X25920Y502920D03*
D13*
X152310Y284070D03*
X152310Y277570D03*
X152310Y271070D03*
X152310Y264570D03*
X172810Y264570D03*
X172810Y271070D03*
X172810Y277570D03*
X172810Y284070D03*
D14*
X38100Y378460D03*
X88900Y378460D03*
D11*
X127000Y50800D03*
X127000Y25400D03*
X99060Y25400D03*
X99060Y50800D03*
D15*
X31000Y287020D03*
X96000Y287020D03*
D16*
X194310Y272034D03*
X77724Y269748D03*
X77724Y294894D03*
X121158Y278892D03*
X102870Y340614D03*
X137160Y137160D03*
X142240Y119380D03*
X71120Y172720D03*
X148590Y294894D03*
X139700Y487680D03*
X121920Y482600D03*
X101600Y454660D03*
X83820Y447040D03*
X231140Y419100D03*
X231140Y391160D03*
X210820Y368300D03*
X218440Y342900D03*
X193040Y302260D03*
X247271Y268850D03*
X165358Y324862D03*
X165100Y307340D03*
X99060Y304800D03*
X68580Y284480D03*
X129540Y167640D03*
X129540Y147320D03*
X129540Y220980D03*
X149860Y198120D03*
X45720Y454660D03*
X33020Y484914D03*
X48260Y492760D03*
X256032Y310896D03*
X240030Y326898D03*
X216269Y251432D03*
D17*
X233200Y278130D03*
D16*
X266700Y287020D03*
X54864Y221742D03*
X29718Y269748D03*
X54864Y201168D03*
X144018Y379476D03*
X203454Y244602D03*
X203200Y295910D03*
X251460Y290322D03*
X258318Y336042D03*
X264668Y261112D03*
X228346Y262890D03*
X148590Y324612D03*
X294640Y129540D03*
X43180Y271780D03*
X294640Y147320D03*
X106943Y233943D03*
X173736Y422910D03*
X194310Y356616D03*
X194056Y286004D03*
X121158Y438912D03*
X43180Y236220D03*
X175260Y320040D03*
X218440Y104140D03*
X177800Y129540D03*
X162560Y220980D03*
X170180Y238760D03*
X43180Y124460D03*
X81280Y215900D03*
X160020Y292608D03*
X148590Y313182D03*
X123444Y365760D03*
X114300Y365760D03*
X123444Y340614D03*
X160020Y377190D03*
X164592Y361188D03*
X107442Y406908D03*
X130302Y406908D03*
M02*
