%
M48
M72
T01C0.02000
T02C0.02756
T03C0.03150
T04C0.03200
T05C0.03600
T06C0.03937
T07C0.04000
T08C0.05118
T09C0.13000
%
T01
X88800Y152300
X85200Y188300
X38400Y202700
X87900Y263900
X81600Y295400
X116700Y310700
X150900Y319700
X196800Y237800
X199500Y232400
X242700Y237800
X322800Y307100
X229200Y46800
T02
X233245Y172629
X223245Y172629
X223245Y182629
X233245Y182629
X233245Y192629
X223245Y192629
T03
X103245Y247629
X93245Y247629
X83245Y247629
X73245Y247629
X58245Y272629
X48245Y272629
X83245Y82629
X93245Y82629
T04
X278000Y48000
X288000Y48000
X332738Y31574
X332738Y11574
X357500Y15000
X357500Y25000
X385000Y25000
X385000Y15000
X169000Y315000
X169000Y325000
X143500Y324500
X143500Y314500
T05
X84000Y324000
X74000Y324000
T06
X78245Y272629
X88245Y272629
X98245Y272629
X108245Y272629
X118245Y272629
X128245Y272629
X138245Y272629
X153245Y272629
X163245Y272629
X173245Y272629
X183245Y272629
X193245Y272629
X203245Y272629
X213245Y272629
X223245Y272629
X243245Y272629
X253245Y272629
X263245Y272629
X273245Y272629
X283245Y272629
X293245Y272629
X303245Y272629
X313245Y272629
X343245Y272629
X353245Y272629
X353245Y262629
X343245Y262629
X343245Y252629
X353245Y252629
X353245Y242629
X343245Y242629
X343245Y232629
X353245Y232629
X353245Y222629
X343245Y222629
X343245Y212629
X353245Y212629
X353245Y202629
X353245Y192629
X343245Y192629
X343245Y202629
X343245Y182629
X353245Y182629
X353245Y172629
X343245Y172629
X343245Y162629
X353245Y162629
X353245Y152629
X343245Y152629
X343245Y142629
X353245Y142629
X353245Y132629
X343245Y132629
X343245Y122629
X353245Y122629
X353245Y112629
X343245Y112629
X343245Y102629
X353245Y102629
X333245Y82629
X323245Y82629
X313245Y82629
X303245Y82629
X293245Y82629
X283245Y82629
X273245Y82629
X263245Y82629
X243245Y82629
X233245Y82629
X223245Y82629
X213245Y82629
X203245Y82629
X193245Y82629
X183245Y82629
X173245Y82629
X153245Y82629
X143245Y82629
X133245Y82629
X123245Y82629
X113245Y82629
X103245Y82629
X68245Y272629
X68245Y272629
T07
X67000Y304500
X77000Y304500
X87000Y304500
X57000Y304500
X33771Y304172
X23771Y304172
X13771Y304172
X15888Y249080
X15888Y239080
X15888Y229080
X15888Y219080
X15888Y209080
X15888Y199080
X15888Y189080
X15888Y179080
X15888Y169080
X15888Y159080
X15888Y149080
X15888Y139080
X15888Y129080
X15888Y119080
X15888Y109080
X15888Y99080
X84500Y46000
X84500Y36000
X84500Y26000
X60076Y23007
X60076Y33007
X183000Y35500
X183000Y25500
X183000Y45500
X391525Y40537
X391525Y50537
X391525Y60537
X391525Y70537
X391525Y80537
X391294Y95962
X391294Y105962
X391294Y115962
X391294Y125962
X391294Y135962
X391294Y145962
X391294Y155962
X391294Y165962
X391294Y175962
X391294Y185962
X391090Y199210
X391090Y209210
X391090Y219210
X391090Y229210
X391090Y239210
X391090Y249210
X391090Y259210
X391090Y269210
X391000Y300500
X381000Y300500
X371000Y300500
X361000Y300500
X351000Y300500
X341000Y300500
X331000Y300500
X329000Y322500
X319000Y322500
X297500Y322114
X276500Y321500
X266500Y321500
X256500Y321500
X236500Y321500
X226500Y321500
X214000Y302500
X204000Y302500
X194000Y302500
X184000Y302500
X174000Y302500
X164000Y302500
X154000Y302500
X144000Y302500
X134000Y302500
X352000Y322500
X362000Y322500
X381500Y322000
X391500Y322000
T08
X21858Y20497
X21858Y40182
T09
X148500Y36000
X247000Y35500
M30
