G75*
%MOIN*%
%OFA0B0*%
%FSLAX25Y25*%
%IPPOS*%
%LPD*%
%AMOC8*
5,1,8,0,0,1.08239X$1,22.5*
%
%ADD10C,0.07400*%
%ADD11OC8,0.06300*%
%ADD12C,0.07500*%
%ADD13OC8,0.07500*%
%ADD14R,0.08000X0.08000*%
%ADD15C,0.08000*%
%ADD16C,0.06000*%
%ADD17C,0.05600*%
%ADD18C,0.05937*%
%ADD19C,0.05937*%
%ADD20C,0.06600*%
%ADD21R,0.06600X0.06600*%
%ADD22R,0.07400X0.07400*%
%ADD23C,0.01000*%
%ADD24C,0.03600*%
D10*
X0060076Y0023007D03*
X0060076Y0033007D03*
X0015888Y0099080D03*
X0015888Y0109080D03*
X0015888Y0119080D03*
X0015888Y0129080D03*
X0015888Y0139080D03*
X0015888Y0149080D03*
X0015888Y0159080D03*
X0015888Y0169080D03*
X0015888Y0179080D03*
X0015888Y0189080D03*
X0015888Y0199080D03*
X0015888Y0209080D03*
X0015888Y0219080D03*
X0015888Y0229080D03*
X0015888Y0239080D03*
X0015888Y0249080D03*
X0023771Y0304172D03*
X0033771Y0304172D03*
X0057000Y0304500D03*
X0067000Y0304500D03*
X0077000Y0304500D03*
X0087000Y0304500D03*
X0134000Y0302500D03*
X0144000Y0302500D03*
X0154000Y0302500D03*
X0164000Y0302500D03*
X0174000Y0302500D03*
X0184000Y0302500D03*
X0194000Y0302500D03*
X0204000Y0302500D03*
X0214000Y0302500D03*
X0226500Y0321500D03*
X0236500Y0321500D03*
X0256500Y0321500D03*
X0266500Y0321500D03*
X0276500Y0321500D03*
X0297500Y0322114D03*
X0319000Y0322500D03*
X0329000Y0322500D03*
X0352000Y0322500D03*
X0362000Y0322500D03*
X0381500Y0322000D03*
X0391500Y0322000D03*
X0391000Y0300500D03*
X0381000Y0300500D03*
X0371000Y0300500D03*
X0361000Y0300500D03*
X0351000Y0300500D03*
X0341000Y0300500D03*
X0331000Y0300500D03*
X0391090Y0269210D03*
X0391090Y0259210D03*
X0391090Y0249210D03*
X0391090Y0239210D03*
X0391090Y0229210D03*
X0391090Y0219210D03*
X0391090Y0209210D03*
X0391090Y0199210D03*
X0391294Y0185962D03*
X0391294Y0175962D03*
X0391294Y0165962D03*
X0391294Y0155962D03*
X0391294Y0145962D03*
X0391294Y0135962D03*
X0391294Y0125962D03*
X0391294Y0115962D03*
X0391294Y0105962D03*
X0391294Y0095962D03*
X0391525Y0080537D03*
X0391525Y0070537D03*
X0391525Y0060537D03*
X0391525Y0050537D03*
X0391525Y0040537D03*
D11*
X0385000Y0025000D03*
X0385000Y0015000D03*
X0357500Y0015000D03*
X0357500Y0025000D03*
X0288000Y0048000D03*
X0278000Y0048000D03*
X0169000Y0315000D03*
X0169000Y0325000D03*
X0143500Y0324500D03*
X0143500Y0314500D03*
D12*
X0332738Y0011574D03*
D13*
X0332738Y0031574D03*
D14*
X0021858Y0040182D03*
D15*
X0021858Y0020497D03*
D16*
X0081500Y0026000D02*
X0087500Y0026000D01*
X0087500Y0036000D02*
X0081500Y0036000D01*
X0081500Y0046000D02*
X0087500Y0046000D01*
X0180000Y0045500D02*
X0186000Y0045500D01*
X0186000Y0035500D02*
X0180000Y0035500D01*
X0180000Y0025500D02*
X0186000Y0025500D01*
D17*
X0093245Y0079829D02*
X0093245Y0085429D01*
X0083245Y0085429D02*
X0083245Y0079829D01*
X0083245Y0244829D02*
X0083245Y0250429D01*
X0093245Y0250429D02*
X0093245Y0244829D01*
X0103245Y0244829D02*
X0103245Y0250429D01*
X0073245Y0250429D02*
X0073245Y0244829D01*
X0058245Y0269829D02*
X0058245Y0275429D01*
X0048245Y0275429D02*
X0048245Y0269829D01*
X0074000Y0321200D02*
X0074000Y0326800D01*
X0084000Y0326800D02*
X0084000Y0321200D01*
D18*
X0088245Y0275597D02*
X0088245Y0269660D01*
X0098245Y0269660D02*
X0098245Y0275597D01*
X0108245Y0275597D02*
X0108245Y0269660D01*
X0118245Y0269660D02*
X0118245Y0275597D01*
X0128245Y0275597D02*
X0128245Y0269660D01*
X0138245Y0269660D02*
X0138245Y0275597D01*
X0153245Y0275597D02*
X0153245Y0269660D01*
X0163245Y0269660D02*
X0163245Y0275597D01*
X0173245Y0275597D02*
X0173245Y0269660D01*
X0183245Y0269660D02*
X0183245Y0275597D01*
X0193245Y0275597D02*
X0193245Y0269660D01*
X0203245Y0269660D02*
X0203245Y0275597D01*
X0213245Y0275597D02*
X0213245Y0269660D01*
X0223245Y0269660D02*
X0223245Y0275597D01*
X0243245Y0275597D02*
X0243245Y0269660D01*
X0253245Y0269660D02*
X0253245Y0275597D01*
X0263245Y0275597D02*
X0263245Y0269660D01*
X0273245Y0269660D02*
X0273245Y0275597D01*
X0283245Y0275597D02*
X0283245Y0269660D01*
X0293245Y0269660D02*
X0293245Y0275597D01*
X0303245Y0275597D02*
X0303245Y0269660D01*
X0313245Y0269660D02*
X0313245Y0275597D01*
X0313245Y0085597D02*
X0313245Y0079660D01*
X0323245Y0079660D02*
X0323245Y0085597D01*
X0333245Y0085597D02*
X0333245Y0079660D01*
X0303245Y0079660D02*
X0303245Y0085597D01*
X0293245Y0085597D02*
X0293245Y0079660D01*
X0283245Y0079660D02*
X0283245Y0085597D01*
X0273245Y0085597D02*
X0273245Y0079660D01*
X0263245Y0079660D02*
X0263245Y0085597D01*
X0243245Y0085597D02*
X0243245Y0079660D01*
X0233245Y0079660D02*
X0233245Y0085597D01*
X0223245Y0085597D02*
X0223245Y0079660D01*
X0213245Y0079660D02*
X0213245Y0085597D01*
X0203245Y0085597D02*
X0203245Y0079660D01*
X0193245Y0079660D02*
X0193245Y0085597D01*
X0183245Y0085597D02*
X0183245Y0079660D01*
X0173245Y0079660D02*
X0173245Y0085597D01*
X0153245Y0085597D02*
X0153245Y0079660D01*
X0143245Y0079660D02*
X0143245Y0085597D01*
X0133245Y0085597D02*
X0133245Y0079660D01*
X0123245Y0079660D02*
X0123245Y0085597D01*
X0113245Y0085597D02*
X0113245Y0079660D01*
X0103245Y0079660D02*
X0103245Y0085597D01*
X0078245Y0269660D02*
X0078245Y0275597D01*
X0068245Y0275597D02*
X0068245Y0269660D01*
X0068245Y0275597D01*
D19*
X0343245Y0272629D03*
X0353245Y0272629D03*
X0353245Y0262629D03*
X0343245Y0262629D03*
X0343245Y0252629D03*
X0353245Y0252629D03*
X0353245Y0242629D03*
X0343245Y0242629D03*
X0343245Y0232629D03*
X0353245Y0232629D03*
X0353245Y0222629D03*
X0343245Y0222629D03*
X0343245Y0212629D03*
X0353245Y0212629D03*
X0353245Y0202629D03*
X0353245Y0192629D03*
X0343245Y0192629D03*
X0343245Y0202629D03*
X0343245Y0182629D03*
X0353245Y0182629D03*
X0353245Y0172629D03*
X0343245Y0172629D03*
X0343245Y0162629D03*
X0353245Y0162629D03*
X0353245Y0152629D03*
X0343245Y0152629D03*
X0343245Y0142629D03*
X0353245Y0142629D03*
X0353245Y0132629D03*
X0343245Y0132629D03*
X0343245Y0122629D03*
X0353245Y0122629D03*
X0353245Y0112629D03*
X0343245Y0112629D03*
X0343245Y0102629D03*
X0353245Y0102629D03*
D20*
X0233245Y0172629D03*
X0223245Y0172629D03*
X0223245Y0182629D03*
X0233245Y0182629D03*
X0233245Y0192629D03*
D21*
X0223245Y0192629D03*
D22*
X0013771Y0304172D03*
D23*
X0006000Y0337206D02*
X0006000Y0006506D01*
X0330340Y0006904D01*
X0329987Y0007084D01*
X0329318Y0007570D01*
X0328734Y0008154D01*
X0328248Y0008822D01*
X0327873Y0009559D01*
X0327618Y0010345D01*
X0327488Y0011161D01*
X0327488Y0011274D01*
X0332438Y0011274D01*
X0332438Y0011874D01*
X0327488Y0011874D01*
X0327488Y0011987D01*
X0327618Y0012803D01*
X0327873Y0013589D01*
X0328248Y0014326D01*
X0328734Y0014994D01*
X0329318Y0015578D01*
X0329987Y0016064D01*
X0330723Y0016439D01*
X0331509Y0016695D01*
X0332325Y0016824D01*
X0332438Y0016824D01*
X0332438Y0011874D01*
X0333038Y0011874D01*
X0333038Y0016824D01*
X0333152Y0016824D01*
X0333968Y0016695D01*
X0334754Y0016439D01*
X0335490Y0016064D01*
X0336159Y0015578D01*
X0336743Y0014994D01*
X0337229Y0014326D01*
X0337604Y0013589D01*
X0337859Y0012803D01*
X0337988Y0011987D01*
X0337988Y0011874D01*
X0333039Y0011874D01*
X0333039Y0011274D01*
X0337988Y0011274D01*
X0337988Y0011161D01*
X0337859Y0010345D01*
X0337604Y0009559D01*
X0337229Y0008822D01*
X0336743Y0008154D01*
X0336159Y0007570D01*
X0335490Y0007084D01*
X0335149Y0006910D01*
X0403921Y0006994D01*
X0403921Y0337695D01*
X0006000Y0337206D01*
X0006000Y0336501D02*
X0403921Y0336501D01*
X0403921Y0335503D02*
X0006000Y0335503D01*
X0006000Y0334504D02*
X0403921Y0334504D01*
X0403921Y0333506D02*
X0006000Y0333506D01*
X0006000Y0332507D02*
X0142262Y0332507D01*
X0141900Y0332146D02*
X0122254Y0312500D01*
X0119284Y0312500D01*
X0118456Y0313328D01*
X0117317Y0313800D01*
X0116083Y0313800D01*
X0114944Y0313328D01*
X0114072Y0312456D01*
X0113600Y0311317D01*
X0113600Y0310083D01*
X0114072Y0308944D01*
X0114944Y0308072D01*
X0116083Y0307600D01*
X0117317Y0307600D01*
X0118456Y0308072D01*
X0119284Y0308900D01*
X0122254Y0308900D01*
X0091616Y0278262D01*
X0090663Y0279216D01*
X0089094Y0279866D01*
X0087396Y0279866D01*
X0085827Y0279216D01*
X0084626Y0278015D01*
X0084569Y0277877D01*
X0084146Y0278300D01*
X0083400Y0279046D01*
X0083400Y0292816D01*
X0084228Y0293644D01*
X0084700Y0294783D01*
X0084700Y0296017D01*
X0084228Y0297156D01*
X0083356Y0298028D01*
X0082217Y0298500D01*
X0080983Y0298500D01*
X0079844Y0298028D01*
X0078972Y0297156D01*
X0078500Y0296017D01*
X0078500Y0294783D01*
X0078972Y0293644D01*
X0079800Y0292816D01*
X0079800Y0279573D01*
X0079094Y0279866D01*
X0077396Y0279866D01*
X0075827Y0279216D01*
X0074626Y0278015D01*
X0073976Y0276446D01*
X0073976Y0268811D01*
X0074626Y0267242D01*
X0075827Y0266041D01*
X0077396Y0265392D01*
X0079094Y0265392D01*
X0080663Y0266041D01*
X0081600Y0266979D01*
X0081600Y0263154D01*
X0085200Y0259554D01*
X0086254Y0258500D01*
X0116546Y0258500D01*
X0123746Y0265700D01*
X0124800Y0266754D01*
X0124800Y0267068D01*
X0125827Y0266041D01*
X0127396Y0265392D01*
X0129094Y0265392D01*
X0130663Y0266041D01*
X0131863Y0267242D01*
X0132513Y0268811D01*
X0132513Y0276446D01*
X0131863Y0278015D01*
X0130663Y0279216D01*
X0129094Y0279866D01*
X0127396Y0279866D01*
X0125827Y0279216D01*
X0124778Y0278167D01*
X0122100Y0280846D01*
X0121046Y0281900D01*
X0115054Y0281900D01*
X0111516Y0278362D01*
X0110663Y0279216D01*
X0109094Y0279866D01*
X0107396Y0279866D01*
X0105827Y0279216D01*
X0104626Y0278015D01*
X0103976Y0276446D01*
X0103976Y0268811D01*
X0104626Y0267242D01*
X0105827Y0266041D01*
X0106651Y0265700D01*
X0099838Y0265700D01*
X0100663Y0266041D01*
X0101863Y0267242D01*
X0102513Y0268811D01*
X0102513Y0276446D01*
X0101863Y0278015D01*
X0100663Y0279216D01*
X0099094Y0279866D01*
X0098311Y0279866D01*
X0136346Y0317900D01*
X0140607Y0317900D01*
X0139050Y0316343D01*
X0139050Y0312657D01*
X0141657Y0310050D01*
X0143604Y0310050D01*
X0146688Y0306967D01*
X0145996Y0307319D01*
X0145218Y0307572D01*
X0144500Y0307686D01*
X0144500Y0303000D01*
X0143500Y0303000D01*
X0143500Y0307686D01*
X0142782Y0307572D01*
X0142004Y0307319D01*
X0141275Y0306947D01*
X0140612Y0306466D01*
X0140034Y0305888D01*
X0139553Y0305225D01*
X0139181Y0304496D01*
X0138928Y0303718D01*
X0138922Y0303682D01*
X0138239Y0305332D01*
X0136832Y0306739D01*
X0134995Y0307500D01*
X0133005Y0307500D01*
X0131168Y0306739D01*
X0129761Y0305332D01*
X0129000Y0303495D01*
X0129000Y0301505D01*
X0129761Y0299668D01*
X0131168Y0298261D01*
X0133005Y0297500D01*
X0134995Y0297500D01*
X0136832Y0298261D01*
X0138239Y0299668D01*
X0138922Y0301318D01*
X0138928Y0301282D01*
X0139181Y0300504D01*
X0139553Y0299775D01*
X0140034Y0299112D01*
X0140612Y0298534D01*
X0141275Y0298053D01*
X0142004Y0297681D01*
X0142782Y0297428D01*
X0143500Y0297314D01*
X0143500Y0302000D01*
X0144500Y0302000D01*
X0144500Y0297314D01*
X0145218Y0297428D01*
X0145996Y0297681D01*
X0146725Y0298053D01*
X0147388Y0298534D01*
X0147966Y0299112D01*
X0148447Y0299775D01*
X0148819Y0300504D01*
X0149072Y0301282D01*
X0149078Y0301318D01*
X0149761Y0299668D01*
X0151168Y0298261D01*
X0153005Y0297500D01*
X0154995Y0297500D01*
X0156832Y0298261D01*
X0158239Y0299668D01*
X0159000Y0301505D01*
X0159761Y0299668D01*
X0161168Y0298261D01*
X0163005Y0297500D01*
X0164995Y0297500D01*
X0166832Y0298261D01*
X0168239Y0299668D01*
X0169000Y0301505D01*
X0169000Y0303495D01*
X0168239Y0305332D01*
X0166832Y0306739D01*
X0164995Y0307500D01*
X0163005Y0307500D01*
X0161168Y0306739D01*
X0159761Y0305332D01*
X0159000Y0303495D01*
X0159000Y0301505D01*
X0159000Y0303495D01*
X0158239Y0305332D01*
X0156832Y0306739D01*
X0154995Y0307500D01*
X0153005Y0307500D01*
X0151761Y0306985D01*
X0147019Y0311726D01*
X0147950Y0312657D01*
X0147950Y0316343D01*
X0146393Y0317900D01*
X0147146Y0317900D01*
X0147955Y0318709D01*
X0148272Y0317944D01*
X0149144Y0317072D01*
X0150283Y0316600D01*
X0151517Y0316600D01*
X0152656Y0317072D01*
X0153484Y0317900D01*
X0163654Y0317900D01*
X0164631Y0316924D01*
X0164550Y0316843D01*
X0164550Y0313157D01*
X0167157Y0310550D01*
X0170843Y0310550D01*
X0173450Y0313157D01*
X0173450Y0316843D01*
X0170843Y0319450D01*
X0167196Y0319450D01*
X0165146Y0321500D01*
X0153484Y0321500D01*
X0152656Y0322328D01*
X0151891Y0322645D01*
X0157046Y0327800D01*
X0165507Y0327800D01*
X0164550Y0326843D01*
X0164550Y0323157D01*
X0167157Y0320550D01*
X0170843Y0320550D01*
X0173450Y0323157D01*
X0173450Y0326843D01*
X0172493Y0327800D01*
X0227554Y0327800D01*
X0231898Y0323456D01*
X0231500Y0322495D01*
X0230739Y0324332D01*
X0229332Y0325739D01*
X0227495Y0326500D01*
X0225505Y0326500D01*
X0223668Y0325739D01*
X0222261Y0324332D01*
X0221500Y0322495D01*
X0221500Y0320505D01*
X0222261Y0318668D01*
X0223668Y0317261D01*
X0225505Y0316500D01*
X0227495Y0316500D01*
X0228527Y0316928D01*
X0232054Y0313400D01*
X0321000Y0313400D01*
X0321000Y0309684D01*
X0320172Y0308856D01*
X0319700Y0307717D01*
X0319700Y0306483D01*
X0320172Y0305344D01*
X0321044Y0304472D01*
X0321809Y0304155D01*
X0316654Y0299000D01*
X0217571Y0299000D01*
X0218239Y0299668D01*
X0219000Y0301505D01*
X0219000Y0303495D01*
X0218239Y0305332D01*
X0216832Y0306739D01*
X0214995Y0307500D01*
X0213005Y0307500D01*
X0211168Y0306739D01*
X0209761Y0305332D01*
X0209000Y0303495D01*
X0208239Y0305332D01*
X0206832Y0306739D01*
X0204995Y0307500D01*
X0203005Y0307500D01*
X0201168Y0306739D01*
X0199761Y0305332D01*
X0199000Y0303495D01*
X0198239Y0305332D01*
X0196832Y0306739D01*
X0194995Y0307500D01*
X0193005Y0307500D01*
X0191168Y0306739D01*
X0189761Y0305332D01*
X0189000Y0303495D01*
X0188239Y0305332D01*
X0186832Y0306739D01*
X0184995Y0307500D01*
X0183005Y0307500D01*
X0181168Y0306739D01*
X0179761Y0305332D01*
X0179000Y0303495D01*
X0178239Y0305332D01*
X0176832Y0306739D01*
X0174995Y0307500D01*
X0173005Y0307500D01*
X0171168Y0306739D01*
X0169761Y0305332D01*
X0169000Y0303495D01*
X0169000Y0301505D01*
X0169761Y0299668D01*
X0171168Y0298261D01*
X0173005Y0297500D01*
X0174995Y0297500D01*
X0176832Y0298261D01*
X0178239Y0299668D01*
X0179000Y0301505D01*
X0179000Y0303495D01*
X0179000Y0301505D01*
X0179761Y0299668D01*
X0181168Y0298261D01*
X0183005Y0297500D01*
X0184995Y0297500D01*
X0185950Y0297896D01*
X0166466Y0278412D01*
X0165663Y0279216D01*
X0164094Y0279866D01*
X0162396Y0279866D01*
X0160827Y0279216D01*
X0159626Y0278015D01*
X0158976Y0276446D01*
X0158976Y0268811D01*
X0159626Y0267242D01*
X0160827Y0266041D01*
X0162396Y0265392D01*
X0164094Y0265392D01*
X0165663Y0266041D01*
X0166863Y0267242D01*
X0167513Y0268811D01*
X0167513Y0274368D01*
X0168976Y0275831D01*
X0168976Y0268811D01*
X0169626Y0267242D01*
X0170827Y0266041D01*
X0172396Y0265392D01*
X0174094Y0265392D01*
X0175663Y0266041D01*
X0176863Y0267242D01*
X0177513Y0268811D01*
X0177513Y0276268D01*
X0194846Y0293600D01*
X0319046Y0293600D01*
X0326000Y0300554D01*
X0326000Y0299505D01*
X0326761Y0297668D01*
X0328168Y0296261D01*
X0330005Y0295500D01*
X0331995Y0295500D01*
X0333832Y0296261D01*
X0335239Y0297668D01*
X0335922Y0299318D01*
X0335928Y0299282D01*
X0336181Y0298504D01*
X0336553Y0297775D01*
X0337034Y0297112D01*
X0337612Y0296534D01*
X0338275Y0296053D01*
X0339004Y0295681D01*
X0339782Y0295428D01*
X0340500Y0295314D01*
X0340500Y0300000D01*
X0341500Y0300000D01*
X0341500Y0295314D01*
X0342218Y0295428D01*
X0342996Y0295681D01*
X0343725Y0296053D01*
X0344388Y0296534D01*
X0344966Y0297112D01*
X0345447Y0297775D01*
X0345819Y0298504D01*
X0346072Y0299282D01*
X0346078Y0299318D01*
X0346761Y0297668D01*
X0348168Y0296261D01*
X0350005Y0295500D01*
X0351995Y0295500D01*
X0353832Y0296261D01*
X0355239Y0297668D01*
X0356000Y0299505D01*
X0356761Y0297668D01*
X0358168Y0296261D01*
X0358800Y0295999D01*
X0358800Y0264646D01*
X0357513Y0263359D01*
X0357513Y0263478D01*
X0356863Y0265047D01*
X0355663Y0266247D01*
X0354094Y0266897D01*
X0352396Y0266897D01*
X0350827Y0266247D01*
X0349626Y0265047D01*
X0348976Y0263478D01*
X0348976Y0261780D01*
X0349626Y0260211D01*
X0350827Y0259010D01*
X0352396Y0258360D01*
X0352515Y0258360D01*
X0351600Y0257446D01*
X0351600Y0256568D01*
X0350827Y0256247D01*
X0349626Y0255047D01*
X0348976Y0253478D01*
X0348976Y0252869D01*
X0347846Y0254000D01*
X0347297Y0254000D01*
X0346863Y0255047D01*
X0345663Y0256247D01*
X0344094Y0256897D01*
X0342396Y0256897D01*
X0340827Y0256247D01*
X0339626Y0255047D01*
X0338976Y0253478D01*
X0338976Y0251780D01*
X0339626Y0250211D01*
X0340827Y0249010D01*
X0342396Y0248360D01*
X0344094Y0248360D01*
X0345663Y0249010D01*
X0346704Y0250051D01*
X0349800Y0246954D01*
X0350667Y0246087D01*
X0349626Y0245047D01*
X0348976Y0243478D01*
X0348976Y0241780D01*
X0349626Y0240211D01*
X0350827Y0239010D01*
X0351575Y0238700D01*
X0344914Y0238700D01*
X0345663Y0239010D01*
X0346863Y0240211D01*
X0347513Y0241780D01*
X0347513Y0243478D01*
X0346863Y0245047D01*
X0345663Y0246247D01*
X0344094Y0246897D01*
X0342396Y0246897D01*
X0340827Y0246247D01*
X0339626Y0245047D01*
X0338976Y0243478D01*
X0338976Y0241780D01*
X0339626Y0240211D01*
X0340827Y0239010D01*
X0341575Y0238700D01*
X0270446Y0238700D01*
X0243754Y0265392D01*
X0244094Y0265392D01*
X0245663Y0266041D01*
X0246863Y0267242D01*
X0247513Y0268811D01*
X0247513Y0276446D01*
X0246863Y0278015D01*
X0245663Y0279216D01*
X0244094Y0279866D01*
X0242396Y0279866D01*
X0240827Y0279216D01*
X0239626Y0278015D01*
X0238976Y0276446D01*
X0238976Y0270169D01*
X0227246Y0281900D01*
X0189754Y0281900D01*
X0188700Y0280846D01*
X0186366Y0278512D01*
X0185663Y0279216D01*
X0184094Y0279866D01*
X0182396Y0279866D01*
X0180827Y0279216D01*
X0179626Y0278015D01*
X0178976Y0276446D01*
X0178976Y0268811D01*
X0179626Y0267242D01*
X0180827Y0266041D01*
X0182396Y0265392D01*
X0184094Y0265392D01*
X0185663Y0266041D01*
X0186863Y0267242D01*
X0187513Y0268811D01*
X0187513Y0274568D01*
X0188976Y0276031D01*
X0188976Y0268811D01*
X0189626Y0267242D01*
X0190827Y0266041D01*
X0191400Y0265804D01*
X0191400Y0233454D01*
X0198600Y0226254D01*
X0199654Y0225200D01*
X0339780Y0225200D01*
X0339626Y0225047D01*
X0339317Y0224300D01*
X0123154Y0224300D01*
X0085354Y0186500D01*
X0061646Y0186500D01*
X0041100Y0207046D01*
X0040046Y0208100D01*
X0022354Y0208100D01*
X0017909Y0203655D01*
X0016883Y0204080D01*
X0018721Y0204841D01*
X0020127Y0206247D01*
X0020888Y0208085D01*
X0020888Y0210074D01*
X0020127Y0211912D01*
X0018721Y0213318D01*
X0016883Y0214080D01*
X0018721Y0214841D01*
X0020127Y0216247D01*
X0020888Y0218085D01*
X0020888Y0220074D01*
X0020127Y0221912D01*
X0018721Y0223318D01*
X0016883Y0224080D01*
X0018721Y0224841D01*
X0020127Y0226247D01*
X0020888Y0228085D01*
X0020888Y0230074D01*
X0020127Y0231912D01*
X0018721Y0233318D01*
X0016883Y0234080D01*
X0018721Y0234841D01*
X0020127Y0236247D01*
X0020888Y0238085D01*
X0020888Y0240074D01*
X0020127Y0241912D01*
X0018721Y0243318D01*
X0016883Y0244080D01*
X0018721Y0244841D01*
X0020127Y0246247D01*
X0020888Y0248085D01*
X0020888Y0250074D01*
X0020127Y0251912D01*
X0018721Y0253318D01*
X0017700Y0253741D01*
X0017700Y0285654D01*
X0031674Y0299628D01*
X0032777Y0299172D01*
X0034766Y0299172D01*
X0036603Y0299933D01*
X0038010Y0301339D01*
X0038771Y0303177D01*
X0038771Y0305166D01*
X0038010Y0307004D01*
X0036603Y0308410D01*
X0034766Y0309172D01*
X0032777Y0309172D01*
X0030939Y0308410D01*
X0029532Y0307004D01*
X0028771Y0305166D01*
X0028010Y0307004D01*
X0026603Y0308410D01*
X0024766Y0309172D01*
X0022777Y0309172D01*
X0020939Y0308410D01*
X0019532Y0307004D01*
X0018971Y0305649D01*
X0018971Y0308069D01*
X0018869Y0308451D01*
X0018671Y0308793D01*
X0018392Y0309072D01*
X0018050Y0309269D01*
X0017669Y0309372D01*
X0014271Y0309372D01*
X0014271Y0304672D01*
X0013271Y0304672D01*
X0013271Y0309372D01*
X0011717Y0309372D01*
X0023846Y0321500D01*
X0069900Y0321500D01*
X0069900Y0320384D01*
X0070524Y0318878D01*
X0071678Y0317724D01*
X0073184Y0317100D01*
X0074816Y0317100D01*
X0076322Y0317724D01*
X0077476Y0318878D01*
X0078100Y0320384D01*
X0078100Y0327616D01*
X0077476Y0329122D01*
X0076322Y0330276D01*
X0074816Y0330900D01*
X0073184Y0330900D01*
X0071678Y0330276D01*
X0070524Y0329122D01*
X0069900Y0327616D01*
X0069900Y0325100D01*
X0022354Y0325100D01*
X0007954Y0310700D01*
X0006900Y0309646D01*
X0006900Y0033654D01*
X0007057Y0033497D01*
X0007954Y0032600D01*
X0017144Y0023410D01*
X0017267Y0023261D01*
X0016558Y0021551D01*
X0016558Y0019443D01*
X0017365Y0017495D01*
X0018856Y0016004D01*
X0020804Y0015197D01*
X0022913Y0015197D01*
X0024861Y0016004D01*
X0026352Y0017495D01*
X0027158Y0019443D01*
X0027158Y0021551D01*
X0026352Y0023499D01*
X0024861Y0024990D01*
X0022913Y0025797D01*
X0020804Y0025797D01*
X0020128Y0025517D01*
X0019816Y0025830D01*
X0019400Y0026338D01*
X0019298Y0026348D01*
X0010500Y0035146D01*
X0010500Y0124554D01*
X0012396Y0122658D01*
X0011650Y0121912D01*
X0010888Y0120074D01*
X0010888Y0118085D01*
X0011650Y0116247D01*
X0013056Y0114841D01*
X0014706Y0114157D01*
X0014671Y0114152D01*
X0013892Y0113899D01*
X0013163Y0113527D01*
X0012501Y0113046D01*
X0011922Y0112467D01*
X0011441Y0111805D01*
X0011069Y0111076D01*
X0010816Y0110297D01*
X0010703Y0109580D01*
X0015388Y0109580D01*
X0015388Y0108580D01*
X0010703Y0108580D01*
X0010816Y0107862D01*
X0011069Y0107084D01*
X0011441Y0106354D01*
X0011922Y0105692D01*
X0012501Y0105113D01*
X0013163Y0104632D01*
X0013892Y0104261D01*
X0014671Y0104008D01*
X0014706Y0104002D01*
X0013056Y0103318D01*
X0011650Y0101912D01*
X0010888Y0100074D01*
X0010888Y0098085D01*
X0011650Y0096247D01*
X0013056Y0094841D01*
X0014894Y0094080D01*
X0016883Y0094080D01*
X0018721Y0094841D01*
X0020127Y0096247D01*
X0020888Y0098085D01*
X0020888Y0100074D01*
X0020127Y0101912D01*
X0018721Y0103318D01*
X0017070Y0104002D01*
X0017106Y0104008D01*
X0017884Y0104261D01*
X0018614Y0104632D01*
X0019276Y0105113D01*
X0019855Y0105692D01*
X0020336Y0106354D01*
X0020707Y0107084D01*
X0020960Y0107862D01*
X0021074Y0108580D01*
X0016388Y0108580D01*
X0016388Y0109580D01*
X0021074Y0109580D01*
X0020960Y0110297D01*
X0020707Y0111076D01*
X0020336Y0111805D01*
X0019855Y0112467D01*
X0019276Y0113046D01*
X0018614Y0113527D01*
X0017884Y0113899D01*
X0017106Y0114152D01*
X0017070Y0114157D01*
X0018721Y0114841D01*
X0020127Y0116247D01*
X0020888Y0118085D01*
X0020888Y0120074D01*
X0020127Y0121912D01*
X0018721Y0123318D01*
X0016883Y0124080D01*
X0018721Y0124841D01*
X0020127Y0126247D01*
X0020888Y0128085D01*
X0020888Y0130074D01*
X0020127Y0131912D01*
X0018721Y0133318D01*
X0016883Y0134080D01*
X0018721Y0134841D01*
X0020127Y0136247D01*
X0020888Y0138085D01*
X0020888Y0140074D01*
X0020127Y0141912D01*
X0018721Y0143318D01*
X0016883Y0144080D01*
X0018721Y0144841D01*
X0020127Y0146247D01*
X0020397Y0146900D01*
X0090446Y0146900D01*
X0091500Y0147954D01*
X0119246Y0175700D01*
X0219811Y0175700D01*
X0219345Y0175234D01*
X0218645Y0173544D01*
X0218645Y0171714D01*
X0219345Y0170023D01*
X0220639Y0168729D01*
X0222330Y0168029D01*
X0224160Y0168029D01*
X0225850Y0168729D01*
X0227144Y0170023D01*
X0227845Y0171714D01*
X0227845Y0173544D01*
X0227144Y0175234D01*
X0226062Y0176317D01*
X0226500Y0176754D01*
X0229557Y0179811D01*
X0230639Y0178729D01*
X0232330Y0178029D01*
X0234160Y0178029D01*
X0235850Y0178729D01*
X0237144Y0180023D01*
X0237845Y0181714D01*
X0237845Y0183544D01*
X0237144Y0185234D01*
X0235850Y0186528D01*
X0234160Y0187229D01*
X0232330Y0187229D01*
X0230639Y0186528D01*
X0229345Y0185234D01*
X0228751Y0183800D01*
X0228454Y0183800D01*
X0227845Y0183190D01*
X0227845Y0183544D01*
X0227144Y0185234D01*
X0225850Y0186528D01*
X0224160Y0187229D01*
X0222330Y0187229D01*
X0220639Y0186528D01*
X0219345Y0185234D01*
X0218645Y0183544D01*
X0218645Y0181714D01*
X0219345Y0180023D01*
X0220068Y0179300D01*
X0117754Y0179300D01*
X0091745Y0153291D01*
X0091428Y0154056D01*
X0090556Y0154928D01*
X0089417Y0155400D01*
X0088246Y0155400D01*
X0060746Y0182900D01*
X0086846Y0182900D01*
X0124646Y0220700D01*
X0339423Y0220700D01*
X0339626Y0220211D01*
X0340827Y0219010D01*
X0342396Y0218360D01*
X0344094Y0218360D01*
X0345663Y0219010D01*
X0346863Y0220211D01*
X0347513Y0221780D01*
X0347513Y0223478D01*
X0346863Y0225047D01*
X0346710Y0225200D01*
X0349780Y0225200D01*
X0349626Y0225047D01*
X0348976Y0223478D01*
X0348976Y0221780D01*
X0349626Y0220211D01*
X0350827Y0219010D01*
X0352396Y0218360D01*
X0354094Y0218360D01*
X0355663Y0219010D01*
X0356863Y0220211D01*
X0357513Y0221780D01*
X0357513Y0223478D01*
X0356863Y0225047D01*
X0356710Y0225200D01*
X0382354Y0225200D01*
X0386459Y0221095D01*
X0386090Y0220205D01*
X0386090Y0218216D01*
X0386851Y0216378D01*
X0388258Y0214971D01*
X0390096Y0214210D01*
X0388258Y0213449D01*
X0386851Y0212042D01*
X0386090Y0210205D01*
X0386090Y0208216D01*
X0386851Y0206378D01*
X0388258Y0204971D01*
X0390096Y0204210D01*
X0392085Y0204210D01*
X0390096Y0204210D01*
X0388258Y0203449D01*
X0386851Y0202042D01*
X0386090Y0200205D01*
X0386090Y0198216D01*
X0386851Y0196378D01*
X0388258Y0194971D01*
X0390096Y0194210D01*
X0392085Y0194210D01*
X0393923Y0194971D01*
X0395329Y0196378D01*
X0396090Y0198216D01*
X0396090Y0200205D01*
X0395329Y0202042D01*
X0393923Y0203449D01*
X0392085Y0204210D01*
X0393923Y0204971D01*
X0395329Y0206378D01*
X0396090Y0208216D01*
X0396090Y0210205D01*
X0395329Y0212042D01*
X0393923Y0213449D01*
X0392085Y0214210D01*
X0390096Y0214210D01*
X0392085Y0214210D01*
X0393923Y0214971D01*
X0395329Y0216378D01*
X0396090Y0218216D01*
X0396090Y0220205D01*
X0395329Y0222042D01*
X0393923Y0223449D01*
X0392085Y0224210D01*
X0390096Y0224210D01*
X0392085Y0224210D01*
X0393923Y0224971D01*
X0395329Y0226378D01*
X0396090Y0228216D01*
X0396090Y0230205D01*
X0395329Y0232042D01*
X0393923Y0233449D01*
X0392085Y0234210D01*
X0390096Y0234210D01*
X0392085Y0234210D01*
X0393923Y0234971D01*
X0395329Y0236378D01*
X0396090Y0238216D01*
X0396090Y0240205D01*
X0395329Y0242042D01*
X0393923Y0243449D01*
X0392085Y0244210D01*
X0390096Y0244210D01*
X0392085Y0244210D01*
X0393923Y0244971D01*
X0395329Y0246378D01*
X0396090Y0248216D01*
X0396090Y0250205D01*
X0395610Y0251364D01*
X0399146Y0254900D01*
X0400200Y0255954D01*
X0400200Y0304246D01*
X0399146Y0305300D01*
X0394646Y0309800D01*
X0327454Y0309800D01*
X0326400Y0308746D01*
X0325745Y0308091D01*
X0325428Y0308856D01*
X0324600Y0309684D01*
X0324600Y0316254D01*
X0326478Y0318133D01*
X0328005Y0317500D01*
X0329995Y0317500D01*
X0331832Y0318261D01*
X0333239Y0319668D01*
X0334000Y0321505D01*
X0334000Y0323495D01*
X0333239Y0325332D01*
X0331832Y0326739D01*
X0329995Y0327500D01*
X0328005Y0327500D01*
X0326168Y0326739D01*
X0324761Y0325332D01*
X0324000Y0323495D01*
X0323239Y0325332D01*
X0321832Y0326739D01*
X0319995Y0327500D01*
X0318005Y0327500D01*
X0316168Y0326739D01*
X0314761Y0325332D01*
X0314000Y0323495D01*
X0314000Y0321505D01*
X0314252Y0320897D01*
X0312154Y0318800D01*
X0301257Y0318800D01*
X0301739Y0319281D01*
X0302500Y0321119D01*
X0302500Y0323108D01*
X0301739Y0324946D01*
X0300332Y0326352D01*
X0298495Y0327114D01*
X0296505Y0327114D01*
X0294668Y0326352D01*
X0293261Y0324946D01*
X0292500Y0323108D01*
X0292500Y0321946D01*
X0291146Y0323300D01*
X0281166Y0323300D01*
X0280739Y0324332D01*
X0279332Y0325739D01*
X0277495Y0326500D01*
X0275505Y0326500D01*
X0273668Y0325739D01*
X0272261Y0324332D01*
X0271500Y0322495D01*
X0270739Y0324332D01*
X0269332Y0325739D01*
X0267495Y0326500D01*
X0265505Y0326500D01*
X0263668Y0325739D01*
X0262261Y0324332D01*
X0261500Y0322495D01*
X0260739Y0324332D01*
X0259332Y0325739D01*
X0257495Y0326500D01*
X0255505Y0326500D01*
X0253668Y0325739D01*
X0252261Y0324332D01*
X0251500Y0322495D01*
X0251500Y0320505D01*
X0252261Y0318668D01*
X0253668Y0317261D01*
X0254298Y0317000D01*
X0238702Y0317000D01*
X0239332Y0317261D01*
X0240739Y0318668D01*
X0241500Y0320505D01*
X0241500Y0322495D01*
X0240739Y0324332D01*
X0239332Y0325739D01*
X0237495Y0326500D01*
X0235505Y0326500D01*
X0234402Y0326043D01*
X0230846Y0329600D01*
X0371554Y0329600D01*
X0376986Y0324168D01*
X0376500Y0322995D01*
X0376500Y0321005D01*
X0377261Y0319168D01*
X0378668Y0317761D01*
X0380505Y0317000D01*
X0382495Y0317000D01*
X0384332Y0317761D01*
X0385739Y0319168D01*
X0386500Y0321005D01*
X0387261Y0319168D01*
X0388668Y0317761D01*
X0390505Y0317000D01*
X0392495Y0317000D01*
X0394332Y0317761D01*
X0395739Y0319168D01*
X0396500Y0321005D01*
X0396500Y0322995D01*
X0395739Y0324832D01*
X0394332Y0326239D01*
X0392495Y0327000D01*
X0390505Y0327000D01*
X0388668Y0326239D01*
X0387261Y0324832D01*
X0386500Y0322995D01*
X0386500Y0321005D01*
X0386500Y0322995D01*
X0385739Y0324832D01*
X0384332Y0326239D01*
X0382495Y0327000D01*
X0380505Y0327000D01*
X0379615Y0326631D01*
X0373046Y0333200D01*
X0142954Y0333200D01*
X0141900Y0332146D01*
X0141263Y0331509D02*
X0006000Y0331509D01*
X0006000Y0330510D02*
X0072243Y0330510D01*
X0070913Y0329512D02*
X0006000Y0329512D01*
X0006000Y0328513D02*
X0070272Y0328513D01*
X0069900Y0327515D02*
X0006000Y0327515D01*
X0006000Y0326516D02*
X0069900Y0326516D01*
X0069900Y0325518D02*
X0006000Y0325518D01*
X0006000Y0324519D02*
X0021774Y0324519D01*
X0020775Y0323521D02*
X0006000Y0323521D01*
X0006000Y0322522D02*
X0019777Y0322522D01*
X0018778Y0321524D02*
X0006000Y0321524D01*
X0006000Y0320525D02*
X0017780Y0320525D01*
X0016781Y0319527D02*
X0006000Y0319527D01*
X0006000Y0318528D02*
X0015783Y0318528D01*
X0014784Y0317530D02*
X0006000Y0317530D01*
X0006000Y0316531D02*
X0013785Y0316531D01*
X0012787Y0315533D02*
X0006000Y0315533D01*
X0006000Y0314534D02*
X0011788Y0314534D01*
X0010790Y0313536D02*
X0006000Y0313536D01*
X0006000Y0312537D02*
X0009791Y0312537D01*
X0008793Y0311539D02*
X0006000Y0311539D01*
X0006000Y0310540D02*
X0007794Y0310540D01*
X0006900Y0309541D02*
X0006000Y0309541D01*
X0006000Y0308543D02*
X0006900Y0308543D01*
X0006900Y0307544D02*
X0006000Y0307544D01*
X0006000Y0306546D02*
X0006900Y0306546D01*
X0006900Y0305547D02*
X0006000Y0305547D01*
X0006000Y0304549D02*
X0006900Y0304549D01*
X0006900Y0303550D02*
X0006000Y0303550D01*
X0006000Y0302552D02*
X0006900Y0302552D01*
X0006900Y0301553D02*
X0006000Y0301553D01*
X0006000Y0300555D02*
X0006900Y0300555D01*
X0006900Y0299556D02*
X0006000Y0299556D01*
X0006000Y0298558D02*
X0006900Y0298558D01*
X0006900Y0297559D02*
X0006000Y0297559D01*
X0006000Y0296561D02*
X0006900Y0296561D01*
X0006900Y0295562D02*
X0006000Y0295562D01*
X0006000Y0294564D02*
X0006900Y0294564D01*
X0006900Y0293565D02*
X0006000Y0293565D01*
X0006000Y0292567D02*
X0006900Y0292567D01*
X0006900Y0291568D02*
X0006000Y0291568D01*
X0006000Y0290570D02*
X0006900Y0290570D01*
X0006900Y0289571D02*
X0006000Y0289571D01*
X0006000Y0288573D02*
X0006900Y0288573D01*
X0006900Y0287574D02*
X0006000Y0287574D01*
X0006000Y0286576D02*
X0006900Y0286576D01*
X0006900Y0285577D02*
X0006000Y0285577D01*
X0006000Y0284579D02*
X0006900Y0284579D01*
X0006900Y0283580D02*
X0006000Y0283580D01*
X0006000Y0282582D02*
X0006900Y0282582D01*
X0006900Y0281583D02*
X0006000Y0281583D01*
X0006000Y0280585D02*
X0006900Y0280585D01*
X0006900Y0279586D02*
X0006000Y0279586D01*
X0006000Y0278588D02*
X0006900Y0278588D01*
X0006900Y0277589D02*
X0006000Y0277589D01*
X0006000Y0276591D02*
X0006900Y0276591D01*
X0006900Y0275592D02*
X0006000Y0275592D01*
X0006000Y0274594D02*
X0006900Y0274594D01*
X0006900Y0273595D02*
X0006000Y0273595D01*
X0006000Y0272597D02*
X0006900Y0272597D01*
X0006900Y0271598D02*
X0006000Y0271598D01*
X0006000Y0270600D02*
X0006900Y0270600D01*
X0006900Y0269601D02*
X0006000Y0269601D01*
X0006000Y0268603D02*
X0006900Y0268603D01*
X0006900Y0267604D02*
X0006000Y0267604D01*
X0006000Y0266605D02*
X0006900Y0266605D01*
X0006900Y0265607D02*
X0006000Y0265607D01*
X0006000Y0264608D02*
X0006900Y0264608D01*
X0006900Y0263610D02*
X0006000Y0263610D01*
X0006000Y0262611D02*
X0006900Y0262611D01*
X0006900Y0261613D02*
X0006000Y0261613D01*
X0006000Y0260614D02*
X0006900Y0260614D01*
X0006900Y0259616D02*
X0006000Y0259616D01*
X0006000Y0258617D02*
X0006900Y0258617D01*
X0006900Y0257619D02*
X0006000Y0257619D01*
X0006000Y0256620D02*
X0006900Y0256620D01*
X0006900Y0255622D02*
X0006000Y0255622D01*
X0006000Y0254623D02*
X0006900Y0254623D01*
X0006900Y0253625D02*
X0006000Y0253625D01*
X0006000Y0252626D02*
X0006900Y0252626D01*
X0006900Y0251628D02*
X0006000Y0251628D01*
X0006000Y0250629D02*
X0006900Y0250629D01*
X0006900Y0249631D02*
X0006000Y0249631D01*
X0006000Y0248632D02*
X0006900Y0248632D01*
X0006900Y0247634D02*
X0006000Y0247634D01*
X0006000Y0246635D02*
X0006900Y0246635D01*
X0006900Y0245637D02*
X0006000Y0245637D01*
X0006000Y0244638D02*
X0006900Y0244638D01*
X0006900Y0243640D02*
X0006000Y0243640D01*
X0006000Y0242641D02*
X0006900Y0242641D01*
X0006900Y0241643D02*
X0006000Y0241643D01*
X0006000Y0240644D02*
X0006900Y0240644D01*
X0006900Y0239646D02*
X0006000Y0239646D01*
X0006000Y0238647D02*
X0006900Y0238647D01*
X0006900Y0237649D02*
X0006000Y0237649D01*
X0006000Y0236650D02*
X0006900Y0236650D01*
X0006900Y0235652D02*
X0006000Y0235652D01*
X0006000Y0234653D02*
X0006900Y0234653D01*
X0006900Y0233655D02*
X0006000Y0233655D01*
X0006000Y0232656D02*
X0006900Y0232656D01*
X0006900Y0231658D02*
X0006000Y0231658D01*
X0006000Y0230659D02*
X0006900Y0230659D01*
X0006900Y0229661D02*
X0006000Y0229661D01*
X0006000Y0228662D02*
X0006900Y0228662D01*
X0006900Y0227664D02*
X0006000Y0227664D01*
X0006000Y0226665D02*
X0006900Y0226665D01*
X0006900Y0225667D02*
X0006000Y0225667D01*
X0006000Y0224668D02*
X0006900Y0224668D01*
X0006900Y0223670D02*
X0006000Y0223670D01*
X0006000Y0222671D02*
X0006900Y0222671D01*
X0006900Y0221672D02*
X0006000Y0221672D01*
X0006000Y0220674D02*
X0006900Y0220674D01*
X0006900Y0219675D02*
X0006000Y0219675D01*
X0006000Y0218677D02*
X0006900Y0218677D01*
X0006900Y0217678D02*
X0006000Y0217678D01*
X0006000Y0216680D02*
X0006900Y0216680D01*
X0006900Y0215681D02*
X0006000Y0215681D01*
X0006000Y0214683D02*
X0006900Y0214683D01*
X0006900Y0213684D02*
X0006000Y0213684D01*
X0006000Y0212686D02*
X0006900Y0212686D01*
X0006900Y0211687D02*
X0006000Y0211687D01*
X0006000Y0210689D02*
X0006900Y0210689D01*
X0006900Y0209690D02*
X0006000Y0209690D01*
X0006000Y0208692D02*
X0006900Y0208692D01*
X0006900Y0207693D02*
X0006000Y0207693D01*
X0006000Y0206695D02*
X0006900Y0206695D01*
X0006900Y0205696D02*
X0006000Y0205696D01*
X0006000Y0204698D02*
X0006900Y0204698D01*
X0006900Y0203699D02*
X0006000Y0203699D01*
X0006000Y0202701D02*
X0006900Y0202701D01*
X0006900Y0201702D02*
X0006000Y0201702D01*
X0006000Y0200704D02*
X0006900Y0200704D01*
X0006900Y0199705D02*
X0006000Y0199705D01*
X0006000Y0198707D02*
X0006900Y0198707D01*
X0006900Y0197708D02*
X0006000Y0197708D01*
X0006000Y0196710D02*
X0006900Y0196710D01*
X0006900Y0195711D02*
X0006000Y0195711D01*
X0006000Y0194713D02*
X0006900Y0194713D01*
X0006900Y0193714D02*
X0006000Y0193714D01*
X0006000Y0192716D02*
X0006900Y0192716D01*
X0006900Y0191717D02*
X0006000Y0191717D01*
X0006000Y0190719D02*
X0006900Y0190719D01*
X0006900Y0189720D02*
X0006000Y0189720D01*
X0006000Y0188722D02*
X0006900Y0188722D01*
X0006900Y0187723D02*
X0006000Y0187723D01*
X0006000Y0186725D02*
X0006900Y0186725D01*
X0006900Y0185726D02*
X0006000Y0185726D01*
X0006000Y0184728D02*
X0006900Y0184728D01*
X0006900Y0183729D02*
X0006000Y0183729D01*
X0006000Y0182731D02*
X0006900Y0182731D01*
X0006900Y0181732D02*
X0006000Y0181732D01*
X0006000Y0180734D02*
X0006900Y0180734D01*
X0006900Y0179735D02*
X0006000Y0179735D01*
X0006000Y0178737D02*
X0006900Y0178737D01*
X0006900Y0177738D02*
X0006000Y0177738D01*
X0006000Y0176739D02*
X0006900Y0176739D01*
X0006900Y0175741D02*
X0006000Y0175741D01*
X0006000Y0174742D02*
X0006900Y0174742D01*
X0006900Y0173744D02*
X0006000Y0173744D01*
X0006000Y0172745D02*
X0006900Y0172745D01*
X0006900Y0171747D02*
X0006000Y0171747D01*
X0006000Y0170748D02*
X0006900Y0170748D01*
X0006900Y0169750D02*
X0006000Y0169750D01*
X0006000Y0168751D02*
X0006900Y0168751D01*
X0006900Y0167753D02*
X0006000Y0167753D01*
X0006000Y0166754D02*
X0006900Y0166754D01*
X0006900Y0165756D02*
X0006000Y0165756D01*
X0006000Y0164757D02*
X0006900Y0164757D01*
X0006900Y0163759D02*
X0006000Y0163759D01*
X0006000Y0162760D02*
X0006900Y0162760D01*
X0006900Y0161762D02*
X0006000Y0161762D01*
X0006000Y0160763D02*
X0006900Y0160763D01*
X0006900Y0159765D02*
X0006000Y0159765D01*
X0006000Y0158766D02*
X0006900Y0158766D01*
X0006900Y0157768D02*
X0006000Y0157768D01*
X0006000Y0156769D02*
X0006900Y0156769D01*
X0006900Y0155771D02*
X0006000Y0155771D01*
X0006000Y0154772D02*
X0006900Y0154772D01*
X0006900Y0153774D02*
X0006000Y0153774D01*
X0006000Y0152775D02*
X0006900Y0152775D01*
X0006900Y0151777D02*
X0006000Y0151777D01*
X0006000Y0150778D02*
X0006900Y0150778D01*
X0006900Y0149780D02*
X0006000Y0149780D01*
X0006000Y0148781D02*
X0006900Y0148781D01*
X0006900Y0147783D02*
X0006000Y0147783D01*
X0006000Y0146784D02*
X0006900Y0146784D01*
X0006900Y0145786D02*
X0006000Y0145786D01*
X0006000Y0144787D02*
X0006900Y0144787D01*
X0006900Y0143789D02*
X0006000Y0143789D01*
X0006000Y0142790D02*
X0006900Y0142790D01*
X0006900Y0141792D02*
X0006000Y0141792D01*
X0006000Y0140793D02*
X0006900Y0140793D01*
X0006900Y0139795D02*
X0006000Y0139795D01*
X0006000Y0138796D02*
X0006900Y0138796D01*
X0006900Y0137798D02*
X0006000Y0137798D01*
X0006000Y0136799D02*
X0006900Y0136799D01*
X0006900Y0135801D02*
X0006000Y0135801D01*
X0006000Y0134802D02*
X0006900Y0134802D01*
X0006900Y0133803D02*
X0006000Y0133803D01*
X0006000Y0132805D02*
X0006900Y0132805D01*
X0006900Y0131806D02*
X0006000Y0131806D01*
X0006000Y0130808D02*
X0006900Y0130808D01*
X0006900Y0129809D02*
X0006000Y0129809D01*
X0006000Y0128811D02*
X0006900Y0128811D01*
X0006900Y0127812D02*
X0006000Y0127812D01*
X0006000Y0126814D02*
X0006900Y0126814D01*
X0006900Y0125815D02*
X0006000Y0125815D01*
X0006000Y0124817D02*
X0006900Y0124817D01*
X0006900Y0123818D02*
X0006000Y0123818D01*
X0006000Y0122820D02*
X0006900Y0122820D01*
X0006900Y0121821D02*
X0006000Y0121821D01*
X0006000Y0120823D02*
X0006900Y0120823D01*
X0006900Y0119824D02*
X0006000Y0119824D01*
X0006000Y0118826D02*
X0006900Y0118826D01*
X0006900Y0117827D02*
X0006000Y0117827D01*
X0006000Y0116829D02*
X0006900Y0116829D01*
X0006900Y0115830D02*
X0006000Y0115830D01*
X0006000Y0114832D02*
X0006900Y0114832D01*
X0006900Y0113833D02*
X0006000Y0113833D01*
X0006000Y0112835D02*
X0006900Y0112835D01*
X0006900Y0111836D02*
X0006000Y0111836D01*
X0006000Y0110838D02*
X0006900Y0110838D01*
X0006900Y0109839D02*
X0006000Y0109839D01*
X0006000Y0108841D02*
X0006900Y0108841D01*
X0006900Y0107842D02*
X0006000Y0107842D01*
X0006000Y0106844D02*
X0006900Y0106844D01*
X0006900Y0105845D02*
X0006000Y0105845D01*
X0006000Y0104847D02*
X0006900Y0104847D01*
X0006900Y0103848D02*
X0006000Y0103848D01*
X0006000Y0102850D02*
X0006900Y0102850D01*
X0006900Y0101851D02*
X0006000Y0101851D01*
X0006000Y0100853D02*
X0006900Y0100853D01*
X0006900Y0099854D02*
X0006000Y0099854D01*
X0006000Y0098856D02*
X0006900Y0098856D01*
X0006900Y0097857D02*
X0006000Y0097857D01*
X0006000Y0096859D02*
X0006900Y0096859D01*
X0006900Y0095860D02*
X0006000Y0095860D01*
X0006000Y0094862D02*
X0006900Y0094862D01*
X0006900Y0093863D02*
X0006000Y0093863D01*
X0006000Y0092865D02*
X0006900Y0092865D01*
X0006900Y0091866D02*
X0006000Y0091866D01*
X0006000Y0090868D02*
X0006900Y0090868D01*
X0006900Y0089869D02*
X0006000Y0089869D01*
X0006000Y0088870D02*
X0006900Y0088870D01*
X0006900Y0087872D02*
X0006000Y0087872D01*
X0006000Y0086873D02*
X0006900Y0086873D01*
X0006900Y0085875D02*
X0006000Y0085875D01*
X0006000Y0084876D02*
X0006900Y0084876D01*
X0006900Y0083878D02*
X0006000Y0083878D01*
X0006000Y0082879D02*
X0006900Y0082879D01*
X0006900Y0081881D02*
X0006000Y0081881D01*
X0006000Y0080882D02*
X0006900Y0080882D01*
X0006900Y0079884D02*
X0006000Y0079884D01*
X0006000Y0078885D02*
X0006900Y0078885D01*
X0006900Y0077887D02*
X0006000Y0077887D01*
X0006000Y0076888D02*
X0006900Y0076888D01*
X0006900Y0075890D02*
X0006000Y0075890D01*
X0006000Y0074891D02*
X0006900Y0074891D01*
X0006900Y0073893D02*
X0006000Y0073893D01*
X0006000Y0072894D02*
X0006900Y0072894D01*
X0006900Y0071896D02*
X0006000Y0071896D01*
X0006000Y0070897D02*
X0006900Y0070897D01*
X0006900Y0069899D02*
X0006000Y0069899D01*
X0006000Y0068900D02*
X0006900Y0068900D01*
X0006900Y0067902D02*
X0006000Y0067902D01*
X0006000Y0066903D02*
X0006900Y0066903D01*
X0006900Y0065905D02*
X0006000Y0065905D01*
X0006000Y0064906D02*
X0006900Y0064906D01*
X0006900Y0063908D02*
X0006000Y0063908D01*
X0006000Y0062909D02*
X0006900Y0062909D01*
X0006900Y0061911D02*
X0006000Y0061911D01*
X0006000Y0060912D02*
X0006900Y0060912D01*
X0006900Y0059914D02*
X0006000Y0059914D01*
X0006000Y0058915D02*
X0006900Y0058915D01*
X0006900Y0057917D02*
X0006000Y0057917D01*
X0006000Y0056918D02*
X0006900Y0056918D01*
X0006900Y0055920D02*
X0006000Y0055920D01*
X0006000Y0054921D02*
X0006900Y0054921D01*
X0006900Y0053923D02*
X0006000Y0053923D01*
X0006000Y0052924D02*
X0006900Y0052924D01*
X0006900Y0051926D02*
X0006000Y0051926D01*
X0006000Y0050927D02*
X0006900Y0050927D01*
X0006900Y0049929D02*
X0006000Y0049929D01*
X0006000Y0048930D02*
X0006900Y0048930D01*
X0006900Y0047932D02*
X0006000Y0047932D01*
X0006000Y0046933D02*
X0006900Y0046933D01*
X0006900Y0045934D02*
X0006000Y0045934D01*
X0006000Y0044936D02*
X0006900Y0044936D01*
X0006900Y0043937D02*
X0006000Y0043937D01*
X0006000Y0042939D02*
X0006900Y0042939D01*
X0006900Y0041940D02*
X0006000Y0041940D01*
X0006000Y0040942D02*
X0006900Y0040942D01*
X0006900Y0039943D02*
X0006000Y0039943D01*
X0006000Y0038945D02*
X0006900Y0038945D01*
X0006900Y0037946D02*
X0006000Y0037946D01*
X0006000Y0036948D02*
X0006900Y0036948D01*
X0006900Y0035949D02*
X0006000Y0035949D01*
X0006000Y0034951D02*
X0006900Y0034951D01*
X0006900Y0033952D02*
X0006000Y0033952D01*
X0006000Y0032954D02*
X0007601Y0032954D01*
X0008599Y0031955D02*
X0006000Y0031955D01*
X0006000Y0030957D02*
X0009598Y0030957D01*
X0010596Y0029958D02*
X0006000Y0029958D01*
X0006000Y0028960D02*
X0011595Y0028960D01*
X0012593Y0027961D02*
X0006000Y0027961D01*
X0006000Y0026963D02*
X0013592Y0026963D01*
X0014590Y0025964D02*
X0006000Y0025964D01*
X0006000Y0024966D02*
X0015589Y0024966D01*
X0016587Y0023967D02*
X0006000Y0023967D01*
X0006000Y0022969D02*
X0017146Y0022969D01*
X0016732Y0021970D02*
X0006000Y0021970D01*
X0006000Y0020972D02*
X0016558Y0020972D01*
X0016558Y0019973D02*
X0006000Y0019973D01*
X0006000Y0018975D02*
X0016752Y0018975D01*
X0017166Y0017976D02*
X0006000Y0017976D01*
X0006000Y0016978D02*
X0017882Y0016978D01*
X0018916Y0015979D02*
X0006000Y0015979D01*
X0006000Y0014981D02*
X0328724Y0014981D01*
X0328073Y0013982D02*
X0006000Y0013982D01*
X0006000Y0012984D02*
X0327676Y0012984D01*
X0327488Y0011985D02*
X0006000Y0011985D01*
X0006000Y0010987D02*
X0327516Y0010987D01*
X0327734Y0009988D02*
X0006000Y0009988D01*
X0006000Y0008990D02*
X0328163Y0008990D01*
X0328897Y0007991D02*
X0006000Y0007991D01*
X0006000Y0006993D02*
X0330166Y0006993D01*
X0328800Y0011600D02*
X0332738Y0011574D01*
X0332438Y0011985D02*
X0333038Y0011985D01*
X0333038Y0012984D02*
X0332438Y0012984D01*
X0332438Y0013982D02*
X0333038Y0013982D01*
X0333038Y0014981D02*
X0332438Y0014981D01*
X0332438Y0015979D02*
X0333038Y0015979D01*
X0335607Y0015979D02*
X0352850Y0015979D01*
X0352850Y0015300D02*
X0357200Y0015300D01*
X0357200Y0019650D01*
X0355574Y0019650D01*
X0352850Y0016926D01*
X0352850Y0015300D01*
X0352850Y0014700D02*
X0352850Y0013074D01*
X0355574Y0010350D01*
X0357200Y0010350D01*
X0357200Y0014700D01*
X0352850Y0014700D01*
X0352850Y0013982D02*
X0337404Y0013982D01*
X0337801Y0012984D02*
X0352940Y0012984D01*
X0353939Y0011985D02*
X0337988Y0011985D01*
X0337961Y0010987D02*
X0354937Y0010987D01*
X0357200Y0010987D02*
X0357800Y0010987D01*
X0357800Y0010350D02*
X0359426Y0010350D01*
X0362150Y0013074D01*
X0362150Y0014700D01*
X0357800Y0014700D01*
X0357800Y0015300D01*
X0357200Y0015300D01*
X0357200Y0014700D01*
X0357800Y0014700D01*
X0357800Y0010350D01*
X0357800Y0011985D02*
X0357200Y0011985D01*
X0357200Y0012984D02*
X0357800Y0012984D01*
X0357800Y0013982D02*
X0357200Y0013982D01*
X0357200Y0014981D02*
X0336753Y0014981D01*
X0337743Y0009988D02*
X0403921Y0009988D01*
X0403921Y0008990D02*
X0337314Y0008990D01*
X0336580Y0007991D02*
X0403921Y0007991D01*
X0402379Y0006993D02*
X0335311Y0006993D01*
X0328800Y0011600D02*
X0292900Y0011100D01*
X0243200Y0060800D01*
X0131300Y0060300D01*
X0114000Y0082100D01*
X0113245Y0082629D01*
X0113729Y0082879D02*
X0118976Y0082879D01*
X0118976Y0081881D02*
X0117713Y0081881D01*
X0117713Y0082144D02*
X0113729Y0082144D01*
X0113729Y0075213D01*
X0114291Y0075302D01*
X0114960Y0075519D01*
X0115587Y0075838D01*
X0116156Y0076252D01*
X0116653Y0076749D01*
X0117067Y0077318D01*
X0117386Y0077945D01*
X0117603Y0078614D01*
X0117713Y0079308D01*
X0117713Y0082144D01*
X0117713Y0083113D02*
X0113729Y0083113D01*
X0112761Y0083113D01*
X0112761Y0090045D01*
X0112198Y0089956D01*
X0111529Y0089738D01*
X0110903Y0089419D01*
X0110334Y0089005D01*
X0109836Y0088508D01*
X0109423Y0087939D01*
X0109104Y0087312D01*
X0108886Y0086643D01*
X0108776Y0085949D01*
X0108776Y0083113D01*
X0112760Y0083113D01*
X0112760Y0082144D01*
X0108776Y0082144D01*
X0108776Y0079308D01*
X0108886Y0078614D01*
X0109104Y0077945D01*
X0109423Y0077318D01*
X0109836Y0076749D01*
X0110334Y0076252D01*
X0110903Y0075838D01*
X0111529Y0075519D01*
X0112198Y0075302D01*
X0112761Y0075213D01*
X0112761Y0082144D01*
X0113729Y0082144D01*
X0113729Y0083113D01*
X0113729Y0090045D01*
X0114291Y0089956D01*
X0114960Y0089738D01*
X0115587Y0089419D01*
X0116156Y0089005D01*
X0116653Y0088508D01*
X0117067Y0087939D01*
X0117386Y0087312D01*
X0117603Y0086643D01*
X0117713Y0085949D01*
X0117713Y0083113D01*
X0117713Y0083878D02*
X0118976Y0083878D01*
X0118976Y0084876D02*
X0117713Y0084876D01*
X0117713Y0085875D02*
X0118976Y0085875D01*
X0118976Y0086446D02*
X0118976Y0078811D01*
X0119626Y0077242D01*
X0120827Y0076041D01*
X0122396Y0075392D01*
X0124094Y0075392D01*
X0125663Y0076041D01*
X0126538Y0076917D01*
X0141154Y0062300D01*
X0244759Y0062300D01*
X0256600Y0048146D01*
X0256600Y0048054D01*
X0257071Y0047584D01*
X0257498Y0047073D01*
X0257589Y0047065D01*
X0257654Y0047000D01*
X0258320Y0047000D01*
X0258983Y0046941D01*
X0259054Y0047000D01*
X0273550Y0047000D01*
X0273550Y0046157D01*
X0276157Y0043550D01*
X0279843Y0043550D01*
X0282450Y0046157D01*
X0282450Y0049843D01*
X0282369Y0049924D01*
X0283946Y0051500D01*
X0285207Y0051500D01*
X0283550Y0049843D01*
X0283550Y0046157D01*
X0286157Y0043550D01*
X0289843Y0043550D01*
X0292393Y0046100D01*
X0309486Y0046100D01*
X0326019Y0030534D01*
X0326480Y0030033D01*
X0326555Y0030029D01*
X0326609Y0029978D01*
X0327290Y0029999D01*
X0327688Y0029982D01*
X0327688Y0029482D01*
X0330647Y0026524D01*
X0334830Y0026524D01*
X0337788Y0029482D01*
X0337788Y0033666D01*
X0336589Y0034865D01*
X0392637Y0033518D01*
X0392654Y0033500D01*
X0393378Y0033500D01*
X0394102Y0033483D01*
X0394120Y0033500D01*
X0394146Y0033500D01*
X0394658Y0034012D01*
X0395182Y0034511D01*
X0395182Y0034537D01*
X0398400Y0037754D01*
X0398400Y0063946D01*
X0397346Y0065000D01*
X0395203Y0067143D01*
X0395764Y0067704D01*
X0396525Y0069542D01*
X0396525Y0071531D01*
X0395764Y0073369D01*
X0394358Y0074775D01*
X0392520Y0075537D01*
X0394358Y0076298D01*
X0395764Y0077704D01*
X0396525Y0079542D01*
X0396525Y0081531D01*
X0395764Y0083369D01*
X0394358Y0084775D01*
X0392520Y0085537D01*
X0390531Y0085537D01*
X0388693Y0084775D01*
X0387286Y0083369D01*
X0386525Y0081531D01*
X0386525Y0079542D01*
X0387286Y0077704D01*
X0388693Y0076298D01*
X0390531Y0075537D01*
X0392520Y0075537D01*
X0390531Y0075537D01*
X0388693Y0074775D01*
X0387286Y0073369D01*
X0386525Y0071531D01*
X0386525Y0069542D01*
X0387286Y0067704D01*
X0388693Y0066298D01*
X0390531Y0065537D01*
X0391718Y0065537D01*
X0390531Y0065537D01*
X0388693Y0064775D01*
X0387286Y0063369D01*
X0386525Y0061531D01*
X0386525Y0059542D01*
X0387286Y0057704D01*
X0388693Y0056298D01*
X0390531Y0055537D01*
X0392520Y0055537D01*
X0394358Y0056298D01*
X0394800Y0056740D01*
X0394800Y0054333D01*
X0394358Y0054775D01*
X0392520Y0055537D01*
X0390531Y0055537D01*
X0389313Y0055032D01*
X0352346Y0092000D01*
X0179854Y0092000D01*
X0178800Y0090946D01*
X0176366Y0088512D01*
X0175663Y0089216D01*
X0174094Y0089866D01*
X0172396Y0089866D01*
X0170827Y0089216D01*
X0169626Y0088015D01*
X0168976Y0086446D01*
X0168976Y0078811D01*
X0169626Y0077242D01*
X0170827Y0076041D01*
X0172396Y0075392D01*
X0174094Y0075392D01*
X0175663Y0076041D01*
X0176863Y0077242D01*
X0177513Y0078811D01*
X0177513Y0084568D01*
X0178976Y0086031D01*
X0178976Y0078811D01*
X0179626Y0077242D01*
X0180827Y0076041D01*
X0182396Y0075392D01*
X0184094Y0075392D01*
X0185663Y0076041D01*
X0186238Y0076617D01*
X0196954Y0065900D01*
X0142646Y0065900D01*
X0133154Y0075392D01*
X0134094Y0075392D01*
X0135663Y0076041D01*
X0136863Y0077242D01*
X0137513Y0078811D01*
X0137513Y0086446D01*
X0136863Y0088015D01*
X0135663Y0089216D01*
X0134094Y0089866D01*
X0132396Y0089866D01*
X0130827Y0089216D01*
X0129626Y0088015D01*
X0128976Y0086446D01*
X0128976Y0079569D01*
X0127513Y0081032D01*
X0127513Y0086446D01*
X0126863Y0088015D01*
X0125663Y0089216D01*
X0124094Y0089866D01*
X0122396Y0089866D01*
X0120827Y0089216D01*
X0119626Y0088015D01*
X0118976Y0086446D01*
X0119153Y0086873D02*
X0117529Y0086873D01*
X0117101Y0087872D02*
X0119567Y0087872D01*
X0120482Y0088870D02*
X0116291Y0088870D01*
X0114558Y0089869D02*
X0177723Y0089869D01*
X0176725Y0088870D02*
X0176008Y0088870D01*
X0178722Y0090868D02*
X0010500Y0090868D01*
X0010500Y0091866D02*
X0179720Y0091866D01*
X0180600Y0090200D02*
X0351600Y0090200D01*
X0391200Y0050600D01*
X0391525Y0050537D01*
X0394006Y0054921D02*
X0394800Y0054921D01*
X0394800Y0055920D02*
X0393444Y0055920D01*
X0389606Y0055920D02*
X0388426Y0055920D01*
X0388073Y0056918D02*
X0387427Y0056918D01*
X0387199Y0057917D02*
X0386429Y0057917D01*
X0386785Y0058915D02*
X0385430Y0058915D01*
X0384432Y0059914D02*
X0386525Y0059914D01*
X0386525Y0060912D02*
X0383433Y0060912D01*
X0382435Y0061911D02*
X0386682Y0061911D01*
X0387096Y0062909D02*
X0381436Y0062909D01*
X0380438Y0063908D02*
X0387825Y0063908D01*
X0389009Y0064906D02*
X0379439Y0064906D01*
X0378441Y0065905D02*
X0389642Y0065905D01*
X0388088Y0066903D02*
X0377442Y0066903D01*
X0376444Y0067902D02*
X0387205Y0067902D01*
X0386791Y0068900D02*
X0375445Y0068900D01*
X0374447Y0069899D02*
X0386525Y0069899D01*
X0386525Y0070897D02*
X0373448Y0070897D01*
X0372450Y0071896D02*
X0386676Y0071896D01*
X0387090Y0072894D02*
X0371451Y0072894D01*
X0370453Y0073893D02*
X0387810Y0073893D01*
X0388973Y0074891D02*
X0369454Y0074891D01*
X0368456Y0075890D02*
X0389678Y0075890D01*
X0388102Y0076888D02*
X0367457Y0076888D01*
X0366459Y0077887D02*
X0387211Y0077887D01*
X0386797Y0078885D02*
X0365460Y0078885D01*
X0364462Y0079884D02*
X0386525Y0079884D01*
X0386525Y0080882D02*
X0363463Y0080882D01*
X0362465Y0081881D02*
X0386670Y0081881D01*
X0387084Y0082879D02*
X0361466Y0082879D01*
X0360468Y0083878D02*
X0387795Y0083878D01*
X0388937Y0084876D02*
X0359469Y0084876D01*
X0358471Y0085875D02*
X0403921Y0085875D01*
X0403921Y0086873D02*
X0357472Y0086873D01*
X0356474Y0087872D02*
X0403921Y0087872D01*
X0403921Y0088870D02*
X0355475Y0088870D01*
X0354477Y0089869D02*
X0403921Y0089869D01*
X0403921Y0090868D02*
X0353478Y0090868D01*
X0352480Y0091866D02*
X0388319Y0091866D01*
X0388462Y0091723D02*
X0390299Y0090962D01*
X0392288Y0090962D01*
X0394126Y0091723D01*
X0395533Y0093130D01*
X0396294Y0094967D01*
X0396294Y0096957D01*
X0395533Y0098794D01*
X0394126Y0100201D01*
X0392288Y0100962D01*
X0394126Y0101723D01*
X0395533Y0103130D01*
X0396294Y0104967D01*
X0396294Y0106957D01*
X0395533Y0108794D01*
X0394126Y0110201D01*
X0392288Y0110962D01*
X0394126Y0111723D01*
X0395533Y0113130D01*
X0396294Y0114967D01*
X0396294Y0116957D01*
X0395533Y0118794D01*
X0394126Y0120201D01*
X0392288Y0120962D01*
X0394126Y0121723D01*
X0395533Y0123130D01*
X0396294Y0124967D01*
X0396294Y0126957D01*
X0395533Y0128794D01*
X0394126Y0130201D01*
X0392288Y0130962D01*
X0394126Y0131723D01*
X0395533Y0133130D01*
X0396294Y0134967D01*
X0396294Y0136957D01*
X0395533Y0138794D01*
X0394126Y0140201D01*
X0392288Y0140962D01*
X0394126Y0141723D01*
X0395533Y0143130D01*
X0396294Y0144967D01*
X0396294Y0146957D01*
X0395533Y0148794D01*
X0394126Y0150201D01*
X0392288Y0150962D01*
X0394126Y0151723D01*
X0395533Y0153130D01*
X0396294Y0154967D01*
X0396294Y0156957D01*
X0395533Y0158794D01*
X0394126Y0160201D01*
X0392288Y0160962D01*
X0394126Y0161723D01*
X0395533Y0163130D01*
X0396294Y0164967D01*
X0396294Y0166957D01*
X0395533Y0168794D01*
X0394126Y0170201D01*
X0392288Y0170962D01*
X0394126Y0171723D01*
X0395533Y0173130D01*
X0396294Y0174967D01*
X0396294Y0176957D01*
X0395533Y0178794D01*
X0394126Y0180201D01*
X0392288Y0180962D01*
X0394126Y0181723D01*
X0395533Y0183130D01*
X0396294Y0184967D01*
X0396294Y0186957D01*
X0395533Y0188794D01*
X0394126Y0190201D01*
X0392288Y0190962D01*
X0390299Y0190962D01*
X0388462Y0190201D01*
X0387055Y0188794D01*
X0386294Y0186957D01*
X0386294Y0184967D01*
X0387055Y0183130D01*
X0388462Y0181723D01*
X0390299Y0180962D01*
X0392288Y0180962D01*
X0390299Y0180962D01*
X0388462Y0180201D01*
X0387055Y0178794D01*
X0386294Y0176957D01*
X0386294Y0174967D01*
X0387055Y0173130D01*
X0388462Y0171723D01*
X0390299Y0170962D01*
X0392288Y0170962D01*
X0390299Y0170962D01*
X0388462Y0170201D01*
X0387055Y0168794D01*
X0386294Y0166957D01*
X0386294Y0164967D01*
X0387055Y0163130D01*
X0388462Y0161723D01*
X0390299Y0160962D01*
X0392288Y0160962D01*
X0390299Y0160962D01*
X0388462Y0160201D01*
X0387055Y0158794D01*
X0386294Y0156957D01*
X0386294Y0154967D01*
X0387055Y0153130D01*
X0388462Y0151723D01*
X0390299Y0150962D01*
X0392288Y0150962D01*
X0390299Y0150962D01*
X0388462Y0150201D01*
X0387055Y0148794D01*
X0386294Y0146957D01*
X0386294Y0144967D01*
X0387055Y0143130D01*
X0388462Y0141723D01*
X0390299Y0140962D01*
X0392288Y0140962D01*
X0390299Y0140962D01*
X0388462Y0140201D01*
X0387055Y0138794D01*
X0386294Y0136957D01*
X0386294Y0134967D01*
X0387055Y0133130D01*
X0388462Y0131723D01*
X0390299Y0130962D01*
X0392288Y0130962D01*
X0390299Y0130962D01*
X0388462Y0130201D01*
X0387055Y0128794D01*
X0386294Y0126957D01*
X0386294Y0124967D01*
X0387055Y0123130D01*
X0388462Y0121723D01*
X0390299Y0120962D01*
X0392288Y0120962D01*
X0390299Y0120962D01*
X0388462Y0120201D01*
X0387055Y0118794D01*
X0386294Y0116957D01*
X0386294Y0114967D01*
X0387055Y0113130D01*
X0388462Y0111723D01*
X0390299Y0110962D01*
X0392288Y0110962D01*
X0390299Y0110962D01*
X0388462Y0110201D01*
X0387361Y0109100D01*
X0355753Y0109100D01*
X0356863Y0110211D01*
X0357513Y0111780D01*
X0357513Y0113478D01*
X0356863Y0115047D01*
X0355663Y0116247D01*
X0354094Y0116897D01*
X0352396Y0116897D01*
X0350827Y0116247D01*
X0349626Y0115047D01*
X0348976Y0113478D01*
X0348976Y0113369D01*
X0348746Y0113600D01*
X0347463Y0113600D01*
X0346863Y0115047D01*
X0345663Y0116247D01*
X0344094Y0116897D01*
X0342396Y0116897D01*
X0340827Y0116247D01*
X0339626Y0115047D01*
X0338976Y0113478D01*
X0338976Y0111780D01*
X0339626Y0110211D01*
X0340827Y0109010D01*
X0342396Y0108360D01*
X0344094Y0108360D01*
X0345663Y0109010D01*
X0346653Y0110000D01*
X0347254Y0110000D01*
X0350700Y0106554D01*
X0350954Y0106300D01*
X0350827Y0106247D01*
X0349626Y0105047D01*
X0348976Y0103478D01*
X0348976Y0101780D01*
X0349626Y0100211D01*
X0350827Y0099010D01*
X0352396Y0098360D01*
X0354094Y0098360D01*
X0355663Y0099010D01*
X0356863Y0100211D01*
X0357513Y0101780D01*
X0357513Y0103478D01*
X0356863Y0105047D01*
X0356410Y0105500D01*
X0386294Y0105500D01*
X0386294Y0104967D01*
X0387055Y0103130D01*
X0388462Y0101723D01*
X0390299Y0100962D01*
X0392288Y0100962D01*
X0390299Y0100962D01*
X0388462Y0100201D01*
X0387055Y0098794D01*
X0386294Y0096957D01*
X0386294Y0094967D01*
X0387055Y0093130D01*
X0388462Y0091723D01*
X0387320Y0092865D02*
X0010500Y0092865D01*
X0010500Y0093863D02*
X0386751Y0093863D01*
X0386338Y0094862D02*
X0018741Y0094862D01*
X0019740Y0095860D02*
X0386294Y0095860D01*
X0386294Y0096859D02*
X0020380Y0096859D01*
X0020794Y0097857D02*
X0386667Y0097857D01*
X0387116Y0098856D02*
X0355290Y0098856D01*
X0356507Y0099854D02*
X0388115Y0099854D01*
X0388334Y0101851D02*
X0357513Y0101851D01*
X0357513Y0102850D02*
X0387335Y0102850D01*
X0386757Y0103848D02*
X0357360Y0103848D01*
X0356946Y0104847D02*
X0386344Y0104847D01*
X0390300Y0107300D02*
X0391200Y0106400D01*
X0391294Y0105962D01*
X0390300Y0107300D02*
X0352500Y0107300D01*
X0348000Y0111800D01*
X0343500Y0111800D01*
X0343245Y0112629D01*
X0339366Y0110838D02*
X0020785Y0110838D01*
X0021033Y0109839D02*
X0339998Y0109839D01*
X0341235Y0108841D02*
X0016388Y0108841D01*
X0015388Y0108841D02*
X0010500Y0108841D01*
X0010500Y0109839D02*
X0010744Y0109839D01*
X0010500Y0110838D02*
X0010992Y0110838D01*
X0011464Y0111836D02*
X0010500Y0111836D01*
X0010500Y0112835D02*
X0012290Y0112835D01*
X0013764Y0113833D02*
X0010500Y0113833D01*
X0010500Y0114832D02*
X0013078Y0114832D01*
X0012067Y0115830D02*
X0010500Y0115830D01*
X0010500Y0116829D02*
X0011409Y0116829D01*
X0010995Y0117827D02*
X0010500Y0117827D01*
X0010500Y0118826D02*
X0010888Y0118826D01*
X0010888Y0119824D02*
X0010500Y0119824D01*
X0010500Y0120823D02*
X0011198Y0120823D01*
X0011612Y0121821D02*
X0010500Y0121821D01*
X0010500Y0122820D02*
X0012235Y0122820D01*
X0011236Y0123818D02*
X0010500Y0123818D01*
X0010500Y0127100D02*
X0010500Y0290900D01*
X0023100Y0303500D01*
X0023771Y0304172D01*
X0021848Y0299556D02*
X0021702Y0299556D01*
X0021745Y0299599D02*
X0022777Y0299172D01*
X0024766Y0299172D01*
X0026603Y0299933D01*
X0028010Y0301339D01*
X0028771Y0303177D01*
X0028771Y0305166D01*
X0028771Y0303177D01*
X0029170Y0302215D01*
X0014100Y0287146D01*
X0014100Y0253751D01*
X0013056Y0253318D01*
X0012300Y0252562D01*
X0012300Y0290154D01*
X0021745Y0299599D01*
X0020703Y0298558D02*
X0025512Y0298558D01*
X0025694Y0299556D02*
X0026511Y0299556D01*
X0027225Y0300555D02*
X0027509Y0300555D01*
X0028098Y0301553D02*
X0028508Y0301553D01*
X0028512Y0302552D02*
X0029030Y0302552D01*
X0028771Y0303550D02*
X0028771Y0303550D01*
X0028771Y0304549D02*
X0028771Y0304549D01*
X0028613Y0305547D02*
X0028929Y0305547D01*
X0029343Y0306546D02*
X0028200Y0306546D01*
X0027469Y0307544D02*
X0030073Y0307544D01*
X0031259Y0308543D02*
X0026284Y0308543D01*
X0021259Y0308543D02*
X0018816Y0308543D01*
X0018971Y0307544D02*
X0020073Y0307544D01*
X0019343Y0306546D02*
X0018971Y0306546D01*
X0014271Y0306546D02*
X0013271Y0306546D01*
X0013271Y0307544D02*
X0014271Y0307544D01*
X0014271Y0308543D02*
X0013271Y0308543D01*
X0011887Y0309541D02*
X0113824Y0309541D01*
X0113600Y0310540D02*
X0012886Y0310540D01*
X0013884Y0311539D02*
X0113692Y0311539D01*
X0114153Y0312537D02*
X0014883Y0312537D01*
X0015881Y0313536D02*
X0115445Y0313536D01*
X0117955Y0313536D02*
X0123290Y0313536D01*
X0124288Y0314534D02*
X0016880Y0314534D01*
X0017878Y0315533D02*
X0125287Y0315533D01*
X0126285Y0316531D02*
X0018877Y0316531D01*
X0019875Y0317530D02*
X0072147Y0317530D01*
X0070874Y0318528D02*
X0020874Y0318528D01*
X0021872Y0319527D02*
X0070255Y0319527D01*
X0069900Y0320525D02*
X0022871Y0320525D01*
X0023100Y0323300D02*
X0008700Y0308900D01*
X0008700Y0034400D01*
X0018480Y0024620D01*
X0021858Y0020497D01*
X0025834Y0016978D02*
X0352902Y0016978D01*
X0353900Y0017976D02*
X0026551Y0017976D01*
X0026964Y0018975D02*
X0057037Y0018975D01*
X0057244Y0018768D02*
X0059082Y0018007D01*
X0061071Y0018007D01*
X0062908Y0018768D01*
X0064315Y0020175D01*
X0065076Y0022012D01*
X0065076Y0024001D01*
X0064315Y0025839D01*
X0062908Y0027246D01*
X0061071Y0028007D01*
X0059082Y0028007D01*
X0057244Y0027246D01*
X0055837Y0025839D01*
X0055076Y0024001D01*
X0055076Y0022012D01*
X0055837Y0020175D01*
X0057244Y0018768D01*
X0056039Y0019973D02*
X0027158Y0019973D01*
X0027158Y0020972D02*
X0055507Y0020972D01*
X0055094Y0021970D02*
X0026985Y0021970D01*
X0026571Y0022969D02*
X0055076Y0022969D01*
X0055076Y0023967D02*
X0025884Y0023967D01*
X0024885Y0024966D02*
X0055476Y0024966D01*
X0055962Y0025964D02*
X0019706Y0025964D01*
X0018683Y0026963D02*
X0056961Y0026963D01*
X0057244Y0028768D02*
X0059082Y0028007D01*
X0061071Y0028007D01*
X0062908Y0028768D01*
X0064315Y0030175D01*
X0065076Y0032012D01*
X0065076Y0034001D01*
X0064315Y0035839D01*
X0062908Y0037246D01*
X0061071Y0038007D01*
X0059082Y0038007D01*
X0057244Y0037246D01*
X0055837Y0035839D01*
X0055076Y0034001D01*
X0055076Y0032012D01*
X0055837Y0030175D01*
X0057244Y0028768D01*
X0057052Y0028960D02*
X0016686Y0028960D01*
X0017684Y0027961D02*
X0058972Y0027961D01*
X0061181Y0027961D02*
X0077658Y0027961D01*
X0077855Y0028436D02*
X0077200Y0026855D01*
X0077200Y0025145D01*
X0077855Y0023564D01*
X0079064Y0022355D01*
X0080645Y0021700D01*
X0088355Y0021700D01*
X0089936Y0022355D01*
X0091145Y0023564D01*
X0091800Y0025145D01*
X0091800Y0026855D01*
X0091145Y0028436D01*
X0089936Y0029645D01*
X0088355Y0030300D01*
X0080645Y0030300D01*
X0079064Y0029645D01*
X0077855Y0028436D01*
X0078379Y0028960D02*
X0063100Y0028960D01*
X0064099Y0029958D02*
X0079820Y0029958D01*
X0080645Y0031700D02*
X0088355Y0031700D01*
X0089936Y0032355D01*
X0091145Y0033564D01*
X0091800Y0035145D01*
X0091800Y0036855D01*
X0091145Y0038436D01*
X0089936Y0039645D01*
X0088355Y0040300D01*
X0080645Y0040300D01*
X0079064Y0039645D01*
X0077855Y0038436D01*
X0077200Y0036855D01*
X0077200Y0035145D01*
X0077855Y0033564D01*
X0079064Y0032355D01*
X0080645Y0031700D01*
X0080028Y0031955D02*
X0065053Y0031955D01*
X0065076Y0032954D02*
X0078465Y0032954D01*
X0077694Y0033952D02*
X0065076Y0033952D01*
X0064683Y0034951D02*
X0077280Y0034951D01*
X0077200Y0035949D02*
X0064205Y0035949D01*
X0063206Y0036948D02*
X0077238Y0036948D01*
X0077652Y0037946D02*
X0061217Y0037946D01*
X0058936Y0037946D02*
X0027158Y0037946D01*
X0027158Y0036948D02*
X0056946Y0036948D01*
X0055948Y0035949D02*
X0027158Y0035949D01*
X0027158Y0035644D02*
X0027158Y0044721D01*
X0026397Y0045482D01*
X0017320Y0045482D01*
X0016558Y0044721D01*
X0016558Y0035644D01*
X0017320Y0034882D01*
X0026397Y0034882D01*
X0027158Y0035644D01*
X0026466Y0034951D02*
X0055469Y0034951D01*
X0055076Y0033952D02*
X0011693Y0033952D01*
X0012692Y0032954D02*
X0055076Y0032954D01*
X0055100Y0031955D02*
X0013690Y0031955D01*
X0014689Y0030957D02*
X0055513Y0030957D01*
X0056054Y0029958D02*
X0015687Y0029958D01*
X0017251Y0034951D02*
X0010695Y0034951D01*
X0010500Y0035949D02*
X0016558Y0035949D01*
X0016558Y0036948D02*
X0010500Y0036948D01*
X0010500Y0037946D02*
X0016558Y0037946D01*
X0016558Y0038945D02*
X0010500Y0038945D01*
X0010500Y0039943D02*
X0016558Y0039943D01*
X0016558Y0040942D02*
X0010500Y0040942D01*
X0010500Y0041940D02*
X0016558Y0041940D01*
X0016558Y0042939D02*
X0010500Y0042939D01*
X0010500Y0043937D02*
X0016558Y0043937D01*
X0016774Y0044936D02*
X0010500Y0044936D01*
X0010500Y0045934D02*
X0077200Y0045934D01*
X0077200Y0045145D02*
X0077855Y0043564D01*
X0079064Y0042355D01*
X0080645Y0041700D01*
X0088355Y0041700D01*
X0089936Y0042355D01*
X0091145Y0043564D01*
X0091800Y0045145D01*
X0091800Y0046855D01*
X0091145Y0048436D01*
X0089936Y0049645D01*
X0089864Y0049675D01*
X0090643Y0050800D01*
X0157498Y0050800D01*
X0162400Y0042888D01*
X0162400Y0042654D01*
X0162780Y0042275D01*
X0163063Y0041818D01*
X0163290Y0041765D01*
X0163454Y0041600D01*
X0163991Y0041600D01*
X0164514Y0041477D01*
X0164712Y0041600D01*
X0178179Y0041600D01*
X0179145Y0041200D01*
X0186855Y0041200D01*
X0188436Y0041855D01*
X0189645Y0043064D01*
X0190300Y0044645D01*
X0190300Y0046355D01*
X0189645Y0047936D01*
X0188436Y0049145D01*
X0186855Y0049800D01*
X0179145Y0049800D01*
X0177564Y0049145D01*
X0176355Y0047936D01*
X0175700Y0046355D01*
X0175700Y0045200D01*
X0165202Y0045200D01*
X0160300Y0053112D01*
X0160300Y0053346D01*
X0159920Y0053725D01*
X0159637Y0054182D01*
X0159410Y0054235D01*
X0159246Y0054400D01*
X0158709Y0054400D01*
X0158186Y0054523D01*
X0157988Y0054400D01*
X0090262Y0054400D01*
X0090112Y0054504D01*
X0089538Y0054400D01*
X0088954Y0054400D01*
X0088825Y0054270D01*
X0088644Y0054238D01*
X0088312Y0053758D01*
X0087900Y0053346D01*
X0087900Y0053162D01*
X0085918Y0050300D01*
X0080645Y0050300D01*
X0079064Y0049645D01*
X0077855Y0048436D01*
X0077200Y0046855D01*
X0077200Y0045145D01*
X0077286Y0044936D02*
X0026943Y0044936D01*
X0027158Y0043937D02*
X0077700Y0043937D01*
X0078480Y0042939D02*
X0027158Y0042939D01*
X0027158Y0041940D02*
X0080064Y0041940D01*
X0079784Y0039943D02*
X0027158Y0039943D01*
X0027158Y0038945D02*
X0078364Y0038945D01*
X0077232Y0046933D02*
X0010500Y0046933D01*
X0010500Y0047932D02*
X0077646Y0047932D01*
X0078349Y0048930D02*
X0010500Y0048930D01*
X0010500Y0049929D02*
X0079748Y0049929D01*
X0084500Y0046000D02*
X0085200Y0046100D01*
X0089700Y0052600D01*
X0158500Y0052600D01*
X0164200Y0043400D01*
X0182900Y0043400D01*
X0183000Y0045500D01*
X0188522Y0041940D02*
X0190695Y0041940D01*
X0189696Y0040942D02*
X0161968Y0040942D01*
X0162201Y0040485D02*
X0160140Y0044531D01*
X0160140Y0044531D01*
X0160140Y0044531D01*
X0156929Y0047742D01*
X0152883Y0049803D01*
X0148398Y0050514D01*
X0143913Y0049803D01*
X0139867Y0047742D01*
X0139867Y0047742D01*
X0136656Y0044531D01*
X0134594Y0040485D01*
X0133884Y0036000D01*
X0134594Y0031515D01*
X0136656Y0027469D01*
X0139867Y0024258D01*
X0143913Y0022197D01*
X0148398Y0021486D01*
X0152883Y0022197D01*
X0156929Y0024258D01*
X0160140Y0027469D01*
X0162201Y0031515D01*
X0162911Y0036000D01*
X0162201Y0040485D01*
X0162201Y0040485D01*
X0162287Y0039943D02*
X0188698Y0039943D01*
X0188057Y0039302D02*
X0186855Y0039800D01*
X0179145Y0039800D01*
X0177564Y0039145D01*
X0176355Y0037936D01*
X0175700Y0036355D01*
X0175700Y0034645D01*
X0176355Y0033064D01*
X0177564Y0031855D01*
X0179145Y0031200D01*
X0186855Y0031200D01*
X0188436Y0031855D01*
X0189645Y0033064D01*
X0190300Y0034645D01*
X0190300Y0036355D01*
X0190271Y0036425D01*
X0198846Y0045000D01*
X0226616Y0045000D01*
X0227444Y0044172D01*
X0228583Y0043700D01*
X0229817Y0043700D01*
X0230956Y0044172D01*
X0231828Y0045044D01*
X0232300Y0046183D01*
X0232300Y0047417D01*
X0231828Y0048556D01*
X0230956Y0049428D01*
X0229817Y0049900D01*
X0228583Y0049900D01*
X0227444Y0049428D01*
X0226616Y0048600D01*
X0198846Y0048600D01*
X0197354Y0048600D01*
X0188057Y0039302D01*
X0190793Y0036948D02*
X0232613Y0036948D01*
X0232771Y0037946D02*
X0191792Y0037946D01*
X0192791Y0038945D02*
X0232929Y0038945D01*
X0233088Y0039943D02*
X0193789Y0039943D01*
X0194788Y0040942D02*
X0233582Y0040942D01*
X0233094Y0039985D02*
X0233094Y0039985D01*
X0232384Y0035500D01*
X0233094Y0031015D01*
X0235156Y0026969D01*
X0238367Y0023758D01*
X0242413Y0021697D01*
X0246898Y0020986D01*
X0251383Y0021697D01*
X0255429Y0023758D01*
X0258640Y0026969D01*
X0260701Y0031015D01*
X0261411Y0035500D01*
X0260701Y0039985D01*
X0258640Y0044031D01*
X0255429Y0047242D01*
X0255429Y0047242D01*
X0251383Y0049303D01*
X0251383Y0049303D01*
X0246898Y0050014D01*
X0246898Y0050014D01*
X0242413Y0049303D01*
X0242413Y0049303D01*
X0238367Y0047242D01*
X0238367Y0047242D01*
X0235156Y0044031D01*
X0233094Y0039985D01*
X0234091Y0041940D02*
X0195786Y0041940D01*
X0196785Y0042939D02*
X0234599Y0042939D01*
X0235108Y0043937D02*
X0230390Y0043937D01*
X0231720Y0044936D02*
X0236061Y0044936D01*
X0235156Y0044031D02*
X0235156Y0044031D01*
X0237059Y0045934D02*
X0232197Y0045934D01*
X0232300Y0046933D02*
X0238058Y0046933D01*
X0239720Y0047932D02*
X0232087Y0047932D01*
X0231454Y0048930D02*
X0241680Y0048930D01*
X0246360Y0049929D02*
X0162273Y0049929D01*
X0161654Y0050927D02*
X0254274Y0050927D01*
X0255109Y0049929D02*
X0247436Y0049929D01*
X0252115Y0048930D02*
X0255944Y0048930D01*
X0256723Y0047932D02*
X0254075Y0047932D01*
X0255737Y0046933D02*
X0273550Y0046933D01*
X0273772Y0045934D02*
X0256736Y0045934D01*
X0257735Y0044936D02*
X0274771Y0044936D01*
X0275769Y0043937D02*
X0258687Y0043937D01*
X0258640Y0044031D02*
X0258640Y0044031D01*
X0259196Y0042939D02*
X0312843Y0042939D01*
X0311783Y0043937D02*
X0290231Y0043937D01*
X0291229Y0044936D02*
X0310722Y0044936D01*
X0309662Y0045934D02*
X0292228Y0045934D01*
X0288600Y0047900D02*
X0288000Y0048000D01*
X0288600Y0047900D02*
X0310200Y0047900D01*
X0327300Y0031800D01*
X0332738Y0031574D01*
X0329209Y0027961D02*
X0259145Y0027961D01*
X0258640Y0026969D02*
X0258640Y0026969D01*
X0258633Y0026963D02*
X0330208Y0026963D01*
X0328211Y0028960D02*
X0259654Y0028960D01*
X0260163Y0029958D02*
X0327688Y0029958D01*
X0325570Y0030957D02*
X0260671Y0030957D01*
X0260701Y0031015D02*
X0260701Y0031015D01*
X0260850Y0031955D02*
X0324509Y0031955D01*
X0323449Y0032954D02*
X0261008Y0032954D01*
X0261166Y0033952D02*
X0322388Y0033952D01*
X0321328Y0034951D02*
X0261324Y0034951D01*
X0261340Y0035949D02*
X0320267Y0035949D01*
X0319207Y0036948D02*
X0261182Y0036948D01*
X0261024Y0037946D02*
X0318146Y0037946D01*
X0317085Y0038945D02*
X0260866Y0038945D01*
X0260708Y0039943D02*
X0316025Y0039943D01*
X0314964Y0040942D02*
X0260213Y0040942D01*
X0260701Y0039985D02*
X0260701Y0039985D01*
X0259705Y0041940D02*
X0313904Y0041940D01*
X0307500Y0053300D02*
X0283200Y0053300D01*
X0278700Y0048800D01*
X0278000Y0048000D01*
X0277800Y0048800D01*
X0258400Y0048800D01*
X0245600Y0064100D01*
X0141900Y0064100D01*
X0123900Y0082100D01*
X0123245Y0082629D01*
X0127513Y0082879D02*
X0128976Y0082879D01*
X0128976Y0081881D02*
X0127513Y0081881D01*
X0127663Y0080882D02*
X0128976Y0080882D01*
X0128976Y0079884D02*
X0128662Y0079884D01*
X0126566Y0076888D02*
X0126510Y0076888D01*
X0127565Y0075890D02*
X0125297Y0075890D01*
X0128563Y0074891D02*
X0010500Y0074891D01*
X0010500Y0073893D02*
X0129562Y0073893D01*
X0130560Y0072894D02*
X0010500Y0072894D01*
X0010500Y0071896D02*
X0131559Y0071896D01*
X0132557Y0070897D02*
X0010500Y0070897D01*
X0010500Y0069899D02*
X0133556Y0069899D01*
X0134554Y0068900D02*
X0010500Y0068900D01*
X0010500Y0067902D02*
X0135553Y0067902D01*
X0136551Y0066903D02*
X0010500Y0066903D01*
X0010500Y0065905D02*
X0137550Y0065905D01*
X0138548Y0064906D02*
X0010500Y0064906D01*
X0010500Y0063908D02*
X0139547Y0063908D01*
X0140545Y0062909D02*
X0010500Y0062909D01*
X0010500Y0061911D02*
X0245085Y0061911D01*
X0245920Y0060912D02*
X0010500Y0060912D01*
X0010500Y0059914D02*
X0246755Y0059914D01*
X0247591Y0058915D02*
X0010500Y0058915D01*
X0010500Y0057917D02*
X0248426Y0057917D01*
X0249262Y0056918D02*
X0010500Y0056918D01*
X0010500Y0055920D02*
X0250097Y0055920D01*
X0250932Y0054921D02*
X0010500Y0054921D01*
X0010500Y0053923D02*
X0088426Y0053923D01*
X0087735Y0052924D02*
X0010500Y0052924D01*
X0010500Y0051926D02*
X0087044Y0051926D01*
X0086353Y0050927D02*
X0010500Y0050927D01*
X0027158Y0040942D02*
X0134827Y0040942D01*
X0134594Y0040485D02*
X0134594Y0040485D01*
X0134508Y0039943D02*
X0089216Y0039943D01*
X0090636Y0038945D02*
X0134350Y0038945D01*
X0134192Y0037946D02*
X0091348Y0037946D01*
X0091762Y0036948D02*
X0134034Y0036948D01*
X0133884Y0036000D02*
X0133884Y0036000D01*
X0133892Y0035949D02*
X0091800Y0035949D01*
X0091720Y0034951D02*
X0134050Y0034951D01*
X0134208Y0033952D02*
X0091306Y0033952D01*
X0090535Y0032954D02*
X0134366Y0032954D01*
X0134524Y0031955D02*
X0088972Y0031955D01*
X0089180Y0029958D02*
X0135387Y0029958D01*
X0135896Y0028960D02*
X0090621Y0028960D01*
X0091342Y0027961D02*
X0136405Y0027961D01*
X0136656Y0027469D02*
X0136656Y0027469D01*
X0137162Y0026963D02*
X0091755Y0026963D01*
X0091800Y0025964D02*
X0138160Y0025964D01*
X0139159Y0024966D02*
X0091726Y0024966D01*
X0091312Y0023967D02*
X0140437Y0023967D01*
X0139867Y0024258D02*
X0139867Y0024258D01*
X0142397Y0022969D02*
X0090550Y0022969D01*
X0089008Y0021970D02*
X0145342Y0021970D01*
X0143913Y0022197D02*
X0143913Y0022197D01*
X0148398Y0021486D02*
X0148398Y0021486D01*
X0151453Y0021970D02*
X0177449Y0021970D01*
X0177564Y0021855D02*
X0179145Y0021200D01*
X0186855Y0021200D01*
X0188436Y0021855D01*
X0189645Y0023064D01*
X0190300Y0024645D01*
X0190300Y0026355D01*
X0189645Y0027936D01*
X0188436Y0029145D01*
X0186855Y0029800D01*
X0179145Y0029800D01*
X0177564Y0029145D01*
X0176355Y0027936D01*
X0175700Y0026355D01*
X0175700Y0024645D01*
X0176355Y0023064D01*
X0177564Y0021855D01*
X0176450Y0022969D02*
X0154398Y0022969D01*
X0152883Y0022197D02*
X0152883Y0022197D01*
X0156358Y0023967D02*
X0175981Y0023967D01*
X0175700Y0024966D02*
X0157636Y0024966D01*
X0156929Y0024258D02*
X0156929Y0024258D01*
X0158635Y0025964D02*
X0175700Y0025964D01*
X0175952Y0026963D02*
X0159633Y0026963D01*
X0160140Y0027469D02*
X0160140Y0027469D01*
X0160390Y0027961D02*
X0176380Y0027961D01*
X0177379Y0028960D02*
X0160899Y0028960D01*
X0161408Y0029958D02*
X0233633Y0029958D01*
X0234141Y0028960D02*
X0188621Y0028960D01*
X0189620Y0027961D02*
X0234650Y0027961D01*
X0235156Y0026969D02*
X0235156Y0026969D01*
X0235162Y0026963D02*
X0190048Y0026963D01*
X0190300Y0025964D02*
X0236160Y0025964D01*
X0237159Y0024966D02*
X0190300Y0024966D01*
X0190019Y0023967D02*
X0238158Y0023967D01*
X0238367Y0023758D02*
X0238367Y0023758D01*
X0239916Y0022969D02*
X0189550Y0022969D01*
X0188551Y0021970D02*
X0241876Y0021970D01*
X0242413Y0021697D02*
X0242413Y0021697D01*
X0246898Y0020986D02*
X0246898Y0020986D01*
X0251383Y0021697D02*
X0251383Y0021697D01*
X0251920Y0021970D02*
X0354237Y0021970D01*
X0355235Y0020972D02*
X0064645Y0020972D01*
X0065059Y0021970D02*
X0079992Y0021970D01*
X0078450Y0022969D02*
X0065076Y0022969D01*
X0065076Y0023967D02*
X0077688Y0023967D01*
X0077274Y0024966D02*
X0064677Y0024966D01*
X0064190Y0025964D02*
X0077200Y0025964D01*
X0077245Y0026963D02*
X0063191Y0026963D01*
X0064639Y0030957D02*
X0134879Y0030957D01*
X0134594Y0031515D02*
X0134594Y0031515D01*
X0135336Y0041940D02*
X0088936Y0041940D01*
X0090520Y0042939D02*
X0135845Y0042939D01*
X0136353Y0043937D02*
X0091300Y0043937D01*
X0091714Y0044936D02*
X0137061Y0044936D01*
X0136656Y0044531D02*
X0136656Y0044531D01*
X0138059Y0045934D02*
X0091800Y0045934D01*
X0091768Y0046933D02*
X0139058Y0046933D01*
X0140239Y0047932D02*
X0091354Y0047932D01*
X0090651Y0048930D02*
X0142199Y0048930D01*
X0144703Y0049929D02*
X0090040Y0049929D01*
X0100827Y0076041D02*
X0102396Y0075392D01*
X0104094Y0075392D01*
X0105663Y0076041D01*
X0106863Y0077242D01*
X0107513Y0078811D01*
X0107513Y0086446D01*
X0106863Y0088015D01*
X0105663Y0089216D01*
X0104094Y0089866D01*
X0102396Y0089866D01*
X0100827Y0089216D01*
X0099626Y0088015D01*
X0098976Y0086446D01*
X0098976Y0078811D01*
X0099626Y0077242D01*
X0100827Y0076041D01*
X0101193Y0075890D02*
X0094450Y0075890D01*
X0094060Y0075729D02*
X0095567Y0076353D01*
X0096721Y0077506D01*
X0097345Y0079013D01*
X0097345Y0086244D01*
X0096721Y0087751D01*
X0095567Y0088904D01*
X0094060Y0089529D01*
X0092429Y0089529D01*
X0090922Y0088904D01*
X0089769Y0087751D01*
X0089145Y0086244D01*
X0089145Y0079013D01*
X0089769Y0077506D01*
X0090922Y0076353D01*
X0092429Y0075729D01*
X0094060Y0075729D01*
X0092040Y0075890D02*
X0084450Y0075890D01*
X0084060Y0075729D02*
X0085567Y0076353D01*
X0086721Y0077506D01*
X0087345Y0079013D01*
X0087345Y0086244D01*
X0086721Y0087751D01*
X0085567Y0088904D01*
X0084060Y0089529D01*
X0082429Y0089529D01*
X0080922Y0088904D01*
X0079769Y0087751D01*
X0079145Y0086244D01*
X0079145Y0079013D01*
X0079769Y0077506D01*
X0080922Y0076353D01*
X0082429Y0075729D01*
X0084060Y0075729D01*
X0082040Y0075890D02*
X0010500Y0075890D01*
X0010500Y0076888D02*
X0080387Y0076888D01*
X0079611Y0077887D02*
X0010500Y0077887D01*
X0010500Y0078885D02*
X0079198Y0078885D01*
X0079145Y0079884D02*
X0010500Y0079884D01*
X0010500Y0080882D02*
X0079145Y0080882D01*
X0079145Y0081881D02*
X0010500Y0081881D01*
X0010500Y0082879D02*
X0079145Y0082879D01*
X0079145Y0083878D02*
X0010500Y0083878D01*
X0010500Y0084876D02*
X0079145Y0084876D01*
X0079145Y0085875D02*
X0010500Y0085875D01*
X0010500Y0086873D02*
X0079405Y0086873D01*
X0079890Y0087872D02*
X0010500Y0087872D01*
X0010500Y0088870D02*
X0080888Y0088870D01*
X0085601Y0088870D02*
X0090888Y0088870D01*
X0089890Y0087872D02*
X0086600Y0087872D01*
X0087084Y0086873D02*
X0089405Y0086873D01*
X0089145Y0085875D02*
X0087345Y0085875D01*
X0087345Y0084876D02*
X0089145Y0084876D01*
X0089145Y0083878D02*
X0087345Y0083878D01*
X0087345Y0082879D02*
X0089145Y0082879D01*
X0089145Y0081881D02*
X0087345Y0081881D01*
X0087345Y0080882D02*
X0089145Y0080882D01*
X0089145Y0079884D02*
X0087345Y0079884D01*
X0087292Y0078885D02*
X0089198Y0078885D01*
X0089611Y0077887D02*
X0086878Y0077887D01*
X0086103Y0076888D02*
X0090387Y0076888D01*
X0096103Y0076888D02*
X0099980Y0076888D01*
X0099359Y0077887D02*
X0096878Y0077887D01*
X0097292Y0078885D02*
X0098976Y0078885D01*
X0098976Y0079884D02*
X0097345Y0079884D01*
X0097345Y0080882D02*
X0098976Y0080882D01*
X0098976Y0081881D02*
X0097345Y0081881D01*
X0097345Y0082879D02*
X0098976Y0082879D01*
X0098976Y0083878D02*
X0097345Y0083878D01*
X0097345Y0084876D02*
X0098976Y0084876D01*
X0098976Y0085875D02*
X0097345Y0085875D01*
X0097084Y0086873D02*
X0099153Y0086873D01*
X0099567Y0087872D02*
X0096600Y0087872D01*
X0095601Y0088870D02*
X0100482Y0088870D01*
X0106008Y0088870D02*
X0110199Y0088870D01*
X0109389Y0087872D02*
X0106923Y0087872D01*
X0107336Y0086873D02*
X0108961Y0086873D01*
X0108776Y0085875D02*
X0107513Y0085875D01*
X0107513Y0084876D02*
X0108776Y0084876D01*
X0108776Y0083878D02*
X0107513Y0083878D01*
X0107513Y0082879D02*
X0112760Y0082879D01*
X0112761Y0081881D02*
X0113729Y0081881D01*
X0113729Y0080882D02*
X0112761Y0080882D01*
X0112761Y0079884D02*
X0113729Y0079884D01*
X0113729Y0078885D02*
X0112761Y0078885D01*
X0112761Y0077887D02*
X0113729Y0077887D01*
X0113729Y0076888D02*
X0112761Y0076888D01*
X0112761Y0075890D02*
X0113729Y0075890D01*
X0115658Y0075890D02*
X0121193Y0075890D01*
X0119980Y0076888D02*
X0116754Y0076888D01*
X0117356Y0077887D02*
X0119359Y0077887D01*
X0118976Y0078885D02*
X0117646Y0078885D01*
X0117713Y0079884D02*
X0118976Y0079884D01*
X0118976Y0080882D02*
X0117713Y0080882D01*
X0113729Y0083878D02*
X0112761Y0083878D01*
X0112761Y0084876D02*
X0113729Y0084876D01*
X0113729Y0085875D02*
X0112761Y0085875D01*
X0112761Y0086873D02*
X0113729Y0086873D01*
X0113729Y0087872D02*
X0112761Y0087872D01*
X0112761Y0088870D02*
X0113729Y0088870D01*
X0113729Y0089869D02*
X0112761Y0089869D01*
X0111932Y0089869D02*
X0010500Y0089869D01*
X0010500Y0094862D02*
X0013035Y0094862D01*
X0012037Y0095860D02*
X0010500Y0095860D01*
X0010500Y0096859D02*
X0011396Y0096859D01*
X0010983Y0097857D02*
X0010500Y0097857D01*
X0010500Y0098856D02*
X0010888Y0098856D01*
X0010888Y0099854D02*
X0010500Y0099854D01*
X0010500Y0100853D02*
X0011211Y0100853D01*
X0011624Y0101851D02*
X0010500Y0101851D01*
X0010500Y0102850D02*
X0012587Y0102850D01*
X0014335Y0103848D02*
X0010500Y0103848D01*
X0010500Y0104847D02*
X0012868Y0104847D01*
X0011811Y0105845D02*
X0010500Y0105845D01*
X0010500Y0106844D02*
X0011191Y0106844D01*
X0010823Y0107842D02*
X0010500Y0107842D01*
X0017442Y0103848D02*
X0339130Y0103848D01*
X0338976Y0103478D02*
X0338976Y0101780D01*
X0339626Y0100211D01*
X0340827Y0099010D01*
X0342396Y0098360D01*
X0344094Y0098360D01*
X0345663Y0099010D01*
X0346863Y0100211D01*
X0347513Y0101780D01*
X0347513Y0103478D01*
X0346863Y0105047D01*
X0345663Y0106247D01*
X0344094Y0106897D01*
X0342396Y0106897D01*
X0340827Y0106247D01*
X0339626Y0105047D01*
X0338976Y0103478D01*
X0338976Y0102850D02*
X0019189Y0102850D01*
X0020152Y0101851D02*
X0338976Y0101851D01*
X0339360Y0100853D02*
X0020566Y0100853D01*
X0020888Y0099854D02*
X0339983Y0099854D01*
X0341200Y0098856D02*
X0020888Y0098856D01*
X0018909Y0104847D02*
X0339543Y0104847D01*
X0340425Y0105845D02*
X0019966Y0105845D01*
X0020585Y0106844D02*
X0342267Y0106844D01*
X0344223Y0106844D02*
X0350411Y0106844D01*
X0350425Y0105845D02*
X0346065Y0105845D01*
X0346946Y0104847D02*
X0349543Y0104847D01*
X0349130Y0103848D02*
X0347360Y0103848D01*
X0347513Y0102850D02*
X0348976Y0102850D01*
X0348976Y0101851D02*
X0347513Y0101851D01*
X0347129Y0100853D02*
X0349360Y0100853D01*
X0349983Y0099854D02*
X0346507Y0099854D01*
X0345290Y0098856D02*
X0351200Y0098856D01*
X0357129Y0100853D02*
X0390035Y0100853D01*
X0392552Y0100853D02*
X0403921Y0100853D01*
X0403921Y0101851D02*
X0394254Y0101851D01*
X0395253Y0102850D02*
X0403921Y0102850D01*
X0403921Y0103848D02*
X0395830Y0103848D01*
X0396244Y0104847D02*
X0403921Y0104847D01*
X0403921Y0105845D02*
X0396294Y0105845D01*
X0396294Y0106844D02*
X0403921Y0106844D01*
X0403921Y0107842D02*
X0395927Y0107842D01*
X0395486Y0108841D02*
X0403921Y0108841D01*
X0403921Y0109839D02*
X0394488Y0109839D01*
X0394239Y0111836D02*
X0403921Y0111836D01*
X0403921Y0110838D02*
X0392588Y0110838D01*
X0389999Y0110838D02*
X0357123Y0110838D01*
X0357513Y0111836D02*
X0388349Y0111836D01*
X0387350Y0112835D02*
X0357513Y0112835D01*
X0357366Y0113833D02*
X0386764Y0113833D01*
X0386350Y0114832D02*
X0356952Y0114832D01*
X0356080Y0115830D02*
X0386294Y0115830D01*
X0386294Y0116829D02*
X0354259Y0116829D01*
X0354094Y0118360D02*
X0355663Y0119010D01*
X0356863Y0120211D01*
X0357513Y0121780D01*
X0357513Y0123478D01*
X0356863Y0125047D01*
X0355663Y0126247D01*
X0354094Y0126897D01*
X0352396Y0126897D01*
X0350827Y0126247D01*
X0349626Y0125047D01*
X0348976Y0123478D01*
X0348976Y0121780D01*
X0349626Y0120211D01*
X0350827Y0119010D01*
X0352396Y0118360D01*
X0354094Y0118360D01*
X0355218Y0118826D02*
X0387087Y0118826D01*
X0386655Y0117827D02*
X0020782Y0117827D01*
X0020888Y0118826D02*
X0341271Y0118826D01*
X0340827Y0119010D02*
X0342396Y0118360D01*
X0344094Y0118360D01*
X0345663Y0119010D01*
X0346863Y0120211D01*
X0347513Y0121780D01*
X0347513Y0123478D01*
X0346863Y0125047D01*
X0345663Y0126247D01*
X0344094Y0126897D01*
X0342396Y0126897D01*
X0340827Y0126247D01*
X0339626Y0125047D01*
X0338976Y0123478D01*
X0338976Y0121780D01*
X0339626Y0120211D01*
X0340827Y0119010D01*
X0340012Y0119824D02*
X0020888Y0119824D01*
X0020578Y0120823D02*
X0339373Y0120823D01*
X0338976Y0121821D02*
X0020165Y0121821D01*
X0019219Y0122820D02*
X0338976Y0122820D01*
X0339117Y0123818D02*
X0017514Y0123818D01*
X0016883Y0124080D02*
X0016066Y0124080D01*
X0016066Y0124080D01*
X0016883Y0124080D01*
X0018663Y0124817D02*
X0339531Y0124817D01*
X0340395Y0125815D02*
X0019695Y0125815D01*
X0020362Y0126814D02*
X0342195Y0126814D01*
X0342396Y0128360D02*
X0344094Y0128360D01*
X0345663Y0129010D01*
X0346863Y0130211D01*
X0347513Y0131780D01*
X0347513Y0133478D01*
X0346863Y0135047D01*
X0345663Y0136247D01*
X0344094Y0136897D01*
X0342396Y0136897D01*
X0340827Y0136247D01*
X0339626Y0135047D01*
X0338976Y0133478D01*
X0338976Y0131780D01*
X0339626Y0130211D01*
X0340827Y0129010D01*
X0342396Y0128360D01*
X0341307Y0128811D02*
X0020888Y0128811D01*
X0020888Y0129809D02*
X0340027Y0129809D01*
X0339379Y0130808D02*
X0020584Y0130808D01*
X0020171Y0131806D02*
X0338976Y0131806D01*
X0338976Y0132805D02*
X0019234Y0132805D01*
X0017549Y0133803D02*
X0339111Y0133803D01*
X0339525Y0134802D02*
X0018627Y0134802D01*
X0019680Y0135801D02*
X0340380Y0135801D01*
X0342159Y0136799D02*
X0020356Y0136799D01*
X0020769Y0137798D02*
X0386642Y0137798D01*
X0386294Y0136799D02*
X0354331Y0136799D01*
X0354094Y0136897D02*
X0352396Y0136897D01*
X0350827Y0136247D01*
X0349626Y0135047D01*
X0348976Y0133478D01*
X0348976Y0131780D01*
X0349626Y0130211D01*
X0350827Y0129010D01*
X0352396Y0128360D01*
X0354094Y0128360D01*
X0355663Y0129010D01*
X0356863Y0130211D01*
X0357513Y0131780D01*
X0357513Y0133478D01*
X0356863Y0135047D01*
X0355663Y0136247D01*
X0354094Y0136897D01*
X0354094Y0138360D02*
X0352396Y0138360D01*
X0350827Y0139010D01*
X0349626Y0140211D01*
X0348976Y0141780D01*
X0348976Y0143478D01*
X0349626Y0145047D01*
X0350827Y0146247D01*
X0352396Y0146897D01*
X0354094Y0146897D01*
X0355663Y0146247D01*
X0356863Y0145047D01*
X0357513Y0143478D01*
X0357513Y0141780D01*
X0356863Y0140211D01*
X0355663Y0139010D01*
X0354094Y0138360D01*
X0355146Y0138796D02*
X0387057Y0138796D01*
X0388055Y0139795D02*
X0356447Y0139795D01*
X0357105Y0140793D02*
X0389892Y0140793D01*
X0388393Y0141792D02*
X0357513Y0141792D01*
X0357513Y0142790D02*
X0387395Y0142790D01*
X0386782Y0143789D02*
X0357384Y0143789D01*
X0356971Y0144787D02*
X0386369Y0144787D01*
X0386294Y0145786D02*
X0356124Y0145786D01*
X0354367Y0146784D02*
X0386294Y0146784D01*
X0386636Y0147783D02*
X0091328Y0147783D01*
X0092327Y0148781D02*
X0341379Y0148781D01*
X0340827Y0149010D02*
X0342396Y0148360D01*
X0344094Y0148360D01*
X0345663Y0149010D01*
X0346863Y0150211D01*
X0347513Y0151780D01*
X0347513Y0153478D01*
X0346863Y0155047D01*
X0345663Y0156247D01*
X0344094Y0156897D01*
X0342396Y0156897D01*
X0340827Y0156247D01*
X0339626Y0155047D01*
X0338976Y0153478D01*
X0338976Y0151780D01*
X0339626Y0150211D01*
X0340827Y0149010D01*
X0340057Y0149780D02*
X0093325Y0149780D01*
X0094324Y0150778D02*
X0339391Y0150778D01*
X0338977Y0151777D02*
X0095322Y0151777D01*
X0096321Y0152775D02*
X0338976Y0152775D01*
X0339099Y0153774D02*
X0097319Y0153774D01*
X0098318Y0154772D02*
X0339513Y0154772D01*
X0340350Y0155771D02*
X0099316Y0155771D01*
X0100315Y0156769D02*
X0342087Y0156769D01*
X0342396Y0158360D02*
X0344094Y0158360D01*
X0345663Y0159010D01*
X0346863Y0160211D01*
X0347513Y0161780D01*
X0347513Y0163478D01*
X0346863Y0165047D01*
X0345663Y0166247D01*
X0344094Y0166897D01*
X0342396Y0166897D01*
X0340827Y0166247D01*
X0339626Y0165047D01*
X0338976Y0163478D01*
X0338976Y0161780D01*
X0339626Y0160211D01*
X0340827Y0159010D01*
X0342396Y0158360D01*
X0341415Y0158766D02*
X0102312Y0158766D01*
X0101313Y0157768D02*
X0386630Y0157768D01*
X0386294Y0156769D02*
X0354403Y0156769D01*
X0354094Y0156897D02*
X0352396Y0156897D01*
X0350827Y0156247D01*
X0349626Y0155047D01*
X0348976Y0153478D01*
X0348976Y0151780D01*
X0349626Y0150211D01*
X0350827Y0149010D01*
X0352396Y0148360D01*
X0354094Y0148360D01*
X0355663Y0149010D01*
X0356863Y0150211D01*
X0357513Y0151780D01*
X0357513Y0153478D01*
X0356863Y0155047D01*
X0355663Y0156247D01*
X0354094Y0156897D01*
X0354094Y0158360D02*
X0352396Y0158360D01*
X0350827Y0159010D01*
X0349626Y0160211D01*
X0348976Y0161780D01*
X0348976Y0163478D01*
X0349626Y0165047D01*
X0350827Y0166247D01*
X0352396Y0166897D01*
X0354094Y0166897D01*
X0355663Y0166247D01*
X0356863Y0165047D01*
X0357513Y0163478D01*
X0357513Y0161780D01*
X0356863Y0160211D01*
X0355663Y0159010D01*
X0354094Y0158360D01*
X0355074Y0158766D02*
X0387043Y0158766D01*
X0388026Y0159765D02*
X0356418Y0159765D01*
X0357092Y0160763D02*
X0389820Y0160763D01*
X0388423Y0161762D02*
X0357506Y0161762D01*
X0357513Y0162760D02*
X0387424Y0162760D01*
X0386794Y0163759D02*
X0357397Y0163759D01*
X0356983Y0164757D02*
X0386381Y0164757D01*
X0386294Y0165756D02*
X0356154Y0165756D01*
X0354438Y0166754D02*
X0386294Y0166754D01*
X0386624Y0167753D02*
X0111298Y0167753D01*
X0110300Y0166754D02*
X0342051Y0166754D01*
X0342396Y0168360D02*
X0344094Y0168360D01*
X0345663Y0169010D01*
X0346863Y0170211D01*
X0347513Y0171780D01*
X0347513Y0173478D01*
X0346863Y0175047D01*
X0345663Y0176247D01*
X0344094Y0176897D01*
X0342396Y0176897D01*
X0340827Y0176247D01*
X0339626Y0175047D01*
X0338976Y0173478D01*
X0338976Y0171780D01*
X0339626Y0170211D01*
X0340827Y0169010D01*
X0342396Y0168360D01*
X0341451Y0168751D02*
X0235873Y0168751D01*
X0235850Y0168729D02*
X0237144Y0170023D01*
X0237845Y0171714D01*
X0237845Y0173544D01*
X0237144Y0175234D01*
X0235850Y0176528D01*
X0234160Y0177229D01*
X0232330Y0177229D01*
X0230639Y0176528D01*
X0229345Y0175234D01*
X0228645Y0173544D01*
X0228645Y0171714D01*
X0229345Y0170023D01*
X0230639Y0168729D01*
X0232330Y0168029D01*
X0234160Y0168029D01*
X0235850Y0168729D01*
X0236871Y0169750D02*
X0340087Y0169750D01*
X0339403Y0170748D02*
X0237445Y0170748D01*
X0237845Y0171747D02*
X0338990Y0171747D01*
X0338976Y0172745D02*
X0237845Y0172745D01*
X0237762Y0173744D02*
X0339087Y0173744D01*
X0339500Y0174742D02*
X0237348Y0174742D01*
X0236638Y0175741D02*
X0340321Y0175741D01*
X0342015Y0176739D02*
X0235341Y0176739D01*
X0235858Y0178737D02*
X0341487Y0178737D01*
X0340827Y0179010D02*
X0342396Y0178360D01*
X0344094Y0178360D01*
X0345663Y0179010D01*
X0346863Y0180211D01*
X0347513Y0181780D01*
X0347513Y0183478D01*
X0346863Y0185047D01*
X0345663Y0186247D01*
X0344094Y0186897D01*
X0342396Y0186897D01*
X0340827Y0186247D01*
X0339626Y0185047D01*
X0338976Y0183478D01*
X0338976Y0181780D01*
X0339626Y0180211D01*
X0340827Y0179010D01*
X0340102Y0179735D02*
X0236857Y0179735D01*
X0237439Y0180734D02*
X0339410Y0180734D01*
X0338996Y0181732D02*
X0237845Y0181732D01*
X0237845Y0182731D02*
X0338976Y0182731D01*
X0339080Y0183729D02*
X0237768Y0183729D01*
X0237354Y0184728D02*
X0339494Y0184728D01*
X0340306Y0185726D02*
X0236653Y0185726D01*
X0235377Y0186725D02*
X0341979Y0186725D01*
X0342396Y0188360D02*
X0344094Y0188360D01*
X0345663Y0189010D01*
X0346863Y0190211D01*
X0347513Y0191780D01*
X0347513Y0193478D01*
X0346863Y0195047D01*
X0345663Y0196247D01*
X0344094Y0196897D01*
X0342396Y0196897D01*
X0340827Y0196247D01*
X0339626Y0195047D01*
X0338976Y0193478D01*
X0338976Y0191780D01*
X0339626Y0190211D01*
X0340827Y0189010D01*
X0342396Y0188360D01*
X0341523Y0188722D02*
X0235833Y0188722D01*
X0235850Y0188729D02*
X0237144Y0190023D01*
X0237845Y0191714D01*
X0237845Y0193544D01*
X0237144Y0195234D01*
X0235850Y0196528D01*
X0234160Y0197229D01*
X0232330Y0197229D01*
X0230639Y0196528D01*
X0229345Y0195234D01*
X0228645Y0193544D01*
X0228645Y0191714D01*
X0229345Y0190023D01*
X0230639Y0188729D01*
X0232330Y0188029D01*
X0234160Y0188029D01*
X0235850Y0188729D01*
X0236842Y0189720D02*
X0340117Y0189720D01*
X0339416Y0190719D02*
X0237433Y0190719D01*
X0237845Y0191717D02*
X0339002Y0191717D01*
X0338976Y0192716D02*
X0237845Y0192716D01*
X0237774Y0193714D02*
X0339074Y0193714D01*
X0339488Y0194713D02*
X0237361Y0194713D01*
X0236668Y0195711D02*
X0340291Y0195711D01*
X0341943Y0196710D02*
X0235413Y0196710D01*
X0231077Y0196710D02*
X0227602Y0196710D01*
X0227845Y0196467D02*
X0227083Y0197229D01*
X0219406Y0197229D01*
X0218645Y0196467D01*
X0218645Y0188790D01*
X0219406Y0188029D01*
X0227083Y0188029D01*
X0227845Y0188790D01*
X0227845Y0196467D01*
X0227845Y0195711D02*
X0229822Y0195711D01*
X0229129Y0194713D02*
X0227845Y0194713D01*
X0227845Y0193714D02*
X0228715Y0193714D01*
X0228645Y0192716D02*
X0227845Y0192716D01*
X0227845Y0191717D02*
X0228645Y0191717D01*
X0229057Y0190719D02*
X0227845Y0190719D01*
X0227845Y0189720D02*
X0229648Y0189720D01*
X0230657Y0188722D02*
X0227776Y0188722D01*
X0225377Y0186725D02*
X0231113Y0186725D01*
X0229837Y0185726D02*
X0226653Y0185726D01*
X0227354Y0184728D02*
X0229135Y0184728D01*
X0228383Y0183729D02*
X0227768Y0183729D01*
X0229200Y0182000D02*
X0224700Y0177500D01*
X0118500Y0177500D01*
X0089700Y0148700D01*
X0015900Y0148700D01*
X0015888Y0149080D01*
X0012300Y0145597D02*
X0013056Y0144841D01*
X0014894Y0144080D01*
X0016883Y0144080D01*
X0014894Y0144080D01*
X0013056Y0143318D01*
X0012300Y0142562D01*
X0012300Y0145597D01*
X0012300Y0144787D02*
X0013186Y0144787D01*
X0012300Y0143789D02*
X0014191Y0143789D01*
X0012528Y0142790D02*
X0012300Y0142790D01*
X0017585Y0143789D02*
X0339105Y0143789D01*
X0338976Y0143478D02*
X0338976Y0141780D01*
X0339626Y0140211D01*
X0340827Y0139010D01*
X0342396Y0138360D01*
X0344094Y0138360D01*
X0345663Y0139010D01*
X0346863Y0140211D01*
X0347513Y0141780D01*
X0347513Y0143478D01*
X0346863Y0145047D01*
X0345663Y0146247D01*
X0344094Y0146897D01*
X0342396Y0146897D01*
X0340827Y0146247D01*
X0339626Y0145047D01*
X0338976Y0143478D01*
X0338976Y0142790D02*
X0019249Y0142790D01*
X0020177Y0141792D02*
X0338976Y0141792D01*
X0339385Y0140793D02*
X0020591Y0140793D01*
X0020888Y0139795D02*
X0340042Y0139795D01*
X0341343Y0138796D02*
X0020888Y0138796D01*
X0016883Y0134080D02*
X0014894Y0134080D01*
X0013056Y0134841D01*
X0012300Y0135597D01*
X0012300Y0132562D01*
X0013056Y0133318D01*
X0014894Y0134080D01*
X0016883Y0134080D01*
X0014227Y0133803D02*
X0012300Y0133803D01*
X0012300Y0132805D02*
X0012543Y0132805D01*
X0012300Y0134802D02*
X0013150Y0134802D01*
X0010500Y0127100D02*
X0015000Y0122600D01*
X0015000Y0119900D01*
X0015888Y0119080D01*
X0020368Y0116829D02*
X0342231Y0116829D01*
X0344259Y0116829D02*
X0352231Y0116829D01*
X0350410Y0115830D02*
X0346080Y0115830D01*
X0346952Y0114832D02*
X0349537Y0114832D01*
X0349124Y0113833D02*
X0347366Y0113833D01*
X0345218Y0118826D02*
X0351271Y0118826D01*
X0350012Y0119824D02*
X0346477Y0119824D01*
X0347117Y0120823D02*
X0349373Y0120823D01*
X0348976Y0121821D02*
X0347513Y0121821D01*
X0347513Y0122820D02*
X0348976Y0122820D01*
X0349117Y0123818D02*
X0347372Y0123818D01*
X0346959Y0124817D02*
X0349531Y0124817D01*
X0350395Y0125815D02*
X0346095Y0125815D01*
X0344295Y0126814D02*
X0352195Y0126814D01*
X0354295Y0126814D02*
X0386294Y0126814D01*
X0386294Y0125815D02*
X0356095Y0125815D01*
X0356959Y0124817D02*
X0386356Y0124817D01*
X0386770Y0123818D02*
X0357372Y0123818D01*
X0357513Y0122820D02*
X0387365Y0122820D01*
X0388363Y0121821D02*
X0357513Y0121821D01*
X0357117Y0120823D02*
X0389963Y0120823D01*
X0388085Y0119824D02*
X0356477Y0119824D01*
X0355182Y0128811D02*
X0387072Y0128811D01*
X0386648Y0127812D02*
X0020775Y0127812D01*
X0019710Y0115830D02*
X0340410Y0115830D01*
X0339537Y0114832D02*
X0018699Y0114832D01*
X0018013Y0113833D02*
X0339124Y0113833D01*
X0338976Y0112835D02*
X0019487Y0112835D01*
X0020313Y0111836D02*
X0338976Y0111836D01*
X0345254Y0108841D02*
X0348414Y0108841D01*
X0349412Y0107842D02*
X0020954Y0107842D01*
X0018591Y0144787D02*
X0339519Y0144787D01*
X0340365Y0145786D02*
X0019665Y0145786D01*
X0020349Y0146784D02*
X0342123Y0146784D01*
X0344367Y0146784D02*
X0352123Y0146784D01*
X0350365Y0145786D02*
X0346124Y0145786D01*
X0346971Y0144787D02*
X0349519Y0144787D01*
X0349105Y0143789D02*
X0347384Y0143789D01*
X0347513Y0142790D02*
X0348976Y0142790D01*
X0348976Y0141792D02*
X0347513Y0141792D01*
X0347105Y0140793D02*
X0349385Y0140793D01*
X0350042Y0139795D02*
X0346447Y0139795D01*
X0345146Y0138796D02*
X0351343Y0138796D01*
X0352159Y0136799D02*
X0344331Y0136799D01*
X0346109Y0135801D02*
X0350380Y0135801D01*
X0349525Y0134802D02*
X0346965Y0134802D01*
X0347378Y0133803D02*
X0349111Y0133803D01*
X0348976Y0132805D02*
X0347513Y0132805D01*
X0347513Y0131806D02*
X0348976Y0131806D01*
X0349379Y0130808D02*
X0347111Y0130808D01*
X0346462Y0129809D02*
X0350027Y0129809D01*
X0351307Y0128811D02*
X0345182Y0128811D01*
X0356462Y0129809D02*
X0388070Y0129809D01*
X0388378Y0131806D02*
X0357513Y0131806D01*
X0357513Y0132805D02*
X0387380Y0132805D01*
X0386776Y0133803D02*
X0357378Y0133803D01*
X0356965Y0134802D02*
X0386362Y0134802D01*
X0386294Y0135801D02*
X0356109Y0135801D01*
X0357111Y0130808D02*
X0389927Y0130808D01*
X0392660Y0130808D02*
X0403921Y0130808D01*
X0403921Y0131806D02*
X0394209Y0131806D01*
X0395208Y0132805D02*
X0403921Y0132805D01*
X0403921Y0133803D02*
X0395812Y0133803D01*
X0396225Y0134802D02*
X0403921Y0134802D01*
X0403921Y0135801D02*
X0396294Y0135801D01*
X0396294Y0136799D02*
X0403921Y0136799D01*
X0403921Y0137798D02*
X0395946Y0137798D01*
X0395531Y0138796D02*
X0403921Y0138796D01*
X0403921Y0139795D02*
X0394532Y0139795D01*
X0394195Y0141792D02*
X0403921Y0141792D01*
X0403921Y0142790D02*
X0395193Y0142790D01*
X0395806Y0143789D02*
X0403921Y0143789D01*
X0403921Y0144787D02*
X0396219Y0144787D01*
X0396294Y0145786D02*
X0403921Y0145786D01*
X0403921Y0146784D02*
X0396294Y0146784D01*
X0395952Y0147783D02*
X0403921Y0147783D01*
X0403921Y0148781D02*
X0395538Y0148781D01*
X0394547Y0149780D02*
X0403921Y0149780D01*
X0403921Y0150778D02*
X0392732Y0150778D01*
X0394180Y0151777D02*
X0403921Y0151777D01*
X0403921Y0152775D02*
X0395178Y0152775D01*
X0395799Y0153774D02*
X0403921Y0153774D01*
X0403921Y0154772D02*
X0396213Y0154772D01*
X0396294Y0155771D02*
X0403921Y0155771D01*
X0403921Y0156769D02*
X0396294Y0156769D01*
X0395958Y0157768D02*
X0403921Y0157768D01*
X0403921Y0158766D02*
X0395544Y0158766D01*
X0394562Y0159765D02*
X0403921Y0159765D01*
X0403921Y0160763D02*
X0392768Y0160763D01*
X0394165Y0161762D02*
X0403921Y0161762D01*
X0403921Y0162760D02*
X0395163Y0162760D01*
X0395793Y0163759D02*
X0403921Y0163759D01*
X0403921Y0164757D02*
X0396207Y0164757D01*
X0396294Y0165756D02*
X0403921Y0165756D01*
X0403921Y0166754D02*
X0396294Y0166754D01*
X0395964Y0167753D02*
X0403921Y0167753D01*
X0403921Y0168751D02*
X0395550Y0168751D01*
X0394577Y0169750D02*
X0403921Y0169750D01*
X0403921Y0170748D02*
X0392804Y0170748D01*
X0394150Y0171747D02*
X0403921Y0171747D01*
X0403921Y0172745D02*
X0395148Y0172745D01*
X0395787Y0173744D02*
X0403921Y0173744D01*
X0403921Y0174742D02*
X0396201Y0174742D01*
X0396294Y0175741D02*
X0403921Y0175741D01*
X0403921Y0176739D02*
X0396294Y0176739D01*
X0395970Y0177738D02*
X0403921Y0177738D01*
X0403921Y0178737D02*
X0395557Y0178737D01*
X0394592Y0179735D02*
X0403921Y0179735D01*
X0403921Y0180734D02*
X0392840Y0180734D01*
X0394135Y0181732D02*
X0403921Y0181732D01*
X0403921Y0182731D02*
X0395133Y0182731D01*
X0395781Y0183729D02*
X0403921Y0183729D01*
X0403921Y0184728D02*
X0396194Y0184728D01*
X0396294Y0185726D02*
X0403921Y0185726D01*
X0403921Y0186725D02*
X0396294Y0186725D01*
X0395976Y0187723D02*
X0403921Y0187723D01*
X0403921Y0188722D02*
X0395563Y0188722D01*
X0394607Y0189720D02*
X0403921Y0189720D01*
X0403921Y0190719D02*
X0392876Y0190719D01*
X0389712Y0190719D02*
X0357074Y0190719D01*
X0356863Y0190211D02*
X0357513Y0191780D01*
X0357513Y0193478D01*
X0356863Y0195047D01*
X0355663Y0196247D01*
X0354094Y0196897D01*
X0352396Y0196897D01*
X0350827Y0196247D01*
X0349626Y0195047D01*
X0348976Y0193478D01*
X0348976Y0191780D01*
X0349626Y0190211D01*
X0350827Y0189010D01*
X0352396Y0188360D01*
X0354094Y0188360D01*
X0355663Y0189010D01*
X0356863Y0190211D01*
X0356373Y0189720D02*
X0387981Y0189720D01*
X0387025Y0188722D02*
X0354967Y0188722D01*
X0354094Y0186897D02*
X0352396Y0186897D01*
X0350827Y0186247D01*
X0349626Y0185047D01*
X0348976Y0183478D01*
X0348976Y0181780D01*
X0349626Y0180211D01*
X0350827Y0179010D01*
X0352396Y0178360D01*
X0354094Y0178360D01*
X0355663Y0179010D01*
X0356863Y0180211D01*
X0357513Y0181780D01*
X0357513Y0183478D01*
X0356863Y0185047D01*
X0355663Y0186247D01*
X0354094Y0186897D01*
X0354510Y0186725D02*
X0386294Y0186725D01*
X0386294Y0185726D02*
X0356184Y0185726D01*
X0356996Y0184728D02*
X0386393Y0184728D01*
X0386807Y0183729D02*
X0357409Y0183729D01*
X0357513Y0182731D02*
X0387454Y0182731D01*
X0388453Y0181732D02*
X0357494Y0181732D01*
X0357080Y0180734D02*
X0389748Y0180734D01*
X0387996Y0179735D02*
X0356388Y0179735D01*
X0355003Y0178737D02*
X0387031Y0178737D01*
X0386618Y0177738D02*
X0227484Y0177738D01*
X0228482Y0178737D02*
X0230632Y0178737D01*
X0229633Y0179735D02*
X0229481Y0179735D01*
X0229200Y0182000D02*
X0232800Y0182000D01*
X0233245Y0182629D01*
X0231149Y0176739D02*
X0226485Y0176739D01*
X0226638Y0175741D02*
X0229852Y0175741D01*
X0229141Y0174742D02*
X0227348Y0174742D01*
X0227762Y0173744D02*
X0228728Y0173744D01*
X0228645Y0172745D02*
X0227845Y0172745D01*
X0227845Y0171747D02*
X0228645Y0171747D01*
X0229045Y0170748D02*
X0227445Y0170748D01*
X0226871Y0169750D02*
X0229618Y0169750D01*
X0230617Y0168751D02*
X0225873Y0168751D01*
X0220617Y0168751D02*
X0112297Y0168751D01*
X0113295Y0169750D02*
X0219618Y0169750D01*
X0219045Y0170748D02*
X0114294Y0170748D01*
X0115293Y0171747D02*
X0218645Y0171747D01*
X0218645Y0172745D02*
X0116291Y0172745D01*
X0117290Y0173744D02*
X0218728Y0173744D01*
X0219141Y0174742D02*
X0118288Y0174742D01*
X0116192Y0177738D02*
X0065908Y0177738D01*
X0066906Y0176739D02*
X0115194Y0176739D01*
X0114195Y0175741D02*
X0067905Y0175741D01*
X0068903Y0174742D02*
X0113197Y0174742D01*
X0112198Y0173744D02*
X0069902Y0173744D01*
X0070900Y0172745D02*
X0111200Y0172745D01*
X0110201Y0171747D02*
X0071899Y0171747D01*
X0072897Y0170748D02*
X0109203Y0170748D01*
X0108204Y0169750D02*
X0073896Y0169750D01*
X0074894Y0168751D02*
X0107206Y0168751D01*
X0106207Y0167753D02*
X0075893Y0167753D01*
X0076891Y0166754D02*
X0105209Y0166754D01*
X0104210Y0165756D02*
X0077890Y0165756D01*
X0078888Y0164757D02*
X0103212Y0164757D01*
X0102213Y0163759D02*
X0079887Y0163759D01*
X0080885Y0162760D02*
X0101215Y0162760D01*
X0100216Y0161762D02*
X0081884Y0161762D01*
X0082882Y0160763D02*
X0099218Y0160763D01*
X0098219Y0159765D02*
X0083881Y0159765D01*
X0084879Y0158766D02*
X0097221Y0158766D01*
X0096222Y0157768D02*
X0085878Y0157768D01*
X0086876Y0156769D02*
X0095224Y0156769D01*
X0094225Y0155771D02*
X0087875Y0155771D01*
X0090712Y0154772D02*
X0093227Y0154772D01*
X0092228Y0153774D02*
X0091545Y0153774D01*
X0088800Y0152300D02*
X0038400Y0202700D01*
X0039300Y0206300D02*
X0023100Y0206300D01*
X0015900Y0199100D01*
X0015888Y0199080D01*
X0012300Y0202562D02*
X0012300Y0205597D01*
X0013056Y0204841D01*
X0014894Y0204080D01*
X0016883Y0204080D01*
X0014894Y0204080D01*
X0013056Y0203318D01*
X0012300Y0202562D01*
X0012300Y0202701D02*
X0012438Y0202701D01*
X0012300Y0203699D02*
X0013976Y0203699D01*
X0013401Y0204698D02*
X0012300Y0204698D01*
X0017801Y0203699D02*
X0017954Y0203699D01*
X0018375Y0204698D02*
X0018952Y0204698D01*
X0019576Y0205696D02*
X0019951Y0205696D01*
X0020312Y0206695D02*
X0020949Y0206695D01*
X0020726Y0207693D02*
X0021948Y0207693D01*
X0020888Y0208692D02*
X0107546Y0208692D01*
X0106548Y0207693D02*
X0040452Y0207693D01*
X0041100Y0207046D02*
X0041100Y0207046D01*
X0041451Y0206695D02*
X0105549Y0206695D01*
X0104551Y0205696D02*
X0042449Y0205696D01*
X0043448Y0204698D02*
X0103552Y0204698D01*
X0102554Y0203699D02*
X0044446Y0203699D01*
X0045445Y0202701D02*
X0101555Y0202701D01*
X0100557Y0201702D02*
X0046443Y0201702D01*
X0047442Y0200704D02*
X0099558Y0200704D01*
X0098560Y0199705D02*
X0048440Y0199705D01*
X0049439Y0198707D02*
X0097561Y0198707D01*
X0096563Y0197708D02*
X0050437Y0197708D01*
X0051436Y0196710D02*
X0095564Y0196710D01*
X0094566Y0195711D02*
X0052434Y0195711D01*
X0053433Y0194713D02*
X0093567Y0194713D01*
X0092569Y0193714D02*
X0054431Y0193714D01*
X0055430Y0192716D02*
X0091570Y0192716D01*
X0090572Y0191717D02*
X0056428Y0191717D01*
X0057427Y0190719D02*
X0089573Y0190719D01*
X0088575Y0189720D02*
X0058425Y0189720D01*
X0059424Y0188722D02*
X0087576Y0188722D01*
X0086578Y0187723D02*
X0060422Y0187723D01*
X0061421Y0186725D02*
X0085579Y0186725D01*
X0085200Y0188300D02*
X0161700Y0264800D01*
X0158100Y0268400D01*
X0158100Y0288200D01*
X0144600Y0301700D01*
X0144000Y0302500D01*
X0143500Y0301553D02*
X0144500Y0301553D01*
X0144500Y0300555D02*
X0143500Y0300555D01*
X0143500Y0299556D02*
X0144500Y0299556D01*
X0144500Y0298558D02*
X0143500Y0298558D01*
X0143500Y0297559D02*
X0144500Y0297559D01*
X0145622Y0297559D02*
X0152862Y0297559D01*
X0150871Y0298558D02*
X0147412Y0298558D01*
X0148289Y0299556D02*
X0149873Y0299556D01*
X0149394Y0300555D02*
X0148836Y0300555D01*
X0153600Y0302600D02*
X0154000Y0302500D01*
X0153600Y0302600D02*
X0143700Y0312500D01*
X0143700Y0314300D01*
X0143500Y0314500D01*
X0139050Y0314534D02*
X0132980Y0314534D01*
X0133978Y0315533D02*
X0139050Y0315533D01*
X0139238Y0316531D02*
X0134977Y0316531D01*
X0135975Y0317530D02*
X0140236Y0317530D01*
X0139050Y0313536D02*
X0131981Y0313536D01*
X0130983Y0312537D02*
X0139170Y0312537D01*
X0140168Y0311539D02*
X0129984Y0311539D01*
X0128986Y0310540D02*
X0141167Y0310540D01*
X0144113Y0309541D02*
X0127987Y0309541D01*
X0126989Y0308543D02*
X0145111Y0308543D01*
X0145302Y0307544D02*
X0146110Y0307544D01*
X0144500Y0307544D02*
X0143500Y0307544D01*
X0142698Y0307544D02*
X0125990Y0307544D01*
X0124992Y0306546D02*
X0130975Y0306546D01*
X0129976Y0305547D02*
X0123993Y0305547D01*
X0122995Y0304549D02*
X0129437Y0304549D01*
X0129023Y0303550D02*
X0121996Y0303550D01*
X0120997Y0302552D02*
X0129000Y0302552D01*
X0129000Y0301553D02*
X0119999Y0301553D01*
X0119000Y0300555D02*
X0129394Y0300555D01*
X0129873Y0299556D02*
X0118002Y0299556D01*
X0117003Y0298558D02*
X0130871Y0298558D01*
X0132862Y0297559D02*
X0116005Y0297559D01*
X0115006Y0296561D02*
X0184615Y0296561D01*
X0185138Y0297559D02*
X0185614Y0297559D01*
X0187800Y0297200D02*
X0317400Y0297200D01*
X0328200Y0308000D01*
X0393900Y0308000D01*
X0398400Y0303500D01*
X0398400Y0256700D01*
X0391200Y0249500D01*
X0391090Y0249210D01*
X0387600Y0245629D02*
X0388258Y0244971D01*
X0390096Y0244210D01*
X0388780Y0243665D01*
X0387600Y0244846D01*
X0387600Y0245629D01*
X0387807Y0244638D02*
X0389062Y0244638D01*
X0385800Y0244100D02*
X0390300Y0239600D01*
X0391090Y0239210D01*
X0387578Y0235652D02*
X0386894Y0235652D01*
X0386851Y0236378D02*
X0388258Y0234971D01*
X0390096Y0234210D01*
X0388851Y0233695D01*
X0383846Y0238700D01*
X0354914Y0238700D01*
X0355663Y0239010D01*
X0356863Y0240211D01*
X0357513Y0241780D01*
X0357513Y0243478D01*
X0356863Y0245047D01*
X0355978Y0245932D01*
X0371246Y0261200D01*
X0372300Y0262254D01*
X0372300Y0295627D01*
X0373832Y0296261D01*
X0375239Y0297668D01*
X0376000Y0299505D01*
X0376761Y0297668D01*
X0378168Y0296261D01*
X0380005Y0295500D01*
X0381995Y0295500D01*
X0383832Y0296261D01*
X0385239Y0297668D01*
X0386000Y0299505D01*
X0386761Y0297668D01*
X0388168Y0296261D01*
X0390005Y0295500D01*
X0391995Y0295500D01*
X0393832Y0296261D01*
X0394800Y0297229D01*
X0394800Y0282646D01*
X0385054Y0272900D01*
X0384000Y0271846D01*
X0384000Y0243354D01*
X0386401Y0240954D01*
X0386090Y0240205D01*
X0386090Y0238216D01*
X0386851Y0236378D01*
X0386739Y0236650D02*
X0385895Y0236650D01*
X0386325Y0237649D02*
X0384897Y0237649D01*
X0383898Y0238647D02*
X0386090Y0238647D01*
X0386090Y0239646D02*
X0356298Y0239646D01*
X0357043Y0240644D02*
X0386272Y0240644D01*
X0385712Y0241643D02*
X0357457Y0241643D01*
X0357513Y0242641D02*
X0384713Y0242641D01*
X0384000Y0243640D02*
X0357446Y0243640D01*
X0357033Y0244638D02*
X0384000Y0244638D01*
X0384000Y0245637D02*
X0356273Y0245637D01*
X0356681Y0246635D02*
X0384000Y0246635D01*
X0384000Y0247634D02*
X0357679Y0247634D01*
X0358678Y0248632D02*
X0384000Y0248632D01*
X0384000Y0249631D02*
X0359676Y0249631D01*
X0360675Y0250629D02*
X0384000Y0250629D01*
X0384000Y0251628D02*
X0361673Y0251628D01*
X0362672Y0252626D02*
X0384000Y0252626D01*
X0384000Y0253625D02*
X0363670Y0253625D01*
X0364669Y0254623D02*
X0384000Y0254623D01*
X0384000Y0255622D02*
X0365667Y0255622D01*
X0366666Y0256620D02*
X0384000Y0256620D01*
X0384000Y0257619D02*
X0367664Y0257619D01*
X0368663Y0258617D02*
X0384000Y0258617D01*
X0384000Y0259616D02*
X0369661Y0259616D01*
X0370660Y0260614D02*
X0384000Y0260614D01*
X0384000Y0261613D02*
X0371659Y0261613D01*
X0372300Y0262611D02*
X0384000Y0262611D01*
X0384000Y0263610D02*
X0372300Y0263610D01*
X0372300Y0264608D02*
X0384000Y0264608D01*
X0384000Y0265607D02*
X0372300Y0265607D01*
X0372300Y0266605D02*
X0384000Y0266605D01*
X0384000Y0267604D02*
X0372300Y0267604D01*
X0372300Y0268603D02*
X0384000Y0268603D01*
X0384000Y0269601D02*
X0372300Y0269601D01*
X0372300Y0270600D02*
X0384000Y0270600D01*
X0384000Y0271598D02*
X0372300Y0271598D01*
X0372300Y0272597D02*
X0384751Y0272597D01*
X0385749Y0273595D02*
X0372300Y0273595D01*
X0372300Y0274594D02*
X0386748Y0274594D01*
X0387747Y0275592D02*
X0372300Y0275592D01*
X0372300Y0276591D02*
X0388745Y0276591D01*
X0389744Y0277589D02*
X0372300Y0277589D01*
X0372300Y0278588D02*
X0390742Y0278588D01*
X0391741Y0279586D02*
X0372300Y0279586D01*
X0372300Y0280585D02*
X0392739Y0280585D01*
X0393738Y0281583D02*
X0372300Y0281583D01*
X0372300Y0282582D02*
X0394736Y0282582D01*
X0394800Y0283580D02*
X0372300Y0283580D01*
X0372300Y0284579D02*
X0394800Y0284579D01*
X0394800Y0285577D02*
X0372300Y0285577D01*
X0372300Y0286576D02*
X0394800Y0286576D01*
X0394800Y0287574D02*
X0372300Y0287574D01*
X0372300Y0288573D02*
X0394800Y0288573D01*
X0394800Y0289571D02*
X0372300Y0289571D01*
X0372300Y0290570D02*
X0394800Y0290570D01*
X0394800Y0291568D02*
X0372300Y0291568D01*
X0372300Y0292567D02*
X0394800Y0292567D01*
X0394800Y0293565D02*
X0372300Y0293565D01*
X0372300Y0294564D02*
X0394800Y0294564D01*
X0394800Y0295562D02*
X0392145Y0295562D01*
X0394132Y0296561D02*
X0394800Y0296561D01*
X0400200Y0296561D02*
X0403921Y0296561D01*
X0403921Y0297559D02*
X0400200Y0297559D01*
X0400200Y0298558D02*
X0403921Y0298558D01*
X0403921Y0299556D02*
X0400200Y0299556D01*
X0400200Y0300555D02*
X0403921Y0300555D01*
X0403921Y0301553D02*
X0400200Y0301553D01*
X0400200Y0302552D02*
X0403921Y0302552D01*
X0403921Y0303550D02*
X0400200Y0303550D01*
X0399897Y0304549D02*
X0403921Y0304549D01*
X0403921Y0305547D02*
X0398898Y0305547D01*
X0397900Y0306546D02*
X0403921Y0306546D01*
X0403921Y0307544D02*
X0396901Y0307544D01*
X0395903Y0308543D02*
X0403921Y0308543D01*
X0403921Y0309541D02*
X0394904Y0309541D01*
X0393000Y0306200D02*
X0396600Y0302600D01*
X0396600Y0281900D01*
X0385800Y0271100D01*
X0385800Y0244100D01*
X0393118Y0244638D02*
X0403921Y0244638D01*
X0403921Y0243640D02*
X0393462Y0243640D01*
X0394730Y0242641D02*
X0403921Y0242641D01*
X0403921Y0241643D02*
X0395495Y0241643D01*
X0395908Y0240644D02*
X0403921Y0240644D01*
X0403921Y0239646D02*
X0396090Y0239646D01*
X0396090Y0238647D02*
X0403921Y0238647D01*
X0403921Y0237649D02*
X0395855Y0237649D01*
X0395442Y0236650D02*
X0403921Y0236650D01*
X0403921Y0235652D02*
X0394603Y0235652D01*
X0393154Y0234653D02*
X0403921Y0234653D01*
X0403921Y0233655D02*
X0393426Y0233655D01*
X0394715Y0232656D02*
X0403921Y0232656D01*
X0403921Y0231658D02*
X0395488Y0231658D01*
X0395902Y0230659D02*
X0403921Y0230659D01*
X0403921Y0229661D02*
X0396090Y0229661D01*
X0396090Y0228662D02*
X0403921Y0228662D01*
X0403921Y0227664D02*
X0395862Y0227664D01*
X0395448Y0226665D02*
X0403921Y0226665D01*
X0403921Y0225667D02*
X0394618Y0225667D01*
X0393190Y0224668D02*
X0403921Y0224668D01*
X0403921Y0223670D02*
X0393390Y0223670D01*
X0394700Y0222671D02*
X0403921Y0222671D01*
X0403921Y0221672D02*
X0395482Y0221672D01*
X0395896Y0220674D02*
X0403921Y0220674D01*
X0403921Y0219675D02*
X0396090Y0219675D01*
X0396090Y0218677D02*
X0403921Y0218677D01*
X0403921Y0217678D02*
X0395868Y0217678D01*
X0395454Y0216680D02*
X0403921Y0216680D01*
X0403921Y0215681D02*
X0394633Y0215681D01*
X0393226Y0214683D02*
X0403921Y0214683D01*
X0403921Y0213684D02*
X0393354Y0213684D01*
X0394686Y0212686D02*
X0403921Y0212686D01*
X0403921Y0211687D02*
X0395476Y0211687D01*
X0395890Y0210689D02*
X0403921Y0210689D01*
X0403921Y0209690D02*
X0396090Y0209690D01*
X0396090Y0208692D02*
X0403921Y0208692D01*
X0403921Y0207693D02*
X0395874Y0207693D01*
X0395460Y0206695D02*
X0403921Y0206695D01*
X0403921Y0205696D02*
X0394648Y0205696D01*
X0393262Y0204698D02*
X0403921Y0204698D01*
X0403921Y0203699D02*
X0393318Y0203699D01*
X0394671Y0202701D02*
X0403921Y0202701D01*
X0403921Y0201702D02*
X0395470Y0201702D01*
X0395884Y0200704D02*
X0403921Y0200704D01*
X0403921Y0199705D02*
X0396090Y0199705D01*
X0396090Y0198707D02*
X0403921Y0198707D01*
X0403921Y0197708D02*
X0395880Y0197708D01*
X0395466Y0196710D02*
X0403921Y0196710D01*
X0403921Y0195711D02*
X0394662Y0195711D01*
X0393298Y0194713D02*
X0403921Y0194713D01*
X0403921Y0193714D02*
X0357415Y0193714D01*
X0357513Y0192716D02*
X0403921Y0192716D01*
X0403921Y0191717D02*
X0357487Y0191717D01*
X0357002Y0194713D02*
X0388882Y0194713D01*
X0387518Y0195711D02*
X0356199Y0195711D01*
X0354546Y0196710D02*
X0386714Y0196710D01*
X0386300Y0197708D02*
X0101654Y0197708D01*
X0100655Y0196710D02*
X0218887Y0196710D01*
X0218645Y0195711D02*
X0099657Y0195711D01*
X0098658Y0194713D02*
X0218645Y0194713D01*
X0218645Y0193714D02*
X0097660Y0193714D01*
X0096661Y0192716D02*
X0218645Y0192716D01*
X0218645Y0191717D02*
X0095663Y0191717D01*
X0094664Y0190719D02*
X0218645Y0190719D01*
X0218645Y0189720D02*
X0093666Y0189720D01*
X0092667Y0188722D02*
X0218713Y0188722D01*
X0221113Y0186725D02*
X0090670Y0186725D01*
X0091669Y0187723D02*
X0386611Y0187723D01*
X0386294Y0176739D02*
X0354474Y0176739D01*
X0354094Y0176897D02*
X0352396Y0176897D01*
X0350827Y0176247D01*
X0349626Y0175047D01*
X0348976Y0173478D01*
X0348976Y0171780D01*
X0349626Y0170211D01*
X0350827Y0169010D01*
X0352396Y0168360D01*
X0354094Y0168360D01*
X0355663Y0169010D01*
X0356863Y0170211D01*
X0357513Y0171780D01*
X0357513Y0173478D01*
X0356863Y0175047D01*
X0355663Y0176247D01*
X0354094Y0176897D01*
X0352015Y0176739D02*
X0344474Y0176739D01*
X0346169Y0175741D02*
X0350321Y0175741D01*
X0349500Y0174742D02*
X0346989Y0174742D01*
X0347403Y0173744D02*
X0349087Y0173744D01*
X0348976Y0172745D02*
X0347513Y0172745D01*
X0347500Y0171747D02*
X0348990Y0171747D01*
X0349403Y0170748D02*
X0347086Y0170748D01*
X0346403Y0169750D02*
X0350087Y0169750D01*
X0351451Y0168751D02*
X0345038Y0168751D01*
X0344438Y0166754D02*
X0352051Y0166754D01*
X0350335Y0165756D02*
X0346154Y0165756D01*
X0346983Y0164757D02*
X0349506Y0164757D01*
X0349093Y0163759D02*
X0347397Y0163759D01*
X0347513Y0162760D02*
X0348976Y0162760D01*
X0348984Y0161762D02*
X0347506Y0161762D01*
X0347092Y0160763D02*
X0349397Y0160763D01*
X0350072Y0159765D02*
X0346418Y0159765D01*
X0345074Y0158766D02*
X0351415Y0158766D01*
X0352087Y0156769D02*
X0344403Y0156769D01*
X0346139Y0155771D02*
X0350350Y0155771D01*
X0349513Y0154772D02*
X0346977Y0154772D01*
X0347391Y0153774D02*
X0349099Y0153774D01*
X0348976Y0152775D02*
X0347513Y0152775D01*
X0347512Y0151777D02*
X0348977Y0151777D01*
X0349391Y0150778D02*
X0347098Y0150778D01*
X0346432Y0149780D02*
X0350057Y0149780D01*
X0351379Y0148781D02*
X0345110Y0148781D01*
X0355110Y0148781D02*
X0387050Y0148781D01*
X0388040Y0149780D02*
X0356432Y0149780D01*
X0357098Y0150778D02*
X0389856Y0150778D01*
X0388408Y0151777D02*
X0357512Y0151777D01*
X0357513Y0152775D02*
X0387410Y0152775D01*
X0386788Y0153774D02*
X0357391Y0153774D01*
X0356977Y0154772D02*
X0386375Y0154772D01*
X0386294Y0155771D02*
X0356139Y0155771D01*
X0355038Y0168751D02*
X0387037Y0168751D01*
X0388011Y0169750D02*
X0356403Y0169750D01*
X0357086Y0170748D02*
X0389784Y0170748D01*
X0388438Y0171747D02*
X0357500Y0171747D01*
X0357513Y0172745D02*
X0387439Y0172745D01*
X0386801Y0173744D02*
X0357403Y0173744D01*
X0356989Y0174742D02*
X0386387Y0174742D01*
X0386294Y0175741D02*
X0356169Y0175741D01*
X0351487Y0178737D02*
X0345003Y0178737D01*
X0346388Y0179735D02*
X0350102Y0179735D01*
X0349410Y0180734D02*
X0347080Y0180734D01*
X0347494Y0181732D02*
X0348996Y0181732D01*
X0348976Y0182731D02*
X0347513Y0182731D01*
X0347409Y0183729D02*
X0349080Y0183729D01*
X0349494Y0184728D02*
X0346996Y0184728D01*
X0346184Y0185726D02*
X0350306Y0185726D01*
X0351979Y0186725D02*
X0344510Y0186725D01*
X0344967Y0188722D02*
X0351523Y0188722D01*
X0350117Y0189720D02*
X0346373Y0189720D01*
X0347074Y0190719D02*
X0349416Y0190719D01*
X0349002Y0191717D02*
X0347487Y0191717D01*
X0347513Y0192716D02*
X0348976Y0192716D01*
X0349074Y0193714D02*
X0347415Y0193714D01*
X0347002Y0194713D02*
X0349488Y0194713D01*
X0350291Y0195711D02*
X0346199Y0195711D01*
X0344546Y0196710D02*
X0351943Y0196710D01*
X0352396Y0198360D02*
X0354094Y0198360D01*
X0355663Y0199010D01*
X0356863Y0200211D01*
X0357513Y0201780D01*
X0357513Y0203478D01*
X0356863Y0205047D01*
X0355663Y0206247D01*
X0354094Y0206897D01*
X0352396Y0206897D01*
X0350827Y0206247D01*
X0349626Y0205047D01*
X0348976Y0203478D01*
X0348976Y0201780D01*
X0349626Y0200211D01*
X0350827Y0199010D01*
X0352396Y0198360D01*
X0351559Y0198707D02*
X0344931Y0198707D01*
X0345663Y0199010D02*
X0346863Y0200211D01*
X0347513Y0201780D01*
X0347513Y0203478D01*
X0346863Y0205047D01*
X0345663Y0206247D01*
X0344094Y0206897D01*
X0342396Y0206897D01*
X0340827Y0206247D01*
X0339626Y0205047D01*
X0338976Y0203478D01*
X0338976Y0201780D01*
X0339626Y0200211D01*
X0340827Y0199010D01*
X0342396Y0198360D01*
X0344094Y0198360D01*
X0345663Y0199010D01*
X0346358Y0199705D02*
X0350132Y0199705D01*
X0349422Y0200704D02*
X0347068Y0200704D01*
X0347481Y0201702D02*
X0349008Y0201702D01*
X0348976Y0202701D02*
X0347513Y0202701D01*
X0347421Y0203699D02*
X0349068Y0203699D01*
X0349482Y0204698D02*
X0347008Y0204698D01*
X0346214Y0205696D02*
X0350276Y0205696D01*
X0351907Y0206695D02*
X0344582Y0206695D01*
X0344094Y0208360D02*
X0345663Y0209010D01*
X0346863Y0210211D01*
X0347513Y0211780D01*
X0347513Y0213478D01*
X0346863Y0215047D01*
X0345663Y0216247D01*
X0344094Y0216897D01*
X0342396Y0216897D01*
X0340827Y0216247D01*
X0339626Y0215047D01*
X0338976Y0213478D01*
X0338976Y0211780D01*
X0339626Y0210211D01*
X0340827Y0209010D01*
X0342396Y0208360D01*
X0344094Y0208360D01*
X0344895Y0208692D02*
X0351595Y0208692D01*
X0350827Y0209010D02*
X0352396Y0208360D01*
X0354094Y0208360D01*
X0355663Y0209010D01*
X0356863Y0210211D01*
X0357513Y0211780D01*
X0357513Y0213478D01*
X0356863Y0215047D01*
X0355663Y0216247D01*
X0354094Y0216897D01*
X0352396Y0216897D01*
X0350827Y0216247D01*
X0349626Y0215047D01*
X0348976Y0213478D01*
X0348976Y0211780D01*
X0349626Y0210211D01*
X0350827Y0209010D01*
X0350146Y0209690D02*
X0346343Y0209690D01*
X0347061Y0210689D02*
X0349428Y0210689D01*
X0349014Y0211687D02*
X0347475Y0211687D01*
X0347513Y0212686D02*
X0348976Y0212686D01*
X0349062Y0213684D02*
X0347428Y0213684D01*
X0347014Y0214683D02*
X0349476Y0214683D01*
X0350261Y0215681D02*
X0346229Y0215681D01*
X0344618Y0216680D02*
X0351871Y0216680D01*
X0351631Y0218677D02*
X0344859Y0218677D01*
X0346328Y0219675D02*
X0350161Y0219675D01*
X0349434Y0220674D02*
X0347055Y0220674D01*
X0347469Y0221672D02*
X0349021Y0221672D01*
X0348976Y0222671D02*
X0347513Y0222671D01*
X0347434Y0223670D02*
X0349056Y0223670D01*
X0349469Y0224668D02*
X0347020Y0224668D01*
X0343245Y0222629D02*
X0342600Y0222500D01*
X0123900Y0222500D01*
X0086100Y0184700D01*
X0060900Y0184700D01*
X0039300Y0206300D01*
X0020888Y0209690D02*
X0108545Y0209690D01*
X0109543Y0210689D02*
X0020634Y0210689D01*
X0020220Y0211687D02*
X0110542Y0211687D01*
X0111540Y0212686D02*
X0019353Y0212686D01*
X0017837Y0213684D02*
X0112539Y0213684D01*
X0113537Y0214683D02*
X0018339Y0214683D01*
X0016883Y0214080D02*
X0014894Y0214080D01*
X0013056Y0214841D01*
X0012300Y0215597D01*
X0012300Y0212562D01*
X0013056Y0213318D01*
X0014894Y0214080D01*
X0016883Y0214080D01*
X0013940Y0213684D02*
X0012300Y0213684D01*
X0012300Y0212686D02*
X0012424Y0212686D01*
X0012300Y0214683D02*
X0013437Y0214683D01*
X0019561Y0215681D02*
X0114536Y0215681D01*
X0115534Y0216680D02*
X0020306Y0216680D01*
X0020720Y0217678D02*
X0116533Y0217678D01*
X0117531Y0218677D02*
X0020888Y0218677D01*
X0020888Y0219675D02*
X0118530Y0219675D01*
X0119528Y0220674D02*
X0020640Y0220674D01*
X0020226Y0221672D02*
X0120527Y0221672D01*
X0121525Y0222671D02*
X0019368Y0222671D01*
X0017873Y0223670D02*
X0122524Y0223670D01*
X0124620Y0220674D02*
X0339434Y0220674D01*
X0340161Y0219675D02*
X0123621Y0219675D01*
X0122623Y0218677D02*
X0341631Y0218677D01*
X0341871Y0216680D02*
X0120626Y0216680D01*
X0121624Y0217678D02*
X0386313Y0217678D01*
X0386090Y0218677D02*
X0354859Y0218677D01*
X0356328Y0219675D02*
X0386090Y0219675D01*
X0386285Y0220674D02*
X0357055Y0220674D01*
X0357469Y0221672D02*
X0385882Y0221672D01*
X0384883Y0222671D02*
X0357513Y0222671D01*
X0357434Y0223670D02*
X0383885Y0223670D01*
X0382886Y0224668D02*
X0357020Y0224668D01*
X0355156Y0228800D02*
X0355663Y0229010D01*
X0356863Y0230211D01*
X0357513Y0231780D01*
X0357513Y0233478D01*
X0356863Y0235047D01*
X0356810Y0235100D01*
X0382354Y0235100D01*
X0386430Y0231025D01*
X0386090Y0230205D01*
X0386090Y0228216D01*
X0386851Y0226378D01*
X0388258Y0224971D01*
X0390096Y0224210D01*
X0388922Y0223724D01*
X0383846Y0228800D01*
X0355156Y0228800D01*
X0356313Y0229661D02*
X0386090Y0229661D01*
X0386090Y0228662D02*
X0383984Y0228662D01*
X0384982Y0227664D02*
X0386319Y0227664D01*
X0385981Y0226665D02*
X0386732Y0226665D01*
X0386979Y0225667D02*
X0387563Y0225667D01*
X0387978Y0224668D02*
X0388990Y0224668D01*
X0391090Y0229210D02*
X0390300Y0229700D01*
X0383100Y0236900D01*
X0269700Y0236900D01*
X0226500Y0280100D01*
X0190500Y0280100D01*
X0183300Y0272900D01*
X0183245Y0272629D01*
X0187513Y0272597D02*
X0188976Y0272597D01*
X0188976Y0273595D02*
X0187513Y0273595D01*
X0187539Y0274594D02*
X0188976Y0274594D01*
X0188976Y0275592D02*
X0188538Y0275592D01*
X0186442Y0278588D02*
X0186291Y0278588D01*
X0187441Y0279586D02*
X0184769Y0279586D01*
X0183300Y0281900D02*
X0177900Y0276500D01*
X0177900Y0267500D01*
X0175200Y0264800D01*
X0161700Y0264800D01*
X0161876Y0265607D02*
X0154614Y0265607D01*
X0154094Y0265392D02*
X0155663Y0266041D01*
X0156863Y0267242D01*
X0157513Y0268811D01*
X0157513Y0276446D01*
X0156863Y0278015D01*
X0155663Y0279216D01*
X0154094Y0279866D01*
X0152396Y0279866D01*
X0150827Y0279216D01*
X0149626Y0278015D01*
X0148976Y0276446D01*
X0148976Y0268811D01*
X0149626Y0267242D01*
X0150827Y0266041D01*
X0152396Y0265392D01*
X0154094Y0265392D01*
X0151876Y0265607D02*
X0139614Y0265607D01*
X0139094Y0265392D02*
X0140663Y0266041D01*
X0141863Y0267242D01*
X0142513Y0268811D01*
X0142513Y0276446D01*
X0141863Y0278015D01*
X0140663Y0279216D01*
X0139094Y0279866D01*
X0137396Y0279866D01*
X0135827Y0279216D01*
X0134626Y0278015D01*
X0133976Y0276446D01*
X0133976Y0268811D01*
X0134626Y0267242D01*
X0135827Y0266041D01*
X0137396Y0265392D01*
X0139094Y0265392D01*
X0136876Y0265607D02*
X0129614Y0265607D01*
X0131227Y0266605D02*
X0135263Y0266605D01*
X0134476Y0267604D02*
X0132013Y0267604D01*
X0132427Y0268603D02*
X0134063Y0268603D01*
X0133976Y0269601D02*
X0132513Y0269601D01*
X0132513Y0270600D02*
X0133976Y0270600D01*
X0133976Y0271598D02*
X0132513Y0271598D01*
X0132513Y0272597D02*
X0133976Y0272597D01*
X0133976Y0273595D02*
X0132513Y0273595D01*
X0132513Y0274594D02*
X0133976Y0274594D01*
X0133976Y0275592D02*
X0132513Y0275592D01*
X0132453Y0276591D02*
X0134036Y0276591D01*
X0134450Y0277589D02*
X0132040Y0277589D01*
X0131291Y0278588D02*
X0135199Y0278588D01*
X0136721Y0279586D02*
X0129769Y0279586D01*
X0126721Y0279586D02*
X0123359Y0279586D01*
X0122361Y0280585D02*
X0168639Y0280585D01*
X0169638Y0281583D02*
X0121362Y0281583D01*
X0120300Y0280100D02*
X0115800Y0280100D01*
X0108600Y0272900D01*
X0108245Y0272629D01*
X0103976Y0272597D02*
X0102513Y0272597D01*
X0102513Y0273595D02*
X0103976Y0273595D01*
X0103976Y0274594D02*
X0102513Y0274594D01*
X0102513Y0275592D02*
X0103976Y0275592D01*
X0104036Y0276591D02*
X0102453Y0276591D01*
X0102040Y0277589D02*
X0104450Y0277589D01*
X0105199Y0278588D02*
X0101291Y0278588D01*
X0099769Y0279586D02*
X0106721Y0279586D01*
X0109769Y0279586D02*
X0112741Y0279586D01*
X0113739Y0280585D02*
X0099030Y0280585D01*
X0100029Y0281583D02*
X0114738Y0281583D01*
X0111742Y0278588D02*
X0111291Y0278588D01*
X0117600Y0272000D02*
X0118245Y0272629D01*
X0117600Y0272000D02*
X0109500Y0263900D01*
X0087900Y0263900D01*
X0087000Y0260300D02*
X0115800Y0260300D01*
X0123000Y0267500D01*
X0123000Y0277400D01*
X0120300Y0280100D01*
X0124358Y0278588D02*
X0125199Y0278588D01*
X0125263Y0266605D02*
X0124651Y0266605D01*
X0123653Y0265607D02*
X0126876Y0265607D01*
X0122654Y0264608D02*
X0191400Y0264608D01*
X0191400Y0263610D02*
X0121656Y0263610D01*
X0120657Y0262611D02*
X0191400Y0262611D01*
X0191400Y0261613D02*
X0119659Y0261613D01*
X0118660Y0260614D02*
X0191400Y0260614D01*
X0191400Y0259616D02*
X0117662Y0259616D01*
X0116663Y0258617D02*
X0191400Y0258617D01*
X0191400Y0257619D02*
X0017700Y0257619D01*
X0017700Y0258617D02*
X0086137Y0258617D01*
X0085138Y0259616D02*
X0017700Y0259616D01*
X0017700Y0260614D02*
X0084140Y0260614D01*
X0083141Y0261613D02*
X0017700Y0261613D01*
X0017700Y0262611D02*
X0082143Y0262611D01*
X0081600Y0263610D02*
X0017700Y0263610D01*
X0017700Y0264608D02*
X0081600Y0264608D01*
X0081600Y0265607D02*
X0079614Y0265607D01*
X0081227Y0266605D02*
X0081600Y0266605D01*
X0083400Y0263900D02*
X0087000Y0260300D01*
X0083400Y0263900D02*
X0083400Y0276500D01*
X0081600Y0278300D01*
X0081600Y0295400D01*
X0078725Y0296561D02*
X0028606Y0296561D01*
X0027608Y0295562D02*
X0078500Y0295562D01*
X0078591Y0294564D02*
X0026609Y0294564D01*
X0025611Y0293565D02*
X0079051Y0293565D01*
X0079800Y0292567D02*
X0024612Y0292567D01*
X0023614Y0291568D02*
X0079800Y0291568D01*
X0079800Y0290570D02*
X0022615Y0290570D01*
X0021617Y0289571D02*
X0079800Y0289571D01*
X0079800Y0288573D02*
X0020618Y0288573D01*
X0019620Y0287574D02*
X0079800Y0287574D01*
X0079800Y0286576D02*
X0018621Y0286576D01*
X0017700Y0285577D02*
X0079800Y0285577D01*
X0079800Y0284579D02*
X0017700Y0284579D01*
X0017700Y0283580D02*
X0079800Y0283580D01*
X0079800Y0282582D02*
X0017700Y0282582D01*
X0017700Y0281583D02*
X0079800Y0281583D01*
X0079800Y0280585D02*
X0017700Y0280585D01*
X0017700Y0279586D02*
X0066721Y0279586D01*
X0067396Y0279866D02*
X0065827Y0279216D01*
X0064626Y0278015D01*
X0063976Y0276446D01*
X0063976Y0268811D01*
X0064626Y0267242D01*
X0065827Y0266041D01*
X0067396Y0265392D01*
X0069094Y0265392D01*
X0070663Y0266041D01*
X0071863Y0267242D01*
X0072513Y0268811D01*
X0072513Y0276446D01*
X0071863Y0278015D01*
X0070663Y0279216D01*
X0069094Y0279866D01*
X0067396Y0279866D01*
X0069769Y0279586D02*
X0076721Y0279586D01*
X0075199Y0278588D02*
X0071291Y0278588D01*
X0072040Y0277589D02*
X0074450Y0277589D01*
X0074036Y0276591D02*
X0072453Y0276591D01*
X0072513Y0275592D02*
X0073976Y0275592D01*
X0073976Y0274594D02*
X0072513Y0274594D01*
X0072513Y0273595D02*
X0073976Y0273595D01*
X0073976Y0272597D02*
X0072513Y0272597D01*
X0072513Y0271598D02*
X0073976Y0271598D01*
X0073976Y0270600D02*
X0072513Y0270600D01*
X0072513Y0269601D02*
X0073976Y0269601D01*
X0074063Y0268603D02*
X0072427Y0268603D01*
X0072013Y0267604D02*
X0074476Y0267604D01*
X0075263Y0266605D02*
X0071227Y0266605D01*
X0069614Y0265607D02*
X0076876Y0265607D01*
X0066876Y0265607D02*
X0017700Y0265607D01*
X0017700Y0266605D02*
X0045670Y0266605D01*
X0045922Y0266353D02*
X0047429Y0265729D01*
X0049060Y0265729D01*
X0050567Y0266353D01*
X0051721Y0267506D01*
X0052345Y0269013D01*
X0052345Y0276244D01*
X0051721Y0277751D01*
X0050567Y0278904D01*
X0049060Y0279529D01*
X0047429Y0279529D01*
X0045922Y0278904D01*
X0044769Y0277751D01*
X0044145Y0276244D01*
X0044145Y0269013D01*
X0044769Y0267506D01*
X0045922Y0266353D01*
X0044728Y0267604D02*
X0017700Y0267604D01*
X0017700Y0268603D02*
X0044315Y0268603D01*
X0044145Y0269601D02*
X0017700Y0269601D01*
X0017700Y0270600D02*
X0044145Y0270600D01*
X0044145Y0271598D02*
X0017700Y0271598D01*
X0017700Y0272597D02*
X0044145Y0272597D01*
X0044145Y0273595D02*
X0017700Y0273595D01*
X0017700Y0274594D02*
X0044145Y0274594D01*
X0044145Y0275592D02*
X0017700Y0275592D01*
X0017700Y0276591D02*
X0044288Y0276591D01*
X0044702Y0277589D02*
X0017700Y0277589D01*
X0017700Y0278588D02*
X0045606Y0278588D01*
X0050884Y0278588D02*
X0055606Y0278588D01*
X0055922Y0278904D02*
X0054769Y0277751D01*
X0054145Y0276244D01*
X0054145Y0269013D01*
X0054769Y0267506D01*
X0055922Y0266353D01*
X0057429Y0265729D01*
X0059060Y0265729D01*
X0060567Y0266353D01*
X0061721Y0267506D01*
X0062345Y0269013D01*
X0062345Y0276244D01*
X0061721Y0277751D01*
X0060567Y0278904D01*
X0059060Y0279529D01*
X0057429Y0279529D01*
X0055922Y0278904D01*
X0054702Y0277589D02*
X0051788Y0277589D01*
X0052201Y0276591D02*
X0054288Y0276591D01*
X0054145Y0275592D02*
X0052345Y0275592D01*
X0052345Y0274594D02*
X0054145Y0274594D01*
X0054145Y0273595D02*
X0052345Y0273595D01*
X0052345Y0272597D02*
X0054145Y0272597D01*
X0054145Y0271598D02*
X0052345Y0271598D01*
X0052345Y0270600D02*
X0054145Y0270600D01*
X0054145Y0269601D02*
X0052345Y0269601D01*
X0052175Y0268603D02*
X0054315Y0268603D01*
X0054728Y0267604D02*
X0051761Y0267604D01*
X0050820Y0266605D02*
X0055670Y0266605D01*
X0060820Y0266605D02*
X0065263Y0266605D01*
X0064476Y0267604D02*
X0061761Y0267604D01*
X0062175Y0268603D02*
X0064063Y0268603D01*
X0063976Y0269601D02*
X0062345Y0269601D01*
X0062345Y0270600D02*
X0063976Y0270600D01*
X0063976Y0271598D02*
X0062345Y0271598D01*
X0062345Y0272597D02*
X0063976Y0272597D01*
X0063976Y0273595D02*
X0062345Y0273595D01*
X0062345Y0274594D02*
X0063976Y0274594D01*
X0063976Y0275592D02*
X0062345Y0275592D01*
X0062201Y0276591D02*
X0064036Y0276591D01*
X0064450Y0277589D02*
X0061788Y0277589D01*
X0060884Y0278588D02*
X0065199Y0278588D01*
X0079769Y0279586D02*
X0079800Y0279586D01*
X0083400Y0279586D02*
X0086721Y0279586D01*
X0085199Y0278588D02*
X0083858Y0278588D01*
X0083400Y0280585D02*
X0093939Y0280585D01*
X0094938Y0281583D02*
X0083400Y0281583D01*
X0083400Y0282582D02*
X0095936Y0282582D01*
X0096935Y0283580D02*
X0083400Y0283580D01*
X0083400Y0284579D02*
X0097933Y0284579D01*
X0098932Y0285577D02*
X0083400Y0285577D01*
X0083400Y0286576D02*
X0099930Y0286576D01*
X0100929Y0287574D02*
X0083400Y0287574D01*
X0083400Y0288573D02*
X0101927Y0288573D01*
X0102926Y0289571D02*
X0083400Y0289571D01*
X0083400Y0290570D02*
X0103924Y0290570D01*
X0104923Y0291568D02*
X0083400Y0291568D01*
X0083400Y0292567D02*
X0105921Y0292567D01*
X0106920Y0293565D02*
X0084149Y0293565D01*
X0084609Y0294564D02*
X0107918Y0294564D01*
X0108917Y0295562D02*
X0084700Y0295562D01*
X0084475Y0296561D02*
X0109915Y0296561D01*
X0110914Y0297559D02*
X0083825Y0297559D01*
X0084168Y0300261D02*
X0086005Y0299500D01*
X0087995Y0299500D01*
X0089832Y0300261D01*
X0091239Y0301668D01*
X0092000Y0303505D01*
X0092000Y0305495D01*
X0091239Y0307332D01*
X0089832Y0308739D01*
X0087995Y0309500D01*
X0086005Y0309500D01*
X0084168Y0308739D01*
X0082761Y0307332D01*
X0082000Y0305495D01*
X0082000Y0303505D01*
X0082761Y0301668D01*
X0084168Y0300261D01*
X0083874Y0300555D02*
X0080126Y0300555D01*
X0079832Y0300261D02*
X0081239Y0301668D01*
X0082000Y0303505D01*
X0082000Y0305495D01*
X0081239Y0307332D01*
X0079832Y0308739D01*
X0077995Y0309500D01*
X0076005Y0309500D01*
X0074168Y0308739D01*
X0072761Y0307332D01*
X0072000Y0305495D01*
X0072000Y0303505D01*
X0072761Y0301668D01*
X0074168Y0300261D01*
X0076005Y0299500D01*
X0077995Y0299500D01*
X0079832Y0300261D01*
X0081124Y0301553D02*
X0082876Y0301553D01*
X0082395Y0302552D02*
X0081605Y0302552D01*
X0082000Y0303550D02*
X0082000Y0303550D01*
X0082000Y0304549D02*
X0082000Y0304549D01*
X0081978Y0305547D02*
X0082022Y0305547D01*
X0082436Y0306546D02*
X0081564Y0306546D01*
X0081027Y0307544D02*
X0082973Y0307544D01*
X0083972Y0308543D02*
X0080028Y0308543D01*
X0073972Y0308543D02*
X0070028Y0308543D01*
X0069832Y0308739D02*
X0067995Y0309500D01*
X0066005Y0309500D01*
X0064168Y0308739D01*
X0062761Y0307332D01*
X0062000Y0305495D01*
X0062000Y0303505D01*
X0062761Y0301668D01*
X0064168Y0300261D01*
X0066005Y0299500D01*
X0067995Y0299500D01*
X0069832Y0300261D01*
X0071239Y0301668D01*
X0072000Y0303505D01*
X0072000Y0305495D01*
X0071239Y0307332D01*
X0069832Y0308739D01*
X0071027Y0307544D02*
X0072973Y0307544D01*
X0072436Y0306546D02*
X0071564Y0306546D01*
X0071978Y0305547D02*
X0072022Y0305547D01*
X0072000Y0304549D02*
X0072000Y0304549D01*
X0072000Y0303550D02*
X0072000Y0303550D01*
X0071605Y0302552D02*
X0072395Y0302552D01*
X0072876Y0301553D02*
X0071124Y0301553D01*
X0070126Y0300555D02*
X0073874Y0300555D01*
X0075869Y0299556D02*
X0068131Y0299556D01*
X0065869Y0299556D02*
X0058131Y0299556D01*
X0057995Y0299500D02*
X0059832Y0300261D01*
X0061239Y0301668D01*
X0062000Y0303505D01*
X0062000Y0305495D01*
X0061239Y0307332D01*
X0059832Y0308739D01*
X0057995Y0309500D01*
X0056005Y0309500D01*
X0054168Y0308739D01*
X0052761Y0307332D01*
X0052000Y0305495D01*
X0052000Y0303505D01*
X0052761Y0301668D01*
X0054168Y0300261D01*
X0056005Y0299500D01*
X0057995Y0299500D01*
X0055869Y0299556D02*
X0035694Y0299556D01*
X0037225Y0300555D02*
X0053874Y0300555D01*
X0052876Y0301553D02*
X0038098Y0301553D01*
X0038512Y0302552D02*
X0052395Y0302552D01*
X0052000Y0303550D02*
X0038771Y0303550D01*
X0038771Y0304549D02*
X0052000Y0304549D01*
X0052022Y0305547D02*
X0038613Y0305547D01*
X0038200Y0306546D02*
X0052436Y0306546D01*
X0052973Y0307544D02*
X0037469Y0307544D01*
X0036284Y0308543D02*
X0053972Y0308543D01*
X0060028Y0308543D02*
X0063972Y0308543D01*
X0062973Y0307544D02*
X0061027Y0307544D01*
X0061564Y0306546D02*
X0062436Y0306546D01*
X0062022Y0305547D02*
X0061978Y0305547D01*
X0062000Y0304549D02*
X0062000Y0304549D01*
X0062000Y0303550D02*
X0062000Y0303550D01*
X0061605Y0302552D02*
X0062395Y0302552D01*
X0062876Y0301553D02*
X0061124Y0301553D01*
X0060126Y0300555D02*
X0063874Y0300555D01*
X0078131Y0299556D02*
X0085869Y0299556D01*
X0088131Y0299556D02*
X0112911Y0299556D01*
X0111912Y0298558D02*
X0030603Y0298558D01*
X0029605Y0297559D02*
X0079375Y0297559D01*
X0090126Y0300555D02*
X0113909Y0300555D01*
X0114908Y0301553D02*
X0091124Y0301553D01*
X0091605Y0302552D02*
X0115906Y0302552D01*
X0116905Y0303550D02*
X0092000Y0303550D01*
X0092000Y0304549D02*
X0117903Y0304549D01*
X0118902Y0305547D02*
X0091978Y0305547D01*
X0091564Y0306546D02*
X0119900Y0306546D01*
X0120899Y0307544D02*
X0091027Y0307544D01*
X0090028Y0308543D02*
X0114473Y0308543D01*
X0116700Y0310700D02*
X0123000Y0310700D01*
X0143700Y0331400D01*
X0372300Y0331400D01*
X0381300Y0322400D01*
X0381500Y0322000D01*
X0385053Y0325518D02*
X0387947Y0325518D01*
X0387132Y0324519D02*
X0385868Y0324519D01*
X0386282Y0323521D02*
X0386718Y0323521D01*
X0386500Y0322522D02*
X0386500Y0322522D01*
X0386500Y0321524D02*
X0386500Y0321524D01*
X0386301Y0320525D02*
X0386699Y0320525D01*
X0387113Y0319527D02*
X0385887Y0319527D01*
X0385099Y0318528D02*
X0387901Y0318528D01*
X0389227Y0317530D02*
X0383773Y0317530D01*
X0379227Y0317530D02*
X0363066Y0317530D01*
X0362995Y0317500D02*
X0364832Y0318261D01*
X0366239Y0319668D01*
X0367000Y0321505D01*
X0367000Y0323495D01*
X0366239Y0325332D01*
X0364832Y0326739D01*
X0362995Y0327500D01*
X0361005Y0327500D01*
X0359168Y0326739D01*
X0357761Y0325332D01*
X0357000Y0323495D01*
X0357000Y0321505D01*
X0357761Y0319668D01*
X0359168Y0318261D01*
X0361005Y0317500D01*
X0362995Y0317500D01*
X0360934Y0317530D02*
X0353066Y0317530D01*
X0352995Y0317500D02*
X0354832Y0318261D01*
X0356239Y0319668D01*
X0357000Y0321505D01*
X0357000Y0323495D01*
X0356239Y0325332D01*
X0354832Y0326739D01*
X0352995Y0327500D01*
X0351005Y0327500D01*
X0349168Y0326739D01*
X0347761Y0325332D01*
X0347000Y0323495D01*
X0347000Y0321505D01*
X0347761Y0319668D01*
X0349168Y0318261D01*
X0351005Y0317500D01*
X0352995Y0317500D01*
X0350934Y0317530D02*
X0330066Y0317530D01*
X0327934Y0317530D02*
X0325875Y0317530D01*
X0324877Y0316531D02*
X0403921Y0316531D01*
X0403921Y0315533D02*
X0324600Y0315533D01*
X0324600Y0314534D02*
X0403921Y0314534D01*
X0403921Y0313536D02*
X0324600Y0313536D01*
X0324600Y0312537D02*
X0403921Y0312537D01*
X0403921Y0311539D02*
X0324600Y0311539D01*
X0324600Y0310540D02*
X0403921Y0310540D01*
X0403921Y0317530D02*
X0393773Y0317530D01*
X0395099Y0318528D02*
X0403921Y0318528D01*
X0403921Y0319527D02*
X0395887Y0319527D01*
X0396301Y0320525D02*
X0403921Y0320525D01*
X0403921Y0321524D02*
X0396500Y0321524D01*
X0396500Y0322522D02*
X0403921Y0322522D01*
X0403921Y0323521D02*
X0396282Y0323521D01*
X0395868Y0324519D02*
X0403921Y0324519D01*
X0403921Y0325518D02*
X0395053Y0325518D01*
X0393663Y0326516D02*
X0403921Y0326516D01*
X0403921Y0327515D02*
X0378731Y0327515D01*
X0377732Y0328513D02*
X0403921Y0328513D01*
X0403921Y0329512D02*
X0376734Y0329512D01*
X0375735Y0330510D02*
X0403921Y0330510D01*
X0403921Y0331509D02*
X0374737Y0331509D01*
X0373738Y0332507D02*
X0403921Y0332507D01*
X0403921Y0337500D02*
X0244847Y0337500D01*
X0233929Y0326516D02*
X0295063Y0326516D01*
X0293833Y0325518D02*
X0279553Y0325518D01*
X0280552Y0324519D02*
X0293084Y0324519D01*
X0292671Y0323521D02*
X0281075Y0323521D01*
X0276500Y0321500D02*
X0290400Y0321500D01*
X0294900Y0317000D01*
X0312900Y0317000D01*
X0318300Y0322400D01*
X0319000Y0322500D01*
X0324000Y0322522D02*
X0324000Y0322522D01*
X0324000Y0323495D02*
X0324000Y0321505D01*
X0323463Y0320208D01*
X0324223Y0320968D01*
X0324000Y0321505D01*
X0324000Y0323495D01*
X0323989Y0323521D02*
X0324011Y0323521D01*
X0324424Y0324519D02*
X0323576Y0324519D01*
X0323053Y0325518D02*
X0324947Y0325518D01*
X0325945Y0326516D02*
X0322055Y0326516D01*
X0324000Y0321524D02*
X0324000Y0321524D01*
X0323780Y0320525D02*
X0323594Y0320525D01*
X0322800Y0317000D02*
X0328200Y0322400D01*
X0329000Y0322500D01*
X0334000Y0322522D02*
X0347000Y0322522D01*
X0347000Y0321524D02*
X0334000Y0321524D01*
X0333594Y0320525D02*
X0347406Y0320525D01*
X0347902Y0319527D02*
X0333098Y0319527D01*
X0332099Y0318528D02*
X0348901Y0318528D01*
X0347011Y0323521D02*
X0333989Y0323521D01*
X0333576Y0324519D02*
X0347424Y0324519D01*
X0347947Y0325518D02*
X0333053Y0325518D01*
X0332055Y0326516D02*
X0348945Y0326516D01*
X0355055Y0326516D02*
X0358945Y0326516D01*
X0357947Y0325518D02*
X0356053Y0325518D01*
X0356576Y0324519D02*
X0357424Y0324519D01*
X0357011Y0323521D02*
X0356989Y0323521D01*
X0357000Y0322522D02*
X0357000Y0322522D01*
X0357000Y0321524D02*
X0357000Y0321524D01*
X0356594Y0320525D02*
X0357406Y0320525D01*
X0357902Y0319527D02*
X0356098Y0319527D01*
X0355099Y0318528D02*
X0358901Y0318528D01*
X0365099Y0318528D02*
X0377901Y0318528D01*
X0377113Y0319527D02*
X0366098Y0319527D01*
X0366594Y0320525D02*
X0376699Y0320525D01*
X0376500Y0321524D02*
X0367000Y0321524D01*
X0367000Y0322522D02*
X0376500Y0322522D01*
X0376718Y0323521D02*
X0366989Y0323521D01*
X0366576Y0324519D02*
X0376635Y0324519D01*
X0375637Y0325518D02*
X0366053Y0325518D01*
X0365055Y0326516D02*
X0374638Y0326516D01*
X0373640Y0327515D02*
X0232931Y0327515D01*
X0231932Y0328513D02*
X0372641Y0328513D01*
X0371643Y0329512D02*
X0230934Y0329512D01*
X0228300Y0329600D02*
X0236400Y0321500D01*
X0236500Y0321500D01*
X0241500Y0321524D02*
X0251500Y0321524D01*
X0251511Y0322522D02*
X0241489Y0322522D01*
X0241075Y0323521D02*
X0251925Y0323521D01*
X0252448Y0324519D02*
X0240552Y0324519D01*
X0239553Y0325518D02*
X0253447Y0325518D01*
X0251500Y0320525D02*
X0241500Y0320525D01*
X0241095Y0319527D02*
X0251905Y0319527D01*
X0252401Y0318528D02*
X0240599Y0318528D01*
X0239601Y0317530D02*
X0253399Y0317530D01*
X0258702Y0317000D02*
X0259332Y0317261D01*
X0260739Y0318668D01*
X0261500Y0320505D01*
X0261500Y0322495D01*
X0261500Y0320505D01*
X0262261Y0318668D01*
X0263668Y0317261D01*
X0264298Y0317000D01*
X0258702Y0317000D01*
X0259601Y0317530D02*
X0263399Y0317530D01*
X0262401Y0318528D02*
X0260599Y0318528D01*
X0261095Y0319527D02*
X0261905Y0319527D01*
X0261500Y0320525D02*
X0261500Y0320525D01*
X0261500Y0321524D02*
X0261500Y0321524D01*
X0261489Y0322522D02*
X0261511Y0322522D01*
X0261925Y0323521D02*
X0261075Y0323521D01*
X0260552Y0324519D02*
X0262448Y0324519D01*
X0263447Y0325518D02*
X0259553Y0325518D01*
X0269553Y0325518D02*
X0273447Y0325518D01*
X0272448Y0324519D02*
X0270552Y0324519D01*
X0271075Y0323521D02*
X0271925Y0323521D01*
X0271511Y0322522D02*
X0271489Y0322522D01*
X0271500Y0322495D02*
X0271500Y0320505D01*
X0270739Y0318668D01*
X0269332Y0317261D01*
X0268702Y0317000D01*
X0274298Y0317000D01*
X0273668Y0317261D01*
X0272261Y0318668D01*
X0271500Y0320505D01*
X0271500Y0322495D01*
X0271500Y0321524D02*
X0271500Y0321524D01*
X0271500Y0320525D02*
X0271500Y0320525D01*
X0271095Y0319527D02*
X0271905Y0319527D01*
X0272401Y0318528D02*
X0270599Y0318528D01*
X0269601Y0317530D02*
X0273399Y0317530D01*
X0291923Y0322522D02*
X0292500Y0322522D01*
X0299937Y0326516D02*
X0315945Y0326516D01*
X0314947Y0325518D02*
X0301167Y0325518D01*
X0301916Y0324519D02*
X0314424Y0324519D01*
X0314011Y0323521D02*
X0302329Y0323521D01*
X0302500Y0322522D02*
X0314000Y0322522D01*
X0314000Y0321524D02*
X0302500Y0321524D01*
X0302254Y0320525D02*
X0313880Y0320525D01*
X0312881Y0319527D02*
X0301840Y0319527D01*
X0320042Y0308543D02*
X0150203Y0308543D01*
X0151201Y0307544D02*
X0319700Y0307544D01*
X0319700Y0306546D02*
X0217025Y0306546D01*
X0218024Y0305547D02*
X0320088Y0305547D01*
X0320967Y0304549D02*
X0218563Y0304549D01*
X0218977Y0303550D02*
X0321205Y0303550D01*
X0320206Y0302552D02*
X0219000Y0302552D01*
X0219000Y0301553D02*
X0319208Y0301553D01*
X0318209Y0300555D02*
X0218606Y0300555D01*
X0218127Y0299556D02*
X0317211Y0299556D01*
X0321008Y0295562D02*
X0329855Y0295562D01*
X0327868Y0296561D02*
X0322006Y0296561D01*
X0323005Y0297559D02*
X0326870Y0297559D01*
X0326392Y0298558D02*
X0324003Y0298558D01*
X0325002Y0299556D02*
X0326000Y0299556D01*
X0332145Y0295562D02*
X0339369Y0295562D01*
X0340500Y0295562D02*
X0341500Y0295562D01*
X0341500Y0296561D02*
X0340500Y0296561D01*
X0340500Y0297559D02*
X0341500Y0297559D01*
X0341500Y0298558D02*
X0340500Y0298558D01*
X0340500Y0299556D02*
X0341500Y0299556D01*
X0341000Y0300500D02*
X0340800Y0293400D01*
X0338100Y0293400D01*
X0320100Y0281900D01*
X0183300Y0281900D01*
X0182829Y0281583D02*
X0189438Y0281583D01*
X0188439Y0280585D02*
X0181830Y0280585D01*
X0181721Y0279586D02*
X0180832Y0279586D01*
X0180199Y0278588D02*
X0179833Y0278588D01*
X0179450Y0277589D02*
X0178835Y0277589D01*
X0179036Y0276591D02*
X0177836Y0276591D01*
X0177513Y0275592D02*
X0178976Y0275592D01*
X0178976Y0274594D02*
X0177513Y0274594D01*
X0177513Y0273595D02*
X0178976Y0273595D01*
X0178976Y0272597D02*
X0177513Y0272597D01*
X0177513Y0271598D02*
X0178976Y0271598D01*
X0178976Y0270600D02*
X0177513Y0270600D01*
X0177513Y0269601D02*
X0178976Y0269601D01*
X0179063Y0268603D02*
X0177427Y0268603D01*
X0177013Y0267604D02*
X0179476Y0267604D01*
X0180263Y0266605D02*
X0176227Y0266605D01*
X0174614Y0265607D02*
X0181876Y0265607D01*
X0184614Y0265607D02*
X0191400Y0265607D01*
X0190263Y0266605D02*
X0186227Y0266605D01*
X0187013Y0267604D02*
X0189476Y0267604D01*
X0189063Y0268603D02*
X0187427Y0268603D01*
X0187513Y0269601D02*
X0188976Y0269601D01*
X0188976Y0270600D02*
X0187513Y0270600D01*
X0187513Y0271598D02*
X0188976Y0271598D01*
X0193200Y0272000D02*
X0193245Y0272629D01*
X0193200Y0272000D02*
X0193200Y0234200D01*
X0200400Y0227000D01*
X0383100Y0227000D01*
X0390300Y0219800D01*
X0391090Y0219210D01*
X0387548Y0215681D02*
X0356229Y0215681D01*
X0357014Y0214683D02*
X0388954Y0214683D01*
X0388827Y0213684D02*
X0357428Y0213684D01*
X0357513Y0212686D02*
X0387495Y0212686D01*
X0386704Y0211687D02*
X0357475Y0211687D01*
X0357061Y0210689D02*
X0386291Y0210689D01*
X0386090Y0209690D02*
X0356343Y0209690D01*
X0354895Y0208692D02*
X0386090Y0208692D01*
X0386307Y0207693D02*
X0111639Y0207693D01*
X0110640Y0206695D02*
X0341907Y0206695D01*
X0340276Y0205696D02*
X0109642Y0205696D01*
X0108643Y0204698D02*
X0339482Y0204698D01*
X0339068Y0203699D02*
X0107645Y0203699D01*
X0106646Y0202701D02*
X0338976Y0202701D01*
X0339008Y0201702D02*
X0105648Y0201702D01*
X0104649Y0200704D02*
X0339422Y0200704D01*
X0340132Y0199705D02*
X0103651Y0199705D01*
X0102652Y0198707D02*
X0341559Y0198707D01*
X0341595Y0208692D02*
X0112637Y0208692D01*
X0113636Y0209690D02*
X0340146Y0209690D01*
X0339428Y0210689D02*
X0114634Y0210689D01*
X0115633Y0211687D02*
X0339014Y0211687D01*
X0338976Y0212686D02*
X0116631Y0212686D01*
X0117630Y0213684D02*
X0339062Y0213684D01*
X0339476Y0214683D02*
X0118628Y0214683D01*
X0119627Y0215681D02*
X0340261Y0215681D01*
X0339469Y0224668D02*
X0018303Y0224668D01*
X0016883Y0224080D02*
X0014894Y0224080D01*
X0013056Y0224841D01*
X0012300Y0225597D01*
X0012300Y0222562D01*
X0013056Y0223318D01*
X0014894Y0224080D01*
X0016883Y0224080D01*
X0013904Y0223670D02*
X0012300Y0223670D01*
X0012300Y0224668D02*
X0013473Y0224668D01*
X0012409Y0222671D02*
X0012300Y0222671D01*
X0019546Y0225667D02*
X0199188Y0225667D01*
X0198189Y0226665D02*
X0020300Y0226665D01*
X0020714Y0227664D02*
X0197191Y0227664D01*
X0196192Y0228662D02*
X0020888Y0228662D01*
X0020888Y0229661D02*
X0195194Y0229661D01*
X0194195Y0230659D02*
X0020646Y0230659D01*
X0020232Y0231658D02*
X0193197Y0231658D01*
X0192198Y0232656D02*
X0019383Y0232656D01*
X0017909Y0233655D02*
X0191400Y0233655D01*
X0191400Y0234653D02*
X0018267Y0234653D01*
X0016883Y0234080D02*
X0014894Y0234080D01*
X0013056Y0234841D01*
X0012300Y0235597D01*
X0012300Y0232562D01*
X0013056Y0233318D01*
X0014894Y0234080D01*
X0016883Y0234080D01*
X0013868Y0233655D02*
X0012300Y0233655D01*
X0012300Y0234653D02*
X0013509Y0234653D01*
X0012394Y0232656D02*
X0012300Y0232656D01*
X0019531Y0235652D02*
X0191400Y0235652D01*
X0191400Y0236650D02*
X0020294Y0236650D01*
X0020708Y0237649D02*
X0191400Y0237649D01*
X0191400Y0238647D02*
X0020888Y0238647D01*
X0020888Y0239646D02*
X0191400Y0239646D01*
X0191400Y0240644D02*
X0020652Y0240644D01*
X0020239Y0241643D02*
X0070632Y0241643D01*
X0070922Y0241353D02*
X0072429Y0240729D01*
X0074060Y0240729D01*
X0075567Y0241353D01*
X0076721Y0242506D01*
X0077345Y0244013D01*
X0077345Y0251244D01*
X0076721Y0252751D01*
X0075567Y0253904D01*
X0074060Y0254529D01*
X0072429Y0254529D01*
X0070922Y0253904D01*
X0069769Y0252751D01*
X0069145Y0251244D01*
X0069145Y0244013D01*
X0069769Y0242506D01*
X0070922Y0241353D01*
X0069713Y0242641D02*
X0019398Y0242641D01*
X0017945Y0243640D02*
X0069299Y0243640D01*
X0069145Y0244638D02*
X0018231Y0244638D01*
X0016883Y0244080D02*
X0014894Y0244080D01*
X0013056Y0244841D01*
X0012300Y0245597D01*
X0012300Y0242562D01*
X0013056Y0243318D01*
X0014894Y0244080D01*
X0016883Y0244080D01*
X0019516Y0245637D02*
X0069145Y0245637D01*
X0069145Y0246635D02*
X0020288Y0246635D01*
X0020701Y0247634D02*
X0069145Y0247634D01*
X0069145Y0248632D02*
X0020888Y0248632D01*
X0020888Y0249631D02*
X0069145Y0249631D01*
X0069145Y0250629D02*
X0020658Y0250629D01*
X0020245Y0251628D02*
X0069304Y0251628D01*
X0069717Y0252626D02*
X0019413Y0252626D01*
X0017981Y0253625D02*
X0070643Y0253625D01*
X0075847Y0253625D02*
X0080643Y0253625D01*
X0080922Y0253904D02*
X0079769Y0252751D01*
X0079145Y0251244D01*
X0079145Y0244013D01*
X0079769Y0242506D01*
X0080922Y0241353D01*
X0082429Y0240729D01*
X0084060Y0240729D01*
X0085567Y0241353D01*
X0086721Y0242506D01*
X0087345Y0244013D01*
X0087345Y0251244D01*
X0086721Y0252751D01*
X0085567Y0253904D01*
X0084060Y0254529D01*
X0082429Y0254529D01*
X0080922Y0253904D01*
X0079717Y0252626D02*
X0076772Y0252626D01*
X0077186Y0251628D02*
X0079304Y0251628D01*
X0079145Y0250629D02*
X0077345Y0250629D01*
X0077345Y0249631D02*
X0079145Y0249631D01*
X0079145Y0248632D02*
X0077345Y0248632D01*
X0077345Y0247634D02*
X0079145Y0247634D01*
X0079145Y0246635D02*
X0077345Y0246635D01*
X0077345Y0245637D02*
X0079145Y0245637D01*
X0079145Y0244638D02*
X0077345Y0244638D01*
X0077190Y0243640D02*
X0079299Y0243640D01*
X0079713Y0242641D02*
X0076777Y0242641D01*
X0075857Y0241643D02*
X0080632Y0241643D01*
X0085857Y0241643D02*
X0090632Y0241643D01*
X0090922Y0241353D02*
X0092429Y0240729D01*
X0094060Y0240729D01*
X0095567Y0241353D01*
X0096721Y0242506D01*
X0097345Y0244013D01*
X0097345Y0251244D01*
X0096721Y0252751D01*
X0095567Y0253904D01*
X0094060Y0254529D01*
X0092429Y0254529D01*
X0090922Y0253904D01*
X0089769Y0252751D01*
X0089145Y0251244D01*
X0089145Y0244013D01*
X0089769Y0242506D01*
X0090922Y0241353D01*
X0089713Y0242641D02*
X0086777Y0242641D01*
X0087190Y0243640D02*
X0089299Y0243640D01*
X0089145Y0244638D02*
X0087345Y0244638D01*
X0087345Y0245637D02*
X0089145Y0245637D01*
X0089145Y0246635D02*
X0087345Y0246635D01*
X0087345Y0247634D02*
X0089145Y0247634D01*
X0089145Y0248632D02*
X0087345Y0248632D01*
X0087345Y0249631D02*
X0089145Y0249631D01*
X0089145Y0250629D02*
X0087345Y0250629D01*
X0087186Y0251628D02*
X0089304Y0251628D01*
X0089717Y0252626D02*
X0086772Y0252626D01*
X0085847Y0253625D02*
X0090643Y0253625D01*
X0095847Y0253625D02*
X0100643Y0253625D01*
X0100922Y0253904D02*
X0099769Y0252751D01*
X0099145Y0251244D01*
X0099145Y0244013D01*
X0099769Y0242506D01*
X0100922Y0241353D01*
X0102429Y0240729D01*
X0104060Y0240729D01*
X0105567Y0241353D01*
X0106721Y0242506D01*
X0107345Y0244013D01*
X0107345Y0251244D01*
X0106721Y0252751D01*
X0105567Y0253904D01*
X0104060Y0254529D01*
X0102429Y0254529D01*
X0100922Y0253904D01*
X0099717Y0252626D02*
X0096772Y0252626D01*
X0097186Y0251628D02*
X0099304Y0251628D01*
X0099145Y0250629D02*
X0097345Y0250629D01*
X0097345Y0249631D02*
X0099145Y0249631D01*
X0099145Y0248632D02*
X0097345Y0248632D01*
X0097345Y0247634D02*
X0099145Y0247634D01*
X0099145Y0246635D02*
X0097345Y0246635D01*
X0097345Y0245637D02*
X0099145Y0245637D01*
X0099145Y0244638D02*
X0097345Y0244638D01*
X0097190Y0243640D02*
X0099299Y0243640D01*
X0099713Y0242641D02*
X0096777Y0242641D01*
X0095857Y0241643D02*
X0100632Y0241643D01*
X0105857Y0241643D02*
X0191400Y0241643D01*
X0191400Y0242641D02*
X0106777Y0242641D01*
X0107190Y0243640D02*
X0191400Y0243640D01*
X0191400Y0244638D02*
X0107345Y0244638D01*
X0107345Y0245637D02*
X0191400Y0245637D01*
X0191400Y0246635D02*
X0107345Y0246635D01*
X0107345Y0247634D02*
X0191400Y0247634D01*
X0191400Y0248632D02*
X0107345Y0248632D01*
X0107345Y0249631D02*
X0191400Y0249631D01*
X0191400Y0250629D02*
X0107345Y0250629D01*
X0107186Y0251628D02*
X0191400Y0251628D01*
X0191400Y0252626D02*
X0106772Y0252626D01*
X0105847Y0253625D02*
X0191400Y0253625D01*
X0191400Y0254623D02*
X0017700Y0254623D01*
X0017700Y0255622D02*
X0191400Y0255622D01*
X0191400Y0256620D02*
X0017700Y0256620D01*
X0014100Y0256620D02*
X0012300Y0256620D01*
X0012300Y0255622D02*
X0014100Y0255622D01*
X0014100Y0254623D02*
X0012300Y0254623D01*
X0012300Y0253625D02*
X0013796Y0253625D01*
X0012364Y0252626D02*
X0012300Y0252626D01*
X0015900Y0249500D02*
X0015888Y0249080D01*
X0015900Y0249500D02*
X0015900Y0286400D01*
X0033000Y0303500D01*
X0033771Y0304172D01*
X0031848Y0299556D02*
X0031602Y0299556D01*
X0024514Y0297559D02*
X0019705Y0297559D01*
X0018706Y0296561D02*
X0023515Y0296561D01*
X0022517Y0295562D02*
X0017708Y0295562D01*
X0016709Y0294564D02*
X0021518Y0294564D01*
X0020520Y0293565D02*
X0015711Y0293565D01*
X0014712Y0292567D02*
X0019521Y0292567D01*
X0018523Y0291568D02*
X0013714Y0291568D01*
X0012715Y0290570D02*
X0017524Y0290570D01*
X0016526Y0289571D02*
X0012300Y0289571D01*
X0012300Y0288573D02*
X0015527Y0288573D01*
X0014529Y0287574D02*
X0012300Y0287574D01*
X0012300Y0286576D02*
X0014100Y0286576D01*
X0014100Y0285577D02*
X0012300Y0285577D01*
X0012300Y0284579D02*
X0014100Y0284579D01*
X0014100Y0283580D02*
X0012300Y0283580D01*
X0012300Y0282582D02*
X0014100Y0282582D01*
X0014100Y0281583D02*
X0012300Y0281583D01*
X0012300Y0280585D02*
X0014100Y0280585D01*
X0014100Y0279586D02*
X0012300Y0279586D01*
X0012300Y0278588D02*
X0014100Y0278588D01*
X0014100Y0277589D02*
X0012300Y0277589D01*
X0012300Y0276591D02*
X0014100Y0276591D01*
X0014100Y0275592D02*
X0012300Y0275592D01*
X0012300Y0274594D02*
X0014100Y0274594D01*
X0014100Y0273595D02*
X0012300Y0273595D01*
X0012300Y0272597D02*
X0014100Y0272597D01*
X0014100Y0271598D02*
X0012300Y0271598D01*
X0012300Y0270600D02*
X0014100Y0270600D01*
X0014100Y0269601D02*
X0012300Y0269601D01*
X0012300Y0268603D02*
X0014100Y0268603D01*
X0014100Y0267604D02*
X0012300Y0267604D01*
X0012300Y0266605D02*
X0014100Y0266605D01*
X0014100Y0265607D02*
X0012300Y0265607D01*
X0012300Y0264608D02*
X0014100Y0264608D01*
X0014100Y0263610D02*
X0012300Y0263610D01*
X0012300Y0262611D02*
X0014100Y0262611D01*
X0014100Y0261613D02*
X0012300Y0261613D01*
X0012300Y0260614D02*
X0014100Y0260614D01*
X0014100Y0259616D02*
X0012300Y0259616D01*
X0012300Y0258617D02*
X0014100Y0258617D01*
X0014100Y0257619D02*
X0012300Y0257619D01*
X0012300Y0244638D02*
X0013545Y0244638D01*
X0013832Y0243640D02*
X0012300Y0243640D01*
X0012300Y0242641D02*
X0012379Y0242641D01*
X0010500Y0293446D02*
X0010500Y0298972D01*
X0013271Y0298972D01*
X0013271Y0303672D01*
X0014271Y0303672D01*
X0014271Y0298972D01*
X0016026Y0298972D01*
X0010500Y0293446D01*
X0010500Y0293565D02*
X0010620Y0293565D01*
X0010500Y0294564D02*
X0011618Y0294564D01*
X0012617Y0295562D02*
X0010500Y0295562D01*
X0010500Y0296561D02*
X0013615Y0296561D01*
X0014614Y0297559D02*
X0010500Y0297559D01*
X0010500Y0298558D02*
X0015612Y0298558D01*
X0014271Y0299556D02*
X0013271Y0299556D01*
X0013271Y0300555D02*
X0014271Y0300555D01*
X0014271Y0301553D02*
X0013271Y0301553D01*
X0013271Y0302552D02*
X0014271Y0302552D01*
X0014271Y0303550D02*
X0013271Y0303550D01*
X0013271Y0305547D02*
X0014271Y0305547D01*
X0023100Y0323300D02*
X0073500Y0323300D01*
X0074000Y0324000D01*
X0078100Y0323521D02*
X0079900Y0323521D01*
X0079900Y0324519D02*
X0078100Y0324519D01*
X0078100Y0325518D02*
X0079900Y0325518D01*
X0079900Y0326516D02*
X0078100Y0326516D01*
X0078100Y0327515D02*
X0079900Y0327515D01*
X0079900Y0327616D02*
X0080524Y0329122D01*
X0081678Y0330276D01*
X0083184Y0330900D01*
X0084816Y0330900D01*
X0086322Y0330276D01*
X0087476Y0329122D01*
X0088100Y0327616D01*
X0088100Y0320384D01*
X0087476Y0318878D01*
X0086322Y0317724D01*
X0084816Y0317100D01*
X0083184Y0317100D01*
X0081678Y0317724D01*
X0080524Y0318878D01*
X0079900Y0320384D01*
X0079900Y0327616D01*
X0080272Y0328513D02*
X0077728Y0328513D01*
X0077087Y0329512D02*
X0080913Y0329512D01*
X0082243Y0330510D02*
X0075757Y0330510D01*
X0085757Y0330510D02*
X0140265Y0330510D01*
X0139266Y0329512D02*
X0087087Y0329512D01*
X0087728Y0328513D02*
X0138268Y0328513D01*
X0137269Y0327515D02*
X0088100Y0327515D01*
X0088100Y0326516D02*
X0136271Y0326516D01*
X0135272Y0325518D02*
X0088100Y0325518D01*
X0088100Y0324519D02*
X0134274Y0324519D01*
X0133275Y0323521D02*
X0088100Y0323521D01*
X0088100Y0322522D02*
X0132277Y0322522D01*
X0131278Y0321524D02*
X0088100Y0321524D01*
X0088100Y0320525D02*
X0130280Y0320525D01*
X0129281Y0319527D02*
X0087745Y0319527D01*
X0087126Y0318528D02*
X0128283Y0318528D01*
X0127284Y0317530D02*
X0085853Y0317530D01*
X0082147Y0317530D02*
X0075853Y0317530D01*
X0077126Y0318528D02*
X0080874Y0318528D01*
X0080255Y0319527D02*
X0077745Y0319527D01*
X0078100Y0320525D02*
X0079900Y0320525D01*
X0079900Y0321524D02*
X0078100Y0321524D01*
X0078100Y0322522D02*
X0079900Y0322522D01*
X0111012Y0292567D02*
X0180621Y0292567D01*
X0179623Y0291568D02*
X0110014Y0291568D01*
X0109015Y0290570D02*
X0178624Y0290570D01*
X0177626Y0289571D02*
X0108017Y0289571D01*
X0107018Y0288573D02*
X0176627Y0288573D01*
X0175629Y0287574D02*
X0106020Y0287574D01*
X0105021Y0286576D02*
X0174630Y0286576D01*
X0173632Y0285577D02*
X0104023Y0285577D01*
X0103024Y0284579D02*
X0172633Y0284579D01*
X0171635Y0283580D02*
X0102026Y0283580D01*
X0101027Y0282582D02*
X0170636Y0282582D01*
X0167641Y0279586D02*
X0164769Y0279586D01*
X0166291Y0278588D02*
X0166642Y0278588D01*
X0168738Y0275592D02*
X0168976Y0275592D01*
X0168976Y0274594D02*
X0167739Y0274594D01*
X0167513Y0273595D02*
X0168976Y0273595D01*
X0168976Y0272597D02*
X0167513Y0272597D01*
X0167513Y0271598D02*
X0168976Y0271598D01*
X0168976Y0270600D02*
X0167513Y0270600D01*
X0167513Y0269601D02*
X0168976Y0269601D01*
X0169063Y0268603D02*
X0167427Y0268603D01*
X0167013Y0267604D02*
X0169476Y0267604D01*
X0170263Y0266605D02*
X0166227Y0266605D01*
X0164614Y0265607D02*
X0171876Y0265607D01*
X0173245Y0272629D02*
X0173400Y0272900D01*
X0173400Y0274700D01*
X0194100Y0295400D01*
X0318300Y0295400D01*
X0329100Y0306200D01*
X0393000Y0306200D01*
X0387829Y0304400D02*
X0386761Y0303332D01*
X0386000Y0301495D01*
X0386000Y0299505D01*
X0386000Y0301495D01*
X0385239Y0303332D01*
X0384171Y0304400D01*
X0387829Y0304400D01*
X0386979Y0303550D02*
X0385021Y0303550D01*
X0385562Y0302552D02*
X0386438Y0302552D01*
X0386024Y0301553D02*
X0385976Y0301553D01*
X0386000Y0300555D02*
X0386000Y0300555D01*
X0386000Y0299556D02*
X0386000Y0299556D01*
X0385607Y0298558D02*
X0386392Y0298558D01*
X0386870Y0297559D02*
X0385130Y0297559D01*
X0384132Y0296561D02*
X0387868Y0296561D01*
X0389855Y0295562D02*
X0382145Y0295562D01*
X0379855Y0295562D02*
X0372300Y0295562D01*
X0374132Y0296561D02*
X0377868Y0296561D01*
X0376870Y0297559D02*
X0375130Y0297559D01*
X0375607Y0298558D02*
X0376392Y0298558D01*
X0376000Y0299505D02*
X0376000Y0301495D01*
X0376761Y0303332D01*
X0377829Y0304400D01*
X0374171Y0304400D01*
X0375239Y0303332D01*
X0376000Y0301495D01*
X0376000Y0299505D01*
X0376000Y0299556D02*
X0376000Y0299556D01*
X0376000Y0300555D02*
X0376000Y0300555D01*
X0375976Y0301553D02*
X0376024Y0301553D01*
X0376438Y0302552D02*
X0375562Y0302552D01*
X0375021Y0303550D02*
X0376979Y0303550D01*
X0371000Y0300500D02*
X0370500Y0299900D01*
X0370500Y0263000D01*
X0355200Y0247700D01*
X0351600Y0247700D01*
X0347100Y0252200D01*
X0343500Y0252200D01*
X0343245Y0252629D01*
X0346288Y0255622D02*
X0350201Y0255622D01*
X0349451Y0254623D02*
X0347039Y0254623D01*
X0348221Y0253625D02*
X0349037Y0253625D01*
X0351600Y0256620D02*
X0344762Y0256620D01*
X0344094Y0258360D02*
X0345663Y0259010D01*
X0346863Y0260211D01*
X0347513Y0261780D01*
X0347513Y0263478D01*
X0346863Y0265047D01*
X0345663Y0266247D01*
X0344094Y0266897D01*
X0342396Y0266897D01*
X0340827Y0266247D01*
X0339626Y0265047D01*
X0338976Y0263478D01*
X0338976Y0261780D01*
X0339626Y0260211D01*
X0340827Y0259010D01*
X0342396Y0258360D01*
X0344094Y0258360D01*
X0344715Y0258617D02*
X0351775Y0258617D01*
X0351773Y0257619D02*
X0251527Y0257619D01*
X0252525Y0256620D02*
X0341728Y0256620D01*
X0340201Y0255622D02*
X0253524Y0255622D01*
X0254522Y0254623D02*
X0339451Y0254623D01*
X0339037Y0253625D02*
X0255521Y0253625D01*
X0256519Y0252626D02*
X0338976Y0252626D01*
X0339039Y0251628D02*
X0257518Y0251628D01*
X0258516Y0250629D02*
X0339453Y0250629D01*
X0340206Y0249631D02*
X0259515Y0249631D01*
X0260513Y0248632D02*
X0341739Y0248632D01*
X0341764Y0246635D02*
X0262510Y0246635D01*
X0261512Y0247634D02*
X0349121Y0247634D01*
X0350119Y0246635D02*
X0344726Y0246635D01*
X0346273Y0245637D02*
X0350216Y0245637D01*
X0349457Y0244638D02*
X0347033Y0244638D01*
X0347446Y0243640D02*
X0349043Y0243640D01*
X0348976Y0242641D02*
X0347513Y0242641D01*
X0347457Y0241643D02*
X0349033Y0241643D01*
X0349447Y0240644D02*
X0347043Y0240644D01*
X0346298Y0239646D02*
X0350191Y0239646D01*
X0357026Y0234653D02*
X0382801Y0234653D01*
X0383800Y0233655D02*
X0357440Y0233655D01*
X0357513Y0232656D02*
X0384798Y0232656D01*
X0385797Y0231658D02*
X0357463Y0231658D01*
X0357049Y0230659D02*
X0386278Y0230659D01*
X0387892Y0234653D02*
X0389026Y0234653D01*
X0394588Y0245637D02*
X0403921Y0245637D01*
X0403921Y0246635D02*
X0395436Y0246635D01*
X0395849Y0247634D02*
X0403921Y0247634D01*
X0403921Y0248632D02*
X0396090Y0248632D01*
X0396090Y0249631D02*
X0403921Y0249631D01*
X0403921Y0250629D02*
X0395914Y0250629D01*
X0395873Y0251628D02*
X0403921Y0251628D01*
X0403921Y0252626D02*
X0396872Y0252626D01*
X0397870Y0253625D02*
X0403921Y0253625D01*
X0403921Y0254623D02*
X0398869Y0254623D01*
X0399146Y0254900D02*
X0399146Y0254900D01*
X0399867Y0255622D02*
X0403921Y0255622D01*
X0403921Y0256620D02*
X0400200Y0256620D01*
X0400200Y0257619D02*
X0403921Y0257619D01*
X0403921Y0258617D02*
X0400200Y0258617D01*
X0400200Y0259616D02*
X0403921Y0259616D01*
X0403921Y0260614D02*
X0400200Y0260614D01*
X0400200Y0261613D02*
X0403921Y0261613D01*
X0403921Y0262611D02*
X0400200Y0262611D01*
X0400200Y0263610D02*
X0403921Y0263610D01*
X0403921Y0264608D02*
X0400200Y0264608D01*
X0400200Y0265607D02*
X0403921Y0265607D01*
X0403921Y0266605D02*
X0400200Y0266605D01*
X0400200Y0267604D02*
X0403921Y0267604D01*
X0403921Y0268603D02*
X0400200Y0268603D01*
X0400200Y0269601D02*
X0403921Y0269601D01*
X0403921Y0270600D02*
X0400200Y0270600D01*
X0400200Y0271598D02*
X0403921Y0271598D01*
X0403921Y0272597D02*
X0400200Y0272597D01*
X0400200Y0273595D02*
X0403921Y0273595D01*
X0403921Y0274594D02*
X0400200Y0274594D01*
X0400200Y0275592D02*
X0403921Y0275592D01*
X0403921Y0276591D02*
X0400200Y0276591D01*
X0400200Y0277589D02*
X0403921Y0277589D01*
X0403921Y0278588D02*
X0400200Y0278588D01*
X0400200Y0279586D02*
X0403921Y0279586D01*
X0403921Y0280585D02*
X0400200Y0280585D01*
X0400200Y0281583D02*
X0403921Y0281583D01*
X0403921Y0282582D02*
X0400200Y0282582D01*
X0400200Y0283580D02*
X0403921Y0283580D01*
X0403921Y0284579D02*
X0400200Y0284579D01*
X0400200Y0285577D02*
X0403921Y0285577D01*
X0403921Y0286576D02*
X0400200Y0286576D01*
X0400200Y0287574D02*
X0403921Y0287574D01*
X0403921Y0288573D02*
X0400200Y0288573D01*
X0400200Y0289571D02*
X0403921Y0289571D01*
X0403921Y0290570D02*
X0400200Y0290570D01*
X0400200Y0291568D02*
X0403921Y0291568D01*
X0403921Y0292567D02*
X0400200Y0292567D01*
X0400200Y0293565D02*
X0403921Y0293565D01*
X0403921Y0294564D02*
X0400200Y0294564D01*
X0400200Y0295562D02*
X0403921Y0295562D01*
X0396600Y0279354D02*
X0396600Y0257446D01*
X0392990Y0253835D01*
X0392085Y0254210D01*
X0390096Y0254210D01*
X0392085Y0254210D01*
X0393923Y0254971D01*
X0395329Y0256378D01*
X0396090Y0258216D01*
X0396090Y0260205D01*
X0395329Y0262042D01*
X0393923Y0263449D01*
X0392272Y0264132D01*
X0392308Y0264138D01*
X0393086Y0264391D01*
X0393816Y0264763D01*
X0394478Y0265244D01*
X0395057Y0265823D01*
X0395538Y0266485D01*
X0395909Y0267214D01*
X0396162Y0267992D01*
X0396276Y0268710D01*
X0391590Y0268710D01*
X0391590Y0269710D01*
X0396276Y0269710D01*
X0396162Y0270428D01*
X0395909Y0271206D01*
X0395538Y0271936D01*
X0395057Y0272598D01*
X0394478Y0273176D01*
X0393816Y0273658D01*
X0393086Y0274029D01*
X0392308Y0274282D01*
X0391634Y0274389D01*
X0396600Y0279354D01*
X0396600Y0278588D02*
X0395833Y0278588D01*
X0396600Y0277589D02*
X0394835Y0277589D01*
X0393836Y0276591D02*
X0396600Y0276591D01*
X0396600Y0275592D02*
X0392838Y0275592D01*
X0391839Y0274594D02*
X0396600Y0274594D01*
X0396600Y0273595D02*
X0393902Y0273595D01*
X0395057Y0272597D02*
X0396600Y0272597D01*
X0396600Y0271598D02*
X0395710Y0271598D01*
X0396106Y0270600D02*
X0396600Y0270600D01*
X0396600Y0269601D02*
X0391590Y0269601D01*
X0396259Y0268603D02*
X0396600Y0268603D01*
X0396600Y0267604D02*
X0396036Y0267604D01*
X0395599Y0266605D02*
X0396600Y0266605D01*
X0396600Y0265607D02*
X0394841Y0265607D01*
X0393513Y0264608D02*
X0396600Y0264608D01*
X0396600Y0263610D02*
X0393534Y0263610D01*
X0394760Y0262611D02*
X0396600Y0262611D01*
X0396600Y0261613D02*
X0395507Y0261613D01*
X0395921Y0260614D02*
X0396600Y0260614D01*
X0396600Y0259616D02*
X0396090Y0259616D01*
X0396090Y0258617D02*
X0396600Y0258617D01*
X0396600Y0257619D02*
X0395843Y0257619D01*
X0395775Y0256620D02*
X0395429Y0256620D01*
X0394776Y0255622D02*
X0394573Y0255622D01*
X0393778Y0254623D02*
X0393082Y0254623D01*
X0390096Y0254210D02*
X0388258Y0254971D01*
X0387600Y0255629D01*
X0387600Y0252791D01*
X0388258Y0253449D01*
X0390096Y0254210D01*
X0389098Y0254623D02*
X0387600Y0254623D01*
X0387600Y0253625D02*
X0388683Y0253625D01*
X0387607Y0255622D02*
X0387600Y0255622D01*
X0360600Y0263900D02*
X0360600Y0299900D01*
X0361000Y0300500D01*
X0356392Y0298558D02*
X0355607Y0298558D01*
X0356000Y0299505D02*
X0356000Y0301495D01*
X0356000Y0299505D01*
X0356000Y0299556D02*
X0356000Y0299556D01*
X0356000Y0300555D02*
X0356000Y0300555D01*
X0356000Y0301495D02*
X0356761Y0303332D01*
X0357829Y0304400D01*
X0354171Y0304400D01*
X0355239Y0303332D01*
X0356000Y0301495D01*
X0355976Y0301553D02*
X0356024Y0301553D01*
X0356438Y0302552D02*
X0355562Y0302552D01*
X0355021Y0303550D02*
X0356979Y0303550D01*
X0356870Y0297559D02*
X0355130Y0297559D01*
X0354132Y0296561D02*
X0357868Y0296561D01*
X0358800Y0295562D02*
X0352145Y0295562D01*
X0349855Y0295562D02*
X0342631Y0295562D01*
X0344415Y0296561D02*
X0347868Y0296561D01*
X0346870Y0297559D02*
X0345291Y0297559D01*
X0345837Y0298558D02*
X0346392Y0298558D01*
X0337585Y0296561D02*
X0334132Y0296561D01*
X0335130Y0297559D02*
X0336709Y0297559D01*
X0336163Y0298558D02*
X0335607Y0298558D01*
X0326197Y0308543D02*
X0325558Y0308543D01*
X0324743Y0309541D02*
X0327196Y0309541D01*
X0322800Y0307100D02*
X0322800Y0315200D01*
X0232800Y0315200D01*
X0226500Y0321500D01*
X0231500Y0321524D02*
X0231500Y0321524D01*
X0231500Y0322495D02*
X0231500Y0320505D01*
X0231072Y0319473D01*
X0233546Y0317000D01*
X0234298Y0317000D01*
X0233668Y0317261D01*
X0232261Y0318668D01*
X0231500Y0320505D01*
X0231500Y0322495D01*
X0231489Y0322522D02*
X0231511Y0322522D01*
X0231834Y0323521D02*
X0231075Y0323521D01*
X0230835Y0324519D02*
X0230552Y0324519D01*
X0229837Y0325518D02*
X0229553Y0325518D01*
X0228838Y0326516D02*
X0173450Y0326516D01*
X0173450Y0325518D02*
X0223447Y0325518D01*
X0222448Y0324519D02*
X0173450Y0324519D01*
X0173450Y0323521D02*
X0221925Y0323521D01*
X0221511Y0322522D02*
X0172815Y0322522D01*
X0171817Y0321524D02*
X0221500Y0321524D01*
X0221500Y0320525D02*
X0166120Y0320525D01*
X0166183Y0321524D02*
X0153460Y0321524D01*
X0152187Y0322522D02*
X0165185Y0322522D01*
X0164550Y0323521D02*
X0152766Y0323521D01*
X0153765Y0324519D02*
X0164550Y0324519D01*
X0164550Y0325518D02*
X0154763Y0325518D01*
X0155762Y0326516D02*
X0164550Y0326516D01*
X0165221Y0327515D02*
X0156760Y0327515D01*
X0156300Y0329600D02*
X0228300Y0329600D01*
X0227840Y0327515D02*
X0172779Y0327515D01*
X0167119Y0319527D02*
X0221905Y0319527D01*
X0222401Y0318528D02*
X0171765Y0318528D01*
X0172764Y0317530D02*
X0223399Y0317530D01*
X0225430Y0316531D02*
X0173450Y0316531D01*
X0173450Y0315533D02*
X0229922Y0315533D01*
X0228923Y0316531D02*
X0227570Y0316531D01*
X0230920Y0314534D02*
X0173450Y0314534D01*
X0173450Y0313536D02*
X0231919Y0313536D01*
X0233016Y0317530D02*
X0233399Y0317530D01*
X0232401Y0318528D02*
X0232017Y0318528D01*
X0231905Y0319527D02*
X0231095Y0319527D01*
X0231500Y0320525D02*
X0231500Y0320525D01*
X0210975Y0306546D02*
X0207025Y0306546D01*
X0208024Y0305547D02*
X0209976Y0305547D01*
X0209437Y0304549D02*
X0208563Y0304549D01*
X0208977Y0303550D02*
X0209023Y0303550D01*
X0209000Y0303495D02*
X0209000Y0301505D01*
X0208239Y0299668D01*
X0207571Y0299000D01*
X0210429Y0299000D01*
X0209761Y0299668D01*
X0209000Y0301505D01*
X0209000Y0303495D01*
X0209000Y0302552D02*
X0209000Y0302552D01*
X0209000Y0301553D02*
X0209000Y0301553D01*
X0208606Y0300555D02*
X0209394Y0300555D01*
X0209873Y0299556D02*
X0208127Y0299556D01*
X0200429Y0299000D02*
X0197571Y0299000D01*
X0198239Y0299668D01*
X0199000Y0301505D01*
X0199000Y0303495D01*
X0199000Y0301505D01*
X0199761Y0299668D01*
X0200429Y0299000D01*
X0199873Y0299556D02*
X0198127Y0299556D01*
X0198606Y0300555D02*
X0199394Y0300555D01*
X0199000Y0301553D02*
X0199000Y0301553D01*
X0199000Y0302552D02*
X0199000Y0302552D01*
X0198977Y0303550D02*
X0199023Y0303550D01*
X0199437Y0304549D02*
X0198563Y0304549D01*
X0198024Y0305547D02*
X0199976Y0305547D01*
X0200975Y0306546D02*
X0197025Y0306546D01*
X0190975Y0306546D02*
X0187025Y0306546D01*
X0188024Y0305547D02*
X0189976Y0305547D01*
X0189437Y0304549D02*
X0188563Y0304549D01*
X0188977Y0303550D02*
X0189023Y0303550D01*
X0189000Y0303495D02*
X0189000Y0301505D01*
X0188239Y0299668D01*
X0187571Y0299000D01*
X0190429Y0299000D01*
X0189761Y0299668D01*
X0189000Y0301505D01*
X0189000Y0303495D01*
X0189000Y0302552D02*
X0189000Y0302552D01*
X0189000Y0301553D02*
X0189000Y0301553D01*
X0188606Y0300555D02*
X0189394Y0300555D01*
X0189873Y0299556D02*
X0188127Y0299556D01*
X0187800Y0297200D02*
X0163500Y0272900D01*
X0163245Y0272629D01*
X0158976Y0272597D02*
X0157513Y0272597D01*
X0157513Y0273595D02*
X0158976Y0273595D01*
X0158976Y0274594D02*
X0157513Y0274594D01*
X0157513Y0275592D02*
X0158976Y0275592D01*
X0159036Y0276591D02*
X0157453Y0276591D01*
X0157040Y0277589D02*
X0159450Y0277589D01*
X0160199Y0278588D02*
X0156291Y0278588D01*
X0154769Y0279586D02*
X0161721Y0279586D01*
X0158976Y0271598D02*
X0157513Y0271598D01*
X0157513Y0270600D02*
X0158976Y0270600D01*
X0158976Y0269601D02*
X0157513Y0269601D01*
X0157427Y0268603D02*
X0159063Y0268603D01*
X0159476Y0267604D02*
X0157013Y0267604D01*
X0156227Y0266605D02*
X0160263Y0266605D01*
X0150263Y0266605D02*
X0141227Y0266605D01*
X0142013Y0267604D02*
X0149476Y0267604D01*
X0149063Y0268603D02*
X0142427Y0268603D01*
X0142513Y0269601D02*
X0148976Y0269601D01*
X0148976Y0270600D02*
X0142513Y0270600D01*
X0142513Y0271598D02*
X0148976Y0271598D01*
X0148976Y0272597D02*
X0142513Y0272597D01*
X0142513Y0273595D02*
X0148976Y0273595D01*
X0148976Y0274594D02*
X0142513Y0274594D01*
X0142513Y0275592D02*
X0148976Y0275592D01*
X0149036Y0276591D02*
X0142453Y0276591D01*
X0142040Y0277589D02*
X0149450Y0277589D01*
X0150199Y0278588D02*
X0141291Y0278588D01*
X0139769Y0279586D02*
X0151721Y0279586D01*
X0155138Y0297559D02*
X0162862Y0297559D01*
X0160871Y0298558D02*
X0157129Y0298558D01*
X0158127Y0299556D02*
X0159873Y0299556D01*
X0159394Y0300555D02*
X0158606Y0300555D01*
X0159000Y0301553D02*
X0159000Y0301553D01*
X0159000Y0302552D02*
X0159000Y0302552D01*
X0158977Y0303550D02*
X0159023Y0303550D01*
X0159437Y0304549D02*
X0158563Y0304549D01*
X0158024Y0305547D02*
X0159976Y0305547D01*
X0160975Y0306546D02*
X0157025Y0306546D01*
X0149204Y0309541D02*
X0320857Y0309541D01*
X0321000Y0310540D02*
X0148206Y0310540D01*
X0147207Y0311539D02*
X0166168Y0311539D01*
X0165170Y0312537D02*
X0147830Y0312537D01*
X0147950Y0313536D02*
X0164550Y0313536D01*
X0164550Y0314534D02*
X0147950Y0314534D01*
X0147950Y0315533D02*
X0164550Y0315533D01*
X0164550Y0316531D02*
X0147762Y0316531D01*
X0148686Y0317530D02*
X0146764Y0317530D01*
X0147774Y0318528D02*
X0148030Y0318528D01*
X0146400Y0319700D02*
X0156300Y0329600D01*
X0150900Y0319700D02*
X0164400Y0319700D01*
X0168900Y0315200D01*
X0169000Y0315000D01*
X0171832Y0311539D02*
X0321000Y0311539D01*
X0321000Y0312537D02*
X0172830Y0312537D01*
X0170975Y0306546D02*
X0167025Y0306546D01*
X0168024Y0305547D02*
X0169976Y0305547D01*
X0169437Y0304549D02*
X0168563Y0304549D01*
X0168977Y0303550D02*
X0169023Y0303550D01*
X0169000Y0302552D02*
X0169000Y0302552D01*
X0169000Y0301553D02*
X0169000Y0301553D01*
X0168606Y0300555D02*
X0169394Y0300555D01*
X0169873Y0299556D02*
X0168127Y0299556D01*
X0167129Y0298558D02*
X0170871Y0298558D01*
X0172862Y0297559D02*
X0165138Y0297559D01*
X0175138Y0297559D02*
X0182862Y0297559D01*
X0183617Y0295562D02*
X0114008Y0295562D01*
X0113009Y0294564D02*
X0182618Y0294564D01*
X0181620Y0293565D02*
X0112011Y0293565D01*
X0118927Y0308543D02*
X0121897Y0308543D01*
X0122291Y0312537D02*
X0119247Y0312537D01*
X0135600Y0319700D02*
X0146400Y0319700D01*
X0153114Y0317530D02*
X0164025Y0317530D01*
X0177025Y0306546D02*
X0180975Y0306546D01*
X0179976Y0305547D02*
X0178024Y0305547D01*
X0178563Y0304549D02*
X0179437Y0304549D01*
X0179023Y0303550D02*
X0178977Y0303550D01*
X0179000Y0302552D02*
X0179000Y0302552D01*
X0179000Y0301553D02*
X0179000Y0301553D01*
X0178606Y0300555D02*
X0179394Y0300555D01*
X0179873Y0299556D02*
X0178127Y0299556D01*
X0177129Y0298558D02*
X0180871Y0298558D01*
X0190817Y0289571D02*
X0358800Y0289571D01*
X0358800Y0288573D02*
X0189818Y0288573D01*
X0188820Y0287574D02*
X0358800Y0287574D01*
X0358800Y0286576D02*
X0187821Y0286576D01*
X0186823Y0285577D02*
X0358800Y0285577D01*
X0358800Y0284579D02*
X0185824Y0284579D01*
X0184826Y0283580D02*
X0358800Y0283580D01*
X0358800Y0282582D02*
X0183827Y0282582D01*
X0191815Y0290570D02*
X0358800Y0290570D01*
X0358800Y0291568D02*
X0192814Y0291568D01*
X0193812Y0292567D02*
X0358800Y0292567D01*
X0358800Y0293565D02*
X0194811Y0293565D01*
X0227562Y0281583D02*
X0358800Y0281583D01*
X0358800Y0280585D02*
X0228561Y0280585D01*
X0229559Y0279586D02*
X0241721Y0279586D01*
X0240199Y0278588D02*
X0230558Y0278588D01*
X0231556Y0277589D02*
X0239450Y0277589D01*
X0239036Y0276591D02*
X0232555Y0276591D01*
X0233553Y0275592D02*
X0238976Y0275592D01*
X0238976Y0274594D02*
X0234552Y0274594D01*
X0235550Y0273595D02*
X0238976Y0273595D01*
X0238976Y0272597D02*
X0236549Y0272597D01*
X0237548Y0271598D02*
X0238976Y0271598D01*
X0238976Y0270600D02*
X0238546Y0270600D01*
X0244614Y0265607D02*
X0251876Y0265607D01*
X0252396Y0265392D02*
X0254094Y0265392D01*
X0255663Y0266041D01*
X0256863Y0267242D01*
X0257513Y0268811D01*
X0257513Y0276446D01*
X0256863Y0278015D01*
X0255663Y0279216D01*
X0254094Y0279866D01*
X0252396Y0279866D01*
X0250827Y0279216D01*
X0249626Y0278015D01*
X0248976Y0276446D01*
X0248976Y0268811D01*
X0249626Y0267242D01*
X0250827Y0266041D01*
X0252396Y0265392D01*
X0254614Y0265607D02*
X0261876Y0265607D01*
X0262396Y0265392D02*
X0264094Y0265392D01*
X0265663Y0266041D01*
X0266863Y0267242D01*
X0267513Y0268811D01*
X0267513Y0276446D01*
X0266863Y0278015D01*
X0265663Y0279216D01*
X0264094Y0279866D01*
X0262396Y0279866D01*
X0260827Y0279216D01*
X0259626Y0278015D01*
X0258976Y0276446D01*
X0258976Y0268811D01*
X0259626Y0267242D01*
X0260827Y0266041D01*
X0262396Y0265392D01*
X0264614Y0265607D02*
X0271876Y0265607D01*
X0272396Y0265392D02*
X0274094Y0265392D01*
X0275663Y0266041D01*
X0276863Y0267242D01*
X0277513Y0268811D01*
X0277513Y0276446D01*
X0276863Y0278015D01*
X0275663Y0279216D01*
X0274094Y0279866D01*
X0272396Y0279866D01*
X0270827Y0279216D01*
X0269626Y0278015D01*
X0268976Y0276446D01*
X0268976Y0268811D01*
X0269626Y0267242D01*
X0270827Y0266041D01*
X0272396Y0265392D01*
X0274614Y0265607D02*
X0281876Y0265607D01*
X0282396Y0265392D02*
X0284094Y0265392D01*
X0285663Y0266041D01*
X0286863Y0267242D01*
X0287513Y0268811D01*
X0287513Y0276446D01*
X0286863Y0278015D01*
X0285663Y0279216D01*
X0284094Y0279866D01*
X0282396Y0279866D01*
X0280827Y0279216D01*
X0279626Y0278015D01*
X0278976Y0276446D01*
X0278976Y0268811D01*
X0279626Y0267242D01*
X0280827Y0266041D01*
X0282396Y0265392D01*
X0284614Y0265607D02*
X0291876Y0265607D01*
X0292396Y0265392D02*
X0294094Y0265392D01*
X0295663Y0266041D01*
X0296863Y0267242D01*
X0297513Y0268811D01*
X0297513Y0276446D01*
X0296863Y0278015D01*
X0295663Y0279216D01*
X0294094Y0279866D01*
X0292396Y0279866D01*
X0290827Y0279216D01*
X0289626Y0278015D01*
X0288976Y0276446D01*
X0288976Y0268811D01*
X0289626Y0267242D01*
X0290827Y0266041D01*
X0292396Y0265392D01*
X0294614Y0265607D02*
X0301876Y0265607D01*
X0302396Y0265392D02*
X0304094Y0265392D01*
X0305663Y0266041D01*
X0306863Y0267242D01*
X0307513Y0268811D01*
X0307513Y0276446D01*
X0306863Y0278015D01*
X0305663Y0279216D01*
X0304094Y0279866D01*
X0302396Y0279866D01*
X0300827Y0279216D01*
X0299626Y0278015D01*
X0298976Y0276446D01*
X0298976Y0268811D01*
X0299626Y0267242D01*
X0300827Y0266041D01*
X0302396Y0265392D01*
X0304614Y0265607D02*
X0311876Y0265607D01*
X0312396Y0265392D02*
X0310827Y0266041D01*
X0309626Y0267242D01*
X0308976Y0268811D01*
X0308976Y0276446D01*
X0309626Y0278015D01*
X0310827Y0279216D01*
X0312396Y0279866D01*
X0314094Y0279866D01*
X0315663Y0279216D01*
X0316863Y0278015D01*
X0317513Y0276446D01*
X0317513Y0268811D01*
X0316863Y0267242D01*
X0315663Y0266041D01*
X0314094Y0265392D01*
X0312396Y0265392D01*
X0314614Y0265607D02*
X0340187Y0265607D01*
X0339445Y0264608D02*
X0244537Y0264608D01*
X0245536Y0263610D02*
X0339031Y0263610D01*
X0338976Y0262611D02*
X0246534Y0262611D01*
X0247533Y0261613D02*
X0339045Y0261613D01*
X0339459Y0260614D02*
X0248531Y0260614D01*
X0249530Y0259616D02*
X0340221Y0259616D01*
X0341775Y0258617D02*
X0250528Y0258617D01*
X0250263Y0266605D02*
X0246227Y0266605D01*
X0247013Y0267604D02*
X0249476Y0267604D01*
X0249063Y0268603D02*
X0247427Y0268603D01*
X0247513Y0269601D02*
X0248976Y0269601D01*
X0248976Y0270600D02*
X0247513Y0270600D01*
X0247513Y0271598D02*
X0248976Y0271598D01*
X0248976Y0272597D02*
X0247513Y0272597D01*
X0247513Y0273595D02*
X0248976Y0273595D01*
X0248976Y0274594D02*
X0247513Y0274594D01*
X0247513Y0275592D02*
X0248976Y0275592D01*
X0249036Y0276591D02*
X0247453Y0276591D01*
X0247040Y0277589D02*
X0249450Y0277589D01*
X0250199Y0278588D02*
X0246291Y0278588D01*
X0244769Y0279586D02*
X0251721Y0279586D01*
X0254769Y0279586D02*
X0261721Y0279586D01*
X0260199Y0278588D02*
X0256291Y0278588D01*
X0257040Y0277589D02*
X0259450Y0277589D01*
X0259036Y0276591D02*
X0257453Y0276591D01*
X0257513Y0275592D02*
X0258976Y0275592D01*
X0258976Y0274594D02*
X0257513Y0274594D01*
X0257513Y0273595D02*
X0258976Y0273595D01*
X0258976Y0272597D02*
X0257513Y0272597D01*
X0257513Y0271598D02*
X0258976Y0271598D01*
X0258976Y0270600D02*
X0257513Y0270600D01*
X0257513Y0269601D02*
X0258976Y0269601D01*
X0259063Y0268603D02*
X0257427Y0268603D01*
X0257013Y0267604D02*
X0259476Y0267604D01*
X0260263Y0266605D02*
X0256227Y0266605D01*
X0266227Y0266605D02*
X0270263Y0266605D01*
X0269476Y0267604D02*
X0267013Y0267604D01*
X0267427Y0268603D02*
X0269063Y0268603D01*
X0268976Y0269601D02*
X0267513Y0269601D01*
X0267513Y0270600D02*
X0268976Y0270600D01*
X0268976Y0271598D02*
X0267513Y0271598D01*
X0267513Y0272597D02*
X0268976Y0272597D01*
X0268976Y0273595D02*
X0267513Y0273595D01*
X0267513Y0274594D02*
X0268976Y0274594D01*
X0268976Y0275592D02*
X0267513Y0275592D01*
X0267453Y0276591D02*
X0269036Y0276591D01*
X0269450Y0277589D02*
X0267040Y0277589D01*
X0266291Y0278588D02*
X0270199Y0278588D01*
X0271721Y0279586D02*
X0264769Y0279586D01*
X0274769Y0279586D02*
X0281721Y0279586D01*
X0280199Y0278588D02*
X0276291Y0278588D01*
X0277040Y0277589D02*
X0279450Y0277589D01*
X0279036Y0276591D02*
X0277453Y0276591D01*
X0277513Y0275592D02*
X0278976Y0275592D01*
X0278976Y0274594D02*
X0277513Y0274594D01*
X0277513Y0273595D02*
X0278976Y0273595D01*
X0278976Y0272597D02*
X0277513Y0272597D01*
X0277513Y0271598D02*
X0278976Y0271598D01*
X0278976Y0270600D02*
X0277513Y0270600D01*
X0277513Y0269601D02*
X0278976Y0269601D01*
X0279063Y0268603D02*
X0277427Y0268603D01*
X0277013Y0267604D02*
X0279476Y0267604D01*
X0280263Y0266605D02*
X0276227Y0266605D01*
X0286227Y0266605D02*
X0290263Y0266605D01*
X0289476Y0267604D02*
X0287013Y0267604D01*
X0287427Y0268603D02*
X0289063Y0268603D01*
X0288976Y0269601D02*
X0287513Y0269601D01*
X0287513Y0270600D02*
X0288976Y0270600D01*
X0288976Y0271598D02*
X0287513Y0271598D01*
X0287513Y0272597D02*
X0288976Y0272597D01*
X0288976Y0273595D02*
X0287513Y0273595D01*
X0287513Y0274594D02*
X0288976Y0274594D01*
X0288976Y0275592D02*
X0287513Y0275592D01*
X0287453Y0276591D02*
X0289036Y0276591D01*
X0289450Y0277589D02*
X0287040Y0277589D01*
X0286291Y0278588D02*
X0290199Y0278588D01*
X0291721Y0279586D02*
X0284769Y0279586D01*
X0294769Y0279586D02*
X0301721Y0279586D01*
X0300199Y0278588D02*
X0296291Y0278588D01*
X0297040Y0277589D02*
X0299450Y0277589D01*
X0299036Y0276591D02*
X0297453Y0276591D01*
X0297513Y0275592D02*
X0298976Y0275592D01*
X0298976Y0274594D02*
X0297513Y0274594D01*
X0297513Y0273595D02*
X0298976Y0273595D01*
X0298976Y0272597D02*
X0297513Y0272597D01*
X0297513Y0271598D02*
X0298976Y0271598D01*
X0298976Y0270600D02*
X0297513Y0270600D01*
X0297513Y0269601D02*
X0298976Y0269601D01*
X0299063Y0268603D02*
X0297427Y0268603D01*
X0297013Y0267604D02*
X0299476Y0267604D01*
X0300263Y0266605D02*
X0296227Y0266605D01*
X0306227Y0266605D02*
X0310263Y0266605D01*
X0309476Y0267604D02*
X0307013Y0267604D01*
X0307427Y0268603D02*
X0309063Y0268603D01*
X0308976Y0269601D02*
X0307513Y0269601D01*
X0307513Y0270600D02*
X0308976Y0270600D01*
X0308976Y0271598D02*
X0307513Y0271598D01*
X0307513Y0272597D02*
X0308976Y0272597D01*
X0308976Y0273595D02*
X0307513Y0273595D01*
X0307513Y0274594D02*
X0308976Y0274594D01*
X0308976Y0275592D02*
X0307513Y0275592D01*
X0307453Y0276591D02*
X0309036Y0276591D01*
X0309450Y0277589D02*
X0307040Y0277589D01*
X0306291Y0278588D02*
X0310199Y0278588D01*
X0311721Y0279586D02*
X0304769Y0279586D01*
X0314769Y0279586D02*
X0358800Y0279586D01*
X0358800Y0278588D02*
X0316291Y0278588D01*
X0317040Y0277589D02*
X0358800Y0277589D01*
X0358800Y0276591D02*
X0354834Y0276591D01*
X0354094Y0276897D02*
X0352396Y0276897D01*
X0350827Y0276247D01*
X0349626Y0275047D01*
X0348976Y0273478D01*
X0348976Y0271780D01*
X0349626Y0270211D01*
X0350827Y0269010D01*
X0352396Y0268360D01*
X0354094Y0268360D01*
X0355663Y0269010D01*
X0356863Y0270211D01*
X0357513Y0271780D01*
X0357513Y0273478D01*
X0356863Y0275047D01*
X0355663Y0276247D01*
X0354094Y0276897D01*
X0351656Y0276591D02*
X0344834Y0276591D01*
X0344094Y0276897D02*
X0345663Y0276247D01*
X0346863Y0275047D01*
X0347513Y0273478D01*
X0347513Y0271780D01*
X0346863Y0270211D01*
X0345663Y0269010D01*
X0344094Y0268360D01*
X0342396Y0268360D01*
X0340827Y0269010D01*
X0339626Y0270211D01*
X0338976Y0271780D01*
X0338976Y0273478D01*
X0339626Y0275047D01*
X0340827Y0276247D01*
X0342396Y0276897D01*
X0344094Y0276897D01*
X0341656Y0276591D02*
X0317453Y0276591D01*
X0317513Y0275592D02*
X0340172Y0275592D01*
X0339439Y0274594D02*
X0317513Y0274594D01*
X0317513Y0273595D02*
X0339025Y0273595D01*
X0338976Y0272597D02*
X0317513Y0272597D01*
X0317513Y0271598D02*
X0339051Y0271598D01*
X0339465Y0270600D02*
X0317513Y0270600D01*
X0317513Y0269601D02*
X0340236Y0269601D01*
X0341810Y0268603D02*
X0317427Y0268603D01*
X0317013Y0267604D02*
X0358800Y0267604D01*
X0358800Y0266605D02*
X0354798Y0266605D01*
X0356303Y0265607D02*
X0358800Y0265607D01*
X0358763Y0264608D02*
X0357045Y0264608D01*
X0357458Y0263610D02*
X0357764Y0263610D01*
X0360600Y0263900D02*
X0353400Y0256700D01*
X0353400Y0253100D01*
X0353245Y0252629D01*
X0348122Y0248632D02*
X0344751Y0248632D01*
X0346284Y0249631D02*
X0347124Y0249631D01*
X0340216Y0245637D02*
X0263509Y0245637D01*
X0264507Y0244638D02*
X0339457Y0244638D01*
X0339043Y0243640D02*
X0265506Y0243640D01*
X0266504Y0242641D02*
X0338976Y0242641D01*
X0339033Y0241643D02*
X0267503Y0241643D01*
X0268501Y0240644D02*
X0339447Y0240644D01*
X0340191Y0239646D02*
X0269500Y0239646D01*
X0242700Y0237800D02*
X0196800Y0237800D01*
X0199500Y0232400D02*
X0342600Y0232400D01*
X0343245Y0232629D01*
X0354618Y0216680D02*
X0386726Y0216680D01*
X0386720Y0206695D02*
X0354582Y0206695D01*
X0356214Y0205696D02*
X0387533Y0205696D01*
X0388918Y0204698D02*
X0357008Y0204698D01*
X0357421Y0203699D02*
X0388862Y0203699D01*
X0387510Y0202701D02*
X0357513Y0202701D01*
X0357481Y0201702D02*
X0386711Y0201702D01*
X0386297Y0200704D02*
X0357068Y0200704D01*
X0356358Y0199705D02*
X0386090Y0199705D01*
X0386090Y0198707D02*
X0354931Y0198707D01*
X0340335Y0165756D02*
X0109301Y0165756D01*
X0108303Y0164757D02*
X0339506Y0164757D01*
X0339093Y0163759D02*
X0107304Y0163759D01*
X0106306Y0162760D02*
X0338976Y0162760D01*
X0338984Y0161762D02*
X0105307Y0161762D01*
X0104309Y0160763D02*
X0339397Y0160763D01*
X0340072Y0159765D02*
X0103310Y0159765D01*
X0117191Y0178737D02*
X0064909Y0178737D01*
X0063911Y0179735D02*
X0219633Y0179735D01*
X0219051Y0180734D02*
X0062912Y0180734D01*
X0061914Y0181732D02*
X0218645Y0181732D01*
X0218645Y0182731D02*
X0060915Y0182731D01*
X0087675Y0183729D02*
X0218722Y0183729D01*
X0219135Y0184728D02*
X0088673Y0184728D01*
X0089672Y0185726D02*
X0219837Y0185726D01*
X0316227Y0266605D02*
X0341692Y0266605D01*
X0344798Y0266605D02*
X0351692Y0266605D01*
X0350187Y0265607D02*
X0346303Y0265607D01*
X0347045Y0264608D02*
X0349445Y0264608D01*
X0349031Y0263610D02*
X0347458Y0263610D01*
X0347513Y0262611D02*
X0348976Y0262611D01*
X0349045Y0261613D02*
X0347444Y0261613D01*
X0347031Y0260614D02*
X0349459Y0260614D01*
X0350221Y0259616D02*
X0346269Y0259616D01*
X0344679Y0268603D02*
X0351810Y0268603D01*
X0350236Y0269601D02*
X0346254Y0269601D01*
X0347024Y0270600D02*
X0349465Y0270600D01*
X0349051Y0271598D02*
X0347438Y0271598D01*
X0347513Y0272597D02*
X0348976Y0272597D01*
X0349025Y0273595D02*
X0347465Y0273595D01*
X0347051Y0274594D02*
X0349439Y0274594D01*
X0350172Y0275592D02*
X0346318Y0275592D01*
X0356318Y0275592D02*
X0358800Y0275592D01*
X0358800Y0274594D02*
X0357051Y0274594D01*
X0357465Y0273595D02*
X0358800Y0273595D01*
X0358800Y0272597D02*
X0357513Y0272597D01*
X0357438Y0271598D02*
X0358800Y0271598D01*
X0358800Y0270600D02*
X0357024Y0270600D01*
X0356254Y0269601D02*
X0358800Y0269601D01*
X0358800Y0268603D02*
X0354679Y0268603D01*
X0358800Y0294564D02*
X0320009Y0294564D01*
X0322800Y0315200D02*
X0322800Y0317000D01*
X0383663Y0326516D02*
X0389337Y0326516D01*
X0392696Y0140793D02*
X0403921Y0140793D01*
X0403921Y0129809D02*
X0394517Y0129809D01*
X0395516Y0128811D02*
X0403921Y0128811D01*
X0403921Y0127812D02*
X0395939Y0127812D01*
X0396294Y0126814D02*
X0403921Y0126814D01*
X0403921Y0125815D02*
X0396294Y0125815D01*
X0396231Y0124817D02*
X0403921Y0124817D01*
X0403921Y0123818D02*
X0395818Y0123818D01*
X0395223Y0122820D02*
X0403921Y0122820D01*
X0403921Y0121821D02*
X0394224Y0121821D01*
X0392624Y0120823D02*
X0403921Y0120823D01*
X0403921Y0119824D02*
X0394503Y0119824D01*
X0395501Y0118826D02*
X0403921Y0118826D01*
X0403921Y0117827D02*
X0395933Y0117827D01*
X0396294Y0116829D02*
X0403921Y0116829D01*
X0403921Y0115830D02*
X0396294Y0115830D01*
X0396238Y0114832D02*
X0403921Y0114832D01*
X0403921Y0113833D02*
X0395824Y0113833D01*
X0395238Y0112835D02*
X0403921Y0112835D01*
X0403921Y0099854D02*
X0394473Y0099854D01*
X0395471Y0098856D02*
X0403921Y0098856D01*
X0403921Y0097857D02*
X0395921Y0097857D01*
X0396294Y0096859D02*
X0403921Y0096859D01*
X0403921Y0095860D02*
X0396294Y0095860D01*
X0396250Y0094862D02*
X0403921Y0094862D01*
X0403921Y0093863D02*
X0395836Y0093863D01*
X0395267Y0092865D02*
X0403921Y0092865D01*
X0403921Y0091866D02*
X0394269Y0091866D01*
X0394114Y0084876D02*
X0403921Y0084876D01*
X0403921Y0083878D02*
X0395255Y0083878D01*
X0395967Y0082879D02*
X0403921Y0082879D01*
X0403921Y0081881D02*
X0396380Y0081881D01*
X0396525Y0080882D02*
X0403921Y0080882D01*
X0403921Y0079884D02*
X0396525Y0079884D01*
X0396253Y0078885D02*
X0403921Y0078885D01*
X0403921Y0077887D02*
X0395840Y0077887D01*
X0394948Y0076888D02*
X0403921Y0076888D01*
X0403921Y0075890D02*
X0393372Y0075890D01*
X0394078Y0074891D02*
X0403921Y0074891D01*
X0403921Y0073893D02*
X0395240Y0073893D01*
X0395961Y0072894D02*
X0403921Y0072894D01*
X0403921Y0071896D02*
X0396374Y0071896D01*
X0396525Y0070897D02*
X0403921Y0070897D01*
X0403921Y0069899D02*
X0396525Y0069899D01*
X0396259Y0068900D02*
X0403921Y0068900D01*
X0403921Y0067902D02*
X0395846Y0067902D01*
X0395442Y0066903D02*
X0403921Y0066903D01*
X0403921Y0065905D02*
X0396441Y0065905D01*
X0397439Y0064906D02*
X0403921Y0064906D01*
X0403921Y0063908D02*
X0398400Y0063908D01*
X0398400Y0062909D02*
X0403921Y0062909D01*
X0403921Y0061911D02*
X0398400Y0061911D01*
X0398400Y0060912D02*
X0403921Y0060912D01*
X0403921Y0059914D02*
X0398400Y0059914D01*
X0398400Y0058915D02*
X0403921Y0058915D01*
X0403921Y0057917D02*
X0398400Y0057917D01*
X0398400Y0056918D02*
X0403921Y0056918D01*
X0403921Y0055920D02*
X0398400Y0055920D01*
X0398400Y0054921D02*
X0403921Y0054921D01*
X0403921Y0053923D02*
X0398400Y0053923D01*
X0398400Y0052924D02*
X0403921Y0052924D01*
X0403921Y0051926D02*
X0398400Y0051926D01*
X0398400Y0050927D02*
X0403921Y0050927D01*
X0403921Y0049929D02*
X0398400Y0049929D01*
X0398400Y0048930D02*
X0403921Y0048930D01*
X0403921Y0047932D02*
X0398400Y0047932D01*
X0398400Y0046933D02*
X0403921Y0046933D01*
X0403921Y0045934D02*
X0398400Y0045934D01*
X0398400Y0044936D02*
X0403921Y0044936D01*
X0403921Y0043937D02*
X0398400Y0043937D01*
X0398400Y0042939D02*
X0403921Y0042939D01*
X0403921Y0041940D02*
X0398400Y0041940D01*
X0398400Y0040942D02*
X0403921Y0040942D01*
X0403921Y0039943D02*
X0398400Y0039943D01*
X0398400Y0038945D02*
X0403921Y0038945D01*
X0403921Y0037946D02*
X0398400Y0037946D01*
X0397593Y0036948D02*
X0403921Y0036948D01*
X0403921Y0035949D02*
X0396595Y0035949D01*
X0395596Y0034951D02*
X0403921Y0034951D01*
X0403921Y0033952D02*
X0394598Y0033952D01*
X0393400Y0035300D02*
X0331000Y0036800D01*
X0307500Y0053300D01*
X0284634Y0050927D02*
X0283373Y0050927D01*
X0283635Y0049929D02*
X0282374Y0049929D01*
X0282450Y0048930D02*
X0283550Y0048930D01*
X0283550Y0047932D02*
X0282450Y0047932D01*
X0282450Y0046933D02*
X0283550Y0046933D01*
X0283772Y0045934D02*
X0282228Y0045934D01*
X0281229Y0044936D02*
X0284771Y0044936D01*
X0285769Y0043937D02*
X0280231Y0043937D01*
X0257635Y0025964D02*
X0353050Y0025964D01*
X0353050Y0026843D02*
X0353050Y0023157D01*
X0355657Y0020550D01*
X0359343Y0020550D01*
X0361950Y0023157D01*
X0361950Y0026843D01*
X0359343Y0029450D01*
X0355657Y0029450D01*
X0353050Y0026843D01*
X0353170Y0026963D02*
X0335269Y0026963D01*
X0336268Y0027961D02*
X0354168Y0027961D01*
X0355167Y0028960D02*
X0337266Y0028960D01*
X0337788Y0029958D02*
X0403921Y0029958D01*
X0403921Y0028960D02*
X0387333Y0028960D01*
X0386843Y0029450D02*
X0383157Y0029450D01*
X0380550Y0026843D01*
X0380550Y0023157D01*
X0383157Y0020550D01*
X0386843Y0020550D01*
X0389450Y0023157D01*
X0389450Y0026843D01*
X0386843Y0029450D01*
X0388332Y0027961D02*
X0403921Y0027961D01*
X0403921Y0026963D02*
X0389330Y0026963D01*
X0389450Y0025964D02*
X0403921Y0025964D01*
X0403921Y0024966D02*
X0389450Y0024966D01*
X0389450Y0023967D02*
X0403921Y0023967D01*
X0403921Y0022969D02*
X0389262Y0022969D01*
X0388263Y0021970D02*
X0403921Y0021970D01*
X0403921Y0020972D02*
X0387265Y0020972D01*
X0386926Y0019650D02*
X0385300Y0019650D01*
X0385300Y0015300D01*
X0384700Y0015300D01*
X0384700Y0019650D01*
X0383074Y0019650D01*
X0380350Y0016926D01*
X0380350Y0015300D01*
X0384700Y0015300D01*
X0384700Y0014700D01*
X0380350Y0014700D01*
X0380350Y0013074D01*
X0383074Y0010350D01*
X0384700Y0010350D01*
X0384700Y0014700D01*
X0385300Y0014700D01*
X0385300Y0015300D01*
X0389650Y0015300D01*
X0389650Y0016926D01*
X0386926Y0019650D01*
X0387601Y0018975D02*
X0403921Y0018975D01*
X0403921Y0019973D02*
X0064114Y0019973D01*
X0063115Y0018975D02*
X0354899Y0018975D01*
X0357200Y0018975D02*
X0357800Y0018975D01*
X0357800Y0019650D02*
X0357800Y0015300D01*
X0362150Y0015300D01*
X0362150Y0016926D01*
X0359426Y0019650D01*
X0357800Y0019650D01*
X0357800Y0017976D02*
X0357200Y0017976D01*
X0357200Y0016978D02*
X0357800Y0016978D01*
X0357800Y0015979D02*
X0357200Y0015979D01*
X0357800Y0014981D02*
X0384700Y0014981D01*
X0385300Y0014981D02*
X0403921Y0014981D01*
X0403921Y0015979D02*
X0389650Y0015979D01*
X0389598Y0016978D02*
X0403921Y0016978D01*
X0403921Y0017976D02*
X0388600Y0017976D01*
X0385300Y0017976D02*
X0384700Y0017976D01*
X0384700Y0016978D02*
X0385300Y0016978D01*
X0385300Y0015979D02*
X0384700Y0015979D01*
X0385300Y0014700D02*
X0389650Y0014700D01*
X0389650Y0013074D01*
X0386926Y0010350D01*
X0385300Y0010350D01*
X0385300Y0014700D01*
X0385300Y0013982D02*
X0384700Y0013982D01*
X0384700Y0012984D02*
X0385300Y0012984D01*
X0385300Y0011985D02*
X0384700Y0011985D01*
X0384700Y0010987D02*
X0385300Y0010987D01*
X0387563Y0010987D02*
X0403921Y0010987D01*
X0403921Y0011985D02*
X0388561Y0011985D01*
X0389560Y0012984D02*
X0403921Y0012984D01*
X0403921Y0013982D02*
X0389650Y0013982D01*
X0385300Y0018975D02*
X0384700Y0018975D01*
X0382399Y0018975D02*
X0360101Y0018975D01*
X0361100Y0017976D02*
X0381400Y0017976D01*
X0380402Y0016978D02*
X0362098Y0016978D01*
X0362150Y0015979D02*
X0380350Y0015979D01*
X0380350Y0013982D02*
X0362150Y0013982D01*
X0362060Y0012984D02*
X0380440Y0012984D01*
X0381439Y0011985D02*
X0361061Y0011985D01*
X0360063Y0010987D02*
X0382437Y0010987D01*
X0382735Y0020972D02*
X0359765Y0020972D01*
X0360763Y0021970D02*
X0381737Y0021970D01*
X0380738Y0022969D02*
X0361762Y0022969D01*
X0361950Y0023967D02*
X0380550Y0023967D01*
X0380550Y0024966D02*
X0361950Y0024966D01*
X0361950Y0025964D02*
X0380550Y0025964D01*
X0380670Y0026963D02*
X0361830Y0026963D01*
X0360832Y0027961D02*
X0381668Y0027961D01*
X0382667Y0028960D02*
X0359833Y0028960D01*
X0353050Y0024966D02*
X0256636Y0024966D01*
X0255638Y0023967D02*
X0353050Y0023967D01*
X0353238Y0022969D02*
X0253879Y0022969D01*
X0255429Y0023758D02*
X0255429Y0023758D01*
X0233124Y0030957D02*
X0161917Y0030957D01*
X0162201Y0031515D02*
X0162201Y0031515D01*
X0162271Y0031955D02*
X0177464Y0031955D01*
X0176465Y0032954D02*
X0162429Y0032954D01*
X0162587Y0033952D02*
X0175987Y0033952D01*
X0175700Y0034951D02*
X0162745Y0034951D01*
X0162903Y0035949D02*
X0175700Y0035949D01*
X0175945Y0036948D02*
X0162761Y0036948D01*
X0162603Y0037946D02*
X0176365Y0037946D01*
X0177364Y0038945D02*
X0162445Y0038945D01*
X0162987Y0041940D02*
X0161459Y0041940D01*
X0160951Y0042939D02*
X0162368Y0042939D01*
X0161750Y0043937D02*
X0160442Y0043937D01*
X0161131Y0044936D02*
X0159734Y0044936D01*
X0160512Y0045934D02*
X0158736Y0045934D01*
X0157737Y0046933D02*
X0159894Y0046933D01*
X0159275Y0047932D02*
X0156556Y0047932D01*
X0154597Y0048930D02*
X0158656Y0048930D01*
X0158038Y0049929D02*
X0152093Y0049929D01*
X0159798Y0053923D02*
X0251768Y0053923D01*
X0252603Y0052924D02*
X0160417Y0052924D01*
X0161035Y0051926D02*
X0253438Y0051926D01*
X0232455Y0035949D02*
X0190300Y0035949D01*
X0190300Y0034951D02*
X0232471Y0034951D01*
X0232384Y0035500D02*
X0232384Y0035500D01*
X0232629Y0033952D02*
X0190013Y0033952D01*
X0189535Y0032954D02*
X0232787Y0032954D01*
X0232945Y0031955D02*
X0188536Y0031955D01*
X0186800Y0035500D02*
X0183000Y0035500D01*
X0186800Y0035500D02*
X0198100Y0046800D01*
X0229200Y0046800D01*
X0228010Y0043937D02*
X0197783Y0043937D01*
X0198782Y0044936D02*
X0226680Y0044936D01*
X0226946Y0048930D02*
X0188651Y0048930D01*
X0189647Y0047932D02*
X0196686Y0047932D01*
X0195687Y0046933D02*
X0190061Y0046933D01*
X0190300Y0045934D02*
X0194689Y0045934D01*
X0193690Y0044936D02*
X0190300Y0044936D01*
X0190007Y0043937D02*
X0192692Y0043937D01*
X0191693Y0042939D02*
X0189520Y0042939D01*
X0177349Y0048930D02*
X0162891Y0048930D01*
X0163510Y0047932D02*
X0176353Y0047932D01*
X0175939Y0046933D02*
X0164129Y0046933D01*
X0164747Y0045934D02*
X0175700Y0045934D01*
X0195951Y0066903D02*
X0141642Y0066903D01*
X0140644Y0067902D02*
X0194953Y0067902D01*
X0193954Y0068900D02*
X0139645Y0068900D01*
X0138647Y0069899D02*
X0192956Y0069899D01*
X0191957Y0070897D02*
X0137648Y0070897D01*
X0136650Y0071896D02*
X0190959Y0071896D01*
X0189960Y0072894D02*
X0135651Y0072894D01*
X0134653Y0073893D02*
X0188962Y0073893D01*
X0187963Y0074891D02*
X0133654Y0074891D01*
X0135297Y0075890D02*
X0141193Y0075890D01*
X0140827Y0076041D02*
X0142396Y0075392D01*
X0144094Y0075392D01*
X0145663Y0076041D01*
X0146863Y0077242D01*
X0147513Y0078811D01*
X0147513Y0086446D01*
X0146863Y0088015D01*
X0145663Y0089216D01*
X0144094Y0089866D01*
X0142396Y0089866D01*
X0140827Y0089216D01*
X0139626Y0088015D01*
X0138976Y0086446D01*
X0138976Y0078811D01*
X0139626Y0077242D01*
X0140827Y0076041D01*
X0139980Y0076888D02*
X0136510Y0076888D01*
X0137130Y0077887D02*
X0139359Y0077887D01*
X0138976Y0078885D02*
X0137513Y0078885D01*
X0137513Y0079884D02*
X0138976Y0079884D01*
X0138976Y0080882D02*
X0137513Y0080882D01*
X0137513Y0081881D02*
X0138976Y0081881D01*
X0138976Y0082879D02*
X0137513Y0082879D01*
X0137513Y0083878D02*
X0138976Y0083878D01*
X0138976Y0084876D02*
X0137513Y0084876D01*
X0137513Y0085875D02*
X0138976Y0085875D01*
X0139153Y0086873D02*
X0137336Y0086873D01*
X0136923Y0087872D02*
X0139567Y0087872D01*
X0140482Y0088870D02*
X0136008Y0088870D01*
X0130482Y0088870D02*
X0126008Y0088870D01*
X0126923Y0087872D02*
X0129567Y0087872D01*
X0129153Y0086873D02*
X0127336Y0086873D01*
X0127513Y0085875D02*
X0128976Y0085875D01*
X0128976Y0084876D02*
X0127513Y0084876D01*
X0127513Y0083878D02*
X0128976Y0083878D01*
X0146008Y0088870D02*
X0150482Y0088870D01*
X0150827Y0089216D02*
X0149626Y0088015D01*
X0148976Y0086446D01*
X0148976Y0078811D01*
X0149626Y0077242D01*
X0150827Y0076041D01*
X0152396Y0075392D01*
X0154094Y0075392D01*
X0155663Y0076041D01*
X0156863Y0077242D01*
X0157513Y0078811D01*
X0157513Y0086446D01*
X0156863Y0088015D01*
X0155663Y0089216D01*
X0154094Y0089866D01*
X0152396Y0089866D01*
X0150827Y0089216D01*
X0149567Y0087872D02*
X0146923Y0087872D01*
X0147336Y0086873D02*
X0149153Y0086873D01*
X0148976Y0085875D02*
X0147513Y0085875D01*
X0147513Y0084876D02*
X0148976Y0084876D01*
X0148976Y0083878D02*
X0147513Y0083878D01*
X0147513Y0082879D02*
X0148976Y0082879D01*
X0148976Y0081881D02*
X0147513Y0081881D01*
X0147513Y0080882D02*
X0148976Y0080882D01*
X0148976Y0079884D02*
X0147513Y0079884D01*
X0147513Y0078885D02*
X0148976Y0078885D01*
X0149359Y0077887D02*
X0147130Y0077887D01*
X0146510Y0076888D02*
X0149980Y0076888D01*
X0151193Y0075890D02*
X0145297Y0075890D01*
X0155297Y0075890D02*
X0171193Y0075890D01*
X0169980Y0076888D02*
X0156510Y0076888D01*
X0157130Y0077887D02*
X0169359Y0077887D01*
X0168976Y0078885D02*
X0157513Y0078885D01*
X0157513Y0079884D02*
X0168976Y0079884D01*
X0168976Y0080882D02*
X0157513Y0080882D01*
X0157513Y0081881D02*
X0168976Y0081881D01*
X0168976Y0082879D02*
X0157513Y0082879D01*
X0157513Y0083878D02*
X0168976Y0083878D01*
X0168976Y0084876D02*
X0157513Y0084876D01*
X0157513Y0085875D02*
X0168976Y0085875D01*
X0169153Y0086873D02*
X0157336Y0086873D01*
X0156923Y0087872D02*
X0169567Y0087872D01*
X0170482Y0088870D02*
X0156008Y0088870D01*
X0173245Y0082629D02*
X0173400Y0083000D01*
X0180600Y0090200D01*
X0178976Y0085875D02*
X0178821Y0085875D01*
X0178976Y0084876D02*
X0177822Y0084876D01*
X0177513Y0083878D02*
X0178976Y0083878D01*
X0178976Y0082879D02*
X0177513Y0082879D01*
X0177513Y0081881D02*
X0178976Y0081881D01*
X0178976Y0080882D02*
X0177513Y0080882D01*
X0177513Y0079884D02*
X0178976Y0079884D01*
X0178976Y0078885D02*
X0177513Y0078885D01*
X0177130Y0077887D02*
X0179359Y0077887D01*
X0179980Y0076888D02*
X0176510Y0076888D01*
X0175297Y0075890D02*
X0181193Y0075890D01*
X0185297Y0075890D02*
X0186965Y0075890D01*
X0183300Y0082100D02*
X0183245Y0082629D01*
X0183300Y0082100D02*
X0199500Y0065900D01*
X0366000Y0065900D01*
X0391200Y0040700D01*
X0391525Y0040537D01*
X0396600Y0038500D02*
X0393400Y0035300D01*
X0396600Y0038500D02*
X0396600Y0063200D01*
X0392100Y0067700D01*
X0392100Y0070400D01*
X0391525Y0070537D01*
X0391718Y0065537D02*
X0391718Y0065537D01*
X0403921Y0032954D02*
X0337788Y0032954D01*
X0337788Y0031955D02*
X0403921Y0031955D01*
X0403921Y0030957D02*
X0337788Y0030957D01*
X0337502Y0033952D02*
X0374560Y0033952D01*
X0329870Y0015979D02*
X0024801Y0015979D01*
X0105297Y0075890D02*
X0110832Y0075890D01*
X0109735Y0076888D02*
X0106510Y0076888D01*
X0107130Y0077887D02*
X0109133Y0077887D01*
X0108843Y0078885D02*
X0107513Y0078885D01*
X0107513Y0079884D02*
X0108776Y0079884D01*
X0108776Y0080882D02*
X0107513Y0080882D01*
X0107513Y0081881D02*
X0108776Y0081881D01*
X0142641Y0065905D02*
X0196950Y0065905D01*
X0233094Y0031015D02*
X0233094Y0031015D01*
X0346492Y0109839D02*
X0347415Y0109839D01*
X0356492Y0109839D02*
X0388100Y0109839D01*
X0144500Y0303550D02*
X0143500Y0303550D01*
X0143500Y0304549D02*
X0144500Y0304549D01*
X0144500Y0305547D02*
X0143500Y0305547D01*
X0143500Y0306546D02*
X0144500Y0306546D01*
X0140722Y0306546D02*
X0137025Y0306546D01*
X0138024Y0305547D02*
X0139787Y0305547D01*
X0139208Y0304549D02*
X0138563Y0304549D01*
X0138606Y0300555D02*
X0139164Y0300555D01*
X0139711Y0299556D02*
X0138127Y0299556D01*
X0137129Y0298558D02*
X0140588Y0298558D01*
X0142378Y0297559D02*
X0135138Y0297559D01*
X0135600Y0319700D02*
X0088800Y0272900D01*
X0088245Y0272629D01*
X0091291Y0278588D02*
X0091942Y0278588D01*
X0092941Y0279586D02*
X0089769Y0279586D01*
X0102513Y0271598D02*
X0103976Y0271598D01*
X0103976Y0270600D02*
X0102513Y0270600D01*
X0102513Y0269601D02*
X0103976Y0269601D01*
X0104063Y0268603D02*
X0102427Y0268603D01*
X0102013Y0267604D02*
X0104476Y0267604D01*
X0105263Y0266605D02*
X0101227Y0266605D01*
D24*
X0087900Y0263900D03*
X0081600Y0295400D03*
X0116700Y0310700D03*
X0150900Y0319700D03*
X0196800Y0237800D03*
X0199500Y0232400D03*
X0242700Y0237800D03*
X0322800Y0307100D03*
X0088800Y0152300D03*
X0085200Y0188300D03*
X0038400Y0202700D03*
X0229200Y0046800D03*
M02*
