G04 EAGLE Gerber X2 export*
%TF.Part,Single*%
%TF.FileFunction,Other,Solder side*%
%TF.FilePolarity,Positive*%
%TF.GenerationSoftware,Autodesk,EAGLE,9.0.1*%
%TF.CreationDate,2019-01-07T00:15:05Z*%
G75*
%MOMM*%
%FSLAX34Y34*%
%LPD*%
%AMOC8*
5,1,8,0,0,1.08239X$1,22.5*%
G01*
%ADD10R,1.500000X1.300000*%
%ADD11R,1.524000X1.270000*%
%ADD12R,1.500000X1.200000*%
%ADD13R,1.500000X1.240000*%
%ADD14R,0.500000X0.500000*%
%ADD15R,0.500000X0.400000*%
%ADD16R,0.800000X1.350000*%
%ADD17R,0.230000X0.350000*%
%ADD18R,0.350000X0.230000*%
%ADD19C,1.879600*%
%ADD20R,1.200000X1.000000*%
%ADD21R,1.200000X1.500000*%
%ADD22R,1.240000X1.500000*%
%ADD23C,1.676400*%
%ADD24C,2.540000*%
%ADD25R,4.064000X1.524000*%
%ADD26R,2.540000X1.270000*%
%ADD27C,1.651000*%
%ADD28C,0.254000*%
%ADD29C,0.756400*%
%ADD30C,0.152400*%
%ADD31C,0.304800*%
%ADD32C,0.406400*%
%ADD33C,0.806400*%

G36*
X389388Y11446D02*
X389388Y11446D01*
X389513Y11456D01*
X389545Y11466D01*
X389579Y11471D01*
X389696Y11517D01*
X389815Y11557D01*
X389843Y11575D01*
X389874Y11588D01*
X389976Y11662D01*
X390082Y11730D01*
X390104Y11755D01*
X390132Y11774D01*
X390212Y11871D01*
X390297Y11964D01*
X390313Y11993D01*
X390334Y12019D01*
X390388Y12133D01*
X390448Y12244D01*
X390456Y12277D01*
X390470Y12307D01*
X390494Y12431D01*
X390524Y12553D01*
X390523Y12586D01*
X390530Y12619D01*
X390522Y12745D01*
X390521Y12871D01*
X390511Y12919D01*
X390510Y12937D01*
X390503Y12957D01*
X390489Y13028D01*
X388746Y19533D01*
X388746Y26187D01*
X390469Y32615D01*
X393796Y38378D01*
X398502Y43084D01*
X404265Y46411D01*
X410693Y48134D01*
X417347Y48134D01*
X423775Y46411D01*
X427077Y44505D01*
X427199Y44454D01*
X427321Y44397D01*
X427346Y44392D01*
X427370Y44382D01*
X427502Y44362D01*
X427633Y44338D01*
X427659Y44339D01*
X427684Y44336D01*
X427817Y44349D01*
X427950Y44358D01*
X427975Y44366D01*
X428001Y44369D01*
X428126Y44415D01*
X428253Y44457D01*
X428275Y44470D01*
X428299Y44479D01*
X428409Y44556D01*
X428521Y44627D01*
X428539Y44646D01*
X428560Y44661D01*
X428647Y44762D01*
X428739Y44859D01*
X428751Y44882D01*
X428768Y44901D01*
X428828Y45021D01*
X428892Y45138D01*
X428898Y45163D01*
X428910Y45186D01*
X428938Y45317D01*
X428971Y45446D01*
X428973Y45482D01*
X428976Y45497D01*
X428975Y45519D01*
X428981Y45607D01*
X428655Y228794D01*
X428638Y228930D01*
X428625Y229068D01*
X428618Y229088D01*
X428615Y229109D01*
X428564Y229237D01*
X428517Y229367D01*
X428505Y229385D01*
X428497Y229405D01*
X428416Y229516D01*
X428339Y229630D01*
X428323Y229645D01*
X428310Y229662D01*
X428204Y229750D01*
X428100Y229841D01*
X428081Y229851D01*
X428065Y229864D01*
X427940Y229923D01*
X427817Y229985D01*
X427796Y229990D01*
X427777Y229999D01*
X427641Y230025D01*
X427507Y230055D01*
X427485Y230054D01*
X427464Y230058D01*
X427327Y230050D01*
X427189Y230045D01*
X427168Y230040D01*
X427147Y230038D01*
X427016Y229995D01*
X426883Y229957D01*
X426865Y229946D01*
X426845Y229940D01*
X426728Y229866D01*
X426610Y229796D01*
X426587Y229776D01*
X426576Y229769D01*
X426562Y229754D01*
X426489Y229689D01*
X399152Y202353D01*
X399092Y202275D01*
X399024Y202203D01*
X398995Y202150D01*
X398958Y202102D01*
X398918Y202011D01*
X398870Y201924D01*
X398855Y201865D01*
X398831Y201810D01*
X398816Y201712D01*
X398791Y201616D01*
X398785Y201516D01*
X398781Y201496D01*
X398783Y201483D01*
X398781Y201455D01*
X398781Y165002D01*
X398793Y164904D01*
X398796Y164805D01*
X398802Y164783D01*
X398803Y164773D01*
X398814Y164740D01*
X398821Y164686D01*
X398857Y164594D01*
X398885Y164499D01*
X398901Y164472D01*
X398901Y164471D01*
X398906Y164463D01*
X398915Y164447D01*
X398938Y164391D01*
X398996Y164311D01*
X399046Y164225D01*
X399112Y164150D01*
X399124Y164133D01*
X399134Y164126D01*
X399152Y164104D01*
X400485Y162772D01*
X401293Y160822D01*
X401293Y158710D01*
X400485Y156760D01*
X398992Y155267D01*
X397042Y154459D01*
X394930Y154459D01*
X392980Y155267D01*
X391487Y156760D01*
X390679Y158710D01*
X390679Y160822D01*
X391487Y162772D01*
X392820Y164104D01*
X392880Y164183D01*
X392948Y164255D01*
X392977Y164308D01*
X393014Y164356D01*
X393054Y164447D01*
X393102Y164533D01*
X393116Y164590D01*
X393129Y164617D01*
X393130Y164622D01*
X393141Y164648D01*
X393156Y164745D01*
X393181Y164841D01*
X393186Y164914D01*
X393189Y164929D01*
X393188Y164944D01*
X393191Y164962D01*
X393189Y164974D01*
X393191Y165002D01*
X393191Y204296D01*
X395200Y206305D01*
X423780Y234885D01*
X423840Y234963D01*
X423908Y235035D01*
X423937Y235088D01*
X423974Y235136D01*
X424014Y235227D01*
X424062Y235313D01*
X424077Y235372D01*
X424101Y235428D01*
X424116Y235526D01*
X424141Y235621D01*
X424147Y235721D01*
X424151Y235742D01*
X424149Y235754D01*
X424151Y235782D01*
X424151Y266471D01*
X424144Y266524D01*
X424147Y266579D01*
X424125Y266682D01*
X424111Y266786D01*
X424091Y266837D01*
X424080Y266890D01*
X424017Y267038D01*
X424003Y267059D01*
X423994Y267082D01*
X423915Y267191D01*
X423840Y267303D01*
X423822Y267319D01*
X423808Y267339D01*
X423704Y267425D01*
X423604Y267515D01*
X423582Y267526D01*
X423563Y267542D01*
X423441Y267599D01*
X423321Y267661D01*
X423297Y267667D01*
X423275Y267677D01*
X423143Y267703D01*
X423012Y267733D01*
X422987Y267733D01*
X422962Y267737D01*
X422828Y267729D01*
X422694Y267726D01*
X422670Y267719D01*
X422645Y267718D01*
X422517Y267676D01*
X422388Y267640D01*
X422366Y267627D01*
X422343Y267619D01*
X422229Y267547D01*
X422112Y267480D01*
X422095Y267463D01*
X422074Y267449D01*
X421982Y267351D01*
X421886Y267257D01*
X421873Y267236D01*
X421856Y267218D01*
X421791Y267100D01*
X421721Y266985D01*
X421714Y266961D01*
X421702Y266939D01*
X421669Y266809D01*
X421630Y266680D01*
X421629Y266655D01*
X421623Y266631D01*
X421613Y266471D01*
X421613Y264374D01*
X420805Y262424D01*
X419312Y260931D01*
X417362Y260123D01*
X415250Y260123D01*
X413300Y260931D01*
X411968Y262264D01*
X411889Y262324D01*
X411817Y262392D01*
X411764Y262421D01*
X411716Y262458D01*
X411625Y262498D01*
X411539Y262546D01*
X411480Y262561D01*
X411424Y262585D01*
X411327Y262600D01*
X411231Y262625D01*
X411131Y262631D01*
X411110Y262635D01*
X411098Y262633D01*
X411070Y262635D01*
X335007Y262635D01*
X334958Y262629D01*
X334908Y262631D01*
X334801Y262609D01*
X334692Y262595D01*
X334645Y262577D01*
X334597Y262567D01*
X334498Y262519D01*
X334396Y262478D01*
X334356Y262449D01*
X334311Y262427D01*
X334228Y262356D01*
X334139Y262292D01*
X334107Y262253D01*
X334069Y262221D01*
X334006Y262131D01*
X333936Y262047D01*
X333915Y262002D01*
X333886Y261961D01*
X333847Y261858D01*
X333800Y261759D01*
X333791Y261710D01*
X333773Y261664D01*
X333761Y261554D01*
X333741Y261447D01*
X333744Y261397D01*
X333738Y261348D01*
X333754Y261239D01*
X333760Y261129D01*
X333776Y261082D01*
X333783Y261033D01*
X333835Y260880D01*
X334237Y259910D01*
X334237Y257798D01*
X333429Y255848D01*
X331936Y254355D01*
X329986Y253547D01*
X327874Y253547D01*
X325924Y254355D01*
X324592Y255688D01*
X324513Y255748D01*
X324441Y255816D01*
X324388Y255845D01*
X324340Y255882D01*
X324249Y255922D01*
X324163Y255970D01*
X324104Y255985D01*
X324048Y256009D01*
X323951Y256024D01*
X323855Y256049D01*
X323755Y256055D01*
X323734Y256059D01*
X323722Y256057D01*
X323694Y256059D01*
X174777Y256059D01*
X174747Y256056D01*
X174718Y256058D01*
X174590Y256036D01*
X174461Y256019D01*
X174434Y256009D01*
X174405Y256003D01*
X174286Y255950D01*
X174166Y255902D01*
X174142Y255885D01*
X174115Y255873D01*
X174013Y255792D01*
X173908Y255716D01*
X173889Y255693D01*
X173866Y255674D01*
X173788Y255570D01*
X173705Y255471D01*
X173693Y255444D01*
X173675Y255420D01*
X173604Y255276D01*
X173409Y254804D01*
X171916Y253311D01*
X169966Y252503D01*
X167854Y252503D01*
X165904Y253311D01*
X164411Y254804D01*
X163603Y256754D01*
X163603Y258866D01*
X164438Y260880D01*
X164451Y260928D01*
X164472Y260973D01*
X164493Y261081D01*
X164522Y261187D01*
X164523Y261237D01*
X164532Y261286D01*
X164525Y261395D01*
X164527Y261505D01*
X164515Y261553D01*
X164512Y261603D01*
X164478Y261707D01*
X164453Y261814D01*
X164429Y261858D01*
X164414Y261905D01*
X164355Y261998D01*
X164304Y262095D01*
X164271Y262132D01*
X164244Y262174D01*
X164164Y262249D01*
X164090Y262331D01*
X164048Y262358D01*
X164012Y262392D01*
X163916Y262445D01*
X163824Y262505D01*
X163777Y262522D01*
X163734Y262546D01*
X163628Y262573D01*
X163523Y262609D01*
X163474Y262613D01*
X163426Y262625D01*
X163265Y262635D01*
X155353Y262635D01*
X155255Y262623D01*
X155156Y262620D01*
X155098Y262603D01*
X155038Y262595D01*
X154946Y262559D01*
X154851Y262531D01*
X154798Y262501D01*
X154742Y262478D01*
X154662Y262420D01*
X154577Y262370D01*
X154501Y262304D01*
X154485Y262292D01*
X154477Y262282D01*
X154456Y262264D01*
X154268Y262076D01*
X154208Y261998D01*
X154140Y261926D01*
X154111Y261873D01*
X154074Y261825D01*
X154034Y261734D01*
X153986Y261647D01*
X153971Y261589D01*
X153947Y261533D01*
X153932Y261435D01*
X153907Y261339D01*
X153901Y261239D01*
X153897Y261219D01*
X153899Y261207D01*
X153897Y261179D01*
X153897Y259294D01*
X153089Y257344D01*
X151596Y255851D01*
X149646Y255043D01*
X147534Y255043D01*
X145584Y255851D01*
X144091Y257344D01*
X143283Y259294D01*
X143283Y261406D01*
X144091Y263356D01*
X145584Y264849D01*
X147534Y265657D01*
X149419Y265657D01*
X149517Y265669D01*
X149616Y265672D01*
X149674Y265689D01*
X149734Y265697D01*
X149826Y265733D01*
X149921Y265761D01*
X149974Y265791D01*
X150030Y265814D01*
X150110Y265872D01*
X150195Y265922D01*
X150271Y265988D01*
X150287Y266000D01*
X150295Y266010D01*
X150316Y266028D01*
X150504Y266216D01*
X152512Y268225D01*
X411070Y268225D01*
X411168Y268237D01*
X411267Y268240D01*
X411326Y268257D01*
X411386Y268265D01*
X411478Y268301D01*
X411573Y268329D01*
X411625Y268359D01*
X411681Y268382D01*
X411761Y268440D01*
X411847Y268490D01*
X411922Y268556D01*
X411939Y268568D01*
X411946Y268578D01*
X411968Y268596D01*
X413300Y269929D01*
X414347Y270362D01*
X414426Y270408D01*
X414427Y270408D01*
X414468Y270432D01*
X414591Y270497D01*
X414605Y270510D01*
X414623Y270520D01*
X414723Y270617D01*
X414826Y270711D01*
X414837Y270727D01*
X414851Y270741D01*
X414924Y270860D01*
X415001Y270976D01*
X415007Y270995D01*
X415018Y271012D01*
X415059Y271145D01*
X415104Y271277D01*
X415105Y271297D01*
X415111Y271316D01*
X415118Y271455D01*
X415129Y271594D01*
X415125Y271614D01*
X415126Y271634D01*
X415098Y271770D01*
X415074Y271908D01*
X415066Y271926D01*
X415062Y271945D01*
X415019Y272034D01*
X415016Y272042D01*
X415007Y272057D01*
X415001Y272070D01*
X414944Y272197D01*
X414931Y272213D01*
X414922Y272231D01*
X414866Y272297D01*
X414855Y272316D01*
X414790Y272389D01*
X414745Y272446D01*
X414729Y272458D01*
X414716Y272473D01*
X414703Y272482D01*
X413077Y274108D01*
X412269Y276058D01*
X412269Y278170D01*
X413077Y280120D01*
X414570Y281613D01*
X416520Y282421D01*
X418632Y282421D01*
X420582Y281613D01*
X422075Y280120D01*
X422883Y278170D01*
X422883Y276285D01*
X422895Y276187D01*
X422898Y276088D01*
X422915Y276030D01*
X422923Y275970D01*
X422959Y275878D01*
X422987Y275783D01*
X423017Y275730D01*
X423040Y275674D01*
X423098Y275594D01*
X423148Y275509D01*
X423214Y275433D01*
X423226Y275417D01*
X423236Y275409D01*
X423254Y275388D01*
X423470Y275172D01*
X423548Y275112D01*
X423620Y275044D01*
X423673Y275015D01*
X423721Y274978D01*
X423812Y274938D01*
X423899Y274890D01*
X423957Y274875D01*
X424013Y274851D01*
X424111Y274836D01*
X424207Y274811D01*
X424244Y274809D01*
X426409Y272643D01*
X426520Y272557D01*
X426628Y272468D01*
X426645Y272460D01*
X426661Y272448D01*
X426789Y272392D01*
X426916Y272333D01*
X426935Y272329D01*
X426952Y272322D01*
X427091Y272300D01*
X427229Y272274D01*
X427248Y272275D01*
X427266Y272272D01*
X427406Y272285D01*
X427546Y272294D01*
X427564Y272300D01*
X427583Y272302D01*
X427715Y272349D01*
X427848Y272393D01*
X427864Y272403D01*
X427882Y272409D01*
X427998Y272488D01*
X428117Y272563D01*
X428130Y272577D01*
X428146Y272588D01*
X428238Y272693D01*
X428334Y272795D01*
X428343Y272812D01*
X428356Y272826D01*
X428420Y272951D01*
X428487Y273074D01*
X428492Y273092D01*
X428501Y273109D01*
X428531Y273246D01*
X428566Y273382D01*
X428568Y273408D01*
X428570Y273420D01*
X428570Y273440D01*
X428576Y273543D01*
X427938Y633039D01*
X427919Y633188D01*
X427901Y633339D01*
X427899Y633347D01*
X427898Y633355D01*
X427842Y633494D01*
X427787Y633636D01*
X427783Y633643D01*
X427780Y633650D01*
X427691Y633772D01*
X427603Y633896D01*
X427597Y633901D01*
X427593Y633907D01*
X427475Y634004D01*
X427361Y634101D01*
X427353Y634104D01*
X427347Y634110D01*
X427210Y634174D01*
X427074Y634240D01*
X427067Y634241D01*
X427059Y634245D01*
X426910Y634273D01*
X426763Y634303D01*
X426755Y634302D01*
X426747Y634304D01*
X426595Y634294D01*
X426445Y634286D01*
X426438Y634284D01*
X426430Y634283D01*
X426286Y634236D01*
X426141Y634191D01*
X426135Y634187D01*
X426127Y634185D01*
X426000Y634104D01*
X425871Y634024D01*
X425865Y634018D01*
X425859Y634014D01*
X425756Y633904D01*
X425651Y633795D01*
X425647Y633788D01*
X425641Y633782D01*
X425569Y633650D01*
X425494Y633518D01*
X425491Y633508D01*
X425488Y633503D01*
X425485Y633492D01*
X425443Y633365D01*
X425278Y632749D01*
X424943Y632170D01*
X424470Y631697D01*
X423891Y631362D01*
X423244Y631189D01*
X405129Y631189D01*
X405129Y640080D01*
X405114Y640198D01*
X405107Y640317D01*
X405094Y640355D01*
X405089Y640395D01*
X405045Y640506D01*
X405009Y640619D01*
X404987Y640654D01*
X404972Y640691D01*
X404902Y640787D01*
X404839Y640888D01*
X404809Y640916D01*
X404785Y640948D01*
X404694Y641024D01*
X404607Y641106D01*
X404572Y641125D01*
X404540Y641151D01*
X404433Y641202D01*
X404329Y641259D01*
X404289Y641270D01*
X404253Y641287D01*
X404136Y641309D01*
X404021Y641339D01*
X403960Y641343D01*
X403940Y641347D01*
X403920Y641345D01*
X403860Y641349D01*
X402589Y641349D01*
X402589Y641351D01*
X403860Y641351D01*
X403978Y641366D01*
X404097Y641373D01*
X404135Y641386D01*
X404175Y641391D01*
X404286Y641435D01*
X404399Y641471D01*
X404434Y641493D01*
X404471Y641508D01*
X404567Y641578D01*
X404668Y641641D01*
X404696Y641671D01*
X404728Y641695D01*
X404804Y641786D01*
X404886Y641873D01*
X404905Y641908D01*
X404931Y641940D01*
X404982Y642047D01*
X405039Y642151D01*
X405050Y642191D01*
X405067Y642227D01*
X405089Y642344D01*
X405119Y642459D01*
X405123Y642520D01*
X405127Y642540D01*
X405125Y642560D01*
X405129Y642620D01*
X405129Y651511D01*
X423244Y651511D01*
X423891Y651338D01*
X424470Y651003D01*
X424943Y650530D01*
X425278Y649951D01*
X425413Y649445D01*
X425471Y649303D01*
X425528Y649161D01*
X425531Y649156D01*
X425533Y649151D01*
X425625Y649028D01*
X425715Y648904D01*
X425719Y648900D01*
X425723Y648896D01*
X425842Y648799D01*
X425960Y648701D01*
X425965Y648699D01*
X425970Y648695D01*
X426109Y648632D01*
X426248Y648566D01*
X426254Y648565D01*
X426259Y648563D01*
X426408Y648536D01*
X426561Y648507D01*
X426566Y648508D01*
X426572Y648507D01*
X426724Y648518D01*
X426878Y648527D01*
X426883Y648529D01*
X426889Y648530D01*
X427034Y648578D01*
X427180Y648626D01*
X427185Y648629D01*
X427191Y648631D01*
X427318Y648714D01*
X427449Y648797D01*
X427453Y648801D01*
X427457Y648804D01*
X427561Y648917D01*
X427666Y649029D01*
X427669Y649034D01*
X427673Y649038D01*
X427745Y649172D01*
X427819Y649307D01*
X427821Y649313D01*
X427823Y649318D01*
X427860Y649466D01*
X427898Y649616D01*
X427899Y649623D01*
X427900Y649627D01*
X427900Y649636D01*
X427908Y649776D01*
X427877Y667500D01*
X427860Y667630D01*
X427849Y667761D01*
X427840Y667788D01*
X427836Y667816D01*
X427788Y667938D01*
X427745Y668062D01*
X427729Y668085D01*
X427719Y668111D01*
X427642Y668217D01*
X427569Y668327D01*
X427548Y668346D01*
X427531Y668368D01*
X427430Y668452D01*
X427333Y668540D01*
X427308Y668553D01*
X427286Y668571D01*
X427167Y668627D01*
X427051Y668687D01*
X427024Y668694D01*
X426998Y668706D01*
X426869Y668730D01*
X426741Y668760D01*
X426713Y668760D01*
X426686Y668765D01*
X426554Y668757D01*
X426424Y668754D01*
X426396Y668747D01*
X426368Y668745D01*
X426243Y668704D01*
X426117Y668669D01*
X426081Y668651D01*
X426066Y668646D01*
X426048Y668634D01*
X425973Y668597D01*
X423775Y667329D01*
X417347Y665606D01*
X410693Y665606D01*
X404265Y667329D01*
X398502Y670656D01*
X393796Y675362D01*
X390469Y681125D01*
X388746Y687553D01*
X388746Y694207D01*
X390469Y700635D01*
X392830Y704725D01*
X392881Y704848D01*
X392938Y704967D01*
X392943Y704994D01*
X392953Y705019D01*
X392973Y705150D01*
X392998Y705280D01*
X392996Y705306D01*
X393000Y705333D01*
X392986Y705465D01*
X392978Y705597D01*
X392970Y705623D01*
X392967Y705649D01*
X392921Y705774D01*
X392880Y705899D01*
X392865Y705922D01*
X392856Y705948D01*
X392781Y706056D01*
X392710Y706168D01*
X392690Y706187D01*
X392675Y706209D01*
X392575Y706295D01*
X392478Y706386D01*
X392454Y706399D01*
X392434Y706417D01*
X392316Y706476D01*
X392200Y706540D01*
X392173Y706546D01*
X392149Y706558D01*
X392019Y706586D01*
X391892Y706619D01*
X391853Y706621D01*
X391838Y706625D01*
X391816Y706624D01*
X391731Y706629D01*
X48959Y706629D01*
X48828Y706613D01*
X48696Y706602D01*
X48670Y706593D01*
X48644Y706589D01*
X48521Y706541D01*
X48395Y706497D01*
X48373Y706482D01*
X48348Y706472D01*
X48241Y706395D01*
X48130Y706321D01*
X48112Y706301D01*
X48091Y706286D01*
X48006Y706183D01*
X47917Y706085D01*
X47905Y706061D01*
X47888Y706041D01*
X47831Y705921D01*
X47770Y705804D01*
X47764Y705777D01*
X47752Y705753D01*
X47727Y705623D01*
X47697Y705494D01*
X47697Y705467D01*
X47692Y705441D01*
X47701Y705309D01*
X47703Y705176D01*
X47710Y705150D01*
X47712Y705123D01*
X47753Y704997D01*
X47788Y704870D01*
X47805Y704835D01*
X47810Y704821D01*
X47822Y704802D01*
X47860Y704725D01*
X50221Y700635D01*
X51944Y694207D01*
X51944Y687553D01*
X50221Y681125D01*
X46894Y675362D01*
X42188Y670656D01*
X36425Y667329D01*
X29997Y665606D01*
X23343Y665606D01*
X16915Y667329D01*
X13249Y669445D01*
X13128Y669496D01*
X13009Y669552D01*
X12981Y669558D01*
X12955Y669569D01*
X12826Y669588D01*
X12697Y669613D01*
X12669Y669611D01*
X12641Y669615D01*
X12511Y669601D01*
X12379Y669593D01*
X12353Y669585D01*
X12325Y669582D01*
X12202Y669536D01*
X12077Y669496D01*
X12053Y669481D01*
X12026Y669471D01*
X11919Y669396D01*
X11808Y669326D01*
X11788Y669306D01*
X11765Y669290D01*
X11679Y669190D01*
X11589Y669095D01*
X11576Y669070D01*
X11557Y669049D01*
X11499Y668931D01*
X11435Y668817D01*
X11428Y668790D01*
X11416Y668764D01*
X11388Y668636D01*
X11355Y668509D01*
X11353Y668469D01*
X11349Y668453D01*
X11350Y668431D01*
X11345Y668348D01*
X11178Y574457D01*
X11196Y574317D01*
X11209Y574178D01*
X11215Y574160D01*
X11217Y574141D01*
X11243Y574077D01*
X11229Y574022D01*
X11187Y573863D01*
X11187Y573862D01*
X11187Y573861D01*
X11182Y573784D01*
X11177Y573703D01*
X10238Y44757D01*
X10254Y44625D01*
X10266Y44492D01*
X10274Y44467D01*
X10277Y44442D01*
X10326Y44317D01*
X10370Y44191D01*
X10384Y44170D01*
X10394Y44146D01*
X10472Y44038D01*
X10546Y43926D01*
X10565Y43909D01*
X10580Y43888D01*
X10683Y43803D01*
X10782Y43713D01*
X10805Y43701D01*
X10825Y43685D01*
X10945Y43628D01*
X11064Y43566D01*
X11089Y43560D01*
X11112Y43549D01*
X11243Y43523D01*
X11373Y43493D01*
X11399Y43493D01*
X11424Y43488D01*
X11558Y43496D01*
X11691Y43499D01*
X11716Y43506D01*
X11742Y43508D01*
X11869Y43549D01*
X11998Y43584D01*
X12030Y43600D01*
X12045Y43605D01*
X12063Y43617D01*
X12142Y43656D01*
X16915Y46411D01*
X23343Y48134D01*
X29997Y48134D01*
X36425Y46411D01*
X42188Y43084D01*
X46894Y38378D01*
X50221Y32615D01*
X51944Y26187D01*
X51944Y19533D01*
X50201Y13028D01*
X50184Y12904D01*
X50160Y12780D01*
X50162Y12747D01*
X50158Y12713D01*
X50172Y12588D01*
X50180Y12463D01*
X50190Y12431D01*
X50194Y12397D01*
X50239Y12280D01*
X50278Y12161D01*
X50296Y12132D01*
X50308Y12101D01*
X50381Y11998D01*
X50448Y11892D01*
X50473Y11869D01*
X50492Y11841D01*
X50588Y11760D01*
X50680Y11674D01*
X50709Y11658D01*
X50735Y11636D01*
X50848Y11581D01*
X50958Y11520D01*
X50991Y11512D01*
X51021Y11497D01*
X51145Y11472D01*
X51266Y11441D01*
X51315Y11438D01*
X51333Y11434D01*
X51355Y11435D01*
X51427Y11431D01*
X389263Y11431D01*
X389388Y11446D01*
G37*
%LPC*%
G36*
X176760Y48005D02*
X176760Y48005D01*
X171532Y50171D01*
X167531Y54172D01*
X165365Y59400D01*
X165365Y65060D01*
X167531Y70288D01*
X170631Y73388D01*
X170674Y73443D01*
X170724Y73492D01*
X170771Y73568D01*
X170826Y73639D01*
X170854Y73703D01*
X170890Y73763D01*
X170917Y73849D01*
X170952Y73931D01*
X170963Y74000D01*
X170984Y74067D01*
X170988Y74156D01*
X171002Y74245D01*
X170996Y74315D01*
X170999Y74384D01*
X170981Y74472D01*
X170973Y74562D01*
X170949Y74628D01*
X170935Y74696D01*
X170895Y74776D01*
X170865Y74861D01*
X170826Y74919D01*
X170795Y74982D01*
X170737Y75050D01*
X170686Y75124D01*
X170634Y75170D01*
X170589Y75224D01*
X170515Y75275D01*
X170448Y75335D01*
X170386Y75367D01*
X170329Y75407D01*
X170245Y75438D01*
X170165Y75479D01*
X170097Y75495D01*
X170031Y75519D01*
X169942Y75529D01*
X169854Y75549D01*
X169785Y75547D01*
X169715Y75555D01*
X169626Y75542D01*
X169536Y75539D01*
X169469Y75520D01*
X169400Y75510D01*
X169248Y75458D01*
X167426Y74703D01*
X165314Y74703D01*
X163364Y75511D01*
X161871Y77004D01*
X161063Y78954D01*
X161063Y80580D01*
X161053Y80659D01*
X161053Y80739D01*
X161033Y80816D01*
X161023Y80896D01*
X160994Y80970D01*
X160974Y81047D01*
X160936Y81117D01*
X160906Y81191D01*
X160860Y81256D01*
X160821Y81326D01*
X160767Y81384D01*
X160720Y81449D01*
X160658Y81500D01*
X160604Y81558D01*
X160536Y81601D01*
X160475Y81652D01*
X160403Y81686D01*
X160335Y81728D01*
X160259Y81753D01*
X160187Y81787D01*
X160109Y81802D01*
X160033Y81827D01*
X159953Y81832D01*
X159875Y81847D01*
X159795Y81842D01*
X159716Y81847D01*
X159637Y81832D01*
X159557Y81827D01*
X159481Y81803D01*
X159403Y81788D01*
X159331Y81754D01*
X159255Y81729D01*
X159187Y81686D01*
X159115Y81653D01*
X159054Y81602D01*
X158986Y81559D01*
X158931Y81501D01*
X158870Y81450D01*
X158769Y81328D01*
X158768Y81327D01*
X158767Y81326D01*
X157696Y79853D01*
X156368Y78524D01*
X154847Y77419D01*
X153173Y76566D01*
X151386Y75985D01*
X151129Y75945D01*
X151129Y85091D01*
X160275Y85091D01*
X160235Y84834D01*
X160206Y84745D01*
X160202Y84725D01*
X160194Y84707D01*
X160172Y84569D01*
X160146Y84433D01*
X160147Y84413D01*
X160144Y84393D01*
X160157Y84254D01*
X160166Y84115D01*
X160172Y84096D01*
X160174Y84076D01*
X160221Y83945D01*
X160264Y83813D01*
X160275Y83796D01*
X160282Y83777D01*
X160360Y83661D01*
X160434Y83544D01*
X160449Y83530D01*
X160460Y83514D01*
X160565Y83422D01*
X160666Y83326D01*
X160684Y83317D01*
X160699Y83303D01*
X160822Y83240D01*
X160945Y83173D01*
X160964Y83168D01*
X160982Y83159D01*
X161117Y83128D01*
X161253Y83094D01*
X161273Y83094D01*
X161292Y83089D01*
X161432Y83093D01*
X161571Y83093D01*
X161590Y83098D01*
X161610Y83099D01*
X161744Y83138D01*
X161879Y83172D01*
X161896Y83182D01*
X161916Y83187D01*
X162036Y83258D01*
X162158Y83325D01*
X162172Y83339D01*
X162189Y83349D01*
X162310Y83455D01*
X163364Y84509D01*
X165314Y85317D01*
X167426Y85317D01*
X169376Y84509D01*
X170708Y83176D01*
X170787Y83116D01*
X170859Y83048D01*
X170912Y83019D01*
X170960Y82982D01*
X171051Y82942D01*
X171137Y82894D01*
X171196Y82879D01*
X171252Y82855D01*
X171349Y82840D01*
X171445Y82815D01*
X171545Y82809D01*
X171566Y82805D01*
X171578Y82807D01*
X171606Y82805D01*
X177387Y82805D01*
X177485Y82817D01*
X177584Y82820D01*
X177642Y82837D01*
X177702Y82845D01*
X177794Y82881D01*
X177889Y82909D01*
X177942Y82939D01*
X177998Y82962D01*
X178078Y83020D01*
X178163Y83070D01*
X178239Y83136D01*
X178255Y83148D01*
X178263Y83158D01*
X178284Y83176D01*
X210915Y115807D01*
X210945Y115846D01*
X210982Y115880D01*
X211042Y115972D01*
X211110Y116058D01*
X211130Y116104D01*
X211157Y116146D01*
X211193Y116249D01*
X211236Y116350D01*
X211244Y116399D01*
X211260Y116446D01*
X211269Y116556D01*
X211286Y116664D01*
X211281Y116714D01*
X211285Y116763D01*
X211267Y116872D01*
X211256Y116981D01*
X211239Y117028D01*
X211231Y117077D01*
X211186Y117177D01*
X211149Y117280D01*
X211121Y117321D01*
X211100Y117367D01*
X211032Y117452D01*
X210970Y117543D01*
X210933Y117576D01*
X210902Y117615D01*
X210814Y117681D01*
X210732Y117754D01*
X210687Y117777D01*
X210648Y117806D01*
X210503Y117877D01*
X209084Y118465D01*
X208170Y119379D01*
X208076Y119452D01*
X207987Y119531D01*
X207951Y119549D01*
X207919Y119574D01*
X207809Y119621D01*
X207704Y119675D01*
X207664Y119684D01*
X207627Y119700D01*
X207509Y119719D01*
X207393Y119745D01*
X207353Y119744D01*
X207313Y119750D01*
X207194Y119739D01*
X207075Y119735D01*
X207036Y119724D01*
X206996Y119720D01*
X206884Y119680D01*
X206770Y119647D01*
X206735Y119626D01*
X206697Y119613D01*
X206598Y119546D01*
X206496Y119485D01*
X206451Y119446D01*
X206434Y119434D01*
X206420Y119419D01*
X206375Y119379D01*
X205461Y118465D01*
X203511Y117657D01*
X201400Y117657D01*
X199449Y118465D01*
X198117Y119798D01*
X198039Y119858D01*
X197966Y119926D01*
X197913Y119955D01*
X197866Y119992D01*
X197775Y120032D01*
X197688Y120080D01*
X197629Y120095D01*
X197574Y120119D01*
X197476Y120134D01*
X197380Y120159D01*
X197280Y120165D01*
X197260Y120169D01*
X197247Y120167D01*
X197219Y120169D01*
X128928Y120169D01*
X128879Y120163D01*
X128830Y120165D01*
X128722Y120143D01*
X128613Y120129D01*
X128567Y120111D01*
X128518Y120101D01*
X128419Y120053D01*
X128317Y120012D01*
X128277Y119983D01*
X128232Y119961D01*
X128149Y119890D01*
X128060Y119826D01*
X128028Y119787D01*
X127990Y119755D01*
X127927Y119665D01*
X127857Y119581D01*
X127836Y119536D01*
X127807Y119495D01*
X127768Y119392D01*
X127722Y119293D01*
X127712Y119244D01*
X127695Y119198D01*
X127682Y119088D01*
X127662Y118981D01*
X127665Y118931D01*
X127659Y118882D01*
X127675Y118773D01*
X127682Y118663D01*
X127697Y118616D01*
X127704Y118567D01*
X127756Y118414D01*
X128497Y116626D01*
X128497Y114741D01*
X128509Y114643D01*
X128512Y114544D01*
X128529Y114486D01*
X128537Y114426D01*
X128573Y114334D01*
X128601Y114239D01*
X128631Y114186D01*
X128654Y114130D01*
X128712Y114050D01*
X128762Y113965D01*
X128828Y113889D01*
X128840Y113873D01*
X128850Y113865D01*
X128868Y113844D01*
X139724Y102988D01*
X139802Y102928D01*
X139874Y102860D01*
X139927Y102831D01*
X139975Y102794D01*
X140066Y102754D01*
X140153Y102706D01*
X140211Y102691D01*
X140267Y102667D01*
X140365Y102652D01*
X140461Y102627D01*
X140561Y102621D01*
X140581Y102617D01*
X140593Y102619D01*
X140621Y102617D01*
X154798Y102617D01*
X156806Y100608D01*
X156807Y100608D01*
X158998Y98416D01*
X159076Y98356D01*
X159148Y98288D01*
X159201Y98259D01*
X159249Y98222D01*
X159340Y98182D01*
X159427Y98134D01*
X159485Y98119D01*
X159541Y98095D01*
X159639Y98080D01*
X159735Y98055D01*
X159835Y98049D01*
X159855Y98045D01*
X159867Y98047D01*
X159895Y98045D01*
X166849Y98045D01*
X166947Y98057D01*
X167046Y98060D01*
X167105Y98077D01*
X167165Y98085D01*
X167257Y98121D01*
X167352Y98149D01*
X167404Y98179D01*
X167460Y98202D01*
X167540Y98260D01*
X167626Y98310D01*
X167701Y98376D01*
X167718Y98388D01*
X167725Y98398D01*
X167747Y98416D01*
X169079Y99749D01*
X171029Y100557D01*
X173141Y100557D01*
X175091Y99749D01*
X176584Y98256D01*
X177392Y96306D01*
X177392Y94194D01*
X176584Y92244D01*
X175091Y90751D01*
X173141Y89943D01*
X171029Y89943D01*
X169079Y90751D01*
X167747Y92084D01*
X167668Y92144D01*
X167596Y92212D01*
X167543Y92241D01*
X167495Y92278D01*
X167404Y92318D01*
X167318Y92366D01*
X167259Y92381D01*
X167203Y92405D01*
X167106Y92420D01*
X167010Y92445D01*
X166910Y92451D01*
X166889Y92455D01*
X166877Y92453D01*
X166849Y92455D01*
X161322Y92455D01*
X161164Y92435D01*
X161007Y92416D01*
X161007Y92415D01*
X160868Y92360D01*
X160712Y92299D01*
X160711Y92298D01*
X160578Y92202D01*
X160454Y92112D01*
X160318Y91948D01*
X160251Y91867D01*
X160177Y91710D01*
X160116Y91579D01*
X160115Y91579D01*
X160088Y91433D01*
X160056Y91267D01*
X160065Y91115D01*
X160075Y90950D01*
X160075Y90949D01*
X160115Y90794D01*
X160235Y90426D01*
X160275Y90169D01*
X149860Y90169D01*
X149742Y90154D01*
X149623Y90147D01*
X149585Y90134D01*
X149545Y90129D01*
X149434Y90086D01*
X149321Y90049D01*
X149287Y90027D01*
X149249Y90012D01*
X149153Y89942D01*
X149052Y89879D01*
X149024Y89849D01*
X148992Y89825D01*
X148916Y89734D01*
X148834Y89647D01*
X148815Y89612D01*
X148789Y89581D01*
X148738Y89473D01*
X148681Y89369D01*
X148670Y89329D01*
X148653Y89293D01*
X148631Y89176D01*
X148601Y89061D01*
X148597Y89000D01*
X148593Y88980D01*
X148595Y88960D01*
X148591Y88900D01*
X148591Y87629D01*
X148589Y87629D01*
X148589Y88900D01*
X148574Y89018D01*
X148567Y89137D01*
X148554Y89175D01*
X148549Y89215D01*
X148505Y89326D01*
X148469Y89439D01*
X148447Y89474D01*
X148432Y89511D01*
X148362Y89607D01*
X148299Y89708D01*
X148269Y89736D01*
X148245Y89769D01*
X148154Y89844D01*
X148067Y89926D01*
X148032Y89946D01*
X148000Y89971D01*
X147893Y90022D01*
X147788Y90080D01*
X147749Y90090D01*
X147713Y90107D01*
X147596Y90129D01*
X147481Y90159D01*
X147420Y90163D01*
X147400Y90167D01*
X147380Y90165D01*
X147320Y90169D01*
X136905Y90169D01*
X136945Y90426D01*
X137526Y92213D01*
X138379Y93887D01*
X139196Y95012D01*
X139215Y95047D01*
X139241Y95077D01*
X139292Y95186D01*
X139349Y95291D01*
X139359Y95329D01*
X139376Y95365D01*
X139399Y95483D01*
X139429Y95599D01*
X139429Y95638D01*
X139436Y95678D01*
X139429Y95797D01*
X139429Y95917D01*
X139419Y95955D01*
X139416Y95995D01*
X139380Y96108D01*
X139350Y96225D01*
X139331Y96260D01*
X139318Y96297D01*
X139254Y96399D01*
X139197Y96503D01*
X139170Y96532D01*
X139148Y96566D01*
X139061Y96648D01*
X138979Y96735D01*
X138946Y96757D01*
X138917Y96784D01*
X138812Y96842D01*
X138711Y96906D01*
X138673Y96918D01*
X138638Y96938D01*
X138522Y96967D01*
X138408Y97005D01*
X138369Y97007D01*
X138330Y97017D01*
X138169Y97027D01*
X137780Y97027D01*
X124916Y109892D01*
X124838Y109952D01*
X124766Y110020D01*
X124713Y110049D01*
X124665Y110086D01*
X124574Y110126D01*
X124487Y110174D01*
X124429Y110189D01*
X124373Y110213D01*
X124275Y110228D01*
X124179Y110253D01*
X124079Y110259D01*
X124059Y110263D01*
X124047Y110261D01*
X124019Y110263D01*
X122134Y110263D01*
X120184Y111071D01*
X118691Y112564D01*
X117883Y114514D01*
X117883Y116626D01*
X118624Y118414D01*
X118637Y118462D01*
X118658Y118507D01*
X118679Y118615D01*
X118708Y118721D01*
X118709Y118771D01*
X118718Y118820D01*
X118711Y118929D01*
X118713Y119039D01*
X118702Y119087D01*
X118698Y119137D01*
X118665Y119241D01*
X118639Y119348D01*
X118616Y119392D01*
X118600Y119439D01*
X118542Y119532D01*
X118490Y119629D01*
X118457Y119666D01*
X118430Y119708D01*
X118350Y119783D01*
X118276Y119865D01*
X118235Y119892D01*
X118199Y119926D01*
X118103Y119979D01*
X118011Y120039D01*
X117964Y120056D01*
X117920Y120080D01*
X117814Y120107D01*
X117710Y120143D01*
X117660Y120147D01*
X117612Y120159D01*
X117452Y120169D01*
X115777Y120169D01*
X115679Y120157D01*
X115580Y120154D01*
X115521Y120137D01*
X115461Y120129D01*
X115369Y120093D01*
X115274Y120065D01*
X115222Y120035D01*
X115166Y120012D01*
X115086Y119954D01*
X115000Y119904D01*
X114925Y119838D01*
X114908Y119826D01*
X114901Y119816D01*
X114879Y119798D01*
X95801Y100719D01*
X95716Y100610D01*
X95627Y100503D01*
X95619Y100484D01*
X95606Y100468D01*
X95551Y100340D01*
X95492Y100215D01*
X95488Y100195D01*
X95480Y100176D01*
X95458Y100038D01*
X95432Y99902D01*
X95433Y99882D01*
X95430Y99862D01*
X95443Y99723D01*
X95452Y99585D01*
X95458Y99566D01*
X95460Y99546D01*
X95507Y99414D01*
X95550Y99283D01*
X95561Y99265D01*
X95568Y99246D01*
X95646Y99131D01*
X95720Y99014D01*
X95735Y99000D01*
X95746Y98983D01*
X95850Y98891D01*
X95952Y98796D01*
X95969Y98786D01*
X95985Y98773D01*
X96108Y98709D01*
X96230Y98642D01*
X96250Y98637D01*
X96268Y98628D01*
X96404Y98598D01*
X96538Y98563D01*
X96566Y98561D01*
X96578Y98558D01*
X96599Y98559D01*
X96699Y98553D01*
X99963Y98553D01*
X103977Y96890D01*
X107050Y93817D01*
X108713Y89803D01*
X108713Y85457D01*
X107050Y81443D01*
X103977Y78370D01*
X99963Y76707D01*
X95617Y76707D01*
X91603Y78370D01*
X88530Y81443D01*
X86867Y85457D01*
X86867Y85879D01*
X86861Y85929D01*
X86863Y85978D01*
X86841Y86086D01*
X86827Y86195D01*
X86809Y86241D01*
X86799Y86290D01*
X86751Y86388D01*
X86710Y86490D01*
X86681Y86531D01*
X86659Y86575D01*
X86588Y86659D01*
X86524Y86748D01*
X86485Y86780D01*
X86453Y86817D01*
X86363Y86880D01*
X86279Y86951D01*
X86234Y86972D01*
X86193Y87000D01*
X86090Y87039D01*
X85991Y87086D01*
X85942Y87095D01*
X85896Y87113D01*
X85786Y87125D01*
X85679Y87146D01*
X85629Y87143D01*
X85580Y87148D01*
X85471Y87133D01*
X85361Y87126D01*
X85314Y87111D01*
X85265Y87104D01*
X85112Y87052D01*
X84142Y86650D01*
X82030Y86650D01*
X80080Y87458D01*
X78587Y88950D01*
X77779Y90901D01*
X77779Y93012D01*
X78587Y94963D01*
X80080Y96455D01*
X82030Y97263D01*
X83915Y97263D01*
X84013Y97276D01*
X84112Y97279D01*
X84170Y97295D01*
X84230Y97303D01*
X84322Y97340D01*
X84417Y97367D01*
X84470Y97398D01*
X84526Y97420D01*
X84606Y97478D01*
X84691Y97529D01*
X84767Y97595D01*
X84783Y97607D01*
X84791Y97616D01*
X84812Y97635D01*
X110767Y123590D01*
X110810Y123645D01*
X110860Y123693D01*
X110907Y123770D01*
X110962Y123841D01*
X110990Y123905D01*
X111026Y123965D01*
X111052Y124050D01*
X111088Y124133D01*
X111099Y124202D01*
X111120Y124269D01*
X111124Y124358D01*
X111138Y124447D01*
X111132Y124517D01*
X111135Y124586D01*
X111117Y124674D01*
X111108Y124764D01*
X111085Y124829D01*
X111071Y124898D01*
X111031Y124978D01*
X111001Y125063D01*
X110962Y125121D01*
X110931Y125183D01*
X110872Y125252D01*
X110822Y125326D01*
X110770Y125372D01*
X110724Y125425D01*
X110651Y125477D01*
X110584Y125537D01*
X110522Y125568D01*
X110464Y125608D01*
X110380Y125640D01*
X110300Y125681D01*
X110232Y125696D01*
X110167Y125721D01*
X110078Y125731D01*
X109990Y125751D01*
X109920Y125749D01*
X109851Y125756D01*
X109762Y125744D01*
X109672Y125741D01*
X109605Y125722D01*
X109536Y125712D01*
X109384Y125660D01*
X109006Y125503D01*
X106894Y125503D01*
X104944Y126311D01*
X103451Y127804D01*
X102643Y129754D01*
X102643Y131866D01*
X103451Y133816D01*
X104944Y135309D01*
X106894Y136117D01*
X108779Y136117D01*
X108877Y136129D01*
X108976Y136132D01*
X109034Y136149D01*
X109094Y136157D01*
X109186Y136193D01*
X109281Y136221D01*
X109334Y136251D01*
X109390Y136274D01*
X109470Y136332D01*
X109555Y136382D01*
X109631Y136448D01*
X109647Y136460D01*
X109655Y136470D01*
X109676Y136488D01*
X119492Y146305D01*
X124047Y146305D01*
X124145Y146317D01*
X124244Y146320D01*
X124302Y146337D01*
X124362Y146345D01*
X124454Y146381D01*
X124549Y146409D01*
X124602Y146439D01*
X124658Y146462D01*
X124738Y146520D01*
X124823Y146570D01*
X124899Y146636D01*
X124915Y146648D01*
X124923Y146658D01*
X124944Y146676D01*
X142352Y164085D01*
X150974Y164085D01*
X151072Y164097D01*
X151171Y164100D01*
X151230Y164117D01*
X151290Y164125D01*
X151382Y164161D01*
X151477Y164189D01*
X151529Y164219D01*
X151585Y164242D01*
X151665Y164300D01*
X151751Y164350D01*
X151826Y164416D01*
X151843Y164428D01*
X151850Y164438D01*
X151872Y164456D01*
X153204Y165789D01*
X155154Y166597D01*
X157266Y166597D01*
X159216Y165789D01*
X160709Y164296D01*
X161517Y162346D01*
X161517Y160234D01*
X160709Y158284D01*
X159216Y156791D01*
X157266Y155983D01*
X155154Y155983D01*
X153204Y156791D01*
X151872Y158124D01*
X151793Y158184D01*
X151721Y158252D01*
X151668Y158281D01*
X151620Y158318D01*
X151529Y158358D01*
X151443Y158406D01*
X151384Y158421D01*
X151328Y158445D01*
X151231Y158460D01*
X151135Y158485D01*
X151035Y158491D01*
X151014Y158495D01*
X151002Y158493D01*
X150974Y158495D01*
X148517Y158495D01*
X148448Y158487D01*
X148378Y158488D01*
X148290Y158467D01*
X148201Y158455D01*
X148136Y158430D01*
X148068Y158413D01*
X147989Y158371D01*
X147906Y158338D01*
X147849Y158297D01*
X147787Y158265D01*
X147721Y158204D01*
X147648Y158152D01*
X147604Y158098D01*
X147552Y158051D01*
X147503Y157976D01*
X147445Y157907D01*
X147416Y157843D01*
X147377Y157785D01*
X147348Y157700D01*
X147310Y157619D01*
X147297Y157550D01*
X147274Y157484D01*
X147267Y157395D01*
X147250Y157307D01*
X147254Y157237D01*
X147249Y157167D01*
X147264Y157079D01*
X147270Y156989D01*
X147291Y156923D01*
X147303Y156854D01*
X147340Y156772D01*
X147368Y156687D01*
X147405Y156628D01*
X147434Y156564D01*
X147490Y156494D01*
X147538Y156418D01*
X147589Y156370D01*
X147632Y156316D01*
X147704Y156261D01*
X147770Y156200D01*
X147831Y156166D01*
X147887Y156124D01*
X148031Y156053D01*
X149056Y155629D01*
X150549Y154136D01*
X151357Y152186D01*
X151357Y150301D01*
X151369Y150203D01*
X151372Y150104D01*
X151389Y150046D01*
X151397Y149986D01*
X151433Y149894D01*
X151461Y149799D01*
X151491Y149746D01*
X151514Y149690D01*
X151572Y149610D01*
X151622Y149525D01*
X151688Y149449D01*
X151700Y149433D01*
X151710Y149425D01*
X151728Y149404D01*
X159536Y141596D01*
X159614Y141536D01*
X159686Y141468D01*
X159739Y141439D01*
X159787Y141402D01*
X159878Y141362D01*
X159965Y141314D01*
X160023Y141299D01*
X160079Y141275D01*
X160177Y141260D01*
X160273Y141235D01*
X160373Y141229D01*
X160393Y141225D01*
X160405Y141227D01*
X160433Y141225D01*
X189074Y141225D01*
X189172Y141237D01*
X189271Y141240D01*
X189330Y141257D01*
X189390Y141265D01*
X189482Y141301D01*
X189577Y141329D01*
X189629Y141359D01*
X189685Y141382D01*
X189765Y141440D01*
X189851Y141490D01*
X189926Y141556D01*
X189943Y141568D01*
X189950Y141578D01*
X189972Y141596D01*
X191304Y142929D01*
X193254Y143737D01*
X195366Y143737D01*
X197316Y142929D01*
X198809Y141436D01*
X199617Y139486D01*
X199617Y137374D01*
X198782Y135360D01*
X198769Y135312D01*
X198748Y135267D01*
X198727Y135159D01*
X198698Y135053D01*
X198697Y135003D01*
X198688Y134954D01*
X198695Y134845D01*
X198693Y134735D01*
X198705Y134687D01*
X198708Y134637D01*
X198742Y134533D01*
X198767Y134426D01*
X198791Y134382D01*
X198806Y134335D01*
X198865Y134242D01*
X198916Y134145D01*
X198949Y134108D01*
X198976Y134066D01*
X199056Y133991D01*
X199130Y133909D01*
X199172Y133882D01*
X199208Y133848D01*
X199304Y133795D01*
X199396Y133735D01*
X199443Y133718D01*
X199486Y133694D01*
X199592Y133667D01*
X199697Y133631D01*
X199746Y133627D01*
X199794Y133615D01*
X199955Y133605D01*
X205402Y133605D01*
X210364Y128642D01*
X210442Y128582D01*
X210514Y128514D01*
X210567Y128485D01*
X210615Y128448D01*
X210706Y128408D01*
X210793Y128360D01*
X210851Y128345D01*
X210907Y128321D01*
X211005Y128306D01*
X211101Y128281D01*
X211201Y128275D01*
X211221Y128271D01*
X211233Y128273D01*
X211261Y128271D01*
X213146Y128271D01*
X215096Y127463D01*
X216589Y125970D01*
X217177Y124551D01*
X217201Y124508D01*
X217218Y124461D01*
X217280Y124370D01*
X217334Y124275D01*
X217369Y124239D01*
X217397Y124198D01*
X217479Y124125D01*
X217555Y124046D01*
X217598Y124020D01*
X217635Y123987D01*
X217733Y123937D01*
X217827Y123880D01*
X217874Y123865D01*
X217918Y123843D01*
X218026Y123819D01*
X218131Y123786D01*
X218180Y123784D01*
X218229Y123773D01*
X218339Y123776D01*
X218448Y123771D01*
X218497Y123781D01*
X218547Y123783D01*
X218652Y123813D01*
X218760Y123836D01*
X218804Y123857D01*
X218852Y123871D01*
X218946Y123927D01*
X219045Y123975D01*
X219083Y124008D01*
X219126Y124033D01*
X219247Y124139D01*
X221652Y126544D01*
X221712Y126622D01*
X221780Y126694D01*
X221809Y126747D01*
X221846Y126795D01*
X221886Y126886D01*
X221934Y126973D01*
X221949Y127031D01*
X221973Y127087D01*
X221988Y127185D01*
X222013Y127281D01*
X222019Y127381D01*
X222023Y127401D01*
X222021Y127413D01*
X222023Y127441D01*
X222023Y129326D01*
X222831Y131276D01*
X224324Y132769D01*
X226274Y133577D01*
X227076Y133577D01*
X227194Y133592D01*
X227313Y133599D01*
X227351Y133612D01*
X227392Y133617D01*
X227502Y133660D01*
X227615Y133697D01*
X227650Y133719D01*
X227687Y133734D01*
X227783Y133803D01*
X227884Y133867D01*
X227912Y133897D01*
X227945Y133920D01*
X228021Y134012D01*
X228102Y134099D01*
X228122Y134134D01*
X228147Y134165D01*
X228198Y134273D01*
X228256Y134377D01*
X228266Y134417D01*
X228283Y134453D01*
X228305Y134570D01*
X228335Y134685D01*
X228339Y134745D01*
X228343Y134765D01*
X228341Y134786D01*
X228345Y134846D01*
X228345Y159197D01*
X228333Y159295D01*
X228330Y159394D01*
X228313Y159452D01*
X228305Y159512D01*
X228269Y159604D01*
X228241Y159699D01*
X228211Y159752D01*
X228188Y159808D01*
X228130Y159888D01*
X228080Y159973D01*
X228014Y160049D01*
X228002Y160065D01*
X227992Y160073D01*
X227974Y160094D01*
X223039Y165029D01*
X223039Y177923D01*
X223022Y178060D01*
X223009Y178199D01*
X223002Y178218D01*
X222999Y178238D01*
X222948Y178367D01*
X222901Y178498D01*
X222890Y178515D01*
X222882Y178534D01*
X222801Y178646D01*
X222723Y178761D01*
X222707Y178775D01*
X222696Y178791D01*
X222588Y178880D01*
X222484Y178972D01*
X222466Y178981D01*
X222451Y178994D01*
X222325Y179053D01*
X222201Y179117D01*
X222181Y179121D01*
X222163Y179130D01*
X222027Y179156D01*
X221891Y179186D01*
X221870Y179186D01*
X221851Y179189D01*
X221712Y179181D01*
X221573Y179177D01*
X221553Y179171D01*
X221533Y179170D01*
X221401Y179127D01*
X221267Y179088D01*
X221250Y179078D01*
X221231Y179072D01*
X221113Y178997D01*
X220993Y178927D01*
X220972Y178908D01*
X220962Y178901D01*
X220948Y178887D01*
X220873Y178820D01*
X196178Y154126D01*
X196118Y154048D01*
X196050Y153976D01*
X196021Y153923D01*
X195984Y153875D01*
X195944Y153784D01*
X195896Y153697D01*
X195881Y153639D01*
X195857Y153583D01*
X195842Y153485D01*
X195817Y153389D01*
X195811Y153289D01*
X195807Y153269D01*
X195809Y153257D01*
X195807Y153229D01*
X195807Y151344D01*
X194999Y149394D01*
X193506Y147901D01*
X191556Y147093D01*
X189444Y147093D01*
X187494Y147901D01*
X186001Y149394D01*
X185193Y151344D01*
X185193Y153456D01*
X186001Y155406D01*
X187494Y156899D01*
X189444Y157707D01*
X191329Y157707D01*
X191427Y157719D01*
X191526Y157722D01*
X191584Y157739D01*
X191644Y157747D01*
X191736Y157783D01*
X191831Y157811D01*
X191884Y157841D01*
X191940Y157864D01*
X192020Y157922D01*
X192105Y157972D01*
X192181Y158038D01*
X192197Y158050D01*
X192205Y158060D01*
X192226Y158078D01*
X237495Y203347D01*
X237513Y203371D01*
X237536Y203390D01*
X237610Y203496D01*
X237690Y203599D01*
X237702Y203626D01*
X237719Y203650D01*
X237765Y203771D01*
X237816Y203891D01*
X237821Y203920D01*
X237831Y203947D01*
X237846Y204076D01*
X237866Y204205D01*
X237863Y204234D01*
X237867Y204263D01*
X237849Y204392D01*
X237836Y204521D01*
X237826Y204549D01*
X237822Y204578D01*
X237770Y204731D01*
X237263Y205954D01*
X237263Y207644D01*
X237246Y207782D01*
X237233Y207921D01*
X237226Y207940D01*
X237223Y207960D01*
X237172Y208089D01*
X237125Y208220D01*
X237114Y208237D01*
X237106Y208255D01*
X237025Y208368D01*
X236947Y208483D01*
X236931Y208496D01*
X236920Y208513D01*
X236812Y208602D01*
X236708Y208693D01*
X236690Y208703D01*
X236675Y208716D01*
X236549Y208775D01*
X236425Y208838D01*
X236405Y208842D01*
X236387Y208851D01*
X236250Y208877D01*
X236115Y208908D01*
X236094Y208907D01*
X236075Y208911D01*
X235936Y208902D01*
X235797Y208898D01*
X235777Y208892D01*
X235757Y208891D01*
X235625Y208848D01*
X235491Y208810D01*
X235474Y208799D01*
X235455Y208793D01*
X235337Y208719D01*
X235217Y208648D01*
X235196Y208629D01*
X235186Y208623D01*
X235172Y208608D01*
X235097Y208542D01*
X234146Y207591D01*
X232196Y206783D01*
X230084Y206783D01*
X228134Y207591D01*
X226631Y209094D01*
X226574Y209183D01*
X226510Y209296D01*
X226490Y209317D01*
X226474Y209342D01*
X226379Y209431D01*
X226289Y209524D01*
X226264Y209540D01*
X226242Y209560D01*
X226129Y209623D01*
X226018Y209691D01*
X225990Y209699D01*
X225964Y209714D01*
X225838Y209746D01*
X225714Y209784D01*
X225684Y209786D01*
X225656Y209793D01*
X225495Y209803D01*
X218878Y209803D01*
X218780Y209791D01*
X218681Y209788D01*
X218622Y209771D01*
X218562Y209763D01*
X218470Y209727D01*
X218375Y209699D01*
X218323Y209669D01*
X218267Y209646D01*
X218187Y209588D01*
X218101Y209538D01*
X218026Y209472D01*
X218009Y209460D01*
X218002Y209450D01*
X217980Y209432D01*
X217636Y209087D01*
X215686Y208279D01*
X213574Y208279D01*
X211624Y209087D01*
X210131Y210580D01*
X209707Y211605D01*
X209672Y211666D01*
X209646Y211730D01*
X209594Y211803D01*
X209549Y211881D01*
X209501Y211931D01*
X209460Y211988D01*
X209390Y212045D01*
X209328Y212110D01*
X209268Y212146D01*
X209215Y212191D01*
X209133Y212229D01*
X209057Y212276D01*
X208990Y212296D01*
X208927Y212326D01*
X208839Y212343D01*
X208753Y212370D01*
X208683Y212373D01*
X208614Y212386D01*
X208525Y212380D01*
X208435Y212385D01*
X208367Y212371D01*
X208297Y212366D01*
X208212Y212339D01*
X208124Y212320D01*
X208061Y212290D01*
X207995Y212268D01*
X207919Y212220D01*
X207838Y212181D01*
X207785Y212135D01*
X207726Y212098D01*
X207664Y212033D01*
X207596Y211974D01*
X207556Y211917D01*
X207508Y211866D01*
X207465Y211788D01*
X207413Y211714D01*
X207388Y211649D01*
X207354Y211588D01*
X207332Y211501D01*
X207300Y211417D01*
X207292Y211348D01*
X207275Y211280D01*
X207265Y211119D01*
X207265Y208392D01*
X170068Y171195D01*
X110417Y171195D01*
X110348Y171187D01*
X110278Y171188D01*
X110190Y171167D01*
X110101Y171155D01*
X110036Y171130D01*
X109968Y171113D01*
X109889Y171071D01*
X109806Y171038D01*
X109749Y170997D01*
X109687Y170965D01*
X109621Y170904D01*
X109548Y170852D01*
X109504Y170798D01*
X109452Y170751D01*
X109403Y170676D01*
X109345Y170607D01*
X109316Y170543D01*
X109277Y170485D01*
X109248Y170400D01*
X109210Y170319D01*
X109197Y170250D01*
X109174Y170184D01*
X109167Y170095D01*
X109150Y170007D01*
X109154Y169937D01*
X109149Y169867D01*
X109164Y169779D01*
X109170Y169689D01*
X109191Y169623D01*
X109203Y169554D01*
X109240Y169472D01*
X109268Y169387D01*
X109305Y169328D01*
X109334Y169264D01*
X109390Y169194D01*
X109438Y169118D01*
X109489Y169070D01*
X109532Y169016D01*
X109604Y168962D01*
X109670Y168900D01*
X109731Y168866D01*
X109787Y168824D01*
X109931Y168753D01*
X110956Y168329D01*
X112449Y166836D01*
X113257Y164886D01*
X113257Y162774D01*
X112449Y160824D01*
X110956Y159331D01*
X109006Y158523D01*
X106894Y158523D01*
X104944Y159331D01*
X104374Y159902D01*
X104295Y159962D01*
X104223Y160030D01*
X104170Y160059D01*
X104122Y160096D01*
X104031Y160136D01*
X103945Y160184D01*
X103886Y160199D01*
X103830Y160223D01*
X103733Y160238D01*
X103637Y160263D01*
X103537Y160269D01*
X103516Y160273D01*
X103504Y160271D01*
X103476Y160273D01*
X92169Y160273D01*
X92071Y160261D01*
X91972Y160258D01*
X91914Y160241D01*
X91853Y160233D01*
X91761Y160197D01*
X91666Y160169D01*
X91614Y160139D01*
X91558Y160116D01*
X91478Y160058D01*
X91392Y160008D01*
X91317Y159942D01*
X91300Y159930D01*
X91293Y159920D01*
X91271Y159902D01*
X90768Y159399D01*
X90708Y159320D01*
X90640Y159248D01*
X90611Y159195D01*
X90574Y159147D01*
X90534Y159056D01*
X90486Y158970D01*
X90471Y158911D01*
X90447Y158855D01*
X90432Y158757D01*
X90407Y158662D01*
X90401Y158562D01*
X90397Y158541D01*
X90399Y158529D01*
X90397Y158501D01*
X90397Y157694D01*
X89589Y155744D01*
X88096Y154251D01*
X86024Y153393D01*
X85998Y153378D01*
X85970Y153369D01*
X85861Y153300D01*
X85748Y153235D01*
X85727Y153215D01*
X85702Y153199D01*
X85613Y153104D01*
X85519Y153014D01*
X85504Y152989D01*
X85484Y152967D01*
X85421Y152854D01*
X85353Y152743D01*
X85344Y152715D01*
X85330Y152689D01*
X85298Y152563D01*
X85260Y152439D01*
X85258Y152410D01*
X85251Y152381D01*
X85241Y152220D01*
X85241Y149998D01*
X84433Y148048D01*
X82940Y146555D01*
X80989Y145747D01*
X78878Y145747D01*
X76928Y146555D01*
X75435Y148048D01*
X74627Y149998D01*
X74627Y152109D01*
X75449Y154094D01*
X75476Y154123D01*
X75500Y154167D01*
X75508Y154175D01*
X75511Y154183D01*
X75542Y154223D01*
X75582Y154314D01*
X75630Y154401D01*
X75645Y154460D01*
X75669Y154515D01*
X75684Y154613D01*
X75709Y154709D01*
X75715Y154809D01*
X75719Y154829D01*
X75717Y154842D01*
X75719Y154870D01*
X75719Y162631D01*
X89873Y176785D01*
X95323Y176785D01*
X95392Y176793D01*
X95462Y176792D01*
X95550Y176813D01*
X95639Y176825D01*
X95704Y176850D01*
X95772Y176867D01*
X95851Y176909D01*
X95934Y176942D01*
X95991Y176983D01*
X96053Y177015D01*
X96119Y177076D01*
X96192Y177128D01*
X96236Y177182D01*
X96288Y177229D01*
X96337Y177304D01*
X96395Y177373D01*
X96424Y177437D01*
X96463Y177495D01*
X96492Y177580D01*
X96530Y177661D01*
X96543Y177730D01*
X96566Y177796D01*
X96573Y177885D01*
X96590Y177973D01*
X96586Y178043D01*
X96591Y178113D01*
X96576Y178201D01*
X96570Y178291D01*
X96549Y178357D01*
X96537Y178426D01*
X96500Y178508D01*
X96472Y178593D01*
X96435Y178652D01*
X96406Y178716D01*
X96350Y178786D01*
X96302Y178862D01*
X96251Y178910D01*
X96208Y178964D01*
X96136Y179019D01*
X96070Y179080D01*
X96009Y179114D01*
X95953Y179156D01*
X95809Y179227D01*
X94784Y179651D01*
X93291Y181144D01*
X92483Y183094D01*
X92483Y185206D01*
X93291Y187156D01*
X94784Y188649D01*
X96422Y189327D01*
X96543Y189396D01*
X96666Y189461D01*
X96681Y189475D01*
X96698Y189485D01*
X96799Y189582D01*
X96901Y189675D01*
X96912Y189692D01*
X96927Y189706D01*
X97000Y189825D01*
X97076Y189941D01*
X97082Y189960D01*
X97093Y189977D01*
X97134Y190110D01*
X97179Y190242D01*
X97181Y190262D01*
X97187Y190281D01*
X97193Y190420D01*
X97204Y190559D01*
X97201Y190579D01*
X97202Y190599D01*
X97174Y190735D01*
X97150Y190872D01*
X97142Y190891D01*
X97137Y190910D01*
X97076Y191036D01*
X97019Y191162D01*
X97007Y191178D01*
X96998Y191196D01*
X96907Y191302D01*
X96821Y191410D01*
X96805Y191423D01*
X96791Y191438D01*
X96678Y191518D01*
X96567Y191602D01*
X96541Y191614D01*
X96531Y191621D01*
X96512Y191628D01*
X96422Y191673D01*
X94784Y192351D01*
X93452Y193684D01*
X93373Y193744D01*
X93301Y193812D01*
X93248Y193841D01*
X93200Y193878D01*
X93109Y193918D01*
X93023Y193966D01*
X92964Y193981D01*
X92908Y194005D01*
X92811Y194020D01*
X92715Y194045D01*
X92615Y194051D01*
X92594Y194055D01*
X92582Y194053D01*
X92554Y194055D01*
X58532Y194055D01*
X13715Y238872D01*
X13715Y573700D01*
X13697Y573845D01*
X13676Y574014D01*
X13676Y574015D01*
X13675Y574016D01*
X13663Y574048D01*
X13669Y574072D01*
X13693Y574128D01*
X13708Y574225D01*
X13733Y574321D01*
X13739Y574422D01*
X13743Y574442D01*
X13742Y574454D01*
X13743Y574481D01*
X13743Y576366D01*
X14551Y578316D01*
X16044Y579809D01*
X17994Y580617D01*
X20106Y580617D01*
X22056Y579809D01*
X23549Y578316D01*
X24357Y576366D01*
X24357Y574254D01*
X23549Y572304D01*
X22056Y570811D01*
X20088Y569996D01*
X20063Y569981D01*
X20035Y569972D01*
X19925Y569903D01*
X19812Y569839D01*
X19791Y569818D01*
X19766Y569802D01*
X19677Y569708D01*
X19584Y569617D01*
X19568Y569592D01*
X19548Y569571D01*
X19485Y569457D01*
X19417Y569346D01*
X19409Y569318D01*
X19394Y569292D01*
X19362Y569166D01*
X19324Y569042D01*
X19322Y569013D01*
X19315Y568984D01*
X19305Y568823D01*
X19305Y449507D01*
X19313Y449438D01*
X19312Y449368D01*
X19333Y449280D01*
X19345Y449191D01*
X19370Y449126D01*
X19387Y449058D01*
X19429Y448979D01*
X19462Y448896D01*
X19503Y448839D01*
X19535Y448777D01*
X19596Y448711D01*
X19648Y448638D01*
X19702Y448594D01*
X19749Y448542D01*
X19824Y448493D01*
X19893Y448435D01*
X19957Y448406D01*
X20015Y448367D01*
X20100Y448338D01*
X20181Y448300D01*
X20250Y448287D01*
X20316Y448264D01*
X20405Y448257D01*
X20493Y448240D01*
X20563Y448244D01*
X20633Y448239D01*
X20721Y448254D01*
X20811Y448260D01*
X20877Y448281D01*
X20946Y448293D01*
X21028Y448330D01*
X21113Y448358D01*
X21172Y448395D01*
X21236Y448424D01*
X21306Y448480D01*
X21382Y448528D01*
X21430Y448579D01*
X21484Y448622D01*
X21538Y448694D01*
X21600Y448760D01*
X21634Y448821D01*
X21676Y448877D01*
X21747Y449021D01*
X22171Y450046D01*
X23664Y451539D01*
X25614Y452347D01*
X27726Y452347D01*
X29676Y451539D01*
X29736Y451478D01*
X29846Y451393D01*
X29953Y451304D01*
X29972Y451296D01*
X29988Y451283D01*
X30115Y451228D01*
X30241Y451169D01*
X30261Y451165D01*
X30280Y451157D01*
X30417Y451135D01*
X30554Y451109D01*
X30574Y451110D01*
X30594Y451107D01*
X30732Y451120D01*
X30871Y451129D01*
X30890Y451135D01*
X30910Y451137D01*
X31041Y451184D01*
X31173Y451227D01*
X31191Y451238D01*
X31210Y451245D01*
X31325Y451323D01*
X31442Y451397D01*
X31456Y451412D01*
X31473Y451423D01*
X31565Y451527D01*
X31660Y451629D01*
X31670Y451646D01*
X31683Y451662D01*
X31746Y451785D01*
X31814Y451907D01*
X31819Y451927D01*
X31828Y451945D01*
X31858Y452081D01*
X31893Y452215D01*
X31895Y452243D01*
X31898Y452255D01*
X31897Y452276D01*
X31903Y452376D01*
X31903Y552025D01*
X38386Y558509D01*
X38472Y558618D01*
X38560Y558725D01*
X38569Y558744D01*
X38581Y558760D01*
X38637Y558888D01*
X38696Y559013D01*
X38700Y559033D01*
X38708Y559052D01*
X38730Y559190D01*
X38756Y559326D01*
X38754Y559346D01*
X38758Y559366D01*
X38745Y559505D01*
X38736Y559643D01*
X38730Y559662D01*
X38728Y559682D01*
X38681Y559814D01*
X38638Y559945D01*
X38627Y559963D01*
X38620Y559982D01*
X38542Y560097D01*
X38468Y560214D01*
X38453Y560228D01*
X38442Y560245D01*
X38337Y560337D01*
X38236Y560432D01*
X38218Y560442D01*
X38203Y560455D01*
X38079Y560519D01*
X37958Y560586D01*
X37938Y560591D01*
X37920Y560600D01*
X37784Y560630D01*
X37650Y560665D01*
X37622Y560667D01*
X37610Y560670D01*
X37589Y560669D01*
X37489Y560675D01*
X37368Y560675D01*
X36475Y561568D01*
X36475Y575532D01*
X37368Y576425D01*
X64123Y576425D01*
X64171Y576404D01*
X64276Y576350D01*
X64316Y576341D01*
X64353Y576325D01*
X64471Y576306D01*
X64587Y576280D01*
X64627Y576282D01*
X64667Y576275D01*
X64785Y576286D01*
X64905Y576290D01*
X64943Y576301D01*
X64984Y576305D01*
X65096Y576345D01*
X65210Y576378D01*
X65245Y576399D01*
X65283Y576413D01*
X65381Y576479D01*
X65484Y576540D01*
X65529Y576580D01*
X65546Y576591D01*
X65559Y576606D01*
X65605Y576646D01*
X66712Y577753D01*
X66772Y577831D01*
X66840Y577903D01*
X66869Y577956D01*
X66906Y578004D01*
X66946Y578095D01*
X66994Y578182D01*
X67009Y578241D01*
X67033Y578296D01*
X67048Y578394D01*
X67073Y578490D01*
X67079Y578590D01*
X67083Y578610D01*
X67081Y578623D01*
X67083Y578651D01*
X67083Y580176D01*
X67891Y582126D01*
X69384Y583619D01*
X71334Y584427D01*
X73446Y584427D01*
X75396Y583619D01*
X76889Y582126D01*
X77697Y580176D01*
X77697Y578064D01*
X76889Y576114D01*
X75396Y574621D01*
X73446Y573813D01*
X71921Y573813D01*
X71822Y573801D01*
X71723Y573798D01*
X71665Y573781D01*
X71605Y573773D01*
X71513Y573737D01*
X71418Y573709D01*
X71366Y573679D01*
X71309Y573656D01*
X71229Y573598D01*
X71144Y573548D01*
X71069Y573482D01*
X71052Y573470D01*
X71044Y573460D01*
X71023Y573442D01*
X69868Y572287D01*
X69808Y572209D01*
X69740Y572137D01*
X69711Y572084D01*
X69674Y572036D01*
X69634Y571945D01*
X69586Y571858D01*
X69571Y571799D01*
X69547Y571744D01*
X69532Y571646D01*
X69507Y571550D01*
X69501Y571450D01*
X69497Y571430D01*
X69499Y571417D01*
X69497Y571389D01*
X69497Y559675D01*
X65925Y556103D01*
X45130Y556103D01*
X45032Y556091D01*
X44933Y556088D01*
X44875Y556071D01*
X44815Y556063D01*
X44722Y556027D01*
X44627Y555999D01*
X44575Y555969D01*
X44519Y555946D01*
X44439Y555888D01*
X44353Y555838D01*
X44278Y555772D01*
X44262Y555760D01*
X44254Y555750D01*
X44233Y555732D01*
X42709Y554207D01*
X42623Y554098D01*
X42535Y553991D01*
X42526Y553972D01*
X42514Y553956D01*
X42458Y553829D01*
X42399Y553703D01*
X42395Y553683D01*
X42387Y553664D01*
X42365Y553526D01*
X42339Y553390D01*
X42341Y553370D01*
X42337Y553350D01*
X42350Y553211D01*
X42359Y553073D01*
X42365Y553054D01*
X42367Y553034D01*
X42414Y552902D01*
X42457Y552771D01*
X42468Y552753D01*
X42475Y552734D01*
X42553Y552619D01*
X42627Y552502D01*
X42642Y552488D01*
X42653Y552471D01*
X42758Y552379D01*
X42859Y552284D01*
X42877Y552274D01*
X42892Y552261D01*
X43016Y552197D01*
X43137Y552130D01*
X43157Y552125D01*
X43175Y552116D01*
X43311Y552086D01*
X43445Y552051D01*
X43473Y552049D01*
X43485Y552046D01*
X43506Y552047D01*
X43606Y552041D01*
X48161Y552041D01*
X48161Y544420D01*
X48176Y544302D01*
X48183Y544183D01*
X48196Y544145D01*
X48201Y544105D01*
X48244Y543994D01*
X48281Y543881D01*
X48303Y543846D01*
X48318Y543809D01*
X48388Y543713D01*
X48451Y543612D01*
X48481Y543584D01*
X48505Y543552D01*
X48596Y543476D01*
X48683Y543394D01*
X48718Y543375D01*
X48749Y543349D01*
X48857Y543298D01*
X48961Y543241D01*
X49001Y543230D01*
X49037Y543213D01*
X49154Y543191D01*
X49269Y543161D01*
X49330Y543157D01*
X49350Y543153D01*
X49370Y543155D01*
X49430Y543151D01*
X50701Y543151D01*
X50701Y543149D01*
X49430Y543149D01*
X49312Y543134D01*
X49193Y543127D01*
X49155Y543114D01*
X49115Y543109D01*
X49004Y543065D01*
X48891Y543029D01*
X48856Y543007D01*
X48819Y542992D01*
X48723Y542922D01*
X48622Y542859D01*
X48594Y542829D01*
X48561Y542805D01*
X48486Y542714D01*
X48404Y542627D01*
X48384Y542592D01*
X48359Y542560D01*
X48308Y542453D01*
X48250Y542349D01*
X48240Y542309D01*
X48223Y542273D01*
X48201Y542156D01*
X48171Y542041D01*
X48167Y541980D01*
X48163Y541960D01*
X48165Y541940D01*
X48161Y541880D01*
X48161Y534259D01*
X39270Y534259D01*
X39152Y534244D01*
X39033Y534237D01*
X38995Y534224D01*
X38954Y534219D01*
X38844Y534176D01*
X38731Y534139D01*
X38696Y534117D01*
X38659Y534102D01*
X38563Y534033D01*
X38462Y533969D01*
X38434Y533939D01*
X38401Y533916D01*
X38325Y533824D01*
X38244Y533737D01*
X38224Y533702D01*
X38199Y533671D01*
X38148Y533563D01*
X38090Y533459D01*
X38080Y533419D01*
X38063Y533383D01*
X38041Y533266D01*
X38011Y533151D01*
X38007Y533091D01*
X38003Y533071D01*
X38005Y533050D01*
X38001Y532990D01*
X38001Y408797D01*
X38013Y408698D01*
X38016Y408599D01*
X38033Y408541D01*
X38041Y408481D01*
X38077Y408389D01*
X38105Y408294D01*
X38135Y408242D01*
X38158Y408185D01*
X38216Y408105D01*
X38266Y408020D01*
X38332Y407945D01*
X38344Y407928D01*
X38354Y407920D01*
X38372Y407899D01*
X65661Y380610D01*
X65739Y380550D01*
X65811Y380482D01*
X65864Y380453D01*
X65912Y380416D01*
X66003Y380376D01*
X66090Y380328D01*
X66149Y380313D01*
X66204Y380289D01*
X66302Y380274D01*
X66398Y380249D01*
X66498Y380243D01*
X66518Y380239D01*
X66531Y380241D01*
X66559Y380239D01*
X73642Y380239D01*
X73740Y380251D01*
X73840Y380254D01*
X73898Y380271D01*
X73958Y380279D01*
X74050Y380315D01*
X74145Y380343D01*
X74197Y380373D01*
X74254Y380396D01*
X74334Y380454D01*
X74419Y380504D01*
X74494Y380570D01*
X74511Y380582D01*
X74519Y380592D01*
X74540Y380610D01*
X74648Y380719D01*
X82832Y380719D01*
X82940Y380610D01*
X83018Y380550D01*
X83091Y380482D01*
X83144Y380453D01*
X83191Y380416D01*
X83282Y380376D01*
X83369Y380328D01*
X83428Y380313D01*
X83483Y380289D01*
X83581Y380274D01*
X83677Y380249D01*
X83777Y380243D01*
X83797Y380239D01*
X83810Y380241D01*
X83838Y380239D01*
X171548Y380239D01*
X171646Y380251D01*
X171745Y380254D01*
X171804Y380271D01*
X171864Y380279D01*
X171956Y380315D01*
X172051Y380343D01*
X172103Y380373D01*
X172159Y380396D01*
X172239Y380454D01*
X172325Y380504D01*
X172400Y380570D01*
X172417Y380582D01*
X172424Y380592D01*
X172446Y380610D01*
X173524Y381689D01*
X175474Y382497D01*
X177586Y382497D01*
X179536Y381689D01*
X181029Y380196D01*
X181837Y378246D01*
X181837Y377897D01*
X181854Y377758D01*
X181868Y377618D01*
X181874Y377600D01*
X181877Y377582D01*
X181928Y377451D01*
X181976Y377319D01*
X181987Y377303D01*
X181994Y377286D01*
X182076Y377172D01*
X182155Y377056D01*
X182169Y377044D01*
X182180Y377029D01*
X182289Y376939D01*
X182394Y376846D01*
X182411Y376838D01*
X182425Y376826D01*
X182553Y376766D01*
X182678Y376702D01*
X182696Y376698D01*
X182713Y376690D01*
X182851Y376664D01*
X182988Y376633D01*
X183007Y376634D01*
X183025Y376631D01*
X183103Y376635D01*
X183113Y376635D01*
X188214Y376635D01*
X188332Y376650D01*
X188451Y376657D01*
X188489Y376670D01*
X188530Y376675D01*
X188640Y376718D01*
X188753Y376755D01*
X188788Y376777D01*
X188825Y376792D01*
X188921Y376861D01*
X189022Y376925D01*
X189050Y376955D01*
X189083Y376978D01*
X189159Y377070D01*
X189240Y377157D01*
X189260Y377192D01*
X189285Y377223D01*
X189336Y377331D01*
X189394Y377435D01*
X189404Y377475D01*
X189421Y377511D01*
X189443Y377628D01*
X189473Y377743D01*
X189477Y377803D01*
X189481Y377823D01*
X189479Y377844D01*
X189483Y377904D01*
X189483Y379407D01*
X200213Y390137D01*
X212245Y390137D01*
X212370Y390153D01*
X212496Y390162D01*
X212527Y390172D01*
X212561Y390177D01*
X212678Y390223D01*
X212797Y390263D01*
X212825Y390281D01*
X212857Y390294D01*
X212958Y390367D01*
X213064Y390436D01*
X213087Y390461D01*
X213114Y390480D01*
X213194Y390577D01*
X213279Y390670D01*
X213295Y390699D01*
X213317Y390725D01*
X213370Y390839D01*
X213430Y390950D01*
X213438Y390983D01*
X213452Y391013D01*
X213476Y391136D01*
X213506Y391259D01*
X213506Y391292D01*
X213512Y391325D01*
X213504Y391451D01*
X213503Y391577D01*
X213493Y391625D01*
X213492Y391643D01*
X213486Y391663D01*
X213471Y391735D01*
X213369Y392115D01*
X213369Y392331D01*
X213746Y392331D01*
X213758Y392332D01*
X213769Y392331D01*
X213915Y392352D01*
X214062Y392370D01*
X214073Y392375D01*
X214084Y392376D01*
X214220Y392433D01*
X214358Y392487D01*
X214367Y392494D01*
X214377Y392499D01*
X214496Y392588D01*
X214615Y392674D01*
X214622Y392683D01*
X214631Y392690D01*
X214724Y392806D01*
X214818Y392919D01*
X214823Y392930D01*
X214830Y392939D01*
X214891Y393074D01*
X214953Y393207D01*
X214955Y393218D01*
X214960Y393229D01*
X214985Y393375D01*
X215013Y393519D01*
X215012Y393531D01*
X215014Y393542D01*
X215002Y393690D01*
X214993Y393837D01*
X214990Y393848D01*
X214989Y393859D01*
X214941Y394000D01*
X214895Y394139D01*
X214889Y394149D01*
X214885Y394160D01*
X214804Y394283D01*
X214725Y394408D01*
X214717Y394416D01*
X214710Y394425D01*
X214601Y394524D01*
X214493Y394626D01*
X214483Y394631D01*
X214475Y394639D01*
X214338Y394723D01*
X214337Y394723D01*
X214274Y394747D01*
X214215Y394779D01*
X214214Y394780D01*
X214125Y394803D01*
X214039Y394835D01*
X213972Y394842D01*
X213906Y394859D01*
X213746Y394869D01*
X213369Y394869D01*
X213369Y395084D01*
X213460Y395421D01*
X213472Y395513D01*
X213494Y395603D01*
X213494Y395670D01*
X213503Y395737D01*
X213492Y395828D01*
X213491Y395921D01*
X213468Y396036D01*
X213466Y396052D01*
X213463Y396060D01*
X213460Y396079D01*
X213369Y396416D01*
X213369Y396631D01*
X213746Y396631D01*
X213800Y396637D01*
X213854Y396635D01*
X213955Y396657D01*
X214056Y396669D01*
X214058Y396670D01*
X214061Y396670D01*
X214112Y396690D01*
X214165Y396702D01*
X214313Y396765D01*
X214314Y396765D01*
X214332Y396777D01*
X214352Y396785D01*
X214354Y396786D01*
X214357Y396787D01*
X214465Y396866D01*
X214578Y396941D01*
X214593Y396958D01*
X214610Y396970D01*
X214612Y396973D01*
X214614Y396974D01*
X214695Y397072D01*
X214698Y397076D01*
X214790Y397178D01*
X214800Y397198D01*
X214814Y397214D01*
X214816Y397218D01*
X214817Y397219D01*
X214864Y397318D01*
X214873Y397338D01*
X214937Y397461D01*
X214942Y397482D01*
X214951Y397502D01*
X214952Y397505D01*
X214953Y397507D01*
X214970Y397596D01*
X214978Y397637D01*
X215009Y397770D01*
X215008Y397792D01*
X215012Y397814D01*
X215012Y397818D01*
X215012Y397819D01*
X215012Y397820D01*
X215007Y397915D01*
X215004Y397951D01*
X215001Y398088D01*
X214995Y398109D01*
X214994Y398131D01*
X214993Y398135D01*
X214993Y398137D01*
X214959Y398240D01*
X214952Y398262D01*
X214915Y398394D01*
X214904Y398413D01*
X214897Y398434D01*
X214895Y398437D01*
X214895Y398440D01*
X214830Y398542D01*
X214824Y398551D01*
X214755Y398670D01*
X214740Y398685D01*
X214729Y398704D01*
X214726Y398706D01*
X214725Y398708D01*
X214628Y398799D01*
X214532Y398896D01*
X214514Y398908D01*
X214498Y398923D01*
X214494Y398925D01*
X214493Y398926D01*
X214488Y398929D01*
X214362Y399010D01*
X214309Y399031D01*
X214260Y399060D01*
X214236Y399068D01*
X214214Y399080D01*
X214139Y399099D01*
X214067Y399128D01*
X214009Y399136D01*
X213955Y399152D01*
X213931Y399153D01*
X213906Y399159D01*
X213757Y399169D01*
X213752Y399169D01*
X213750Y399169D01*
X213746Y399169D01*
X213369Y399169D01*
X213369Y399384D01*
X213460Y399721D01*
X213472Y399813D01*
X213494Y399903D01*
X213494Y399970D01*
X213503Y400037D01*
X213492Y400128D01*
X213491Y400221D01*
X213468Y400336D01*
X213466Y400352D01*
X213463Y400360D01*
X213460Y400379D01*
X213369Y400716D01*
X213369Y400931D01*
X213746Y400931D01*
X213800Y400937D01*
X213854Y400935D01*
X213923Y400950D01*
X213992Y400955D01*
X214026Y400966D01*
X214061Y400970D01*
X214112Y400990D01*
X214165Y401002D01*
X214280Y401050D01*
X214294Y401055D01*
X214300Y401059D01*
X214313Y401065D01*
X214314Y401065D01*
X214334Y401078D01*
X214357Y401087D01*
X214456Y401160D01*
X214561Y401227D01*
X214569Y401235D01*
X214578Y401241D01*
X214595Y401260D01*
X214614Y401274D01*
X214692Y401368D01*
X214778Y401460D01*
X214783Y401470D01*
X214790Y401478D01*
X214802Y401501D01*
X214817Y401519D01*
X214868Y401628D01*
X214929Y401740D01*
X214932Y401751D01*
X214937Y401761D01*
X214943Y401786D01*
X214953Y401807D01*
X214975Y401924D01*
X215006Y402049D01*
X215006Y402060D01*
X215009Y402070D01*
X215008Y402097D01*
X215012Y402120D01*
X215005Y402238D01*
X215004Y402367D01*
X215001Y402377D01*
X215001Y402388D01*
X214994Y402413D01*
X214993Y402437D01*
X214956Y402551D01*
X214923Y402674D01*
X214918Y402684D01*
X214915Y402694D01*
X214902Y402717D01*
X214895Y402740D01*
X214830Y402842D01*
X214769Y402952D01*
X214761Y402960D01*
X214755Y402970D01*
X214738Y402988D01*
X214725Y403008D01*
X214635Y403092D01*
X214550Y403182D01*
X214537Y403191D01*
X214532Y403196D01*
X214519Y403204D01*
X214507Y403213D01*
X214493Y403226D01*
X214474Y403236D01*
X214419Y403276D01*
X214418Y403276D01*
X214337Y403314D01*
X214260Y403360D01*
X214236Y403368D01*
X214214Y403380D01*
X214171Y403391D01*
X214130Y403410D01*
X214041Y403426D01*
X213955Y403452D01*
X213931Y403453D01*
X213906Y403459D01*
X213838Y403464D01*
X213817Y403467D01*
X213798Y403466D01*
X213746Y403469D01*
X213369Y403469D01*
X213369Y403684D01*
X213460Y404021D01*
X213472Y404113D01*
X213494Y404203D01*
X213494Y404270D01*
X213503Y404337D01*
X213492Y404428D01*
X213491Y404521D01*
X213468Y404636D01*
X213466Y404652D01*
X213463Y404660D01*
X213460Y404679D01*
X213369Y405016D01*
X213369Y405231D01*
X213746Y405231D01*
X213813Y405239D01*
X213880Y405238D01*
X213970Y405259D01*
X214061Y405270D01*
X214124Y405295D01*
X214190Y405311D01*
X214337Y405377D01*
X214347Y405383D01*
X214357Y405387D01*
X214357Y405388D01*
X214358Y405388D01*
X214476Y405474D01*
X214598Y405559D01*
X214606Y405568D01*
X214615Y405575D01*
X214709Y405689D01*
X214805Y405800D01*
X214810Y405811D01*
X214818Y405820D01*
X214881Y405953D01*
X214946Y406086D01*
X214948Y406097D01*
X214953Y406107D01*
X214981Y406252D01*
X215011Y406397D01*
X215011Y406408D01*
X215013Y406420D01*
X215004Y406567D01*
X214997Y406715D01*
X214994Y406726D01*
X214993Y406737D01*
X214948Y406877D01*
X214905Y407019D01*
X214899Y407029D01*
X214895Y407040D01*
X214816Y407164D01*
X214739Y407291D01*
X214731Y407299D01*
X214725Y407308D01*
X214617Y407410D01*
X214512Y407513D01*
X214502Y407518D01*
X214493Y407526D01*
X214364Y407598D01*
X214236Y407671D01*
X214225Y407674D01*
X214215Y407680D01*
X214072Y407717D01*
X213930Y407756D01*
X213918Y407756D01*
X213907Y407759D01*
X213746Y407769D01*
X213369Y407769D01*
X213369Y407984D01*
X213542Y408631D01*
X213647Y408812D01*
X213686Y408903D01*
X213732Y408991D01*
X213747Y409049D01*
X213770Y409105D01*
X213785Y409203D01*
X213809Y409299D01*
X213808Y409360D01*
X213817Y409420D01*
X213807Y409518D01*
X213806Y409617D01*
X213786Y409716D01*
X213784Y409736D01*
X213779Y409747D01*
X213774Y409775D01*
X213669Y410166D01*
X213669Y410981D01*
X217360Y410981D01*
X221660Y410981D01*
X225960Y410981D01*
X226078Y410996D01*
X226197Y411003D01*
X226235Y411015D01*
X226275Y411020D01*
X226386Y411064D01*
X226499Y411101D01*
X226533Y411123D01*
X226571Y411137D01*
X226667Y411207D01*
X226768Y411271D01*
X226796Y411301D01*
X226828Y411324D01*
X226904Y411416D01*
X226986Y411503D01*
X227005Y411538D01*
X227031Y411569D01*
X227082Y411677D01*
X227139Y411781D01*
X227149Y411820D01*
X227167Y411857D01*
X227189Y411974D01*
X227219Y412089D01*
X227223Y412149D01*
X227226Y412169D01*
X227226Y412170D01*
X227225Y412190D01*
X227229Y412250D01*
X227214Y412368D01*
X227207Y412487D01*
X227194Y412525D01*
X227189Y412566D01*
X227145Y412676D01*
X227109Y412790D01*
X227087Y412824D01*
X227072Y412861D01*
X227002Y412958D01*
X226938Y413058D01*
X226909Y413086D01*
X226885Y413119D01*
X226793Y413195D01*
X226707Y413276D01*
X226671Y413296D01*
X226640Y413322D01*
X226533Y413372D01*
X226428Y413430D01*
X226389Y413440D01*
X226353Y413457D01*
X226236Y413479D01*
X226120Y413509D01*
X226060Y413513D01*
X226040Y413517D01*
X226020Y413516D01*
X225960Y413519D01*
X221660Y413519D01*
X217360Y413519D01*
X213669Y413519D01*
X213669Y414334D01*
X213842Y414981D01*
X214177Y415560D01*
X214650Y416033D01*
X215229Y416368D01*
X215876Y416541D01*
X216091Y416541D01*
X216091Y416164D01*
X216092Y416152D01*
X216091Y416141D01*
X216112Y415995D01*
X216130Y415848D01*
X216135Y415837D01*
X216136Y415826D01*
X216193Y415690D01*
X216247Y415552D01*
X216254Y415543D01*
X216259Y415533D01*
X216348Y415414D01*
X216434Y415295D01*
X216443Y415288D01*
X216450Y415279D01*
X216566Y415186D01*
X216679Y415092D01*
X216690Y415087D01*
X216699Y415080D01*
X216834Y415019D01*
X216967Y414957D01*
X216978Y414955D01*
X216989Y414950D01*
X217135Y414925D01*
X217279Y414897D01*
X217291Y414898D01*
X217302Y414896D01*
X217450Y414908D01*
X217597Y414917D01*
X217608Y414920D01*
X217619Y414921D01*
X217760Y414969D01*
X217899Y415015D01*
X217909Y415021D01*
X217920Y415025D01*
X218043Y415106D01*
X218168Y415185D01*
X218176Y415193D01*
X218185Y415200D01*
X218284Y415309D01*
X218386Y415417D01*
X218391Y415427D01*
X218399Y415435D01*
X218483Y415572D01*
X218483Y415573D01*
X218507Y415636D01*
X218515Y415651D01*
X218540Y415696D01*
X218563Y415785D01*
X218595Y415871D01*
X218602Y415938D01*
X218619Y416004D01*
X218629Y416164D01*
X218629Y416541D01*
X218844Y416541D01*
X219181Y416450D01*
X219273Y416438D01*
X219363Y416416D01*
X219430Y416416D01*
X219497Y416407D01*
X219588Y416418D01*
X219681Y416419D01*
X219796Y416442D01*
X219812Y416444D01*
X219820Y416447D01*
X219839Y416450D01*
X220176Y416541D01*
X220391Y416541D01*
X220391Y416164D01*
X220397Y416110D01*
X220395Y416057D01*
X220400Y416035D01*
X220400Y416011D01*
X220420Y415931D01*
X220430Y415849D01*
X220450Y415798D01*
X220462Y415746D01*
X220472Y415725D01*
X220478Y415702D01*
X220546Y415557D01*
X220546Y415556D01*
X220547Y415555D01*
X220547Y415553D01*
X220579Y415510D01*
X220603Y415461D01*
X220671Y415383D01*
X220732Y415298D01*
X220733Y415297D01*
X220734Y415296D01*
X220775Y415262D01*
X220811Y415221D01*
X220896Y415161D01*
X220976Y415095D01*
X220978Y415094D01*
X220979Y415093D01*
X221027Y415071D01*
X221072Y415039D01*
X221170Y415003D01*
X221263Y414958D01*
X221266Y414958D01*
X221267Y414957D01*
X221318Y414948D01*
X221370Y414928D01*
X221473Y414917D01*
X221576Y414898D01*
X221579Y414898D01*
X221580Y414898D01*
X221631Y414901D01*
X221686Y414895D01*
X221789Y414910D01*
X221893Y414916D01*
X221896Y414917D01*
X221897Y414917D01*
X221947Y414933D01*
X222001Y414941D01*
X222097Y414982D01*
X222196Y415013D01*
X222198Y415015D01*
X222200Y415015D01*
X222244Y415043D01*
X222294Y415064D01*
X222377Y415127D01*
X222465Y415183D01*
X222467Y415185D01*
X222468Y415185D01*
X222504Y415224D01*
X222548Y415257D01*
X222612Y415338D01*
X222684Y415414D01*
X222685Y415416D01*
X222686Y415417D01*
X222712Y415464D01*
X222745Y415506D01*
X222820Y415648D01*
X222820Y415649D01*
X222827Y415671D01*
X222838Y415692D01*
X222839Y415694D01*
X222840Y415696D01*
X222873Y415825D01*
X222912Y415953D01*
X222913Y415977D01*
X222919Y415999D01*
X222919Y416001D01*
X222919Y416004D01*
X222929Y416164D01*
X222929Y416541D01*
X223144Y416541D01*
X223481Y416450D01*
X223573Y416438D01*
X223663Y416416D01*
X223730Y416416D01*
X223797Y416407D01*
X223888Y416418D01*
X223981Y416419D01*
X224095Y416442D01*
X224112Y416444D01*
X224120Y416447D01*
X224139Y416450D01*
X224592Y416572D01*
X224714Y416622D01*
X224839Y416667D01*
X224861Y416682D01*
X224886Y416692D01*
X224992Y416771D01*
X225102Y416845D01*
X225120Y416865D01*
X225142Y416882D01*
X225225Y416984D01*
X225312Y417084D01*
X225325Y417108D01*
X225342Y417129D01*
X225397Y417249D01*
X225457Y417367D01*
X225463Y417393D01*
X225474Y417418D01*
X225498Y417548D01*
X225527Y417677D01*
X225526Y417704D01*
X225531Y417731D01*
X225521Y417863D01*
X225517Y417995D01*
X225510Y418021D01*
X225508Y418048D01*
X225465Y418174D01*
X225429Y418301D01*
X225415Y418324D01*
X225406Y418349D01*
X225334Y418461D01*
X225267Y418575D01*
X225242Y418603D01*
X225233Y418616D01*
X225217Y418631D01*
X225161Y418695D01*
X223303Y420554D01*
X223224Y420614D01*
X223152Y420682D01*
X223099Y420711D01*
X223051Y420748D01*
X222960Y420788D01*
X222874Y420836D01*
X222815Y420851D01*
X222759Y420875D01*
X222661Y420890D01*
X222566Y420915D01*
X222466Y420921D01*
X222445Y420925D01*
X222433Y420923D01*
X222405Y420925D01*
X210308Y420925D01*
X209415Y421818D01*
X209415Y435482D01*
X210308Y436375D01*
X210424Y436375D01*
X210574Y436394D01*
X210726Y436411D01*
X210732Y436414D01*
X210739Y436415D01*
X210880Y436470D01*
X211023Y436525D01*
X211029Y436529D01*
X211035Y436532D01*
X211158Y436621D01*
X211282Y436709D01*
X211287Y436714D01*
X211292Y436718D01*
X211389Y436835D01*
X211488Y436952D01*
X211491Y436958D01*
X211495Y436963D01*
X211560Y437101D01*
X211626Y437238D01*
X211628Y437245D01*
X211631Y437251D01*
X211659Y437400D01*
X211689Y437550D01*
X211689Y437557D01*
X211690Y437563D01*
X211681Y437715D01*
X211673Y437868D01*
X211671Y437874D01*
X211671Y437881D01*
X211624Y438025D01*
X211578Y438171D01*
X211575Y438177D01*
X211573Y438183D01*
X211492Y438311D01*
X211411Y438442D01*
X211406Y438446D01*
X211402Y438452D01*
X211291Y438557D01*
X211182Y438662D01*
X211176Y438665D01*
X211171Y438670D01*
X211038Y438743D01*
X210905Y438819D01*
X210896Y438821D01*
X210892Y438824D01*
X210882Y438826D01*
X210752Y438870D01*
X209959Y439082D01*
X209380Y439417D01*
X208907Y439890D01*
X208572Y440469D01*
X208399Y441116D01*
X208399Y445111D01*
X217170Y445111D01*
X217288Y445126D01*
X217407Y445133D01*
X217445Y445146D01*
X217485Y445151D01*
X217596Y445194D01*
X217709Y445231D01*
X217744Y445253D01*
X217781Y445268D01*
X217877Y445338D01*
X217978Y445401D01*
X218006Y445431D01*
X218038Y445455D01*
X218114Y445546D01*
X218196Y445633D01*
X218215Y445668D01*
X218241Y445699D01*
X218292Y445807D01*
X218349Y445911D01*
X218360Y445951D01*
X218377Y445987D01*
X218399Y446104D01*
X218429Y446219D01*
X218433Y446280D01*
X218437Y446300D01*
X218435Y446320D01*
X218439Y446380D01*
X218439Y447651D01*
X219710Y447651D01*
X219828Y447666D01*
X219947Y447673D01*
X219985Y447686D01*
X220025Y447691D01*
X220136Y447735D01*
X220249Y447771D01*
X220284Y447793D01*
X220321Y447808D01*
X220417Y447878D01*
X220518Y447941D01*
X220546Y447971D01*
X220578Y447995D01*
X220654Y448086D01*
X220736Y448173D01*
X220755Y448208D01*
X220781Y448240D01*
X220832Y448347D01*
X220889Y448451D01*
X220900Y448491D01*
X220917Y448527D01*
X220939Y448644D01*
X220969Y448759D01*
X220973Y448820D01*
X220977Y448840D01*
X220975Y448860D01*
X220979Y448920D01*
X220979Y456391D01*
X226124Y456391D01*
X226266Y456409D01*
X226409Y456423D01*
X226424Y456429D01*
X226440Y456431D01*
X226573Y456483D01*
X226708Y456533D01*
X226721Y456542D01*
X226736Y456548D01*
X226852Y456632D01*
X226970Y456713D01*
X226980Y456725D01*
X226993Y456734D01*
X227084Y456845D01*
X227179Y456953D01*
X227189Y456972D01*
X227196Y456979D01*
X227204Y456996D01*
X227260Y457092D01*
X227449Y457472D01*
X227467Y457523D01*
X227494Y457571D01*
X227520Y457673D01*
X227555Y457772D01*
X227559Y457826D01*
X227573Y457879D01*
X227583Y458039D01*
X227583Y458147D01*
X227845Y458409D01*
X227921Y458507D01*
X228002Y458600D01*
X228028Y458645D01*
X228040Y458660D01*
X228048Y458680D01*
X228083Y458739D01*
X233799Y470172D01*
X233817Y470223D01*
X233844Y470271D01*
X233870Y470373D01*
X233905Y470472D01*
X233909Y470526D01*
X233923Y470579D01*
X233933Y470739D01*
X233933Y470847D01*
X234195Y471109D01*
X234271Y471207D01*
X234352Y471300D01*
X234378Y471345D01*
X234390Y471360D01*
X234398Y471380D01*
X234433Y471439D01*
X234598Y471770D01*
X234700Y471804D01*
X234750Y471827D01*
X234802Y471843D01*
X234892Y471896D01*
X234987Y471941D01*
X235029Y471976D01*
X235076Y472004D01*
X235197Y472111D01*
X235273Y472187D01*
X235643Y472187D01*
X235765Y472202D01*
X235889Y472211D01*
X235940Y472224D01*
X235958Y472227D01*
X235978Y472234D01*
X236044Y472252D01*
X236395Y472369D01*
X236492Y472321D01*
X236543Y472303D01*
X236591Y472276D01*
X236693Y472250D01*
X236792Y472215D01*
X236846Y472211D01*
X236899Y472197D01*
X237059Y472187D01*
X246606Y472187D01*
X246727Y472202D01*
X246849Y472210D01*
X246884Y472222D01*
X246921Y472227D01*
X247035Y472272D01*
X247151Y472310D01*
X247199Y472337D01*
X247202Y472338D01*
X247762Y472216D01*
X247818Y472211D01*
X247871Y472197D01*
X248032Y472187D01*
X248617Y472187D01*
X248625Y472180D01*
X248717Y472100D01*
X248750Y472083D01*
X248780Y472061D01*
X248892Y472012D01*
X249002Y471957D01*
X249054Y471942D01*
X249057Y471941D01*
X249367Y471458D01*
X249403Y471415D01*
X249431Y471368D01*
X249537Y471247D01*
X249951Y470833D01*
X249952Y470823D01*
X249960Y470701D01*
X249972Y470666D01*
X249977Y470629D01*
X250022Y470515D01*
X250060Y470399D01*
X250086Y470351D01*
X250094Y470333D01*
X250106Y470316D01*
X250138Y470258D01*
X250436Y469796D01*
X250465Y469760D01*
X250488Y469720D01*
X250567Y469639D01*
X250640Y469552D01*
X250677Y469525D01*
X250709Y469492D01*
X250806Y469432D01*
X250898Y469366D01*
X250941Y469349D01*
X250981Y469325D01*
X251089Y469292D01*
X251194Y469251D01*
X251240Y469245D01*
X251285Y469232D01*
X251398Y469226D01*
X251510Y469213D01*
X251556Y469219D01*
X251602Y469217D01*
X251713Y469239D01*
X251825Y469254D01*
X251868Y469272D01*
X251914Y469281D01*
X252015Y469331D01*
X252121Y469373D01*
X252158Y469400D01*
X252199Y469421D01*
X252285Y469494D01*
X252377Y469561D01*
X252406Y469597D01*
X252441Y469627D01*
X252507Y469720D01*
X252578Y469807D01*
X252598Y469849D01*
X252624Y469887D01*
X252665Y469993D01*
X252712Y470096D01*
X252721Y470141D01*
X252737Y470184D01*
X252750Y470297D01*
X252770Y470408D01*
X252767Y470454D01*
X252772Y470500D01*
X252757Y470613D01*
X252749Y470726D01*
X252734Y470769D01*
X252728Y470815D01*
X252676Y470968D01*
X252503Y471384D01*
X252503Y473269D01*
X252491Y473367D01*
X252488Y473466D01*
X252471Y473524D01*
X252463Y473584D01*
X252427Y473676D01*
X252399Y473771D01*
X252369Y473824D01*
X252346Y473880D01*
X252288Y473960D01*
X252238Y474045D01*
X252172Y474121D01*
X252160Y474137D01*
X252150Y474145D01*
X252132Y474166D01*
X241784Y484514D01*
X241706Y484574D01*
X241634Y484642D01*
X241581Y484671D01*
X241533Y484708D01*
X241442Y484748D01*
X241355Y484796D01*
X241297Y484811D01*
X241241Y484835D01*
X241143Y484850D01*
X241047Y484875D01*
X240947Y484881D01*
X240927Y484885D01*
X240915Y484883D01*
X240887Y484885D01*
X238916Y484885D01*
X238818Y484873D01*
X238719Y484870D01*
X238660Y484853D01*
X238600Y484845D01*
X238508Y484809D01*
X238413Y484781D01*
X238361Y484751D01*
X238305Y484728D01*
X238225Y484670D01*
X238139Y484620D01*
X238064Y484554D01*
X238047Y484542D01*
X238040Y484532D01*
X238018Y484514D01*
X236686Y483181D01*
X234736Y482373D01*
X232624Y482373D01*
X230674Y483181D01*
X229181Y484674D01*
X228373Y486624D01*
X228373Y488736D01*
X229181Y490686D01*
X230674Y492179D01*
X232624Y492987D01*
X234736Y492987D01*
X236686Y492179D01*
X238018Y490846D01*
X238097Y490786D01*
X238169Y490718D01*
X238222Y490689D01*
X238270Y490652D01*
X238361Y490612D01*
X238447Y490564D01*
X238506Y490549D01*
X238562Y490525D01*
X238659Y490510D01*
X238755Y490485D01*
X238855Y490479D01*
X238876Y490475D01*
X238888Y490477D01*
X238916Y490475D01*
X243728Y490475D01*
X256084Y478118D01*
X256162Y478058D01*
X256234Y477990D01*
X256287Y477961D01*
X256335Y477924D01*
X256426Y477884D01*
X256513Y477836D01*
X256571Y477821D01*
X256627Y477797D01*
X256725Y477782D01*
X256821Y477757D01*
X256921Y477751D01*
X256941Y477747D01*
X256953Y477749D01*
X256981Y477747D01*
X258866Y477747D01*
X260816Y476939D01*
X262309Y475446D01*
X263117Y473496D01*
X263117Y471384D01*
X262309Y469434D01*
X260816Y467941D01*
X258866Y467133D01*
X256754Y467133D01*
X254804Y467941D01*
X254264Y468481D01*
X254245Y468496D01*
X254230Y468514D01*
X254120Y468593D01*
X254013Y468676D01*
X253991Y468686D01*
X253972Y468699D01*
X253845Y468749D01*
X253721Y468803D01*
X253697Y468806D01*
X253675Y468815D01*
X253541Y468831D01*
X253407Y468852D01*
X253383Y468850D01*
X253359Y468853D01*
X253225Y468835D01*
X253090Y468823D01*
X253068Y468815D01*
X253044Y468811D01*
X252918Y468761D01*
X252791Y468715D01*
X252771Y468702D01*
X252749Y468693D01*
X252640Y468613D01*
X252528Y468536D01*
X252512Y468519D01*
X252493Y468505D01*
X252407Y468400D01*
X252317Y468298D01*
X252306Y468277D01*
X252291Y468258D01*
X252234Y468135D01*
X252173Y468015D01*
X252167Y467992D01*
X252157Y467970D01*
X252133Y467837D01*
X252103Y467704D01*
X252104Y467681D01*
X252099Y467657D01*
X252108Y467522D01*
X252113Y467387D01*
X252119Y467364D01*
X252121Y467340D01*
X252163Y467211D01*
X252201Y467081D01*
X252213Y467061D01*
X252220Y467038D01*
X252299Y466897D01*
X260797Y453678D01*
X260832Y453636D01*
X260861Y453588D01*
X260967Y453467D01*
X261381Y453053D01*
X261382Y453043D01*
X261390Y452921D01*
X261402Y452886D01*
X261407Y452849D01*
X261452Y452735D01*
X261490Y452619D01*
X261517Y452571D01*
X261518Y452568D01*
X261396Y452008D01*
X261391Y451952D01*
X261377Y451899D01*
X261367Y451738D01*
X261367Y446335D01*
X261370Y446305D01*
X261368Y446276D01*
X261390Y446148D01*
X261407Y446019D01*
X261417Y445992D01*
X261423Y445963D01*
X261476Y445844D01*
X261524Y445724D01*
X261541Y445700D01*
X261553Y445673D01*
X261634Y445571D01*
X261710Y445466D01*
X261733Y445447D01*
X261752Y445424D01*
X261855Y445346D01*
X261955Y445263D01*
X261982Y445251D01*
X262006Y445233D01*
X262076Y445198D01*
X263579Y443696D01*
X264387Y441746D01*
X264387Y439634D01*
X263579Y437684D01*
X262086Y436191D01*
X260136Y435383D01*
X258010Y435383D01*
X257907Y435406D01*
X257782Y435441D01*
X257753Y435441D01*
X257724Y435448D01*
X257594Y435444D01*
X257464Y435446D01*
X257435Y435439D01*
X257406Y435438D01*
X257281Y435402D01*
X257155Y435372D01*
X257129Y435358D01*
X257100Y435349D01*
X256988Y435284D01*
X256874Y435223D01*
X256852Y435203D01*
X256826Y435188D01*
X256705Y435082D01*
X255105Y433481D01*
X255020Y433372D01*
X254932Y433265D01*
X254923Y433246D01*
X254910Y433230D01*
X254855Y433102D01*
X254796Y432977D01*
X254792Y432957D01*
X254784Y432938D01*
X254762Y432800D01*
X254736Y432664D01*
X254737Y432644D01*
X254734Y432624D01*
X254747Y432485D01*
X254756Y432347D01*
X254762Y432328D01*
X254764Y432308D01*
X254811Y432176D01*
X254854Y432045D01*
X254865Y432027D01*
X254872Y432008D01*
X254950Y431893D01*
X255024Y431776D01*
X255039Y431762D01*
X255050Y431745D01*
X255154Y431653D01*
X255256Y431558D01*
X255274Y431548D01*
X255289Y431535D01*
X255413Y431471D01*
X255534Y431404D01*
X255554Y431399D01*
X255572Y431390D01*
X255708Y431360D01*
X255842Y431325D01*
X255870Y431323D01*
X255882Y431320D01*
X255903Y431321D01*
X256003Y431315D01*
X269682Y431315D01*
X270575Y430422D01*
X270575Y428346D01*
X270590Y428228D01*
X270597Y428109D01*
X270610Y428071D01*
X270615Y428030D01*
X270658Y427920D01*
X270695Y427807D01*
X270717Y427772D01*
X270732Y427735D01*
X270801Y427639D01*
X270865Y427538D01*
X270895Y427510D01*
X270918Y427477D01*
X271010Y427401D01*
X271097Y427320D01*
X271132Y427300D01*
X271163Y427275D01*
X271271Y427224D01*
X271375Y427166D01*
X271415Y427156D01*
X271451Y427139D01*
X271568Y427117D01*
X271683Y427087D01*
X271743Y427083D01*
X271763Y427079D01*
X271784Y427081D01*
X271844Y427077D01*
X290696Y427077D01*
X290814Y427092D01*
X290933Y427099D01*
X290971Y427112D01*
X291012Y427117D01*
X291122Y427160D01*
X291235Y427197D01*
X291270Y427219D01*
X291307Y427234D01*
X291403Y427303D01*
X291504Y427367D01*
X291532Y427397D01*
X291565Y427420D01*
X291641Y427512D01*
X291722Y427599D01*
X291742Y427634D01*
X291767Y427665D01*
X291818Y427773D01*
X291876Y427877D01*
X291886Y427917D01*
X291903Y427953D01*
X291925Y428070D01*
X291955Y428185D01*
X291959Y428245D01*
X291963Y428265D01*
X291961Y428286D01*
X291965Y428346D01*
X291965Y431622D01*
X292858Y432515D01*
X307947Y432515D01*
X308085Y432532D01*
X308223Y432545D01*
X308243Y432552D01*
X308263Y432555D01*
X308392Y432606D01*
X308523Y432653D01*
X308540Y432664D01*
X308558Y432672D01*
X308671Y432753D01*
X308786Y432831D01*
X308799Y432847D01*
X308816Y432858D01*
X308905Y432966D01*
X308996Y433070D01*
X309006Y433088D01*
X309018Y433103D01*
X309078Y433229D01*
X309141Y433353D01*
X309145Y433373D01*
X309154Y433391D01*
X309180Y433527D01*
X309211Y433663D01*
X309210Y433684D01*
X309214Y433703D01*
X309205Y433842D01*
X309201Y433981D01*
X309195Y434001D01*
X309194Y434021D01*
X309151Y434153D01*
X309113Y434287D01*
X309102Y434304D01*
X309096Y434323D01*
X309022Y434441D01*
X308951Y434561D01*
X308932Y434582D01*
X308926Y434592D01*
X308911Y434606D01*
X308845Y434681D01*
X305905Y437622D01*
X305881Y437640D01*
X305862Y437662D01*
X305756Y437737D01*
X305653Y437816D01*
X305626Y437828D01*
X305602Y437845D01*
X305481Y437891D01*
X305361Y437943D01*
X305332Y437947D01*
X305304Y437958D01*
X305176Y437972D01*
X305047Y437993D01*
X305018Y437990D01*
X304988Y437993D01*
X304860Y437975D01*
X304731Y437963D01*
X304703Y437953D01*
X304674Y437949D01*
X304599Y437923D01*
X302474Y437923D01*
X300524Y438731D01*
X299031Y440224D01*
X298223Y442174D01*
X298223Y444286D01*
X299031Y446236D01*
X300524Y447729D01*
X302474Y448537D01*
X304586Y448537D01*
X306536Y447729D01*
X308029Y446236D01*
X308837Y444286D01*
X308837Y442160D01*
X308814Y442057D01*
X308779Y441932D01*
X308779Y441903D01*
X308772Y441874D01*
X308776Y441744D01*
X308774Y441614D01*
X308781Y441585D01*
X308782Y441556D01*
X308818Y441431D01*
X308848Y441305D01*
X308862Y441279D01*
X308871Y441250D01*
X308936Y441138D01*
X308997Y441024D01*
X309017Y441002D01*
X309032Y440976D01*
X309138Y440855D01*
X316239Y433755D01*
X316348Y433670D01*
X316455Y433582D01*
X316474Y433573D01*
X316490Y433560D01*
X316618Y433505D01*
X316743Y433446D01*
X316763Y433442D01*
X316782Y433434D01*
X316920Y433412D01*
X317056Y433386D01*
X317076Y433387D01*
X317096Y433384D01*
X317235Y433397D01*
X317373Y433406D01*
X317392Y433412D01*
X317412Y433414D01*
X317544Y433461D01*
X317675Y433504D01*
X317693Y433515D01*
X317712Y433522D01*
X317827Y433600D01*
X317944Y433674D01*
X317958Y433689D01*
X317975Y433700D01*
X318067Y433804D01*
X318162Y433906D01*
X318172Y433924D01*
X318185Y433939D01*
X318249Y434063D01*
X318316Y434184D01*
X318321Y434204D01*
X318330Y434222D01*
X318360Y434358D01*
X318395Y434492D01*
X318397Y434520D01*
X318400Y434532D01*
X318399Y434553D01*
X318405Y434653D01*
X318405Y456426D01*
X318388Y456564D01*
X318375Y456703D01*
X318368Y456722D01*
X318365Y456742D01*
X318314Y456871D01*
X318267Y457002D01*
X318256Y457019D01*
X318248Y457037D01*
X318167Y457150D01*
X318089Y457265D01*
X318073Y457278D01*
X318062Y457295D01*
X317954Y457384D01*
X317850Y457475D01*
X317832Y457485D01*
X317817Y457498D01*
X317691Y457557D01*
X317567Y457620D01*
X317547Y457624D01*
X317529Y457633D01*
X317392Y457659D01*
X317257Y457690D01*
X317236Y457689D01*
X317217Y457693D01*
X317078Y457684D01*
X316939Y457680D01*
X316919Y457674D01*
X316899Y457673D01*
X316767Y457630D01*
X316633Y457592D01*
X316616Y457581D01*
X316597Y457575D01*
X316479Y457501D01*
X316359Y457430D01*
X316338Y457411D01*
X316328Y457405D01*
X316314Y457390D01*
X316239Y457324D01*
X315426Y456511D01*
X313476Y455703D01*
X311364Y455703D01*
X309414Y456511D01*
X307921Y458004D01*
X307113Y459954D01*
X307113Y462066D01*
X307921Y464016D01*
X309254Y465348D01*
X309314Y465427D01*
X309382Y465499D01*
X309411Y465552D01*
X309448Y465600D01*
X309488Y465691D01*
X309536Y465777D01*
X309551Y465836D01*
X309575Y465892D01*
X309590Y465989D01*
X309615Y466085D01*
X309621Y466185D01*
X309625Y466206D01*
X309623Y466218D01*
X309625Y466246D01*
X309625Y484984D01*
X309613Y485082D01*
X309610Y485181D01*
X309593Y485240D01*
X309585Y485300D01*
X309549Y485392D01*
X309521Y485487D01*
X309491Y485539D01*
X309468Y485595D01*
X309410Y485675D01*
X309360Y485761D01*
X309294Y485836D01*
X309282Y485853D01*
X309272Y485860D01*
X309254Y485882D01*
X307921Y487214D01*
X307113Y489164D01*
X307113Y491276D01*
X307921Y493226D01*
X308964Y494269D01*
X309048Y494378D01*
X309138Y494485D01*
X309146Y494504D01*
X309159Y494520D01*
X309214Y494647D01*
X309273Y494773D01*
X309277Y494793D01*
X309285Y494812D01*
X309307Y494950D01*
X309333Y495086D01*
X309332Y495106D01*
X309335Y495126D01*
X309322Y495265D01*
X309313Y495403D01*
X309307Y495422D01*
X309305Y495442D01*
X309258Y495574D01*
X309215Y495705D01*
X309204Y495723D01*
X309197Y495742D01*
X309119Y495857D01*
X309045Y495974D01*
X309030Y495988D01*
X309019Y496005D01*
X308915Y496097D01*
X308813Y496192D01*
X308796Y496202D01*
X308780Y496215D01*
X308657Y496278D01*
X308535Y496346D01*
X308515Y496351D01*
X308497Y496360D01*
X308361Y496390D01*
X308227Y496425D01*
X308199Y496427D01*
X308187Y496430D01*
X308166Y496429D01*
X308066Y496435D01*
X307873Y496435D01*
X307775Y496423D01*
X307676Y496420D01*
X307618Y496403D01*
X307558Y496395D01*
X307466Y496359D01*
X307371Y496331D01*
X307343Y496315D01*
X304912Y496315D01*
X282955Y518272D01*
X282955Y580278D01*
X284964Y582286D01*
X290054Y587376D01*
X290114Y587454D01*
X290182Y587526D01*
X290211Y587579D01*
X290248Y587627D01*
X290288Y587718D01*
X290336Y587805D01*
X290351Y587863D01*
X290375Y587919D01*
X290390Y588017D01*
X290415Y588113D01*
X290421Y588213D01*
X290425Y588233D01*
X290423Y588245D01*
X290425Y588273D01*
X290425Y600732D01*
X291318Y601625D01*
X317982Y601625D01*
X318875Y600732D01*
X318875Y586768D01*
X317982Y585875D01*
X296983Y585875D01*
X296885Y585863D01*
X296786Y585860D01*
X296728Y585843D01*
X296668Y585835D01*
X296576Y585799D01*
X296481Y585771D01*
X296428Y585741D01*
X296372Y585718D01*
X296292Y585660D01*
X296207Y585610D01*
X296131Y585544D01*
X296115Y585532D01*
X296107Y585522D01*
X296086Y585504D01*
X288916Y578334D01*
X288856Y578256D01*
X288788Y578184D01*
X288759Y578131D01*
X288722Y578083D01*
X288682Y577992D01*
X288634Y577905D01*
X288619Y577847D01*
X288595Y577791D01*
X288580Y577693D01*
X288555Y577597D01*
X288549Y577497D01*
X288545Y577477D01*
X288547Y577465D01*
X288545Y577437D01*
X288545Y576515D01*
X288562Y576377D01*
X288575Y576239D01*
X288582Y576220D01*
X288585Y576200D01*
X288636Y576071D01*
X288683Y575940D01*
X288694Y575923D01*
X288702Y575904D01*
X288783Y575792D01*
X288861Y575676D01*
X288877Y575663D01*
X288888Y575647D01*
X288996Y575558D01*
X289100Y575466D01*
X289118Y575457D01*
X289133Y575444D01*
X289259Y575385D01*
X289383Y575321D01*
X289403Y575317D01*
X289421Y575308D01*
X289558Y575282D01*
X289693Y575252D01*
X289714Y575252D01*
X289733Y575249D01*
X289872Y575257D01*
X290011Y575261D01*
X290031Y575267D01*
X290051Y575268D01*
X290183Y575311D01*
X290317Y575350D01*
X290334Y575360D01*
X290353Y575366D01*
X290471Y575441D01*
X290591Y575511D01*
X290612Y575530D01*
X290622Y575537D01*
X290636Y575551D01*
X290711Y575618D01*
X291318Y576225D01*
X317982Y576225D01*
X318875Y575332D01*
X318875Y572414D01*
X318890Y572296D01*
X318897Y572177D01*
X318910Y572139D01*
X318915Y572098D01*
X318958Y571988D01*
X318995Y571875D01*
X319017Y571840D01*
X319032Y571803D01*
X319101Y571707D01*
X319165Y571606D01*
X319195Y571578D01*
X319218Y571545D01*
X319310Y571469D01*
X319397Y571388D01*
X319432Y571368D01*
X319463Y571343D01*
X319571Y571292D01*
X319675Y571234D01*
X319715Y571224D01*
X319751Y571207D01*
X319868Y571185D01*
X319983Y571155D01*
X320043Y571151D01*
X320063Y571147D01*
X320084Y571149D01*
X320144Y571145D01*
X334401Y571145D01*
X334417Y571147D01*
X334537Y571152D01*
X335527Y571259D01*
X335557Y571249D01*
X335584Y571234D01*
X335708Y571202D01*
X335725Y571197D01*
X336441Y570481D01*
X336454Y570471D01*
X336543Y570390D01*
X361317Y550445D01*
X361343Y550429D01*
X361365Y550408D01*
X361478Y550346D01*
X361587Y550278D01*
X361617Y550269D01*
X361644Y550254D01*
X361768Y550222D01*
X361785Y550217D01*
X362501Y549501D01*
X362514Y549491D01*
X362603Y549410D01*
X363378Y548786D01*
X363378Y548785D01*
X363393Y548758D01*
X363401Y548728D01*
X363467Y548617D01*
X363475Y548602D01*
X363475Y547589D01*
X363477Y547573D01*
X363482Y547453D01*
X363589Y546463D01*
X363579Y546433D01*
X363564Y546406D01*
X363532Y546282D01*
X363494Y546159D01*
X363493Y546128D01*
X363485Y546098D01*
X363475Y545937D01*
X363475Y509178D01*
X363490Y509061D01*
X363497Y508943D01*
X363509Y508904D01*
X363515Y508863D01*
X363558Y508753D01*
X363594Y508641D01*
X363624Y508586D01*
X363632Y508567D01*
X363643Y508551D01*
X363661Y508519D01*
X363506Y507827D01*
X363500Y507768D01*
X363485Y507710D01*
X363475Y507549D01*
X363475Y506838D01*
X363417Y506764D01*
X363339Y506675D01*
X363320Y506639D01*
X363295Y506606D01*
X363247Y506497D01*
X363194Y506392D01*
X363176Y506333D01*
X363168Y506314D01*
X363165Y506294D01*
X363155Y506259D01*
X362556Y505880D01*
X362510Y505842D01*
X362458Y505812D01*
X362337Y505705D01*
X361835Y505202D01*
X361741Y505190D01*
X361623Y505183D01*
X361584Y505171D01*
X361543Y505165D01*
X361433Y505122D01*
X361321Y505086D01*
X361266Y505056D01*
X361247Y505048D01*
X361231Y505037D01*
X361179Y505008D01*
X348706Y497110D01*
X348660Y497072D01*
X348608Y497041D01*
X348487Y496935D01*
X347985Y496432D01*
X347891Y496420D01*
X347773Y496413D01*
X347734Y496401D01*
X347693Y496395D01*
X347583Y496352D01*
X347471Y496316D01*
X347416Y496286D01*
X347397Y496278D01*
X347381Y496267D01*
X347349Y496249D01*
X346657Y496404D01*
X346598Y496410D01*
X346540Y496425D01*
X346379Y496435D01*
X344087Y496435D01*
X343989Y496423D01*
X343890Y496420D01*
X343832Y496403D01*
X343772Y496395D01*
X343680Y496359D01*
X343585Y496331D01*
X343532Y496301D01*
X343476Y496278D01*
X343396Y496220D01*
X343311Y496170D01*
X343235Y496104D01*
X343219Y496092D01*
X343211Y496082D01*
X343190Y496064D01*
X342366Y495240D01*
X342306Y495162D01*
X342238Y495090D01*
X342209Y495037D01*
X342172Y494989D01*
X342132Y494898D01*
X342084Y494811D01*
X342069Y494753D01*
X342045Y494697D01*
X342030Y494599D01*
X342005Y494503D01*
X341999Y494403D01*
X341995Y494383D01*
X341997Y494371D01*
X341995Y494343D01*
X341995Y322145D01*
X341998Y322116D01*
X341996Y322086D01*
X342018Y321958D01*
X342035Y321829D01*
X342045Y321802D01*
X342050Y321773D01*
X342104Y321654D01*
X342152Y321534D01*
X342169Y321510D01*
X342181Y321483D01*
X342262Y321381D01*
X342338Y321276D01*
X342361Y321258D01*
X342380Y321234D01*
X342483Y321156D01*
X342583Y321074D01*
X342610Y321061D01*
X342634Y321043D01*
X342778Y320972D01*
X343366Y320729D01*
X344859Y319236D01*
X345667Y317286D01*
X345667Y315174D01*
X344859Y313224D01*
X343366Y311731D01*
X341416Y310923D01*
X339304Y310923D01*
X337354Y311731D01*
X335861Y313224D01*
X335132Y314985D01*
X335107Y315028D01*
X335090Y315075D01*
X335029Y315166D01*
X334974Y315261D01*
X334939Y315297D01*
X334911Y315338D01*
X334829Y315411D01*
X334753Y315490D01*
X334710Y315516D01*
X334673Y315549D01*
X334575Y315599D01*
X334482Y315656D01*
X334434Y315671D01*
X334390Y315693D01*
X334283Y315717D01*
X334178Y315750D01*
X334128Y315752D01*
X334079Y315763D01*
X333970Y315759D01*
X333860Y315765D01*
X333811Y315755D01*
X333761Y315753D01*
X333656Y315723D01*
X333549Y315700D01*
X333504Y315678D01*
X333456Y315664D01*
X333362Y315609D01*
X333318Y315588D01*
X331256Y314733D01*
X329144Y314733D01*
X327194Y315541D01*
X325701Y317034D01*
X324893Y318984D01*
X324893Y320869D01*
X324881Y320967D01*
X324878Y321066D01*
X324861Y321124D01*
X324853Y321184D01*
X324817Y321276D01*
X324789Y321371D01*
X324759Y321424D01*
X324736Y321480D01*
X324678Y321560D01*
X324628Y321645D01*
X324562Y321721D01*
X324550Y321737D01*
X324540Y321745D01*
X324522Y321766D01*
X318405Y327882D01*
X318405Y331278D01*
X318397Y331347D01*
X318398Y331417D01*
X318377Y331504D01*
X318365Y331593D01*
X318340Y331658D01*
X318323Y331726D01*
X318281Y331805D01*
X318248Y331889D01*
X318207Y331945D01*
X318175Y332007D01*
X318114Y332074D01*
X318062Y332146D01*
X318008Y332191D01*
X317961Y332242D01*
X317886Y332292D01*
X317817Y332349D01*
X317753Y332379D01*
X317695Y332417D01*
X317610Y332446D01*
X317529Y332485D01*
X317460Y332498D01*
X317394Y332520D01*
X317305Y332528D01*
X317217Y332544D01*
X317147Y332540D01*
X317077Y332546D01*
X316989Y332530D01*
X316899Y332525D01*
X316833Y332503D01*
X316764Y332491D01*
X316682Y332454D01*
X316597Y332427D01*
X316538Y332389D01*
X316474Y332361D01*
X316404Y332305D01*
X316328Y332256D01*
X316280Y332206D01*
X316226Y332162D01*
X316172Y332090D01*
X316110Y332025D01*
X316076Y331964D01*
X316034Y331908D01*
X315963Y331763D01*
X315649Y331004D01*
X314316Y329672D01*
X314256Y329593D01*
X314188Y329521D01*
X314159Y329468D01*
X314122Y329420D01*
X314082Y329329D01*
X314034Y329243D01*
X314019Y329184D01*
X313995Y329128D01*
X313980Y329031D01*
X313955Y328935D01*
X313949Y328835D01*
X313945Y328814D01*
X313947Y328802D01*
X313945Y328774D01*
X313945Y320453D01*
X313957Y320355D01*
X313960Y320256D01*
X313977Y320198D01*
X313985Y320138D01*
X314021Y320046D01*
X314049Y319951D01*
X314079Y319898D01*
X314102Y319842D01*
X314160Y319762D01*
X314210Y319677D01*
X314276Y319601D01*
X314288Y319585D01*
X314298Y319577D01*
X314316Y319556D01*
X319584Y314288D01*
X319662Y314228D01*
X319734Y314160D01*
X319787Y314131D01*
X319835Y314094D01*
X319926Y314054D01*
X320013Y314006D01*
X320071Y313991D01*
X320127Y313967D01*
X320225Y313952D01*
X320321Y313927D01*
X320421Y313921D01*
X320441Y313917D01*
X320453Y313919D01*
X320481Y313917D01*
X322366Y313917D01*
X324316Y313109D01*
X325809Y311616D01*
X326617Y309666D01*
X326617Y307554D01*
X325809Y305604D01*
X324316Y304111D01*
X322366Y303303D01*
X320254Y303303D01*
X318304Y304111D01*
X316811Y305604D01*
X316003Y307554D01*
X316003Y309439D01*
X315991Y309537D01*
X315988Y309636D01*
X315971Y309694D01*
X315963Y309754D01*
X315927Y309846D01*
X315899Y309941D01*
X315869Y309994D01*
X315846Y310050D01*
X315788Y310130D01*
X315738Y310215D01*
X315672Y310291D01*
X315660Y310307D01*
X315650Y310315D01*
X315632Y310336D01*
X308355Y317612D01*
X308355Y328774D01*
X308343Y328872D01*
X308340Y328971D01*
X308323Y329030D01*
X308315Y329090D01*
X308279Y329182D01*
X308251Y329277D01*
X308221Y329329D01*
X308198Y329385D01*
X308140Y329465D01*
X308090Y329551D01*
X308024Y329626D01*
X308012Y329643D01*
X308002Y329650D01*
X307984Y329672D01*
X306651Y331004D01*
X305843Y332954D01*
X305843Y335066D01*
X306651Y337016D01*
X308144Y338509D01*
X310094Y339317D01*
X312206Y339317D01*
X314156Y338509D01*
X315649Y337016D01*
X315963Y336257D01*
X315998Y336196D01*
X316024Y336131D01*
X316076Y336058D01*
X316121Y335980D01*
X316169Y335930D01*
X316210Y335874D01*
X316280Y335816D01*
X316342Y335752D01*
X316402Y335715D01*
X316455Y335671D01*
X316537Y335633D01*
X316613Y335586D01*
X316680Y335565D01*
X316743Y335535D01*
X316831Y335519D01*
X316917Y335492D01*
X316987Y335489D01*
X317056Y335476D01*
X317145Y335481D01*
X317235Y335477D01*
X317303Y335491D01*
X317373Y335495D01*
X317458Y335523D01*
X317546Y335541D01*
X317609Y335572D01*
X317675Y335593D01*
X317751Y335641D01*
X317832Y335681D01*
X317885Y335726D01*
X317944Y335764D01*
X318006Y335829D01*
X318074Y335887D01*
X318114Y335944D01*
X318162Y335995D01*
X318205Y336074D01*
X318257Y336147D01*
X318282Y336213D01*
X318316Y336274D01*
X318338Y336361D01*
X318370Y336445D01*
X318378Y336514D01*
X318395Y336582D01*
X318405Y336742D01*
X318405Y388010D01*
X318399Y388059D01*
X318401Y388108D01*
X318379Y388216D01*
X318365Y388325D01*
X318347Y388371D01*
X318337Y388420D01*
X318289Y388519D01*
X318248Y388621D01*
X318219Y388661D01*
X318197Y388706D01*
X318126Y388789D01*
X318062Y388878D01*
X318023Y388910D01*
X317991Y388948D01*
X317901Y389011D01*
X317817Y389081D01*
X317772Y389102D01*
X317731Y389131D01*
X317628Y389170D01*
X317529Y389216D01*
X317480Y389226D01*
X317434Y389243D01*
X317324Y389256D01*
X317217Y389276D01*
X317167Y389273D01*
X317118Y389279D01*
X317009Y389263D01*
X316899Y389257D01*
X316852Y389241D01*
X316803Y389234D01*
X316650Y389182D01*
X314746Y388393D01*
X312634Y388393D01*
X310684Y389201D01*
X309191Y390694D01*
X308383Y392644D01*
X308383Y394770D01*
X308406Y394873D01*
X308441Y394998D01*
X308441Y395028D01*
X308448Y395056D01*
X308444Y395186D01*
X308446Y395316D01*
X308439Y395345D01*
X308438Y395374D01*
X308402Y395499D01*
X308371Y395625D01*
X308358Y395651D01*
X308349Y395680D01*
X308284Y395792D01*
X308223Y395906D01*
X308203Y395928D01*
X308188Y395954D01*
X308082Y396075D01*
X306463Y397694D01*
X306384Y397754D01*
X306312Y397822D01*
X306259Y397851D01*
X306211Y397888D01*
X306120Y397928D01*
X306034Y397976D01*
X305975Y397991D01*
X305919Y398015D01*
X305821Y398030D01*
X305726Y398055D01*
X305626Y398061D01*
X305605Y398065D01*
X305593Y398063D01*
X305565Y398065D01*
X297949Y398065D01*
X297873Y398056D01*
X297797Y398056D01*
X297716Y398036D01*
X297633Y398025D01*
X297562Y397997D01*
X297488Y397979D01*
X297415Y397939D01*
X297337Y397908D01*
X297276Y397864D01*
X297209Y397827D01*
X297148Y397771D01*
X297080Y397722D01*
X297031Y397663D01*
X296976Y397611D01*
X296930Y397541D01*
X296877Y397477D01*
X296845Y397407D01*
X296804Y397343D01*
X296777Y397264D01*
X296742Y397189D01*
X296727Y397114D01*
X296703Y397042D01*
X296698Y396958D01*
X296682Y396877D01*
X296687Y396800D01*
X296681Y396724D01*
X296697Y396642D01*
X296702Y396559D01*
X296725Y396487D01*
X296739Y396411D01*
X296774Y396336D01*
X296800Y396257D01*
X296841Y396192D01*
X296873Y396123D01*
X296925Y396058D01*
X296970Y395988D01*
X297026Y395936D01*
X297074Y395877D01*
X297197Y395773D01*
X305214Y389883D01*
X305217Y389882D01*
X305219Y389880D01*
X305357Y389804D01*
X305492Y389728D01*
X305495Y389728D01*
X305497Y389726D01*
X305648Y389688D01*
X305714Y389670D01*
X306226Y389158D01*
X306238Y389148D01*
X306248Y389136D01*
X306372Y389033D01*
X306953Y388606D01*
X306971Y388542D01*
X306973Y388540D01*
X306973Y388537D01*
X307053Y388403D01*
X307087Y388345D01*
X307087Y387620D01*
X307089Y387605D01*
X307087Y387589D01*
X307101Y387428D01*
X307210Y386715D01*
X307178Y386658D01*
X307178Y386655D01*
X307176Y386653D01*
X307138Y386502D01*
X307098Y386350D01*
X307098Y386347D01*
X307097Y386345D01*
X307087Y386184D01*
X307087Y358248D01*
X307096Y358178D01*
X307094Y358108D01*
X307115Y358021D01*
X307127Y357932D01*
X307137Y357906D01*
X307088Y356847D01*
X307089Y356830D01*
X307087Y356788D01*
X307087Y355860D01*
X306401Y355236D01*
X306391Y355223D01*
X306359Y355195D01*
X305606Y354442D01*
X305567Y354426D01*
X305510Y354385D01*
X305448Y354353D01*
X305323Y354252D01*
X263222Y315866D01*
X263211Y315853D01*
X263179Y315825D01*
X262523Y315169D01*
X261597Y315212D01*
X261580Y315211D01*
X261538Y315213D01*
X125933Y315213D01*
X125835Y315201D01*
X125736Y315198D01*
X125678Y315181D01*
X125617Y315173D01*
X125525Y315137D01*
X125430Y315109D01*
X125378Y315079D01*
X125322Y315056D01*
X125242Y314998D01*
X125156Y314948D01*
X125081Y314882D01*
X125064Y314870D01*
X125057Y314860D01*
X125035Y314842D01*
X115688Y305495D01*
X115628Y305416D01*
X115560Y305344D01*
X115531Y305291D01*
X115494Y305243D01*
X115454Y305152D01*
X115406Y305066D01*
X115391Y305007D01*
X115367Y304951D01*
X115352Y304853D01*
X115327Y304758D01*
X115321Y304658D01*
X115317Y304637D01*
X115319Y304625D01*
X115317Y304597D01*
X115317Y280826D01*
X115334Y280688D01*
X115347Y280549D01*
X115354Y280530D01*
X115357Y280510D01*
X115408Y280381D01*
X115455Y280250D01*
X115466Y280233D01*
X115474Y280215D01*
X115555Y280102D01*
X115633Y279987D01*
X115649Y279974D01*
X115660Y279957D01*
X115768Y279869D01*
X115872Y279777D01*
X115890Y279767D01*
X115905Y279754D01*
X116031Y279695D01*
X116155Y279632D01*
X116175Y279627D01*
X116193Y279619D01*
X116329Y279593D01*
X116465Y279562D01*
X116486Y279563D01*
X116505Y279559D01*
X116644Y279568D01*
X116783Y279572D01*
X116803Y279578D01*
X116823Y279579D01*
X116955Y279622D01*
X117089Y279660D01*
X117106Y279671D01*
X117125Y279677D01*
X117243Y279751D01*
X117363Y279822D01*
X117384Y279841D01*
X117394Y279847D01*
X117408Y279862D01*
X117484Y279928D01*
X117644Y280089D01*
X119594Y280897D01*
X121706Y280897D01*
X123656Y280089D01*
X125149Y278596D01*
X125957Y276646D01*
X125957Y274534D01*
X125149Y272584D01*
X123816Y271252D01*
X123756Y271173D01*
X123688Y271101D01*
X123667Y271064D01*
X123646Y271038D01*
X123639Y271023D01*
X123622Y271000D01*
X123582Y270909D01*
X123534Y270823D01*
X123522Y270775D01*
X123511Y270751D01*
X123509Y270739D01*
X123495Y270708D01*
X123480Y270611D01*
X123455Y270515D01*
X123449Y270415D01*
X123445Y270394D01*
X123447Y270382D01*
X123445Y270354D01*
X123445Y205852D01*
X103468Y185876D01*
X103408Y185798D01*
X103340Y185726D01*
X103311Y185673D01*
X103274Y185625D01*
X103234Y185534D01*
X103186Y185447D01*
X103171Y185389D01*
X103147Y185333D01*
X103132Y185235D01*
X103107Y185139D01*
X103101Y185039D01*
X103097Y185019D01*
X103099Y185007D01*
X103097Y184979D01*
X103097Y183094D01*
X102289Y181144D01*
X100796Y179651D01*
X99771Y179227D01*
X99710Y179192D01*
X99646Y179166D01*
X99573Y179114D01*
X99495Y179069D01*
X99445Y179021D01*
X99388Y178980D01*
X99331Y178910D01*
X99266Y178848D01*
X99230Y178788D01*
X99185Y178735D01*
X99147Y178653D01*
X99100Y178577D01*
X99080Y178510D01*
X99050Y178447D01*
X99033Y178359D01*
X99007Y178273D01*
X99003Y178203D01*
X98990Y178134D01*
X98996Y178045D01*
X98991Y177955D01*
X99006Y177887D01*
X99010Y177817D01*
X99037Y177732D01*
X99056Y177644D01*
X99086Y177581D01*
X99108Y177515D01*
X99156Y177439D01*
X99195Y177358D01*
X99241Y177305D01*
X99278Y177246D01*
X99344Y177184D01*
X99402Y177116D01*
X99459Y177076D01*
X99510Y177028D01*
X99588Y176985D01*
X99662Y176933D01*
X99727Y176908D01*
X99788Y176874D01*
X99875Y176852D01*
X99959Y176820D01*
X100029Y176812D01*
X100096Y176795D01*
X100257Y176785D01*
X167227Y176785D01*
X167325Y176797D01*
X167424Y176800D01*
X167482Y176817D01*
X167542Y176825D01*
X167634Y176861D01*
X167729Y176889D01*
X167782Y176919D01*
X167838Y176942D01*
X167918Y177000D01*
X168003Y177050D01*
X168079Y177116D01*
X168095Y177128D01*
X168103Y177138D01*
X168124Y177156D01*
X201304Y210336D01*
X201364Y210414D01*
X201432Y210486D01*
X201461Y210539D01*
X201498Y210587D01*
X201538Y210678D01*
X201586Y210765D01*
X201601Y210823D01*
X201625Y210879D01*
X201640Y210977D01*
X201665Y211073D01*
X201671Y211173D01*
X201675Y211193D01*
X201673Y211205D01*
X201675Y211233D01*
X201675Y240484D01*
X201663Y240582D01*
X201660Y240681D01*
X201643Y240740D01*
X201635Y240800D01*
X201599Y240892D01*
X201571Y240987D01*
X201541Y241039D01*
X201518Y241095D01*
X201460Y241175D01*
X201410Y241261D01*
X201344Y241336D01*
X201332Y241353D01*
X201322Y241360D01*
X201304Y241382D01*
X199971Y242714D01*
X199163Y244664D01*
X199163Y246776D01*
X199971Y248726D01*
X201464Y250219D01*
X203414Y251027D01*
X205526Y251027D01*
X207476Y250219D01*
X208969Y248726D01*
X209777Y246776D01*
X209777Y244664D01*
X208969Y242714D01*
X207636Y241382D01*
X207576Y241303D01*
X207508Y241231D01*
X207479Y241178D01*
X207442Y241130D01*
X207402Y241039D01*
X207354Y240953D01*
X207339Y240894D01*
X207315Y240838D01*
X207300Y240741D01*
X207275Y240645D01*
X207269Y240545D01*
X207265Y240524D01*
X207267Y240512D01*
X207265Y240484D01*
X207265Y216053D01*
X207273Y215984D01*
X207272Y215914D01*
X207293Y215826D01*
X207305Y215737D01*
X207330Y215672D01*
X207347Y215604D01*
X207389Y215525D01*
X207422Y215442D01*
X207463Y215385D01*
X207495Y215323D01*
X207556Y215257D01*
X207608Y215184D01*
X207662Y215140D01*
X207709Y215088D01*
X207784Y215039D01*
X207853Y214981D01*
X207917Y214952D01*
X207975Y214913D01*
X208060Y214884D01*
X208141Y214846D01*
X208210Y214833D01*
X208276Y214810D01*
X208365Y214803D01*
X208453Y214786D01*
X208523Y214790D01*
X208593Y214785D01*
X208681Y214800D01*
X208771Y214806D01*
X208837Y214827D01*
X208906Y214839D01*
X208988Y214876D01*
X209073Y214904D01*
X209132Y214941D01*
X209196Y214970D01*
X209266Y215026D01*
X209342Y215074D01*
X209390Y215125D01*
X209444Y215168D01*
X209498Y215240D01*
X209560Y215306D01*
X209594Y215367D01*
X209636Y215423D01*
X209707Y215567D01*
X210131Y216592D01*
X211624Y218085D01*
X213574Y218893D01*
X215686Y218893D01*
X217636Y218085D01*
X219129Y216592D01*
X219722Y215160D01*
X219737Y215135D01*
X219746Y215107D01*
X219815Y214997D01*
X219879Y214884D01*
X219900Y214863D01*
X219916Y214838D01*
X220010Y214749D01*
X220101Y214656D01*
X220126Y214640D01*
X220147Y214620D01*
X220261Y214557D01*
X220372Y214489D01*
X220400Y214481D01*
X220426Y214466D01*
X220552Y214434D01*
X220676Y214396D01*
X220705Y214394D01*
X220734Y214387D01*
X220895Y214377D01*
X225495Y214377D01*
X225525Y214380D01*
X225554Y214378D01*
X225682Y214400D01*
X225811Y214417D01*
X225838Y214427D01*
X225867Y214433D01*
X225986Y214486D01*
X226106Y214534D01*
X226130Y214551D01*
X226157Y214563D01*
X226259Y214644D01*
X226364Y214720D01*
X226383Y214743D01*
X226406Y214762D01*
X226484Y214865D01*
X226567Y214965D01*
X226579Y214992D01*
X226597Y215016D01*
X226632Y215086D01*
X228134Y216589D01*
X230084Y217397D01*
X232196Y217397D01*
X234146Y216589D01*
X235639Y215096D01*
X236447Y213146D01*
X236447Y211456D01*
X236464Y211318D01*
X236477Y211179D01*
X236484Y211160D01*
X236487Y211140D01*
X236538Y211011D01*
X236585Y210880D01*
X236596Y210863D01*
X236604Y210845D01*
X236685Y210732D01*
X236763Y210617D01*
X236779Y210604D01*
X236790Y210587D01*
X236898Y210498D01*
X237002Y210407D01*
X237020Y210397D01*
X237035Y210384D01*
X237161Y210325D01*
X237285Y210262D01*
X237305Y210258D01*
X237323Y210249D01*
X237460Y210223D01*
X237595Y210192D01*
X237616Y210193D01*
X237635Y210189D01*
X237774Y210198D01*
X237913Y210202D01*
X237933Y210208D01*
X237953Y210209D01*
X238085Y210252D01*
X238219Y210290D01*
X238236Y210301D01*
X238255Y210307D01*
X238373Y210381D01*
X238493Y210452D01*
X238514Y210471D01*
X238524Y210477D01*
X238538Y210492D01*
X238613Y210558D01*
X239564Y211509D01*
X241514Y212317D01*
X243626Y212317D01*
X245576Y211509D01*
X247069Y210016D01*
X247877Y208066D01*
X247877Y205954D01*
X247069Y204004D01*
X245576Y202511D01*
X244081Y201892D01*
X244073Y201887D01*
X244064Y201885D01*
X243936Y201809D01*
X243805Y201734D01*
X243798Y201728D01*
X243790Y201723D01*
X243669Y201617D01*
X243356Y201303D01*
X242213Y200160D01*
X242128Y200051D01*
X242039Y199944D01*
X242030Y199925D01*
X242018Y199909D01*
X241963Y199782D01*
X241903Y199656D01*
X241900Y199636D01*
X241892Y199617D01*
X241870Y199479D01*
X241844Y199343D01*
X241845Y199323D01*
X241842Y199303D01*
X241855Y199164D01*
X241863Y199026D01*
X241870Y199007D01*
X241871Y198987D01*
X241919Y198855D01*
X241961Y198724D01*
X241972Y198706D01*
X241979Y198687D01*
X242057Y198572D01*
X242132Y198455D01*
X242146Y198441D01*
X242158Y198424D01*
X242262Y198332D01*
X242363Y198237D01*
X242381Y198227D01*
X242396Y198214D01*
X242520Y198151D01*
X242642Y198083D01*
X242661Y198078D01*
X242679Y198069D01*
X242815Y198039D01*
X242950Y198004D01*
X242978Y198002D01*
X242990Y197999D01*
X243010Y198000D01*
X243110Y197994D01*
X251936Y197994D01*
X252034Y198006D01*
X252133Y198009D01*
X252191Y198026D01*
X252251Y198034D01*
X252343Y198070D01*
X252438Y198098D01*
X252491Y198128D01*
X252547Y198151D01*
X252627Y198209D01*
X252712Y198259D01*
X252788Y198325D01*
X252804Y198337D01*
X252812Y198347D01*
X252817Y198352D01*
X252821Y198354D01*
X252823Y198356D01*
X252833Y198365D01*
X259752Y205284D01*
X259812Y205362D01*
X259880Y205434D01*
X259909Y205487D01*
X259946Y205535D01*
X259986Y205626D01*
X260034Y205713D01*
X260049Y205771D01*
X260073Y205827D01*
X260088Y205925D01*
X260113Y206021D01*
X260119Y206121D01*
X260123Y206141D01*
X260121Y206153D01*
X260123Y206181D01*
X260123Y208066D01*
X260931Y210016D01*
X262424Y211509D01*
X264374Y212317D01*
X266486Y212317D01*
X268436Y211509D01*
X269929Y210016D01*
X270737Y208066D01*
X270737Y205954D01*
X269929Y204004D01*
X268436Y202511D01*
X266486Y201703D01*
X264601Y201703D01*
X264503Y201691D01*
X264404Y201688D01*
X264346Y201671D01*
X264286Y201663D01*
X264194Y201627D01*
X264099Y201599D01*
X264046Y201569D01*
X263990Y201546D01*
X263910Y201488D01*
X263825Y201438D01*
X263749Y201372D01*
X263733Y201360D01*
X263725Y201350D01*
X263704Y201332D01*
X254777Y192404D01*
X253751Y192404D01*
X253613Y192387D01*
X253474Y192374D01*
X253455Y192367D01*
X253435Y192364D01*
X253305Y192313D01*
X253175Y192266D01*
X253158Y192255D01*
X253139Y192247D01*
X253027Y192166D01*
X252912Y192088D01*
X252898Y192072D01*
X252882Y192061D01*
X252793Y191953D01*
X252701Y191849D01*
X252692Y191831D01*
X252679Y191816D01*
X252620Y191690D01*
X252557Y191566D01*
X252552Y191546D01*
X252544Y191528D01*
X252518Y191391D01*
X252487Y191256D01*
X252488Y191235D01*
X252484Y191216D01*
X252493Y191077D01*
X252497Y190938D01*
X252502Y190918D01*
X252504Y190898D01*
X252546Y190766D01*
X252585Y190632D01*
X252595Y190615D01*
X252602Y190596D01*
X252676Y190478D01*
X252747Y190358D01*
X252765Y190337D01*
X252772Y190327D01*
X252787Y190313D01*
X252853Y190238D01*
X253401Y189690D01*
X254890Y186095D01*
X254890Y182205D01*
X253401Y178610D01*
X250650Y175859D01*
X247055Y174370D01*
X243165Y174370D01*
X239570Y175859D01*
X236819Y178610D01*
X235330Y182205D01*
X235330Y182979D01*
X235313Y183117D01*
X235300Y183256D01*
X235293Y183275D01*
X235290Y183295D01*
X235239Y183424D01*
X235192Y183555D01*
X235181Y183572D01*
X235173Y183591D01*
X235092Y183703D01*
X235014Y183818D01*
X234998Y183832D01*
X234987Y183848D01*
X234879Y183937D01*
X234775Y184029D01*
X234757Y184038D01*
X234742Y184051D01*
X234616Y184110D01*
X234492Y184173D01*
X234472Y184178D01*
X234454Y184186D01*
X234318Y184212D01*
X234182Y184243D01*
X234161Y184242D01*
X234142Y184246D01*
X234003Y184237D01*
X233864Y184233D01*
X233844Y184228D01*
X233824Y184226D01*
X233692Y184184D01*
X233558Y184145D01*
X233541Y184135D01*
X233522Y184128D01*
X233404Y184054D01*
X233284Y183983D01*
X233263Y183965D01*
X233253Y183958D01*
X233239Y183943D01*
X233164Y183877D01*
X229000Y179714D01*
X228940Y179636D01*
X228872Y179563D01*
X228843Y179510D01*
X228806Y179463D01*
X228766Y179372D01*
X228718Y179285D01*
X228703Y179226D01*
X228679Y179171D01*
X228664Y179073D01*
X228639Y178977D01*
X228633Y178877D01*
X228629Y178857D01*
X228631Y178844D01*
X228629Y178816D01*
X228629Y167869D01*
X228641Y167771D01*
X228644Y167672D01*
X228661Y167614D01*
X228669Y167554D01*
X228705Y167462D01*
X228733Y167367D01*
X228763Y167315D01*
X228786Y167258D01*
X228844Y167178D01*
X228894Y167093D01*
X228960Y167017D01*
X228972Y167001D01*
X228982Y166993D01*
X229000Y166972D01*
X233935Y162038D01*
X233935Y138307D01*
X233943Y138238D01*
X233942Y138168D01*
X233963Y138081D01*
X233975Y137992D01*
X234000Y137927D01*
X234017Y137859D01*
X234059Y137779D01*
X234092Y137696D01*
X234133Y137639D01*
X234165Y137578D01*
X234226Y137511D01*
X234278Y137439D01*
X234332Y137394D01*
X234379Y137342D01*
X234454Y137293D01*
X234523Y137236D01*
X234587Y137206D01*
X234645Y137168D01*
X234730Y137139D01*
X234811Y137100D01*
X234880Y137087D01*
X234946Y137064D01*
X235035Y137057D01*
X235123Y137040D01*
X235193Y137045D01*
X235263Y137039D01*
X235351Y137055D01*
X235441Y137060D01*
X235507Y137082D01*
X235576Y137094D01*
X235658Y137131D01*
X235743Y137158D01*
X235802Y137196D01*
X235866Y137224D01*
X235936Y137280D01*
X236012Y137328D01*
X236060Y137379D01*
X236114Y137423D01*
X236169Y137495D01*
X236230Y137560D01*
X236264Y137621D01*
X236306Y137677D01*
X236377Y137821D01*
X236819Y138890D01*
X239570Y141641D01*
X243165Y143130D01*
X247055Y143130D01*
X250650Y141641D01*
X253401Y138890D01*
X254890Y135295D01*
X254890Y131405D01*
X253401Y127810D01*
X250650Y125059D01*
X247055Y123570D01*
X243165Y123570D01*
X239570Y125059D01*
X236819Y127810D01*
X235790Y130295D01*
X235765Y130339D01*
X235748Y130385D01*
X235687Y130476D01*
X235632Y130572D01*
X235598Y130607D01*
X235570Y130649D01*
X235487Y130721D01*
X235411Y130800D01*
X235369Y130826D01*
X235331Y130859D01*
X235233Y130909D01*
X235140Y130966D01*
X235092Y130981D01*
X235048Y131004D01*
X234941Y131028D01*
X234836Y131060D01*
X234786Y131062D01*
X234738Y131073D01*
X234628Y131070D01*
X234518Y131075D01*
X234470Y131065D01*
X234420Y131064D01*
X234314Y131033D01*
X234207Y131011D01*
X234162Y130989D01*
X234114Y130975D01*
X234020Y130919D01*
X233921Y130871D01*
X233883Y130839D01*
X233840Y130814D01*
X233720Y130707D01*
X233008Y129996D01*
X232948Y129918D01*
X232880Y129846D01*
X232851Y129793D01*
X232814Y129745D01*
X232774Y129654D01*
X232726Y129567D01*
X232711Y129509D01*
X232687Y129453D01*
X232672Y129355D01*
X232647Y129259D01*
X232641Y129159D01*
X232637Y129139D01*
X232639Y129127D01*
X232637Y129099D01*
X232637Y127214D01*
X231829Y125264D01*
X230336Y123771D01*
X228386Y122963D01*
X226501Y122963D01*
X226403Y122951D01*
X226304Y122948D01*
X226246Y122931D01*
X226186Y122923D01*
X226094Y122887D01*
X225999Y122859D01*
X225946Y122829D01*
X225890Y122806D01*
X225810Y122748D01*
X225725Y122698D01*
X225649Y122632D01*
X225633Y122620D01*
X225625Y122610D01*
X225604Y122592D01*
X181634Y78621D01*
X181549Y78512D01*
X181460Y78405D01*
X181451Y78386D01*
X181439Y78370D01*
X181383Y78242D01*
X181324Y78117D01*
X181321Y78097D01*
X181313Y78078D01*
X181291Y77940D01*
X181265Y77804D01*
X181266Y77784D01*
X181263Y77764D01*
X181276Y77625D01*
X181284Y77487D01*
X181291Y77468D01*
X181292Y77448D01*
X181340Y77316D01*
X181382Y77185D01*
X181393Y77167D01*
X181400Y77148D01*
X181478Y77033D01*
X181553Y76916D01*
X181567Y76902D01*
X181579Y76885D01*
X181683Y76793D01*
X181784Y76698D01*
X181802Y76688D01*
X181817Y76675D01*
X181941Y76611D01*
X182063Y76544D01*
X182082Y76539D01*
X182100Y76530D01*
X182236Y76500D01*
X182371Y76465D01*
X182399Y76463D01*
X182400Y76463D01*
X187648Y74289D01*
X191649Y70288D01*
X193815Y65060D01*
X193815Y59400D01*
X191649Y54172D01*
X187648Y50171D01*
X182420Y48005D01*
X176760Y48005D01*
G37*
%LPD*%
%LPC*%
G36*
X361949Y53974D02*
X361949Y53974D01*
X361949Y55245D01*
X361934Y55363D01*
X361927Y55482D01*
X361914Y55520D01*
X361909Y55560D01*
X361865Y55671D01*
X361829Y55784D01*
X361807Y55819D01*
X361792Y55856D01*
X361722Y55952D01*
X361659Y56053D01*
X361629Y56081D01*
X361605Y56113D01*
X361514Y56189D01*
X361427Y56271D01*
X361392Y56290D01*
X361360Y56316D01*
X361253Y56367D01*
X361149Y56424D01*
X361109Y56435D01*
X361073Y56452D01*
X360956Y56474D01*
X360841Y56504D01*
X360780Y56508D01*
X360760Y56512D01*
X360740Y56510D01*
X360680Y56514D01*
X351789Y56514D01*
X351789Y57540D01*
X351774Y57658D01*
X351767Y57777D01*
X351754Y57815D01*
X351749Y57855D01*
X351706Y57966D01*
X351669Y58079D01*
X351647Y58114D01*
X351632Y58151D01*
X351563Y58247D01*
X351499Y58348D01*
X351469Y58376D01*
X351446Y58408D01*
X351354Y58484D01*
X351267Y58566D01*
X351232Y58585D01*
X351201Y58611D01*
X351093Y58662D01*
X350989Y58719D01*
X350949Y58730D01*
X350913Y58747D01*
X350796Y58769D01*
X350681Y58799D01*
X350621Y58803D01*
X350601Y58807D01*
X350580Y58805D01*
X350520Y58809D01*
X344170Y58809D01*
X344052Y58794D01*
X343933Y58787D01*
X343895Y58774D01*
X343855Y58769D01*
X343744Y58725D01*
X343631Y58689D01*
X343596Y58667D01*
X343559Y58652D01*
X343463Y58582D01*
X343362Y58519D01*
X343334Y58489D01*
X343302Y58465D01*
X343226Y58374D01*
X343144Y58287D01*
X343125Y58252D01*
X343099Y58220D01*
X343048Y58113D01*
X342991Y58009D01*
X342980Y57969D01*
X342963Y57933D01*
X342941Y57816D01*
X342911Y57701D01*
X342907Y57640D01*
X342903Y57620D01*
X342905Y57600D01*
X342901Y57540D01*
X342901Y56269D01*
X342899Y56269D01*
X342899Y57540D01*
X342884Y57658D01*
X342877Y57777D01*
X342864Y57815D01*
X342859Y57855D01*
X342815Y57966D01*
X342779Y58079D01*
X342757Y58114D01*
X342742Y58151D01*
X342672Y58247D01*
X342609Y58348D01*
X342579Y58376D01*
X342555Y58408D01*
X342464Y58484D01*
X342377Y58566D01*
X342342Y58585D01*
X342310Y58611D01*
X342203Y58662D01*
X342099Y58719D01*
X342059Y58730D01*
X342023Y58747D01*
X341906Y58769D01*
X341791Y58799D01*
X341730Y58803D01*
X341710Y58807D01*
X341690Y58805D01*
X341630Y58809D01*
X332859Y58809D01*
X332859Y63104D01*
X333032Y63751D01*
X333367Y64330D01*
X333628Y64591D01*
X333701Y64685D01*
X333780Y64774D01*
X333798Y64810D01*
X333823Y64842D01*
X333870Y64952D01*
X333924Y65058D01*
X333933Y65097D01*
X333949Y65134D01*
X333968Y65252D01*
X333994Y65368D01*
X333993Y65408D01*
X333999Y65448D01*
X333988Y65567D01*
X333984Y65686D01*
X333973Y65725D01*
X333969Y65765D01*
X333929Y65877D01*
X333896Y65991D01*
X333875Y66026D01*
X333875Y77817D01*
X333863Y77915D01*
X333860Y78014D01*
X333843Y78072D01*
X333835Y78132D01*
X333799Y78224D01*
X333771Y78319D01*
X333741Y78372D01*
X333718Y78428D01*
X333660Y78508D01*
X333610Y78593D01*
X333544Y78669D01*
X333532Y78685D01*
X333522Y78693D01*
X333504Y78714D01*
X328675Y83542D01*
X328675Y84934D01*
X328663Y85032D01*
X328660Y85131D01*
X328643Y85190D01*
X328635Y85250D01*
X328599Y85342D01*
X328571Y85437D01*
X328541Y85489D01*
X328518Y85545D01*
X328460Y85625D01*
X328410Y85711D01*
X328344Y85786D01*
X328332Y85803D01*
X328322Y85810D01*
X328304Y85832D01*
X326971Y87164D01*
X326163Y89114D01*
X326163Y91226D01*
X326971Y93176D01*
X328464Y94669D01*
X330536Y95527D01*
X330562Y95542D01*
X330590Y95551D01*
X330699Y95620D01*
X330812Y95685D01*
X330833Y95705D01*
X330858Y95721D01*
X330947Y95815D01*
X331041Y95906D01*
X331056Y95931D01*
X331076Y95953D01*
X331139Y96066D01*
X331207Y96177D01*
X331216Y96205D01*
X331230Y96231D01*
X331262Y96357D01*
X331300Y96481D01*
X331302Y96510D01*
X331309Y96539D01*
X331319Y96700D01*
X331319Y98922D01*
X332127Y100872D01*
X333460Y102205D01*
X333520Y102283D01*
X333588Y102355D01*
X333617Y102408D01*
X333655Y102456D01*
X333694Y102547D01*
X333742Y102633D01*
X333757Y102692D01*
X333781Y102748D01*
X333797Y102846D01*
X333821Y102941D01*
X333828Y103041D01*
X333831Y103062D01*
X333830Y103074D01*
X333831Y103102D01*
X333831Y157444D01*
X338492Y162104D01*
X338552Y162182D01*
X338620Y162254D01*
X338649Y162307D01*
X338686Y162355D01*
X338726Y162446D01*
X338774Y162533D01*
X338789Y162591D01*
X338813Y162647D01*
X338828Y162745D01*
X338853Y162841D01*
X338859Y162941D01*
X338863Y162961D01*
X338861Y162973D01*
X338863Y163001D01*
X338863Y164886D01*
X339671Y166836D01*
X341164Y168329D01*
X343010Y169093D01*
X343071Y169128D01*
X343135Y169154D01*
X343208Y169206D01*
X343286Y169251D01*
X343336Y169299D01*
X343393Y169340D01*
X343450Y169410D01*
X343514Y169472D01*
X343551Y169532D01*
X343595Y169585D01*
X343634Y169667D01*
X343681Y169743D01*
X343701Y169810D01*
X343731Y169873D01*
X343748Y169961D01*
X343774Y170047D01*
X343778Y170117D01*
X343791Y170186D01*
X343785Y170275D01*
X343790Y170365D01*
X343775Y170433D01*
X343771Y170503D01*
X343743Y170588D01*
X343725Y170676D01*
X343695Y170739D01*
X343673Y170805D01*
X343625Y170881D01*
X343585Y170962D01*
X343540Y171015D01*
X343503Y171074D01*
X343437Y171136D01*
X343379Y171204D01*
X343322Y171244D01*
X343271Y171292D01*
X343193Y171335D01*
X343119Y171387D01*
X343054Y171412D01*
X342993Y171446D01*
X342906Y171468D01*
X342822Y171500D01*
X342752Y171508D01*
X342685Y171525D01*
X342524Y171535D01*
X326546Y171535D01*
X326448Y171523D01*
X326349Y171520D01*
X326290Y171503D01*
X326230Y171495D01*
X326138Y171459D01*
X326043Y171431D01*
X325991Y171401D01*
X325935Y171378D01*
X325855Y171320D01*
X325769Y171270D01*
X325694Y171204D01*
X325677Y171192D01*
X325670Y171182D01*
X325648Y171164D01*
X324316Y169831D01*
X322366Y169023D01*
X320254Y169023D01*
X318304Y169831D01*
X316972Y171164D01*
X316893Y171224D01*
X316821Y171292D01*
X316768Y171321D01*
X316720Y171358D01*
X316629Y171398D01*
X316543Y171446D01*
X316484Y171461D01*
X316428Y171485D01*
X316331Y171500D01*
X316235Y171525D01*
X316135Y171531D01*
X316114Y171535D01*
X316102Y171533D01*
X316074Y171535D01*
X306226Y171535D01*
X306128Y171523D01*
X306029Y171520D01*
X305970Y171503D01*
X305910Y171495D01*
X305818Y171459D01*
X305723Y171431D01*
X305671Y171401D01*
X305615Y171378D01*
X305535Y171320D01*
X305449Y171270D01*
X305374Y171204D01*
X305357Y171192D01*
X305350Y171182D01*
X305328Y171164D01*
X303996Y169831D01*
X302046Y169023D01*
X299934Y169023D01*
X297920Y169858D01*
X297872Y169871D01*
X297827Y169892D01*
X297719Y169913D01*
X297613Y169942D01*
X297563Y169943D01*
X297514Y169952D01*
X297405Y169945D01*
X297295Y169947D01*
X297247Y169935D01*
X297197Y169932D01*
X297093Y169898D01*
X296986Y169873D01*
X296942Y169849D01*
X296895Y169834D01*
X296802Y169775D01*
X296705Y169724D01*
X296668Y169691D01*
X296626Y169664D01*
X296551Y169584D01*
X296469Y169510D01*
X296442Y169468D01*
X296408Y169432D01*
X296355Y169336D01*
X296295Y169244D01*
X296278Y169197D01*
X296254Y169154D01*
X296227Y169048D01*
X296191Y168943D01*
X296187Y168894D01*
X296175Y168846D01*
X296165Y168685D01*
X296165Y147432D01*
X233008Y84276D01*
X232948Y84198D01*
X232880Y84126D01*
X232851Y84073D01*
X232814Y84025D01*
X232774Y83934D01*
X232726Y83847D01*
X232711Y83789D01*
X232687Y83733D01*
X232672Y83635D01*
X232647Y83539D01*
X232641Y83439D01*
X232637Y83419D01*
X232639Y83406D01*
X232637Y83379D01*
X232637Y81494D01*
X231829Y79544D01*
X230336Y78051D01*
X228386Y77243D01*
X226274Y77243D01*
X224324Y78051D01*
X222831Y79544D01*
X222023Y81494D01*
X222023Y83606D01*
X222831Y85556D01*
X224324Y87049D01*
X226274Y87857D01*
X228159Y87857D01*
X228257Y87869D01*
X228356Y87872D01*
X228414Y87889D01*
X228474Y87897D01*
X228566Y87933D01*
X228661Y87961D01*
X228714Y87991D01*
X228770Y88014D01*
X228850Y88072D01*
X228935Y88122D01*
X229011Y88188D01*
X229027Y88200D01*
X229035Y88210D01*
X229056Y88228D01*
X290204Y149376D01*
X290264Y149454D01*
X290332Y149526D01*
X290361Y149579D01*
X290398Y149627D01*
X290438Y149718D01*
X290486Y149805D01*
X290501Y149863D01*
X290525Y149919D01*
X290540Y150017D01*
X290565Y150113D01*
X290571Y150213D01*
X290575Y150233D01*
X290573Y150245D01*
X290575Y150273D01*
X290575Y182768D01*
X337932Y230125D01*
X399894Y230125D01*
X399992Y230137D01*
X400091Y230140D01*
X400150Y230157D01*
X400210Y230165D01*
X400302Y230201D01*
X400397Y230229D01*
X400449Y230259D01*
X400505Y230282D01*
X400585Y230340D01*
X400671Y230390D01*
X400746Y230456D01*
X400763Y230468D01*
X400770Y230478D01*
X400792Y230496D01*
X402124Y231829D01*
X404074Y232637D01*
X406186Y232637D01*
X408136Y231829D01*
X409629Y230336D01*
X410437Y228386D01*
X410437Y226274D01*
X409629Y224324D01*
X408136Y222831D01*
X406186Y222023D01*
X404074Y222023D01*
X402124Y222831D01*
X400792Y224164D01*
X400713Y224224D01*
X400641Y224292D01*
X400588Y224321D01*
X400540Y224358D01*
X400449Y224398D01*
X400363Y224446D01*
X400304Y224461D01*
X400248Y224485D01*
X400151Y224500D01*
X400055Y224525D01*
X399955Y224531D01*
X399934Y224535D01*
X399922Y224533D01*
X399894Y224535D01*
X372037Y224535D01*
X371968Y224527D01*
X371898Y224528D01*
X371810Y224507D01*
X371721Y224495D01*
X371656Y224470D01*
X371588Y224453D01*
X371509Y224411D01*
X371426Y224378D01*
X371369Y224337D01*
X371307Y224305D01*
X371241Y224244D01*
X371168Y224192D01*
X371124Y224138D01*
X371072Y224091D01*
X371023Y224016D01*
X370965Y223947D01*
X370936Y223883D01*
X370897Y223825D01*
X370868Y223740D01*
X370830Y223659D01*
X370817Y223590D01*
X370794Y223524D01*
X370787Y223435D01*
X370770Y223347D01*
X370774Y223277D01*
X370769Y223207D01*
X370784Y223119D01*
X370790Y223029D01*
X370811Y222963D01*
X370823Y222894D01*
X370860Y222812D01*
X370888Y222727D01*
X370925Y222668D01*
X370954Y222604D01*
X371010Y222534D01*
X371058Y222458D01*
X371109Y222410D01*
X371152Y222356D01*
X371224Y222302D01*
X371290Y222240D01*
X371351Y222206D01*
X371407Y222164D01*
X371551Y222093D01*
X372576Y221669D01*
X374069Y220176D01*
X374877Y218226D01*
X374877Y216114D01*
X374069Y214164D01*
X372736Y212832D01*
X372676Y212753D01*
X372608Y212681D01*
X372579Y212628D01*
X372542Y212580D01*
X372502Y212489D01*
X372454Y212403D01*
X372439Y212344D01*
X372415Y212288D01*
X372400Y212191D01*
X372375Y212095D01*
X372369Y211995D01*
X372365Y211974D01*
X372367Y211962D01*
X372365Y211934D01*
X372365Y199546D01*
X372377Y199448D01*
X372380Y199349D01*
X372397Y199290D01*
X372405Y199230D01*
X372441Y199138D01*
X372469Y199043D01*
X372499Y198991D01*
X372522Y198935D01*
X372580Y198855D01*
X372630Y198769D01*
X372696Y198694D01*
X372708Y198677D01*
X372718Y198670D01*
X372736Y198648D01*
X374069Y197316D01*
X374877Y195366D01*
X374877Y193254D01*
X374069Y191304D01*
X372576Y189811D01*
X370626Y189003D01*
X368514Y189003D01*
X366564Y189811D01*
X365071Y191304D01*
X364263Y193254D01*
X364263Y195366D01*
X365071Y197316D01*
X366404Y198648D01*
X366464Y198727D01*
X366532Y198799D01*
X366561Y198852D01*
X366598Y198900D01*
X366638Y198991D01*
X366686Y199077D01*
X366701Y199136D01*
X366725Y199192D01*
X366740Y199289D01*
X366765Y199385D01*
X366771Y199485D01*
X366775Y199506D01*
X366773Y199518D01*
X366775Y199546D01*
X366775Y211934D01*
X366763Y212032D01*
X366760Y212131D01*
X366743Y212190D01*
X366735Y212250D01*
X366699Y212342D01*
X366671Y212437D01*
X366641Y212489D01*
X366618Y212545D01*
X366560Y212625D01*
X366510Y212711D01*
X366444Y212786D01*
X366432Y212803D01*
X366422Y212810D01*
X366404Y212832D01*
X365071Y214164D01*
X364263Y216114D01*
X364263Y218226D01*
X365071Y220176D01*
X366564Y221669D01*
X367589Y222093D01*
X367650Y222128D01*
X367714Y222154D01*
X367787Y222206D01*
X367865Y222251D01*
X367915Y222299D01*
X367972Y222340D01*
X368029Y222410D01*
X368094Y222472D01*
X368130Y222532D01*
X368175Y222585D01*
X368213Y222667D01*
X368260Y222743D01*
X368280Y222810D01*
X368310Y222873D01*
X368327Y222961D01*
X368354Y223047D01*
X368357Y223117D01*
X368370Y223186D01*
X368364Y223275D01*
X368369Y223365D01*
X368355Y223433D01*
X368350Y223503D01*
X368323Y223588D01*
X368304Y223676D01*
X368274Y223739D01*
X368252Y223805D01*
X368204Y223881D01*
X368165Y223962D01*
X368119Y224015D01*
X368082Y224074D01*
X368017Y224136D01*
X367958Y224204D01*
X367901Y224244D01*
X367850Y224292D01*
X367772Y224335D01*
X367698Y224387D01*
X367633Y224412D01*
X367572Y224446D01*
X367485Y224468D01*
X367401Y224500D01*
X367332Y224508D01*
X367264Y224525D01*
X367103Y224535D01*
X340773Y224535D01*
X340675Y224523D01*
X340576Y224520D01*
X340518Y224503D01*
X340458Y224495D01*
X340366Y224459D01*
X340271Y224431D01*
X340218Y224401D01*
X340162Y224378D01*
X340082Y224320D01*
X339997Y224270D01*
X339921Y224204D01*
X339905Y224192D01*
X339897Y224182D01*
X339876Y224164D01*
X337816Y222103D01*
X337731Y221994D01*
X337642Y221887D01*
X337633Y221868D01*
X337621Y221852D01*
X337565Y221724D01*
X337506Y221599D01*
X337503Y221579D01*
X337495Y221560D01*
X337473Y221422D01*
X337447Y221286D01*
X337448Y221266D01*
X337445Y221246D01*
X337458Y221107D01*
X337466Y220969D01*
X337473Y220950D01*
X337474Y220930D01*
X337522Y220798D01*
X337564Y220667D01*
X337575Y220649D01*
X337582Y220630D01*
X337660Y220515D01*
X337735Y220398D01*
X337749Y220384D01*
X337761Y220367D01*
X337865Y220275D01*
X337966Y220180D01*
X337984Y220170D01*
X337999Y220157D01*
X338123Y220093D01*
X338245Y220026D01*
X338264Y220021D01*
X338282Y220012D01*
X338418Y219982D01*
X338553Y219947D01*
X338581Y219945D01*
X338593Y219942D01*
X338613Y219943D01*
X338713Y219937D01*
X340146Y219937D01*
X342096Y219129D01*
X343589Y217636D01*
X344397Y215686D01*
X344397Y213801D01*
X344409Y213703D01*
X344412Y213604D01*
X344429Y213546D01*
X344437Y213486D01*
X344473Y213394D01*
X344501Y213299D01*
X344531Y213246D01*
X344554Y213190D01*
X344612Y213110D01*
X344662Y213025D01*
X344728Y212949D01*
X344740Y212933D01*
X344750Y212925D01*
X344768Y212904D01*
X352045Y205628D01*
X352045Y197006D01*
X352057Y196908D01*
X352060Y196809D01*
X352077Y196750D01*
X352085Y196690D01*
X352121Y196598D01*
X352149Y196503D01*
X352179Y196451D01*
X352202Y196395D01*
X352260Y196315D01*
X352310Y196229D01*
X352376Y196154D01*
X352388Y196137D01*
X352398Y196130D01*
X352416Y196108D01*
X353749Y194776D01*
X354557Y192826D01*
X354557Y190714D01*
X353749Y188764D01*
X352256Y187271D01*
X350306Y186463D01*
X348194Y186463D01*
X346244Y187271D01*
X344751Y188764D01*
X343943Y190714D01*
X343943Y192826D01*
X344751Y194776D01*
X346084Y196108D01*
X346144Y196187D01*
X346212Y196259D01*
X346241Y196312D01*
X346278Y196360D01*
X346318Y196451D01*
X346366Y196537D01*
X346381Y196596D01*
X346405Y196652D01*
X346420Y196749D01*
X346445Y196845D01*
X346451Y196945D01*
X346455Y196966D01*
X346453Y196978D01*
X346455Y197006D01*
X346455Y202787D01*
X346443Y202885D01*
X346440Y202984D01*
X346423Y203042D01*
X346415Y203102D01*
X346379Y203194D01*
X346351Y203289D01*
X346321Y203342D01*
X346298Y203398D01*
X346240Y203478D01*
X346190Y203563D01*
X346124Y203639D01*
X346112Y203655D01*
X346102Y203663D01*
X346084Y203684D01*
X340816Y208952D01*
X340738Y209012D01*
X340666Y209080D01*
X340613Y209109D01*
X340565Y209146D01*
X340474Y209186D01*
X340387Y209234D01*
X340329Y209249D01*
X340273Y209273D01*
X340175Y209288D01*
X340079Y209313D01*
X339979Y209319D01*
X339959Y209323D01*
X339947Y209321D01*
X339919Y209323D01*
X338034Y209323D01*
X336084Y210131D01*
X334591Y211624D01*
X333783Y213574D01*
X333783Y215007D01*
X333766Y215144D01*
X333753Y215283D01*
X333746Y215302D01*
X333743Y215322D01*
X333692Y215451D01*
X333645Y215582D01*
X333634Y215599D01*
X333626Y215618D01*
X333545Y215730D01*
X333467Y215845D01*
X333451Y215859D01*
X333440Y215875D01*
X333332Y215964D01*
X333228Y216056D01*
X333210Y216065D01*
X333195Y216078D01*
X333069Y216137D01*
X332945Y216201D01*
X332925Y216205D01*
X332907Y216214D01*
X332771Y216240D01*
X332635Y216270D01*
X332614Y216270D01*
X332595Y216273D01*
X332456Y216265D01*
X332317Y216261D01*
X332297Y216255D01*
X332277Y216254D01*
X332145Y216211D01*
X332011Y216172D01*
X331994Y216162D01*
X331975Y216156D01*
X331857Y216081D01*
X331737Y216011D01*
X331716Y215992D01*
X331706Y215985D01*
X331692Y215971D01*
X331617Y215904D01*
X296619Y180906D01*
X296576Y180851D01*
X296526Y180803D01*
X296479Y180726D01*
X296424Y180655D01*
X296396Y180591D01*
X296360Y180532D01*
X296333Y180446D01*
X296297Y180363D01*
X296286Y180294D01*
X296266Y180228D01*
X296262Y180138D01*
X296248Y180049D01*
X296254Y179979D01*
X296251Y179910D01*
X296269Y179822D01*
X296277Y179733D01*
X296301Y179667D01*
X296315Y179599D01*
X296355Y179518D01*
X296385Y179433D01*
X296424Y179375D01*
X296455Y179313D01*
X296513Y179245D01*
X296564Y179170D01*
X296616Y179124D01*
X296661Y179071D01*
X296735Y179019D01*
X296802Y178960D01*
X296864Y178928D01*
X296921Y178888D01*
X297005Y178856D01*
X297085Y178815D01*
X297153Y178800D01*
X297219Y178775D01*
X297308Y178765D01*
X297396Y178745D01*
X297465Y178748D01*
X297535Y178740D01*
X297624Y178752D01*
X297713Y178755D01*
X297781Y178774D01*
X297850Y178784D01*
X298002Y178836D01*
X299934Y179637D01*
X302046Y179637D01*
X303996Y178829D01*
X305328Y177496D01*
X305407Y177436D01*
X305479Y177368D01*
X305532Y177339D01*
X305580Y177302D01*
X305671Y177262D01*
X305757Y177214D01*
X305816Y177199D01*
X305872Y177175D01*
X305969Y177160D01*
X306065Y177135D01*
X306165Y177129D01*
X306186Y177125D01*
X306198Y177127D01*
X306226Y177125D01*
X316074Y177125D01*
X316172Y177137D01*
X316271Y177140D01*
X316330Y177157D01*
X316390Y177165D01*
X316482Y177201D01*
X316577Y177229D01*
X316629Y177259D01*
X316685Y177282D01*
X316765Y177340D01*
X316851Y177390D01*
X316926Y177456D01*
X316943Y177468D01*
X316950Y177478D01*
X316972Y177496D01*
X318304Y178829D01*
X320254Y179637D01*
X322366Y179637D01*
X324316Y178829D01*
X325648Y177496D01*
X325727Y177436D01*
X325799Y177368D01*
X325852Y177339D01*
X325900Y177302D01*
X325991Y177262D01*
X326077Y177214D01*
X326136Y177199D01*
X326192Y177175D01*
X326289Y177160D01*
X326385Y177135D01*
X326485Y177129D01*
X326506Y177125D01*
X326518Y177127D01*
X326546Y177125D01*
X360228Y177125D01*
X367844Y169508D01*
X367922Y169448D01*
X367994Y169380D01*
X368047Y169351D01*
X368095Y169314D01*
X368186Y169274D01*
X368273Y169226D01*
X368331Y169211D01*
X368387Y169187D01*
X368485Y169172D01*
X368581Y169147D01*
X368681Y169141D01*
X368701Y169137D01*
X368713Y169139D01*
X368741Y169137D01*
X370626Y169137D01*
X372576Y168329D01*
X374069Y166836D01*
X374877Y164886D01*
X374877Y162774D01*
X374069Y160824D01*
X372576Y159331D01*
X370626Y158523D01*
X368514Y158523D01*
X366564Y159331D01*
X365071Y160824D01*
X364263Y162774D01*
X364263Y164659D01*
X364251Y164757D01*
X364248Y164856D01*
X364231Y164914D01*
X364223Y164974D01*
X364187Y165066D01*
X364159Y165161D01*
X364129Y165214D01*
X364106Y165270D01*
X364048Y165350D01*
X363998Y165435D01*
X363932Y165511D01*
X363920Y165527D01*
X363910Y165535D01*
X363892Y165556D01*
X358284Y171164D01*
X358206Y171224D01*
X358134Y171292D01*
X358081Y171321D01*
X358033Y171358D01*
X357942Y171398D01*
X357855Y171446D01*
X357797Y171461D01*
X357741Y171485D01*
X357643Y171500D01*
X357547Y171525D01*
X357447Y171531D01*
X357427Y171535D01*
X357415Y171533D01*
X357387Y171535D01*
X345816Y171535D01*
X345747Y171527D01*
X345677Y171528D01*
X345589Y171507D01*
X345500Y171495D01*
X345435Y171470D01*
X345368Y171453D01*
X345288Y171411D01*
X345205Y171378D01*
X345148Y171337D01*
X345086Y171305D01*
X345020Y171244D01*
X344947Y171192D01*
X344903Y171138D01*
X344851Y171091D01*
X344802Y171016D01*
X344745Y170947D01*
X344715Y170883D01*
X344676Y170825D01*
X344647Y170740D01*
X344609Y170659D01*
X344596Y170590D01*
X344573Y170524D01*
X344566Y170435D01*
X344549Y170347D01*
X344554Y170277D01*
X344548Y170207D01*
X344563Y170119D01*
X344569Y170029D01*
X344590Y169963D01*
X344602Y169894D01*
X344639Y169812D01*
X344667Y169727D01*
X344704Y169668D01*
X344733Y169604D01*
X344789Y169534D01*
X344837Y169458D01*
X344888Y169410D01*
X344932Y169356D01*
X345003Y169301D01*
X345069Y169240D01*
X345130Y169206D01*
X345186Y169164D01*
X345330Y169093D01*
X347176Y168329D01*
X348669Y166836D01*
X349477Y164886D01*
X349477Y162774D01*
X348669Y160824D01*
X347176Y159331D01*
X345226Y158523D01*
X343341Y158523D01*
X343243Y158511D01*
X343144Y158508D01*
X343086Y158491D01*
X343026Y158483D01*
X342934Y158447D01*
X342839Y158419D01*
X342786Y158389D01*
X342730Y158366D01*
X342650Y158308D01*
X342565Y158258D01*
X342489Y158192D01*
X342473Y158180D01*
X342465Y158170D01*
X342444Y158152D01*
X339793Y155500D01*
X339732Y155422D01*
X339664Y155350D01*
X339635Y155297D01*
X339598Y155249D01*
X339558Y155158D01*
X339511Y155071D01*
X339495Y155013D01*
X339471Y154957D01*
X339456Y154859D01*
X339431Y154764D01*
X339425Y154663D01*
X339422Y154643D01*
X339423Y154631D01*
X339421Y154603D01*
X339421Y103102D01*
X339433Y103004D01*
X339436Y102905D01*
X339453Y102847D01*
X339461Y102787D01*
X339497Y102694D01*
X339525Y102599D01*
X339556Y102547D01*
X339578Y102491D01*
X339636Y102411D01*
X339686Y102325D01*
X339753Y102250D01*
X339765Y102234D01*
X339774Y102226D01*
X339793Y102205D01*
X341125Y100872D01*
X341933Y98922D01*
X341933Y96811D01*
X341125Y94860D01*
X339632Y93367D01*
X337560Y92509D01*
X337535Y92494D01*
X337507Y92485D01*
X337397Y92416D01*
X337284Y92352D01*
X337263Y92331D01*
X337238Y92315D01*
X337149Y92221D01*
X337056Y92130D01*
X337040Y92105D01*
X337020Y92084D01*
X336957Y91970D01*
X336889Y91859D01*
X336881Y91831D01*
X336866Y91805D01*
X336834Y91680D01*
X336796Y91555D01*
X336794Y91526D01*
X336787Y91497D01*
X336777Y91337D01*
X336777Y89114D01*
X335969Y87164D01*
X335361Y86556D01*
X335288Y86462D01*
X335209Y86373D01*
X335191Y86337D01*
X335166Y86305D01*
X335119Y86196D01*
X335065Y86090D01*
X335056Y86050D01*
X335040Y86013D01*
X335021Y85895D01*
X334995Y85779D01*
X334996Y85739D01*
X334990Y85699D01*
X335001Y85580D01*
X335005Y85462D01*
X335016Y85423D01*
X335020Y85382D01*
X335060Y85270D01*
X335093Y85156D01*
X335114Y85121D01*
X335127Y85083D01*
X335194Y84985D01*
X335255Y84882D01*
X335294Y84837D01*
X335306Y84820D01*
X335321Y84806D01*
X335361Y84761D01*
X338456Y81666D01*
X338534Y81606D01*
X338606Y81538D01*
X338659Y81509D01*
X338707Y81472D01*
X338798Y81432D01*
X338885Y81384D01*
X338943Y81369D01*
X338999Y81345D01*
X339097Y81330D01*
X339193Y81305D01*
X339293Y81299D01*
X339313Y81295D01*
X339325Y81297D01*
X339353Y81295D01*
X351032Y81295D01*
X351665Y80661D01*
X351759Y80588D01*
X351848Y80510D01*
X351884Y80491D01*
X351916Y80466D01*
X352025Y80419D01*
X352132Y80365D01*
X352171Y80356D01*
X352208Y80340D01*
X352326Y80321D01*
X352442Y80295D01*
X352482Y80297D01*
X352522Y80290D01*
X352641Y80301D01*
X352760Y80305D01*
X352799Y80316D01*
X352839Y80320D01*
X352951Y80360D01*
X353065Y80393D01*
X353100Y80414D01*
X353138Y80428D01*
X353237Y80494D01*
X353339Y80555D01*
X353384Y80595D01*
X353401Y80606D01*
X353415Y80621D01*
X353460Y80661D01*
X353698Y80900D01*
X368540Y80900D01*
X368658Y80915D01*
X368777Y80922D01*
X368815Y80935D01*
X368856Y80940D01*
X368966Y80983D01*
X369079Y81020D01*
X369114Y81042D01*
X369151Y81057D01*
X369247Y81126D01*
X369348Y81190D01*
X369376Y81220D01*
X369409Y81243D01*
X369485Y81335D01*
X369566Y81422D01*
X369586Y81457D01*
X369611Y81488D01*
X369662Y81596D01*
X369720Y81700D01*
X369730Y81740D01*
X369747Y81776D01*
X369769Y81893D01*
X369799Y82008D01*
X369803Y82068D01*
X369807Y82088D01*
X369805Y82109D01*
X369809Y82169D01*
X369809Y83886D01*
X372117Y89458D01*
X376382Y93723D01*
X381954Y96031D01*
X387986Y96031D01*
X393558Y93723D01*
X397823Y89458D01*
X400131Y83886D01*
X400131Y77854D01*
X397823Y72282D01*
X393558Y68017D01*
X387986Y65709D01*
X381954Y65709D01*
X376382Y68017D01*
X373261Y71138D01*
X373152Y71223D01*
X373045Y71312D01*
X373026Y71321D01*
X373010Y71333D01*
X372882Y71388D01*
X372757Y71447D01*
X372737Y71451D01*
X372718Y71459D01*
X372580Y71481D01*
X372444Y71507D01*
X372424Y71506D01*
X372404Y71509D01*
X372265Y71496D01*
X372127Y71487D01*
X372108Y71481D01*
X372088Y71479D01*
X371956Y71432D01*
X371825Y71389D01*
X371807Y71379D01*
X371788Y71372D01*
X371673Y71294D01*
X371556Y71219D01*
X371542Y71204D01*
X371525Y71193D01*
X371433Y71089D01*
X371338Y70988D01*
X371328Y70970D01*
X371315Y70955D01*
X371251Y70831D01*
X371184Y70709D01*
X371179Y70690D01*
X371170Y70671D01*
X371140Y70536D01*
X371105Y70401D01*
X371103Y70373D01*
X371100Y70361D01*
X371101Y70341D01*
X371095Y70241D01*
X371095Y66043D01*
X369892Y64840D01*
X369810Y64735D01*
X369725Y64635D01*
X369713Y64610D01*
X369697Y64589D01*
X369644Y64467D01*
X369586Y64348D01*
X369581Y64322D01*
X369570Y64297D01*
X369549Y64166D01*
X369523Y64037D01*
X369525Y64010D01*
X369520Y63983D01*
X369533Y63851D01*
X369540Y63719D01*
X369548Y63693D01*
X369550Y63666D01*
X369595Y63542D01*
X369634Y63415D01*
X369649Y63392D01*
X369658Y63367D01*
X369732Y63258D01*
X369802Y63145D01*
X369821Y63126D01*
X369836Y63104D01*
X369936Y63016D01*
X370031Y62925D01*
X370055Y62911D01*
X370075Y62893D01*
X370193Y62833D01*
X370308Y62768D01*
X370344Y62756D01*
X370358Y62749D01*
X370379Y62744D01*
X370461Y62717D01*
X370551Y62693D01*
X371130Y62358D01*
X371603Y61885D01*
X371938Y61306D01*
X372111Y60659D01*
X372111Y56514D01*
X363220Y56514D01*
X363102Y56499D01*
X362983Y56492D01*
X362945Y56479D01*
X362905Y56474D01*
X362794Y56430D01*
X362681Y56394D01*
X362646Y56372D01*
X362609Y56357D01*
X362513Y56287D01*
X362412Y56224D01*
X362384Y56194D01*
X362352Y56170D01*
X362276Y56079D01*
X362194Y55992D01*
X362175Y55957D01*
X362149Y55925D01*
X362098Y55818D01*
X362041Y55714D01*
X362030Y55674D01*
X362013Y55638D01*
X361991Y55521D01*
X361961Y55406D01*
X361957Y55345D01*
X361953Y55325D01*
X361955Y55305D01*
X361951Y55245D01*
X361951Y53974D01*
X361949Y53974D01*
G37*
%LPD*%
%LPC*%
G36*
X142454Y529363D02*
X142454Y529363D01*
X140504Y530171D01*
X139011Y531664D01*
X138203Y533614D01*
X138203Y535139D01*
X138191Y535238D01*
X138188Y535337D01*
X138171Y535395D01*
X138163Y535455D01*
X138127Y535547D01*
X138099Y535642D01*
X138069Y535694D01*
X138046Y535751D01*
X137988Y535831D01*
X137938Y535916D01*
X137872Y535991D01*
X137860Y536008D01*
X137850Y536016D01*
X137832Y536037D01*
X132320Y541548D01*
X132265Y541591D01*
X132216Y541641D01*
X132140Y541688D01*
X132069Y541743D01*
X132005Y541771D01*
X131945Y541808D01*
X131859Y541834D01*
X131777Y541870D01*
X131708Y541881D01*
X131641Y541901D01*
X131552Y541905D01*
X131463Y541920D01*
X131393Y541913D01*
X131324Y541916D01*
X131236Y541898D01*
X131146Y541890D01*
X131080Y541866D01*
X131012Y541852D01*
X130931Y541813D01*
X130847Y541782D01*
X130789Y541743D01*
X130726Y541712D01*
X130658Y541654D01*
X130584Y541604D01*
X130538Y541551D01*
X130484Y541506D01*
X130433Y541432D01*
X130373Y541365D01*
X130342Y541303D01*
X130301Y541246D01*
X130269Y541162D01*
X130229Y541082D01*
X130213Y541014D01*
X130189Y540949D01*
X130179Y540859D01*
X130159Y540772D01*
X130161Y540702D01*
X130153Y540632D01*
X130166Y540544D01*
X130169Y540454D01*
X130188Y540387D01*
X130198Y540318D01*
X130250Y540165D01*
X131037Y538266D01*
X131037Y536154D01*
X130229Y534204D01*
X128736Y532711D01*
X126786Y531903D01*
X124674Y531903D01*
X122724Y532711D01*
X121231Y534204D01*
X120423Y536154D01*
X120423Y537679D01*
X120411Y537778D01*
X120408Y537877D01*
X120391Y537935D01*
X120383Y537995D01*
X120347Y538087D01*
X120319Y538182D01*
X120289Y538234D01*
X120266Y538291D01*
X120208Y538371D01*
X120158Y538456D01*
X120092Y538531D01*
X120080Y538548D01*
X120070Y538556D01*
X120052Y538577D01*
X102967Y555662D01*
X102889Y555722D01*
X102817Y555790D01*
X102764Y555819D01*
X102716Y555856D01*
X102625Y555896D01*
X102538Y555944D01*
X102479Y555959D01*
X102424Y555983D01*
X102326Y555998D01*
X102230Y556023D01*
X102130Y556029D01*
X102110Y556033D01*
X102097Y556031D01*
X102069Y556033D01*
X101814Y556033D01*
X99864Y556841D01*
X98371Y558334D01*
X97563Y560284D01*
X97563Y562396D01*
X98371Y564346D01*
X99864Y565839D01*
X101814Y566647D01*
X104157Y566647D01*
X104295Y566664D01*
X104434Y566677D01*
X104453Y566684D01*
X104473Y566687D01*
X104602Y566738D01*
X104733Y566785D01*
X104750Y566796D01*
X104769Y566804D01*
X104881Y566885D01*
X104996Y566963D01*
X105010Y566979D01*
X105026Y566990D01*
X105115Y567098D01*
X105207Y567202D01*
X105216Y567220D01*
X105229Y567235D01*
X105288Y567361D01*
X105351Y567485D01*
X105356Y567505D01*
X105364Y567523D01*
X105390Y567659D01*
X105421Y567795D01*
X105420Y567816D01*
X105424Y567835D01*
X105416Y567974D01*
X105411Y568113D01*
X105406Y568133D01*
X105404Y568153D01*
X105362Y568285D01*
X105323Y568419D01*
X105313Y568436D01*
X105306Y568455D01*
X105232Y568573D01*
X105161Y568693D01*
X105143Y568714D01*
X105136Y568724D01*
X105121Y568738D01*
X105055Y568813D01*
X71768Y602100D01*
X71768Y602116D01*
X71751Y602174D01*
X71743Y602234D01*
X71707Y602326D01*
X71679Y602421D01*
X71649Y602474D01*
X71626Y602530D01*
X71568Y602610D01*
X71518Y602695D01*
X71452Y602771D01*
X71440Y602787D01*
X71430Y602795D01*
X71412Y602816D01*
X56753Y617475D01*
X56714Y617505D01*
X56680Y617542D01*
X56589Y617602D01*
X56502Y617670D01*
X56456Y617689D01*
X56415Y617717D01*
X56311Y617752D01*
X56210Y617796D01*
X56161Y617804D01*
X56114Y617820D01*
X56005Y617829D01*
X55896Y617846D01*
X55846Y617841D01*
X55797Y617845D01*
X55689Y617826D01*
X55579Y617816D01*
X55532Y617799D01*
X55483Y617791D01*
X55383Y617746D01*
X55280Y617708D01*
X55239Y617680D01*
X55193Y617660D01*
X55108Y617592D01*
X55017Y617530D01*
X54984Y617493D01*
X54945Y617462D01*
X54879Y617374D01*
X54806Y617291D01*
X54784Y617247D01*
X54754Y617207D01*
X54683Y617063D01*
X54029Y615484D01*
X52536Y613991D01*
X50586Y613183D01*
X48701Y613183D01*
X48603Y613171D01*
X48504Y613168D01*
X48446Y613151D01*
X48386Y613143D01*
X48294Y613107D01*
X48199Y613079D01*
X48146Y613049D01*
X48090Y613026D01*
X48010Y612968D01*
X47925Y612918D01*
X47849Y612852D01*
X47833Y612840D01*
X47825Y612830D01*
X47804Y612812D01*
X43068Y608075D01*
X28353Y608075D01*
X28255Y608063D01*
X28156Y608060D01*
X28098Y608043D01*
X28038Y608035D01*
X27946Y607999D01*
X27851Y607971D01*
X27798Y607941D01*
X27742Y607918D01*
X27662Y607860D01*
X27577Y607810D01*
X27501Y607744D01*
X27485Y607732D01*
X27477Y607722D01*
X27456Y607704D01*
X24756Y605004D01*
X24696Y604926D01*
X24628Y604854D01*
X24599Y604801D01*
X24562Y604753D01*
X24522Y604662D01*
X24474Y604575D01*
X24459Y604517D01*
X24435Y604461D01*
X24420Y604363D01*
X24395Y604267D01*
X24389Y604167D01*
X24385Y604147D01*
X24387Y604135D01*
X24385Y604107D01*
X24385Y592233D01*
X24397Y592135D01*
X24400Y592036D01*
X24417Y591978D01*
X24425Y591918D01*
X24461Y591826D01*
X24489Y591731D01*
X24519Y591678D01*
X24542Y591622D01*
X24600Y591542D01*
X24650Y591457D01*
X24716Y591381D01*
X24728Y591365D01*
X24738Y591357D01*
X24756Y591336D01*
X27456Y588636D01*
X27534Y588576D01*
X27606Y588508D01*
X27659Y588479D01*
X27707Y588442D01*
X27798Y588402D01*
X27885Y588354D01*
X27943Y588339D01*
X27999Y588315D01*
X28097Y588300D01*
X28193Y588275D01*
X28293Y588269D01*
X28313Y588265D01*
X28325Y588267D01*
X28353Y588265D01*
X35206Y588265D01*
X35324Y588280D01*
X35443Y588287D01*
X35481Y588300D01*
X35522Y588305D01*
X35632Y588348D01*
X35745Y588385D01*
X35780Y588407D01*
X35817Y588422D01*
X35913Y588491D01*
X36014Y588555D01*
X36042Y588585D01*
X36075Y588608D01*
X36151Y588700D01*
X36232Y588787D01*
X36252Y588822D01*
X36277Y588853D01*
X36328Y588961D01*
X36386Y589065D01*
X36396Y589105D01*
X36413Y589141D01*
X36435Y589258D01*
X36465Y589373D01*
X36469Y589433D01*
X36473Y589453D01*
X36471Y589474D01*
X36475Y589534D01*
X36475Y600932D01*
X37368Y601825D01*
X64032Y601825D01*
X64925Y600932D01*
X64925Y586968D01*
X64032Y586075D01*
X47303Y586075D01*
X47205Y586063D01*
X47106Y586060D01*
X47048Y586043D01*
X46988Y586035D01*
X46896Y585999D01*
X46801Y585971D01*
X46748Y585941D01*
X46692Y585918D01*
X46612Y585860D01*
X46527Y585810D01*
X46451Y585744D01*
X46435Y585732D01*
X46427Y585722D01*
X46406Y585704D01*
X43378Y582675D01*
X25512Y582675D01*
X18795Y589392D01*
X18795Y606948D01*
X25512Y613665D01*
X40227Y613665D01*
X40325Y613677D01*
X40424Y613680D01*
X40482Y613697D01*
X40542Y613705D01*
X40634Y613741D01*
X40729Y613769D01*
X40782Y613799D01*
X40838Y613822D01*
X40918Y613880D01*
X41003Y613930D01*
X41079Y613996D01*
X41095Y614008D01*
X41103Y614018D01*
X41124Y614036D01*
X43852Y616764D01*
X43912Y616842D01*
X43980Y616914D01*
X44009Y616967D01*
X44046Y617015D01*
X44086Y617106D01*
X44134Y617193D01*
X44149Y617251D01*
X44173Y617307D01*
X44188Y617405D01*
X44213Y617501D01*
X44219Y617601D01*
X44223Y617621D01*
X44221Y617633D01*
X44223Y617661D01*
X44223Y619546D01*
X44532Y620290D01*
X44545Y620338D01*
X44566Y620383D01*
X44587Y620491D01*
X44616Y620597D01*
X44616Y620647D01*
X44626Y620696D01*
X44619Y620805D01*
X44621Y620915D01*
X44609Y620963D01*
X44606Y621013D01*
X44572Y621117D01*
X44547Y621224D01*
X44523Y621268D01*
X44508Y621315D01*
X44449Y621408D01*
X44398Y621505D01*
X44364Y621542D01*
X44338Y621584D01*
X44258Y621659D01*
X44184Y621741D01*
X44142Y621768D01*
X44106Y621802D01*
X44010Y621855D01*
X43918Y621915D01*
X43871Y621932D01*
X43828Y621956D01*
X43721Y621983D01*
X43617Y622019D01*
X43568Y622023D01*
X43520Y622035D01*
X43459Y622039D01*
X43457Y622040D01*
X43452Y622039D01*
X43359Y622045D01*
X43336Y622045D01*
X43316Y622043D01*
X43300Y622044D01*
X43237Y622033D01*
X43139Y622030D01*
X43080Y622013D01*
X43020Y622005D01*
X42928Y621969D01*
X42833Y621941D01*
X42781Y621911D01*
X42725Y621888D01*
X42645Y621830D01*
X42559Y621780D01*
X42484Y621714D01*
X42467Y621702D01*
X42460Y621692D01*
X42438Y621674D01*
X41106Y620341D01*
X39156Y619533D01*
X37044Y619533D01*
X35094Y620341D01*
X33601Y621834D01*
X32793Y623784D01*
X32793Y625896D01*
X33601Y627846D01*
X35094Y629339D01*
X37044Y630147D01*
X39156Y630147D01*
X41106Y629339D01*
X42438Y628006D01*
X42517Y627946D01*
X42589Y627878D01*
X42642Y627849D01*
X42690Y627812D01*
X42781Y627772D01*
X42867Y627724D01*
X42926Y627709D01*
X42982Y627685D01*
X43079Y627670D01*
X43175Y627645D01*
X43275Y627639D01*
X43296Y627635D01*
X43308Y627637D01*
X43336Y627635D01*
X44897Y627635D01*
X44995Y627647D01*
X45094Y627650D01*
X45152Y627667D01*
X45212Y627675D01*
X45304Y627711D01*
X45399Y627739D01*
X45452Y627769D01*
X45508Y627792D01*
X45588Y627850D01*
X45607Y627861D01*
X54272Y627861D01*
X75364Y606768D01*
X75442Y606708D01*
X75514Y606640D01*
X75567Y606611D01*
X75615Y606574D01*
X75706Y606534D01*
X75793Y606486D01*
X75851Y606471D01*
X75907Y606447D01*
X76005Y606432D01*
X76079Y606413D01*
X142143Y540348D01*
X142221Y540288D01*
X142293Y540220D01*
X142346Y540191D01*
X142394Y540154D01*
X142485Y540114D01*
X142572Y540066D01*
X142631Y540051D01*
X142686Y540027D01*
X142784Y540012D01*
X142880Y539987D01*
X142980Y539981D01*
X143000Y539977D01*
X143013Y539979D01*
X143041Y539977D01*
X144566Y539977D01*
X146516Y539169D01*
X148009Y537676D01*
X148817Y535726D01*
X148817Y533614D01*
X148009Y531664D01*
X146516Y530171D01*
X144566Y529363D01*
X142454Y529363D01*
G37*
%LPD*%
G36*
X345769Y502040D02*
X345769Y502040D01*
X345887Y502047D01*
X345926Y502059D01*
X345967Y502065D01*
X346077Y502108D01*
X346189Y502144D01*
X346244Y502174D01*
X346263Y502182D01*
X346279Y502193D01*
X346331Y502222D01*
X357295Y509165D01*
X357357Y509215D01*
X357424Y509258D01*
X357479Y509316D01*
X357479Y509317D01*
X357485Y509320D01*
X357486Y509322D01*
X357540Y509367D01*
X357587Y509431D01*
X357642Y509490D01*
X357677Y509552D01*
X357687Y509565D01*
X357692Y509575D01*
X357728Y509624D01*
X357757Y509698D01*
X357796Y509768D01*
X357811Y509828D01*
X357823Y509853D01*
X357827Y509874D01*
X357845Y509920D01*
X357855Y509999D01*
X357875Y510076D01*
X357880Y510150D01*
X357883Y510165D01*
X357882Y510181D01*
X357885Y510233D01*
X357885Y510235D01*
X357885Y510236D01*
X357885Y510237D01*
X357885Y545424D01*
X357884Y545432D01*
X357885Y545440D01*
X357864Y545590D01*
X357845Y545740D01*
X357843Y545747D01*
X357841Y545755D01*
X357784Y545895D01*
X357728Y546036D01*
X357724Y546042D01*
X357721Y546049D01*
X357631Y546170D01*
X357542Y546293D01*
X357535Y546298D01*
X357531Y546304D01*
X357412Y546413D01*
X333983Y565275D01*
X333957Y565291D01*
X333935Y565312D01*
X333822Y565374D01*
X333713Y565442D01*
X333683Y565451D01*
X333656Y565466D01*
X333532Y565498D01*
X333409Y565536D01*
X333378Y565537D01*
X333348Y565545D01*
X333187Y565555D01*
X320144Y565555D01*
X320026Y565540D01*
X319907Y565533D01*
X319869Y565520D01*
X319828Y565515D01*
X319718Y565472D01*
X319605Y565435D01*
X319570Y565413D01*
X319533Y565398D01*
X319437Y565329D01*
X319336Y565265D01*
X319308Y565235D01*
X319275Y565212D01*
X319199Y565120D01*
X319118Y565033D01*
X319098Y564998D01*
X319073Y564967D01*
X319022Y564859D01*
X318964Y564755D01*
X318954Y564715D01*
X318937Y564679D01*
X318915Y564562D01*
X318885Y564447D01*
X318881Y564387D01*
X318877Y564367D01*
X318879Y564346D01*
X318875Y564286D01*
X318875Y561368D01*
X317982Y560475D01*
X291318Y560475D01*
X290711Y561082D01*
X290602Y561167D01*
X290495Y561256D01*
X290476Y561265D01*
X290460Y561277D01*
X290333Y561332D01*
X290207Y561392D01*
X290187Y561395D01*
X290168Y561404D01*
X290030Y561425D01*
X289894Y561451D01*
X289874Y561450D01*
X289854Y561453D01*
X289715Y561440D01*
X289577Y561432D01*
X289558Y561425D01*
X289538Y561424D01*
X289406Y561376D01*
X289275Y561334D01*
X289257Y561323D01*
X289238Y561316D01*
X289123Y561238D01*
X289006Y561163D01*
X288992Y561149D01*
X288975Y561137D01*
X288883Y561033D01*
X288788Y560932D01*
X288778Y560914D01*
X288765Y560899D01*
X288702Y560775D01*
X288634Y560653D01*
X288629Y560634D01*
X288620Y560616D01*
X288590Y560480D01*
X288555Y560345D01*
X288553Y560317D01*
X288550Y560305D01*
X288551Y560285D01*
X288545Y560185D01*
X288545Y551115D01*
X288562Y550977D01*
X288575Y550839D01*
X288582Y550820D01*
X288585Y550800D01*
X288636Y550671D01*
X288683Y550540D01*
X288694Y550523D01*
X288702Y550504D01*
X288783Y550392D01*
X288861Y550276D01*
X288877Y550263D01*
X288888Y550247D01*
X288996Y550158D01*
X289100Y550066D01*
X289118Y550057D01*
X289133Y550044D01*
X289259Y549985D01*
X289383Y549921D01*
X289403Y549917D01*
X289421Y549908D01*
X289558Y549882D01*
X289693Y549852D01*
X289714Y549852D01*
X289733Y549849D01*
X289872Y549857D01*
X290011Y549861D01*
X290031Y549867D01*
X290051Y549868D01*
X290183Y549911D01*
X290317Y549950D01*
X290334Y549960D01*
X290353Y549966D01*
X290471Y550041D01*
X290591Y550111D01*
X290612Y550130D01*
X290622Y550137D01*
X290636Y550151D01*
X290711Y550218D01*
X291318Y550825D01*
X317982Y550825D01*
X318875Y549932D01*
X318875Y547014D01*
X318890Y546896D01*
X318897Y546777D01*
X318910Y546739D01*
X318915Y546698D01*
X318958Y546588D01*
X318995Y546475D01*
X319017Y546440D01*
X319032Y546403D01*
X319101Y546307D01*
X319165Y546206D01*
X319195Y546178D01*
X319218Y546145D01*
X319310Y546069D01*
X319397Y545988D01*
X319432Y545968D01*
X319463Y545943D01*
X319571Y545892D01*
X319675Y545834D01*
X319715Y545824D01*
X319751Y545807D01*
X319868Y545785D01*
X319983Y545755D01*
X320043Y545751D01*
X320063Y545747D01*
X320084Y545749D01*
X320144Y545745D01*
X337048Y545745D01*
X350775Y532018D01*
X350775Y518272D01*
X345946Y513444D01*
X344077Y511575D01*
X344009Y511486D01*
X343933Y511403D01*
X343911Y511361D01*
X343882Y511324D01*
X343838Y511221D01*
X343786Y511121D01*
X343775Y511075D01*
X343756Y511032D01*
X343738Y510921D01*
X343713Y510812D01*
X343714Y510765D01*
X343706Y510718D01*
X343717Y510606D01*
X343719Y510494D01*
X343732Y510448D01*
X343736Y510401D01*
X343774Y510295D01*
X343804Y510187D01*
X343836Y510122D01*
X343844Y510102D01*
X343854Y510087D01*
X343876Y510043D01*
X344068Y509711D01*
X344241Y509064D01*
X344241Y507999D01*
X339200Y507999D01*
X339082Y507984D01*
X338963Y507977D01*
X338925Y507965D01*
X338885Y507960D01*
X338774Y507916D01*
X338661Y507879D01*
X338627Y507857D01*
X338589Y507843D01*
X338493Y507773D01*
X338392Y507709D01*
X338364Y507679D01*
X338332Y507656D01*
X338256Y507564D01*
X338174Y507477D01*
X338155Y507442D01*
X338129Y507411D01*
X338078Y507303D01*
X338021Y507199D01*
X338011Y507160D01*
X337993Y507123D01*
X337971Y507006D01*
X337941Y506891D01*
X337937Y506831D01*
X337934Y506811D01*
X337934Y506810D01*
X337935Y506790D01*
X337931Y506730D01*
X337946Y506612D01*
X337953Y506493D01*
X337966Y506454D01*
X337971Y506414D01*
X338015Y506304D01*
X338051Y506190D01*
X338073Y506156D01*
X338088Y506119D01*
X338158Y506022D01*
X338222Y505922D01*
X338251Y505894D01*
X338275Y505861D01*
X338367Y505785D01*
X338453Y505704D01*
X338489Y505684D01*
X338520Y505658D01*
X338627Y505608D01*
X338732Y505550D01*
X338771Y505540D01*
X338807Y505523D01*
X338924Y505501D01*
X339040Y505471D01*
X339100Y505467D01*
X339120Y505463D01*
X339140Y505464D01*
X339200Y505461D01*
X344241Y505461D01*
X344241Y504396D01*
X344034Y503623D01*
X344016Y503498D01*
X343993Y503374D01*
X343995Y503341D01*
X343990Y503307D01*
X344005Y503182D01*
X344013Y503057D01*
X344023Y503025D01*
X344027Y502992D01*
X344072Y502874D01*
X344111Y502755D01*
X344129Y502726D01*
X344141Y502695D01*
X344214Y502592D01*
X344281Y502486D01*
X344305Y502463D01*
X344325Y502435D01*
X344421Y502354D01*
X344512Y502268D01*
X344542Y502252D01*
X344568Y502230D01*
X344681Y502175D01*
X344791Y502114D01*
X344824Y502106D01*
X344854Y502091D01*
X344977Y502066D01*
X345099Y502035D01*
X345148Y502032D01*
X345166Y502028D01*
X345187Y502029D01*
X345260Y502025D01*
X345652Y502025D01*
X345769Y502040D01*
G37*
%LPC*%
G36*
X91978Y502549D02*
X91978Y502549D01*
X85120Y505390D01*
X79870Y510640D01*
X77029Y517498D01*
X77029Y524922D01*
X79870Y531780D01*
X85120Y537030D01*
X91978Y539871D01*
X99402Y539871D01*
X106260Y537030D01*
X111510Y531780D01*
X114351Y524922D01*
X114351Y517498D01*
X111510Y510640D01*
X106260Y505390D01*
X99402Y502549D01*
X91978Y502549D01*
G37*
%LPD*%
%LPC*%
G36*
X250475Y625049D02*
X250475Y625049D01*
X244536Y627510D01*
X239990Y632056D01*
X237529Y637995D01*
X237529Y644425D01*
X239990Y650364D01*
X244536Y654910D01*
X250475Y657371D01*
X256905Y657371D01*
X262844Y654910D01*
X267390Y650364D01*
X269851Y644425D01*
X269851Y637995D01*
X267390Y632056D01*
X262844Y627510D01*
X256905Y625049D01*
X250475Y625049D01*
G37*
%LPD*%
%LPC*%
G36*
X268184Y296953D02*
X268184Y296953D01*
X266234Y297761D01*
X264741Y299254D01*
X263933Y301204D01*
X263933Y302729D01*
X263921Y302828D01*
X263918Y302927D01*
X263901Y302985D01*
X263893Y303045D01*
X263857Y303137D01*
X263829Y303232D01*
X263799Y303284D01*
X263776Y303341D01*
X263718Y303421D01*
X263668Y303506D01*
X263602Y303581D01*
X263590Y303598D01*
X263580Y303606D01*
X263562Y303627D01*
X263269Y303920D01*
X263191Y303980D01*
X263119Y304048D01*
X263066Y304077D01*
X263018Y304114D01*
X262927Y304154D01*
X262840Y304202D01*
X262781Y304217D01*
X262726Y304241D01*
X262628Y304256D01*
X262532Y304281D01*
X262432Y304287D01*
X262412Y304291D01*
X262399Y304289D01*
X262371Y304291D01*
X173892Y304291D01*
X173794Y304279D01*
X173695Y304276D01*
X173636Y304259D01*
X173576Y304251D01*
X173484Y304215D01*
X173389Y304187D01*
X173337Y304157D01*
X173281Y304134D01*
X173201Y304076D01*
X173115Y304026D01*
X173040Y303960D01*
X173023Y303948D01*
X173016Y303938D01*
X172994Y303920D01*
X171916Y302841D01*
X169966Y302033D01*
X167854Y302033D01*
X165904Y302841D01*
X164411Y304334D01*
X163603Y306284D01*
X163603Y308396D01*
X164411Y310346D01*
X165904Y311839D01*
X167854Y312647D01*
X169966Y312647D01*
X171916Y311839D01*
X172994Y310760D01*
X173073Y310700D01*
X173145Y310632D01*
X173198Y310603D01*
X173246Y310566D01*
X173337Y310526D01*
X173423Y310478D01*
X173482Y310463D01*
X173538Y310439D01*
X173635Y310424D01*
X173731Y310399D01*
X173831Y310393D01*
X173852Y310389D01*
X173864Y310391D01*
X173892Y310389D01*
X265423Y310389D01*
X267873Y307938D01*
X267951Y307878D01*
X268023Y307810D01*
X268076Y307781D01*
X268124Y307744D01*
X268215Y307704D01*
X268302Y307656D01*
X268361Y307641D01*
X268416Y307617D01*
X268514Y307602D01*
X268610Y307577D01*
X268710Y307571D01*
X268730Y307567D01*
X268743Y307569D01*
X268771Y307567D01*
X270296Y307567D01*
X272246Y306759D01*
X273739Y305266D01*
X274547Y303316D01*
X274547Y301204D01*
X273739Y299254D01*
X272246Y297761D01*
X270296Y296953D01*
X268184Y296953D01*
G37*
%LPD*%
%LPC*%
G36*
X381954Y109709D02*
X381954Y109709D01*
X376382Y112017D01*
X372117Y116282D01*
X369809Y121854D01*
X369809Y127886D01*
X372117Y133458D01*
X376382Y137723D01*
X381954Y140031D01*
X387986Y140031D01*
X393558Y137723D01*
X397823Y133458D01*
X400131Y127886D01*
X400131Y121854D01*
X397823Y116282D01*
X393558Y112017D01*
X387986Y109709D01*
X381954Y109709D01*
G37*
%LPD*%
G36*
X233484Y434699D02*
X233484Y434699D01*
X233623Y434703D01*
X233643Y434709D01*
X233663Y434710D01*
X233795Y434753D01*
X233929Y434792D01*
X233946Y434802D01*
X233965Y434808D01*
X234083Y434883D01*
X234203Y434953D01*
X234224Y434972D01*
X234234Y434979D01*
X234248Y434993D01*
X234324Y435060D01*
X234438Y435175D01*
X249805Y435175D01*
X249903Y435187D01*
X250002Y435190D01*
X250061Y435207D01*
X250121Y435215D01*
X250213Y435251D01*
X250308Y435279D01*
X250360Y435309D01*
X250416Y435332D01*
X250496Y435390D01*
X250582Y435440D01*
X250657Y435506D01*
X250674Y435518D01*
X250682Y435528D01*
X250703Y435547D01*
X251780Y436624D01*
X251781Y436624D01*
X253472Y438315D01*
X253490Y438339D01*
X253512Y438358D01*
X253587Y438464D01*
X253666Y438567D01*
X253678Y438594D01*
X253695Y438618D01*
X253741Y438739D01*
X253793Y438859D01*
X253797Y438888D01*
X253808Y438916D01*
X253822Y439044D01*
X253843Y439173D01*
X253840Y439202D01*
X253843Y439232D01*
X253825Y439360D01*
X253813Y439489D01*
X253803Y439517D01*
X253799Y439546D01*
X253773Y439621D01*
X253773Y439696D01*
X253756Y439834D01*
X253743Y439972D01*
X253736Y439991D01*
X253733Y440011D01*
X253682Y440141D01*
X253635Y440272D01*
X253624Y440288D01*
X253616Y440307D01*
X253535Y440420D01*
X253456Y440535D01*
X253441Y440548D01*
X253430Y440564D01*
X253323Y440653D01*
X253218Y440745D01*
X253200Y440754D01*
X253185Y440767D01*
X253059Y440827D01*
X252935Y440890D01*
X252915Y440894D01*
X252897Y440903D01*
X252761Y440929D01*
X252624Y440959D01*
X252604Y440959D01*
X252585Y440963D01*
X252446Y440954D01*
X252307Y440950D01*
X252287Y440944D01*
X252267Y440943D01*
X252135Y440900D01*
X252001Y440861D01*
X251984Y440851D01*
X251965Y440845D01*
X251847Y440770D01*
X251727Y440700D01*
X251706Y440681D01*
X251696Y440675D01*
X251682Y440660D01*
X251639Y440622D01*
X251051Y440282D01*
X250404Y440109D01*
X245109Y440109D01*
X245109Y446111D01*
X252611Y446111D01*
X252611Y444790D01*
X252628Y444652D01*
X252641Y444513D01*
X252648Y444494D01*
X252651Y444474D01*
X252702Y444345D01*
X252749Y444214D01*
X252760Y444197D01*
X252768Y444179D01*
X252849Y444066D01*
X252927Y443951D01*
X252943Y443938D01*
X252954Y443921D01*
X253062Y443832D01*
X253166Y443741D01*
X253184Y443731D01*
X253199Y443718D01*
X253325Y443659D01*
X253449Y443596D01*
X253469Y443592D01*
X253487Y443583D01*
X253624Y443557D01*
X253759Y443526D01*
X253780Y443527D01*
X253799Y443523D01*
X253938Y443532D01*
X254077Y443536D01*
X254097Y443542D01*
X254117Y443543D01*
X254249Y443586D01*
X254383Y443624D01*
X254400Y443635D01*
X254419Y443641D01*
X254537Y443715D01*
X254657Y443786D01*
X254678Y443804D01*
X254688Y443811D01*
X254702Y443826D01*
X254777Y443892D01*
X256084Y445199D01*
X256173Y445256D01*
X256286Y445320D01*
X256307Y445340D01*
X256332Y445356D01*
X256421Y445451D01*
X256514Y445541D01*
X256530Y445566D01*
X256550Y445588D01*
X256613Y445701D01*
X256681Y445812D01*
X256689Y445840D01*
X256704Y445866D01*
X256736Y445992D01*
X256774Y446116D01*
X256776Y446146D01*
X256783Y446174D01*
X256793Y446335D01*
X256793Y451076D01*
X256778Y451197D01*
X256770Y451319D01*
X256758Y451354D01*
X256753Y451391D01*
X256708Y451505D01*
X256670Y451621D01*
X256644Y451669D01*
X256636Y451687D01*
X256624Y451704D01*
X256592Y451762D01*
X254948Y454319D01*
X254874Y454408D01*
X254806Y454502D01*
X254772Y454530D01*
X254744Y454563D01*
X254650Y454631D01*
X254561Y454704D01*
X254521Y454723D01*
X254485Y454749D01*
X254377Y454791D01*
X254273Y454840D01*
X254230Y454848D01*
X254189Y454864D01*
X254074Y454878D01*
X253960Y454900D01*
X253917Y454897D01*
X253873Y454902D01*
X253758Y454887D01*
X253643Y454880D01*
X253601Y454866D01*
X253558Y454861D01*
X253450Y454817D01*
X253341Y454782D01*
X253304Y454758D01*
X253263Y454742D01*
X253170Y454674D01*
X253072Y454612D01*
X253042Y454580D01*
X253006Y454554D01*
X252933Y454465D01*
X252854Y454380D01*
X252833Y454342D01*
X252805Y454308D01*
X252756Y454203D01*
X252700Y454102D01*
X252689Y454059D01*
X252671Y454019D01*
X252650Y453906D01*
X252621Y453794D01*
X252617Y453728D01*
X252613Y453707D01*
X252614Y453687D01*
X252611Y453633D01*
X252611Y451189D01*
X245109Y451189D01*
X245109Y457191D01*
X250405Y457191D01*
X250491Y457168D01*
X250501Y457166D01*
X250511Y457162D01*
X250658Y457145D01*
X250806Y457124D01*
X250816Y457126D01*
X250827Y457124D01*
X250973Y457144D01*
X251122Y457161D01*
X251132Y457164D01*
X251142Y457166D01*
X251280Y457222D01*
X251419Y457275D01*
X251427Y457281D01*
X251437Y457284D01*
X251557Y457373D01*
X251678Y457459D01*
X251685Y457467D01*
X251693Y457473D01*
X251787Y457588D01*
X251884Y457702D01*
X251888Y457711D01*
X251895Y457719D01*
X251958Y457854D01*
X252022Y457988D01*
X252024Y457998D01*
X252029Y458007D01*
X252056Y458153D01*
X252085Y458300D01*
X252085Y458310D01*
X252087Y458320D01*
X252077Y458468D01*
X252069Y458617D01*
X252066Y458627D01*
X252065Y458637D01*
X252019Y458778D01*
X251974Y458921D01*
X251969Y458929D01*
X251966Y458939D01*
X251887Y459080D01*
X246776Y467030D01*
X246728Y467088D01*
X246687Y467152D01*
X246626Y467210D01*
X246572Y467274D01*
X246511Y467318D01*
X246456Y467370D01*
X246382Y467411D01*
X246314Y467460D01*
X246243Y467487D01*
X246177Y467524D01*
X246096Y467545D01*
X246017Y467575D01*
X245942Y467584D01*
X245869Y467603D01*
X245709Y467613D01*
X238418Y467613D01*
X238275Y467595D01*
X238133Y467581D01*
X238118Y467575D01*
X238102Y467573D01*
X237969Y467521D01*
X237834Y467471D01*
X237821Y467462D01*
X237807Y467456D01*
X237690Y467372D01*
X237572Y467291D01*
X237562Y467279D01*
X237549Y467270D01*
X237457Y467159D01*
X237363Y467051D01*
X237353Y467032D01*
X237346Y467025D01*
X237338Y467008D01*
X237282Y466912D01*
X233326Y458999D01*
X233292Y458903D01*
X233250Y458811D01*
X233240Y458754D01*
X233221Y458699D01*
X233212Y458598D01*
X233194Y458498D01*
X233198Y458440D01*
X233193Y458382D01*
X233210Y458282D01*
X233217Y458181D01*
X233236Y458126D01*
X233245Y458068D01*
X233286Y457976D01*
X233318Y457880D01*
X233350Y457831D01*
X233374Y457777D01*
X233436Y457698D01*
X233491Y457613D01*
X233534Y457573D01*
X233570Y457527D01*
X233651Y457466D01*
X233725Y457397D01*
X233777Y457370D01*
X233823Y457334D01*
X233916Y457295D01*
X234005Y457247D01*
X234062Y457233D01*
X234116Y457210D01*
X234216Y457195D01*
X234314Y457171D01*
X234372Y457171D01*
X234430Y457162D01*
X234531Y457173D01*
X234632Y457174D01*
X234717Y457191D01*
X240031Y457191D01*
X240031Y449920D01*
X240046Y449802D01*
X240053Y449683D01*
X240066Y449645D01*
X240071Y449605D01*
X240114Y449494D01*
X240151Y449381D01*
X240173Y449346D01*
X240188Y449309D01*
X240258Y449213D01*
X240321Y449112D01*
X240351Y449084D01*
X240375Y449052D01*
X240466Y448976D01*
X240553Y448894D01*
X240588Y448875D01*
X240619Y448849D01*
X240727Y448798D01*
X240831Y448741D01*
X240871Y448730D01*
X240907Y448713D01*
X241024Y448691D01*
X241139Y448661D01*
X241200Y448657D01*
X241220Y448653D01*
X241240Y448655D01*
X241300Y448651D01*
X242571Y448651D01*
X242571Y448649D01*
X241300Y448649D01*
X241182Y448634D01*
X241063Y448627D01*
X241025Y448614D01*
X240985Y448609D01*
X240874Y448565D01*
X240761Y448529D01*
X240726Y448507D01*
X240689Y448492D01*
X240593Y448422D01*
X240492Y448359D01*
X240464Y448329D01*
X240431Y448305D01*
X240356Y448214D01*
X240274Y448127D01*
X240254Y448092D01*
X240229Y448060D01*
X240178Y447953D01*
X240120Y447849D01*
X240110Y447809D01*
X240093Y447773D01*
X240071Y447656D01*
X240041Y447541D01*
X240037Y447480D01*
X240033Y447460D01*
X240035Y447440D01*
X240031Y447380D01*
X240031Y440109D01*
X234736Y440109D01*
X234089Y440282D01*
X234061Y440299D01*
X233964Y440339D01*
X233950Y440348D01*
X233938Y440351D01*
X233819Y440407D01*
X233792Y440412D01*
X233767Y440422D01*
X233636Y440442D01*
X233506Y440466D01*
X233480Y440465D01*
X233453Y440469D01*
X233321Y440455D01*
X233189Y440447D01*
X233163Y440438D01*
X233137Y440436D01*
X233012Y440389D01*
X232887Y440349D01*
X232864Y440334D01*
X232838Y440325D01*
X232730Y440249D01*
X232618Y440179D01*
X232599Y440159D01*
X232577Y440144D01*
X232491Y440043D01*
X232400Y439947D01*
X232387Y439923D01*
X232369Y439903D01*
X232310Y439784D01*
X232246Y439668D01*
X232240Y439642D01*
X232228Y439618D01*
X232200Y439489D01*
X232167Y439360D01*
X232165Y439322D01*
X232161Y439307D01*
X232162Y439285D01*
X232160Y439253D01*
X232159Y439248D01*
X232160Y439244D01*
X232157Y439200D01*
X232157Y435957D01*
X232174Y435819D01*
X232187Y435681D01*
X232194Y435662D01*
X232197Y435642D01*
X232248Y435512D01*
X232295Y435382D01*
X232306Y435365D01*
X232314Y435346D01*
X232395Y435233D01*
X232473Y435118D01*
X232489Y435105D01*
X232500Y435089D01*
X232608Y435000D01*
X232712Y434908D01*
X232730Y434899D01*
X232745Y434886D01*
X232871Y434827D01*
X232995Y434763D01*
X233015Y434759D01*
X233033Y434750D01*
X233169Y434724D01*
X233305Y434694D01*
X233326Y434694D01*
X233345Y434691D01*
X233484Y434699D01*
G37*
%LPC*%
G36*
X121017Y76707D02*
X121017Y76707D01*
X117003Y78370D01*
X113930Y81443D01*
X112267Y85457D01*
X112267Y89803D01*
X113930Y93817D01*
X117003Y96890D01*
X121017Y98553D01*
X125363Y98553D01*
X129377Y96890D01*
X132450Y93817D01*
X134113Y89803D01*
X134113Y85457D01*
X132450Y81443D01*
X129377Y78370D01*
X125363Y76707D01*
X121017Y76707D01*
G37*
%LPD*%
%LPC*%
G36*
X146417Y51307D02*
X146417Y51307D01*
X142403Y52970D01*
X139330Y56043D01*
X137667Y60057D01*
X137667Y64403D01*
X139330Y68417D01*
X142403Y71490D01*
X146417Y73153D01*
X150763Y73153D01*
X154777Y71490D01*
X157850Y68417D01*
X159513Y64403D01*
X159513Y60057D01*
X157850Y56043D01*
X154777Y52970D01*
X150763Y51307D01*
X146417Y51307D01*
G37*
%LPD*%
%LPC*%
G36*
X121017Y51307D02*
X121017Y51307D01*
X117003Y52970D01*
X113930Y56043D01*
X112267Y60057D01*
X112267Y64403D01*
X113930Y68417D01*
X117003Y71490D01*
X121017Y73153D01*
X125363Y73153D01*
X129377Y71490D01*
X132450Y68417D01*
X134113Y64403D01*
X134113Y60057D01*
X132450Y56043D01*
X129377Y52970D01*
X125363Y51307D01*
X121017Y51307D01*
G37*
%LPD*%
%LPC*%
G36*
X95617Y51307D02*
X95617Y51307D01*
X91603Y52970D01*
X88530Y56043D01*
X86867Y60057D01*
X86867Y64403D01*
X88530Y68417D01*
X91603Y71490D01*
X95617Y73153D01*
X99963Y73153D01*
X103977Y71490D01*
X107050Y68417D01*
X108713Y64403D01*
X108713Y60057D01*
X107050Y56043D01*
X103977Y52970D01*
X99963Y51307D01*
X95617Y51307D01*
G37*
%LPD*%
%LPC*%
G36*
X179518Y414635D02*
X179518Y414635D01*
X178505Y415648D01*
X178482Y415666D01*
X178463Y415689D01*
X178356Y415764D01*
X178254Y415843D01*
X178227Y415855D01*
X178203Y415872D01*
X178081Y415918D01*
X177962Y415970D01*
X177933Y415974D01*
X177906Y415985D01*
X177777Y415999D01*
X177648Y416019D01*
X177619Y416017D01*
X177589Y416020D01*
X177461Y416002D01*
X177332Y415990D01*
X177304Y415980D01*
X177275Y415975D01*
X177122Y415923D01*
X175046Y415063D01*
X172934Y415063D01*
X170984Y415871D01*
X169491Y417364D01*
X168683Y419314D01*
X168683Y421426D01*
X169491Y423376D01*
X170984Y424869D01*
X172934Y425677D01*
X174819Y425677D01*
X174917Y425689D01*
X175016Y425692D01*
X175059Y425705D01*
X177356Y425705D01*
X177474Y425720D01*
X177593Y425727D01*
X177631Y425740D01*
X177672Y425745D01*
X177782Y425788D01*
X177895Y425825D01*
X177930Y425847D01*
X177967Y425862D01*
X178063Y425931D01*
X178164Y425995D01*
X178192Y426025D01*
X178225Y426048D01*
X178301Y426140D01*
X178382Y426227D01*
X178402Y426262D01*
X178427Y426293D01*
X178478Y426401D01*
X178536Y426505D01*
X178546Y426545D01*
X178563Y426581D01*
X178585Y426698D01*
X178615Y426813D01*
X178619Y426873D01*
X178623Y426893D01*
X178621Y426914D01*
X178625Y426974D01*
X178625Y430292D01*
X179518Y431185D01*
X188782Y431185D01*
X189675Y430292D01*
X189675Y415528D01*
X188782Y414635D01*
X179518Y414635D01*
G37*
%LPD*%
%LPC*%
G36*
X21804Y181383D02*
X21804Y181383D01*
X19854Y182191D01*
X18361Y183684D01*
X17553Y185634D01*
X17553Y187746D01*
X18361Y189696D01*
X19854Y191189D01*
X21804Y191997D01*
X23916Y191997D01*
X25866Y191189D01*
X27198Y189856D01*
X27277Y189796D01*
X27349Y189728D01*
X27402Y189699D01*
X27450Y189662D01*
X27541Y189622D01*
X27627Y189574D01*
X27686Y189559D01*
X27742Y189535D01*
X27839Y189520D01*
X27935Y189495D01*
X28035Y189489D01*
X28056Y189485D01*
X28068Y189487D01*
X28096Y189485D01*
X44294Y189485D01*
X44392Y189497D01*
X44491Y189500D01*
X44550Y189517D01*
X44610Y189525D01*
X44702Y189561D01*
X44797Y189589D01*
X44849Y189619D01*
X44905Y189642D01*
X44985Y189700D01*
X45071Y189750D01*
X45146Y189816D01*
X45163Y189828D01*
X45170Y189838D01*
X45192Y189856D01*
X46524Y191189D01*
X48474Y191997D01*
X50586Y191997D01*
X52536Y191189D01*
X54029Y189696D01*
X54837Y187746D01*
X54837Y185634D01*
X54029Y183684D01*
X52536Y182191D01*
X50586Y181383D01*
X48474Y181383D01*
X46524Y182191D01*
X45192Y183524D01*
X45113Y183584D01*
X45041Y183652D01*
X44988Y183681D01*
X44940Y183718D01*
X44849Y183758D01*
X44763Y183806D01*
X44704Y183821D01*
X44648Y183845D01*
X44551Y183860D01*
X44455Y183885D01*
X44355Y183891D01*
X44334Y183895D01*
X44322Y183893D01*
X44294Y183895D01*
X28096Y183895D01*
X27998Y183883D01*
X27899Y183880D01*
X27840Y183863D01*
X27780Y183855D01*
X27688Y183819D01*
X27593Y183791D01*
X27541Y183761D01*
X27485Y183738D01*
X27405Y183680D01*
X27319Y183630D01*
X27244Y183564D01*
X27227Y183552D01*
X27220Y183542D01*
X27198Y183524D01*
X25866Y182191D01*
X23916Y181383D01*
X21804Y181383D01*
G37*
%LPD*%
%LPC*%
G36*
X144994Y208837D02*
X144994Y208837D01*
X143044Y209645D01*
X141551Y211138D01*
X140743Y213088D01*
X140743Y215200D01*
X141551Y217150D01*
X143044Y218643D01*
X144994Y219451D01*
X147106Y219451D01*
X149056Y218643D01*
X149902Y217796D01*
X149981Y217736D01*
X150053Y217668D01*
X150106Y217639D01*
X150154Y217602D01*
X150245Y217562D01*
X150331Y217514D01*
X150390Y217499D01*
X150446Y217475D01*
X150543Y217460D01*
X150639Y217435D01*
X150739Y217429D01*
X150760Y217425D01*
X150772Y217427D01*
X150800Y217425D01*
X156054Y217425D01*
X156152Y217437D01*
X156251Y217440D01*
X156310Y217457D01*
X156370Y217465D01*
X156462Y217501D01*
X156557Y217529D01*
X156609Y217559D01*
X156665Y217582D01*
X156745Y217640D01*
X156831Y217690D01*
X156906Y217756D01*
X156923Y217768D01*
X156930Y217778D01*
X156952Y217796D01*
X158284Y219129D01*
X160234Y219937D01*
X162346Y219937D01*
X164296Y219129D01*
X165789Y217636D01*
X166597Y215686D01*
X166597Y213574D01*
X165789Y211624D01*
X164296Y210131D01*
X162346Y209323D01*
X160234Y209323D01*
X158284Y210131D01*
X156952Y211464D01*
X156873Y211524D01*
X156801Y211592D01*
X156748Y211621D01*
X156700Y211658D01*
X156609Y211698D01*
X156523Y211746D01*
X156464Y211761D01*
X156408Y211785D01*
X156311Y211800D01*
X156215Y211825D01*
X156115Y211831D01*
X156094Y211835D01*
X156082Y211833D01*
X156054Y211835D01*
X151686Y211835D01*
X151657Y211832D01*
X151627Y211834D01*
X151499Y211812D01*
X151370Y211795D01*
X151343Y211785D01*
X151314Y211780D01*
X151195Y211726D01*
X151075Y211678D01*
X151051Y211661D01*
X151024Y211649D01*
X150922Y211568D01*
X150817Y211492D01*
X150798Y211469D01*
X150775Y211450D01*
X150697Y211347D01*
X150614Y211247D01*
X150602Y211220D01*
X150584Y211196D01*
X150562Y211151D01*
X149056Y209645D01*
X147106Y208837D01*
X144994Y208837D01*
G37*
%LPD*%
%LPC*%
G36*
X405129Y593089D02*
X405129Y593089D01*
X405129Y600711D01*
X423244Y600711D01*
X423891Y600538D01*
X424470Y600203D01*
X424943Y599730D01*
X425278Y599151D01*
X425451Y598504D01*
X425451Y593089D01*
X405129Y593089D01*
G37*
%LPD*%
%LPC*%
G36*
X379729Y643889D02*
X379729Y643889D01*
X379729Y649304D01*
X379902Y649951D01*
X380237Y650530D01*
X380710Y651003D01*
X381289Y651338D01*
X381936Y651511D01*
X400051Y651511D01*
X400051Y643889D01*
X379729Y643889D01*
G37*
%LPD*%
%LPC*%
G36*
X379729Y593089D02*
X379729Y593089D01*
X379729Y598504D01*
X379902Y599151D01*
X380237Y599730D01*
X380710Y600203D01*
X381289Y600538D01*
X381936Y600711D01*
X400051Y600711D01*
X400051Y593089D01*
X379729Y593089D01*
G37*
%LPD*%
%LPC*%
G36*
X405129Y580389D02*
X405129Y580389D01*
X405129Y588011D01*
X425451Y588011D01*
X425451Y582596D01*
X425278Y581949D01*
X424943Y581370D01*
X424470Y580897D01*
X423891Y580562D01*
X423244Y580389D01*
X405129Y580389D01*
G37*
%LPD*%
%LPC*%
G36*
X381936Y631189D02*
X381936Y631189D01*
X381289Y631362D01*
X380710Y631697D01*
X380237Y632170D01*
X379902Y632749D01*
X379729Y633396D01*
X379729Y638811D01*
X400051Y638811D01*
X400051Y631189D01*
X381936Y631189D01*
G37*
%LPD*%
%LPC*%
G36*
X381936Y580389D02*
X381936Y580389D01*
X381289Y580562D01*
X380710Y580897D01*
X380237Y581370D01*
X379902Y581949D01*
X379729Y582596D01*
X379729Y588011D01*
X400051Y588011D01*
X400051Y580389D01*
X381936Y580389D01*
G37*
%LPD*%
%LPC*%
G36*
X247129Y64769D02*
X247129Y64769D01*
X247129Y77268D01*
X247570Y77210D01*
X249500Y76693D01*
X251345Y75928D01*
X253075Y74929D01*
X254660Y73713D01*
X256073Y72300D01*
X257289Y70715D01*
X258288Y68985D01*
X259053Y67140D01*
X259570Y65210D01*
X259628Y64769D01*
X247129Y64769D01*
G37*
%LPD*%
%LPC*%
G36*
X229552Y64769D02*
X229552Y64769D01*
X229610Y65210D01*
X230127Y67140D01*
X230892Y68985D01*
X231891Y70715D01*
X233107Y72300D01*
X234520Y73713D01*
X236105Y74929D01*
X237835Y75928D01*
X239680Y76693D01*
X241610Y77210D01*
X242051Y77268D01*
X242051Y64769D01*
X229552Y64769D01*
G37*
%LPD*%
%LPC*%
G36*
X247129Y59691D02*
X247129Y59691D01*
X259628Y59691D01*
X259570Y59250D01*
X259053Y57320D01*
X258288Y55475D01*
X257289Y53745D01*
X256073Y52160D01*
X254660Y50747D01*
X253075Y49531D01*
X251345Y48532D01*
X249500Y47767D01*
X247570Y47250D01*
X247129Y47192D01*
X247129Y59691D01*
G37*
%LPD*%
%LPC*%
G36*
X241610Y47250D02*
X241610Y47250D01*
X239680Y47767D01*
X237835Y48532D01*
X236105Y49531D01*
X234520Y50747D01*
X233107Y52160D01*
X231891Y53745D01*
X230892Y55475D01*
X230127Y57320D01*
X229610Y59250D01*
X229552Y59691D01*
X242051Y59691D01*
X242051Y47192D01*
X241610Y47250D01*
G37*
%LPD*%
%LPC*%
G36*
X353996Y45084D02*
X353996Y45084D01*
X353349Y45257D01*
X352770Y45592D01*
X352297Y46065D01*
X351991Y46595D01*
X351927Y46679D01*
X351871Y46768D01*
X351831Y46805D01*
X351799Y46848D01*
X351716Y46914D01*
X351639Y46986D01*
X351592Y47012D01*
X351550Y47046D01*
X351453Y47088D01*
X351361Y47140D01*
X351308Y47153D01*
X351259Y47175D01*
X351155Y47193D01*
X351053Y47219D01*
X350967Y47224D01*
X350946Y47228D01*
X350930Y47227D01*
X350892Y47229D01*
X345439Y47229D01*
X345439Y53731D01*
X352941Y53731D01*
X352941Y52705D01*
X352956Y52587D01*
X352963Y52468D01*
X352976Y52430D01*
X352981Y52390D01*
X353024Y52279D01*
X353061Y52166D01*
X353083Y52131D01*
X353098Y52094D01*
X353167Y51998D01*
X353231Y51897D01*
X353261Y51869D01*
X353284Y51836D01*
X353376Y51761D01*
X353463Y51679D01*
X353498Y51659D01*
X353529Y51634D01*
X353637Y51583D01*
X353741Y51525D01*
X353781Y51515D01*
X353817Y51498D01*
X353934Y51476D01*
X354049Y51446D01*
X354109Y51442D01*
X354129Y51438D01*
X354150Y51440D01*
X354210Y51436D01*
X359411Y51436D01*
X359411Y45084D01*
X353996Y45084D01*
G37*
%LPD*%
%LPC*%
G36*
X53239Y545689D02*
X53239Y545689D01*
X53239Y552041D01*
X63734Y552041D01*
X64381Y551868D01*
X64960Y551533D01*
X65433Y551060D01*
X65768Y550481D01*
X65941Y549834D01*
X65941Y545689D01*
X53239Y545689D01*
G37*
%LPD*%
%LPC*%
G36*
X53239Y534259D02*
X53239Y534259D01*
X53239Y540611D01*
X65941Y540611D01*
X65941Y536466D01*
X65768Y535819D01*
X65433Y535240D01*
X64960Y534767D01*
X64381Y534432D01*
X63734Y534259D01*
X53239Y534259D01*
G37*
%LPD*%
%LPC*%
G36*
X145794Y75985D02*
X145794Y75985D01*
X144007Y76566D01*
X142333Y77419D01*
X140812Y78524D01*
X139484Y79852D01*
X138379Y81373D01*
X137526Y83047D01*
X136945Y84834D01*
X136905Y85091D01*
X146051Y85091D01*
X146051Y75945D01*
X145794Y75985D01*
G37*
%LPD*%
%LPC*%
G36*
X335066Y47229D02*
X335066Y47229D01*
X334419Y47402D01*
X333840Y47737D01*
X333367Y48210D01*
X333032Y48789D01*
X332859Y49436D01*
X332859Y53731D01*
X340361Y53731D01*
X340361Y47229D01*
X335066Y47229D01*
G37*
%LPD*%
%LPC*%
G36*
X364489Y45084D02*
X364489Y45084D01*
X364489Y51436D01*
X372111Y51436D01*
X372111Y47291D01*
X371938Y46644D01*
X371603Y46065D01*
X371130Y45592D01*
X370551Y45257D01*
X369904Y45084D01*
X364489Y45084D01*
G37*
%LPD*%
%LPC*%
G36*
X208399Y450189D02*
X208399Y450189D01*
X208399Y454184D01*
X208572Y454831D01*
X208907Y455410D01*
X209380Y455883D01*
X209959Y456218D01*
X210606Y456391D01*
X215901Y456391D01*
X215901Y450189D01*
X208399Y450189D01*
G37*
%LPD*%
G36*
X217778Y392346D02*
X217778Y392346D01*
X217897Y392353D01*
X217935Y392366D01*
X217976Y392371D01*
X218086Y392415D01*
X218200Y392451D01*
X218234Y392473D01*
X218271Y392488D01*
X218368Y392558D01*
X218468Y392622D01*
X218496Y392651D01*
X218529Y392675D01*
X218605Y392767D01*
X218686Y392853D01*
X218706Y392889D01*
X218732Y392920D01*
X218782Y393027D01*
X218840Y393132D01*
X218850Y393171D01*
X218867Y393207D01*
X218889Y393324D01*
X218919Y393440D01*
X218923Y393500D01*
X218927Y393520D01*
X218926Y393540D01*
X218929Y393600D01*
X218929Y397900D01*
X218929Y402200D01*
X218929Y406500D01*
X218914Y406618D01*
X218907Y406737D01*
X218895Y406775D01*
X218890Y406815D01*
X218846Y406926D01*
X218809Y407039D01*
X218787Y407073D01*
X218773Y407111D01*
X218703Y407207D01*
X218639Y407308D01*
X218609Y407336D01*
X218586Y407368D01*
X218494Y407444D01*
X218407Y407526D01*
X218372Y407545D01*
X218341Y407571D01*
X218233Y407622D01*
X218129Y407679D01*
X218090Y407689D01*
X218053Y407707D01*
X217936Y407729D01*
X217821Y407759D01*
X217761Y407763D01*
X217741Y407766D01*
X217740Y407766D01*
X217720Y407765D01*
X217660Y407769D01*
X217542Y407754D01*
X217423Y407747D01*
X217384Y407734D01*
X217344Y407729D01*
X217234Y407685D01*
X217120Y407649D01*
X217086Y407627D01*
X217049Y407612D01*
X216952Y407542D01*
X216852Y407478D01*
X216824Y407449D01*
X216791Y407425D01*
X216715Y407333D01*
X216634Y407247D01*
X216614Y407211D01*
X216588Y407180D01*
X216538Y407073D01*
X216480Y406968D01*
X216470Y406929D01*
X216453Y406893D01*
X216431Y406776D01*
X216401Y406660D01*
X216397Y406600D01*
X216393Y406580D01*
X216394Y406560D01*
X216391Y406500D01*
X216391Y402200D01*
X216391Y397900D01*
X216391Y393600D01*
X216406Y393482D01*
X216413Y393363D01*
X216425Y393325D01*
X216430Y393285D01*
X216474Y393174D01*
X216511Y393061D01*
X216533Y393027D01*
X216547Y392989D01*
X216617Y392893D01*
X216681Y392792D01*
X216711Y392764D01*
X216734Y392732D01*
X216826Y392656D01*
X216913Y392574D01*
X216948Y392555D01*
X216979Y392529D01*
X217087Y392478D01*
X217191Y392421D01*
X217230Y392411D01*
X217267Y392393D01*
X217384Y392371D01*
X217499Y392341D01*
X217559Y392337D01*
X217579Y392334D01*
X217580Y392334D01*
X217600Y392335D01*
X217660Y392331D01*
X217778Y392346D01*
G37*
%LPC*%
G36*
X186149Y450309D02*
X186149Y450309D01*
X186149Y457601D01*
X188484Y457601D01*
X189131Y457428D01*
X189710Y457093D01*
X190183Y456620D01*
X190518Y456041D01*
X190691Y455394D01*
X190691Y450309D01*
X186149Y450309D01*
G37*
%LPD*%
%LPC*%
G36*
X186149Y446311D02*
X186149Y446311D01*
X190691Y446311D01*
X190691Y441226D01*
X190518Y440579D01*
X190183Y440000D01*
X189710Y439527D01*
X189131Y439192D01*
X188484Y439019D01*
X186149Y439019D01*
X186149Y446311D01*
G37*
%LPD*%
%LPC*%
G36*
X177609Y450309D02*
X177609Y450309D01*
X177609Y455394D01*
X177782Y456041D01*
X178117Y456620D01*
X178590Y457093D01*
X179169Y457428D01*
X179816Y457601D01*
X182151Y457601D01*
X182151Y450309D01*
X177609Y450309D01*
G37*
%LPD*%
%LPC*%
G36*
X179816Y439019D02*
X179816Y439019D01*
X179169Y439192D01*
X178590Y439527D01*
X178117Y440000D01*
X177782Y440579D01*
X177609Y441226D01*
X177609Y446311D01*
X182151Y446311D01*
X182151Y439019D01*
X179816Y439019D01*
G37*
%LPD*%
%LPC*%
G36*
X244589Y62229D02*
X244589Y62229D01*
X244589Y62231D01*
X244591Y62231D01*
X244591Y62229D01*
X244589Y62229D01*
G37*
%LPD*%
%LPC*%
G36*
X402589Y590549D02*
X402589Y590549D01*
X402589Y590551D01*
X402591Y590551D01*
X402591Y590549D01*
X402589Y590549D01*
G37*
%LPD*%
D10*
X342900Y73270D03*
X342900Y56270D03*
D11*
X361950Y53975D03*
X361950Y73025D03*
D12*
X242570Y427650D03*
X242570Y448650D03*
D13*
X218440Y428650D03*
X218440Y447650D03*
D14*
X339200Y514230D03*
D15*
X339200Y506730D03*
D14*
X339200Y499230D03*
X321200Y499230D03*
D15*
X321200Y506730D03*
D14*
X321200Y514230D03*
D16*
X227330Y344170D03*
X227330Y369570D03*
X184150Y448310D03*
X184150Y422910D03*
D17*
X234560Y387850D03*
X230260Y387850D03*
X238860Y387850D03*
X243160Y387850D03*
X247460Y387850D03*
X225960Y387850D03*
X221660Y387850D03*
X217360Y387850D03*
D18*
X217660Y397900D03*
X217660Y402200D03*
X217660Y406500D03*
X217660Y393600D03*
X247160Y393600D03*
X247160Y397900D03*
X247160Y402200D03*
X247160Y406500D03*
D17*
X234560Y412250D03*
X230260Y412250D03*
X225960Y412250D03*
X221660Y412250D03*
X217360Y412250D03*
X238860Y412250D03*
X243160Y412250D03*
X247460Y412250D03*
D19*
X97790Y62230D03*
X97790Y87630D03*
X123190Y62230D03*
X123190Y87630D03*
X148590Y62230D03*
X148590Y87630D03*
D20*
X283050Y415290D03*
X263050Y424790D03*
X263050Y405790D03*
D13*
X300990Y424790D03*
X300990Y405790D03*
X191770Y368910D03*
X191770Y349910D03*
X245110Y352450D03*
X245110Y371450D03*
X209550Y349910D03*
X209550Y368910D03*
D21*
X286090Y382270D03*
X265090Y382270D03*
D22*
X285090Y364490D03*
X266090Y364490D03*
D23*
X64770Y354330D03*
X39370Y354330D03*
X90170Y354330D03*
D24*
X179590Y62230D03*
X244590Y62230D03*
D25*
X402590Y590550D03*
X402590Y641350D03*
D26*
X304650Y542950D03*
X304650Y568350D03*
X304650Y593750D03*
X50700Y543150D03*
X50700Y568550D03*
X50700Y593950D03*
D27*
X245110Y184150D03*
X245110Y133350D03*
D28*
X244590Y62230D02*
X250550Y56270D01*
X342900Y56270D01*
X345195Y53975D01*
X361950Y53975D01*
D29*
X354330Y128270D03*
D28*
X356870Y130810D01*
X356870Y163830D01*
D29*
X356870Y163830D03*
X359410Y194310D03*
D28*
X359410Y214630D01*
X356870Y217170D01*
D29*
X356870Y217170D03*
X377190Y234950D03*
D28*
X389890Y222250D02*
X389890Y219710D01*
D29*
X389890Y219710D03*
D28*
X407854Y233906D02*
X411706Y230054D01*
X411706Y224606D01*
X407854Y220754D01*
X402406Y220754D01*
X378234Y233906D02*
X377190Y234950D01*
X400910Y222250D02*
X402406Y220754D01*
X400910Y222250D02*
X389890Y222250D01*
X378234Y233906D02*
X407854Y233906D01*
D29*
X232410Y168910D03*
D28*
X273050Y168910D01*
X278130Y173990D01*
X247650Y168910D02*
X232410Y168910D01*
X247650Y168910D02*
X257810Y158750D01*
D29*
X257810Y158750D03*
X74930Y173689D03*
D28*
X31750Y173689D01*
D29*
X31750Y173689D03*
D30*
X217660Y406500D02*
X217660Y411950D01*
X217360Y412250D01*
X242570Y448650D02*
X242570Y462280D01*
D29*
X242570Y462280D03*
X219710Y463550D03*
D30*
X218440Y462280D01*
X218440Y447650D01*
D29*
X140334Y167414D03*
X186690Y163830D03*
D28*
X153034Y167414D02*
X140334Y167414D01*
X153034Y167414D02*
X153486Y167866D01*
X182654Y167866D01*
X186690Y163830D01*
X339200Y506730D02*
X344580Y506730D01*
X351995Y514145D01*
D29*
X351995Y514145D03*
X222250Y244475D03*
D31*
X224790Y241935D01*
X247650Y241935D01*
D29*
X247650Y241935D03*
D28*
X372110Y590550D02*
X402590Y590550D01*
X372110Y590550D02*
X370840Y591820D01*
D29*
X370840Y591820D03*
X26670Y560070D03*
D28*
X50700Y543150D02*
X72390Y537210D01*
D29*
X72390Y537210D03*
D28*
X176530Y422910D02*
X184150Y422910D01*
X176530Y422910D02*
X173990Y420370D01*
D29*
X173990Y420370D03*
X125730Y537210D03*
D31*
X102870Y560070D01*
X102870Y561340D01*
D29*
X102870Y561340D03*
X233680Y487680D03*
D28*
X242570Y487680D01*
X257810Y472440D01*
D29*
X257810Y472440D03*
D28*
X339200Y499230D02*
X346830Y499230D01*
X360680Y508000D01*
X360680Y547370D01*
X334620Y568350D02*
X304650Y568350D01*
X334620Y568350D02*
X360680Y547370D01*
X339200Y499230D02*
X339200Y317390D01*
X340360Y316230D01*
D29*
X340360Y316230D03*
D28*
X304650Y593750D02*
X300380Y593750D01*
X285750Y579120D01*
X285750Y519430D01*
X306070Y499110D01*
X306190Y499230D01*
X321200Y499230D01*
X321200Y329040D01*
X330200Y320040D01*
D29*
X330200Y320040D03*
D28*
X321200Y506730D02*
X311150Y506730D01*
D29*
X311150Y506730D03*
X312420Y490220D03*
D28*
X312420Y461010D01*
D29*
X312420Y461010D03*
X311150Y334010D03*
D28*
X311150Y318770D01*
X321310Y308610D01*
D29*
X321310Y308610D03*
D28*
X311150Y506730D02*
X302260Y515620D01*
X300990Y515620D01*
D29*
X300990Y515620D03*
X49530Y618490D03*
D28*
X41910Y610870D01*
X26670Y610870D01*
X21590Y605790D01*
X21590Y590550D01*
X26670Y585470D01*
X42220Y585470D02*
X50700Y593950D01*
X42220Y585470D02*
X26670Y585470D01*
D29*
X172085Y95250D03*
X156210Y161290D03*
D28*
X143510Y161290D01*
X125730Y143510D01*
X120650Y143510D01*
X107950Y130810D01*
D29*
X107950Y130810D03*
X123190Y115570D03*
D28*
X153640Y99822D02*
X158212Y95250D01*
X172085Y95250D01*
X138938Y99822D02*
X123190Y115570D01*
X138938Y99822D02*
X153640Y99822D01*
D29*
X143510Y534670D03*
D31*
X74832Y603348D01*
D29*
X38100Y624840D03*
D28*
X46580Y624840D02*
X46806Y625066D01*
X46580Y624840D02*
X38100Y624840D01*
X53114Y625066D02*
X74832Y603348D01*
X53114Y625066D02*
X46806Y625066D01*
D29*
X176530Y377190D03*
D31*
X82049Y377190D01*
X81569Y377670D01*
X75911Y377670D01*
X75431Y377190D01*
X64770Y377190D01*
D29*
X72390Y579120D03*
D31*
X66448Y560938D02*
X64663Y559152D01*
X66448Y560938D02*
X66448Y573178D01*
X72390Y579120D01*
X34952Y550763D02*
X34952Y407008D01*
X34952Y550763D02*
X43342Y559152D01*
X64663Y559152D01*
X34952Y407008D02*
X64770Y377190D01*
D28*
X304650Y542950D02*
X335890Y542950D01*
X347980Y530860D01*
X347980Y519430D01*
X342780Y514230D01*
X339200Y514230D01*
X336430Y514230D01*
X331470Y509270D01*
X331470Y336550D01*
D29*
X331470Y336550D03*
X23086Y250190D03*
D28*
X23086Y365534D01*
X22860Y365760D01*
X22860Y443230D01*
X26670Y447040D01*
D29*
X26670Y447040D03*
X300990Y174330D03*
D28*
X321310Y174330D01*
X359070Y174330D01*
X369570Y163830D01*
D29*
X369570Y163830D03*
X321310Y174330D03*
X146050Y151130D03*
D28*
X158750Y138430D01*
X194310Y138430D01*
D29*
X194310Y138430D03*
X107950Y163830D03*
D32*
X90170Y163830D01*
X85090Y158750D01*
D29*
X85090Y158750D03*
X369570Y217170D03*
D28*
X369570Y194310D01*
D29*
X369570Y194310D03*
X138430Y130810D03*
D28*
X204244Y130810D01*
X212090Y122964D01*
D29*
X212090Y122964D03*
X190500Y152400D03*
D28*
X242570Y204470D01*
X242570Y207010D01*
D29*
X242570Y207010D03*
X146050Y214144D03*
D28*
X146536Y214630D01*
X161290Y214630D01*
D29*
X161290Y214630D03*
X416306Y265430D03*
D28*
X153670Y265430D01*
X148590Y260350D01*
D29*
X148590Y260350D03*
X328930Y258854D03*
D28*
X169954Y258854D01*
X168910Y257810D01*
D29*
X168910Y257810D03*
X202455Y122964D03*
D28*
X114094Y122964D01*
X83086Y91957D01*
D29*
X83086Y91957D03*
X166370Y80010D03*
D28*
X179070Y80010D01*
X227330Y128270D01*
D29*
X227330Y128270D03*
D28*
X231140Y132080D01*
D29*
X265430Y207010D03*
D28*
X253619Y195199D01*
X225834Y166186D02*
X231140Y160880D01*
X240533Y195199D02*
X253619Y195199D01*
X225834Y180500D02*
X225834Y166186D01*
X225834Y180500D02*
X240533Y195199D01*
X231140Y160880D02*
X231140Y132080D01*
D29*
X97790Y196850D03*
D28*
X59690Y196850D01*
X16510Y240030D01*
X16510Y572770D02*
X19050Y575310D01*
D29*
X19050Y575310D03*
D28*
X16510Y572770D02*
X16510Y240030D01*
D29*
X97790Y184150D03*
D28*
X120650Y207010D01*
X120650Y275590D01*
D29*
X120650Y275590D03*
D30*
X283050Y415290D02*
X309880Y415290D01*
X316230Y421640D01*
X316230Y430530D01*
X303530Y443230D01*
D29*
X303530Y443230D03*
X231140Y212090D03*
D30*
X216126Y212090D01*
X214630Y213586D01*
D29*
X214630Y213586D03*
X79934Y151054D03*
D28*
X78514Y156026D02*
X78514Y161474D01*
X79934Y154606D02*
X79934Y151054D01*
X79934Y154606D02*
X78514Y156026D01*
X78514Y161474D02*
X91030Y173990D01*
X168910Y173990D01*
X204470Y209550D01*
X204470Y245720D01*
D29*
X204470Y245720D03*
X349250Y191770D03*
D28*
X349250Y204470D01*
X339090Y214630D01*
D29*
X339090Y214630D03*
X331470Y90170D03*
D28*
X331470Y84700D01*
X342900Y73270D01*
X361705Y73270D01*
X361950Y73025D01*
D29*
X78740Y370840D03*
D31*
X130810Y370840D01*
X175260Y326390D01*
D29*
X175260Y326390D03*
X168910Y307340D03*
D31*
X264160Y307340D01*
X269240Y302260D01*
D29*
X269240Y302260D03*
X395986Y159766D03*
X417576Y277114D03*
D28*
X423094Y272006D02*
X426946Y268154D01*
X395986Y203139D02*
X395986Y159766D01*
X422684Y272006D02*
X423094Y272006D01*
X422684Y272006D02*
X417576Y277114D01*
X426946Y234099D02*
X395986Y203139D01*
X426946Y234099D02*
X426946Y268154D01*
D29*
X336626Y97866D03*
D28*
X336626Y156286D01*
X344170Y163830D01*
D29*
X344170Y163830D03*
X227330Y82550D03*
D28*
X293370Y148590D01*
X293370Y181610D01*
X339090Y227330D01*
X405130Y227330D01*
D29*
X405130Y227330D03*
X49530Y186690D03*
D28*
X22860Y186690D01*
D29*
X22860Y186690D03*
X190500Y326390D03*
D30*
X190500Y348640D01*
X191770Y349910D01*
X209550Y349910D01*
X216510Y356870D01*
X240690Y356870D02*
X245110Y352450D01*
X240690Y356870D02*
X216510Y356870D01*
X245110Y352450D02*
X270510Y352450D01*
X285090Y364490D01*
X259460Y402200D02*
X247160Y402200D01*
X259460Y402200D02*
X263050Y405790D01*
X285090Y381270D02*
X285090Y364490D01*
X285090Y381270D02*
X286090Y382270D01*
X298450Y382270D01*
D29*
X298450Y382270D03*
X313690Y393700D03*
D30*
X301600Y405790D01*
X300990Y405790D01*
X263050Y405790D02*
X263050Y406286D01*
D33*
X275554Y404312D03*
D29*
X259080Y440690D03*
D30*
X252356Y433966D01*
X252356Y420703D01*
X247460Y415807D02*
X247460Y412250D01*
X247460Y415807D02*
X252356Y420703D01*
X238860Y412250D02*
X234560Y412250D01*
X259080Y440690D02*
X259080Y452120D01*
X247650Y469900D01*
X236220Y469900D01*
X229870Y457200D01*
X229870Y421640D01*
X234560Y416950D02*
X234560Y412250D01*
X234560Y416950D02*
X229870Y421640D01*
X263050Y405790D02*
X264528Y404312D01*
X275554Y404312D01*
X251560Y406500D02*
X247160Y406500D01*
X251560Y406500D02*
X252730Y407670D01*
X252730Y414470D01*
X263050Y424790D01*
X300990Y424790D01*
D29*
X113030Y215900D03*
D30*
X113030Y306070D01*
X124460Y317500D01*
X261620Y317500D01*
X304800Y356870D01*
X290440Y397900D02*
X247160Y397900D01*
X290440Y397900D02*
X304800Y387350D01*
X304800Y356870D01*
X217360Y387850D02*
X201160Y387850D01*
X191770Y378460D01*
X191770Y368910D01*
X227330Y369570D02*
X229210Y371450D01*
X243840Y371450D01*
X245110Y371450D01*
X243160Y372130D02*
X243160Y387850D01*
X243160Y372130D02*
X243840Y371450D01*
X238860Y382370D02*
X238860Y387850D01*
X237490Y381000D02*
X218440Y381000D01*
X209550Y372110D01*
X209550Y368910D01*
X237490Y381000D02*
X238860Y382370D01*
X247460Y387850D02*
X256540Y378770D01*
X256540Y367030D01*
X259080Y364490D01*
X266090Y364490D01*
X253760Y393600D02*
X247160Y393600D01*
X253760Y393600D02*
X265090Y382270D01*
X243160Y412250D02*
X242570Y412840D01*
X242570Y427650D01*
X230260Y416939D02*
X230260Y412250D01*
X230260Y416939D02*
X228350Y418850D01*
X228240Y418850D01*
X218440Y428650D01*
M02*
