M48
;GenerationSoftware,Autodesk,EAGLE,8.7.1*%
;CreationDate,2018-04-21T21:48:47Z*%
FMAT,2
ICI,OFF
METRIC,TZ,000.000
T6C0.350
T5C0.600
T4C0.813
T3C1.000
T2C1.016
T1C3.200
%
G90
M71
T1
X275590Y3810
X221996Y107950
X274066Y74930
X3810Y199390
X275590Y199390
X3810Y3810
X272796Y123190
T2
X114300Y63500
X139700Y63500
X165100Y63500
X190500Y63500
X12700Y38100
X38100Y38100
X63500Y38100
X88900Y38100
X114300Y38100
X139700Y38100
X165100Y38100
X190500Y38100
X12700Y12700
X38100Y12700
X63500Y12700
X88900Y12700
X114300Y12700
X139700Y12700
X165100Y12700
X190500Y12700
X7620Y190500
X7620Y165100
X7620Y139700
X7620Y114300
X7620Y88900
X7620Y63500
X7620Y38100
X7620Y12700
X274188Y61874
X274188Y59334
X274157Y55900
X274157Y53360
X274157Y50820
X274320Y67564
X274320Y70104
X139700Y165100
X12700Y190500
X190500Y114300
X12700Y88900
X38100Y88900
X63500Y88900
X88900Y88900
X114300Y88900
X139700Y88900
X165100Y88900
X190500Y88900
X12700Y63500
X38100Y63500
X63500Y63500
X88900Y63500
X139700Y114300
X38100Y190500
X63500Y190500
X88900Y190500
X114300Y190500
X139700Y190500
X165100Y190500
X190500Y190500
X12700Y165100
X38100Y165100
X63500Y165100
X88900Y165100
X114300Y165100
X274188Y64414
X165100Y165100
X190500Y165100
X12700Y139700
X38100Y139700
X63500Y139700
X88900Y139700
X114300Y139700
X139700Y139700
X165100Y139700
X190500Y139700
X12700Y114300
X38100Y114300
X63500Y114300
X88900Y114300
X114300Y114300
X165100Y114300
T3
X237236Y74930
X232156Y123190
X229616Y123190
X227076Y123190
X224536Y123190
X237236Y123190
X239776Y123190
X242316Y123190
X246380Y123190
X248920Y123190
X251460Y123190
X254000Y123190
X256540Y123190
X234696Y123190
X261620Y123190
X264160Y123190
X234696Y74930
X232156Y74930
X229616Y74930
X227076Y74930
X224536Y74930
X242316Y74930
X244856Y74930
X247396Y74930
X249936Y74930
X252476Y74930
X255016Y74930
X259080Y123190
T4
X247650Y97790
X250190Y97790
X252730Y97790
X227330Y190500
X228600Y188595
X229870Y190500
X227330Y165100
X228600Y163195
X229870Y165100
X227330Y139700
X228600Y137795
X229870Y139700
X227330Y114300
X228600Y112395
X229870Y114300
X227330Y12700
X228600Y10795
X229870Y12700
X227330Y38100
X228600Y36195
X229870Y38100
X227330Y63500
X228600Y61595
X229870Y63500
X227330Y88900
X228600Y86995
X229870Y88900
X240030Y105410
X220980Y114300
X222250Y112395
X223520Y114300
X220980Y139700
X222250Y137795
X223520Y139700
X220980Y165100
X222250Y163195
X223520Y165100
X220980Y190500
X222250Y188595
X223520Y190500
X220980Y88900
X222250Y86995
X223520Y88900
X220980Y63500
X222250Y61595
X223520Y63500
X220980Y38100
X222250Y36195
X223520Y38100
X220980Y12700
X222250Y10795
X223520Y12700
X214630Y194310
X212090Y194310
X209550Y194310
X207010Y194310
X204470Y194310
X201930Y194310
X199390Y194310
X196850Y194310
X196850Y186690
X199390Y186690
X201930Y186690
X204470Y186690
X207010Y186690
X209550Y186690
X212090Y186690
X214630Y186690
X214630Y168910
X212090Y168910
X209550Y168910
X207010Y168910
X204470Y168910
X201930Y168910
X199390Y168910
X196850Y168910
X196850Y161290
X199390Y161290
X201930Y161290
X204470Y161290
X207010Y161290
X209550Y161290
X212090Y161290
X214630Y161290
X214630Y143510
X212090Y143510
X209550Y143510
X207010Y143510
X204470Y143510
X201930Y143510
X199390Y143510
X196850Y143510
X196850Y135890
X199390Y135890
X201930Y135890
X204470Y135890
X207010Y135890
X209550Y135890
X212090Y135890
X214630Y135890
X214630Y118110
X212090Y118110
X209550Y118110
X207010Y118110
X204470Y118110
X201930Y118110
X199390Y118110
X196850Y118110
X196850Y110490
X199390Y110490
X201930Y110490
X204470Y110490
X207010Y110490
X209550Y110490
X212090Y110490
X214630Y110490
X214630Y92710
X212090Y92710
X209550Y92710
X207010Y92710
X204470Y92710
X201930Y92710
X199390Y92710
X196850Y92710
X196850Y85090
X199390Y85090
X201930Y85090
X204470Y85090
X207010Y85090
X209550Y85090
X212090Y85090
X214630Y85090
X214630Y67310
X212090Y67310
X209550Y67310
X207010Y67310
X204470Y67310
X201930Y67310
X199390Y67310
X196850Y67310
X196850Y59690
X199390Y59690
X201930Y59690
X207010Y59690
X209550Y59690
X212090Y59690
X214630Y59690
X214630Y41910
X212090Y41910
X209550Y41910
X207010Y41910
X204470Y41910
X201930Y41910
X199390Y41910
X196850Y41910
X196850Y34290
X199390Y34290
X201930Y34290
X204470Y34290
X207010Y34290
X209550Y34290
X212090Y34290
X214630Y34290
X214630Y16510
X212090Y16510
X209550Y16510
X207010Y16510
X204470Y16510
X201930Y16510
X199390Y16510
X196850Y16510
X196850Y8890
X199390Y8890
X201930Y8890
X204470Y8890
X207010Y8890
X209550Y8890
X212090Y8890
X214630Y8890
X252730Y105410
X250190Y105410
X247650Y105410
X245110Y105410
X242570Y105410
X204470Y59690
X237490Y105410
X234950Y105410
X234950Y97790
X237490Y97790
X240030Y97790
X242570Y97790
X245110Y97790
T5
X214630Y154940
X194310Y132080
X199390Y105410
X214630Y105410
X198120Y80010
X214630Y80010
X198120Y54610
X216020Y54730
X195580Y36830
X208280Y36830
X196850Y181610
X196850Y157480
X196850Y130810
X196850Y106680
X196850Y81280
X196850Y55880
X196850Y30480
X233680Y102870
X215997Y105410
X203200Y104140
X218440Y101600
X208280Y163830
X208280Y138430
X208280Y113030
X208280Y87630
X208280Y62230
X224790Y101600
X224790Y104140
X257810Y92710
X252730Y86360
X190500Y7620
X193040Y68580
X218440Y107950
X195580Y154940
T6
X240792Y50800
X244856Y59436
M30