G04 EAGLE Gerber X2 export*
%TF.Part,Single*%
%TF.FileFunction,Other,Solder stop mask CMP*%
%TF.FilePolarity,Positive*%
%TF.GenerationSoftware,Autodesk,EAGLE,9.0.1*%
%TF.CreationDate,2018-10-26T07:28:08Z*%
G75*
%MOMM*%
%FSLAX34Y34*%
%LPD*%
%AMOC8*
5,1,8,0,0,1.08239X$1,22.5*%
G01*
%ADD10C,2.743200*%
%ADD11R,1.403200X1.403200*%
%ADD12R,1.703200X1.503200*%
%ADD13R,1.503200X1.703200*%
%ADD14R,6.403200X5.603200*%
%ADD15R,1.803200X1.203200*%
%ADD16R,0.863600X2.235200*%
%ADD17R,1.653200X0.603200*%
%ADD18C,1.053200*%
%ADD19R,1.700000X2.000000*%
%ADD20R,1.700000X2.700000*%
%ADD21C,2.082800*%
%ADD22R,1.603200X1.303200*%
%ADD23R,0.965200X1.727200*%
%ADD24C,1.879600*%
%ADD25C,0.339900*%
%ADD26R,1.603200X2.103200*%
%ADD27R,2.003200X1.603200*%
%ADD28R,0.903200X1.703200*%
%ADD29C,2.387600*%
%ADD30P,2.584314X8X22.500000*%
%ADD31R,2.203200X2.603200*%
%ADD32C,1.879600*%
%ADD33C,3.505200*%
%ADD34C,0.959600*%
%ADD35C,1.409600*%
%ADD36C,1.159600*%


D10*
X111760Y86360D03*
X962660Y86360D03*
X962660Y588010D03*
X111760Y588010D03*
D11*
X486410Y484210D03*
X486410Y463210D03*
D12*
X130810Y368960D03*
X130810Y387960D03*
X511810Y280060D03*
X511810Y299060D03*
X492760Y280060D03*
X492760Y299060D03*
X534670Y281060D03*
X534670Y298060D03*
X416560Y387960D03*
X416560Y368960D03*
X365760Y387960D03*
X365760Y368960D03*
X201930Y279010D03*
X201930Y262010D03*
X822960Y450460D03*
X822960Y433460D03*
X168910Y368960D03*
X168910Y387960D03*
X232410Y344780D03*
X232410Y325780D03*
X149860Y368960D03*
X149860Y387960D03*
X107950Y369960D03*
X107950Y386960D03*
X187960Y368960D03*
X187960Y387960D03*
X110490Y445380D03*
X110490Y428380D03*
X556260Y235560D03*
X556260Y216560D03*
D13*
X857910Y238760D03*
X876910Y238760D03*
D12*
X537210Y235560D03*
X537210Y216560D03*
X581660Y234560D03*
X581660Y217560D03*
X784860Y394310D03*
X784860Y375310D03*
X734060Y394310D03*
X734060Y375310D03*
X152400Y446380D03*
X152400Y427380D03*
X207010Y368960D03*
X207010Y387960D03*
X226060Y368960D03*
X226060Y387960D03*
X133350Y446380D03*
X133350Y427380D03*
X171450Y446380D03*
X171450Y427380D03*
X194310Y445380D03*
X194310Y428380D03*
X473710Y280060D03*
X473710Y299060D03*
D14*
X150260Y137160D03*
D15*
X223260Y114360D03*
X223260Y159960D03*
D16*
X626110Y415544D03*
X626110Y354076D03*
X613410Y415544D03*
X600710Y415544D03*
X613410Y354076D03*
X600710Y354076D03*
X588010Y415544D03*
X588010Y354076D03*
X575310Y415544D03*
X575310Y354076D03*
X562610Y415544D03*
X549910Y415544D03*
X562610Y354076D03*
X549910Y354076D03*
X537210Y415544D03*
X537210Y354076D03*
D17*
X151710Y238760D03*
X151710Y245260D03*
X151710Y251760D03*
X151710Y232260D03*
X151710Y225760D03*
D18*
X146460Y257760D03*
X146460Y219760D03*
D19*
X124460Y275600D03*
X124460Y201920D03*
D20*
X124460Y238760D03*
D21*
X505460Y124460D03*
X505460Y99060D03*
X480060Y124460D03*
X480060Y99060D03*
X454660Y124460D03*
X454660Y99060D03*
X429260Y124460D03*
X429260Y99060D03*
X403860Y124460D03*
X403860Y99060D03*
X378460Y124460D03*
X378460Y99060D03*
X353060Y124460D03*
X353060Y99060D03*
X327660Y124460D03*
X327660Y99060D03*
X302260Y124460D03*
X302260Y99060D03*
X276860Y124460D03*
X276860Y99060D03*
X772160Y124460D03*
X772160Y99060D03*
X746760Y124460D03*
X746760Y99060D03*
X721360Y124460D03*
X721360Y99060D03*
X695960Y124460D03*
X695960Y99060D03*
X670560Y124460D03*
X670560Y99060D03*
X645160Y124460D03*
X645160Y99060D03*
X619760Y124460D03*
X619760Y99060D03*
X594360Y124460D03*
X594360Y99060D03*
X568960Y124460D03*
X568960Y99060D03*
X543560Y124460D03*
X543560Y99060D03*
X937260Y162560D03*
X937260Y137160D03*
X911860Y162560D03*
X911860Y137160D03*
X886460Y162560D03*
X886460Y137160D03*
X861060Y162560D03*
X861060Y137160D03*
X892810Y575310D03*
X867410Y575310D03*
X842010Y575310D03*
X816610Y575310D03*
X791210Y575310D03*
X797560Y511810D03*
X797560Y537210D03*
X822960Y511810D03*
X822960Y537210D03*
X848360Y511810D03*
X848360Y537210D03*
X892810Y511810D03*
X892810Y537210D03*
X918210Y511810D03*
X918210Y537210D03*
X943610Y511810D03*
X943610Y537210D03*
X276860Y187960D03*
X276860Y213360D03*
X276860Y238760D03*
X276860Y264160D03*
X276860Y289560D03*
X632460Y187960D03*
X632460Y213360D03*
X632460Y238760D03*
X632460Y264160D03*
X632460Y289560D03*
D11*
X245110Y101260D03*
X245110Y122260D03*
D12*
X797560Y432460D03*
X797560Y451460D03*
X429260Y419760D03*
X429260Y438760D03*
X245110Y140360D03*
X245110Y159360D03*
X454660Y280060D03*
X454660Y299060D03*
D13*
X838860Y270510D03*
X857860Y270510D03*
D22*
X486410Y528160D03*
X486410Y508160D03*
D12*
X911860Y191160D03*
X911860Y210160D03*
D23*
X734060Y429260D03*
X734060Y480060D03*
X772160Y429260D03*
X772160Y480060D03*
X365760Y416560D03*
X365760Y467360D03*
X403860Y416560D03*
X403860Y467360D03*
D24*
X161290Y314960D03*
X135890Y314960D03*
X186690Y314960D03*
D25*
X353093Y164243D02*
X354227Y164243D01*
X353093Y164243D02*
X353093Y172877D01*
X354227Y172877D01*
X354227Y164243D01*
X354227Y167641D02*
X353093Y167641D01*
X353093Y171039D02*
X354227Y171039D01*
X358093Y164243D02*
X359227Y164243D01*
X358093Y164243D02*
X358093Y172877D01*
X359227Y172877D01*
X359227Y164243D01*
X359227Y167641D02*
X358093Y167641D01*
X358093Y171039D02*
X359227Y171039D01*
X363093Y164243D02*
X364227Y164243D01*
X363093Y164243D02*
X363093Y172877D01*
X364227Y172877D01*
X364227Y164243D01*
X364227Y167641D02*
X363093Y167641D01*
X363093Y171039D02*
X364227Y171039D01*
X368093Y164243D02*
X369227Y164243D01*
X368093Y164243D02*
X368093Y172877D01*
X369227Y172877D01*
X369227Y164243D01*
X369227Y167641D02*
X368093Y167641D01*
X368093Y171039D02*
X369227Y171039D01*
X373093Y164243D02*
X374227Y164243D01*
X373093Y164243D02*
X373093Y172877D01*
X374227Y172877D01*
X374227Y164243D01*
X374227Y167641D02*
X373093Y167641D01*
X373093Y171039D02*
X374227Y171039D01*
X378093Y164243D02*
X379227Y164243D01*
X378093Y164243D02*
X378093Y172877D01*
X379227Y172877D01*
X379227Y164243D01*
X379227Y167641D02*
X378093Y167641D01*
X378093Y171039D02*
X379227Y171039D01*
X383093Y164243D02*
X384227Y164243D01*
X383093Y164243D02*
X383093Y172877D01*
X384227Y172877D01*
X384227Y164243D01*
X384227Y167641D02*
X383093Y167641D01*
X383093Y171039D02*
X384227Y171039D01*
X388093Y164243D02*
X389227Y164243D01*
X388093Y164243D02*
X388093Y172877D01*
X389227Y172877D01*
X389227Y164243D01*
X389227Y167641D02*
X388093Y167641D01*
X388093Y171039D02*
X389227Y171039D01*
X393093Y164243D02*
X394227Y164243D01*
X393093Y164243D02*
X393093Y172877D01*
X394227Y172877D01*
X394227Y164243D01*
X394227Y167641D02*
X393093Y167641D01*
X393093Y171039D02*
X394227Y171039D01*
X398093Y164243D02*
X399227Y164243D01*
X398093Y164243D02*
X398093Y172877D01*
X399227Y172877D01*
X399227Y164243D01*
X399227Y167641D02*
X398093Y167641D01*
X398093Y171039D02*
X399227Y171039D01*
X403093Y164243D02*
X404227Y164243D01*
X403093Y164243D02*
X403093Y172877D01*
X404227Y172877D01*
X404227Y164243D01*
X404227Y167641D02*
X403093Y167641D01*
X403093Y171039D02*
X404227Y171039D01*
X408093Y164243D02*
X409227Y164243D01*
X408093Y164243D02*
X408093Y172877D01*
X409227Y172877D01*
X409227Y164243D01*
X409227Y167641D02*
X408093Y167641D01*
X408093Y171039D02*
X409227Y171039D01*
X413093Y172877D02*
X413093Y164243D01*
X413093Y172877D02*
X414227Y172877D01*
X414227Y164243D01*
X413093Y164243D01*
X413093Y167641D02*
X414227Y167641D01*
X414227Y171039D02*
X413093Y171039D01*
X418093Y172877D02*
X418093Y164243D01*
X418093Y172877D02*
X419227Y172877D01*
X419227Y164243D01*
X418093Y164243D01*
X418093Y167641D02*
X419227Y167641D01*
X419227Y171039D02*
X418093Y171039D01*
X423093Y172877D02*
X423093Y164243D01*
X423093Y172877D02*
X424227Y172877D01*
X424227Y164243D01*
X423093Y164243D01*
X423093Y167641D02*
X424227Y167641D01*
X424227Y171039D02*
X423093Y171039D01*
X428093Y172877D02*
X428093Y164243D01*
X428093Y172877D02*
X429227Y172877D01*
X429227Y164243D01*
X428093Y164243D01*
X428093Y167641D02*
X429227Y167641D01*
X429227Y171039D02*
X428093Y171039D01*
X444343Y187993D02*
X452977Y187993D01*
X444343Y187993D02*
X444343Y189127D01*
X452977Y189127D01*
X452977Y187993D01*
X452977Y192993D02*
X444343Y192993D01*
X444343Y194127D01*
X452977Y194127D01*
X452977Y192993D01*
X452977Y197993D02*
X444343Y197993D01*
X444343Y199127D01*
X452977Y199127D01*
X452977Y197993D01*
X452977Y202993D02*
X444343Y202993D01*
X444343Y204127D01*
X452977Y204127D01*
X452977Y202993D01*
X452977Y207993D02*
X444343Y207993D01*
X444343Y209127D01*
X452977Y209127D01*
X452977Y207993D01*
X452977Y212993D02*
X444343Y212993D01*
X444343Y214127D01*
X452977Y214127D01*
X452977Y212993D01*
X452977Y217993D02*
X444343Y217993D01*
X444343Y219127D01*
X452977Y219127D01*
X452977Y217993D01*
X452977Y222993D02*
X444343Y222993D01*
X444343Y224127D01*
X452977Y224127D01*
X452977Y222993D01*
X444343Y227993D02*
X444343Y229127D01*
X452977Y229127D01*
X452977Y227993D01*
X444343Y227993D01*
X444343Y232993D02*
X444343Y234127D01*
X452977Y234127D01*
X452977Y232993D01*
X444343Y232993D01*
X444343Y237993D02*
X444343Y239127D01*
X452977Y239127D01*
X452977Y237993D01*
X444343Y237993D01*
X444343Y242993D02*
X444343Y244127D01*
X452977Y244127D01*
X452977Y242993D01*
X444343Y242993D01*
X444343Y247993D02*
X444343Y249127D01*
X452977Y249127D01*
X452977Y247993D01*
X444343Y247993D01*
X444343Y252993D02*
X444343Y254127D01*
X452977Y254127D01*
X452977Y252993D01*
X444343Y252993D01*
X444343Y257993D02*
X444343Y259127D01*
X452977Y259127D01*
X452977Y257993D01*
X444343Y257993D01*
X444343Y262993D02*
X444343Y264127D01*
X452977Y264127D01*
X452977Y262993D01*
X444343Y262993D01*
X429227Y279243D02*
X428093Y279243D01*
X428093Y287877D01*
X429227Y287877D01*
X429227Y279243D01*
X429227Y282641D02*
X428093Y282641D01*
X428093Y286039D02*
X429227Y286039D01*
X424227Y279243D02*
X423093Y279243D01*
X423093Y287877D01*
X424227Y287877D01*
X424227Y279243D01*
X424227Y282641D02*
X423093Y282641D01*
X423093Y286039D02*
X424227Y286039D01*
X419227Y279243D02*
X418093Y279243D01*
X418093Y287877D01*
X419227Y287877D01*
X419227Y279243D01*
X419227Y282641D02*
X418093Y282641D01*
X418093Y286039D02*
X419227Y286039D01*
X414227Y279243D02*
X413093Y279243D01*
X413093Y287877D01*
X414227Y287877D01*
X414227Y279243D01*
X414227Y282641D02*
X413093Y282641D01*
X413093Y286039D02*
X414227Y286039D01*
X408093Y287877D02*
X408093Y279243D01*
X408093Y287877D02*
X409227Y287877D01*
X409227Y279243D01*
X408093Y279243D01*
X408093Y282641D02*
X409227Y282641D01*
X409227Y286039D02*
X408093Y286039D01*
X403093Y287877D02*
X403093Y279243D01*
X403093Y287877D02*
X404227Y287877D01*
X404227Y279243D01*
X403093Y279243D01*
X403093Y282641D02*
X404227Y282641D01*
X404227Y286039D02*
X403093Y286039D01*
X398093Y287877D02*
X398093Y279243D01*
X398093Y287877D02*
X399227Y287877D01*
X399227Y279243D01*
X398093Y279243D01*
X398093Y282641D02*
X399227Y282641D01*
X399227Y286039D02*
X398093Y286039D01*
X393093Y287877D02*
X393093Y279243D01*
X393093Y287877D02*
X394227Y287877D01*
X394227Y279243D01*
X393093Y279243D01*
X393093Y282641D02*
X394227Y282641D01*
X394227Y286039D02*
X393093Y286039D01*
X388093Y287877D02*
X388093Y279243D01*
X388093Y287877D02*
X389227Y287877D01*
X389227Y279243D01*
X388093Y279243D01*
X388093Y282641D02*
X389227Y282641D01*
X389227Y286039D02*
X388093Y286039D01*
X383093Y287877D02*
X383093Y279243D01*
X383093Y287877D02*
X384227Y287877D01*
X384227Y279243D01*
X383093Y279243D01*
X383093Y282641D02*
X384227Y282641D01*
X384227Y286039D02*
X383093Y286039D01*
X378093Y287877D02*
X378093Y279243D01*
X378093Y287877D02*
X379227Y287877D01*
X379227Y279243D01*
X378093Y279243D01*
X378093Y282641D02*
X379227Y282641D01*
X379227Y286039D02*
X378093Y286039D01*
X373093Y287877D02*
X373093Y279243D01*
X373093Y287877D02*
X374227Y287877D01*
X374227Y279243D01*
X373093Y279243D01*
X373093Y282641D02*
X374227Y282641D01*
X374227Y286039D02*
X373093Y286039D01*
X368093Y287877D02*
X368093Y279243D01*
X368093Y287877D02*
X369227Y287877D01*
X369227Y279243D01*
X368093Y279243D01*
X368093Y282641D02*
X369227Y282641D01*
X369227Y286039D02*
X368093Y286039D01*
X363093Y287877D02*
X363093Y279243D01*
X363093Y287877D02*
X364227Y287877D01*
X364227Y279243D01*
X363093Y279243D01*
X363093Y282641D02*
X364227Y282641D01*
X364227Y286039D02*
X363093Y286039D01*
X358093Y287877D02*
X358093Y279243D01*
X358093Y287877D02*
X359227Y287877D01*
X359227Y279243D01*
X358093Y279243D01*
X358093Y282641D02*
X359227Y282641D01*
X359227Y286039D02*
X358093Y286039D01*
X353093Y287877D02*
X353093Y279243D01*
X353093Y287877D02*
X354227Y287877D01*
X354227Y279243D01*
X353093Y279243D01*
X353093Y282641D02*
X354227Y282641D01*
X354227Y286039D02*
X353093Y286039D01*
X337977Y264127D02*
X337977Y262993D01*
X329343Y262993D01*
X329343Y264127D01*
X337977Y264127D01*
X337977Y259127D02*
X337977Y257993D01*
X329343Y257993D01*
X329343Y259127D01*
X337977Y259127D01*
X337977Y254127D02*
X337977Y252993D01*
X329343Y252993D01*
X329343Y254127D01*
X337977Y254127D01*
X337977Y249127D02*
X337977Y247993D01*
X329343Y247993D01*
X329343Y249127D01*
X337977Y249127D01*
X337977Y242993D02*
X329343Y242993D01*
X329343Y244127D01*
X337977Y244127D01*
X337977Y242993D01*
X337977Y237993D02*
X329343Y237993D01*
X329343Y239127D01*
X337977Y239127D01*
X337977Y237993D01*
X337977Y232993D02*
X329343Y232993D01*
X329343Y234127D01*
X337977Y234127D01*
X337977Y232993D01*
X337977Y227993D02*
X329343Y227993D01*
X329343Y229127D01*
X337977Y229127D01*
X337977Y227993D01*
X337977Y222993D02*
X329343Y222993D01*
X329343Y224127D01*
X337977Y224127D01*
X337977Y222993D01*
X337977Y217993D02*
X329343Y217993D01*
X329343Y219127D01*
X337977Y219127D01*
X337977Y217993D01*
X337977Y212993D02*
X329343Y212993D01*
X329343Y214127D01*
X337977Y214127D01*
X337977Y212993D01*
X337977Y207993D02*
X329343Y207993D01*
X329343Y209127D01*
X337977Y209127D01*
X337977Y207993D01*
X337977Y202993D02*
X329343Y202993D01*
X329343Y204127D01*
X337977Y204127D01*
X337977Y202993D01*
X337977Y197993D02*
X329343Y197993D01*
X329343Y199127D01*
X337977Y199127D01*
X337977Y197993D01*
X337977Y192993D02*
X329343Y192993D01*
X329343Y194127D01*
X337977Y194127D01*
X337977Y192993D01*
X337977Y187993D02*
X329343Y187993D01*
X329343Y189127D01*
X337977Y189127D01*
X337977Y187993D01*
X721393Y170593D02*
X722527Y170593D01*
X721393Y170593D02*
X721393Y179227D01*
X722527Y179227D01*
X722527Y170593D01*
X722527Y173991D02*
X721393Y173991D01*
X721393Y177389D02*
X722527Y177389D01*
X726393Y170593D02*
X727527Y170593D01*
X726393Y170593D02*
X726393Y179227D01*
X727527Y179227D01*
X727527Y170593D01*
X727527Y173991D02*
X726393Y173991D01*
X726393Y177389D02*
X727527Y177389D01*
X731393Y170593D02*
X732527Y170593D01*
X731393Y170593D02*
X731393Y179227D01*
X732527Y179227D01*
X732527Y170593D01*
X732527Y173991D02*
X731393Y173991D01*
X731393Y177389D02*
X732527Y177389D01*
X736393Y170593D02*
X737527Y170593D01*
X736393Y170593D02*
X736393Y179227D01*
X737527Y179227D01*
X737527Y170593D01*
X737527Y173991D02*
X736393Y173991D01*
X736393Y177389D02*
X737527Y177389D01*
X741393Y170593D02*
X742527Y170593D01*
X741393Y170593D02*
X741393Y179227D01*
X742527Y179227D01*
X742527Y170593D01*
X742527Y173991D02*
X741393Y173991D01*
X741393Y177389D02*
X742527Y177389D01*
X746393Y170593D02*
X747527Y170593D01*
X746393Y170593D02*
X746393Y179227D01*
X747527Y179227D01*
X747527Y170593D01*
X747527Y173991D02*
X746393Y173991D01*
X746393Y177389D02*
X747527Y177389D01*
X751393Y170593D02*
X752527Y170593D01*
X751393Y170593D02*
X751393Y179227D01*
X752527Y179227D01*
X752527Y170593D01*
X752527Y173991D02*
X751393Y173991D01*
X751393Y177389D02*
X752527Y177389D01*
X756393Y170593D02*
X757527Y170593D01*
X756393Y170593D02*
X756393Y179227D01*
X757527Y179227D01*
X757527Y170593D01*
X757527Y173991D02*
X756393Y173991D01*
X756393Y177389D02*
X757527Y177389D01*
X761393Y170593D02*
X762527Y170593D01*
X761393Y170593D02*
X761393Y179227D01*
X762527Y179227D01*
X762527Y170593D01*
X762527Y173991D02*
X761393Y173991D01*
X761393Y177389D02*
X762527Y177389D01*
X766393Y170593D02*
X767527Y170593D01*
X766393Y170593D02*
X766393Y179227D01*
X767527Y179227D01*
X767527Y170593D01*
X767527Y173991D02*
X766393Y173991D01*
X766393Y177389D02*
X767527Y177389D01*
X771393Y170593D02*
X772527Y170593D01*
X771393Y170593D02*
X771393Y179227D01*
X772527Y179227D01*
X772527Y170593D01*
X772527Y173991D02*
X771393Y173991D01*
X771393Y177389D02*
X772527Y177389D01*
X776393Y170593D02*
X777527Y170593D01*
X776393Y170593D02*
X776393Y179227D01*
X777527Y179227D01*
X777527Y170593D01*
X777527Y173991D02*
X776393Y173991D01*
X776393Y177389D02*
X777527Y177389D01*
X781393Y179227D02*
X781393Y170593D01*
X781393Y179227D02*
X782527Y179227D01*
X782527Y170593D01*
X781393Y170593D01*
X781393Y173991D02*
X782527Y173991D01*
X782527Y177389D02*
X781393Y177389D01*
X786393Y179227D02*
X786393Y170593D01*
X786393Y179227D02*
X787527Y179227D01*
X787527Y170593D01*
X786393Y170593D01*
X786393Y173991D02*
X787527Y173991D01*
X787527Y177389D02*
X786393Y177389D01*
X791393Y179227D02*
X791393Y170593D01*
X791393Y179227D02*
X792527Y179227D01*
X792527Y170593D01*
X791393Y170593D01*
X791393Y173991D02*
X792527Y173991D01*
X792527Y177389D02*
X791393Y177389D01*
X796393Y179227D02*
X796393Y170593D01*
X796393Y179227D02*
X797527Y179227D01*
X797527Y170593D01*
X796393Y170593D01*
X796393Y173991D02*
X797527Y173991D01*
X797527Y177389D02*
X796393Y177389D01*
X812643Y194343D02*
X821277Y194343D01*
X812643Y194343D02*
X812643Y195477D01*
X821277Y195477D01*
X821277Y194343D01*
X821277Y199343D02*
X812643Y199343D01*
X812643Y200477D01*
X821277Y200477D01*
X821277Y199343D01*
X821277Y204343D02*
X812643Y204343D01*
X812643Y205477D01*
X821277Y205477D01*
X821277Y204343D01*
X821277Y209343D02*
X812643Y209343D01*
X812643Y210477D01*
X821277Y210477D01*
X821277Y209343D01*
X821277Y214343D02*
X812643Y214343D01*
X812643Y215477D01*
X821277Y215477D01*
X821277Y214343D01*
X821277Y219343D02*
X812643Y219343D01*
X812643Y220477D01*
X821277Y220477D01*
X821277Y219343D01*
X821277Y224343D02*
X812643Y224343D01*
X812643Y225477D01*
X821277Y225477D01*
X821277Y224343D01*
X821277Y229343D02*
X812643Y229343D01*
X812643Y230477D01*
X821277Y230477D01*
X821277Y229343D01*
X812643Y234343D02*
X812643Y235477D01*
X821277Y235477D01*
X821277Y234343D01*
X812643Y234343D01*
X812643Y239343D02*
X812643Y240477D01*
X821277Y240477D01*
X821277Y239343D01*
X812643Y239343D01*
X812643Y244343D02*
X812643Y245477D01*
X821277Y245477D01*
X821277Y244343D01*
X812643Y244343D01*
X812643Y249343D02*
X812643Y250477D01*
X821277Y250477D01*
X821277Y249343D01*
X812643Y249343D01*
X812643Y254343D02*
X812643Y255477D01*
X821277Y255477D01*
X821277Y254343D01*
X812643Y254343D01*
X812643Y259343D02*
X812643Y260477D01*
X821277Y260477D01*
X821277Y259343D01*
X812643Y259343D01*
X812643Y264343D02*
X812643Y265477D01*
X821277Y265477D01*
X821277Y264343D01*
X812643Y264343D01*
X812643Y269343D02*
X812643Y270477D01*
X821277Y270477D01*
X821277Y269343D01*
X812643Y269343D01*
X797527Y285593D02*
X796393Y285593D01*
X796393Y294227D01*
X797527Y294227D01*
X797527Y285593D01*
X797527Y288991D02*
X796393Y288991D01*
X796393Y292389D02*
X797527Y292389D01*
X792527Y285593D02*
X791393Y285593D01*
X791393Y294227D01*
X792527Y294227D01*
X792527Y285593D01*
X792527Y288991D02*
X791393Y288991D01*
X791393Y292389D02*
X792527Y292389D01*
X787527Y285593D02*
X786393Y285593D01*
X786393Y294227D01*
X787527Y294227D01*
X787527Y285593D01*
X787527Y288991D02*
X786393Y288991D01*
X786393Y292389D02*
X787527Y292389D01*
X782527Y285593D02*
X781393Y285593D01*
X781393Y294227D01*
X782527Y294227D01*
X782527Y285593D01*
X782527Y288991D02*
X781393Y288991D01*
X781393Y292389D02*
X782527Y292389D01*
X776393Y294227D02*
X776393Y285593D01*
X776393Y294227D02*
X777527Y294227D01*
X777527Y285593D01*
X776393Y285593D01*
X776393Y288991D02*
X777527Y288991D01*
X777527Y292389D02*
X776393Y292389D01*
X771393Y294227D02*
X771393Y285593D01*
X771393Y294227D02*
X772527Y294227D01*
X772527Y285593D01*
X771393Y285593D01*
X771393Y288991D02*
X772527Y288991D01*
X772527Y292389D02*
X771393Y292389D01*
X766393Y294227D02*
X766393Y285593D01*
X766393Y294227D02*
X767527Y294227D01*
X767527Y285593D01*
X766393Y285593D01*
X766393Y288991D02*
X767527Y288991D01*
X767527Y292389D02*
X766393Y292389D01*
X761393Y294227D02*
X761393Y285593D01*
X761393Y294227D02*
X762527Y294227D01*
X762527Y285593D01*
X761393Y285593D01*
X761393Y288991D02*
X762527Y288991D01*
X762527Y292389D02*
X761393Y292389D01*
X756393Y294227D02*
X756393Y285593D01*
X756393Y294227D02*
X757527Y294227D01*
X757527Y285593D01*
X756393Y285593D01*
X756393Y288991D02*
X757527Y288991D01*
X757527Y292389D02*
X756393Y292389D01*
X751393Y294227D02*
X751393Y285593D01*
X751393Y294227D02*
X752527Y294227D01*
X752527Y285593D01*
X751393Y285593D01*
X751393Y288991D02*
X752527Y288991D01*
X752527Y292389D02*
X751393Y292389D01*
X746393Y294227D02*
X746393Y285593D01*
X746393Y294227D02*
X747527Y294227D01*
X747527Y285593D01*
X746393Y285593D01*
X746393Y288991D02*
X747527Y288991D01*
X747527Y292389D02*
X746393Y292389D01*
X741393Y294227D02*
X741393Y285593D01*
X741393Y294227D02*
X742527Y294227D01*
X742527Y285593D01*
X741393Y285593D01*
X741393Y288991D02*
X742527Y288991D01*
X742527Y292389D02*
X741393Y292389D01*
X736393Y294227D02*
X736393Y285593D01*
X736393Y294227D02*
X737527Y294227D01*
X737527Y285593D01*
X736393Y285593D01*
X736393Y288991D02*
X737527Y288991D01*
X737527Y292389D02*
X736393Y292389D01*
X731393Y294227D02*
X731393Y285593D01*
X731393Y294227D02*
X732527Y294227D01*
X732527Y285593D01*
X731393Y285593D01*
X731393Y288991D02*
X732527Y288991D01*
X732527Y292389D02*
X731393Y292389D01*
X726393Y294227D02*
X726393Y285593D01*
X726393Y294227D02*
X727527Y294227D01*
X727527Y285593D01*
X726393Y285593D01*
X726393Y288991D02*
X727527Y288991D01*
X727527Y292389D02*
X726393Y292389D01*
X721393Y294227D02*
X721393Y285593D01*
X721393Y294227D02*
X722527Y294227D01*
X722527Y285593D01*
X721393Y285593D01*
X721393Y288991D02*
X722527Y288991D01*
X722527Y292389D02*
X721393Y292389D01*
X706277Y270477D02*
X706277Y269343D01*
X697643Y269343D01*
X697643Y270477D01*
X706277Y270477D01*
X706277Y265477D02*
X706277Y264343D01*
X697643Y264343D01*
X697643Y265477D01*
X706277Y265477D01*
X706277Y260477D02*
X706277Y259343D01*
X697643Y259343D01*
X697643Y260477D01*
X706277Y260477D01*
X706277Y255477D02*
X706277Y254343D01*
X697643Y254343D01*
X697643Y255477D01*
X706277Y255477D01*
X706277Y249343D02*
X697643Y249343D01*
X697643Y250477D01*
X706277Y250477D01*
X706277Y249343D01*
X706277Y244343D02*
X697643Y244343D01*
X697643Y245477D01*
X706277Y245477D01*
X706277Y244343D01*
X706277Y239343D02*
X697643Y239343D01*
X697643Y240477D01*
X706277Y240477D01*
X706277Y239343D01*
X706277Y234343D02*
X697643Y234343D01*
X697643Y235477D01*
X706277Y235477D01*
X706277Y234343D01*
X706277Y229343D02*
X697643Y229343D01*
X697643Y230477D01*
X706277Y230477D01*
X706277Y229343D01*
X706277Y224343D02*
X697643Y224343D01*
X697643Y225477D01*
X706277Y225477D01*
X706277Y224343D01*
X706277Y219343D02*
X697643Y219343D01*
X697643Y220477D01*
X706277Y220477D01*
X706277Y219343D01*
X706277Y214343D02*
X697643Y214343D01*
X697643Y215477D01*
X706277Y215477D01*
X706277Y214343D01*
X706277Y209343D02*
X697643Y209343D01*
X697643Y210477D01*
X706277Y210477D01*
X706277Y209343D01*
X706277Y204343D02*
X697643Y204343D01*
X697643Y205477D01*
X706277Y205477D01*
X706277Y204343D01*
X706277Y199343D02*
X697643Y199343D01*
X697643Y200477D01*
X706277Y200477D01*
X706277Y199343D01*
X706277Y194343D02*
X697643Y194343D01*
X697643Y195477D01*
X706277Y195477D01*
X706277Y194343D01*
D26*
X641160Y577360D03*
X509160Y586360D03*
D27*
X625160Y446360D03*
X565160Y446360D03*
D28*
X632160Y548360D03*
X621160Y548360D03*
X610160Y552360D03*
X599160Y548360D03*
X588160Y552360D03*
X577160Y548360D03*
X566160Y544360D03*
X555160Y548360D03*
D21*
X118110Y480060D03*
X118110Y505460D03*
X175260Y207010D03*
X200660Y207010D03*
X930910Y99060D03*
X905510Y99060D03*
X820420Y99060D03*
X845820Y99060D03*
X238760Y568960D03*
X213360Y568960D03*
X187960Y568960D03*
X162560Y568960D03*
X314960Y568960D03*
X289560Y568960D03*
D14*
X428860Y543560D03*
D15*
X355860Y566360D03*
X355860Y520760D03*
D21*
X669290Y575310D03*
X694690Y575310D03*
X720090Y575310D03*
X745490Y575310D03*
D29*
X891540Y420167D03*
D30*
X942340Y420167D03*
D31*
X414020Y327660D03*
X374020Y327660D03*
X787400Y339090D03*
X747400Y339090D03*
D32*
X262890Y329692D02*
X262890Y312928D01*
X288290Y312928D02*
X288290Y329692D01*
X313690Y329692D02*
X313690Y312928D01*
D33*
X288290Y496570D03*
D21*
X955040Y342900D03*
X955040Y317500D03*
X955040Y292100D03*
D34*
X613410Y505460D03*
X588010Y518160D03*
X492760Y422910D03*
X721360Y162786D03*
X708660Y139700D03*
X397510Y270736D03*
X416560Y270510D03*
X784860Y416560D03*
X753110Y410210D03*
X365760Y156210D03*
X403860Y156210D03*
X833120Y255270D03*
X875030Y255270D03*
X787400Y152400D03*
X817880Y129540D03*
X734118Y156144D03*
X734060Y110490D03*
X791210Y308384D03*
X764540Y346710D03*
X807720Y291902D03*
X461010Y232410D03*
X467360Y257810D03*
X410210Y228600D03*
X416108Y209748D03*
X429260Y302260D03*
X429260Y378460D03*
X651510Y238760D03*
X676910Y238760D03*
X718820Y236220D03*
X718820Y255270D03*
X738710Y275160D03*
X810260Y300990D03*
X829310Y289560D03*
X882650Y220980D03*
X313485Y154735D03*
X264160Y156210D03*
X244884Y245110D03*
X492760Y238760D03*
X473710Y245110D03*
X429260Y251460D03*
X422834Y257886D03*
X378460Y149860D03*
X898730Y216330D03*
X840740Y461010D03*
X806450Y487680D03*
X627380Y521970D03*
X607286Y384810D03*
X791210Y219710D03*
X600710Y397510D03*
X594360Y334010D03*
X775970Y495300D03*
X833120Y487680D03*
X852170Y468630D03*
X890270Y198120D03*
X632460Y372110D03*
X778510Y226286D03*
X661670Y182880D03*
X775970Y190500D03*
X753336Y156210D03*
X759912Y140970D03*
X787400Y137160D03*
X715010Y220980D03*
X733220Y244680D03*
X756080Y267540D03*
X882650Y281940D03*
X920750Y247650D03*
X840740Y190500D03*
X817880Y289560D03*
X371399Y212649D03*
X673100Y224790D03*
X375920Y220980D03*
X688340Y228334D03*
X372110Y181384D03*
X416108Y181610D03*
X365760Y200660D03*
X416108Y200660D03*
X435836Y200660D03*
X473484Y194310D03*
X695960Y169136D03*
X737870Y198120D03*
X321310Y207010D03*
X308610Y207010D03*
X766488Y194310D03*
X759912Y207010D03*
X753336Y219710D03*
X746760Y232410D03*
D35*
X394970Y590550D03*
D34*
X670130Y197280D03*
X669290Y152400D03*
X520700Y167640D03*
X589280Y274320D03*
X722630Y358140D03*
X699770Y400050D03*
X695960Y320040D03*
X688340Y476250D03*
X759460Y316230D03*
X779780Y358140D03*
X726440Y345440D03*
X805378Y310106D03*
X828040Y302260D03*
X855980Y297180D03*
D36*
X314960Y403860D03*
X347980Y480060D03*
M02*
