M48
;GenerationSoftware,Autodesk,EAGLE,9.0.1*%
;CreationDate,2018-11-29T22:46:19Z*%
FMAT,2
ICI,OFF
METRIC,TZ,000.000
T9C0.200
T8C0.300
T7C0.350
T6C0.700
T5C0.900
T4C1.000
T3C1.016
T2C3.000
T1C3.048
%
G90
M71
T1
X71120Y71628
X71628Y17272
X17272Y71628
X17272Y17272
T2
X21136Y61252
T3
X80264Y42672
X82804Y45212
X80264Y45212
X82804Y47752
X80264Y47752
X82804Y50292
X80264Y50292
X82804Y52832
X80264Y52832
X82804Y55372
X82804Y42672
X34290Y79248
X31750Y79248
X16002Y24638
X16002Y22098
X13462Y24638
X13462Y22098
X10922Y24638
X10922Y22098
X80264Y55372
X55880Y62484
X55880Y59944
X53340Y62484
X53340Y59944
X48260Y59944
X50800Y62484
X50800Y59944
X48260Y62484
X45720Y62484
X45720Y59944
X43180Y62484
X43180Y59944
X40640Y62484
X40640Y59944
X38100Y62484
X38100Y59944
X35560Y62484
X35560Y59944
X33020Y62484
X33020Y59944
X55880Y8636
X55880Y6096
X53340Y8636
X53340Y6096
X50800Y8636
X50800Y6096
X48260Y8636
X48260Y6096
X45720Y8636
X45720Y6096
X43180Y8636
X43180Y6096
X40640Y8636
X40640Y6096
X38100Y8636
X38100Y6096
X35560Y8636
X35560Y6096
X33020Y8636
X33020Y6096
X8636Y32512
X6096Y32512
X8636Y35052
X6096Y35052
X8636Y37592
X6096Y37592
X8636Y40132
X6096Y40132
X8636Y42672
X6096Y42672
X8636Y45212
X6096Y45212
X8636Y47752
X6096Y47752
X8636Y50292
X6096Y50292
X8636Y52832
X6096Y52832
X8636Y55372
X6096Y55372
X82804Y32512
X80264Y32512
X82804Y35052
X80264Y35052
X80264Y40132
X82804Y37592
X80264Y37592
X82804Y40132
T4
X41742Y82820
X46142Y82820
T5
X30491Y21907
X23991Y21907
T6
X54786Y33472
X54786Y17472
X42926Y28194
X37846Y28194
X54786Y19472
X54786Y31472
X54786Y29472
X54786Y27472
X54786Y23472
X54786Y21472
X76786Y35472
X76786Y33472
X76786Y31472
X76786Y29472
X76786Y27472
X54786Y25472
X76786Y25472
X76786Y23472
X76786Y21472
X76786Y19472
X76786Y17472
X54786Y35472
T7
X38608Y45212
X3810Y44958
X31242Y28956
X30734Y30988
X36068Y34036
X40132Y34036
X21590Y35814
X20320Y12700
X37084Y12446
X22352Y39624
X42418Y48768
X63602Y32918
X37744Y85446
X31852Y85446
X11989Y68478
X19241Y68478
X25400Y74676
X31699Y58522
X27635Y62789
X23190Y67107
X24384Y69698
X54254Y64618
X67869Y60960
X53645Y51206
X61570Y56236
X23368Y55220
X26822Y59131
X26822Y61671
X24511Y67183
X19914Y64821
X21336Y39624
X27432Y51714
X25844Y66802
X21946Y56286
X15646Y54051
X15646Y60147
X17678Y62179
X46990Y5080
X41453Y80061
X49987Y80061
X20930Y68885
X15037Y61773
X43891Y84328
X39472Y83972
X46330Y76810
X47955Y76810
X30683Y69494
X19812Y73660
X41656Y49530
X40894Y50546
X14224Y50190
X25603Y54051
X31013Y59334
X37186Y69494
X33528Y51206
X35763Y53442
X39218Y64211
X37338Y51308
X37795Y41046
X37795Y53594
X59944Y60147
X34138Y68783
X37998Y72136
X37389Y78029
X20726Y65634
X25197Y64211
X26416Y62992
X34138Y74981
X35154Y71793
X29464Y68682
X39624Y37795
X24587Y59944
X27178Y75184
X30480Y82296
X13970Y68326
X29464Y34544
T8
X35052Y57404
T9
X35116Y54419
X30734Y57404
X52324Y82804
X37338Y82804
X35052Y83058
X36068Y84836
X28003Y66485
X22669Y74105
X43434Y73660
X44958Y72136
X29336Y64202
X34036Y49386
X26416Y65786
X24638Y62962
X25654Y59690
X11938Y62484
X11747Y60706
X17272Y58166
X19558Y57975
X11747Y56070
X10160Y58166
X61468Y62484
X16510Y56134
X23876Y58674
X15748Y52832
X13716Y51054
X12192Y52578
X31242Y64516
X33782Y65024
X36322Y72644
X34036Y69850
X35306Y68834
X46482Y74168
X48768Y72390
X59690Y61468
X21590Y53086
X18796Y52324
X33274Y18796
X35814Y17526
X32512Y84836
X27178Y68199
M30