M48
;GenerationSoftware,Autodesk,EAGLE,9.0.1*%
;CreationDate,2020-01-28T05:26:38Z*%
FMAT,2
ICI,OFF
METRIC,TZ,000.000
T5C0.350
T4C0.800
T3C1.000
T2C1.016
T1C2.159
%
G90
M71
T1
X32766Y36703
X32766Y21082
X54229Y36703
X54356Y21082
T2
X64770Y44450
X44450Y59690
X41910Y59690
X39370Y59690
X72390Y44450
X69850Y44450
X67310Y44450
X46990Y44450
X62230Y44450
X59690Y44450
X57150Y44450
X54610Y44450
X52070Y44450
X49530Y44450
X72390Y59690
X44450Y44450
X41910Y44450
X39370Y54610
X39370Y46990
X39370Y44450
X39370Y49530
X39370Y52070
X39370Y57150
X59690Y46990
X62230Y46990
X64770Y46990
X69850Y46990
X62230Y59690
X46990Y59690
X49530Y59690
X52070Y59690
X54610Y59690
X57150Y59690
X59690Y59690
X64770Y59690
X67310Y59690
X69850Y59690
T3
X47498Y20066
X50038Y20066
X40005Y37846
X42545Y37846
X45085Y37846
X47625Y37846
X37338Y20066
X39878Y20066
X42418Y20066
X44958Y20066
X28956Y16764
X28956Y2794
X55118Y16764
X55118Y2794
X77343Y30607
X74803Y30607
X72263Y30607
X69723Y30607
X67183Y30607
X64643Y30607
X62103Y30607
X59563Y30607
T4
X52578Y56896
X41148Y51816
X41148Y49276
X41148Y46736
X8272Y20242
X67818Y56896
X12272Y20242
X14272Y20242
X16272Y20242
X18272Y20242
X20272Y20242
X22272Y20242
X24272Y20242
X26272Y20242
X26272Y42242
X24272Y42242
X22272Y42242
X20272Y42242
X18272Y42242
X16272Y42242
X14272Y42242
X12272Y42242
X10272Y42242
X8272Y42242
X42418Y41656
X44958Y41656
X47498Y41656
X50038Y41656
X52578Y41656
X55118Y41656
X57658Y41656
X60198Y41656
X62738Y41656
X65278Y41656
X67818Y41656
X70358Y41656
X42418Y56896
X44958Y56896
X10272Y20242
X47498Y56896
X62738Y56896
X65278Y56896
X70358Y56896
X77978Y56896
X77978Y41656
X75438Y41656
X72898Y41656
X75438Y56896
X72898Y56896
X50038Y56896
X43688Y51816
X43688Y49276
X43688Y46736
X60198Y56896
X57658Y56896
X55118Y56896
T5
X54367Y47995
X57912Y46482
X58674Y54864
X69596Y27940
X65278Y27686
X43942Y30734
X37338Y35306
X66040Y28702
X43942Y32512
X45466Y35306
X56896Y50038
X56388Y54610
X50038Y38100
X56642Y48768
X55107Y50811
X46482Y52832
X69342Y34544
M30