G04 EAGLE Gerber X2 export*
%TF.Part,Single*%
%TF.FileFunction,Other,Component side*%
%TF.FilePolarity,Positive*%
%TF.GenerationSoftware,Autodesk,EAGLE,9.0.1*%
%TF.CreationDate,2020-01-28T05:26:16Z*%
G75*
%MOMM*%
%FSLAX34Y34*%
%LPD*%
%AMOC8*
5,1,8,0,0,1.08239X$1,22.5*%
G01*
%ADD10C,1.308000*%
%ADD11C,1.308000*%
%ADD12C,3.810000*%
%ADD13C,1.930400*%
%ADD14C,1.879600*%
%ADD15R,1.508000X1.508000*%
%ADD16R,4.600000X1.000000*%
%ADD17R,3.400000X1.600000*%
%ADD18C,0.406400*%
%ADD19C,0.756400*%
%ADD20C,0.254000*%
%ADD21C,0.812800*%

G36*
X277466Y19815D02*
X277466Y19815D01*
X277484Y19813D01*
X277666Y19834D01*
X277849Y19853D01*
X277866Y19858D01*
X277883Y19860D01*
X278058Y19917D01*
X278234Y19971D01*
X278249Y19979D01*
X278266Y19985D01*
X278426Y20075D01*
X278588Y20163D01*
X278601Y20174D01*
X278617Y20183D01*
X278756Y20303D01*
X278897Y20420D01*
X278908Y20434D01*
X278922Y20446D01*
X279034Y20591D01*
X279149Y20734D01*
X279157Y20750D01*
X279168Y20764D01*
X279250Y20929D01*
X279335Y21091D01*
X279340Y21108D01*
X279348Y21124D01*
X279395Y21303D01*
X279446Y21478D01*
X279448Y21496D01*
X279452Y21513D01*
X279479Y21844D01*
X279479Y25441D01*
X289092Y25441D01*
X289110Y25442D01*
X289127Y25441D01*
X289310Y25462D01*
X289492Y25481D01*
X289509Y25486D01*
X289527Y25488D01*
X289568Y25501D01*
X289662Y25474D01*
X289680Y25472D01*
X289697Y25468D01*
X290028Y25441D01*
X299641Y25441D01*
X299641Y21844D01*
X299643Y21826D01*
X299641Y21808D01*
X299662Y21626D01*
X299681Y21443D01*
X299686Y21426D01*
X299688Y21409D01*
X299745Y21234D01*
X299799Y21058D01*
X299807Y21043D01*
X299813Y21026D01*
X299903Y20866D01*
X299991Y20704D01*
X300002Y20691D01*
X300011Y20675D01*
X300131Y20536D01*
X300248Y20395D01*
X300262Y20384D01*
X300274Y20370D01*
X300419Y20258D01*
X300562Y20143D01*
X300578Y20135D01*
X300592Y20124D01*
X300757Y20042D01*
X300919Y19957D01*
X300936Y19952D01*
X300952Y19944D01*
X301131Y19897D01*
X301306Y19846D01*
X301324Y19844D01*
X301341Y19840D01*
X301672Y19813D01*
X539068Y19813D01*
X539086Y19815D01*
X539104Y19813D01*
X539286Y19834D01*
X539469Y19853D01*
X539486Y19858D01*
X539503Y19860D01*
X539678Y19917D01*
X539854Y19971D01*
X539869Y19979D01*
X539886Y19985D01*
X540046Y20075D01*
X540208Y20163D01*
X540221Y20174D01*
X540237Y20183D01*
X540376Y20303D01*
X540517Y20420D01*
X540528Y20434D01*
X540542Y20446D01*
X540654Y20591D01*
X540769Y20734D01*
X540777Y20750D01*
X540788Y20764D01*
X540870Y20929D01*
X540955Y21091D01*
X540960Y21108D01*
X540968Y21124D01*
X541015Y21303D01*
X541066Y21478D01*
X541068Y21496D01*
X541072Y21513D01*
X541099Y21844D01*
X541099Y25441D01*
X550712Y25441D01*
X550730Y25442D01*
X550747Y25441D01*
X550930Y25462D01*
X551112Y25481D01*
X551129Y25486D01*
X551147Y25488D01*
X551188Y25501D01*
X551282Y25474D01*
X551300Y25472D01*
X551317Y25468D01*
X551648Y25441D01*
X561261Y25441D01*
X561261Y21844D01*
X561263Y21826D01*
X561261Y21808D01*
X561282Y21626D01*
X561301Y21443D01*
X561306Y21426D01*
X561308Y21409D01*
X561365Y21234D01*
X561419Y21058D01*
X561427Y21043D01*
X561433Y21026D01*
X561523Y20866D01*
X561611Y20704D01*
X561622Y20691D01*
X561631Y20675D01*
X561751Y20536D01*
X561868Y20395D01*
X561882Y20384D01*
X561894Y20370D01*
X562039Y20258D01*
X562182Y20143D01*
X562198Y20135D01*
X562212Y20124D01*
X562377Y20042D01*
X562539Y19957D01*
X562556Y19952D01*
X562572Y19944D01*
X562751Y19897D01*
X562926Y19846D01*
X562944Y19844D01*
X562961Y19840D01*
X563292Y19813D01*
X785876Y19813D01*
X785894Y19815D01*
X785912Y19813D01*
X786094Y19834D01*
X786277Y19853D01*
X786294Y19858D01*
X786311Y19860D01*
X786486Y19917D01*
X786662Y19971D01*
X786677Y19979D01*
X786694Y19985D01*
X786854Y20075D01*
X787016Y20163D01*
X787029Y20174D01*
X787045Y20183D01*
X787184Y20303D01*
X787325Y20420D01*
X787336Y20434D01*
X787350Y20446D01*
X787462Y20591D01*
X787577Y20734D01*
X787585Y20750D01*
X787596Y20764D01*
X787678Y20929D01*
X787763Y21091D01*
X787768Y21108D01*
X787776Y21124D01*
X787823Y21303D01*
X787874Y21478D01*
X787876Y21496D01*
X787880Y21513D01*
X787907Y21844D01*
X787907Y301603D01*
X787907Y301608D01*
X787907Y301612D01*
X787887Y301806D01*
X787867Y302004D01*
X787866Y302008D01*
X787866Y302013D01*
X787808Y302196D01*
X787749Y302389D01*
X787747Y302393D01*
X787746Y302397D01*
X787650Y302572D01*
X787557Y302743D01*
X787555Y302746D01*
X787552Y302750D01*
X787424Y302903D01*
X787300Y303052D01*
X787296Y303055D01*
X787293Y303058D01*
X787137Y303183D01*
X786986Y303304D01*
X786982Y303306D01*
X786979Y303309D01*
X786798Y303402D01*
X786629Y303490D01*
X786624Y303491D01*
X786620Y303493D01*
X786430Y303547D01*
X786242Y303601D01*
X786237Y303602D01*
X786233Y303603D01*
X786041Y303618D01*
X785840Y303634D01*
X785836Y303634D01*
X785832Y303634D01*
X785638Y303610D01*
X785441Y303587D01*
X785436Y303586D01*
X785432Y303585D01*
X785247Y303524D01*
X785058Y303462D01*
X785054Y303460D01*
X785050Y303459D01*
X784881Y303362D01*
X784707Y303265D01*
X784704Y303262D01*
X784700Y303259D01*
X784551Y303130D01*
X784403Y303001D01*
X784400Y302998D01*
X784396Y302995D01*
X784276Y302838D01*
X784156Y302683D01*
X784154Y302679D01*
X784151Y302676D01*
X783999Y302381D01*
X782905Y299739D01*
X779761Y296595D01*
X778095Y295905D01*
X775653Y294893D01*
X771207Y294893D01*
X767099Y296595D01*
X763955Y299739D01*
X762607Y302994D01*
X762602Y303002D01*
X762600Y303010D01*
X762508Y303178D01*
X762416Y303349D01*
X762411Y303356D01*
X762406Y303363D01*
X762283Y303510D01*
X762160Y303659D01*
X762153Y303665D01*
X762147Y303671D01*
X761997Y303791D01*
X761847Y303913D01*
X761839Y303917D01*
X761833Y303922D01*
X761662Y304010D01*
X761491Y304100D01*
X761482Y304102D01*
X761474Y304106D01*
X761291Y304158D01*
X761105Y304213D01*
X761095Y304214D01*
X761087Y304216D01*
X760896Y304231D01*
X760703Y304247D01*
X760694Y304246D01*
X760686Y304247D01*
X760496Y304224D01*
X760303Y304202D01*
X760295Y304200D01*
X760286Y304199D01*
X760106Y304139D01*
X759920Y304079D01*
X759912Y304075D01*
X759904Y304072D01*
X759738Y303977D01*
X759569Y303883D01*
X759562Y303877D01*
X759554Y303873D01*
X759409Y303746D01*
X759263Y303621D01*
X759257Y303614D01*
X759250Y303608D01*
X759133Y303456D01*
X759014Y303304D01*
X759010Y303296D01*
X759005Y303289D01*
X758853Y302994D01*
X757505Y299739D01*
X754361Y296595D01*
X752695Y295905D01*
X750253Y294893D01*
X745807Y294893D01*
X741699Y296595D01*
X738555Y299739D01*
X737207Y302994D01*
X737202Y303002D01*
X737200Y303010D01*
X737108Y303178D01*
X737016Y303349D01*
X737011Y303356D01*
X737006Y303363D01*
X736883Y303510D01*
X736760Y303659D01*
X736753Y303665D01*
X736747Y303671D01*
X736597Y303791D01*
X736447Y303913D01*
X736439Y303917D01*
X736433Y303922D01*
X736262Y304010D01*
X736091Y304100D01*
X736082Y304102D01*
X736074Y304106D01*
X735891Y304158D01*
X735705Y304213D01*
X735695Y304214D01*
X735687Y304216D01*
X735496Y304231D01*
X735303Y304247D01*
X735294Y304246D01*
X735286Y304247D01*
X735096Y304224D01*
X734903Y304202D01*
X734895Y304200D01*
X734886Y304199D01*
X734706Y304139D01*
X734520Y304079D01*
X734512Y304075D01*
X734504Y304072D01*
X734338Y303977D01*
X734169Y303883D01*
X734162Y303877D01*
X734154Y303873D01*
X734009Y303746D01*
X733863Y303621D01*
X733857Y303614D01*
X733850Y303608D01*
X733733Y303456D01*
X733614Y303304D01*
X733610Y303296D01*
X733605Y303289D01*
X733453Y302994D01*
X732105Y299739D01*
X728961Y296595D01*
X727295Y295905D01*
X724853Y294893D01*
X720407Y294893D01*
X716299Y296595D01*
X713155Y299739D01*
X711807Y302994D01*
X711802Y303002D01*
X711800Y303010D01*
X711708Y303178D01*
X711616Y303349D01*
X711611Y303356D01*
X711606Y303363D01*
X711483Y303510D01*
X711360Y303659D01*
X711353Y303665D01*
X711347Y303671D01*
X711197Y303791D01*
X711047Y303913D01*
X711039Y303917D01*
X711033Y303922D01*
X710862Y304010D01*
X710691Y304100D01*
X710682Y304102D01*
X710674Y304106D01*
X710491Y304158D01*
X710305Y304213D01*
X710295Y304214D01*
X710287Y304216D01*
X710096Y304231D01*
X709903Y304247D01*
X709894Y304246D01*
X709886Y304247D01*
X709696Y304224D01*
X709503Y304202D01*
X709495Y304200D01*
X709486Y304199D01*
X709306Y304139D01*
X709120Y304079D01*
X709112Y304075D01*
X709104Y304072D01*
X708938Y303977D01*
X708769Y303883D01*
X708762Y303877D01*
X708754Y303873D01*
X708609Y303746D01*
X708463Y303621D01*
X708457Y303614D01*
X708450Y303608D01*
X708333Y303456D01*
X708214Y303304D01*
X708210Y303296D01*
X708205Y303289D01*
X708053Y302994D01*
X706705Y299739D01*
X703561Y296595D01*
X701279Y295649D01*
X701259Y295639D01*
X701238Y295632D01*
X701082Y295544D01*
X700924Y295459D01*
X700907Y295445D01*
X700887Y295434D01*
X700752Y295317D01*
X700613Y295203D01*
X700599Y295185D01*
X700582Y295171D01*
X700473Y295029D01*
X700360Y294890D01*
X700349Y294870D01*
X700336Y294853D01*
X700256Y294692D01*
X700173Y294534D01*
X700166Y294512D01*
X700156Y294492D01*
X700110Y294319D01*
X700060Y294147D01*
X700058Y294125D01*
X700052Y294103D01*
X700025Y293773D01*
X700025Y283682D01*
X700027Y283655D01*
X700025Y283628D01*
X700047Y283454D01*
X700065Y283281D01*
X700072Y283255D01*
X700076Y283229D01*
X700131Y283063D01*
X700183Y282896D01*
X700196Y282872D01*
X700204Y282847D01*
X700291Y282695D01*
X700375Y282542D01*
X700392Y282521D01*
X700405Y282498D01*
X700436Y282462D01*
X701267Y280456D01*
X701267Y278344D01*
X700459Y276394D01*
X698966Y274901D01*
X697016Y274093D01*
X694904Y274093D01*
X692954Y274901D01*
X691461Y276394D01*
X690653Y278344D01*
X690653Y280456D01*
X691461Y282406D01*
X692954Y283899D01*
X693181Y283993D01*
X693201Y284004D01*
X693222Y284010D01*
X693378Y284099D01*
X693536Y284183D01*
X693553Y284197D01*
X693573Y284208D01*
X693708Y284325D01*
X693847Y284440D01*
X693861Y284457D01*
X693878Y284472D01*
X693987Y284613D01*
X694100Y284752D01*
X694111Y284772D01*
X694124Y284790D01*
X694204Y284950D01*
X694287Y285109D01*
X694294Y285130D01*
X694304Y285150D01*
X694350Y285323D01*
X694400Y285495D01*
X694402Y285517D01*
X694408Y285539D01*
X694435Y285870D01*
X694435Y293773D01*
X694433Y293795D01*
X694435Y293817D01*
X694413Y293995D01*
X694395Y294173D01*
X694389Y294195D01*
X694386Y294217D01*
X694330Y294386D01*
X694277Y294558D01*
X694267Y294578D01*
X694260Y294599D01*
X694171Y294754D01*
X694085Y294912D01*
X694071Y294929D01*
X694060Y294949D01*
X693942Y295084D01*
X693828Y295222D01*
X693810Y295236D01*
X693796Y295252D01*
X693654Y295362D01*
X693514Y295474D01*
X693494Y295484D01*
X693476Y295498D01*
X693181Y295649D01*
X690899Y296595D01*
X687755Y299739D01*
X686407Y302994D01*
X686402Y303002D01*
X686400Y303010D01*
X686308Y303178D01*
X686216Y303349D01*
X686211Y303356D01*
X686206Y303363D01*
X686083Y303510D01*
X685960Y303659D01*
X685953Y303665D01*
X685947Y303671D01*
X685797Y303791D01*
X685647Y303913D01*
X685639Y303917D01*
X685633Y303922D01*
X685462Y304010D01*
X685291Y304100D01*
X685282Y304102D01*
X685274Y304106D01*
X685090Y304159D01*
X684904Y304213D01*
X684896Y304214D01*
X684887Y304216D01*
X684696Y304231D01*
X684503Y304247D01*
X684494Y304246D01*
X684486Y304247D01*
X684296Y304224D01*
X684103Y304202D01*
X684095Y304200D01*
X684086Y304198D01*
X683904Y304138D01*
X683720Y304079D01*
X683712Y304075D01*
X683704Y304072D01*
X683536Y303976D01*
X683368Y303883D01*
X683362Y303877D01*
X683354Y303873D01*
X683209Y303746D01*
X683063Y303621D01*
X683057Y303614D01*
X683050Y303608D01*
X682933Y303456D01*
X682814Y303304D01*
X682810Y303296D01*
X682805Y303289D01*
X682653Y302994D01*
X681305Y299739D01*
X678014Y296447D01*
X677997Y296427D01*
X677976Y296409D01*
X677869Y296271D01*
X677759Y296136D01*
X677746Y296112D01*
X677730Y296091D01*
X677652Y295934D01*
X677570Y295780D01*
X677562Y295755D01*
X677550Y295731D01*
X677505Y295561D01*
X677455Y295394D01*
X677453Y295368D01*
X677446Y295342D01*
X677419Y295011D01*
X677419Y228758D01*
X676568Y226704D01*
X612766Y162902D01*
X610712Y162051D01*
X562276Y162051D01*
X562258Y162049D01*
X562240Y162051D01*
X562058Y162030D01*
X561875Y162011D01*
X561858Y162006D01*
X561841Y162004D01*
X561666Y161947D01*
X561490Y161893D01*
X561475Y161885D01*
X561458Y161879D01*
X561298Y161789D01*
X561136Y161701D01*
X561123Y161690D01*
X561107Y161681D01*
X560968Y161561D01*
X560827Y161444D01*
X560816Y161430D01*
X560802Y161418D01*
X560690Y161273D01*
X560575Y161130D01*
X560567Y161114D01*
X560556Y161100D01*
X560474Y160935D01*
X560389Y160773D01*
X560384Y160756D01*
X560376Y160740D01*
X560329Y160561D01*
X560278Y160386D01*
X560276Y160368D01*
X560272Y160351D01*
X560245Y160020D01*
X560245Y159468D01*
X559352Y158575D01*
X543008Y158575D01*
X542115Y159468D01*
X542115Y160020D01*
X542113Y160038D01*
X542115Y160056D01*
X542094Y160238D01*
X542075Y160421D01*
X542070Y160438D01*
X542068Y160455D01*
X542011Y160630D01*
X541957Y160806D01*
X541949Y160821D01*
X541943Y160838D01*
X541853Y160998D01*
X541765Y161160D01*
X541754Y161173D01*
X541745Y161189D01*
X541625Y161328D01*
X541508Y161469D01*
X541494Y161480D01*
X541482Y161494D01*
X541337Y161606D01*
X541194Y161721D01*
X541178Y161729D01*
X541164Y161740D01*
X540999Y161822D01*
X540837Y161907D01*
X540820Y161912D01*
X540804Y161920D01*
X540625Y161967D01*
X540450Y162018D01*
X540432Y162020D01*
X540415Y162024D01*
X540084Y162051D01*
X405288Y162051D01*
X403234Y162902D01*
X401377Y164760D01*
X401376Y164760D01*
X377248Y188888D01*
X377227Y188905D01*
X377210Y188926D01*
X377072Y189033D01*
X376937Y189143D01*
X376913Y189156D01*
X376892Y189172D01*
X376735Y189250D01*
X376581Y189332D01*
X376555Y189340D01*
X376531Y189352D01*
X376362Y189397D01*
X376195Y189447D01*
X376168Y189449D01*
X376142Y189456D01*
X375812Y189483D01*
X371157Y189483D01*
X367049Y191185D01*
X363905Y194329D01*
X362203Y198437D01*
X362203Y202883D01*
X363905Y206991D01*
X367049Y210135D01*
X371157Y211837D01*
X375603Y211837D01*
X379711Y210135D01*
X382855Y206991D01*
X384203Y203736D01*
X384208Y203728D01*
X384210Y203720D01*
X384302Y203552D01*
X384394Y203381D01*
X384399Y203374D01*
X384404Y203367D01*
X384527Y203220D01*
X384650Y203071D01*
X384657Y203065D01*
X384663Y203059D01*
X384813Y202939D01*
X384963Y202817D01*
X384971Y202813D01*
X384977Y202808D01*
X385148Y202720D01*
X385319Y202630D01*
X385328Y202628D01*
X385336Y202624D01*
X385519Y202572D01*
X385705Y202517D01*
X385715Y202516D01*
X385723Y202514D01*
X385914Y202499D01*
X386107Y202483D01*
X386116Y202484D01*
X386124Y202483D01*
X386314Y202506D01*
X386507Y202528D01*
X386515Y202530D01*
X386524Y202531D01*
X386704Y202591D01*
X386890Y202651D01*
X386898Y202655D01*
X386906Y202658D01*
X387072Y202753D01*
X387241Y202847D01*
X387248Y202853D01*
X387256Y202857D01*
X387401Y202984D01*
X387547Y203109D01*
X387553Y203116D01*
X387560Y203122D01*
X387677Y203274D01*
X387796Y203426D01*
X387800Y203434D01*
X387805Y203441D01*
X387957Y203736D01*
X389305Y206991D01*
X392449Y210135D01*
X396557Y211837D01*
X401003Y211837D01*
X405111Y210135D01*
X408255Y206991D01*
X409041Y205094D01*
X409083Y205016D01*
X409116Y204934D01*
X409178Y204839D01*
X409231Y204740D01*
X409288Y204671D01*
X409336Y204597D01*
X409415Y204516D01*
X409487Y204429D01*
X409556Y204373D01*
X409619Y204310D01*
X409712Y204247D01*
X409800Y204175D01*
X409879Y204134D01*
X409952Y204085D01*
X410056Y204041D01*
X410157Y203988D01*
X410242Y203963D01*
X410324Y203929D01*
X410434Y203907D01*
X410543Y203875D01*
X410632Y203868D01*
X410718Y203850D01*
X410831Y203850D01*
X410944Y203841D01*
X411032Y203851D01*
X411121Y203851D01*
X411232Y203873D01*
X411344Y203886D01*
X411429Y203913D01*
X411516Y203931D01*
X411620Y203974D01*
X411727Y204009D01*
X411805Y204052D01*
X411887Y204087D01*
X411980Y204150D01*
X412079Y204205D01*
X412146Y204263D01*
X412220Y204313D01*
X412299Y204394D01*
X412385Y204467D01*
X412440Y204537D01*
X412502Y204601D01*
X412563Y204695D01*
X412633Y204784D01*
X412673Y204864D01*
X412721Y204938D01*
X412776Y205068D01*
X412814Y205144D01*
X412826Y205188D01*
X412849Y205244D01*
X412881Y205340D01*
X413752Y207050D01*
X414880Y208603D01*
X416237Y209960D01*
X417790Y211088D01*
X419500Y211959D01*
X421325Y212552D01*
X421681Y212609D01*
X421681Y201128D01*
X421682Y201110D01*
X421681Y201093D01*
X421702Y200910D01*
X421721Y200728D01*
X421726Y200711D01*
X421728Y200693D01*
X421741Y200652D01*
X421714Y200558D01*
X421712Y200540D01*
X421708Y200523D01*
X421681Y200192D01*
X421681Y188711D01*
X421325Y188768D01*
X419500Y189361D01*
X417790Y190232D01*
X416237Y191360D01*
X414880Y192717D01*
X413752Y194270D01*
X412881Y195980D01*
X412849Y196076D01*
X412814Y196157D01*
X412787Y196242D01*
X412733Y196341D01*
X412688Y196445D01*
X412637Y196517D01*
X412594Y196595D01*
X412521Y196682D01*
X412456Y196774D01*
X412392Y196835D01*
X412335Y196903D01*
X412246Y196974D01*
X412164Y197052D01*
X412089Y197099D01*
X412020Y197154D01*
X411919Y197206D01*
X411824Y197266D01*
X411741Y197298D01*
X411662Y197338D01*
X411553Y197369D01*
X411447Y197409D01*
X411360Y197424D01*
X411274Y197448D01*
X411162Y197457D01*
X411050Y197475D01*
X410961Y197472D01*
X410873Y197479D01*
X410761Y197465D01*
X410648Y197462D01*
X410561Y197441D01*
X410473Y197430D01*
X410366Y197395D01*
X410256Y197369D01*
X410175Y197332D01*
X410091Y197304D01*
X409993Y197248D01*
X409890Y197201D01*
X409818Y197148D01*
X409741Y197104D01*
X409656Y197030D01*
X409565Y196964D01*
X409505Y196898D01*
X409438Y196840D01*
X409369Y196750D01*
X409292Y196667D01*
X409247Y196591D01*
X409192Y196521D01*
X409128Y196395D01*
X409084Y196323D01*
X409068Y196279D01*
X409041Y196226D01*
X408255Y194329D01*
X405111Y191185D01*
X401003Y189483D01*
X397364Y189483D01*
X397355Y189482D01*
X397346Y189483D01*
X397153Y189462D01*
X396964Y189443D01*
X396955Y189441D01*
X396946Y189440D01*
X396762Y189381D01*
X396579Y189325D01*
X396571Y189321D01*
X396562Y189318D01*
X396393Y189225D01*
X396225Y189133D01*
X396218Y189128D01*
X396210Y189123D01*
X396063Y188999D01*
X395915Y188876D01*
X395910Y188869D01*
X395903Y188863D01*
X395783Y188711D01*
X395663Y188562D01*
X395659Y188554D01*
X395653Y188547D01*
X395566Y188374D01*
X395478Y188205D01*
X395475Y188196D01*
X395471Y188188D01*
X395419Y188002D01*
X395366Y187818D01*
X395365Y187809D01*
X395363Y187800D01*
X395349Y187607D01*
X395333Y187416D01*
X395334Y187408D01*
X395334Y187399D01*
X395358Y187206D01*
X395380Y187017D01*
X395383Y187008D01*
X395384Y186999D01*
X395445Y186817D01*
X395505Y186634D01*
X395510Y186626D01*
X395512Y186618D01*
X395608Y186451D01*
X395703Y186283D01*
X395709Y186276D01*
X395713Y186269D01*
X395928Y186016D01*
X408120Y173824D01*
X408141Y173807D01*
X408158Y173786D01*
X408296Y173679D01*
X408431Y173569D01*
X408455Y173556D01*
X408476Y173540D01*
X408633Y173462D01*
X408787Y173380D01*
X408813Y173372D01*
X408837Y173360D01*
X409006Y173315D01*
X409173Y173265D01*
X409200Y173263D01*
X409226Y173256D01*
X409556Y173229D01*
X540084Y173229D01*
X540102Y173231D01*
X540120Y173229D01*
X540302Y173250D01*
X540485Y173269D01*
X540502Y173274D01*
X540519Y173276D01*
X540694Y173333D01*
X540870Y173387D01*
X540885Y173395D01*
X540902Y173401D01*
X541062Y173491D01*
X541224Y173579D01*
X541237Y173590D01*
X541253Y173599D01*
X541392Y173719D01*
X541533Y173836D01*
X541544Y173850D01*
X541558Y173862D01*
X541670Y174007D01*
X541785Y174150D01*
X541793Y174166D01*
X541804Y174180D01*
X541886Y174345D01*
X541971Y174507D01*
X541976Y174524D01*
X541984Y174540D01*
X542031Y174719D01*
X542082Y174894D01*
X542084Y174912D01*
X542088Y174929D01*
X542115Y175260D01*
X542115Y175812D01*
X543008Y176705D01*
X559352Y176705D01*
X560245Y175812D01*
X560245Y175260D01*
X560247Y175242D01*
X560245Y175224D01*
X560266Y175042D01*
X560285Y174859D01*
X560290Y174842D01*
X560292Y174825D01*
X560349Y174650D01*
X560403Y174474D01*
X560411Y174459D01*
X560417Y174442D01*
X560507Y174282D01*
X560595Y174120D01*
X560606Y174107D01*
X560615Y174091D01*
X560735Y173952D01*
X560852Y173811D01*
X560866Y173800D01*
X560878Y173786D01*
X561023Y173674D01*
X561166Y173559D01*
X561182Y173551D01*
X561196Y173540D01*
X561361Y173458D01*
X561523Y173373D01*
X561540Y173368D01*
X561556Y173360D01*
X561735Y173313D01*
X561910Y173262D01*
X561928Y173260D01*
X561945Y173256D01*
X562276Y173229D01*
X606444Y173229D01*
X606470Y173231D01*
X606497Y173229D01*
X606671Y173251D01*
X606844Y173269D01*
X606870Y173276D01*
X606896Y173280D01*
X607062Y173335D01*
X607229Y173387D01*
X607253Y173400D01*
X607278Y173408D01*
X607430Y173495D01*
X607583Y173579D01*
X607604Y173596D01*
X607627Y173609D01*
X607880Y173824D01*
X665646Y231590D01*
X665663Y231611D01*
X665684Y231628D01*
X665791Y231766D01*
X665901Y231902D01*
X665914Y231925D01*
X665930Y231946D01*
X666008Y232103D01*
X666090Y232257D01*
X666098Y232283D01*
X666110Y232307D01*
X666155Y232476D01*
X666205Y232643D01*
X666207Y232670D01*
X666214Y232696D01*
X666241Y233026D01*
X666241Y280656D01*
X666240Y280669D01*
X666241Y280682D01*
X666220Y280868D01*
X666201Y281056D01*
X666197Y281069D01*
X666196Y281082D01*
X666138Y281261D01*
X666083Y281441D01*
X666077Y281453D01*
X666073Y281466D01*
X665981Y281630D01*
X665891Y281795D01*
X665883Y281805D01*
X665876Y281817D01*
X665754Y281960D01*
X665634Y282104D01*
X665623Y282113D01*
X665615Y282123D01*
X665467Y282239D01*
X665320Y282357D01*
X665308Y282363D01*
X665298Y282371D01*
X665129Y282456D01*
X664963Y282542D01*
X664950Y282546D01*
X664938Y282552D01*
X664756Y282602D01*
X664576Y282654D01*
X664562Y282655D01*
X664549Y282658D01*
X664361Y282671D01*
X664174Y282687D01*
X664161Y282685D01*
X664148Y282686D01*
X663960Y282661D01*
X663775Y282640D01*
X663762Y282635D01*
X663749Y282634D01*
X663433Y282532D01*
X661456Y281713D01*
X659554Y281713D01*
X659540Y281712D01*
X659527Y281713D01*
X659341Y281692D01*
X659153Y281673D01*
X659140Y281669D01*
X659127Y281668D01*
X658948Y281610D01*
X658768Y281555D01*
X658756Y281549D01*
X658744Y281545D01*
X658580Y281453D01*
X658414Y281363D01*
X658404Y281355D01*
X658392Y281348D01*
X658249Y281226D01*
X658105Y281106D01*
X658096Y281095D01*
X658086Y281087D01*
X657970Y280938D01*
X657852Y280792D01*
X657846Y280780D01*
X657838Y280770D01*
X657753Y280601D01*
X657667Y280435D01*
X657663Y280422D01*
X657657Y280410D01*
X657607Y280228D01*
X657556Y280048D01*
X657554Y280034D01*
X657551Y280021D01*
X657538Y279835D01*
X657523Y279646D01*
X657524Y279633D01*
X657523Y279620D01*
X657548Y279434D01*
X657570Y279247D01*
X657574Y279234D01*
X657576Y279221D01*
X657677Y278905D01*
X658087Y277916D01*
X658087Y275804D01*
X657279Y273854D01*
X655786Y272361D01*
X653836Y271553D01*
X651724Y271553D01*
X649774Y272361D01*
X648281Y273854D01*
X647473Y275804D01*
X647473Y277373D01*
X647471Y277400D01*
X647473Y277426D01*
X647451Y277600D01*
X647433Y277774D01*
X647426Y277799D01*
X647422Y277826D01*
X647367Y277991D01*
X647315Y278159D01*
X647302Y278182D01*
X647294Y278207D01*
X647207Y278359D01*
X647123Y278513D01*
X647106Y278533D01*
X647093Y278556D01*
X646878Y278809D01*
X646121Y279566D01*
X646101Y279583D01*
X646083Y279604D01*
X645945Y279711D01*
X645810Y279821D01*
X645786Y279834D01*
X645765Y279850D01*
X645608Y279928D01*
X645454Y280010D01*
X645429Y280018D01*
X645405Y280030D01*
X645235Y280075D01*
X645068Y280125D01*
X645042Y280127D01*
X645016Y280134D01*
X644685Y280161D01*
X581359Y280161D01*
X557570Y303950D01*
X557549Y303967D01*
X557532Y303988D01*
X557394Y304095D01*
X557258Y304205D01*
X557235Y304218D01*
X557214Y304234D01*
X557057Y304312D01*
X556903Y304394D01*
X556877Y304402D01*
X556853Y304414D01*
X556684Y304459D01*
X556517Y304509D01*
X556490Y304511D01*
X556464Y304518D01*
X556134Y304545D01*
X444972Y304545D01*
X444945Y304543D01*
X444918Y304545D01*
X444744Y304523D01*
X444571Y304505D01*
X444545Y304498D01*
X444519Y304494D01*
X444353Y304439D01*
X444186Y304387D01*
X444162Y304374D01*
X444137Y304366D01*
X443985Y304279D01*
X443832Y304195D01*
X443811Y304178D01*
X443788Y304165D01*
X443535Y303950D01*
X442426Y302841D01*
X440476Y302033D01*
X438364Y302033D01*
X436414Y302841D01*
X434921Y304334D01*
X434113Y306284D01*
X434113Y308396D01*
X434921Y310346D01*
X436414Y311839D01*
X438364Y312647D01*
X440476Y312647D01*
X442426Y311839D01*
X443535Y310730D01*
X443556Y310713D01*
X443573Y310692D01*
X443711Y310585D01*
X443847Y310475D01*
X443870Y310462D01*
X443891Y310446D01*
X444048Y310368D01*
X444202Y310286D01*
X444228Y310278D01*
X444252Y310266D01*
X444421Y310221D01*
X444588Y310171D01*
X444615Y310169D01*
X444641Y310162D01*
X444972Y310135D01*
X552229Y310135D01*
X552238Y310136D01*
X552247Y310135D01*
X552440Y310156D01*
X552630Y310175D01*
X552638Y310177D01*
X552647Y310178D01*
X552831Y310236D01*
X553015Y310293D01*
X553023Y310297D01*
X553031Y310300D01*
X553199Y310392D01*
X553369Y310485D01*
X553376Y310490D01*
X553383Y310495D01*
X553530Y310619D01*
X553678Y310742D01*
X553683Y310749D01*
X553690Y310755D01*
X553810Y310907D01*
X553930Y311056D01*
X553934Y311064D01*
X553940Y311071D01*
X554028Y311244D01*
X554116Y311413D01*
X554118Y311422D01*
X554122Y311430D01*
X554174Y311616D01*
X554227Y311800D01*
X554228Y311809D01*
X554230Y311818D01*
X554244Y312011D01*
X554260Y312202D01*
X554259Y312210D01*
X554260Y312219D01*
X554235Y312412D01*
X554213Y312601D01*
X554210Y312610D01*
X554209Y312619D01*
X554148Y312801D01*
X554088Y312984D01*
X554084Y312992D01*
X554081Y313000D01*
X553985Y313167D01*
X553890Y313335D01*
X553885Y313342D01*
X553880Y313349D01*
X553665Y313602D01*
X545537Y321730D01*
X545517Y321747D01*
X545499Y321768D01*
X545361Y321875D01*
X545226Y321985D01*
X545202Y321998D01*
X545181Y322014D01*
X545024Y322092D01*
X544870Y322174D01*
X544845Y322182D01*
X544821Y322194D01*
X544651Y322239D01*
X544484Y322289D01*
X544458Y322291D01*
X544432Y322298D01*
X544101Y322325D01*
X444972Y322325D01*
X444945Y322323D01*
X444918Y322325D01*
X444744Y322303D01*
X444571Y322285D01*
X444545Y322278D01*
X444519Y322274D01*
X444353Y322219D01*
X444186Y322167D01*
X444162Y322154D01*
X444137Y322146D01*
X443985Y322059D01*
X443832Y321975D01*
X443811Y321958D01*
X443788Y321945D01*
X443535Y321730D01*
X442426Y320621D01*
X440476Y319813D01*
X438364Y319813D01*
X436414Y320621D01*
X434921Y322114D01*
X434113Y324064D01*
X434113Y326176D01*
X434921Y328126D01*
X436414Y329619D01*
X438364Y330427D01*
X440476Y330427D01*
X442426Y329619D01*
X443535Y328510D01*
X443556Y328493D01*
X443573Y328472D01*
X443711Y328365D01*
X443847Y328255D01*
X443870Y328242D01*
X443891Y328226D01*
X444048Y328148D01*
X444202Y328066D01*
X444228Y328058D01*
X444252Y328046D01*
X444421Y328001D01*
X444588Y327951D01*
X444615Y327949D01*
X444641Y327942D01*
X444972Y327915D01*
X547258Y327915D01*
X584763Y290410D01*
X584783Y290393D01*
X584801Y290372D01*
X584939Y290265D01*
X585074Y290155D01*
X585098Y290142D01*
X585119Y290126D01*
X585276Y290048D01*
X585430Y289966D01*
X585455Y289958D01*
X585479Y289946D01*
X585649Y289901D01*
X585816Y289851D01*
X585842Y289849D01*
X585868Y289842D01*
X586199Y289815D01*
X654848Y289815D01*
X654875Y289817D01*
X654902Y289815D01*
X655076Y289837D01*
X655249Y289855D01*
X655275Y289862D01*
X655301Y289866D01*
X655467Y289921D01*
X655634Y289973D01*
X655658Y289986D01*
X655683Y289994D01*
X655835Y290081D01*
X655988Y290165D01*
X656009Y290182D01*
X656032Y290195D01*
X656285Y290410D01*
X657394Y291519D01*
X658938Y292158D01*
X659344Y292327D01*
X661456Y292327D01*
X663433Y291508D01*
X663446Y291504D01*
X663457Y291498D01*
X663637Y291446D01*
X663818Y291391D01*
X663831Y291390D01*
X663844Y291386D01*
X664032Y291371D01*
X664219Y291353D01*
X664232Y291355D01*
X664246Y291353D01*
X664433Y291375D01*
X664619Y291395D01*
X664632Y291399D01*
X664645Y291400D01*
X664825Y291459D01*
X665004Y291515D01*
X665015Y291521D01*
X665028Y291525D01*
X665193Y291618D01*
X665357Y291708D01*
X665367Y291717D01*
X665379Y291723D01*
X665521Y291846D01*
X665665Y291967D01*
X665673Y291978D01*
X665684Y291986D01*
X665799Y292135D01*
X665916Y292282D01*
X665922Y292294D01*
X665930Y292304D01*
X666014Y292473D01*
X666100Y292640D01*
X666104Y292653D01*
X666110Y292665D01*
X666159Y292848D01*
X666210Y293027D01*
X666211Y293041D01*
X666214Y293054D01*
X666241Y293384D01*
X666241Y295011D01*
X666239Y295038D01*
X666241Y295064D01*
X666219Y295238D01*
X666201Y295412D01*
X666194Y295437D01*
X666190Y295464D01*
X666135Y295629D01*
X666083Y295797D01*
X666070Y295820D01*
X666062Y295845D01*
X665975Y295997D01*
X665891Y296151D01*
X665874Y296171D01*
X665861Y296194D01*
X665646Y296447D01*
X662355Y299739D01*
X661007Y302994D01*
X661002Y303002D01*
X661000Y303010D01*
X660908Y303178D01*
X660816Y303349D01*
X660811Y303356D01*
X660806Y303363D01*
X660683Y303510D01*
X660560Y303659D01*
X660553Y303665D01*
X660547Y303671D01*
X660397Y303791D01*
X660247Y303913D01*
X660239Y303917D01*
X660233Y303922D01*
X660062Y304010D01*
X659891Y304100D01*
X659882Y304102D01*
X659874Y304106D01*
X659690Y304159D01*
X659504Y304213D01*
X659496Y304214D01*
X659487Y304216D01*
X659296Y304231D01*
X659103Y304247D01*
X659094Y304246D01*
X659086Y304247D01*
X658896Y304224D01*
X658703Y304202D01*
X658695Y304200D01*
X658686Y304198D01*
X658504Y304138D01*
X658320Y304079D01*
X658312Y304075D01*
X658304Y304072D01*
X658136Y303976D01*
X657968Y303883D01*
X657962Y303877D01*
X657954Y303873D01*
X657809Y303746D01*
X657663Y303621D01*
X657657Y303614D01*
X657650Y303608D01*
X657533Y303456D01*
X657414Y303304D01*
X657410Y303296D01*
X657405Y303289D01*
X657253Y302994D01*
X655905Y299739D01*
X652761Y296595D01*
X651095Y295905D01*
X648653Y294893D01*
X644207Y294893D01*
X640099Y296595D01*
X636955Y299739D01*
X636169Y301636D01*
X636127Y301714D01*
X636094Y301796D01*
X636032Y301891D01*
X635979Y301990D01*
X635922Y302059D01*
X635874Y302133D01*
X635795Y302214D01*
X635723Y302301D01*
X635654Y302357D01*
X635591Y302420D01*
X635498Y302483D01*
X635410Y302555D01*
X635331Y302596D01*
X635258Y302645D01*
X635154Y302689D01*
X635053Y302742D01*
X634968Y302767D01*
X634886Y302801D01*
X634776Y302823D01*
X634667Y302855D01*
X634578Y302862D01*
X634492Y302880D01*
X634379Y302880D01*
X634266Y302889D01*
X634178Y302879D01*
X634089Y302879D01*
X633978Y302857D01*
X633866Y302844D01*
X633781Y302817D01*
X633694Y302799D01*
X633590Y302756D01*
X633483Y302721D01*
X633405Y302678D01*
X633323Y302643D01*
X633230Y302580D01*
X633131Y302525D01*
X633064Y302467D01*
X632990Y302417D01*
X632911Y302336D01*
X632825Y302263D01*
X632770Y302193D01*
X632708Y302129D01*
X632647Y302035D01*
X632577Y301946D01*
X632537Y301866D01*
X632489Y301792D01*
X632434Y301662D01*
X632396Y301586D01*
X632384Y301542D01*
X632361Y301486D01*
X632329Y301390D01*
X631458Y299680D01*
X630330Y298127D01*
X628973Y296770D01*
X627420Y295642D01*
X625710Y294771D01*
X623885Y294178D01*
X623529Y294121D01*
X623529Y305602D01*
X623527Y305620D01*
X623529Y305637D01*
X623508Y305819D01*
X623489Y306002D01*
X623484Y306019D01*
X623482Y306037D01*
X623469Y306078D01*
X623496Y306172D01*
X623498Y306190D01*
X623502Y306207D01*
X623529Y306538D01*
X623529Y318019D01*
X623885Y317962D01*
X625710Y317369D01*
X627420Y316498D01*
X628973Y315370D01*
X630330Y314013D01*
X631458Y312460D01*
X632329Y310750D01*
X632361Y310654D01*
X632396Y310573D01*
X632423Y310488D01*
X632477Y310389D01*
X632522Y310285D01*
X632573Y310213D01*
X632616Y310135D01*
X632689Y310048D01*
X632754Y309956D01*
X632818Y309895D01*
X632875Y309827D01*
X632964Y309756D01*
X633046Y309678D01*
X633121Y309631D01*
X633190Y309576D01*
X633291Y309524D01*
X633386Y309464D01*
X633469Y309432D01*
X633548Y309392D01*
X633657Y309361D01*
X633763Y309321D01*
X633850Y309306D01*
X633936Y309282D01*
X634048Y309273D01*
X634160Y309255D01*
X634249Y309258D01*
X634337Y309251D01*
X634449Y309265D01*
X634562Y309268D01*
X634649Y309289D01*
X634737Y309300D01*
X634844Y309335D01*
X634954Y309361D01*
X635035Y309398D01*
X635119Y309426D01*
X635217Y309482D01*
X635320Y309529D01*
X635392Y309582D01*
X635469Y309626D01*
X635554Y309700D01*
X635645Y309766D01*
X635705Y309832D01*
X635772Y309890D01*
X635841Y309980D01*
X635918Y310063D01*
X635963Y310139D01*
X636018Y310209D01*
X636082Y310335D01*
X636126Y310407D01*
X636142Y310451D01*
X636169Y310504D01*
X636955Y312401D01*
X640099Y315545D01*
X644207Y317247D01*
X648653Y317247D01*
X650174Y316617D01*
X650195Y316611D01*
X650215Y316600D01*
X650388Y316552D01*
X650559Y316500D01*
X650581Y316498D01*
X650603Y316492D01*
X650782Y316479D01*
X650960Y316462D01*
X650982Y316465D01*
X651004Y316463D01*
X651183Y316486D01*
X651360Y316504D01*
X651381Y316511D01*
X651404Y316513D01*
X651574Y316571D01*
X651745Y316624D01*
X651764Y316635D01*
X651785Y316642D01*
X651941Y316731D01*
X652098Y316817D01*
X652115Y316831D01*
X652134Y316843D01*
X652387Y317057D01*
X674028Y338698D01*
X674045Y338719D01*
X674066Y338737D01*
X674173Y338874D01*
X674283Y339010D01*
X674296Y339033D01*
X674312Y339055D01*
X674390Y339212D01*
X674472Y339366D01*
X674480Y339391D01*
X674492Y339415D01*
X674537Y339585D01*
X674587Y339751D01*
X674589Y339778D01*
X674596Y339804D01*
X674623Y340135D01*
X674623Y401407D01*
X674621Y401429D01*
X674623Y401451D01*
X674601Y401629D01*
X674583Y401807D01*
X674577Y401829D01*
X674574Y401851D01*
X674518Y402021D01*
X674465Y402192D01*
X674455Y402212D01*
X674448Y402233D01*
X674358Y402389D01*
X674273Y402546D01*
X674259Y402564D01*
X674248Y402583D01*
X674130Y402719D01*
X674016Y402856D01*
X673998Y402870D01*
X673984Y402887D01*
X673841Y402996D01*
X673702Y403108D01*
X673682Y403118D01*
X673664Y403132D01*
X673661Y403134D01*
X671343Y405452D01*
X670115Y408416D01*
X670115Y424704D01*
X671343Y427668D01*
X673784Y430110D01*
X673790Y430117D01*
X673797Y430122D01*
X673917Y430272D01*
X674040Y430421D01*
X674044Y430429D01*
X674049Y430436D01*
X674138Y430606D01*
X674228Y430777D01*
X674231Y430786D01*
X674235Y430793D01*
X674288Y430978D01*
X674343Y431163D01*
X674344Y431172D01*
X674346Y431180D01*
X674362Y431371D01*
X674379Y431564D01*
X674378Y431573D01*
X674379Y431582D01*
X674357Y431771D01*
X674336Y431964D01*
X674333Y431973D01*
X674332Y431981D01*
X674273Y432163D01*
X674214Y432348D01*
X674210Y432356D01*
X674207Y432364D01*
X674112Y432533D01*
X674020Y432700D01*
X674014Y432707D01*
X674009Y432715D01*
X673883Y432861D01*
X673759Y433007D01*
X673752Y433013D01*
X673746Y433020D01*
X673595Y433137D01*
X673443Y433257D01*
X673435Y433261D01*
X673428Y433266D01*
X673256Y433352D01*
X673084Y433439D01*
X673076Y433442D01*
X673068Y433446D01*
X672882Y433496D01*
X672696Y433547D01*
X672687Y433548D01*
X672679Y433550D01*
X672348Y433577D01*
X670927Y433577D01*
X666913Y435240D01*
X663840Y438313D01*
X662277Y442087D01*
X662272Y442095D01*
X662270Y442104D01*
X662177Y442273D01*
X662086Y442442D01*
X662081Y442449D01*
X662076Y442457D01*
X661952Y442605D01*
X661830Y442753D01*
X661823Y442758D01*
X661817Y442765D01*
X661666Y442885D01*
X661517Y443006D01*
X661510Y443011D01*
X661502Y443016D01*
X661332Y443103D01*
X661161Y443193D01*
X661152Y443196D01*
X661144Y443200D01*
X660962Y443252D01*
X660774Y443307D01*
X660765Y443307D01*
X660757Y443310D01*
X660566Y443325D01*
X660373Y443341D01*
X660364Y443340D01*
X660356Y443341D01*
X660165Y443318D01*
X659973Y443296D01*
X659965Y443293D01*
X659956Y443292D01*
X659775Y443232D01*
X659590Y443173D01*
X659582Y443168D01*
X659574Y443166D01*
X659408Y443071D01*
X659238Y442976D01*
X659232Y442971D01*
X659224Y442966D01*
X659078Y442839D01*
X658933Y442715D01*
X658927Y442708D01*
X658920Y442702D01*
X658803Y442549D01*
X658684Y442398D01*
X658680Y442390D01*
X658675Y442383D01*
X658523Y442087D01*
X656960Y438313D01*
X653887Y435240D01*
X653483Y435073D01*
X653479Y435071D01*
X653475Y435069D01*
X653302Y434976D01*
X653128Y434882D01*
X653124Y434880D01*
X653120Y434877D01*
X652970Y434752D01*
X652818Y434626D01*
X652815Y434623D01*
X652811Y434620D01*
X652688Y434466D01*
X652564Y434313D01*
X652562Y434309D01*
X652559Y434306D01*
X652469Y434133D01*
X652377Y433957D01*
X652375Y433952D01*
X652373Y433949D01*
X652320Y433763D01*
X652264Y433571D01*
X652263Y433566D01*
X652262Y433562D01*
X652246Y433363D01*
X652229Y433169D01*
X652229Y433165D01*
X652229Y433160D01*
X652252Y432965D01*
X652274Y432769D01*
X652276Y432765D01*
X652276Y432761D01*
X652337Y432573D01*
X652397Y432386D01*
X652399Y432382D01*
X652401Y432378D01*
X652498Y432205D01*
X652594Y432034D01*
X652597Y432031D01*
X652599Y432027D01*
X652727Y431879D01*
X652855Y431729D01*
X652859Y431726D01*
X652862Y431722D01*
X653015Y431603D01*
X653172Y431480D01*
X653177Y431478D01*
X653180Y431476D01*
X653355Y431389D01*
X653532Y431300D01*
X653537Y431298D01*
X653541Y431296D01*
X653731Y431245D01*
X653921Y431193D01*
X653925Y431193D01*
X653929Y431192D01*
X654260Y431165D01*
X654384Y431165D01*
X657348Y429937D01*
X659617Y427668D01*
X660845Y424704D01*
X660845Y408416D01*
X659617Y405452D01*
X657348Y403183D01*
X654384Y401955D01*
X651176Y401955D01*
X648212Y403183D01*
X645943Y405452D01*
X644715Y408416D01*
X644715Y424704D01*
X645943Y427668D01*
X648384Y430110D01*
X648390Y430117D01*
X648397Y430122D01*
X648517Y430272D01*
X648640Y430421D01*
X648644Y430429D01*
X648649Y430436D01*
X648738Y430606D01*
X648828Y430777D01*
X648831Y430786D01*
X648835Y430793D01*
X648888Y430978D01*
X648943Y431163D01*
X648944Y431172D01*
X648946Y431180D01*
X648962Y431371D01*
X648979Y431564D01*
X648978Y431573D01*
X648979Y431582D01*
X648957Y431771D01*
X648936Y431964D01*
X648933Y431973D01*
X648932Y431981D01*
X648873Y432163D01*
X648814Y432348D01*
X648810Y432356D01*
X648807Y432364D01*
X648712Y432533D01*
X648620Y432700D01*
X648614Y432707D01*
X648609Y432715D01*
X648483Y432861D01*
X648359Y433007D01*
X648352Y433013D01*
X648346Y433020D01*
X648195Y433137D01*
X648043Y433257D01*
X648035Y433261D01*
X648028Y433266D01*
X647856Y433352D01*
X647684Y433439D01*
X647676Y433442D01*
X647668Y433446D01*
X647482Y433496D01*
X647296Y433547D01*
X647287Y433548D01*
X647279Y433550D01*
X646948Y433577D01*
X645527Y433577D01*
X641513Y435240D01*
X638440Y438313D01*
X636877Y442087D01*
X636872Y442095D01*
X636870Y442104D01*
X636777Y442273D01*
X636686Y442442D01*
X636681Y442449D01*
X636676Y442457D01*
X636552Y442605D01*
X636430Y442753D01*
X636423Y442758D01*
X636417Y442765D01*
X636266Y442885D01*
X636117Y443006D01*
X636110Y443011D01*
X636102Y443016D01*
X635932Y443103D01*
X635761Y443193D01*
X635752Y443196D01*
X635744Y443200D01*
X635562Y443252D01*
X635374Y443307D01*
X635365Y443307D01*
X635357Y443310D01*
X635166Y443325D01*
X634973Y443341D01*
X634964Y443340D01*
X634956Y443341D01*
X634765Y443318D01*
X634573Y443296D01*
X634565Y443293D01*
X634556Y443292D01*
X634375Y443232D01*
X634190Y443173D01*
X634182Y443168D01*
X634174Y443166D01*
X634008Y443071D01*
X633838Y442976D01*
X633832Y442971D01*
X633824Y442966D01*
X633678Y442839D01*
X633533Y442715D01*
X633527Y442708D01*
X633520Y442702D01*
X633403Y442549D01*
X633284Y442398D01*
X633280Y442390D01*
X633275Y442383D01*
X633123Y442087D01*
X631560Y438313D01*
X628487Y435240D01*
X628083Y435073D01*
X628079Y435071D01*
X628075Y435069D01*
X627902Y434976D01*
X627728Y434882D01*
X627724Y434880D01*
X627720Y434877D01*
X627570Y434752D01*
X627418Y434626D01*
X627415Y434623D01*
X627411Y434620D01*
X627288Y434466D01*
X627164Y434313D01*
X627162Y434309D01*
X627159Y434306D01*
X627069Y434133D01*
X626977Y433957D01*
X626975Y433952D01*
X626973Y433949D01*
X626920Y433763D01*
X626864Y433571D01*
X626863Y433566D01*
X626862Y433562D01*
X626846Y433363D01*
X626829Y433169D01*
X626829Y433165D01*
X626829Y433160D01*
X626852Y432965D01*
X626874Y432769D01*
X626876Y432765D01*
X626876Y432761D01*
X626937Y432573D01*
X626997Y432386D01*
X626999Y432382D01*
X627001Y432378D01*
X627098Y432205D01*
X627194Y432034D01*
X627197Y432031D01*
X627199Y432027D01*
X627327Y431879D01*
X627455Y431729D01*
X627459Y431726D01*
X627462Y431722D01*
X627615Y431603D01*
X627772Y431480D01*
X627777Y431478D01*
X627780Y431476D01*
X627955Y431389D01*
X628132Y431300D01*
X628137Y431298D01*
X628141Y431296D01*
X628331Y431245D01*
X628521Y431193D01*
X628525Y431193D01*
X628529Y431192D01*
X628860Y431165D01*
X628984Y431165D01*
X631948Y429937D01*
X634217Y427668D01*
X635445Y424704D01*
X635445Y408416D01*
X634217Y405452D01*
X631948Y403183D01*
X628984Y401955D01*
X625776Y401955D01*
X622812Y403183D01*
X620543Y405452D01*
X619315Y408416D01*
X619315Y424704D01*
X620543Y427668D01*
X622984Y430110D01*
X622990Y430117D01*
X622997Y430122D01*
X623117Y430272D01*
X623240Y430421D01*
X623244Y430429D01*
X623249Y430436D01*
X623338Y430606D01*
X623428Y430777D01*
X623431Y430786D01*
X623435Y430793D01*
X623488Y430978D01*
X623543Y431163D01*
X623544Y431172D01*
X623546Y431180D01*
X623562Y431371D01*
X623579Y431564D01*
X623578Y431573D01*
X623579Y431582D01*
X623557Y431771D01*
X623536Y431964D01*
X623533Y431973D01*
X623532Y431981D01*
X623473Y432163D01*
X623414Y432348D01*
X623410Y432356D01*
X623407Y432364D01*
X623312Y432533D01*
X623220Y432700D01*
X623214Y432707D01*
X623209Y432715D01*
X623083Y432861D01*
X622959Y433007D01*
X622952Y433013D01*
X622946Y433020D01*
X622795Y433137D01*
X622643Y433257D01*
X622635Y433261D01*
X622628Y433266D01*
X622456Y433352D01*
X622284Y433439D01*
X622276Y433442D01*
X622268Y433446D01*
X622082Y433496D01*
X621896Y433547D01*
X621887Y433548D01*
X621879Y433550D01*
X621548Y433577D01*
X620127Y433577D01*
X616113Y435240D01*
X613040Y438313D01*
X611477Y442087D01*
X611472Y442095D01*
X611470Y442104D01*
X611377Y442273D01*
X611286Y442442D01*
X611281Y442449D01*
X611276Y442457D01*
X611152Y442605D01*
X611030Y442753D01*
X611023Y442758D01*
X611017Y442765D01*
X610866Y442885D01*
X610717Y443006D01*
X610710Y443011D01*
X610702Y443016D01*
X610532Y443103D01*
X610361Y443193D01*
X610352Y443196D01*
X610344Y443200D01*
X610162Y443252D01*
X609974Y443307D01*
X609965Y443307D01*
X609957Y443310D01*
X609766Y443325D01*
X609573Y443341D01*
X609564Y443340D01*
X609556Y443341D01*
X609365Y443318D01*
X609173Y443296D01*
X609165Y443293D01*
X609156Y443292D01*
X608975Y443232D01*
X608790Y443173D01*
X608782Y443168D01*
X608774Y443166D01*
X608608Y443071D01*
X608438Y442976D01*
X608432Y442971D01*
X608424Y442966D01*
X608278Y442839D01*
X608133Y442715D01*
X608127Y442708D01*
X608120Y442702D01*
X608003Y442549D01*
X607884Y442398D01*
X607880Y442390D01*
X607875Y442383D01*
X607723Y442087D01*
X606160Y438313D01*
X603087Y435240D01*
X602683Y435073D01*
X602679Y435071D01*
X602675Y435069D01*
X602502Y434976D01*
X602328Y434882D01*
X602324Y434880D01*
X602320Y434877D01*
X602170Y434752D01*
X602018Y434626D01*
X602015Y434623D01*
X602011Y434620D01*
X601888Y434466D01*
X601764Y434313D01*
X601762Y434309D01*
X601759Y434306D01*
X601669Y434133D01*
X601577Y433957D01*
X601575Y433952D01*
X601573Y433949D01*
X601520Y433763D01*
X601464Y433571D01*
X601463Y433566D01*
X601462Y433562D01*
X601446Y433363D01*
X601429Y433169D01*
X601429Y433165D01*
X601429Y433160D01*
X601452Y432965D01*
X601474Y432769D01*
X601476Y432765D01*
X601476Y432761D01*
X601537Y432573D01*
X601597Y432386D01*
X601599Y432382D01*
X601601Y432378D01*
X601698Y432205D01*
X601794Y432034D01*
X601797Y432031D01*
X601799Y432027D01*
X601927Y431879D01*
X602055Y431729D01*
X602059Y431726D01*
X602062Y431722D01*
X602215Y431603D01*
X602372Y431480D01*
X602377Y431478D01*
X602380Y431476D01*
X602555Y431389D01*
X602732Y431300D01*
X602737Y431298D01*
X602741Y431296D01*
X602931Y431245D01*
X603121Y431193D01*
X603125Y431193D01*
X603129Y431192D01*
X603460Y431165D01*
X603584Y431165D01*
X606548Y429937D01*
X608817Y427668D01*
X610045Y424704D01*
X610045Y408416D01*
X608817Y405452D01*
X606548Y403183D01*
X603584Y401955D01*
X600376Y401955D01*
X597412Y403183D01*
X595542Y405052D01*
X595535Y405058D01*
X595530Y405065D01*
X595380Y405185D01*
X595231Y405308D01*
X595223Y405312D01*
X595216Y405317D01*
X595046Y405406D01*
X594875Y405496D01*
X594866Y405499D01*
X594859Y405503D01*
X594674Y405556D01*
X594489Y405611D01*
X594480Y405612D01*
X594472Y405614D01*
X594281Y405630D01*
X594088Y405647D01*
X594079Y405646D01*
X594070Y405647D01*
X593881Y405625D01*
X593688Y405604D01*
X593679Y405601D01*
X593671Y405600D01*
X593489Y405541D01*
X593304Y405482D01*
X593296Y405478D01*
X593288Y405475D01*
X593121Y405381D01*
X592952Y405288D01*
X592945Y405282D01*
X592937Y405277D01*
X592792Y405152D01*
X592645Y405027D01*
X592639Y405020D01*
X592632Y405014D01*
X592515Y404863D01*
X592395Y404711D01*
X592391Y404703D01*
X592386Y404696D01*
X592300Y404524D01*
X592213Y404352D01*
X592210Y404344D01*
X592206Y404336D01*
X592156Y404150D01*
X592105Y403964D01*
X592104Y403955D01*
X592102Y403947D01*
X592075Y403616D01*
X592075Y400162D01*
X582818Y390905D01*
X572882Y390905D01*
X570650Y393137D01*
X559613Y404175D01*
X559599Y404186D01*
X559587Y404200D01*
X559443Y404314D01*
X559301Y404430D01*
X559285Y404438D01*
X559271Y404449D01*
X559108Y404532D01*
X558946Y404619D01*
X558928Y404624D01*
X558913Y404632D01*
X558735Y404681D01*
X558560Y404733D01*
X558542Y404735D01*
X558525Y404740D01*
X558342Y404753D01*
X558159Y404770D01*
X558141Y404768D01*
X558123Y404769D01*
X557941Y404746D01*
X557758Y404726D01*
X557741Y404721D01*
X557724Y404719D01*
X557550Y404660D01*
X557375Y404605D01*
X557359Y404596D01*
X557342Y404591D01*
X557183Y404499D01*
X557022Y404410D01*
X557009Y404398D01*
X556993Y404390D01*
X556740Y404175D01*
X555748Y403183D01*
X552784Y401955D01*
X549576Y401955D01*
X546612Y403183D01*
X544343Y405452D01*
X543115Y408416D01*
X543115Y424704D01*
X544343Y427668D01*
X546784Y430110D01*
X546790Y430117D01*
X546797Y430122D01*
X546917Y430272D01*
X547040Y430421D01*
X547044Y430429D01*
X547049Y430436D01*
X547138Y430606D01*
X547228Y430777D01*
X547231Y430786D01*
X547235Y430793D01*
X547288Y430978D01*
X547343Y431163D01*
X547344Y431172D01*
X547346Y431180D01*
X547362Y431371D01*
X547379Y431564D01*
X547378Y431573D01*
X547379Y431582D01*
X547357Y431771D01*
X547336Y431964D01*
X547333Y431973D01*
X547332Y431981D01*
X547273Y432163D01*
X547214Y432348D01*
X547210Y432356D01*
X547207Y432364D01*
X547112Y432533D01*
X547020Y432700D01*
X547014Y432707D01*
X547009Y432715D01*
X546883Y432861D01*
X546759Y433007D01*
X546752Y433013D01*
X546746Y433020D01*
X546595Y433137D01*
X546443Y433257D01*
X546435Y433261D01*
X546428Y433266D01*
X546256Y433352D01*
X546084Y433439D01*
X546076Y433442D01*
X546068Y433446D01*
X545882Y433496D01*
X545696Y433547D01*
X545687Y433548D01*
X545679Y433550D01*
X545348Y433577D01*
X543927Y433577D01*
X539913Y435240D01*
X539662Y435491D01*
X539655Y435496D01*
X539650Y435503D01*
X539500Y435624D01*
X539351Y435746D01*
X539343Y435750D01*
X539336Y435755D01*
X539166Y435844D01*
X538995Y435934D01*
X538986Y435937D01*
X538979Y435941D01*
X538795Y435994D01*
X538609Y436049D01*
X538600Y436050D01*
X538592Y436052D01*
X538401Y436068D01*
X538208Y436086D01*
X538199Y436085D01*
X538190Y436085D01*
X538001Y436063D01*
X537808Y436042D01*
X537799Y436039D01*
X537791Y436038D01*
X537608Y435979D01*
X537424Y435921D01*
X537416Y435916D01*
X537408Y435914D01*
X537239Y435818D01*
X537072Y435726D01*
X537065Y435720D01*
X537057Y435716D01*
X536912Y435590D01*
X536765Y435465D01*
X536759Y435458D01*
X536752Y435452D01*
X536635Y435301D01*
X536515Y435149D01*
X536511Y435141D01*
X536506Y435134D01*
X536420Y434962D01*
X536333Y434790D01*
X536330Y434782D01*
X536326Y434774D01*
X536276Y434586D01*
X536225Y434403D01*
X536224Y434394D01*
X536222Y434385D01*
X536195Y434054D01*
X536195Y423022D01*
X534440Y421267D01*
X534423Y421247D01*
X534402Y421229D01*
X534295Y421091D01*
X534185Y420956D01*
X534172Y420932D01*
X534156Y420911D01*
X534078Y420754D01*
X533996Y420600D01*
X533988Y420575D01*
X533976Y420551D01*
X533931Y420381D01*
X533881Y420214D01*
X533879Y420188D01*
X533872Y420162D01*
X533845Y419831D01*
X533845Y408416D01*
X532617Y405452D01*
X530285Y403120D01*
X530236Y403093D01*
X530219Y403079D01*
X530199Y403068D01*
X530063Y402951D01*
X529926Y402837D01*
X529911Y402820D01*
X529894Y402805D01*
X529785Y402664D01*
X529672Y402524D01*
X529661Y402505D01*
X529648Y402487D01*
X529568Y402327D01*
X529485Y402168D01*
X529478Y402146D01*
X529468Y402126D01*
X529422Y401953D01*
X529372Y401782D01*
X529370Y401759D01*
X529364Y401738D01*
X529337Y401407D01*
X529337Y386974D01*
X529338Y386961D01*
X529337Y386948D01*
X529358Y386762D01*
X529377Y386574D01*
X529381Y386561D01*
X529382Y386548D01*
X529440Y386369D01*
X529495Y386189D01*
X529501Y386177D01*
X529505Y386164D01*
X529597Y386000D01*
X529687Y385835D01*
X529695Y385825D01*
X529702Y385813D01*
X529824Y385670D01*
X529944Y385526D01*
X529955Y385517D01*
X529963Y385507D01*
X530112Y385391D01*
X530258Y385273D01*
X530270Y385267D01*
X530280Y385259D01*
X530449Y385174D01*
X530615Y385088D01*
X530628Y385084D01*
X530640Y385078D01*
X530822Y385028D01*
X531002Y384976D01*
X531016Y384975D01*
X531029Y384972D01*
X531217Y384959D01*
X531404Y384944D01*
X531417Y384945D01*
X531430Y384944D01*
X531618Y384969D01*
X531803Y384990D01*
X531816Y384995D01*
X531829Y384996D01*
X532145Y385098D01*
X538197Y387605D01*
X546383Y387605D01*
X553945Y384472D01*
X559732Y378685D01*
X562865Y371123D01*
X562865Y362937D01*
X559732Y355375D01*
X553945Y349588D01*
X546383Y346455D01*
X538197Y346455D01*
X530635Y349588D01*
X524848Y355375D01*
X521715Y362937D01*
X521715Y371123D01*
X523749Y376032D01*
X523750Y376037D01*
X523752Y376041D01*
X523807Y376226D01*
X523866Y376418D01*
X523866Y376422D01*
X523867Y376427D01*
X523885Y376624D01*
X523904Y376819D01*
X523903Y376823D01*
X523904Y376828D01*
X523882Y377026D01*
X523862Y377219D01*
X523861Y377223D01*
X523860Y377228D01*
X523800Y377417D01*
X523742Y377604D01*
X523740Y377607D01*
X523739Y377612D01*
X523644Y377782D01*
X523549Y377957D01*
X523546Y377960D01*
X523544Y377964D01*
X523418Y378112D01*
X523290Y378265D01*
X523286Y378268D01*
X523283Y378271D01*
X523130Y378392D01*
X522975Y378516D01*
X522971Y378518D01*
X522967Y378521D01*
X522792Y378610D01*
X522617Y378700D01*
X522613Y378701D01*
X522609Y378703D01*
X522417Y378756D01*
X522229Y378809D01*
X522225Y378810D01*
X522221Y378811D01*
X522019Y378826D01*
X521828Y378841D01*
X521824Y378840D01*
X521819Y378840D01*
X521622Y378815D01*
X521428Y378792D01*
X521424Y378791D01*
X521420Y378790D01*
X521236Y378728D01*
X521046Y378665D01*
X521042Y378663D01*
X521038Y378662D01*
X520867Y378564D01*
X520696Y378466D01*
X520693Y378463D01*
X520689Y378461D01*
X520436Y378246D01*
X478993Y336803D01*
X262975Y336803D01*
X262948Y336801D01*
X262921Y336803D01*
X262747Y336781D01*
X262574Y336763D01*
X262549Y336756D01*
X262522Y336752D01*
X262356Y336697D01*
X262189Y336645D01*
X262166Y336632D01*
X262140Y336624D01*
X261989Y336537D01*
X261835Y336453D01*
X261815Y336436D01*
X261791Y336423D01*
X261538Y336208D01*
X139282Y213952D01*
X139277Y213945D01*
X139270Y213940D01*
X139149Y213790D01*
X139027Y213641D01*
X139023Y213633D01*
X139017Y213626D01*
X138928Y213454D01*
X138839Y213285D01*
X138836Y213277D01*
X138832Y213269D01*
X138779Y213083D01*
X138724Y212899D01*
X138723Y212890D01*
X138721Y212882D01*
X138705Y212690D01*
X138687Y212498D01*
X138688Y212489D01*
X138688Y212480D01*
X138710Y212291D01*
X138731Y212098D01*
X138734Y212089D01*
X138735Y212081D01*
X138794Y211899D01*
X138852Y211714D01*
X138857Y211706D01*
X138859Y211698D01*
X138954Y211529D01*
X139047Y211362D01*
X139053Y211355D01*
X139057Y211347D01*
X139183Y211201D01*
X139308Y211055D01*
X139315Y211049D01*
X139320Y211042D01*
X139472Y210925D01*
X139624Y210805D01*
X139632Y210801D01*
X139639Y210796D01*
X139812Y210710D01*
X139982Y210623D01*
X139991Y210620D01*
X139999Y210616D01*
X140186Y210566D01*
X140370Y210515D01*
X140379Y210514D01*
X140388Y210512D01*
X140719Y210485D01*
X144324Y210485D01*
X147288Y209257D01*
X149557Y206988D01*
X150843Y203883D01*
X150848Y203875D01*
X150850Y203866D01*
X150943Y203696D01*
X151034Y203528D01*
X151039Y203521D01*
X151044Y203513D01*
X151168Y203365D01*
X151290Y203217D01*
X151297Y203212D01*
X151303Y203205D01*
X151454Y203085D01*
X151603Y202964D01*
X151610Y202960D01*
X151618Y202954D01*
X151788Y202867D01*
X151959Y202777D01*
X151968Y202774D01*
X151976Y202770D01*
X152158Y202718D01*
X152346Y202663D01*
X152355Y202663D01*
X152363Y202660D01*
X152554Y202645D01*
X152747Y202629D01*
X152756Y202630D01*
X152764Y202629D01*
X152955Y202652D01*
X153147Y202674D01*
X153155Y202677D01*
X153164Y202678D01*
X153345Y202738D01*
X153530Y202797D01*
X153538Y202802D01*
X153546Y202804D01*
X153712Y202899D01*
X153882Y202994D01*
X153888Y202999D01*
X153896Y203004D01*
X154042Y203131D01*
X154187Y203255D01*
X154193Y203262D01*
X154200Y203268D01*
X154317Y203421D01*
X154436Y203572D01*
X154440Y203580D01*
X154445Y203587D01*
X154597Y203883D01*
X155883Y206988D01*
X158152Y209257D01*
X161116Y210485D01*
X164324Y210485D01*
X167288Y209257D01*
X169557Y206988D01*
X170843Y203883D01*
X170848Y203875D01*
X170850Y203866D01*
X170942Y203698D01*
X171034Y203528D01*
X171039Y203521D01*
X171044Y203513D01*
X171167Y203367D01*
X171290Y203217D01*
X171297Y203212D01*
X171303Y203205D01*
X171453Y203085D01*
X171603Y202964D01*
X171611Y202959D01*
X171617Y202954D01*
X171789Y202866D01*
X171959Y202777D01*
X171968Y202774D01*
X171976Y202770D01*
X172161Y202718D01*
X172346Y202663D01*
X172354Y202663D01*
X172363Y202660D01*
X172554Y202645D01*
X172747Y202629D01*
X172756Y202630D01*
X172764Y202629D01*
X172957Y202653D01*
X173147Y202674D01*
X173155Y202677D01*
X173164Y202678D01*
X173349Y202739D01*
X173530Y202797D01*
X173538Y202802D01*
X173546Y202804D01*
X173714Y202900D01*
X173882Y202994D01*
X173888Y202999D01*
X173896Y203004D01*
X174041Y203130D01*
X174187Y203255D01*
X174193Y203262D01*
X174200Y203268D01*
X174317Y203421D01*
X174436Y203572D01*
X174440Y203580D01*
X174445Y203587D01*
X174597Y203883D01*
X175883Y206988D01*
X178152Y209257D01*
X181116Y210485D01*
X184324Y210485D01*
X187288Y209257D01*
X189557Y206988D01*
X190843Y203883D01*
X190848Y203875D01*
X190850Y203866D01*
X190942Y203698D01*
X191034Y203528D01*
X191039Y203521D01*
X191044Y203513D01*
X191167Y203367D01*
X191290Y203217D01*
X191297Y203212D01*
X191303Y203205D01*
X191453Y203085D01*
X191603Y202964D01*
X191611Y202959D01*
X191617Y202954D01*
X191789Y202866D01*
X191959Y202777D01*
X191968Y202774D01*
X191976Y202770D01*
X192161Y202718D01*
X192346Y202663D01*
X192354Y202663D01*
X192363Y202660D01*
X192554Y202645D01*
X192747Y202629D01*
X192756Y202630D01*
X192764Y202629D01*
X192957Y202653D01*
X193147Y202674D01*
X193155Y202677D01*
X193164Y202678D01*
X193349Y202739D01*
X193530Y202797D01*
X193538Y202802D01*
X193546Y202804D01*
X193714Y202900D01*
X193882Y202994D01*
X193888Y202999D01*
X193896Y203004D01*
X194041Y203130D01*
X194187Y203255D01*
X194193Y203262D01*
X194200Y203268D01*
X194317Y203421D01*
X194436Y203572D01*
X194440Y203580D01*
X194445Y203587D01*
X194597Y203883D01*
X195883Y206988D01*
X198152Y209257D01*
X201116Y210485D01*
X204324Y210485D01*
X207288Y209257D01*
X209557Y206988D01*
X210843Y203883D01*
X210848Y203875D01*
X210850Y203866D01*
X210942Y203698D01*
X211034Y203528D01*
X211039Y203521D01*
X211044Y203513D01*
X211167Y203367D01*
X211290Y203217D01*
X211297Y203212D01*
X211303Y203205D01*
X211453Y203085D01*
X211603Y202964D01*
X211611Y202959D01*
X211617Y202954D01*
X211789Y202866D01*
X211959Y202777D01*
X211968Y202774D01*
X211976Y202770D01*
X212161Y202718D01*
X212346Y202663D01*
X212354Y202663D01*
X212363Y202660D01*
X212554Y202645D01*
X212747Y202629D01*
X212756Y202630D01*
X212764Y202629D01*
X212957Y202653D01*
X213147Y202674D01*
X213155Y202677D01*
X213164Y202678D01*
X213349Y202739D01*
X213530Y202797D01*
X213538Y202802D01*
X213546Y202804D01*
X213714Y202900D01*
X213882Y202994D01*
X213888Y202999D01*
X213896Y203004D01*
X214041Y203130D01*
X214187Y203255D01*
X214193Y203262D01*
X214200Y203268D01*
X214317Y203421D01*
X214436Y203572D01*
X214440Y203580D01*
X214445Y203587D01*
X214597Y203883D01*
X215883Y206988D01*
X218152Y209257D01*
X221116Y210485D01*
X224324Y210485D01*
X227288Y209257D01*
X229557Y206988D01*
X230843Y203883D01*
X230848Y203875D01*
X230850Y203866D01*
X230942Y203698D01*
X231034Y203528D01*
X231039Y203521D01*
X231044Y203513D01*
X231167Y203367D01*
X231290Y203217D01*
X231297Y203212D01*
X231303Y203205D01*
X231453Y203085D01*
X231603Y202964D01*
X231611Y202959D01*
X231617Y202954D01*
X231789Y202866D01*
X231959Y202777D01*
X231968Y202774D01*
X231976Y202770D01*
X232161Y202718D01*
X232346Y202663D01*
X232354Y202663D01*
X232363Y202660D01*
X232554Y202645D01*
X232747Y202629D01*
X232756Y202630D01*
X232764Y202629D01*
X232957Y202653D01*
X233147Y202674D01*
X233155Y202677D01*
X233164Y202678D01*
X233349Y202739D01*
X233530Y202797D01*
X233538Y202802D01*
X233546Y202804D01*
X233714Y202900D01*
X233882Y202994D01*
X233888Y202999D01*
X233896Y203004D01*
X234041Y203130D01*
X234187Y203255D01*
X234193Y203262D01*
X234200Y203268D01*
X234317Y203421D01*
X234436Y203572D01*
X234440Y203580D01*
X234445Y203587D01*
X234597Y203883D01*
X235883Y206988D01*
X238152Y209257D01*
X241116Y210485D01*
X244324Y210485D01*
X247288Y209257D01*
X249557Y206988D01*
X250308Y205176D01*
X250350Y205098D01*
X250383Y205015D01*
X250444Y204921D01*
X250498Y204821D01*
X250554Y204753D01*
X250603Y204678D01*
X250682Y204598D01*
X250754Y204511D01*
X250823Y204455D01*
X250885Y204392D01*
X250979Y204328D01*
X251067Y204257D01*
X251145Y204216D01*
X251219Y204166D01*
X251323Y204122D01*
X251423Y204070D01*
X251509Y204045D01*
X251591Y204011D01*
X251701Y203989D01*
X251810Y203957D01*
X251898Y203949D01*
X251985Y203932D01*
X252098Y203932D01*
X252211Y203922D01*
X252299Y203932D01*
X252388Y203932D01*
X252498Y203955D01*
X252611Y203967D01*
X252696Y203995D01*
X252783Y204012D01*
X252887Y204056D01*
X252994Y204091D01*
X253072Y204134D01*
X253154Y204168D01*
X253247Y204232D01*
X253346Y204287D01*
X253413Y204345D01*
X253487Y204395D01*
X253566Y204475D01*
X253652Y204549D01*
X253706Y204619D01*
X253769Y204682D01*
X253830Y204777D01*
X253900Y204866D01*
X253940Y204945D01*
X253988Y205020D01*
X254043Y205150D01*
X254081Y205226D01*
X254093Y205270D01*
X254116Y205326D01*
X254305Y205906D01*
X254953Y207179D01*
X255794Y208336D01*
X256804Y209346D01*
X257961Y210187D01*
X259234Y210835D01*
X260594Y211277D01*
X260689Y211292D01*
X260689Y202420D01*
X260689Y193548D01*
X260594Y193563D01*
X259234Y194005D01*
X257961Y194653D01*
X256804Y195494D01*
X255794Y196504D01*
X254953Y197661D01*
X254305Y198934D01*
X254116Y199514D01*
X254080Y199596D01*
X254054Y199680D01*
X254000Y199780D01*
X253954Y199883D01*
X253903Y199956D01*
X253861Y200034D01*
X253788Y200120D01*
X253723Y200213D01*
X253659Y200274D01*
X253602Y200342D01*
X253513Y200412D01*
X253431Y200490D01*
X253356Y200537D01*
X253287Y200593D01*
X253186Y200644D01*
X253091Y200704D01*
X253008Y200736D01*
X252929Y200777D01*
X252820Y200807D01*
X252714Y200848D01*
X252627Y200862D01*
X252541Y200886D01*
X252429Y200895D01*
X252317Y200914D01*
X252228Y200911D01*
X252140Y200917D01*
X252028Y200904D01*
X251915Y200900D01*
X251828Y200879D01*
X251740Y200869D01*
X251633Y200833D01*
X251523Y200807D01*
X251442Y200770D01*
X251358Y200742D01*
X251260Y200686D01*
X251157Y200639D01*
X251085Y200587D01*
X251008Y200543D01*
X250923Y200469D01*
X250832Y200402D01*
X250772Y200337D01*
X250705Y200278D01*
X250636Y200189D01*
X250559Y200105D01*
X250513Y200030D01*
X250459Y199959D01*
X250395Y199833D01*
X250351Y199761D01*
X250335Y199718D01*
X250308Y199664D01*
X249557Y197852D01*
X247288Y195583D01*
X244324Y194355D01*
X241116Y194355D01*
X238152Y195583D01*
X235883Y197852D01*
X234597Y200957D01*
X234592Y200965D01*
X234590Y200974D01*
X234497Y201142D01*
X234406Y201312D01*
X234401Y201319D01*
X234396Y201327D01*
X234272Y201475D01*
X234150Y201623D01*
X234143Y201628D01*
X234137Y201635D01*
X233986Y201755D01*
X233837Y201876D01*
X233830Y201880D01*
X233822Y201886D01*
X233652Y201973D01*
X233481Y202063D01*
X233472Y202066D01*
X233464Y202070D01*
X233282Y202122D01*
X233094Y202177D01*
X233085Y202177D01*
X233077Y202180D01*
X232886Y202195D01*
X232693Y202211D01*
X232684Y202210D01*
X232676Y202211D01*
X232485Y202188D01*
X232293Y202166D01*
X232285Y202163D01*
X232276Y202162D01*
X232095Y202102D01*
X231910Y202043D01*
X231902Y202038D01*
X231894Y202036D01*
X231728Y201941D01*
X231558Y201846D01*
X231552Y201841D01*
X231544Y201836D01*
X231398Y201709D01*
X231253Y201585D01*
X231247Y201578D01*
X231240Y201572D01*
X231123Y201419D01*
X231004Y201268D01*
X231000Y201260D01*
X230995Y201253D01*
X230843Y200957D01*
X229557Y197852D01*
X227288Y195583D01*
X224324Y194355D01*
X221116Y194355D01*
X218152Y195583D01*
X215883Y197852D01*
X214597Y200957D01*
X214592Y200965D01*
X214590Y200974D01*
X214497Y201142D01*
X214406Y201312D01*
X214401Y201319D01*
X214396Y201327D01*
X214272Y201475D01*
X214150Y201623D01*
X214143Y201628D01*
X214137Y201635D01*
X213986Y201755D01*
X213837Y201876D01*
X213830Y201880D01*
X213822Y201886D01*
X213652Y201973D01*
X213481Y202063D01*
X213472Y202066D01*
X213464Y202070D01*
X213282Y202122D01*
X213094Y202177D01*
X213085Y202177D01*
X213077Y202180D01*
X212886Y202195D01*
X212693Y202211D01*
X212684Y202210D01*
X212676Y202211D01*
X212485Y202188D01*
X212293Y202166D01*
X212285Y202163D01*
X212276Y202162D01*
X212095Y202102D01*
X211910Y202043D01*
X211902Y202038D01*
X211894Y202036D01*
X211728Y201941D01*
X211558Y201846D01*
X211552Y201841D01*
X211544Y201836D01*
X211398Y201709D01*
X211253Y201585D01*
X211247Y201578D01*
X211240Y201572D01*
X211123Y201419D01*
X211004Y201268D01*
X211000Y201260D01*
X210995Y201253D01*
X210843Y200957D01*
X209557Y197852D01*
X207288Y195583D01*
X204324Y194355D01*
X201116Y194355D01*
X198152Y195583D01*
X195883Y197852D01*
X194597Y200957D01*
X194592Y200965D01*
X194590Y200974D01*
X194497Y201142D01*
X194406Y201312D01*
X194401Y201319D01*
X194396Y201327D01*
X194272Y201475D01*
X194150Y201623D01*
X194143Y201628D01*
X194137Y201635D01*
X193986Y201755D01*
X193837Y201876D01*
X193830Y201880D01*
X193822Y201886D01*
X193652Y201973D01*
X193481Y202063D01*
X193472Y202066D01*
X193464Y202070D01*
X193282Y202122D01*
X193094Y202177D01*
X193085Y202177D01*
X193077Y202180D01*
X192886Y202195D01*
X192693Y202211D01*
X192684Y202210D01*
X192676Y202211D01*
X192485Y202188D01*
X192293Y202166D01*
X192285Y202163D01*
X192276Y202162D01*
X192095Y202102D01*
X191910Y202043D01*
X191902Y202038D01*
X191894Y202036D01*
X191728Y201941D01*
X191558Y201846D01*
X191552Y201841D01*
X191544Y201836D01*
X191398Y201709D01*
X191253Y201585D01*
X191247Y201578D01*
X191240Y201572D01*
X191123Y201419D01*
X191004Y201268D01*
X191000Y201260D01*
X190995Y201253D01*
X190843Y200957D01*
X189557Y197852D01*
X187288Y195583D01*
X184324Y194355D01*
X180852Y194355D01*
X180843Y194354D01*
X180834Y194355D01*
X180642Y194334D01*
X180451Y194315D01*
X180443Y194313D01*
X180434Y194312D01*
X180251Y194254D01*
X180066Y194197D01*
X180058Y194193D01*
X180050Y194190D01*
X179881Y194097D01*
X179712Y194005D01*
X179705Y194000D01*
X179697Y193995D01*
X179551Y193871D01*
X179403Y193748D01*
X179397Y193741D01*
X179390Y193735D01*
X179271Y193584D01*
X179151Y193434D01*
X179146Y193426D01*
X179141Y193419D01*
X179053Y193246D01*
X178965Y193077D01*
X178963Y193068D01*
X178959Y193060D01*
X178907Y192874D01*
X178854Y192690D01*
X178853Y192681D01*
X178851Y192672D01*
X178836Y192479D01*
X178821Y192288D01*
X178822Y192280D01*
X178821Y192271D01*
X178845Y192078D01*
X178868Y191889D01*
X178870Y191880D01*
X178872Y191871D01*
X178933Y191688D01*
X178993Y191506D01*
X178997Y191498D01*
X179000Y191490D01*
X179096Y191323D01*
X179190Y191155D01*
X179196Y191148D01*
X179201Y191141D01*
X179415Y190888D01*
X183057Y187247D01*
X184913Y182765D01*
X184913Y144616D01*
X184915Y144598D01*
X184913Y144580D01*
X184934Y144398D01*
X184953Y144215D01*
X184958Y144198D01*
X184960Y144181D01*
X185017Y144006D01*
X185071Y143830D01*
X185079Y143815D01*
X185085Y143798D01*
X185175Y143638D01*
X185263Y143476D01*
X185274Y143463D01*
X185283Y143447D01*
X185403Y143308D01*
X185520Y143167D01*
X185534Y143156D01*
X185546Y143142D01*
X185691Y143030D01*
X185834Y142915D01*
X185850Y142907D01*
X185864Y142896D01*
X186029Y142814D01*
X186191Y142729D01*
X186208Y142724D01*
X186224Y142716D01*
X186403Y142669D01*
X186578Y142618D01*
X186596Y142616D01*
X186613Y142612D01*
X186944Y142585D01*
X221072Y142585D01*
X221965Y141692D01*
X221965Y124428D01*
X221072Y123535D01*
X186944Y123535D01*
X186926Y123533D01*
X186908Y123535D01*
X186726Y123514D01*
X186543Y123495D01*
X186526Y123490D01*
X186509Y123488D01*
X186334Y123431D01*
X186158Y123377D01*
X186143Y123369D01*
X186126Y123363D01*
X185966Y123273D01*
X185804Y123185D01*
X185791Y123174D01*
X185775Y123165D01*
X185636Y123045D01*
X185495Y122928D01*
X185484Y122914D01*
X185470Y122902D01*
X185358Y122757D01*
X185243Y122614D01*
X185235Y122598D01*
X185224Y122584D01*
X185142Y122419D01*
X185057Y122257D01*
X185052Y122240D01*
X185044Y122224D01*
X184997Y122045D01*
X184946Y121870D01*
X184944Y121852D01*
X184940Y121835D01*
X184913Y121504D01*
X184913Y76616D01*
X184915Y76598D01*
X184913Y76580D01*
X184934Y76398D01*
X184953Y76215D01*
X184958Y76198D01*
X184960Y76181D01*
X185017Y76006D01*
X185071Y75830D01*
X185079Y75815D01*
X185085Y75798D01*
X185175Y75638D01*
X185263Y75476D01*
X185274Y75463D01*
X185283Y75447D01*
X185403Y75308D01*
X185520Y75167D01*
X185534Y75156D01*
X185546Y75142D01*
X185691Y75030D01*
X185834Y74915D01*
X185850Y74907D01*
X185864Y74896D01*
X186029Y74814D01*
X186191Y74729D01*
X186208Y74724D01*
X186224Y74716D01*
X186403Y74669D01*
X186578Y74618D01*
X186596Y74616D01*
X186613Y74612D01*
X186944Y74585D01*
X221072Y74585D01*
X221965Y73692D01*
X221965Y56428D01*
X221072Y55535D01*
X186944Y55535D01*
X186926Y55533D01*
X186908Y55535D01*
X186726Y55514D01*
X186543Y55495D01*
X186526Y55490D01*
X186509Y55488D01*
X186334Y55431D01*
X186158Y55377D01*
X186143Y55369D01*
X186126Y55363D01*
X185966Y55273D01*
X185804Y55185D01*
X185791Y55174D01*
X185775Y55165D01*
X185636Y55045D01*
X185495Y54928D01*
X185484Y54914D01*
X185470Y54902D01*
X185358Y54757D01*
X185243Y54614D01*
X185235Y54598D01*
X185224Y54584D01*
X185142Y54419D01*
X185057Y54257D01*
X185052Y54240D01*
X185044Y54224D01*
X184997Y54045D01*
X184946Y53870D01*
X184944Y53852D01*
X184940Y53835D01*
X184913Y53504D01*
X184913Y21844D01*
X184915Y21826D01*
X184913Y21808D01*
X184934Y21626D01*
X184953Y21443D01*
X184958Y21426D01*
X184960Y21409D01*
X185017Y21234D01*
X185071Y21058D01*
X185079Y21043D01*
X185085Y21026D01*
X185175Y20866D01*
X185263Y20704D01*
X185274Y20691D01*
X185283Y20675D01*
X185403Y20536D01*
X185520Y20395D01*
X185534Y20384D01*
X185546Y20370D01*
X185691Y20258D01*
X185834Y20143D01*
X185850Y20135D01*
X185864Y20124D01*
X186029Y20042D01*
X186191Y19957D01*
X186208Y19952D01*
X186224Y19944D01*
X186403Y19897D01*
X186578Y19846D01*
X186596Y19844D01*
X186613Y19840D01*
X186944Y19813D01*
X277448Y19813D01*
X277466Y19815D01*
G37*
G36*
X760766Y307894D02*
X760766Y307894D01*
X760774Y307893D01*
X760966Y307916D01*
X761157Y307938D01*
X761165Y307940D01*
X761174Y307941D01*
X761357Y308002D01*
X761540Y308061D01*
X761548Y308065D01*
X761556Y308068D01*
X761723Y308163D01*
X761892Y308257D01*
X761898Y308263D01*
X761906Y308267D01*
X762050Y308393D01*
X762197Y308519D01*
X762203Y308526D01*
X762210Y308532D01*
X762327Y308684D01*
X762446Y308836D01*
X762450Y308844D01*
X762455Y308851D01*
X762607Y309146D01*
X763955Y312401D01*
X767099Y315545D01*
X771207Y317247D01*
X774192Y317247D01*
X774210Y317249D01*
X774228Y317247D01*
X774410Y317268D01*
X774593Y317287D01*
X774610Y317292D01*
X774627Y317294D01*
X774802Y317351D01*
X774978Y317405D01*
X774993Y317413D01*
X775010Y317419D01*
X775170Y317509D01*
X775332Y317597D01*
X775345Y317608D01*
X775361Y317617D01*
X775500Y317737D01*
X775641Y317854D01*
X775652Y317868D01*
X775666Y317880D01*
X775778Y318025D01*
X775893Y318168D01*
X775901Y318184D01*
X775912Y318198D01*
X775994Y318363D01*
X776079Y318525D01*
X776084Y318542D01*
X776092Y318558D01*
X776139Y318736D01*
X776190Y318912D01*
X776192Y318930D01*
X776196Y318947D01*
X776223Y319278D01*
X776223Y401407D01*
X776221Y401429D01*
X776223Y401451D01*
X776201Y401629D01*
X776183Y401807D01*
X776177Y401829D01*
X776174Y401851D01*
X776118Y402021D01*
X776065Y402192D01*
X776055Y402212D01*
X776048Y402233D01*
X775958Y402389D01*
X775873Y402546D01*
X775859Y402564D01*
X775848Y402583D01*
X775730Y402719D01*
X775616Y402856D01*
X775598Y402870D01*
X775584Y402887D01*
X775441Y402996D01*
X775302Y403108D01*
X775282Y403118D01*
X775264Y403132D01*
X775261Y403134D01*
X772943Y405452D01*
X771715Y408416D01*
X771715Y424704D01*
X772943Y427668D01*
X775212Y429937D01*
X778176Y431165D01*
X781384Y431165D01*
X784348Y429937D01*
X784440Y429846D01*
X784447Y429840D01*
X784452Y429833D01*
X784602Y429713D01*
X784751Y429590D01*
X784759Y429586D01*
X784766Y429581D01*
X784936Y429492D01*
X785107Y429402D01*
X785115Y429399D01*
X785123Y429395D01*
X785309Y429342D01*
X785493Y429287D01*
X785502Y429286D01*
X785510Y429284D01*
X785702Y429268D01*
X785894Y429251D01*
X785903Y429252D01*
X785912Y429251D01*
X786102Y429273D01*
X786294Y429294D01*
X786303Y429297D01*
X786311Y429298D01*
X786494Y429357D01*
X786678Y429416D01*
X786686Y429420D01*
X786694Y429423D01*
X786861Y429517D01*
X787030Y429610D01*
X787037Y429616D01*
X787045Y429621D01*
X787190Y429746D01*
X787337Y429871D01*
X787343Y429878D01*
X787350Y429884D01*
X787467Y430035D01*
X787587Y430187D01*
X787591Y430195D01*
X787596Y430202D01*
X787682Y430374D01*
X787769Y430546D01*
X787772Y430554D01*
X787776Y430562D01*
X787826Y430750D01*
X787877Y430934D01*
X787878Y430942D01*
X787880Y430951D01*
X787907Y431282D01*
X787907Y554238D01*
X787906Y554247D01*
X787907Y554256D01*
X787886Y554447D01*
X787867Y554639D01*
X787865Y554647D01*
X787864Y554656D01*
X787806Y554839D01*
X787749Y555024D01*
X787745Y555032D01*
X787742Y555040D01*
X787649Y555209D01*
X787557Y555378D01*
X787552Y555385D01*
X787547Y555392D01*
X787422Y555541D01*
X787300Y555687D01*
X787293Y555693D01*
X787287Y555699D01*
X787136Y555819D01*
X786986Y555939D01*
X786978Y555943D01*
X786971Y555949D01*
X786799Y556036D01*
X786629Y556125D01*
X786620Y556127D01*
X786612Y556131D01*
X786426Y556183D01*
X786242Y556236D01*
X786233Y556237D01*
X786224Y556239D01*
X786032Y556253D01*
X785840Y556269D01*
X785832Y556268D01*
X785823Y556269D01*
X785631Y556244D01*
X785441Y556222D01*
X785432Y556219D01*
X785423Y556218D01*
X785242Y556157D01*
X785058Y556097D01*
X785050Y556093D01*
X785042Y556090D01*
X784876Y555995D01*
X784707Y555899D01*
X784700Y555894D01*
X784693Y555889D01*
X784440Y555674D01*
X784348Y555583D01*
X781384Y554355D01*
X778176Y554355D01*
X775212Y555583D01*
X772943Y557852D01*
X771715Y560816D01*
X771715Y577104D01*
X772943Y580068D01*
X775212Y582337D01*
X778176Y583565D01*
X781384Y583565D01*
X784348Y582337D01*
X784440Y582246D01*
X784447Y582240D01*
X784452Y582233D01*
X784602Y582113D01*
X784751Y581990D01*
X784759Y581986D01*
X784766Y581981D01*
X784936Y581892D01*
X785107Y581802D01*
X785115Y581799D01*
X785123Y581795D01*
X785309Y581742D01*
X785493Y581687D01*
X785502Y581686D01*
X785510Y581684D01*
X785702Y581668D01*
X785894Y581651D01*
X785903Y581652D01*
X785912Y581651D01*
X786102Y581673D01*
X786294Y581694D01*
X786303Y581697D01*
X786311Y581698D01*
X786494Y581757D01*
X786678Y581816D01*
X786686Y581820D01*
X786694Y581823D01*
X786861Y581917D01*
X787030Y582010D01*
X787037Y582016D01*
X787045Y582021D01*
X787190Y582146D01*
X787337Y582271D01*
X787343Y582278D01*
X787350Y582284D01*
X787466Y582433D01*
X787587Y582587D01*
X787591Y582595D01*
X787596Y582602D01*
X787682Y582774D01*
X787769Y582946D01*
X787772Y582954D01*
X787776Y582962D01*
X787826Y583150D01*
X787877Y583334D01*
X787878Y583342D01*
X787880Y583351D01*
X787907Y583682D01*
X787907Y608076D01*
X787905Y608094D01*
X787907Y608112D01*
X787886Y608294D01*
X787867Y608477D01*
X787862Y608494D01*
X787860Y608511D01*
X787803Y608686D01*
X787749Y608862D01*
X787741Y608877D01*
X787735Y608894D01*
X787645Y609054D01*
X787557Y609216D01*
X787546Y609229D01*
X787537Y609245D01*
X787417Y609384D01*
X787300Y609525D01*
X787286Y609536D01*
X787274Y609550D01*
X787129Y609662D01*
X786986Y609777D01*
X786970Y609785D01*
X786956Y609796D01*
X786791Y609878D01*
X786629Y609963D01*
X786612Y609968D01*
X786596Y609976D01*
X786417Y610023D01*
X786242Y610074D01*
X786224Y610076D01*
X786207Y610080D01*
X785876Y610107D01*
X732285Y610107D01*
X732117Y610091D01*
X731949Y610079D01*
X731917Y610071D01*
X731884Y610067D01*
X731723Y610018D01*
X731561Y609974D01*
X731531Y609959D01*
X731499Y609949D01*
X731351Y609869D01*
X731201Y609794D01*
X731174Y609773D01*
X731145Y609757D01*
X731016Y609650D01*
X730883Y609546D01*
X730861Y609521D01*
X730836Y609500D01*
X730731Y609369D01*
X730621Y609241D01*
X730604Y609212D01*
X730583Y609186D01*
X730506Y609037D01*
X730424Y608890D01*
X730413Y608858D01*
X730398Y608829D01*
X730351Y608667D01*
X730300Y608507D01*
X730296Y608474D01*
X730287Y608442D01*
X730273Y608274D01*
X730254Y608107D01*
X730256Y608074D01*
X730254Y608040D01*
X730273Y607873D01*
X730287Y607706D01*
X730297Y607674D01*
X730301Y607641D01*
X730353Y607480D01*
X730400Y607319D01*
X730415Y607290D01*
X730425Y607258D01*
X730508Y607111D01*
X730586Y606962D01*
X730607Y606936D01*
X730623Y606907D01*
X730733Y606780D01*
X730839Y606649D01*
X730867Y606625D01*
X730887Y606603D01*
X730955Y606550D01*
X731091Y606433D01*
X731678Y606006D01*
X733006Y604678D01*
X734111Y603157D01*
X734964Y601483D01*
X735545Y599696D01*
X735585Y599439D01*
X724408Y599439D01*
X724390Y599437D01*
X724373Y599439D01*
X724190Y599418D01*
X724008Y599399D01*
X723991Y599394D01*
X723973Y599392D01*
X723798Y599335D01*
X723623Y599281D01*
X723607Y599273D01*
X723590Y599267D01*
X723430Y599177D01*
X723269Y599089D01*
X723255Y599078D01*
X723239Y599069D01*
X723100Y598949D01*
X722959Y598832D01*
X722948Y598818D01*
X722935Y598806D01*
X722822Y598661D01*
X722707Y598518D01*
X722699Y598502D01*
X722688Y598488D01*
X722606Y598323D01*
X722522Y598161D01*
X722517Y598144D01*
X722509Y598128D01*
X722461Y597949D01*
X722410Y597774D01*
X722409Y597756D01*
X722404Y597739D01*
X722377Y597408D01*
X722377Y596392D01*
X722379Y596374D01*
X722377Y596356D01*
X722399Y596174D01*
X722417Y595991D01*
X722422Y595974D01*
X722424Y595957D01*
X722481Y595782D01*
X722535Y595606D01*
X722543Y595591D01*
X722549Y595574D01*
X722639Y595414D01*
X722727Y595252D01*
X722738Y595239D01*
X722747Y595223D01*
X722867Y595084D01*
X722985Y594943D01*
X722998Y594932D01*
X723010Y594918D01*
X723155Y594806D01*
X723298Y594691D01*
X723314Y594683D01*
X723328Y594672D01*
X723493Y594590D01*
X723656Y594505D01*
X723673Y594500D01*
X723689Y594492D01*
X723867Y594444D01*
X724042Y594394D01*
X724060Y594392D01*
X724077Y594388D01*
X724408Y594361D01*
X735585Y594361D01*
X735545Y594104D01*
X734964Y592317D01*
X734111Y590643D01*
X733006Y589122D01*
X731678Y587794D01*
X730508Y586944D01*
X730379Y586829D01*
X730247Y586718D01*
X730229Y586695D01*
X730207Y586676D01*
X730103Y586538D01*
X729996Y586403D01*
X729983Y586377D01*
X729965Y586354D01*
X729890Y586198D01*
X729812Y586045D01*
X729804Y586017D01*
X729791Y585991D01*
X729749Y585823D01*
X729702Y585657D01*
X729700Y585629D01*
X729693Y585601D01*
X729684Y585428D01*
X729671Y585256D01*
X729674Y585227D01*
X729673Y585198D01*
X729699Y585028D01*
X729720Y584856D01*
X729729Y584829D01*
X729733Y584800D01*
X729792Y584638D01*
X729846Y584474D01*
X729860Y584449D01*
X729870Y584422D01*
X729960Y584274D01*
X730046Y584124D01*
X730065Y584102D01*
X730080Y584078D01*
X730196Y583951D01*
X730310Y583821D01*
X730333Y583803D01*
X730353Y583782D01*
X730492Y583681D01*
X730629Y583575D01*
X730658Y583561D01*
X730679Y583546D01*
X730756Y583510D01*
X730924Y583424D01*
X733548Y582337D01*
X735817Y580068D01*
X737045Y577104D01*
X737045Y560816D01*
X735817Y557852D01*
X733630Y555664D01*
X733624Y555657D01*
X733617Y555652D01*
X733497Y555502D01*
X733374Y555353D01*
X733370Y555345D01*
X733365Y555338D01*
X733276Y555167D01*
X733186Y554997D01*
X733183Y554988D01*
X733179Y554981D01*
X733126Y554796D01*
X733071Y554611D01*
X733070Y554602D01*
X733068Y554594D01*
X733052Y554403D01*
X733035Y554210D01*
X733036Y554201D01*
X733035Y554192D01*
X733057Y554003D01*
X733078Y553810D01*
X733081Y553801D01*
X733082Y553793D01*
X733141Y553611D01*
X733200Y553426D01*
X733204Y553418D01*
X733207Y553410D01*
X733302Y553241D01*
X733394Y553074D01*
X733400Y553067D01*
X733405Y553059D01*
X733531Y552913D01*
X733655Y552767D01*
X733662Y552761D01*
X733668Y552754D01*
X733819Y552637D01*
X733971Y552517D01*
X733979Y552513D01*
X733986Y552508D01*
X734158Y552422D01*
X734330Y552335D01*
X734338Y552332D01*
X734346Y552328D01*
X734532Y552278D01*
X734718Y552227D01*
X734727Y552226D01*
X734735Y552224D01*
X735066Y552197D01*
X746985Y552197D01*
X747012Y552199D01*
X747039Y552197D01*
X747213Y552219D01*
X747386Y552237D01*
X747411Y552244D01*
X747438Y552248D01*
X747604Y552303D01*
X747771Y552355D01*
X747794Y552368D01*
X747820Y552376D01*
X747971Y552463D01*
X748125Y552547D01*
X748145Y552564D01*
X748169Y552577D01*
X748422Y552792D01*
X749076Y553446D01*
X749087Y553460D01*
X749101Y553471D01*
X749215Y553616D01*
X749331Y553758D01*
X749339Y553773D01*
X749351Y553787D01*
X749434Y553951D01*
X749520Y554113D01*
X749525Y554130D01*
X749533Y554146D01*
X749582Y554324D01*
X749635Y554499D01*
X749636Y554517D01*
X749641Y554534D01*
X749654Y554717D01*
X749671Y554900D01*
X749669Y554918D01*
X749670Y554936D01*
X749647Y555118D01*
X749628Y555300D01*
X749622Y555317D01*
X749620Y555335D01*
X749562Y555508D01*
X749506Y555684D01*
X749497Y555700D01*
X749492Y555717D01*
X749400Y555876D01*
X749311Y556037D01*
X749300Y556050D01*
X749291Y556066D01*
X749076Y556319D01*
X747543Y557852D01*
X746315Y560816D01*
X746315Y577104D01*
X747543Y580068D01*
X749812Y582337D01*
X752776Y583565D01*
X755984Y583565D01*
X758948Y582337D01*
X761217Y580068D01*
X762445Y577104D01*
X762445Y560816D01*
X761217Y557852D01*
X758885Y555520D01*
X758836Y555493D01*
X758819Y555479D01*
X758799Y555468D01*
X758663Y555351D01*
X758526Y555237D01*
X758511Y555220D01*
X758494Y555205D01*
X758385Y555064D01*
X758272Y554924D01*
X758261Y554905D01*
X758248Y554887D01*
X758168Y554727D01*
X758085Y554568D01*
X758078Y554546D01*
X758068Y554526D01*
X758022Y554353D01*
X757972Y554182D01*
X757970Y554159D01*
X757964Y554138D01*
X757937Y553807D01*
X757937Y552247D01*
X750773Y545083D01*
X591530Y545083D01*
X591503Y545081D01*
X591476Y545083D01*
X591302Y545061D01*
X591129Y545043D01*
X591103Y545036D01*
X591077Y545032D01*
X590911Y544977D01*
X590744Y544925D01*
X590720Y544912D01*
X590695Y544904D01*
X590543Y544817D01*
X590390Y544733D01*
X590369Y544716D01*
X590346Y544703D01*
X590093Y544488D01*
X589746Y544141D01*
X587796Y543333D01*
X585684Y543333D01*
X583734Y544141D01*
X583604Y544271D01*
X583597Y544277D01*
X583592Y544283D01*
X583442Y544403D01*
X583293Y544526D01*
X583285Y544530D01*
X583278Y544536D01*
X583108Y544624D01*
X582937Y544715D01*
X582929Y544717D01*
X582921Y544721D01*
X582735Y544775D01*
X582551Y544829D01*
X582542Y544830D01*
X582534Y544833D01*
X582342Y544848D01*
X582150Y544866D01*
X582141Y544865D01*
X582132Y544865D01*
X581942Y544843D01*
X581750Y544822D01*
X581741Y544820D01*
X581733Y544819D01*
X581549Y544759D01*
X581366Y544701D01*
X581358Y544697D01*
X581350Y544694D01*
X581181Y544599D01*
X581014Y544506D01*
X581007Y544500D01*
X580999Y544496D01*
X580854Y544370D01*
X580707Y544246D01*
X580701Y544238D01*
X580694Y544233D01*
X580577Y544082D01*
X580457Y543930D01*
X580453Y543922D01*
X580448Y543915D01*
X580362Y543742D01*
X580275Y543571D01*
X580272Y543562D01*
X580268Y543554D01*
X580218Y543367D01*
X580167Y543183D01*
X580166Y543174D01*
X580164Y543165D01*
X580137Y542835D01*
X580137Y473507D01*
X579908Y473278D01*
X579899Y473267D01*
X579889Y473259D01*
X579772Y473112D01*
X579653Y472966D01*
X579646Y472954D01*
X579638Y472944D01*
X579551Y472775D01*
X579464Y472610D01*
X579460Y472598D01*
X579454Y472586D01*
X579403Y472404D01*
X579349Y472225D01*
X579348Y472211D01*
X579344Y472198D01*
X579330Y472013D01*
X579313Y471824D01*
X579314Y471810D01*
X579313Y471797D01*
X579336Y471612D01*
X579356Y471423D01*
X579360Y471410D01*
X579362Y471397D01*
X579421Y471220D01*
X579478Y471039D01*
X579484Y471028D01*
X579488Y471015D01*
X579581Y470852D01*
X579673Y470687D01*
X579681Y470677D01*
X579688Y470665D01*
X579811Y470524D01*
X579933Y470380D01*
X579944Y470372D01*
X579952Y470362D01*
X580101Y470247D01*
X580249Y470131D01*
X580261Y470125D01*
X580272Y470116D01*
X580567Y469965D01*
X582126Y469319D01*
X582510Y468935D01*
X582517Y468929D01*
X582522Y468923D01*
X582671Y468803D01*
X582821Y468680D01*
X582829Y468676D01*
X582836Y468670D01*
X583005Y468583D01*
X583177Y468491D01*
X583186Y468489D01*
X583193Y468485D01*
X583377Y468432D01*
X583563Y468377D01*
X583572Y468376D01*
X583580Y468373D01*
X583771Y468358D01*
X583964Y468340D01*
X583973Y468341D01*
X583982Y468341D01*
X584171Y468363D01*
X584364Y468384D01*
X584373Y468386D01*
X584381Y468387D01*
X584564Y468447D01*
X584748Y468505D01*
X584756Y468509D01*
X584764Y468512D01*
X584933Y468607D01*
X585100Y468700D01*
X585107Y468706D01*
X585115Y468710D01*
X585260Y468836D01*
X585407Y468960D01*
X585413Y468968D01*
X585420Y468973D01*
X585537Y469125D01*
X585657Y469276D01*
X585661Y469284D01*
X585666Y469291D01*
X585753Y469465D01*
X585839Y469635D01*
X585842Y469644D01*
X585846Y469652D01*
X585896Y469840D01*
X585947Y470023D01*
X585948Y470032D01*
X585950Y470041D01*
X585977Y470371D01*
X585977Y472073D01*
X587640Y476087D01*
X590713Y479160D01*
X594727Y480823D01*
X599073Y480823D01*
X603087Y479160D01*
X606160Y476087D01*
X607723Y472313D01*
X607728Y472305D01*
X607730Y472296D01*
X607822Y472128D01*
X607914Y471958D01*
X607919Y471951D01*
X607924Y471943D01*
X608048Y471795D01*
X608170Y471647D01*
X608177Y471642D01*
X608183Y471635D01*
X608333Y471515D01*
X608483Y471394D01*
X608491Y471389D01*
X608497Y471384D01*
X608669Y471296D01*
X608839Y471207D01*
X608848Y471204D01*
X608856Y471200D01*
X609041Y471147D01*
X609226Y471093D01*
X609234Y471093D01*
X609243Y471090D01*
X609434Y471075D01*
X609627Y471059D01*
X609636Y471060D01*
X609644Y471059D01*
X609837Y471083D01*
X610027Y471104D01*
X610035Y471107D01*
X610044Y471108D01*
X610229Y471169D01*
X610410Y471227D01*
X610418Y471231D01*
X610426Y471234D01*
X610594Y471330D01*
X610762Y471424D01*
X610768Y471429D01*
X610776Y471434D01*
X610921Y471560D01*
X611067Y471685D01*
X611073Y471692D01*
X611080Y471698D01*
X611197Y471850D01*
X611316Y472002D01*
X611320Y472010D01*
X611325Y472017D01*
X611477Y472313D01*
X613040Y476087D01*
X616113Y479160D01*
X620127Y480823D01*
X624473Y480823D01*
X628487Y479160D01*
X631560Y476087D01*
X633123Y472313D01*
X633128Y472305D01*
X633130Y472296D01*
X633222Y472128D01*
X633314Y471958D01*
X633319Y471951D01*
X633324Y471943D01*
X633448Y471795D01*
X633570Y471647D01*
X633577Y471642D01*
X633583Y471635D01*
X633733Y471515D01*
X633883Y471394D01*
X633891Y471389D01*
X633897Y471384D01*
X634069Y471296D01*
X634239Y471207D01*
X634248Y471204D01*
X634256Y471200D01*
X634441Y471147D01*
X634626Y471093D01*
X634634Y471093D01*
X634643Y471090D01*
X634834Y471075D01*
X635027Y471059D01*
X635036Y471060D01*
X635044Y471059D01*
X635237Y471083D01*
X635427Y471104D01*
X635435Y471107D01*
X635444Y471108D01*
X635629Y471169D01*
X635810Y471227D01*
X635818Y471231D01*
X635826Y471234D01*
X635994Y471330D01*
X636162Y471424D01*
X636168Y471429D01*
X636176Y471434D01*
X636321Y471560D01*
X636467Y471685D01*
X636473Y471692D01*
X636480Y471698D01*
X636597Y471850D01*
X636716Y472002D01*
X636720Y472010D01*
X636725Y472017D01*
X636877Y472313D01*
X638440Y476087D01*
X641513Y479160D01*
X645527Y480823D01*
X649873Y480823D01*
X653887Y479160D01*
X656960Y476087D01*
X658623Y472073D01*
X658623Y467727D01*
X656960Y463713D01*
X653887Y460640D01*
X650113Y459077D01*
X650105Y459072D01*
X650096Y459070D01*
X649927Y458977D01*
X649758Y458886D01*
X649751Y458881D01*
X649743Y458876D01*
X649595Y458752D01*
X649447Y458630D01*
X649442Y458623D01*
X649435Y458617D01*
X649315Y458466D01*
X649194Y458317D01*
X649189Y458310D01*
X649184Y458302D01*
X649097Y458132D01*
X649007Y457961D01*
X649004Y457952D01*
X649000Y457944D01*
X648948Y457762D01*
X648893Y457574D01*
X648893Y457565D01*
X648890Y457557D01*
X648875Y457365D01*
X648859Y457173D01*
X648860Y457164D01*
X648859Y457156D01*
X648882Y456965D01*
X648904Y456773D01*
X648907Y456765D01*
X648908Y456756D01*
X648968Y456575D01*
X649027Y456390D01*
X649032Y456382D01*
X649034Y456374D01*
X649129Y456208D01*
X649224Y456038D01*
X649229Y456032D01*
X649234Y456024D01*
X649361Y455878D01*
X649485Y455733D01*
X649492Y455727D01*
X649498Y455720D01*
X649651Y455603D01*
X649802Y455484D01*
X649810Y455480D01*
X649817Y455475D01*
X650113Y455323D01*
X653887Y453760D01*
X656960Y450687D01*
X658523Y446913D01*
X658528Y446905D01*
X658530Y446896D01*
X658622Y446728D01*
X658714Y446558D01*
X658719Y446551D01*
X658724Y446543D01*
X658847Y446397D01*
X658970Y446247D01*
X658977Y446242D01*
X658983Y446235D01*
X659133Y446115D01*
X659283Y445994D01*
X659291Y445989D01*
X659297Y445984D01*
X659469Y445896D01*
X659639Y445807D01*
X659648Y445804D01*
X659656Y445800D01*
X659841Y445747D01*
X660026Y445693D01*
X660034Y445693D01*
X660043Y445690D01*
X660234Y445675D01*
X660427Y445659D01*
X660436Y445660D01*
X660444Y445659D01*
X660637Y445683D01*
X660827Y445704D01*
X660835Y445707D01*
X660844Y445708D01*
X661029Y445769D01*
X661210Y445827D01*
X661218Y445831D01*
X661226Y445834D01*
X661394Y445930D01*
X661562Y446024D01*
X661568Y446029D01*
X661576Y446034D01*
X661721Y446160D01*
X661867Y446285D01*
X661873Y446292D01*
X661880Y446298D01*
X661997Y446451D01*
X662116Y446602D01*
X662120Y446610D01*
X662125Y446617D01*
X662277Y446913D01*
X663840Y450687D01*
X666913Y453760D01*
X670927Y455423D01*
X675273Y455423D01*
X679287Y453760D01*
X682360Y450687D01*
X683390Y448201D01*
X683432Y448123D01*
X683465Y448040D01*
X683526Y447946D01*
X683580Y447846D01*
X683636Y447778D01*
X683685Y447704D01*
X683764Y447623D01*
X683836Y447536D01*
X683905Y447480D01*
X683967Y447417D01*
X684061Y447353D01*
X684149Y447282D01*
X684227Y447241D01*
X684301Y447191D01*
X684405Y447148D01*
X684505Y447095D01*
X684590Y447070D01*
X684672Y447036D01*
X684783Y447014D01*
X684892Y446982D01*
X684980Y446974D01*
X685067Y446957D01*
X685180Y446957D01*
X685293Y446947D01*
X685381Y446957D01*
X685470Y446957D01*
X685581Y446980D01*
X685693Y446993D01*
X685778Y447020D01*
X685864Y447037D01*
X685969Y447081D01*
X686076Y447116D01*
X686154Y447159D01*
X686236Y447193D01*
X686329Y447257D01*
X686428Y447312D01*
X686495Y447370D01*
X686569Y447420D01*
X686648Y447500D01*
X686734Y447574D01*
X686788Y447644D01*
X686850Y447707D01*
X686912Y447802D01*
X686982Y447891D01*
X687022Y447970D01*
X687070Y448045D01*
X687125Y448175D01*
X687163Y448251D01*
X687175Y448295D01*
X687198Y448351D01*
X687436Y449083D01*
X688289Y450757D01*
X689394Y452278D01*
X690722Y453606D01*
X692243Y454711D01*
X693917Y455564D01*
X694649Y455802D01*
X694730Y455838D01*
X694815Y455864D01*
X694914Y455918D01*
X695018Y455964D01*
X695091Y456015D01*
X695168Y456057D01*
X695255Y456130D01*
X695347Y456195D01*
X695409Y456259D01*
X695477Y456316D01*
X695547Y456405D01*
X695625Y456487D01*
X695672Y456562D01*
X695728Y456631D01*
X695779Y456732D01*
X695839Y456827D01*
X695871Y456911D01*
X695911Y456989D01*
X695942Y457098D01*
X695982Y457204D01*
X695997Y457292D01*
X696021Y457377D01*
X696030Y457489D01*
X696048Y457601D01*
X696045Y457690D01*
X696052Y457778D01*
X696039Y457890D01*
X696035Y458003D01*
X696014Y458090D01*
X696004Y458178D01*
X695968Y458285D01*
X695942Y458395D01*
X695905Y458476D01*
X695877Y458560D01*
X695821Y458658D01*
X695774Y458761D01*
X695722Y458833D01*
X695678Y458910D01*
X695603Y458995D01*
X695537Y459086D01*
X695471Y459147D01*
X695413Y459213D01*
X695324Y459282D01*
X695240Y459359D01*
X695164Y459405D01*
X695094Y459459D01*
X694968Y459523D01*
X694896Y459567D01*
X694853Y459583D01*
X694799Y459610D01*
X692313Y460640D01*
X689240Y463713D01*
X687577Y467727D01*
X687577Y472073D01*
X689240Y476087D01*
X692313Y479160D01*
X696327Y480823D01*
X700673Y480823D01*
X704687Y479160D01*
X707760Y476087D01*
X709423Y472073D01*
X709423Y467727D01*
X707760Y463713D01*
X704687Y460640D01*
X704194Y460436D01*
X702201Y459610D01*
X702123Y459568D01*
X702041Y459535D01*
X701946Y459474D01*
X701846Y459420D01*
X701778Y459364D01*
X701704Y459315D01*
X701623Y459236D01*
X701536Y459164D01*
X701480Y459095D01*
X701417Y459033D01*
X701353Y458939D01*
X701282Y458851D01*
X701241Y458773D01*
X701191Y458699D01*
X701148Y458595D01*
X701095Y458495D01*
X701070Y458409D01*
X701036Y458328D01*
X701014Y458217D01*
X700982Y458108D01*
X700974Y458020D01*
X700957Y457933D01*
X700957Y457820D01*
X700947Y457707D01*
X700957Y457619D01*
X700957Y457530D01*
X700980Y457419D01*
X700993Y457307D01*
X701020Y457223D01*
X701037Y457136D01*
X701081Y457031D01*
X701116Y456924D01*
X701159Y456846D01*
X701193Y456764D01*
X701257Y456671D01*
X701312Y456572D01*
X701370Y456505D01*
X701420Y456431D01*
X701500Y456352D01*
X701574Y456266D01*
X701644Y456212D01*
X701707Y456150D01*
X701802Y456088D01*
X701891Y456018D01*
X701970Y455978D01*
X702045Y455930D01*
X702175Y455875D01*
X702251Y455837D01*
X702295Y455825D01*
X702351Y455802D01*
X703083Y455564D01*
X704757Y454711D01*
X706278Y453606D01*
X707606Y452278D01*
X708711Y450757D01*
X709564Y449083D01*
X709802Y448351D01*
X709838Y448269D01*
X709864Y448185D01*
X709918Y448086D01*
X709964Y447982D01*
X710015Y447909D01*
X710057Y447832D01*
X710130Y447745D01*
X710195Y447653D01*
X710259Y447591D01*
X710316Y447523D01*
X710405Y447453D01*
X710487Y447375D01*
X710562Y447328D01*
X710631Y447272D01*
X710732Y447221D01*
X710827Y447161D01*
X710910Y447129D01*
X710989Y447089D01*
X711098Y447058D01*
X711204Y447018D01*
X711292Y447003D01*
X711377Y446979D01*
X711489Y446970D01*
X711601Y446952D01*
X711690Y446955D01*
X711778Y446948D01*
X711890Y446961D01*
X712003Y446965D01*
X712090Y446986D01*
X712178Y446996D01*
X712285Y447032D01*
X712395Y447058D01*
X712476Y447095D01*
X712560Y447123D01*
X712658Y447179D01*
X712761Y447226D01*
X712833Y447278D01*
X712910Y447322D01*
X712995Y447397D01*
X713086Y447463D01*
X713146Y447528D01*
X713213Y447587D01*
X713282Y447676D01*
X713359Y447760D01*
X713405Y447836D01*
X713459Y447906D01*
X713523Y448032D01*
X713567Y448104D01*
X713583Y448147D01*
X713610Y448201D01*
X714640Y450687D01*
X717713Y453760D01*
X721727Y455423D01*
X726073Y455423D01*
X730087Y453760D01*
X733160Y450687D01*
X734823Y446673D01*
X734823Y442327D01*
X733160Y438313D01*
X730087Y435240D01*
X729683Y435073D01*
X729679Y435071D01*
X729674Y435069D01*
X729501Y434975D01*
X729328Y434882D01*
X729324Y434880D01*
X729320Y434877D01*
X729171Y434753D01*
X729017Y434626D01*
X729015Y434623D01*
X729011Y434620D01*
X728889Y434468D01*
X728764Y434313D01*
X728762Y434309D01*
X728759Y434306D01*
X728670Y434134D01*
X728577Y433957D01*
X728575Y433952D01*
X728573Y433949D01*
X728519Y433760D01*
X728464Y433571D01*
X728463Y433566D01*
X728462Y433562D01*
X728446Y433362D01*
X728429Y433169D01*
X728429Y433165D01*
X728429Y433160D01*
X728452Y432964D01*
X728474Y432769D01*
X728475Y432765D01*
X728476Y432761D01*
X728537Y432574D01*
X728597Y432386D01*
X728599Y432382D01*
X728601Y432378D01*
X728697Y432207D01*
X728794Y432035D01*
X728797Y432031D01*
X728799Y432027D01*
X728926Y431880D01*
X729055Y431729D01*
X729059Y431726D01*
X729062Y431722D01*
X729218Y431601D01*
X729372Y431480D01*
X729376Y431478D01*
X729380Y431476D01*
X729559Y431387D01*
X729732Y431300D01*
X729736Y431298D01*
X729741Y431296D01*
X729935Y431244D01*
X730120Y431193D01*
X730125Y431193D01*
X730129Y431192D01*
X730460Y431165D01*
X730584Y431165D01*
X733548Y429937D01*
X735817Y427668D01*
X737045Y424704D01*
X737045Y408416D01*
X735817Y405452D01*
X733485Y403120D01*
X733436Y403093D01*
X733419Y403079D01*
X733399Y403068D01*
X733263Y402951D01*
X733126Y402837D01*
X733111Y402820D01*
X733094Y402805D01*
X732985Y402664D01*
X732872Y402524D01*
X732861Y402505D01*
X732848Y402487D01*
X732768Y402327D01*
X732685Y402168D01*
X732678Y402146D01*
X732668Y402126D01*
X732622Y401953D01*
X732572Y401782D01*
X732570Y401759D01*
X732564Y401738D01*
X732537Y401407D01*
X732537Y311763D01*
X732540Y311732D01*
X732538Y311701D01*
X732560Y311532D01*
X732577Y311363D01*
X732586Y311333D01*
X732590Y311302D01*
X732691Y310986D01*
X733453Y309146D01*
X733458Y309138D01*
X733460Y309130D01*
X733554Y308959D01*
X733644Y308791D01*
X733649Y308785D01*
X733654Y308777D01*
X733778Y308628D01*
X733900Y308481D01*
X733907Y308475D01*
X733913Y308469D01*
X734064Y308348D01*
X734213Y308227D01*
X734220Y308223D01*
X734228Y308218D01*
X734401Y308128D01*
X734569Y308040D01*
X734578Y308038D01*
X734586Y308034D01*
X734772Y307981D01*
X734956Y307927D01*
X734965Y307926D01*
X734973Y307924D01*
X735164Y307909D01*
X735357Y307893D01*
X735366Y307894D01*
X735374Y307893D01*
X735566Y307916D01*
X735757Y307938D01*
X735765Y307940D01*
X735774Y307941D01*
X735957Y308002D01*
X736140Y308061D01*
X736148Y308065D01*
X736156Y308068D01*
X736323Y308163D01*
X736492Y308257D01*
X736498Y308263D01*
X736506Y308267D01*
X736650Y308393D01*
X736797Y308519D01*
X736803Y308526D01*
X736810Y308532D01*
X736927Y308684D01*
X737046Y308836D01*
X737050Y308844D01*
X737055Y308851D01*
X737207Y309146D01*
X738555Y312401D01*
X741699Y315545D01*
X745807Y317247D01*
X748792Y317247D01*
X748810Y317249D01*
X748828Y317247D01*
X749010Y317268D01*
X749193Y317287D01*
X749210Y317292D01*
X749227Y317294D01*
X749402Y317351D01*
X749578Y317405D01*
X749593Y317413D01*
X749610Y317419D01*
X749770Y317509D01*
X749932Y317597D01*
X749945Y317608D01*
X749961Y317617D01*
X750100Y317737D01*
X750241Y317854D01*
X750252Y317868D01*
X750266Y317880D01*
X750378Y318025D01*
X750493Y318168D01*
X750501Y318184D01*
X750512Y318198D01*
X750594Y318363D01*
X750679Y318525D01*
X750684Y318542D01*
X750692Y318558D01*
X750739Y318736D01*
X750790Y318912D01*
X750792Y318930D01*
X750796Y318947D01*
X750823Y319278D01*
X750823Y401407D01*
X750821Y401429D01*
X750823Y401451D01*
X750801Y401629D01*
X750783Y401807D01*
X750777Y401829D01*
X750774Y401851D01*
X750718Y402021D01*
X750665Y402192D01*
X750655Y402212D01*
X750648Y402233D01*
X750558Y402389D01*
X750473Y402546D01*
X750459Y402564D01*
X750448Y402583D01*
X750330Y402719D01*
X750216Y402856D01*
X750198Y402870D01*
X750184Y402887D01*
X750041Y402996D01*
X749902Y403108D01*
X749882Y403118D01*
X749864Y403132D01*
X749861Y403134D01*
X747543Y405452D01*
X746315Y408416D01*
X746315Y424704D01*
X747543Y427668D01*
X749812Y429937D01*
X752776Y431165D01*
X755984Y431165D01*
X758948Y429937D01*
X761217Y427668D01*
X762445Y424704D01*
X762445Y408416D01*
X761217Y405452D01*
X758885Y403120D01*
X758836Y403093D01*
X758819Y403079D01*
X758799Y403068D01*
X758663Y402951D01*
X758526Y402837D01*
X758511Y402820D01*
X758494Y402805D01*
X758385Y402664D01*
X758272Y402524D01*
X758261Y402505D01*
X758248Y402487D01*
X758168Y402327D01*
X758085Y402168D01*
X758078Y402146D01*
X758068Y402126D01*
X758022Y401953D01*
X757972Y401782D01*
X757970Y401759D01*
X757964Y401738D01*
X757937Y401407D01*
X757937Y311763D01*
X757940Y311732D01*
X757938Y311701D01*
X757960Y311532D01*
X757977Y311363D01*
X757986Y311333D01*
X757990Y311302D01*
X758091Y310986D01*
X758853Y309146D01*
X758858Y309138D01*
X758860Y309130D01*
X758954Y308959D01*
X759044Y308791D01*
X759049Y308785D01*
X759054Y308777D01*
X759178Y308628D01*
X759300Y308481D01*
X759307Y308475D01*
X759313Y308469D01*
X759464Y308348D01*
X759613Y308227D01*
X759620Y308223D01*
X759628Y308218D01*
X759801Y308128D01*
X759969Y308040D01*
X759978Y308038D01*
X759986Y308034D01*
X760172Y307981D01*
X760356Y307927D01*
X760365Y307926D01*
X760373Y307924D01*
X760564Y307909D01*
X760757Y307893D01*
X760766Y307894D01*
G37*
G36*
X112756Y202630D02*
X112756Y202630D01*
X112764Y202629D01*
X112957Y202653D01*
X113147Y202674D01*
X113155Y202677D01*
X113164Y202678D01*
X113349Y202739D01*
X113530Y202797D01*
X113538Y202802D01*
X113546Y202804D01*
X113714Y202900D01*
X113882Y202994D01*
X113888Y202999D01*
X113896Y203004D01*
X114041Y203130D01*
X114187Y203255D01*
X114193Y203262D01*
X114200Y203268D01*
X114317Y203421D01*
X114436Y203572D01*
X114440Y203580D01*
X114445Y203587D01*
X114597Y203883D01*
X115883Y206988D01*
X118152Y209257D01*
X121116Y210485D01*
X124414Y210485D01*
X124467Y210469D01*
X124489Y210467D01*
X124511Y210461D01*
X124691Y210447D01*
X124868Y210431D01*
X124890Y210433D01*
X124912Y210431D01*
X125091Y210454D01*
X125268Y210472D01*
X125290Y210479D01*
X125312Y210482D01*
X125481Y210538D01*
X125653Y210592D01*
X125672Y210603D01*
X125694Y210610D01*
X125849Y210699D01*
X126006Y210785D01*
X126023Y210800D01*
X126042Y210811D01*
X126295Y211025D01*
X256508Y341238D01*
X259187Y343917D01*
X319484Y343917D01*
X319489Y343917D01*
X319493Y343917D01*
X319687Y343937D01*
X319885Y343957D01*
X319889Y343958D01*
X319894Y343958D01*
X320079Y344016D01*
X320270Y344075D01*
X320274Y344077D01*
X320278Y344078D01*
X320450Y344172D01*
X320624Y344267D01*
X320627Y344269D01*
X320631Y344272D01*
X320781Y344397D01*
X320933Y344524D01*
X320936Y344528D01*
X320939Y344531D01*
X321062Y344685D01*
X321185Y344838D01*
X321187Y344842D01*
X321190Y344845D01*
X321281Y345021D01*
X321371Y345195D01*
X321372Y345200D01*
X321374Y345204D01*
X321428Y345392D01*
X321482Y345582D01*
X321483Y345587D01*
X321484Y345591D01*
X321499Y345784D01*
X321515Y345984D01*
X321515Y345988D01*
X321515Y345992D01*
X321492Y346185D01*
X321468Y346383D01*
X321467Y346388D01*
X321466Y346392D01*
X321406Y346575D01*
X321343Y346766D01*
X321341Y346770D01*
X321340Y346774D01*
X321244Y346943D01*
X321146Y347117D01*
X321143Y347120D01*
X321140Y347124D01*
X321011Y347273D01*
X320882Y347421D01*
X320879Y347424D01*
X320876Y347428D01*
X320719Y347548D01*
X320564Y347668D01*
X320560Y347670D01*
X320557Y347673D01*
X320262Y347825D01*
X316005Y349588D01*
X310218Y355375D01*
X307085Y362937D01*
X307085Y371123D01*
X310218Y378685D01*
X316005Y384472D01*
X323567Y387605D01*
X331753Y387605D01*
X339315Y384472D01*
X345102Y378685D01*
X348235Y371123D01*
X348235Y362937D01*
X345102Y355375D01*
X339315Y349588D01*
X335058Y347825D01*
X335055Y347823D01*
X335050Y347821D01*
X334878Y347728D01*
X334704Y347634D01*
X334700Y347632D01*
X334696Y347629D01*
X334547Y347505D01*
X334393Y347378D01*
X334390Y347375D01*
X334387Y347372D01*
X334264Y347219D01*
X334139Y347065D01*
X334137Y347061D01*
X334135Y347058D01*
X334044Y346883D01*
X333952Y346709D01*
X333951Y346705D01*
X333949Y346701D01*
X333895Y346511D01*
X333839Y346322D01*
X333839Y346318D01*
X333838Y346314D01*
X333821Y346116D01*
X333805Y345921D01*
X333805Y345917D01*
X333805Y345912D01*
X333828Y345715D01*
X333850Y345521D01*
X333851Y345517D01*
X333852Y345513D01*
X333913Y345324D01*
X333973Y345138D01*
X333975Y345134D01*
X333977Y345130D01*
X334074Y344957D01*
X334169Y344786D01*
X334172Y344783D01*
X334174Y344779D01*
X334303Y344630D01*
X334431Y344481D01*
X334435Y344478D01*
X334438Y344474D01*
X334592Y344355D01*
X334748Y344232D01*
X334752Y344230D01*
X334756Y344228D01*
X334932Y344140D01*
X335108Y344052D01*
X335112Y344050D01*
X335116Y344048D01*
X335309Y343997D01*
X335496Y343945D01*
X335501Y343945D01*
X335505Y343944D01*
X335836Y343917D01*
X371375Y343917D01*
X371379Y343917D01*
X371384Y343917D01*
X371578Y343937D01*
X371776Y343957D01*
X371780Y343958D01*
X371784Y343958D01*
X371972Y344017D01*
X372160Y344075D01*
X372164Y344077D01*
X372169Y344078D01*
X372343Y344174D01*
X372514Y344267D01*
X372518Y344269D01*
X372522Y344272D01*
X372675Y344400D01*
X372824Y344524D01*
X372826Y344528D01*
X372830Y344531D01*
X372953Y344686D01*
X373076Y344838D01*
X373078Y344842D01*
X373081Y344846D01*
X373173Y345024D01*
X373262Y345195D01*
X373263Y345200D01*
X373265Y345204D01*
X373320Y345397D01*
X373373Y345582D01*
X373373Y345587D01*
X373375Y345591D01*
X373390Y345787D01*
X373406Y345984D01*
X373405Y345988D01*
X373406Y345992D01*
X373382Y346186D01*
X373359Y346383D01*
X373358Y346388D01*
X373357Y346392D01*
X373296Y346577D01*
X373234Y346766D01*
X373232Y346770D01*
X373230Y346774D01*
X373134Y346943D01*
X373036Y347117D01*
X373033Y347120D01*
X373031Y347124D01*
X372903Y347271D01*
X372773Y347421D01*
X372769Y347424D01*
X372767Y347428D01*
X372610Y347548D01*
X372455Y347668D01*
X372451Y347670D01*
X372447Y347673D01*
X372152Y347825D01*
X370374Y348561D01*
X368881Y350054D01*
X368073Y352004D01*
X368073Y354116D01*
X368881Y356066D01*
X369990Y357175D01*
X370007Y357196D01*
X370028Y357213D01*
X370135Y357351D01*
X370245Y357487D01*
X370258Y357510D01*
X370274Y357531D01*
X370352Y357688D01*
X370434Y357842D01*
X370442Y357868D01*
X370454Y357892D01*
X370499Y358061D01*
X370549Y358228D01*
X370551Y358255D01*
X370558Y358281D01*
X370585Y358612D01*
X370585Y382158D01*
X372817Y384389D01*
X372817Y384390D01*
X382382Y393955D01*
X452661Y393955D01*
X452688Y393957D01*
X452714Y393955D01*
X452888Y393977D01*
X453062Y393995D01*
X453087Y394002D01*
X453114Y394006D01*
X453279Y394061D01*
X453447Y394113D01*
X453470Y394126D01*
X453495Y394134D01*
X453647Y394221D01*
X453801Y394305D01*
X453821Y394322D01*
X453844Y394335D01*
X454097Y394550D01*
X458890Y399343D01*
X458907Y399363D01*
X458928Y399381D01*
X459035Y399519D01*
X459145Y399654D01*
X459158Y399678D01*
X459174Y399699D01*
X459252Y399856D01*
X459334Y400010D01*
X459342Y400035D01*
X459354Y400059D01*
X459399Y400229D01*
X459449Y400396D01*
X459451Y400422D01*
X459458Y400448D01*
X459485Y400779D01*
X459485Y403616D01*
X459484Y403625D01*
X459485Y403634D01*
X459464Y403826D01*
X459445Y404017D01*
X459443Y404025D01*
X459442Y404034D01*
X459384Y404217D01*
X459327Y404402D01*
X459323Y404410D01*
X459320Y404418D01*
X459227Y404586D01*
X459135Y404756D01*
X459130Y404763D01*
X459125Y404770D01*
X459000Y404918D01*
X458878Y405065D01*
X458871Y405071D01*
X458865Y405077D01*
X458713Y405197D01*
X458564Y405317D01*
X458556Y405321D01*
X458549Y405327D01*
X458377Y405414D01*
X458207Y405503D01*
X458198Y405505D01*
X458190Y405509D01*
X458004Y405561D01*
X457820Y405614D01*
X457811Y405615D01*
X457802Y405617D01*
X457610Y405631D01*
X457418Y405647D01*
X457410Y405646D01*
X457401Y405647D01*
X457208Y405622D01*
X457019Y405600D01*
X457010Y405597D01*
X457001Y405596D01*
X456818Y405535D01*
X456636Y405475D01*
X456628Y405471D01*
X456620Y405468D01*
X456454Y405373D01*
X456285Y405277D01*
X456278Y405272D01*
X456271Y405267D01*
X456018Y405052D01*
X454148Y403183D01*
X451184Y401955D01*
X447976Y401955D01*
X445012Y403183D01*
X442743Y405452D01*
X441515Y408416D01*
X441515Y424704D01*
X442743Y427668D01*
X445184Y430110D01*
X445190Y430117D01*
X445197Y430122D01*
X445317Y430272D01*
X445440Y430421D01*
X445444Y430429D01*
X445449Y430436D01*
X445538Y430606D01*
X445628Y430777D01*
X445631Y430786D01*
X445635Y430793D01*
X445688Y430978D01*
X445743Y431163D01*
X445744Y431172D01*
X445746Y431180D01*
X445762Y431371D01*
X445779Y431564D01*
X445778Y431573D01*
X445779Y431582D01*
X445757Y431771D01*
X445736Y431964D01*
X445733Y431973D01*
X445732Y431981D01*
X445673Y432163D01*
X445614Y432348D01*
X445610Y432356D01*
X445607Y432364D01*
X445512Y432533D01*
X445420Y432700D01*
X445414Y432707D01*
X445409Y432715D01*
X445283Y432861D01*
X445159Y433007D01*
X445152Y433013D01*
X445146Y433020D01*
X444995Y433137D01*
X444843Y433257D01*
X444835Y433261D01*
X444828Y433266D01*
X444656Y433352D01*
X444484Y433439D01*
X444476Y433442D01*
X444468Y433446D01*
X444282Y433496D01*
X444096Y433547D01*
X444087Y433548D01*
X444079Y433550D01*
X443748Y433577D01*
X442327Y433577D01*
X438313Y435240D01*
X435240Y438313D01*
X433677Y442087D01*
X433672Y442095D01*
X433670Y442104D01*
X433577Y442273D01*
X433486Y442442D01*
X433481Y442449D01*
X433476Y442457D01*
X433352Y442605D01*
X433230Y442753D01*
X433223Y442758D01*
X433217Y442765D01*
X433067Y442885D01*
X432917Y443006D01*
X432909Y443011D01*
X432902Y443016D01*
X432733Y443103D01*
X432561Y443194D01*
X432552Y443196D01*
X432544Y443200D01*
X432362Y443252D01*
X432174Y443307D01*
X432165Y443307D01*
X432157Y443310D01*
X431966Y443325D01*
X431773Y443341D01*
X431764Y443340D01*
X431756Y443341D01*
X431565Y443318D01*
X431373Y443296D01*
X431365Y443293D01*
X431356Y443292D01*
X431174Y443232D01*
X430990Y443173D01*
X430982Y443168D01*
X430974Y443166D01*
X430806Y443070D01*
X430638Y442977D01*
X430632Y442971D01*
X430624Y442966D01*
X430478Y442839D01*
X430333Y442715D01*
X430327Y442708D01*
X430320Y442702D01*
X430203Y442550D01*
X430084Y442398D01*
X430080Y442390D01*
X430075Y442383D01*
X429923Y442087D01*
X428360Y438313D01*
X425287Y435240D01*
X424883Y435073D01*
X424879Y435071D01*
X424875Y435069D01*
X424702Y434976D01*
X424528Y434882D01*
X424524Y434880D01*
X424520Y434877D01*
X424370Y434752D01*
X424218Y434626D01*
X424215Y434623D01*
X424211Y434620D01*
X424088Y434466D01*
X423964Y434313D01*
X423962Y434309D01*
X423959Y434306D01*
X423869Y434133D01*
X423777Y433957D01*
X423775Y433952D01*
X423773Y433949D01*
X423720Y433763D01*
X423664Y433571D01*
X423663Y433566D01*
X423662Y433562D01*
X423646Y433363D01*
X423629Y433169D01*
X423629Y433165D01*
X423629Y433160D01*
X423652Y432965D01*
X423674Y432769D01*
X423676Y432765D01*
X423676Y432761D01*
X423737Y432573D01*
X423797Y432386D01*
X423799Y432382D01*
X423801Y432378D01*
X423898Y432205D01*
X423994Y432034D01*
X423997Y432031D01*
X423999Y432027D01*
X424127Y431879D01*
X424255Y431729D01*
X424259Y431726D01*
X424262Y431722D01*
X424415Y431603D01*
X424572Y431480D01*
X424577Y431478D01*
X424580Y431476D01*
X424755Y431389D01*
X424932Y431300D01*
X424937Y431298D01*
X424941Y431296D01*
X425131Y431245D01*
X425321Y431193D01*
X425325Y431193D01*
X425329Y431192D01*
X425660Y431165D01*
X425784Y431165D01*
X428748Y429937D01*
X431017Y427668D01*
X432245Y424704D01*
X432245Y408416D01*
X431017Y405452D01*
X428748Y403183D01*
X425784Y401955D01*
X422576Y401955D01*
X419612Y403183D01*
X417343Y405452D01*
X416115Y408416D01*
X416115Y424704D01*
X417343Y427668D01*
X419784Y430110D01*
X419790Y430117D01*
X419797Y430122D01*
X419917Y430272D01*
X420040Y430421D01*
X420044Y430429D01*
X420049Y430436D01*
X420138Y430606D01*
X420228Y430777D01*
X420231Y430786D01*
X420235Y430793D01*
X420288Y430978D01*
X420343Y431163D01*
X420344Y431172D01*
X420346Y431180D01*
X420362Y431371D01*
X420379Y431564D01*
X420378Y431573D01*
X420379Y431582D01*
X420357Y431771D01*
X420336Y431964D01*
X420333Y431973D01*
X420332Y431981D01*
X420273Y432163D01*
X420214Y432348D01*
X420210Y432356D01*
X420207Y432364D01*
X420112Y432533D01*
X420020Y432700D01*
X420014Y432707D01*
X420009Y432715D01*
X419883Y432861D01*
X419759Y433007D01*
X419752Y433013D01*
X419746Y433020D01*
X419595Y433137D01*
X419443Y433257D01*
X419435Y433261D01*
X419428Y433266D01*
X419256Y433352D01*
X419084Y433439D01*
X419076Y433442D01*
X419068Y433446D01*
X418882Y433496D01*
X418696Y433547D01*
X418687Y433548D01*
X418679Y433550D01*
X418348Y433577D01*
X416927Y433577D01*
X412913Y435240D01*
X409840Y438313D01*
X408277Y442087D01*
X408272Y442095D01*
X408270Y442104D01*
X408177Y442273D01*
X408086Y442442D01*
X408081Y442449D01*
X408076Y442457D01*
X407952Y442605D01*
X407830Y442753D01*
X407823Y442758D01*
X407817Y442765D01*
X407667Y442885D01*
X407517Y443006D01*
X407509Y443011D01*
X407502Y443016D01*
X407333Y443103D01*
X407161Y443194D01*
X407152Y443196D01*
X407144Y443200D01*
X406962Y443252D01*
X406774Y443307D01*
X406765Y443307D01*
X406757Y443310D01*
X406566Y443325D01*
X406373Y443341D01*
X406364Y443340D01*
X406356Y443341D01*
X406165Y443318D01*
X405973Y443296D01*
X405965Y443293D01*
X405956Y443292D01*
X405774Y443232D01*
X405590Y443173D01*
X405582Y443168D01*
X405574Y443166D01*
X405406Y443070D01*
X405238Y442977D01*
X405232Y442971D01*
X405224Y442966D01*
X405078Y442839D01*
X404933Y442715D01*
X404927Y442708D01*
X404920Y442702D01*
X404803Y442550D01*
X404684Y442398D01*
X404680Y442390D01*
X404675Y442383D01*
X404523Y442087D01*
X402960Y438313D01*
X399887Y435240D01*
X395873Y433577D01*
X391527Y433577D01*
X387513Y435240D01*
X384440Y438313D01*
X382777Y442327D01*
X382777Y446673D01*
X384440Y450687D01*
X387513Y453760D01*
X391287Y455323D01*
X391295Y455328D01*
X391304Y455330D01*
X391473Y455423D01*
X391642Y455514D01*
X391649Y455519D01*
X391657Y455524D01*
X391805Y455648D01*
X391953Y455770D01*
X391958Y455777D01*
X391965Y455783D01*
X392085Y455933D01*
X392206Y456083D01*
X392211Y456091D01*
X392216Y456098D01*
X392303Y456266D01*
X392394Y456439D01*
X392396Y456448D01*
X392400Y456456D01*
X392451Y456636D01*
X392507Y456826D01*
X392507Y456835D01*
X392510Y456843D01*
X392525Y457034D01*
X392541Y457227D01*
X392540Y457236D01*
X392541Y457244D01*
X392518Y457435D01*
X392496Y457627D01*
X392493Y457635D01*
X392492Y457644D01*
X392432Y457826D01*
X392373Y458010D01*
X392368Y458018D01*
X392366Y458026D01*
X392270Y458194D01*
X392177Y458362D01*
X392171Y458368D01*
X392166Y458376D01*
X392039Y458522D01*
X391915Y458667D01*
X391908Y458673D01*
X391902Y458680D01*
X391750Y458797D01*
X391598Y458916D01*
X391590Y458920D01*
X391583Y458925D01*
X391287Y459077D01*
X387513Y460640D01*
X384440Y463713D01*
X382777Y467727D01*
X382777Y472073D01*
X384440Y476087D01*
X387513Y479160D01*
X391287Y480723D01*
X391295Y480728D01*
X391304Y480730D01*
X391472Y480822D01*
X391642Y480914D01*
X391649Y480919D01*
X391657Y480924D01*
X391803Y481047D01*
X391953Y481170D01*
X391958Y481177D01*
X391965Y481183D01*
X392085Y481333D01*
X392206Y481483D01*
X392211Y481491D01*
X392216Y481497D01*
X392304Y481669D01*
X392393Y481839D01*
X392396Y481848D01*
X392400Y481856D01*
X392452Y482040D01*
X392507Y482226D01*
X392507Y482234D01*
X392510Y482243D01*
X392525Y482434D01*
X392541Y482627D01*
X392540Y482636D01*
X392541Y482644D01*
X392518Y482835D01*
X392496Y483027D01*
X392493Y483035D01*
X392492Y483044D01*
X392432Y483227D01*
X392373Y483410D01*
X392369Y483418D01*
X392366Y483426D01*
X392270Y483594D01*
X392177Y483762D01*
X392171Y483768D01*
X392166Y483776D01*
X392040Y483921D01*
X391915Y484067D01*
X391908Y484073D01*
X391902Y484080D01*
X391750Y484197D01*
X391598Y484316D01*
X391590Y484320D01*
X391583Y484325D01*
X391287Y484477D01*
X387513Y486040D01*
X384440Y489113D01*
X382777Y493127D01*
X382777Y497473D01*
X384440Y501487D01*
X387513Y504560D01*
X389636Y505439D01*
X389637Y505440D01*
X389999Y505590D01*
X390077Y505632D01*
X390160Y505665D01*
X390254Y505726D01*
X390354Y505780D01*
X390422Y505836D01*
X390496Y505885D01*
X390577Y505964D01*
X390664Y506036D01*
X390720Y506105D01*
X390783Y506167D01*
X390847Y506261D01*
X390918Y506349D01*
X390959Y506427D01*
X391009Y506501D01*
X391052Y506605D01*
X391105Y506705D01*
X391130Y506790D01*
X391164Y506872D01*
X391186Y506983D01*
X391218Y507092D01*
X391226Y507180D01*
X391243Y507267D01*
X391243Y507380D01*
X391253Y507493D01*
X391243Y507581D01*
X391243Y507670D01*
X391220Y507781D01*
X391207Y507893D01*
X391180Y507978D01*
X391163Y508064D01*
X391119Y508169D01*
X391084Y508276D01*
X391041Y508354D01*
X391007Y508436D01*
X390943Y508529D01*
X390888Y508628D01*
X390830Y508695D01*
X390780Y508769D01*
X390700Y508848D01*
X390626Y508934D01*
X390556Y508988D01*
X390493Y509050D01*
X390398Y509112D01*
X390309Y509182D01*
X390230Y509222D01*
X390155Y509270D01*
X390025Y509325D01*
X389949Y509363D01*
X389905Y509375D01*
X389849Y509398D01*
X389117Y509636D01*
X387443Y510489D01*
X385922Y511594D01*
X384594Y512922D01*
X383489Y514443D01*
X382636Y516117D01*
X382055Y517904D01*
X382015Y518161D01*
X393192Y518161D01*
X393210Y518162D01*
X393227Y518161D01*
X393410Y518182D01*
X393592Y518201D01*
X393609Y518206D01*
X393627Y518208D01*
X393802Y518265D01*
X393977Y518319D01*
X393993Y518327D01*
X394010Y518333D01*
X394170Y518423D01*
X394331Y518510D01*
X394345Y518522D01*
X394361Y518531D01*
X394500Y518651D01*
X394641Y518768D01*
X394652Y518782D01*
X394665Y518794D01*
X394778Y518939D01*
X394893Y519082D01*
X394901Y519098D01*
X394912Y519112D01*
X394994Y519277D01*
X395078Y519439D01*
X395083Y519456D01*
X395091Y519472D01*
X395139Y519651D01*
X395190Y519826D01*
X395191Y519844D01*
X395196Y519861D01*
X395223Y520192D01*
X395223Y521208D01*
X395221Y521226D01*
X395223Y521244D01*
X395201Y521426D01*
X395183Y521609D01*
X395178Y521626D01*
X395176Y521643D01*
X395119Y521818D01*
X395065Y521994D01*
X395057Y522009D01*
X395051Y522026D01*
X394961Y522186D01*
X394873Y522348D01*
X394862Y522361D01*
X394853Y522377D01*
X394733Y522516D01*
X394615Y522657D01*
X394602Y522668D01*
X394590Y522682D01*
X394445Y522794D01*
X394302Y522909D01*
X394286Y522917D01*
X394272Y522928D01*
X394107Y523010D01*
X393944Y523095D01*
X393927Y523100D01*
X393911Y523108D01*
X393733Y523155D01*
X393558Y523206D01*
X393540Y523208D01*
X393523Y523212D01*
X393192Y523239D01*
X382015Y523239D01*
X382055Y523496D01*
X382636Y525283D01*
X383489Y526957D01*
X384594Y528478D01*
X385922Y529806D01*
X387443Y530911D01*
X389117Y531764D01*
X389849Y532002D01*
X389931Y532038D01*
X390015Y532064D01*
X390114Y532118D01*
X390218Y532164D01*
X390291Y532215D01*
X390368Y532257D01*
X390455Y532330D01*
X390547Y532395D01*
X390609Y532459D01*
X390677Y532516D01*
X390747Y532605D01*
X390825Y532687D01*
X390872Y532762D01*
X390928Y532831D01*
X390979Y532932D01*
X391039Y533027D01*
X391071Y533110D01*
X391111Y533189D01*
X391142Y533298D01*
X391182Y533404D01*
X391197Y533491D01*
X391221Y533577D01*
X391230Y533689D01*
X391248Y533801D01*
X391245Y533890D01*
X391252Y533978D01*
X391239Y534090D01*
X391235Y534203D01*
X391214Y534290D01*
X391204Y534378D01*
X391168Y534485D01*
X391142Y534595D01*
X391105Y534676D01*
X391077Y534760D01*
X391021Y534858D01*
X390974Y534961D01*
X390922Y535033D01*
X390878Y535110D01*
X390804Y535195D01*
X390737Y535286D01*
X390671Y535346D01*
X390613Y535413D01*
X390524Y535482D01*
X390440Y535559D01*
X390364Y535605D01*
X390294Y535659D01*
X390168Y535723D01*
X390096Y535767D01*
X390053Y535783D01*
X389999Y535810D01*
X387513Y536840D01*
X384340Y540013D01*
X384326Y540024D01*
X384314Y540038D01*
X384170Y540152D01*
X384028Y540268D01*
X384013Y540277D01*
X383998Y540288D01*
X383834Y540371D01*
X383673Y540457D01*
X383656Y540462D01*
X383640Y540470D01*
X383462Y540519D01*
X383287Y540572D01*
X383269Y540573D01*
X383252Y540578D01*
X383069Y540591D01*
X382886Y540608D01*
X382868Y540606D01*
X382850Y540607D01*
X382668Y540584D01*
X382485Y540565D01*
X382468Y540559D01*
X382451Y540557D01*
X382277Y540499D01*
X382102Y540443D01*
X382086Y540434D01*
X382069Y540429D01*
X381910Y540337D01*
X381749Y540248D01*
X381736Y540237D01*
X381720Y540228D01*
X381467Y540013D01*
X376516Y535062D01*
X376499Y535041D01*
X376478Y535024D01*
X376371Y534886D01*
X376261Y534750D01*
X376248Y534727D01*
X376232Y534705D01*
X376154Y534548D01*
X376072Y534394D01*
X376064Y534369D01*
X376052Y534345D01*
X376007Y534175D01*
X375957Y534009D01*
X375955Y533982D01*
X375948Y533956D01*
X375921Y533625D01*
X375921Y499074D01*
X375929Y498987D01*
X375936Y498822D01*
X376227Y496496D01*
X376660Y493031D01*
X376697Y492737D01*
X376349Y492289D01*
X376306Y492221D01*
X376267Y492173D01*
X376258Y492157D01*
X376232Y492122D01*
X376187Y492033D01*
X376134Y491949D01*
X376098Y491853D01*
X376052Y491762D01*
X376026Y491665D01*
X375991Y491572D01*
X375974Y491472D01*
X375948Y491373D01*
X375938Y491253D01*
X375925Y491175D01*
X375927Y491119D01*
X375921Y491042D01*
X375921Y426771D01*
X349453Y400303D01*
X269015Y400303D01*
X268988Y400301D01*
X268961Y400303D01*
X268787Y400281D01*
X268614Y400263D01*
X268589Y400256D01*
X268562Y400252D01*
X268396Y400197D01*
X268229Y400145D01*
X268206Y400132D01*
X268180Y400124D01*
X268029Y400037D01*
X267875Y399953D01*
X267855Y399936D01*
X267831Y399923D01*
X267578Y399708D01*
X86872Y219002D01*
X86855Y218981D01*
X86834Y218963D01*
X86727Y218826D01*
X86617Y218690D01*
X86604Y218667D01*
X86588Y218645D01*
X86510Y218488D01*
X86428Y218334D01*
X86420Y218309D01*
X86408Y218285D01*
X86363Y218115D01*
X86313Y217949D01*
X86311Y217922D01*
X86304Y217896D01*
X86277Y217565D01*
X86277Y211033D01*
X86279Y211011D01*
X86277Y210989D01*
X86299Y210810D01*
X86317Y210633D01*
X86323Y210611D01*
X86326Y210589D01*
X86382Y210419D01*
X86435Y210248D01*
X86445Y210228D01*
X86452Y210207D01*
X86542Y210051D01*
X86627Y209894D01*
X86641Y209876D01*
X86652Y209857D01*
X86770Y209721D01*
X86884Y209584D01*
X86902Y209570D01*
X86916Y209553D01*
X87059Y209444D01*
X87198Y209332D01*
X87218Y209322D01*
X87236Y209308D01*
X87239Y209306D01*
X89557Y206988D01*
X90843Y203883D01*
X90848Y203875D01*
X90850Y203866D01*
X90942Y203698D01*
X91034Y203528D01*
X91039Y203521D01*
X91044Y203513D01*
X91167Y203367D01*
X91290Y203217D01*
X91297Y203212D01*
X91303Y203205D01*
X91453Y203085D01*
X91603Y202964D01*
X91611Y202959D01*
X91617Y202954D01*
X91789Y202866D01*
X91959Y202777D01*
X91968Y202774D01*
X91976Y202770D01*
X92161Y202718D01*
X92346Y202663D01*
X92354Y202663D01*
X92363Y202660D01*
X92554Y202645D01*
X92747Y202629D01*
X92756Y202630D01*
X92764Y202629D01*
X92957Y202653D01*
X93147Y202674D01*
X93155Y202677D01*
X93164Y202678D01*
X93349Y202739D01*
X93530Y202797D01*
X93538Y202802D01*
X93546Y202804D01*
X93714Y202900D01*
X93882Y202994D01*
X93888Y202999D01*
X93896Y203004D01*
X94041Y203130D01*
X94187Y203255D01*
X94193Y203262D01*
X94200Y203268D01*
X94317Y203421D01*
X94436Y203572D01*
X94440Y203580D01*
X94445Y203587D01*
X94597Y203883D01*
X95883Y206988D01*
X98152Y209257D01*
X101116Y210485D01*
X104324Y210485D01*
X107288Y209257D01*
X109557Y206988D01*
X110843Y203883D01*
X110848Y203875D01*
X110850Y203866D01*
X110942Y203698D01*
X111034Y203528D01*
X111039Y203521D01*
X111044Y203513D01*
X111167Y203367D01*
X111290Y203217D01*
X111297Y203212D01*
X111303Y203205D01*
X111453Y203085D01*
X111603Y202964D01*
X111611Y202959D01*
X111617Y202954D01*
X111789Y202866D01*
X111959Y202777D01*
X111968Y202774D01*
X111976Y202770D01*
X112161Y202718D01*
X112346Y202663D01*
X112354Y202663D01*
X112363Y202660D01*
X112554Y202645D01*
X112747Y202629D01*
X112756Y202630D01*
G37*
G36*
X431836Y445660D02*
X431836Y445660D01*
X431844Y445659D01*
X432035Y445682D01*
X432227Y445704D01*
X432235Y445707D01*
X432244Y445708D01*
X432427Y445768D01*
X432610Y445827D01*
X432618Y445831D01*
X432626Y445834D01*
X432794Y445930D01*
X432962Y446023D01*
X432968Y446029D01*
X432976Y446034D01*
X433121Y446160D01*
X433267Y446285D01*
X433273Y446292D01*
X433280Y446298D01*
X433397Y446450D01*
X433516Y446602D01*
X433520Y446610D01*
X433525Y446617D01*
X433677Y446913D01*
X435240Y450687D01*
X438313Y453760D01*
X442327Y455423D01*
X446673Y455423D01*
X450687Y453760D01*
X450938Y453509D01*
X450945Y453504D01*
X450950Y453497D01*
X451100Y453376D01*
X451249Y453254D01*
X451257Y453250D01*
X451264Y453245D01*
X451434Y453156D01*
X451605Y453066D01*
X451614Y453063D01*
X451621Y453059D01*
X451805Y453006D01*
X451991Y452951D01*
X452000Y452950D01*
X452008Y452948D01*
X452199Y452932D01*
X452392Y452914D01*
X452401Y452915D01*
X452410Y452915D01*
X452599Y452937D01*
X452792Y452958D01*
X452801Y452961D01*
X452809Y452962D01*
X452992Y453021D01*
X453176Y453079D01*
X453184Y453084D01*
X453192Y453086D01*
X453361Y453182D01*
X453528Y453274D01*
X453535Y453280D01*
X453543Y453284D01*
X453688Y453410D01*
X453835Y453535D01*
X453841Y453542D01*
X453848Y453548D01*
X453965Y453699D01*
X454085Y453851D01*
X454089Y453859D01*
X454094Y453866D01*
X454180Y454038D01*
X454267Y454210D01*
X454270Y454218D01*
X454274Y454226D01*
X454324Y454414D01*
X454375Y454597D01*
X454376Y454606D01*
X454378Y454615D01*
X454405Y454946D01*
X454405Y455818D01*
X469050Y470463D01*
X469067Y470483D01*
X469088Y470501D01*
X469195Y470639D01*
X469305Y470774D01*
X469318Y470798D01*
X469334Y470819D01*
X469412Y470976D01*
X469494Y471130D01*
X469502Y471155D01*
X469514Y471179D01*
X469559Y471349D01*
X469609Y471516D01*
X469611Y471542D01*
X469618Y471568D01*
X469645Y471899D01*
X469645Y541561D01*
X469643Y541588D01*
X469645Y541614D01*
X469623Y541788D01*
X469605Y541962D01*
X469598Y541987D01*
X469594Y542014D01*
X469539Y542179D01*
X469487Y542347D01*
X469474Y542370D01*
X469466Y542395D01*
X469379Y542547D01*
X469295Y542701D01*
X469278Y542721D01*
X469265Y542744D01*
X469050Y542997D01*
X459485Y552562D01*
X459485Y554579D01*
X459484Y554588D01*
X459485Y554597D01*
X459465Y554787D01*
X459445Y554980D01*
X459443Y554988D01*
X459442Y554997D01*
X459384Y555181D01*
X459327Y555365D01*
X459323Y555373D01*
X459320Y555381D01*
X459227Y555550D01*
X459135Y555719D01*
X459130Y555726D01*
X459125Y555734D01*
X459001Y555880D01*
X458878Y556028D01*
X458871Y556034D01*
X458865Y556041D01*
X458714Y556160D01*
X458564Y556280D01*
X458556Y556285D01*
X458549Y556290D01*
X458377Y556378D01*
X458207Y556466D01*
X458198Y556468D01*
X458190Y556472D01*
X458005Y556524D01*
X457820Y556577D01*
X457811Y556578D01*
X457802Y556580D01*
X457610Y556595D01*
X457418Y556610D01*
X457410Y556609D01*
X457401Y556610D01*
X457209Y556586D01*
X457019Y556563D01*
X457010Y556561D01*
X457001Y556559D01*
X456819Y556498D01*
X456636Y556438D01*
X456628Y556434D01*
X456620Y556431D01*
X456452Y556335D01*
X456285Y556241D01*
X456278Y556235D01*
X456271Y556230D01*
X456018Y556016D01*
X455496Y555494D01*
X454339Y554653D01*
X453066Y554005D01*
X451706Y553563D01*
X451611Y553548D01*
X451611Y568960D01*
X451610Y568977D01*
X451611Y568995D01*
X451590Y569178D01*
X451571Y569360D01*
X451566Y569377D01*
X451564Y569395D01*
X451507Y569570D01*
X451453Y569745D01*
X451445Y569761D01*
X451439Y569778D01*
X451349Y569938D01*
X451262Y570099D01*
X451250Y570113D01*
X451241Y570128D01*
X451121Y570268D01*
X451004Y570408D01*
X451004Y570409D01*
X451003Y570409D01*
X450990Y570420D01*
X450978Y570433D01*
X450978Y570434D01*
X450833Y570546D01*
X450690Y570661D01*
X450674Y570670D01*
X450660Y570680D01*
X450495Y570762D01*
X450332Y570847D01*
X450315Y570852D01*
X450299Y570860D01*
X450121Y570908D01*
X449945Y570958D01*
X449928Y570960D01*
X449910Y570964D01*
X449580Y570991D01*
X440499Y570991D01*
X440499Y576215D01*
X440723Y577626D01*
X441165Y578986D01*
X441813Y580259D01*
X442654Y581416D01*
X443748Y582510D01*
X443753Y582517D01*
X443760Y582522D01*
X443881Y582672D01*
X444003Y582821D01*
X444007Y582829D01*
X444012Y582836D01*
X444101Y583006D01*
X444191Y583177D01*
X444194Y583186D01*
X444198Y583193D01*
X444251Y583378D01*
X444306Y583563D01*
X444307Y583572D01*
X444309Y583580D01*
X444325Y583771D01*
X444342Y583964D01*
X444342Y583973D01*
X444342Y583982D01*
X444320Y584171D01*
X444299Y584364D01*
X444296Y584373D01*
X444295Y584381D01*
X444236Y584563D01*
X444178Y584748D01*
X444173Y584756D01*
X444170Y584764D01*
X444076Y584931D01*
X443983Y585100D01*
X443977Y585107D01*
X443973Y585115D01*
X443847Y585260D01*
X443722Y585407D01*
X443715Y585413D01*
X443709Y585420D01*
X443559Y585536D01*
X443406Y585657D01*
X443398Y585661D01*
X443391Y585666D01*
X443221Y585751D01*
X443047Y585839D01*
X443039Y585842D01*
X443031Y585846D01*
X442845Y585895D01*
X442660Y585947D01*
X442651Y585948D01*
X442642Y585950D01*
X442331Y585976D01*
X438313Y587640D01*
X435240Y590713D01*
X433677Y594487D01*
X433672Y594495D01*
X433670Y594504D01*
X433577Y594673D01*
X433486Y594842D01*
X433481Y594849D01*
X433476Y594857D01*
X433352Y595005D01*
X433230Y595153D01*
X433223Y595158D01*
X433217Y595165D01*
X433067Y595285D01*
X432917Y595406D01*
X432909Y595411D01*
X432902Y595416D01*
X432733Y595503D01*
X432561Y595594D01*
X432552Y595596D01*
X432544Y595600D01*
X432362Y595652D01*
X432174Y595707D01*
X432165Y595707D01*
X432157Y595710D01*
X431966Y595725D01*
X431773Y595741D01*
X431764Y595740D01*
X431756Y595741D01*
X431565Y595718D01*
X431373Y595696D01*
X431365Y595693D01*
X431356Y595692D01*
X431174Y595632D01*
X430990Y595573D01*
X430982Y595568D01*
X430974Y595566D01*
X430806Y595470D01*
X430638Y595377D01*
X430632Y595371D01*
X430624Y595366D01*
X430478Y595239D01*
X430333Y595115D01*
X430327Y595108D01*
X430320Y595102D01*
X430203Y594950D01*
X430084Y594798D01*
X430080Y594790D01*
X430075Y594783D01*
X429923Y594487D01*
X428360Y590713D01*
X425287Y587640D01*
X424883Y587473D01*
X424879Y587471D01*
X424875Y587469D01*
X424702Y587376D01*
X424528Y587282D01*
X424524Y587280D01*
X424520Y587277D01*
X424370Y587152D01*
X424218Y587026D01*
X424215Y587023D01*
X424211Y587020D01*
X424088Y586866D01*
X423964Y586713D01*
X423962Y586709D01*
X423959Y586706D01*
X423868Y586531D01*
X423777Y586357D01*
X423775Y586352D01*
X423773Y586349D01*
X423720Y586163D01*
X423664Y585971D01*
X423663Y585966D01*
X423662Y585962D01*
X423646Y585765D01*
X423629Y585569D01*
X423629Y585565D01*
X423629Y585560D01*
X423652Y585363D01*
X423674Y585169D01*
X423676Y585165D01*
X423676Y585161D01*
X423737Y584973D01*
X423797Y584786D01*
X423799Y584782D01*
X423801Y584778D01*
X423898Y584605D01*
X423994Y584434D01*
X423997Y584431D01*
X423999Y584427D01*
X424127Y584279D01*
X424255Y584129D01*
X424259Y584126D01*
X424262Y584122D01*
X424415Y584003D01*
X424572Y583880D01*
X424577Y583878D01*
X424580Y583876D01*
X424755Y583789D01*
X424932Y583700D01*
X424937Y583698D01*
X424941Y583696D01*
X425131Y583645D01*
X425321Y583593D01*
X425325Y583593D01*
X425329Y583592D01*
X425660Y583565D01*
X425784Y583565D01*
X428748Y582337D01*
X431017Y580068D01*
X432245Y577104D01*
X432245Y560816D01*
X431017Y557852D01*
X428748Y555583D01*
X425784Y554355D01*
X422576Y554355D01*
X419612Y555583D01*
X417343Y557852D01*
X416115Y560816D01*
X416115Y577104D01*
X417343Y580068D01*
X419784Y582510D01*
X419790Y582517D01*
X419797Y582522D01*
X419917Y582672D01*
X420040Y582821D01*
X420044Y582829D01*
X420049Y582836D01*
X420138Y583006D01*
X420228Y583177D01*
X420231Y583186D01*
X420235Y583193D01*
X420288Y583378D01*
X420343Y583563D01*
X420344Y583572D01*
X420346Y583580D01*
X420362Y583771D01*
X420379Y583964D01*
X420378Y583973D01*
X420379Y583982D01*
X420357Y584171D01*
X420336Y584364D01*
X420333Y584373D01*
X420332Y584381D01*
X420273Y584563D01*
X420214Y584748D01*
X420210Y584756D01*
X420207Y584764D01*
X420112Y584933D01*
X420020Y585100D01*
X420014Y585107D01*
X420009Y585115D01*
X419883Y585261D01*
X419759Y585407D01*
X419752Y585413D01*
X419746Y585420D01*
X419595Y585537D01*
X419443Y585657D01*
X419435Y585661D01*
X419428Y585666D01*
X419256Y585752D01*
X419084Y585839D01*
X419076Y585842D01*
X419068Y585846D01*
X418882Y585896D01*
X418696Y585947D01*
X418687Y585948D01*
X418679Y585950D01*
X418348Y585977D01*
X416927Y585977D01*
X412913Y587640D01*
X409840Y590713D01*
X408277Y594487D01*
X408272Y594495D01*
X408270Y594504D01*
X408177Y594673D01*
X408086Y594842D01*
X408081Y594849D01*
X408076Y594857D01*
X407952Y595005D01*
X407830Y595153D01*
X407823Y595158D01*
X407817Y595165D01*
X407667Y595285D01*
X407517Y595406D01*
X407509Y595411D01*
X407502Y595416D01*
X407333Y595503D01*
X407161Y595594D01*
X407152Y595596D01*
X407144Y595600D01*
X406962Y595652D01*
X406774Y595707D01*
X406765Y595707D01*
X406757Y595710D01*
X406566Y595725D01*
X406373Y595741D01*
X406364Y595740D01*
X406356Y595741D01*
X406165Y595718D01*
X405973Y595696D01*
X405965Y595693D01*
X405956Y595692D01*
X405774Y595632D01*
X405590Y595573D01*
X405582Y595568D01*
X405574Y595566D01*
X405406Y595470D01*
X405238Y595377D01*
X405232Y595371D01*
X405224Y595366D01*
X405078Y595239D01*
X404933Y595115D01*
X404927Y595108D01*
X404920Y595102D01*
X404803Y594950D01*
X404684Y594798D01*
X404680Y594790D01*
X404675Y594783D01*
X404523Y594487D01*
X402960Y590713D01*
X399887Y587640D01*
X396829Y586373D01*
X396113Y586077D01*
X396105Y586072D01*
X396096Y586070D01*
X395928Y585978D01*
X395758Y585886D01*
X395751Y585881D01*
X395743Y585876D01*
X395597Y585753D01*
X395447Y585630D01*
X395442Y585623D01*
X395435Y585617D01*
X395315Y585467D01*
X395194Y585317D01*
X395189Y585309D01*
X395184Y585303D01*
X395096Y585131D01*
X395007Y584961D01*
X395004Y584952D01*
X395000Y584944D01*
X394948Y584760D01*
X394893Y584574D01*
X394893Y584566D01*
X394890Y584557D01*
X394875Y584364D01*
X394859Y584173D01*
X394860Y584164D01*
X394859Y584156D01*
X394882Y583964D01*
X394904Y583773D01*
X394907Y583765D01*
X394908Y583756D01*
X394968Y583573D01*
X395027Y583390D01*
X395031Y583382D01*
X395034Y583374D01*
X395130Y583206D01*
X395223Y583038D01*
X395229Y583032D01*
X395234Y583024D01*
X395360Y582879D01*
X395485Y582733D01*
X395492Y582727D01*
X395498Y582720D01*
X395650Y582603D01*
X395802Y582484D01*
X395810Y582480D01*
X395817Y582475D01*
X396113Y582323D01*
X399887Y580760D01*
X402960Y577687D01*
X404623Y573673D01*
X404623Y569327D01*
X402960Y565313D01*
X399887Y562240D01*
X396113Y560677D01*
X396105Y560672D01*
X396096Y560670D01*
X395927Y560577D01*
X395758Y560486D01*
X395751Y560481D01*
X395743Y560476D01*
X395595Y560352D01*
X395447Y560230D01*
X395442Y560223D01*
X395435Y560217D01*
X395315Y560066D01*
X395194Y559917D01*
X395189Y559910D01*
X395184Y559902D01*
X395097Y559732D01*
X395007Y559561D01*
X395004Y559552D01*
X395000Y559544D01*
X394948Y559362D01*
X394893Y559174D01*
X394893Y559165D01*
X394890Y559157D01*
X394875Y558966D01*
X394859Y558773D01*
X394860Y558764D01*
X394859Y558756D01*
X394882Y558565D01*
X394904Y558373D01*
X394907Y558365D01*
X394908Y558356D01*
X394968Y558175D01*
X395027Y557990D01*
X395032Y557982D01*
X395034Y557974D01*
X395129Y557808D01*
X395224Y557638D01*
X395229Y557632D01*
X395234Y557624D01*
X395361Y557477D01*
X395485Y557333D01*
X395492Y557327D01*
X395498Y557320D01*
X395651Y557203D01*
X395802Y557084D01*
X395810Y557080D01*
X395817Y557075D01*
X396113Y556923D01*
X399887Y555360D01*
X402960Y552287D01*
X404623Y548273D01*
X404623Y543927D01*
X402960Y539913D01*
X399887Y536840D01*
X397401Y535810D01*
X397323Y535768D01*
X397240Y535735D01*
X397146Y535673D01*
X397046Y535620D01*
X396978Y535564D01*
X396903Y535515D01*
X396823Y535436D01*
X396736Y535364D01*
X396680Y535295D01*
X396617Y535232D01*
X396553Y535139D01*
X396482Y535051D01*
X396441Y534973D01*
X396391Y534899D01*
X396348Y534795D01*
X396295Y534695D01*
X396270Y534609D01*
X396236Y534527D01*
X396214Y534417D01*
X396182Y534308D01*
X396174Y534220D01*
X396157Y534133D01*
X396157Y534019D01*
X396147Y533907D01*
X396157Y533819D01*
X396157Y533730D01*
X396180Y533619D01*
X396193Y533507D01*
X396220Y533422D01*
X396237Y533335D01*
X396281Y533231D01*
X396316Y533124D01*
X396359Y533046D01*
X396393Y532964D01*
X396457Y532871D01*
X396512Y532772D01*
X396570Y532705D01*
X396620Y532631D01*
X396700Y532552D01*
X396774Y532466D01*
X396844Y532412D01*
X396907Y532349D01*
X397002Y532288D01*
X397091Y532218D01*
X397170Y532178D01*
X397245Y532130D01*
X397375Y532075D01*
X397451Y532037D01*
X397495Y532025D01*
X397551Y532002D01*
X398283Y531764D01*
X399957Y530911D01*
X401478Y529806D01*
X402806Y528478D01*
X403911Y526957D01*
X404406Y525985D01*
X404482Y525868D01*
X404550Y525746D01*
X404590Y525699D01*
X404624Y525646D01*
X404721Y525546D01*
X404812Y525440D01*
X404860Y525402D01*
X404904Y525357D01*
X405018Y525278D01*
X405129Y525192D01*
X405184Y525164D01*
X405235Y525129D01*
X405363Y525074D01*
X405488Y525011D01*
X405548Y524995D01*
X405605Y524970D01*
X405742Y524942D01*
X405877Y524905D01*
X405939Y524900D01*
X405999Y524888D01*
X406139Y524887D01*
X406278Y524877D01*
X406340Y524885D01*
X406402Y524885D01*
X406539Y524911D01*
X406677Y524929D01*
X406745Y524951D01*
X406797Y524961D01*
X406872Y524992D01*
X406993Y525031D01*
X409876Y526225D01*
X413084Y526225D01*
X416048Y524997D01*
X418317Y522728D01*
X419545Y519764D01*
X419545Y516556D01*
X418317Y513592D01*
X416048Y511323D01*
X413084Y510095D01*
X409876Y510095D01*
X406912Y511323D01*
X405496Y512739D01*
X405482Y512750D01*
X405470Y512764D01*
X405326Y512878D01*
X405184Y512994D01*
X405168Y513003D01*
X405154Y513014D01*
X404991Y513097D01*
X404828Y513183D01*
X404811Y513188D01*
X404795Y513196D01*
X404619Y513245D01*
X404443Y513298D01*
X404425Y513299D01*
X404408Y513304D01*
X404225Y513317D01*
X404042Y513334D01*
X404024Y513332D01*
X404006Y513333D01*
X403824Y513310D01*
X403641Y513291D01*
X403624Y513285D01*
X403607Y513283D01*
X403433Y513225D01*
X403257Y513169D01*
X403242Y513160D01*
X403225Y513155D01*
X403067Y513064D01*
X402905Y512974D01*
X402891Y512963D01*
X402876Y512954D01*
X402623Y512739D01*
X401478Y511594D01*
X399957Y510489D01*
X398283Y509636D01*
X397551Y509398D01*
X397469Y509362D01*
X397385Y509336D01*
X397286Y509282D01*
X397182Y509236D01*
X397109Y509185D01*
X397032Y509143D01*
X396945Y509070D01*
X396853Y509005D01*
X396791Y508941D01*
X396723Y508884D01*
X396653Y508795D01*
X396575Y508713D01*
X396528Y508638D01*
X396472Y508569D01*
X396421Y508468D01*
X396361Y508373D01*
X396329Y508290D01*
X396289Y508211D01*
X396258Y508102D01*
X396218Y507996D01*
X396203Y507908D01*
X396179Y507823D01*
X396170Y507711D01*
X396152Y507599D01*
X396155Y507510D01*
X396148Y507422D01*
X396161Y507310D01*
X396165Y507197D01*
X396186Y507110D01*
X396196Y507022D01*
X396232Y506915D01*
X396258Y506805D01*
X396295Y506724D01*
X396323Y506640D01*
X396379Y506542D01*
X396426Y506439D01*
X396478Y506367D01*
X396522Y506290D01*
X396597Y506205D01*
X396663Y506114D01*
X396728Y506054D01*
X396787Y505987D01*
X396876Y505918D01*
X396960Y505841D01*
X397036Y505795D01*
X397106Y505741D01*
X397232Y505677D01*
X397304Y505633D01*
X397347Y505617D01*
X397401Y505590D01*
X399887Y504560D01*
X402960Y501487D01*
X403508Y500165D01*
X403514Y500153D01*
X403518Y500140D01*
X403609Y499975D01*
X403698Y499810D01*
X403706Y499800D01*
X403713Y499788D01*
X403835Y499643D01*
X403954Y499500D01*
X403965Y499491D01*
X403973Y499481D01*
X404121Y499364D01*
X404267Y499246D01*
X404279Y499240D01*
X404289Y499231D01*
X404456Y499146D01*
X404623Y499059D01*
X404636Y499055D01*
X404648Y499049D01*
X404829Y498999D01*
X405010Y498946D01*
X405023Y498945D01*
X405036Y498941D01*
X405224Y498927D01*
X405411Y498911D01*
X405424Y498913D01*
X405438Y498912D01*
X405626Y498935D01*
X405811Y498956D01*
X405824Y498960D01*
X405837Y498962D01*
X406015Y499022D01*
X406194Y499079D01*
X406206Y499086D01*
X406219Y499090D01*
X406381Y499184D01*
X406546Y499276D01*
X406556Y499284D01*
X406568Y499291D01*
X406821Y499506D01*
X406912Y499597D01*
X409876Y500825D01*
X413084Y500825D01*
X416048Y499597D01*
X418317Y497328D01*
X419545Y494364D01*
X419545Y491156D01*
X418317Y488192D01*
X416048Y485923D01*
X413084Y484695D01*
X409876Y484695D01*
X406912Y485923D01*
X404777Y488058D01*
X404763Y488069D01*
X404752Y488082D01*
X404608Y488196D01*
X404466Y488313D01*
X404450Y488321D01*
X404436Y488332D01*
X404272Y488415D01*
X404110Y488501D01*
X404093Y488506D01*
X404077Y488514D01*
X403900Y488564D01*
X403724Y488616D01*
X403706Y488618D01*
X403689Y488622D01*
X403506Y488636D01*
X403323Y488652D01*
X403305Y488650D01*
X403288Y488652D01*
X403105Y488629D01*
X402923Y488609D01*
X402906Y488604D01*
X402888Y488601D01*
X402714Y488543D01*
X402539Y488488D01*
X402523Y488479D01*
X402506Y488473D01*
X402348Y488382D01*
X402187Y488293D01*
X402173Y488281D01*
X402158Y488272D01*
X401905Y488058D01*
X399887Y486040D01*
X396920Y484811D01*
X396113Y484477D01*
X396105Y484472D01*
X396096Y484470D01*
X395927Y484377D01*
X395758Y484286D01*
X395751Y484281D01*
X395743Y484276D01*
X395595Y484152D01*
X395447Y484030D01*
X395442Y484023D01*
X395435Y484017D01*
X395315Y483867D01*
X395194Y483717D01*
X395189Y483709D01*
X395184Y483702D01*
X395097Y483533D01*
X395006Y483361D01*
X395004Y483352D01*
X395000Y483344D01*
X394948Y483162D01*
X394893Y482974D01*
X394893Y482965D01*
X394890Y482957D01*
X394875Y482765D01*
X394859Y482573D01*
X394860Y482564D01*
X394859Y482556D01*
X394882Y482365D01*
X394904Y482173D01*
X394907Y482165D01*
X394908Y482156D01*
X394968Y481974D01*
X395027Y481790D01*
X395032Y481782D01*
X395034Y481774D01*
X395130Y481606D01*
X395223Y481438D01*
X395229Y481432D01*
X395234Y481424D01*
X395361Y481278D01*
X395485Y481133D01*
X395492Y481127D01*
X395498Y481120D01*
X395650Y481003D01*
X395802Y480884D01*
X395810Y480880D01*
X395817Y480875D01*
X396113Y480723D01*
X399887Y479160D01*
X402960Y476087D01*
X403508Y474765D01*
X403514Y474753D01*
X403518Y474740D01*
X403609Y474575D01*
X403698Y474410D01*
X403706Y474400D01*
X403713Y474388D01*
X403835Y474243D01*
X403954Y474100D01*
X403965Y474091D01*
X403973Y474081D01*
X404121Y473964D01*
X404267Y473846D01*
X404279Y473840D01*
X404289Y473831D01*
X404456Y473746D01*
X404623Y473659D01*
X404636Y473655D01*
X404648Y473649D01*
X404829Y473599D01*
X405010Y473546D01*
X405023Y473545D01*
X405036Y473541D01*
X405224Y473527D01*
X405411Y473511D01*
X405424Y473513D01*
X405438Y473512D01*
X405626Y473535D01*
X405811Y473556D01*
X405824Y473560D01*
X405837Y473562D01*
X406015Y473622D01*
X406194Y473679D01*
X406206Y473686D01*
X406219Y473690D01*
X406381Y473784D01*
X406546Y473876D01*
X406556Y473884D01*
X406568Y473891D01*
X406821Y474106D01*
X406912Y474197D01*
X409876Y475425D01*
X413084Y475425D01*
X416048Y474197D01*
X418317Y471928D01*
X419545Y468964D01*
X419545Y465756D01*
X418317Y462792D01*
X416048Y460523D01*
X413084Y459295D01*
X409876Y459295D01*
X406912Y460523D01*
X404777Y462658D01*
X404763Y462669D01*
X404752Y462682D01*
X404608Y462796D01*
X404466Y462913D01*
X404450Y462921D01*
X404436Y462932D01*
X404272Y463015D01*
X404110Y463101D01*
X404093Y463106D01*
X404077Y463114D01*
X403900Y463164D01*
X403724Y463216D01*
X403706Y463218D01*
X403689Y463222D01*
X403506Y463236D01*
X403323Y463252D01*
X403305Y463250D01*
X403288Y463252D01*
X403105Y463229D01*
X402923Y463209D01*
X402906Y463204D01*
X402888Y463201D01*
X402714Y463143D01*
X402539Y463088D01*
X402523Y463079D01*
X402506Y463073D01*
X402348Y462982D01*
X402187Y462893D01*
X402173Y462881D01*
X402158Y462872D01*
X401905Y462658D01*
X399887Y460640D01*
X396113Y459077D01*
X396105Y459072D01*
X396096Y459070D01*
X395928Y458978D01*
X395758Y458886D01*
X395751Y458881D01*
X395743Y458876D01*
X395597Y458753D01*
X395447Y458630D01*
X395442Y458623D01*
X395435Y458617D01*
X395315Y458467D01*
X395194Y458317D01*
X395189Y458309D01*
X395184Y458303D01*
X395096Y458131D01*
X395007Y457961D01*
X395004Y457952D01*
X395000Y457944D01*
X394948Y457760D01*
X394893Y457574D01*
X394893Y457566D01*
X394890Y457557D01*
X394875Y457365D01*
X394859Y457173D01*
X394860Y457164D01*
X394859Y457156D01*
X394882Y456965D01*
X394904Y456773D01*
X394907Y456765D01*
X394908Y456756D01*
X394969Y456571D01*
X395027Y456390D01*
X395031Y456382D01*
X395034Y456374D01*
X395130Y456206D01*
X395223Y456038D01*
X395229Y456032D01*
X395234Y456024D01*
X395360Y455879D01*
X395485Y455733D01*
X395492Y455727D01*
X395498Y455720D01*
X395650Y455603D01*
X395802Y455484D01*
X395810Y455480D01*
X395817Y455475D01*
X396113Y455323D01*
X399887Y453760D01*
X402960Y450687D01*
X404523Y446913D01*
X404528Y446905D01*
X404530Y446896D01*
X404622Y446728D01*
X404714Y446558D01*
X404719Y446551D01*
X404724Y446543D01*
X404847Y446397D01*
X404970Y446247D01*
X404977Y446242D01*
X404983Y446235D01*
X405133Y446115D01*
X405283Y445994D01*
X405291Y445989D01*
X405297Y445984D01*
X405469Y445896D01*
X405639Y445807D01*
X405648Y445804D01*
X405656Y445800D01*
X405840Y445748D01*
X406026Y445693D01*
X406034Y445693D01*
X406043Y445690D01*
X406234Y445675D01*
X406427Y445659D01*
X406436Y445660D01*
X406444Y445659D01*
X406635Y445682D01*
X406827Y445704D01*
X406835Y445707D01*
X406844Y445708D01*
X407027Y445768D01*
X407210Y445827D01*
X407218Y445831D01*
X407226Y445834D01*
X407394Y445930D01*
X407562Y446023D01*
X407568Y446029D01*
X407576Y446034D01*
X407721Y446160D01*
X407867Y446285D01*
X407873Y446292D01*
X407880Y446298D01*
X407997Y446450D01*
X408116Y446602D01*
X408120Y446610D01*
X408125Y446617D01*
X408277Y446913D01*
X409840Y450687D01*
X412913Y453760D01*
X416927Y455423D01*
X421273Y455423D01*
X425287Y453760D01*
X428360Y450687D01*
X429923Y446913D01*
X429928Y446905D01*
X429930Y446896D01*
X430022Y446728D01*
X430114Y446558D01*
X430119Y446551D01*
X430124Y446543D01*
X430247Y446397D01*
X430370Y446247D01*
X430377Y446242D01*
X430383Y446235D01*
X430533Y446115D01*
X430683Y445994D01*
X430691Y445989D01*
X430697Y445984D01*
X430869Y445896D01*
X431039Y445807D01*
X431048Y445804D01*
X431056Y445800D01*
X431240Y445748D01*
X431426Y445693D01*
X431434Y445693D01*
X431443Y445690D01*
X431634Y445675D01*
X431827Y445659D01*
X431836Y445660D01*
G37*
G36*
X538270Y452916D02*
X538270Y452916D01*
X538279Y452915D01*
X538471Y452939D01*
X538661Y452962D01*
X538670Y452964D01*
X538679Y452966D01*
X538861Y453027D01*
X539044Y453086D01*
X539052Y453091D01*
X539060Y453094D01*
X539228Y453190D01*
X539395Y453284D01*
X539402Y453290D01*
X539409Y453295D01*
X539662Y453509D01*
X539913Y453760D01*
X543927Y455423D01*
X548273Y455423D01*
X549649Y454853D01*
X549671Y454846D01*
X549690Y454836D01*
X549863Y454788D01*
X550035Y454736D01*
X550057Y454734D01*
X550078Y454728D01*
X550258Y454715D01*
X550435Y454698D01*
X550457Y454700D01*
X550480Y454699D01*
X550658Y454721D01*
X550836Y454740D01*
X550857Y454746D01*
X550879Y454749D01*
X551049Y454806D01*
X551220Y454859D01*
X551240Y454870D01*
X551261Y454877D01*
X551416Y454967D01*
X551573Y455053D01*
X551591Y455067D01*
X551610Y455078D01*
X551863Y455293D01*
X572428Y475858D01*
X572445Y475879D01*
X572466Y475897D01*
X572573Y476034D01*
X572683Y476170D01*
X572696Y476193D01*
X572712Y476215D01*
X572790Y476372D01*
X572872Y476526D01*
X572880Y476551D01*
X572892Y476575D01*
X572937Y476745D01*
X572987Y476911D01*
X572989Y476938D01*
X572996Y476964D01*
X573023Y477295D01*
X573023Y493279D01*
X573022Y493293D01*
X573023Y493306D01*
X573002Y493492D01*
X572983Y493680D01*
X572979Y493693D01*
X572978Y493706D01*
X572921Y493884D01*
X572865Y494065D01*
X572859Y494077D01*
X572855Y494089D01*
X572763Y494253D01*
X572673Y494419D01*
X572665Y494429D01*
X572658Y494441D01*
X572535Y494584D01*
X572416Y494728D01*
X572405Y494736D01*
X572397Y494747D01*
X572248Y494863D01*
X572102Y494980D01*
X572090Y494986D01*
X572080Y494995D01*
X571910Y495080D01*
X571745Y495166D01*
X571732Y495169D01*
X571720Y495176D01*
X571538Y495225D01*
X571358Y495277D01*
X571344Y495278D01*
X571331Y495282D01*
X571145Y495295D01*
X570956Y495310D01*
X570943Y495308D01*
X570930Y495309D01*
X570743Y495285D01*
X570557Y495263D01*
X570544Y495259D01*
X570531Y495257D01*
X570215Y495156D01*
X570016Y495073D01*
X567904Y495073D01*
X565954Y495881D01*
X564461Y497374D01*
X563653Y499324D01*
X563653Y499815D01*
X563651Y499842D01*
X563653Y499869D01*
X563631Y500043D01*
X563613Y500216D01*
X563606Y500241D01*
X563602Y500268D01*
X563547Y500434D01*
X563495Y500601D01*
X563482Y500624D01*
X563474Y500650D01*
X563387Y500801D01*
X563303Y500955D01*
X563286Y500975D01*
X563273Y500999D01*
X563058Y501252D01*
X560323Y503987D01*
X560323Y541310D01*
X560321Y541337D01*
X560323Y541364D01*
X560301Y541538D01*
X560283Y541711D01*
X560276Y541737D01*
X560272Y541763D01*
X560217Y541929D01*
X560165Y542096D01*
X560152Y542120D01*
X560144Y542145D01*
X560057Y542297D01*
X559973Y542450D01*
X559956Y542471D01*
X559943Y542494D01*
X559728Y542747D01*
X559381Y543094D01*
X558573Y545044D01*
X558573Y547156D01*
X559381Y549106D01*
X560874Y550599D01*
X562824Y551407D01*
X564936Y551407D01*
X566886Y550599D01*
X568379Y549106D01*
X569115Y547328D01*
X569118Y547324D01*
X569119Y547320D01*
X569212Y547148D01*
X569306Y546973D01*
X569308Y546969D01*
X569311Y546966D01*
X569437Y546814D01*
X569562Y546663D01*
X569565Y546660D01*
X569568Y546656D01*
X569721Y546533D01*
X569875Y546409D01*
X569879Y546407D01*
X569882Y546404D01*
X570055Y546314D01*
X570231Y546222D01*
X570235Y546220D01*
X570239Y546218D01*
X570427Y546164D01*
X570618Y546109D01*
X570622Y546108D01*
X570626Y546107D01*
X570824Y546091D01*
X571019Y546074D01*
X571023Y546075D01*
X571028Y546074D01*
X571222Y546097D01*
X571419Y546119D01*
X571423Y546121D01*
X571427Y546121D01*
X571613Y546182D01*
X571802Y546242D01*
X571806Y546245D01*
X571810Y546246D01*
X571982Y546343D01*
X572154Y546439D01*
X572157Y546442D01*
X572161Y546444D01*
X572309Y546572D01*
X572459Y546701D01*
X572462Y546704D01*
X572466Y546707D01*
X572586Y546862D01*
X572708Y547018D01*
X572710Y547022D01*
X572712Y547025D01*
X572800Y547201D01*
X572888Y547377D01*
X572890Y547382D01*
X572892Y547386D01*
X572943Y547577D01*
X572995Y547766D01*
X572995Y547770D01*
X572996Y547774D01*
X573023Y548105D01*
X573023Y553807D01*
X573021Y553829D01*
X573023Y553851D01*
X573001Y554029D01*
X572983Y554207D01*
X572977Y554229D01*
X572974Y554251D01*
X572918Y554421D01*
X572865Y554592D01*
X572855Y554612D01*
X572848Y554633D01*
X572758Y554789D01*
X572673Y554946D01*
X572659Y554964D01*
X572648Y554983D01*
X572530Y555119D01*
X572416Y555256D01*
X572398Y555270D01*
X572384Y555287D01*
X572241Y555396D01*
X572102Y555508D01*
X572082Y555518D01*
X572064Y555532D01*
X572061Y555534D01*
X569743Y557852D01*
X568515Y560816D01*
X568515Y577104D01*
X569743Y580068D01*
X572184Y582510D01*
X572190Y582517D01*
X572197Y582522D01*
X572317Y582672D01*
X572440Y582821D01*
X572444Y582829D01*
X572449Y582836D01*
X572538Y583006D01*
X572628Y583177D01*
X572631Y583186D01*
X572635Y583193D01*
X572688Y583378D01*
X572743Y583563D01*
X572744Y583572D01*
X572746Y583580D01*
X572762Y583771D01*
X572779Y583964D01*
X572778Y583973D01*
X572779Y583982D01*
X572757Y584171D01*
X572736Y584364D01*
X572733Y584373D01*
X572732Y584381D01*
X572673Y584563D01*
X572614Y584748D01*
X572610Y584756D01*
X572607Y584764D01*
X572512Y584933D01*
X572420Y585100D01*
X572414Y585107D01*
X572409Y585115D01*
X572283Y585261D01*
X572159Y585407D01*
X572152Y585413D01*
X572146Y585420D01*
X571995Y585537D01*
X571843Y585657D01*
X571835Y585661D01*
X571828Y585666D01*
X571656Y585752D01*
X571484Y585839D01*
X571476Y585842D01*
X571468Y585846D01*
X571282Y585896D01*
X571096Y585947D01*
X571087Y585948D01*
X571079Y585950D01*
X570748Y585977D01*
X569327Y585977D01*
X565313Y587640D01*
X562240Y590713D01*
X560677Y594487D01*
X560672Y594495D01*
X560670Y594504D01*
X560577Y594673D01*
X560486Y594842D01*
X560481Y594849D01*
X560476Y594857D01*
X560352Y595005D01*
X560230Y595153D01*
X560223Y595158D01*
X560217Y595165D01*
X560067Y595285D01*
X559917Y595406D01*
X559909Y595411D01*
X559902Y595416D01*
X559733Y595503D01*
X559561Y595594D01*
X559552Y595596D01*
X559544Y595600D01*
X559362Y595652D01*
X559174Y595707D01*
X559165Y595707D01*
X559157Y595710D01*
X558966Y595725D01*
X558773Y595741D01*
X558764Y595740D01*
X558756Y595741D01*
X558565Y595718D01*
X558373Y595696D01*
X558365Y595693D01*
X558356Y595692D01*
X558174Y595632D01*
X557990Y595573D01*
X557982Y595568D01*
X557974Y595566D01*
X557806Y595470D01*
X557638Y595377D01*
X557632Y595371D01*
X557624Y595366D01*
X557478Y595239D01*
X557333Y595115D01*
X557327Y595108D01*
X557320Y595102D01*
X557203Y594950D01*
X557084Y594798D01*
X557080Y594790D01*
X557075Y594783D01*
X556923Y594487D01*
X555360Y590713D01*
X552287Y587640D01*
X551883Y587473D01*
X551879Y587471D01*
X551875Y587469D01*
X551702Y587376D01*
X551528Y587282D01*
X551524Y587280D01*
X551520Y587277D01*
X551370Y587152D01*
X551218Y587026D01*
X551215Y587023D01*
X551211Y587020D01*
X551088Y586866D01*
X550964Y586713D01*
X550962Y586709D01*
X550959Y586706D01*
X550868Y586531D01*
X550777Y586357D01*
X550775Y586352D01*
X550773Y586349D01*
X550720Y586163D01*
X550664Y585971D01*
X550663Y585966D01*
X550662Y585962D01*
X550646Y585765D01*
X550629Y585569D01*
X550629Y585565D01*
X550629Y585560D01*
X550652Y585363D01*
X550674Y585169D01*
X550676Y585165D01*
X550676Y585161D01*
X550737Y584973D01*
X550797Y584786D01*
X550799Y584782D01*
X550801Y584778D01*
X550898Y584605D01*
X550994Y584434D01*
X550997Y584431D01*
X550999Y584427D01*
X551127Y584279D01*
X551255Y584129D01*
X551259Y584126D01*
X551262Y584122D01*
X551415Y584003D01*
X551572Y583880D01*
X551577Y583878D01*
X551580Y583876D01*
X551755Y583789D01*
X551932Y583700D01*
X551937Y583698D01*
X551941Y583696D01*
X552131Y583645D01*
X552321Y583593D01*
X552325Y583593D01*
X552329Y583592D01*
X552660Y583565D01*
X552784Y583565D01*
X555748Y582337D01*
X558017Y580068D01*
X559245Y577104D01*
X559245Y560816D01*
X558017Y557852D01*
X555748Y555583D01*
X552784Y554355D01*
X549576Y554355D01*
X546612Y555583D01*
X544343Y557852D01*
X543115Y560816D01*
X543115Y577104D01*
X544343Y580068D01*
X546784Y582510D01*
X546790Y582517D01*
X546797Y582522D01*
X546917Y582672D01*
X547040Y582821D01*
X547044Y582829D01*
X547049Y582836D01*
X547138Y583006D01*
X547228Y583177D01*
X547231Y583186D01*
X547235Y583193D01*
X547288Y583378D01*
X547343Y583563D01*
X547344Y583572D01*
X547346Y583580D01*
X547362Y583771D01*
X547379Y583964D01*
X547378Y583973D01*
X547379Y583982D01*
X547357Y584171D01*
X547336Y584364D01*
X547333Y584373D01*
X547332Y584381D01*
X547273Y584563D01*
X547214Y584748D01*
X547210Y584756D01*
X547207Y584764D01*
X547112Y584933D01*
X547020Y585100D01*
X547014Y585107D01*
X547009Y585115D01*
X546883Y585261D01*
X546759Y585407D01*
X546752Y585413D01*
X546746Y585420D01*
X546595Y585537D01*
X546443Y585657D01*
X546435Y585661D01*
X546428Y585666D01*
X546256Y585752D01*
X546084Y585839D01*
X546076Y585842D01*
X546068Y585846D01*
X545882Y585896D01*
X545696Y585947D01*
X545687Y585948D01*
X545679Y585950D01*
X545348Y585977D01*
X543927Y585977D01*
X539913Y587640D01*
X536840Y590713D01*
X535277Y594487D01*
X535272Y594495D01*
X535270Y594504D01*
X535177Y594673D01*
X535086Y594842D01*
X535081Y594849D01*
X535076Y594857D01*
X534952Y595005D01*
X534830Y595153D01*
X534823Y595158D01*
X534817Y595165D01*
X534667Y595285D01*
X534517Y595406D01*
X534509Y595411D01*
X534502Y595416D01*
X534333Y595503D01*
X534161Y595594D01*
X534152Y595596D01*
X534144Y595600D01*
X533962Y595652D01*
X533774Y595707D01*
X533765Y595707D01*
X533757Y595710D01*
X533566Y595725D01*
X533373Y595741D01*
X533364Y595740D01*
X533356Y595741D01*
X533165Y595718D01*
X532973Y595696D01*
X532965Y595693D01*
X532956Y595692D01*
X532774Y595632D01*
X532590Y595573D01*
X532582Y595568D01*
X532574Y595566D01*
X532406Y595470D01*
X532238Y595377D01*
X532232Y595371D01*
X532224Y595366D01*
X532078Y595239D01*
X531933Y595115D01*
X531927Y595108D01*
X531920Y595102D01*
X531803Y594950D01*
X531684Y594798D01*
X531680Y594790D01*
X531675Y594783D01*
X531523Y594487D01*
X529960Y590713D01*
X526887Y587640D01*
X526483Y587473D01*
X526479Y587471D01*
X526475Y587469D01*
X526302Y587376D01*
X526128Y587282D01*
X526124Y587280D01*
X526120Y587277D01*
X525970Y587152D01*
X525818Y587026D01*
X525815Y587023D01*
X525811Y587020D01*
X525688Y586866D01*
X525564Y586713D01*
X525562Y586709D01*
X525559Y586706D01*
X525468Y586531D01*
X525377Y586357D01*
X525375Y586352D01*
X525373Y586349D01*
X525320Y586163D01*
X525264Y585971D01*
X525263Y585966D01*
X525262Y585962D01*
X525246Y585765D01*
X525229Y585569D01*
X525229Y585565D01*
X525229Y585560D01*
X525252Y585363D01*
X525274Y585169D01*
X525276Y585165D01*
X525276Y585161D01*
X525337Y584973D01*
X525397Y584786D01*
X525399Y584782D01*
X525401Y584778D01*
X525498Y584605D01*
X525594Y584434D01*
X525597Y584431D01*
X525599Y584427D01*
X525727Y584279D01*
X525855Y584129D01*
X525859Y584126D01*
X525862Y584122D01*
X526015Y584003D01*
X526172Y583880D01*
X526177Y583878D01*
X526180Y583876D01*
X526355Y583789D01*
X526532Y583700D01*
X526537Y583698D01*
X526541Y583696D01*
X526731Y583645D01*
X526921Y583593D01*
X526925Y583593D01*
X526929Y583592D01*
X527260Y583565D01*
X527384Y583565D01*
X530348Y582337D01*
X532617Y580068D01*
X533845Y577104D01*
X533845Y560816D01*
X532617Y557852D01*
X530348Y555583D01*
X527384Y554355D01*
X524176Y554355D01*
X521212Y555583D01*
X519342Y557452D01*
X519335Y557458D01*
X519330Y557465D01*
X519180Y557585D01*
X519031Y557708D01*
X519023Y557712D01*
X519016Y557717D01*
X518846Y557806D01*
X518675Y557896D01*
X518666Y557899D01*
X518659Y557903D01*
X518474Y557956D01*
X518289Y558011D01*
X518280Y558012D01*
X518272Y558014D01*
X518081Y558030D01*
X517888Y558047D01*
X517879Y558046D01*
X517870Y558047D01*
X517681Y558025D01*
X517488Y558004D01*
X517479Y558001D01*
X517471Y558000D01*
X517289Y557941D01*
X517104Y557882D01*
X517096Y557878D01*
X517088Y557875D01*
X516921Y557781D01*
X516752Y557688D01*
X516745Y557682D01*
X516737Y557677D01*
X516592Y557552D01*
X516445Y557427D01*
X516439Y557420D01*
X516432Y557414D01*
X516315Y557263D01*
X516195Y557111D01*
X516191Y557103D01*
X516186Y557096D01*
X516100Y556923D01*
X516013Y556752D01*
X516010Y556744D01*
X516006Y556736D01*
X515956Y556550D01*
X515905Y556364D01*
X515904Y556355D01*
X515902Y556347D01*
X515875Y556016D01*
X515875Y512539D01*
X515877Y512512D01*
X515875Y512486D01*
X515897Y512312D01*
X515915Y512138D01*
X515922Y512113D01*
X515926Y512086D01*
X515981Y511921D01*
X516033Y511753D01*
X516046Y511730D01*
X516054Y511705D01*
X516141Y511553D01*
X516225Y511399D01*
X516242Y511379D01*
X516255Y511356D01*
X516470Y511103D01*
X541719Y485853D01*
X541740Y485836D01*
X541758Y485816D01*
X541896Y485709D01*
X542031Y485598D01*
X542055Y485585D01*
X542076Y485569D01*
X542233Y485491D01*
X542387Y485409D01*
X542412Y485402D01*
X542436Y485390D01*
X542606Y485344D01*
X542773Y485294D01*
X542799Y485292D01*
X542825Y485285D01*
X543156Y485258D01*
X544724Y485258D01*
X546675Y484450D01*
X548168Y482957D01*
X548975Y481007D01*
X548975Y478896D01*
X548168Y476945D01*
X546675Y475452D01*
X544749Y474655D01*
X544724Y474645D01*
X542613Y474645D01*
X540663Y475452D01*
X539170Y476945D01*
X538362Y478896D01*
X538362Y480464D01*
X538359Y480491D01*
X538361Y480518D01*
X538339Y480691D01*
X538322Y480865D01*
X538314Y480890D01*
X538311Y480917D01*
X538255Y481083D01*
X538204Y481250D01*
X538191Y481273D01*
X538183Y481299D01*
X538095Y481450D01*
X538012Y481604D01*
X537995Y481624D01*
X537982Y481648D01*
X537767Y481901D01*
X510285Y509382D01*
X510285Y556016D01*
X510284Y556025D01*
X510285Y556034D01*
X510264Y556226D01*
X510245Y556417D01*
X510243Y556425D01*
X510242Y556434D01*
X510184Y556617D01*
X510127Y556802D01*
X510123Y556810D01*
X510120Y556818D01*
X510027Y556986D01*
X509935Y557156D01*
X509930Y557163D01*
X509925Y557170D01*
X509800Y557318D01*
X509678Y557465D01*
X509671Y557471D01*
X509665Y557477D01*
X509513Y557597D01*
X509364Y557717D01*
X509356Y557721D01*
X509349Y557727D01*
X509177Y557814D01*
X509007Y557903D01*
X508998Y557905D01*
X508990Y557909D01*
X508804Y557961D01*
X508620Y558014D01*
X508611Y558015D01*
X508602Y558017D01*
X508410Y558031D01*
X508218Y558047D01*
X508210Y558046D01*
X508201Y558047D01*
X508008Y558022D01*
X507819Y558000D01*
X507810Y557997D01*
X507801Y557996D01*
X507618Y557935D01*
X507436Y557875D01*
X507428Y557871D01*
X507420Y557868D01*
X507254Y557773D01*
X507085Y557677D01*
X507078Y557672D01*
X507071Y557667D01*
X506818Y557452D01*
X504948Y555583D01*
X501984Y554355D01*
X498776Y554355D01*
X495823Y555578D01*
X495810Y555582D01*
X495799Y555588D01*
X495618Y555640D01*
X495438Y555695D01*
X495425Y555696D01*
X495412Y555700D01*
X495223Y555715D01*
X495037Y555733D01*
X495024Y555731D01*
X495010Y555733D01*
X494824Y555711D01*
X494637Y555691D01*
X494624Y555687D01*
X494611Y555686D01*
X494431Y555627D01*
X494252Y555571D01*
X494241Y555565D01*
X494228Y555561D01*
X494063Y555468D01*
X493899Y555378D01*
X493889Y555370D01*
X493877Y555363D01*
X493735Y555240D01*
X493591Y555119D01*
X493583Y555108D01*
X493572Y555100D01*
X493458Y554952D01*
X493340Y554804D01*
X493334Y554792D01*
X493326Y554782D01*
X493242Y554613D01*
X493156Y554446D01*
X493152Y554433D01*
X493146Y554421D01*
X493097Y554238D01*
X493046Y554059D01*
X493045Y554045D01*
X493042Y554032D01*
X493015Y553702D01*
X493015Y492219D01*
X493017Y492192D01*
X493015Y492166D01*
X493037Y491992D01*
X493055Y491818D01*
X493062Y491793D01*
X493066Y491766D01*
X493121Y491601D01*
X493173Y491433D01*
X493186Y491410D01*
X493194Y491385D01*
X493281Y491233D01*
X493365Y491079D01*
X493382Y491059D01*
X493395Y491036D01*
X493610Y490783D01*
X521263Y463130D01*
X521283Y463113D01*
X521301Y463092D01*
X521439Y462985D01*
X521574Y462875D01*
X521598Y462862D01*
X521619Y462846D01*
X521776Y462768D01*
X521930Y462686D01*
X521955Y462678D01*
X521979Y462666D01*
X522149Y462621D01*
X522316Y462571D01*
X522342Y462569D01*
X522368Y462562D01*
X522699Y462535D01*
X529478Y462535D01*
X536195Y455818D01*
X536195Y454946D01*
X536196Y454937D01*
X536195Y454928D01*
X536216Y454736D01*
X536235Y454545D01*
X536237Y454536D01*
X536238Y454528D01*
X536296Y454344D01*
X536353Y454160D01*
X536357Y454152D01*
X536360Y454144D01*
X536453Y453975D01*
X536545Y453806D01*
X536550Y453799D01*
X536555Y453791D01*
X536680Y453644D01*
X536802Y453497D01*
X536809Y453491D01*
X536815Y453484D01*
X536966Y453365D01*
X537116Y453245D01*
X537124Y453240D01*
X537131Y453235D01*
X537304Y453147D01*
X537473Y453059D01*
X537482Y453057D01*
X537490Y453052D01*
X537676Y453001D01*
X537860Y452948D01*
X537869Y452947D01*
X537878Y452944D01*
X538070Y452930D01*
X538262Y452915D01*
X538270Y452916D01*
G37*
G36*
X684566Y307894D02*
X684566Y307894D01*
X684574Y307893D01*
X684766Y307916D01*
X684957Y307938D01*
X684965Y307940D01*
X684974Y307942D01*
X685157Y308002D01*
X685340Y308061D01*
X685348Y308065D01*
X685356Y308068D01*
X685524Y308164D01*
X685692Y308257D01*
X685698Y308263D01*
X685706Y308267D01*
X685852Y308395D01*
X685997Y308519D01*
X686003Y308526D01*
X686010Y308532D01*
X686127Y308684D01*
X686246Y308836D01*
X686250Y308844D01*
X686255Y308851D01*
X686407Y309146D01*
X687755Y312401D01*
X690899Y315545D01*
X695007Y317247D01*
X697992Y317247D01*
X698010Y317249D01*
X698028Y317247D01*
X698210Y317268D01*
X698393Y317287D01*
X698410Y317292D01*
X698427Y317294D01*
X698602Y317351D01*
X698778Y317405D01*
X698793Y317413D01*
X698810Y317419D01*
X698970Y317509D01*
X699132Y317597D01*
X699145Y317608D01*
X699161Y317617D01*
X699300Y317737D01*
X699441Y317854D01*
X699452Y317868D01*
X699466Y317880D01*
X699578Y318025D01*
X699693Y318168D01*
X699701Y318184D01*
X699712Y318198D01*
X699794Y318363D01*
X699879Y318525D01*
X699884Y318542D01*
X699892Y318558D01*
X699939Y318736D01*
X699990Y318912D01*
X699992Y318930D01*
X699996Y318947D01*
X700023Y319278D01*
X700023Y401407D01*
X700021Y401429D01*
X700023Y401451D01*
X700001Y401629D01*
X699983Y401807D01*
X699977Y401829D01*
X699974Y401851D01*
X699918Y402021D01*
X699865Y402192D01*
X699855Y402212D01*
X699848Y402233D01*
X699758Y402389D01*
X699673Y402546D01*
X699659Y402564D01*
X699648Y402583D01*
X699530Y402719D01*
X699416Y402856D01*
X699398Y402870D01*
X699384Y402887D01*
X699241Y402996D01*
X699102Y403108D01*
X699082Y403118D01*
X699064Y403132D01*
X699061Y403134D01*
X696743Y405452D01*
X695515Y408416D01*
X695515Y424704D01*
X696743Y427668D01*
X698260Y429185D01*
X698292Y429225D01*
X698330Y429259D01*
X698420Y429380D01*
X698515Y429497D01*
X698539Y429542D01*
X698569Y429583D01*
X698633Y429720D01*
X698704Y429852D01*
X698718Y429901D01*
X698740Y429948D01*
X698775Y430094D01*
X698818Y430238D01*
X698823Y430289D01*
X698835Y430339D01*
X698841Y430489D01*
X698855Y430639D01*
X698849Y430690D01*
X698851Y430741D01*
X698828Y430889D01*
X698811Y431039D01*
X698796Y431088D01*
X698788Y431139D01*
X698735Y431280D01*
X698690Y431423D01*
X698665Y431468D01*
X698647Y431516D01*
X698568Y431644D01*
X698495Y431776D01*
X698462Y431815D01*
X698435Y431858D01*
X698332Y431968D01*
X698235Y432083D01*
X698194Y432114D01*
X698159Y432152D01*
X698037Y432239D01*
X697919Y432332D01*
X697873Y432355D01*
X697831Y432385D01*
X697694Y432446D01*
X697560Y432515D01*
X697510Y432528D01*
X697464Y432549D01*
X697239Y432604D01*
X697172Y432623D01*
X697158Y432624D01*
X697141Y432628D01*
X695704Y432855D01*
X693917Y433436D01*
X692243Y434289D01*
X690722Y435394D01*
X689394Y436722D01*
X688289Y438243D01*
X687436Y439917D01*
X687198Y440649D01*
X687162Y440730D01*
X687136Y440815D01*
X687082Y440914D01*
X687036Y441018D01*
X686985Y441091D01*
X686943Y441168D01*
X686870Y441255D01*
X686805Y441347D01*
X686741Y441409D01*
X686684Y441477D01*
X686595Y441547D01*
X686513Y441625D01*
X686438Y441672D01*
X686369Y441728D01*
X686268Y441779D01*
X686173Y441839D01*
X686089Y441871D01*
X686011Y441911D01*
X685902Y441942D01*
X685796Y441982D01*
X685708Y441997D01*
X685623Y442021D01*
X685511Y442030D01*
X685399Y442048D01*
X685310Y442045D01*
X685222Y442052D01*
X685110Y442039D01*
X684997Y442035D01*
X684910Y442014D01*
X684822Y442004D01*
X684715Y441968D01*
X684605Y441942D01*
X684524Y441905D01*
X684440Y441877D01*
X684342Y441821D01*
X684239Y441774D01*
X684167Y441722D01*
X684090Y441678D01*
X684005Y441603D01*
X683914Y441537D01*
X683853Y441471D01*
X683787Y441413D01*
X683718Y441324D01*
X683641Y441240D01*
X683595Y441164D01*
X683541Y441094D01*
X683477Y440968D01*
X683433Y440896D01*
X683417Y440853D01*
X683390Y440799D01*
X682360Y438313D01*
X679287Y435240D01*
X678883Y435073D01*
X678879Y435071D01*
X678875Y435069D01*
X678702Y434976D01*
X678528Y434882D01*
X678524Y434880D01*
X678520Y434877D01*
X678370Y434752D01*
X678218Y434626D01*
X678215Y434623D01*
X678211Y434620D01*
X678088Y434466D01*
X677964Y434313D01*
X677962Y434309D01*
X677959Y434306D01*
X677869Y434133D01*
X677777Y433957D01*
X677775Y433952D01*
X677773Y433949D01*
X677720Y433763D01*
X677664Y433571D01*
X677663Y433566D01*
X677662Y433562D01*
X677646Y433363D01*
X677629Y433169D01*
X677629Y433165D01*
X677629Y433160D01*
X677652Y432965D01*
X677674Y432769D01*
X677676Y432765D01*
X677676Y432761D01*
X677737Y432573D01*
X677797Y432386D01*
X677799Y432382D01*
X677801Y432378D01*
X677898Y432205D01*
X677994Y432034D01*
X677997Y432031D01*
X677999Y432027D01*
X678127Y431879D01*
X678255Y431729D01*
X678259Y431726D01*
X678262Y431722D01*
X678415Y431603D01*
X678572Y431480D01*
X678577Y431478D01*
X678580Y431476D01*
X678755Y431389D01*
X678932Y431300D01*
X678937Y431298D01*
X678941Y431296D01*
X679131Y431245D01*
X679321Y431193D01*
X679325Y431193D01*
X679329Y431192D01*
X679660Y431165D01*
X679784Y431165D01*
X682748Y429937D01*
X685017Y427668D01*
X686245Y424704D01*
X686245Y408416D01*
X685017Y405452D01*
X682685Y403120D01*
X682636Y403093D01*
X682619Y403079D01*
X682599Y403068D01*
X682463Y402951D01*
X682326Y402837D01*
X682311Y402820D01*
X682294Y402805D01*
X682185Y402664D01*
X682072Y402524D01*
X682061Y402505D01*
X682048Y402487D01*
X681968Y402327D01*
X681885Y402168D01*
X681878Y402146D01*
X681868Y402126D01*
X681822Y401953D01*
X681772Y401782D01*
X681770Y401759D01*
X681764Y401738D01*
X681737Y401407D01*
X681737Y336347D01*
X679058Y333668D01*
X664929Y319539D01*
X664926Y319535D01*
X664923Y319533D01*
X664798Y319379D01*
X664674Y319227D01*
X664672Y319224D01*
X664669Y319220D01*
X664576Y319044D01*
X664485Y318872D01*
X664484Y318868D01*
X664482Y318864D01*
X664426Y318672D01*
X664370Y318486D01*
X664370Y318481D01*
X664369Y318477D01*
X664352Y318284D01*
X664334Y318085D01*
X664335Y318080D01*
X664334Y318076D01*
X664356Y317886D01*
X664377Y317685D01*
X664379Y317680D01*
X664379Y317676D01*
X664440Y317488D01*
X664499Y317301D01*
X664501Y317297D01*
X664502Y317293D01*
X664599Y317120D01*
X664694Y316948D01*
X664697Y316945D01*
X664699Y316941D01*
X664827Y316791D01*
X664954Y316641D01*
X664958Y316639D01*
X664961Y316635D01*
X665116Y316513D01*
X665270Y316392D01*
X665274Y316390D01*
X665278Y316387D01*
X665453Y316299D01*
X665629Y316209D01*
X665633Y316208D01*
X665637Y316206D01*
X665826Y316155D01*
X666017Y316101D01*
X666021Y316101D01*
X666026Y316100D01*
X666222Y316086D01*
X666419Y316072D01*
X666423Y316073D01*
X666427Y316072D01*
X666623Y316098D01*
X666818Y316122D01*
X666822Y316124D01*
X666827Y316124D01*
X667143Y316226D01*
X669607Y317247D01*
X674053Y317247D01*
X678161Y315545D01*
X681305Y312401D01*
X682653Y309146D01*
X682658Y309138D01*
X682660Y309130D01*
X682753Y308960D01*
X682844Y308791D01*
X682849Y308785D01*
X682854Y308777D01*
X682978Y308629D01*
X683100Y308481D01*
X683107Y308475D01*
X683113Y308469D01*
X683263Y308349D01*
X683413Y308227D01*
X683421Y308223D01*
X683428Y308218D01*
X683598Y308130D01*
X683769Y308040D01*
X683778Y308038D01*
X683786Y308034D01*
X683970Y307981D01*
X684156Y307927D01*
X684165Y307926D01*
X684173Y307924D01*
X684364Y307909D01*
X684557Y307893D01*
X684566Y307894D01*
G37*
%LPC*%
G36*
X231808Y102535D02*
X231808Y102535D01*
X230915Y103428D01*
X230915Y114692D01*
X231808Y115585D01*
X247820Y115585D01*
X247838Y115587D01*
X247856Y115585D01*
X248038Y115606D01*
X248221Y115625D01*
X248238Y115630D01*
X248255Y115632D01*
X248430Y115689D01*
X248606Y115743D01*
X248621Y115751D01*
X248638Y115757D01*
X248798Y115847D01*
X248960Y115935D01*
X248973Y115946D01*
X248989Y115955D01*
X249128Y116075D01*
X249269Y116192D01*
X249280Y116206D01*
X249294Y116218D01*
X249406Y116363D01*
X249521Y116506D01*
X249529Y116522D01*
X249540Y116536D01*
X249622Y116701D01*
X249707Y116863D01*
X249712Y116880D01*
X249720Y116896D01*
X249767Y117075D01*
X249818Y117250D01*
X249820Y117268D01*
X249824Y117285D01*
X249851Y117616D01*
X249851Y134632D01*
X250702Y136686D01*
X279900Y165884D01*
X279917Y165905D01*
X279938Y165922D01*
X280045Y166060D01*
X280155Y166195D01*
X280168Y166219D01*
X280184Y166240D01*
X280262Y166397D01*
X280344Y166551D01*
X280352Y166577D01*
X280364Y166601D01*
X280409Y166770D01*
X280459Y166937D01*
X280461Y166964D01*
X280468Y166990D01*
X280495Y167320D01*
X280495Y175812D01*
X281388Y176705D01*
X297732Y176705D01*
X298625Y175812D01*
X298625Y159468D01*
X297732Y158575D01*
X289240Y158575D01*
X289214Y158573D01*
X289187Y158575D01*
X289013Y158553D01*
X288840Y158535D01*
X288814Y158528D01*
X288788Y158524D01*
X288622Y158469D01*
X288455Y158417D01*
X288431Y158404D01*
X288406Y158396D01*
X288254Y158309D01*
X288101Y158225D01*
X288080Y158208D01*
X288057Y158195D01*
X287804Y157980D01*
X261624Y131800D01*
X261607Y131779D01*
X261586Y131762D01*
X261479Y131624D01*
X261369Y131488D01*
X261356Y131465D01*
X261340Y131444D01*
X261262Y131287D01*
X261180Y131133D01*
X261172Y131107D01*
X261160Y131083D01*
X261115Y130914D01*
X261065Y130747D01*
X261063Y130720D01*
X261056Y130694D01*
X261029Y130364D01*
X261029Y117616D01*
X261031Y117598D01*
X261029Y117580D01*
X261050Y117398D01*
X261069Y117215D01*
X261074Y117198D01*
X261076Y117181D01*
X261133Y117006D01*
X261187Y116830D01*
X261195Y116815D01*
X261201Y116798D01*
X261291Y116638D01*
X261379Y116476D01*
X261390Y116463D01*
X261399Y116447D01*
X261519Y116308D01*
X261636Y116167D01*
X261650Y116156D01*
X261662Y116142D01*
X261807Y116030D01*
X261950Y115915D01*
X261966Y115907D01*
X261980Y115896D01*
X262145Y115814D01*
X262307Y115729D01*
X262324Y115724D01*
X262340Y115716D01*
X262519Y115669D01*
X262694Y115618D01*
X262712Y115616D01*
X262729Y115612D01*
X263060Y115585D01*
X279072Y115585D01*
X279965Y114692D01*
X279965Y103428D01*
X279072Y102535D01*
X231808Y102535D01*
G37*
%LPD*%
%LPC*%
G36*
X426679Y200192D02*
X426679Y200192D01*
X426677Y200210D01*
X426679Y200227D01*
X426658Y200409D01*
X426639Y200592D01*
X426634Y200609D01*
X426632Y200627D01*
X426619Y200668D01*
X426646Y200762D01*
X426648Y200780D01*
X426652Y200797D01*
X426679Y201128D01*
X426679Y212609D01*
X427035Y212552D01*
X428860Y211959D01*
X430570Y211088D01*
X432123Y209960D01*
X433480Y208603D01*
X434608Y207050D01*
X435479Y205340D01*
X435511Y205244D01*
X435546Y205163D01*
X435573Y205078D01*
X435627Y204979D01*
X435672Y204875D01*
X435723Y204803D01*
X435766Y204725D01*
X435839Y204638D01*
X435904Y204546D01*
X435968Y204485D01*
X436025Y204417D01*
X436114Y204346D01*
X436196Y204268D01*
X436271Y204221D01*
X436340Y204166D01*
X436441Y204114D01*
X436536Y204054D01*
X436619Y204022D01*
X436698Y203982D01*
X436807Y203951D01*
X436913Y203911D01*
X437000Y203896D01*
X437086Y203872D01*
X437198Y203863D01*
X437310Y203845D01*
X437399Y203848D01*
X437487Y203841D01*
X437599Y203855D01*
X437712Y203858D01*
X437799Y203879D01*
X437887Y203890D01*
X437994Y203925D01*
X438104Y203951D01*
X438185Y203988D01*
X438269Y204016D01*
X438367Y204072D01*
X438470Y204119D01*
X438542Y204172D01*
X438619Y204216D01*
X438704Y204290D01*
X438795Y204356D01*
X438855Y204422D01*
X438922Y204480D01*
X438991Y204570D01*
X439068Y204653D01*
X439113Y204729D01*
X439168Y204799D01*
X439232Y204925D01*
X439276Y204997D01*
X439292Y205041D01*
X439319Y205094D01*
X440105Y206991D01*
X443249Y210135D01*
X447357Y211837D01*
X451803Y211837D01*
X455911Y210135D01*
X459055Y206991D01*
X460403Y203736D01*
X460408Y203728D01*
X460410Y203720D01*
X460502Y203552D01*
X460594Y203381D01*
X460599Y203374D01*
X460604Y203367D01*
X460727Y203220D01*
X460850Y203071D01*
X460857Y203065D01*
X460863Y203059D01*
X461013Y202939D01*
X461163Y202817D01*
X461171Y202813D01*
X461177Y202808D01*
X461348Y202720D01*
X461519Y202630D01*
X461528Y202628D01*
X461536Y202624D01*
X461720Y202571D01*
X461906Y202517D01*
X461914Y202516D01*
X461923Y202514D01*
X462114Y202499D01*
X462307Y202483D01*
X462316Y202484D01*
X462324Y202483D01*
X462514Y202506D01*
X462707Y202528D01*
X462715Y202530D01*
X462724Y202532D01*
X462906Y202592D01*
X463090Y202651D01*
X463098Y202655D01*
X463106Y202658D01*
X463274Y202754D01*
X463442Y202847D01*
X463448Y202853D01*
X463456Y202857D01*
X463601Y202984D01*
X463747Y203109D01*
X463753Y203116D01*
X463760Y203122D01*
X463877Y203274D01*
X463996Y203426D01*
X464000Y203434D01*
X464005Y203441D01*
X464157Y203736D01*
X465505Y206991D01*
X468649Y210135D01*
X472757Y211837D01*
X477203Y211837D01*
X481311Y210135D01*
X484455Y206991D01*
X485803Y203736D01*
X485808Y203728D01*
X485810Y203720D01*
X485902Y203552D01*
X485994Y203381D01*
X485999Y203374D01*
X486004Y203367D01*
X486127Y203220D01*
X486250Y203071D01*
X486257Y203065D01*
X486263Y203059D01*
X486413Y202939D01*
X486563Y202817D01*
X486571Y202813D01*
X486577Y202808D01*
X486748Y202720D01*
X486919Y202630D01*
X486928Y202628D01*
X486936Y202624D01*
X487120Y202571D01*
X487306Y202517D01*
X487314Y202516D01*
X487323Y202514D01*
X487514Y202499D01*
X487707Y202483D01*
X487716Y202484D01*
X487724Y202483D01*
X487914Y202506D01*
X488107Y202528D01*
X488115Y202530D01*
X488124Y202532D01*
X488306Y202592D01*
X488490Y202651D01*
X488498Y202655D01*
X488506Y202658D01*
X488674Y202754D01*
X488842Y202847D01*
X488848Y202853D01*
X488856Y202857D01*
X489001Y202984D01*
X489147Y203109D01*
X489153Y203116D01*
X489160Y203122D01*
X489277Y203274D01*
X489396Y203426D01*
X489400Y203434D01*
X489405Y203441D01*
X489557Y203736D01*
X490905Y206991D01*
X494049Y210135D01*
X498157Y211837D01*
X502603Y211837D01*
X506711Y210135D01*
X509855Y206991D01*
X511557Y202883D01*
X511557Y198437D01*
X509855Y194329D01*
X506711Y191185D01*
X502603Y189483D01*
X498157Y189483D01*
X494049Y191185D01*
X490905Y194329D01*
X489557Y197584D01*
X489552Y197592D01*
X489550Y197600D01*
X489457Y197770D01*
X489366Y197939D01*
X489361Y197945D01*
X489356Y197953D01*
X489232Y198101D01*
X489110Y198249D01*
X489103Y198255D01*
X489097Y198261D01*
X488947Y198381D01*
X488797Y198503D01*
X488789Y198507D01*
X488782Y198512D01*
X488612Y198600D01*
X488441Y198690D01*
X488432Y198692D01*
X488424Y198696D01*
X488240Y198749D01*
X488054Y198803D01*
X488045Y198804D01*
X488037Y198806D01*
X487846Y198821D01*
X487653Y198837D01*
X487644Y198836D01*
X487636Y198837D01*
X487444Y198814D01*
X487253Y198792D01*
X487245Y198790D01*
X487236Y198788D01*
X487053Y198728D01*
X486870Y198669D01*
X486862Y198665D01*
X486854Y198662D01*
X486686Y198566D01*
X486518Y198473D01*
X486512Y198467D01*
X486504Y198463D01*
X486358Y198335D01*
X486213Y198211D01*
X486207Y198204D01*
X486200Y198198D01*
X486083Y198046D01*
X485964Y197894D01*
X485960Y197886D01*
X485955Y197879D01*
X485803Y197584D01*
X484455Y194329D01*
X481311Y191185D01*
X477203Y189483D01*
X472757Y189483D01*
X468649Y191185D01*
X465505Y194329D01*
X464157Y197584D01*
X464152Y197592D01*
X464150Y197600D01*
X464057Y197770D01*
X463966Y197939D01*
X463961Y197945D01*
X463956Y197953D01*
X463832Y198101D01*
X463710Y198249D01*
X463703Y198255D01*
X463697Y198261D01*
X463547Y198381D01*
X463397Y198503D01*
X463389Y198507D01*
X463382Y198512D01*
X463212Y198600D01*
X463041Y198690D01*
X463032Y198692D01*
X463024Y198696D01*
X462840Y198749D01*
X462654Y198803D01*
X462645Y198804D01*
X462637Y198806D01*
X462446Y198821D01*
X462253Y198837D01*
X462244Y198836D01*
X462236Y198837D01*
X462044Y198814D01*
X461853Y198792D01*
X461845Y198790D01*
X461836Y198788D01*
X461653Y198728D01*
X461470Y198669D01*
X461462Y198665D01*
X461454Y198662D01*
X461286Y198566D01*
X461118Y198473D01*
X461112Y198467D01*
X461104Y198463D01*
X460958Y198335D01*
X460813Y198211D01*
X460807Y198204D01*
X460800Y198198D01*
X460683Y198046D01*
X460564Y197894D01*
X460560Y197886D01*
X460555Y197879D01*
X460403Y197584D01*
X459055Y194329D01*
X455911Y191185D01*
X451803Y189483D01*
X447357Y189483D01*
X443249Y191185D01*
X440105Y194329D01*
X439319Y196226D01*
X439277Y196304D01*
X439244Y196386D01*
X439182Y196481D01*
X439129Y196580D01*
X439072Y196649D01*
X439024Y196723D01*
X438945Y196804D01*
X438873Y196891D01*
X438804Y196947D01*
X438741Y197010D01*
X438648Y197073D01*
X438560Y197145D01*
X438481Y197186D01*
X438408Y197235D01*
X438304Y197279D01*
X438203Y197332D01*
X438118Y197357D01*
X438036Y197391D01*
X437926Y197413D01*
X437817Y197445D01*
X437728Y197452D01*
X437642Y197470D01*
X437529Y197470D01*
X437416Y197479D01*
X437328Y197469D01*
X437239Y197469D01*
X437128Y197447D01*
X437016Y197434D01*
X436931Y197407D01*
X436844Y197389D01*
X436740Y197346D01*
X436633Y197311D01*
X436555Y197268D01*
X436473Y197233D01*
X436380Y197170D01*
X436281Y197115D01*
X436214Y197057D01*
X436140Y197007D01*
X436061Y196926D01*
X435975Y196853D01*
X435920Y196783D01*
X435858Y196719D01*
X435797Y196625D01*
X435727Y196536D01*
X435687Y196456D01*
X435639Y196382D01*
X435584Y196252D01*
X435546Y196176D01*
X435534Y196132D01*
X435511Y196076D01*
X435479Y195980D01*
X434608Y194270D01*
X433480Y192717D01*
X432123Y191360D01*
X430570Y190232D01*
X428860Y189361D01*
X427035Y188768D01*
X426679Y188711D01*
X426679Y200192D01*
G37*
%LPD*%
%LPC*%
G36*
X323567Y190245D02*
X323567Y190245D01*
X316005Y193378D01*
X310218Y199165D01*
X307085Y206727D01*
X307085Y214913D01*
X310218Y222475D01*
X316005Y228262D01*
X323567Y231395D01*
X331753Y231395D01*
X339315Y228262D01*
X345102Y222475D01*
X348235Y214913D01*
X348235Y206727D01*
X345102Y199165D01*
X339315Y193378D01*
X336740Y192311D01*
X331753Y190245D01*
X323567Y190245D01*
G37*
%LPD*%
%LPC*%
G36*
X539467Y190245D02*
X539467Y190245D01*
X531905Y193378D01*
X526118Y199165D01*
X522985Y206727D01*
X522985Y214913D01*
X526118Y222475D01*
X531905Y228262D01*
X539467Y231395D01*
X547653Y231395D01*
X555215Y228262D01*
X561002Y222475D01*
X564135Y214913D01*
X564135Y206727D01*
X561002Y199165D01*
X555215Y193378D01*
X552640Y192311D01*
X547653Y190245D01*
X539467Y190245D01*
G37*
%LPD*%
%LPC*%
G36*
X618175Y294178D02*
X618175Y294178D01*
X616350Y294771D01*
X614640Y295642D01*
X613087Y296770D01*
X611730Y298127D01*
X610602Y299680D01*
X609731Y301390D01*
X609699Y301486D01*
X609664Y301567D01*
X609637Y301652D01*
X609583Y301751D01*
X609538Y301855D01*
X609487Y301927D01*
X609444Y302005D01*
X609371Y302092D01*
X609306Y302184D01*
X609242Y302245D01*
X609185Y302313D01*
X609096Y302384D01*
X609014Y302462D01*
X608939Y302509D01*
X608870Y302564D01*
X608769Y302616D01*
X608674Y302676D01*
X608591Y302708D01*
X608512Y302748D01*
X608403Y302779D01*
X608297Y302819D01*
X608210Y302834D01*
X608124Y302858D01*
X608012Y302867D01*
X607900Y302885D01*
X607811Y302882D01*
X607723Y302889D01*
X607611Y302875D01*
X607498Y302872D01*
X607411Y302851D01*
X607323Y302840D01*
X607216Y302805D01*
X607106Y302779D01*
X607025Y302742D01*
X606941Y302714D01*
X606843Y302658D01*
X606740Y302611D01*
X606668Y302558D01*
X606591Y302514D01*
X606506Y302440D01*
X606415Y302374D01*
X606355Y302308D01*
X606288Y302250D01*
X606219Y302160D01*
X606142Y302077D01*
X606097Y302001D01*
X606042Y301931D01*
X605978Y301805D01*
X605934Y301733D01*
X605918Y301689D01*
X605891Y301636D01*
X605105Y299739D01*
X601961Y296595D01*
X600295Y295905D01*
X597853Y294893D01*
X593407Y294893D01*
X589299Y296595D01*
X586155Y299739D01*
X584453Y303847D01*
X584453Y308293D01*
X586155Y312401D01*
X589299Y315545D01*
X593407Y317247D01*
X597853Y317247D01*
X601961Y315545D01*
X605105Y312401D01*
X605891Y310504D01*
X605933Y310426D01*
X605966Y310344D01*
X606028Y310249D01*
X606081Y310150D01*
X606138Y310081D01*
X606186Y310007D01*
X606265Y309926D01*
X606337Y309839D01*
X606406Y309783D01*
X606469Y309720D01*
X606562Y309657D01*
X606650Y309585D01*
X606729Y309544D01*
X606802Y309495D01*
X606906Y309451D01*
X607007Y309398D01*
X607092Y309373D01*
X607174Y309339D01*
X607284Y309317D01*
X607393Y309285D01*
X607482Y309278D01*
X607568Y309260D01*
X607681Y309260D01*
X607794Y309251D01*
X607882Y309261D01*
X607971Y309261D01*
X608082Y309283D01*
X608194Y309296D01*
X608279Y309323D01*
X608366Y309341D01*
X608470Y309384D01*
X608577Y309419D01*
X608655Y309462D01*
X608737Y309497D01*
X608830Y309560D01*
X608929Y309615D01*
X608996Y309673D01*
X609070Y309723D01*
X609149Y309804D01*
X609235Y309877D01*
X609290Y309947D01*
X609352Y310011D01*
X609413Y310105D01*
X609483Y310194D01*
X609523Y310274D01*
X609571Y310348D01*
X609626Y310478D01*
X609664Y310554D01*
X609676Y310598D01*
X609699Y310654D01*
X609731Y310750D01*
X610602Y312460D01*
X611730Y314013D01*
X613087Y315370D01*
X614640Y316498D01*
X616350Y317369D01*
X618175Y317962D01*
X618531Y318019D01*
X618531Y306538D01*
X618532Y306520D01*
X618531Y306503D01*
X618552Y306320D01*
X618571Y306138D01*
X618576Y306121D01*
X618578Y306103D01*
X618591Y306062D01*
X618564Y305968D01*
X618562Y305950D01*
X618558Y305933D01*
X618531Y305602D01*
X618531Y294121D01*
X618175Y294178D01*
G37*
%LPD*%
%LPC*%
G36*
X435276Y510095D02*
X435276Y510095D01*
X432312Y511323D01*
X430043Y513592D01*
X428815Y516556D01*
X428815Y519764D01*
X430043Y522728D01*
X432312Y524997D01*
X435276Y526225D01*
X438484Y526225D01*
X441448Y524997D01*
X443717Y522728D01*
X444945Y519764D01*
X444945Y516556D01*
X443717Y513592D01*
X441448Y511323D01*
X438484Y510095D01*
X435276Y510095D01*
G37*
%LPD*%
%LPC*%
G36*
X435276Y484695D02*
X435276Y484695D01*
X432312Y485923D01*
X430043Y488192D01*
X428815Y491156D01*
X428815Y494364D01*
X430043Y497328D01*
X432312Y499597D01*
X435276Y500825D01*
X438484Y500825D01*
X441448Y499597D01*
X443717Y497328D01*
X444945Y494364D01*
X444945Y491156D01*
X443717Y488192D01*
X441448Y485923D01*
X438484Y484695D01*
X435276Y484695D01*
G37*
%LPD*%
%LPC*%
G36*
X435276Y459295D02*
X435276Y459295D01*
X432312Y460523D01*
X430043Y462792D01*
X428815Y465756D01*
X428815Y468964D01*
X430043Y471928D01*
X432312Y474197D01*
X435276Y475425D01*
X438484Y475425D01*
X441448Y474197D01*
X443717Y471928D01*
X444945Y468964D01*
X444945Y465756D01*
X443717Y462792D01*
X441448Y460523D01*
X438484Y459295D01*
X435276Y459295D01*
G37*
%LPD*%
%LPC*%
G36*
X257939Y91559D02*
X257939Y91559D01*
X257939Y96601D01*
X278775Y96601D01*
X279421Y96428D01*
X280000Y96093D01*
X280473Y95620D01*
X280808Y95041D01*
X280981Y94395D01*
X280981Y91559D01*
X257939Y91559D01*
G37*
%LPD*%
%LPC*%
G36*
X229899Y91559D02*
X229899Y91559D01*
X229899Y94395D01*
X230072Y95041D01*
X230407Y95620D01*
X230880Y96093D01*
X231459Y96428D01*
X232105Y96601D01*
X252941Y96601D01*
X252941Y91559D01*
X229899Y91559D01*
G37*
%LPD*%
%LPC*%
G36*
X257939Y81519D02*
X257939Y81519D01*
X257939Y86561D01*
X280981Y86561D01*
X280981Y83725D01*
X280808Y83079D01*
X280473Y82500D01*
X280000Y82027D01*
X279421Y81692D01*
X278775Y81519D01*
X257939Y81519D01*
G37*
%LPD*%
%LPC*%
G36*
X232105Y81519D02*
X232105Y81519D01*
X231459Y81692D01*
X230880Y82027D01*
X230407Y82500D01*
X230072Y83079D01*
X229899Y83725D01*
X229899Y86561D01*
X252941Y86561D01*
X252941Y81519D01*
X232105Y81519D01*
G37*
%LPD*%
%LPC*%
G36*
X447454Y553563D02*
X447454Y553563D01*
X446094Y554005D01*
X444821Y554653D01*
X443664Y555494D01*
X442654Y556504D01*
X441813Y557661D01*
X441165Y558934D01*
X440723Y560294D01*
X440499Y561705D01*
X440499Y566929D01*
X447549Y566929D01*
X447549Y553548D01*
X447454Y553563D01*
G37*
%LPD*%
%LPC*%
G36*
X553679Y30439D02*
X553679Y30439D01*
X553679Y38021D01*
X559055Y38021D01*
X559701Y37848D01*
X560280Y37513D01*
X560753Y37040D01*
X561088Y36461D01*
X561261Y35815D01*
X561261Y30439D01*
X553679Y30439D01*
G37*
%LPD*%
%LPC*%
G36*
X292059Y30439D02*
X292059Y30439D01*
X292059Y38021D01*
X297435Y38021D01*
X298081Y37848D01*
X298660Y37513D01*
X299133Y37040D01*
X299468Y36461D01*
X299641Y35815D01*
X299641Y30439D01*
X292059Y30439D01*
G37*
%LPD*%
%LPC*%
G36*
X541099Y30439D02*
X541099Y30439D01*
X541099Y35815D01*
X541272Y36461D01*
X541607Y37040D01*
X542080Y37513D01*
X542659Y37848D01*
X543305Y38021D01*
X548681Y38021D01*
X548681Y30439D01*
X541099Y30439D01*
G37*
%LPD*%
%LPC*%
G36*
X279479Y30439D02*
X279479Y30439D01*
X279479Y35815D01*
X279652Y36461D01*
X279987Y37040D01*
X280460Y37513D01*
X281039Y37848D01*
X281685Y38021D01*
X287061Y38021D01*
X287061Y30439D01*
X279479Y30439D01*
G37*
%LPD*%
%LPC*%
G36*
X264751Y204451D02*
X264751Y204451D01*
X264751Y211292D01*
X264846Y211277D01*
X266206Y210835D01*
X267479Y210187D01*
X268636Y209346D01*
X269646Y208336D01*
X270487Y207179D01*
X271135Y205906D01*
X271577Y204546D01*
X271592Y204451D01*
X264751Y204451D01*
G37*
%LPD*%
%LPC*%
G36*
X264751Y200389D02*
X264751Y200389D01*
X271592Y200389D01*
X271577Y200294D01*
X271135Y198934D01*
X270487Y197661D01*
X269646Y196504D01*
X268636Y195494D01*
X267479Y194653D01*
X266206Y194005D01*
X264846Y193563D01*
X264751Y193548D01*
X264751Y200389D01*
G37*
%LPD*%
D10*
X424180Y423100D02*
X424180Y410020D01*
X449580Y410020D02*
X449580Y423100D01*
X474980Y423100D02*
X474980Y410020D01*
X500380Y410020D02*
X500380Y423100D01*
X525780Y423100D02*
X525780Y410020D01*
X551180Y410020D02*
X551180Y423100D01*
X576580Y423100D02*
X576580Y410020D01*
X601980Y410020D02*
X601980Y423100D01*
X627380Y423100D02*
X627380Y410020D01*
X652780Y410020D02*
X652780Y423100D01*
X678180Y423100D02*
X678180Y410020D01*
X703580Y410020D02*
X703580Y423100D01*
X424180Y562420D02*
X424180Y575500D01*
X449580Y575500D02*
X449580Y562420D01*
X474980Y562420D02*
X474980Y575500D01*
X627380Y575500D02*
X627380Y562420D01*
X652780Y562420D02*
X652780Y575500D01*
X678180Y575500D02*
X678180Y562420D01*
X703580Y562420D02*
X703580Y575500D01*
X779780Y575500D02*
X779780Y562420D01*
X779780Y423100D02*
X779780Y410020D01*
X754380Y410020D02*
X754380Y423100D01*
X728980Y423100D02*
X728980Y410020D01*
X754380Y562420D02*
X754380Y575500D01*
X728980Y575500D02*
X728980Y562420D01*
X500380Y562420D02*
X500380Y575500D01*
D11*
X436880Y518160D03*
X436880Y492760D03*
X436880Y467360D03*
D10*
X601980Y562420D02*
X601980Y575500D01*
X576580Y575500D02*
X576580Y562420D01*
X551180Y562420D02*
X551180Y575500D01*
X525780Y575500D02*
X525780Y562420D01*
D11*
X411480Y518160D03*
X411480Y492760D03*
X411480Y467360D03*
D12*
X327660Y367030D03*
X327660Y210820D03*
X542290Y367030D03*
X543560Y210820D03*
D13*
X373380Y200660D03*
X398780Y200660D03*
X424180Y200660D03*
X449580Y200660D03*
X474980Y200660D03*
X500380Y200660D03*
X400050Y378460D03*
X425450Y378460D03*
X450850Y378460D03*
X476250Y378460D03*
D11*
X82720Y202420D03*
X102720Y202420D03*
X122720Y202420D03*
X142720Y202420D03*
X162720Y202420D03*
X182720Y202420D03*
X202720Y202420D03*
X222720Y202420D03*
X242720Y202420D03*
X262720Y202420D03*
X262720Y422420D03*
X242720Y422420D03*
X222720Y422420D03*
X202720Y422420D03*
X182720Y422420D03*
X162720Y422420D03*
X142720Y422420D03*
X122720Y422420D03*
X102720Y422420D03*
X82720Y422420D03*
D14*
X393700Y444500D03*
X419100Y444500D03*
X444500Y444500D03*
X469900Y444500D03*
X495300Y444500D03*
X520700Y444500D03*
X546100Y444500D03*
X571500Y444500D03*
X596900Y444500D03*
X622300Y444500D03*
X647700Y444500D03*
X673100Y444500D03*
X698500Y444500D03*
X723900Y444500D03*
X393700Y596900D03*
X419100Y596900D03*
X444500Y596900D03*
X469900Y596900D03*
X495300Y596900D03*
X520700Y596900D03*
X546100Y596900D03*
X571500Y596900D03*
X596900Y596900D03*
X622300Y596900D03*
X647700Y596900D03*
X673100Y596900D03*
X698500Y596900D03*
X723900Y596900D03*
X393700Y469900D03*
X393700Y495300D03*
X393700Y520700D03*
X393700Y546100D03*
X393700Y571500D03*
X596900Y469900D03*
X622300Y469900D03*
X647700Y469900D03*
X698500Y469900D03*
D15*
X289560Y167640D03*
X289560Y27940D03*
X551180Y167640D03*
X551180Y27940D03*
D16*
X255440Y89060D03*
X255440Y109060D03*
D17*
X203440Y65060D03*
X203440Y133060D03*
D13*
X773430Y306070D03*
X748030Y306070D03*
X722630Y306070D03*
X697230Y306070D03*
X671830Y306070D03*
X646430Y306070D03*
X621030Y306070D03*
X595630Y306070D03*
D18*
X82720Y219880D02*
X82720Y202420D01*
X266700Y403860D02*
X347980Y403860D01*
X266700Y403860D02*
X82720Y219880D01*
X372364Y492960D02*
X372985Y493758D01*
X372364Y498726D01*
X372364Y535940D01*
X372364Y428244D02*
X347980Y403860D01*
X372364Y428244D02*
X372364Y492960D01*
X372364Y535940D02*
X382524Y546100D01*
X393700Y546100D01*
D19*
X586740Y548640D03*
D18*
X749300Y548640D01*
X754380Y553720D01*
X754380Y568960D01*
X260660Y340360D02*
X122720Y202420D01*
X525780Y388620D02*
X525780Y416560D01*
X477520Y340360D02*
X260660Y340360D01*
X477520Y340360D02*
X525780Y388620D01*
D20*
X490220Y591820D02*
X495300Y596900D01*
X490220Y591820D02*
X490220Y490220D01*
X520700Y459740D01*
X528320Y459740D01*
X533400Y454660D01*
X533400Y424180D02*
X525780Y416560D01*
X533400Y424180D02*
X533400Y454660D01*
X551180Y416560D02*
X574040Y393700D01*
X581660Y393700D01*
X589280Y401320D01*
X589280Y426720D01*
X584200Y431800D01*
X584200Y459740D01*
X579120Y464820D01*
D19*
X579120Y464820D03*
X543669Y479951D03*
D20*
X513080Y510540D01*
X513080Y589280D02*
X520700Y596900D01*
X513080Y589280D02*
X513080Y510540D01*
D18*
X698500Y444500D02*
X767080Y513080D01*
X767080Y589280D01*
X759460Y596900D01*
X723900Y596900D01*
X698500Y444500D02*
X693420Y439420D01*
X693420Y345440D01*
D19*
X693420Y345440D03*
D18*
X406400Y533400D02*
X393700Y520700D01*
X406400Y533400D02*
X434340Y533400D01*
X439420Y533400D01*
X449580Y543560D01*
X449580Y568960D01*
D20*
X434340Y533400D02*
X439420Y528320D01*
X464820Y528320D01*
D19*
X464820Y528320D03*
X551071Y508109D03*
D20*
X566420Y492760D01*
X566420Y487680D01*
D19*
X566420Y487680D03*
X500380Y381000D03*
D18*
X513080Y393700D01*
X513080Y436880D02*
X520700Y444500D01*
X513080Y436880D02*
X513080Y393700D01*
X546100Y444500D02*
X576580Y474980D01*
X576580Y568960D01*
D21*
X373380Y200660D02*
X406400Y167640D01*
X551180Y167640D01*
X609600Y167640D01*
X671830Y229870D02*
X671830Y306070D01*
X671830Y229870D02*
X609600Y167640D01*
D19*
X563880Y546100D03*
D18*
X563880Y505460D01*
X568960Y500380D01*
D19*
X568960Y500380D03*
D21*
X255440Y133520D02*
X255440Y109060D01*
X255440Y133520D02*
X289560Y167640D01*
D18*
X722630Y306070D02*
X728980Y312420D01*
X728980Y416560D01*
D20*
X485140Y581660D02*
X469900Y596900D01*
X485140Y451582D02*
X483108Y449550D01*
X483108Y439450D01*
X488696Y433862D01*
X488696Y366776D01*
X485140Y451582D02*
X485140Y581660D01*
X474980Y353060D02*
X454660Y353060D01*
D19*
X454660Y353060D03*
X439420Y325120D03*
D20*
X546100Y325120D01*
X584200Y287020D02*
X660400Y287020D01*
D19*
X660400Y287020D03*
D20*
X488696Y366776D02*
X474980Y353060D01*
X546100Y325120D02*
X584200Y287020D01*
D18*
X697230Y306070D02*
X703580Y312420D01*
X703580Y416560D01*
D20*
X462280Y579120D02*
X444500Y596900D01*
X462280Y553720D02*
X472440Y543560D01*
X472440Y469900D01*
X457200Y454660D01*
X457200Y431800D01*
X462280Y426720D01*
X462280Y398780D01*
X454660Y391160D02*
X383540Y391160D01*
X373380Y381000D01*
X373380Y353060D01*
D19*
X373380Y353060D03*
X439420Y307340D03*
X652780Y276860D03*
D20*
X558133Y307340D02*
X439420Y307340D01*
X558133Y307340D02*
X582517Y282956D01*
X646684Y282956D02*
X652780Y276860D01*
X646684Y282956D02*
X582517Y282956D01*
D19*
X695960Y279400D03*
D20*
X697230Y280670D01*
X697230Y306070D01*
X462280Y553720D02*
X462280Y579120D01*
X462280Y398780D02*
X454660Y391160D01*
D18*
X748030Y306070D02*
X754380Y312420D01*
X754380Y416560D01*
X779780Y312420D02*
X773430Y306070D01*
X779780Y312420D02*
X779780Y416560D01*
X678180Y337820D02*
X646430Y306070D01*
X678180Y337820D02*
X678180Y416560D01*
M02*
