G04 EAGLE Gerber X2 export*
%TF.Part,Single*%
%TF.FileFunction,Other,Solder stop mask CMP*%
%TF.FilePolarity,Positive*%
%TF.GenerationSoftware,Autodesk,EAGLE,9.0.1*%
%TF.CreationDate,2020-01-28T05:26:16Z*%
G75*
%MOMM*%
%FSLAX34Y34*%
%LPD*%
%AMOC8*
5,1,8,0,0,1.08239X$1,22.5*%
G01*
%ADD10C,1.511200*%
%ADD11C,1.511200*%
%ADD12C,4.013200*%
%ADD13C,2.133600*%
%ADD14C,2.082800*%
%ADD15R,1.711200X1.711200*%
%ADD16R,4.803200X1.203200*%
%ADD17R,3.603200X1.803200*%
%ADD18C,0.959600*%


D10*
X424180Y423100D02*
X424180Y410020D01*
X449580Y410020D02*
X449580Y423100D01*
X474980Y423100D02*
X474980Y410020D01*
X500380Y410020D02*
X500380Y423100D01*
X525780Y423100D02*
X525780Y410020D01*
X551180Y410020D02*
X551180Y423100D01*
X576580Y423100D02*
X576580Y410020D01*
X601980Y410020D02*
X601980Y423100D01*
X627380Y423100D02*
X627380Y410020D01*
X652780Y410020D02*
X652780Y423100D01*
X678180Y423100D02*
X678180Y410020D01*
X703580Y410020D02*
X703580Y423100D01*
X424180Y562420D02*
X424180Y575500D01*
X449580Y575500D02*
X449580Y562420D01*
X474980Y562420D02*
X474980Y575500D01*
X627380Y575500D02*
X627380Y562420D01*
X652780Y562420D02*
X652780Y575500D01*
X678180Y575500D02*
X678180Y562420D01*
X703580Y562420D02*
X703580Y575500D01*
X779780Y575500D02*
X779780Y562420D01*
X779780Y423100D02*
X779780Y410020D01*
X754380Y410020D02*
X754380Y423100D01*
X728980Y423100D02*
X728980Y410020D01*
X754380Y562420D02*
X754380Y575500D01*
X728980Y575500D02*
X728980Y562420D01*
X500380Y562420D02*
X500380Y575500D01*
D11*
X436880Y518160D03*
X436880Y492760D03*
X436880Y467360D03*
D10*
X601980Y562420D02*
X601980Y575500D01*
X576580Y575500D02*
X576580Y562420D01*
X551180Y562420D02*
X551180Y575500D01*
X525780Y575500D02*
X525780Y562420D01*
D11*
X411480Y518160D03*
X411480Y492760D03*
X411480Y467360D03*
D12*
X327660Y367030D03*
X327660Y210820D03*
X542290Y367030D03*
X543560Y210820D03*
D13*
X373380Y200660D03*
X398780Y200660D03*
X424180Y200660D03*
X449580Y200660D03*
X474980Y200660D03*
X500380Y200660D03*
X400050Y378460D03*
X425450Y378460D03*
X450850Y378460D03*
X476250Y378460D03*
D11*
X82720Y202420D03*
X102720Y202420D03*
X122720Y202420D03*
X142720Y202420D03*
X162720Y202420D03*
X182720Y202420D03*
X202720Y202420D03*
X222720Y202420D03*
X242720Y202420D03*
X262720Y202420D03*
X262720Y422420D03*
X242720Y422420D03*
X222720Y422420D03*
X202720Y422420D03*
X182720Y422420D03*
X162720Y422420D03*
X142720Y422420D03*
X122720Y422420D03*
X102720Y422420D03*
X82720Y422420D03*
D14*
X393700Y444500D03*
X419100Y444500D03*
X444500Y444500D03*
X469900Y444500D03*
X495300Y444500D03*
X520700Y444500D03*
X546100Y444500D03*
X571500Y444500D03*
X596900Y444500D03*
X622300Y444500D03*
X647700Y444500D03*
X673100Y444500D03*
X698500Y444500D03*
X723900Y444500D03*
X393700Y596900D03*
X419100Y596900D03*
X444500Y596900D03*
X469900Y596900D03*
X495300Y596900D03*
X520700Y596900D03*
X546100Y596900D03*
X571500Y596900D03*
X596900Y596900D03*
X622300Y596900D03*
X647700Y596900D03*
X673100Y596900D03*
X698500Y596900D03*
X723900Y596900D03*
X393700Y469900D03*
X393700Y495300D03*
X393700Y520700D03*
X393700Y546100D03*
X393700Y571500D03*
X596900Y469900D03*
X622300Y469900D03*
X647700Y469900D03*
X698500Y469900D03*
D15*
X289560Y167640D03*
X289560Y27940D03*
X551180Y167640D03*
X551180Y27940D03*
D16*
X255440Y89060D03*
X255440Y109060D03*
D17*
X203440Y65060D03*
X203440Y133060D03*
D13*
X773430Y306070D03*
X748030Y306070D03*
X722630Y306070D03*
X697230Y306070D03*
X671830Y306070D03*
X646430Y306070D03*
X621030Y306070D03*
X595630Y306070D03*
D18*
X586740Y548640D03*
X579120Y464820D03*
X543669Y479951D03*
X693420Y345440D03*
X464820Y528320D03*
X551071Y508109D03*
X566420Y487680D03*
X500380Y381000D03*
X563880Y546100D03*
X568960Y500380D03*
X454660Y353060D03*
X439420Y325120D03*
X660400Y287020D03*
X373380Y353060D03*
X439420Y307340D03*
X652780Y276860D03*
X695960Y279400D03*
M02*
