G04 EAGLE Gerber X2 export*
%TF.Part,Single*%
%TF.FileFunction,Other,Solder stop mask CMP*%
%TF.FilePolarity,Positive*%
%TF.GenerationSoftware,Autodesk,EAGLE,9.0.1*%
%TF.CreationDate,2019-03-20T22:46:49Z*%
G75*
%MOMM*%
%FSLAX34Y34*%
%LPD*%
%AMOC8*
5,1,8,0,0,1.08239X$1,22.5*%
G01*
%ADD10C,6.553200*%
%ADD11R,1.473200X1.727200*%
%ADD12C,4.419200*%
%ADD13C,4.019200*%
%ADD14R,1.066800X0.762000*%
%ADD15C,2.082800*%
%ADD16C,1.803200*%
%ADD17R,1.703200X1.103200*%
%ADD18C,1.524000*%
%ADD19R,1.303200X1.603200*%
%ADD20C,1.511200*%
%ADD21C,2.743200*%
%ADD22C,1.879600*%
%ADD23C,3.505200*%
%ADD24C,0.909600*%
%ADD25C,0.959600*%
%ADD26C,0.859600*%
%ADD27C,1.009600*%
%ADD28C,1.059600*%


D10*
X4928870Y71120D03*
X4928870Y3928872D03*
X71120Y3928872D03*
X71120Y71120D03*
D11*
X1003935Y185420D03*
X1022985Y185420D03*
X1511935Y185420D03*
X1530985Y185420D03*
X2019935Y185420D03*
X2038985Y185420D03*
X2527935Y185420D03*
X2546985Y185420D03*
X3035935Y185420D03*
X3054985Y185420D03*
X3543935Y185420D03*
X3562985Y185420D03*
X4051935Y185420D03*
X4070985Y185420D03*
X4559935Y185420D03*
X4578985Y185420D03*
X1003935Y693420D03*
X1022985Y693420D03*
X1511935Y693420D03*
X1530985Y693420D03*
X2019935Y693420D03*
X2038985Y693420D03*
X2527935Y693420D03*
X2546985Y693420D03*
X3035935Y693420D03*
X3054985Y693420D03*
X3543935Y693420D03*
X3562985Y693420D03*
X4051935Y693420D03*
X4070985Y693420D03*
X4559935Y693420D03*
X4578985Y693420D03*
X1003935Y1201420D03*
X1022985Y1201420D03*
X1511935Y1201420D03*
X1530985Y1201420D03*
X2019935Y1201420D03*
X2038985Y1201420D03*
X2527935Y1201420D03*
X2546985Y1201420D03*
X3035935Y1201420D03*
X3054985Y1201420D03*
X3543935Y1201420D03*
X3562985Y1201420D03*
X4051935Y1201420D03*
X4070985Y1201420D03*
X4559935Y1201420D03*
X4578985Y1201420D03*
X1003935Y1709420D03*
X1022985Y1709420D03*
X1511935Y1709420D03*
X1530985Y1709420D03*
X2019935Y1709420D03*
X2038985Y1709420D03*
X2527935Y1709420D03*
X2546985Y1709420D03*
X3035935Y1709420D03*
X3054985Y1709420D03*
X3543935Y1709420D03*
X3562985Y1709420D03*
X4051935Y1709420D03*
X4070985Y1709420D03*
X4559935Y1709420D03*
X4578985Y1709420D03*
X1003935Y2217420D03*
X1022985Y2217420D03*
X1511935Y2217420D03*
X1530985Y2217420D03*
X2019935Y2217420D03*
X2038985Y2217420D03*
X2527935Y2217420D03*
X2546985Y2217420D03*
X3035935Y2217420D03*
X3054985Y2217420D03*
X3543935Y2217420D03*
X3562985Y2217420D03*
X4051935Y2217420D03*
X4070985Y2217420D03*
X4559935Y2217420D03*
X4578985Y2217420D03*
X1003935Y2725420D03*
X1022985Y2725420D03*
X1511935Y2725420D03*
X1530985Y2725420D03*
X2019935Y2725420D03*
X2038985Y2725420D03*
X2527935Y2725420D03*
X2546985Y2725420D03*
X3035935Y2725420D03*
X3054985Y2725420D03*
X3543935Y2725420D03*
X3562985Y2725420D03*
X4051935Y2725420D03*
X4070985Y2725420D03*
X4559935Y2725420D03*
X4578985Y2725420D03*
X1003935Y3233420D03*
X1022985Y3233420D03*
X1511935Y3233420D03*
X1530985Y3233420D03*
X2019935Y3233420D03*
X2038985Y3233420D03*
X2527935Y3233420D03*
X2546985Y3233420D03*
X3035935Y3233420D03*
X3054985Y3233420D03*
X3543935Y3233420D03*
X3562985Y3233420D03*
X4051935Y3233420D03*
X4070985Y3233420D03*
X4559935Y3233420D03*
X4578985Y3233420D03*
X1003935Y3741420D03*
X1022985Y3741420D03*
X1511935Y3741420D03*
X1530985Y3741420D03*
X2019935Y3741420D03*
X2038985Y3741420D03*
X2527935Y3741420D03*
X2546985Y3741420D03*
X3035935Y3741420D03*
X3054985Y3741420D03*
X3543935Y3741420D03*
X3562985Y3741420D03*
X4051935Y3741420D03*
X4070985Y3741420D03*
X4559935Y3741420D03*
X4578985Y3741420D03*
D12*
X138540Y3832860D03*
D13*
X76040Y3832860D03*
X110040Y3880860D03*
D14*
X952500Y231394D03*
X952500Y212598D03*
X977900Y221996D03*
X1460500Y231394D03*
X1460500Y212598D03*
X1485900Y221996D03*
X2476500Y231394D03*
X2476500Y212598D03*
X2501900Y221996D03*
X2984500Y231394D03*
X2984500Y212598D03*
X3009900Y221996D03*
X3492500Y231394D03*
X3492500Y212598D03*
X3517900Y221996D03*
X4000500Y231394D03*
X4000500Y212598D03*
X4025900Y221996D03*
X952500Y739394D03*
X952500Y720598D03*
X977900Y729996D03*
X1460500Y739394D03*
X1460500Y720598D03*
X1485900Y729996D03*
X1968500Y739394D03*
X1968500Y720598D03*
X1993900Y729996D03*
X2476500Y739394D03*
X2476500Y720598D03*
X2501900Y729996D03*
X3492500Y739394D03*
X3492500Y720598D03*
X3517900Y729996D03*
X4000500Y739394D03*
X4000500Y720598D03*
X4025900Y729996D03*
X4508500Y739394D03*
X4508500Y720598D03*
X4533900Y729996D03*
X952500Y1247394D03*
X952500Y1228598D03*
X977900Y1237996D03*
X1460500Y1247394D03*
X1460500Y1228598D03*
X1485900Y1237996D03*
X1968500Y1247394D03*
X1968500Y1228598D03*
X1993900Y1237996D03*
X2476500Y1247394D03*
X2476500Y1228598D03*
X2501900Y1237996D03*
X2984500Y1247394D03*
X2984500Y1228598D03*
X3009900Y1237996D03*
X3492500Y1247394D03*
X3492500Y1228598D03*
X3517900Y1237996D03*
X4000500Y1247394D03*
X4000500Y1228598D03*
X4025900Y1237996D03*
X4508500Y1247394D03*
X4508500Y1228598D03*
X4533900Y1237996D03*
X952500Y1755394D03*
X952500Y1736598D03*
X977900Y1745996D03*
X1460500Y1755394D03*
X1460500Y1736598D03*
X1485900Y1745996D03*
X2984500Y1755394D03*
X2984500Y1736598D03*
X3009900Y1745996D03*
X3492500Y1755394D03*
X3492500Y1736598D03*
X3517900Y1745996D03*
X4000500Y1755394D03*
X4000500Y1736598D03*
X4025900Y1745996D03*
X4508500Y1755394D03*
X4508500Y1736598D03*
X4533900Y1745996D03*
X952500Y2263394D03*
X952500Y2244598D03*
X977900Y2253996D03*
X1460500Y2263394D03*
X1460500Y2244598D03*
X1485900Y2253996D03*
X1968500Y2263394D03*
X1968500Y2244598D03*
X1993900Y2253996D03*
X2476500Y2263394D03*
X2476500Y2244598D03*
X2501900Y2253996D03*
X2984500Y2263394D03*
X2984500Y2244598D03*
X3009900Y2253996D03*
X4000500Y2263394D03*
X4000500Y2244598D03*
X4025900Y2253996D03*
X4508500Y2263394D03*
X4508500Y2244598D03*
X4533900Y2253996D03*
X952500Y2771394D03*
X952500Y2752598D03*
X977900Y2761996D03*
X1460500Y2771394D03*
X1460500Y2752598D03*
X1485900Y2761996D03*
X1968500Y2771394D03*
X1968500Y2752598D03*
X1993900Y2761996D03*
X2476500Y2771394D03*
X2476500Y2752598D03*
X2501900Y2761996D03*
X2984500Y2771394D03*
X2984500Y2752598D03*
X3009900Y2761996D03*
X4508500Y2771394D03*
X4508500Y2752598D03*
X4533900Y2761996D03*
X1968500Y3279394D03*
X1968500Y3260598D03*
X1993900Y3269996D03*
X2476500Y3279394D03*
X2476500Y3260598D03*
X2501900Y3269996D03*
X2984500Y3279394D03*
X2984500Y3260598D03*
X3009900Y3269996D03*
X3492500Y3279394D03*
X3492500Y3260598D03*
X3517900Y3269996D03*
X4508500Y3279394D03*
X4508500Y3260598D03*
X4533900Y3269996D03*
X952500Y3787394D03*
X952500Y3768598D03*
X977900Y3777996D03*
X1460500Y3787394D03*
X1460500Y3768598D03*
X1485900Y3777996D03*
X1968500Y3787394D03*
X1968500Y3768598D03*
X1993900Y3777996D03*
X2476500Y3787394D03*
X2476500Y3768598D03*
X2501900Y3777996D03*
X2984500Y3787394D03*
X2984500Y3768598D03*
X3009900Y3777996D03*
X3492500Y3787394D03*
X3492500Y3768598D03*
X3517900Y3777996D03*
X4000500Y3787394D03*
X4000500Y3768598D03*
X4025900Y3777996D03*
X4508500Y3787394D03*
X4508500Y3768598D03*
X4533900Y3777996D03*
X1968500Y231394D03*
X1968500Y212598D03*
X1993900Y221996D03*
X4508500Y231394D03*
X4508500Y212598D03*
X4533900Y221996D03*
X2984500Y739394D03*
X2984500Y720598D03*
X3009900Y729996D03*
X1968500Y1755394D03*
X1968500Y1736598D03*
X1993900Y1745996D03*
X2476500Y1755394D03*
X2476500Y1736598D03*
X2501900Y1745996D03*
X3492500Y2263394D03*
X3492500Y2244598D03*
X3517900Y2253996D03*
X3492500Y2771394D03*
X3492500Y2752598D03*
X3517900Y2761996D03*
X4000500Y2771394D03*
X4000500Y2752598D03*
X4025900Y2761996D03*
X952500Y3279394D03*
X952500Y3260598D03*
X977900Y3269996D03*
X1460500Y3279394D03*
X1460500Y3260598D03*
X1485900Y3269996D03*
X4000500Y3279394D03*
X4000500Y3260598D03*
X4025900Y3269996D03*
D15*
X353060Y114300D03*
X353060Y88900D03*
X327660Y114300D03*
X327660Y88900D03*
X302260Y114300D03*
X302260Y88900D03*
D16*
X106260Y2786860D03*
X106260Y2806860D03*
X106260Y2826860D03*
X106260Y2846860D03*
X103720Y2987520D03*
X103720Y3007520D03*
X103720Y3027520D03*
X103720Y3047520D03*
D17*
X1037960Y205496D03*
X1037960Y238496D03*
X988960Y205496D03*
X988960Y238496D03*
X1545960Y205496D03*
X1545960Y238496D03*
X1496960Y205496D03*
X1496960Y238496D03*
X2053960Y205496D03*
X2053960Y238496D03*
X2004960Y205496D03*
X2004960Y238496D03*
X2561960Y205496D03*
X2561960Y238496D03*
X2512960Y205496D03*
X2512960Y238496D03*
X3069960Y205496D03*
X3069960Y238496D03*
X3020960Y205496D03*
X3020960Y238496D03*
X3577960Y205496D03*
X3577960Y238496D03*
X3528960Y205496D03*
X3528960Y238496D03*
X4085960Y205496D03*
X4085960Y238496D03*
X4036960Y205496D03*
X4036960Y238496D03*
X4593960Y205496D03*
X4593960Y238496D03*
X4544960Y205496D03*
X4544960Y238496D03*
X1037960Y713496D03*
X1037960Y746496D03*
X988960Y713496D03*
X988960Y746496D03*
X4085960Y2745496D03*
X4085960Y2778496D03*
X4036960Y2745496D03*
X4036960Y2778496D03*
X1545960Y713496D03*
X1545960Y746496D03*
X1496960Y713496D03*
X1496960Y746496D03*
X2053960Y713496D03*
X2053960Y746496D03*
X2004960Y713496D03*
X2004960Y746496D03*
X2561960Y713496D03*
X2561960Y746496D03*
X2512960Y713496D03*
X2512960Y746496D03*
X3069960Y713496D03*
X3069960Y746496D03*
X3020960Y713496D03*
X3020960Y746496D03*
X3577960Y713496D03*
X3577960Y746496D03*
X3528960Y713496D03*
X3528960Y746496D03*
X4085960Y713496D03*
X4085960Y746496D03*
X4036960Y713496D03*
X4036960Y746496D03*
X4593960Y713496D03*
X4593960Y746496D03*
X4544960Y713496D03*
X4544960Y746496D03*
X1037960Y1221496D03*
X1037960Y1254496D03*
X988960Y1221496D03*
X988960Y1254496D03*
X1545960Y1221496D03*
X1545960Y1254496D03*
X1496960Y1221496D03*
X1496960Y1254496D03*
X2053960Y1221496D03*
X2053960Y1254496D03*
X2004960Y1221496D03*
X2004960Y1254496D03*
X2561960Y1221496D03*
X2561960Y1254496D03*
X2512960Y1221496D03*
X2512960Y1254496D03*
X3069960Y1221496D03*
X3069960Y1254496D03*
X3020960Y1221496D03*
X3020960Y1254496D03*
X3577960Y1221496D03*
X3577960Y1254496D03*
X3528960Y1221496D03*
X3528960Y1254496D03*
X4085960Y1221496D03*
X4085960Y1254496D03*
X4036960Y1221496D03*
X4036960Y1254496D03*
X4593960Y1221496D03*
X4593960Y1254496D03*
X4544960Y1221496D03*
X4544960Y1254496D03*
X1037960Y1729496D03*
X1037960Y1762496D03*
X988960Y1729496D03*
X988960Y1762496D03*
X1545960Y1729496D03*
X1545960Y1762496D03*
X1496960Y1729496D03*
X1496960Y1762496D03*
X2053960Y1729496D03*
X2053960Y1762496D03*
X2004960Y1729496D03*
X2004960Y1762496D03*
X2561960Y1729496D03*
X2561960Y1762496D03*
X2512960Y1729496D03*
X2512960Y1762496D03*
X3069960Y1729496D03*
X3069960Y1762496D03*
X3020960Y1729496D03*
X3020960Y1762496D03*
X3577960Y1729496D03*
X3577960Y1762496D03*
X3528960Y1729496D03*
X3528960Y1762496D03*
X4085960Y1729496D03*
X4085960Y1762496D03*
X4036960Y1729496D03*
X4036960Y1762496D03*
X4593960Y1729496D03*
X4593960Y1762496D03*
X4544960Y1729496D03*
X4544960Y1762496D03*
X1037960Y2237496D03*
X1037960Y2270496D03*
X988960Y2237496D03*
X988960Y2270496D03*
X1545960Y2237496D03*
X1545960Y2270496D03*
X1496960Y2237496D03*
X1496960Y2270496D03*
X2053960Y2237496D03*
X2053960Y2270496D03*
X2004960Y2237496D03*
X2004960Y2270496D03*
X2561960Y2237496D03*
X2561960Y2270496D03*
X2512960Y2237496D03*
X2512960Y2270496D03*
X3069960Y2237496D03*
X3069960Y2270496D03*
X3020960Y2237496D03*
X3020960Y2270496D03*
X3577960Y2237496D03*
X3577960Y2270496D03*
X3528960Y2237496D03*
X3528960Y2270496D03*
X4085960Y2237496D03*
X4085960Y2270496D03*
X4036960Y2237496D03*
X4036960Y2270496D03*
X4593960Y2237496D03*
X4593960Y2270496D03*
X4544960Y2237496D03*
X4544960Y2270496D03*
X1037960Y2745496D03*
X1037960Y2778496D03*
X988960Y2745496D03*
X988960Y2778496D03*
X1545960Y2745496D03*
X1545960Y2778496D03*
X1496960Y2745496D03*
X1496960Y2778496D03*
X2053960Y2745496D03*
X2053960Y2778496D03*
X2004960Y2745496D03*
X2004960Y2778496D03*
X2561960Y2745496D03*
X2561960Y2778496D03*
X2512960Y2745496D03*
X2512960Y2778496D03*
X3069960Y2745496D03*
X3069960Y2778496D03*
X3020960Y2745496D03*
X3020960Y2778496D03*
X3577960Y2745496D03*
X3577960Y2778496D03*
X3528960Y2745496D03*
X3528960Y2778496D03*
X4593960Y2745496D03*
X4593960Y2778496D03*
X4544960Y2745496D03*
X4544960Y2778496D03*
X1037960Y3253496D03*
X1037960Y3286496D03*
X988960Y3253496D03*
X988960Y3286496D03*
X1545960Y3253496D03*
X1545960Y3286496D03*
X1496960Y3253496D03*
X1496960Y3286496D03*
X2053960Y3253496D03*
X2053960Y3286496D03*
X2004960Y3253496D03*
X2004960Y3286496D03*
X2561960Y3253496D03*
X2561960Y3286496D03*
X2512960Y3253496D03*
X2512960Y3286496D03*
X3069960Y3253496D03*
X3069960Y3286496D03*
X3020960Y3253496D03*
X3020960Y3286496D03*
X3577960Y3253496D03*
X3577960Y3286496D03*
X3528960Y3253496D03*
X3528960Y3286496D03*
X4085960Y3253496D03*
X4085960Y3286496D03*
X4036960Y3253496D03*
X4036960Y3286496D03*
X4593960Y3253496D03*
X4593960Y3286496D03*
X4544960Y3253496D03*
X4544960Y3286496D03*
X1037960Y3761496D03*
X1037960Y3794496D03*
X988960Y3761496D03*
X988960Y3794496D03*
X1545960Y3761496D03*
X1545960Y3794496D03*
X1496960Y3761496D03*
X1496960Y3794496D03*
X2053960Y3761496D03*
X2053960Y3794496D03*
X2004960Y3761496D03*
X2004960Y3794496D03*
X2561960Y3761496D03*
X2561960Y3794496D03*
X2512960Y3761496D03*
X2512960Y3794496D03*
X3069960Y3761496D03*
X3069960Y3794496D03*
X3020960Y3761496D03*
X3020960Y3794496D03*
X3577960Y3761496D03*
X3577960Y3794496D03*
X3528960Y3761496D03*
X3528960Y3794496D03*
X4085960Y3761496D03*
X4085960Y3794496D03*
X4036960Y3761496D03*
X4036960Y3794496D03*
X4593960Y3761496D03*
X4593960Y3794496D03*
X4544960Y3761496D03*
X4544960Y3794496D03*
D18*
X324104Y3190240D02*
X310896Y3190240D01*
X310896Y3241040D02*
X324104Y3241040D01*
X324104Y3215640D02*
X310896Y3215640D01*
X310896Y3441700D02*
X324104Y3441700D01*
X324104Y3492500D02*
X310896Y3492500D01*
X310896Y3467100D02*
X324104Y3467100D01*
D19*
X967580Y193040D03*
X947580Y193040D03*
D18*
X329184Y3698240D02*
X315976Y3698240D01*
X315976Y3749040D02*
X329184Y3749040D01*
X329184Y3723640D02*
X315976Y3723640D01*
D20*
X167640Y2879280D02*
X167640Y2866200D01*
X193040Y2866200D02*
X193040Y2879280D01*
X218440Y2879280D02*
X218440Y2866200D01*
X243840Y2866200D02*
X243840Y2879280D01*
X269240Y2879280D02*
X269240Y2866200D01*
X294640Y2866200D02*
X294640Y2879280D01*
X320040Y2879280D02*
X320040Y2866200D01*
X345440Y2866200D02*
X345440Y2879280D01*
X345440Y2752280D02*
X345440Y2739200D01*
X320040Y2739200D02*
X320040Y2752280D01*
X294640Y2752280D02*
X294640Y2739200D01*
X269240Y2739200D02*
X269240Y2752280D01*
X243840Y2752280D02*
X243840Y2739200D01*
X218440Y2739200D02*
X218440Y2752280D01*
X193040Y2752280D02*
X193040Y2739200D01*
X167640Y2739200D02*
X167640Y2752280D01*
X167640Y3079560D02*
X167640Y3092640D01*
X193040Y3092640D02*
X193040Y3079560D01*
X218440Y3079560D02*
X218440Y3092640D01*
X243840Y3092640D02*
X243840Y3079560D01*
X269240Y3079560D02*
X269240Y3092640D01*
X294640Y3092640D02*
X294640Y3079560D01*
X320040Y3079560D02*
X320040Y3092640D01*
X345440Y3092640D02*
X345440Y3079560D01*
X345440Y2965640D02*
X345440Y2952560D01*
X320040Y2952560D02*
X320040Y2965640D01*
X294640Y2965640D02*
X294640Y2952560D01*
X269240Y2952560D02*
X269240Y2965640D01*
X243840Y2965640D02*
X243840Y2952560D01*
X218440Y2952560D02*
X218440Y2965640D01*
X193040Y2965640D02*
X193040Y2952560D01*
X167640Y2952560D02*
X167640Y2965640D01*
D21*
X347980Y3939540D02*
X347980Y3964940D01*
X139700Y3964940D02*
X139700Y3939540D01*
X190500Y3939540D02*
X190500Y3964940D01*
X297180Y3964940D02*
X297180Y3939540D01*
D22*
X148712Y203000D03*
X148712Y178000D03*
X128900Y178000D03*
X128900Y203000D03*
D23*
X101722Y250698D03*
X101722Y130302D03*
D24*
X309880Y176530D03*
X303530Y67310D03*
X297180Y381000D03*
X318770Y391160D03*
X3543935Y185420D03*
X3035935Y185420D03*
X2527935Y185420D03*
X2019935Y185420D03*
X1511935Y185420D03*
X1003935Y185420D03*
X4051935Y185420D03*
X1003935Y693420D03*
X4559935Y185420D03*
X1511935Y693420D03*
X2019935Y693420D03*
X2527935Y693420D03*
X3035935Y693420D03*
X3543935Y693420D03*
X4051935Y693420D03*
X4559935Y693420D03*
D25*
X1003935Y1201420D03*
D24*
X1511935Y1201420D03*
X2019935Y1201420D03*
X2527935Y1201420D03*
X3035935Y1201420D03*
X3543935Y1201420D03*
X4051935Y1201420D03*
X4559935Y1201420D03*
X1003935Y1709420D03*
X1511935Y1709420D03*
X2019935Y1709420D03*
X2527935Y1709420D03*
X3035935Y1709420D03*
X3543935Y1709420D03*
X4051935Y1709420D03*
X4559935Y1709420D03*
X1003935Y2217420D03*
X1511935Y2217420D03*
X2019935Y2217420D03*
X2527935Y2217420D03*
X3035935Y2217420D03*
X3543935Y2217420D03*
X4051935Y2217420D03*
X4559935Y2217420D03*
X1003935Y2725420D03*
X1511935Y2725420D03*
X2019935Y2725420D03*
X2527935Y2725420D03*
X3035935Y2725420D03*
X3543935Y2725420D03*
X4051935Y2725420D03*
X4559935Y2725420D03*
X1003935Y3233420D03*
X1511935Y3233420D03*
X2019935Y3233420D03*
X2527935Y3233420D03*
X3035935Y3233420D03*
X3543935Y3233420D03*
X4051935Y3233420D03*
X4559935Y3233420D03*
X1003935Y3741420D03*
X1511935Y3741420D03*
X2019935Y3741420D03*
X2527935Y3741420D03*
X3035935Y3741420D03*
X3543935Y3741420D03*
X4051935Y3741420D03*
X4559935Y3741420D03*
D26*
X294640Y210820D03*
X285750Y128270D03*
X239640Y139700D03*
D24*
X222640Y50800D03*
X187787Y71293D03*
X184649Y40750D03*
X222640Y104140D03*
X369570Y90170D03*
X372110Y106680D03*
X323850Y307340D03*
X325144Y334010D03*
X939800Y231140D03*
X1443990Y231140D03*
X1951990Y231140D03*
X2452398Y231168D03*
X2961640Y231140D03*
X3442970Y231140D03*
X3967480Y231140D03*
X4476750Y231140D03*
X939800Y739140D03*
X1443990Y739140D03*
X1948180Y739140D03*
X2462530Y739140D03*
X2967990Y739140D03*
X3470910Y739140D03*
X3982720Y739140D03*
X4491990Y739140D03*
X1483360Y1247140D03*
X1955800Y1247140D03*
X2462530Y1247140D03*
X2970530Y1247140D03*
X3478530Y1247140D03*
X3985260Y1247140D03*
X4490720Y1247140D03*
X952500Y1257300D03*
X952500Y1770380D03*
X952500Y2279650D03*
X952500Y2788920D03*
X952500Y3295650D03*
X952500Y3801110D03*
X1460500Y2279650D03*
X1968500Y2279650D03*
X2476500Y2279650D03*
X2984500Y2279650D03*
X3492500Y2279650D03*
X4000500Y2279650D03*
X4508500Y2279650D03*
X1460500Y2788920D03*
X1968500Y2788920D03*
X2476500Y2788920D03*
X2984500Y2788920D03*
X3492500Y2788920D03*
X4000500Y2788920D03*
X4508500Y2788920D03*
X1460500Y3295650D03*
X1968500Y3295650D03*
X2476500Y3295650D03*
X2984500Y3295650D03*
X3492500Y3295650D03*
X4000500Y3295650D03*
X4508500Y3295650D03*
D26*
X1460500Y3804920D03*
X1968500Y3804920D03*
X2476500Y3804920D03*
X2984500Y3804920D03*
X3492500Y3804920D03*
X4000500Y3804920D03*
X4508500Y3804920D03*
D25*
X937260Y2769870D03*
D26*
X283210Y374650D03*
X340360Y375920D03*
X279400Y1460500D03*
X292100Y1460500D03*
X332740Y1475740D03*
X332740Y2048510D03*
X274320Y2101850D03*
X285750Y2101850D03*
X332740Y2104390D03*
X332740Y2572786D03*
X332740Y2617470D03*
X274320Y2613660D03*
X285750Y2613660D03*
D24*
X251762Y2076450D03*
X245944Y2082800D03*
X240126Y2089150D03*
X234308Y2095500D03*
D26*
X354330Y200660D03*
D24*
X228490Y2101850D03*
X222672Y2108200D03*
X216854Y2115820D03*
X344170Y2691456D03*
X350520Y2697274D03*
X356870Y2703092D03*
X222372Y2626238D03*
X228289Y2620010D03*
X234107Y2613660D03*
X239925Y2606650D03*
X235566Y443399D03*
X235566Y452346D03*
X236220Y398780D03*
X236220Y388620D03*
X342900Y473710D03*
X337081Y467384D03*
D25*
X211303Y1325397D03*
X217452Y1318694D03*
X223520Y1311910D03*
X229870Y1304290D03*
X236220Y1296670D03*
X242570Y1287780D03*
D24*
X351790Y425450D03*
X350665Y434195D03*
X321310Y177800D03*
X283210Y176530D03*
X235566Y425506D03*
X235566Y416560D03*
X235566Y407368D03*
X482600Y2191076D03*
D25*
X205235Y1332230D03*
X199061Y1338909D03*
D24*
X412750Y1563370D03*
X406400Y1557552D03*
X400050Y1551734D03*
X392430Y1545590D03*
X386080Y1539772D03*
X379730Y1533954D03*
X373380Y1527810D03*
X177800Y49530D03*
D26*
X275590Y281940D03*
D24*
X171450Y26670D03*
D26*
X274320Y290028D03*
D24*
X245743Y2600323D03*
X254604Y2599690D03*
X263192Y2599690D03*
X271780Y2599690D03*
X455930Y2167684D03*
X462280Y2173502D03*
X468630Y2179320D03*
X474980Y2185258D03*
X365760Y1521460D03*
X260350Y2076450D03*
D27*
X275590Y3760470D03*
X124460Y3763010D03*
D24*
X312420Y373380D03*
D26*
X310366Y336064D03*
X337820Y406400D03*
X303530Y1192530D03*
X303530Y1252220D03*
X308610Y2043430D03*
X313690Y2082800D03*
X309880Y2567940D03*
D24*
X305712Y367942D03*
D26*
X302260Y336550D03*
X351790Y406400D03*
X309880Y1178560D03*
X293370Y1252220D03*
X298450Y2047240D03*
X304800Y2084070D03*
X300990Y2570480D03*
D24*
X325120Y454732D03*
X331261Y461058D03*
X328930Y233680D03*
X334010Y224790D03*
D28*
X281940Y3261360D03*
X227330Y3327400D03*
X217040Y3550920D03*
X316230Y3539020D03*
D24*
X331470Y313690D03*
X332740Y2838450D03*
D26*
X361224Y421640D03*
X354961Y1497961D03*
X341964Y1570990D03*
X344484Y2144708D03*
X342432Y2216150D03*
X340360Y2647950D03*
X366034Y259779D03*
X378460Y438170D03*
X429260Y2159000D03*
X429260Y2569210D03*
X427990Y2760980D03*
D24*
X335280Y303530D03*
D26*
X366792Y427752D03*
X360680Y1503680D03*
X350052Y1570990D03*
X350520Y2150110D03*
X350520Y2214880D03*
X370372Y2759710D03*
X363220Y276860D03*
X370372Y435610D03*
X365760Y1511300D03*
X358140Y1570990D03*
X359410Y2159000D03*
X359410Y2214880D03*
X378460Y2759710D03*
D24*
X235837Y434723D03*
X350609Y452031D03*
X350637Y443113D03*
X501650Y2208530D03*
X495300Y2202712D03*
X488950Y2196894D03*
X363220Y2708910D03*
X350520Y2685638D03*
X350520Y2677050D03*
X350520Y2659682D03*
X350520Y2668270D03*
D27*
X228600Y3771900D03*
X250190Y3818890D03*
X1531620Y656590D03*
X1531620Y614680D03*
X2039620Y650240D03*
X2039620Y614680D03*
X2547620Y646430D03*
X2547620Y615950D03*
X3055620Y641350D03*
X3055620Y615950D03*
X3564890Y638810D03*
X3564890Y614680D03*
X4071620Y635000D03*
X4071620Y614680D03*
X1531620Y1565910D03*
X1531620Y1525270D03*
X2039620Y1560830D03*
X2039620Y1525270D03*
X2547620Y1558290D03*
X2547620Y1526540D03*
X3056890Y1553210D03*
X3056890Y1526540D03*
X3563620Y1551940D03*
X3563620Y1526540D03*
X4070350Y1549400D03*
X4070350Y1525270D03*
D25*
X1531620Y2080260D03*
X1531620Y2044700D03*
X2039620Y2075180D03*
X2039620Y2045970D03*
X2548890Y2072640D03*
X2550160Y2045970D03*
X3055620Y2070100D03*
X3055620Y2047240D03*
X3564890Y2066290D03*
X3564890Y2045970D03*
X4070350Y2062480D03*
X4070350Y2047240D03*
X1531620Y2641600D03*
X1531620Y2611120D03*
X2039620Y2637790D03*
X2039620Y2611120D03*
X2547620Y2635250D03*
X2547620Y2611120D03*
X3055620Y2631440D03*
X3055620Y2611120D03*
X3563620Y2627630D03*
X3563620Y2609850D03*
X4071620Y2627630D03*
X4071620Y2609850D03*
X1023620Y3150870D03*
X1023620Y3115310D03*
X1531620Y3147060D03*
X1531620Y3115310D03*
X2039620Y3143250D03*
X2039620Y3116580D03*
X2547620Y3140710D03*
X2547620Y3116580D03*
X3055620Y3136900D03*
X3055620Y3115310D03*
X3563620Y3135630D03*
X3563620Y3115310D03*
X4071620Y3133090D03*
X4071620Y3116580D03*
X918210Y3745230D03*
D24*
X1002030Y289560D03*
X988060Y679450D03*
X1010920Y1530350D03*
X986790Y1713230D03*
X982980Y764540D03*
X988060Y1203960D03*
X988060Y2292350D03*
X988060Y2725420D03*
X989330Y3586480D03*
X989330Y3745230D03*
X989330Y2804160D03*
X989330Y3235960D03*
X988060Y1888490D03*
X989330Y2218690D03*
M02*
