M48
;GenerationSoftware,Autodesk,EAGLE,9.0.1*%
;CreationDate,2019-03-20T22:47:57Z*%
FMAT,2
ICI,OFF
METRIC,TZ,000.000
T15C0.250
T14C0.300
T13C0.350
T12C0.400
T11C0.450
T10C0.700
T9C0.800
T8C0.813
T7C0.914
T6C1.016
T5C1.321
T4C2.286
T3C2.800
T2C3.200
T1C6.350
%
G90
M71
T1
X7112Y7112
X492887Y7112
X492887Y392887
X7112Y392887
T2
X13854Y383286
T3
X11004Y388086
X7604Y383286
T4
X10172Y13030
X10172Y25070
T5
X29718Y395224
X19050Y395224
X13970Y395224
X34798Y395224
T6
X30226Y8890
X30226Y11430
X32766Y8890
X32766Y11430
X35306Y8890
X35306Y11430
T7
X14871Y20300
X14871Y17800
X12890Y17800
X12890Y20300
T8
X31750Y346710
X31750Y349250
X31750Y344170
X31750Y321564
X31750Y324104
X31750Y319024
X32258Y369824
X32258Y374904
X32258Y372364
T9
X34544Y274574
X34544Y287274
X32004Y287274
X32004Y308610
X26924Y287274
X24384Y287274
X29464Y287274
X21844Y287274
X19304Y287274
X16764Y287274
X21844Y274574
X19304Y274574
X16764Y274574
X16764Y308610
X19304Y308610
X21844Y308610
X24384Y308610
X26924Y308610
X34544Y308610
X34544Y295910
X32004Y295910
X29464Y295910
X26924Y295910
X24384Y295910
X21844Y295910
X19304Y295910
X29464Y308610
X24384Y274574
X26924Y274574
X29464Y274574
X32004Y274574
X16764Y295910
T10
X10372Y298752
X10626Y280686
X10372Y302752
X10626Y282686
X10626Y284686
X10626Y278686
X10372Y300752
X10372Y304752
T11
X21704Y355092
X22733Y332740
X28194Y326136
X31623Y353902
T12
X254762Y155829
X153162Y61468
X153162Y65659
X25019Y381889
X22860Y377190
X27559Y376047
X12446Y376301
X203962Y152527
X203962Y156083
X153162Y152527
X153162Y156591
X407162Y61468
X407162Y63500
X356489Y61468
X356489Y63881
X305689Y152654
X305689Y155321
X254762Y152654
X305562Y61595
X305562Y64135
X254762Y61595
X254762Y64643
X203962Y61468
X203962Y65024
X356362Y155194
X356362Y152654
X407035Y154940
X407035Y152527
T13
X356489Y204597
X356489Y206629
X305562Y204724
X305562Y207010
X255016Y204597
X254889Y207264
X203962Y204597
X203962Y207518
X153162Y204470
X153162Y208026
X93726Y276987
X100393Y120142
X22987Y130429
X22352Y131191
X21745Y131869
X21130Y132540
X19906Y133891
X20523Y133223
X24257Y128778
X23622Y129667
X356362Y313563
X356362Y311531
X407162Y313309
X407162Y311658
X91821Y374523
X305562Y313690
X254762Y311658
X254762Y314071
X203962Y311658
X203962Y263779
X203962Y314325
X153162Y311531
X153162Y314706
X102362Y311531
X102362Y315087
X407162Y260985
X407162Y262763
X356362Y260985
X305562Y261112
X305562Y311531
X305562Y263144
X254762Y261112
X254762Y263525
X203962Y261112
X153162Y261112
X153162Y264160
X407035Y204724
X407035Y206248
X356362Y262763
T14
X349250Y278892
X400050Y278892
X450850Y278892
X146050Y329565
X196850Y329565
X247650Y329565
X298450Y329565
X349250Y329565
X400050Y329565
X450850Y329565
X25176Y207645
X24594Y208280
X24013Y208915
X23431Y209550
X22849Y210185
X22267Y210820
X21685Y211582
X34417Y269146
X35052Y269727
X35687Y270309
X22237Y262624
X22829Y262001
X23411Y261366
X23992Y260665
X23557Y44340
X23557Y45235
X23622Y39878
X23622Y38862
X34290Y47371
X33708Y46738
X35179Y42545
X35067Y43419
X32131Y17780
X28321Y17653
X23557Y42551
X23557Y41656
X23557Y40737
X48260Y219108
X41275Y156337
X40640Y155755
X40005Y155173
X39243Y154559
X38608Y153977
X37973Y153395
X37338Y152781
X17780Y4953
X17145Y2667
X24574Y260032
X25460Y259969
X26319Y259969
X27178Y259969
X45593Y216768
X46228Y217350
X46863Y217932
X47498Y218526
X36576Y152146
X26035Y207645
X31242Y37338
X100393Y323342
X30571Y36794
X32512Y45473
X33126Y46106
X32893Y23368
X33401Y22479
X33147Y31369
X33274Y283845
X33528Y30353
X23584Y43472
X35061Y45203
X50165Y220853
X49530Y220271
X48895Y219689
X36322Y270891
X35052Y268564
X35052Y267705
X35052Y265968
X35052Y266827
X30988Y17653
X30353Y6731
X29718Y38100
X31877Y39116
X354393Y18542
X303594Y18542
X252793Y18542
X201993Y18542
X151194Y18542
X100393Y18542
X405193Y18542
X100393Y69342
X455993Y18542
X151194Y69342
X201993Y69342
X252793Y69342
X303594Y69342
X354393Y69342
X405193Y69342
X455993Y69342
X151194Y120142
X201993Y120142
X252793Y120142
X303594Y120142
X354393Y120142
X405193Y120142
X455993Y120142
X100393Y170942
X151194Y170942
X201993Y170942
X252793Y170942
X303594Y170942
X354393Y170942
X405193Y170942
X455993Y170942
X100393Y221742
X151194Y221742
X201993Y221742
X252793Y221742
X303594Y221742
X354393Y221742
X405193Y221742
X455993Y221742
X100203Y28956
X98806Y67945
X101092Y153035
X98679Y171323
X98298Y76454
X98806Y120396
X98806Y229235
X98806Y272542
X98933Y358648
X98933Y374523
X98933Y280416
X98933Y323596
X98806Y188849
X98933Y221869
X100393Y272542
X151194Y272542
X201993Y272542
X252793Y272542
X303594Y272542
X354393Y272542
X405193Y272542
X455993Y272542
X151194Y323342
X201993Y323342
X252793Y323342
X303594Y323342
X354393Y323342
X405193Y323342
X455993Y323342
X100393Y374142
X151194Y374142
X201993Y374142
X252793Y374142
X35064Y44311
X303594Y374142
X354393Y374142
X405193Y374142
X455993Y374142
X22264Y5080
X18779Y7129
X18465Y4075
X22264Y10414
X36957Y9017
X37211Y10668
X32385Y30734
X32514Y33401
X93980Y23114
X144399Y23114
X195199Y23114
X245240Y23117
X296164Y23114
X344297Y23114
X396748Y23114
X447675Y23114
X93980Y73914
X144399Y73914
X194818Y73914
X246253Y73914
X296799Y73914
X347091Y73914
X398272Y73914
X449199Y73914
X148336Y124714
X195580Y124714
X246253Y124714
X297053Y124714
X347853Y124714
X398526Y124714
X449072Y124714
X95250Y125730
X95250Y177038
X95250Y227965
X95250Y278892
X95250Y329565
X95250Y380111
X146050Y227965
X196850Y227965
X247650Y227965
X298450Y227965
X349250Y227965
X400050Y227965
X450850Y227965
X146050Y278892
X196850Y278892
X247650Y278892
X298450Y278892
T15
X27559Y28194
X35433Y20066
X28575Y261366
X30988Y256794
X33782Y40640
X36122Y42164
X35496Y149796
X34196Y157099
X34448Y214471
X34243Y221615
X34036Y264795
X36603Y25978
X37846Y43817
X42926Y215900
X42926Y256921
X42799Y276098
X30226Y33655
X36679Y42775
X36068Y150368
X35005Y157099
X35052Y215011
X35052Y221488
X37037Y275971
X36322Y27686
X37037Y43561
X36576Y151130
X35814Y157099
X35941Y215900
X35941Y221488
X37846Y275971
X35179Y40640
X30988Y117856
X31037Y33606
X29337Y125222
X29845Y204724
X30480Y208407
X30099Y257048
X30353Y119253
X30353Y125222
X30861Y204343
X31369Y208280
X27432Y261366
X33274Y261747
X33274Y257279
X33274Y210439
X28575Y210185
X27432Y210185
X33274Y204851
X33274Y147574
X29210Y146050
X27940Y146050
X34036Y37592
X28321Y37465
X450850Y380492
X400050Y380492
X349250Y380492
X298450Y380492
X247650Y380492
X196850Y380492
X146050Y380492
X23964Y13970
X28575Y12827
X29464Y21082
X27432Y29003
M30