M48
;GenerationSoftware,Autodesk,EAGLE,9.0.1*%
;CreationDate,2019-01-14T13:43:57Z*%
FMAT,2
ICI,OFF
METRIC,TZ,000.000
T14C0.350
T13C0.450
T12C0.500
T11C0.600
T10C0.700
T9C0.813
T8C0.900
T7C1.000
T6C1.016
T5C1.200
T4C1.300
T3C2.800
T2C3.000
T1C5.000
%
G90
M71
T1
X100387Y101600
X107387Y101600
T2
X149933Y17310
T3
X5461Y4191
X168656Y108585
X168656Y4191
X5461Y108585
T4
X11303Y48006
X11049Y78406
X11303Y27606
X11303Y22606
X11303Y15414
X11303Y10414
X11303Y53006
X11303Y40560
X11303Y35560
X11049Y73406
X11049Y65960
X11049Y60960
T5
X33655Y19558
X38735Y20828
X33655Y22098
X38735Y23368
X33655Y24638
X38735Y25908
X38735Y18288
X33655Y17018
X38735Y15748
X33655Y14478
X33655Y27178
X38735Y28448
X33655Y11938
X33401Y64770
X38481Y63500
X33401Y72390
X38481Y73660
X38735Y10668
X33401Y74930
X38481Y76200
X38481Y68580
X38735Y13208
X33401Y67310
X38481Y66040
X33401Y77470
X38481Y78740
X33401Y62230
X38481Y60960
X33655Y44450
X38735Y45720
X33655Y46990
X38735Y48260
X33655Y49530
X38735Y50800
X38735Y43180
X33655Y41910
X38735Y40640
X33655Y39370
X38735Y38100
X33655Y52070
X38735Y53340
X33655Y36830
X38735Y35560
X33401Y69850
X38481Y71120
T6
X158877Y90424
X161417Y85344
X161417Y87884
X161417Y90424
X163957Y85344
X163957Y87884
X163957Y90424
X158877Y72136
X158877Y74676
X158877Y77216
X161417Y72136
X161417Y74676
X161417Y77216
X163957Y72136
X163957Y74676
X163957Y77216
X44831Y8890
X47371Y8890
X49911Y8890
X52451Y8890
X54991Y8890
X57531Y8890
X60071Y8890
X62611Y8890
X65151Y8890
X67691Y8890
X158877Y62738
X103251Y8890
X59817Y52324
X57277Y52324
X59817Y54864
X57277Y54864
X59817Y57404
X57277Y57404
X158877Y97790
X158877Y100330
X158877Y102870
X158877Y60198
X158877Y65278
X161417Y60198
X161417Y62738
X161417Y65278
X163957Y60198
X163957Y62738
X163957Y65278
X158877Y46228
X158877Y48768
X158877Y51308
X161417Y46228
X161417Y48768
X161417Y51308
X163957Y46228
X163957Y48768
X163957Y51308
X158877Y32766
X158877Y35306
X158877Y37846
X161417Y32766
X161417Y35306
X161417Y37846
X163957Y32766
X163957Y35306
X163957Y37846
X95631Y16510
X98171Y16510
X100711Y16510
X103251Y16510
X161417Y97790
X161417Y100330
X161417Y102870
X95631Y13970
X98171Y13970
X100711Y13970
X103251Y13970
X95631Y11430
X98171Y11430
X100711Y11430
X103251Y11430
X95631Y8890
X98171Y8890
X100711Y8890
X68961Y99060
X76581Y101600
X79121Y101600
X81661Y101600
X84201Y101600
X86741Y101600
X89281Y101600
X91821Y101600
X94361Y101600
X76581Y104140
X79121Y104140
X81661Y104140
X84201Y104140
X86741Y104140
X89281Y104140
X91821Y104140
X94361Y104140
X74041Y99060
X71501Y99060
X66421Y99060
X63881Y99060
X61341Y99060
X58801Y99060
X56261Y99060
X56261Y104140
X58801Y104140
X61341Y104140
X63881Y104140
X66421Y104140
X68961Y104140
X71501Y104140
X74041Y104140
X56261Y101600
X58801Y101600
X61341Y101600
X63881Y101600
X66421Y101600
X68961Y101600
X71501Y101600
X74041Y101600
X94361Y98806
X91821Y98806
X89281Y98806
X86741Y98806
X84201Y98806
X81661Y98806
X79121Y98806
X76581Y98806
X71247Y8890
X73787Y8890
X76327Y8890
X78867Y8890
X81407Y8890
X83947Y8890
X86487Y8890
X89027Y8890
X91567Y8890
X163957Y97790
X163957Y100330
X163957Y102870
X158877Y85344
X158877Y87884
T7
X27137Y100600
X31537Y100600
T8
X121539Y15240
X121539Y10160
X121539Y12700
X133425Y12700
X126925Y12700
T9
X145669Y75946
X145669Y100330
X145669Y102870
X145669Y97790
X145669Y61468
X145669Y50038
X145669Y33528
X145669Y36068
X145669Y30988
X145669Y58928
X145669Y47498
X145669Y44958
X145669Y73406
X145669Y86614
X145669Y89154
X145669Y84074
X145669Y64008
X145669Y70866
T10
X14097Y53848
X18669Y53848
X17907Y65278
X17907Y69596
X28829Y65532
X18161Y73406
X28829Y73660
X17907Y19050
X17907Y23114
X25019Y23368
X18415Y28448
X18161Y48260
X25273Y44196
X18161Y44450
X19939Y36322
X14097Y36068
X24765Y19050
X25781Y48514
X19177Y60706
X19939Y40152
X52747Y83494
X52747Y85494
X52747Y87494
X52747Y89494
X52747Y93494
X52747Y95494
X52747Y97494
X38747Y83494
X38747Y85494
X38747Y87494
X38747Y89494
X38747Y91494
X38747Y93494
X52747Y91494
X38747Y97494
X38747Y95494
T11
X143383Y26416
X102489Y88138
X138811Y92456
X143383Y104140
X36195Y96520
X108077Y88900
X106045Y90932
X50419Y83820
X140589Y38608
X139065Y65024
X139319Y52070
X49149Y82550
X144907Y40386
X143637Y54356
X143129Y67310
X144653Y79502
X96139Y22860
X94107Y20574
X138811Y78740
T12
X143383Y93218
T13
X93853Y11938
X93091Y9144
T14
X110871Y59182
X108077Y51308
X105316Y51209
X83185Y51468
X100203Y55626
X82169Y49276
X91313Y52070
X94361Y51816
X117842Y47752
X143383Y69088
X51689Y55626
X51181Y66548
X44069Y78847
X35433Y82296
X35687Y84582
X52451Y66548
X43815Y79756
X97155Y24638
X28829Y92964
X24257Y96012
X34671Y86360
X11303Y80518
X8763Y79248
X9017Y57912
X14351Y58166
X101981Y40894
X42545Y58420
X93599Y53594
X70993Y25654
X68453Y19812
X52705Y22815
X78359Y54610
X79375Y53594
X161417Y27178
X93853Y14986
X94107Y10414
X80645Y40894
X80645Y36068
X79736Y40894
X80327Y35159
X87503Y37084
X71397Y29718
X74803Y26416
X71763Y22598
X68811Y49276
X59817Y49784
X52451Y27178
X48133Y24892
X61341Y52832
X55499Y31496
X52451Y28448
X46863Y24892
X46101Y13208
X62611Y52832
X55499Y55372
X53721Y54356
X52451Y30988
X18161Y30480
X29083Y8128
X100711Y58674
X120269Y49022
X119507Y42672
X74041Y57150
X74549Y59792
X76835Y45466
X84201Y44196
X83185Y34036
X70993Y23114
X69469Y19304
X24257Y91440
X23241Y98044
X77089Y53340
X105537Y59436
X86995Y67310
X44323Y52578
X86995Y66294
X43815Y51054
X86995Y65278
X96393Y67818
X44323Y54102
X96414Y66909
X96393Y65786
X55499Y68326
X96393Y64770
X56261Y69596
X96393Y63500
X55499Y70358
X46101Y70612
X49403Y71120
X55753Y71628
X99949Y70358
X41593Y45720
X45130Y49784
X45085Y56134
X96139Y102362
X96901Y96520
X100711Y77724
X48133Y23472
X50927Y25908
X52451Y25908
X64135Y25908
X71247Y27686
X107823Y56388
X104013Y60198
X100711Y60198
X101981Y22098
X138303Y11176
X144653Y22098
X100711Y25146
X103251Y21336
X129413Y19050
X50165Y66548
X49149Y73660
X65151Y54102
X63373Y48006
X43561Y41910
X66167Y53848
X64389Y48768
X45593Y48514
X35941Y45720
X65405Y23472
X92941Y52832
X71247Y26670
X64389Y24892
X52451Y24892
X50927Y24892
X55499Y29210
X61595Y45466
X74041Y45974
X82931Y54864
X82507Y53170
X74950Y45953
X62111Y44696
X56853Y29634
X105283Y23368
X135763Y15494
X104521Y22352
X131953Y18034
X85003Y51308
X81661Y51054
X77597Y52324
X67945Y64008
X85217Y50292
X80891Y50538
X77597Y51415
X68961Y64516
X72705Y47244
X71247Y28702
X152527Y94742
X153043Y93972
X154051Y93726
X66675Y49022
X154559Y92456
X155067Y84836
X155321Y79502
X156337Y84836
X157903Y80033
X156083Y59690
X155425Y60452
X154038Y57391
X153129Y57150
X155321Y45720
X154551Y45204
X153797Y43688
X153035Y42926
X151511Y63500
X160147Y45212
X157861Y50038
X160147Y59182
X157607Y64008
X159131Y80772
X157607Y86614
X157607Y101600
X160147Y96520
X103251Y50546
X105283Y50292
X101473Y44958
X75819Y53340
X101727Y51054
X101473Y48768
X100711Y45720
X107719Y45466
X66167Y58166
X60579Y64516
X54737Y57150
X53467Y50800
X44069Y75184
X45085Y71120
X98425Y54102
X108839Y56134
X147955Y67564
X109347Y54356
X111102Y53848
X117221Y54610
X106133Y44958
X62865Y56123
X76327Y57404
X77089Y60452
X79040Y41483
X79629Y34544
X79017Y42672
X78359Y34798
X78105Y42926
X77589Y35314
X70231Y54864
X69469Y55626
X67903Y49022
X67183Y24130
X66167Y52832
X63627Y22815
X68199Y21336
X84094Y51468
X98933Y55626
X143637Y59436
X141351Y53848
M30