G04 EAGLE Gerber X2 export*
%TF.Part,Single*%
%TF.FileFunction,Other,Solder stop mask SOL*%
%TF.FilePolarity,Positive*%
%TF.GenerationSoftware,Autodesk,EAGLE,9.0.1*%
%TF.CreationDate,2019-11-13T23:41:44Z*%
G75*
%MOMM*%
%FSLAX34Y34*%
%LPD*%
%AMOC8*
5,1,8,0,0,1.08239X$1,22.5*%
G01*
%ADD10C,3.251200*%
%ADD11R,11.003200X10.613200*%
%ADD12R,1.270000X2.362200*%
%ADD13R,1.219200X1.219200*%
%ADD14C,1.524000*%
%ADD15R,1.203200X1.303200*%
%ADD16C,2.953200*%
%ADD17R,1.727200X1.727200*%
%ADD18C,1.727200*%
%ADD19C,2.453200*%
%ADD20C,2.946400*%
%ADD21R,1.838200X1.838200*%
%ADD22C,1.838200*%
%ADD23C,1.223200*%
%ADD24C,3.203200*%
%ADD25C,0.909600*%
%ADD26C,1.259600*%
%ADD27C,1.009600*%
%ADD28C,0.959600*%
%ADD29C,1.059600*%
%ADD30C,1.159600*%
%ADD31C,1.359600*%
%ADD32C,1.309600*%
%ADD33C,1.209600*%


D10*
X-406400Y406400D03*
X406400Y406400D03*
X406400Y-406400D03*
X-406400Y-406400D03*
D11*
X-302260Y-363220D03*
D12*
X-268224Y-446532D03*
X-285242Y-446532D03*
X-302260Y-446532D03*
X-319278Y-446532D03*
X-336296Y-446532D03*
D13*
X-254000Y-429895D03*
X-254000Y-448945D03*
D14*
X-326136Y-533400D02*
X-339344Y-533400D01*
X-339344Y-482600D02*
X-326136Y-482600D01*
X-326136Y-508000D02*
X-339344Y-508000D01*
D13*
X-355600Y-495935D03*
X-355600Y-514985D03*
D15*
X-371720Y-533400D03*
X-354720Y-533400D03*
D16*
X-231700Y566980D03*
X-231700Y-13020D03*
X258300Y566980D03*
X258300Y-13020D03*
D17*
X245600Y518280D03*
D18*
X271018Y518414D03*
X245618Y493014D03*
X271018Y493014D03*
X245618Y467614D03*
X271018Y467614D03*
X245618Y442214D03*
X271018Y442214D03*
X245618Y416814D03*
X271018Y416814D03*
X245618Y391414D03*
X271018Y391414D03*
X245618Y366014D03*
X271018Y366014D03*
X245618Y340614D03*
X271018Y340614D03*
X245618Y315214D03*
X271018Y315214D03*
X245618Y289814D03*
X271018Y289814D03*
X245618Y264414D03*
X271018Y264414D03*
X245618Y239014D03*
X271018Y239014D03*
X245618Y213614D03*
X271018Y213614D03*
X245618Y188214D03*
X271018Y188214D03*
X245618Y162814D03*
X271018Y162814D03*
X245618Y137414D03*
X271018Y137414D03*
X245618Y112014D03*
X271018Y112014D03*
X245618Y86614D03*
X271018Y86614D03*
X245618Y61214D03*
X271018Y61214D03*
X245618Y35814D03*
X271018Y35814D03*
D19*
X425760Y177840D03*
X305760Y177840D03*
X425760Y55840D03*
X305760Y55840D03*
X365760Y35840D03*
X580700Y177840D03*
X460700Y177840D03*
X580700Y55840D03*
X460700Y55840D03*
X520700Y35840D03*
D20*
X-116940Y38060D03*
X-91540Y-29420D03*
X-66140Y38060D03*
X-65940Y515660D03*
X-91340Y583140D03*
X-116740Y515660D03*
X116940Y515660D03*
X91540Y583140D03*
X66140Y515660D03*
X65940Y38060D03*
X91340Y-29420D03*
X116740Y38060D03*
D11*
X-160020Y-393700D03*
D12*
X-125984Y-477012D03*
X-143002Y-477012D03*
X-160020Y-477012D03*
X-177038Y-477012D03*
X-194056Y-477012D03*
D13*
X-111760Y-460375D03*
X-111760Y-479425D03*
D14*
X-181356Y-566420D02*
X-194564Y-566420D01*
X-194564Y-515620D02*
X-181356Y-515620D01*
X-181356Y-541020D02*
X-194564Y-541020D01*
D13*
X-213360Y-521335D03*
X-213360Y-540385D03*
D15*
X-226940Y-566420D03*
X-209940Y-566420D03*
X-427600Y175260D03*
X-410600Y175260D03*
D11*
X-25400Y-393700D03*
D12*
X8636Y-477012D03*
X-8382Y-477012D03*
X-25400Y-477012D03*
X-42418Y-477012D03*
X-59436Y-477012D03*
D13*
X22860Y-457835D03*
X22860Y-476885D03*
D14*
X-46736Y-566420D02*
X-59944Y-566420D01*
X-59944Y-515620D02*
X-46736Y-515620D01*
X-46736Y-541020D02*
X-59944Y-541020D01*
D13*
X-78740Y-518795D03*
X-78740Y-537845D03*
D15*
X-92320Y-566420D03*
X-75320Y-566420D03*
D11*
X109220Y-393700D03*
D12*
X143256Y-477012D03*
X126238Y-477012D03*
X109220Y-477012D03*
X92202Y-477012D03*
X75184Y-477012D03*
D13*
X157480Y-457835D03*
X157480Y-476885D03*
D14*
X87884Y-566420D02*
X74676Y-566420D01*
X74676Y-515620D02*
X87884Y-515620D01*
X87884Y-541020D02*
X74676Y-541020D01*
D13*
X55880Y-518795D03*
X55880Y-537845D03*
D15*
X42300Y-566420D03*
X59300Y-566420D03*
D11*
X243840Y-393700D03*
D12*
X277876Y-477012D03*
X260858Y-477012D03*
X243840Y-477012D03*
X226822Y-477012D03*
X209804Y-477012D03*
D13*
X292100Y-457835D03*
X292100Y-476885D03*
D14*
X219964Y-566420D02*
X206756Y-566420D01*
X206756Y-515620D02*
X219964Y-515620D01*
X219964Y-541020D02*
X206756Y-541020D01*
D13*
X187960Y-518795D03*
X187960Y-537845D03*
D15*
X174380Y-566420D03*
X191380Y-566420D03*
D20*
X429160Y-233720D03*
X454560Y-301200D03*
X479960Y-233720D03*
X480160Y243880D03*
X454760Y311360D03*
X429360Y243880D03*
X256580Y-185520D03*
X324060Y-160120D03*
X256580Y-134720D03*
X-221020Y-134520D03*
X-288500Y-159920D03*
X-221020Y-185320D03*
D21*
X-485140Y40740D03*
D22*
X-485140Y70740D03*
X-485140Y100740D03*
X-485140Y130740D03*
X-485140Y160740D03*
X-485140Y190740D03*
X-485140Y220740D03*
X-485140Y250740D03*
X-485140Y280740D03*
X-485140Y310740D03*
X-485140Y340740D03*
X-485140Y370740D03*
X-455140Y40740D03*
X-455140Y70740D03*
X-455140Y100740D03*
X-455140Y130740D03*
X-455140Y160740D03*
X-455140Y190740D03*
X-455140Y220740D03*
X-455140Y250740D03*
X-455140Y280740D03*
X-455140Y310740D03*
X-455140Y340740D03*
X-455140Y370740D03*
D23*
X-445740Y10740D03*
X-445740Y400740D03*
D21*
X-485140Y-368200D03*
D22*
X-485140Y-338200D03*
X-485140Y-308200D03*
X-485140Y-278200D03*
X-485140Y-248200D03*
X-485140Y-218200D03*
X-485140Y-188200D03*
X-485140Y-158200D03*
X-485140Y-128200D03*
X-485140Y-98200D03*
X-485140Y-68200D03*
X-485140Y-38200D03*
X-455140Y-368200D03*
X-455140Y-338200D03*
X-455140Y-308200D03*
X-455140Y-278200D03*
X-455140Y-248200D03*
X-455140Y-218200D03*
X-455140Y-188200D03*
X-455140Y-158200D03*
X-455140Y-128200D03*
X-455140Y-98200D03*
X-455140Y-68200D03*
X-455140Y-38200D03*
D23*
X-445740Y-398200D03*
X-445740Y-8200D03*
D24*
X466820Y-119000D03*
D25*
X-341240Y548640D03*
X-340360Y576580D03*
X-117500Y612140D03*
X-93980Y612140D03*
X-226940Y-566420D03*
D26*
X-210820Y-477520D03*
D27*
X-254000Y-429895D03*
D28*
X-92320Y-566420D03*
X42300Y-566420D03*
D29*
X174380Y-566420D03*
D30*
X-186560Y-251460D03*
X-194020Y-320040D03*
D28*
X-364880Y474980D03*
X-342900Y474980D03*
D25*
X-404100Y488850D03*
X-364880Y492760D03*
D31*
X-233680Y-454660D03*
D25*
X-386960Y370840D03*
X-386960Y309880D03*
X-386960Y340360D03*
X-467360Y458080D03*
X-347980Y522608D03*
X-136500Y632460D03*
X213360Y461034D03*
X-406400Y528680D03*
X-355600Y530860D03*
X-136500Y652780D03*
X-353060Y434340D03*
X-287020Y582540D03*
X-154710Y591820D03*
X363728Y-15240D03*
X309000Y-76200D03*
X175260Y219320D03*
D29*
X531368Y-17780D03*
D28*
X-375920Y175260D03*
D25*
X335280Y-45720D03*
X-189837Y-219103D03*
X-205740Y-220980D03*
X-185420Y-99060D03*
D28*
X223520Y241300D03*
X223520Y225794D03*
X223520Y251460D03*
X259920Y222680D03*
X233680Y251460D03*
X284480Y246380D03*
X279400Y99060D03*
D25*
X-177800Y577240D03*
X-154710Y576580D03*
D27*
X106680Y233680D03*
X114300Y261620D03*
X60960Y119380D03*
X119380Y223520D03*
X134620Y254000D03*
X182880Y243840D03*
D28*
X166300Y130740D03*
D25*
X386080Y-16900D03*
X365760Y340360D03*
D29*
X396265Y-25375D03*
X416560Y-25400D03*
X336006Y50800D03*
X355600Y71120D03*
X312420Y-40640D03*
D28*
X-441960Y-238760D03*
X-482600Y-172720D03*
X-485140Y-83820D03*
D32*
X-84836Y-259080D03*
X-83820Y-220980D03*
X-50800Y370840D03*
X-294640Y370840D03*
X53340Y-264160D03*
X53340Y-220980D03*
X-27940Y73660D03*
X-416560Y99060D03*
X-17780Y160020D03*
D27*
X-111760Y-479425D03*
D31*
X-103924Y-524480D03*
X309880Y-269240D03*
D28*
X-375920Y-225016D03*
X-219484Y-246303D03*
D29*
X-459740Y55880D03*
D33*
X160020Y-269240D03*
X200660Y-269240D03*
D31*
X-96520Y-487680D03*
D26*
X-106680Y86360D03*
D31*
X-231140Y-281940D03*
D25*
X-182880Y-50800D03*
D28*
X-408940Y-223520D03*
D31*
X40640Y-485140D03*
X172720Y-490220D03*
X299720Y-497840D03*
X281940Y-48260D03*
X325120Y218440D03*
D27*
X-381000Y-375920D03*
D28*
X-419100Y-205740D03*
X-335280Y-177800D03*
X-327660Y175260D03*
X-424180Y-114300D03*
X15240Y-91440D03*
X48260Y193040D03*
X307340Y200660D03*
D25*
X-203200Y434340D03*
X-208280Y223520D03*
X-410600Y223520D03*
D29*
X342900Y-109220D03*
X257514Y-88900D03*
D25*
X350520Y-218440D03*
X406400Y-175260D03*
X353060Y416560D03*
M02*
