M48
;GenerationSoftware,Autodesk,EAGLE,9.0.1*%
;CreationDate,2019-11-13T23:41:57Z*%
FMAT,2
ICI,OFF
METRIC,TZ,000.000
T18C0.300
T17C0.350
T16C0.400
T15C0.450
T14C0.550
T13C0.600
T12C0.650
T11C0.700
T10C0.750
T9C0.813
T8C1.016
T7C1.020
T6C1.090
T5C1.500
T4C1.829
T3C2.750
T2C3.000
T1C3.048
%
G90
M71
T1
X-40640Y40640
X-40640Y-40640
X40640Y40640
X40640Y-40640
T2
X46682Y-11900
T3
X-23170Y56698
X-23170Y-1302
X25830Y56698
X25830Y-1302
T4
X-6594Y51566
X25658Y-13472
X-6614Y3806
X-9154Y-2942
X-11694Y3806
X32406Y-16012
X25658Y-18552
X42936Y24388
X45476Y31136
X47996Y-23372
X-9134Y58314
X45456Y-30120
X42916Y-23372
X11674Y3806
X9134Y-2942
X6594Y3806
X6614Y51566
X9154Y58314
X11694Y51566
X-11674Y51566
X48016Y24388
X-22102Y-18532
X-28850Y-15992
X-22102Y-13452
T5
X42576Y17784
X52070Y3584
X46070Y5584
X58070Y5584
X46070Y17784
X58070Y17784
X30576Y5584
X30576Y17784
X36576Y3584
X42576Y5584
T6
X-45514Y-6820
X-48514Y37074
X-48514Y34074
X-48514Y31074
X-48514Y10074
X-45514Y-9820
X-45514Y-12820
X-45514Y-15820
X-45514Y-3820
X-45514Y-18820
X-45514Y-21820
X-45514Y-24820
X-45514Y-27820
X-45514Y-30820
X-45514Y-33820
X-45514Y-36820
X-48514Y-3820
X-48514Y-6820
X-48514Y-9820
X-48514Y-12820
X-48514Y-15820
X-48514Y-18820
X-48514Y-21820
X-48514Y28074
X-48514Y25074
X-48514Y22074
X-48514Y19074
X-48514Y16074
X-48514Y13074
X-48514Y-27820
X-48514Y7074
X-48514Y4074
X-48514Y-30820
X-48514Y-33820
X-48514Y-36820
X-45514Y37074
X-45514Y34074
X-45514Y31074
X-45514Y28074
X-45514Y25074
X-48514Y-24820
X-45514Y22074
X-45514Y19074
X-45514Y16074
X-45514Y13074
X-45514Y10074
X-45514Y7074
X-45514Y4074
T7
X-44574Y40074
X-44574Y-39820
X-44574Y-820
X-44574Y1074
T8
X27102Y39141
X24562Y36601
X27102Y36601
X24562Y34061
X27102Y34061
X24562Y31521
X27102Y31521
X24562Y28981
X27102Y28981
X24562Y26441
X27102Y26441
X24562Y23901
X27102Y23901
X24562Y21361
X27102Y21361
X24562Y18821
X27102Y18821
X24562Y16281
X27102Y16281
X24562Y13741
X27102Y13741
X24562Y11201
X27102Y11201
X24562Y8661
X27102Y8661
X24562Y6121
X24562Y3581
X27102Y3581
X27102Y46761
X24560Y51828
X27102Y51841
X24562Y49301
X27102Y49301
X24562Y46761
X27102Y6121
X24562Y44221
X27102Y44221
X24562Y41681
X27102Y41681
X24562Y39141
T9
X-33274Y-48260
X8128Y-54102
X21336Y-56642
X-18796Y-56642
X-18796Y-51562
X-18796Y-54102
X-5334Y-56642
X21336Y-54102
X21336Y-51562
X-5334Y-51562
X-5334Y-54102
X8128Y-56642
X8128Y-51562
X-33274Y-50800
X-33274Y-53340
T10
X-9652Y-48768
X-23114Y-28194
X32512Y21844
X28194Y-4826
X29972Y-49784
X17272Y-49022
X-23368Y-45466
X4064Y-48514
X-10392Y-52448
X30988Y-26924
T11
X-1778Y16002
X-29464Y37084
X-8484Y-25908
X5334Y-26416
X5334Y-22098
X-2794Y7366
X-8382Y-22098
X-5080Y37084
X-41656Y9906
T12
X-10668Y8636
X-21082Y-47752
T13
X16002Y-26924
X20066Y-26924
T14
X-18656Y-25146
X-19402Y-32004
T15
X25751Y-8890
X34290Y-10922
X41656Y-2540
X-45974Y5588
X31242Y-4064
X35560Y7112
X33601Y5080
X17438Y-56642
X39627Y-2537
X53137Y-1778
T16
X-38100Y-37592
X-25400Y-42990
X-11176Y-47942
X18288Y24384
X13462Y25400
X11938Y22352
X6096Y11938
X11430Y26162
X10668Y23368
T17
X-36488Y47498
X-34290Y47498
X30734Y20066
X-41910Y-20574
X-21948Y-24630
X-44196Y-23876
X-40894Y-22352
X-33528Y-17780
X-32766Y17526
X16630Y13074
X4826Y19304
X-37592Y-22502
X-48260Y-17272
X1524Y-9144
X-9232Y-56642
X4230Y-56642
X23368Y25146
X27940Y9906
X28448Y24638
X-48514Y-8382
X25992Y22268
X22352Y25146
X22352Y22579
X22352Y24130
X-37592Y17526
X-42418Y-11430
T18
X17526Y21932
X-41060Y22352
X-11750Y61214
X-9398Y61214
X-18288Y-5080
X-34124Y54864
X-22694Y-56642
X-35560Y53086
X-34036Y57658
X36576Y34036
X38608Y-1690
X-38696Y37084
X-38696Y30988
X-38696Y34036
X-46736Y45808
X-34798Y52261
X-13650Y63246
X21336Y46103
X-15471Y57658
X-40640Y52868
X-40410Y48885
X-20320Y43434
X-20828Y22352
X35052Y-21844
X40640Y-17526
X35306Y41656
X-36488Y49276
X-18542Y-9906
X-17780Y57724
X-18984Y-21910
X33528Y-4572
X-35306Y43434
X-13650Y65278
X30900Y-7620
X36373Y-1524
X-15471Y59182
X-28702Y58254
X-20574Y-22098
M30