M48
;GenerationSoftware,Autodesk,EAGLE,9.0.1*%
;CreationDate,2019-01-14T10:50:57Z*%
FMAT,2
ICI,OFF
METRIC,TZ,000.000
T8C0.350
T7C0.800
T6C0.900
T5C1.000
T4C1.016
T3C1.200
T2C2.845
T1C3.200
%
G90
M71
T1
X8636Y36703
X105791Y79248
X100711Y79248
X8636Y31623
X8636Y20193
X8636Y48133
X89281Y79248
X8636Y64643
X8636Y53213
X169926Y53213
X169926Y64643
X169926Y36703
X117221Y79248
X169926Y48133
X169926Y20193
X169926Y31623
X51181Y79248
X39751Y79248
X67691Y79248
X56261Y79248
X84201Y79248
X72771Y79248
X122301Y79248
X133731Y79248
T2
X175006Y3556
X175006Y80772
X3556Y3556
X3556Y80772
T3
X165806Y10668
X169306Y10668
X93106Y10668
X96606Y10668
X101346Y10668
X104846Y10668
X108346Y10668
X111846Y10668
X120086Y10668
X123586Y10668
X127086Y10668
X131826Y10668
X135326Y10668
X138826Y10668
X142326Y10668
X147066Y10668
X150566Y10668
X154066Y10668
X157566Y10668
X162306Y10668
X139756Y79248
X32146Y10668
X116586Y10668
X34036Y79248
X30536Y79248
X9906Y10668
X13406Y10668
X16906Y10668
X20406Y10668
X25146Y10668
X28646Y10668
X143256Y79248
X35646Y10668
X40386Y10668
X43886Y10668
X47386Y10668
X50886Y10668
X55626Y10668
X59126Y10668
X62626Y10668
X66126Y10668
X70866Y10668
X74366Y10668
X77866Y10668
X81366Y10668
X86106Y10668
X89606Y10668
T4
X64516Y50800
X64516Y48260
X64516Y45720
X64516Y43180
X105156Y50800
X105156Y48260
X105156Y45720
X105156Y43180
X40640Y35052
X45720Y35052
X48260Y35052
X50800Y35052
X105156Y62230
X105156Y59690
X105156Y57150
X105156Y54610
X64516Y62230
X64516Y59690
X64516Y57150
X50800Y37592
X48260Y37592
X43180Y35052
X45720Y37592
X43180Y37592
X40640Y37592
X64516Y54610
T5
X129921Y72898
X132461Y72898
X17526Y21463
X14986Y22733
X17526Y24003
X17526Y26543
X17526Y29083
X14986Y25273
X14986Y27813
X14986Y30353
X17526Y37973
X14986Y39243
X17526Y40513
X17526Y43053
X17526Y45593
X14986Y41783
X14986Y44323
X14986Y46863
X17526Y54483
X14986Y55753
X17526Y57023
X17526Y59563
X17526Y62103
X14986Y58293
X14986Y60833
X14986Y63373
X161036Y63373
X163576Y62103
X161036Y60833
X161036Y58293
X161036Y55753
X163576Y59563
X163576Y57023
X163576Y54483
X161036Y46863
X163576Y45593
X161036Y44323
X161036Y41783
X161036Y39243
X163576Y43053
X163576Y40513
X163576Y37973
X161036Y30353
X163576Y29083
X161036Y27813
X161036Y25273
X161036Y22733
X163576Y26543
X163576Y24003
X163576Y21463
X41021Y70358
X42291Y72898
X43561Y70358
X46101Y70358
X48641Y70358
X44831Y72898
X47371Y72898
X49911Y72898
X57531Y70358
X58801Y72898
X60071Y70358
X62611Y70358
X65151Y70358
X61341Y72898
X63881Y72898
X66421Y72898
X74041Y70358
X75311Y72898
X76581Y70358
X79121Y70358
X81661Y70358
X77851Y72898
X80391Y72898
X82931Y72898
X90551Y70358
X91821Y72898
X93091Y70358
X95631Y70358
X98171Y70358
X94361Y72898
X96901Y72898
X99441Y72898
X107061Y70358
X108331Y72898
X109601Y70358
X112141Y70358
X114681Y70358
X110871Y72898
X113411Y72898
X115951Y72898
X123571Y70358
X124841Y72898
X126111Y70358
X128651Y70358
X131191Y70358
X127381Y72898
T6
X150166Y75438
X156666Y75438
X84836Y66548
X87376Y66548
X82296Y66548
T7
X86360Y38354
X83820Y38354
X78740Y38354
X76200Y38354
X73660Y38354
X101600Y23114
X99060Y23114
X96520Y23114
X81280Y38354
X81280Y23114
X78740Y23114
X76200Y23114
X73660Y23114
X66040Y23114
X66040Y38354
X68580Y38354
X71120Y38354
X68580Y23114
X71120Y23114
X93980Y23114
X100330Y28194
X100330Y33274
X101600Y38354
X83820Y23114
X86360Y23114
X88900Y23114
X91440Y23114
X102870Y28194
X102870Y30734
X102870Y33274
X100330Y30734
X99060Y38354
X96520Y38354
X93980Y38354
X91440Y38354
X88900Y38354
T8
X166370Y8128
X166116Y32258
X101092Y66548
X153924Y44196
X151130Y43434
X157226Y39878
X154432Y38354
X149352Y43180
X155702Y37338
X147320Y42672
X151892Y61468
X147574Y59690
X143510Y58420
X141224Y57912
X22352Y54356
X26416Y52070
X24130Y52832
X26416Y48768
X21082Y38354
X24384Y39370
X21590Y22606
X165862Y46482
X159512Y48006
X152400Y30226
X155448Y26416
X124714Y44704
X151300Y29972
X155702Y24384
X157734Y43688
X157734Y38354
M30