M48
;GenerationSoftware,Autodesk,EAGLE,9.0.0*%
;CreationDate,2018-08-17T16:00:20Z*%
FMAT,2
ICI,OFF
METRIC,TZ,000.000
T19C0.300
T18C0.350
T17C0.500
T16C0.635
T15C0.650
T14C0.700
T13C0.800
T12C0.813
T11C0.889
T10C0.900
T9C1.000
T8C1.016
T7C1.100
T6C1.200
T5C1.397
T4C2.000
T3C2.800
T2C3.200
T1C3.810
%
G90
M71
T1
X3810Y148590
X172720Y148590
X172720Y3810
X3810Y3810
T2
X134620Y49530
X86360Y130810
X134620Y132080
X101600Y80010
X129540Y80010
X86360Y55880
T3
X3810Y111760
X3810Y142680
X78730Y142680
X78730Y111760
T4
X18460Y41910
X13290Y41910
X4490Y41910
X27260Y41910
X29800Y57150
X21000Y57150
T5
X10160Y11112
X25400Y11112
X25400Y24447
X10160Y24447
T6
X158750Y99060
X163830Y100330
X163830Y102870
X163830Y95250
X158750Y93980
X158750Y96520
X158750Y78740
X163830Y80010
X158750Y81280
X158750Y101600
X163830Y82550
X163830Y74930
X163830Y92710
X158750Y73660
X163830Y72390
X158750Y71120
X163830Y69850
X158750Y83820
X163830Y85090
X158750Y68580
X163830Y67310
X163830Y97790
X158750Y91440
X163830Y90170
X158750Y104140
X163830Y77470
X163830Y105410
X158750Y88900
X163830Y87630
X158750Y76200
T7
X14605Y25400
X20955Y25400
X20955Y29900
X14605Y29900
T8
X134620Y77470
X134620Y80010
X134620Y82550
X134620Y85090
X134620Y87630
X134620Y90170
X134620Y92710
X86360Y77470
X86360Y59690
X86360Y62230
X86360Y64770
X86360Y67310
X86360Y69850
X86360Y72390
X86360Y74930
X134620Y72390
X134620Y54610
X134620Y57150
X134620Y59690
X134620Y62230
X134620Y64770
X134620Y67310
X134620Y69850
X172720Y129540
X170180Y129540
X167640Y129540
X165100Y129540
X162560Y129540
X160020Y129540
X157480Y129540
X154940Y129540
X144780Y138430
X147320Y138430
X149860Y138430
X152400Y138430
X154940Y138430
X157480Y138430
X160020Y138430
X162560Y138430
X165100Y138430
X167640Y138430
X170180Y138430
X172720Y138430
X144780Y124460
X147320Y124460
X149860Y124460
X152400Y124460
X154940Y124460
X157480Y124460
X160020Y124460
X162560Y124460
X165100Y124460
X167640Y124460
X170180Y124460
X172720Y124460
X144780Y129540
X147320Y129540
X149860Y129540
X80010Y29845
X77470Y29845
X74930Y29845
X72390Y29845
X69850Y29845
X67310Y29845
X64770Y29845
X62230Y29845
X86360Y30480
X86360Y33020
X88900Y30480
X88900Y33020
X91440Y30480
X91440Y33020
X93980Y30480
X93980Y33020
X86360Y87630
X86360Y90170
X86360Y92710
X86360Y95250
X86360Y97790
X134620Y95250
X165100Y140970
X104140Y25400
X104140Y22860
X104140Y20320
X114300Y29210
X114300Y26670
X114300Y24130
X172720Y140970
X170180Y140970
X167640Y140970
X162560Y140970
X160020Y140970
X157480Y140970
X154940Y140970
X152400Y140970
X149860Y140970
X147320Y140970
X144780Y140970
X170180Y91440
X170180Y93980
X170180Y85090
X170180Y87630
X170180Y110490
X170180Y113030
X170180Y97790
X170180Y100330
X170180Y104140
X170180Y106680
X45720Y78740
X43180Y78740
X40640Y78740
X38100Y78740
X35560Y78740
X33020Y78740
X30480Y78740
X27940Y78740
X68580Y78740
X66040Y78740
X63500Y78740
X60960Y78740
X58420Y78740
X55880Y78740
X53340Y78740
X50800Y78740
X22860Y78740
X20320Y78740
X17780Y78740
X15240Y78740
X12700Y78740
X114300Y31750
X7620Y78740
X5080Y78740
X50800Y81280
X53340Y81280
X55880Y81280
X58420Y81280
X60960Y81280
X63500Y81280
X66040Y81280
X68580Y81280
X27940Y81280
X30480Y81280
X33020Y81280
X35560Y81280
X38100Y81280
X40640Y81280
X43180Y81280
X45720Y81280
X5080Y81280
X7620Y81280
X10160Y81280
X12700Y81280
X15240Y81280
X17780Y81280
X20320Y81280
X22860Y81280
X171450Y40640
X171450Y43180
X171450Y45720
X171450Y48260
X171450Y50800
X171450Y53340
X10160Y78740
X144780Y112014
X147320Y112014
X149860Y112014
X152400Y112014
X154940Y112014
X154940Y109220
X152400Y109220
X149860Y109220
X147320Y109220
X144780Y109220
X152400Y119380
X149860Y119380
X147320Y119380
X144780Y119380
X152400Y116840
X149860Y116840
X147320Y116840
X144780Y116840
X57150Y33020
X54610Y33020
X52070Y33020
X49530Y33020
X46990Y33020
X44450Y33020
X41910Y33020
X39370Y33020
X36830Y33020
X165100Y116840
X162560Y116840
X172720Y127000
X170180Y127000
X167640Y127000
X165100Y127000
X162560Y127000
X160020Y127000
X157480Y127000
X154940Y127000
X152400Y127000
X149860Y127000
X147320Y127000
X144780Y127000
X172720Y135890
X170180Y135890
X167640Y135890
X165100Y135890
X162560Y135890
X160020Y135890
X157480Y135890
X154940Y135890
X152400Y135890
X149860Y135890
X147320Y135890
X144780Y135890
X165100Y119380
X162560Y119380
X77470Y33020
X74930Y33020
X72390Y33020
X69850Y33020
X67310Y33020
X64770Y33020
X134620Y100330
X134620Y102870
X134620Y105410
X134620Y107950
X134620Y110490
X134620Y113030
X86360Y49530
X86360Y52070
X129540Y49530
X129540Y52070
X109220Y52070
X109220Y49530
X111760Y52070
X111760Y49530
X114300Y52070
X114300Y49530
X116840Y52070
X116840Y49530
X119380Y52070
X119380Y49530
X121920Y52070
X152400Y129540
X121920Y49530
X124460Y52070
X124460Y49530
X127000Y52070
X127000Y49530
X88900Y52070
X88900Y49530
X91440Y52070
X91440Y49530
X93980Y52070
X93980Y49530
X96520Y52070
X96520Y49530
X99060Y52070
X99060Y49530
X101600Y52070
X101600Y49530
X104140Y52070
X104140Y49530
X106680Y52070
X106680Y49530
X86360Y122174
X86360Y104394
X86360Y106934
X86360Y109474
X86360Y112014
X86360Y114554
X86360Y117094
X86360Y119634
X86360Y100330
X86360Y82550
X86360Y85090
T9
X27900Y50150
X25400Y50150
X22900Y50150
X12070Y54650
X8770Y59650
X15070Y59650
X25360Y34910
X6390Y34910
X8890Y34910
X11390Y34910
X20360Y34910
X22860Y34910
T10
X58420Y58420
X58420Y55880
X58420Y60960
X63500Y58420
X38100Y55880
X38100Y60960
X43180Y58420
X63500Y60960
X43180Y55880
X43180Y60960
X48260Y58420
X48260Y55880
X48260Y60960
X53340Y58420
X53340Y55880
X53340Y60960
X76200Y86920
X76200Y93420
X38100Y58420
X63500Y55880
T11
X7620Y20320
X7620Y15240
X7620Y17780
X20320Y7620
X17780Y7620
X15240Y7620
T12
X144780Y73660
X147320Y73660
X152400Y73660
X144780Y69850
X144780Y53340
X139700Y53340
X144780Y57150
X139700Y57150
X144780Y85090
X139700Y85090
X152400Y69850
X147320Y69850
X152400Y62230
X147320Y62230
X152400Y85090
X147320Y85090
X139700Y81280
X144780Y81280
X152400Y57150
X147320Y57150
X147320Y66040
X152400Y66040
X147320Y81280
X152400Y81280
X147320Y77470
X152400Y77470
X139700Y77470
X144780Y77470
X139700Y66040
X144780Y66040
X139700Y69850
X147320Y90170
X152400Y90170
X152400Y101600
X152400Y106680
X139700Y90170
X144780Y90170
X139700Y62230
X144780Y62230
X41910Y68580
X41910Y73660
X139700Y73660
T13
X6350Y88900
X19430Y142680
X21970Y142680
X24510Y142680
X27050Y142680
X29590Y142680
X32130Y142680
X34670Y142680
X39750Y142680
X42290Y142680
X3810Y88900
X16510Y104140
X8890Y88900
X11430Y88900
X13970Y88900
X16510Y88900
X19050Y88900
X21590Y88900
X24130Y88900
X24130Y104140
X21590Y104140
X19050Y104140
X44830Y142680
X13970Y104140
X11430Y104140
X8890Y104140
X6350Y104140
X3810Y104140
X29210Y88900
X31750Y88900
X34290Y88900
X36830Y88900
X39370Y88900
X41910Y88900
X44450Y88900
X46990Y88900
X49530Y88900
X49530Y104140
X46990Y104140
X44450Y104140
X41910Y104140
X39370Y104140
X36830Y104140
X34290Y104140
X31750Y104140
X29210Y104140
X47370Y142680
X37210Y142680
X9270Y142680
X11810Y142680
X14350Y142680
X16890Y142680
T14
X144350Y11090
X144350Y25090
X144350Y27090
X122350Y13090
X122350Y11090
X122350Y23090
X144350Y23090
X122350Y15090
X122350Y17090
X122350Y19090
X122350Y21090
X122350Y25090
X122350Y27090
X144350Y9090
X144350Y13090
X122350Y9090
X144350Y15090
X144350Y17090
X144350Y19090
X144350Y21090
T15
X45466Y73152
X97790Y24384
X107188Y27940
X70104Y72390
X44196Y46482
X47498Y46482
X67811Y86088
X52070Y42164
X29464Y35052
X164084Y4572
X95250Y26944
X48514Y43180
X74676Y102870
X76454Y98044
X72116Y79756
X70020Y79756
X53086Y73406
X54356Y132588
X39370Y132334
X32512Y131826
X18542Y132842
X17272Y137668
X147320Y6858
T16
X48260Y76518
X40323Y74930
X134620Y115252
X128270Y113982
X113982Y35560
X35243Y99695
X37465Y101917
X84138Y104140
X88900Y101282
X109537Y65087
X105410Y140335
X2223Y79693
X102552Y34290
X73025Y38418
X69152Y85217
X42863Y84455
X103505Y139383
X96520Y47307
X92710Y48260
X27940Y83185
X107632Y55562
X106045Y137160
X98107Y28257
X108267Y58737
X106680Y134303
X75248Y82868
X48260Y82868
X108902Y61912
X107315Y132715
X138430Y55562
X132715Y34608
X141923Y56197
X93662Y97472
X146368Y102298
X121285Y89535
X118745Y92075
X118427Y130492
X48260Y123825
X47307Y99695
X60325Y99377
X35878Y93980
X58737Y94297
X24447Y108902
X26987Y108902
X26987Y101917
X58356Y103187
X83820Y32385
X67628Y94297
X37783Y91122
X16192Y91122
X68898Y90805
X15557Y93027
X39688Y94932
X70168Y94297
X71438Y91757
X18733Y108902
X39370Y108585
X73025Y106680
X15240Y107950
X38418Y107632
X70168Y104457
X39688Y112395
X68898Y109855
X44450Y106680
X20955Y106997
X44767Y109537
X58737Y109855
X24447Y97790
X49847Y98742
X59055Y98742
X22225Y95885
X42228Y96837
X67628Y100012
X18733Y106362
X132715Y29527
X34608Y40640
X93980Y40958
X88900Y75565
X84455Y73978
X36830Y59690
X142875Y57150
X70803Y27305
X118427Y117792
X89535Y122555
X85090Y113347
X80645Y108902
X129222Y121285
X129540Y99060
X143828Y102552
X130175Y122237
X130492Y97155
X147320Y97472
X120967Y41593
X143828Y43815
X155575Y80328
X120713Y75121
X116840Y46037
X143828Y49212
X154305Y62547
X115887Y45085
X161925Y49212
X155575Y82868
X147003Y60134
X172403Y62547
X172403Y73343
X167958Y82550
X157480Y65405
X142558Y69215
X168910Y69850
X161290Y59372
X168910Y68263
X104457Y74295
X101282Y118745
X137478Y117792
X141224Y115760
X98425Y72390
X101600Y125095
X139700Y123761
X79693Y64452
X82233Y43498
X85725Y42228
X97472Y73343
X97472Y116840
X139383Y118427
X72073Y59690
X96520Y74295
X98107Y126047
X140653Y127635
X70485Y59690
X110490Y81915
X111125Y113030
X131445Y113982
X139764Y114808
X49847Y62230
X171450Y116205
X45720Y62230
X107950Y85408
X111125Y120015
X74295Y83820
X82550Y120332
X124142Y123190
X127000Y138430
X138748Y138748
X80645Y92392
X82550Y39688
X108267Y39688
X174308Y11430
X120650Y30480
X168275Y115570
X165735Y51435
X138113Y51117
X171133Y145098
X128587Y145098
X116522Y71438
X159385Y131763
X156528Y131128
X153670Y130810
X149543Y131763
X141923Y136843
X161925Y132715
X151448Y132715
X151130Y134620
X120332Y133033
X120332Y85090
X174308Y131763
X173990Y122809
X127000Y120967
X126682Y106680
X131128Y102552
X160020Y133985
X166688Y144145
X164783Y146050
X131128Y146050
X123507Y83503
X123190Y133033
X123825Y86043
X152400Y133668
X140335Y134938
X134620Y117792
X123507Y117792
X123825Y87630
X121285Y91122
X119380Y132080
X80010Y79693
X79058Y92392
X51752Y95885
X125730Y94932
X90487Y94932
X84455Y100330
X76454Y102552
X130810Y112077
X131128Y125730
X132080Y101600
X84455Y101917
X83820Y99060
X79058Y100647
X61912Y49212
X122872Y43180
X46672Y49212
X120967Y56197
X105092Y64135
X95567Y79058
X72073Y78105
X58102Y76200
X44767Y63182
X118110Y37148
X41910Y39688
X120332Y63817
X90170Y76200
X83820Y72708
X148273Y40005
X91757Y41593
X44450Y113347
X92710Y125095
X55245Y75248
X24130Y59690
X148908Y72390
X147320Y75883
X115887Y84773
X114935Y129222
X90170Y129222
X169228Y142558
X167640Y146050
X125412Y145098
X125730Y53340
X118427Y89535
X91757Y90805
X88265Y112395
X167005Y149543
X92710Y149543
X137795Y86360
X127635Y89535
X91122Y92075
X161608Y147955
X90805Y147638
X166053Y96520
X167958Y97472
X169228Y108267
X153988Y106680
X148273Y106045
X94615Y109537
X101282Y106997
X102552Y141288
X83503Y137478
X95567Y137795
X115887Y98107
X113982Y96837
X113982Y134303
X150813Y142558
X107632Y95885
X108267Y135890
X83185Y92075
X83503Y102870
X94615Y103187
X105410Y66040
X104140Y130492
X50800Y121285
X80645Y7937
X159703Y11430
X149860Y26987
X90805Y38735
X136525Y99695
X95567Y93980
X167005Y101600
X141288Y73343
X138430Y103187
X170498Y102552
X149860Y73978
X172403Y90170
X128905Y136843
X151130Y87630
X161290Y106362
X116522Y55245
X153353Y54610
X118427Y46990
X140970Y50482
X140335Y87313
X153670Y93345
X155575Y98107
X115570Y72390
X141288Y69850
X145733Y55880
X170815Y59372
X168593Y95250
X115887Y39053
X170180Y49530
X167958Y91757
X53657Y86043
X66675Y26352
X143828Y31432
X170180Y63500
X166370Y73978
X76200Y127635
X131445Y128270
X54927Y108585
X76835Y106362
X136843Y125412
X135573Y137478
X172720Y118427
X135255Y148590
X139700Y148590
X113030Y93027
X113030Y142558
X139065Y143510
X107632Y89852
X109220Y131445
X81280Y58420
X81598Y45720
X132715Y119062
X132080Y123825
X79375Y82233
X56832Y124142
X81598Y124142
X25717Y140018
X50800Y122872
X56515Y104140
X53975Y104140
X141923Y98107
X146050Y98107
X125730Y61277
X128905Y97155
X56388Y100647
X80645Y63500
X154940Y100330
X142875Y95250
X66358Y104457
X65087Y109855
X34608Y108902
X61277Y110490
X23177Y97155
X44767Y97790
X62547Y100012
X19050Y93027
X54927Y93027
X49212Y100647
X24447Y101917
X60007Y104457
X72390Y93345
X66358Y90487
X153670Y68898
X153670Y91122
X155893Y102552
X159385Y109537
X131763Y53340
X88265Y82233
X89535Y99377
X127952Y99060
X48260Y78740
X136525Y80645
T17
X151765Y53340
X154305Y52832
X162433Y52959
X149098Y53340
T18
X80264Y119380
X64008Y103124
X60198Y103124
X142494Y139192
X137550Y140211
X136756Y134178
X142494Y131956
X149606Y81026
X143764Y86106
X130810Y73152
X129794Y70358
X131826Y67564
X154813Y79121
X154940Y76708
X142057Y101258
X140771Y102688
X138430Y104902
X141986Y106299
X148082Y102616
X150749Y102616
T19
X156210Y123492
X165928Y101600
X155448Y96520
X155194Y89916
X167485Y104775
X167592Y112903
X167198Y115824
X167386Y117729
X142304Y99185
M30