G04 EAGLE Gerber X2 export*
%TF.Part,Single*%
%TF.FileFunction,Other,Solder stop mask CMP*%
%TF.FilePolarity,Positive*%
%TF.GenerationSoftware,Autodesk,EAGLE,8.7.1*%
%TF.CreationDate,2018-08-07T05:45:23Z*%
G75*
%MOMM*%
%FSLAX34Y34*%
%LPD*%
%AMOC8*
5,1,8,0,0,1.08239X$1,22.5*%
G01*
%ADD10C,1.203200*%
%ADD11R,5.603200X6.403200*%
%ADD12R,1.203200X1.803200*%
%ADD13R,1.703200X1.503200*%
%ADD14R,1.473200X1.727200*%
%ADD15R,1.727200X1.473200*%
%ADD16R,2.203200X2.603200*%
%ADD17R,0.703200X2.511200*%
%ADD18P,1.924489X8X112.500000*%
%ADD19C,3.403600*%
%ADD20R,1.603200X1.203200*%
%ADD21R,0.903200X1.403200*%
%ADD22R,1.203200X1.603200*%
%ADD23C,2.082800*%
%ADD24R,1.403200X1.403200*%
%ADD25C,1.727200*%
%ADD26C,1.524000*%
%ADD27R,1.803200X1.503200*%
%ADD28R,1.603200X1.303200*%
%ADD29R,1.503200X1.803200*%
%ADD30R,1.303200X1.603200*%
%ADD31C,2.743200*%
%ADD32C,2.453200*%
%ADD33R,1.676400X0.711200*%
%ADD34R,0.711200X1.676400*%
%ADD35R,1.600200X0.551200*%
%ADD36C,1.511200*%
%ADD37C,1.854200*%
%ADD38C,2.743200*%
%ADD39R,2.235200X2.235200*%
%ADD40C,2.235200*%
%ADD41R,2.082800X2.082800*%
%ADD42C,3.403200*%
%ADD43C,0.959600*%


D10*
X7620Y1165860D03*
X1310640Y1165860D03*
X1310640Y-55880D03*
X7620Y-55880D03*
D11*
X802640Y901300D03*
D12*
X779840Y828300D03*
X825440Y828300D03*
D11*
X713740Y901300D03*
D12*
X690940Y828300D03*
X736540Y828300D03*
D13*
X988060Y392820D03*
X988060Y409820D03*
D14*
X597535Y549910D03*
X578485Y549910D03*
X592455Y500380D03*
X573405Y500380D03*
X948055Y427990D03*
X967105Y427990D03*
D13*
X1012190Y392820D03*
X1012190Y409820D03*
X1037590Y392820D03*
X1037590Y409820D03*
D14*
X452755Y199390D03*
X471805Y199390D03*
X598805Y137160D03*
X617855Y137160D03*
D13*
X412750Y90560D03*
X412750Y107560D03*
D15*
X435610Y108585D03*
X435610Y89535D03*
D16*
X415740Y1980D03*
D17*
X443740Y7620D03*
X451740Y7620D03*
X459740Y7620D03*
X467740Y7620D03*
X475740Y7620D03*
D16*
X415740Y-53020D03*
X503740Y1980D03*
X503740Y-53020D03*
D10*
X437740Y-23020D03*
X481740Y-23020D03*
D18*
X133350Y393700D03*
X133350Y365760D03*
X133350Y337820D03*
X133350Y309880D03*
X133350Y281940D03*
X133350Y254000D03*
X133350Y226060D03*
X133350Y198120D03*
X133350Y170180D03*
X133350Y142240D03*
X133350Y114300D03*
X133350Y86360D03*
X133350Y58420D03*
X107950Y379730D03*
X107950Y351790D03*
X107950Y323850D03*
X107950Y295910D03*
X107950Y267970D03*
X107950Y240030D03*
X107950Y212090D03*
X107950Y184150D03*
X107950Y156210D03*
X107950Y128270D03*
X107950Y100330D03*
X107950Y72390D03*
D19*
X120650Y462280D03*
X120650Y-10160D03*
D20*
X1018110Y279400D03*
X996110Y269900D03*
X996110Y288900D03*
X1018110Y314960D03*
X996110Y305460D03*
X996110Y324460D03*
X662510Y452120D03*
X640510Y442620D03*
X640510Y461620D03*
X1034210Y541020D03*
X1056210Y550520D03*
X1056210Y531520D03*
X1034210Y505460D03*
X1056210Y514960D03*
X1056210Y495960D03*
X681560Y345440D03*
X659560Y335940D03*
X659560Y354940D03*
D21*
X375920Y120100D03*
X375920Y83100D03*
D22*
X928370Y894920D03*
X937870Y872920D03*
X918870Y872920D03*
X965200Y894920D03*
X974700Y872920D03*
X955700Y872920D03*
X695960Y499540D03*
X686460Y521540D03*
X705460Y521540D03*
X544830Y952930D03*
X535330Y974930D03*
X554330Y974930D03*
X508000Y951660D03*
X498500Y973660D03*
X517500Y973660D03*
D20*
X662510Y485140D03*
X640510Y475640D03*
X640510Y494640D03*
D11*
X626110Y901300D03*
D12*
X603310Y828300D03*
X648910Y828300D03*
D11*
X538480Y901300D03*
D12*
X515680Y828300D03*
X561280Y828300D03*
D23*
X212090Y3810D03*
X237490Y3810D03*
X212090Y-21590D03*
X237490Y-21590D03*
X212090Y-46990D03*
X237490Y-46990D03*
D24*
X283210Y-36490D03*
X283210Y-57490D03*
X308610Y-57490D03*
X308610Y-36490D03*
X334010Y-57490D03*
X334010Y-36490D03*
X391160Y-36490D03*
X391160Y-57490D03*
X365760Y-36490D03*
X365760Y-57490D03*
D25*
X1250950Y260350D02*
X1266190Y260350D01*
X1266190Y234950D02*
X1250950Y234950D01*
X1250950Y349250D02*
X1266190Y349250D01*
X1266190Y323850D02*
X1250950Y323850D01*
X1250950Y438150D02*
X1266190Y438150D01*
X1266190Y412750D02*
X1250950Y412750D01*
X1250950Y527050D02*
X1266190Y527050D01*
X1266190Y501650D02*
X1250950Y501650D01*
D26*
X693420Y193040D02*
X693420Y179832D01*
X718820Y179832D02*
X718820Y193040D01*
X845820Y193040D02*
X845820Y179832D01*
X871220Y179832D02*
X871220Y193040D01*
X744220Y193040D02*
X744220Y179832D01*
X769620Y179832D02*
X769620Y193040D01*
X820420Y193040D02*
X820420Y179832D01*
X795020Y179832D02*
X795020Y193040D01*
X871220Y269240D02*
X871220Y282448D01*
X845820Y282448D02*
X845820Y269240D01*
X820420Y269240D02*
X820420Y282448D01*
X795020Y282448D02*
X795020Y269240D01*
X769620Y269240D02*
X769620Y282448D01*
X744220Y282448D02*
X744220Y269240D01*
X718820Y269240D02*
X718820Y282448D01*
X693420Y282448D02*
X693420Y269240D01*
D25*
X919480Y-17780D02*
X919480Y-33020D01*
X894080Y-33020D02*
X894080Y-17780D01*
X944880Y-17780D02*
X944880Y-33020D01*
X1040130Y-33020D02*
X1040130Y-17780D01*
X1014730Y-17780D02*
X1014730Y-33020D01*
X1065530Y-33020D02*
X1065530Y-17780D01*
X1250950Y146050D02*
X1266190Y146050D01*
X1266190Y120650D02*
X1250950Y120650D01*
X1250950Y171450D02*
X1266190Y171450D01*
X1266190Y31750D02*
X1250950Y31750D01*
X1250950Y6350D02*
X1266190Y6350D01*
X1266190Y57150D02*
X1250950Y57150D01*
X1165860Y-15240D02*
X1165860Y-30480D01*
X1140460Y-30480D02*
X1140460Y-15240D01*
X1191260Y-15240D02*
X1191260Y-30480D01*
X825500Y-34290D02*
X825500Y-19050D01*
X800100Y-19050D02*
X800100Y-34290D01*
D22*
X1002030Y871650D03*
X992530Y893650D03*
X1011530Y893650D03*
X510540Y1027000D03*
X520040Y1005000D03*
X501040Y1005000D03*
D20*
X1016840Y350520D03*
X994840Y341020D03*
X994840Y360020D03*
X1035480Y469900D03*
X1057480Y479400D03*
X1057480Y460400D03*
D27*
X718820Y132740D03*
X718820Y151740D03*
D28*
X769620Y500540D03*
X769620Y520540D03*
X748030Y519270D03*
X748030Y499270D03*
X726440Y518000D03*
X726440Y498000D03*
X308610Y-12540D03*
X308610Y7460D03*
X334010Y-12540D03*
X334010Y7460D03*
X391160Y7460D03*
X391160Y-12540D03*
X365760Y7460D03*
X365760Y-12540D03*
D27*
X769620Y151740D03*
X769620Y132740D03*
X1010920Y485800D03*
X1010920Y504800D03*
X988060Y485800D03*
X988060Y504800D03*
D29*
X205080Y309880D03*
X186080Y309880D03*
X948080Y488950D03*
X967080Y488950D03*
X203810Y281940D03*
X184810Y281940D03*
D27*
X858520Y502310D03*
X858520Y521310D03*
X744220Y132740D03*
X744220Y151740D03*
D29*
X205080Y255270D03*
X186080Y255270D03*
D27*
X830580Y501040D03*
X830580Y520040D03*
X800100Y501040D03*
X800100Y520040D03*
X802640Y544220D03*
X802640Y563220D03*
X919480Y842620D03*
X919480Y823620D03*
X551180Y1010310D03*
X551180Y1029310D03*
D29*
X1052220Y289560D03*
X1071220Y289560D03*
X1094130Y532130D03*
X1113130Y532130D03*
X945540Y339090D03*
X964540Y339090D03*
D27*
X808990Y323190D03*
X808990Y304190D03*
D29*
X625500Y378460D03*
X644500Y378460D03*
X946810Y374650D03*
X965810Y374650D03*
X948080Y447040D03*
X967080Y447040D03*
D27*
X693420Y149200D03*
X693420Y130200D03*
X693420Y324460D03*
X693420Y305460D03*
X795020Y151740D03*
X795020Y132740D03*
X728980Y302920D03*
X728980Y321920D03*
X820420Y132740D03*
X820420Y151740D03*
X871220Y154280D03*
X871220Y135280D03*
X845820Y132740D03*
X845820Y151740D03*
X751840Y302920D03*
X751840Y321920D03*
D30*
X947580Y406400D03*
X967580Y406400D03*
D28*
X283210Y-12540D03*
X283210Y7460D03*
D25*
X1252220Y952500D02*
X1267460Y952500D01*
X1267460Y927100D02*
X1252220Y927100D01*
X1252220Y977900D02*
X1267460Y977900D01*
X1267460Y1003300D02*
X1252220Y1003300D01*
X1250950Y615950D02*
X1266190Y615950D01*
X1266190Y590550D02*
X1250950Y590550D01*
X1250950Y704850D02*
X1266190Y704850D01*
X1266190Y679450D02*
X1250950Y679450D01*
X1250950Y793750D02*
X1266190Y793750D01*
X1266190Y768350D02*
X1250950Y768350D01*
X1250950Y882650D02*
X1266190Y882650D01*
X1266190Y857250D02*
X1250950Y857250D01*
D31*
X885190Y851420D03*
X885190Y916420D03*
D32*
X754070Y1097320D03*
X874070Y1097320D03*
X754070Y975320D03*
X874070Y975320D03*
X814070Y955320D03*
X599130Y1097320D03*
X719130Y1097320D03*
X599130Y975320D03*
X719130Y975320D03*
X659130Y955320D03*
X909010Y1097320D03*
X1029010Y1097320D03*
X909010Y975320D03*
X1029010Y975320D03*
X969010Y955320D03*
X1063950Y1097320D03*
X1183950Y1097320D03*
X1063950Y975320D03*
X1183950Y975320D03*
X1123950Y955320D03*
D33*
X750062Y434340D03*
X750062Y426466D03*
X750062Y418338D03*
X750062Y410464D03*
X750062Y402336D03*
X750062Y394462D03*
X750062Y386334D03*
X750062Y378460D03*
D34*
X764540Y363982D03*
X772414Y363982D03*
X780542Y363982D03*
X788416Y363982D03*
X796544Y363982D03*
X804418Y363982D03*
X812546Y363982D03*
X820420Y363982D03*
D33*
X834898Y378460D03*
X834898Y386334D03*
X834898Y394462D03*
X834898Y402336D03*
X834898Y410464D03*
X834898Y418338D03*
X834898Y426466D03*
X834898Y434340D03*
D34*
X820420Y448818D03*
X812546Y448818D03*
X804418Y448818D03*
X796544Y448818D03*
X788416Y448818D03*
X780542Y448818D03*
X772414Y448818D03*
X764540Y448818D03*
D35*
X504460Y129200D03*
X504460Y135700D03*
X504460Y142200D03*
X504460Y148700D03*
X504460Y155200D03*
X504460Y161700D03*
X504460Y168200D03*
X504460Y181200D03*
X504460Y174700D03*
X504460Y187700D03*
X504460Y194200D03*
X504460Y200700D03*
X504460Y207200D03*
X504460Y213700D03*
X577580Y129200D03*
X577580Y135700D03*
X577580Y142200D03*
X577580Y148700D03*
X577580Y155200D03*
X577580Y161700D03*
X577580Y168200D03*
X577580Y174700D03*
X577580Y181200D03*
X577580Y187700D03*
X577580Y194200D03*
X577580Y200700D03*
X577580Y207200D03*
X577580Y213700D03*
D36*
X237980Y1106000D03*
X237980Y1086000D03*
X237980Y1066000D03*
X237980Y1046000D03*
X237980Y1026000D03*
X237980Y1006000D03*
X237980Y986000D03*
X237980Y966000D03*
X237980Y946000D03*
X237980Y926000D03*
X457980Y926000D03*
X457980Y946000D03*
X457980Y966000D03*
X457980Y986000D03*
X457980Y1006000D03*
X457980Y1026000D03*
X457980Y1046000D03*
X457980Y1066000D03*
X457980Y1086000D03*
X457980Y1106000D03*
D37*
X533400Y549910D03*
X533400Y499110D03*
D38*
X745490Y-8890D02*
X745490Y-34290D01*
X537210Y-34290D02*
X537210Y-8890D01*
X588010Y-8890D02*
X588010Y-34290D01*
X694690Y-34290D02*
X694690Y-8890D01*
D39*
X1258570Y1062990D03*
D40*
X1258570Y1112990D03*
D23*
X184150Y535940D03*
X158750Y548640D03*
X184150Y561340D03*
X184150Y586740D03*
X184150Y612140D03*
X158750Y574040D03*
X158750Y599440D03*
D41*
X158750Y624840D03*
D42*
X95250Y637540D03*
X95250Y523240D03*
D23*
X184150Y695960D03*
X158750Y708660D03*
X184150Y721360D03*
X184150Y746760D03*
X184150Y772160D03*
X158750Y734060D03*
X158750Y759460D03*
D41*
X158750Y784860D03*
D42*
X95250Y797560D03*
X95250Y683260D03*
D23*
X184150Y855980D03*
X158750Y868680D03*
X184150Y881380D03*
X184150Y906780D03*
X184150Y932180D03*
X158750Y894080D03*
X158750Y919480D03*
D41*
X158750Y944880D03*
D42*
X95250Y957580D03*
X95250Y843280D03*
D23*
X184150Y1016000D03*
X158750Y1028700D03*
X184150Y1041400D03*
X184150Y1066800D03*
X184150Y1092200D03*
X158750Y1054100D03*
X158750Y1079500D03*
D41*
X158750Y1104900D03*
D42*
X95250Y1117600D03*
X95250Y1003300D03*
D30*
X228440Y535940D03*
X208440Y535940D03*
D43*
X704088Y850392D03*
X555498Y-57150D03*
X923544Y-52578D03*
X804672Y118872D03*
X484632Y11430D03*
X258318Y11430D03*
X388620Y176022D03*
X406908Y194310D03*
X518922Y201168D03*
X537210Y219456D03*
X539496Y518922D03*
X564642Y544068D03*
X724662Y834390D03*
X1179576Y1053846D03*
X758952Y857250D03*
X240030Y541782D03*
X244602Y896112D03*
X790956Y379476D03*
X672084Y377190D03*
X646938Y402336D03*
X253746Y528066D03*
X736092Y386334D03*
X550926Y829818D03*
X973836Y393192D03*
X797814Y386334D03*
X518922Y180594D03*
X564642Y153162D03*
X336042Y18288D03*
X754380Y486918D03*
X774954Y461772D03*
X726948Y486918D03*
X770382Y434340D03*
X770382Y489204D03*
X786384Y461772D03*
X413766Y-34290D03*
X226314Y-32004D03*
X676656Y395478D03*
X665226Y228600D03*
X658368Y162306D03*
X619506Y123444D03*
X820674Y402336D03*
X928116Y420624D03*
X621792Y850392D03*
X388620Y189738D03*
X121158Y77724D03*
X80010Y107442D03*
X176022Y153162D03*
X498348Y221742D03*
X157734Y109728D03*
X459486Y32004D03*
X429768Y59436D03*
X395478Y68580D03*
X258318Y797814D03*
X267462Y541782D03*
X452628Y25146D03*
X418338Y59436D03*
X402336Y75438D03*
X402336Y214884D03*
X258318Y763524D03*
X258318Y541782D03*
X518922Y166878D03*
X395478Y18288D03*
X518922Y157734D03*
X370332Y18288D03*
X1028700Y486918D03*
X230886Y626364D03*
X848106Y427482D03*
X980694Y473202D03*
X1232154Y16002D03*
X637794Y169164D03*
X619506Y187452D03*
X192024Y324612D03*
X217170Y555498D03*
X841248Y443484D03*
X944118Y475488D03*
X253746Y352044D03*
X464058Y521208D03*
X274320Y342900D03*
X475488Y521208D03*
X875538Y528066D03*
X854964Y489204D03*
X893826Y4572D03*
X672084Y210312D03*
X491490Y228600D03*
X192024Y240030D03*
X166878Y525780D03*
X285750Y342900D03*
X457200Y486918D03*
X610362Y523494D03*
X786384Y418338D03*
X1145286Y2286D03*
X660654Y192024D03*
X644652Y208026D03*
X251460Y331470D03*
X224028Y548640D03*
X125730Y265176D03*
X786384Y523494D03*
X861822Y384048D03*
X237744Y523494D03*
X521208Y534924D03*
X587502Y514350D03*
X1046988Y880110D03*
X230886Y836676D03*
X34290Y480060D03*
X484632Y836676D03*
X818388Y377190D03*
X946404Y354330D03*
X886968Y301752D03*
X875538Y313182D03*
X697230Y486918D03*
X749808Y443484D03*
X752094Y850392D03*
X752094Y836676D03*
X1131570Y971550D03*
X555498Y992124D03*
X41148Y473202D03*
X987552Y692658D03*
X829818Y342900D03*
X404622Y-29718D03*
X841248Y301752D03*
X822960Y322326D03*
X676656Y484632D03*
X763524Y427482D03*
X685800Y850392D03*
X667512Y832104D03*
X665226Y537210D03*
X651510Y523494D03*
X1056132Y358902D03*
X1175004Y720090D03*
X1049274Y377190D03*
X1051560Y864108D03*
X1188720Y697230D03*
X1010412Y338328D03*
X683514Y221742D03*
X646938Y235458D03*
X228600Y365760D03*
X244602Y669798D03*
X297180Y-2286D03*
X836676Y370332D03*
X877824Y370332D03*
X585216Y22860D03*
X893826Y137160D03*
X964692Y315468D03*
X676656Y452628D03*
X736092Y429768D03*
X838962Y850392D03*
X838962Y836676D03*
X740664Y475488D03*
X715518Y450342D03*
X1044702Y459486D03*
X1042416Y571500D03*
X73152Y493776D03*
X130302Y672084D03*
X1008126Y518922D03*
X950976Y461772D03*
X866394Y434340D03*
X678942Y333756D03*
X756666Y358902D03*
X1065276Y907542D03*
X1035558Y459486D03*
X1012698Y457200D03*
X848106Y320040D03*
X710946Y301752D03*
X203454Y235458D03*
X484632Y235458D03*
X678942Y130302D03*
X802386Y109728D03*
X832104Y109728D03*
X1191006Y201168D03*
X772668Y349758D03*
X678942Y868680D03*
X891540Y809244D03*
X813816Y336042D03*
X786384Y331470D03*
X73152Y276606D03*
X644652Y176022D03*
X532638Y187452D03*
X409194Y185166D03*
X265176Y875538D03*
X432054Y541782D03*
X466344Y507492D03*
X530352Y443484D03*
X790956Y208026D03*
X1140714Y251460D03*
X169164Y146304D03*
X169164Y160020D03*
X173736Y397764D03*
X25146Y500634D03*
X802386Y73152D03*
X605790Y73152D03*
X585216Y52578D03*
X434340Y4572D03*
X388620Y61722D03*
X269748Y45720D03*
X809244Y164592D03*
X1097280Y288036D03*
X781812Y347472D03*
X258318Y882396D03*
X416052Y541782D03*
X450342Y507492D03*
X530352Y368046D03*
X544068Y368046D03*
X646938Y363474D03*
X148590Y137160D03*
X148590Y160020D03*
X221742Y816102D03*
X809244Y201168D03*
X182880Y662940D03*
X884682Y137160D03*
X1078992Y306324D03*
X797814Y461772D03*
X980694Y699516D03*
X996696Y715518D03*
X230886Y697230D03*
X598932Y105156D03*
X742950Y530352D03*
X496062Y836676D03*
X491490Y850392D03*
X93726Y921258D03*
X592074Y153162D03*
X653796Y418338D03*
X653796Y214884D03*
X665226Y203454D03*
X258318Y854964D03*
X384048Y541782D03*
X544068Y381762D03*
X854964Y294894D03*
X802386Y347472D03*
X244602Y907542D03*
X512064Y539496D03*
X699516Y237744D03*
X921258Y413766D03*
X848106Y400050D03*
X921258Y464058D03*
X994410Y685800D03*
M02*
