M48
;GenerationSoftware,Autodesk,EAGLE,8.7.1*%
;CreationDate,2018-08-07T05:45:41Z*%
FMAT,2
ICI,OFF
METRIC,TZ,000.000
T11C0.350
T10C0.700
T9C0.800
T8C0.813
T7C1.000
T6C1.016
T5C1.300
T4C1.321
T3C1.500
T2C3.200
T1C3.200
%
G90
M71
T1
X12065Y46228
X12065Y-1016
T2
X9525Y95758
X9525Y84328
X9525Y111760
X9525Y100330
X9525Y63754
X9525Y52324
X9525Y79756
X9525Y68326
T3
X75407Y97532
X87407Y109732
X87407Y97532
X112395Y95532
X118395Y97532
X106395Y97532
X118395Y109732
X106395Y109732
X75407Y109732
X90901Y109732
X102901Y97532
X90901Y97532
X102901Y109732
X65913Y95532
X71913Y97532
X96901Y95532
X59913Y97532
X71913Y109732
X59913Y109732
X81407Y95532
T4
X74549Y-2159
X53721Y-2159
X58801Y-2159
X69469Y-2159
T5
X88519Y85142
X88519Y91642
X125857Y106299
X125857Y111299
T6
X13335Y30988
X21209Y-2159
X13335Y25400
X13335Y22606
X13335Y19812
X13335Y17018
X13335Y11430
X13335Y8636
X13335Y5842
X10795Y37973
X10795Y35179
X10795Y32385
X10795Y29591
X10795Y26797
X10795Y24003
X10795Y21209
X10795Y18415
X10795Y15621
X10795Y12827
X10795Y10033
X10795Y7239
X21209Y381
X23749Y381
X23749Y-2159
X21209Y-4699
X23749Y-4699
X125857Y26035
X125857Y23495
X125857Y34925
X125857Y32385
X125857Y43815
X125857Y41275
X125857Y52705
X125857Y50165
X91948Y-2540
X89408Y-2540
X94488Y-2540
X104013Y-2540
X101473Y-2540
X106553Y-2540
X125857Y14605
X125857Y12065
X125857Y17145
X125857Y3175
X125857Y635
X125857Y5715
X116586Y-2286
X114046Y-2286
X119126Y-2286
X82550Y-2667
X80010Y-2667
X125984Y95250
X125984Y92710
X125984Y97790
X125984Y100330
X125857Y61595
X125857Y59055
X125857Y70485
X125857Y67945
X125857Y79375
X125857Y76835
X125857Y88265
X125857Y85725
X13335Y28194
X13335Y14224
X13335Y39370
X13335Y36576
X13335Y33782
T7
X15875Y91948
X18415Y53594
X15875Y54864
X18415Y56134
X18415Y61214
X15875Y57404
X15875Y59944
X15875Y62484
X18415Y69596
X18415Y58674
X18415Y72136
X15875Y110490
X762Y-5588
X131064Y-5588
X131064Y116586
X762Y116586
X48174Y-2302
X18415Y74676
X18415Y77216
X15875Y73406
X15875Y75946
X15875Y78486
X18415Y85598
X15875Y86868
X18415Y88138
X18415Y90678
X18415Y93218
X15875Y89408
X15875Y94488
X43774Y-2302
X18415Y101600
X15875Y70866
X15875Y102870
X18415Y104140
X18415Y106680
X18415Y109220
X15875Y105410
X15875Y107950
T8
X84582Y26924
X87122Y26924
X79502Y19304
X82042Y19304
X76962Y19304
X74422Y19304
X87122Y19304
X74422Y26924
X84582Y19304
X69342Y19304
X76962Y26924
X79502Y26924
X82042Y26924
X69342Y26924
X71882Y26924
X71882Y19304
T9
X23798Y98600
X23798Y94600
X23798Y92600
X45798Y92600
X45798Y94600
X45798Y96600
X45798Y100600
X45798Y104600
X45798Y106600
X45798Y108600
X45798Y110600
X23798Y110600
X45798Y102600
X45798Y98600
X23798Y108600
X23798Y106600
X23798Y104600
X23798Y102600
X23798Y100600
X23798Y96600
T10
X53340Y49911
X53340Y54991
T11
X79096Y20803
X114071Y25146
X16916Y14630
X16916Y16002
X17374Y39776
X2515Y50063
X80239Y7315
X60579Y7315
X58522Y5258
X43434Y457
X38862Y6172
X26975Y4572
X80924Y16459
X109728Y28804
X78181Y34747
X25832Y88240
X41605Y54178
X45034Y50749
X53035Y36805
X54407Y36805
X64694Y36347
X14859Y13716
X14859Y16002
X22174Y81610
X80924Y20117
X18288Y66294
X25832Y79781
X107899Y30632
X79781Y46177
X98069Y69952
X99670Y71552
X23089Y69723
X59893Y10516
X74295Y53035
X49606Y83668
X49149Y85039
X9373Y92126
X59207Y15316
X65380Y41834
X65380Y21488
X66523Y20345
X25832Y85496
X38405Y54178
X54407Y38176
X85496Y29489
X80239Y34747
X24460Y90754
X51206Y53950
X69952Y23774
X92126Y41377
X84811Y40005
X92126Y46406
X99441Y68580
X70409Y85039
X55550Y-5715
X92354Y-5258
X80467Y11887
X48463Y1143
X25832Y1143
X38862Y17602
X40691Y19431
X51892Y20117
X53721Y21946
X53950Y51892
X56464Y54407
X72466Y83439
X117958Y105385
X75895Y85725
X24003Y54178
X24460Y89611
X79096Y37948
X67208Y37719
X64694Y40234
X25375Y52807
X73609Y38633
X55093Y82982
X97384Y39319
X79781Y38633
X88468Y13716
X51892Y18059
X56464Y15316
X33604Y1829
X75438Y48692
X77495Y46177
X72695Y48692
X77038Y43434
X77038Y48920
X78638Y46177
X41377Y-3429
X22631Y-3200
X67666Y39548
X66523Y22860
X65837Y16231
X61951Y12344
X82067Y40234
X92812Y42062
X62179Y85039
X38862Y18974
X12116Y7772
X8001Y10744
X17602Y15316
X49835Y22174
X15773Y10973
X45949Y3200
X42977Y5944
X39548Y6858
X26746Y54178
X45263Y2515
X41834Y5944
X40234Y7544
X40234Y21488
X25832Y76352
X25832Y54178
X51892Y16688
X39548Y1829
X51892Y15773
X37033Y1829
X102870Y48692
X23089Y62636
X84811Y42748
X98069Y47320
X123215Y1600
X63779Y16916
X61951Y18745
X19202Y32461
X21717Y55550
X84125Y44348
X94412Y47549
X25375Y35204
X46406Y52121
X27432Y34290
X47549Y52121
X87554Y52807
X85496Y48920
X89383Y457
X67208Y21031
X49149Y22860
X19202Y24003
X16688Y52578
X28575Y34290
X45720Y48692
X61036Y52349
X78638Y41834
X114529Y229
X66065Y19202
X64465Y20803
X25146Y33147
X22403Y54864
X12573Y26518
X78638Y52349
X86182Y38405
X23774Y52349
X52121Y53492
X58750Y51435
X104699Y88011
X23089Y83668
X3429Y48006
X48463Y83668
X81839Y37719
X94640Y35433
X88697Y30175
X87554Y31318
X69723Y48692
X74981Y44348
X75209Y85039
X75209Y83668
X113157Y97155
X55550Y99212
X4115Y47320
X98755Y69266
X82982Y34290
X40462Y-2972
X84125Y30175
X82296Y32233
X67666Y48463
X76352Y42748
X68580Y85039
X66751Y83210
X66523Y53721
X65151Y52349
X105613Y35890
X117500Y72009
X67894Y33376
X104927Y37719
X105156Y86411
X118872Y69723
X101041Y33833
X68351Y22174
X64694Y23546
X22860Y36576
X24460Y66980
X29718Y-229
X83668Y37033
X87782Y37033
X58522Y2286
X89383Y13716
X96469Y31547
X67666Y45263
X73609Y42977
X83896Y85039
X83896Y83668
X74066Y47549
X71552Y45034
X104470Y45949
X104242Y57150
X7315Y49378
X13030Y67208
X100813Y51892
X95098Y46177
X86639Y43434
X75667Y35890
X106528Y90754
X103556Y45949
X101270Y45720
X84811Y32004
X71095Y30175
X20345Y23546
X48463Y23546
X67894Y13030
X80239Y10973
X83210Y10973
X119101Y20117
X77267Y34976
X67894Y86868
X89154Y80924
X81382Y33604
X78638Y33147
X7315Y27661
X64465Y17602
X53264Y18745
X40919Y18517
X26518Y87554
X43205Y54178
X46634Y50749
X53035Y44348
M30