%
M48
M72
T01C0.01181
T02C0.01378
T03C0.02756
T04C0.04000
T05C0.05512
T06C0.08661
T07C0.09843
T08C0.11811
%
T01
X98226Y36000
X121150Y26500
X121150Y17500
X157150Y26500
X169150Y19250
X190304Y21500
X203304Y21500
X216304Y21500
X230650Y28654
X225150Y35346
X207650Y41089
X206941Y44470
X209151Y47041
X223410Y44000
X246650Y42000
X245496Y58000
X238804Y58000
X230910Y58500
X223910Y58500
X198150Y61000
X191150Y64180
X185323Y64180
X191769Y67561
X195150Y67561
X198531Y68380
X190150Y75500
X176150Y76846
X193996Y82500
X207150Y82500
X230650Y75500
X245650Y74500
X243150Y70000
X250650Y67500
X230650Y70000
X223650Y70000
X161219Y61000
X161150Y57619
X160650Y54000
X159859Y50500
X158650Y47119
X147150Y40000
X147150Y36619
X157359Y35000
X148041Y58500
X145650Y61000
X132231Y61000
X129441Y64000
X130150Y68500
X127150Y73500
X124650Y76000
X116709Y75997
X114261Y78330
X101150Y80709
X116150Y84111
X98150Y75500
X112150Y70500
X94150Y62500
X157389Y82128
X157249Y85509
X275890Y25500
X248650Y16000
T02
X258650Y17000
X260650Y25260
X219650Y28654
X208650Y28654
X208650Y35346
X203150Y35346
X197650Y35346
X192150Y35346
X186650Y35346
X175650Y35346
X189461Y39811
X198683Y39611
X202261Y39601
X219870Y35220
X182453Y41576
X180650Y51000
X180650Y59500
X201650Y60500
X211625Y61500
X218650Y61500
X216996Y56500
X223410Y51000
X230890Y51000
X210304Y51000
X260650Y47740
X275390Y47606
X260867Y54500
X268150Y67500
X171150Y82500
X160150Y77500
X124650Y58000
X110650Y55000
X121389Y34500
X117650Y33500
X104154Y29331
X124650Y18000
X175650Y28654
X181150Y28654
T03
X286650Y42126
X286650Y50000
X286650Y57480
T04
X229000Y90500
X219000Y90500
X209000Y90500
X199000Y90500
X189000Y90500
X179000Y90500
X169000Y90500
X159000Y90500
X149000Y90500
X139000Y90500
X129000Y90500
X119000Y90500
X92150Y84500
X82150Y84500
X72150Y84500
X62150Y84500
X62150Y74500
X52150Y74500
X72150Y74500
X82150Y74500
X92150Y74500
X92650Y55000
X63150Y55000
X63150Y45000
X92650Y45000
X92650Y24500
X82650Y24500
X72650Y24500
X62650Y24500
X62650Y14500
X72650Y14500
X82650Y14500
X92650Y14500
X119000Y10500
X129000Y10500
X139000Y10500
X149000Y10500
X159000Y10500
X169000Y10500
X179000Y10500
X189000Y10500
X199000Y10500
X209000Y10500
X219000Y10500
X229000Y10500
X239000Y10500
X249000Y10500
X259000Y10500
X269000Y10500
T05
X286650Y31102
X286650Y68898
T06
X45750Y12750
X45750Y88000
T07
X284000Y85500
X284000Y15500
T08
X134863Y46850
M30
