G75*
%MOIN*%
%OFA0B0*%
%FSLAX25Y25*%
%IPPOS*%
%LPD*%
%AMOC8*
5,1,8,0,0,1.08239X$1,22.5*
%
%ADD10C,0.00000*%
%ADD11C,0.00600*%
%ADD12C,0.00500*%
%ADD13C,0.00400*%
%ADD14C,0.02400*%
%ADD15R,0.90000X0.00300*%
%ADD16R,0.27600X0.00300*%
%ADD17R,0.54000X0.00300*%
%ADD18R,0.27000X0.00300*%
%ADD19R,0.52800X0.00300*%
%ADD20R,0.25800X0.00300*%
%ADD21R,0.51300X0.00300*%
%ADD22R,0.24900X0.00300*%
%ADD23R,0.50100X0.00300*%
%ADD24R,0.24300X0.00300*%
%ADD25R,0.49500X0.00300*%
%ADD26R,0.23400X0.00300*%
%ADD27R,0.48300X0.00300*%
%ADD28R,0.22800X0.00300*%
%ADD29R,0.47400X0.00300*%
%ADD30R,0.22200X0.00300*%
%ADD31R,0.46500X0.00300*%
%ADD32R,0.21900X0.00300*%
%ADD33R,0.45900X0.00300*%
%ADD34R,0.21300X0.00300*%
%ADD35R,0.45000X0.00300*%
%ADD36R,0.20700X0.00300*%
%ADD37R,0.44400X0.00300*%
%ADD38R,0.20400X0.00300*%
%ADD39R,0.44100X0.00300*%
%ADD40R,0.20100X0.00300*%
%ADD41R,0.43200X0.00300*%
%ADD42R,0.19500X0.00300*%
%ADD43R,0.42600X0.00300*%
%ADD44R,0.06300X0.00300*%
%ADD45R,0.42300X0.00300*%
%ADD46R,0.18900X0.00300*%
%ADD47R,0.08700X0.00300*%
%ADD48R,0.41700X0.00300*%
%ADD49R,0.18600X0.00300*%
%ADD50R,0.12000X0.00300*%
%ADD51R,0.03900X0.00300*%
%ADD52R,0.36300X0.00300*%
%ADD53R,0.18300X0.00300*%
%ADD54R,0.14700X0.00300*%
%ADD55R,0.03000X0.00300*%
%ADD56R,0.36000X0.00300*%
%ADD57R,0.18000X0.00300*%
%ADD58R,0.16500X0.00300*%
%ADD59R,0.02700X0.00300*%
%ADD60R,0.35400X0.00300*%
%ADD61R,0.00900X0.00300*%
%ADD62R,0.17400X0.00300*%
%ADD63R,0.00600X0.00300*%
%ADD64R,0.35100X0.00300*%
%ADD65R,0.01500X0.00300*%
%ADD66R,0.17700X0.00300*%
%ADD67R,0.00300X0.00300*%
%ADD68R,0.34200X0.00300*%
%ADD69R,0.01800X0.00300*%
%ADD70R,0.02100X0.00300*%
%ADD71R,0.21000X0.00300*%
%ADD72R,0.33600X0.00300*%
%ADD73R,0.17100X0.00300*%
%ADD74R,0.16800X0.00300*%
%ADD75R,0.01200X0.00300*%
%ADD76R,0.22500X0.00300*%
%ADD77R,0.23700X0.00300*%
%ADD78R,0.24000X0.00300*%
%ADD79R,0.16200X0.00300*%
%ADD80R,0.33300X0.00300*%
%ADD81R,0.32700X0.00300*%
%ADD82R,0.32100X0.00300*%
%ADD83R,0.15900X0.00300*%
%ADD84R,0.31800X0.00300*%
%ADD85R,0.25500X0.00300*%
%ADD86R,0.31200X0.00300*%
%ADD87R,0.30900X0.00300*%
%ADD88R,0.03300X0.00300*%
%ADD89R,0.26700X0.00300*%
%ADD90R,0.30300X0.00300*%
%ADD91R,0.02400X0.00300*%
%ADD92R,0.03600X0.00300*%
%ADD93R,0.27300X0.00300*%
%ADD94R,0.30000X0.00300*%
%ADD95R,0.15600X0.00300*%
%ADD96R,0.27900X0.00300*%
%ADD97R,0.29400X0.00300*%
%ADD98R,0.28800X0.00300*%
%ADD99R,0.29100X0.00300*%
%ADD100R,0.32400X0.00300*%
%ADD101R,0.28500X0.00300*%
%ADD102R,0.33000X0.00300*%
%ADD103R,0.33900X0.00300*%
%ADD104R,0.34800X0.00300*%
%ADD105R,0.26400X0.00300*%
%ADD106R,0.36900X0.00300*%
%ADD107R,0.24600X0.00300*%
%ADD108R,0.37500X0.00300*%
%ADD109R,0.38400X0.00300*%
%ADD110R,0.38700X0.00300*%
%ADD111R,0.39300X0.00300*%
%ADD112R,0.39900X0.00300*%
%ADD113R,0.40200X0.00300*%
%ADD114R,0.21600X0.00300*%
%ADD115R,0.40800X0.00300*%
%ADD116R,0.41400X0.00300*%
%ADD117R,0.19800X0.00300*%
%ADD118R,0.42900X0.00300*%
%ADD119R,0.43500X0.00300*%
%ADD120R,0.19200X0.00300*%
%ADD121R,0.43800X0.00300*%
%ADD122R,0.45300X0.00300*%
%ADD123R,0.46800X0.00300*%
%ADD124R,0.47700X0.00300*%
%ADD125R,0.48000X0.00300*%
%ADD126R,0.49200X0.00300*%
%ADD127R,0.66900X0.00300*%
%ADD128R,0.66600X0.00300*%
%ADD129R,0.66300X0.00300*%
%ADD130R,0.66000X0.00300*%
%ADD131R,0.23100X0.00300*%
%ADD132R,0.42000X0.00300*%
%ADD133R,0.41100X0.00300*%
%ADD134R,0.39000X0.00300*%
%ADD135R,0.38100X0.00300*%
%ADD136R,0.05700X0.00300*%
%ADD137R,0.06900X0.00300*%
%ADD138R,0.10800X0.00300*%
%ADD139R,0.05100X0.00300*%
%ADD140R,0.06600X0.00300*%
%ADD141R,0.12600X0.00300*%
%ADD142R,0.04200X0.00300*%
%ADD143R,0.05400X0.00300*%
%ADD144R,0.06000X0.00300*%
%ADD145R,0.10500X0.00300*%
%ADD146R,0.13200X0.00300*%
%ADD147R,0.04800X0.00300*%
%ADD148R,0.09900X0.00300*%
%ADD149R,0.13800X0.00300*%
%ADD150R,0.14100X0.00300*%
%ADD151R,0.04500X0.00300*%
%ADD152R,0.15000X0.00300*%
%ADD153R,0.09300X0.00300*%
%ADD154R,0.09000X0.00300*%
%ADD155R,0.15300X0.00300*%
%ADD156R,0.08400X0.00300*%
%ADD157R,0.08100X0.00300*%
%ADD158R,0.07500X0.00300*%
%ADD159R,0.07200X0.00300*%
%ADD160R,0.07800X0.00300*%
%ADD161R,0.10200X0.00300*%
%ADD162R,0.09600X0.00300*%
%ADD163R,0.14400X0.00300*%
%ADD164R,0.11100X0.00300*%
%ADD165R,0.11700X0.00300*%
%ADD166R,0.12300X0.00300*%
%ADD167R,0.13500X0.00300*%
%ADD168R,0.12900X0.00300*%
%ADD169R,0.11400X0.00300*%
%ADD170R,0.51600X0.00300*%
%ADD171R,0.51000X0.00300*%
%ADD172R,0.50700X0.00300*%
%ADD173R,0.34500X0.00300*%
%ADD174R,0.50400X0.00300*%
%ADD175R,0.49800X0.00300*%
%ADD176R,0.35700X0.00300*%
%ADD177R,0.48600X0.00300*%
%ADD178R,0.37200X0.00300*%
%ADD179R,0.37800X0.00300*%
%ADD180R,0.47100X0.00300*%
%ADD181R,0.46200X0.00300*%
%ADD182R,0.45600X0.00300*%
%ADD183R,0.40500X0.00300*%
%ADD184R,0.44700X0.00300*%
%ADD185R,0.48900X0.00300*%
%ADD186R,0.52200X0.00300*%
%ADD187R,0.52500X0.00300*%
%ADD188R,0.53700X0.00300*%
%ADD189R,0.54300X0.00300*%
%ADD190R,0.54600X0.00300*%
%ADD191R,0.55200X0.00300*%
%ADD192R,0.55800X0.00300*%
%ADD193R,0.56400X0.00300*%
%ADD194R,0.56700X0.00300*%
%ADD195R,0.57600X0.00300*%
%ADD196R,0.30600X0.00300*%
%ADD197R,0.58200X0.00300*%
%ADD198R,0.58500X0.00300*%
%ADD199R,0.29700X0.00300*%
%ADD200R,0.59400X0.00300*%
%ADD201R,0.60000X0.00300*%
%ADD202R,0.60600X0.00300*%
%ADD203R,0.28200X0.00300*%
%ADD204R,0.60900X0.00300*%
%ADD205R,0.61800X0.00300*%
%ADD206R,0.62400X0.00300*%
%ADD207R,0.63000X0.00300*%
%ADD208R,0.26100X0.00300*%
%ADD209R,0.63600X0.00300*%
%ADD210C,0.00200*%
%ADD211C,0.00700*%
%ADD212R,0.03000X0.02500*%
%ADD213R,0.05000X0.11000*%
D10*
X0073800Y0108800D02*
X0073805Y0109168D01*
X0073818Y0109536D01*
X0073841Y0109903D01*
X0073872Y0110270D01*
X0073913Y0110636D01*
X0073962Y0111001D01*
X0074021Y0111364D01*
X0074088Y0111726D01*
X0074164Y0112087D01*
X0074250Y0112445D01*
X0074343Y0112801D01*
X0074446Y0113154D01*
X0074557Y0113505D01*
X0074677Y0113853D01*
X0074805Y0114198D01*
X0074942Y0114540D01*
X0075087Y0114879D01*
X0075240Y0115213D01*
X0075402Y0115544D01*
X0075571Y0115871D01*
X0075749Y0116193D01*
X0075934Y0116512D01*
X0076127Y0116825D01*
X0076328Y0117134D01*
X0076536Y0117437D01*
X0076752Y0117735D01*
X0076975Y0118028D01*
X0077205Y0118316D01*
X0077442Y0118598D01*
X0077686Y0118873D01*
X0077936Y0119143D01*
X0078193Y0119407D01*
X0078457Y0119664D01*
X0078727Y0119914D01*
X0079002Y0120158D01*
X0079284Y0120395D01*
X0079572Y0120625D01*
X0079865Y0120848D01*
X0080163Y0121064D01*
X0080466Y0121272D01*
X0080775Y0121473D01*
X0081088Y0121666D01*
X0081407Y0121851D01*
X0081729Y0122029D01*
X0082056Y0122198D01*
X0082387Y0122360D01*
X0082721Y0122513D01*
X0083060Y0122658D01*
X0083402Y0122795D01*
X0083747Y0122923D01*
X0084095Y0123043D01*
X0084446Y0123154D01*
X0084799Y0123257D01*
X0085155Y0123350D01*
X0085513Y0123436D01*
X0085874Y0123512D01*
X0086236Y0123579D01*
X0086599Y0123638D01*
X0086964Y0123687D01*
X0087330Y0123728D01*
X0087697Y0123759D01*
X0088064Y0123782D01*
X0088432Y0123795D01*
X0088800Y0123800D01*
X0089168Y0123795D01*
X0089536Y0123782D01*
X0089903Y0123759D01*
X0090270Y0123728D01*
X0090636Y0123687D01*
X0091001Y0123638D01*
X0091364Y0123579D01*
X0091726Y0123512D01*
X0092087Y0123436D01*
X0092445Y0123350D01*
X0092801Y0123257D01*
X0093154Y0123154D01*
X0093505Y0123043D01*
X0093853Y0122923D01*
X0094198Y0122795D01*
X0094540Y0122658D01*
X0094879Y0122513D01*
X0095213Y0122360D01*
X0095544Y0122198D01*
X0095871Y0122029D01*
X0096193Y0121851D01*
X0096512Y0121666D01*
X0096825Y0121473D01*
X0097134Y0121272D01*
X0097437Y0121064D01*
X0097735Y0120848D01*
X0098028Y0120625D01*
X0098316Y0120395D01*
X0098598Y0120158D01*
X0098873Y0119914D01*
X0099143Y0119664D01*
X0099407Y0119407D01*
X0099664Y0119143D01*
X0099914Y0118873D01*
X0100158Y0118598D01*
X0100395Y0118316D01*
X0100625Y0118028D01*
X0100848Y0117735D01*
X0101064Y0117437D01*
X0101272Y0117134D01*
X0101473Y0116825D01*
X0101666Y0116512D01*
X0101851Y0116193D01*
X0102029Y0115871D01*
X0102198Y0115544D01*
X0102360Y0115213D01*
X0102513Y0114879D01*
X0102658Y0114540D01*
X0102795Y0114198D01*
X0102923Y0113853D01*
X0103043Y0113505D01*
X0103154Y0113154D01*
X0103257Y0112801D01*
X0103350Y0112445D01*
X0103436Y0112087D01*
X0103512Y0111726D01*
X0103579Y0111364D01*
X0103638Y0111001D01*
X0103687Y0110636D01*
X0103728Y0110270D01*
X0103759Y0109903D01*
X0103782Y0109536D01*
X0103795Y0109168D01*
X0103800Y0108800D01*
X0103795Y0108432D01*
X0103782Y0108064D01*
X0103759Y0107697D01*
X0103728Y0107330D01*
X0103687Y0106964D01*
X0103638Y0106599D01*
X0103579Y0106236D01*
X0103512Y0105874D01*
X0103436Y0105513D01*
X0103350Y0105155D01*
X0103257Y0104799D01*
X0103154Y0104446D01*
X0103043Y0104095D01*
X0102923Y0103747D01*
X0102795Y0103402D01*
X0102658Y0103060D01*
X0102513Y0102721D01*
X0102360Y0102387D01*
X0102198Y0102056D01*
X0102029Y0101729D01*
X0101851Y0101407D01*
X0101666Y0101088D01*
X0101473Y0100775D01*
X0101272Y0100466D01*
X0101064Y0100163D01*
X0100848Y0099865D01*
X0100625Y0099572D01*
X0100395Y0099284D01*
X0100158Y0099002D01*
X0099914Y0098727D01*
X0099664Y0098457D01*
X0099407Y0098193D01*
X0099143Y0097936D01*
X0098873Y0097686D01*
X0098598Y0097442D01*
X0098316Y0097205D01*
X0098028Y0096975D01*
X0097735Y0096752D01*
X0097437Y0096536D01*
X0097134Y0096328D01*
X0096825Y0096127D01*
X0096512Y0095934D01*
X0096193Y0095749D01*
X0095871Y0095571D01*
X0095544Y0095402D01*
X0095213Y0095240D01*
X0094879Y0095087D01*
X0094540Y0094942D01*
X0094198Y0094805D01*
X0093853Y0094677D01*
X0093505Y0094557D01*
X0093154Y0094446D01*
X0092801Y0094343D01*
X0092445Y0094250D01*
X0092087Y0094164D01*
X0091726Y0094088D01*
X0091364Y0094021D01*
X0091001Y0093962D01*
X0090636Y0093913D01*
X0090270Y0093872D01*
X0089903Y0093841D01*
X0089536Y0093818D01*
X0089168Y0093805D01*
X0088800Y0093800D01*
X0088432Y0093805D01*
X0088064Y0093818D01*
X0087697Y0093841D01*
X0087330Y0093872D01*
X0086964Y0093913D01*
X0086599Y0093962D01*
X0086236Y0094021D01*
X0085874Y0094088D01*
X0085513Y0094164D01*
X0085155Y0094250D01*
X0084799Y0094343D01*
X0084446Y0094446D01*
X0084095Y0094557D01*
X0083747Y0094677D01*
X0083402Y0094805D01*
X0083060Y0094942D01*
X0082721Y0095087D01*
X0082387Y0095240D01*
X0082056Y0095402D01*
X0081729Y0095571D01*
X0081407Y0095749D01*
X0081088Y0095934D01*
X0080775Y0096127D01*
X0080466Y0096328D01*
X0080163Y0096536D01*
X0079865Y0096752D01*
X0079572Y0096975D01*
X0079284Y0097205D01*
X0079002Y0097442D01*
X0078727Y0097686D01*
X0078457Y0097936D01*
X0078193Y0098193D01*
X0077936Y0098457D01*
X0077686Y0098727D01*
X0077442Y0099002D01*
X0077205Y0099284D01*
X0076975Y0099572D01*
X0076752Y0099865D01*
X0076536Y0100163D01*
X0076328Y0100466D01*
X0076127Y0100775D01*
X0075934Y0101088D01*
X0075749Y0101407D01*
X0075571Y0101729D01*
X0075402Y0102056D01*
X0075240Y0102387D01*
X0075087Y0102721D01*
X0074942Y0103060D01*
X0074805Y0103402D01*
X0074677Y0103747D01*
X0074557Y0104095D01*
X0074446Y0104446D01*
X0074343Y0104799D01*
X0074250Y0105155D01*
X0074164Y0105513D01*
X0074088Y0105874D01*
X0074021Y0106236D01*
X0073962Y0106599D01*
X0073913Y0106964D01*
X0073872Y0107330D01*
X0073841Y0107697D01*
X0073818Y0108064D01*
X0073805Y0108432D01*
X0073800Y0108800D01*
X0026300Y0181300D02*
X0026304Y0181607D01*
X0026315Y0181913D01*
X0026334Y0182220D01*
X0026360Y0182525D01*
X0026394Y0182830D01*
X0026435Y0183134D01*
X0026484Y0183437D01*
X0026540Y0183739D01*
X0026604Y0184039D01*
X0026675Y0184337D01*
X0026753Y0184634D01*
X0026838Y0184929D01*
X0026931Y0185221D01*
X0027031Y0185511D01*
X0027138Y0185799D01*
X0027252Y0186084D01*
X0027372Y0186366D01*
X0027500Y0186644D01*
X0027635Y0186920D01*
X0027776Y0187192D01*
X0027924Y0187461D01*
X0028078Y0187726D01*
X0028239Y0187987D01*
X0028407Y0188245D01*
X0028580Y0188498D01*
X0028760Y0188746D01*
X0028946Y0188990D01*
X0029137Y0189230D01*
X0029335Y0189465D01*
X0029538Y0189694D01*
X0029747Y0189919D01*
X0029961Y0190139D01*
X0030181Y0190353D01*
X0030406Y0190562D01*
X0030635Y0190765D01*
X0030870Y0190963D01*
X0031110Y0191154D01*
X0031354Y0191340D01*
X0031602Y0191520D01*
X0031855Y0191693D01*
X0032113Y0191861D01*
X0032374Y0192022D01*
X0032639Y0192176D01*
X0032908Y0192324D01*
X0033180Y0192465D01*
X0033456Y0192600D01*
X0033734Y0192728D01*
X0034016Y0192848D01*
X0034301Y0192962D01*
X0034589Y0193069D01*
X0034879Y0193169D01*
X0035171Y0193262D01*
X0035466Y0193347D01*
X0035763Y0193425D01*
X0036061Y0193496D01*
X0036361Y0193560D01*
X0036663Y0193616D01*
X0036966Y0193665D01*
X0037270Y0193706D01*
X0037575Y0193740D01*
X0037880Y0193766D01*
X0038187Y0193785D01*
X0038493Y0193796D01*
X0038800Y0193800D01*
X0039107Y0193796D01*
X0039413Y0193785D01*
X0039720Y0193766D01*
X0040025Y0193740D01*
X0040330Y0193706D01*
X0040634Y0193665D01*
X0040937Y0193616D01*
X0041239Y0193560D01*
X0041539Y0193496D01*
X0041837Y0193425D01*
X0042134Y0193347D01*
X0042429Y0193262D01*
X0042721Y0193169D01*
X0043011Y0193069D01*
X0043299Y0192962D01*
X0043584Y0192848D01*
X0043866Y0192728D01*
X0044144Y0192600D01*
X0044420Y0192465D01*
X0044692Y0192324D01*
X0044961Y0192176D01*
X0045226Y0192022D01*
X0045487Y0191861D01*
X0045745Y0191693D01*
X0045998Y0191520D01*
X0046246Y0191340D01*
X0046490Y0191154D01*
X0046730Y0190963D01*
X0046965Y0190765D01*
X0047194Y0190562D01*
X0047419Y0190353D01*
X0047639Y0190139D01*
X0047853Y0189919D01*
X0048062Y0189694D01*
X0048265Y0189465D01*
X0048463Y0189230D01*
X0048654Y0188990D01*
X0048840Y0188746D01*
X0049020Y0188498D01*
X0049193Y0188245D01*
X0049361Y0187987D01*
X0049522Y0187726D01*
X0049676Y0187461D01*
X0049824Y0187192D01*
X0049965Y0186920D01*
X0050100Y0186644D01*
X0050228Y0186366D01*
X0050348Y0186084D01*
X0050462Y0185799D01*
X0050569Y0185511D01*
X0050669Y0185221D01*
X0050762Y0184929D01*
X0050847Y0184634D01*
X0050925Y0184337D01*
X0050996Y0184039D01*
X0051060Y0183739D01*
X0051116Y0183437D01*
X0051165Y0183134D01*
X0051206Y0182830D01*
X0051240Y0182525D01*
X0051266Y0182220D01*
X0051285Y0181913D01*
X0051296Y0181607D01*
X0051300Y0181300D01*
X0051296Y0180993D01*
X0051285Y0180687D01*
X0051266Y0180380D01*
X0051240Y0180075D01*
X0051206Y0179770D01*
X0051165Y0179466D01*
X0051116Y0179163D01*
X0051060Y0178861D01*
X0050996Y0178561D01*
X0050925Y0178263D01*
X0050847Y0177966D01*
X0050762Y0177671D01*
X0050669Y0177379D01*
X0050569Y0177089D01*
X0050462Y0176801D01*
X0050348Y0176516D01*
X0050228Y0176234D01*
X0050100Y0175956D01*
X0049965Y0175680D01*
X0049824Y0175408D01*
X0049676Y0175139D01*
X0049522Y0174874D01*
X0049361Y0174613D01*
X0049193Y0174355D01*
X0049020Y0174102D01*
X0048840Y0173854D01*
X0048654Y0173610D01*
X0048463Y0173370D01*
X0048265Y0173135D01*
X0048062Y0172906D01*
X0047853Y0172681D01*
X0047639Y0172461D01*
X0047419Y0172247D01*
X0047194Y0172038D01*
X0046965Y0171835D01*
X0046730Y0171637D01*
X0046490Y0171446D01*
X0046246Y0171260D01*
X0045998Y0171080D01*
X0045745Y0170907D01*
X0045487Y0170739D01*
X0045226Y0170578D01*
X0044961Y0170424D01*
X0044692Y0170276D01*
X0044420Y0170135D01*
X0044144Y0170000D01*
X0043866Y0169872D01*
X0043584Y0169752D01*
X0043299Y0169638D01*
X0043011Y0169531D01*
X0042721Y0169431D01*
X0042429Y0169338D01*
X0042134Y0169253D01*
X0041837Y0169175D01*
X0041539Y0169104D01*
X0041239Y0169040D01*
X0040937Y0168984D01*
X0040634Y0168935D01*
X0040330Y0168894D01*
X0040025Y0168860D01*
X0039720Y0168834D01*
X0039413Y0168815D01*
X0039107Y0168804D01*
X0038800Y0168800D01*
X0038493Y0168804D01*
X0038187Y0168815D01*
X0037880Y0168834D01*
X0037575Y0168860D01*
X0037270Y0168894D01*
X0036966Y0168935D01*
X0036663Y0168984D01*
X0036361Y0169040D01*
X0036061Y0169104D01*
X0035763Y0169175D01*
X0035466Y0169253D01*
X0035171Y0169338D01*
X0034879Y0169431D01*
X0034589Y0169531D01*
X0034301Y0169638D01*
X0034016Y0169752D01*
X0033734Y0169872D01*
X0033456Y0170000D01*
X0033180Y0170135D01*
X0032908Y0170276D01*
X0032639Y0170424D01*
X0032374Y0170578D01*
X0032113Y0170739D01*
X0031855Y0170907D01*
X0031602Y0171080D01*
X0031354Y0171260D01*
X0031110Y0171446D01*
X0030870Y0171637D01*
X0030635Y0171835D01*
X0030406Y0172038D01*
X0030181Y0172247D01*
X0029961Y0172461D01*
X0029747Y0172681D01*
X0029538Y0172906D01*
X0029335Y0173135D01*
X0029137Y0173370D01*
X0028946Y0173610D01*
X0028760Y0173854D01*
X0028580Y0174102D01*
X0028407Y0174355D01*
X0028239Y0174613D01*
X0028078Y0174874D01*
X0027924Y0175139D01*
X0027776Y0175408D01*
X0027635Y0175680D01*
X0027500Y0175956D01*
X0027372Y0176234D01*
X0027252Y0176516D01*
X0027138Y0176801D01*
X0027031Y0177089D01*
X0026931Y0177379D01*
X0026838Y0177671D01*
X0026753Y0177966D01*
X0026675Y0178263D01*
X0026604Y0178561D01*
X0026540Y0178861D01*
X0026484Y0179163D01*
X0026435Y0179466D01*
X0026394Y0179770D01*
X0026360Y0180075D01*
X0026334Y0180380D01*
X0026315Y0180687D01*
X0026304Y0180993D01*
X0026300Y0181300D01*
X0081300Y0264300D02*
X0081300Y0272300D01*
X0077300Y0268300D02*
X0085300Y0268300D01*
X0074800Y0287300D02*
X0074802Y0287461D01*
X0074808Y0287621D01*
X0074818Y0287782D01*
X0074832Y0287942D01*
X0074850Y0288102D01*
X0074871Y0288261D01*
X0074897Y0288420D01*
X0074927Y0288578D01*
X0074960Y0288735D01*
X0074998Y0288892D01*
X0075039Y0289047D01*
X0075084Y0289201D01*
X0075133Y0289354D01*
X0075186Y0289506D01*
X0075242Y0289657D01*
X0075303Y0289806D01*
X0075366Y0289954D01*
X0075434Y0290100D01*
X0075505Y0290244D01*
X0075579Y0290386D01*
X0075657Y0290527D01*
X0075739Y0290665D01*
X0075824Y0290802D01*
X0075912Y0290936D01*
X0076004Y0291068D01*
X0076099Y0291198D01*
X0076197Y0291326D01*
X0076298Y0291451D01*
X0076402Y0291573D01*
X0076509Y0291693D01*
X0076619Y0291810D01*
X0076732Y0291925D01*
X0076848Y0292036D01*
X0076967Y0292145D01*
X0077088Y0292250D01*
X0077212Y0292353D01*
X0077338Y0292453D01*
X0077466Y0292549D01*
X0077597Y0292642D01*
X0077731Y0292732D01*
X0077866Y0292819D01*
X0078004Y0292902D01*
X0078143Y0292982D01*
X0078285Y0293058D01*
X0078428Y0293131D01*
X0078573Y0293200D01*
X0078720Y0293266D01*
X0078868Y0293328D01*
X0079018Y0293386D01*
X0079169Y0293441D01*
X0079322Y0293492D01*
X0079476Y0293539D01*
X0079631Y0293582D01*
X0079787Y0293621D01*
X0079943Y0293657D01*
X0080101Y0293688D01*
X0080259Y0293716D01*
X0080418Y0293740D01*
X0080578Y0293760D01*
X0080738Y0293776D01*
X0080898Y0293788D01*
X0081059Y0293796D01*
X0081220Y0293800D01*
X0081380Y0293800D01*
X0081541Y0293796D01*
X0081702Y0293788D01*
X0081862Y0293776D01*
X0082022Y0293760D01*
X0082182Y0293740D01*
X0082341Y0293716D01*
X0082499Y0293688D01*
X0082657Y0293657D01*
X0082813Y0293621D01*
X0082969Y0293582D01*
X0083124Y0293539D01*
X0083278Y0293492D01*
X0083431Y0293441D01*
X0083582Y0293386D01*
X0083732Y0293328D01*
X0083880Y0293266D01*
X0084027Y0293200D01*
X0084172Y0293131D01*
X0084315Y0293058D01*
X0084457Y0292982D01*
X0084596Y0292902D01*
X0084734Y0292819D01*
X0084869Y0292732D01*
X0085003Y0292642D01*
X0085134Y0292549D01*
X0085262Y0292453D01*
X0085388Y0292353D01*
X0085512Y0292250D01*
X0085633Y0292145D01*
X0085752Y0292036D01*
X0085868Y0291925D01*
X0085981Y0291810D01*
X0086091Y0291693D01*
X0086198Y0291573D01*
X0086302Y0291451D01*
X0086403Y0291326D01*
X0086501Y0291198D01*
X0086596Y0291068D01*
X0086688Y0290936D01*
X0086776Y0290802D01*
X0086861Y0290665D01*
X0086943Y0290527D01*
X0087021Y0290386D01*
X0087095Y0290244D01*
X0087166Y0290100D01*
X0087234Y0289954D01*
X0087297Y0289806D01*
X0087358Y0289657D01*
X0087414Y0289506D01*
X0087467Y0289354D01*
X0087516Y0289201D01*
X0087561Y0289047D01*
X0087602Y0288892D01*
X0087640Y0288735D01*
X0087673Y0288578D01*
X0087703Y0288420D01*
X0087729Y0288261D01*
X0087750Y0288102D01*
X0087768Y0287942D01*
X0087782Y0287782D01*
X0087792Y0287621D01*
X0087798Y0287461D01*
X0087800Y0287300D01*
X0087798Y0287139D01*
X0087792Y0286979D01*
X0087782Y0286818D01*
X0087768Y0286658D01*
X0087750Y0286498D01*
X0087729Y0286339D01*
X0087703Y0286180D01*
X0087673Y0286022D01*
X0087640Y0285865D01*
X0087602Y0285708D01*
X0087561Y0285553D01*
X0087516Y0285399D01*
X0087467Y0285246D01*
X0087414Y0285094D01*
X0087358Y0284943D01*
X0087297Y0284794D01*
X0087234Y0284646D01*
X0087166Y0284500D01*
X0087095Y0284356D01*
X0087021Y0284214D01*
X0086943Y0284073D01*
X0086861Y0283935D01*
X0086776Y0283798D01*
X0086688Y0283664D01*
X0086596Y0283532D01*
X0086501Y0283402D01*
X0086403Y0283274D01*
X0086302Y0283149D01*
X0086198Y0283027D01*
X0086091Y0282907D01*
X0085981Y0282790D01*
X0085868Y0282675D01*
X0085752Y0282564D01*
X0085633Y0282455D01*
X0085512Y0282350D01*
X0085388Y0282247D01*
X0085262Y0282147D01*
X0085134Y0282051D01*
X0085003Y0281958D01*
X0084869Y0281868D01*
X0084734Y0281781D01*
X0084596Y0281698D01*
X0084457Y0281618D01*
X0084315Y0281542D01*
X0084172Y0281469D01*
X0084027Y0281400D01*
X0083880Y0281334D01*
X0083732Y0281272D01*
X0083582Y0281214D01*
X0083431Y0281159D01*
X0083278Y0281108D01*
X0083124Y0281061D01*
X0082969Y0281018D01*
X0082813Y0280979D01*
X0082657Y0280943D01*
X0082499Y0280912D01*
X0082341Y0280884D01*
X0082182Y0280860D01*
X0082022Y0280840D01*
X0081862Y0280824D01*
X0081702Y0280812D01*
X0081541Y0280804D01*
X0081380Y0280800D01*
X0081220Y0280800D01*
X0081059Y0280804D01*
X0080898Y0280812D01*
X0080738Y0280824D01*
X0080578Y0280840D01*
X0080418Y0280860D01*
X0080259Y0280884D01*
X0080101Y0280912D01*
X0079943Y0280943D01*
X0079787Y0280979D01*
X0079631Y0281018D01*
X0079476Y0281061D01*
X0079322Y0281108D01*
X0079169Y0281159D01*
X0079018Y0281214D01*
X0078868Y0281272D01*
X0078720Y0281334D01*
X0078573Y0281400D01*
X0078428Y0281469D01*
X0078285Y0281542D01*
X0078143Y0281618D01*
X0078004Y0281698D01*
X0077866Y0281781D01*
X0077731Y0281868D01*
X0077597Y0281958D01*
X0077466Y0282051D01*
X0077338Y0282147D01*
X0077212Y0282247D01*
X0077088Y0282350D01*
X0076967Y0282455D01*
X0076848Y0282564D01*
X0076732Y0282675D01*
X0076619Y0282790D01*
X0076509Y0282907D01*
X0076402Y0283027D01*
X0076298Y0283149D01*
X0076197Y0283274D01*
X0076099Y0283402D01*
X0076004Y0283532D01*
X0075912Y0283664D01*
X0075824Y0283798D01*
X0075739Y0283935D01*
X0075657Y0284073D01*
X0075579Y0284214D01*
X0075505Y0284356D01*
X0075434Y0284500D01*
X0075366Y0284646D01*
X0075303Y0284794D01*
X0075242Y0284943D01*
X0075186Y0285094D01*
X0075133Y0285246D01*
X0075084Y0285399D01*
X0075039Y0285553D01*
X0074998Y0285708D01*
X0074960Y0285865D01*
X0074927Y0286022D01*
X0074897Y0286180D01*
X0074871Y0286339D01*
X0074850Y0286498D01*
X0074832Y0286658D01*
X0074818Y0286818D01*
X0074808Y0286979D01*
X0074802Y0287139D01*
X0074800Y0287300D01*
X0123800Y0252800D02*
X0123802Y0252941D01*
X0123808Y0253082D01*
X0123818Y0253222D01*
X0123832Y0253362D01*
X0123850Y0253502D01*
X0123871Y0253641D01*
X0123897Y0253780D01*
X0123926Y0253918D01*
X0123960Y0254054D01*
X0123997Y0254190D01*
X0124038Y0254325D01*
X0124083Y0254459D01*
X0124132Y0254591D01*
X0124184Y0254722D01*
X0124240Y0254851D01*
X0124300Y0254978D01*
X0124363Y0255104D01*
X0124429Y0255228D01*
X0124500Y0255351D01*
X0124573Y0255471D01*
X0124650Y0255589D01*
X0124730Y0255705D01*
X0124814Y0255818D01*
X0124900Y0255929D01*
X0124990Y0256038D01*
X0125083Y0256144D01*
X0125178Y0256247D01*
X0125277Y0256348D01*
X0125378Y0256446D01*
X0125482Y0256541D01*
X0125589Y0256633D01*
X0125698Y0256722D01*
X0125810Y0256807D01*
X0125924Y0256890D01*
X0126040Y0256970D01*
X0126159Y0257046D01*
X0126280Y0257118D01*
X0126402Y0257188D01*
X0126527Y0257253D01*
X0126653Y0257316D01*
X0126781Y0257374D01*
X0126911Y0257429D01*
X0127042Y0257481D01*
X0127175Y0257528D01*
X0127309Y0257572D01*
X0127444Y0257613D01*
X0127580Y0257649D01*
X0127717Y0257681D01*
X0127855Y0257710D01*
X0127993Y0257735D01*
X0128133Y0257755D01*
X0128273Y0257772D01*
X0128413Y0257785D01*
X0128554Y0257794D01*
X0128694Y0257799D01*
X0128835Y0257800D01*
X0128976Y0257797D01*
X0129117Y0257790D01*
X0129257Y0257779D01*
X0129397Y0257764D01*
X0129537Y0257745D01*
X0129676Y0257723D01*
X0129814Y0257696D01*
X0129952Y0257666D01*
X0130088Y0257631D01*
X0130224Y0257593D01*
X0130358Y0257551D01*
X0130492Y0257505D01*
X0130624Y0257456D01*
X0130754Y0257402D01*
X0130883Y0257345D01*
X0131010Y0257285D01*
X0131136Y0257221D01*
X0131259Y0257153D01*
X0131381Y0257082D01*
X0131501Y0257008D01*
X0131618Y0256930D01*
X0131733Y0256849D01*
X0131846Y0256765D01*
X0131957Y0256678D01*
X0132065Y0256587D01*
X0132170Y0256494D01*
X0132273Y0256397D01*
X0132373Y0256298D01*
X0132470Y0256196D01*
X0132564Y0256091D01*
X0132655Y0255984D01*
X0132743Y0255874D01*
X0132828Y0255762D01*
X0132910Y0255647D01*
X0132989Y0255530D01*
X0133064Y0255411D01*
X0133136Y0255290D01*
X0133204Y0255167D01*
X0133269Y0255042D01*
X0133331Y0254915D01*
X0133388Y0254786D01*
X0133443Y0254656D01*
X0133493Y0254525D01*
X0133540Y0254392D01*
X0133583Y0254258D01*
X0133622Y0254122D01*
X0133657Y0253986D01*
X0133689Y0253849D01*
X0133716Y0253711D01*
X0133740Y0253572D01*
X0133760Y0253432D01*
X0133776Y0253292D01*
X0133788Y0253152D01*
X0133796Y0253011D01*
X0133800Y0252870D01*
X0133800Y0252730D01*
X0133796Y0252589D01*
X0133788Y0252448D01*
X0133776Y0252308D01*
X0133760Y0252168D01*
X0133740Y0252028D01*
X0133716Y0251889D01*
X0133689Y0251751D01*
X0133657Y0251614D01*
X0133622Y0251478D01*
X0133583Y0251342D01*
X0133540Y0251208D01*
X0133493Y0251075D01*
X0133443Y0250944D01*
X0133388Y0250814D01*
X0133331Y0250685D01*
X0133269Y0250558D01*
X0133204Y0250433D01*
X0133136Y0250310D01*
X0133064Y0250189D01*
X0132989Y0250070D01*
X0132910Y0249953D01*
X0132828Y0249838D01*
X0132743Y0249726D01*
X0132655Y0249616D01*
X0132564Y0249509D01*
X0132470Y0249404D01*
X0132373Y0249302D01*
X0132273Y0249203D01*
X0132170Y0249106D01*
X0132065Y0249013D01*
X0131957Y0248922D01*
X0131846Y0248835D01*
X0131733Y0248751D01*
X0131618Y0248670D01*
X0131501Y0248592D01*
X0131381Y0248518D01*
X0131259Y0248447D01*
X0131136Y0248379D01*
X0131010Y0248315D01*
X0130883Y0248255D01*
X0130754Y0248198D01*
X0130624Y0248144D01*
X0130492Y0248095D01*
X0130358Y0248049D01*
X0130224Y0248007D01*
X0130088Y0247969D01*
X0129952Y0247934D01*
X0129814Y0247904D01*
X0129676Y0247877D01*
X0129537Y0247855D01*
X0129397Y0247836D01*
X0129257Y0247821D01*
X0129117Y0247810D01*
X0128976Y0247803D01*
X0128835Y0247800D01*
X0128694Y0247801D01*
X0128554Y0247806D01*
X0128413Y0247815D01*
X0128273Y0247828D01*
X0128133Y0247845D01*
X0127993Y0247865D01*
X0127855Y0247890D01*
X0127717Y0247919D01*
X0127580Y0247951D01*
X0127444Y0247987D01*
X0127309Y0248028D01*
X0127175Y0248072D01*
X0127042Y0248119D01*
X0126911Y0248171D01*
X0126781Y0248226D01*
X0126653Y0248284D01*
X0126527Y0248347D01*
X0126402Y0248412D01*
X0126280Y0248482D01*
X0126159Y0248554D01*
X0126040Y0248630D01*
X0125924Y0248710D01*
X0125810Y0248793D01*
X0125698Y0248878D01*
X0125589Y0248967D01*
X0125482Y0249059D01*
X0125378Y0249154D01*
X0125277Y0249252D01*
X0125178Y0249353D01*
X0125083Y0249456D01*
X0124990Y0249562D01*
X0124900Y0249671D01*
X0124814Y0249782D01*
X0124730Y0249895D01*
X0124650Y0250011D01*
X0124573Y0250129D01*
X0124500Y0250249D01*
X0124429Y0250372D01*
X0124363Y0250496D01*
X0124300Y0250622D01*
X0124240Y0250749D01*
X0124184Y0250878D01*
X0124132Y0251009D01*
X0124083Y0251141D01*
X0124038Y0251275D01*
X0123997Y0251410D01*
X0123960Y0251546D01*
X0123926Y0251682D01*
X0123897Y0251820D01*
X0123871Y0251959D01*
X0123850Y0252098D01*
X0123832Y0252238D01*
X0123818Y0252378D01*
X0123808Y0252518D01*
X0123802Y0252659D01*
X0123800Y0252800D01*
X0164800Y0223800D02*
X0172800Y0223800D01*
X0168800Y0219800D02*
X0168800Y0227800D01*
X0194550Y0201300D02*
X0194552Y0201466D01*
X0194558Y0201631D01*
X0194568Y0201797D01*
X0194583Y0201962D01*
X0194601Y0202126D01*
X0194623Y0202290D01*
X0194649Y0202454D01*
X0194680Y0202617D01*
X0194714Y0202779D01*
X0194752Y0202940D01*
X0194795Y0203100D01*
X0194841Y0203259D01*
X0194891Y0203417D01*
X0194945Y0203574D01*
X0195002Y0203729D01*
X0195064Y0203883D01*
X0195129Y0204035D01*
X0195198Y0204186D01*
X0195271Y0204335D01*
X0195347Y0204482D01*
X0195427Y0204627D01*
X0195510Y0204770D01*
X0195597Y0204911D01*
X0195688Y0205050D01*
X0195781Y0205187D01*
X0195878Y0205321D01*
X0195979Y0205453D01*
X0196082Y0205582D01*
X0196189Y0205709D01*
X0196299Y0205833D01*
X0196411Y0205954D01*
X0196527Y0206073D01*
X0196646Y0206189D01*
X0196767Y0206301D01*
X0196891Y0206411D01*
X0197018Y0206518D01*
X0197147Y0206621D01*
X0197279Y0206722D01*
X0197413Y0206819D01*
X0197550Y0206912D01*
X0197689Y0207003D01*
X0197830Y0207090D01*
X0197973Y0207173D01*
X0198118Y0207253D01*
X0198265Y0207329D01*
X0198414Y0207402D01*
X0198565Y0207471D01*
X0198717Y0207536D01*
X0198871Y0207598D01*
X0199026Y0207655D01*
X0199183Y0207709D01*
X0199341Y0207759D01*
X0199500Y0207805D01*
X0199660Y0207848D01*
X0199821Y0207886D01*
X0199983Y0207920D01*
X0200146Y0207951D01*
X0200310Y0207977D01*
X0200474Y0207999D01*
X0200638Y0208017D01*
X0200803Y0208032D01*
X0200969Y0208042D01*
X0201134Y0208048D01*
X0201300Y0208050D01*
X0201466Y0208048D01*
X0201631Y0208042D01*
X0201797Y0208032D01*
X0201962Y0208017D01*
X0202126Y0207999D01*
X0202290Y0207977D01*
X0202454Y0207951D01*
X0202617Y0207920D01*
X0202779Y0207886D01*
X0202940Y0207848D01*
X0203100Y0207805D01*
X0203259Y0207759D01*
X0203417Y0207709D01*
X0203574Y0207655D01*
X0203729Y0207598D01*
X0203883Y0207536D01*
X0204035Y0207471D01*
X0204186Y0207402D01*
X0204335Y0207329D01*
X0204482Y0207253D01*
X0204627Y0207173D01*
X0204770Y0207090D01*
X0204911Y0207003D01*
X0205050Y0206912D01*
X0205187Y0206819D01*
X0205321Y0206722D01*
X0205453Y0206621D01*
X0205582Y0206518D01*
X0205709Y0206411D01*
X0205833Y0206301D01*
X0205954Y0206189D01*
X0206073Y0206073D01*
X0206189Y0205954D01*
X0206301Y0205833D01*
X0206411Y0205709D01*
X0206518Y0205582D01*
X0206621Y0205453D01*
X0206722Y0205321D01*
X0206819Y0205187D01*
X0206912Y0205050D01*
X0207003Y0204911D01*
X0207090Y0204770D01*
X0207173Y0204627D01*
X0207253Y0204482D01*
X0207329Y0204335D01*
X0207402Y0204186D01*
X0207471Y0204035D01*
X0207536Y0203883D01*
X0207598Y0203729D01*
X0207655Y0203574D01*
X0207709Y0203417D01*
X0207759Y0203259D01*
X0207805Y0203100D01*
X0207848Y0202940D01*
X0207886Y0202779D01*
X0207920Y0202617D01*
X0207951Y0202454D01*
X0207977Y0202290D01*
X0207999Y0202126D01*
X0208017Y0201962D01*
X0208032Y0201797D01*
X0208042Y0201631D01*
X0208048Y0201466D01*
X0208050Y0201300D01*
X0208048Y0201134D01*
X0208042Y0200969D01*
X0208032Y0200803D01*
X0208017Y0200638D01*
X0207999Y0200474D01*
X0207977Y0200310D01*
X0207951Y0200146D01*
X0207920Y0199983D01*
X0207886Y0199821D01*
X0207848Y0199660D01*
X0207805Y0199500D01*
X0207759Y0199341D01*
X0207709Y0199183D01*
X0207655Y0199026D01*
X0207598Y0198871D01*
X0207536Y0198717D01*
X0207471Y0198565D01*
X0207402Y0198414D01*
X0207329Y0198265D01*
X0207253Y0198118D01*
X0207173Y0197973D01*
X0207090Y0197830D01*
X0207003Y0197689D01*
X0206912Y0197550D01*
X0206819Y0197413D01*
X0206722Y0197279D01*
X0206621Y0197147D01*
X0206518Y0197018D01*
X0206411Y0196891D01*
X0206301Y0196767D01*
X0206189Y0196646D01*
X0206073Y0196527D01*
X0205954Y0196411D01*
X0205833Y0196299D01*
X0205709Y0196189D01*
X0205582Y0196082D01*
X0205453Y0195979D01*
X0205321Y0195878D01*
X0205187Y0195781D01*
X0205050Y0195688D01*
X0204911Y0195597D01*
X0204770Y0195510D01*
X0204627Y0195427D01*
X0204482Y0195347D01*
X0204335Y0195271D01*
X0204186Y0195198D01*
X0204035Y0195129D01*
X0203883Y0195064D01*
X0203729Y0195002D01*
X0203574Y0194945D01*
X0203417Y0194891D01*
X0203259Y0194841D01*
X0203100Y0194795D01*
X0202940Y0194752D01*
X0202779Y0194714D01*
X0202617Y0194680D01*
X0202454Y0194649D01*
X0202290Y0194623D01*
X0202126Y0194601D01*
X0201962Y0194583D01*
X0201797Y0194568D01*
X0201631Y0194558D01*
X0201466Y0194552D01*
X0201300Y0194550D01*
X0201134Y0194552D01*
X0200969Y0194558D01*
X0200803Y0194568D01*
X0200638Y0194583D01*
X0200474Y0194601D01*
X0200310Y0194623D01*
X0200146Y0194649D01*
X0199983Y0194680D01*
X0199821Y0194714D01*
X0199660Y0194752D01*
X0199500Y0194795D01*
X0199341Y0194841D01*
X0199183Y0194891D01*
X0199026Y0194945D01*
X0198871Y0195002D01*
X0198717Y0195064D01*
X0198565Y0195129D01*
X0198414Y0195198D01*
X0198265Y0195271D01*
X0198118Y0195347D01*
X0197973Y0195427D01*
X0197830Y0195510D01*
X0197689Y0195597D01*
X0197550Y0195688D01*
X0197413Y0195781D01*
X0197279Y0195878D01*
X0197147Y0195979D01*
X0197018Y0196082D01*
X0196891Y0196189D01*
X0196767Y0196299D01*
X0196646Y0196411D01*
X0196527Y0196527D01*
X0196411Y0196646D01*
X0196299Y0196767D01*
X0196189Y0196891D01*
X0196082Y0197018D01*
X0195979Y0197147D01*
X0195878Y0197279D01*
X0195781Y0197413D01*
X0195688Y0197550D01*
X0195597Y0197689D01*
X0195510Y0197830D01*
X0195427Y0197973D01*
X0195347Y0198118D01*
X0195271Y0198265D01*
X0195198Y0198414D01*
X0195129Y0198565D01*
X0195064Y0198717D01*
X0195002Y0198871D01*
X0194945Y0199026D01*
X0194891Y0199183D01*
X0194841Y0199341D01*
X0194795Y0199500D01*
X0194752Y0199660D01*
X0194714Y0199821D01*
X0194680Y0199983D01*
X0194649Y0200146D01*
X0194623Y0200310D01*
X0194601Y0200474D01*
X0194583Y0200638D01*
X0194568Y0200803D01*
X0194558Y0200969D01*
X0194552Y0201134D01*
X0194550Y0201300D01*
X0203800Y0252800D02*
X0203802Y0252941D01*
X0203808Y0253082D01*
X0203818Y0253222D01*
X0203832Y0253362D01*
X0203850Y0253502D01*
X0203871Y0253641D01*
X0203897Y0253780D01*
X0203926Y0253918D01*
X0203960Y0254054D01*
X0203997Y0254190D01*
X0204038Y0254325D01*
X0204083Y0254459D01*
X0204132Y0254591D01*
X0204184Y0254722D01*
X0204240Y0254851D01*
X0204300Y0254978D01*
X0204363Y0255104D01*
X0204429Y0255228D01*
X0204500Y0255351D01*
X0204573Y0255471D01*
X0204650Y0255589D01*
X0204730Y0255705D01*
X0204814Y0255818D01*
X0204900Y0255929D01*
X0204990Y0256038D01*
X0205083Y0256144D01*
X0205178Y0256247D01*
X0205277Y0256348D01*
X0205378Y0256446D01*
X0205482Y0256541D01*
X0205589Y0256633D01*
X0205698Y0256722D01*
X0205810Y0256807D01*
X0205924Y0256890D01*
X0206040Y0256970D01*
X0206159Y0257046D01*
X0206280Y0257118D01*
X0206402Y0257188D01*
X0206527Y0257253D01*
X0206653Y0257316D01*
X0206781Y0257374D01*
X0206911Y0257429D01*
X0207042Y0257481D01*
X0207175Y0257528D01*
X0207309Y0257572D01*
X0207444Y0257613D01*
X0207580Y0257649D01*
X0207717Y0257681D01*
X0207855Y0257710D01*
X0207993Y0257735D01*
X0208133Y0257755D01*
X0208273Y0257772D01*
X0208413Y0257785D01*
X0208554Y0257794D01*
X0208694Y0257799D01*
X0208835Y0257800D01*
X0208976Y0257797D01*
X0209117Y0257790D01*
X0209257Y0257779D01*
X0209397Y0257764D01*
X0209537Y0257745D01*
X0209676Y0257723D01*
X0209814Y0257696D01*
X0209952Y0257666D01*
X0210088Y0257631D01*
X0210224Y0257593D01*
X0210358Y0257551D01*
X0210492Y0257505D01*
X0210624Y0257456D01*
X0210754Y0257402D01*
X0210883Y0257345D01*
X0211010Y0257285D01*
X0211136Y0257221D01*
X0211259Y0257153D01*
X0211381Y0257082D01*
X0211501Y0257008D01*
X0211618Y0256930D01*
X0211733Y0256849D01*
X0211846Y0256765D01*
X0211957Y0256678D01*
X0212065Y0256587D01*
X0212170Y0256494D01*
X0212273Y0256397D01*
X0212373Y0256298D01*
X0212470Y0256196D01*
X0212564Y0256091D01*
X0212655Y0255984D01*
X0212743Y0255874D01*
X0212828Y0255762D01*
X0212910Y0255647D01*
X0212989Y0255530D01*
X0213064Y0255411D01*
X0213136Y0255290D01*
X0213204Y0255167D01*
X0213269Y0255042D01*
X0213331Y0254915D01*
X0213388Y0254786D01*
X0213443Y0254656D01*
X0213493Y0254525D01*
X0213540Y0254392D01*
X0213583Y0254258D01*
X0213622Y0254122D01*
X0213657Y0253986D01*
X0213689Y0253849D01*
X0213716Y0253711D01*
X0213740Y0253572D01*
X0213760Y0253432D01*
X0213776Y0253292D01*
X0213788Y0253152D01*
X0213796Y0253011D01*
X0213800Y0252870D01*
X0213800Y0252730D01*
X0213796Y0252589D01*
X0213788Y0252448D01*
X0213776Y0252308D01*
X0213760Y0252168D01*
X0213740Y0252028D01*
X0213716Y0251889D01*
X0213689Y0251751D01*
X0213657Y0251614D01*
X0213622Y0251478D01*
X0213583Y0251342D01*
X0213540Y0251208D01*
X0213493Y0251075D01*
X0213443Y0250944D01*
X0213388Y0250814D01*
X0213331Y0250685D01*
X0213269Y0250558D01*
X0213204Y0250433D01*
X0213136Y0250310D01*
X0213064Y0250189D01*
X0212989Y0250070D01*
X0212910Y0249953D01*
X0212828Y0249838D01*
X0212743Y0249726D01*
X0212655Y0249616D01*
X0212564Y0249509D01*
X0212470Y0249404D01*
X0212373Y0249302D01*
X0212273Y0249203D01*
X0212170Y0249106D01*
X0212065Y0249013D01*
X0211957Y0248922D01*
X0211846Y0248835D01*
X0211733Y0248751D01*
X0211618Y0248670D01*
X0211501Y0248592D01*
X0211381Y0248518D01*
X0211259Y0248447D01*
X0211136Y0248379D01*
X0211010Y0248315D01*
X0210883Y0248255D01*
X0210754Y0248198D01*
X0210624Y0248144D01*
X0210492Y0248095D01*
X0210358Y0248049D01*
X0210224Y0248007D01*
X0210088Y0247969D01*
X0209952Y0247934D01*
X0209814Y0247904D01*
X0209676Y0247877D01*
X0209537Y0247855D01*
X0209397Y0247836D01*
X0209257Y0247821D01*
X0209117Y0247810D01*
X0208976Y0247803D01*
X0208835Y0247800D01*
X0208694Y0247801D01*
X0208554Y0247806D01*
X0208413Y0247815D01*
X0208273Y0247828D01*
X0208133Y0247845D01*
X0207993Y0247865D01*
X0207855Y0247890D01*
X0207717Y0247919D01*
X0207580Y0247951D01*
X0207444Y0247987D01*
X0207309Y0248028D01*
X0207175Y0248072D01*
X0207042Y0248119D01*
X0206911Y0248171D01*
X0206781Y0248226D01*
X0206653Y0248284D01*
X0206527Y0248347D01*
X0206402Y0248412D01*
X0206280Y0248482D01*
X0206159Y0248554D01*
X0206040Y0248630D01*
X0205924Y0248710D01*
X0205810Y0248793D01*
X0205698Y0248878D01*
X0205589Y0248967D01*
X0205482Y0249059D01*
X0205378Y0249154D01*
X0205277Y0249252D01*
X0205178Y0249353D01*
X0205083Y0249456D01*
X0204990Y0249562D01*
X0204900Y0249671D01*
X0204814Y0249782D01*
X0204730Y0249895D01*
X0204650Y0250011D01*
X0204573Y0250129D01*
X0204500Y0250249D01*
X0204429Y0250372D01*
X0204363Y0250496D01*
X0204300Y0250622D01*
X0204240Y0250749D01*
X0204184Y0250878D01*
X0204132Y0251009D01*
X0204083Y0251141D01*
X0204038Y0251275D01*
X0203997Y0251410D01*
X0203960Y0251546D01*
X0203926Y0251682D01*
X0203897Y0251820D01*
X0203871Y0251959D01*
X0203850Y0252098D01*
X0203832Y0252238D01*
X0203818Y0252378D01*
X0203808Y0252518D01*
X0203802Y0252659D01*
X0203800Y0252800D01*
X0248800Y0319800D02*
X0248800Y0327800D01*
X0244800Y0323800D02*
X0252800Y0323800D01*
X0203800Y0332800D02*
X0203802Y0332941D01*
X0203808Y0333082D01*
X0203818Y0333222D01*
X0203832Y0333362D01*
X0203850Y0333502D01*
X0203871Y0333641D01*
X0203897Y0333780D01*
X0203926Y0333918D01*
X0203960Y0334054D01*
X0203997Y0334190D01*
X0204038Y0334325D01*
X0204083Y0334459D01*
X0204132Y0334591D01*
X0204184Y0334722D01*
X0204240Y0334851D01*
X0204300Y0334978D01*
X0204363Y0335104D01*
X0204429Y0335228D01*
X0204500Y0335351D01*
X0204573Y0335471D01*
X0204650Y0335589D01*
X0204730Y0335705D01*
X0204814Y0335818D01*
X0204900Y0335929D01*
X0204990Y0336038D01*
X0205083Y0336144D01*
X0205178Y0336247D01*
X0205277Y0336348D01*
X0205378Y0336446D01*
X0205482Y0336541D01*
X0205589Y0336633D01*
X0205698Y0336722D01*
X0205810Y0336807D01*
X0205924Y0336890D01*
X0206040Y0336970D01*
X0206159Y0337046D01*
X0206280Y0337118D01*
X0206402Y0337188D01*
X0206527Y0337253D01*
X0206653Y0337316D01*
X0206781Y0337374D01*
X0206911Y0337429D01*
X0207042Y0337481D01*
X0207175Y0337528D01*
X0207309Y0337572D01*
X0207444Y0337613D01*
X0207580Y0337649D01*
X0207717Y0337681D01*
X0207855Y0337710D01*
X0207993Y0337735D01*
X0208133Y0337755D01*
X0208273Y0337772D01*
X0208413Y0337785D01*
X0208554Y0337794D01*
X0208694Y0337799D01*
X0208835Y0337800D01*
X0208976Y0337797D01*
X0209117Y0337790D01*
X0209257Y0337779D01*
X0209397Y0337764D01*
X0209537Y0337745D01*
X0209676Y0337723D01*
X0209814Y0337696D01*
X0209952Y0337666D01*
X0210088Y0337631D01*
X0210224Y0337593D01*
X0210358Y0337551D01*
X0210492Y0337505D01*
X0210624Y0337456D01*
X0210754Y0337402D01*
X0210883Y0337345D01*
X0211010Y0337285D01*
X0211136Y0337221D01*
X0211259Y0337153D01*
X0211381Y0337082D01*
X0211501Y0337008D01*
X0211618Y0336930D01*
X0211733Y0336849D01*
X0211846Y0336765D01*
X0211957Y0336678D01*
X0212065Y0336587D01*
X0212170Y0336494D01*
X0212273Y0336397D01*
X0212373Y0336298D01*
X0212470Y0336196D01*
X0212564Y0336091D01*
X0212655Y0335984D01*
X0212743Y0335874D01*
X0212828Y0335762D01*
X0212910Y0335647D01*
X0212989Y0335530D01*
X0213064Y0335411D01*
X0213136Y0335290D01*
X0213204Y0335167D01*
X0213269Y0335042D01*
X0213331Y0334915D01*
X0213388Y0334786D01*
X0213443Y0334656D01*
X0213493Y0334525D01*
X0213540Y0334392D01*
X0213583Y0334258D01*
X0213622Y0334122D01*
X0213657Y0333986D01*
X0213689Y0333849D01*
X0213716Y0333711D01*
X0213740Y0333572D01*
X0213760Y0333432D01*
X0213776Y0333292D01*
X0213788Y0333152D01*
X0213796Y0333011D01*
X0213800Y0332870D01*
X0213800Y0332730D01*
X0213796Y0332589D01*
X0213788Y0332448D01*
X0213776Y0332308D01*
X0213760Y0332168D01*
X0213740Y0332028D01*
X0213716Y0331889D01*
X0213689Y0331751D01*
X0213657Y0331614D01*
X0213622Y0331478D01*
X0213583Y0331342D01*
X0213540Y0331208D01*
X0213493Y0331075D01*
X0213443Y0330944D01*
X0213388Y0330814D01*
X0213331Y0330685D01*
X0213269Y0330558D01*
X0213204Y0330433D01*
X0213136Y0330310D01*
X0213064Y0330189D01*
X0212989Y0330070D01*
X0212910Y0329953D01*
X0212828Y0329838D01*
X0212743Y0329726D01*
X0212655Y0329616D01*
X0212564Y0329509D01*
X0212470Y0329404D01*
X0212373Y0329302D01*
X0212273Y0329203D01*
X0212170Y0329106D01*
X0212065Y0329013D01*
X0211957Y0328922D01*
X0211846Y0328835D01*
X0211733Y0328751D01*
X0211618Y0328670D01*
X0211501Y0328592D01*
X0211381Y0328518D01*
X0211259Y0328447D01*
X0211136Y0328379D01*
X0211010Y0328315D01*
X0210883Y0328255D01*
X0210754Y0328198D01*
X0210624Y0328144D01*
X0210492Y0328095D01*
X0210358Y0328049D01*
X0210224Y0328007D01*
X0210088Y0327969D01*
X0209952Y0327934D01*
X0209814Y0327904D01*
X0209676Y0327877D01*
X0209537Y0327855D01*
X0209397Y0327836D01*
X0209257Y0327821D01*
X0209117Y0327810D01*
X0208976Y0327803D01*
X0208835Y0327800D01*
X0208694Y0327801D01*
X0208554Y0327806D01*
X0208413Y0327815D01*
X0208273Y0327828D01*
X0208133Y0327845D01*
X0207993Y0327865D01*
X0207855Y0327890D01*
X0207717Y0327919D01*
X0207580Y0327951D01*
X0207444Y0327987D01*
X0207309Y0328028D01*
X0207175Y0328072D01*
X0207042Y0328119D01*
X0206911Y0328171D01*
X0206781Y0328226D01*
X0206653Y0328284D01*
X0206527Y0328347D01*
X0206402Y0328412D01*
X0206280Y0328482D01*
X0206159Y0328554D01*
X0206040Y0328630D01*
X0205924Y0328710D01*
X0205810Y0328793D01*
X0205698Y0328878D01*
X0205589Y0328967D01*
X0205482Y0329059D01*
X0205378Y0329154D01*
X0205277Y0329252D01*
X0205178Y0329353D01*
X0205083Y0329456D01*
X0204990Y0329562D01*
X0204900Y0329671D01*
X0204814Y0329782D01*
X0204730Y0329895D01*
X0204650Y0330011D01*
X0204573Y0330129D01*
X0204500Y0330249D01*
X0204429Y0330372D01*
X0204363Y0330496D01*
X0204300Y0330622D01*
X0204240Y0330749D01*
X0204184Y0330878D01*
X0204132Y0331009D01*
X0204083Y0331141D01*
X0204038Y0331275D01*
X0203997Y0331410D01*
X0203960Y0331546D01*
X0203926Y0331682D01*
X0203897Y0331820D01*
X0203871Y0331959D01*
X0203850Y0332098D01*
X0203832Y0332238D01*
X0203818Y0332378D01*
X0203808Y0332518D01*
X0203802Y0332659D01*
X0203800Y0332800D01*
X0123800Y0332800D02*
X0123802Y0332941D01*
X0123808Y0333082D01*
X0123818Y0333222D01*
X0123832Y0333362D01*
X0123850Y0333502D01*
X0123871Y0333641D01*
X0123897Y0333780D01*
X0123926Y0333918D01*
X0123960Y0334054D01*
X0123997Y0334190D01*
X0124038Y0334325D01*
X0124083Y0334459D01*
X0124132Y0334591D01*
X0124184Y0334722D01*
X0124240Y0334851D01*
X0124300Y0334978D01*
X0124363Y0335104D01*
X0124429Y0335228D01*
X0124500Y0335351D01*
X0124573Y0335471D01*
X0124650Y0335589D01*
X0124730Y0335705D01*
X0124814Y0335818D01*
X0124900Y0335929D01*
X0124990Y0336038D01*
X0125083Y0336144D01*
X0125178Y0336247D01*
X0125277Y0336348D01*
X0125378Y0336446D01*
X0125482Y0336541D01*
X0125589Y0336633D01*
X0125698Y0336722D01*
X0125810Y0336807D01*
X0125924Y0336890D01*
X0126040Y0336970D01*
X0126159Y0337046D01*
X0126280Y0337118D01*
X0126402Y0337188D01*
X0126527Y0337253D01*
X0126653Y0337316D01*
X0126781Y0337374D01*
X0126911Y0337429D01*
X0127042Y0337481D01*
X0127175Y0337528D01*
X0127309Y0337572D01*
X0127444Y0337613D01*
X0127580Y0337649D01*
X0127717Y0337681D01*
X0127855Y0337710D01*
X0127993Y0337735D01*
X0128133Y0337755D01*
X0128273Y0337772D01*
X0128413Y0337785D01*
X0128554Y0337794D01*
X0128694Y0337799D01*
X0128835Y0337800D01*
X0128976Y0337797D01*
X0129117Y0337790D01*
X0129257Y0337779D01*
X0129397Y0337764D01*
X0129537Y0337745D01*
X0129676Y0337723D01*
X0129814Y0337696D01*
X0129952Y0337666D01*
X0130088Y0337631D01*
X0130224Y0337593D01*
X0130358Y0337551D01*
X0130492Y0337505D01*
X0130624Y0337456D01*
X0130754Y0337402D01*
X0130883Y0337345D01*
X0131010Y0337285D01*
X0131136Y0337221D01*
X0131259Y0337153D01*
X0131381Y0337082D01*
X0131501Y0337008D01*
X0131618Y0336930D01*
X0131733Y0336849D01*
X0131846Y0336765D01*
X0131957Y0336678D01*
X0132065Y0336587D01*
X0132170Y0336494D01*
X0132273Y0336397D01*
X0132373Y0336298D01*
X0132470Y0336196D01*
X0132564Y0336091D01*
X0132655Y0335984D01*
X0132743Y0335874D01*
X0132828Y0335762D01*
X0132910Y0335647D01*
X0132989Y0335530D01*
X0133064Y0335411D01*
X0133136Y0335290D01*
X0133204Y0335167D01*
X0133269Y0335042D01*
X0133331Y0334915D01*
X0133388Y0334786D01*
X0133443Y0334656D01*
X0133493Y0334525D01*
X0133540Y0334392D01*
X0133583Y0334258D01*
X0133622Y0334122D01*
X0133657Y0333986D01*
X0133689Y0333849D01*
X0133716Y0333711D01*
X0133740Y0333572D01*
X0133760Y0333432D01*
X0133776Y0333292D01*
X0133788Y0333152D01*
X0133796Y0333011D01*
X0133800Y0332870D01*
X0133800Y0332730D01*
X0133796Y0332589D01*
X0133788Y0332448D01*
X0133776Y0332308D01*
X0133760Y0332168D01*
X0133740Y0332028D01*
X0133716Y0331889D01*
X0133689Y0331751D01*
X0133657Y0331614D01*
X0133622Y0331478D01*
X0133583Y0331342D01*
X0133540Y0331208D01*
X0133493Y0331075D01*
X0133443Y0330944D01*
X0133388Y0330814D01*
X0133331Y0330685D01*
X0133269Y0330558D01*
X0133204Y0330433D01*
X0133136Y0330310D01*
X0133064Y0330189D01*
X0132989Y0330070D01*
X0132910Y0329953D01*
X0132828Y0329838D01*
X0132743Y0329726D01*
X0132655Y0329616D01*
X0132564Y0329509D01*
X0132470Y0329404D01*
X0132373Y0329302D01*
X0132273Y0329203D01*
X0132170Y0329106D01*
X0132065Y0329013D01*
X0131957Y0328922D01*
X0131846Y0328835D01*
X0131733Y0328751D01*
X0131618Y0328670D01*
X0131501Y0328592D01*
X0131381Y0328518D01*
X0131259Y0328447D01*
X0131136Y0328379D01*
X0131010Y0328315D01*
X0130883Y0328255D01*
X0130754Y0328198D01*
X0130624Y0328144D01*
X0130492Y0328095D01*
X0130358Y0328049D01*
X0130224Y0328007D01*
X0130088Y0327969D01*
X0129952Y0327934D01*
X0129814Y0327904D01*
X0129676Y0327877D01*
X0129537Y0327855D01*
X0129397Y0327836D01*
X0129257Y0327821D01*
X0129117Y0327810D01*
X0128976Y0327803D01*
X0128835Y0327800D01*
X0128694Y0327801D01*
X0128554Y0327806D01*
X0128413Y0327815D01*
X0128273Y0327828D01*
X0128133Y0327845D01*
X0127993Y0327865D01*
X0127855Y0327890D01*
X0127717Y0327919D01*
X0127580Y0327951D01*
X0127444Y0327987D01*
X0127309Y0328028D01*
X0127175Y0328072D01*
X0127042Y0328119D01*
X0126911Y0328171D01*
X0126781Y0328226D01*
X0126653Y0328284D01*
X0126527Y0328347D01*
X0126402Y0328412D01*
X0126280Y0328482D01*
X0126159Y0328554D01*
X0126040Y0328630D01*
X0125924Y0328710D01*
X0125810Y0328793D01*
X0125698Y0328878D01*
X0125589Y0328967D01*
X0125482Y0329059D01*
X0125378Y0329154D01*
X0125277Y0329252D01*
X0125178Y0329353D01*
X0125083Y0329456D01*
X0124990Y0329562D01*
X0124900Y0329671D01*
X0124814Y0329782D01*
X0124730Y0329895D01*
X0124650Y0330011D01*
X0124573Y0330129D01*
X0124500Y0330249D01*
X0124429Y0330372D01*
X0124363Y0330496D01*
X0124300Y0330622D01*
X0124240Y0330749D01*
X0124184Y0330878D01*
X0124132Y0331009D01*
X0124083Y0331141D01*
X0124038Y0331275D01*
X0123997Y0331410D01*
X0123960Y0331546D01*
X0123926Y0331682D01*
X0123897Y0331820D01*
X0123871Y0331959D01*
X0123850Y0332098D01*
X0123832Y0332238D01*
X0123818Y0332378D01*
X0123808Y0332518D01*
X0123802Y0332659D01*
X0123800Y0332800D01*
X0314550Y0211300D02*
X0314552Y0211466D01*
X0314558Y0211631D01*
X0314568Y0211797D01*
X0314583Y0211962D01*
X0314601Y0212126D01*
X0314623Y0212290D01*
X0314649Y0212454D01*
X0314680Y0212617D01*
X0314714Y0212779D01*
X0314752Y0212940D01*
X0314795Y0213100D01*
X0314841Y0213259D01*
X0314891Y0213417D01*
X0314945Y0213574D01*
X0315002Y0213729D01*
X0315064Y0213883D01*
X0315129Y0214035D01*
X0315198Y0214186D01*
X0315271Y0214335D01*
X0315347Y0214482D01*
X0315427Y0214627D01*
X0315510Y0214770D01*
X0315597Y0214911D01*
X0315688Y0215050D01*
X0315781Y0215187D01*
X0315878Y0215321D01*
X0315979Y0215453D01*
X0316082Y0215582D01*
X0316189Y0215709D01*
X0316299Y0215833D01*
X0316411Y0215954D01*
X0316527Y0216073D01*
X0316646Y0216189D01*
X0316767Y0216301D01*
X0316891Y0216411D01*
X0317018Y0216518D01*
X0317147Y0216621D01*
X0317279Y0216722D01*
X0317413Y0216819D01*
X0317550Y0216912D01*
X0317689Y0217003D01*
X0317830Y0217090D01*
X0317973Y0217173D01*
X0318118Y0217253D01*
X0318265Y0217329D01*
X0318414Y0217402D01*
X0318565Y0217471D01*
X0318717Y0217536D01*
X0318871Y0217598D01*
X0319026Y0217655D01*
X0319183Y0217709D01*
X0319341Y0217759D01*
X0319500Y0217805D01*
X0319660Y0217848D01*
X0319821Y0217886D01*
X0319983Y0217920D01*
X0320146Y0217951D01*
X0320310Y0217977D01*
X0320474Y0217999D01*
X0320638Y0218017D01*
X0320803Y0218032D01*
X0320969Y0218042D01*
X0321134Y0218048D01*
X0321300Y0218050D01*
X0321466Y0218048D01*
X0321631Y0218042D01*
X0321797Y0218032D01*
X0321962Y0218017D01*
X0322126Y0217999D01*
X0322290Y0217977D01*
X0322454Y0217951D01*
X0322617Y0217920D01*
X0322779Y0217886D01*
X0322940Y0217848D01*
X0323100Y0217805D01*
X0323259Y0217759D01*
X0323417Y0217709D01*
X0323574Y0217655D01*
X0323729Y0217598D01*
X0323883Y0217536D01*
X0324035Y0217471D01*
X0324186Y0217402D01*
X0324335Y0217329D01*
X0324482Y0217253D01*
X0324627Y0217173D01*
X0324770Y0217090D01*
X0324911Y0217003D01*
X0325050Y0216912D01*
X0325187Y0216819D01*
X0325321Y0216722D01*
X0325453Y0216621D01*
X0325582Y0216518D01*
X0325709Y0216411D01*
X0325833Y0216301D01*
X0325954Y0216189D01*
X0326073Y0216073D01*
X0326189Y0215954D01*
X0326301Y0215833D01*
X0326411Y0215709D01*
X0326518Y0215582D01*
X0326621Y0215453D01*
X0326722Y0215321D01*
X0326819Y0215187D01*
X0326912Y0215050D01*
X0327003Y0214911D01*
X0327090Y0214770D01*
X0327173Y0214627D01*
X0327253Y0214482D01*
X0327329Y0214335D01*
X0327402Y0214186D01*
X0327471Y0214035D01*
X0327536Y0213883D01*
X0327598Y0213729D01*
X0327655Y0213574D01*
X0327709Y0213417D01*
X0327759Y0213259D01*
X0327805Y0213100D01*
X0327848Y0212940D01*
X0327886Y0212779D01*
X0327920Y0212617D01*
X0327951Y0212454D01*
X0327977Y0212290D01*
X0327999Y0212126D01*
X0328017Y0211962D01*
X0328032Y0211797D01*
X0328042Y0211631D01*
X0328048Y0211466D01*
X0328050Y0211300D01*
X0328048Y0211134D01*
X0328042Y0210969D01*
X0328032Y0210803D01*
X0328017Y0210638D01*
X0327999Y0210474D01*
X0327977Y0210310D01*
X0327951Y0210146D01*
X0327920Y0209983D01*
X0327886Y0209821D01*
X0327848Y0209660D01*
X0327805Y0209500D01*
X0327759Y0209341D01*
X0327709Y0209183D01*
X0327655Y0209026D01*
X0327598Y0208871D01*
X0327536Y0208717D01*
X0327471Y0208565D01*
X0327402Y0208414D01*
X0327329Y0208265D01*
X0327253Y0208118D01*
X0327173Y0207973D01*
X0327090Y0207830D01*
X0327003Y0207689D01*
X0326912Y0207550D01*
X0326819Y0207413D01*
X0326722Y0207279D01*
X0326621Y0207147D01*
X0326518Y0207018D01*
X0326411Y0206891D01*
X0326301Y0206767D01*
X0326189Y0206646D01*
X0326073Y0206527D01*
X0325954Y0206411D01*
X0325833Y0206299D01*
X0325709Y0206189D01*
X0325582Y0206082D01*
X0325453Y0205979D01*
X0325321Y0205878D01*
X0325187Y0205781D01*
X0325050Y0205688D01*
X0324911Y0205597D01*
X0324770Y0205510D01*
X0324627Y0205427D01*
X0324482Y0205347D01*
X0324335Y0205271D01*
X0324186Y0205198D01*
X0324035Y0205129D01*
X0323883Y0205064D01*
X0323729Y0205002D01*
X0323574Y0204945D01*
X0323417Y0204891D01*
X0323259Y0204841D01*
X0323100Y0204795D01*
X0322940Y0204752D01*
X0322779Y0204714D01*
X0322617Y0204680D01*
X0322454Y0204649D01*
X0322290Y0204623D01*
X0322126Y0204601D01*
X0321962Y0204583D01*
X0321797Y0204568D01*
X0321631Y0204558D01*
X0321466Y0204552D01*
X0321300Y0204550D01*
X0321134Y0204552D01*
X0320969Y0204558D01*
X0320803Y0204568D01*
X0320638Y0204583D01*
X0320474Y0204601D01*
X0320310Y0204623D01*
X0320146Y0204649D01*
X0319983Y0204680D01*
X0319821Y0204714D01*
X0319660Y0204752D01*
X0319500Y0204795D01*
X0319341Y0204841D01*
X0319183Y0204891D01*
X0319026Y0204945D01*
X0318871Y0205002D01*
X0318717Y0205064D01*
X0318565Y0205129D01*
X0318414Y0205198D01*
X0318265Y0205271D01*
X0318118Y0205347D01*
X0317973Y0205427D01*
X0317830Y0205510D01*
X0317689Y0205597D01*
X0317550Y0205688D01*
X0317413Y0205781D01*
X0317279Y0205878D01*
X0317147Y0205979D01*
X0317018Y0206082D01*
X0316891Y0206189D01*
X0316767Y0206299D01*
X0316646Y0206411D01*
X0316527Y0206527D01*
X0316411Y0206646D01*
X0316299Y0206767D01*
X0316189Y0206891D01*
X0316082Y0207018D01*
X0315979Y0207147D01*
X0315878Y0207279D01*
X0315781Y0207413D01*
X0315688Y0207550D01*
X0315597Y0207689D01*
X0315510Y0207830D01*
X0315427Y0207973D01*
X0315347Y0208118D01*
X0315271Y0208265D01*
X0315198Y0208414D01*
X0315129Y0208565D01*
X0315064Y0208717D01*
X0315002Y0208871D01*
X0314945Y0209026D01*
X0314891Y0209183D01*
X0314841Y0209341D01*
X0314795Y0209500D01*
X0314752Y0209660D01*
X0314714Y0209821D01*
X0314680Y0209983D01*
X0314649Y0210146D01*
X0314623Y0210310D01*
X0314601Y0210474D01*
X0314583Y0210638D01*
X0314568Y0210803D01*
X0314558Y0210969D01*
X0314552Y0211134D01*
X0314550Y0211300D01*
X0311300Y0181300D02*
X0311304Y0181607D01*
X0311315Y0181913D01*
X0311334Y0182220D01*
X0311360Y0182525D01*
X0311394Y0182830D01*
X0311435Y0183134D01*
X0311484Y0183437D01*
X0311540Y0183739D01*
X0311604Y0184039D01*
X0311675Y0184337D01*
X0311753Y0184634D01*
X0311838Y0184929D01*
X0311931Y0185221D01*
X0312031Y0185511D01*
X0312138Y0185799D01*
X0312252Y0186084D01*
X0312372Y0186366D01*
X0312500Y0186644D01*
X0312635Y0186920D01*
X0312776Y0187192D01*
X0312924Y0187461D01*
X0313078Y0187726D01*
X0313239Y0187987D01*
X0313407Y0188245D01*
X0313580Y0188498D01*
X0313760Y0188746D01*
X0313946Y0188990D01*
X0314137Y0189230D01*
X0314335Y0189465D01*
X0314538Y0189694D01*
X0314747Y0189919D01*
X0314961Y0190139D01*
X0315181Y0190353D01*
X0315406Y0190562D01*
X0315635Y0190765D01*
X0315870Y0190963D01*
X0316110Y0191154D01*
X0316354Y0191340D01*
X0316602Y0191520D01*
X0316855Y0191693D01*
X0317113Y0191861D01*
X0317374Y0192022D01*
X0317639Y0192176D01*
X0317908Y0192324D01*
X0318180Y0192465D01*
X0318456Y0192600D01*
X0318734Y0192728D01*
X0319016Y0192848D01*
X0319301Y0192962D01*
X0319589Y0193069D01*
X0319879Y0193169D01*
X0320171Y0193262D01*
X0320466Y0193347D01*
X0320763Y0193425D01*
X0321061Y0193496D01*
X0321361Y0193560D01*
X0321663Y0193616D01*
X0321966Y0193665D01*
X0322270Y0193706D01*
X0322575Y0193740D01*
X0322880Y0193766D01*
X0323187Y0193785D01*
X0323493Y0193796D01*
X0323800Y0193800D01*
X0324107Y0193796D01*
X0324413Y0193785D01*
X0324720Y0193766D01*
X0325025Y0193740D01*
X0325330Y0193706D01*
X0325634Y0193665D01*
X0325937Y0193616D01*
X0326239Y0193560D01*
X0326539Y0193496D01*
X0326837Y0193425D01*
X0327134Y0193347D01*
X0327429Y0193262D01*
X0327721Y0193169D01*
X0328011Y0193069D01*
X0328299Y0192962D01*
X0328584Y0192848D01*
X0328866Y0192728D01*
X0329144Y0192600D01*
X0329420Y0192465D01*
X0329692Y0192324D01*
X0329961Y0192176D01*
X0330226Y0192022D01*
X0330487Y0191861D01*
X0330745Y0191693D01*
X0330998Y0191520D01*
X0331246Y0191340D01*
X0331490Y0191154D01*
X0331730Y0190963D01*
X0331965Y0190765D01*
X0332194Y0190562D01*
X0332419Y0190353D01*
X0332639Y0190139D01*
X0332853Y0189919D01*
X0333062Y0189694D01*
X0333265Y0189465D01*
X0333463Y0189230D01*
X0333654Y0188990D01*
X0333840Y0188746D01*
X0334020Y0188498D01*
X0334193Y0188245D01*
X0334361Y0187987D01*
X0334522Y0187726D01*
X0334676Y0187461D01*
X0334824Y0187192D01*
X0334965Y0186920D01*
X0335100Y0186644D01*
X0335228Y0186366D01*
X0335348Y0186084D01*
X0335462Y0185799D01*
X0335569Y0185511D01*
X0335669Y0185221D01*
X0335762Y0184929D01*
X0335847Y0184634D01*
X0335925Y0184337D01*
X0335996Y0184039D01*
X0336060Y0183739D01*
X0336116Y0183437D01*
X0336165Y0183134D01*
X0336206Y0182830D01*
X0336240Y0182525D01*
X0336266Y0182220D01*
X0336285Y0181913D01*
X0336296Y0181607D01*
X0336300Y0181300D01*
X0336296Y0180993D01*
X0336285Y0180687D01*
X0336266Y0180380D01*
X0336240Y0180075D01*
X0336206Y0179770D01*
X0336165Y0179466D01*
X0336116Y0179163D01*
X0336060Y0178861D01*
X0335996Y0178561D01*
X0335925Y0178263D01*
X0335847Y0177966D01*
X0335762Y0177671D01*
X0335669Y0177379D01*
X0335569Y0177089D01*
X0335462Y0176801D01*
X0335348Y0176516D01*
X0335228Y0176234D01*
X0335100Y0175956D01*
X0334965Y0175680D01*
X0334824Y0175408D01*
X0334676Y0175139D01*
X0334522Y0174874D01*
X0334361Y0174613D01*
X0334193Y0174355D01*
X0334020Y0174102D01*
X0333840Y0173854D01*
X0333654Y0173610D01*
X0333463Y0173370D01*
X0333265Y0173135D01*
X0333062Y0172906D01*
X0332853Y0172681D01*
X0332639Y0172461D01*
X0332419Y0172247D01*
X0332194Y0172038D01*
X0331965Y0171835D01*
X0331730Y0171637D01*
X0331490Y0171446D01*
X0331246Y0171260D01*
X0330998Y0171080D01*
X0330745Y0170907D01*
X0330487Y0170739D01*
X0330226Y0170578D01*
X0329961Y0170424D01*
X0329692Y0170276D01*
X0329420Y0170135D01*
X0329144Y0170000D01*
X0328866Y0169872D01*
X0328584Y0169752D01*
X0328299Y0169638D01*
X0328011Y0169531D01*
X0327721Y0169431D01*
X0327429Y0169338D01*
X0327134Y0169253D01*
X0326837Y0169175D01*
X0326539Y0169104D01*
X0326239Y0169040D01*
X0325937Y0168984D01*
X0325634Y0168935D01*
X0325330Y0168894D01*
X0325025Y0168860D01*
X0324720Y0168834D01*
X0324413Y0168815D01*
X0324107Y0168804D01*
X0323800Y0168800D01*
X0323493Y0168804D01*
X0323187Y0168815D01*
X0322880Y0168834D01*
X0322575Y0168860D01*
X0322270Y0168894D01*
X0321966Y0168935D01*
X0321663Y0168984D01*
X0321361Y0169040D01*
X0321061Y0169104D01*
X0320763Y0169175D01*
X0320466Y0169253D01*
X0320171Y0169338D01*
X0319879Y0169431D01*
X0319589Y0169531D01*
X0319301Y0169638D01*
X0319016Y0169752D01*
X0318734Y0169872D01*
X0318456Y0170000D01*
X0318180Y0170135D01*
X0317908Y0170276D01*
X0317639Y0170424D01*
X0317374Y0170578D01*
X0317113Y0170739D01*
X0316855Y0170907D01*
X0316602Y0171080D01*
X0316354Y0171260D01*
X0316110Y0171446D01*
X0315870Y0171637D01*
X0315635Y0171835D01*
X0315406Y0172038D01*
X0315181Y0172247D01*
X0314961Y0172461D01*
X0314747Y0172681D01*
X0314538Y0172906D01*
X0314335Y0173135D01*
X0314137Y0173370D01*
X0313946Y0173610D01*
X0313760Y0173854D01*
X0313580Y0174102D01*
X0313407Y0174355D01*
X0313239Y0174613D01*
X0313078Y0174874D01*
X0312924Y0175139D01*
X0312776Y0175408D01*
X0312635Y0175680D01*
X0312500Y0175956D01*
X0312372Y0176234D01*
X0312252Y0176516D01*
X0312138Y0176801D01*
X0312031Y0177089D01*
X0311931Y0177379D01*
X0311838Y0177671D01*
X0311753Y0177966D01*
X0311675Y0178263D01*
X0311604Y0178561D01*
X0311540Y0178861D01*
X0311484Y0179163D01*
X0311435Y0179466D01*
X0311394Y0179770D01*
X0311360Y0180075D01*
X0311334Y0180380D01*
X0311315Y0180687D01*
X0311304Y0180993D01*
X0311300Y0181300D01*
X0314550Y0121300D02*
X0314552Y0121466D01*
X0314558Y0121631D01*
X0314568Y0121797D01*
X0314583Y0121962D01*
X0314601Y0122126D01*
X0314623Y0122290D01*
X0314649Y0122454D01*
X0314680Y0122617D01*
X0314714Y0122779D01*
X0314752Y0122940D01*
X0314795Y0123100D01*
X0314841Y0123259D01*
X0314891Y0123417D01*
X0314945Y0123574D01*
X0315002Y0123729D01*
X0315064Y0123883D01*
X0315129Y0124035D01*
X0315198Y0124186D01*
X0315271Y0124335D01*
X0315347Y0124482D01*
X0315427Y0124627D01*
X0315510Y0124770D01*
X0315597Y0124911D01*
X0315688Y0125050D01*
X0315781Y0125187D01*
X0315878Y0125321D01*
X0315979Y0125453D01*
X0316082Y0125582D01*
X0316189Y0125709D01*
X0316299Y0125833D01*
X0316411Y0125954D01*
X0316527Y0126073D01*
X0316646Y0126189D01*
X0316767Y0126301D01*
X0316891Y0126411D01*
X0317018Y0126518D01*
X0317147Y0126621D01*
X0317279Y0126722D01*
X0317413Y0126819D01*
X0317550Y0126912D01*
X0317689Y0127003D01*
X0317830Y0127090D01*
X0317973Y0127173D01*
X0318118Y0127253D01*
X0318265Y0127329D01*
X0318414Y0127402D01*
X0318565Y0127471D01*
X0318717Y0127536D01*
X0318871Y0127598D01*
X0319026Y0127655D01*
X0319183Y0127709D01*
X0319341Y0127759D01*
X0319500Y0127805D01*
X0319660Y0127848D01*
X0319821Y0127886D01*
X0319983Y0127920D01*
X0320146Y0127951D01*
X0320310Y0127977D01*
X0320474Y0127999D01*
X0320638Y0128017D01*
X0320803Y0128032D01*
X0320969Y0128042D01*
X0321134Y0128048D01*
X0321300Y0128050D01*
X0321466Y0128048D01*
X0321631Y0128042D01*
X0321797Y0128032D01*
X0321962Y0128017D01*
X0322126Y0127999D01*
X0322290Y0127977D01*
X0322454Y0127951D01*
X0322617Y0127920D01*
X0322779Y0127886D01*
X0322940Y0127848D01*
X0323100Y0127805D01*
X0323259Y0127759D01*
X0323417Y0127709D01*
X0323574Y0127655D01*
X0323729Y0127598D01*
X0323883Y0127536D01*
X0324035Y0127471D01*
X0324186Y0127402D01*
X0324335Y0127329D01*
X0324482Y0127253D01*
X0324627Y0127173D01*
X0324770Y0127090D01*
X0324911Y0127003D01*
X0325050Y0126912D01*
X0325187Y0126819D01*
X0325321Y0126722D01*
X0325453Y0126621D01*
X0325582Y0126518D01*
X0325709Y0126411D01*
X0325833Y0126301D01*
X0325954Y0126189D01*
X0326073Y0126073D01*
X0326189Y0125954D01*
X0326301Y0125833D01*
X0326411Y0125709D01*
X0326518Y0125582D01*
X0326621Y0125453D01*
X0326722Y0125321D01*
X0326819Y0125187D01*
X0326912Y0125050D01*
X0327003Y0124911D01*
X0327090Y0124770D01*
X0327173Y0124627D01*
X0327253Y0124482D01*
X0327329Y0124335D01*
X0327402Y0124186D01*
X0327471Y0124035D01*
X0327536Y0123883D01*
X0327598Y0123729D01*
X0327655Y0123574D01*
X0327709Y0123417D01*
X0327759Y0123259D01*
X0327805Y0123100D01*
X0327848Y0122940D01*
X0327886Y0122779D01*
X0327920Y0122617D01*
X0327951Y0122454D01*
X0327977Y0122290D01*
X0327999Y0122126D01*
X0328017Y0121962D01*
X0328032Y0121797D01*
X0328042Y0121631D01*
X0328048Y0121466D01*
X0328050Y0121300D01*
X0328048Y0121134D01*
X0328042Y0120969D01*
X0328032Y0120803D01*
X0328017Y0120638D01*
X0327999Y0120474D01*
X0327977Y0120310D01*
X0327951Y0120146D01*
X0327920Y0119983D01*
X0327886Y0119821D01*
X0327848Y0119660D01*
X0327805Y0119500D01*
X0327759Y0119341D01*
X0327709Y0119183D01*
X0327655Y0119026D01*
X0327598Y0118871D01*
X0327536Y0118717D01*
X0327471Y0118565D01*
X0327402Y0118414D01*
X0327329Y0118265D01*
X0327253Y0118118D01*
X0327173Y0117973D01*
X0327090Y0117830D01*
X0327003Y0117689D01*
X0326912Y0117550D01*
X0326819Y0117413D01*
X0326722Y0117279D01*
X0326621Y0117147D01*
X0326518Y0117018D01*
X0326411Y0116891D01*
X0326301Y0116767D01*
X0326189Y0116646D01*
X0326073Y0116527D01*
X0325954Y0116411D01*
X0325833Y0116299D01*
X0325709Y0116189D01*
X0325582Y0116082D01*
X0325453Y0115979D01*
X0325321Y0115878D01*
X0325187Y0115781D01*
X0325050Y0115688D01*
X0324911Y0115597D01*
X0324770Y0115510D01*
X0324627Y0115427D01*
X0324482Y0115347D01*
X0324335Y0115271D01*
X0324186Y0115198D01*
X0324035Y0115129D01*
X0323883Y0115064D01*
X0323729Y0115002D01*
X0323574Y0114945D01*
X0323417Y0114891D01*
X0323259Y0114841D01*
X0323100Y0114795D01*
X0322940Y0114752D01*
X0322779Y0114714D01*
X0322617Y0114680D01*
X0322454Y0114649D01*
X0322290Y0114623D01*
X0322126Y0114601D01*
X0321962Y0114583D01*
X0321797Y0114568D01*
X0321631Y0114558D01*
X0321466Y0114552D01*
X0321300Y0114550D01*
X0321134Y0114552D01*
X0320969Y0114558D01*
X0320803Y0114568D01*
X0320638Y0114583D01*
X0320474Y0114601D01*
X0320310Y0114623D01*
X0320146Y0114649D01*
X0319983Y0114680D01*
X0319821Y0114714D01*
X0319660Y0114752D01*
X0319500Y0114795D01*
X0319341Y0114841D01*
X0319183Y0114891D01*
X0319026Y0114945D01*
X0318871Y0115002D01*
X0318717Y0115064D01*
X0318565Y0115129D01*
X0318414Y0115198D01*
X0318265Y0115271D01*
X0318118Y0115347D01*
X0317973Y0115427D01*
X0317830Y0115510D01*
X0317689Y0115597D01*
X0317550Y0115688D01*
X0317413Y0115781D01*
X0317279Y0115878D01*
X0317147Y0115979D01*
X0317018Y0116082D01*
X0316891Y0116189D01*
X0316767Y0116299D01*
X0316646Y0116411D01*
X0316527Y0116527D01*
X0316411Y0116646D01*
X0316299Y0116767D01*
X0316189Y0116891D01*
X0316082Y0117018D01*
X0315979Y0117147D01*
X0315878Y0117279D01*
X0315781Y0117413D01*
X0315688Y0117550D01*
X0315597Y0117689D01*
X0315510Y0117830D01*
X0315427Y0117973D01*
X0315347Y0118118D01*
X0315271Y0118265D01*
X0315198Y0118414D01*
X0315129Y0118565D01*
X0315064Y0118717D01*
X0315002Y0118871D01*
X0314945Y0119026D01*
X0314891Y0119183D01*
X0314841Y0119341D01*
X0314795Y0119500D01*
X0314752Y0119660D01*
X0314714Y0119821D01*
X0314680Y0119983D01*
X0314649Y0120146D01*
X0314623Y0120310D01*
X0314601Y0120474D01*
X0314583Y0120638D01*
X0314568Y0120803D01*
X0314558Y0120969D01*
X0314552Y0121134D01*
X0314550Y0121300D01*
X0194550Y0111300D02*
X0194552Y0111466D01*
X0194558Y0111631D01*
X0194568Y0111797D01*
X0194583Y0111962D01*
X0194601Y0112126D01*
X0194623Y0112290D01*
X0194649Y0112454D01*
X0194680Y0112617D01*
X0194714Y0112779D01*
X0194752Y0112940D01*
X0194795Y0113100D01*
X0194841Y0113259D01*
X0194891Y0113417D01*
X0194945Y0113574D01*
X0195002Y0113729D01*
X0195064Y0113883D01*
X0195129Y0114035D01*
X0195198Y0114186D01*
X0195271Y0114335D01*
X0195347Y0114482D01*
X0195427Y0114627D01*
X0195510Y0114770D01*
X0195597Y0114911D01*
X0195688Y0115050D01*
X0195781Y0115187D01*
X0195878Y0115321D01*
X0195979Y0115453D01*
X0196082Y0115582D01*
X0196189Y0115709D01*
X0196299Y0115833D01*
X0196411Y0115954D01*
X0196527Y0116073D01*
X0196646Y0116189D01*
X0196767Y0116301D01*
X0196891Y0116411D01*
X0197018Y0116518D01*
X0197147Y0116621D01*
X0197279Y0116722D01*
X0197413Y0116819D01*
X0197550Y0116912D01*
X0197689Y0117003D01*
X0197830Y0117090D01*
X0197973Y0117173D01*
X0198118Y0117253D01*
X0198265Y0117329D01*
X0198414Y0117402D01*
X0198565Y0117471D01*
X0198717Y0117536D01*
X0198871Y0117598D01*
X0199026Y0117655D01*
X0199183Y0117709D01*
X0199341Y0117759D01*
X0199500Y0117805D01*
X0199660Y0117848D01*
X0199821Y0117886D01*
X0199983Y0117920D01*
X0200146Y0117951D01*
X0200310Y0117977D01*
X0200474Y0117999D01*
X0200638Y0118017D01*
X0200803Y0118032D01*
X0200969Y0118042D01*
X0201134Y0118048D01*
X0201300Y0118050D01*
X0201466Y0118048D01*
X0201631Y0118042D01*
X0201797Y0118032D01*
X0201962Y0118017D01*
X0202126Y0117999D01*
X0202290Y0117977D01*
X0202454Y0117951D01*
X0202617Y0117920D01*
X0202779Y0117886D01*
X0202940Y0117848D01*
X0203100Y0117805D01*
X0203259Y0117759D01*
X0203417Y0117709D01*
X0203574Y0117655D01*
X0203729Y0117598D01*
X0203883Y0117536D01*
X0204035Y0117471D01*
X0204186Y0117402D01*
X0204335Y0117329D01*
X0204482Y0117253D01*
X0204627Y0117173D01*
X0204770Y0117090D01*
X0204911Y0117003D01*
X0205050Y0116912D01*
X0205187Y0116819D01*
X0205321Y0116722D01*
X0205453Y0116621D01*
X0205582Y0116518D01*
X0205709Y0116411D01*
X0205833Y0116301D01*
X0205954Y0116189D01*
X0206073Y0116073D01*
X0206189Y0115954D01*
X0206301Y0115833D01*
X0206411Y0115709D01*
X0206518Y0115582D01*
X0206621Y0115453D01*
X0206722Y0115321D01*
X0206819Y0115187D01*
X0206912Y0115050D01*
X0207003Y0114911D01*
X0207090Y0114770D01*
X0207173Y0114627D01*
X0207253Y0114482D01*
X0207329Y0114335D01*
X0207402Y0114186D01*
X0207471Y0114035D01*
X0207536Y0113883D01*
X0207598Y0113729D01*
X0207655Y0113574D01*
X0207709Y0113417D01*
X0207759Y0113259D01*
X0207805Y0113100D01*
X0207848Y0112940D01*
X0207886Y0112779D01*
X0207920Y0112617D01*
X0207951Y0112454D01*
X0207977Y0112290D01*
X0207999Y0112126D01*
X0208017Y0111962D01*
X0208032Y0111797D01*
X0208042Y0111631D01*
X0208048Y0111466D01*
X0208050Y0111300D01*
X0208048Y0111134D01*
X0208042Y0110969D01*
X0208032Y0110803D01*
X0208017Y0110638D01*
X0207999Y0110474D01*
X0207977Y0110310D01*
X0207951Y0110146D01*
X0207920Y0109983D01*
X0207886Y0109821D01*
X0207848Y0109660D01*
X0207805Y0109500D01*
X0207759Y0109341D01*
X0207709Y0109183D01*
X0207655Y0109026D01*
X0207598Y0108871D01*
X0207536Y0108717D01*
X0207471Y0108565D01*
X0207402Y0108414D01*
X0207329Y0108265D01*
X0207253Y0108118D01*
X0207173Y0107973D01*
X0207090Y0107830D01*
X0207003Y0107689D01*
X0206912Y0107550D01*
X0206819Y0107413D01*
X0206722Y0107279D01*
X0206621Y0107147D01*
X0206518Y0107018D01*
X0206411Y0106891D01*
X0206301Y0106767D01*
X0206189Y0106646D01*
X0206073Y0106527D01*
X0205954Y0106411D01*
X0205833Y0106299D01*
X0205709Y0106189D01*
X0205582Y0106082D01*
X0205453Y0105979D01*
X0205321Y0105878D01*
X0205187Y0105781D01*
X0205050Y0105688D01*
X0204911Y0105597D01*
X0204770Y0105510D01*
X0204627Y0105427D01*
X0204482Y0105347D01*
X0204335Y0105271D01*
X0204186Y0105198D01*
X0204035Y0105129D01*
X0203883Y0105064D01*
X0203729Y0105002D01*
X0203574Y0104945D01*
X0203417Y0104891D01*
X0203259Y0104841D01*
X0203100Y0104795D01*
X0202940Y0104752D01*
X0202779Y0104714D01*
X0202617Y0104680D01*
X0202454Y0104649D01*
X0202290Y0104623D01*
X0202126Y0104601D01*
X0201962Y0104583D01*
X0201797Y0104568D01*
X0201631Y0104558D01*
X0201466Y0104552D01*
X0201300Y0104550D01*
X0201134Y0104552D01*
X0200969Y0104558D01*
X0200803Y0104568D01*
X0200638Y0104583D01*
X0200474Y0104601D01*
X0200310Y0104623D01*
X0200146Y0104649D01*
X0199983Y0104680D01*
X0199821Y0104714D01*
X0199660Y0104752D01*
X0199500Y0104795D01*
X0199341Y0104841D01*
X0199183Y0104891D01*
X0199026Y0104945D01*
X0198871Y0105002D01*
X0198717Y0105064D01*
X0198565Y0105129D01*
X0198414Y0105198D01*
X0198265Y0105271D01*
X0198118Y0105347D01*
X0197973Y0105427D01*
X0197830Y0105510D01*
X0197689Y0105597D01*
X0197550Y0105688D01*
X0197413Y0105781D01*
X0197279Y0105878D01*
X0197147Y0105979D01*
X0197018Y0106082D01*
X0196891Y0106189D01*
X0196767Y0106299D01*
X0196646Y0106411D01*
X0196527Y0106527D01*
X0196411Y0106646D01*
X0196299Y0106767D01*
X0196189Y0106891D01*
X0196082Y0107018D01*
X0195979Y0107147D01*
X0195878Y0107279D01*
X0195781Y0107413D01*
X0195688Y0107550D01*
X0195597Y0107689D01*
X0195510Y0107830D01*
X0195427Y0107973D01*
X0195347Y0108118D01*
X0195271Y0108265D01*
X0195198Y0108414D01*
X0195129Y0108565D01*
X0195064Y0108717D01*
X0195002Y0108871D01*
X0194945Y0109026D01*
X0194891Y0109183D01*
X0194841Y0109341D01*
X0194795Y0109500D01*
X0194752Y0109660D01*
X0194714Y0109821D01*
X0194680Y0109983D01*
X0194649Y0110146D01*
X0194623Y0110310D01*
X0194601Y0110474D01*
X0194583Y0110638D01*
X0194568Y0110803D01*
X0194558Y0110969D01*
X0194552Y0111134D01*
X0194550Y0111300D01*
X0143800Y0025300D02*
X0143800Y0017300D01*
X0139800Y0021300D02*
X0147800Y0021300D01*
D11*
X0001300Y0181300D02*
X0001354Y0185717D01*
X0001517Y0190132D01*
X0001788Y0194542D01*
X0002167Y0198943D01*
X0002654Y0203334D01*
X0003248Y0207711D01*
X0003950Y0212073D01*
X0004759Y0216416D01*
X0005674Y0220738D01*
X0006694Y0225036D01*
X0007820Y0229308D01*
X0009051Y0233551D01*
X0010385Y0237763D01*
X0011822Y0241940D01*
X0013361Y0246081D01*
X0015002Y0250183D01*
X0016742Y0254243D01*
X0018582Y0258260D01*
X0020520Y0262230D01*
X0022554Y0266151D01*
X0024684Y0270022D01*
X0026909Y0273838D01*
X0029226Y0277600D01*
X0031635Y0281303D01*
X0034135Y0284945D01*
X0036723Y0288526D01*
X0039398Y0292042D01*
X0042158Y0295491D01*
X0045002Y0298871D01*
X0047929Y0302181D01*
X0050936Y0305417D01*
X0054021Y0308579D01*
X0057183Y0311664D01*
X0060419Y0314671D01*
X0063729Y0317598D01*
X0067109Y0320442D01*
X0070558Y0323202D01*
X0074074Y0325877D01*
X0077655Y0328465D01*
X0081297Y0330965D01*
X0085000Y0333374D01*
X0088762Y0335691D01*
X0092578Y0337916D01*
X0096449Y0340046D01*
X0100370Y0342080D01*
X0104340Y0344018D01*
X0108357Y0345858D01*
X0112417Y0347598D01*
X0116519Y0349239D01*
X0120660Y0350778D01*
X0124837Y0352215D01*
X0129049Y0353549D01*
X0133292Y0354780D01*
X0137564Y0355906D01*
X0141862Y0356926D01*
X0146184Y0357841D01*
X0150527Y0358650D01*
X0154889Y0359352D01*
X0159266Y0359946D01*
X0163657Y0360433D01*
X0168058Y0360812D01*
X0172468Y0361083D01*
X0176883Y0361246D01*
X0181300Y0361300D01*
X0185717Y0361246D01*
X0190132Y0361083D01*
X0194542Y0360812D01*
X0198943Y0360433D01*
X0203334Y0359946D01*
X0207711Y0359352D01*
X0212073Y0358650D01*
X0216416Y0357841D01*
X0220738Y0356926D01*
X0225036Y0355906D01*
X0229308Y0354780D01*
X0233551Y0353549D01*
X0237763Y0352215D01*
X0241940Y0350778D01*
X0246081Y0349239D01*
X0250183Y0347598D01*
X0254243Y0345858D01*
X0258260Y0344018D01*
X0262230Y0342080D01*
X0266151Y0340046D01*
X0270022Y0337916D01*
X0273838Y0335691D01*
X0277600Y0333374D01*
X0281303Y0330965D01*
X0284945Y0328465D01*
X0288526Y0325877D01*
X0292042Y0323202D01*
X0295491Y0320442D01*
X0298871Y0317598D01*
X0302181Y0314671D01*
X0305417Y0311664D01*
X0308579Y0308579D01*
X0311664Y0305417D01*
X0314671Y0302181D01*
X0317598Y0298871D01*
X0320442Y0295491D01*
X0323202Y0292042D01*
X0325877Y0288526D01*
X0328465Y0284945D01*
X0330965Y0281303D01*
X0333374Y0277600D01*
X0335691Y0273838D01*
X0337916Y0270022D01*
X0340046Y0266151D01*
X0342080Y0262230D01*
X0344018Y0258260D01*
X0345858Y0254243D01*
X0347598Y0250183D01*
X0349239Y0246081D01*
X0350778Y0241940D01*
X0352215Y0237763D01*
X0353549Y0233551D01*
X0354780Y0229308D01*
X0355906Y0225036D01*
X0356926Y0220738D01*
X0357841Y0216416D01*
X0358650Y0212073D01*
X0359352Y0207711D01*
X0359946Y0203334D01*
X0360433Y0198943D01*
X0360812Y0194542D01*
X0361083Y0190132D01*
X0361246Y0185717D01*
X0361300Y0181300D01*
X0361246Y0176883D01*
X0361083Y0172468D01*
X0360812Y0168058D01*
X0360433Y0163657D01*
X0359946Y0159266D01*
X0359352Y0154889D01*
X0358650Y0150527D01*
X0357841Y0146184D01*
X0356926Y0141862D01*
X0355906Y0137564D01*
X0354780Y0133292D01*
X0353549Y0129049D01*
X0352215Y0124837D01*
X0350778Y0120660D01*
X0349239Y0116519D01*
X0347598Y0112417D01*
X0345858Y0108357D01*
X0344018Y0104340D01*
X0342080Y0100370D01*
X0340046Y0096449D01*
X0337916Y0092578D01*
X0335691Y0088762D01*
X0333374Y0085000D01*
X0330965Y0081297D01*
X0328465Y0077655D01*
X0325877Y0074074D01*
X0323202Y0070558D01*
X0320442Y0067109D01*
X0317598Y0063729D01*
X0314671Y0060419D01*
X0311664Y0057183D01*
X0308579Y0054021D01*
X0305417Y0050936D01*
X0302181Y0047929D01*
X0298871Y0045002D01*
X0295491Y0042158D01*
X0292042Y0039398D01*
X0288526Y0036723D01*
X0284945Y0034135D01*
X0281303Y0031635D01*
X0277600Y0029226D01*
X0273838Y0026909D01*
X0270022Y0024684D01*
X0266151Y0022554D01*
X0262230Y0020520D01*
X0258260Y0018582D01*
X0254243Y0016742D01*
X0250183Y0015002D01*
X0246081Y0013361D01*
X0241940Y0011822D01*
X0237763Y0010385D01*
X0233551Y0009051D01*
X0229308Y0007820D01*
X0225036Y0006694D01*
X0220738Y0005674D01*
X0216416Y0004759D01*
X0212073Y0003950D01*
X0207711Y0003248D01*
X0203334Y0002654D01*
X0198943Y0002167D01*
X0194542Y0001788D01*
X0190132Y0001517D01*
X0185717Y0001354D01*
X0181300Y0001300D01*
X0176883Y0001354D01*
X0172468Y0001517D01*
X0168058Y0001788D01*
X0163657Y0002167D01*
X0159266Y0002654D01*
X0154889Y0003248D01*
X0150527Y0003950D01*
X0146184Y0004759D01*
X0141862Y0005674D01*
X0137564Y0006694D01*
X0133292Y0007820D01*
X0129049Y0009051D01*
X0124837Y0010385D01*
X0120660Y0011822D01*
X0116519Y0013361D01*
X0112417Y0015002D01*
X0108357Y0016742D01*
X0104340Y0018582D01*
X0100370Y0020520D01*
X0096449Y0022554D01*
X0092578Y0024684D01*
X0088762Y0026909D01*
X0085000Y0029226D01*
X0081297Y0031635D01*
X0077655Y0034135D01*
X0074074Y0036723D01*
X0070558Y0039398D01*
X0067109Y0042158D01*
X0063729Y0045002D01*
X0060419Y0047929D01*
X0057183Y0050936D01*
X0054021Y0054021D01*
X0050936Y0057183D01*
X0047929Y0060419D01*
X0045002Y0063729D01*
X0042158Y0067109D01*
X0039398Y0070558D01*
X0036723Y0074074D01*
X0034135Y0077655D01*
X0031635Y0081297D01*
X0029226Y0085000D01*
X0026909Y0088762D01*
X0024684Y0092578D01*
X0022554Y0096449D01*
X0020520Y0100370D01*
X0018582Y0104340D01*
X0016742Y0108357D01*
X0015002Y0112417D01*
X0013361Y0116519D01*
X0011822Y0120660D01*
X0010385Y0124837D01*
X0009051Y0129049D01*
X0007820Y0133292D01*
X0006694Y0137564D01*
X0005674Y0141862D01*
X0004759Y0146184D01*
X0003950Y0150527D01*
X0003248Y0154889D01*
X0002654Y0159266D01*
X0002167Y0163657D01*
X0001788Y0168058D01*
X0001517Y0172468D01*
X0001354Y0176883D01*
X0001300Y0181300D01*
X0060800Y0238300D02*
X0060800Y0287300D01*
X0064300Y0287300D01*
X0064300Y0293300D01*
X0060800Y0293300D01*
X0060800Y0300800D01*
X0101800Y0300800D01*
X0101800Y0293300D01*
X0098300Y0293300D01*
X0098300Y0287300D01*
X0101800Y0287300D01*
X0101800Y0238300D01*
X0060800Y0238300D01*
X0074200Y0287300D02*
X0074202Y0287474D01*
X0074209Y0287648D01*
X0074219Y0287822D01*
X0074234Y0287996D01*
X0074253Y0288169D01*
X0074277Y0288342D01*
X0074305Y0288514D01*
X0074336Y0288685D01*
X0074373Y0288856D01*
X0074413Y0289025D01*
X0074457Y0289194D01*
X0074506Y0289361D01*
X0074558Y0289527D01*
X0074615Y0289692D01*
X0074676Y0289855D01*
X0074740Y0290017D01*
X0074809Y0290177D01*
X0074882Y0290336D01*
X0074958Y0290492D01*
X0075038Y0290647D01*
X0075122Y0290800D01*
X0075210Y0290950D01*
X0075302Y0291098D01*
X0075397Y0291245D01*
X0075495Y0291388D01*
X0075597Y0291529D01*
X0075703Y0291668D01*
X0075812Y0291804D01*
X0075924Y0291938D01*
X0076039Y0292068D01*
X0076158Y0292196D01*
X0076280Y0292320D01*
X0076404Y0292442D01*
X0076532Y0292561D01*
X0076662Y0292676D01*
X0076796Y0292788D01*
X0076932Y0292897D01*
X0077071Y0293003D01*
X0077212Y0293105D01*
X0077355Y0293203D01*
X0077502Y0293298D01*
X0077650Y0293390D01*
X0077800Y0293478D01*
X0077953Y0293562D01*
X0078108Y0293642D01*
X0078264Y0293718D01*
X0078423Y0293791D01*
X0078583Y0293860D01*
X0078745Y0293924D01*
X0078908Y0293985D01*
X0079073Y0294042D01*
X0079239Y0294094D01*
X0079406Y0294143D01*
X0079575Y0294187D01*
X0079744Y0294227D01*
X0079915Y0294264D01*
X0080086Y0294295D01*
X0080258Y0294323D01*
X0080431Y0294347D01*
X0080604Y0294366D01*
X0080778Y0294381D01*
X0080952Y0294391D01*
X0081126Y0294398D01*
X0081300Y0294400D01*
X0081474Y0294398D01*
X0081648Y0294391D01*
X0081822Y0294381D01*
X0081996Y0294366D01*
X0082169Y0294347D01*
X0082342Y0294323D01*
X0082514Y0294295D01*
X0082685Y0294264D01*
X0082856Y0294227D01*
X0083025Y0294187D01*
X0083194Y0294143D01*
X0083361Y0294094D01*
X0083527Y0294042D01*
X0083692Y0293985D01*
X0083855Y0293924D01*
X0084017Y0293860D01*
X0084177Y0293791D01*
X0084336Y0293718D01*
X0084492Y0293642D01*
X0084647Y0293562D01*
X0084800Y0293478D01*
X0084950Y0293390D01*
X0085098Y0293298D01*
X0085245Y0293203D01*
X0085388Y0293105D01*
X0085529Y0293003D01*
X0085668Y0292897D01*
X0085804Y0292788D01*
X0085938Y0292676D01*
X0086068Y0292561D01*
X0086196Y0292442D01*
X0086320Y0292320D01*
X0086442Y0292196D01*
X0086561Y0292068D01*
X0086676Y0291938D01*
X0086788Y0291804D01*
X0086897Y0291668D01*
X0087003Y0291529D01*
X0087105Y0291388D01*
X0087203Y0291245D01*
X0087298Y0291098D01*
X0087390Y0290950D01*
X0087478Y0290800D01*
X0087562Y0290647D01*
X0087642Y0290492D01*
X0087718Y0290336D01*
X0087791Y0290177D01*
X0087860Y0290017D01*
X0087924Y0289855D01*
X0087985Y0289692D01*
X0088042Y0289527D01*
X0088094Y0289361D01*
X0088143Y0289194D01*
X0088187Y0289025D01*
X0088227Y0288856D01*
X0088264Y0288685D01*
X0088295Y0288514D01*
X0088323Y0288342D01*
X0088347Y0288169D01*
X0088366Y0287996D01*
X0088381Y0287822D01*
X0088391Y0287648D01*
X0088398Y0287474D01*
X0088400Y0287300D01*
X0088398Y0287126D01*
X0088391Y0286952D01*
X0088381Y0286778D01*
X0088366Y0286604D01*
X0088347Y0286431D01*
X0088323Y0286258D01*
X0088295Y0286086D01*
X0088264Y0285915D01*
X0088227Y0285744D01*
X0088187Y0285575D01*
X0088143Y0285406D01*
X0088094Y0285239D01*
X0088042Y0285073D01*
X0087985Y0284908D01*
X0087924Y0284745D01*
X0087860Y0284583D01*
X0087791Y0284423D01*
X0087718Y0284264D01*
X0087642Y0284108D01*
X0087562Y0283953D01*
X0087478Y0283800D01*
X0087390Y0283650D01*
X0087298Y0283502D01*
X0087203Y0283355D01*
X0087105Y0283212D01*
X0087003Y0283071D01*
X0086897Y0282932D01*
X0086788Y0282796D01*
X0086676Y0282662D01*
X0086561Y0282532D01*
X0086442Y0282404D01*
X0086320Y0282280D01*
X0086196Y0282158D01*
X0086068Y0282039D01*
X0085938Y0281924D01*
X0085804Y0281812D01*
X0085668Y0281703D01*
X0085529Y0281597D01*
X0085388Y0281495D01*
X0085245Y0281397D01*
X0085098Y0281302D01*
X0084950Y0281210D01*
X0084800Y0281122D01*
X0084647Y0281038D01*
X0084492Y0280958D01*
X0084336Y0280882D01*
X0084177Y0280809D01*
X0084017Y0280740D01*
X0083855Y0280676D01*
X0083692Y0280615D01*
X0083527Y0280558D01*
X0083361Y0280506D01*
X0083194Y0280457D01*
X0083025Y0280413D01*
X0082856Y0280373D01*
X0082685Y0280336D01*
X0082514Y0280305D01*
X0082342Y0280277D01*
X0082169Y0280253D01*
X0081996Y0280234D01*
X0081822Y0280219D01*
X0081648Y0280209D01*
X0081474Y0280202D01*
X0081300Y0280200D01*
X0081126Y0280202D01*
X0080952Y0280209D01*
X0080778Y0280219D01*
X0080604Y0280234D01*
X0080431Y0280253D01*
X0080258Y0280277D01*
X0080086Y0280305D01*
X0079915Y0280336D01*
X0079744Y0280373D01*
X0079575Y0280413D01*
X0079406Y0280457D01*
X0079239Y0280506D01*
X0079073Y0280558D01*
X0078908Y0280615D01*
X0078745Y0280676D01*
X0078583Y0280740D01*
X0078423Y0280809D01*
X0078264Y0280882D01*
X0078108Y0280958D01*
X0077953Y0281038D01*
X0077800Y0281122D01*
X0077650Y0281210D01*
X0077502Y0281302D01*
X0077355Y0281397D01*
X0077212Y0281495D01*
X0077071Y0281597D01*
X0076932Y0281703D01*
X0076796Y0281812D01*
X0076662Y0281924D01*
X0076532Y0282039D01*
X0076404Y0282158D01*
X0076280Y0282280D01*
X0076158Y0282404D01*
X0076039Y0282532D01*
X0075924Y0282662D01*
X0075812Y0282796D01*
X0075703Y0282932D01*
X0075597Y0283071D01*
X0075495Y0283212D01*
X0075397Y0283355D01*
X0075302Y0283502D01*
X0075210Y0283650D01*
X0075122Y0283800D01*
X0075038Y0283953D01*
X0074958Y0284108D01*
X0074882Y0284264D01*
X0074809Y0284423D01*
X0074740Y0284583D01*
X0074676Y0284745D01*
X0074615Y0284908D01*
X0074558Y0285073D01*
X0074506Y0285239D01*
X0074457Y0285406D01*
X0074413Y0285575D01*
X0074373Y0285744D01*
X0074336Y0285915D01*
X0074305Y0286086D01*
X0074277Y0286258D01*
X0074253Y0286431D01*
X0074234Y0286604D01*
X0074219Y0286778D01*
X0074209Y0286952D01*
X0074202Y0287126D01*
X0074200Y0287300D01*
X0164100Y0308100D02*
X0168370Y0308100D01*
X0170545Y0309168D02*
X0171613Y0308100D01*
X0173748Y0308100D01*
X0174816Y0309168D01*
X0174816Y0311303D01*
X0173748Y0312370D01*
X0171613Y0312370D01*
X0170545Y0311303D01*
X0170545Y0309168D01*
X0176991Y0308100D02*
X0176991Y0312370D01*
X0180194Y0312370D01*
X0181261Y0311303D01*
X0181261Y0308100D01*
X0183436Y0309168D02*
X0184504Y0308100D01*
X0187707Y0308100D01*
X0187707Y0307032D02*
X0187707Y0312370D01*
X0184504Y0312370D01*
X0183436Y0311303D01*
X0183436Y0309168D01*
X0185572Y0305965D02*
X0186639Y0305965D01*
X0187707Y0307032D01*
X0189882Y0308100D02*
X0189882Y0314505D01*
X0190950Y0312370D02*
X0193085Y0312370D01*
X0194152Y0311303D01*
X0194152Y0308100D01*
X0196327Y0309168D02*
X0197395Y0308100D01*
X0199530Y0308100D01*
X0200598Y0309168D01*
X0200598Y0311303D01*
X0199530Y0312370D01*
X0197395Y0312370D01*
X0196327Y0311303D01*
X0196327Y0309168D01*
X0202773Y0310235D02*
X0204908Y0312370D01*
X0205976Y0312370D01*
X0208144Y0312370D02*
X0211347Y0312370D01*
X0212415Y0311303D01*
X0212415Y0308100D01*
X0208144Y0308100D02*
X0208144Y0312370D01*
X0202773Y0312370D02*
X0202773Y0308100D01*
X0190950Y0312370D02*
X0189882Y0311303D01*
X0164100Y0314505D02*
X0164100Y0308100D01*
X0221035Y0308100D02*
X0221035Y0314505D01*
X0224238Y0314505D01*
X0225306Y0313438D01*
X0225306Y0311303D01*
X0224238Y0310235D01*
X0221035Y0310235D01*
X0223170Y0310235D02*
X0225306Y0308100D01*
X0227481Y0309168D02*
X0228548Y0308100D01*
X0230683Y0308100D01*
X0231751Y0309168D01*
X0231751Y0311303D01*
X0230683Y0312370D01*
X0228548Y0312370D01*
X0227481Y0311303D01*
X0227481Y0309168D01*
X0233926Y0309168D02*
X0234994Y0308100D01*
X0238197Y0308100D01*
X0240372Y0308100D02*
X0240372Y0314505D01*
X0238197Y0312370D02*
X0234994Y0312370D01*
X0233926Y0311303D01*
X0233926Y0309168D01*
X0240372Y0310235D02*
X0243574Y0312370D01*
X0245743Y0311303D02*
X0246811Y0312370D01*
X0248946Y0312370D01*
X0250013Y0311303D01*
X0250013Y0310235D01*
X0245743Y0310235D01*
X0245743Y0309168D02*
X0245743Y0311303D01*
X0245743Y0309168D02*
X0246811Y0308100D01*
X0248946Y0308100D01*
X0253256Y0309168D02*
X0254324Y0308100D01*
X0253256Y0309168D02*
X0253256Y0313438D01*
X0252188Y0312370D02*
X0254324Y0312370D01*
X0256485Y0312370D02*
X0256485Y0308100D01*
X0256485Y0310235D02*
X0258621Y0312370D01*
X0259688Y0312370D01*
X0261857Y0312370D02*
X0261857Y0309168D01*
X0262924Y0308100D01*
X0266127Y0308100D01*
X0266127Y0307032D02*
X0265059Y0305965D01*
X0263992Y0305965D01*
X0266127Y0307032D02*
X0266127Y0312370D01*
X0274748Y0312370D02*
X0274748Y0308100D01*
X0274748Y0311303D02*
X0279018Y0311303D01*
X0279018Y0312370D02*
X0279018Y0308100D01*
X0281193Y0308100D02*
X0284396Y0308100D01*
X0285464Y0309168D01*
X0284396Y0310235D01*
X0282261Y0310235D01*
X0281193Y0311303D01*
X0282261Y0312370D01*
X0285464Y0312370D01*
X0287639Y0311303D02*
X0288706Y0312370D01*
X0291909Y0312370D01*
X0290841Y0310235D02*
X0288706Y0310235D01*
X0287639Y0311303D01*
X0287639Y0308100D02*
X0290841Y0308100D01*
X0291909Y0309168D01*
X0290841Y0310235D01*
X0294084Y0309168D02*
X0295152Y0308100D01*
X0297287Y0308100D01*
X0298355Y0309168D01*
X0298355Y0311303D01*
X0297287Y0312370D01*
X0295152Y0312370D01*
X0294084Y0311303D01*
X0294084Y0309168D01*
X0300530Y0308100D02*
X0302665Y0308100D01*
X0301597Y0308100D02*
X0301597Y0312370D01*
X0300530Y0312370D01*
X0301597Y0314505D02*
X0301597Y0315573D01*
X0304827Y0311303D02*
X0305894Y0312370D01*
X0309097Y0312370D01*
X0312340Y0312370D02*
X0314475Y0312370D01*
X0315542Y0311303D01*
X0315542Y0308100D01*
X0312340Y0308100D01*
X0311272Y0309168D01*
X0312340Y0310235D01*
X0315542Y0310235D01*
X0317718Y0312370D02*
X0319853Y0312370D01*
X0318785Y0313438D02*
X0318785Y0309168D01*
X0319853Y0308100D01*
X0322015Y0308100D02*
X0324150Y0308100D01*
X0323082Y0308100D02*
X0323082Y0312370D01*
X0322015Y0312370D01*
X0323082Y0314505D02*
X0323082Y0315573D01*
X0326312Y0311303D02*
X0327379Y0312370D01*
X0329514Y0312370D01*
X0330582Y0311303D01*
X0330582Y0309168D01*
X0329514Y0308100D01*
X0327379Y0308100D01*
X0326312Y0309168D01*
X0326312Y0311303D01*
X0332757Y0312370D02*
X0332757Y0308100D01*
X0337027Y0308100D02*
X0337027Y0311303D01*
X0335960Y0312370D01*
X0332757Y0312370D01*
X0309097Y0308100D02*
X0305894Y0308100D01*
X0304827Y0309168D01*
X0304827Y0311303D01*
X0279018Y0312370D02*
X0276883Y0314505D01*
X0274748Y0312370D01*
X0243574Y0308100D02*
X0240372Y0310235D01*
D12*
X0239921Y0304155D02*
X0238904Y0303138D01*
X0238904Y0298050D01*
X0235879Y0299068D02*
X0235879Y0301103D01*
X0234862Y0302120D01*
X0232827Y0302120D01*
X0231809Y0301103D01*
X0231809Y0299068D01*
X0232827Y0298050D01*
X0234862Y0298050D01*
X0235879Y0299068D01*
X0237886Y0301103D02*
X0239921Y0301103D01*
X0248015Y0304155D02*
X0252085Y0304155D01*
X0250050Y0304155D02*
X0250050Y0298050D01*
X0254092Y0299068D02*
X0254092Y0301103D01*
X0255110Y0302120D01*
X0257145Y0302120D01*
X0258162Y0301103D01*
X0258162Y0300085D01*
X0254092Y0300085D01*
X0254092Y0299068D02*
X0255110Y0298050D01*
X0257145Y0298050D01*
X0260169Y0298050D02*
X0264239Y0302120D01*
X0267264Y0302120D02*
X0269299Y0302120D01*
X0270317Y0301103D01*
X0270317Y0298050D01*
X0267264Y0298050D01*
X0266246Y0299068D01*
X0267264Y0300085D01*
X0270317Y0300085D01*
X0272324Y0301103D02*
X0273341Y0302120D01*
X0276394Y0302120D01*
X0275376Y0300085D02*
X0273341Y0300085D01*
X0272324Y0301103D01*
X0272324Y0298050D02*
X0275376Y0298050D01*
X0276394Y0299068D01*
X0275376Y0300085D01*
X0284478Y0299068D02*
X0285496Y0300085D01*
X0288548Y0300085D01*
X0288548Y0301103D02*
X0288548Y0298050D01*
X0285496Y0298050D01*
X0284478Y0299068D01*
X0285496Y0302120D02*
X0287531Y0302120D01*
X0288548Y0301103D01*
X0290555Y0302120D02*
X0292590Y0302120D01*
X0291573Y0303138D02*
X0291573Y0299068D01*
X0292590Y0298050D01*
X0300684Y0298050D02*
X0300684Y0302120D01*
X0302719Y0304155D01*
X0304754Y0302120D01*
X0304754Y0298050D01*
X0306761Y0299068D02*
X0307779Y0298050D01*
X0310831Y0298050D01*
X0310831Y0302120D01*
X0312838Y0301103D02*
X0313856Y0300085D01*
X0315891Y0300085D01*
X0316908Y0299068D01*
X0315891Y0298050D01*
X0312838Y0298050D01*
X0312838Y0301103D02*
X0313856Y0302120D01*
X0316908Y0302120D01*
X0318915Y0302120D02*
X0320950Y0302120D01*
X0319933Y0303138D02*
X0319933Y0299068D01*
X0320950Y0298050D01*
X0322967Y0298050D02*
X0325002Y0298050D01*
X0323984Y0298050D02*
X0323984Y0302120D01*
X0322967Y0302120D01*
X0323984Y0304155D02*
X0323984Y0305173D01*
X0327018Y0302120D02*
X0330071Y0302120D01*
X0331088Y0301103D01*
X0331088Y0298050D01*
X0327018Y0298050D02*
X0327018Y0302120D01*
X0306761Y0302120D02*
X0306761Y0299068D01*
X0304754Y0301103D02*
X0300684Y0301103D01*
X0273800Y0328800D02*
X0273800Y0258800D01*
X0223800Y0258800D01*
X0223800Y0328800D01*
X0273800Y0328800D01*
X0260169Y0302120D02*
X0264239Y0298050D01*
X0223725Y0298050D02*
X0220672Y0298050D01*
X0219655Y0299068D01*
X0219655Y0302120D01*
X0217638Y0302120D02*
X0215603Y0302120D01*
X0216621Y0303138D02*
X0216621Y0299068D01*
X0217638Y0298050D01*
X0221690Y0296015D02*
X0222707Y0296015D01*
X0223725Y0297032D01*
X0223725Y0302120D01*
X0213587Y0298050D02*
X0211552Y0298050D01*
X0212569Y0298050D02*
X0212569Y0302120D01*
X0211552Y0302120D01*
X0209545Y0302120D02*
X0206492Y0302120D01*
X0205475Y0301103D01*
X0206492Y0300085D01*
X0208527Y0300085D01*
X0209545Y0299068D01*
X0208527Y0298050D01*
X0205475Y0298050D01*
X0203463Y0302120D02*
X0202445Y0302120D01*
X0200410Y0300085D01*
X0198403Y0300085D02*
X0198403Y0301103D01*
X0197386Y0302120D01*
X0195351Y0302120D01*
X0194333Y0301103D01*
X0194333Y0299068D01*
X0195351Y0298050D01*
X0197386Y0298050D01*
X0198403Y0300085D02*
X0194333Y0300085D01*
X0192326Y0302120D02*
X0190291Y0298050D01*
X0188256Y0302120D01*
X0185222Y0302120D02*
X0185222Y0298050D01*
X0186239Y0298050D02*
X0184204Y0298050D01*
X0182197Y0298050D02*
X0182197Y0301103D01*
X0181180Y0302120D01*
X0178127Y0302120D01*
X0178127Y0298050D01*
X0176120Y0299068D02*
X0176120Y0304155D01*
X0172050Y0304155D02*
X0172050Y0299068D01*
X0173068Y0298050D01*
X0175103Y0298050D01*
X0176120Y0299068D01*
X0184204Y0302120D02*
X0185222Y0302120D01*
X0185222Y0304155D02*
X0185222Y0305173D01*
X0200410Y0302120D02*
X0200410Y0298050D01*
X0212569Y0304155D02*
X0212569Y0305173D01*
X0218800Y0343800D02*
X0118800Y0343800D01*
X0118800Y0218800D01*
X0218800Y0218800D01*
X0218800Y0343800D01*
D13*
X0213541Y0292704D02*
X0211806Y0292704D01*
X0210938Y0291837D01*
X0210938Y0288367D01*
X0211806Y0287500D01*
X0213541Y0287500D01*
X0214408Y0288367D01*
X0216095Y0288367D02*
X0216962Y0287500D01*
X0218697Y0287500D01*
X0219564Y0288367D01*
X0219564Y0290102D01*
X0218697Y0290970D01*
X0216962Y0290970D01*
X0216095Y0290102D01*
X0216095Y0288367D01*
X0214408Y0291837D02*
X0213541Y0292704D01*
X0204079Y0290970D02*
X0202344Y0290970D01*
X0203212Y0291837D02*
X0203212Y0288367D01*
X0204079Y0287500D01*
X0200658Y0287500D02*
X0200658Y0290102D01*
X0199790Y0290970D01*
X0198055Y0290970D01*
X0197188Y0290102D01*
X0195501Y0290970D02*
X0195501Y0286633D01*
X0194634Y0285765D01*
X0193766Y0285765D01*
X0192899Y0287500D02*
X0192032Y0288367D01*
X0192032Y0290102D01*
X0192899Y0290970D01*
X0195501Y0290970D01*
X0197188Y0292704D02*
X0197188Y0287500D01*
X0195501Y0287500D02*
X0192899Y0287500D01*
X0190329Y0287500D02*
X0188594Y0287500D01*
X0189461Y0287500D02*
X0189461Y0290970D01*
X0188594Y0290970D01*
X0189461Y0292704D02*
X0189461Y0293572D01*
X0186024Y0292704D02*
X0186024Y0287500D01*
X0186891Y0287500D02*
X0185156Y0287500D01*
X0181735Y0290102D02*
X0180000Y0290102D01*
X0180000Y0287500D02*
X0180000Y0292704D01*
X0183470Y0292704D01*
X0185156Y0292704D02*
X0186024Y0292704D01*
X0221251Y0290970D02*
X0221251Y0287500D01*
X0222986Y0287500D02*
X0222986Y0290102D01*
X0223853Y0290970D01*
X0224721Y0290102D01*
X0224721Y0287500D01*
X0226408Y0287500D02*
X0229010Y0287500D01*
X0229877Y0288367D01*
X0229877Y0290102D01*
X0229010Y0290970D01*
X0226408Y0290970D01*
X0226408Y0285765D01*
X0231564Y0288367D02*
X0232431Y0287500D01*
X0235034Y0287500D01*
X0235034Y0290970D01*
X0236720Y0290970D02*
X0238455Y0290970D01*
X0237588Y0291837D02*
X0237588Y0288367D01*
X0238455Y0287500D01*
X0240158Y0288367D02*
X0240158Y0290102D01*
X0241025Y0290970D01*
X0242760Y0290970D01*
X0243628Y0290102D01*
X0243628Y0289235D01*
X0240158Y0289235D01*
X0240158Y0288367D02*
X0241025Y0287500D01*
X0242760Y0287500D01*
X0245314Y0287500D02*
X0245314Y0290970D01*
X0245314Y0289235D02*
X0247049Y0290970D01*
X0247917Y0290970D01*
X0254768Y0290970D02*
X0255635Y0290102D01*
X0257370Y0290102D01*
X0258237Y0289235D01*
X0258237Y0288367D01*
X0257370Y0287500D01*
X0255635Y0287500D01*
X0254768Y0288367D01*
X0254768Y0290970D02*
X0254768Y0291837D01*
X0255635Y0292704D01*
X0257370Y0292704D01*
X0258237Y0291837D01*
X0259924Y0292704D02*
X0262526Y0292704D01*
X0263394Y0291837D01*
X0263394Y0288367D01*
X0262526Y0287500D01*
X0259924Y0287500D01*
X0259924Y0292704D01*
X0270237Y0291837D02*
X0270237Y0288367D01*
X0271104Y0287500D01*
X0272839Y0287500D01*
X0273707Y0288367D01*
X0275393Y0288367D02*
X0276261Y0289235D01*
X0278863Y0289235D01*
X0278863Y0290102D02*
X0278863Y0287500D01*
X0276261Y0287500D01*
X0275393Y0288367D01*
X0276261Y0290970D02*
X0277996Y0290970D01*
X0278863Y0290102D01*
X0280550Y0289235D02*
X0282285Y0290970D01*
X0283152Y0290970D01*
X0284847Y0290102D02*
X0285714Y0290970D01*
X0288316Y0290970D01*
X0288316Y0292704D02*
X0288316Y0287500D01*
X0285714Y0287500D01*
X0284847Y0288367D01*
X0284847Y0290102D01*
X0280550Y0290970D02*
X0280550Y0287500D01*
X0273707Y0291837D02*
X0272839Y0292704D01*
X0271104Y0292704D01*
X0270237Y0291837D01*
X0295160Y0292704D02*
X0295160Y0287500D01*
X0297762Y0287500D01*
X0298629Y0288367D01*
X0298629Y0289235D01*
X0297762Y0290102D01*
X0295160Y0290102D01*
X0297762Y0290102D02*
X0298629Y0290970D01*
X0298629Y0291837D01*
X0297762Y0292704D01*
X0295160Y0292704D01*
X0300316Y0290102D02*
X0300316Y0288367D01*
X0301183Y0287500D01*
X0302918Y0287500D01*
X0303786Y0288367D01*
X0303786Y0290102D01*
X0302918Y0290970D01*
X0301183Y0290970D01*
X0300316Y0290102D01*
X0305472Y0288367D02*
X0306340Y0289235D01*
X0308942Y0289235D01*
X0308942Y0290102D02*
X0308942Y0287500D01*
X0306340Y0287500D01*
X0305472Y0288367D01*
X0306340Y0290970D02*
X0308075Y0290970D01*
X0308942Y0290102D01*
X0310629Y0289235D02*
X0312364Y0290970D01*
X0313231Y0290970D01*
X0314926Y0290102D02*
X0315793Y0290970D01*
X0318395Y0290970D01*
X0318395Y0292704D02*
X0318395Y0287500D01*
X0315793Y0287500D01*
X0314926Y0288367D01*
X0314926Y0290102D01*
X0310629Y0290970D02*
X0310629Y0287500D01*
X0325239Y0287500D02*
X0325239Y0292704D01*
X0327841Y0292704D01*
X0328708Y0291837D01*
X0328708Y0290102D01*
X0327841Y0289235D01*
X0325239Y0289235D01*
X0326973Y0289235D02*
X0328708Y0287500D01*
X0330395Y0288367D02*
X0330395Y0290102D01*
X0331262Y0290970D01*
X0332997Y0290970D01*
X0333865Y0290102D01*
X0333865Y0289235D01*
X0330395Y0289235D01*
X0330395Y0288367D02*
X0331262Y0287500D01*
X0332997Y0287500D01*
X0337286Y0287500D02*
X0335551Y0290970D01*
X0339021Y0290970D02*
X0337286Y0287500D01*
X0345864Y0287500D02*
X0345864Y0290970D01*
X0347599Y0292704D01*
X0349334Y0290970D01*
X0349334Y0287500D01*
X0351021Y0287500D02*
X0351888Y0287500D01*
X0351888Y0288367D01*
X0351021Y0288367D01*
X0351021Y0287500D01*
X0349334Y0290102D02*
X0345864Y0290102D01*
X0231564Y0290970D02*
X0231564Y0288367D01*
X0222986Y0290102D02*
X0222119Y0290970D01*
X0221251Y0290970D01*
D14*
X0179800Y0280300D02*
X0288800Y0280300D01*
X0179800Y0280300D02*
X0155300Y0315300D01*
D15*
X0261550Y0276700D03*
X0261550Y0276400D03*
X0261550Y0276100D03*
X0261550Y0275800D03*
X0261550Y0275500D03*
X0261550Y0275200D03*
X0261550Y0274900D03*
X0261550Y0274600D03*
X0261550Y0274300D03*
X0261550Y0274000D03*
X0261550Y0273700D03*
X0261550Y0273400D03*
X0261550Y0273100D03*
X0261550Y0272800D03*
X0261550Y0272500D03*
X0261550Y0272200D03*
X0261550Y0271900D03*
X0261550Y0271600D03*
X0261550Y0271300D03*
X0261550Y0271000D03*
X0261550Y0270700D03*
X0261550Y0270400D03*
X0261550Y0270100D03*
X0261550Y0269800D03*
X0261550Y0269500D03*
X0261550Y0269200D03*
X0261550Y0268900D03*
X0261550Y0268600D03*
X0261550Y0268300D03*
X0261550Y0268000D03*
X0261550Y0267700D03*
X0261550Y0267400D03*
X0261550Y0267100D03*
X0261550Y0266800D03*
X0261550Y0266500D03*
X0261550Y0199600D03*
X0261550Y0199300D03*
X0261550Y0199000D03*
X0261550Y0198700D03*
X0261550Y0198400D03*
X0261550Y0198100D03*
X0261550Y0197800D03*
X0261550Y0197500D03*
X0261550Y0197200D03*
X0261550Y0196900D03*
X0261550Y0196600D03*
X0261550Y0196300D03*
X0261550Y0196000D03*
X0261550Y0195700D03*
X0261550Y0195400D03*
X0261550Y0195100D03*
X0261550Y0194800D03*
X0261550Y0194500D03*
X0261550Y0194200D03*
X0261550Y0193900D03*
X0261550Y0193600D03*
X0261550Y0193300D03*
X0261550Y0193000D03*
X0261550Y0192700D03*
X0261550Y0192400D03*
X0261550Y0192100D03*
X0261550Y0191800D03*
X0261550Y0191500D03*
X0261550Y0191200D03*
X0261550Y0190900D03*
X0261550Y0190600D03*
X0261550Y0190300D03*
X0261550Y0190000D03*
X0261550Y0189700D03*
X0261550Y0189400D03*
X0261550Y0189100D03*
X0261550Y0188800D03*
X0261550Y0188500D03*
X0261550Y0188200D03*
X0261550Y0187900D03*
X0261550Y0187600D03*
X0261550Y0187300D03*
X0261550Y0187000D03*
D16*
X0230350Y0199900D03*
X0248950Y0226000D03*
X0292750Y0265000D03*
D17*
X0279550Y0199900D03*
D18*
X0293050Y0212500D03*
X0293050Y0265300D03*
X0230050Y0200200D03*
D19*
X0280150Y0200200D03*
X0242950Y0260800D03*
D20*
X0293650Y0266200D03*
X0293650Y0213100D03*
X0254350Y0210100D03*
X0229450Y0200500D03*
D21*
X0280900Y0200500D03*
X0280900Y0246700D03*
X0242200Y0259900D03*
D22*
X0254200Y0209500D03*
X0254200Y0209200D03*
X0254500Y0208900D03*
X0229000Y0200800D03*
X0294100Y0213700D03*
D23*
X0281500Y0200800D03*
X0281500Y0247900D03*
D24*
X0254800Y0208600D03*
X0254800Y0208300D03*
X0228700Y0201100D03*
D25*
X0281800Y0201100D03*
X0281800Y0248500D03*
D26*
X0228250Y0201400D03*
D27*
X0282400Y0201400D03*
X0282400Y0249700D03*
X0240700Y0258100D03*
D28*
X0252250Y0224500D03*
X0227950Y0201700D03*
X0295150Y0214900D03*
X0295150Y0245500D03*
D29*
X0282850Y0250600D03*
X0240250Y0257500D03*
X0282850Y0201700D03*
D30*
X0295450Y0215200D03*
X0295450Y0244900D03*
X0255250Y0207100D03*
X0251950Y0225100D03*
X0251950Y0225400D03*
X0227650Y0202000D03*
D31*
X0239800Y0256900D03*
X0283300Y0251500D03*
X0283300Y0202000D03*
D32*
X0295600Y0215500D03*
X0295600Y0244600D03*
X0255700Y0206800D03*
X0227500Y0202300D03*
D33*
X0262600Y0219100D03*
X0283600Y0202300D03*
X0239500Y0256600D03*
D34*
X0227200Y0202600D03*
X0295900Y0243400D03*
D35*
X0284050Y0252700D03*
X0262150Y0218500D03*
X0284050Y0202600D03*
D36*
X0296200Y0216400D03*
X0296200Y0241900D03*
X0296200Y0242200D03*
X0226900Y0202900D03*
D37*
X0261850Y0218200D03*
X0284350Y0202900D03*
X0284350Y0253300D03*
X0238750Y0255400D03*
D38*
X0226750Y0203200D03*
X0296350Y0241300D03*
X0296350Y0241600D03*
D39*
X0284500Y0253600D03*
X0284500Y0203200D03*
D40*
X0296500Y0216700D03*
X0296500Y0240700D03*
X0296500Y0241000D03*
X0255700Y0206200D03*
X0226600Y0203500D03*
D41*
X0238150Y0254500D03*
X0284950Y0254200D03*
X0284950Y0203500D03*
D42*
X0296800Y0217300D03*
X0296800Y0238900D03*
X0296800Y0239200D03*
X0296800Y0239500D03*
X0226300Y0204100D03*
X0226300Y0203800D03*
D43*
X0237850Y0254200D03*
X0285250Y0254800D03*
X0285250Y0203800D03*
D44*
X0281800Y0231700D03*
X0281800Y0242800D03*
X0281800Y0243100D03*
X0269500Y0230800D03*
X0260200Y0239500D03*
X0249100Y0235900D03*
X0249100Y0235600D03*
X0240100Y0239500D03*
X0254800Y0204100D03*
D45*
X0260800Y0217000D03*
X0285400Y0204100D03*
X0237700Y0253900D03*
D46*
X0226000Y0204400D03*
X0255700Y0205900D03*
X0297100Y0238000D03*
X0297100Y0238300D03*
D47*
X0281800Y0240400D03*
X0273100Y0241000D03*
X0263200Y0235600D03*
X0281800Y0229000D03*
X0255100Y0204400D03*
X0241300Y0242200D03*
X0241300Y0242500D03*
D48*
X0237400Y0253600D03*
X0260500Y0216700D03*
X0285700Y0204400D03*
D49*
X0297250Y0217900D03*
X0297250Y0237100D03*
X0297250Y0237400D03*
X0297250Y0237700D03*
X0225850Y0226300D03*
X0225850Y0204700D03*
D50*
X0255250Y0204700D03*
X0258550Y0245200D03*
X0242950Y0245800D03*
D51*
X0250300Y0239200D03*
X0259000Y0229900D03*
X0259000Y0229600D03*
X0265300Y0226000D03*
X0269500Y0228400D03*
X0274600Y0228100D03*
X0281800Y0234400D03*
X0289000Y0228100D03*
X0282100Y0215500D03*
X0267400Y0204700D03*
X0238900Y0236500D03*
X0281800Y0244900D03*
D52*
X0288400Y0259300D03*
X0288400Y0259600D03*
X0258100Y0213700D03*
X0258100Y0213400D03*
X0288400Y0204700D03*
X0234700Y0249100D03*
X0234700Y0249400D03*
D53*
X0225700Y0226000D03*
X0225700Y0225700D03*
X0225700Y0205000D03*
X0297400Y0226300D03*
X0297400Y0236800D03*
D54*
X0299200Y0229000D03*
X0299200Y0228700D03*
X0299200Y0228400D03*
X0299200Y0228100D03*
X0259900Y0242800D03*
X0259900Y0243100D03*
X0240700Y0228100D03*
X0240700Y0227800D03*
X0255400Y0205000D03*
D55*
X0267550Y0205000D03*
X0278050Y0213100D03*
X0278950Y0213700D03*
X0282850Y0216100D03*
X0281950Y0235300D03*
X0258550Y0232000D03*
X0258550Y0231700D03*
X0258550Y0231400D03*
X0250750Y0240400D03*
X0238450Y0235300D03*
D56*
X0288550Y0205000D03*
D57*
X0297550Y0218200D03*
X0297550Y0218500D03*
X0297550Y0226600D03*
X0297550Y0235900D03*
X0297550Y0236200D03*
X0297550Y0236500D03*
X0225550Y0226600D03*
X0225550Y0225400D03*
X0225550Y0225100D03*
X0225550Y0224800D03*
X0225550Y0205600D03*
X0225550Y0205300D03*
D58*
X0224800Y0208000D03*
X0224800Y0208300D03*
X0224800Y0219400D03*
X0224800Y0219700D03*
X0224800Y0220000D03*
X0224800Y0220300D03*
X0224800Y0220600D03*
X0224800Y0227500D03*
X0224800Y0227800D03*
X0255400Y0205300D03*
X0298300Y0227200D03*
X0298300Y0232600D03*
X0298300Y0232900D03*
D59*
X0288400Y0227500D03*
X0286600Y0218500D03*
X0286300Y0218200D03*
X0285700Y0217900D03*
X0283000Y0216400D03*
X0267700Y0205300D03*
X0258400Y0232300D03*
X0258400Y0232600D03*
X0250900Y0240700D03*
X0238300Y0235000D03*
X0238300Y0234700D03*
X0281800Y0235600D03*
X0281800Y0235900D03*
D60*
X0257650Y0213100D03*
X0288850Y0205300D03*
X0234250Y0248500D03*
D61*
X0237400Y0232000D03*
X0237400Y0231700D03*
X0257500Y0235900D03*
X0257500Y0236200D03*
X0275800Y0226900D03*
X0281800Y0237700D03*
X0283300Y0217000D03*
X0272200Y0207400D03*
X0270700Y0209500D03*
X0271600Y0211000D03*
X0267700Y0208900D03*
X0269800Y0205300D03*
D62*
X0255550Y0205600D03*
X0225250Y0206500D03*
X0225250Y0222700D03*
X0225250Y0223000D03*
X0225250Y0223300D03*
X0225250Y0223600D03*
X0225250Y0226900D03*
X0297850Y0234400D03*
X0297850Y0234700D03*
X0297850Y0219100D03*
D63*
X0287950Y0226900D03*
X0285250Y0216700D03*
X0272950Y0209200D03*
X0272650Y0208900D03*
X0272050Y0208600D03*
X0271750Y0208300D03*
X0270250Y0207400D03*
X0269650Y0208900D03*
X0268750Y0208300D03*
X0267550Y0206500D03*
X0266950Y0205600D03*
X0268450Y0205600D03*
X0281950Y0238000D03*
X0281950Y0238300D03*
X0251950Y0242800D03*
X0251950Y0243100D03*
D64*
X0234100Y0248200D03*
X0289000Y0260200D03*
X0289000Y0260500D03*
X0289000Y0205600D03*
D65*
X0270100Y0205600D03*
X0268000Y0209200D03*
X0269800Y0210700D03*
X0275500Y0227200D03*
X0281800Y0236800D03*
X0288100Y0227200D03*
X0257800Y0234700D03*
X0257800Y0235000D03*
X0257800Y0235300D03*
X0251500Y0241900D03*
X0251500Y0242200D03*
X0237700Y0233200D03*
X0237700Y0232900D03*
D66*
X0225400Y0224500D03*
X0225400Y0224200D03*
X0225400Y0223900D03*
X0225400Y0206200D03*
X0225400Y0205900D03*
X0297700Y0218800D03*
X0297700Y0235000D03*
X0297700Y0235300D03*
X0297700Y0235600D03*
D67*
X0287800Y0226600D03*
X0285100Y0216400D03*
X0276100Y0226600D03*
X0281800Y0238600D03*
X0264100Y0224500D03*
X0269800Y0211000D03*
X0269200Y0208600D03*
X0268300Y0208000D03*
X0267700Y0207700D03*
X0267100Y0207100D03*
X0267400Y0206800D03*
X0266800Y0206500D03*
X0267100Y0205900D03*
X0267700Y0205900D03*
X0267700Y0206200D03*
X0268600Y0206500D03*
X0269200Y0206800D03*
X0269800Y0207100D03*
X0270700Y0207700D03*
X0271300Y0208000D03*
X0272500Y0207700D03*
X0268600Y0207400D03*
X0267400Y0208600D03*
X0252100Y0243400D03*
X0252100Y0243700D03*
X0252100Y0244000D03*
X0252100Y0244300D03*
X0252100Y0244600D03*
X0252100Y0244900D03*
X0252100Y0245200D03*
X0252100Y0245500D03*
X0252100Y0245800D03*
D68*
X0233650Y0247300D03*
X0257350Y0212500D03*
X0289450Y0206200D03*
X0289450Y0205900D03*
D69*
X0285550Y0217300D03*
X0283150Y0216700D03*
X0287650Y0219100D03*
X0273250Y0209800D03*
X0273250Y0209500D03*
X0271750Y0206800D03*
X0271150Y0206500D03*
X0270250Y0205900D03*
X0268150Y0209500D03*
X0268450Y0209800D03*
X0269050Y0210100D03*
X0264550Y0225100D03*
X0257950Y0234100D03*
X0257950Y0234400D03*
X0237850Y0233500D03*
D70*
X0238000Y0233800D03*
X0238000Y0234100D03*
X0251200Y0241300D03*
X0251200Y0241600D03*
X0258100Y0233800D03*
X0258100Y0233500D03*
X0258100Y0233200D03*
X0281800Y0236500D03*
X0287200Y0218800D03*
X0270700Y0206200D03*
D71*
X0255550Y0206500D03*
X0296050Y0216100D03*
X0296050Y0242500D03*
X0296050Y0242800D03*
X0296050Y0243100D03*
D72*
X0289750Y0261400D03*
X0289750Y0208300D03*
X0289750Y0208000D03*
X0289750Y0207700D03*
X0289750Y0207400D03*
X0289750Y0207100D03*
X0289750Y0206800D03*
X0289750Y0206500D03*
D73*
X0298000Y0219400D03*
X0298000Y0220300D03*
X0298000Y0226900D03*
X0298000Y0234100D03*
X0225100Y0222400D03*
X0225100Y0222100D03*
X0225100Y0206800D03*
D74*
X0224950Y0207100D03*
X0224950Y0207400D03*
X0224950Y0207700D03*
X0224950Y0220900D03*
X0224950Y0221200D03*
X0224950Y0221500D03*
X0224950Y0221800D03*
X0224950Y0227200D03*
X0298150Y0233200D03*
X0298150Y0233500D03*
X0298150Y0233800D03*
X0298150Y0220000D03*
X0298150Y0219700D03*
D75*
X0288550Y0219700D03*
X0288250Y0219400D03*
X0285250Y0217000D03*
X0272050Y0207100D03*
X0264550Y0224800D03*
X0257650Y0235600D03*
X0251650Y0242500D03*
X0237550Y0232600D03*
X0237550Y0232300D03*
X0281950Y0237100D03*
X0281950Y0237400D03*
D76*
X0295300Y0245200D03*
X0255100Y0207400D03*
X0252100Y0224800D03*
D77*
X0255400Y0207700D03*
X0294700Y0214300D03*
X0294700Y0214600D03*
D78*
X0294550Y0246100D03*
X0254950Y0208000D03*
D79*
X0239950Y0230800D03*
X0224650Y0228100D03*
X0224650Y0219100D03*
X0224650Y0218800D03*
X0224650Y0218500D03*
X0224650Y0209200D03*
X0224650Y0208900D03*
X0224650Y0208600D03*
X0272050Y0245800D03*
X0298450Y0232300D03*
X0298450Y0232000D03*
D80*
X0289900Y0208600D03*
X0233200Y0246700D03*
D81*
X0290200Y0208900D03*
D82*
X0290500Y0209200D03*
X0290500Y0262300D03*
D83*
X0298600Y0231700D03*
X0298600Y0231400D03*
X0240100Y0230500D03*
X0240100Y0230200D03*
X0240100Y0229900D03*
X0224500Y0228700D03*
X0224500Y0228400D03*
X0224500Y0218200D03*
X0224500Y0217900D03*
X0224500Y0217600D03*
X0224500Y0217300D03*
X0224500Y0217000D03*
X0224500Y0216700D03*
X0224500Y0216400D03*
X0224500Y0210700D03*
X0224500Y0210400D03*
X0224500Y0210100D03*
X0224500Y0209800D03*
X0224500Y0209500D03*
D84*
X0290650Y0209500D03*
X0290650Y0262600D03*
D85*
X0293800Y0213400D03*
X0254200Y0209800D03*
D86*
X0290950Y0209800D03*
X0290950Y0262900D03*
D87*
X0291100Y0210100D03*
D88*
X0282400Y0215800D03*
X0281500Y0215200D03*
X0280900Y0214900D03*
X0280000Y0214300D03*
X0277600Y0212800D03*
X0276700Y0212200D03*
X0276100Y0211900D03*
X0275500Y0211600D03*
X0274600Y0211000D03*
X0274000Y0210700D03*
X0273100Y0210100D03*
X0274900Y0227800D03*
X0281800Y0234700D03*
X0281800Y0235000D03*
X0258700Y0231100D03*
X0250600Y0239800D03*
X0250600Y0240100D03*
X0238600Y0235600D03*
D89*
X0254500Y0210400D03*
X0293200Y0265600D03*
D90*
X0291400Y0263500D03*
X0291400Y0210400D03*
D91*
X0285550Y0217600D03*
X0275350Y0227500D03*
X0264850Y0225400D03*
X0258250Y0232900D03*
X0251050Y0241000D03*
X0238150Y0234400D03*
X0269650Y0210400D03*
X0271450Y0211300D03*
X0281950Y0236200D03*
X0281950Y0245500D03*
D92*
X0281650Y0245200D03*
X0288850Y0227800D03*
X0280450Y0214600D03*
X0279550Y0214000D03*
X0278650Y0213400D03*
X0277150Y0212500D03*
X0275050Y0211300D03*
X0273550Y0210400D03*
X0265150Y0225700D03*
X0269650Y0228100D03*
X0258850Y0230200D03*
X0258850Y0230500D03*
X0258850Y0230800D03*
X0250450Y0230800D03*
X0250450Y0231100D03*
X0250450Y0230500D03*
X0250450Y0230200D03*
X0250450Y0229900D03*
X0250450Y0229600D03*
X0250450Y0229300D03*
X0250450Y0229000D03*
X0250450Y0228700D03*
X0250450Y0228400D03*
X0250450Y0228100D03*
X0250450Y0227800D03*
X0250450Y0227500D03*
X0250450Y0227200D03*
X0250450Y0226900D03*
X0250450Y0226600D03*
X0250450Y0226300D03*
X0250450Y0239500D03*
X0238750Y0236200D03*
X0238750Y0235900D03*
D93*
X0249400Y0225700D03*
X0254500Y0210700D03*
X0292900Y0212200D03*
D94*
X0291550Y0210700D03*
D95*
X0298750Y0227500D03*
X0298750Y0230500D03*
X0298750Y0230800D03*
X0298750Y0231100D03*
X0260350Y0241300D03*
X0240250Y0229600D03*
X0240250Y0229300D03*
X0224350Y0229300D03*
X0224350Y0229000D03*
X0224350Y0216100D03*
X0224350Y0215800D03*
X0224350Y0215500D03*
X0224350Y0215200D03*
X0224350Y0214900D03*
X0224350Y0214600D03*
X0224350Y0214300D03*
X0224350Y0214000D03*
X0224350Y0213700D03*
X0224350Y0213400D03*
X0224350Y0213100D03*
X0224350Y0212800D03*
X0224350Y0212500D03*
X0224350Y0212200D03*
X0224350Y0211900D03*
X0224350Y0211600D03*
X0224350Y0211300D03*
X0224350Y0211000D03*
D96*
X0254800Y0211000D03*
X0292600Y0211900D03*
D97*
X0291850Y0211000D03*
X0266650Y0246100D03*
D98*
X0254950Y0211300D03*
D99*
X0292000Y0211300D03*
X0292000Y0264100D03*
D100*
X0290350Y0262000D03*
X0256750Y0211600D03*
D101*
X0292300Y0211600D03*
X0292300Y0264400D03*
D102*
X0290050Y0261700D03*
X0257050Y0211900D03*
X0233050Y0246100D03*
X0233050Y0246400D03*
D103*
X0233500Y0247000D03*
X0257200Y0212200D03*
X0289600Y0261100D03*
D104*
X0257650Y0212800D03*
X0233950Y0247900D03*
D105*
X0293350Y0212800D03*
D106*
X0258400Y0214000D03*
X0235000Y0249700D03*
X0288100Y0259000D03*
D107*
X0294250Y0214000D03*
D108*
X0258700Y0214300D03*
X0235300Y0250300D03*
X0287800Y0258700D03*
D109*
X0258850Y0214600D03*
D110*
X0259000Y0214900D03*
X0235900Y0251200D03*
X0287200Y0257800D03*
D111*
X0286900Y0257200D03*
X0286900Y0225400D03*
X0259300Y0215200D03*
X0236200Y0251800D03*
D112*
X0236500Y0252100D03*
X0259600Y0215500D03*
X0286600Y0256900D03*
D113*
X0286450Y0256600D03*
X0286450Y0225100D03*
X0259750Y0215800D03*
X0236650Y0252400D03*
D114*
X0295750Y0244300D03*
X0295750Y0244000D03*
X0295750Y0243700D03*
X0295750Y0215800D03*
D115*
X0286150Y0224800D03*
X0260050Y0216100D03*
X0236950Y0253000D03*
X0286150Y0256300D03*
D116*
X0285850Y0255700D03*
X0260350Y0216400D03*
X0237250Y0253300D03*
D117*
X0296650Y0240400D03*
X0296650Y0240100D03*
X0296650Y0239800D03*
X0296650Y0217000D03*
D118*
X0261100Y0217300D03*
X0285100Y0254500D03*
D119*
X0284800Y0253900D03*
X0261400Y0217600D03*
X0238300Y0254800D03*
D120*
X0296950Y0238600D03*
X0296950Y0217600D03*
D121*
X0261550Y0217900D03*
X0238450Y0255100D03*
D122*
X0239200Y0256000D03*
X0262300Y0218800D03*
X0283900Y0252400D03*
D123*
X0283150Y0251200D03*
X0263050Y0219400D03*
D124*
X0263500Y0219700D03*
X0282700Y0250300D03*
X0240400Y0257800D03*
D125*
X0282550Y0250000D03*
X0263650Y0220000D03*
D126*
X0264250Y0220300D03*
X0281950Y0248800D03*
X0281950Y0249100D03*
X0241150Y0258700D03*
D127*
X0273100Y0220600D03*
D128*
X0273250Y0220900D03*
X0273250Y0221200D03*
X0273250Y0221500D03*
X0273250Y0221800D03*
X0273250Y0222100D03*
D129*
X0273400Y0222400D03*
X0273400Y0222700D03*
X0273400Y0223000D03*
D130*
X0273550Y0223300D03*
X0273550Y0223600D03*
X0273550Y0223900D03*
D131*
X0252100Y0224200D03*
X0295000Y0245800D03*
D132*
X0285550Y0255100D03*
X0285550Y0255400D03*
X0285550Y0224200D03*
D133*
X0286000Y0224500D03*
X0286000Y0256000D03*
D134*
X0287050Y0257500D03*
X0287050Y0225700D03*
X0236050Y0251500D03*
D135*
X0235600Y0250900D03*
X0287500Y0258100D03*
X0287500Y0258400D03*
X0287500Y0226000D03*
D136*
X0281800Y0232000D03*
X0269500Y0230500D03*
X0269500Y0230200D03*
X0265000Y0236200D03*
X0259900Y0236800D03*
X0259900Y0226600D03*
X0259900Y0226300D03*
X0249400Y0236500D03*
X0239800Y0238900D03*
X0281800Y0243400D03*
X0281800Y0243700D03*
D137*
X0281800Y0242500D03*
X0281800Y0242200D03*
X0272500Y0238300D03*
X0272200Y0237400D03*
X0271900Y0236800D03*
X0271900Y0236500D03*
X0271600Y0235900D03*
X0271600Y0235600D03*
X0271300Y0235300D03*
X0271000Y0235000D03*
X0271000Y0234700D03*
X0270700Y0234400D03*
X0271900Y0226300D03*
X0281800Y0230800D03*
X0248800Y0234700D03*
X0240400Y0240100D03*
X0240400Y0240400D03*
D138*
X0242350Y0244600D03*
X0272950Y0243400D03*
X0272950Y0243100D03*
X0281950Y0226600D03*
X0281950Y0226300D03*
D139*
X0281800Y0232900D03*
X0274600Y0228700D03*
X0269500Y0229600D03*
X0265300Y0227200D03*
X0265000Y0227500D03*
X0264700Y0228100D03*
X0264700Y0228400D03*
X0264400Y0228700D03*
X0264400Y0229000D03*
X0263800Y0229900D03*
X0263800Y0230200D03*
X0263500Y0230800D03*
X0263500Y0231100D03*
X0263200Y0231400D03*
X0262900Y0232000D03*
X0262600Y0232600D03*
X0262600Y0232900D03*
X0265600Y0236500D03*
X0265900Y0240100D03*
X0265900Y0240400D03*
X0265600Y0240700D03*
X0265600Y0226600D03*
X0265600Y0226300D03*
X0259600Y0227200D03*
X0259600Y0227500D03*
X0249700Y0237400D03*
X0249700Y0237700D03*
X0239500Y0238000D03*
X0239500Y0238300D03*
X0281800Y0244300D03*
D140*
X0271750Y0236200D03*
X0269650Y0231400D03*
X0269650Y0231100D03*
X0271750Y0226600D03*
X0262750Y0233800D03*
X0262750Y0234100D03*
X0260350Y0237700D03*
X0260350Y0238000D03*
X0260350Y0238300D03*
X0260350Y0238600D03*
X0260350Y0238900D03*
X0260350Y0239200D03*
X0248950Y0235300D03*
X0248950Y0235000D03*
X0240250Y0239800D03*
X0281950Y0231400D03*
X0281950Y0231100D03*
D141*
X0272650Y0244600D03*
X0241750Y0226600D03*
D142*
X0239050Y0236800D03*
X0250150Y0238600D03*
X0250150Y0238900D03*
X0254650Y0238900D03*
X0254650Y0239200D03*
X0254650Y0239500D03*
X0254650Y0239800D03*
X0254650Y0240100D03*
X0254650Y0240400D03*
X0254650Y0240700D03*
X0254650Y0241000D03*
X0254650Y0238600D03*
X0254650Y0238300D03*
X0254650Y0238000D03*
X0254650Y0237700D03*
X0254650Y0237400D03*
X0254650Y0237100D03*
X0254650Y0236800D03*
X0254650Y0236500D03*
X0254650Y0236200D03*
X0254650Y0235900D03*
X0254650Y0235600D03*
X0254650Y0235300D03*
X0254650Y0235000D03*
X0254650Y0234700D03*
X0254650Y0234400D03*
X0254650Y0234100D03*
X0254650Y0233800D03*
X0254650Y0233500D03*
X0254650Y0233200D03*
X0254650Y0232900D03*
X0254650Y0232600D03*
X0254650Y0232300D03*
X0254650Y0232000D03*
X0254650Y0231700D03*
X0254650Y0231400D03*
X0254650Y0231100D03*
X0254650Y0230800D03*
X0254650Y0230500D03*
X0254650Y0230200D03*
X0254650Y0229900D03*
X0254650Y0229600D03*
X0254650Y0229300D03*
X0254650Y0229000D03*
X0254650Y0228700D03*
X0254650Y0228400D03*
X0254650Y0228100D03*
X0254650Y0227800D03*
X0254650Y0227500D03*
X0254650Y0227200D03*
X0254650Y0226900D03*
X0254650Y0226600D03*
X0259150Y0229300D03*
X0266050Y0237400D03*
X0269650Y0228700D03*
X0281950Y0234100D03*
X0284650Y0238600D03*
D143*
X0281950Y0232600D03*
X0281950Y0232300D03*
X0281950Y0244000D03*
X0269650Y0229900D03*
X0270850Y0227200D03*
X0263050Y0231700D03*
X0262450Y0233200D03*
X0259750Y0226900D03*
X0249550Y0236800D03*
X0249550Y0237100D03*
X0239650Y0238600D03*
X0259750Y0240400D03*
D144*
X0260050Y0240100D03*
X0260050Y0239800D03*
X0260050Y0237400D03*
X0260050Y0237100D03*
X0262450Y0233500D03*
X0265150Y0241000D03*
X0271450Y0226900D03*
X0249250Y0236200D03*
X0239950Y0239200D03*
D145*
X0242200Y0244000D03*
X0242200Y0244300D03*
X0281800Y0226900D03*
D146*
X0272650Y0244900D03*
X0241450Y0226900D03*
D147*
X0234250Y0231100D03*
X0234250Y0231400D03*
X0234250Y0231700D03*
X0234250Y0232000D03*
X0234250Y0232300D03*
X0234250Y0232600D03*
X0234250Y0232900D03*
X0234250Y0233200D03*
X0234250Y0233500D03*
X0234250Y0233800D03*
X0234250Y0234100D03*
X0234250Y0234400D03*
X0234250Y0234700D03*
X0234250Y0235000D03*
X0234250Y0235300D03*
X0234250Y0235600D03*
X0234250Y0235900D03*
X0234250Y0236200D03*
X0234250Y0236500D03*
X0234250Y0236800D03*
X0234250Y0237100D03*
X0234250Y0237400D03*
X0234250Y0237700D03*
X0234250Y0238000D03*
X0234250Y0238300D03*
X0234250Y0238600D03*
X0234250Y0238900D03*
X0234250Y0239200D03*
X0234250Y0239500D03*
X0234250Y0239800D03*
X0234250Y0240100D03*
X0234250Y0240400D03*
X0234250Y0240700D03*
X0234250Y0241000D03*
X0234250Y0241300D03*
X0234250Y0241600D03*
X0234250Y0241900D03*
X0234250Y0242200D03*
X0234250Y0242500D03*
X0234250Y0242800D03*
X0234250Y0243100D03*
X0234250Y0243400D03*
X0234250Y0243700D03*
X0234250Y0244000D03*
X0234250Y0244300D03*
X0234250Y0244600D03*
X0234250Y0244900D03*
X0234250Y0245200D03*
X0234250Y0245500D03*
X0239350Y0237700D03*
X0249850Y0238000D03*
X0259450Y0236500D03*
X0262750Y0232300D03*
X0263650Y0230500D03*
X0263950Y0229600D03*
X0264250Y0229300D03*
X0264850Y0227800D03*
X0265450Y0226900D03*
X0269650Y0229300D03*
X0270550Y0227500D03*
X0274450Y0228400D03*
X0274750Y0229000D03*
X0274750Y0229300D03*
X0275050Y0229600D03*
X0275050Y0229900D03*
X0275350Y0230500D03*
X0275650Y0230800D03*
X0275650Y0231100D03*
X0275950Y0231700D03*
X0275950Y0232000D03*
X0276250Y0232300D03*
X0276550Y0232600D03*
X0276550Y0232900D03*
X0276550Y0233200D03*
X0276850Y0233500D03*
X0276850Y0233800D03*
X0277150Y0234400D03*
X0277150Y0234700D03*
X0277450Y0235000D03*
X0277750Y0235600D03*
X0277750Y0235900D03*
X0278050Y0236500D03*
X0278350Y0237100D03*
X0278650Y0237700D03*
X0278950Y0238600D03*
X0279250Y0239200D03*
X0284350Y0239200D03*
X0284950Y0238000D03*
X0285250Y0237100D03*
X0285850Y0236200D03*
X0285850Y0235900D03*
X0286150Y0235300D03*
X0286150Y0235000D03*
X0287050Y0233200D03*
X0287350Y0232600D03*
X0287350Y0232300D03*
X0287950Y0231400D03*
X0288250Y0230800D03*
X0288250Y0230500D03*
X0288550Y0229900D03*
X0288850Y0229300D03*
X0289150Y0228700D03*
X0289150Y0228400D03*
X0281950Y0233200D03*
X0266350Y0238600D03*
X0266350Y0238900D03*
X0266350Y0239200D03*
X0266350Y0239500D03*
X0265750Y0236800D03*
X0259450Y0228100D03*
X0259450Y0227800D03*
D148*
X0273100Y0242200D03*
X0273100Y0242500D03*
X0281800Y0227800D03*
X0281800Y0227500D03*
X0281800Y0227200D03*
X0241900Y0243700D03*
D149*
X0241150Y0227200D03*
X0259450Y0243700D03*
X0259450Y0244000D03*
D150*
X0241000Y0227500D03*
D151*
X0239200Y0237100D03*
X0239200Y0237400D03*
X0250000Y0238300D03*
X0259300Y0229000D03*
X0259300Y0228700D03*
X0259300Y0228400D03*
X0269500Y0229000D03*
X0270100Y0227800D03*
X0275200Y0230200D03*
X0275800Y0231400D03*
X0277000Y0234100D03*
X0277600Y0235300D03*
X0277900Y0236200D03*
X0278200Y0236800D03*
X0278500Y0237400D03*
X0278800Y0238000D03*
X0278800Y0238300D03*
X0279100Y0238900D03*
X0281800Y0233800D03*
X0281800Y0233500D03*
X0286300Y0234700D03*
X0286600Y0234400D03*
X0286600Y0234100D03*
X0286900Y0233800D03*
X0286900Y0233500D03*
X0287200Y0232900D03*
X0287500Y0232000D03*
X0287800Y0231700D03*
X0288100Y0231100D03*
X0288400Y0230200D03*
X0288700Y0229600D03*
X0289000Y0229000D03*
X0286000Y0235600D03*
X0285700Y0236500D03*
X0285400Y0236800D03*
X0285100Y0237400D03*
X0285100Y0237700D03*
X0284800Y0238300D03*
X0284500Y0238900D03*
X0281800Y0244600D03*
X0266200Y0239800D03*
X0266200Y0238300D03*
X0266200Y0238000D03*
X0266200Y0237700D03*
X0265900Y0237100D03*
D152*
X0260050Y0242500D03*
X0240550Y0228400D03*
X0224050Y0230200D03*
X0224050Y0230500D03*
X0224050Y0230800D03*
X0224050Y0231100D03*
X0224050Y0231400D03*
X0224050Y0231700D03*
X0224050Y0232000D03*
X0224050Y0232300D03*
X0224050Y0232600D03*
X0224050Y0232900D03*
X0224050Y0233200D03*
X0224050Y0233500D03*
X0224050Y0233800D03*
X0224050Y0234100D03*
X0224050Y0234400D03*
X0224050Y0234700D03*
X0224050Y0235000D03*
X0224050Y0235300D03*
X0224050Y0235600D03*
X0224050Y0235900D03*
X0224050Y0236200D03*
X0224050Y0236500D03*
X0224050Y0236800D03*
X0224050Y0237100D03*
X0224050Y0237400D03*
X0224050Y0237700D03*
X0224050Y0238000D03*
X0224050Y0238300D03*
X0224050Y0238600D03*
X0224050Y0238900D03*
X0224050Y0239200D03*
X0224050Y0239500D03*
X0224050Y0239800D03*
X0224050Y0240100D03*
X0224050Y0240400D03*
X0224050Y0240700D03*
X0224050Y0241000D03*
X0224050Y0241300D03*
X0224050Y0241600D03*
X0224050Y0241900D03*
X0224050Y0242200D03*
X0224050Y0242500D03*
X0224050Y0242800D03*
X0224050Y0243100D03*
X0224050Y0243400D03*
X0224050Y0243700D03*
X0224050Y0244000D03*
X0224050Y0244300D03*
X0224050Y0244600D03*
X0224050Y0244900D03*
X0224050Y0245200D03*
X0224050Y0245500D03*
X0224050Y0245800D03*
X0299050Y0229600D03*
X0299050Y0229300D03*
X0299050Y0227800D03*
D153*
X0281800Y0228100D03*
X0281800Y0239500D03*
X0281800Y0239800D03*
X0273100Y0241900D03*
X0263200Y0235900D03*
X0241600Y0242800D03*
D154*
X0272950Y0241600D03*
X0272950Y0241300D03*
X0281950Y0240100D03*
X0281950Y0228700D03*
X0281950Y0228400D03*
D155*
X0298900Y0229900D03*
X0298900Y0230200D03*
X0260200Y0241600D03*
X0260200Y0241900D03*
X0260200Y0242200D03*
X0244600Y0231400D03*
X0240400Y0229000D03*
X0240400Y0228700D03*
X0224200Y0229600D03*
X0224200Y0229900D03*
D156*
X0241150Y0241900D03*
X0248050Y0232300D03*
X0248050Y0232000D03*
X0248050Y0231700D03*
X0263050Y0235000D03*
X0263050Y0235300D03*
X0269650Y0232900D03*
X0272950Y0240400D03*
X0272950Y0240700D03*
X0281950Y0240700D03*
X0281950Y0229300D03*
D157*
X0281800Y0229600D03*
X0281800Y0241000D03*
X0269800Y0233200D03*
X0269500Y0232600D03*
X0248200Y0232600D03*
X0248200Y0232900D03*
X0241000Y0241600D03*
D158*
X0240700Y0241000D03*
X0248500Y0233800D03*
X0248500Y0233500D03*
X0269500Y0232300D03*
X0270100Y0233500D03*
X0270400Y0234100D03*
X0272800Y0239200D03*
X0272800Y0239500D03*
X0272800Y0239800D03*
X0281800Y0241600D03*
X0281800Y0230200D03*
X0281800Y0229900D03*
D159*
X0281950Y0230500D03*
X0272050Y0237100D03*
X0272350Y0237700D03*
X0272350Y0238000D03*
X0272650Y0238600D03*
X0272650Y0238900D03*
X0269650Y0232000D03*
X0269650Y0231700D03*
X0262750Y0234400D03*
X0248650Y0234400D03*
X0248650Y0234100D03*
X0240550Y0240700D03*
X0281950Y0241900D03*
D160*
X0281650Y0241300D03*
X0272950Y0240100D03*
X0270250Y0233800D03*
X0263050Y0234700D03*
X0248350Y0233200D03*
X0240850Y0241300D03*
D161*
X0272950Y0242800D03*
D162*
X0241750Y0243100D03*
X0241750Y0243400D03*
D163*
X0259750Y0243400D03*
X0272350Y0245200D03*
X0272350Y0245500D03*
D164*
X0272800Y0243700D03*
X0258100Y0245500D03*
D165*
X0272800Y0244000D03*
X0242800Y0245200D03*
X0242800Y0245500D03*
D166*
X0258700Y0244900D03*
X0272800Y0244300D03*
D167*
X0259300Y0244300D03*
D168*
X0259000Y0244600D03*
D169*
X0242650Y0244900D03*
D170*
X0280750Y0246400D03*
D171*
X0281050Y0247000D03*
X0242050Y0259600D03*
D172*
X0281200Y0247300D03*
D173*
X0289300Y0260800D03*
X0233800Y0247600D03*
D174*
X0241750Y0259300D03*
X0281350Y0247600D03*
D175*
X0281650Y0248200D03*
X0241450Y0259000D03*
D176*
X0234400Y0248800D03*
X0288700Y0259900D03*
D177*
X0282250Y0249400D03*
D178*
X0235150Y0250000D03*
D179*
X0235450Y0250600D03*
D180*
X0240100Y0257200D03*
X0283000Y0250900D03*
D181*
X0283450Y0251800D03*
D182*
X0283750Y0252100D03*
X0239350Y0256300D03*
D183*
X0236800Y0252700D03*
D184*
X0238900Y0255700D03*
X0284200Y0253000D03*
D185*
X0241000Y0258400D03*
D186*
X0242650Y0260200D03*
D187*
X0242800Y0260500D03*
D188*
X0243400Y0261100D03*
D189*
X0243700Y0261400D03*
D190*
X0243850Y0261700D03*
D191*
X0244150Y0262000D03*
D192*
X0244450Y0262300D03*
D193*
X0244750Y0262600D03*
D194*
X0244900Y0262900D03*
D195*
X0245350Y0263200D03*
D196*
X0291250Y0263200D03*
D197*
X0245650Y0263500D03*
D198*
X0245800Y0263800D03*
D199*
X0291700Y0263800D03*
D200*
X0246250Y0264100D03*
D201*
X0246550Y0264400D03*
D202*
X0246850Y0264700D03*
D203*
X0292450Y0264700D03*
D204*
X0247000Y0265000D03*
D205*
X0247450Y0265300D03*
D206*
X0247750Y0265600D03*
D207*
X0248050Y0265900D03*
D208*
X0293500Y0265900D03*
D209*
X0248350Y0266200D03*
D210*
X0099300Y0273300D02*
X0099300Y0240800D01*
X0063300Y0240800D01*
X0063300Y0273300D01*
X0099300Y0273300D01*
D211*
X0103645Y0255136D02*
X0103645Y0250932D01*
X0103645Y0253034D02*
X0109950Y0253034D01*
X0108899Y0248690D02*
X0106797Y0248690D01*
X0105746Y0247639D01*
X0105746Y0246588D01*
X0106797Y0244486D01*
X0103645Y0244486D01*
X0103645Y0248690D01*
X0108899Y0248690D02*
X0109950Y0247639D01*
X0109950Y0245537D01*
X0108899Y0244486D01*
X0108899Y0242245D02*
X0109950Y0241194D01*
X0109950Y0239092D01*
X0108899Y0238041D01*
X0104696Y0242245D01*
X0108899Y0242245D01*
X0108899Y0238041D02*
X0104696Y0238041D01*
X0103645Y0239092D01*
X0103645Y0241194D01*
X0104696Y0242245D01*
X0104696Y0235799D02*
X0105746Y0235799D01*
X0106797Y0234748D01*
X0106797Y0232646D01*
X0105746Y0231595D01*
X0104696Y0231595D01*
X0103645Y0232646D01*
X0103645Y0234748D01*
X0104696Y0235799D01*
X0106797Y0234748D02*
X0107848Y0235799D01*
X0108899Y0235799D01*
X0109950Y0234748D01*
X0109950Y0232646D01*
X0108899Y0231595D01*
X0107848Y0231595D01*
X0106797Y0232646D01*
X0104696Y0229354D02*
X0108899Y0225150D01*
X0109950Y0225150D01*
X0103645Y0225150D02*
X0103645Y0229354D01*
X0104696Y0229354D01*
X0059450Y0227752D02*
X0059450Y0225650D01*
X0059450Y0226701D02*
X0053145Y0226701D01*
X0053145Y0225650D02*
X0053145Y0227752D01*
X0054196Y0229947D02*
X0058399Y0229947D01*
X0059450Y0230998D01*
X0059450Y0233100D01*
X0058399Y0234151D01*
X0059450Y0236392D02*
X0055246Y0240596D01*
X0054196Y0240596D01*
X0053145Y0239545D01*
X0053145Y0237443D01*
X0054196Y0236392D01*
X0054196Y0234151D02*
X0053145Y0233100D01*
X0053145Y0230998D01*
X0054196Y0229947D01*
X0059450Y0236392D02*
X0059450Y0240596D01*
D212*
X0071300Y0226050D03*
X0081300Y0226050D03*
X0091300Y0226050D03*
D213*
X0091300Y0232800D03*
X0081300Y0232800D03*
X0071300Y0232800D03*
M02*
