G75*
%MOIN*%
%OFA0B0*%
%FSLAX25Y25*%
%IPPOS*%
%LPD*%
%AMOC8*
5,1,8,0,0,1.08239X$1,22.5*
%
%ADD10C,0.25800*%
%ADD11C,0.30800*%
%ADD12C,0.14300*%
%ADD13OC8,0.06343*%
%ADD14R,0.07887X0.07887*%
%ADD15C,0.10800*%
%ADD16C,0.07887*%
%ADD17C,0.07400*%
%ADD18C,0.13800*%
%ADD19R,0.04762X0.04762*%
D10*
X0038800Y0181300D03*
X0323800Y0181300D03*
D11*
X0088800Y0108800D03*
D12*
X0201300Y0111300D03*
X0201300Y0201300D03*
X0321300Y0211300D03*
X0321300Y0121300D03*
D13*
X0215800Y0021300D03*
X0215800Y0013300D03*
X0207800Y0013300D03*
X0207800Y0021300D03*
X0199800Y0021300D03*
X0199800Y0013300D03*
X0191800Y0013300D03*
X0191800Y0021300D03*
X0183800Y0021300D03*
X0183800Y0013300D03*
X0175800Y0013300D03*
X0175800Y0021300D03*
X0167800Y0021300D03*
X0167800Y0013300D03*
X0159800Y0013300D03*
X0159800Y0021300D03*
X0151800Y0021300D03*
X0151800Y0013300D03*
X0143800Y0013300D03*
X0143800Y0021300D03*
D14*
X0143800Y0223800D03*
X0133800Y0223800D03*
X0153800Y0223800D03*
X0163800Y0223800D03*
X0173800Y0223800D03*
X0183800Y0223800D03*
X0193800Y0223800D03*
X0203800Y0223800D03*
X0233800Y0323800D03*
D15*
X0208800Y0332800D03*
X0208800Y0252800D03*
X0128800Y0252800D03*
X0128800Y0332800D03*
D16*
X0243800Y0323800D03*
X0253800Y0323800D03*
X0263800Y0323800D03*
D17*
X0091300Y0231600D02*
X0091300Y0225000D01*
X0081300Y0225000D02*
X0081300Y0231600D01*
X0071300Y0231600D02*
X0071300Y0225000D01*
D18*
X0081300Y0287300D03*
D19*
X0195800Y0032300D03*
M02*
