G75*
%MOIN*%
%OFA0B0*%
%FSLAX25Y25*%
%IPPOS*%
%LPD*%
%AMOC8*
5,1,8,0,0,1.08239X$1,22.5*
%
%ADD10OC8,0.05543*%
%ADD11R,0.07087X0.07087*%
%ADD12C,0.07087*%
%ADD13C,0.06600*%
%ADD14C,0.02400*%
%ADD15R,0.03962X0.03962*%
%ADD16C,0.00500*%
D10*
X0143800Y0013300D03*
X0143800Y0021300D03*
X0151800Y0021300D03*
X0151800Y0013300D03*
X0159800Y0013300D03*
X0159800Y0021300D03*
X0167800Y0021300D03*
X0167800Y0013300D03*
X0175800Y0013300D03*
X0175800Y0021300D03*
X0183800Y0021300D03*
X0183800Y0013300D03*
X0191800Y0013300D03*
X0191800Y0021300D03*
X0199800Y0021300D03*
X0199800Y0013300D03*
X0207800Y0013300D03*
X0207800Y0021300D03*
X0215800Y0021300D03*
X0215800Y0013300D03*
D11*
X0203800Y0223800D03*
X0193800Y0223800D03*
X0183800Y0223800D03*
X0173800Y0223800D03*
X0163800Y0223800D03*
X0153800Y0223800D03*
X0143800Y0223800D03*
X0133800Y0223800D03*
X0233800Y0323800D03*
D12*
X0243800Y0323800D03*
X0253800Y0323800D03*
X0263800Y0323800D03*
D13*
X0091300Y0231600D02*
X0091300Y0225000D01*
X0081300Y0225000D02*
X0081300Y0231600D01*
X0071300Y0231600D02*
X0071300Y0225000D01*
D14*
X0071300Y0228300D02*
X0071300Y0176300D01*
X0215300Y0032300D01*
X0215300Y0021800D01*
X0215800Y0021300D01*
X0223300Y0020800D02*
X0215800Y0013300D01*
X0223300Y0020800D02*
X0223300Y0033300D01*
X0153800Y0102800D01*
X0153800Y0223800D01*
X0153800Y0233800D01*
X0243800Y0323800D01*
X0233800Y0323800D02*
X0204300Y0294300D01*
X0190300Y0294300D01*
X0133800Y0237800D01*
X0133800Y0223800D01*
D15*
X0195800Y0032300D03*
D16*
X0195800Y0018800D01*
X0199800Y0013300D01*
M02*
