%
M48
M72
T01C0.02362
T02C0.03543
T03C0.04331
T04C0.04400
T05C0.10000
T06C0.13000
T07C0.13500
T08C0.25000
T09C0.30000
%
T01
X195800Y32300
T02
X191800Y21300
X191800Y13300
X183800Y13300
X183800Y21300
X175800Y21300
X175800Y13300
X167800Y13300
X167800Y21300
X159800Y21300
X159800Y13300
X151800Y13300
X151800Y21300
X143800Y21300
X143800Y13300
X199800Y13300
X199800Y21300
X207800Y21300
X207800Y13300
X215800Y13300
X215800Y21300
T03
X203800Y223800
X193800Y223800
X183800Y223800
X173800Y223800
X163800Y223800
X153800Y223800
X143800Y223800
X133800Y223800
X233800Y323800
X243800Y323800
X253800Y323800
X263800Y323800
T04
X91300Y228300
X81300Y228300
X71300Y228300
T05
X128800Y252800
X128800Y332800
X208800Y332800
X208800Y252800
T06
X81300Y287300
T07
X201300Y201300
X201300Y111300
X321300Y121300
X321300Y211300
T08
X323800Y181300
X38800Y181300
T09
X88800Y108800
M30
