G04 EAGLE Gerber X2 export*
%TF.Part,Single*%
%TF.FileFunction,Other,Solder stop mask CMP*%
%TF.FilePolarity,Positive*%
%TF.GenerationSoftware,Autodesk,EAGLE,9.0.1*%
%TF.CreationDate,2019-02-15T17:53:46Z*%
G75*
%MOMM*%
%FSLAX34Y34*%
%LPD*%
%AMOC8*
5,1,8,0,0,1.08239X$1,22.5*%
G01*
%ADD10R,1.503200X1.703200*%
%ADD11R,1.473200X1.727200*%
%ADD12R,1.403200X1.703200*%
%ADD13R,2.203200X2.603200*%
%ADD14R,0.703200X2.511200*%
%ADD15C,1.203200*%
%ADD16R,1.403200X0.903200*%
%ADD17R,1.553200X1.003200*%
%ADD18R,5.603200X6.403200*%
%ADD19R,1.203200X1.803200*%
%ADD20C,2.082800*%
%ADD21R,1.403200X1.403200*%
%ADD22R,1.203200X1.403200*%
%ADD23R,1.303200X1.603200*%
%ADD24R,1.403200X1.503200*%
%ADD25C,2.743200*%
%ADD26R,0.453200X0.678200*%
%ADD27R,0.578200X0.453200*%
%ADD28R,1.676400X0.711200*%
%ADD29R,0.711200X1.676400*%
%ADD30R,0.551200X1.600200*%
%ADD31R,0.753200X1.403200*%
%ADD32C,1.854200*%
%ADD33R,1.503200X2.103200*%


D10*
X380120Y177800D03*
X397120Y177800D03*
D11*
X175895Y317500D03*
X194945Y317500D03*
D10*
X391820Y444500D03*
X410820Y444500D03*
X328320Y419100D03*
X347320Y419100D03*
X264820Y419100D03*
X283820Y419100D03*
D12*
X454320Y419100D03*
X475320Y419100D03*
D10*
X201320Y419100D03*
X220320Y419100D03*
D12*
X390820Y419100D03*
X411820Y419100D03*
D11*
X137795Y317500D03*
X156845Y317500D03*
X99695Y317500D03*
X118745Y317500D03*
X328295Y317500D03*
X347345Y317500D03*
D10*
X316620Y177800D03*
X333620Y177800D03*
X253120Y177800D03*
X270120Y177800D03*
D11*
X277495Y317500D03*
X296545Y317500D03*
X226695Y317500D03*
X245745Y317500D03*
D10*
X189620Y177800D03*
X206620Y177800D03*
D13*
X22040Y80720D03*
D14*
X50040Y86360D03*
X58040Y86360D03*
X66040Y86360D03*
X74040Y86360D03*
X82040Y86360D03*
D13*
X22040Y25720D03*
X110040Y80720D03*
X110040Y25720D03*
D15*
X44040Y55720D03*
X88040Y55720D03*
D16*
X128820Y368300D03*
X165820Y368300D03*
D17*
X477520Y381000D03*
X502920Y381000D03*
D18*
X55880Y273920D03*
D19*
X33080Y200920D03*
X78680Y200920D03*
D20*
X325120Y88900D03*
X325120Y114300D03*
X350520Y88900D03*
X350520Y114300D03*
X375920Y88900D03*
X375920Y114300D03*
D21*
X236220Y264500D03*
X236220Y243500D03*
X185420Y264500D03*
X185420Y243500D03*
X134620Y264500D03*
X134620Y243500D03*
X502920Y328000D03*
X502920Y307000D03*
D22*
X261620Y391000D03*
X271120Y371000D03*
X252120Y371000D03*
X198120Y391000D03*
X207620Y371000D03*
X188620Y371000D03*
D23*
X137320Y177800D03*
X157320Y177800D03*
D10*
X137820Y419100D03*
X156820Y419100D03*
X328320Y444500D03*
X347320Y444500D03*
X74320Y419100D03*
X93320Y419100D03*
D24*
X365760Y381000D03*
X386080Y381000D03*
X314960Y381000D03*
X335280Y381000D03*
D10*
X455320Y444500D03*
X474320Y444500D03*
D23*
X86520Y177800D03*
X106520Y177800D03*
X467520Y254000D03*
X487520Y254000D03*
X416720Y254000D03*
X436720Y254000D03*
X365920Y254000D03*
X385920Y254000D03*
X315120Y254000D03*
X335120Y254000D03*
X264320Y254000D03*
X284320Y254000D03*
D10*
X264820Y444500D03*
X283820Y444500D03*
X201320Y444500D03*
X220320Y444500D03*
D25*
X381520Y317500D03*
X446520Y317500D03*
D26*
X455020Y206125D03*
D27*
X454395Y198000D03*
X454395Y193000D03*
X454395Y188000D03*
X454395Y183000D03*
D26*
X455020Y174875D03*
X460020Y174875D03*
X465020Y174875D03*
X470020Y174875D03*
X475020Y174875D03*
X480020Y174875D03*
X485020Y174875D03*
X490020Y174875D03*
X495020Y174875D03*
X500020Y174875D03*
D27*
X500645Y183000D03*
X500645Y188000D03*
X500645Y193000D03*
X500645Y198000D03*
D26*
X500020Y206125D03*
X495020Y206125D03*
X490020Y206125D03*
X485020Y206125D03*
X480020Y206125D03*
X475020Y206125D03*
X470020Y206125D03*
X465020Y206125D03*
X460020Y206125D03*
D28*
X249682Y269240D03*
X249682Y261366D03*
X249682Y253238D03*
X249682Y245364D03*
X249682Y237236D03*
X249682Y229362D03*
X249682Y221234D03*
X249682Y213360D03*
D29*
X264160Y198882D03*
X272034Y198882D03*
X280162Y198882D03*
X288036Y198882D03*
X296164Y198882D03*
X304038Y198882D03*
X312166Y198882D03*
X320040Y198882D03*
D28*
X334518Y213360D03*
X334518Y221234D03*
X334518Y229362D03*
X334518Y237236D03*
X334518Y245364D03*
X334518Y253238D03*
X334518Y261366D03*
X334518Y269240D03*
D29*
X320040Y283718D03*
X312166Y283718D03*
X304038Y283718D03*
X296164Y283718D03*
X288036Y283718D03*
X280162Y283718D03*
X272034Y283718D03*
X264160Y283718D03*
D30*
X409870Y138160D03*
X416370Y138160D03*
X422870Y138160D03*
X429370Y138160D03*
X435870Y138160D03*
X442370Y138160D03*
X448870Y138160D03*
X461870Y138160D03*
X455370Y138160D03*
X468370Y138160D03*
X474870Y138160D03*
X481370Y138160D03*
X487870Y138160D03*
X494370Y138160D03*
X409870Y65040D03*
X416370Y65040D03*
X422870Y65040D03*
X429370Y65040D03*
X435870Y65040D03*
X442370Y65040D03*
X448870Y65040D03*
X455370Y65040D03*
X461870Y65040D03*
X468370Y65040D03*
X474870Y65040D03*
X481370Y65040D03*
X487870Y65040D03*
X494370Y65040D03*
D31*
X404520Y367999D03*
X414020Y367999D03*
X423520Y367999D03*
X423520Y394001D03*
X404520Y394001D03*
D32*
X223520Y88900D03*
X274320Y88900D03*
D33*
X119820Y72900D03*
X174820Y72900D03*
X174820Y104900D03*
X119820Y104900D03*
M02*
