G04 EAGLE Gerber X2 export*
%TF.Part,Single*%
%TF.FileFunction,Other,Component side*%
%TF.FilePolarity,Positive*%
%TF.GenerationSoftware,Autodesk,EAGLE,9.0.1*%
%TF.CreationDate,2019-02-15T17:53:46Z*%
G75*
%MOMM*%
%FSLAX34Y34*%
%LPD*%
%AMOC8*
5,1,8,0,0,1.08239X$1,22.5*%
G01*
%ADD10R,1.300000X1.500000*%
%ADD11R,1.270000X1.524000*%
%ADD12R,1.200000X1.500000*%
%ADD13R,2.000000X2.400000*%
%ADD14R,0.500000X2.308000*%
%ADD15R,1.200000X0.700000*%
%ADD16R,1.350000X0.800000*%
%ADD17R,5.400000X6.200000*%
%ADD18R,1.000000X1.600000*%
%ADD19C,1.879600*%
%ADD20R,1.200000X1.200000*%
%ADD21R,1.000000X1.200000*%
%ADD22R,1.100000X1.400000*%
%ADD23R,1.200000X1.300000*%
%ADD24C,2.540000*%
%ADD25R,0.250000X0.475000*%
%ADD26R,0.375000X0.250000*%
%ADD27R,1.473200X0.508000*%
%ADD28R,0.508000X1.473200*%
%ADD29R,0.348000X1.397000*%
%ADD30R,0.550000X1.200000*%
%ADD31C,1.651000*%
%ADD32R,1.300000X1.900000*%
%ADD33C,0.609600*%

G36*
X98517Y10178D02*
X98517Y10178D01*
X98655Y10191D01*
X98674Y10198D01*
X98694Y10201D01*
X98823Y10252D01*
X98954Y10299D01*
X98971Y10310D01*
X98990Y10318D01*
X99102Y10399D01*
X99218Y10477D01*
X99231Y10493D01*
X99247Y10504D01*
X99336Y10612D01*
X99428Y10716D01*
X99437Y10734D01*
X99450Y10749D01*
X99509Y10875D01*
X99573Y10999D01*
X99577Y11019D01*
X99586Y11037D01*
X99612Y11174D01*
X99642Y11309D01*
X99642Y11330D01*
X99645Y11349D01*
X99637Y11488D01*
X99633Y11627D01*
X99627Y11647D01*
X99626Y11667D01*
X99583Y11799D01*
X99544Y11933D01*
X99534Y11950D01*
X99528Y11969D01*
X99453Y12087D01*
X99383Y12207D01*
X99364Y12228D01*
X99357Y12238D01*
X99343Y12252D01*
X99276Y12327D01*
X98515Y13088D01*
X98515Y38352D01*
X99408Y39245D01*
X120672Y39245D01*
X121565Y38352D01*
X121565Y13088D01*
X120804Y12327D01*
X120719Y12218D01*
X120630Y12111D01*
X120621Y12092D01*
X120609Y12076D01*
X120554Y11949D01*
X120494Y11823D01*
X120491Y11803D01*
X120482Y11784D01*
X120461Y11646D01*
X120435Y11510D01*
X120436Y11490D01*
X120433Y11470D01*
X120446Y11331D01*
X120454Y11193D01*
X120461Y11174D01*
X120462Y11154D01*
X120510Y11022D01*
X120552Y10891D01*
X120563Y10873D01*
X120570Y10854D01*
X120648Y10739D01*
X120723Y10622D01*
X120737Y10608D01*
X120749Y10591D01*
X120853Y10499D01*
X120954Y10404D01*
X120972Y10394D01*
X120987Y10381D01*
X121111Y10318D01*
X121233Y10250D01*
X121252Y10245D01*
X121270Y10236D01*
X121406Y10206D01*
X121541Y10171D01*
X121569Y10169D01*
X121581Y10166D01*
X121601Y10167D01*
X121701Y10161D01*
X572570Y10161D01*
X572688Y10176D01*
X572807Y10183D01*
X572845Y10196D01*
X572886Y10201D01*
X572996Y10244D01*
X573109Y10281D01*
X573144Y10303D01*
X573181Y10318D01*
X573277Y10387D01*
X573378Y10451D01*
X573406Y10481D01*
X573439Y10504D01*
X573515Y10596D01*
X573596Y10683D01*
X573616Y10718D01*
X573641Y10749D01*
X573692Y10857D01*
X573750Y10961D01*
X573760Y11001D01*
X573777Y11037D01*
X573799Y11154D01*
X573829Y11269D01*
X573833Y11329D01*
X573837Y11349D01*
X573835Y11370D01*
X573839Y11430D01*
X573839Y467870D01*
X573824Y467988D01*
X573817Y468107D01*
X573804Y468145D01*
X573799Y468186D01*
X573756Y468296D01*
X573719Y468409D01*
X573697Y468444D01*
X573682Y468481D01*
X573613Y468577D01*
X573549Y468678D01*
X573519Y468706D01*
X573496Y468739D01*
X573404Y468815D01*
X573317Y468896D01*
X573282Y468916D01*
X573251Y468941D01*
X573143Y468992D01*
X573039Y469050D01*
X572999Y469060D01*
X572963Y469077D01*
X572846Y469099D01*
X572731Y469129D01*
X572671Y469133D01*
X572651Y469137D01*
X572630Y469135D01*
X572570Y469139D01*
X11430Y469139D01*
X11312Y469124D01*
X11193Y469117D01*
X11155Y469104D01*
X11114Y469099D01*
X11004Y469056D01*
X10891Y469019D01*
X10856Y468997D01*
X10819Y468982D01*
X10723Y468913D01*
X10622Y468849D01*
X10594Y468819D01*
X10561Y468796D01*
X10485Y468704D01*
X10404Y468617D01*
X10384Y468582D01*
X10359Y468551D01*
X10308Y468443D01*
X10250Y468339D01*
X10240Y468299D01*
X10223Y468263D01*
X10201Y468146D01*
X10171Y468031D01*
X10167Y467971D01*
X10163Y467951D01*
X10165Y467930D01*
X10161Y467870D01*
X10161Y95514D01*
X10176Y95396D01*
X10183Y95277D01*
X10196Y95239D01*
X10201Y95198D01*
X10244Y95088D01*
X10281Y94975D01*
X10303Y94940D01*
X10318Y94903D01*
X10387Y94807D01*
X10451Y94706D01*
X10481Y94678D01*
X10504Y94645D01*
X10596Y94569D01*
X10683Y94488D01*
X10718Y94468D01*
X10749Y94443D01*
X10857Y94392D01*
X10961Y94334D01*
X11001Y94324D01*
X11037Y94307D01*
X11154Y94285D01*
X11269Y94255D01*
X11329Y94251D01*
X11349Y94247D01*
X11370Y94249D01*
X11430Y94245D01*
X32672Y94245D01*
X33565Y93352D01*
X33565Y69690D01*
X33571Y69641D01*
X33569Y69592D01*
X33591Y69484D01*
X33605Y69375D01*
X33623Y69329D01*
X33633Y69280D01*
X33681Y69181D01*
X33722Y69079D01*
X33751Y69039D01*
X33773Y68994D01*
X33844Y68911D01*
X33908Y68822D01*
X33947Y68790D01*
X33979Y68752D01*
X34069Y68689D01*
X34153Y68619D01*
X34198Y68598D01*
X34239Y68569D01*
X34342Y68530D01*
X34441Y68484D01*
X34490Y68474D01*
X34536Y68457D01*
X34646Y68444D01*
X34753Y68424D01*
X34803Y68427D01*
X34852Y68421D01*
X34961Y68437D01*
X35071Y68443D01*
X35118Y68459D01*
X35167Y68466D01*
X35320Y68518D01*
X41024Y70881D01*
X46259Y70881D01*
X46397Y70898D01*
X46535Y70911D01*
X46554Y70918D01*
X46574Y70921D01*
X46703Y70972D01*
X46834Y71019D01*
X46838Y71021D01*
X46860Y71000D01*
X46921Y70966D01*
X46977Y70924D01*
X47122Y70853D01*
X52628Y68573D01*
X56893Y64308D01*
X59201Y58736D01*
X59201Y52704D01*
X56893Y47132D01*
X52628Y42867D01*
X47056Y40559D01*
X41024Y40559D01*
X35452Y42867D01*
X31187Y47132D01*
X28879Y52704D01*
X28879Y58736D01*
X31187Y64308D01*
X31908Y65029D01*
X31993Y65138D01*
X32082Y65245D01*
X32091Y65264D01*
X32103Y65280D01*
X32158Y65408D01*
X32217Y65533D01*
X32221Y65553D01*
X32229Y65572D01*
X32251Y65710D01*
X32277Y65846D01*
X32276Y65866D01*
X32279Y65886D01*
X32266Y66025D01*
X32257Y66163D01*
X32251Y66182D01*
X32249Y66202D01*
X32202Y66333D01*
X32159Y66465D01*
X32149Y66483D01*
X32142Y66502D01*
X32064Y66616D01*
X31989Y66734D01*
X31974Y66748D01*
X31963Y66765D01*
X31859Y66857D01*
X31758Y66952D01*
X31740Y66962D01*
X31725Y66975D01*
X31601Y67038D01*
X31479Y67106D01*
X31460Y67111D01*
X31441Y67120D01*
X31306Y67150D01*
X31171Y67185D01*
X31143Y67187D01*
X31131Y67190D01*
X31111Y67189D01*
X31011Y67195D01*
X11430Y67195D01*
X11312Y67180D01*
X11193Y67173D01*
X11155Y67160D01*
X11114Y67155D01*
X11004Y67112D01*
X10891Y67075D01*
X10856Y67053D01*
X10819Y67038D01*
X10723Y66969D01*
X10622Y66905D01*
X10594Y66875D01*
X10561Y66852D01*
X10485Y66760D01*
X10404Y66673D01*
X10384Y66638D01*
X10359Y66607D01*
X10308Y66499D01*
X10250Y66395D01*
X10240Y66355D01*
X10223Y66319D01*
X10201Y66202D01*
X10171Y66087D01*
X10167Y66027D01*
X10163Y66007D01*
X10165Y65986D01*
X10161Y65926D01*
X10161Y40514D01*
X10176Y40396D01*
X10183Y40277D01*
X10196Y40239D01*
X10201Y40198D01*
X10244Y40088D01*
X10281Y39975D01*
X10303Y39940D01*
X10318Y39903D01*
X10387Y39807D01*
X10451Y39706D01*
X10481Y39678D01*
X10504Y39645D01*
X10596Y39569D01*
X10683Y39488D01*
X10718Y39468D01*
X10749Y39443D01*
X10857Y39392D01*
X10961Y39334D01*
X11001Y39324D01*
X11037Y39307D01*
X11154Y39285D01*
X11269Y39255D01*
X11329Y39251D01*
X11349Y39247D01*
X11370Y39249D01*
X11430Y39245D01*
X32672Y39245D01*
X33565Y38352D01*
X33565Y13088D01*
X32804Y12327D01*
X32719Y12218D01*
X32630Y12111D01*
X32621Y12092D01*
X32609Y12076D01*
X32554Y11949D01*
X32494Y11823D01*
X32491Y11803D01*
X32482Y11784D01*
X32461Y11646D01*
X32435Y11510D01*
X32436Y11490D01*
X32433Y11470D01*
X32446Y11331D01*
X32454Y11193D01*
X32461Y11174D01*
X32462Y11154D01*
X32510Y11022D01*
X32552Y10891D01*
X32563Y10873D01*
X32570Y10854D01*
X32648Y10739D01*
X32723Y10622D01*
X32737Y10608D01*
X32749Y10591D01*
X32853Y10499D01*
X32954Y10404D01*
X32972Y10394D01*
X32987Y10381D01*
X33111Y10318D01*
X33233Y10250D01*
X33252Y10245D01*
X33270Y10236D01*
X33406Y10206D01*
X33541Y10171D01*
X33569Y10169D01*
X33581Y10166D01*
X33601Y10167D01*
X33701Y10161D01*
X98379Y10161D01*
X98517Y10178D01*
G37*
%LPC*%
G36*
X85024Y40559D02*
X85024Y40559D01*
X79452Y42867D01*
X75187Y47132D01*
X72879Y52704D01*
X72879Y58736D01*
X75187Y64308D01*
X79452Y68573D01*
X82506Y69837D01*
X82566Y69872D01*
X82631Y69898D01*
X82704Y69950D01*
X82782Y69995D01*
X82832Y70043D01*
X82888Y70084D01*
X82946Y70154D01*
X83010Y70216D01*
X83047Y70276D01*
X83091Y70329D01*
X83129Y70411D01*
X83176Y70487D01*
X83197Y70554D01*
X83227Y70617D01*
X83244Y70705D01*
X83270Y70791D01*
X83273Y70861D01*
X83286Y70930D01*
X83281Y71019D01*
X83285Y71109D01*
X83271Y71177D01*
X83267Y71247D01*
X83239Y71332D01*
X83221Y71420D01*
X83190Y71483D01*
X83169Y71549D01*
X83121Y71625D01*
X83081Y71706D01*
X83036Y71759D01*
X82999Y71818D01*
X82933Y71880D01*
X82875Y71948D01*
X82818Y71988D01*
X82767Y72036D01*
X82688Y72079D01*
X82615Y72131D01*
X82549Y72156D01*
X82488Y72190D01*
X82402Y72212D01*
X82317Y72244D01*
X82248Y72252D01*
X82180Y72269D01*
X82020Y72279D01*
X79206Y72279D01*
X78559Y72452D01*
X77980Y72787D01*
X77843Y72924D01*
X77765Y72984D01*
X77693Y73052D01*
X77640Y73081D01*
X77592Y73118D01*
X77501Y73158D01*
X77414Y73206D01*
X77356Y73221D01*
X77300Y73245D01*
X77202Y73260D01*
X77107Y73285D01*
X77007Y73291D01*
X76986Y73295D01*
X76974Y73293D01*
X76946Y73295D01*
X70900Y73295D01*
X70854Y73331D01*
X70802Y73380D01*
X70789Y73387D01*
X70754Y73418D01*
X70718Y73436D01*
X70686Y73461D01*
X70577Y73508D01*
X70471Y73563D01*
X70431Y73571D01*
X70394Y73587D01*
X70277Y73606D01*
X70161Y73632D01*
X70120Y73631D01*
X70080Y73637D01*
X69961Y73626D01*
X69843Y73623D01*
X69804Y73611D01*
X69764Y73608D01*
X69652Y73567D01*
X69537Y73534D01*
X69502Y73514D01*
X69464Y73500D01*
X69416Y73467D01*
X69414Y73466D01*
X69402Y73457D01*
X69366Y73433D01*
X69263Y73373D01*
X69218Y73333D01*
X69201Y73321D01*
X69188Y73306D01*
X69175Y73295D01*
X62900Y73295D01*
X62854Y73331D01*
X62802Y73380D01*
X62789Y73387D01*
X62754Y73418D01*
X62718Y73436D01*
X62686Y73461D01*
X62577Y73508D01*
X62471Y73563D01*
X62431Y73571D01*
X62394Y73587D01*
X62277Y73606D01*
X62161Y73632D01*
X62120Y73631D01*
X62080Y73637D01*
X61961Y73626D01*
X61843Y73623D01*
X61804Y73611D01*
X61764Y73608D01*
X61652Y73567D01*
X61537Y73534D01*
X61502Y73514D01*
X61464Y73500D01*
X61416Y73467D01*
X61414Y73466D01*
X61402Y73457D01*
X61366Y73433D01*
X61263Y73373D01*
X61218Y73333D01*
X61201Y73321D01*
X61188Y73306D01*
X61175Y73295D01*
X54900Y73295D01*
X54854Y73331D01*
X54802Y73380D01*
X54789Y73387D01*
X54754Y73418D01*
X54718Y73436D01*
X54686Y73461D01*
X54577Y73508D01*
X54471Y73563D01*
X54431Y73571D01*
X54394Y73587D01*
X54277Y73606D01*
X54161Y73632D01*
X54120Y73631D01*
X54080Y73637D01*
X53961Y73626D01*
X53843Y73623D01*
X53804Y73611D01*
X53764Y73608D01*
X53652Y73567D01*
X53537Y73534D01*
X53502Y73514D01*
X53464Y73500D01*
X53416Y73467D01*
X53414Y73466D01*
X53402Y73457D01*
X53366Y73433D01*
X53263Y73373D01*
X53218Y73333D01*
X53201Y73321D01*
X53188Y73306D01*
X53175Y73295D01*
X47607Y73295D01*
X47538Y73287D01*
X47468Y73288D01*
X47381Y73267D01*
X47292Y73255D01*
X47227Y73230D01*
X47159Y73213D01*
X47080Y73171D01*
X47046Y73158D01*
X46015Y74188D01*
X46015Y98532D01*
X46908Y99425D01*
X53180Y99425D01*
X53237Y99381D01*
X53326Y99302D01*
X53362Y99284D01*
X53394Y99259D01*
X53503Y99212D01*
X53609Y99157D01*
X53648Y99149D01*
X53686Y99133D01*
X53803Y99114D01*
X53919Y99088D01*
X53960Y99089D01*
X54000Y99083D01*
X54118Y99094D01*
X54237Y99097D01*
X54276Y99109D01*
X54316Y99112D01*
X54428Y99153D01*
X54543Y99186D01*
X54577Y99206D01*
X54616Y99220D01*
X54714Y99287D01*
X54817Y99347D01*
X54862Y99387D01*
X54879Y99399D01*
X54892Y99414D01*
X54904Y99425D01*
X61180Y99425D01*
X61237Y99381D01*
X61326Y99302D01*
X61362Y99284D01*
X61394Y99259D01*
X61503Y99212D01*
X61609Y99157D01*
X61648Y99149D01*
X61686Y99133D01*
X61803Y99114D01*
X61919Y99088D01*
X61960Y99089D01*
X62000Y99083D01*
X62118Y99094D01*
X62237Y99097D01*
X62276Y99109D01*
X62316Y99112D01*
X62428Y99153D01*
X62543Y99186D01*
X62577Y99206D01*
X62616Y99220D01*
X62714Y99287D01*
X62817Y99347D01*
X62862Y99387D01*
X62879Y99399D01*
X62892Y99414D01*
X62904Y99425D01*
X69180Y99425D01*
X69237Y99381D01*
X69326Y99302D01*
X69362Y99284D01*
X69394Y99259D01*
X69503Y99212D01*
X69609Y99157D01*
X69648Y99149D01*
X69686Y99133D01*
X69803Y99114D01*
X69919Y99088D01*
X69960Y99089D01*
X70000Y99083D01*
X70118Y99094D01*
X70237Y99097D01*
X70276Y99109D01*
X70316Y99112D01*
X70428Y99153D01*
X70543Y99186D01*
X70577Y99206D01*
X70616Y99220D01*
X70714Y99287D01*
X70817Y99347D01*
X70862Y99387D01*
X70879Y99399D01*
X70892Y99414D01*
X70904Y99425D01*
X76946Y99425D01*
X77044Y99437D01*
X77143Y99440D01*
X77201Y99457D01*
X77261Y99465D01*
X77353Y99501D01*
X77449Y99529D01*
X77501Y99559D01*
X77557Y99582D01*
X77637Y99640D01*
X77723Y99690D01*
X77798Y99756D01*
X77814Y99768D01*
X77822Y99778D01*
X77843Y99796D01*
X77980Y99933D01*
X78559Y100268D01*
X79206Y100441D01*
X80771Y100441D01*
X80771Y86360D01*
X80786Y86242D01*
X80793Y86123D01*
X80805Y86085D01*
X80810Y86045D01*
X80854Y85934D01*
X80891Y85821D01*
X80913Y85787D01*
X80927Y85749D01*
X80997Y85653D01*
X81061Y85552D01*
X81062Y85552D01*
X81091Y85524D01*
X81114Y85492D01*
X81115Y85491D01*
X81207Y85415D01*
X81293Y85334D01*
X81329Y85314D01*
X81360Y85288D01*
X81467Y85238D01*
X81572Y85180D01*
X81611Y85170D01*
X81647Y85153D01*
X81764Y85131D01*
X81880Y85101D01*
X81940Y85097D01*
X81960Y85093D01*
X81980Y85094D01*
X82040Y85091D01*
X87081Y85091D01*
X87081Y74486D01*
X86908Y73839D01*
X86573Y73260D01*
X86361Y73048D01*
X86276Y72938D01*
X86187Y72831D01*
X86178Y72812D01*
X86166Y72796D01*
X86110Y72668D01*
X86051Y72543D01*
X86047Y72523D01*
X86039Y72504D01*
X86018Y72367D01*
X85991Y72230D01*
X85993Y72210D01*
X85989Y72190D01*
X86002Y72052D01*
X86011Y71913D01*
X86017Y71894D01*
X86019Y71874D01*
X86066Y71743D01*
X86109Y71611D01*
X86120Y71593D01*
X86127Y71574D01*
X86205Y71459D01*
X86279Y71342D01*
X86294Y71328D01*
X86305Y71311D01*
X86410Y71219D01*
X86511Y71124D01*
X86529Y71114D01*
X86544Y71101D01*
X86668Y71037D01*
X86789Y70970D01*
X86809Y70965D01*
X86827Y70956D01*
X86963Y70926D01*
X87097Y70891D01*
X87125Y70889D01*
X87137Y70886D01*
X87158Y70887D01*
X87258Y70881D01*
X91056Y70881D01*
X96760Y68518D01*
X96808Y68505D01*
X96853Y68484D01*
X96961Y68463D01*
X97067Y68434D01*
X97117Y68433D01*
X97166Y68424D01*
X97275Y68431D01*
X97385Y68429D01*
X97433Y68440D01*
X97483Y68443D01*
X97587Y68477D01*
X97694Y68503D01*
X97738Y68526D01*
X97785Y68542D01*
X97878Y68600D01*
X97975Y68652D01*
X98012Y68685D01*
X98054Y68712D01*
X98129Y68792D01*
X98211Y68866D01*
X98238Y68907D01*
X98272Y68943D01*
X98325Y69039D01*
X98385Y69131D01*
X98402Y69178D01*
X98426Y69222D01*
X98453Y69328D01*
X98489Y69432D01*
X98493Y69482D01*
X98505Y69530D01*
X98515Y69690D01*
X98515Y93352D01*
X99408Y94245D01*
X110526Y94245D01*
X110644Y94260D01*
X110763Y94267D01*
X110801Y94280D01*
X110842Y94285D01*
X110952Y94328D01*
X111065Y94365D01*
X111100Y94387D01*
X111137Y94402D01*
X111233Y94471D01*
X111334Y94535D01*
X111362Y94565D01*
X111395Y94588D01*
X111471Y94680D01*
X111552Y94767D01*
X111572Y94802D01*
X111597Y94833D01*
X111648Y94941D01*
X111706Y95045D01*
X111716Y95085D01*
X111733Y95121D01*
X111755Y95238D01*
X111785Y95353D01*
X111789Y95413D01*
X111793Y95433D01*
X111791Y95454D01*
X111795Y95514D01*
X111795Y115032D01*
X112688Y115925D01*
X126952Y115925D01*
X127845Y115032D01*
X127845Y94768D01*
X126952Y93875D01*
X122834Y93875D01*
X122716Y93860D01*
X122597Y93853D01*
X122559Y93840D01*
X122518Y93835D01*
X122408Y93792D01*
X122295Y93755D01*
X122260Y93733D01*
X122223Y93718D01*
X122127Y93649D01*
X122026Y93585D01*
X121998Y93555D01*
X121965Y93532D01*
X121889Y93440D01*
X121808Y93353D01*
X121788Y93318D01*
X121763Y93287D01*
X121712Y93179D01*
X121654Y93075D01*
X121644Y93035D01*
X121627Y92999D01*
X121605Y92882D01*
X121575Y92767D01*
X121571Y92707D01*
X121567Y92687D01*
X121569Y92666D01*
X121565Y92606D01*
X121565Y85194D01*
X121580Y85076D01*
X121587Y84957D01*
X121600Y84919D01*
X121605Y84878D01*
X121648Y84768D01*
X121685Y84655D01*
X121707Y84620D01*
X121722Y84583D01*
X121791Y84487D01*
X121855Y84386D01*
X121885Y84358D01*
X121908Y84325D01*
X122000Y84249D01*
X122087Y84168D01*
X122122Y84148D01*
X122153Y84123D01*
X122261Y84072D01*
X122365Y84014D01*
X122405Y84004D01*
X122441Y83987D01*
X122558Y83965D01*
X122673Y83935D01*
X122733Y83931D01*
X122753Y83927D01*
X122774Y83929D01*
X122834Y83925D01*
X126952Y83925D01*
X127845Y83032D01*
X127845Y62768D01*
X126952Y61875D01*
X112688Y61875D01*
X111795Y62768D01*
X111795Y65926D01*
X111780Y66044D01*
X111773Y66163D01*
X111760Y66201D01*
X111755Y66242D01*
X111712Y66352D01*
X111675Y66465D01*
X111653Y66500D01*
X111638Y66537D01*
X111569Y66633D01*
X111505Y66734D01*
X111475Y66762D01*
X111452Y66795D01*
X111360Y66871D01*
X111273Y66952D01*
X111238Y66972D01*
X111207Y66997D01*
X111099Y67048D01*
X110995Y67106D01*
X110955Y67116D01*
X110919Y67133D01*
X110802Y67155D01*
X110687Y67185D01*
X110627Y67189D01*
X110607Y67193D01*
X110586Y67191D01*
X110526Y67195D01*
X101069Y67195D01*
X100931Y67178D01*
X100793Y67165D01*
X100774Y67158D01*
X100754Y67155D01*
X100625Y67104D01*
X100494Y67057D01*
X100477Y67046D01*
X100458Y67038D01*
X100346Y66957D01*
X100231Y66879D01*
X100217Y66863D01*
X100201Y66852D01*
X100112Y66744D01*
X100020Y66640D01*
X100011Y66622D01*
X99998Y66607D01*
X99939Y66481D01*
X99876Y66357D01*
X99871Y66337D01*
X99863Y66319D01*
X99836Y66182D01*
X99806Y66047D01*
X99807Y66026D01*
X99803Y66007D01*
X99811Y65868D01*
X99816Y65729D01*
X99821Y65709D01*
X99823Y65689D01*
X99865Y65557D01*
X99904Y65423D01*
X99914Y65406D01*
X99921Y65387D01*
X99995Y65269D01*
X100066Y65149D01*
X100084Y65128D01*
X100091Y65118D01*
X100106Y65104D01*
X100172Y65029D01*
X100893Y64308D01*
X103201Y58736D01*
X103201Y52704D01*
X100893Y47132D01*
X96628Y42867D01*
X91056Y40559D01*
X85024Y40559D01*
G37*
%LPD*%
%LPC*%
G36*
X102234Y307339D02*
X102234Y307339D01*
X102234Y316230D01*
X102219Y316348D01*
X102212Y316467D01*
X102199Y316505D01*
X102194Y316545D01*
X102150Y316656D01*
X102114Y316769D01*
X102092Y316804D01*
X102077Y316841D01*
X102007Y316937D01*
X101944Y317038D01*
X101914Y317066D01*
X101890Y317098D01*
X101799Y317174D01*
X101712Y317256D01*
X101677Y317275D01*
X101645Y317301D01*
X101538Y317352D01*
X101434Y317409D01*
X101394Y317420D01*
X101358Y317437D01*
X101241Y317459D01*
X101126Y317489D01*
X101065Y317493D01*
X101045Y317497D01*
X101025Y317495D01*
X100965Y317499D01*
X99694Y317499D01*
X99694Y317501D01*
X100965Y317501D01*
X101083Y317516D01*
X101202Y317523D01*
X101240Y317536D01*
X101280Y317541D01*
X101391Y317585D01*
X101504Y317621D01*
X101539Y317643D01*
X101576Y317658D01*
X101672Y317728D01*
X101773Y317791D01*
X101801Y317821D01*
X101833Y317845D01*
X101909Y317936D01*
X101991Y318023D01*
X102010Y318058D01*
X102036Y318090D01*
X102087Y318197D01*
X102144Y318301D01*
X102155Y318341D01*
X102172Y318377D01*
X102194Y318494D01*
X102224Y318609D01*
X102228Y318670D01*
X102232Y318690D01*
X102230Y318710D01*
X102234Y318770D01*
X102234Y327661D01*
X106379Y327661D01*
X107026Y327488D01*
X107605Y327153D01*
X108078Y326680D01*
X108413Y326101D01*
X108437Y326011D01*
X108487Y325888D01*
X108532Y325763D01*
X108547Y325741D01*
X108557Y325716D01*
X108636Y325610D01*
X108710Y325500D01*
X108730Y325482D01*
X108746Y325461D01*
X108849Y325377D01*
X108949Y325290D01*
X108973Y325278D01*
X108994Y325261D01*
X109114Y325205D01*
X109232Y325145D01*
X109258Y325139D01*
X109283Y325128D01*
X109413Y325104D01*
X109542Y325076D01*
X109569Y325076D01*
X109596Y325072D01*
X109727Y325081D01*
X109860Y325085D01*
X109886Y325093D01*
X109913Y325095D01*
X110038Y325137D01*
X110165Y325174D01*
X110189Y325187D01*
X110214Y325196D01*
X110325Y325268D01*
X110439Y325335D01*
X110468Y325360D01*
X110481Y325369D01*
X110496Y325385D01*
X110560Y325442D01*
X111763Y326645D01*
X125727Y326645D01*
X126930Y325442D01*
X127035Y325360D01*
X127135Y325275D01*
X127160Y325263D01*
X127181Y325247D01*
X127303Y325194D01*
X127422Y325136D01*
X127448Y325131D01*
X127473Y325120D01*
X127604Y325099D01*
X127733Y325073D01*
X127760Y325075D01*
X127787Y325070D01*
X127919Y325083D01*
X128051Y325090D01*
X128077Y325098D01*
X128104Y325100D01*
X128228Y325145D01*
X128355Y325184D01*
X128378Y325199D01*
X128403Y325208D01*
X128512Y325282D01*
X128625Y325352D01*
X128644Y325371D01*
X128666Y325386D01*
X128754Y325486D01*
X128845Y325581D01*
X128859Y325605D01*
X128877Y325625D01*
X128937Y325743D01*
X129002Y325858D01*
X129014Y325894D01*
X129021Y325908D01*
X129026Y325929D01*
X129053Y326011D01*
X129077Y326101D01*
X129412Y326680D01*
X129885Y327153D01*
X130464Y327488D01*
X131111Y327661D01*
X135256Y327661D01*
X135256Y318770D01*
X135271Y318652D01*
X135278Y318533D01*
X135291Y318495D01*
X135296Y318455D01*
X135339Y318344D01*
X135376Y318231D01*
X135398Y318196D01*
X135413Y318159D01*
X135483Y318063D01*
X135546Y317962D01*
X135576Y317934D01*
X135600Y317902D01*
X135691Y317826D01*
X135778Y317744D01*
X135813Y317725D01*
X135844Y317699D01*
X135952Y317648D01*
X136056Y317591D01*
X136096Y317580D01*
X136132Y317563D01*
X136249Y317541D01*
X136364Y317511D01*
X136425Y317507D01*
X136445Y317503D01*
X136465Y317505D01*
X136525Y317501D01*
X139065Y317501D01*
X139183Y317516D01*
X139302Y317523D01*
X139340Y317536D01*
X139380Y317541D01*
X139491Y317585D01*
X139604Y317621D01*
X139639Y317643D01*
X139676Y317658D01*
X139772Y317728D01*
X139873Y317791D01*
X139901Y317821D01*
X139933Y317845D01*
X140009Y317936D01*
X140091Y318023D01*
X140110Y318058D01*
X140136Y318090D01*
X140187Y318197D01*
X140244Y318301D01*
X140255Y318341D01*
X140272Y318377D01*
X140294Y318494D01*
X140324Y318609D01*
X140328Y318670D01*
X140332Y318690D01*
X140330Y318710D01*
X140334Y318770D01*
X140334Y327661D01*
X144479Y327661D01*
X145126Y327488D01*
X145705Y327153D01*
X146178Y326680D01*
X146513Y326101D01*
X146537Y326011D01*
X146587Y325888D01*
X146632Y325763D01*
X146647Y325741D01*
X146657Y325716D01*
X146736Y325610D01*
X146810Y325500D01*
X146830Y325482D01*
X146846Y325461D01*
X146949Y325377D01*
X147049Y325290D01*
X147073Y325278D01*
X147094Y325261D01*
X147214Y325205D01*
X147332Y325145D01*
X147358Y325139D01*
X147383Y325128D01*
X147513Y325104D01*
X147642Y325076D01*
X147669Y325076D01*
X147696Y325072D01*
X147827Y325081D01*
X147960Y325085D01*
X147986Y325093D01*
X148013Y325095D01*
X148138Y325137D01*
X148265Y325174D01*
X148289Y325187D01*
X148314Y325196D01*
X148425Y325268D01*
X148539Y325335D01*
X148568Y325360D01*
X148581Y325369D01*
X148596Y325385D01*
X148660Y325442D01*
X149863Y326645D01*
X163827Y326645D01*
X165030Y325442D01*
X165135Y325360D01*
X165235Y325275D01*
X165260Y325263D01*
X165281Y325247D01*
X165403Y325194D01*
X165522Y325136D01*
X165548Y325131D01*
X165573Y325120D01*
X165704Y325099D01*
X165833Y325073D01*
X165860Y325075D01*
X165887Y325070D01*
X166019Y325083D01*
X166151Y325090D01*
X166177Y325098D01*
X166204Y325100D01*
X166328Y325145D01*
X166455Y325184D01*
X166478Y325199D01*
X166503Y325208D01*
X166612Y325282D01*
X166725Y325352D01*
X166744Y325371D01*
X166766Y325386D01*
X166854Y325486D01*
X166945Y325581D01*
X166959Y325605D01*
X166977Y325625D01*
X167037Y325743D01*
X167102Y325858D01*
X167114Y325894D01*
X167121Y325908D01*
X167126Y325929D01*
X167153Y326011D01*
X167177Y326101D01*
X167512Y326680D01*
X167985Y327153D01*
X168564Y327488D01*
X169211Y327661D01*
X173356Y327661D01*
X173356Y318770D01*
X173371Y318652D01*
X173378Y318533D01*
X173391Y318495D01*
X173396Y318455D01*
X173439Y318344D01*
X173476Y318231D01*
X173498Y318196D01*
X173513Y318159D01*
X173583Y318063D01*
X173646Y317962D01*
X173676Y317934D01*
X173700Y317902D01*
X173791Y317826D01*
X173878Y317744D01*
X173913Y317725D01*
X173944Y317699D01*
X174052Y317648D01*
X174156Y317591D01*
X174196Y317580D01*
X174232Y317563D01*
X174349Y317541D01*
X174464Y317511D01*
X174525Y317507D01*
X174545Y317503D01*
X174565Y317505D01*
X174625Y317501D01*
X177165Y317501D01*
X177283Y317516D01*
X177402Y317523D01*
X177440Y317536D01*
X177480Y317541D01*
X177591Y317585D01*
X177704Y317621D01*
X177739Y317643D01*
X177776Y317658D01*
X177872Y317728D01*
X177973Y317791D01*
X178001Y317821D01*
X178033Y317845D01*
X178109Y317936D01*
X178191Y318023D01*
X178210Y318058D01*
X178236Y318090D01*
X178287Y318197D01*
X178344Y318301D01*
X178355Y318341D01*
X178372Y318377D01*
X178394Y318494D01*
X178424Y318609D01*
X178428Y318670D01*
X178432Y318690D01*
X178430Y318710D01*
X178434Y318770D01*
X178434Y327661D01*
X182579Y327661D01*
X183226Y327488D01*
X183805Y327153D01*
X184278Y326680D01*
X184613Y326101D01*
X184637Y326011D01*
X184687Y325888D01*
X184732Y325763D01*
X184747Y325741D01*
X184757Y325716D01*
X184836Y325610D01*
X184910Y325500D01*
X184930Y325482D01*
X184946Y325461D01*
X185049Y325377D01*
X185149Y325290D01*
X185173Y325278D01*
X185194Y325261D01*
X185314Y325205D01*
X185432Y325145D01*
X185458Y325139D01*
X185483Y325128D01*
X185613Y325104D01*
X185742Y325076D01*
X185769Y325076D01*
X185796Y325072D01*
X185927Y325081D01*
X186060Y325085D01*
X186086Y325093D01*
X186113Y325095D01*
X186238Y325137D01*
X186365Y325174D01*
X186389Y325187D01*
X186414Y325196D01*
X186525Y325268D01*
X186639Y325335D01*
X186668Y325360D01*
X186681Y325369D01*
X186696Y325385D01*
X186760Y325442D01*
X187963Y326645D01*
X201927Y326645D01*
X202820Y325752D01*
X202820Y309248D01*
X201927Y308355D01*
X187963Y308355D01*
X186760Y309558D01*
X186655Y309640D01*
X186555Y309725D01*
X186530Y309737D01*
X186509Y309753D01*
X186387Y309806D01*
X186268Y309864D01*
X186242Y309869D01*
X186217Y309880D01*
X186086Y309901D01*
X185957Y309927D01*
X185930Y309925D01*
X185903Y309930D01*
X185771Y309917D01*
X185639Y309910D01*
X185613Y309902D01*
X185586Y309900D01*
X185462Y309855D01*
X185335Y309816D01*
X185312Y309801D01*
X185287Y309792D01*
X185178Y309718D01*
X185065Y309648D01*
X185046Y309629D01*
X185024Y309614D01*
X184936Y309514D01*
X184845Y309419D01*
X184831Y309395D01*
X184813Y309375D01*
X184753Y309257D01*
X184688Y309142D01*
X184676Y309106D01*
X184669Y309092D01*
X184664Y309071D01*
X184637Y308989D01*
X184613Y308899D01*
X184278Y308320D01*
X183805Y307847D01*
X183226Y307512D01*
X182579Y307339D01*
X178434Y307339D01*
X178434Y316230D01*
X178419Y316348D01*
X178412Y316467D01*
X178399Y316505D01*
X178394Y316545D01*
X178350Y316656D01*
X178314Y316769D01*
X178292Y316804D01*
X178277Y316841D01*
X178207Y316937D01*
X178144Y317038D01*
X178114Y317066D01*
X178090Y317098D01*
X177999Y317174D01*
X177912Y317256D01*
X177877Y317275D01*
X177845Y317301D01*
X177738Y317352D01*
X177634Y317409D01*
X177594Y317420D01*
X177558Y317437D01*
X177441Y317459D01*
X177326Y317489D01*
X177265Y317493D01*
X177245Y317497D01*
X177225Y317495D01*
X177165Y317499D01*
X174625Y317499D01*
X174507Y317484D01*
X174388Y317477D01*
X174350Y317464D01*
X174310Y317459D01*
X174199Y317415D01*
X174086Y317379D01*
X174051Y317357D01*
X174014Y317342D01*
X173918Y317272D01*
X173817Y317209D01*
X173789Y317179D01*
X173756Y317155D01*
X173681Y317064D01*
X173599Y316977D01*
X173579Y316942D01*
X173554Y316910D01*
X173503Y316803D01*
X173445Y316699D01*
X173435Y316659D01*
X173418Y316623D01*
X173396Y316506D01*
X173366Y316391D01*
X173362Y316330D01*
X173358Y316310D01*
X173360Y316290D01*
X173356Y316230D01*
X173356Y307339D01*
X169211Y307339D01*
X168564Y307512D01*
X167985Y307847D01*
X167512Y308320D01*
X167177Y308899D01*
X167153Y308989D01*
X167103Y309112D01*
X167058Y309237D01*
X167043Y309259D01*
X167033Y309284D01*
X166954Y309390D01*
X166880Y309500D01*
X166860Y309518D01*
X166844Y309539D01*
X166741Y309623D01*
X166641Y309710D01*
X166617Y309722D01*
X166596Y309739D01*
X166476Y309795D01*
X166358Y309855D01*
X166332Y309861D01*
X166307Y309872D01*
X166177Y309896D01*
X166048Y309924D01*
X166021Y309924D01*
X165994Y309928D01*
X165863Y309919D01*
X165730Y309915D01*
X165704Y309907D01*
X165677Y309905D01*
X165552Y309863D01*
X165425Y309826D01*
X165401Y309813D01*
X165376Y309804D01*
X165265Y309732D01*
X165151Y309665D01*
X165122Y309640D01*
X165109Y309631D01*
X165094Y309615D01*
X165030Y309558D01*
X163827Y308355D01*
X149863Y308355D01*
X148660Y309558D01*
X148555Y309640D01*
X148455Y309725D01*
X148430Y309737D01*
X148409Y309753D01*
X148287Y309806D01*
X148168Y309864D01*
X148142Y309869D01*
X148117Y309880D01*
X147986Y309901D01*
X147857Y309927D01*
X147830Y309925D01*
X147803Y309930D01*
X147671Y309917D01*
X147539Y309910D01*
X147513Y309902D01*
X147486Y309900D01*
X147362Y309855D01*
X147235Y309816D01*
X147212Y309801D01*
X147187Y309792D01*
X147078Y309718D01*
X146965Y309648D01*
X146946Y309629D01*
X146924Y309614D01*
X146836Y309514D01*
X146745Y309419D01*
X146731Y309395D01*
X146713Y309375D01*
X146653Y309257D01*
X146588Y309142D01*
X146576Y309106D01*
X146569Y309092D01*
X146564Y309071D01*
X146537Y308989D01*
X146513Y308899D01*
X146178Y308320D01*
X145705Y307847D01*
X145126Y307512D01*
X144479Y307339D01*
X140334Y307339D01*
X140334Y316230D01*
X140319Y316348D01*
X140312Y316467D01*
X140299Y316505D01*
X140294Y316545D01*
X140250Y316656D01*
X140214Y316769D01*
X140192Y316804D01*
X140177Y316841D01*
X140107Y316937D01*
X140044Y317038D01*
X140014Y317066D01*
X139990Y317098D01*
X139899Y317174D01*
X139812Y317256D01*
X139777Y317275D01*
X139745Y317301D01*
X139638Y317352D01*
X139534Y317409D01*
X139494Y317420D01*
X139458Y317437D01*
X139341Y317459D01*
X139226Y317489D01*
X139165Y317493D01*
X139145Y317497D01*
X139125Y317495D01*
X139065Y317499D01*
X136525Y317499D01*
X136407Y317484D01*
X136288Y317477D01*
X136250Y317464D01*
X136210Y317459D01*
X136099Y317415D01*
X135986Y317379D01*
X135951Y317357D01*
X135914Y317342D01*
X135818Y317272D01*
X135717Y317209D01*
X135689Y317179D01*
X135656Y317155D01*
X135581Y317064D01*
X135499Y316977D01*
X135479Y316942D01*
X135454Y316910D01*
X135403Y316803D01*
X135345Y316699D01*
X135335Y316659D01*
X135318Y316623D01*
X135296Y316506D01*
X135266Y316391D01*
X135262Y316330D01*
X135258Y316310D01*
X135260Y316290D01*
X135256Y316230D01*
X135256Y307339D01*
X131111Y307339D01*
X130464Y307512D01*
X129885Y307847D01*
X129412Y308320D01*
X129077Y308899D01*
X129053Y308989D01*
X129003Y309112D01*
X128958Y309237D01*
X128943Y309259D01*
X128933Y309284D01*
X128854Y309390D01*
X128780Y309500D01*
X128760Y309518D01*
X128744Y309539D01*
X128641Y309623D01*
X128541Y309710D01*
X128517Y309722D01*
X128496Y309739D01*
X128376Y309795D01*
X128258Y309855D01*
X128232Y309861D01*
X128207Y309872D01*
X128077Y309896D01*
X127948Y309924D01*
X127921Y309924D01*
X127894Y309928D01*
X127763Y309919D01*
X127630Y309915D01*
X127604Y309907D01*
X127577Y309905D01*
X127452Y309863D01*
X127325Y309826D01*
X127301Y309813D01*
X127276Y309804D01*
X127165Y309732D01*
X127051Y309665D01*
X127022Y309640D01*
X127009Y309631D01*
X126994Y309615D01*
X126930Y309558D01*
X125727Y308355D01*
X111763Y308355D01*
X110560Y309558D01*
X110455Y309640D01*
X110355Y309725D01*
X110330Y309737D01*
X110309Y309753D01*
X110187Y309806D01*
X110068Y309864D01*
X110042Y309869D01*
X110017Y309880D01*
X109886Y309901D01*
X109757Y309927D01*
X109730Y309925D01*
X109703Y309930D01*
X109571Y309917D01*
X109439Y309910D01*
X109413Y309902D01*
X109386Y309900D01*
X109262Y309855D01*
X109135Y309816D01*
X109112Y309801D01*
X109087Y309792D01*
X108978Y309718D01*
X108865Y309648D01*
X108846Y309629D01*
X108824Y309614D01*
X108736Y309514D01*
X108645Y309419D01*
X108631Y309395D01*
X108613Y309375D01*
X108553Y309257D01*
X108488Y309142D01*
X108476Y309106D01*
X108469Y309092D01*
X108464Y309071D01*
X108437Y308989D01*
X108413Y308899D01*
X108078Y308320D01*
X107605Y307847D01*
X107026Y307512D01*
X106379Y307339D01*
X102234Y307339D01*
G37*
%LPD*%
%LPC*%
G36*
X263286Y167759D02*
X263286Y167759D01*
X262639Y167932D01*
X262060Y168267D01*
X261799Y168528D01*
X261705Y168601D01*
X261616Y168680D01*
X261580Y168698D01*
X261548Y168723D01*
X261438Y168770D01*
X261332Y168824D01*
X261293Y168833D01*
X261256Y168849D01*
X261138Y168868D01*
X261022Y168894D01*
X260982Y168893D01*
X260942Y168899D01*
X260823Y168888D01*
X260704Y168884D01*
X260665Y168873D01*
X260625Y168869D01*
X260513Y168829D01*
X260399Y168796D01*
X260364Y168775D01*
X245988Y168775D01*
X245095Y169668D01*
X245095Y185932D01*
X245988Y186825D01*
X260375Y186825D01*
X260471Y186776D01*
X260510Y186767D01*
X260547Y186751D01*
X260665Y186732D01*
X260781Y186706D01*
X260821Y186707D01*
X260861Y186701D01*
X260980Y186712D01*
X261099Y186716D01*
X261138Y186727D01*
X261178Y186731D01*
X261290Y186771D01*
X261404Y186804D01*
X261439Y186825D01*
X261477Y186838D01*
X261576Y186905D01*
X261678Y186966D01*
X261723Y187006D01*
X261740Y187017D01*
X261754Y187032D01*
X261799Y187072D01*
X262060Y187333D01*
X262562Y187623D01*
X262678Y187711D01*
X262796Y187796D01*
X262804Y187807D01*
X262815Y187815D01*
X262905Y187929D01*
X262999Y188041D01*
X263004Y188054D01*
X263013Y188064D01*
X263072Y188197D01*
X263134Y188329D01*
X263137Y188342D01*
X263142Y188355D01*
X263167Y188499D01*
X263194Y188642D01*
X263193Y188655D01*
X263195Y188668D01*
X263183Y188814D01*
X263174Y188959D01*
X263170Y188972D01*
X263169Y188985D01*
X263121Y189122D01*
X263076Y189261D01*
X263069Y189273D01*
X263064Y189286D01*
X262984Y189407D01*
X262906Y189530D01*
X262896Y189539D01*
X262889Y189551D01*
X262781Y189648D01*
X262674Y189748D01*
X262662Y189755D01*
X262652Y189764D01*
X262524Y189831D01*
X262396Y189902D01*
X262383Y189905D01*
X262371Y189911D01*
X262228Y189945D01*
X262088Y189981D01*
X262070Y189982D01*
X262061Y189984D01*
X262044Y189984D01*
X261927Y189991D01*
X260988Y189991D01*
X260095Y190884D01*
X260095Y206880D01*
X260988Y207773D01*
X267360Y207773D01*
X267383Y207753D01*
X267419Y207735D01*
X267451Y207710D01*
X267560Y207663D01*
X267666Y207608D01*
X267705Y207600D01*
X267743Y207584D01*
X267860Y207565D01*
X267976Y207539D01*
X268017Y207540D01*
X268057Y207534D01*
X268175Y207545D01*
X268294Y207548D01*
X268333Y207560D01*
X268373Y207563D01*
X268485Y207604D01*
X268600Y207637D01*
X268634Y207657D01*
X268673Y207671D01*
X268771Y207738D01*
X268830Y207773D01*
X275207Y207773D01*
X275295Y207705D01*
X275384Y207626D01*
X275420Y207608D01*
X275452Y207583D01*
X275561Y207536D01*
X275667Y207481D01*
X275707Y207473D01*
X275744Y207457D01*
X275861Y207438D01*
X275977Y207412D01*
X276018Y207413D01*
X276058Y207407D01*
X276176Y207418D01*
X276295Y207421D01*
X276334Y207433D01*
X276374Y207436D01*
X276487Y207477D01*
X276601Y207510D01*
X276635Y207530D01*
X276674Y207544D01*
X276772Y207611D01*
X276875Y207671D01*
X276920Y207711D01*
X276937Y207723D01*
X276950Y207738D01*
X276990Y207773D01*
X283362Y207773D01*
X283385Y207753D01*
X283421Y207735D01*
X283453Y207710D01*
X283562Y207663D01*
X283668Y207608D01*
X283707Y207600D01*
X283745Y207584D01*
X283862Y207565D01*
X283978Y207539D01*
X284019Y207540D01*
X284059Y207534D01*
X284177Y207545D01*
X284296Y207548D01*
X284335Y207560D01*
X284375Y207563D01*
X284487Y207604D01*
X284602Y207637D01*
X284636Y207657D01*
X284675Y207671D01*
X284773Y207738D01*
X284832Y207773D01*
X291209Y207773D01*
X291297Y207705D01*
X291386Y207626D01*
X291422Y207608D01*
X291454Y207583D01*
X291563Y207536D01*
X291669Y207481D01*
X291709Y207473D01*
X291746Y207457D01*
X291863Y207438D01*
X291979Y207412D01*
X292020Y207413D01*
X292060Y207407D01*
X292178Y207418D01*
X292297Y207421D01*
X292336Y207433D01*
X292376Y207436D01*
X292489Y207477D01*
X292603Y207510D01*
X292637Y207530D01*
X292676Y207544D01*
X292774Y207611D01*
X292877Y207671D01*
X292922Y207711D01*
X292939Y207723D01*
X292952Y207738D01*
X292992Y207773D01*
X299364Y207773D01*
X299387Y207753D01*
X299423Y207735D01*
X299455Y207710D01*
X299564Y207663D01*
X299670Y207608D01*
X299709Y207600D01*
X299747Y207584D01*
X299864Y207565D01*
X299980Y207539D01*
X300021Y207540D01*
X300061Y207534D01*
X300179Y207545D01*
X300298Y207548D01*
X300337Y207560D01*
X300377Y207563D01*
X300489Y207604D01*
X300604Y207637D01*
X300638Y207657D01*
X300677Y207671D01*
X300775Y207738D01*
X300834Y207773D01*
X307211Y207773D01*
X307299Y207705D01*
X307388Y207626D01*
X307424Y207608D01*
X307456Y207583D01*
X307565Y207536D01*
X307671Y207481D01*
X307711Y207473D01*
X307748Y207457D01*
X307865Y207438D01*
X307981Y207412D01*
X308022Y207413D01*
X308062Y207407D01*
X308180Y207418D01*
X308299Y207421D01*
X308338Y207433D01*
X308378Y207436D01*
X308491Y207477D01*
X308605Y207510D01*
X308639Y207530D01*
X308678Y207544D01*
X308776Y207611D01*
X308879Y207671D01*
X308924Y207711D01*
X308941Y207723D01*
X308954Y207738D01*
X308994Y207773D01*
X315366Y207773D01*
X315389Y207753D01*
X315425Y207735D01*
X315457Y207710D01*
X315566Y207663D01*
X315672Y207608D01*
X315711Y207600D01*
X315749Y207584D01*
X315866Y207565D01*
X315982Y207539D01*
X316023Y207540D01*
X316063Y207534D01*
X316181Y207545D01*
X316300Y207548D01*
X316339Y207560D01*
X316379Y207563D01*
X316491Y207604D01*
X316606Y207637D01*
X316640Y207657D01*
X316679Y207671D01*
X316777Y207738D01*
X316836Y207773D01*
X323212Y207773D01*
X324105Y206880D01*
X324105Y190884D01*
X323212Y189991D01*
X316839Y189991D01*
X316817Y190011D01*
X316781Y190029D01*
X316749Y190054D01*
X316640Y190102D01*
X316534Y190156D01*
X316494Y190164D01*
X316457Y190180D01*
X316339Y190199D01*
X316224Y190225D01*
X316183Y190224D01*
X316143Y190230D01*
X316024Y190219D01*
X315906Y190216D01*
X315867Y190204D01*
X315827Y190201D01*
X315714Y190160D01*
X315600Y190127D01*
X315565Y190107D01*
X315527Y190093D01*
X315429Y190026D01*
X315370Y189991D01*
X308993Y189991D01*
X308905Y190059D01*
X308816Y190138D01*
X308780Y190156D01*
X308748Y190181D01*
X308639Y190228D01*
X308533Y190283D01*
X308493Y190291D01*
X308456Y190307D01*
X308339Y190326D01*
X308223Y190352D01*
X308182Y190351D01*
X308142Y190357D01*
X308023Y190346D01*
X307905Y190343D01*
X307866Y190331D01*
X307826Y190328D01*
X307714Y190287D01*
X307599Y190254D01*
X307564Y190234D01*
X307526Y190220D01*
X307428Y190153D01*
X307325Y190093D01*
X307280Y190053D01*
X307263Y190041D01*
X307250Y190026D01*
X307210Y189991D01*
X300837Y189991D01*
X300815Y190011D01*
X300779Y190029D01*
X300747Y190054D01*
X300638Y190102D01*
X300532Y190156D01*
X300492Y190164D01*
X300455Y190180D01*
X300337Y190199D01*
X300222Y190225D01*
X300181Y190224D01*
X300141Y190230D01*
X300022Y190219D01*
X299904Y190216D01*
X299865Y190204D01*
X299825Y190201D01*
X299712Y190160D01*
X299598Y190127D01*
X299563Y190107D01*
X299525Y190093D01*
X299427Y190026D01*
X299368Y189991D01*
X292991Y189991D01*
X292903Y190059D01*
X292814Y190138D01*
X292778Y190156D01*
X292746Y190181D01*
X292637Y190228D01*
X292531Y190283D01*
X292491Y190291D01*
X292454Y190307D01*
X292337Y190326D01*
X292221Y190352D01*
X292180Y190351D01*
X292140Y190357D01*
X292021Y190346D01*
X291903Y190343D01*
X291864Y190331D01*
X291824Y190328D01*
X291712Y190287D01*
X291597Y190254D01*
X291562Y190234D01*
X291524Y190220D01*
X291426Y190153D01*
X291323Y190093D01*
X291278Y190053D01*
X291261Y190041D01*
X291248Y190026D01*
X291208Y189991D01*
X284835Y189991D01*
X284813Y190011D01*
X284777Y190029D01*
X284745Y190054D01*
X284636Y190102D01*
X284530Y190156D01*
X284490Y190164D01*
X284453Y190180D01*
X284335Y190199D01*
X284220Y190225D01*
X284179Y190224D01*
X284139Y190230D01*
X284020Y190219D01*
X283902Y190216D01*
X283863Y190204D01*
X283823Y190201D01*
X283710Y190160D01*
X283596Y190127D01*
X283561Y190107D01*
X283523Y190093D01*
X283425Y190026D01*
X283366Y189991D01*
X278313Y189991D01*
X278169Y189973D01*
X278023Y189958D01*
X278011Y189953D01*
X277997Y189951D01*
X277862Y189898D01*
X277725Y189847D01*
X277714Y189839D01*
X277702Y189834D01*
X277583Y189749D01*
X277464Y189666D01*
X277455Y189656D01*
X277444Y189648D01*
X277351Y189535D01*
X277256Y189425D01*
X277250Y189413D01*
X277241Y189403D01*
X277179Y189270D01*
X277114Y189140D01*
X277112Y189127D01*
X277106Y189115D01*
X277079Y188972D01*
X277048Y188829D01*
X277049Y188816D01*
X277046Y188803D01*
X277055Y188657D01*
X277061Y188511D01*
X277065Y188499D01*
X277066Y188485D01*
X277111Y188346D01*
X277153Y188207D01*
X277160Y188195D01*
X277164Y188183D01*
X277242Y188059D01*
X277317Y187935D01*
X277327Y187925D01*
X277334Y187914D01*
X277440Y187814D01*
X277544Y187712D01*
X277560Y187702D01*
X277566Y187696D01*
X277581Y187688D01*
X277678Y187623D01*
X278180Y187333D01*
X278653Y186860D01*
X278988Y186281D01*
X279161Y185634D01*
X279161Y180339D01*
X271390Y180339D01*
X271272Y180324D01*
X271153Y180317D01*
X271115Y180304D01*
X271075Y180299D01*
X270964Y180255D01*
X270851Y180219D01*
X270816Y180197D01*
X270779Y180182D01*
X270683Y180112D01*
X270582Y180049D01*
X270554Y180019D01*
X270522Y179995D01*
X270446Y179904D01*
X270364Y179817D01*
X270345Y179782D01*
X270319Y179750D01*
X270268Y179643D01*
X270211Y179539D01*
X270200Y179499D01*
X270183Y179463D01*
X270161Y179346D01*
X270131Y179231D01*
X270127Y179170D01*
X270123Y179150D01*
X270125Y179130D01*
X270121Y179070D01*
X270121Y177799D01*
X268850Y177799D01*
X268732Y177784D01*
X268613Y177777D01*
X268575Y177764D01*
X268535Y177759D01*
X268424Y177715D01*
X268311Y177679D01*
X268276Y177657D01*
X268239Y177642D01*
X268143Y177572D01*
X268042Y177509D01*
X268014Y177479D01*
X267981Y177455D01*
X267906Y177364D01*
X267824Y177277D01*
X267804Y177242D01*
X267779Y177210D01*
X267728Y177103D01*
X267670Y176999D01*
X267660Y176959D01*
X267643Y176923D01*
X267621Y176806D01*
X267591Y176691D01*
X267587Y176630D01*
X267583Y176610D01*
X267585Y176590D01*
X267581Y176530D01*
X267581Y167759D01*
X263286Y167759D01*
G37*
%LPD*%
%LPC*%
G36*
X241684Y209295D02*
X241684Y209295D01*
X240791Y210188D01*
X240791Y216561D01*
X240811Y216583D01*
X240829Y216619D01*
X240854Y216651D01*
X240902Y216760D01*
X240956Y216866D01*
X240964Y216906D01*
X240980Y216943D01*
X240999Y217061D01*
X241025Y217176D01*
X241024Y217217D01*
X241030Y217257D01*
X241019Y217376D01*
X241016Y217494D01*
X241004Y217533D01*
X241001Y217573D01*
X240960Y217686D01*
X240927Y217800D01*
X240907Y217835D01*
X240893Y217873D01*
X240826Y217971D01*
X240791Y218030D01*
X240791Y224407D01*
X240859Y224495D01*
X240938Y224584D01*
X240956Y224620D01*
X240981Y224652D01*
X241028Y224761D01*
X241083Y224867D01*
X241091Y224907D01*
X241107Y224944D01*
X241126Y225061D01*
X241152Y225177D01*
X241151Y225218D01*
X241157Y225258D01*
X241146Y225377D01*
X241143Y225495D01*
X241131Y225534D01*
X241128Y225574D01*
X241087Y225686D01*
X241054Y225801D01*
X241034Y225836D01*
X241020Y225874D01*
X240953Y225972D01*
X240893Y226075D01*
X240853Y226120D01*
X240841Y226137D01*
X240826Y226150D01*
X240791Y226190D01*
X240791Y232102D01*
X240779Y232200D01*
X240776Y232299D01*
X240759Y232357D01*
X240751Y232417D01*
X240715Y232509D01*
X240687Y232605D01*
X240657Y232657D01*
X240634Y232713D01*
X240576Y232793D01*
X240526Y232879D01*
X240460Y232954D01*
X240448Y232970D01*
X240438Y232978D01*
X240420Y232999D01*
X240283Y233136D01*
X239948Y233715D01*
X239775Y234362D01*
X239775Y234706D01*
X239760Y234824D01*
X239753Y234943D01*
X239740Y234981D01*
X239735Y235022D01*
X239692Y235132D01*
X239655Y235245D01*
X239633Y235280D01*
X239618Y235317D01*
X239549Y235413D01*
X239485Y235514D01*
X239455Y235542D01*
X239432Y235575D01*
X239340Y235651D01*
X239253Y235732D01*
X239218Y235752D01*
X239187Y235777D01*
X239079Y235828D01*
X238975Y235886D01*
X238935Y235896D01*
X238899Y235913D01*
X238782Y235935D01*
X238667Y235965D01*
X238607Y235969D01*
X238587Y235973D01*
X238566Y235971D01*
X238506Y235975D01*
X229588Y235975D01*
X228695Y236868D01*
X228695Y250132D01*
X229588Y251025D01*
X238506Y251025D01*
X238624Y251040D01*
X238743Y251047D01*
X238781Y251060D01*
X238822Y251065D01*
X238932Y251108D01*
X239045Y251145D01*
X239080Y251167D01*
X239117Y251182D01*
X239213Y251251D01*
X239314Y251315D01*
X239342Y251345D01*
X239375Y251368D01*
X239451Y251460D01*
X239532Y251547D01*
X239552Y251582D01*
X239577Y251613D01*
X239628Y251721D01*
X239686Y251825D01*
X239696Y251865D01*
X239713Y251901D01*
X239726Y251969D01*
X249682Y251969D01*
X249800Y251984D01*
X249919Y251991D01*
X249957Y252003D01*
X249997Y252008D01*
X250108Y252052D01*
X250221Y252089D01*
X250255Y252111D01*
X250293Y252125D01*
X250389Y252195D01*
X250490Y252259D01*
X250518Y252289D01*
X250550Y252312D01*
X250626Y252404D01*
X250708Y252491D01*
X250727Y252526D01*
X250753Y252557D01*
X250804Y252665D01*
X250861Y252769D01*
X250871Y252808D01*
X250889Y252845D01*
X250911Y252962D01*
X250941Y253077D01*
X250945Y253137D01*
X250948Y253157D01*
X250948Y253158D01*
X250947Y253178D01*
X250951Y253238D01*
X250936Y253356D01*
X250929Y253475D01*
X250916Y253513D01*
X250911Y253554D01*
X250867Y253664D01*
X250831Y253778D01*
X250809Y253812D01*
X250794Y253849D01*
X250724Y253946D01*
X250660Y254046D01*
X250631Y254074D01*
X250607Y254107D01*
X250515Y254183D01*
X250429Y254264D01*
X250393Y254284D01*
X250362Y254310D01*
X250255Y254360D01*
X250150Y254418D01*
X250111Y254428D01*
X250075Y254445D01*
X249958Y254467D01*
X249842Y254497D01*
X249782Y254501D01*
X249762Y254505D01*
X249742Y254504D01*
X249682Y254507D01*
X239775Y254507D01*
X239775Y254690D01*
X239760Y254808D01*
X239753Y254927D01*
X239740Y254965D01*
X239735Y255006D01*
X239692Y255116D01*
X239655Y255229D01*
X239633Y255264D01*
X239618Y255301D01*
X239549Y255397D01*
X239485Y255498D01*
X239455Y255526D01*
X239432Y255559D01*
X239340Y255635D01*
X239253Y255716D01*
X239218Y255736D01*
X239187Y255761D01*
X239079Y255812D01*
X238975Y255870D01*
X238935Y255880D01*
X238899Y255897D01*
X238782Y255919D01*
X238759Y255925D01*
X238759Y263230D01*
X238744Y263348D01*
X238737Y263467D01*
X238724Y263505D01*
X238719Y263545D01*
X238675Y263656D01*
X238639Y263769D01*
X238617Y263804D01*
X238602Y263841D01*
X238532Y263937D01*
X238469Y264038D01*
X238439Y264066D01*
X238415Y264098D01*
X238324Y264174D01*
X238237Y264256D01*
X238202Y264275D01*
X238170Y264301D01*
X238063Y264352D01*
X237959Y264409D01*
X237919Y264420D01*
X237883Y264437D01*
X237766Y264459D01*
X237651Y264489D01*
X237590Y264493D01*
X237570Y264497D01*
X237550Y264495D01*
X237490Y264499D01*
X236219Y264499D01*
X236219Y264501D01*
X237490Y264501D01*
X237608Y264516D01*
X237727Y264523D01*
X237765Y264536D01*
X237805Y264541D01*
X237916Y264585D01*
X238029Y264621D01*
X238064Y264643D01*
X238101Y264658D01*
X238197Y264728D01*
X238298Y264791D01*
X238326Y264821D01*
X238358Y264845D01*
X238434Y264936D01*
X238516Y265023D01*
X238535Y265058D01*
X238561Y265090D01*
X238612Y265197D01*
X238669Y265301D01*
X238680Y265341D01*
X238697Y265377D01*
X238719Y265494D01*
X238749Y265609D01*
X238753Y265670D01*
X238757Y265690D01*
X238755Y265710D01*
X238759Y265770D01*
X238759Y273041D01*
X240895Y273041D01*
X240993Y273053D01*
X241092Y273056D01*
X241150Y273073D01*
X241210Y273081D01*
X241302Y273117D01*
X241397Y273145D01*
X241450Y273175D01*
X241506Y273198D01*
X241586Y273256D01*
X241669Y273305D01*
X257680Y273305D01*
X258573Y272412D01*
X258573Y266040D01*
X258553Y266017D01*
X258535Y265981D01*
X258510Y265949D01*
X258463Y265840D01*
X258408Y265734D01*
X258400Y265695D01*
X258384Y265657D01*
X258365Y265540D01*
X258339Y265424D01*
X258340Y265383D01*
X258334Y265343D01*
X258345Y265225D01*
X258348Y265106D01*
X258360Y265067D01*
X258363Y265027D01*
X258404Y264915D01*
X258437Y264800D01*
X258457Y264766D01*
X258471Y264727D01*
X258538Y264629D01*
X258573Y264570D01*
X258573Y263794D01*
X258588Y263676D01*
X258595Y263557D01*
X258608Y263519D01*
X258613Y263478D01*
X258656Y263368D01*
X258693Y263255D01*
X258715Y263220D01*
X258730Y263183D01*
X258799Y263087D01*
X258863Y262986D01*
X258893Y262958D01*
X258916Y262925D01*
X259008Y262849D01*
X259095Y262768D01*
X259130Y262748D01*
X259161Y262723D01*
X259269Y262672D01*
X259373Y262614D01*
X259413Y262604D01*
X259449Y262587D01*
X259566Y262565D01*
X259681Y262535D01*
X259741Y262531D01*
X259761Y262527D01*
X259782Y262529D01*
X259842Y262525D01*
X270452Y262525D01*
X271345Y261632D01*
X271345Y246368D01*
X270452Y245475D01*
X259842Y245475D01*
X259724Y245460D01*
X259605Y245453D01*
X259567Y245440D01*
X259526Y245435D01*
X259416Y245392D01*
X259303Y245355D01*
X259268Y245333D01*
X259231Y245318D01*
X259135Y245249D01*
X259034Y245185D01*
X259006Y245155D01*
X258973Y245132D01*
X258897Y245040D01*
X258816Y244953D01*
X258796Y244918D01*
X258771Y244887D01*
X258720Y244779D01*
X258662Y244675D01*
X258652Y244635D01*
X258635Y244599D01*
X258613Y244482D01*
X258583Y244367D01*
X258579Y244307D01*
X258575Y244287D01*
X258577Y244266D01*
X258573Y244206D01*
X258573Y242370D01*
X258585Y242272D01*
X258588Y242173D01*
X258605Y242115D01*
X258613Y242055D01*
X258649Y241963D01*
X258677Y241867D01*
X258707Y241815D01*
X258730Y241759D01*
X258788Y241679D01*
X258838Y241593D01*
X258904Y241518D01*
X258916Y241502D01*
X258926Y241494D01*
X258944Y241473D01*
X259081Y241336D01*
X259416Y240757D01*
X259589Y240110D01*
X259589Y238505D01*
X249682Y238505D01*
X249564Y238490D01*
X249445Y238483D01*
X249407Y238471D01*
X249367Y238466D01*
X249256Y238422D01*
X249143Y238385D01*
X249109Y238363D01*
X249071Y238349D01*
X248975Y238279D01*
X248874Y238215D01*
X248846Y238185D01*
X248814Y238162D01*
X248738Y238070D01*
X248656Y237983D01*
X248637Y237948D01*
X248611Y237917D01*
X248560Y237809D01*
X248503Y237705D01*
X248493Y237666D01*
X248475Y237629D01*
X248453Y237512D01*
X248423Y237397D01*
X248419Y237337D01*
X248416Y237317D01*
X248416Y237316D01*
X248417Y237296D01*
X248413Y237236D01*
X248428Y237118D01*
X248435Y236999D01*
X248448Y236960D01*
X248453Y236920D01*
X248497Y236810D01*
X248533Y236696D01*
X248555Y236662D01*
X248570Y236625D01*
X248640Y236528D01*
X248704Y236428D01*
X248733Y236400D01*
X248757Y236367D01*
X248849Y236291D01*
X248935Y236210D01*
X248971Y236190D01*
X249002Y236164D01*
X249109Y236114D01*
X249214Y236056D01*
X249253Y236046D01*
X249289Y236029D01*
X249406Y236007D01*
X249522Y235977D01*
X249582Y235973D01*
X249602Y235969D01*
X249622Y235970D01*
X249682Y235967D01*
X259589Y235967D01*
X259589Y234362D01*
X259416Y233715D01*
X259081Y233136D01*
X258944Y232999D01*
X258884Y232921D01*
X258816Y232849D01*
X258787Y232796D01*
X258750Y232748D01*
X258710Y232657D01*
X258662Y232570D01*
X258647Y232512D01*
X258623Y232456D01*
X258608Y232358D01*
X258583Y232263D01*
X258577Y232163D01*
X258573Y232142D01*
X258575Y232130D01*
X258573Y232102D01*
X258573Y226189D01*
X258505Y226101D01*
X258426Y226012D01*
X258408Y225976D01*
X258383Y225944D01*
X258336Y225835D01*
X258281Y225729D01*
X258273Y225689D01*
X258257Y225652D01*
X258238Y225535D01*
X258212Y225419D01*
X258213Y225378D01*
X258207Y225338D01*
X258218Y225220D01*
X258221Y225101D01*
X258233Y225062D01*
X258236Y225022D01*
X258277Y224909D01*
X258310Y224795D01*
X258330Y224761D01*
X258344Y224722D01*
X258411Y224624D01*
X258471Y224521D01*
X258511Y224476D01*
X258523Y224459D01*
X258538Y224446D01*
X258573Y224406D01*
X258573Y218034D01*
X258553Y218011D01*
X258535Y217975D01*
X258510Y217943D01*
X258463Y217834D01*
X258408Y217728D01*
X258400Y217689D01*
X258384Y217651D01*
X258365Y217534D01*
X258339Y217418D01*
X258340Y217377D01*
X258334Y217337D01*
X258345Y217219D01*
X258348Y217100D01*
X258360Y217061D01*
X258363Y217021D01*
X258404Y216909D01*
X258437Y216794D01*
X258457Y216760D01*
X258471Y216721D01*
X258538Y216623D01*
X258573Y216564D01*
X258573Y210188D01*
X257680Y209295D01*
X241684Y209295D01*
G37*
%LPD*%
%LPC*%
G36*
X326520Y209295D02*
X326520Y209295D01*
X325627Y210188D01*
X325627Y216560D01*
X325647Y216583D01*
X325665Y216619D01*
X325690Y216651D01*
X325737Y216760D01*
X325792Y216866D01*
X325800Y216905D01*
X325816Y216943D01*
X325835Y217060D01*
X325861Y217176D01*
X325860Y217217D01*
X325866Y217257D01*
X325855Y217375D01*
X325852Y217494D01*
X325840Y217533D01*
X325837Y217573D01*
X325796Y217685D01*
X325763Y217800D01*
X325743Y217834D01*
X325729Y217873D01*
X325662Y217971D01*
X325627Y218030D01*
X325627Y224407D01*
X325695Y224495D01*
X325774Y224584D01*
X325792Y224620D01*
X325817Y224652D01*
X325864Y224761D01*
X325919Y224867D01*
X325927Y224907D01*
X325943Y224944D01*
X325962Y225061D01*
X325988Y225177D01*
X325987Y225218D01*
X325993Y225258D01*
X325982Y225376D01*
X325979Y225495D01*
X325967Y225534D01*
X325964Y225574D01*
X325923Y225687D01*
X325890Y225801D01*
X325870Y225835D01*
X325856Y225874D01*
X325789Y225972D01*
X325729Y226075D01*
X325689Y226120D01*
X325677Y226137D01*
X325662Y226150D01*
X325627Y226190D01*
X325627Y232562D01*
X325647Y232585D01*
X325665Y232621D01*
X325690Y232653D01*
X325737Y232762D01*
X325792Y232868D01*
X325800Y232907D01*
X325816Y232945D01*
X325835Y233062D01*
X325861Y233178D01*
X325860Y233219D01*
X325866Y233259D01*
X325855Y233377D01*
X325852Y233496D01*
X325840Y233535D01*
X325837Y233575D01*
X325796Y233687D01*
X325763Y233802D01*
X325743Y233836D01*
X325729Y233875D01*
X325662Y233973D01*
X325627Y234032D01*
X325627Y240230D01*
X325615Y240328D01*
X325612Y240427D01*
X325595Y240485D01*
X325587Y240545D01*
X325551Y240637D01*
X325523Y240733D01*
X325493Y240785D01*
X325470Y240841D01*
X325412Y240921D01*
X325362Y241007D01*
X325296Y241082D01*
X325284Y241098D01*
X325274Y241106D01*
X325256Y241127D01*
X325119Y241264D01*
X324784Y241843D01*
X324611Y242490D01*
X324611Y244095D01*
X327305Y244095D01*
X327442Y244112D01*
X327581Y244125D01*
X327600Y244132D01*
X327620Y244134D01*
X327749Y244185D01*
X327881Y244233D01*
X327897Y244244D01*
X327916Y244251D01*
X328028Y244333D01*
X328144Y244411D01*
X328157Y244426D01*
X328173Y244438D01*
X328262Y244546D01*
X328354Y244650D01*
X328363Y244668D01*
X328376Y244683D01*
X328435Y244809D01*
X328499Y244933D01*
X328503Y244953D01*
X328512Y244971D01*
X328538Y245107D01*
X328568Y245243D01*
X328568Y245263D01*
X328572Y245283D01*
X328563Y245422D01*
X328559Y245561D01*
X328553Y245581D01*
X328552Y245601D01*
X328509Y245733D01*
X328470Y245867D01*
X328460Y245884D01*
X328454Y245903D01*
X328379Y246021D01*
X328309Y246140D01*
X328290Y246162D01*
X328284Y246172D01*
X328283Y246172D01*
X328269Y246186D01*
X328202Y246261D01*
X328202Y246262D01*
X328124Y246322D01*
X328052Y246390D01*
X327999Y246419D01*
X327951Y246457D01*
X327860Y246496D01*
X327773Y246544D01*
X327715Y246559D01*
X327659Y246583D01*
X327561Y246598D01*
X327465Y246623D01*
X327365Y246630D01*
X327345Y246633D01*
X327333Y246632D01*
X327305Y246633D01*
X324272Y246633D01*
X324268Y246639D01*
X324160Y246728D01*
X324056Y246820D01*
X324038Y246829D01*
X324023Y246842D01*
X323897Y246901D01*
X323773Y246965D01*
X323753Y246969D01*
X323735Y246978D01*
X323598Y247004D01*
X323463Y247034D01*
X323442Y247034D01*
X323423Y247037D01*
X323284Y247029D01*
X323145Y247025D01*
X323125Y247019D01*
X323105Y247018D01*
X322973Y246975D01*
X322839Y246936D01*
X322822Y246926D01*
X322803Y246920D01*
X322685Y246845D01*
X322565Y246775D01*
X322544Y246756D01*
X322534Y246749D01*
X322520Y246734D01*
X322445Y246668D01*
X321252Y245475D01*
X308988Y245475D01*
X308095Y246368D01*
X308095Y261632D01*
X308988Y262525D01*
X321252Y262525D01*
X322145Y261632D01*
X322145Y248674D01*
X322164Y248524D01*
X322181Y248372D01*
X322184Y248365D01*
X322185Y248359D01*
X322240Y248218D01*
X322295Y248075D01*
X322299Y248069D01*
X322302Y248063D01*
X322391Y247940D01*
X322479Y247815D01*
X322484Y247811D01*
X322488Y247806D01*
X322606Y247708D01*
X322722Y247610D01*
X322728Y247607D01*
X322733Y247603D01*
X322871Y247538D01*
X323008Y247471D01*
X323015Y247470D01*
X323021Y247467D01*
X323170Y247439D01*
X323320Y247408D01*
X323327Y247409D01*
X323333Y247407D01*
X323485Y247417D01*
X323638Y247425D01*
X323644Y247427D01*
X323651Y247427D01*
X323795Y247474D01*
X323941Y247520D01*
X323947Y247523D01*
X323953Y247525D01*
X324081Y247606D01*
X324212Y247687D01*
X324216Y247692D01*
X324222Y247695D01*
X324327Y247807D01*
X324432Y247916D01*
X324435Y247922D01*
X324440Y247927D01*
X324513Y248060D01*
X324589Y248193D01*
X324591Y248202D01*
X324594Y248206D01*
X324596Y248216D01*
X324640Y248346D01*
X324784Y248885D01*
X325119Y249464D01*
X325256Y249601D01*
X325316Y249679D01*
X325384Y249751D01*
X325413Y249804D01*
X325450Y249852D01*
X325490Y249943D01*
X325538Y250030D01*
X325553Y250088D01*
X325577Y250144D01*
X325592Y250242D01*
X325617Y250337D01*
X325623Y250437D01*
X325627Y250458D01*
X325625Y250470D01*
X325627Y250498D01*
X325627Y256411D01*
X325695Y256499D01*
X325774Y256588D01*
X325792Y256624D01*
X325817Y256656D01*
X325864Y256765D01*
X325919Y256871D01*
X325927Y256911D01*
X325943Y256948D01*
X325962Y257065D01*
X325988Y257181D01*
X325987Y257222D01*
X325993Y257262D01*
X325982Y257380D01*
X325979Y257499D01*
X325967Y257538D01*
X325964Y257578D01*
X325923Y257691D01*
X325890Y257805D01*
X325870Y257839D01*
X325856Y257878D01*
X325789Y257976D01*
X325729Y258079D01*
X325689Y258124D01*
X325677Y258141D01*
X325662Y258154D01*
X325627Y258194D01*
X325627Y264567D01*
X325647Y264589D01*
X325665Y264625D01*
X325690Y264657D01*
X325738Y264766D01*
X325792Y264872D01*
X325800Y264912D01*
X325816Y264949D01*
X325835Y265067D01*
X325861Y265182D01*
X325860Y265223D01*
X325866Y265263D01*
X325855Y265382D01*
X325852Y265500D01*
X325840Y265539D01*
X325837Y265579D01*
X325796Y265692D01*
X325763Y265806D01*
X325743Y265841D01*
X325729Y265879D01*
X325662Y265977D01*
X325627Y266036D01*
X325627Y272412D01*
X326520Y273305D01*
X342516Y273305D01*
X343409Y272412D01*
X343409Y266040D01*
X343389Y266017D01*
X343371Y265981D01*
X343346Y265949D01*
X343299Y265840D01*
X343244Y265734D01*
X343236Y265695D01*
X343220Y265657D01*
X343201Y265540D01*
X343175Y265424D01*
X343176Y265383D01*
X343170Y265343D01*
X343181Y265225D01*
X343184Y265106D01*
X343196Y265067D01*
X343199Y265027D01*
X343240Y264915D01*
X343273Y264800D01*
X343293Y264766D01*
X343307Y264727D01*
X343374Y264629D01*
X343409Y264570D01*
X343409Y258193D01*
X343341Y258105D01*
X343262Y258016D01*
X343244Y257980D01*
X343219Y257948D01*
X343172Y257839D01*
X343117Y257733D01*
X343109Y257693D01*
X343093Y257656D01*
X343074Y257539D01*
X343048Y257423D01*
X343049Y257382D01*
X343043Y257342D01*
X343054Y257223D01*
X343057Y257105D01*
X343069Y257066D01*
X343072Y257026D01*
X343113Y256914D01*
X343146Y256799D01*
X343166Y256764D01*
X343180Y256726D01*
X343247Y256628D01*
X343307Y256525D01*
X343347Y256480D01*
X343359Y256463D01*
X343374Y256450D01*
X343409Y256410D01*
X343409Y250498D01*
X343421Y250400D01*
X343424Y250301D01*
X343441Y250243D01*
X343449Y250183D01*
X343485Y250091D01*
X343513Y249995D01*
X343543Y249943D01*
X343566Y249887D01*
X343624Y249807D01*
X343674Y249721D01*
X343740Y249646D01*
X343752Y249630D01*
X343762Y249622D01*
X343780Y249601D01*
X343917Y249464D01*
X344252Y248885D01*
X344425Y248238D01*
X344425Y246633D01*
X342935Y246633D01*
X342837Y246621D01*
X342738Y246618D01*
X342680Y246601D01*
X342620Y246594D01*
X342528Y246557D01*
X342433Y246530D01*
X342381Y246499D01*
X342324Y246477D01*
X342244Y246418D01*
X342159Y246368D01*
X342083Y246302D01*
X342067Y246290D01*
X342067Y246289D01*
X342059Y246280D01*
X342038Y246262D01*
X342038Y246261D01*
X341952Y246151D01*
X341864Y246044D01*
X341855Y246026D01*
X341843Y246010D01*
X341787Y245882D01*
X341728Y245757D01*
X341724Y245737D01*
X341716Y245718D01*
X341694Y245580D01*
X341668Y245444D01*
X341670Y245424D01*
X341666Y245404D01*
X341680Y245265D01*
X341688Y245127D01*
X341694Y245108D01*
X341696Y245087D01*
X341743Y244956D01*
X341786Y244824D01*
X341797Y244807D01*
X341804Y244788D01*
X341882Y244673D01*
X341956Y244556D01*
X341971Y244542D01*
X341982Y244525D01*
X342087Y244433D01*
X342188Y244338D01*
X342206Y244328D01*
X342221Y244315D01*
X342345Y244251D01*
X342466Y244184D01*
X342486Y244179D01*
X342504Y244170D01*
X342640Y244139D01*
X342774Y244105D01*
X342802Y244103D01*
X342814Y244100D01*
X342835Y244101D01*
X342935Y244095D01*
X344425Y244095D01*
X344425Y242490D01*
X344252Y241843D01*
X343917Y241264D01*
X343780Y241127D01*
X343720Y241049D01*
X343652Y240977D01*
X343623Y240924D01*
X343586Y240876D01*
X343546Y240785D01*
X343498Y240698D01*
X343483Y240640D01*
X343459Y240584D01*
X343444Y240486D01*
X343419Y240391D01*
X343413Y240291D01*
X343409Y240270D01*
X343411Y240258D01*
X343409Y240230D01*
X343409Y234035D01*
X343389Y234013D01*
X343371Y233977D01*
X343346Y233945D01*
X343298Y233836D01*
X343244Y233730D01*
X343236Y233690D01*
X343220Y233653D01*
X343201Y233535D01*
X343175Y233420D01*
X343176Y233379D01*
X343170Y233339D01*
X343181Y233220D01*
X343184Y233102D01*
X343196Y233063D01*
X343199Y233023D01*
X343240Y232910D01*
X343273Y232796D01*
X343293Y232761D01*
X343307Y232723D01*
X343374Y232625D01*
X343409Y232566D01*
X343409Y226189D01*
X343341Y226101D01*
X343262Y226012D01*
X343244Y225976D01*
X343219Y225944D01*
X343172Y225835D01*
X343117Y225729D01*
X343109Y225689D01*
X343093Y225652D01*
X343074Y225535D01*
X343048Y225419D01*
X343049Y225378D01*
X343043Y225338D01*
X343054Y225219D01*
X343057Y225101D01*
X343069Y225062D01*
X343072Y225022D01*
X343113Y224910D01*
X343146Y224795D01*
X343166Y224760D01*
X343180Y224722D01*
X343247Y224624D01*
X343307Y224521D01*
X343347Y224476D01*
X343359Y224459D01*
X343374Y224446D01*
X343409Y224406D01*
X343409Y218033D01*
X343389Y218011D01*
X343371Y217975D01*
X343346Y217943D01*
X343298Y217834D01*
X343244Y217728D01*
X343236Y217688D01*
X343220Y217651D01*
X343201Y217533D01*
X343175Y217418D01*
X343176Y217377D01*
X343170Y217337D01*
X343181Y217218D01*
X343184Y217100D01*
X343196Y217061D01*
X343199Y217021D01*
X343240Y216908D01*
X343273Y216794D01*
X343293Y216759D01*
X343307Y216721D01*
X343374Y216623D01*
X343409Y216564D01*
X343409Y210188D01*
X342516Y209295D01*
X326520Y209295D01*
G37*
%LPD*%
%LPC*%
G36*
X260988Y274827D02*
X260988Y274827D01*
X260095Y275720D01*
X260095Y291716D01*
X260988Y292609D01*
X267361Y292609D01*
X267383Y292589D01*
X267419Y292571D01*
X267451Y292546D01*
X267560Y292498D01*
X267666Y292444D01*
X267706Y292436D01*
X267743Y292420D01*
X267861Y292401D01*
X267976Y292375D01*
X268017Y292376D01*
X268057Y292370D01*
X268176Y292381D01*
X268294Y292384D01*
X268333Y292396D01*
X268373Y292399D01*
X268486Y292440D01*
X268600Y292473D01*
X268635Y292493D01*
X268673Y292507D01*
X268771Y292574D01*
X268830Y292609D01*
X275207Y292609D01*
X275295Y292541D01*
X275384Y292462D01*
X275420Y292444D01*
X275452Y292419D01*
X275561Y292372D01*
X275667Y292317D01*
X275707Y292309D01*
X275744Y292293D01*
X275861Y292274D01*
X275977Y292248D01*
X276018Y292249D01*
X276058Y292243D01*
X276177Y292254D01*
X276295Y292257D01*
X276334Y292269D01*
X276374Y292272D01*
X276486Y292313D01*
X276601Y292346D01*
X276636Y292366D01*
X276674Y292380D01*
X276772Y292447D01*
X276875Y292507D01*
X276920Y292547D01*
X276937Y292559D01*
X276950Y292574D01*
X276990Y292609D01*
X283363Y292609D01*
X283385Y292589D01*
X283421Y292571D01*
X283453Y292546D01*
X283562Y292498D01*
X283668Y292444D01*
X283708Y292436D01*
X283745Y292420D01*
X283863Y292401D01*
X283978Y292375D01*
X284019Y292376D01*
X284059Y292370D01*
X284178Y292381D01*
X284296Y292384D01*
X284335Y292396D01*
X284375Y292399D01*
X284488Y292440D01*
X284602Y292473D01*
X284637Y292493D01*
X284675Y292507D01*
X284773Y292574D01*
X284832Y292609D01*
X291209Y292609D01*
X291297Y292541D01*
X291386Y292462D01*
X291422Y292444D01*
X291454Y292419D01*
X291563Y292372D01*
X291669Y292317D01*
X291709Y292309D01*
X291746Y292293D01*
X291863Y292274D01*
X291979Y292248D01*
X292020Y292249D01*
X292060Y292243D01*
X292179Y292254D01*
X292297Y292257D01*
X292336Y292269D01*
X292376Y292272D01*
X292488Y292313D01*
X292603Y292346D01*
X292638Y292366D01*
X292676Y292380D01*
X292774Y292447D01*
X292877Y292507D01*
X292922Y292547D01*
X292939Y292559D01*
X292952Y292574D01*
X292992Y292609D01*
X299365Y292609D01*
X299387Y292589D01*
X299423Y292571D01*
X299455Y292546D01*
X299564Y292498D01*
X299670Y292444D01*
X299710Y292436D01*
X299747Y292420D01*
X299865Y292401D01*
X299980Y292375D01*
X300021Y292376D01*
X300061Y292370D01*
X300180Y292381D01*
X300298Y292384D01*
X300337Y292396D01*
X300377Y292399D01*
X300490Y292440D01*
X300604Y292473D01*
X300639Y292493D01*
X300677Y292507D01*
X300775Y292574D01*
X300834Y292609D01*
X307211Y292609D01*
X307299Y292541D01*
X307388Y292462D01*
X307424Y292444D01*
X307456Y292419D01*
X307565Y292372D01*
X307671Y292317D01*
X307711Y292309D01*
X307748Y292293D01*
X307865Y292274D01*
X307981Y292248D01*
X308022Y292249D01*
X308062Y292243D01*
X308181Y292254D01*
X308299Y292257D01*
X308338Y292269D01*
X308378Y292272D01*
X308490Y292313D01*
X308605Y292346D01*
X308640Y292366D01*
X308678Y292380D01*
X308776Y292447D01*
X308879Y292507D01*
X308924Y292547D01*
X308941Y292559D01*
X308954Y292574D01*
X308994Y292609D01*
X315367Y292609D01*
X315389Y292589D01*
X315425Y292571D01*
X315457Y292546D01*
X315566Y292498D01*
X315672Y292444D01*
X315712Y292436D01*
X315749Y292420D01*
X315867Y292401D01*
X315982Y292375D01*
X316023Y292376D01*
X316063Y292370D01*
X316182Y292381D01*
X316300Y292384D01*
X316339Y292396D01*
X316379Y292399D01*
X316492Y292440D01*
X316606Y292473D01*
X316641Y292493D01*
X316679Y292507D01*
X316777Y292574D01*
X316836Y292609D01*
X323212Y292609D01*
X324105Y291716D01*
X324105Y275720D01*
X323212Y274827D01*
X316840Y274827D01*
X316817Y274847D01*
X316781Y274865D01*
X316749Y274890D01*
X316640Y274937D01*
X316534Y274992D01*
X316495Y275000D01*
X316457Y275016D01*
X316340Y275035D01*
X316224Y275061D01*
X316183Y275060D01*
X316143Y275066D01*
X316025Y275055D01*
X315906Y275052D01*
X315867Y275040D01*
X315827Y275037D01*
X315715Y274996D01*
X315600Y274963D01*
X315566Y274943D01*
X315527Y274929D01*
X315429Y274862D01*
X315370Y274827D01*
X308993Y274827D01*
X308905Y274895D01*
X308816Y274974D01*
X308780Y274992D01*
X308748Y275017D01*
X308639Y275064D01*
X308533Y275119D01*
X308493Y275127D01*
X308456Y275143D01*
X308339Y275162D01*
X308223Y275188D01*
X308182Y275187D01*
X308142Y275193D01*
X308024Y275182D01*
X307905Y275179D01*
X307866Y275167D01*
X307826Y275164D01*
X307713Y275123D01*
X307599Y275090D01*
X307565Y275070D01*
X307526Y275056D01*
X307428Y274989D01*
X307325Y274929D01*
X307280Y274889D01*
X307263Y274877D01*
X307250Y274862D01*
X307210Y274827D01*
X300838Y274827D01*
X300815Y274847D01*
X300779Y274865D01*
X300747Y274890D01*
X300638Y274937D01*
X300532Y274992D01*
X300493Y275000D01*
X300455Y275016D01*
X300338Y275035D01*
X300222Y275061D01*
X300181Y275060D01*
X300141Y275066D01*
X300023Y275055D01*
X299904Y275052D01*
X299865Y275040D01*
X299825Y275037D01*
X299713Y274996D01*
X299598Y274963D01*
X299564Y274943D01*
X299525Y274929D01*
X299427Y274862D01*
X299368Y274827D01*
X292991Y274827D01*
X292903Y274895D01*
X292814Y274974D01*
X292778Y274992D01*
X292746Y275017D01*
X292637Y275064D01*
X292531Y275119D01*
X292491Y275127D01*
X292454Y275143D01*
X292337Y275162D01*
X292221Y275188D01*
X292180Y275187D01*
X292140Y275193D01*
X292022Y275182D01*
X291903Y275179D01*
X291864Y275167D01*
X291824Y275164D01*
X291711Y275123D01*
X291597Y275090D01*
X291563Y275070D01*
X291524Y275056D01*
X291426Y274989D01*
X291323Y274929D01*
X291278Y274889D01*
X291261Y274877D01*
X291248Y274862D01*
X291208Y274827D01*
X284836Y274827D01*
X284813Y274847D01*
X284777Y274865D01*
X284745Y274890D01*
X284636Y274937D01*
X284530Y274992D01*
X284491Y275000D01*
X284453Y275016D01*
X284336Y275035D01*
X284220Y275061D01*
X284179Y275060D01*
X284139Y275066D01*
X284021Y275055D01*
X283902Y275052D01*
X283863Y275040D01*
X283823Y275037D01*
X283711Y274996D01*
X283596Y274963D01*
X283562Y274943D01*
X283523Y274929D01*
X283425Y274862D01*
X283366Y274827D01*
X276989Y274827D01*
X276901Y274895D01*
X276812Y274974D01*
X276776Y274992D01*
X276744Y275017D01*
X276635Y275064D01*
X276529Y275119D01*
X276489Y275127D01*
X276452Y275143D01*
X276335Y275162D01*
X276219Y275188D01*
X276178Y275187D01*
X276138Y275193D01*
X276020Y275182D01*
X275901Y275179D01*
X275862Y275167D01*
X275822Y275164D01*
X275709Y275123D01*
X275595Y275090D01*
X275561Y275070D01*
X275522Y275056D01*
X275424Y274989D01*
X275321Y274929D01*
X275276Y274889D01*
X275259Y274877D01*
X275246Y274862D01*
X275206Y274827D01*
X268834Y274827D01*
X268811Y274847D01*
X268775Y274865D01*
X268743Y274890D01*
X268634Y274937D01*
X268528Y274992D01*
X268489Y275000D01*
X268451Y275016D01*
X268334Y275035D01*
X268218Y275061D01*
X268177Y275060D01*
X268137Y275066D01*
X268019Y275055D01*
X267900Y275052D01*
X267861Y275040D01*
X267821Y275037D01*
X267709Y274996D01*
X267594Y274963D01*
X267560Y274943D01*
X267521Y274929D01*
X267423Y274862D01*
X267364Y274827D01*
X260988Y274827D01*
G37*
%LPD*%
%LPC*%
G36*
X73048Y191395D02*
X73048Y191395D01*
X72155Y192288D01*
X72155Y209552D01*
X73048Y210445D01*
X84312Y210445D01*
X85205Y209552D01*
X85205Y206762D01*
X85220Y206644D01*
X85227Y206525D01*
X85240Y206487D01*
X85245Y206446D01*
X85288Y206336D01*
X85325Y206223D01*
X85347Y206188D01*
X85362Y206151D01*
X85431Y206055D01*
X85495Y205954D01*
X85525Y205926D01*
X85548Y205893D01*
X85640Y205817D01*
X85727Y205736D01*
X85762Y205716D01*
X85793Y205691D01*
X85901Y205640D01*
X86005Y205582D01*
X86045Y205572D01*
X86081Y205555D01*
X86198Y205533D01*
X86313Y205503D01*
X86373Y205499D01*
X86393Y205495D01*
X86414Y205497D01*
X86474Y205493D01*
X104520Y205493D01*
X104618Y205505D01*
X104717Y205508D01*
X104776Y205525D01*
X104836Y205533D01*
X104928Y205569D01*
X105023Y205597D01*
X105075Y205627D01*
X105131Y205650D01*
X105211Y205708D01*
X105297Y205758D01*
X105372Y205824D01*
X105389Y205836D01*
X105397Y205846D01*
X105418Y205864D01*
X129676Y230122D01*
X129736Y230201D01*
X129804Y230273D01*
X129827Y230314D01*
X129840Y230330D01*
X129845Y230341D01*
X129870Y230374D01*
X129910Y230465D01*
X129958Y230551D01*
X129973Y230610D01*
X129997Y230665D01*
X130012Y230763D01*
X130037Y230859D01*
X130043Y230959D01*
X130047Y230980D01*
X130045Y230992D01*
X130047Y231020D01*
X130047Y234706D01*
X130032Y234824D01*
X130025Y234943D01*
X130012Y234981D01*
X130007Y235022D01*
X129964Y235132D01*
X129927Y235245D01*
X129905Y235280D01*
X129890Y235317D01*
X129821Y235413D01*
X129757Y235514D01*
X129727Y235542D01*
X129704Y235575D01*
X129612Y235651D01*
X129525Y235732D01*
X129490Y235752D01*
X129459Y235777D01*
X129351Y235828D01*
X129247Y235886D01*
X129207Y235896D01*
X129171Y235913D01*
X129054Y235935D01*
X128939Y235965D01*
X128879Y235969D01*
X128859Y235973D01*
X128838Y235971D01*
X128778Y235975D01*
X127988Y235975D01*
X127095Y236868D01*
X127095Y250132D01*
X127988Y251025D01*
X141252Y251025D01*
X142145Y250132D01*
X142145Y236868D01*
X141252Y235975D01*
X140462Y235975D01*
X140344Y235960D01*
X140225Y235953D01*
X140187Y235940D01*
X140146Y235935D01*
X140036Y235892D01*
X139923Y235855D01*
X139888Y235833D01*
X139851Y235818D01*
X139755Y235749D01*
X139654Y235685D01*
X139626Y235655D01*
X139593Y235632D01*
X139517Y235540D01*
X139436Y235453D01*
X139416Y235418D01*
X139391Y235387D01*
X139340Y235279D01*
X139282Y235175D01*
X139272Y235135D01*
X139255Y235099D01*
X139233Y234982D01*
X139203Y234867D01*
X139199Y234807D01*
X139195Y234787D01*
X139197Y234766D01*
X139193Y234706D01*
X139193Y226706D01*
X108834Y196347D01*
X86474Y196347D01*
X86356Y196332D01*
X86237Y196325D01*
X86199Y196312D01*
X86158Y196307D01*
X86048Y196264D01*
X85935Y196227D01*
X85900Y196205D01*
X85863Y196190D01*
X85767Y196121D01*
X85666Y196057D01*
X85638Y196027D01*
X85605Y196004D01*
X85529Y195912D01*
X85448Y195825D01*
X85428Y195790D01*
X85403Y195759D01*
X85352Y195651D01*
X85294Y195547D01*
X85284Y195507D01*
X85267Y195471D01*
X85245Y195354D01*
X85215Y195239D01*
X85211Y195179D01*
X85207Y195159D01*
X85209Y195138D01*
X85205Y195078D01*
X85205Y192288D01*
X84312Y191395D01*
X73048Y191395D01*
G37*
%LPD*%
%LPC*%
G36*
X58419Y276459D02*
X58419Y276459D01*
X58419Y307461D01*
X83214Y307461D01*
X83861Y307288D01*
X84440Y306953D01*
X84913Y306480D01*
X85248Y305901D01*
X85421Y305254D01*
X85421Y276459D01*
X58419Y276459D01*
G37*
%LPD*%
%LPC*%
G36*
X26339Y276459D02*
X26339Y276459D01*
X26339Y305254D01*
X26512Y305901D01*
X26847Y306480D01*
X27320Y306953D01*
X27899Y307288D01*
X28546Y307461D01*
X53341Y307461D01*
X53341Y276459D01*
X26339Y276459D01*
G37*
%LPD*%
%LPC*%
G36*
X58419Y240379D02*
X58419Y240379D01*
X58419Y271381D01*
X85421Y271381D01*
X85421Y242586D01*
X85248Y241939D01*
X84913Y241360D01*
X84440Y240887D01*
X83861Y240552D01*
X83214Y240379D01*
X58419Y240379D01*
G37*
%LPD*%
%LPC*%
G36*
X28546Y240379D02*
X28546Y240379D01*
X27899Y240552D01*
X27320Y240887D01*
X26847Y241360D01*
X26512Y241939D01*
X26339Y242586D01*
X26339Y271381D01*
X53341Y271381D01*
X53341Y240379D01*
X28546Y240379D01*
G37*
%LPD*%
%LPC*%
G36*
X450139Y55514D02*
X450139Y55514D01*
X450139Y65040D01*
X450139Y74566D01*
X450944Y74566D01*
X451591Y74393D01*
X452170Y74058D01*
X452307Y73921D01*
X452385Y73861D01*
X452457Y73793D01*
X452510Y73764D01*
X452558Y73727D01*
X452649Y73687D01*
X452736Y73639D01*
X452794Y73624D01*
X452850Y73600D01*
X452948Y73585D01*
X453043Y73560D01*
X453143Y73554D01*
X453164Y73550D01*
X453176Y73552D01*
X453204Y73550D01*
X457747Y73550D01*
X457817Y73496D01*
X457906Y73417D01*
X457942Y73399D01*
X457974Y73374D01*
X458083Y73327D01*
X458189Y73272D01*
X458229Y73264D01*
X458266Y73248D01*
X458383Y73229D01*
X458499Y73203D01*
X458540Y73204D01*
X458580Y73198D01*
X458698Y73209D01*
X458817Y73212D01*
X458856Y73224D01*
X458896Y73227D01*
X459009Y73268D01*
X459123Y73301D01*
X459157Y73321D01*
X459196Y73335D01*
X459294Y73402D01*
X459397Y73462D01*
X459442Y73502D01*
X459459Y73514D01*
X459472Y73529D01*
X459496Y73550D01*
X464247Y73550D01*
X464317Y73496D01*
X464406Y73417D01*
X464442Y73399D01*
X464474Y73374D01*
X464583Y73327D01*
X464689Y73272D01*
X464729Y73264D01*
X464766Y73248D01*
X464883Y73229D01*
X464999Y73203D01*
X465040Y73204D01*
X465080Y73198D01*
X465198Y73209D01*
X465317Y73212D01*
X465356Y73224D01*
X465396Y73227D01*
X465509Y73268D01*
X465623Y73301D01*
X465657Y73321D01*
X465696Y73335D01*
X465794Y73402D01*
X465897Y73462D01*
X465942Y73502D01*
X465959Y73514D01*
X465972Y73529D01*
X465996Y73550D01*
X470747Y73550D01*
X470817Y73496D01*
X470906Y73417D01*
X470942Y73399D01*
X470974Y73374D01*
X471083Y73327D01*
X471189Y73272D01*
X471229Y73264D01*
X471266Y73248D01*
X471383Y73229D01*
X471499Y73203D01*
X471540Y73204D01*
X471580Y73198D01*
X471698Y73209D01*
X471817Y73212D01*
X471856Y73224D01*
X471896Y73227D01*
X472009Y73268D01*
X472123Y73301D01*
X472157Y73321D01*
X472196Y73335D01*
X472294Y73402D01*
X472397Y73462D01*
X472442Y73502D01*
X472459Y73514D01*
X472472Y73529D01*
X472496Y73550D01*
X477247Y73550D01*
X477317Y73496D01*
X477406Y73417D01*
X477442Y73399D01*
X477474Y73374D01*
X477583Y73327D01*
X477689Y73272D01*
X477729Y73264D01*
X477766Y73248D01*
X477883Y73229D01*
X477999Y73203D01*
X478040Y73204D01*
X478080Y73198D01*
X478198Y73209D01*
X478317Y73212D01*
X478356Y73224D01*
X478396Y73227D01*
X478509Y73268D01*
X478623Y73301D01*
X478657Y73321D01*
X478696Y73335D01*
X478794Y73402D01*
X478897Y73462D01*
X478942Y73502D01*
X478959Y73514D01*
X478972Y73529D01*
X478996Y73550D01*
X483747Y73550D01*
X483817Y73496D01*
X483906Y73417D01*
X483942Y73399D01*
X483974Y73374D01*
X484083Y73327D01*
X484189Y73272D01*
X484229Y73264D01*
X484266Y73248D01*
X484383Y73229D01*
X484499Y73203D01*
X484540Y73204D01*
X484580Y73198D01*
X484698Y73209D01*
X484817Y73212D01*
X484856Y73224D01*
X484896Y73227D01*
X485009Y73268D01*
X485123Y73301D01*
X485157Y73321D01*
X485196Y73335D01*
X485294Y73402D01*
X485397Y73462D01*
X485442Y73502D01*
X485459Y73514D01*
X485472Y73529D01*
X485496Y73550D01*
X490247Y73550D01*
X490317Y73496D01*
X490406Y73417D01*
X490442Y73399D01*
X490474Y73374D01*
X490583Y73327D01*
X490689Y73272D01*
X490729Y73264D01*
X490766Y73248D01*
X490883Y73229D01*
X490999Y73203D01*
X491040Y73204D01*
X491080Y73198D01*
X491198Y73209D01*
X491317Y73212D01*
X491356Y73224D01*
X491396Y73227D01*
X491509Y73268D01*
X491623Y73301D01*
X491657Y73321D01*
X491696Y73335D01*
X491794Y73402D01*
X491897Y73462D01*
X491942Y73502D01*
X491959Y73514D01*
X491972Y73529D01*
X491996Y73550D01*
X496742Y73550D01*
X497635Y72657D01*
X497635Y57423D01*
X496742Y56530D01*
X491993Y56530D01*
X491923Y56584D01*
X491834Y56663D01*
X491798Y56681D01*
X491766Y56706D01*
X491657Y56753D01*
X491551Y56808D01*
X491511Y56816D01*
X491474Y56832D01*
X491357Y56851D01*
X491241Y56877D01*
X491200Y56876D01*
X491160Y56882D01*
X491041Y56871D01*
X490923Y56868D01*
X490884Y56856D01*
X490844Y56853D01*
X490732Y56812D01*
X490617Y56779D01*
X490582Y56759D01*
X490544Y56745D01*
X490446Y56678D01*
X490343Y56618D01*
X490298Y56578D01*
X490281Y56566D01*
X490268Y56551D01*
X490244Y56530D01*
X485493Y56530D01*
X485423Y56584D01*
X485334Y56663D01*
X485298Y56681D01*
X485266Y56706D01*
X485157Y56753D01*
X485051Y56808D01*
X485011Y56816D01*
X484974Y56832D01*
X484857Y56851D01*
X484741Y56877D01*
X484700Y56876D01*
X484660Y56882D01*
X484541Y56871D01*
X484423Y56868D01*
X484384Y56856D01*
X484344Y56853D01*
X484232Y56812D01*
X484117Y56779D01*
X484082Y56759D01*
X484044Y56745D01*
X483946Y56678D01*
X483843Y56618D01*
X483798Y56578D01*
X483781Y56566D01*
X483768Y56551D01*
X483744Y56530D01*
X478993Y56530D01*
X478923Y56584D01*
X478834Y56663D01*
X478798Y56681D01*
X478766Y56706D01*
X478657Y56753D01*
X478551Y56808D01*
X478511Y56816D01*
X478474Y56832D01*
X478357Y56851D01*
X478241Y56877D01*
X478200Y56876D01*
X478160Y56882D01*
X478041Y56871D01*
X477923Y56868D01*
X477884Y56856D01*
X477844Y56853D01*
X477732Y56812D01*
X477617Y56779D01*
X477582Y56759D01*
X477544Y56745D01*
X477446Y56678D01*
X477343Y56618D01*
X477298Y56578D01*
X477281Y56566D01*
X477268Y56551D01*
X477244Y56530D01*
X472493Y56530D01*
X472423Y56584D01*
X472334Y56663D01*
X472298Y56681D01*
X472266Y56706D01*
X472157Y56753D01*
X472051Y56808D01*
X472011Y56816D01*
X471974Y56832D01*
X471857Y56851D01*
X471741Y56877D01*
X471700Y56876D01*
X471660Y56882D01*
X471541Y56871D01*
X471423Y56868D01*
X471384Y56856D01*
X471344Y56853D01*
X471232Y56812D01*
X471117Y56779D01*
X471082Y56759D01*
X471044Y56745D01*
X470946Y56678D01*
X470843Y56618D01*
X470798Y56578D01*
X470781Y56566D01*
X470768Y56551D01*
X470744Y56530D01*
X465993Y56530D01*
X465923Y56584D01*
X465834Y56663D01*
X465798Y56681D01*
X465766Y56706D01*
X465657Y56753D01*
X465551Y56808D01*
X465511Y56816D01*
X465474Y56832D01*
X465357Y56851D01*
X465241Y56877D01*
X465200Y56876D01*
X465160Y56882D01*
X465041Y56871D01*
X464923Y56868D01*
X464884Y56856D01*
X464844Y56853D01*
X464732Y56812D01*
X464617Y56779D01*
X464582Y56759D01*
X464544Y56745D01*
X464446Y56678D01*
X464343Y56618D01*
X464298Y56578D01*
X464281Y56566D01*
X464268Y56551D01*
X464244Y56530D01*
X459493Y56530D01*
X459423Y56584D01*
X459334Y56663D01*
X459298Y56681D01*
X459266Y56706D01*
X459157Y56753D01*
X459051Y56808D01*
X459011Y56816D01*
X458974Y56832D01*
X458857Y56851D01*
X458741Y56877D01*
X458700Y56876D01*
X458660Y56882D01*
X458541Y56871D01*
X458423Y56868D01*
X458384Y56856D01*
X458344Y56853D01*
X458232Y56812D01*
X458117Y56779D01*
X458082Y56759D01*
X458044Y56745D01*
X457946Y56678D01*
X457843Y56618D01*
X457798Y56578D01*
X457781Y56566D01*
X457768Y56551D01*
X457744Y56530D01*
X453204Y56530D01*
X453106Y56518D01*
X453007Y56515D01*
X452949Y56498D01*
X452889Y56490D01*
X452797Y56454D01*
X452701Y56426D01*
X452649Y56396D01*
X452593Y56373D01*
X452513Y56315D01*
X452427Y56265D01*
X452352Y56199D01*
X452336Y56187D01*
X452328Y56177D01*
X452307Y56159D01*
X452170Y56022D01*
X451591Y55687D01*
X450944Y55514D01*
X450139Y55514D01*
G37*
%LPD*%
%LPC*%
G36*
X446796Y55514D02*
X446796Y55514D01*
X446149Y55687D01*
X445570Y56022D01*
X445433Y56159D01*
X445355Y56219D01*
X445283Y56287D01*
X445230Y56316D01*
X445182Y56353D01*
X445091Y56393D01*
X445004Y56441D01*
X444946Y56456D01*
X444890Y56480D01*
X444792Y56495D01*
X444697Y56520D01*
X444597Y56526D01*
X444576Y56530D01*
X444564Y56528D01*
X444536Y56530D01*
X439993Y56530D01*
X439923Y56584D01*
X439834Y56663D01*
X439798Y56681D01*
X439766Y56706D01*
X439657Y56753D01*
X439551Y56808D01*
X439511Y56816D01*
X439474Y56832D01*
X439357Y56851D01*
X439241Y56877D01*
X439200Y56876D01*
X439160Y56882D01*
X439041Y56871D01*
X438923Y56868D01*
X438884Y56856D01*
X438844Y56853D01*
X438732Y56812D01*
X438617Y56779D01*
X438582Y56759D01*
X438544Y56745D01*
X438446Y56678D01*
X438343Y56618D01*
X438298Y56578D01*
X438281Y56566D01*
X438268Y56551D01*
X438244Y56530D01*
X433493Y56530D01*
X433423Y56584D01*
X433334Y56663D01*
X433298Y56681D01*
X433266Y56706D01*
X433157Y56753D01*
X433051Y56808D01*
X433011Y56816D01*
X432974Y56832D01*
X432857Y56851D01*
X432741Y56877D01*
X432700Y56876D01*
X432660Y56882D01*
X432541Y56871D01*
X432423Y56868D01*
X432384Y56856D01*
X432344Y56853D01*
X432232Y56812D01*
X432117Y56779D01*
X432082Y56759D01*
X432044Y56745D01*
X431946Y56678D01*
X431843Y56618D01*
X431798Y56578D01*
X431781Y56566D01*
X431768Y56551D01*
X431744Y56530D01*
X426993Y56530D01*
X426923Y56584D01*
X426834Y56663D01*
X426798Y56681D01*
X426766Y56706D01*
X426657Y56753D01*
X426551Y56808D01*
X426511Y56816D01*
X426474Y56832D01*
X426357Y56851D01*
X426241Y56877D01*
X426200Y56876D01*
X426160Y56882D01*
X426041Y56871D01*
X425923Y56868D01*
X425884Y56856D01*
X425844Y56853D01*
X425732Y56812D01*
X425617Y56779D01*
X425582Y56759D01*
X425544Y56745D01*
X425446Y56678D01*
X425343Y56618D01*
X425298Y56578D01*
X425281Y56566D01*
X425268Y56551D01*
X425244Y56530D01*
X420493Y56530D01*
X420423Y56584D01*
X420334Y56663D01*
X420298Y56681D01*
X420266Y56706D01*
X420157Y56753D01*
X420051Y56808D01*
X420011Y56816D01*
X419974Y56832D01*
X419857Y56851D01*
X419741Y56877D01*
X419700Y56876D01*
X419660Y56882D01*
X419541Y56871D01*
X419423Y56868D01*
X419384Y56856D01*
X419344Y56853D01*
X419232Y56812D01*
X419117Y56779D01*
X419082Y56759D01*
X419044Y56745D01*
X418946Y56678D01*
X418843Y56618D01*
X418798Y56578D01*
X418781Y56566D01*
X418768Y56551D01*
X418744Y56530D01*
X413993Y56530D01*
X413923Y56584D01*
X413834Y56663D01*
X413798Y56681D01*
X413766Y56706D01*
X413657Y56753D01*
X413551Y56808D01*
X413511Y56816D01*
X413474Y56832D01*
X413357Y56851D01*
X413241Y56877D01*
X413200Y56876D01*
X413160Y56882D01*
X413042Y56871D01*
X412923Y56868D01*
X412884Y56856D01*
X412844Y56853D01*
X412731Y56812D01*
X412617Y56779D01*
X412583Y56759D01*
X412544Y56745D01*
X412446Y56678D01*
X412343Y56618D01*
X412298Y56578D01*
X412281Y56566D01*
X412268Y56551D01*
X412244Y56530D01*
X407498Y56530D01*
X406605Y57423D01*
X406605Y72657D01*
X407498Y73550D01*
X412247Y73550D01*
X412317Y73496D01*
X412406Y73417D01*
X412442Y73399D01*
X412474Y73374D01*
X412583Y73327D01*
X412689Y73272D01*
X412729Y73264D01*
X412766Y73248D01*
X412883Y73229D01*
X412999Y73203D01*
X413040Y73204D01*
X413080Y73198D01*
X413199Y73209D01*
X413317Y73212D01*
X413356Y73224D01*
X413396Y73227D01*
X413508Y73268D01*
X413623Y73301D01*
X413658Y73321D01*
X413696Y73335D01*
X413794Y73402D01*
X413897Y73462D01*
X413942Y73502D01*
X413959Y73514D01*
X413972Y73529D01*
X413996Y73550D01*
X418747Y73550D01*
X418817Y73496D01*
X418906Y73417D01*
X418942Y73399D01*
X418974Y73374D01*
X419083Y73327D01*
X419189Y73272D01*
X419229Y73264D01*
X419266Y73248D01*
X419383Y73229D01*
X419499Y73203D01*
X419540Y73204D01*
X419580Y73198D01*
X419698Y73209D01*
X419817Y73212D01*
X419856Y73224D01*
X419896Y73227D01*
X420009Y73268D01*
X420123Y73301D01*
X420157Y73321D01*
X420196Y73335D01*
X420294Y73402D01*
X420397Y73462D01*
X420442Y73502D01*
X420459Y73514D01*
X420472Y73529D01*
X420496Y73550D01*
X425247Y73550D01*
X425317Y73496D01*
X425406Y73417D01*
X425442Y73399D01*
X425474Y73374D01*
X425583Y73327D01*
X425689Y73272D01*
X425729Y73264D01*
X425766Y73248D01*
X425883Y73229D01*
X425999Y73203D01*
X426040Y73204D01*
X426080Y73198D01*
X426198Y73209D01*
X426317Y73212D01*
X426356Y73224D01*
X426396Y73227D01*
X426509Y73268D01*
X426623Y73301D01*
X426657Y73321D01*
X426696Y73335D01*
X426794Y73402D01*
X426897Y73462D01*
X426942Y73502D01*
X426959Y73514D01*
X426972Y73529D01*
X426996Y73550D01*
X431747Y73550D01*
X431817Y73496D01*
X431906Y73417D01*
X431942Y73399D01*
X431974Y73374D01*
X432083Y73327D01*
X432189Y73272D01*
X432229Y73264D01*
X432266Y73248D01*
X432383Y73229D01*
X432499Y73203D01*
X432540Y73204D01*
X432580Y73198D01*
X432698Y73209D01*
X432817Y73212D01*
X432856Y73224D01*
X432896Y73227D01*
X433009Y73268D01*
X433123Y73301D01*
X433157Y73321D01*
X433196Y73335D01*
X433294Y73402D01*
X433397Y73462D01*
X433442Y73502D01*
X433459Y73514D01*
X433472Y73529D01*
X433496Y73550D01*
X438247Y73550D01*
X438317Y73496D01*
X438406Y73417D01*
X438442Y73399D01*
X438474Y73374D01*
X438583Y73327D01*
X438689Y73272D01*
X438729Y73264D01*
X438766Y73248D01*
X438883Y73229D01*
X438999Y73203D01*
X439040Y73204D01*
X439080Y73198D01*
X439198Y73209D01*
X439317Y73212D01*
X439356Y73224D01*
X439396Y73227D01*
X439509Y73268D01*
X439623Y73301D01*
X439657Y73321D01*
X439696Y73335D01*
X439794Y73402D01*
X439897Y73462D01*
X439942Y73502D01*
X439959Y73514D01*
X439972Y73529D01*
X439996Y73550D01*
X444536Y73550D01*
X444634Y73562D01*
X444733Y73565D01*
X444791Y73582D01*
X444851Y73590D01*
X444943Y73626D01*
X445039Y73654D01*
X445091Y73684D01*
X445147Y73707D01*
X445227Y73765D01*
X445313Y73815D01*
X445388Y73881D01*
X445404Y73893D01*
X445412Y73903D01*
X445433Y73921D01*
X445570Y74058D01*
X446149Y74393D01*
X446796Y74566D01*
X447601Y74566D01*
X447601Y65040D01*
X447601Y55514D01*
X446796Y55514D01*
G37*
%LPD*%
%LPC*%
G36*
X378690Y303275D02*
X378690Y303275D01*
X373462Y305441D01*
X369461Y309442D01*
X367295Y314670D01*
X367295Y320330D01*
X369461Y325558D01*
X373462Y329559D01*
X378690Y331725D01*
X384350Y331725D01*
X389578Y329559D01*
X393579Y325558D01*
X395745Y320330D01*
X395745Y314670D01*
X393579Y309442D01*
X389578Y305441D01*
X384350Y303275D01*
X378690Y303275D01*
G37*
%LPD*%
%LPC*%
G36*
X280034Y307339D02*
X280034Y307339D01*
X280034Y316230D01*
X280019Y316348D01*
X280012Y316467D01*
X279999Y316505D01*
X279994Y316545D01*
X279950Y316656D01*
X279914Y316769D01*
X279892Y316804D01*
X279877Y316841D01*
X279807Y316937D01*
X279744Y317038D01*
X279714Y317066D01*
X279690Y317098D01*
X279599Y317174D01*
X279512Y317256D01*
X279477Y317275D01*
X279445Y317301D01*
X279338Y317352D01*
X279234Y317409D01*
X279194Y317420D01*
X279158Y317437D01*
X279041Y317459D01*
X278926Y317489D01*
X278865Y317493D01*
X278845Y317497D01*
X278825Y317495D01*
X278765Y317499D01*
X277494Y317499D01*
X277494Y317501D01*
X278765Y317501D01*
X278883Y317516D01*
X279002Y317523D01*
X279040Y317536D01*
X279080Y317541D01*
X279191Y317585D01*
X279304Y317621D01*
X279339Y317643D01*
X279376Y317658D01*
X279472Y317728D01*
X279573Y317791D01*
X279601Y317821D01*
X279633Y317845D01*
X279709Y317936D01*
X279791Y318023D01*
X279810Y318058D01*
X279836Y318090D01*
X279887Y318197D01*
X279944Y318301D01*
X279955Y318341D01*
X279972Y318377D01*
X279994Y318494D01*
X280024Y318609D01*
X280028Y318670D01*
X280032Y318690D01*
X280030Y318710D01*
X280034Y318770D01*
X280034Y327661D01*
X284179Y327661D01*
X284826Y327488D01*
X285405Y327153D01*
X285878Y326680D01*
X286213Y326101D01*
X286237Y326011D01*
X286287Y325888D01*
X286332Y325763D01*
X286347Y325741D01*
X286357Y325716D01*
X286436Y325610D01*
X286510Y325500D01*
X286530Y325482D01*
X286546Y325461D01*
X286649Y325377D01*
X286749Y325290D01*
X286773Y325278D01*
X286794Y325261D01*
X286914Y325205D01*
X287032Y325145D01*
X287058Y325139D01*
X287083Y325128D01*
X287213Y325104D01*
X287342Y325076D01*
X287369Y325076D01*
X287396Y325072D01*
X287527Y325081D01*
X287660Y325085D01*
X287686Y325093D01*
X287713Y325095D01*
X287838Y325137D01*
X287965Y325174D01*
X287989Y325187D01*
X288014Y325196D01*
X288125Y325268D01*
X288239Y325335D01*
X288268Y325360D01*
X288281Y325369D01*
X288296Y325385D01*
X288360Y325442D01*
X289563Y326645D01*
X303527Y326645D01*
X304420Y325752D01*
X304420Y309248D01*
X303527Y308355D01*
X289563Y308355D01*
X288360Y309558D01*
X288255Y309640D01*
X288155Y309725D01*
X288130Y309737D01*
X288109Y309753D01*
X287987Y309806D01*
X287868Y309864D01*
X287842Y309869D01*
X287817Y309880D01*
X287686Y309901D01*
X287557Y309927D01*
X287530Y309925D01*
X287503Y309930D01*
X287371Y309917D01*
X287239Y309910D01*
X287213Y309902D01*
X287186Y309900D01*
X287062Y309855D01*
X286935Y309816D01*
X286912Y309801D01*
X286887Y309792D01*
X286778Y309718D01*
X286665Y309648D01*
X286646Y309629D01*
X286624Y309614D01*
X286536Y309514D01*
X286445Y309419D01*
X286431Y309395D01*
X286413Y309375D01*
X286353Y309257D01*
X286288Y309142D01*
X286276Y309106D01*
X286269Y309092D01*
X286264Y309071D01*
X286237Y308989D01*
X286213Y308899D01*
X285878Y308320D01*
X285405Y307847D01*
X284826Y307512D01*
X284179Y307339D01*
X280034Y307339D01*
G37*
%LPD*%
%LPC*%
G36*
X340661Y307339D02*
X340661Y307339D01*
X340014Y307512D01*
X339435Y307847D01*
X338962Y308320D01*
X338627Y308899D01*
X338603Y308989D01*
X338553Y309112D01*
X338508Y309237D01*
X338493Y309259D01*
X338483Y309284D01*
X338404Y309390D01*
X338330Y309500D01*
X338310Y309518D01*
X338294Y309539D01*
X338191Y309623D01*
X338091Y309710D01*
X338067Y309722D01*
X338046Y309739D01*
X337926Y309795D01*
X337808Y309855D01*
X337782Y309861D01*
X337757Y309872D01*
X337627Y309896D01*
X337498Y309924D01*
X337471Y309924D01*
X337444Y309928D01*
X337313Y309919D01*
X337180Y309915D01*
X337154Y309907D01*
X337127Y309905D01*
X337002Y309863D01*
X336875Y309826D01*
X336851Y309813D01*
X336826Y309804D01*
X336715Y309732D01*
X336601Y309665D01*
X336572Y309640D01*
X336559Y309631D01*
X336544Y309615D01*
X336480Y309558D01*
X335277Y308355D01*
X321313Y308355D01*
X320420Y309248D01*
X320420Y325752D01*
X321313Y326645D01*
X335277Y326645D01*
X336480Y325442D01*
X336585Y325360D01*
X336685Y325275D01*
X336710Y325263D01*
X336731Y325247D01*
X336853Y325194D01*
X336972Y325136D01*
X336998Y325131D01*
X337023Y325120D01*
X337154Y325099D01*
X337283Y325073D01*
X337310Y325075D01*
X337337Y325070D01*
X337469Y325083D01*
X337601Y325090D01*
X337627Y325098D01*
X337654Y325100D01*
X337778Y325145D01*
X337905Y325184D01*
X337928Y325199D01*
X337953Y325208D01*
X338062Y325282D01*
X338175Y325352D01*
X338194Y325371D01*
X338216Y325386D01*
X338304Y325486D01*
X338395Y325581D01*
X338409Y325605D01*
X338427Y325625D01*
X338487Y325743D01*
X338552Y325858D01*
X338564Y325894D01*
X338571Y325908D01*
X338576Y325929D01*
X338603Y326011D01*
X338627Y326101D01*
X338962Y326680D01*
X339435Y327153D01*
X340014Y327488D01*
X340661Y327661D01*
X344806Y327661D01*
X344806Y318770D01*
X344821Y318652D01*
X344828Y318533D01*
X344841Y318495D01*
X344846Y318455D01*
X344889Y318344D01*
X344926Y318231D01*
X344948Y318196D01*
X344963Y318159D01*
X345033Y318063D01*
X345096Y317962D01*
X345126Y317934D01*
X345150Y317902D01*
X345241Y317826D01*
X345328Y317744D01*
X345363Y317725D01*
X345394Y317699D01*
X345502Y317648D01*
X345606Y317591D01*
X345646Y317580D01*
X345682Y317563D01*
X345799Y317541D01*
X345914Y317511D01*
X345975Y317507D01*
X345995Y317503D01*
X346015Y317505D01*
X346075Y317501D01*
X347346Y317501D01*
X347346Y317499D01*
X346075Y317499D01*
X345957Y317484D01*
X345838Y317477D01*
X345800Y317464D01*
X345760Y317459D01*
X345649Y317415D01*
X345536Y317379D01*
X345501Y317357D01*
X345464Y317342D01*
X345368Y317272D01*
X345267Y317209D01*
X345239Y317179D01*
X345206Y317155D01*
X345131Y317064D01*
X345049Y316977D01*
X345029Y316942D01*
X345004Y316910D01*
X344953Y316803D01*
X344895Y316699D01*
X344885Y316659D01*
X344868Y316623D01*
X344846Y316506D01*
X344816Y316391D01*
X344812Y316330D01*
X344808Y316310D01*
X344810Y316290D01*
X344806Y316230D01*
X344806Y307339D01*
X340661Y307339D01*
G37*
%LPD*%
%LPC*%
G36*
X267359Y409059D02*
X267359Y409059D01*
X267359Y417830D01*
X267344Y417948D01*
X267337Y418067D01*
X267324Y418105D01*
X267319Y418145D01*
X267275Y418256D01*
X267239Y418369D01*
X267217Y418404D01*
X267202Y418441D01*
X267132Y418537D01*
X267069Y418638D01*
X267039Y418666D01*
X267015Y418698D01*
X266924Y418774D01*
X266837Y418856D01*
X266802Y418875D01*
X266770Y418901D01*
X266663Y418952D01*
X266559Y419009D01*
X266519Y419020D01*
X266483Y419037D01*
X266366Y419059D01*
X266251Y419089D01*
X266190Y419093D01*
X266170Y419097D01*
X266150Y419095D01*
X266090Y419099D01*
X264819Y419099D01*
X264819Y419101D01*
X266090Y419101D01*
X266208Y419116D01*
X266327Y419123D01*
X266365Y419136D01*
X266405Y419141D01*
X266516Y419185D01*
X266629Y419221D01*
X266664Y419243D01*
X266701Y419258D01*
X266797Y419328D01*
X266898Y419391D01*
X266926Y419421D01*
X266958Y419445D01*
X267034Y419536D01*
X267116Y419623D01*
X267135Y419658D01*
X267161Y419690D01*
X267212Y419797D01*
X267269Y419901D01*
X267280Y419941D01*
X267297Y419977D01*
X267319Y420094D01*
X267349Y420209D01*
X267353Y420270D01*
X267357Y420290D01*
X267355Y420310D01*
X267359Y420370D01*
X267359Y429141D01*
X271654Y429141D01*
X272301Y428968D01*
X272880Y428633D01*
X273353Y428160D01*
X273760Y427456D01*
X273836Y427356D01*
X273906Y427252D01*
X273932Y427229D01*
X273952Y427202D01*
X274051Y427124D01*
X274145Y427041D01*
X274175Y427026D01*
X274201Y427005D01*
X274316Y426954D01*
X274428Y426896D01*
X274461Y426889D01*
X274492Y426875D01*
X274616Y426854D01*
X274738Y426827D01*
X274772Y426828D01*
X274805Y426822D01*
X274931Y426833D01*
X275056Y426836D01*
X275089Y426846D01*
X275122Y426849D01*
X275241Y426890D01*
X275362Y426925D01*
X275391Y426942D01*
X275423Y426953D01*
X275527Y427022D01*
X275636Y427086D01*
X275672Y427119D01*
X275688Y427129D01*
X275702Y427145D01*
X275756Y427193D01*
X276688Y428125D01*
X290952Y428125D01*
X291845Y427232D01*
X291845Y410968D01*
X290952Y410075D01*
X276688Y410075D01*
X275756Y411007D01*
X275657Y411084D01*
X275562Y411166D01*
X275532Y411181D01*
X275505Y411202D01*
X275390Y411252D01*
X275277Y411308D01*
X275244Y411315D01*
X275213Y411329D01*
X275089Y411348D01*
X274966Y411374D01*
X274933Y411373D01*
X274899Y411378D01*
X274774Y411367D01*
X274648Y411361D01*
X274616Y411352D01*
X274583Y411349D01*
X274464Y411306D01*
X274344Y411270D01*
X274315Y411252D01*
X274283Y411241D01*
X274179Y411170D01*
X274072Y411105D01*
X274048Y411081D01*
X274020Y411062D01*
X273937Y410968D01*
X273849Y410878D01*
X273822Y410838D01*
X273810Y410824D01*
X273800Y410805D01*
X273760Y410744D01*
X273353Y410040D01*
X272880Y409567D01*
X272301Y409232D01*
X271654Y409059D01*
X267359Y409059D01*
G37*
%LPD*%
%LPC*%
G36*
X330859Y409059D02*
X330859Y409059D01*
X330859Y417830D01*
X330844Y417948D01*
X330837Y418067D01*
X330824Y418105D01*
X330819Y418145D01*
X330775Y418256D01*
X330739Y418369D01*
X330717Y418404D01*
X330702Y418441D01*
X330632Y418537D01*
X330569Y418638D01*
X330539Y418666D01*
X330515Y418698D01*
X330424Y418774D01*
X330337Y418856D01*
X330302Y418875D01*
X330270Y418901D01*
X330163Y418952D01*
X330059Y419009D01*
X330019Y419020D01*
X329983Y419037D01*
X329866Y419059D01*
X329751Y419089D01*
X329690Y419093D01*
X329670Y419097D01*
X329650Y419095D01*
X329590Y419099D01*
X328319Y419099D01*
X328319Y419101D01*
X329590Y419101D01*
X329708Y419116D01*
X329827Y419123D01*
X329865Y419136D01*
X329905Y419141D01*
X330016Y419185D01*
X330129Y419221D01*
X330164Y419243D01*
X330201Y419258D01*
X330297Y419328D01*
X330398Y419391D01*
X330426Y419421D01*
X330458Y419445D01*
X330534Y419536D01*
X330616Y419623D01*
X330635Y419658D01*
X330661Y419690D01*
X330712Y419797D01*
X330769Y419901D01*
X330780Y419941D01*
X330797Y419977D01*
X330819Y420094D01*
X330849Y420209D01*
X330853Y420270D01*
X330857Y420290D01*
X330855Y420310D01*
X330859Y420370D01*
X330859Y429141D01*
X335154Y429141D01*
X335801Y428968D01*
X336380Y428633D01*
X336853Y428160D01*
X337260Y427456D01*
X337336Y427356D01*
X337406Y427252D01*
X337432Y427229D01*
X337452Y427202D01*
X337551Y427124D01*
X337645Y427041D01*
X337675Y427026D01*
X337701Y427005D01*
X337816Y426954D01*
X337928Y426896D01*
X337961Y426889D01*
X337992Y426875D01*
X338116Y426854D01*
X338238Y426827D01*
X338272Y426828D01*
X338305Y426822D01*
X338431Y426833D01*
X338556Y426836D01*
X338589Y426846D01*
X338622Y426849D01*
X338741Y426890D01*
X338862Y426925D01*
X338891Y426942D01*
X338923Y426953D01*
X339027Y427022D01*
X339136Y427086D01*
X339172Y427119D01*
X339188Y427129D01*
X339202Y427145D01*
X339256Y427193D01*
X340188Y428125D01*
X354452Y428125D01*
X355345Y427232D01*
X355345Y410968D01*
X354452Y410075D01*
X340188Y410075D01*
X339256Y411007D01*
X339157Y411084D01*
X339062Y411166D01*
X339032Y411181D01*
X339005Y411202D01*
X338890Y411252D01*
X338777Y411308D01*
X338744Y411315D01*
X338713Y411329D01*
X338589Y411348D01*
X338466Y411374D01*
X338433Y411373D01*
X338399Y411378D01*
X338274Y411367D01*
X338148Y411361D01*
X338116Y411352D01*
X338083Y411349D01*
X337964Y411306D01*
X337844Y411270D01*
X337815Y411252D01*
X337783Y411241D01*
X337679Y411170D01*
X337572Y411105D01*
X337548Y411081D01*
X337520Y411062D01*
X337437Y410968D01*
X337349Y410878D01*
X337322Y410838D01*
X337310Y410824D01*
X337300Y410805D01*
X337260Y410744D01*
X336853Y410040D01*
X336380Y409567D01*
X335801Y409232D01*
X335154Y409059D01*
X330859Y409059D01*
G37*
%LPD*%
%LPC*%
G36*
X394359Y434459D02*
X394359Y434459D01*
X394359Y443230D01*
X394344Y443348D01*
X394337Y443467D01*
X394324Y443505D01*
X394319Y443545D01*
X394275Y443656D01*
X394239Y443769D01*
X394217Y443804D01*
X394202Y443841D01*
X394132Y443937D01*
X394069Y444038D01*
X394039Y444066D01*
X394015Y444098D01*
X393924Y444174D01*
X393837Y444256D01*
X393802Y444275D01*
X393770Y444301D01*
X393663Y444352D01*
X393559Y444409D01*
X393519Y444420D01*
X393483Y444437D01*
X393366Y444459D01*
X393251Y444489D01*
X393190Y444493D01*
X393170Y444497D01*
X393150Y444495D01*
X393090Y444499D01*
X391819Y444499D01*
X391819Y444501D01*
X393090Y444501D01*
X393208Y444516D01*
X393327Y444523D01*
X393365Y444536D01*
X393405Y444541D01*
X393516Y444585D01*
X393629Y444621D01*
X393664Y444643D01*
X393701Y444658D01*
X393797Y444728D01*
X393898Y444791D01*
X393926Y444821D01*
X393958Y444845D01*
X394034Y444936D01*
X394116Y445023D01*
X394135Y445058D01*
X394161Y445090D01*
X394212Y445197D01*
X394269Y445301D01*
X394280Y445341D01*
X394297Y445377D01*
X394319Y445494D01*
X394349Y445609D01*
X394353Y445670D01*
X394357Y445690D01*
X394355Y445710D01*
X394359Y445770D01*
X394359Y454541D01*
X398654Y454541D01*
X399301Y454368D01*
X399880Y454033D01*
X400353Y453560D01*
X400760Y452856D01*
X400836Y452756D01*
X400906Y452652D01*
X400932Y452629D01*
X400952Y452602D01*
X401051Y452524D01*
X401145Y452441D01*
X401175Y452426D01*
X401201Y452405D01*
X401316Y452354D01*
X401428Y452296D01*
X401461Y452289D01*
X401492Y452275D01*
X401616Y452254D01*
X401738Y452227D01*
X401772Y452228D01*
X401805Y452222D01*
X401931Y452233D01*
X402056Y452236D01*
X402089Y452246D01*
X402122Y452249D01*
X402241Y452290D01*
X402362Y452325D01*
X402391Y452342D01*
X402423Y452353D01*
X402527Y452422D01*
X402636Y452486D01*
X402672Y452519D01*
X402688Y452529D01*
X402702Y452545D01*
X402756Y452593D01*
X403688Y453525D01*
X417952Y453525D01*
X418845Y452632D01*
X418845Y436368D01*
X417952Y435475D01*
X403688Y435475D01*
X402756Y436407D01*
X402657Y436484D01*
X402562Y436566D01*
X402532Y436581D01*
X402505Y436602D01*
X402390Y436652D01*
X402277Y436708D01*
X402244Y436715D01*
X402213Y436729D01*
X402089Y436748D01*
X401966Y436774D01*
X401933Y436773D01*
X401899Y436778D01*
X401774Y436767D01*
X401648Y436761D01*
X401616Y436752D01*
X401583Y436749D01*
X401464Y436706D01*
X401344Y436670D01*
X401315Y436652D01*
X401283Y436641D01*
X401179Y436570D01*
X401072Y436505D01*
X401048Y436481D01*
X401020Y436462D01*
X400937Y436368D01*
X400849Y436278D01*
X400822Y436238D01*
X400810Y436224D01*
X400800Y436205D01*
X400760Y436144D01*
X400353Y435440D01*
X399880Y434967D01*
X399301Y434632D01*
X398654Y434459D01*
X394359Y434459D01*
G37*
%LPD*%
%LPC*%
G36*
X149986Y409059D02*
X149986Y409059D01*
X149339Y409232D01*
X148760Y409567D01*
X148287Y410040D01*
X147880Y410744D01*
X147804Y410844D01*
X147734Y410948D01*
X147708Y410971D01*
X147688Y410998D01*
X147589Y411076D01*
X147495Y411159D01*
X147465Y411174D01*
X147439Y411195D01*
X147324Y411246D01*
X147212Y411304D01*
X147179Y411311D01*
X147148Y411325D01*
X147024Y411346D01*
X146902Y411373D01*
X146868Y411372D01*
X146835Y411378D01*
X146709Y411367D01*
X146584Y411364D01*
X146551Y411354D01*
X146518Y411351D01*
X146399Y411310D01*
X146278Y411275D01*
X146249Y411258D01*
X146217Y411247D01*
X146113Y411178D01*
X146004Y411114D01*
X145968Y411081D01*
X145952Y411071D01*
X145938Y411055D01*
X145884Y411007D01*
X144952Y410075D01*
X130688Y410075D01*
X129795Y410968D01*
X129795Y427232D01*
X130688Y428125D01*
X144952Y428125D01*
X145884Y427193D01*
X145983Y427116D01*
X146078Y427034D01*
X146108Y427019D01*
X146135Y426998D01*
X146250Y426948D01*
X146363Y426892D01*
X146396Y426885D01*
X146427Y426871D01*
X146551Y426852D01*
X146674Y426826D01*
X146707Y426827D01*
X146741Y426822D01*
X146866Y426833D01*
X146992Y426839D01*
X147024Y426848D01*
X147057Y426851D01*
X147176Y426894D01*
X147296Y426930D01*
X147325Y426948D01*
X147357Y426959D01*
X147461Y427030D01*
X147568Y427095D01*
X147592Y427119D01*
X147620Y427138D01*
X147703Y427232D01*
X147791Y427322D01*
X147818Y427362D01*
X147830Y427376D01*
X147840Y427395D01*
X147880Y427456D01*
X148287Y428160D01*
X148760Y428633D01*
X149339Y428968D01*
X149986Y429141D01*
X154281Y429141D01*
X154281Y420370D01*
X154296Y420252D01*
X154303Y420133D01*
X154316Y420095D01*
X154321Y420055D01*
X154364Y419944D01*
X154401Y419831D01*
X154423Y419796D01*
X154438Y419759D01*
X154508Y419663D01*
X154571Y419562D01*
X154601Y419534D01*
X154625Y419502D01*
X154716Y419426D01*
X154803Y419344D01*
X154838Y419325D01*
X154869Y419299D01*
X154977Y419248D01*
X155081Y419191D01*
X155121Y419180D01*
X155157Y419163D01*
X155274Y419141D01*
X155389Y419111D01*
X155450Y419107D01*
X155470Y419103D01*
X155490Y419105D01*
X155550Y419101D01*
X156821Y419101D01*
X156821Y419099D01*
X155550Y419099D01*
X155432Y419084D01*
X155313Y419077D01*
X155275Y419064D01*
X155235Y419059D01*
X155124Y419015D01*
X155011Y418979D01*
X154976Y418957D01*
X154939Y418942D01*
X154843Y418872D01*
X154742Y418809D01*
X154714Y418779D01*
X154681Y418755D01*
X154606Y418664D01*
X154524Y418577D01*
X154504Y418542D01*
X154479Y418510D01*
X154428Y418403D01*
X154370Y418299D01*
X154360Y418259D01*
X154343Y418223D01*
X154321Y418106D01*
X154291Y417991D01*
X154287Y417930D01*
X154283Y417910D01*
X154285Y417890D01*
X154281Y417830D01*
X154281Y409059D01*
X149986Y409059D01*
G37*
%LPD*%
%LPC*%
G36*
X213486Y434459D02*
X213486Y434459D01*
X212839Y434632D01*
X212260Y434967D01*
X211787Y435440D01*
X211380Y436144D01*
X211304Y436244D01*
X211234Y436348D01*
X211208Y436371D01*
X211188Y436398D01*
X211089Y436476D01*
X210995Y436559D01*
X210965Y436574D01*
X210939Y436595D01*
X210824Y436646D01*
X210712Y436704D01*
X210679Y436711D01*
X210648Y436725D01*
X210524Y436746D01*
X210402Y436773D01*
X210368Y436772D01*
X210335Y436778D01*
X210209Y436767D01*
X210084Y436764D01*
X210051Y436754D01*
X210018Y436751D01*
X209899Y436710D01*
X209778Y436675D01*
X209749Y436658D01*
X209717Y436647D01*
X209613Y436578D01*
X209504Y436514D01*
X209468Y436481D01*
X209452Y436471D01*
X209438Y436455D01*
X209384Y436407D01*
X208452Y435475D01*
X194188Y435475D01*
X193295Y436368D01*
X193295Y452632D01*
X194188Y453525D01*
X208452Y453525D01*
X209384Y452593D01*
X209483Y452516D01*
X209578Y452434D01*
X209608Y452419D01*
X209635Y452398D01*
X209750Y452348D01*
X209863Y452292D01*
X209896Y452285D01*
X209927Y452271D01*
X210051Y452252D01*
X210174Y452226D01*
X210207Y452227D01*
X210241Y452222D01*
X210366Y452233D01*
X210492Y452239D01*
X210524Y452248D01*
X210557Y452251D01*
X210676Y452294D01*
X210796Y452330D01*
X210825Y452348D01*
X210857Y452359D01*
X210961Y452430D01*
X211068Y452495D01*
X211092Y452519D01*
X211120Y452538D01*
X211203Y452632D01*
X211291Y452722D01*
X211318Y452762D01*
X211330Y452776D01*
X211340Y452795D01*
X211380Y452856D01*
X211787Y453560D01*
X212260Y454033D01*
X212839Y454368D01*
X213486Y454541D01*
X217781Y454541D01*
X217781Y445770D01*
X217796Y445652D01*
X217803Y445533D01*
X217816Y445495D01*
X217821Y445455D01*
X217864Y445344D01*
X217901Y445231D01*
X217923Y445196D01*
X217938Y445159D01*
X218008Y445063D01*
X218071Y444962D01*
X218101Y444934D01*
X218125Y444902D01*
X218216Y444826D01*
X218303Y444744D01*
X218338Y444725D01*
X218369Y444699D01*
X218477Y444648D01*
X218581Y444591D01*
X218621Y444580D01*
X218657Y444563D01*
X218774Y444541D01*
X218889Y444511D01*
X218950Y444507D01*
X218970Y444503D01*
X218990Y444505D01*
X219050Y444501D01*
X220321Y444501D01*
X220321Y444499D01*
X219050Y444499D01*
X218932Y444484D01*
X218813Y444477D01*
X218775Y444464D01*
X218735Y444459D01*
X218624Y444415D01*
X218511Y444379D01*
X218476Y444357D01*
X218439Y444342D01*
X218343Y444272D01*
X218242Y444209D01*
X218214Y444179D01*
X218181Y444155D01*
X218106Y444064D01*
X218024Y443977D01*
X218004Y443942D01*
X217979Y443910D01*
X217928Y443803D01*
X217870Y443699D01*
X217860Y443659D01*
X217843Y443623D01*
X217821Y443506D01*
X217791Y443391D01*
X217787Y443330D01*
X217783Y443310D01*
X217785Y443290D01*
X217781Y443230D01*
X217781Y434459D01*
X213486Y434459D01*
G37*
%LPD*%
%LPC*%
G36*
X276986Y434459D02*
X276986Y434459D01*
X276339Y434632D01*
X275760Y434967D01*
X275287Y435440D01*
X274880Y436144D01*
X274804Y436244D01*
X274734Y436349D01*
X274708Y436371D01*
X274688Y436398D01*
X274590Y436476D01*
X274495Y436559D01*
X274465Y436574D01*
X274439Y436595D01*
X274324Y436646D01*
X274212Y436704D01*
X274179Y436711D01*
X274148Y436725D01*
X274024Y436746D01*
X273902Y436773D01*
X273868Y436772D01*
X273835Y436778D01*
X273709Y436767D01*
X273584Y436764D01*
X273551Y436754D01*
X273518Y436751D01*
X273399Y436710D01*
X273278Y436675D01*
X273249Y436658D01*
X273217Y436647D01*
X273113Y436577D01*
X273004Y436514D01*
X272968Y436481D01*
X272952Y436471D01*
X272938Y436455D01*
X272884Y436407D01*
X271952Y435475D01*
X257688Y435475D01*
X256795Y436368D01*
X256795Y452632D01*
X257688Y453525D01*
X271952Y453525D01*
X272884Y452593D01*
X272983Y452516D01*
X273078Y452433D01*
X273108Y452418D01*
X273135Y452398D01*
X273250Y452348D01*
X273363Y452292D01*
X273396Y452285D01*
X273427Y452271D01*
X273551Y452252D01*
X273674Y452226D01*
X273707Y452227D01*
X273741Y452222D01*
X273866Y452233D01*
X273992Y452239D01*
X274024Y452248D01*
X274057Y452251D01*
X274176Y452294D01*
X274296Y452330D01*
X274325Y452348D01*
X274357Y452359D01*
X274461Y452430D01*
X274568Y452495D01*
X274592Y452519D01*
X274620Y452538D01*
X274703Y452632D01*
X274791Y452722D01*
X274818Y452762D01*
X274830Y452776D01*
X274840Y452795D01*
X274880Y452856D01*
X275287Y453560D01*
X275760Y454033D01*
X276339Y454368D01*
X276986Y454541D01*
X281281Y454541D01*
X281281Y445770D01*
X281296Y445652D01*
X281303Y445533D01*
X281316Y445495D01*
X281321Y445455D01*
X281364Y445344D01*
X281401Y445231D01*
X281423Y445196D01*
X281438Y445159D01*
X281508Y445063D01*
X281571Y444962D01*
X281601Y444934D01*
X281625Y444902D01*
X281716Y444826D01*
X281803Y444744D01*
X281838Y444725D01*
X281869Y444699D01*
X281977Y444648D01*
X282081Y444591D01*
X282121Y444580D01*
X282157Y444563D01*
X282274Y444541D01*
X282389Y444511D01*
X282450Y444507D01*
X282470Y444503D01*
X282490Y444505D01*
X282550Y444501D01*
X283821Y444501D01*
X283821Y444499D01*
X282550Y444499D01*
X282432Y444484D01*
X282313Y444477D01*
X282275Y444464D01*
X282235Y444459D01*
X282124Y444415D01*
X282011Y444379D01*
X281976Y444357D01*
X281939Y444342D01*
X281843Y444272D01*
X281742Y444209D01*
X281714Y444179D01*
X281681Y444155D01*
X281606Y444064D01*
X281524Y443977D01*
X281504Y443942D01*
X281479Y443910D01*
X281428Y443803D01*
X281370Y443699D01*
X281360Y443659D01*
X281343Y443623D01*
X281321Y443506D01*
X281291Y443391D01*
X281287Y443330D01*
X281283Y443310D01*
X281285Y443290D01*
X281281Y443230D01*
X281281Y434459D01*
X276986Y434459D01*
G37*
%LPD*%
%LPC*%
G36*
X213486Y409059D02*
X213486Y409059D01*
X212839Y409232D01*
X212260Y409567D01*
X211787Y410040D01*
X211380Y410744D01*
X211304Y410844D01*
X211234Y410949D01*
X211208Y410971D01*
X211188Y410998D01*
X211090Y411076D01*
X210995Y411159D01*
X210965Y411174D01*
X210939Y411195D01*
X210824Y411246D01*
X210712Y411304D01*
X210679Y411311D01*
X210648Y411325D01*
X210524Y411346D01*
X210402Y411373D01*
X210368Y411372D01*
X210335Y411378D01*
X210209Y411367D01*
X210084Y411364D01*
X210051Y411354D01*
X210018Y411351D01*
X209899Y411310D01*
X209778Y411275D01*
X209749Y411258D01*
X209717Y411247D01*
X209613Y411177D01*
X209504Y411114D01*
X209468Y411081D01*
X209452Y411071D01*
X209438Y411055D01*
X209384Y411007D01*
X208452Y410075D01*
X194188Y410075D01*
X193295Y410968D01*
X193295Y427232D01*
X194188Y428125D01*
X208452Y428125D01*
X209384Y427193D01*
X209483Y427116D01*
X209578Y427033D01*
X209608Y427018D01*
X209635Y426998D01*
X209750Y426948D01*
X209863Y426892D01*
X209896Y426885D01*
X209927Y426871D01*
X210051Y426852D01*
X210174Y426826D01*
X210207Y426827D01*
X210241Y426822D01*
X210366Y426833D01*
X210492Y426839D01*
X210524Y426848D01*
X210557Y426851D01*
X210676Y426894D01*
X210796Y426930D01*
X210825Y426948D01*
X210857Y426959D01*
X210961Y427030D01*
X211068Y427095D01*
X211092Y427119D01*
X211120Y427138D01*
X211203Y427232D01*
X211291Y427322D01*
X211318Y427362D01*
X211330Y427376D01*
X211340Y427395D01*
X211380Y427456D01*
X211787Y428160D01*
X212260Y428633D01*
X212839Y428968D01*
X213486Y429141D01*
X217781Y429141D01*
X217781Y420370D01*
X217796Y420252D01*
X217803Y420133D01*
X217816Y420095D01*
X217821Y420055D01*
X217864Y419944D01*
X217901Y419831D01*
X217923Y419796D01*
X217938Y419759D01*
X218008Y419663D01*
X218071Y419562D01*
X218101Y419534D01*
X218125Y419502D01*
X218216Y419426D01*
X218303Y419344D01*
X218338Y419325D01*
X218369Y419299D01*
X218477Y419248D01*
X218581Y419191D01*
X218621Y419180D01*
X218657Y419163D01*
X218774Y419141D01*
X218889Y419111D01*
X218950Y419107D01*
X218970Y419103D01*
X218990Y419105D01*
X219050Y419101D01*
X220321Y419101D01*
X220321Y419099D01*
X219050Y419099D01*
X218932Y419084D01*
X218813Y419077D01*
X218775Y419064D01*
X218735Y419059D01*
X218624Y419015D01*
X218511Y418979D01*
X218476Y418957D01*
X218439Y418942D01*
X218343Y418872D01*
X218242Y418809D01*
X218214Y418779D01*
X218181Y418755D01*
X218106Y418664D01*
X218024Y418577D01*
X218004Y418542D01*
X217979Y418510D01*
X217928Y418403D01*
X217870Y418299D01*
X217860Y418259D01*
X217843Y418223D01*
X217821Y418106D01*
X217791Y417991D01*
X217787Y417930D01*
X217783Y417910D01*
X217785Y417890D01*
X217781Y417830D01*
X217781Y409059D01*
X213486Y409059D01*
G37*
%LPD*%
%LPC*%
G36*
X326786Y167759D02*
X326786Y167759D01*
X326139Y167932D01*
X325560Y168267D01*
X325299Y168528D01*
X325205Y168601D01*
X325116Y168680D01*
X325080Y168698D01*
X325048Y168723D01*
X324938Y168770D01*
X324832Y168824D01*
X324793Y168833D01*
X324756Y168849D01*
X324638Y168868D01*
X324522Y168894D01*
X324482Y168893D01*
X324442Y168899D01*
X324323Y168888D01*
X324204Y168884D01*
X324165Y168873D01*
X324125Y168869D01*
X324013Y168829D01*
X323899Y168796D01*
X323864Y168775D01*
X309488Y168775D01*
X308595Y169668D01*
X308595Y185932D01*
X309488Y186825D01*
X323875Y186825D01*
X323971Y186776D01*
X324010Y186767D01*
X324047Y186751D01*
X324165Y186732D01*
X324281Y186706D01*
X324321Y186707D01*
X324361Y186701D01*
X324480Y186712D01*
X324599Y186716D01*
X324638Y186727D01*
X324678Y186731D01*
X324790Y186771D01*
X324904Y186804D01*
X324939Y186825D01*
X324977Y186838D01*
X325076Y186905D01*
X325178Y186966D01*
X325223Y187006D01*
X325240Y187017D01*
X325254Y187032D01*
X325299Y187072D01*
X325560Y187333D01*
X326139Y187668D01*
X326786Y187841D01*
X331081Y187841D01*
X331081Y179070D01*
X331096Y178952D01*
X331103Y178833D01*
X331116Y178795D01*
X331121Y178755D01*
X331164Y178644D01*
X331201Y178531D01*
X331223Y178496D01*
X331238Y178459D01*
X331308Y178363D01*
X331371Y178262D01*
X331401Y178234D01*
X331425Y178202D01*
X331516Y178126D01*
X331603Y178044D01*
X331638Y178025D01*
X331669Y177999D01*
X331777Y177948D01*
X331881Y177891D01*
X331921Y177880D01*
X331957Y177863D01*
X332074Y177841D01*
X332189Y177811D01*
X332250Y177807D01*
X332270Y177803D01*
X332290Y177805D01*
X332350Y177801D01*
X333621Y177801D01*
X333621Y177799D01*
X332350Y177799D01*
X332232Y177784D01*
X332113Y177777D01*
X332075Y177764D01*
X332035Y177759D01*
X331924Y177715D01*
X331811Y177679D01*
X331776Y177657D01*
X331739Y177642D01*
X331643Y177572D01*
X331542Y177509D01*
X331514Y177479D01*
X331481Y177455D01*
X331406Y177364D01*
X331324Y177277D01*
X331304Y177242D01*
X331279Y177210D01*
X331228Y177103D01*
X331170Y176999D01*
X331160Y176959D01*
X331143Y176923D01*
X331121Y176806D01*
X331091Y176691D01*
X331087Y176630D01*
X331083Y176610D01*
X331085Y176590D01*
X331081Y176530D01*
X331081Y167759D01*
X326786Y167759D01*
G37*
%LPD*%
%LPC*%
G36*
X199786Y167759D02*
X199786Y167759D01*
X199139Y167932D01*
X198560Y168267D01*
X198299Y168528D01*
X198205Y168601D01*
X198116Y168680D01*
X198080Y168698D01*
X198048Y168723D01*
X197938Y168770D01*
X197832Y168824D01*
X197793Y168833D01*
X197756Y168849D01*
X197638Y168868D01*
X197522Y168894D01*
X197482Y168893D01*
X197442Y168899D01*
X197323Y168888D01*
X197204Y168884D01*
X197165Y168873D01*
X197125Y168869D01*
X197013Y168829D01*
X196899Y168796D01*
X196864Y168775D01*
X182488Y168775D01*
X181595Y169668D01*
X181595Y185932D01*
X182488Y186825D01*
X196875Y186825D01*
X196971Y186776D01*
X197010Y186767D01*
X197047Y186751D01*
X197165Y186732D01*
X197281Y186706D01*
X197321Y186707D01*
X197361Y186701D01*
X197480Y186712D01*
X197599Y186716D01*
X197638Y186727D01*
X197678Y186731D01*
X197790Y186771D01*
X197904Y186804D01*
X197939Y186825D01*
X197977Y186838D01*
X198076Y186905D01*
X198178Y186966D01*
X198223Y187006D01*
X198240Y187017D01*
X198254Y187032D01*
X198299Y187072D01*
X198560Y187333D01*
X199139Y187668D01*
X199786Y187841D01*
X204081Y187841D01*
X204081Y179070D01*
X204096Y178952D01*
X204103Y178833D01*
X204116Y178795D01*
X204121Y178755D01*
X204164Y178644D01*
X204201Y178531D01*
X204223Y178496D01*
X204238Y178459D01*
X204308Y178363D01*
X204371Y178262D01*
X204401Y178234D01*
X204425Y178202D01*
X204516Y178126D01*
X204603Y178044D01*
X204638Y178025D01*
X204669Y177999D01*
X204777Y177948D01*
X204881Y177891D01*
X204921Y177880D01*
X204957Y177863D01*
X205074Y177841D01*
X205189Y177811D01*
X205250Y177807D01*
X205270Y177803D01*
X205290Y177805D01*
X205350Y177801D01*
X206621Y177801D01*
X206621Y177799D01*
X205350Y177799D01*
X205232Y177784D01*
X205113Y177777D01*
X205075Y177764D01*
X205035Y177759D01*
X204924Y177715D01*
X204811Y177679D01*
X204776Y177657D01*
X204739Y177642D01*
X204643Y177572D01*
X204542Y177509D01*
X204514Y177479D01*
X204481Y177455D01*
X204406Y177364D01*
X204324Y177277D01*
X204304Y177242D01*
X204279Y177210D01*
X204228Y177103D01*
X204170Y176999D01*
X204160Y176959D01*
X204143Y176923D01*
X204121Y176806D01*
X204091Y176691D01*
X204087Y176630D01*
X204083Y176610D01*
X204085Y176590D01*
X204081Y176530D01*
X204081Y167759D01*
X199786Y167759D01*
G37*
%LPD*%
%LPC*%
G36*
X390286Y167759D02*
X390286Y167759D01*
X389639Y167932D01*
X389060Y168267D01*
X388799Y168528D01*
X388705Y168601D01*
X388616Y168680D01*
X388580Y168698D01*
X388548Y168723D01*
X388438Y168770D01*
X388332Y168824D01*
X388293Y168833D01*
X388256Y168849D01*
X388138Y168868D01*
X388022Y168894D01*
X387982Y168893D01*
X387942Y168899D01*
X387823Y168888D01*
X387704Y168884D01*
X387665Y168873D01*
X387625Y168869D01*
X387513Y168829D01*
X387399Y168796D01*
X387364Y168775D01*
X372988Y168775D01*
X372095Y169668D01*
X372095Y185932D01*
X372988Y186825D01*
X387375Y186825D01*
X387471Y186776D01*
X387510Y186767D01*
X387547Y186751D01*
X387665Y186732D01*
X387781Y186706D01*
X387821Y186707D01*
X387861Y186701D01*
X387980Y186712D01*
X388099Y186716D01*
X388138Y186727D01*
X388178Y186731D01*
X388290Y186771D01*
X388404Y186804D01*
X388439Y186825D01*
X388477Y186838D01*
X388576Y186905D01*
X388678Y186966D01*
X388723Y187006D01*
X388740Y187017D01*
X388754Y187032D01*
X388799Y187072D01*
X389060Y187333D01*
X389639Y187668D01*
X390286Y187841D01*
X394581Y187841D01*
X394581Y179070D01*
X394596Y178952D01*
X394603Y178833D01*
X394616Y178795D01*
X394621Y178755D01*
X394664Y178644D01*
X394701Y178531D01*
X394723Y178496D01*
X394738Y178459D01*
X394808Y178363D01*
X394871Y178262D01*
X394901Y178234D01*
X394925Y178202D01*
X395016Y178126D01*
X395103Y178044D01*
X395138Y178025D01*
X395169Y177999D01*
X395277Y177948D01*
X395381Y177891D01*
X395421Y177880D01*
X395457Y177863D01*
X395574Y177841D01*
X395689Y177811D01*
X395750Y177807D01*
X395770Y177803D01*
X395790Y177805D01*
X395850Y177801D01*
X397121Y177801D01*
X397121Y177799D01*
X395850Y177799D01*
X395732Y177784D01*
X395613Y177777D01*
X395575Y177764D01*
X395535Y177759D01*
X395424Y177715D01*
X395311Y177679D01*
X395276Y177657D01*
X395239Y177642D01*
X395143Y177572D01*
X395042Y177509D01*
X395014Y177479D01*
X394981Y177455D01*
X394906Y177364D01*
X394824Y177277D01*
X394804Y177242D01*
X394779Y177210D01*
X394728Y177103D01*
X394670Y176999D01*
X394660Y176959D01*
X394643Y176923D01*
X394621Y176806D01*
X394591Y176691D01*
X394587Y176630D01*
X394583Y176610D01*
X394585Y176590D01*
X394581Y176530D01*
X394581Y167759D01*
X390286Y167759D01*
G37*
%LPD*%
%LPC*%
G36*
X430639Y128634D02*
X430639Y128634D01*
X430639Y138160D01*
X430639Y147686D01*
X431444Y147686D01*
X432091Y147513D01*
X432670Y147178D01*
X432807Y147041D01*
X432885Y146981D01*
X432957Y146913D01*
X433010Y146884D01*
X433058Y146847D01*
X433149Y146807D01*
X433236Y146759D01*
X433294Y146744D01*
X433350Y146720D01*
X433448Y146705D01*
X433543Y146680D01*
X433643Y146674D01*
X433664Y146670D01*
X433676Y146672D01*
X433704Y146670D01*
X438247Y146670D01*
X438317Y146616D01*
X438406Y146537D01*
X438442Y146519D01*
X438474Y146494D01*
X438583Y146447D01*
X438689Y146392D01*
X438729Y146384D01*
X438766Y146368D01*
X438883Y146349D01*
X438999Y146323D01*
X439040Y146324D01*
X439080Y146318D01*
X439198Y146329D01*
X439317Y146332D01*
X439356Y146344D01*
X439396Y146347D01*
X439509Y146388D01*
X439623Y146421D01*
X439657Y146441D01*
X439696Y146455D01*
X439794Y146522D01*
X439897Y146582D01*
X439942Y146622D01*
X439959Y146634D01*
X439972Y146649D01*
X439996Y146670D01*
X444747Y146670D01*
X444817Y146616D01*
X444906Y146537D01*
X444942Y146519D01*
X444974Y146494D01*
X445083Y146447D01*
X445189Y146392D01*
X445229Y146384D01*
X445266Y146368D01*
X445383Y146349D01*
X445499Y146323D01*
X445540Y146324D01*
X445580Y146318D01*
X445698Y146329D01*
X445817Y146332D01*
X445856Y146344D01*
X445896Y146347D01*
X446009Y146388D01*
X446123Y146421D01*
X446157Y146441D01*
X446196Y146455D01*
X446294Y146522D01*
X446397Y146582D01*
X446442Y146622D01*
X446459Y146634D01*
X446472Y146649D01*
X446496Y146670D01*
X451036Y146670D01*
X451134Y146682D01*
X451233Y146685D01*
X451291Y146702D01*
X451351Y146710D01*
X451443Y146746D01*
X451539Y146774D01*
X451591Y146804D01*
X451647Y146827D01*
X451727Y146885D01*
X451813Y146935D01*
X451888Y147001D01*
X451904Y147013D01*
X451912Y147023D01*
X451933Y147041D01*
X452070Y147178D01*
X452649Y147513D01*
X453296Y147686D01*
X454101Y147686D01*
X454101Y138160D01*
X454101Y128634D01*
X453296Y128634D01*
X452649Y128807D01*
X452070Y129142D01*
X451933Y129279D01*
X451855Y129339D01*
X451783Y129407D01*
X451730Y129436D01*
X451682Y129473D01*
X451591Y129513D01*
X451504Y129561D01*
X451446Y129576D01*
X451390Y129600D01*
X451292Y129615D01*
X451197Y129640D01*
X451097Y129646D01*
X451076Y129650D01*
X451064Y129648D01*
X451036Y129650D01*
X446493Y129650D01*
X446423Y129704D01*
X446334Y129783D01*
X446298Y129801D01*
X446266Y129826D01*
X446157Y129873D01*
X446051Y129928D01*
X446011Y129936D01*
X445974Y129952D01*
X445857Y129971D01*
X445741Y129997D01*
X445700Y129996D01*
X445660Y130002D01*
X445541Y129991D01*
X445423Y129988D01*
X445384Y129976D01*
X445344Y129973D01*
X445232Y129932D01*
X445117Y129899D01*
X445082Y129879D01*
X445044Y129865D01*
X444946Y129798D01*
X444843Y129738D01*
X444798Y129698D01*
X444781Y129686D01*
X444768Y129671D01*
X444744Y129650D01*
X439993Y129650D01*
X439923Y129704D01*
X439834Y129783D01*
X439798Y129801D01*
X439766Y129826D01*
X439657Y129873D01*
X439551Y129928D01*
X439511Y129936D01*
X439474Y129952D01*
X439357Y129971D01*
X439241Y129997D01*
X439200Y129996D01*
X439160Y130002D01*
X439041Y129991D01*
X438923Y129988D01*
X438884Y129976D01*
X438844Y129973D01*
X438732Y129932D01*
X438617Y129899D01*
X438582Y129879D01*
X438544Y129865D01*
X438446Y129798D01*
X438343Y129738D01*
X438298Y129698D01*
X438281Y129686D01*
X438268Y129671D01*
X438244Y129650D01*
X433704Y129650D01*
X433606Y129638D01*
X433507Y129635D01*
X433449Y129618D01*
X433389Y129610D01*
X433297Y129574D01*
X433201Y129546D01*
X433149Y129516D01*
X433093Y129493D01*
X433013Y129435D01*
X432927Y129385D01*
X432852Y129319D01*
X432836Y129307D01*
X432828Y129297D01*
X432807Y129279D01*
X432670Y129142D01*
X432091Y128807D01*
X431444Y128634D01*
X430639Y128634D01*
G37*
%LPD*%
%LPC*%
G36*
X322947Y77977D02*
X322947Y77977D01*
X318933Y79640D01*
X315860Y82713D01*
X314197Y86727D01*
X314197Y91073D01*
X315860Y95087D01*
X318933Y98160D01*
X322947Y99823D01*
X327293Y99823D01*
X331307Y98160D01*
X334380Y95087D01*
X336043Y91073D01*
X336043Y86727D01*
X334380Y82713D01*
X331307Y79640D01*
X327293Y77977D01*
X322947Y77977D01*
G37*
%LPD*%
%LPC*%
G36*
X348347Y77977D02*
X348347Y77977D01*
X344333Y79640D01*
X341260Y82713D01*
X339597Y86727D01*
X339597Y91073D01*
X341260Y95087D01*
X344333Y98160D01*
X348347Y99823D01*
X352693Y99823D01*
X356707Y98160D01*
X359780Y95087D01*
X361443Y91073D01*
X361443Y86727D01*
X359780Y82713D01*
X356707Y79640D01*
X352693Y77977D01*
X348347Y77977D01*
G37*
%LPD*%
%LPC*%
G36*
X373747Y77977D02*
X373747Y77977D01*
X369733Y79640D01*
X366660Y82713D01*
X364997Y86727D01*
X364997Y91073D01*
X366660Y95087D01*
X369733Y98160D01*
X373747Y99823D01*
X378093Y99823D01*
X382107Y98160D01*
X385180Y95087D01*
X386843Y91073D01*
X386843Y86727D01*
X385180Y82713D01*
X382107Y79640D01*
X378093Y77977D01*
X373747Y77977D01*
G37*
%LPD*%
%LPC*%
G36*
X322947Y103377D02*
X322947Y103377D01*
X318933Y105040D01*
X315860Y108113D01*
X314197Y112127D01*
X314197Y116473D01*
X315860Y120487D01*
X318933Y123560D01*
X322947Y125223D01*
X327293Y125223D01*
X331307Y123560D01*
X334380Y120487D01*
X336043Y116473D01*
X336043Y112127D01*
X334380Y108113D01*
X331307Y105040D01*
X327293Y103377D01*
X322947Y103377D01*
G37*
%LPD*%
%LPC*%
G36*
X348347Y103377D02*
X348347Y103377D01*
X344333Y105040D01*
X341260Y108113D01*
X339597Y112127D01*
X339597Y116473D01*
X341260Y120487D01*
X344333Y123560D01*
X348347Y125223D01*
X352693Y125223D01*
X356707Y123560D01*
X359780Y120487D01*
X361443Y116473D01*
X361443Y112127D01*
X359780Y108113D01*
X356707Y105040D01*
X352693Y103377D01*
X348347Y103377D01*
G37*
%LPD*%
%LPC*%
G36*
X476139Y128634D02*
X476139Y128634D01*
X476139Y138160D01*
X476139Y147686D01*
X476944Y147686D01*
X477591Y147513D01*
X478170Y147178D01*
X478307Y147041D01*
X478385Y146981D01*
X478457Y146913D01*
X478510Y146884D01*
X478558Y146847D01*
X478649Y146807D01*
X478736Y146759D01*
X478794Y146744D01*
X478850Y146720D01*
X478948Y146705D01*
X479043Y146680D01*
X479143Y146674D01*
X479164Y146670D01*
X479176Y146672D01*
X479204Y146670D01*
X483747Y146670D01*
X483817Y146616D01*
X483906Y146537D01*
X483942Y146519D01*
X483974Y146494D01*
X484083Y146447D01*
X484189Y146392D01*
X484229Y146384D01*
X484266Y146368D01*
X484383Y146349D01*
X484499Y146323D01*
X484540Y146324D01*
X484580Y146318D01*
X484698Y146329D01*
X484817Y146332D01*
X484856Y146344D01*
X484896Y146347D01*
X485009Y146388D01*
X485123Y146421D01*
X485157Y146441D01*
X485196Y146455D01*
X485294Y146522D01*
X485397Y146582D01*
X485442Y146622D01*
X485459Y146634D01*
X485472Y146649D01*
X485496Y146670D01*
X490247Y146670D01*
X490317Y146616D01*
X490406Y146537D01*
X490442Y146519D01*
X490474Y146494D01*
X490583Y146447D01*
X490689Y146392D01*
X490729Y146384D01*
X490766Y146368D01*
X490883Y146349D01*
X490999Y146323D01*
X491040Y146324D01*
X491080Y146318D01*
X491198Y146329D01*
X491317Y146332D01*
X491356Y146344D01*
X491396Y146347D01*
X491509Y146388D01*
X491623Y146421D01*
X491657Y146441D01*
X491696Y146455D01*
X491794Y146522D01*
X491897Y146582D01*
X491942Y146622D01*
X491959Y146634D01*
X491972Y146649D01*
X491996Y146670D01*
X496742Y146670D01*
X497635Y145777D01*
X497635Y130543D01*
X496742Y129650D01*
X491993Y129650D01*
X491923Y129704D01*
X491834Y129783D01*
X491798Y129801D01*
X491766Y129826D01*
X491657Y129873D01*
X491551Y129928D01*
X491511Y129936D01*
X491474Y129952D01*
X491357Y129971D01*
X491241Y129997D01*
X491200Y129996D01*
X491160Y130002D01*
X491041Y129991D01*
X490923Y129988D01*
X490884Y129976D01*
X490844Y129973D01*
X490732Y129932D01*
X490617Y129899D01*
X490582Y129879D01*
X490544Y129865D01*
X490446Y129798D01*
X490343Y129738D01*
X490298Y129698D01*
X490281Y129686D01*
X490268Y129671D01*
X490244Y129650D01*
X485493Y129650D01*
X485423Y129704D01*
X485334Y129783D01*
X485298Y129801D01*
X485266Y129826D01*
X485157Y129873D01*
X485051Y129928D01*
X485011Y129936D01*
X484974Y129952D01*
X484857Y129971D01*
X484741Y129997D01*
X484700Y129996D01*
X484660Y130002D01*
X484541Y129991D01*
X484423Y129988D01*
X484384Y129976D01*
X484344Y129973D01*
X484232Y129932D01*
X484117Y129899D01*
X484082Y129879D01*
X484044Y129865D01*
X483946Y129798D01*
X483843Y129738D01*
X483798Y129698D01*
X483781Y129686D01*
X483768Y129671D01*
X483744Y129650D01*
X479204Y129650D01*
X479106Y129638D01*
X479007Y129635D01*
X478949Y129618D01*
X478889Y129610D01*
X478797Y129574D01*
X478701Y129546D01*
X478649Y129516D01*
X478593Y129493D01*
X478513Y129435D01*
X478427Y129385D01*
X478352Y129319D01*
X478336Y129307D01*
X478328Y129297D01*
X478307Y129279D01*
X478170Y129142D01*
X477591Y128807D01*
X476944Y128634D01*
X476139Y128634D01*
G37*
%LPD*%
%LPC*%
G36*
X427296Y128634D02*
X427296Y128634D01*
X426649Y128807D01*
X426070Y129142D01*
X425933Y129279D01*
X425855Y129339D01*
X425783Y129407D01*
X425730Y129436D01*
X425682Y129473D01*
X425591Y129513D01*
X425504Y129561D01*
X425446Y129576D01*
X425390Y129600D01*
X425292Y129615D01*
X425197Y129640D01*
X425097Y129646D01*
X425076Y129650D01*
X425064Y129648D01*
X425036Y129650D01*
X420493Y129650D01*
X420423Y129704D01*
X420334Y129783D01*
X420298Y129801D01*
X420266Y129826D01*
X420157Y129873D01*
X420051Y129928D01*
X420011Y129936D01*
X419974Y129952D01*
X419857Y129971D01*
X419741Y129997D01*
X419700Y129996D01*
X419660Y130002D01*
X419541Y129991D01*
X419423Y129988D01*
X419384Y129976D01*
X419344Y129973D01*
X419232Y129932D01*
X419117Y129899D01*
X419082Y129879D01*
X419044Y129865D01*
X418946Y129798D01*
X418843Y129738D01*
X418798Y129698D01*
X418781Y129686D01*
X418768Y129671D01*
X418744Y129650D01*
X413993Y129650D01*
X413923Y129704D01*
X413834Y129783D01*
X413798Y129801D01*
X413766Y129826D01*
X413657Y129873D01*
X413551Y129928D01*
X413511Y129936D01*
X413474Y129952D01*
X413357Y129971D01*
X413241Y129997D01*
X413200Y129996D01*
X413160Y130002D01*
X413041Y129991D01*
X412923Y129988D01*
X412884Y129976D01*
X412844Y129973D01*
X412732Y129932D01*
X412617Y129899D01*
X412582Y129879D01*
X412544Y129865D01*
X412446Y129798D01*
X412343Y129738D01*
X412298Y129698D01*
X412281Y129686D01*
X412268Y129671D01*
X412244Y129650D01*
X407498Y129650D01*
X406605Y130543D01*
X406605Y145777D01*
X407498Y146670D01*
X412247Y146670D01*
X412317Y146616D01*
X412406Y146537D01*
X412442Y146519D01*
X412474Y146494D01*
X412583Y146447D01*
X412689Y146392D01*
X412729Y146384D01*
X412766Y146368D01*
X412883Y146349D01*
X412999Y146323D01*
X413040Y146324D01*
X413080Y146318D01*
X413198Y146329D01*
X413317Y146332D01*
X413356Y146344D01*
X413396Y146347D01*
X413509Y146388D01*
X413623Y146421D01*
X413657Y146441D01*
X413696Y146455D01*
X413794Y146522D01*
X413897Y146582D01*
X413942Y146622D01*
X413959Y146634D01*
X413972Y146649D01*
X413996Y146670D01*
X418747Y146670D01*
X418817Y146616D01*
X418906Y146537D01*
X418942Y146519D01*
X418974Y146494D01*
X419083Y146447D01*
X419189Y146392D01*
X419229Y146384D01*
X419266Y146368D01*
X419383Y146349D01*
X419499Y146323D01*
X419540Y146324D01*
X419580Y146318D01*
X419698Y146329D01*
X419817Y146332D01*
X419856Y146344D01*
X419896Y146347D01*
X420009Y146388D01*
X420123Y146421D01*
X420157Y146441D01*
X420196Y146455D01*
X420294Y146522D01*
X420397Y146582D01*
X420442Y146622D01*
X420459Y146634D01*
X420472Y146649D01*
X420496Y146670D01*
X425036Y146670D01*
X425134Y146682D01*
X425233Y146685D01*
X425291Y146702D01*
X425351Y146710D01*
X425443Y146746D01*
X425539Y146774D01*
X425591Y146804D01*
X425647Y146827D01*
X425727Y146885D01*
X425813Y146935D01*
X425888Y147001D01*
X425904Y147013D01*
X425912Y147023D01*
X425933Y147041D01*
X426070Y147178D01*
X426649Y147513D01*
X427296Y147686D01*
X428101Y147686D01*
X428101Y138160D01*
X428101Y128634D01*
X427296Y128634D01*
G37*
%LPD*%
%LPC*%
G36*
X167688Y93875D02*
X167688Y93875D01*
X166795Y94768D01*
X166795Y115032D01*
X167688Y115925D01*
X181952Y115925D01*
X182845Y115032D01*
X182845Y94768D01*
X181952Y93875D01*
X167688Y93875D01*
G37*
%LPD*%
%LPC*%
G36*
X167688Y61875D02*
X167688Y61875D01*
X166795Y62768D01*
X166795Y83032D01*
X167688Y83925D01*
X181952Y83925D01*
X182845Y83032D01*
X182845Y62768D01*
X181952Y61875D01*
X167688Y61875D01*
G37*
%LPD*%
%LPC*%
G36*
X221575Y79120D02*
X221575Y79120D01*
X217980Y80609D01*
X215229Y83360D01*
X213740Y86955D01*
X213740Y90845D01*
X215229Y94440D01*
X217980Y97191D01*
X221575Y98680D01*
X225465Y98680D01*
X229060Y97191D01*
X231811Y94440D01*
X233300Y90845D01*
X233300Y86955D01*
X231811Y83360D01*
X229060Y80609D01*
X225465Y79120D01*
X221575Y79120D01*
G37*
%LPD*%
%LPC*%
G36*
X272375Y79120D02*
X272375Y79120D01*
X268780Y80609D01*
X266029Y83360D01*
X264540Y86955D01*
X264540Y90845D01*
X266029Y94440D01*
X268780Y97191D01*
X272375Y98680D01*
X276265Y98680D01*
X279860Y97191D01*
X282611Y94440D01*
X284100Y90845D01*
X284100Y86955D01*
X282611Y83360D01*
X279860Y80609D01*
X276265Y79120D01*
X272375Y79120D01*
G37*
%LPD*%
%LPC*%
G36*
X456639Y128634D02*
X456639Y128634D01*
X456639Y138160D01*
X456639Y147686D01*
X457444Y147686D01*
X458091Y147513D01*
X458670Y147178D01*
X458807Y147041D01*
X458885Y146981D01*
X458957Y146913D01*
X459010Y146884D01*
X459058Y146847D01*
X459149Y146807D01*
X459236Y146759D01*
X459294Y146744D01*
X459350Y146720D01*
X459448Y146705D01*
X459543Y146680D01*
X459643Y146674D01*
X459664Y146670D01*
X459676Y146672D01*
X459704Y146670D01*
X464247Y146670D01*
X464317Y146616D01*
X464406Y146537D01*
X464442Y146519D01*
X464474Y146494D01*
X464583Y146447D01*
X464689Y146392D01*
X464729Y146384D01*
X464766Y146368D01*
X464883Y146349D01*
X464999Y146323D01*
X465040Y146324D01*
X465080Y146318D01*
X465198Y146329D01*
X465317Y146332D01*
X465356Y146344D01*
X465396Y146347D01*
X465509Y146388D01*
X465623Y146421D01*
X465657Y146441D01*
X465696Y146455D01*
X465794Y146522D01*
X465897Y146582D01*
X465942Y146622D01*
X465959Y146634D01*
X465972Y146649D01*
X465996Y146670D01*
X470536Y146670D01*
X470634Y146682D01*
X470733Y146685D01*
X470791Y146702D01*
X470851Y146710D01*
X470943Y146746D01*
X471039Y146774D01*
X471091Y146804D01*
X471147Y146827D01*
X471227Y146885D01*
X471313Y146935D01*
X471388Y147001D01*
X471404Y147013D01*
X471412Y147023D01*
X471433Y147041D01*
X471570Y147178D01*
X472149Y147513D01*
X472796Y147686D01*
X473601Y147686D01*
X473601Y138160D01*
X473601Y128634D01*
X472796Y128634D01*
X472149Y128807D01*
X471570Y129142D01*
X471433Y129279D01*
X471355Y129339D01*
X471283Y129407D01*
X471230Y129436D01*
X471182Y129473D01*
X471091Y129513D01*
X471004Y129561D01*
X470946Y129576D01*
X470890Y129600D01*
X470792Y129615D01*
X470697Y129640D01*
X470597Y129646D01*
X470576Y129650D01*
X470564Y129648D01*
X470536Y129650D01*
X465993Y129650D01*
X465923Y129704D01*
X465834Y129783D01*
X465798Y129801D01*
X465766Y129826D01*
X465657Y129873D01*
X465551Y129928D01*
X465511Y129936D01*
X465474Y129952D01*
X465357Y129971D01*
X465241Y129997D01*
X465200Y129996D01*
X465160Y130002D01*
X465041Y129991D01*
X464923Y129988D01*
X464884Y129976D01*
X464844Y129973D01*
X464732Y129932D01*
X464617Y129899D01*
X464582Y129879D01*
X464544Y129865D01*
X464446Y129798D01*
X464343Y129738D01*
X464298Y129698D01*
X464281Y129686D01*
X464268Y129671D01*
X464244Y129650D01*
X459704Y129650D01*
X459606Y129638D01*
X459507Y129635D01*
X459449Y129618D01*
X459389Y129610D01*
X459297Y129574D01*
X459201Y129546D01*
X459149Y129516D01*
X459093Y129493D01*
X459013Y129435D01*
X458927Y129385D01*
X458852Y129319D01*
X458836Y129307D01*
X458828Y129297D01*
X458807Y129279D01*
X458670Y129142D01*
X458091Y128807D01*
X457444Y128634D01*
X456639Y128634D01*
G37*
%LPD*%
%LPC*%
G36*
X473436Y169959D02*
X473436Y169959D01*
X472789Y170132D01*
X472210Y170467D01*
X472073Y170604D01*
X471995Y170664D01*
X471923Y170732D01*
X471870Y170761D01*
X471822Y170798D01*
X471731Y170838D01*
X471644Y170886D01*
X471586Y170901D01*
X471530Y170925D01*
X471432Y170940D01*
X471337Y170965D01*
X471237Y170971D01*
X471216Y170975D01*
X471204Y170973D01*
X471176Y170975D01*
X467985Y170975D01*
X467951Y170993D01*
X467911Y171001D01*
X467874Y171017D01*
X467757Y171036D01*
X467640Y171062D01*
X467600Y171061D01*
X467560Y171067D01*
X467442Y171056D01*
X467323Y171053D01*
X467284Y171041D01*
X467244Y171038D01*
X467132Y170997D01*
X467056Y170975D01*
X462985Y170975D01*
X462951Y170993D01*
X462911Y171001D01*
X462874Y171017D01*
X462757Y171036D01*
X462640Y171062D01*
X462600Y171061D01*
X462560Y171067D01*
X462442Y171056D01*
X462323Y171053D01*
X462284Y171041D01*
X462244Y171038D01*
X462132Y170997D01*
X462056Y170975D01*
X457985Y170975D01*
X457951Y170993D01*
X457911Y171001D01*
X457874Y171017D01*
X457757Y171036D01*
X457640Y171062D01*
X457600Y171061D01*
X457560Y171067D01*
X457442Y171056D01*
X457323Y171053D01*
X457284Y171041D01*
X457244Y171038D01*
X457132Y170997D01*
X457056Y170975D01*
X453138Y170975D01*
X452245Y171868D01*
X452245Y177882D01*
X452422Y178058D01*
X452507Y178168D01*
X452596Y178275D01*
X452605Y178294D01*
X452617Y178310D01*
X452673Y178438D01*
X452732Y178563D01*
X452735Y178583D01*
X452744Y178602D01*
X452765Y178740D01*
X452791Y178876D01*
X452790Y178896D01*
X452793Y178916D01*
X452780Y179054D01*
X452772Y179193D01*
X452765Y179212D01*
X452764Y179232D01*
X452716Y179363D01*
X452674Y179495D01*
X452663Y179513D01*
X452656Y179532D01*
X452578Y179646D01*
X452503Y179764D01*
X452489Y179778D01*
X452477Y179795D01*
X452373Y179887D01*
X452272Y179982D01*
X452254Y179992D01*
X452239Y180005D01*
X452115Y180068D01*
X451993Y180136D01*
X451974Y180141D01*
X451972Y180141D01*
X450995Y181118D01*
X450995Y185035D01*
X451013Y185069D01*
X451021Y185109D01*
X451037Y185146D01*
X451056Y185263D01*
X451082Y185380D01*
X451081Y185420D01*
X451087Y185460D01*
X451076Y185578D01*
X451073Y185697D01*
X451061Y185736D01*
X451058Y185776D01*
X451017Y185888D01*
X450995Y185964D01*
X450995Y190035D01*
X451013Y190069D01*
X451021Y190109D01*
X451037Y190146D01*
X451056Y190263D01*
X451082Y190380D01*
X451081Y190420D01*
X451087Y190460D01*
X451076Y190578D01*
X451073Y190697D01*
X451061Y190736D01*
X451058Y190776D01*
X451017Y190888D01*
X450995Y190964D01*
X450995Y194156D01*
X450983Y194254D01*
X450980Y194353D01*
X450963Y194411D01*
X450955Y194471D01*
X450919Y194563D01*
X450891Y194659D01*
X450861Y194711D01*
X450838Y194767D01*
X450780Y194847D01*
X450730Y194933D01*
X450664Y195008D01*
X450652Y195024D01*
X450642Y195032D01*
X450624Y195053D01*
X450487Y195190D01*
X450152Y195769D01*
X449979Y196416D01*
X449979Y196731D01*
X454395Y196731D01*
X458811Y196731D01*
X458811Y196416D01*
X458638Y195769D01*
X458303Y195190D01*
X458166Y195053D01*
X458106Y194975D01*
X458038Y194903D01*
X458009Y194850D01*
X457972Y194802D01*
X457932Y194711D01*
X457884Y194624D01*
X457869Y194566D01*
X457845Y194510D01*
X457830Y194412D01*
X457805Y194317D01*
X457799Y194217D01*
X457795Y194196D01*
X457797Y194184D01*
X457795Y194156D01*
X457795Y190965D01*
X457777Y190931D01*
X457769Y190892D01*
X457753Y190855D01*
X457734Y190737D01*
X457708Y190621D01*
X457709Y190580D01*
X457703Y190541D01*
X457714Y190422D01*
X457717Y190303D01*
X457729Y190264D01*
X457732Y190224D01*
X457773Y190112D01*
X457795Y190036D01*
X457795Y185965D01*
X457777Y185931D01*
X457769Y185892D01*
X457753Y185855D01*
X457734Y185737D01*
X457708Y185621D01*
X457709Y185580D01*
X457703Y185541D01*
X457714Y185422D01*
X457717Y185303D01*
X457729Y185264D01*
X457732Y185224D01*
X457773Y185112D01*
X457795Y185036D01*
X457795Y181118D01*
X457618Y180942D01*
X457533Y180832D01*
X457444Y180725D01*
X457435Y180706D01*
X457423Y180690D01*
X457367Y180562D01*
X457308Y180437D01*
X457305Y180417D01*
X457296Y180398D01*
X457275Y180260D01*
X457249Y180124D01*
X457250Y180104D01*
X457247Y180084D01*
X457260Y179945D01*
X457268Y179807D01*
X457275Y179788D01*
X457276Y179768D01*
X457324Y179637D01*
X457366Y179505D01*
X457377Y179487D01*
X457384Y179468D01*
X457462Y179354D01*
X457537Y179236D01*
X457551Y179222D01*
X457563Y179205D01*
X457667Y179113D01*
X457768Y179018D01*
X457786Y179008D01*
X457801Y178995D01*
X457925Y178932D01*
X458047Y178864D01*
X458066Y178859D01*
X458084Y178850D01*
X458220Y178820D01*
X458355Y178785D01*
X458383Y178783D01*
X458395Y178780D01*
X458415Y178781D01*
X458515Y178775D01*
X462055Y178775D01*
X462089Y178757D01*
X462128Y178749D01*
X462165Y178733D01*
X462283Y178714D01*
X462399Y178688D01*
X462440Y178689D01*
X462479Y178683D01*
X462598Y178694D01*
X462717Y178697D01*
X462756Y178709D01*
X462796Y178712D01*
X462908Y178753D01*
X462984Y178775D01*
X467055Y178775D01*
X467089Y178757D01*
X467128Y178749D01*
X467165Y178733D01*
X467283Y178714D01*
X467399Y178688D01*
X467440Y178689D01*
X467479Y178683D01*
X467598Y178694D01*
X467717Y178697D01*
X467756Y178709D01*
X467796Y178712D01*
X467908Y178753D01*
X467984Y178775D01*
X471176Y178775D01*
X471274Y178787D01*
X471373Y178790D01*
X471431Y178807D01*
X471491Y178815D01*
X471583Y178851D01*
X471679Y178879D01*
X471731Y178909D01*
X471787Y178932D01*
X471867Y178990D01*
X471953Y179040D01*
X472028Y179106D01*
X472044Y179118D01*
X472052Y179128D01*
X472073Y179146D01*
X472210Y179283D01*
X472789Y179618D01*
X473436Y179791D01*
X473751Y179791D01*
X473751Y174875D01*
X473751Y169959D01*
X473436Y169959D01*
G37*
%LPD*%
%LPC*%
G36*
X448188Y435475D02*
X448188Y435475D01*
X447295Y436368D01*
X447295Y452632D01*
X448188Y453525D01*
X462452Y453525D01*
X463345Y452632D01*
X463345Y436368D01*
X462452Y435475D01*
X448188Y435475D01*
G37*
%LPD*%
%LPC*%
G36*
X321188Y435475D02*
X321188Y435475D01*
X320295Y436368D01*
X320295Y452632D01*
X321188Y453525D01*
X335452Y453525D01*
X336345Y452632D01*
X336345Y436368D01*
X335452Y435475D01*
X321188Y435475D01*
G37*
%LPD*%
%LPC*%
G36*
X467188Y435475D02*
X467188Y435475D01*
X466295Y436368D01*
X466295Y452632D01*
X467188Y453525D01*
X481452Y453525D01*
X482345Y452632D01*
X482345Y436368D01*
X481452Y435475D01*
X467188Y435475D01*
G37*
%LPD*%
%LPC*%
G36*
X86188Y410075D02*
X86188Y410075D01*
X85295Y410968D01*
X85295Y427232D01*
X86188Y428125D01*
X100452Y428125D01*
X101345Y427232D01*
X101345Y410968D01*
X100452Y410075D01*
X86188Y410075D01*
G37*
%LPD*%
%LPC*%
G36*
X340188Y435475D02*
X340188Y435475D01*
X339295Y436368D01*
X339295Y452632D01*
X340188Y453525D01*
X354452Y453525D01*
X355345Y452632D01*
X355345Y436368D01*
X354452Y435475D01*
X340188Y435475D01*
G37*
%LPD*%
%LPC*%
G36*
X67188Y410075D02*
X67188Y410075D01*
X66295Y410968D01*
X66295Y427232D01*
X67188Y428125D01*
X81452Y428125D01*
X82345Y427232D01*
X82345Y410968D01*
X81452Y410075D01*
X67188Y410075D01*
G37*
%LPD*%
%LPC*%
G36*
X219713Y308355D02*
X219713Y308355D01*
X218820Y309248D01*
X218820Y325752D01*
X219713Y326645D01*
X233677Y326645D01*
X234570Y325752D01*
X234570Y309248D01*
X233677Y308355D01*
X219713Y308355D01*
G37*
%LPD*%
%LPC*%
G36*
X238763Y308355D02*
X238763Y308355D01*
X237870Y309248D01*
X237870Y325752D01*
X238763Y326645D01*
X252727Y326645D01*
X253620Y325752D01*
X253620Y309248D01*
X252727Y308355D01*
X238763Y308355D01*
G37*
%LPD*%
%LPC*%
G36*
X384188Y410075D02*
X384188Y410075D01*
X383295Y410968D01*
X383295Y427232D01*
X384188Y428125D01*
X397452Y428125D01*
X398345Y427232D01*
X398345Y410968D01*
X397452Y410075D01*
X384188Y410075D01*
G37*
%LPD*%
%LPC*%
G36*
X468688Y410075D02*
X468688Y410075D01*
X467795Y410968D01*
X467795Y427232D01*
X468688Y428125D01*
X481952Y428125D01*
X482845Y427232D01*
X482845Y410968D01*
X481952Y410075D01*
X468688Y410075D01*
G37*
%LPD*%
%LPC*%
G36*
X500645Y194269D02*
X500645Y194269D01*
X496229Y194269D01*
X496229Y194584D01*
X496402Y195231D01*
X496737Y195810D01*
X496874Y195947D01*
X496934Y196025D01*
X497002Y196097D01*
X497031Y196150D01*
X497068Y196198D01*
X497108Y196289D01*
X497156Y196376D01*
X497171Y196434D01*
X497195Y196490D01*
X497210Y196588D01*
X497235Y196683D01*
X497241Y196783D01*
X497245Y196804D01*
X497243Y196816D01*
X497245Y196844D01*
X497245Y199882D01*
X497422Y200058D01*
X497507Y200168D01*
X497596Y200275D01*
X497605Y200294D01*
X497617Y200310D01*
X497673Y200438D01*
X497732Y200563D01*
X497735Y200583D01*
X497744Y200602D01*
X497765Y200740D01*
X497791Y200876D01*
X497790Y200896D01*
X497793Y200916D01*
X497780Y201055D01*
X497772Y201193D01*
X497765Y201212D01*
X497764Y201232D01*
X497716Y201363D01*
X497674Y201495D01*
X497663Y201513D01*
X497656Y201532D01*
X497578Y201646D01*
X497503Y201764D01*
X497489Y201778D01*
X497477Y201795D01*
X497373Y201887D01*
X497272Y201982D01*
X497254Y201992D01*
X497239Y202005D01*
X497115Y202068D01*
X496993Y202136D01*
X496974Y202141D01*
X496956Y202150D01*
X496820Y202180D01*
X496685Y202215D01*
X496657Y202217D01*
X496645Y202220D01*
X496625Y202219D01*
X496525Y202225D01*
X492985Y202225D01*
X492951Y202243D01*
X492912Y202251D01*
X492875Y202267D01*
X492757Y202286D01*
X492641Y202312D01*
X492600Y202311D01*
X492561Y202317D01*
X492442Y202306D01*
X492323Y202303D01*
X492284Y202291D01*
X492244Y202288D01*
X492132Y202247D01*
X492056Y202225D01*
X487985Y202225D01*
X487951Y202243D01*
X487912Y202251D01*
X487875Y202267D01*
X487757Y202286D01*
X487641Y202312D01*
X487600Y202311D01*
X487561Y202317D01*
X487442Y202306D01*
X487323Y202303D01*
X487284Y202291D01*
X487244Y202288D01*
X487132Y202247D01*
X487056Y202225D01*
X482985Y202225D01*
X482951Y202243D01*
X482912Y202251D01*
X482875Y202267D01*
X482757Y202286D01*
X482641Y202312D01*
X482600Y202311D01*
X482561Y202317D01*
X482442Y202306D01*
X482323Y202303D01*
X482284Y202291D01*
X482244Y202288D01*
X482132Y202247D01*
X482056Y202225D01*
X478864Y202225D01*
X478766Y202213D01*
X478667Y202210D01*
X478609Y202193D01*
X478549Y202185D01*
X478457Y202149D01*
X478361Y202121D01*
X478309Y202091D01*
X478253Y202068D01*
X478173Y202010D01*
X478087Y201960D01*
X478012Y201894D01*
X477996Y201882D01*
X477988Y201872D01*
X477967Y201854D01*
X477830Y201717D01*
X477251Y201382D01*
X476604Y201209D01*
X476289Y201209D01*
X476289Y206125D01*
X476289Y211041D01*
X476604Y211041D01*
X477251Y210868D01*
X477830Y210533D01*
X477967Y210396D01*
X478045Y210336D01*
X478117Y210268D01*
X478170Y210239D01*
X478218Y210202D01*
X478309Y210162D01*
X478396Y210114D01*
X478454Y210099D01*
X478510Y210075D01*
X478608Y210060D01*
X478703Y210035D01*
X478803Y210029D01*
X478824Y210025D01*
X478836Y210027D01*
X478864Y210025D01*
X482055Y210025D01*
X482089Y210007D01*
X482129Y209999D01*
X482166Y209983D01*
X482283Y209964D01*
X482400Y209938D01*
X482440Y209939D01*
X482480Y209933D01*
X482598Y209944D01*
X482717Y209947D01*
X482756Y209959D01*
X482796Y209962D01*
X482908Y210003D01*
X482984Y210025D01*
X487055Y210025D01*
X487089Y210007D01*
X487129Y209999D01*
X487166Y209983D01*
X487283Y209964D01*
X487400Y209938D01*
X487440Y209939D01*
X487480Y209933D01*
X487598Y209944D01*
X487717Y209947D01*
X487756Y209959D01*
X487796Y209962D01*
X487908Y210003D01*
X487984Y210025D01*
X492055Y210025D01*
X492089Y210007D01*
X492129Y209999D01*
X492166Y209983D01*
X492283Y209964D01*
X492400Y209938D01*
X492440Y209939D01*
X492480Y209933D01*
X492598Y209944D01*
X492717Y209947D01*
X492756Y209959D01*
X492796Y209962D01*
X492908Y210003D01*
X492984Y210025D01*
X497055Y210025D01*
X497089Y210007D01*
X497129Y209999D01*
X497166Y209983D01*
X497283Y209964D01*
X497400Y209938D01*
X497440Y209939D01*
X497480Y209933D01*
X497598Y209944D01*
X497717Y209947D01*
X497756Y209959D01*
X497796Y209962D01*
X497908Y210003D01*
X497984Y210025D01*
X501902Y210025D01*
X502795Y209132D01*
X502795Y203118D01*
X502618Y202942D01*
X502533Y202832D01*
X502444Y202725D01*
X502435Y202706D01*
X502423Y202690D01*
X502367Y202562D01*
X502308Y202437D01*
X502305Y202417D01*
X502296Y202398D01*
X502275Y202260D01*
X502249Y202124D01*
X502250Y202104D01*
X502247Y202084D01*
X502260Y201945D01*
X502268Y201807D01*
X502275Y201788D01*
X502276Y201768D01*
X502324Y201637D01*
X502366Y201505D01*
X502377Y201487D01*
X502384Y201468D01*
X502462Y201354D01*
X502537Y201236D01*
X502551Y201222D01*
X502563Y201205D01*
X502667Y201113D01*
X502768Y201018D01*
X502786Y201008D01*
X502801Y200995D01*
X502925Y200932D01*
X503047Y200864D01*
X503066Y200859D01*
X503068Y200859D01*
X504045Y199882D01*
X504045Y196844D01*
X504057Y196746D01*
X504060Y196647D01*
X504077Y196589D01*
X504085Y196529D01*
X504121Y196437D01*
X504149Y196341D01*
X504179Y196289D01*
X504202Y196233D01*
X504260Y196153D01*
X504310Y196067D01*
X504376Y195992D01*
X504388Y195976D01*
X504398Y195968D01*
X504416Y195947D01*
X504553Y195810D01*
X504888Y195231D01*
X505061Y194584D01*
X505061Y194269D01*
X500645Y194269D01*
X500645Y194269D01*
G37*
%LPD*%
%LPC*%
G36*
X27448Y191395D02*
X27448Y191395D01*
X26555Y192288D01*
X26555Y209552D01*
X27448Y210445D01*
X38712Y210445D01*
X39605Y209552D01*
X39605Y192288D01*
X38712Y191395D01*
X27448Y191395D01*
G37*
%LPD*%
%LPC*%
G36*
X379448Y372975D02*
X379448Y372975D01*
X378555Y373868D01*
X378555Y388132D01*
X379448Y389025D01*
X392712Y389025D01*
X393605Y388132D01*
X393605Y373868D01*
X392712Y372975D01*
X379448Y372975D01*
G37*
%LPD*%
%LPC*%
G36*
X359128Y372975D02*
X359128Y372975D01*
X358235Y373868D01*
X358235Y388132D01*
X359128Y389025D01*
X372392Y389025D01*
X373285Y388132D01*
X373285Y373868D01*
X372392Y372975D01*
X359128Y372975D01*
G37*
%LPD*%
%LPC*%
G36*
X328648Y372975D02*
X328648Y372975D01*
X327755Y373868D01*
X327755Y388132D01*
X328648Y389025D01*
X341912Y389025D01*
X342805Y388132D01*
X342805Y373868D01*
X341912Y372975D01*
X328648Y372975D01*
G37*
%LPD*%
%LPC*%
G36*
X308328Y372975D02*
X308328Y372975D01*
X307435Y373868D01*
X307435Y388132D01*
X308328Y389025D01*
X321592Y389025D01*
X322485Y388132D01*
X322485Y373868D01*
X321592Y372975D01*
X308328Y372975D01*
G37*
%LPD*%
%LPC*%
G36*
X461388Y245475D02*
X461388Y245475D01*
X460495Y246368D01*
X460495Y261632D01*
X461388Y262525D01*
X473652Y262525D01*
X474545Y261632D01*
X474545Y246368D01*
X473652Y245475D01*
X461388Y245475D01*
G37*
%LPD*%
%LPC*%
G36*
X359788Y245475D02*
X359788Y245475D01*
X358895Y246368D01*
X358895Y261632D01*
X359788Y262525D01*
X372052Y262525D01*
X372945Y261632D01*
X372945Y246368D01*
X372052Y245475D01*
X359788Y245475D01*
G37*
%LPD*%
%LPC*%
G36*
X379788Y245475D02*
X379788Y245475D01*
X378895Y246368D01*
X378895Y261632D01*
X379788Y262525D01*
X392052Y262525D01*
X392945Y261632D01*
X392945Y246368D01*
X392052Y245475D01*
X379788Y245475D01*
G37*
%LPD*%
%LPC*%
G36*
X410588Y245475D02*
X410588Y245475D01*
X409695Y246368D01*
X409695Y261632D01*
X410588Y262525D01*
X422852Y262525D01*
X423745Y261632D01*
X423745Y246368D01*
X422852Y245475D01*
X410588Y245475D01*
G37*
%LPD*%
%LPC*%
G36*
X430588Y245475D02*
X430588Y245475D01*
X429695Y246368D01*
X429695Y261632D01*
X430588Y262525D01*
X442852Y262525D01*
X443745Y261632D01*
X443745Y246368D01*
X442852Y245475D01*
X430588Y245475D01*
G37*
%LPD*%
%LPC*%
G36*
X481388Y245475D02*
X481388Y245475D01*
X480495Y246368D01*
X480495Y261632D01*
X481388Y262525D01*
X493652Y262525D01*
X494545Y261632D01*
X494545Y246368D01*
X493652Y245475D01*
X481388Y245475D01*
G37*
%LPD*%
%LPC*%
G36*
X100388Y169275D02*
X100388Y169275D01*
X99495Y170168D01*
X99495Y185432D01*
X100388Y186325D01*
X112652Y186325D01*
X113545Y185432D01*
X113545Y170168D01*
X112652Y169275D01*
X100388Y169275D01*
G37*
%LPD*%
%LPC*%
G36*
X131188Y169275D02*
X131188Y169275D01*
X130295Y170168D01*
X130295Y185432D01*
X131188Y186325D01*
X143452Y186325D01*
X144345Y185432D01*
X144345Y170168D01*
X143452Y169275D01*
X131188Y169275D01*
G37*
%LPD*%
%LPC*%
G36*
X80388Y169275D02*
X80388Y169275D01*
X79495Y170168D01*
X79495Y185432D01*
X80388Y186325D01*
X92652Y186325D01*
X93545Y185432D01*
X93545Y170168D01*
X92652Y169275D01*
X80388Y169275D01*
G37*
%LPD*%
%LPC*%
G36*
X151188Y169275D02*
X151188Y169275D01*
X150295Y170168D01*
X150295Y185432D01*
X151188Y186325D01*
X163452Y186325D01*
X164345Y185432D01*
X164345Y170168D01*
X163452Y169275D01*
X151188Y169275D01*
G37*
%LPD*%
%LPC*%
G36*
X278188Y245475D02*
X278188Y245475D01*
X277295Y246368D01*
X277295Y261632D01*
X278188Y262525D01*
X290452Y262525D01*
X291345Y261632D01*
X291345Y246368D01*
X290452Y245475D01*
X278188Y245475D01*
G37*
%LPD*%
%LPC*%
G36*
X496288Y320475D02*
X496288Y320475D01*
X495395Y321368D01*
X495395Y334632D01*
X496288Y335525D01*
X509552Y335525D01*
X510445Y334632D01*
X510445Y321368D01*
X509552Y320475D01*
X496288Y320475D01*
G37*
%LPD*%
%LPC*%
G36*
X127988Y256975D02*
X127988Y256975D01*
X127095Y257868D01*
X127095Y271132D01*
X127988Y272025D01*
X141252Y272025D01*
X142145Y271132D01*
X142145Y257868D01*
X141252Y256975D01*
X127988Y256975D01*
G37*
%LPD*%
%LPC*%
G36*
X496288Y299475D02*
X496288Y299475D01*
X495395Y300368D01*
X495395Y313632D01*
X496288Y314525D01*
X509552Y314525D01*
X510445Y313632D01*
X510445Y300368D01*
X509552Y299475D01*
X496288Y299475D01*
G37*
%LPD*%
%LPC*%
G36*
X178788Y235975D02*
X178788Y235975D01*
X177895Y236868D01*
X177895Y250132D01*
X178788Y251025D01*
X192052Y251025D01*
X192945Y250132D01*
X192945Y236868D01*
X192052Y235975D01*
X178788Y235975D01*
G37*
%LPD*%
%LPC*%
G36*
X476289Y169959D02*
X476289Y169959D01*
X476289Y174875D01*
X476289Y179791D01*
X476604Y179791D01*
X477251Y179618D01*
X477830Y179283D01*
X477967Y179147D01*
X478045Y179086D01*
X478117Y179018D01*
X478170Y178989D01*
X478218Y178952D01*
X478309Y178912D01*
X478395Y178864D01*
X478454Y178849D01*
X478510Y178825D01*
X478607Y178810D01*
X478703Y178785D01*
X478804Y178779D01*
X478824Y178775D01*
X478836Y178777D01*
X478864Y178775D01*
X482055Y178775D01*
X482089Y178757D01*
X482128Y178749D01*
X482165Y178733D01*
X482283Y178714D01*
X482399Y178688D01*
X482440Y178689D01*
X482479Y178683D01*
X482598Y178694D01*
X482717Y178697D01*
X482756Y178709D01*
X482796Y178712D01*
X482908Y178753D01*
X482984Y178775D01*
X487055Y178775D01*
X487089Y178757D01*
X487128Y178749D01*
X487165Y178733D01*
X487283Y178714D01*
X487399Y178688D01*
X487440Y178689D01*
X487479Y178683D01*
X487598Y178694D01*
X487717Y178697D01*
X487756Y178709D01*
X487796Y178712D01*
X487908Y178753D01*
X487984Y178775D01*
X492055Y178775D01*
X492089Y178757D01*
X492128Y178749D01*
X492165Y178733D01*
X492283Y178714D01*
X492399Y178688D01*
X492440Y178689D01*
X492479Y178683D01*
X492598Y178694D01*
X492717Y178697D01*
X492756Y178709D01*
X492796Y178712D01*
X492908Y178753D01*
X492984Y178775D01*
X495356Y178775D01*
X495487Y178791D01*
X495619Y178802D01*
X495644Y178811D01*
X495671Y178815D01*
X495794Y178863D01*
X495919Y178907D01*
X495942Y178922D01*
X495967Y178932D01*
X496074Y179009D01*
X496184Y179083D01*
X496202Y179103D01*
X496224Y179118D01*
X496309Y179220D01*
X496397Y179319D01*
X496410Y179343D01*
X496427Y179363D01*
X496483Y179483D01*
X496545Y179601D01*
X496551Y179627D01*
X496563Y179651D01*
X496587Y179781D01*
X496618Y179910D01*
X496617Y179937D01*
X496622Y179963D01*
X496614Y180095D01*
X496611Y180228D01*
X496604Y180254D01*
X496603Y180281D01*
X496562Y180407D01*
X496526Y180534D01*
X496509Y180569D01*
X496505Y180583D01*
X496493Y180602D01*
X496455Y180679D01*
X496402Y180769D01*
X496229Y181416D01*
X496229Y181731D01*
X500645Y181731D01*
X505061Y181731D01*
X505061Y181416D01*
X504888Y180769D01*
X504553Y180190D01*
X504029Y179665D01*
X504012Y179654D01*
X503980Y179620D01*
X503942Y179591D01*
X503872Y179503D01*
X503796Y179421D01*
X503774Y179379D01*
X503745Y179342D01*
X503699Y179239D01*
X503646Y179140D01*
X503634Y179095D01*
X503615Y179052D01*
X503596Y178941D01*
X503569Y178832D01*
X503570Y178785D01*
X503562Y178738D01*
X503571Y178626D01*
X503572Y178514D01*
X503587Y178443D01*
X503588Y178421D01*
X503594Y178404D01*
X503604Y178356D01*
X503811Y177584D01*
X503811Y176144D01*
X500020Y176144D01*
X499902Y176129D01*
X499783Y176122D01*
X499745Y176110D01*
X499705Y176105D01*
X499594Y176061D01*
X499481Y176024D01*
X499447Y176002D01*
X499409Y175988D01*
X499313Y175918D01*
X499212Y175854D01*
X499212Y175853D01*
X499184Y175824D01*
X499152Y175801D01*
X499152Y175800D01*
X499151Y175800D01*
X499075Y175708D01*
X498994Y175622D01*
X498974Y175586D01*
X498948Y175555D01*
X498898Y175448D01*
X498840Y175343D01*
X498830Y175304D01*
X498813Y175268D01*
X498791Y175151D01*
X498761Y175035D01*
X498757Y174975D01*
X498753Y174955D01*
X498754Y174935D01*
X498751Y174875D01*
X498751Y169959D01*
X498436Y169959D01*
X497789Y170132D01*
X497210Y170467D01*
X497073Y170604D01*
X496995Y170664D01*
X496923Y170732D01*
X496870Y170761D01*
X496822Y170798D01*
X496731Y170838D01*
X496644Y170886D01*
X496586Y170901D01*
X496530Y170925D01*
X496432Y170940D01*
X496337Y170965D01*
X496237Y170971D01*
X496216Y170975D01*
X496204Y170973D01*
X496176Y170975D01*
X492985Y170975D01*
X492951Y170993D01*
X492911Y171001D01*
X492874Y171017D01*
X492757Y171036D01*
X492640Y171062D01*
X492600Y171061D01*
X492560Y171067D01*
X492442Y171056D01*
X492323Y171053D01*
X492284Y171041D01*
X492244Y171038D01*
X492132Y170997D01*
X492056Y170975D01*
X487985Y170975D01*
X487951Y170993D01*
X487911Y171001D01*
X487874Y171017D01*
X487757Y171036D01*
X487640Y171062D01*
X487600Y171061D01*
X487560Y171067D01*
X487442Y171056D01*
X487323Y171053D01*
X487284Y171041D01*
X487244Y171038D01*
X487132Y170997D01*
X487056Y170975D01*
X482985Y170975D01*
X482951Y170993D01*
X482911Y171001D01*
X482874Y171017D01*
X482757Y171036D01*
X482640Y171062D01*
X482600Y171061D01*
X482560Y171067D01*
X482442Y171056D01*
X482323Y171053D01*
X482284Y171041D01*
X482244Y171038D01*
X482132Y170997D01*
X482056Y170975D01*
X478864Y170975D01*
X478766Y170963D01*
X478667Y170960D01*
X478609Y170943D01*
X478549Y170935D01*
X478456Y170899D01*
X478361Y170871D01*
X478309Y170841D01*
X478253Y170818D01*
X478173Y170760D01*
X478087Y170710D01*
X478012Y170644D01*
X477996Y170632D01*
X477988Y170622D01*
X477967Y170603D01*
X477830Y170467D01*
X477251Y170132D01*
X476604Y169959D01*
X476289Y169959D01*
G37*
%LPD*%
%LPC*%
G36*
X265488Y363475D02*
X265488Y363475D01*
X264595Y364368D01*
X264595Y377632D01*
X265488Y378525D01*
X276752Y378525D01*
X277645Y377632D01*
X277645Y364368D01*
X276752Y363475D01*
X265488Y363475D01*
G37*
%LPD*%
%LPC*%
G36*
X246488Y363475D02*
X246488Y363475D01*
X245595Y364368D01*
X245595Y377632D01*
X246488Y378525D01*
X257752Y378525D01*
X258645Y377632D01*
X258645Y364368D01*
X257752Y363475D01*
X246488Y363475D01*
G37*
%LPD*%
%LPC*%
G36*
X182988Y363475D02*
X182988Y363475D01*
X182095Y364368D01*
X182095Y377632D01*
X182988Y378525D01*
X194252Y378525D01*
X195145Y377632D01*
X195145Y364368D01*
X194252Y363475D01*
X182988Y363475D01*
G37*
%LPD*%
%LPC*%
G36*
X201988Y363475D02*
X201988Y363475D01*
X201095Y364368D01*
X201095Y377632D01*
X201988Y378525D01*
X213252Y378525D01*
X214145Y377632D01*
X214145Y364368D01*
X213252Y363475D01*
X201988Y363475D01*
G37*
%LPD*%
%LPC*%
G36*
X192488Y383475D02*
X192488Y383475D01*
X191595Y384368D01*
X191595Y397632D01*
X192488Y398525D01*
X203752Y398525D01*
X204645Y397632D01*
X204645Y384368D01*
X203752Y383475D01*
X192488Y383475D01*
G37*
%LPD*%
%LPC*%
G36*
X255988Y383475D02*
X255988Y383475D01*
X255095Y384368D01*
X255095Y397632D01*
X255988Y398525D01*
X267252Y398525D01*
X268145Y397632D01*
X268145Y384368D01*
X267252Y383475D01*
X255988Y383475D01*
G37*
%LPD*%
%LPC*%
G36*
X454395Y199269D02*
X454395Y199269D01*
X449979Y199269D01*
X449979Y199584D01*
X450152Y200231D01*
X450487Y200810D01*
X450960Y201283D01*
X451611Y201659D01*
X451695Y201723D01*
X451784Y201779D01*
X451821Y201818D01*
X451864Y201851D01*
X451930Y201934D01*
X452002Y202011D01*
X452028Y202058D01*
X452062Y202100D01*
X452105Y202197D01*
X452156Y202289D01*
X452169Y202341D01*
X452191Y202391D01*
X452209Y202495D01*
X452235Y202597D01*
X452240Y202683D01*
X452244Y202704D01*
X452243Y202720D01*
X452245Y202758D01*
X452245Y209132D01*
X453138Y210025D01*
X457055Y210025D01*
X457089Y210007D01*
X457129Y209999D01*
X457166Y209983D01*
X457283Y209964D01*
X457400Y209938D01*
X457440Y209939D01*
X457480Y209933D01*
X457598Y209944D01*
X457717Y209947D01*
X457756Y209959D01*
X457796Y209962D01*
X457908Y210003D01*
X457984Y210025D01*
X462055Y210025D01*
X462089Y210007D01*
X462128Y209999D01*
X462165Y209983D01*
X462283Y209964D01*
X462399Y209938D01*
X462440Y209939D01*
X462479Y209933D01*
X462598Y209944D01*
X462717Y209947D01*
X462756Y209959D01*
X462796Y209962D01*
X462908Y210003D01*
X462984Y210025D01*
X467055Y210025D01*
X467089Y210007D01*
X467129Y209999D01*
X467166Y209983D01*
X467283Y209964D01*
X467400Y209938D01*
X467440Y209939D01*
X467480Y209933D01*
X467598Y209944D01*
X467717Y209947D01*
X467756Y209959D01*
X467796Y209962D01*
X467908Y210003D01*
X467984Y210025D01*
X471176Y210025D01*
X471274Y210037D01*
X471373Y210040D01*
X471431Y210057D01*
X471491Y210065D01*
X471583Y210101D01*
X471679Y210129D01*
X471731Y210159D01*
X471787Y210182D01*
X471867Y210240D01*
X471953Y210290D01*
X472028Y210356D01*
X472044Y210368D01*
X472052Y210378D01*
X472073Y210396D01*
X472210Y210533D01*
X472789Y210868D01*
X473436Y211041D01*
X473751Y211041D01*
X473751Y206125D01*
X473751Y201209D01*
X473436Y201209D01*
X472789Y201382D01*
X472210Y201717D01*
X472073Y201854D01*
X471995Y201914D01*
X471923Y201982D01*
X471870Y202011D01*
X471822Y202048D01*
X471731Y202088D01*
X471644Y202136D01*
X471586Y202151D01*
X471530Y202175D01*
X471432Y202190D01*
X471337Y202215D01*
X471237Y202221D01*
X471216Y202225D01*
X471204Y202223D01*
X471176Y202225D01*
X467985Y202225D01*
X467951Y202243D01*
X467912Y202251D01*
X467875Y202267D01*
X467757Y202286D01*
X467641Y202312D01*
X467600Y202311D01*
X467561Y202317D01*
X467442Y202306D01*
X467323Y202303D01*
X467284Y202291D01*
X467244Y202288D01*
X467132Y202247D01*
X467056Y202225D01*
X462985Y202225D01*
X462951Y202243D01*
X462911Y202251D01*
X462874Y202267D01*
X462757Y202286D01*
X462640Y202312D01*
X462600Y202311D01*
X462560Y202317D01*
X462442Y202306D01*
X462323Y202303D01*
X462284Y202291D01*
X462244Y202288D01*
X462132Y202247D01*
X462056Y202225D01*
X459684Y202225D01*
X459553Y202209D01*
X459421Y202198D01*
X459396Y202189D01*
X459369Y202185D01*
X459246Y202137D01*
X459121Y202093D01*
X459098Y202078D01*
X459073Y202068D01*
X458966Y201991D01*
X458856Y201917D01*
X458838Y201897D01*
X458816Y201882D01*
X458731Y201780D01*
X458643Y201681D01*
X458630Y201657D01*
X458613Y201637D01*
X458557Y201517D01*
X458495Y201399D01*
X458489Y201373D01*
X458477Y201349D01*
X458453Y201219D01*
X458422Y201090D01*
X458423Y201063D01*
X458418Y201037D01*
X458426Y200905D01*
X458429Y200772D01*
X458436Y200746D01*
X458437Y200719D01*
X458478Y200593D01*
X458514Y200466D01*
X458531Y200431D01*
X458535Y200417D01*
X458547Y200398D01*
X458585Y200321D01*
X458638Y200231D01*
X458811Y199584D01*
X458811Y199269D01*
X454395Y199269D01*
X454395Y199269D01*
G37*
%LPD*%
%LPC*%
G36*
X415394Y359458D02*
X415394Y359458D01*
X415394Y367894D01*
X415385Y367964D01*
X415388Y368004D01*
X415392Y368024D01*
X415390Y368044D01*
X415394Y368104D01*
X415394Y376540D01*
X417104Y376540D01*
X417751Y376367D01*
X418330Y376032D01*
X418591Y375771D01*
X418685Y375698D01*
X418774Y375619D01*
X418810Y375601D01*
X418842Y375576D01*
X418951Y375529D01*
X419057Y375475D01*
X419097Y375466D01*
X419134Y375450D01*
X419251Y375431D01*
X419368Y375405D01*
X419408Y375406D01*
X419448Y375400D01*
X419566Y375411D01*
X419686Y375415D01*
X419724Y375426D01*
X419765Y375430D01*
X419877Y375470D01*
X419991Y375503D01*
X420026Y375524D01*
X426902Y375524D01*
X427795Y374631D01*
X427795Y361367D01*
X426902Y360474D01*
X420015Y360474D01*
X419919Y360523D01*
X419880Y360532D01*
X419843Y360548D01*
X419725Y360567D01*
X419609Y360593D01*
X419569Y360592D01*
X419529Y360598D01*
X419410Y360587D01*
X419291Y360583D01*
X419252Y360572D01*
X419212Y360568D01*
X419100Y360528D01*
X418986Y360495D01*
X418951Y360474D01*
X418913Y360461D01*
X418814Y360394D01*
X418712Y360333D01*
X418667Y360293D01*
X418650Y360282D01*
X418636Y360267D01*
X418591Y360227D01*
X418330Y359966D01*
X417751Y359631D01*
X417104Y359458D01*
X415394Y359458D01*
G37*
%LPD*%
%LPC*%
G36*
X410936Y359458D02*
X410936Y359458D01*
X410289Y359631D01*
X409710Y359966D01*
X409449Y360227D01*
X409355Y360300D01*
X409266Y360379D01*
X409230Y360397D01*
X409198Y360422D01*
X409088Y360469D01*
X408982Y360523D01*
X408943Y360532D01*
X408906Y360548D01*
X408788Y360567D01*
X408672Y360593D01*
X408632Y360592D01*
X408592Y360598D01*
X408473Y360587D01*
X408354Y360583D01*
X408315Y360572D01*
X408275Y360568D01*
X408163Y360528D01*
X408049Y360495D01*
X408014Y360474D01*
X401138Y360474D01*
X400245Y361367D01*
X400245Y374631D01*
X401138Y375524D01*
X408025Y375524D01*
X408121Y375475D01*
X408160Y375466D01*
X408197Y375450D01*
X408315Y375431D01*
X408431Y375405D01*
X408471Y375406D01*
X408511Y375400D01*
X408630Y375411D01*
X408749Y375415D01*
X408788Y375426D01*
X408828Y375430D01*
X408940Y375470D01*
X409054Y375503D01*
X409089Y375524D01*
X409127Y375537D01*
X409226Y375604D01*
X409328Y375665D01*
X409373Y375705D01*
X409390Y375716D01*
X409404Y375731D01*
X409449Y375771D01*
X409710Y376032D01*
X410289Y376367D01*
X410936Y376540D01*
X412646Y376540D01*
X412646Y368104D01*
X412655Y368034D01*
X412652Y367994D01*
X412648Y367974D01*
X412650Y367954D01*
X412646Y367894D01*
X412646Y359458D01*
X410936Y359458D01*
G37*
%LPD*%
%LPC*%
G36*
X470138Y375475D02*
X470138Y375475D01*
X469245Y376368D01*
X469245Y385632D01*
X470138Y386525D01*
X484902Y386525D01*
X485795Y385632D01*
X485795Y376368D01*
X484902Y375475D01*
X470138Y375475D01*
G37*
%LPD*%
%LPC*%
G36*
X495538Y375475D02*
X495538Y375475D01*
X494645Y376368D01*
X494645Y385632D01*
X495538Y386525D01*
X510302Y386525D01*
X511195Y385632D01*
X511195Y376368D01*
X510302Y375475D01*
X495538Y375475D01*
G37*
%LPD*%
%LPC*%
G36*
X159188Y363275D02*
X159188Y363275D01*
X158295Y364168D01*
X158295Y372432D01*
X159188Y373325D01*
X172452Y373325D01*
X173345Y372432D01*
X173345Y364168D01*
X172452Y363275D01*
X159188Y363275D01*
G37*
%LPD*%
%LPC*%
G36*
X122188Y363275D02*
X122188Y363275D01*
X121295Y364168D01*
X121295Y372432D01*
X122188Y373325D01*
X135452Y373325D01*
X136345Y372432D01*
X136345Y364168D01*
X135452Y363275D01*
X122188Y363275D01*
G37*
%LPD*%
%LPC*%
G36*
X420138Y386476D02*
X420138Y386476D01*
X419245Y387369D01*
X419245Y400633D01*
X420138Y401526D01*
X426902Y401526D01*
X427795Y400633D01*
X427795Y387369D01*
X426902Y386476D01*
X420138Y386476D01*
G37*
%LPD*%
%LPC*%
G36*
X401138Y386476D02*
X401138Y386476D01*
X400245Y387369D01*
X400245Y400633D01*
X401138Y401526D01*
X407902Y401526D01*
X408795Y400633D01*
X408795Y387369D01*
X407902Y386476D01*
X401138Y386476D01*
G37*
%LPD*%
%LPC*%
G36*
X449059Y320039D02*
X449059Y320039D01*
X449059Y332538D01*
X449500Y332480D01*
X451430Y331963D01*
X453275Y331198D01*
X455005Y330199D01*
X456590Y328983D01*
X458003Y327570D01*
X459219Y325985D01*
X460218Y324255D01*
X460983Y322410D01*
X461500Y320480D01*
X461558Y320039D01*
X449059Y320039D01*
G37*
%LPD*%
%LPC*%
G36*
X431482Y320039D02*
X431482Y320039D01*
X431540Y320480D01*
X432057Y322410D01*
X432822Y324255D01*
X433821Y325985D01*
X435037Y327570D01*
X436450Y328983D01*
X438035Y330199D01*
X439765Y331198D01*
X441610Y331963D01*
X443540Y332480D01*
X443981Y332538D01*
X443981Y320039D01*
X431482Y320039D01*
G37*
%LPD*%
%LPC*%
G36*
X449059Y314961D02*
X449059Y314961D01*
X461558Y314961D01*
X461500Y314520D01*
X460983Y312590D01*
X460218Y310745D01*
X459219Y309015D01*
X458003Y307430D01*
X456590Y306017D01*
X455005Y304801D01*
X453275Y303802D01*
X451430Y303037D01*
X449500Y302520D01*
X449059Y302462D01*
X449059Y314961D01*
G37*
%LPD*%
%LPC*%
G36*
X443540Y302520D02*
X443540Y302520D01*
X441610Y303037D01*
X439765Y303802D01*
X438035Y304801D01*
X436450Y306017D01*
X435037Y307430D01*
X433821Y309015D01*
X432822Y310745D01*
X432057Y312590D01*
X431540Y314520D01*
X431482Y314961D01*
X443981Y314961D01*
X443981Y302462D01*
X443540Y302520D01*
G37*
%LPD*%
%LPC*%
G36*
X378459Y116839D02*
X378459Y116839D01*
X378459Y125985D01*
X378716Y125945D01*
X380503Y125364D01*
X382177Y124511D01*
X383698Y123406D01*
X385026Y122078D01*
X386131Y120557D01*
X386984Y118883D01*
X387565Y117096D01*
X387605Y116839D01*
X378459Y116839D01*
G37*
%LPD*%
%LPC*%
G36*
X364235Y116839D02*
X364235Y116839D01*
X364275Y117096D01*
X364856Y118883D01*
X365709Y120557D01*
X366814Y122078D01*
X368142Y123406D01*
X369663Y124511D01*
X371337Y125364D01*
X373124Y125945D01*
X373381Y125985D01*
X373381Y116839D01*
X364235Y116839D01*
G37*
%LPD*%
%LPC*%
G36*
X378459Y111761D02*
X378459Y111761D01*
X387605Y111761D01*
X387565Y111504D01*
X386984Y109717D01*
X386131Y108043D01*
X385026Y106522D01*
X383698Y105194D01*
X382177Y104089D01*
X380503Y103236D01*
X378716Y102655D01*
X378459Y102615D01*
X378459Y111761D01*
G37*
%LPD*%
%LPC*%
G36*
X373124Y102655D02*
X373124Y102655D01*
X371337Y103236D01*
X369663Y104089D01*
X368142Y105194D01*
X366814Y106522D01*
X365709Y108043D01*
X364856Y109717D01*
X364275Y111504D01*
X364235Y111761D01*
X373381Y111761D01*
X373381Y102615D01*
X373124Y102655D01*
G37*
%LPD*%
%LPC*%
G36*
X500645Y184269D02*
X500645Y184269D01*
X496229Y184269D01*
X496229Y184584D01*
X496402Y185231D01*
X496737Y185810D01*
X496874Y185947D01*
X496934Y186025D01*
X497002Y186097D01*
X497031Y186150D01*
X497068Y186198D01*
X497108Y186289D01*
X497156Y186376D01*
X497171Y186434D01*
X497195Y186490D01*
X497210Y186588D01*
X497235Y186683D01*
X497241Y186783D01*
X497245Y186804D01*
X497243Y186816D01*
X497245Y186844D01*
X497245Y189156D01*
X497233Y189254D01*
X497230Y189353D01*
X497213Y189411D01*
X497205Y189471D01*
X497169Y189563D01*
X497141Y189659D01*
X497111Y189711D01*
X497088Y189767D01*
X497030Y189847D01*
X496980Y189933D01*
X496914Y190008D01*
X496902Y190024D01*
X496892Y190032D01*
X496874Y190053D01*
X496737Y190190D01*
X496402Y190769D01*
X496229Y191416D01*
X496229Y191731D01*
X500645Y191731D01*
X505061Y191731D01*
X505061Y191416D01*
X504888Y190769D01*
X504553Y190190D01*
X504416Y190053D01*
X504356Y189975D01*
X504288Y189903D01*
X504259Y189850D01*
X504222Y189802D01*
X504182Y189711D01*
X504134Y189624D01*
X504119Y189566D01*
X504095Y189510D01*
X504080Y189412D01*
X504055Y189317D01*
X504049Y189217D01*
X504045Y189196D01*
X504047Y189184D01*
X504045Y189156D01*
X504045Y186844D01*
X504057Y186746D01*
X504060Y186647D01*
X504077Y186589D01*
X504085Y186529D01*
X504121Y186437D01*
X504149Y186341D01*
X504179Y186289D01*
X504202Y186233D01*
X504260Y186153D01*
X504310Y186067D01*
X504376Y185992D01*
X504388Y185976D01*
X504398Y185968D01*
X504416Y185947D01*
X504553Y185810D01*
X504888Y185231D01*
X505061Y184584D01*
X505061Y184269D01*
X500645Y184269D01*
X500645Y184269D01*
G37*
%LPD*%
%LPC*%
G36*
X209159Y180339D02*
X209159Y180339D01*
X209159Y187841D01*
X213454Y187841D01*
X214101Y187668D01*
X214680Y187333D01*
X215153Y186860D01*
X215488Y186281D01*
X215661Y185634D01*
X215661Y180339D01*
X209159Y180339D01*
G37*
%LPD*%
%LPC*%
G36*
X222859Y421639D02*
X222859Y421639D01*
X222859Y429141D01*
X227154Y429141D01*
X227801Y428968D01*
X228380Y428633D01*
X228853Y428160D01*
X229188Y427581D01*
X229361Y426934D01*
X229361Y421639D01*
X222859Y421639D01*
G37*
%LPD*%
%LPC*%
G36*
X159359Y421639D02*
X159359Y421639D01*
X159359Y429141D01*
X163654Y429141D01*
X164301Y428968D01*
X164880Y428633D01*
X165353Y428160D01*
X165688Y427581D01*
X165861Y426934D01*
X165861Y421639D01*
X159359Y421639D01*
G37*
%LPD*%
%LPC*%
G36*
X399659Y180339D02*
X399659Y180339D01*
X399659Y187841D01*
X403954Y187841D01*
X404601Y187668D01*
X405180Y187333D01*
X405653Y186860D01*
X405988Y186281D01*
X406161Y185634D01*
X406161Y180339D01*
X399659Y180339D01*
G37*
%LPD*%
%LPC*%
G36*
X336159Y180339D02*
X336159Y180339D01*
X336159Y187841D01*
X340454Y187841D01*
X341101Y187668D01*
X341680Y187333D01*
X342153Y186860D01*
X342488Y186281D01*
X342661Y185634D01*
X342661Y180339D01*
X336159Y180339D01*
G37*
%LPD*%
%LPC*%
G36*
X222859Y447039D02*
X222859Y447039D01*
X222859Y454541D01*
X227154Y454541D01*
X227801Y454368D01*
X228380Y454033D01*
X228853Y453560D01*
X229188Y452981D01*
X229361Y452334D01*
X229361Y447039D01*
X222859Y447039D01*
G37*
%LPD*%
%LPC*%
G36*
X286359Y447039D02*
X286359Y447039D01*
X286359Y454541D01*
X290654Y454541D01*
X291301Y454368D01*
X291880Y454033D01*
X292353Y453560D01*
X292688Y452981D01*
X292861Y452334D01*
X292861Y447039D01*
X286359Y447039D01*
G37*
%LPD*%
%LPC*%
G36*
X399659Y167759D02*
X399659Y167759D01*
X399659Y175261D01*
X406161Y175261D01*
X406161Y169966D01*
X405988Y169319D01*
X405653Y168740D01*
X405180Y168267D01*
X404601Y167932D01*
X403954Y167759D01*
X399659Y167759D01*
G37*
%LPD*%
%LPC*%
G36*
X209159Y167759D02*
X209159Y167759D01*
X209159Y175261D01*
X215661Y175261D01*
X215661Y169966D01*
X215488Y169319D01*
X215153Y168740D01*
X214680Y168267D01*
X214101Y167932D01*
X213454Y167759D01*
X209159Y167759D01*
G37*
%LPD*%
%LPC*%
G36*
X272659Y167759D02*
X272659Y167759D01*
X272659Y175261D01*
X279161Y175261D01*
X279161Y169966D01*
X278988Y169319D01*
X278653Y168740D01*
X278180Y168267D01*
X277601Y167932D01*
X276954Y167759D01*
X272659Y167759D01*
G37*
%LPD*%
%LPC*%
G36*
X159359Y409059D02*
X159359Y409059D01*
X159359Y416561D01*
X165861Y416561D01*
X165861Y411266D01*
X165688Y410619D01*
X165353Y410040D01*
X164880Y409567D01*
X164301Y409232D01*
X163654Y409059D01*
X159359Y409059D01*
G37*
%LPD*%
%LPC*%
G36*
X336159Y167759D02*
X336159Y167759D01*
X336159Y175261D01*
X342661Y175261D01*
X342661Y169966D01*
X342488Y169319D01*
X342153Y168740D01*
X341680Y168267D01*
X341101Y167932D01*
X340454Y167759D01*
X336159Y167759D01*
G37*
%LPD*%
%LPC*%
G36*
X222859Y409059D02*
X222859Y409059D01*
X222859Y416561D01*
X229361Y416561D01*
X229361Y411266D01*
X229188Y410619D01*
X228853Y410040D01*
X228380Y409567D01*
X227801Y409232D01*
X227154Y409059D01*
X222859Y409059D01*
G37*
%LPD*%
%LPC*%
G36*
X222859Y434459D02*
X222859Y434459D01*
X222859Y441961D01*
X229361Y441961D01*
X229361Y436666D01*
X229188Y436019D01*
X228853Y435440D01*
X228380Y434967D01*
X227801Y434632D01*
X227154Y434459D01*
X222859Y434459D01*
G37*
%LPD*%
%LPC*%
G36*
X286359Y434459D02*
X286359Y434459D01*
X286359Y441961D01*
X292861Y441961D01*
X292861Y436666D01*
X292688Y436019D01*
X292353Y435440D01*
X291880Y434967D01*
X291301Y434632D01*
X290654Y434459D01*
X286359Y434459D01*
G37*
%LPD*%
%LPC*%
G36*
X382779Y447039D02*
X382779Y447039D01*
X382779Y452334D01*
X382952Y452981D01*
X383287Y453560D01*
X383760Y454033D01*
X384339Y454368D01*
X384986Y454541D01*
X389281Y454541D01*
X389281Y447039D01*
X382779Y447039D01*
G37*
%LPD*%
%LPC*%
G36*
X319279Y421639D02*
X319279Y421639D01*
X319279Y426934D01*
X319452Y427581D01*
X319787Y428160D01*
X320260Y428633D01*
X320839Y428968D01*
X321486Y429141D01*
X325781Y429141D01*
X325781Y421639D01*
X319279Y421639D01*
G37*
%LPD*%
%LPC*%
G36*
X255779Y421639D02*
X255779Y421639D01*
X255779Y426934D01*
X255952Y427581D01*
X256287Y428160D01*
X256760Y428633D01*
X257339Y428968D01*
X257986Y429141D01*
X262281Y429141D01*
X262281Y421639D01*
X255779Y421639D01*
G37*
%LPD*%
%LPC*%
G36*
X257986Y409059D02*
X257986Y409059D01*
X257339Y409232D01*
X256760Y409567D01*
X256287Y410040D01*
X255952Y410619D01*
X255779Y411266D01*
X255779Y416561D01*
X262281Y416561D01*
X262281Y409059D01*
X257986Y409059D01*
G37*
%LPD*%
%LPC*%
G36*
X321486Y409059D02*
X321486Y409059D01*
X320839Y409232D01*
X320260Y409567D01*
X319787Y410040D01*
X319452Y410619D01*
X319279Y411266D01*
X319279Y416561D01*
X325781Y416561D01*
X325781Y409059D01*
X321486Y409059D01*
G37*
%LPD*%
%LPC*%
G36*
X384986Y434459D02*
X384986Y434459D01*
X384339Y434632D01*
X383760Y434967D01*
X383287Y435440D01*
X382952Y436019D01*
X382779Y436666D01*
X382779Y441961D01*
X389281Y441961D01*
X389281Y434459D01*
X384986Y434459D01*
G37*
%LPD*%
%LPC*%
G36*
X349884Y320039D02*
X349884Y320039D01*
X349884Y327661D01*
X354029Y327661D01*
X354676Y327488D01*
X355255Y327153D01*
X355728Y326680D01*
X356063Y326101D01*
X356236Y325454D01*
X356236Y320039D01*
X349884Y320039D01*
G37*
%LPD*%
%LPC*%
G36*
X90804Y320039D02*
X90804Y320039D01*
X90804Y325454D01*
X90977Y326101D01*
X91312Y326680D01*
X91785Y327153D01*
X92364Y327488D01*
X93011Y327661D01*
X97156Y327661D01*
X97156Y320039D01*
X90804Y320039D01*
G37*
%LPD*%
%LPC*%
G36*
X268604Y320039D02*
X268604Y320039D01*
X268604Y325454D01*
X268777Y326101D01*
X269112Y326680D01*
X269585Y327153D01*
X270164Y327488D01*
X270811Y327661D01*
X274956Y327661D01*
X274956Y320039D01*
X268604Y320039D01*
G37*
%LPD*%
%LPC*%
G36*
X349884Y307339D02*
X349884Y307339D01*
X349884Y314961D01*
X356236Y314961D01*
X356236Y309546D01*
X356063Y308899D01*
X355728Y308320D01*
X355255Y307847D01*
X354676Y307512D01*
X354029Y307339D01*
X349884Y307339D01*
G37*
%LPD*%
%LPC*%
G36*
X93011Y307339D02*
X93011Y307339D01*
X92364Y307512D01*
X91785Y307847D01*
X91312Y308320D01*
X90977Y308899D01*
X90804Y309546D01*
X90804Y314961D01*
X97156Y314961D01*
X97156Y307339D01*
X93011Y307339D01*
G37*
%LPD*%
%LPC*%
G36*
X270811Y307339D02*
X270811Y307339D01*
X270164Y307512D01*
X269585Y307847D01*
X269112Y308320D01*
X268777Y308899D01*
X268604Y309546D01*
X268604Y314961D01*
X274956Y314961D01*
X274956Y307339D01*
X270811Y307339D01*
G37*
%LPD*%
%LPC*%
G36*
X83309Y87629D02*
X83309Y87629D01*
X83309Y100441D01*
X84874Y100441D01*
X85521Y100268D01*
X86100Y99933D01*
X86573Y99460D01*
X86908Y98881D01*
X87081Y98234D01*
X87081Y87629D01*
X83309Y87629D01*
G37*
%LPD*%
%LPC*%
G36*
X456859Y421639D02*
X456859Y421639D01*
X456859Y429141D01*
X460654Y429141D01*
X461301Y428968D01*
X461880Y428633D01*
X462353Y428160D01*
X462688Y427581D01*
X462861Y426934D01*
X462861Y421639D01*
X456859Y421639D01*
G37*
%LPD*%
%LPC*%
G36*
X414359Y421639D02*
X414359Y421639D01*
X414359Y429141D01*
X418154Y429141D01*
X418801Y428968D01*
X419380Y428633D01*
X419853Y428160D01*
X420188Y427581D01*
X420361Y426934D01*
X420361Y421639D01*
X414359Y421639D01*
G37*
%LPD*%
%LPC*%
G36*
X456859Y409059D02*
X456859Y409059D01*
X456859Y416561D01*
X462861Y416561D01*
X462861Y411266D01*
X462688Y410619D01*
X462353Y410040D01*
X461880Y409567D01*
X461301Y409232D01*
X460654Y409059D01*
X456859Y409059D01*
G37*
%LPD*%
%LPC*%
G36*
X414359Y409059D02*
X414359Y409059D01*
X414359Y416561D01*
X420361Y416561D01*
X420361Y411266D01*
X420188Y410619D01*
X419853Y410040D01*
X419380Y409567D01*
X418801Y409232D01*
X418154Y409059D01*
X414359Y409059D01*
G37*
%LPD*%
%LPC*%
G36*
X403279Y421639D02*
X403279Y421639D01*
X403279Y426934D01*
X403452Y427581D01*
X403787Y428160D01*
X404260Y428633D01*
X404839Y428968D01*
X405486Y429141D01*
X409281Y429141D01*
X409281Y421639D01*
X403279Y421639D01*
G37*
%LPD*%
%LPC*%
G36*
X445779Y421639D02*
X445779Y421639D01*
X445779Y426934D01*
X445952Y427581D01*
X446287Y428160D01*
X446760Y428633D01*
X447339Y428968D01*
X447986Y429141D01*
X451781Y429141D01*
X451781Y421639D01*
X445779Y421639D01*
G37*
%LPD*%
%LPC*%
G36*
X447986Y409059D02*
X447986Y409059D01*
X447339Y409232D01*
X446760Y409567D01*
X446287Y410040D01*
X445952Y410619D01*
X445779Y411266D01*
X445779Y416561D01*
X451781Y416561D01*
X451781Y409059D01*
X447986Y409059D01*
G37*
%LPD*%
%LPC*%
G36*
X405486Y409059D02*
X405486Y409059D01*
X404839Y409232D01*
X404260Y409567D01*
X403787Y410040D01*
X403452Y410619D01*
X403279Y411266D01*
X403279Y416561D01*
X409281Y416561D01*
X409281Y409059D01*
X405486Y409059D01*
G37*
%LPD*%
%LPC*%
G36*
X187959Y267039D02*
X187959Y267039D01*
X187959Y273041D01*
X191754Y273041D01*
X192401Y272868D01*
X192980Y272533D01*
X193453Y272060D01*
X193788Y271481D01*
X193961Y270834D01*
X193961Y267039D01*
X187959Y267039D01*
G37*
%LPD*%
%LPC*%
G36*
X176879Y267039D02*
X176879Y267039D01*
X176879Y270834D01*
X177052Y271481D01*
X177387Y272060D01*
X177860Y272533D01*
X178439Y272868D01*
X179086Y273041D01*
X182881Y273041D01*
X182881Y267039D01*
X176879Y267039D01*
G37*
%LPD*%
%LPC*%
G36*
X227679Y267039D02*
X227679Y267039D01*
X227679Y270834D01*
X227852Y271481D01*
X228187Y272060D01*
X228660Y272533D01*
X229239Y272868D01*
X229886Y273041D01*
X233681Y273041D01*
X233681Y267039D01*
X227679Y267039D01*
G37*
%LPD*%
%LPC*%
G36*
X187959Y255959D02*
X187959Y255959D01*
X187959Y261961D01*
X193961Y261961D01*
X193961Y258166D01*
X193788Y257519D01*
X193453Y256940D01*
X192980Y256467D01*
X192401Y256132D01*
X191754Y255959D01*
X187959Y255959D01*
G37*
%LPD*%
%LPC*%
G36*
X229886Y255959D02*
X229886Y255959D01*
X229239Y256132D01*
X228660Y256467D01*
X228187Y256940D01*
X227852Y257519D01*
X227679Y258166D01*
X227679Y261961D01*
X233681Y261961D01*
X233681Y255959D01*
X229886Y255959D01*
G37*
%LPD*%
%LPC*%
G36*
X179086Y255959D02*
X179086Y255959D01*
X178439Y256132D01*
X177860Y256467D01*
X177387Y256940D01*
X177052Y257519D01*
X176879Y258166D01*
X176879Y261961D01*
X182881Y261961D01*
X182881Y255959D01*
X179086Y255959D01*
G37*
%LPD*%
%LPC*%
G36*
X501289Y169959D02*
X501289Y169959D01*
X501289Y173606D01*
X503811Y173606D01*
X503811Y172166D01*
X503638Y171519D01*
X503303Y170940D01*
X502830Y170467D01*
X502251Y170132D01*
X501604Y169959D01*
X501289Y169959D01*
G37*
%LPD*%
%LPC*%
G36*
X375919Y114299D02*
X375919Y114299D01*
X375919Y114301D01*
X375921Y114301D01*
X375921Y114299D01*
X375919Y114299D01*
G37*
%LPD*%
%LPC*%
G36*
X446519Y317499D02*
X446519Y317499D01*
X446519Y317501D01*
X446521Y317501D01*
X446521Y317499D01*
X446519Y317499D01*
G37*
%LPD*%
%LPC*%
G36*
X185419Y264499D02*
X185419Y264499D01*
X185419Y264501D01*
X185421Y264501D01*
X185421Y264499D01*
X185419Y264499D01*
G37*
%LPD*%
%LPC*%
G36*
X454319Y419099D02*
X454319Y419099D01*
X454319Y419101D01*
X454321Y419101D01*
X454321Y419099D01*
X454319Y419099D01*
G37*
%LPD*%
%LPC*%
G36*
X411819Y419099D02*
X411819Y419099D01*
X411819Y419101D01*
X411821Y419101D01*
X411821Y419099D01*
X411819Y419099D01*
G37*
%LPD*%
%LPC*%
G36*
X55879Y273919D02*
X55879Y273919D01*
X55879Y273921D01*
X55881Y273921D01*
X55881Y273919D01*
X55879Y273919D01*
G37*
%LPD*%
D10*
X380120Y177800D03*
X397120Y177800D03*
D11*
X175895Y317500D03*
X194945Y317500D03*
D10*
X391820Y444500D03*
X410820Y444500D03*
X328320Y419100D03*
X347320Y419100D03*
X264820Y419100D03*
X283820Y419100D03*
D12*
X454320Y419100D03*
X475320Y419100D03*
D10*
X201320Y419100D03*
X220320Y419100D03*
D12*
X390820Y419100D03*
X411820Y419100D03*
D11*
X137795Y317500D03*
X156845Y317500D03*
X99695Y317500D03*
X118745Y317500D03*
X328295Y317500D03*
X347345Y317500D03*
D10*
X316620Y177800D03*
X333620Y177800D03*
X253120Y177800D03*
X270120Y177800D03*
D11*
X277495Y317500D03*
X296545Y317500D03*
X226695Y317500D03*
X245745Y317500D03*
D10*
X189620Y177800D03*
X206620Y177800D03*
D13*
X22040Y80720D03*
D14*
X50040Y86360D03*
X58040Y86360D03*
X66040Y86360D03*
X74040Y86360D03*
X82040Y86360D03*
D13*
X22040Y25720D03*
X110040Y80720D03*
X110040Y25720D03*
D15*
X128820Y368300D03*
X165820Y368300D03*
D16*
X477520Y381000D03*
X502920Y381000D03*
D17*
X55880Y273920D03*
D18*
X33080Y200920D03*
X78680Y200920D03*
D19*
X325120Y88900D03*
X325120Y114300D03*
X350520Y88900D03*
X350520Y114300D03*
X375920Y88900D03*
X375920Y114300D03*
D20*
X236220Y264500D03*
X236220Y243500D03*
X185420Y264500D03*
X185420Y243500D03*
X134620Y264500D03*
X134620Y243500D03*
X502920Y328000D03*
X502920Y307000D03*
D21*
X261620Y391000D03*
X271120Y371000D03*
X252120Y371000D03*
X198120Y391000D03*
X207620Y371000D03*
X188620Y371000D03*
D22*
X137320Y177800D03*
X157320Y177800D03*
D10*
X137820Y419100D03*
X156820Y419100D03*
X328320Y444500D03*
X347320Y444500D03*
X74320Y419100D03*
X93320Y419100D03*
D23*
X365760Y381000D03*
X386080Y381000D03*
X314960Y381000D03*
X335280Y381000D03*
D10*
X455320Y444500D03*
X474320Y444500D03*
D22*
X86520Y177800D03*
X106520Y177800D03*
X467520Y254000D03*
X487520Y254000D03*
X416720Y254000D03*
X436720Y254000D03*
X365920Y254000D03*
X385920Y254000D03*
X315120Y254000D03*
X335120Y254000D03*
X264320Y254000D03*
X284320Y254000D03*
D10*
X264820Y444500D03*
X283820Y444500D03*
X201320Y444500D03*
X220320Y444500D03*
D24*
X381520Y317500D03*
X446520Y317500D03*
D25*
X455020Y206125D03*
D26*
X454395Y198000D03*
X454395Y193000D03*
X454395Y188000D03*
X454395Y183000D03*
D25*
X455020Y174875D03*
X460020Y174875D03*
X465020Y174875D03*
X470020Y174875D03*
X475020Y174875D03*
X480020Y174875D03*
X485020Y174875D03*
X490020Y174875D03*
X495020Y174875D03*
X500020Y174875D03*
D26*
X500645Y183000D03*
X500645Y188000D03*
X500645Y193000D03*
X500645Y198000D03*
D25*
X500020Y206125D03*
X495020Y206125D03*
X490020Y206125D03*
X485020Y206125D03*
X480020Y206125D03*
X475020Y206125D03*
X470020Y206125D03*
X465020Y206125D03*
X460020Y206125D03*
D27*
X249682Y269240D03*
X249682Y261366D03*
X249682Y253238D03*
X249682Y245364D03*
X249682Y237236D03*
X249682Y229362D03*
X249682Y221234D03*
X249682Y213360D03*
D28*
X264160Y198882D03*
X272034Y198882D03*
X280162Y198882D03*
X288036Y198882D03*
X296164Y198882D03*
X304038Y198882D03*
X312166Y198882D03*
X320040Y198882D03*
D27*
X334518Y213360D03*
X334518Y221234D03*
X334518Y229362D03*
X334518Y237236D03*
X334518Y245364D03*
X334518Y253238D03*
X334518Y261366D03*
X334518Y269240D03*
D28*
X320040Y283718D03*
X312166Y283718D03*
X304038Y283718D03*
X296164Y283718D03*
X288036Y283718D03*
X280162Y283718D03*
X272034Y283718D03*
X264160Y283718D03*
D29*
X409870Y138160D03*
X416370Y138160D03*
X422870Y138160D03*
X429370Y138160D03*
X435870Y138160D03*
X442370Y138160D03*
X448870Y138160D03*
X461870Y138160D03*
X455370Y138160D03*
X468370Y138160D03*
X474870Y138160D03*
X481370Y138160D03*
X487870Y138160D03*
X494370Y138160D03*
X409870Y65040D03*
X416370Y65040D03*
X422870Y65040D03*
X429370Y65040D03*
X435870Y65040D03*
X442370Y65040D03*
X448870Y65040D03*
X455370Y65040D03*
X461870Y65040D03*
X468370Y65040D03*
X474870Y65040D03*
X481370Y65040D03*
X487870Y65040D03*
X494370Y65040D03*
D30*
X404520Y367999D03*
X414020Y367999D03*
X423520Y367999D03*
X423520Y394001D03*
X404520Y394001D03*
D31*
X223520Y88900D03*
X274320Y88900D03*
D32*
X119820Y72900D03*
X174820Y72900D03*
X174820Y104900D03*
X119820Y104900D03*
D33*
X106940Y200920D02*
X78680Y200920D01*
X106940Y200920D02*
X134620Y228600D01*
X134620Y243500D01*
M02*
