G04 EAGLE Gerber X2 export*
%TF.Part,Single*%
%TF.FileFunction,Other,Silk screen CMP*%
%TF.FilePolarity,Positive*%
%TF.GenerationSoftware,Autodesk,EAGLE,9.0.1*%
%TF.CreationDate,2019-02-15T17:53:46Z*%
G75*
%MOMM*%
%FSLAX34Y34*%
%LPD*%
%AMOC8*
5,1,8,0,0,1.08239X$1,22.5*%
G01*
%ADD10C,0.000000*%
%ADD11C,0.101600*%
%ADD12C,0.152400*%
%ADD13C,0.304800*%
%ADD14C,0.127000*%
%ADD15C,0.025400*%
%ADD16C,0.203200*%
%ADD17R,0.200000X1.000000*%
%ADD18R,0.863600X0.762000*%
%ADD19R,0.200000X0.200000*%
%ADD20R,0.650000X1.400000*%
%ADD21C,0.350000*%
%ADD22C,0.076200*%

G36*
X492265Y377993D02*
X492265Y377993D01*
X492336Y377991D01*
X492405Y378009D01*
X492476Y378018D01*
X492542Y378045D01*
X492611Y378063D01*
X492672Y378100D01*
X492738Y378127D01*
X492794Y378172D01*
X492856Y378209D01*
X492905Y378260D01*
X492960Y378305D01*
X493001Y378364D01*
X493050Y378416D01*
X493083Y378479D01*
X493124Y378537D01*
X493147Y378605D01*
X493180Y378669D01*
X493190Y378728D01*
X493217Y378806D01*
X493223Y378925D01*
X493235Y379000D01*
X493235Y383000D01*
X493225Y383071D01*
X493225Y383143D01*
X493205Y383211D01*
X493195Y383282D01*
X493166Y383347D01*
X493146Y383416D01*
X493108Y383476D01*
X493079Y383541D01*
X493033Y383596D01*
X492995Y383656D01*
X492942Y383704D01*
X492896Y383758D01*
X492836Y383798D01*
X492782Y383845D01*
X492718Y383876D01*
X492659Y383916D01*
X492591Y383937D01*
X492526Y383968D01*
X492456Y383980D01*
X492388Y384001D01*
X492316Y384003D01*
X492246Y384015D01*
X492175Y384007D01*
X492104Y384009D01*
X492034Y383990D01*
X491963Y383982D01*
X491908Y383957D01*
X491829Y383937D01*
X491726Y383876D01*
X491657Y383845D01*
X488657Y381845D01*
X488570Y381768D01*
X488480Y381695D01*
X488465Y381673D01*
X488445Y381655D01*
X488383Y381558D01*
X488316Y381463D01*
X488308Y381437D01*
X488293Y381415D01*
X488261Y381304D01*
X488223Y381194D01*
X488222Y381167D01*
X488215Y381142D01*
X488215Y381026D01*
X488209Y380910D01*
X488215Y380884D01*
X488215Y380857D01*
X488247Y380746D01*
X488273Y380633D01*
X488286Y380610D01*
X488294Y380584D01*
X488356Y380486D01*
X488412Y380385D01*
X488430Y380369D01*
X488445Y380344D01*
X488653Y380159D01*
X488657Y380155D01*
X491657Y378155D01*
X491721Y378124D01*
X491781Y378085D01*
X491849Y378063D01*
X491913Y378032D01*
X491984Y378020D01*
X492052Y377999D01*
X492123Y377997D01*
X492194Y377985D01*
X492265Y377993D01*
G37*
D10*
X0Y0D02*
X584000Y0D01*
X584000Y479300D01*
X0Y479300D01*
X0Y0D01*
D11*
X382834Y188468D02*
X385431Y188468D01*
X382834Y188468D02*
X382735Y188470D01*
X382635Y188476D01*
X382536Y188485D01*
X382438Y188498D01*
X382340Y188515D01*
X382242Y188536D01*
X382146Y188561D01*
X382051Y188589D01*
X381957Y188621D01*
X381864Y188656D01*
X381772Y188695D01*
X381682Y188738D01*
X381594Y188783D01*
X381507Y188833D01*
X381423Y188885D01*
X381340Y188941D01*
X381260Y188999D01*
X381182Y189061D01*
X381107Y189126D01*
X381034Y189194D01*
X380964Y189264D01*
X380896Y189337D01*
X380831Y189412D01*
X380769Y189490D01*
X380711Y189570D01*
X380655Y189653D01*
X380603Y189737D01*
X380553Y189824D01*
X380508Y189912D01*
X380465Y190002D01*
X380426Y190094D01*
X380391Y190187D01*
X380359Y190281D01*
X380331Y190376D01*
X380306Y190472D01*
X380285Y190570D01*
X380268Y190668D01*
X380255Y190766D01*
X380246Y190865D01*
X380240Y190965D01*
X380238Y191064D01*
X380238Y197556D01*
X380240Y197655D01*
X380246Y197755D01*
X380255Y197854D01*
X380268Y197952D01*
X380285Y198050D01*
X380306Y198148D01*
X380331Y198244D01*
X380359Y198339D01*
X380391Y198433D01*
X380426Y198526D01*
X380465Y198618D01*
X380508Y198708D01*
X380553Y198796D01*
X380603Y198883D01*
X380655Y198967D01*
X380711Y199050D01*
X380769Y199130D01*
X380831Y199208D01*
X380896Y199283D01*
X380964Y199356D01*
X381034Y199426D01*
X381107Y199494D01*
X381182Y199559D01*
X381260Y199621D01*
X381340Y199679D01*
X381423Y199735D01*
X381507Y199787D01*
X381594Y199837D01*
X381682Y199882D01*
X381772Y199925D01*
X381864Y199964D01*
X381956Y199999D01*
X382051Y200031D01*
X382146Y200059D01*
X382242Y200084D01*
X382340Y200105D01*
X382438Y200122D01*
X382536Y200135D01*
X382635Y200144D01*
X382735Y200150D01*
X382834Y200152D01*
X385431Y200152D01*
X389796Y197556D02*
X393042Y200152D01*
X393042Y188468D01*
X396287Y188468D02*
X389796Y188468D01*
D12*
X180495Y327787D02*
X178576Y327787D01*
X178490Y327789D01*
X178404Y327795D01*
X178318Y327804D01*
X178233Y327818D01*
X178149Y327835D01*
X178065Y327856D01*
X177983Y327881D01*
X177902Y327909D01*
X177822Y327941D01*
X177743Y327977D01*
X177667Y328016D01*
X177592Y328059D01*
X177519Y328104D01*
X177448Y328153D01*
X177380Y328206D01*
X177313Y328261D01*
X177250Y328319D01*
X177189Y328380D01*
X177131Y328443D01*
X177076Y328510D01*
X177023Y328578D01*
X176974Y328649D01*
X176929Y328722D01*
X176886Y328797D01*
X176847Y328873D01*
X176811Y328952D01*
X176779Y329032D01*
X176751Y329113D01*
X176726Y329195D01*
X176705Y329279D01*
X176688Y329363D01*
X176674Y329448D01*
X176665Y329534D01*
X176659Y329620D01*
X176657Y329706D01*
X176657Y334504D01*
X176659Y334590D01*
X176665Y334676D01*
X176674Y334762D01*
X176688Y334847D01*
X176705Y334931D01*
X176726Y335015D01*
X176751Y335097D01*
X176779Y335178D01*
X176811Y335258D01*
X176847Y335337D01*
X176886Y335413D01*
X176929Y335488D01*
X176974Y335561D01*
X177023Y335632D01*
X177076Y335700D01*
X177131Y335767D01*
X177189Y335830D01*
X177250Y335891D01*
X177313Y335949D01*
X177380Y336004D01*
X177448Y336056D01*
X177519Y336106D01*
X177592Y336151D01*
X177667Y336194D01*
X177743Y336233D01*
X177822Y336269D01*
X177902Y336301D01*
X177983Y336329D01*
X178065Y336354D01*
X178149Y336375D01*
X178233Y336392D01*
X178318Y336406D01*
X178404Y336415D01*
X178490Y336421D01*
X178576Y336423D01*
X180495Y336423D01*
X184315Y334504D02*
X186714Y336423D01*
X186714Y327787D01*
X184315Y327787D02*
X189113Y327787D01*
X193459Y332105D02*
X193461Y332275D01*
X193467Y332445D01*
X193477Y332614D01*
X193491Y332784D01*
X193510Y332953D01*
X193532Y333121D01*
X193558Y333289D01*
X193588Y333456D01*
X193623Y333622D01*
X193661Y333788D01*
X193703Y333953D01*
X193749Y334116D01*
X193799Y334279D01*
X193853Y334440D01*
X193910Y334600D01*
X193972Y334758D01*
X194037Y334915D01*
X194106Y335070D01*
X194179Y335224D01*
X194207Y335300D01*
X194239Y335375D01*
X194274Y335449D01*
X194312Y335521D01*
X194354Y335591D01*
X194399Y335659D01*
X194447Y335725D01*
X194498Y335789D01*
X194552Y335850D01*
X194608Y335909D01*
X194668Y335965D01*
X194729Y336018D01*
X194793Y336068D01*
X194860Y336116D01*
X194928Y336160D01*
X194999Y336201D01*
X195071Y336239D01*
X195145Y336273D01*
X195220Y336304D01*
X195297Y336332D01*
X195375Y336356D01*
X195454Y336376D01*
X195534Y336393D01*
X195614Y336406D01*
X195695Y336416D01*
X195776Y336421D01*
X195858Y336423D01*
X195940Y336421D01*
X196021Y336416D01*
X196102Y336406D01*
X196182Y336393D01*
X196262Y336376D01*
X196341Y336356D01*
X196419Y336332D01*
X196496Y336304D01*
X196571Y336273D01*
X196645Y336239D01*
X196717Y336201D01*
X196788Y336160D01*
X196856Y336116D01*
X196923Y336068D01*
X196987Y336018D01*
X197048Y335965D01*
X197108Y335909D01*
X197164Y335850D01*
X197218Y335789D01*
X197269Y335725D01*
X197317Y335659D01*
X197362Y335591D01*
X197404Y335521D01*
X197442Y335449D01*
X197477Y335375D01*
X197509Y335300D01*
X197537Y335224D01*
X197610Y335070D01*
X197679Y334915D01*
X197744Y334758D01*
X197806Y334600D01*
X197863Y334440D01*
X197917Y334279D01*
X197967Y334116D01*
X198013Y333953D01*
X198055Y333788D01*
X198093Y333622D01*
X198128Y333456D01*
X198158Y333289D01*
X198184Y333121D01*
X198206Y332953D01*
X198225Y332784D01*
X198239Y332614D01*
X198249Y332445D01*
X198255Y332275D01*
X198257Y332105D01*
X193459Y332105D02*
X193461Y331935D01*
X193467Y331765D01*
X193477Y331596D01*
X193491Y331426D01*
X193510Y331257D01*
X193532Y331089D01*
X193558Y330921D01*
X193588Y330754D01*
X193623Y330588D01*
X193661Y330422D01*
X193703Y330257D01*
X193749Y330094D01*
X193799Y329932D01*
X193853Y329770D01*
X193910Y329611D01*
X193972Y329452D01*
X194037Y329295D01*
X194106Y329140D01*
X194179Y328986D01*
X194207Y328910D01*
X194239Y328835D01*
X194274Y328761D01*
X194312Y328689D01*
X194354Y328619D01*
X194399Y328551D01*
X194447Y328485D01*
X194498Y328421D01*
X194552Y328360D01*
X194608Y328301D01*
X194668Y328245D01*
X194729Y328192D01*
X194793Y328142D01*
X194860Y328094D01*
X194928Y328050D01*
X194999Y328009D01*
X195071Y327971D01*
X195145Y327937D01*
X195220Y327906D01*
X195297Y327878D01*
X195375Y327854D01*
X195454Y327834D01*
X195534Y327817D01*
X195614Y327804D01*
X195695Y327794D01*
X195776Y327789D01*
X195858Y327787D01*
X197537Y328986D02*
X197610Y329140D01*
X197679Y329295D01*
X197744Y329452D01*
X197806Y329611D01*
X197863Y329770D01*
X197917Y329932D01*
X197967Y330094D01*
X198013Y330257D01*
X198055Y330422D01*
X198093Y330588D01*
X198128Y330754D01*
X198158Y330921D01*
X198184Y331089D01*
X198206Y331257D01*
X198225Y331426D01*
X198239Y331596D01*
X198249Y331765D01*
X198255Y331935D01*
X198257Y332105D01*
X197537Y328986D02*
X197509Y328910D01*
X197477Y328835D01*
X197442Y328761D01*
X197404Y328689D01*
X197362Y328619D01*
X197317Y328551D01*
X197269Y328485D01*
X197218Y328421D01*
X197164Y328360D01*
X197108Y328301D01*
X197048Y328245D01*
X196987Y328192D01*
X196923Y328142D01*
X196856Y328094D01*
X196788Y328050D01*
X196717Y328009D01*
X196645Y327971D01*
X196571Y327937D01*
X196496Y327906D01*
X196419Y327878D01*
X196341Y327854D01*
X196262Y327834D01*
X196182Y327817D01*
X196102Y327804D01*
X196021Y327794D01*
X195940Y327789D01*
X195858Y327787D01*
X193939Y329706D02*
X197777Y334504D01*
X423870Y443992D02*
X425337Y443992D01*
X423870Y443992D02*
X423796Y443994D01*
X423721Y444000D01*
X423648Y444009D01*
X423574Y444022D01*
X423502Y444039D01*
X423431Y444059D01*
X423360Y444083D01*
X423291Y444111D01*
X423224Y444142D01*
X423158Y444176D01*
X423093Y444214D01*
X423031Y444255D01*
X422971Y444299D01*
X422914Y444346D01*
X422859Y444396D01*
X422806Y444449D01*
X422756Y444504D01*
X422709Y444561D01*
X422665Y444621D01*
X422624Y444683D01*
X422586Y444748D01*
X422552Y444814D01*
X422521Y444881D01*
X422493Y444950D01*
X422469Y445021D01*
X422449Y445092D01*
X422432Y445164D01*
X422419Y445238D01*
X422410Y445311D01*
X422404Y445386D01*
X422402Y445460D01*
X422402Y449128D01*
X422404Y449202D01*
X422410Y449277D01*
X422419Y449350D01*
X422432Y449424D01*
X422449Y449496D01*
X422469Y449567D01*
X422493Y449638D01*
X422521Y449707D01*
X422552Y449774D01*
X422586Y449840D01*
X422624Y449905D01*
X422665Y449967D01*
X422709Y450027D01*
X422756Y450084D01*
X422806Y450139D01*
X422859Y450192D01*
X422914Y450242D01*
X422971Y450289D01*
X423031Y450333D01*
X423093Y450374D01*
X423158Y450412D01*
X423223Y450446D01*
X423291Y450477D01*
X423360Y450505D01*
X423431Y450529D01*
X423502Y450549D01*
X423574Y450566D01*
X423648Y450579D01*
X423721Y450588D01*
X423796Y450594D01*
X423870Y450596D01*
X425337Y450596D01*
X428534Y449128D02*
X430368Y450596D01*
X430368Y443992D01*
X428534Y443992D02*
X432202Y443992D01*
X435849Y449128D02*
X437683Y450596D01*
X437683Y443992D01*
X435849Y443992D02*
X439518Y443992D01*
D13*
X401320Y439420D02*
X401320Y449580D01*
D12*
X361837Y418592D02*
X360370Y418592D01*
X360296Y418594D01*
X360221Y418600D01*
X360148Y418609D01*
X360074Y418622D01*
X360002Y418639D01*
X359931Y418659D01*
X359860Y418683D01*
X359791Y418711D01*
X359724Y418742D01*
X359658Y418776D01*
X359593Y418814D01*
X359531Y418855D01*
X359471Y418899D01*
X359414Y418946D01*
X359359Y418996D01*
X359306Y419049D01*
X359256Y419104D01*
X359209Y419161D01*
X359165Y419221D01*
X359124Y419283D01*
X359086Y419348D01*
X359052Y419414D01*
X359021Y419481D01*
X358993Y419550D01*
X358969Y419621D01*
X358949Y419692D01*
X358932Y419764D01*
X358919Y419838D01*
X358910Y419911D01*
X358904Y419986D01*
X358902Y420060D01*
X358902Y423728D01*
X358904Y423802D01*
X358910Y423877D01*
X358919Y423950D01*
X358932Y424024D01*
X358949Y424096D01*
X358969Y424167D01*
X358993Y424238D01*
X359021Y424307D01*
X359052Y424374D01*
X359086Y424440D01*
X359124Y424505D01*
X359165Y424567D01*
X359209Y424627D01*
X359256Y424684D01*
X359306Y424739D01*
X359359Y424792D01*
X359414Y424842D01*
X359471Y424889D01*
X359531Y424933D01*
X359593Y424974D01*
X359658Y425012D01*
X359723Y425046D01*
X359791Y425077D01*
X359860Y425105D01*
X359931Y425129D01*
X360002Y425149D01*
X360074Y425166D01*
X360148Y425179D01*
X360221Y425188D01*
X360296Y425194D01*
X360370Y425196D01*
X361837Y425196D01*
X365034Y423728D02*
X366868Y425196D01*
X366868Y418592D01*
X365034Y418592D02*
X368702Y418592D01*
X374367Y425196D02*
X374446Y425194D01*
X374524Y425189D01*
X374602Y425179D01*
X374679Y425166D01*
X374756Y425149D01*
X374832Y425129D01*
X374907Y425105D01*
X374981Y425078D01*
X375053Y425047D01*
X375124Y425012D01*
X375193Y424975D01*
X375260Y424934D01*
X375325Y424890D01*
X375388Y424843D01*
X375448Y424793D01*
X375506Y424740D01*
X375562Y424684D01*
X375615Y424626D01*
X375665Y424566D01*
X375712Y424503D01*
X375756Y424438D01*
X375797Y424371D01*
X375834Y424302D01*
X375869Y424231D01*
X375900Y424159D01*
X375927Y424085D01*
X375951Y424010D01*
X375971Y423934D01*
X375988Y423857D01*
X376001Y423780D01*
X376011Y423702D01*
X376016Y423624D01*
X376018Y423545D01*
X374367Y425196D02*
X374278Y425194D01*
X374189Y425189D01*
X374101Y425179D01*
X374013Y425166D01*
X373926Y425150D01*
X373839Y425129D01*
X373754Y425105D01*
X373669Y425078D01*
X373586Y425047D01*
X373504Y425012D01*
X373423Y424974D01*
X373344Y424933D01*
X373268Y424889D01*
X373192Y424841D01*
X373119Y424790D01*
X373049Y424737D01*
X372980Y424680D01*
X372914Y424620D01*
X372851Y424558D01*
X372790Y424493D01*
X372732Y424426D01*
X372677Y424356D01*
X372624Y424284D01*
X372575Y424210D01*
X372529Y424134D01*
X372487Y424056D01*
X372447Y423976D01*
X372411Y423895D01*
X372378Y423812D01*
X372349Y423728D01*
X375467Y422261D02*
X375523Y422317D01*
X375577Y422376D01*
X375628Y422437D01*
X375677Y422501D01*
X375722Y422566D01*
X375765Y422634D01*
X375804Y422703D01*
X375841Y422774D01*
X375874Y422847D01*
X375903Y422921D01*
X375930Y422996D01*
X375953Y423072D01*
X375972Y423150D01*
X375988Y423228D01*
X376001Y423306D01*
X376010Y423386D01*
X376015Y423465D01*
X376017Y423545D01*
X375467Y422261D02*
X372349Y418592D01*
X376018Y418592D01*
D13*
X337820Y414020D02*
X337820Y424180D01*
D12*
X298337Y418592D02*
X296870Y418592D01*
X296796Y418594D01*
X296721Y418600D01*
X296648Y418609D01*
X296574Y418622D01*
X296502Y418639D01*
X296431Y418659D01*
X296360Y418683D01*
X296291Y418711D01*
X296224Y418742D01*
X296158Y418776D01*
X296093Y418814D01*
X296031Y418855D01*
X295971Y418899D01*
X295914Y418946D01*
X295859Y418996D01*
X295806Y419049D01*
X295756Y419104D01*
X295709Y419161D01*
X295665Y419221D01*
X295624Y419283D01*
X295586Y419348D01*
X295552Y419414D01*
X295521Y419481D01*
X295493Y419550D01*
X295469Y419621D01*
X295449Y419692D01*
X295432Y419764D01*
X295419Y419838D01*
X295410Y419911D01*
X295404Y419986D01*
X295402Y420060D01*
X295402Y423728D01*
X295404Y423802D01*
X295410Y423877D01*
X295419Y423950D01*
X295432Y424024D01*
X295449Y424096D01*
X295469Y424167D01*
X295493Y424238D01*
X295521Y424307D01*
X295552Y424374D01*
X295586Y424440D01*
X295624Y424505D01*
X295665Y424567D01*
X295709Y424627D01*
X295756Y424684D01*
X295806Y424739D01*
X295859Y424792D01*
X295914Y424842D01*
X295971Y424889D01*
X296031Y424933D01*
X296093Y424974D01*
X296158Y425012D01*
X296223Y425046D01*
X296291Y425077D01*
X296360Y425105D01*
X296431Y425129D01*
X296502Y425149D01*
X296574Y425166D01*
X296648Y425179D01*
X296721Y425188D01*
X296796Y425194D01*
X296870Y425196D01*
X298337Y425196D01*
X301534Y423728D02*
X303368Y425196D01*
X303368Y418592D01*
X301534Y418592D02*
X305202Y418592D01*
X308849Y418592D02*
X310683Y418592D01*
X310768Y418594D01*
X310852Y418600D01*
X310936Y418610D01*
X311020Y418623D01*
X311103Y418641D01*
X311185Y418662D01*
X311266Y418687D01*
X311346Y418716D01*
X311424Y418748D01*
X311500Y418784D01*
X311575Y418824D01*
X311648Y418867D01*
X311719Y418913D01*
X311788Y418962D01*
X311855Y419015D01*
X311919Y419071D01*
X311980Y419129D01*
X312038Y419190D01*
X312094Y419254D01*
X312147Y419321D01*
X312196Y419390D01*
X312242Y419461D01*
X312285Y419534D01*
X312325Y419609D01*
X312361Y419685D01*
X312393Y419763D01*
X312422Y419843D01*
X312447Y419924D01*
X312468Y420006D01*
X312486Y420089D01*
X312499Y420173D01*
X312509Y420257D01*
X312515Y420341D01*
X312517Y420426D01*
X312515Y420511D01*
X312509Y420595D01*
X312499Y420679D01*
X312486Y420763D01*
X312468Y420846D01*
X312447Y420928D01*
X312422Y421009D01*
X312393Y421089D01*
X312361Y421167D01*
X312325Y421243D01*
X312285Y421318D01*
X312242Y421391D01*
X312196Y421462D01*
X312147Y421531D01*
X312094Y421598D01*
X312038Y421662D01*
X311980Y421723D01*
X311919Y421781D01*
X311855Y421837D01*
X311788Y421890D01*
X311719Y421939D01*
X311648Y421985D01*
X311575Y422028D01*
X311500Y422068D01*
X311424Y422104D01*
X311346Y422136D01*
X311266Y422165D01*
X311185Y422190D01*
X311103Y422211D01*
X311020Y422229D01*
X310936Y422242D01*
X310852Y422252D01*
X310768Y422258D01*
X310683Y422260D01*
X311050Y425196D02*
X308849Y425196D01*
X311050Y425196D02*
X311126Y425194D01*
X311201Y425188D01*
X311276Y425179D01*
X311350Y425165D01*
X311424Y425148D01*
X311496Y425126D01*
X311568Y425102D01*
X311638Y425073D01*
X311706Y425041D01*
X311773Y425006D01*
X311838Y424967D01*
X311901Y424924D01*
X311961Y424879D01*
X312019Y424831D01*
X312075Y424779D01*
X312127Y424725D01*
X312177Y424668D01*
X312224Y424609D01*
X312268Y424548D01*
X312309Y424484D01*
X312346Y424418D01*
X312380Y424350D01*
X312410Y424281D01*
X312437Y424210D01*
X312460Y424138D01*
X312479Y424065D01*
X312494Y423991D01*
X312506Y423916D01*
X312514Y423841D01*
X312518Y423766D01*
X312518Y423690D01*
X312514Y423615D01*
X312506Y423540D01*
X312494Y423465D01*
X312479Y423391D01*
X312460Y423318D01*
X312437Y423246D01*
X312410Y423175D01*
X312380Y423106D01*
X312346Y423038D01*
X312309Y422972D01*
X312268Y422908D01*
X312224Y422847D01*
X312177Y422788D01*
X312127Y422731D01*
X312075Y422677D01*
X312019Y422625D01*
X311961Y422577D01*
X311901Y422532D01*
X311838Y422489D01*
X311773Y422450D01*
X311706Y422415D01*
X311638Y422383D01*
X311568Y422354D01*
X311496Y422330D01*
X311424Y422308D01*
X311350Y422291D01*
X311276Y422277D01*
X311201Y422268D01*
X311126Y422262D01*
X311050Y422260D01*
X311050Y422261D02*
X309582Y422261D01*
D13*
X274320Y424180D02*
X274320Y414020D01*
D12*
X487370Y418592D02*
X488837Y418592D01*
X487370Y418592D02*
X487296Y418594D01*
X487221Y418600D01*
X487148Y418609D01*
X487074Y418622D01*
X487002Y418639D01*
X486931Y418659D01*
X486860Y418683D01*
X486791Y418711D01*
X486724Y418742D01*
X486658Y418776D01*
X486593Y418814D01*
X486531Y418855D01*
X486471Y418899D01*
X486414Y418946D01*
X486359Y418996D01*
X486306Y419049D01*
X486256Y419104D01*
X486209Y419161D01*
X486165Y419221D01*
X486124Y419283D01*
X486086Y419348D01*
X486052Y419414D01*
X486021Y419481D01*
X485993Y419550D01*
X485969Y419621D01*
X485949Y419692D01*
X485932Y419764D01*
X485919Y419838D01*
X485910Y419911D01*
X485904Y419986D01*
X485902Y420060D01*
X485902Y423728D01*
X485904Y423802D01*
X485910Y423877D01*
X485919Y423950D01*
X485932Y424024D01*
X485949Y424096D01*
X485969Y424167D01*
X485993Y424238D01*
X486021Y424307D01*
X486052Y424374D01*
X486086Y424440D01*
X486124Y424505D01*
X486165Y424567D01*
X486209Y424627D01*
X486256Y424684D01*
X486306Y424739D01*
X486359Y424792D01*
X486414Y424842D01*
X486471Y424889D01*
X486531Y424933D01*
X486593Y424974D01*
X486658Y425012D01*
X486723Y425046D01*
X486791Y425077D01*
X486860Y425105D01*
X486931Y425129D01*
X487002Y425149D01*
X487074Y425166D01*
X487148Y425179D01*
X487221Y425188D01*
X487296Y425194D01*
X487370Y425196D01*
X488837Y425196D01*
X492034Y423728D02*
X493868Y425196D01*
X493868Y418592D01*
X492034Y418592D02*
X495702Y418592D01*
X499349Y420060D02*
X500816Y425196D01*
X499349Y420060D02*
X503018Y420060D01*
X501917Y421527D02*
X501917Y418592D01*
D13*
X464820Y414020D02*
X464820Y424180D01*
D12*
X234837Y418592D02*
X233370Y418592D01*
X233296Y418594D01*
X233221Y418600D01*
X233148Y418609D01*
X233074Y418622D01*
X233002Y418639D01*
X232931Y418659D01*
X232860Y418683D01*
X232791Y418711D01*
X232724Y418742D01*
X232658Y418776D01*
X232593Y418814D01*
X232531Y418855D01*
X232471Y418899D01*
X232414Y418946D01*
X232359Y418996D01*
X232306Y419049D01*
X232256Y419104D01*
X232209Y419161D01*
X232165Y419221D01*
X232124Y419283D01*
X232086Y419348D01*
X232052Y419414D01*
X232021Y419481D01*
X231993Y419550D01*
X231969Y419621D01*
X231949Y419692D01*
X231932Y419764D01*
X231919Y419838D01*
X231910Y419911D01*
X231904Y419986D01*
X231902Y420060D01*
X231902Y423728D01*
X231904Y423802D01*
X231910Y423877D01*
X231919Y423950D01*
X231932Y424024D01*
X231949Y424096D01*
X231969Y424167D01*
X231993Y424238D01*
X232021Y424307D01*
X232052Y424374D01*
X232086Y424440D01*
X232124Y424505D01*
X232165Y424567D01*
X232209Y424627D01*
X232256Y424684D01*
X232306Y424739D01*
X232359Y424792D01*
X232414Y424842D01*
X232471Y424889D01*
X232531Y424933D01*
X232593Y424974D01*
X232658Y425012D01*
X232723Y425046D01*
X232791Y425077D01*
X232860Y425105D01*
X232931Y425129D01*
X233002Y425149D01*
X233074Y425166D01*
X233148Y425179D01*
X233221Y425188D01*
X233296Y425194D01*
X233370Y425196D01*
X234837Y425196D01*
X238034Y423728D02*
X239868Y425196D01*
X239868Y418592D01*
X238034Y418592D02*
X241702Y418592D01*
X245349Y418592D02*
X247550Y418592D01*
X247624Y418594D01*
X247699Y418600D01*
X247772Y418609D01*
X247846Y418622D01*
X247918Y418639D01*
X247989Y418659D01*
X248060Y418683D01*
X248129Y418711D01*
X248196Y418742D01*
X248262Y418776D01*
X248327Y418814D01*
X248389Y418855D01*
X248449Y418899D01*
X248506Y418946D01*
X248561Y418996D01*
X248614Y419049D01*
X248664Y419104D01*
X248711Y419161D01*
X248755Y419221D01*
X248796Y419283D01*
X248834Y419348D01*
X248868Y419413D01*
X248899Y419481D01*
X248927Y419550D01*
X248951Y419621D01*
X248971Y419692D01*
X248988Y419764D01*
X249001Y419838D01*
X249010Y419911D01*
X249016Y419986D01*
X249018Y420060D01*
X249018Y420793D01*
X249016Y420867D01*
X249010Y420942D01*
X249001Y421015D01*
X248988Y421089D01*
X248971Y421161D01*
X248951Y421232D01*
X248927Y421303D01*
X248899Y421372D01*
X248868Y421439D01*
X248834Y421505D01*
X248796Y421570D01*
X248755Y421632D01*
X248711Y421692D01*
X248664Y421749D01*
X248614Y421804D01*
X248561Y421857D01*
X248506Y421907D01*
X248449Y421954D01*
X248389Y421998D01*
X248327Y422039D01*
X248262Y422077D01*
X248196Y422111D01*
X248129Y422142D01*
X248060Y422170D01*
X247989Y422194D01*
X247918Y422214D01*
X247846Y422231D01*
X247772Y422244D01*
X247699Y422253D01*
X247624Y422259D01*
X247550Y422261D01*
X245349Y422261D01*
X245349Y425196D01*
X249018Y425196D01*
D13*
X210820Y424180D02*
X210820Y414020D01*
D12*
X423870Y418592D02*
X425337Y418592D01*
X423870Y418592D02*
X423796Y418594D01*
X423721Y418600D01*
X423648Y418609D01*
X423574Y418622D01*
X423502Y418639D01*
X423431Y418659D01*
X423360Y418683D01*
X423291Y418711D01*
X423224Y418742D01*
X423158Y418776D01*
X423093Y418814D01*
X423031Y418855D01*
X422971Y418899D01*
X422914Y418946D01*
X422859Y418996D01*
X422806Y419049D01*
X422756Y419104D01*
X422709Y419161D01*
X422665Y419221D01*
X422624Y419283D01*
X422586Y419348D01*
X422552Y419414D01*
X422521Y419481D01*
X422493Y419550D01*
X422469Y419621D01*
X422449Y419692D01*
X422432Y419764D01*
X422419Y419838D01*
X422410Y419911D01*
X422404Y419986D01*
X422402Y420060D01*
X422402Y423728D01*
X422404Y423802D01*
X422410Y423877D01*
X422419Y423950D01*
X422432Y424024D01*
X422449Y424096D01*
X422469Y424167D01*
X422493Y424238D01*
X422521Y424307D01*
X422552Y424374D01*
X422586Y424440D01*
X422624Y424505D01*
X422665Y424567D01*
X422709Y424627D01*
X422756Y424684D01*
X422806Y424739D01*
X422859Y424792D01*
X422914Y424842D01*
X422971Y424889D01*
X423031Y424933D01*
X423093Y424974D01*
X423158Y425012D01*
X423223Y425046D01*
X423291Y425077D01*
X423360Y425105D01*
X423431Y425129D01*
X423502Y425149D01*
X423574Y425166D01*
X423648Y425179D01*
X423721Y425188D01*
X423796Y425194D01*
X423870Y425196D01*
X425337Y425196D01*
X428534Y423728D02*
X430368Y425196D01*
X430368Y418592D01*
X428534Y418592D02*
X432202Y418592D01*
X435849Y422261D02*
X438050Y422261D01*
X438124Y422259D01*
X438199Y422253D01*
X438272Y422244D01*
X438346Y422231D01*
X438418Y422214D01*
X438489Y422194D01*
X438560Y422170D01*
X438629Y422142D01*
X438696Y422111D01*
X438762Y422077D01*
X438827Y422039D01*
X438889Y421998D01*
X438949Y421954D01*
X439006Y421907D01*
X439061Y421857D01*
X439114Y421804D01*
X439164Y421749D01*
X439211Y421692D01*
X439255Y421632D01*
X439296Y421570D01*
X439334Y421505D01*
X439368Y421439D01*
X439399Y421372D01*
X439427Y421303D01*
X439451Y421232D01*
X439471Y421161D01*
X439488Y421089D01*
X439501Y421015D01*
X439510Y420942D01*
X439516Y420867D01*
X439518Y420793D01*
X439518Y420426D01*
X439517Y420426D02*
X439515Y420341D01*
X439509Y420257D01*
X439499Y420173D01*
X439486Y420089D01*
X439468Y420006D01*
X439447Y419924D01*
X439422Y419843D01*
X439393Y419763D01*
X439361Y419685D01*
X439325Y419609D01*
X439285Y419534D01*
X439242Y419461D01*
X439196Y419390D01*
X439147Y419321D01*
X439094Y419254D01*
X439038Y419190D01*
X438980Y419129D01*
X438919Y419071D01*
X438855Y419015D01*
X438788Y418962D01*
X438719Y418913D01*
X438648Y418867D01*
X438575Y418824D01*
X438500Y418784D01*
X438424Y418748D01*
X438346Y418716D01*
X438266Y418687D01*
X438185Y418662D01*
X438103Y418641D01*
X438020Y418623D01*
X437936Y418610D01*
X437852Y418600D01*
X437768Y418594D01*
X437683Y418592D01*
X437598Y418594D01*
X437514Y418600D01*
X437430Y418610D01*
X437346Y418623D01*
X437263Y418641D01*
X437181Y418662D01*
X437100Y418687D01*
X437020Y418716D01*
X436942Y418748D01*
X436866Y418784D01*
X436791Y418824D01*
X436718Y418867D01*
X436647Y418913D01*
X436578Y418962D01*
X436511Y419015D01*
X436447Y419071D01*
X436386Y419129D01*
X436328Y419190D01*
X436272Y419254D01*
X436219Y419321D01*
X436170Y419390D01*
X436124Y419461D01*
X436081Y419534D01*
X436041Y419609D01*
X436005Y419685D01*
X435973Y419763D01*
X435944Y419843D01*
X435919Y419924D01*
X435898Y420006D01*
X435880Y420089D01*
X435867Y420173D01*
X435857Y420257D01*
X435851Y420341D01*
X435849Y420426D01*
X435849Y422261D01*
X435851Y422368D01*
X435857Y422475D01*
X435867Y422582D01*
X435880Y422688D01*
X435898Y422794D01*
X435919Y422899D01*
X435944Y423003D01*
X435973Y423107D01*
X436006Y423209D01*
X436043Y423309D01*
X436083Y423409D01*
X436127Y423507D01*
X436174Y423603D01*
X436225Y423697D01*
X436279Y423790D01*
X436336Y423880D01*
X436397Y423969D01*
X436461Y424055D01*
X436528Y424138D01*
X436598Y424220D01*
X436671Y424298D01*
X436747Y424374D01*
X436825Y424447D01*
X436907Y424517D01*
X436990Y424584D01*
X437076Y424648D01*
X437165Y424709D01*
X437255Y424766D01*
X437348Y424820D01*
X437442Y424871D01*
X437538Y424918D01*
X437636Y424962D01*
X437736Y425002D01*
X437836Y425039D01*
X437938Y425072D01*
X438042Y425101D01*
X438146Y425126D01*
X438251Y425147D01*
X438357Y425165D01*
X438463Y425178D01*
X438570Y425188D01*
X438677Y425194D01*
X438784Y425196D01*
D13*
X401320Y424180D02*
X401320Y414020D01*
D12*
X142395Y327787D02*
X140476Y327787D01*
X140390Y327789D01*
X140304Y327795D01*
X140218Y327804D01*
X140133Y327818D01*
X140049Y327835D01*
X139965Y327856D01*
X139883Y327881D01*
X139802Y327909D01*
X139722Y327941D01*
X139643Y327977D01*
X139567Y328016D01*
X139492Y328059D01*
X139419Y328104D01*
X139348Y328153D01*
X139280Y328206D01*
X139213Y328261D01*
X139150Y328319D01*
X139089Y328380D01*
X139031Y328443D01*
X138976Y328510D01*
X138923Y328578D01*
X138874Y328649D01*
X138829Y328722D01*
X138786Y328797D01*
X138747Y328873D01*
X138711Y328952D01*
X138679Y329032D01*
X138651Y329113D01*
X138626Y329195D01*
X138605Y329279D01*
X138588Y329363D01*
X138574Y329448D01*
X138565Y329534D01*
X138559Y329620D01*
X138557Y329706D01*
X138557Y334504D01*
X138559Y334590D01*
X138565Y334676D01*
X138574Y334762D01*
X138588Y334847D01*
X138605Y334931D01*
X138626Y335015D01*
X138651Y335097D01*
X138679Y335178D01*
X138711Y335258D01*
X138747Y335337D01*
X138786Y335413D01*
X138829Y335488D01*
X138874Y335561D01*
X138923Y335632D01*
X138976Y335700D01*
X139031Y335767D01*
X139089Y335830D01*
X139150Y335891D01*
X139213Y335949D01*
X139280Y336004D01*
X139348Y336056D01*
X139419Y336106D01*
X139492Y336151D01*
X139567Y336194D01*
X139643Y336233D01*
X139722Y336269D01*
X139802Y336301D01*
X139883Y336329D01*
X139965Y336354D01*
X140049Y336375D01*
X140133Y336392D01*
X140218Y336406D01*
X140304Y336415D01*
X140390Y336421D01*
X140476Y336423D01*
X142395Y336423D01*
X148854Y336423D02*
X148946Y336421D01*
X149037Y336415D01*
X149128Y336406D01*
X149219Y336392D01*
X149309Y336375D01*
X149398Y336353D01*
X149486Y336328D01*
X149573Y336300D01*
X149659Y336267D01*
X149743Y336231D01*
X149826Y336192D01*
X149907Y336149D01*
X149986Y336102D01*
X150063Y336053D01*
X150138Y336000D01*
X150210Y335944D01*
X150280Y335885D01*
X150348Y335823D01*
X150413Y335758D01*
X150475Y335690D01*
X150534Y335620D01*
X150590Y335548D01*
X150643Y335473D01*
X150692Y335396D01*
X150739Y335317D01*
X150782Y335236D01*
X150821Y335153D01*
X150857Y335069D01*
X150890Y334983D01*
X150918Y334896D01*
X150943Y334808D01*
X150965Y334719D01*
X150982Y334629D01*
X150996Y334538D01*
X151005Y334447D01*
X151011Y334356D01*
X151013Y334264D01*
X148854Y336423D02*
X148751Y336421D01*
X148649Y336415D01*
X148547Y336406D01*
X148445Y336393D01*
X148344Y336376D01*
X148243Y336355D01*
X148144Y336331D01*
X148045Y336302D01*
X147948Y336271D01*
X147851Y336235D01*
X147756Y336197D01*
X147663Y336154D01*
X147571Y336108D01*
X147481Y336059D01*
X147393Y336007D01*
X147306Y335951D01*
X147222Y335892D01*
X147141Y335831D01*
X147061Y335766D01*
X146984Y335698D01*
X146909Y335627D01*
X146838Y335554D01*
X146769Y335478D01*
X146702Y335400D01*
X146639Y335319D01*
X146579Y335236D01*
X146522Y335151D01*
X146468Y335064D01*
X146417Y334974D01*
X146370Y334883D01*
X146326Y334791D01*
X146285Y334696D01*
X146248Y334601D01*
X146215Y334504D01*
X150293Y332585D02*
X150360Y332651D01*
X150424Y332720D01*
X150485Y332791D01*
X150543Y332865D01*
X150598Y332941D01*
X150650Y333019D01*
X150699Y333099D01*
X150745Y333181D01*
X150787Y333265D01*
X150826Y333351D01*
X150861Y333438D01*
X150892Y333526D01*
X150920Y333616D01*
X150945Y333706D01*
X150966Y333798D01*
X150983Y333890D01*
X150996Y333983D01*
X151005Y334076D01*
X151011Y334170D01*
X151013Y334264D01*
X150293Y332585D02*
X146215Y327787D01*
X151013Y327787D01*
X104295Y327787D02*
X102376Y327787D01*
X102290Y327789D01*
X102204Y327795D01*
X102118Y327804D01*
X102033Y327818D01*
X101949Y327835D01*
X101865Y327856D01*
X101783Y327881D01*
X101702Y327909D01*
X101622Y327941D01*
X101543Y327977D01*
X101467Y328016D01*
X101392Y328059D01*
X101319Y328104D01*
X101248Y328153D01*
X101180Y328206D01*
X101113Y328261D01*
X101050Y328319D01*
X100989Y328380D01*
X100931Y328443D01*
X100876Y328510D01*
X100823Y328578D01*
X100774Y328649D01*
X100729Y328722D01*
X100686Y328797D01*
X100647Y328873D01*
X100611Y328952D01*
X100579Y329032D01*
X100551Y329113D01*
X100526Y329195D01*
X100505Y329279D01*
X100488Y329363D01*
X100474Y329448D01*
X100465Y329534D01*
X100459Y329620D01*
X100457Y329706D01*
X100457Y334504D01*
X100459Y334590D01*
X100465Y334676D01*
X100474Y334762D01*
X100488Y334847D01*
X100505Y334931D01*
X100526Y335015D01*
X100551Y335097D01*
X100579Y335178D01*
X100611Y335258D01*
X100647Y335337D01*
X100686Y335413D01*
X100729Y335488D01*
X100774Y335561D01*
X100823Y335632D01*
X100876Y335700D01*
X100931Y335767D01*
X100989Y335830D01*
X101050Y335891D01*
X101113Y335949D01*
X101180Y336004D01*
X101248Y336056D01*
X101319Y336106D01*
X101392Y336151D01*
X101467Y336194D01*
X101543Y336233D01*
X101622Y336269D01*
X101702Y336301D01*
X101783Y336329D01*
X101865Y336354D01*
X101949Y336375D01*
X102033Y336392D01*
X102118Y336406D01*
X102204Y336415D01*
X102290Y336421D01*
X102376Y336423D01*
X104295Y336423D01*
X108115Y327787D02*
X110514Y327787D01*
X110611Y327789D01*
X110707Y327795D01*
X110803Y327804D01*
X110899Y327818D01*
X110994Y327835D01*
X111088Y327857D01*
X111181Y327882D01*
X111274Y327910D01*
X111365Y327943D01*
X111454Y327979D01*
X111542Y328019D01*
X111629Y328062D01*
X111714Y328108D01*
X111796Y328158D01*
X111877Y328212D01*
X111955Y328268D01*
X112031Y328328D01*
X112105Y328390D01*
X112176Y328456D01*
X112244Y328524D01*
X112310Y328595D01*
X112372Y328669D01*
X112432Y328745D01*
X112488Y328823D01*
X112542Y328904D01*
X112592Y328987D01*
X112638Y329071D01*
X112681Y329158D01*
X112721Y329246D01*
X112757Y329335D01*
X112790Y329426D01*
X112818Y329519D01*
X112843Y329612D01*
X112865Y329706D01*
X112882Y329801D01*
X112896Y329897D01*
X112905Y329993D01*
X112911Y330089D01*
X112913Y330186D01*
X112911Y330283D01*
X112905Y330379D01*
X112896Y330475D01*
X112882Y330571D01*
X112865Y330666D01*
X112843Y330760D01*
X112818Y330853D01*
X112790Y330946D01*
X112757Y331037D01*
X112721Y331126D01*
X112681Y331214D01*
X112638Y331301D01*
X112592Y331386D01*
X112542Y331468D01*
X112488Y331549D01*
X112432Y331627D01*
X112372Y331703D01*
X112310Y331777D01*
X112244Y331848D01*
X112176Y331916D01*
X112105Y331982D01*
X112031Y332044D01*
X111955Y332104D01*
X111877Y332160D01*
X111796Y332214D01*
X111714Y332264D01*
X111629Y332310D01*
X111542Y332353D01*
X111454Y332393D01*
X111365Y332429D01*
X111274Y332462D01*
X111181Y332490D01*
X111088Y332515D01*
X110994Y332537D01*
X110899Y332554D01*
X110803Y332568D01*
X110707Y332577D01*
X110611Y332583D01*
X110514Y332585D01*
X110994Y336423D02*
X108115Y336423D01*
X110994Y336423D02*
X111080Y336421D01*
X111166Y336415D01*
X111252Y336406D01*
X111337Y336392D01*
X111421Y336375D01*
X111505Y336354D01*
X111587Y336329D01*
X111668Y336301D01*
X111748Y336269D01*
X111827Y336233D01*
X111903Y336194D01*
X111978Y336151D01*
X112051Y336106D01*
X112122Y336057D01*
X112190Y336004D01*
X112257Y335949D01*
X112320Y335891D01*
X112381Y335830D01*
X112439Y335767D01*
X112494Y335700D01*
X112547Y335632D01*
X112596Y335561D01*
X112641Y335488D01*
X112684Y335413D01*
X112723Y335337D01*
X112759Y335258D01*
X112791Y335178D01*
X112819Y335097D01*
X112844Y335015D01*
X112865Y334931D01*
X112882Y334847D01*
X112896Y334762D01*
X112905Y334676D01*
X112911Y334590D01*
X112913Y334504D01*
X112911Y334418D01*
X112905Y334332D01*
X112896Y334246D01*
X112882Y334161D01*
X112865Y334077D01*
X112844Y333993D01*
X112819Y333911D01*
X112791Y333830D01*
X112759Y333750D01*
X112723Y333671D01*
X112684Y333595D01*
X112641Y333520D01*
X112596Y333447D01*
X112547Y333376D01*
X112494Y333308D01*
X112439Y333241D01*
X112381Y333178D01*
X112320Y333117D01*
X112257Y333059D01*
X112190Y333004D01*
X112122Y332951D01*
X112051Y332902D01*
X111978Y332857D01*
X111903Y332814D01*
X111827Y332775D01*
X111748Y332739D01*
X111668Y332707D01*
X111587Y332679D01*
X111505Y332654D01*
X111421Y332633D01*
X111337Y332616D01*
X111252Y332602D01*
X111166Y332593D01*
X111080Y332587D01*
X110994Y332585D01*
X109075Y332585D01*
X330976Y327787D02*
X332895Y327787D01*
X330976Y327787D02*
X330890Y327789D01*
X330804Y327795D01*
X330718Y327804D01*
X330633Y327818D01*
X330549Y327835D01*
X330465Y327856D01*
X330383Y327881D01*
X330302Y327909D01*
X330222Y327941D01*
X330143Y327977D01*
X330067Y328016D01*
X329992Y328059D01*
X329919Y328104D01*
X329848Y328153D01*
X329780Y328206D01*
X329713Y328261D01*
X329650Y328319D01*
X329589Y328380D01*
X329531Y328443D01*
X329476Y328510D01*
X329423Y328578D01*
X329374Y328649D01*
X329329Y328722D01*
X329286Y328797D01*
X329247Y328873D01*
X329211Y328952D01*
X329179Y329032D01*
X329151Y329113D01*
X329126Y329195D01*
X329105Y329279D01*
X329088Y329363D01*
X329074Y329448D01*
X329065Y329534D01*
X329059Y329620D01*
X329057Y329706D01*
X329057Y334504D01*
X329059Y334590D01*
X329065Y334676D01*
X329074Y334762D01*
X329088Y334847D01*
X329105Y334931D01*
X329126Y335015D01*
X329151Y335097D01*
X329179Y335178D01*
X329211Y335258D01*
X329247Y335337D01*
X329286Y335413D01*
X329329Y335488D01*
X329374Y335561D01*
X329423Y335632D01*
X329476Y335700D01*
X329531Y335767D01*
X329589Y335830D01*
X329650Y335891D01*
X329713Y335949D01*
X329780Y336004D01*
X329848Y336056D01*
X329919Y336106D01*
X329992Y336151D01*
X330067Y336194D01*
X330143Y336233D01*
X330222Y336269D01*
X330302Y336301D01*
X330383Y336329D01*
X330465Y336354D01*
X330549Y336375D01*
X330633Y336392D01*
X330718Y336406D01*
X330804Y336415D01*
X330890Y336421D01*
X330976Y336423D01*
X332895Y336423D01*
X338634Y336423D02*
X336715Y329706D01*
X341513Y329706D01*
X340074Y331625D02*
X340074Y327787D01*
D11*
X321931Y188468D02*
X319334Y188468D01*
X319235Y188470D01*
X319135Y188476D01*
X319036Y188485D01*
X318938Y188498D01*
X318840Y188515D01*
X318742Y188536D01*
X318646Y188561D01*
X318551Y188589D01*
X318457Y188621D01*
X318364Y188656D01*
X318272Y188695D01*
X318182Y188738D01*
X318094Y188783D01*
X318007Y188833D01*
X317923Y188885D01*
X317840Y188941D01*
X317760Y188999D01*
X317682Y189061D01*
X317607Y189126D01*
X317534Y189194D01*
X317464Y189264D01*
X317396Y189337D01*
X317331Y189412D01*
X317269Y189490D01*
X317211Y189570D01*
X317155Y189653D01*
X317103Y189737D01*
X317053Y189824D01*
X317008Y189912D01*
X316965Y190002D01*
X316926Y190094D01*
X316891Y190187D01*
X316859Y190281D01*
X316831Y190376D01*
X316806Y190472D01*
X316785Y190570D01*
X316768Y190668D01*
X316755Y190766D01*
X316746Y190865D01*
X316740Y190965D01*
X316738Y191064D01*
X316738Y197556D01*
X316740Y197655D01*
X316746Y197755D01*
X316755Y197854D01*
X316768Y197952D01*
X316785Y198050D01*
X316806Y198148D01*
X316831Y198244D01*
X316859Y198339D01*
X316891Y198433D01*
X316926Y198526D01*
X316965Y198618D01*
X317008Y198708D01*
X317053Y198796D01*
X317103Y198883D01*
X317155Y198967D01*
X317211Y199050D01*
X317269Y199130D01*
X317331Y199208D01*
X317396Y199283D01*
X317464Y199356D01*
X317534Y199426D01*
X317607Y199494D01*
X317682Y199559D01*
X317760Y199621D01*
X317840Y199679D01*
X317923Y199735D01*
X318007Y199787D01*
X318094Y199837D01*
X318182Y199882D01*
X318272Y199925D01*
X318364Y199964D01*
X318456Y199999D01*
X318551Y200031D01*
X318646Y200059D01*
X318742Y200084D01*
X318840Y200105D01*
X318938Y200122D01*
X319036Y200135D01*
X319135Y200144D01*
X319235Y200150D01*
X319334Y200152D01*
X321931Y200152D01*
X326296Y188468D02*
X330191Y188468D01*
X330290Y188470D01*
X330390Y188476D01*
X330489Y188485D01*
X330587Y188498D01*
X330685Y188515D01*
X330783Y188536D01*
X330879Y188561D01*
X330974Y188589D01*
X331068Y188621D01*
X331161Y188656D01*
X331253Y188695D01*
X331343Y188738D01*
X331431Y188783D01*
X331518Y188833D01*
X331602Y188885D01*
X331685Y188941D01*
X331765Y188999D01*
X331843Y189061D01*
X331918Y189126D01*
X331991Y189194D01*
X332061Y189264D01*
X332129Y189337D01*
X332194Y189412D01*
X332256Y189490D01*
X332314Y189570D01*
X332370Y189653D01*
X332422Y189737D01*
X332472Y189824D01*
X332517Y189912D01*
X332560Y190002D01*
X332599Y190094D01*
X332634Y190187D01*
X332666Y190281D01*
X332694Y190376D01*
X332719Y190472D01*
X332740Y190570D01*
X332757Y190668D01*
X332770Y190766D01*
X332779Y190865D01*
X332785Y190965D01*
X332787Y191064D01*
X332787Y192363D01*
X332785Y192462D01*
X332779Y192562D01*
X332770Y192661D01*
X332757Y192759D01*
X332740Y192857D01*
X332719Y192955D01*
X332694Y193051D01*
X332666Y193146D01*
X332634Y193240D01*
X332599Y193333D01*
X332560Y193425D01*
X332517Y193515D01*
X332472Y193603D01*
X332422Y193690D01*
X332370Y193774D01*
X332314Y193857D01*
X332256Y193937D01*
X332194Y194015D01*
X332129Y194090D01*
X332061Y194163D01*
X331991Y194233D01*
X331918Y194301D01*
X331843Y194366D01*
X331765Y194428D01*
X331685Y194486D01*
X331602Y194542D01*
X331518Y194594D01*
X331431Y194644D01*
X331343Y194689D01*
X331253Y194732D01*
X331161Y194771D01*
X331068Y194806D01*
X330974Y194838D01*
X330879Y194866D01*
X330783Y194891D01*
X330685Y194912D01*
X330587Y194929D01*
X330489Y194942D01*
X330390Y194951D01*
X330290Y194957D01*
X330191Y194959D01*
X326296Y194959D01*
X326296Y200152D01*
X332787Y200152D01*
X258431Y188468D02*
X255834Y188468D01*
X255735Y188470D01*
X255635Y188476D01*
X255536Y188485D01*
X255438Y188498D01*
X255340Y188515D01*
X255242Y188536D01*
X255146Y188561D01*
X255051Y188589D01*
X254957Y188621D01*
X254864Y188656D01*
X254772Y188695D01*
X254682Y188738D01*
X254594Y188783D01*
X254507Y188833D01*
X254423Y188885D01*
X254340Y188941D01*
X254260Y188999D01*
X254182Y189061D01*
X254107Y189126D01*
X254034Y189194D01*
X253964Y189264D01*
X253896Y189337D01*
X253831Y189412D01*
X253769Y189490D01*
X253711Y189570D01*
X253655Y189653D01*
X253603Y189737D01*
X253553Y189824D01*
X253508Y189912D01*
X253465Y190002D01*
X253426Y190094D01*
X253391Y190187D01*
X253359Y190281D01*
X253331Y190376D01*
X253306Y190472D01*
X253285Y190570D01*
X253268Y190668D01*
X253255Y190766D01*
X253246Y190865D01*
X253240Y190965D01*
X253238Y191064D01*
X253238Y197556D01*
X253240Y197655D01*
X253246Y197755D01*
X253255Y197854D01*
X253268Y197952D01*
X253285Y198050D01*
X253306Y198148D01*
X253331Y198244D01*
X253359Y198339D01*
X253391Y198433D01*
X253426Y198526D01*
X253465Y198618D01*
X253508Y198708D01*
X253553Y198796D01*
X253603Y198883D01*
X253655Y198967D01*
X253711Y199050D01*
X253769Y199130D01*
X253831Y199208D01*
X253896Y199283D01*
X253964Y199356D01*
X254034Y199426D01*
X254107Y199494D01*
X254182Y199559D01*
X254260Y199621D01*
X254340Y199679D01*
X254423Y199735D01*
X254507Y199787D01*
X254594Y199837D01*
X254682Y199882D01*
X254772Y199925D01*
X254864Y199964D01*
X254956Y199999D01*
X255051Y200031D01*
X255146Y200059D01*
X255242Y200084D01*
X255340Y200105D01*
X255438Y200122D01*
X255536Y200135D01*
X255635Y200144D01*
X255735Y200150D01*
X255834Y200152D01*
X258431Y200152D01*
X262796Y194959D02*
X266691Y194959D01*
X266790Y194957D01*
X266890Y194951D01*
X266989Y194942D01*
X267087Y194929D01*
X267185Y194912D01*
X267283Y194891D01*
X267379Y194866D01*
X267474Y194838D01*
X267568Y194806D01*
X267661Y194771D01*
X267753Y194732D01*
X267843Y194689D01*
X267931Y194644D01*
X268018Y194594D01*
X268102Y194542D01*
X268185Y194486D01*
X268265Y194428D01*
X268343Y194366D01*
X268418Y194301D01*
X268491Y194233D01*
X268561Y194163D01*
X268629Y194090D01*
X268694Y194015D01*
X268756Y193937D01*
X268814Y193857D01*
X268870Y193774D01*
X268922Y193690D01*
X268972Y193603D01*
X269017Y193515D01*
X269060Y193425D01*
X269099Y193333D01*
X269134Y193240D01*
X269166Y193146D01*
X269194Y193051D01*
X269219Y192955D01*
X269240Y192857D01*
X269257Y192759D01*
X269270Y192661D01*
X269279Y192562D01*
X269285Y192462D01*
X269287Y192363D01*
X269287Y191714D01*
X269288Y191714D02*
X269286Y191601D01*
X269280Y191488D01*
X269270Y191375D01*
X269256Y191262D01*
X269239Y191150D01*
X269217Y191039D01*
X269192Y190929D01*
X269162Y190819D01*
X269129Y190711D01*
X269092Y190604D01*
X269052Y190498D01*
X269007Y190394D01*
X268959Y190291D01*
X268908Y190190D01*
X268853Y190091D01*
X268795Y189994D01*
X268733Y189899D01*
X268668Y189806D01*
X268600Y189716D01*
X268529Y189628D01*
X268454Y189542D01*
X268377Y189459D01*
X268297Y189379D01*
X268214Y189302D01*
X268128Y189227D01*
X268040Y189156D01*
X267950Y189088D01*
X267857Y189023D01*
X267762Y188961D01*
X267665Y188903D01*
X267566Y188848D01*
X267465Y188797D01*
X267362Y188749D01*
X267258Y188704D01*
X267152Y188664D01*
X267045Y188627D01*
X266937Y188594D01*
X266827Y188564D01*
X266717Y188539D01*
X266606Y188517D01*
X266494Y188500D01*
X266381Y188486D01*
X266268Y188476D01*
X266155Y188470D01*
X266042Y188468D01*
X265929Y188470D01*
X265816Y188476D01*
X265703Y188486D01*
X265590Y188500D01*
X265478Y188517D01*
X265367Y188539D01*
X265257Y188564D01*
X265147Y188594D01*
X265039Y188627D01*
X264932Y188664D01*
X264826Y188704D01*
X264722Y188749D01*
X264619Y188797D01*
X264518Y188848D01*
X264419Y188903D01*
X264322Y188961D01*
X264227Y189023D01*
X264134Y189088D01*
X264044Y189156D01*
X263956Y189227D01*
X263870Y189302D01*
X263787Y189379D01*
X263707Y189459D01*
X263630Y189542D01*
X263555Y189628D01*
X263484Y189716D01*
X263416Y189806D01*
X263351Y189899D01*
X263289Y189994D01*
X263231Y190091D01*
X263176Y190190D01*
X263125Y190291D01*
X263077Y190394D01*
X263032Y190498D01*
X262992Y190604D01*
X262955Y190711D01*
X262922Y190819D01*
X262892Y190929D01*
X262867Y191039D01*
X262845Y191150D01*
X262828Y191262D01*
X262814Y191375D01*
X262804Y191488D01*
X262798Y191601D01*
X262796Y191714D01*
X262796Y194959D01*
X262798Y195102D01*
X262804Y195245D01*
X262814Y195388D01*
X262828Y195530D01*
X262845Y195672D01*
X262867Y195814D01*
X262892Y195955D01*
X262922Y196095D01*
X262955Y196234D01*
X262992Y196372D01*
X263033Y196509D01*
X263077Y196645D01*
X263126Y196780D01*
X263178Y196913D01*
X263233Y197045D01*
X263293Y197175D01*
X263356Y197304D01*
X263422Y197431D01*
X263492Y197555D01*
X263565Y197678D01*
X263642Y197799D01*
X263722Y197918D01*
X263805Y198034D01*
X263891Y198149D01*
X263980Y198260D01*
X264073Y198370D01*
X264168Y198476D01*
X264267Y198580D01*
X264368Y198681D01*
X264472Y198780D01*
X264578Y198875D01*
X264688Y198968D01*
X264799Y199057D01*
X264914Y199143D01*
X265030Y199226D01*
X265149Y199306D01*
X265270Y199383D01*
X265392Y199456D01*
X265517Y199526D01*
X265644Y199592D01*
X265773Y199655D01*
X265903Y199715D01*
X266035Y199770D01*
X266168Y199822D01*
X266303Y199871D01*
X266439Y199915D01*
X266576Y199956D01*
X266714Y199993D01*
X266853Y200026D01*
X266993Y200056D01*
X267134Y200081D01*
X267276Y200103D01*
X267418Y200120D01*
X267560Y200134D01*
X267703Y200144D01*
X267846Y200150D01*
X267989Y200152D01*
D12*
X280176Y327787D02*
X282095Y327787D01*
X280176Y327787D02*
X280090Y327789D01*
X280004Y327795D01*
X279918Y327804D01*
X279833Y327818D01*
X279749Y327835D01*
X279665Y327856D01*
X279583Y327881D01*
X279502Y327909D01*
X279422Y327941D01*
X279343Y327977D01*
X279267Y328016D01*
X279192Y328059D01*
X279119Y328104D01*
X279048Y328153D01*
X278980Y328206D01*
X278913Y328261D01*
X278850Y328319D01*
X278789Y328380D01*
X278731Y328443D01*
X278676Y328510D01*
X278623Y328578D01*
X278574Y328649D01*
X278529Y328722D01*
X278486Y328797D01*
X278447Y328873D01*
X278411Y328952D01*
X278379Y329032D01*
X278351Y329113D01*
X278326Y329195D01*
X278305Y329279D01*
X278288Y329363D01*
X278274Y329448D01*
X278265Y329534D01*
X278259Y329620D01*
X278257Y329706D01*
X278257Y334504D01*
X278259Y334590D01*
X278265Y334676D01*
X278274Y334762D01*
X278288Y334847D01*
X278305Y334931D01*
X278326Y335015D01*
X278351Y335097D01*
X278379Y335178D01*
X278411Y335258D01*
X278447Y335337D01*
X278486Y335413D01*
X278529Y335488D01*
X278574Y335561D01*
X278623Y335632D01*
X278676Y335700D01*
X278731Y335767D01*
X278789Y335830D01*
X278850Y335891D01*
X278913Y335949D01*
X278980Y336004D01*
X279048Y336056D01*
X279119Y336106D01*
X279192Y336151D01*
X279267Y336194D01*
X279343Y336233D01*
X279422Y336269D01*
X279502Y336301D01*
X279583Y336329D01*
X279665Y336354D01*
X279749Y336375D01*
X279833Y336392D01*
X279918Y336406D01*
X280004Y336415D01*
X280090Y336421D01*
X280176Y336423D01*
X282095Y336423D01*
X285915Y336423D02*
X285915Y335463D01*
X285915Y336423D02*
X290713Y336423D01*
X288314Y327787D01*
X231295Y327787D02*
X229376Y327787D01*
X229290Y327789D01*
X229204Y327795D01*
X229118Y327804D01*
X229033Y327818D01*
X228949Y327835D01*
X228865Y327856D01*
X228783Y327881D01*
X228702Y327909D01*
X228622Y327941D01*
X228543Y327977D01*
X228467Y328016D01*
X228392Y328059D01*
X228319Y328104D01*
X228248Y328153D01*
X228180Y328206D01*
X228113Y328261D01*
X228050Y328319D01*
X227989Y328380D01*
X227931Y328443D01*
X227876Y328510D01*
X227823Y328578D01*
X227774Y328649D01*
X227729Y328722D01*
X227686Y328797D01*
X227647Y328873D01*
X227611Y328952D01*
X227579Y329032D01*
X227551Y329113D01*
X227526Y329195D01*
X227505Y329279D01*
X227488Y329363D01*
X227474Y329448D01*
X227465Y329534D01*
X227459Y329620D01*
X227457Y329706D01*
X227457Y334504D01*
X227459Y334590D01*
X227465Y334676D01*
X227474Y334762D01*
X227488Y334847D01*
X227505Y334931D01*
X227526Y335015D01*
X227551Y335097D01*
X227579Y335178D01*
X227611Y335258D01*
X227647Y335337D01*
X227686Y335413D01*
X227729Y335488D01*
X227774Y335561D01*
X227823Y335632D01*
X227876Y335700D01*
X227931Y335767D01*
X227989Y335830D01*
X228050Y335891D01*
X228113Y335949D01*
X228180Y336004D01*
X228248Y336056D01*
X228319Y336106D01*
X228392Y336151D01*
X228467Y336194D01*
X228543Y336233D01*
X228622Y336269D01*
X228702Y336301D01*
X228783Y336329D01*
X228865Y336354D01*
X228949Y336375D01*
X229033Y336392D01*
X229118Y336406D01*
X229204Y336415D01*
X229290Y336421D01*
X229376Y336423D01*
X231295Y336423D01*
X235115Y330186D02*
X235117Y330283D01*
X235123Y330379D01*
X235132Y330475D01*
X235146Y330571D01*
X235163Y330666D01*
X235185Y330760D01*
X235210Y330853D01*
X235238Y330946D01*
X235271Y331037D01*
X235307Y331126D01*
X235347Y331214D01*
X235390Y331301D01*
X235436Y331386D01*
X235486Y331468D01*
X235540Y331549D01*
X235596Y331627D01*
X235656Y331703D01*
X235718Y331777D01*
X235784Y331848D01*
X235852Y331916D01*
X235923Y331982D01*
X235997Y332044D01*
X236073Y332104D01*
X236151Y332160D01*
X236232Y332214D01*
X236315Y332264D01*
X236399Y332310D01*
X236486Y332353D01*
X236574Y332393D01*
X236663Y332429D01*
X236754Y332462D01*
X236847Y332490D01*
X236940Y332515D01*
X237034Y332537D01*
X237129Y332554D01*
X237225Y332568D01*
X237321Y332577D01*
X237417Y332583D01*
X237514Y332585D01*
X237611Y332583D01*
X237707Y332577D01*
X237803Y332568D01*
X237899Y332554D01*
X237994Y332537D01*
X238088Y332515D01*
X238181Y332490D01*
X238274Y332462D01*
X238365Y332429D01*
X238454Y332393D01*
X238542Y332353D01*
X238629Y332310D01*
X238714Y332264D01*
X238796Y332214D01*
X238877Y332160D01*
X238955Y332104D01*
X239031Y332044D01*
X239105Y331982D01*
X239176Y331916D01*
X239244Y331848D01*
X239310Y331777D01*
X239372Y331703D01*
X239432Y331627D01*
X239488Y331549D01*
X239542Y331468D01*
X239592Y331386D01*
X239638Y331301D01*
X239681Y331214D01*
X239721Y331126D01*
X239757Y331037D01*
X239790Y330946D01*
X239818Y330853D01*
X239843Y330760D01*
X239865Y330666D01*
X239882Y330571D01*
X239896Y330475D01*
X239905Y330379D01*
X239911Y330283D01*
X239913Y330186D01*
X239911Y330089D01*
X239905Y329993D01*
X239896Y329897D01*
X239882Y329801D01*
X239865Y329706D01*
X239843Y329612D01*
X239818Y329519D01*
X239790Y329426D01*
X239757Y329335D01*
X239721Y329246D01*
X239681Y329158D01*
X239638Y329071D01*
X239592Y328987D01*
X239542Y328904D01*
X239488Y328823D01*
X239432Y328745D01*
X239372Y328669D01*
X239310Y328595D01*
X239244Y328524D01*
X239176Y328456D01*
X239105Y328390D01*
X239031Y328328D01*
X238955Y328268D01*
X238877Y328212D01*
X238796Y328158D01*
X238713Y328108D01*
X238629Y328062D01*
X238542Y328019D01*
X238454Y327979D01*
X238365Y327943D01*
X238274Y327910D01*
X238181Y327882D01*
X238088Y327857D01*
X237994Y327835D01*
X237899Y327818D01*
X237803Y327804D01*
X237707Y327795D01*
X237611Y327789D01*
X237514Y327787D01*
X237417Y327789D01*
X237321Y327795D01*
X237225Y327804D01*
X237129Y327818D01*
X237034Y327835D01*
X236940Y327857D01*
X236847Y327882D01*
X236754Y327910D01*
X236663Y327943D01*
X236574Y327979D01*
X236486Y328019D01*
X236399Y328062D01*
X236315Y328108D01*
X236232Y328158D01*
X236151Y328212D01*
X236073Y328268D01*
X235997Y328328D01*
X235923Y328390D01*
X235852Y328456D01*
X235784Y328524D01*
X235718Y328595D01*
X235656Y328669D01*
X235596Y328745D01*
X235540Y328823D01*
X235486Y328904D01*
X235436Y328987D01*
X235390Y329071D01*
X235347Y329158D01*
X235307Y329246D01*
X235271Y329335D01*
X235238Y329426D01*
X235210Y329519D01*
X235185Y329612D01*
X235163Y329706D01*
X235146Y329801D01*
X235132Y329897D01*
X235123Y329993D01*
X235117Y330089D01*
X235115Y330186D01*
X235595Y334504D02*
X235597Y334590D01*
X235603Y334676D01*
X235612Y334762D01*
X235626Y334847D01*
X235643Y334931D01*
X235664Y335015D01*
X235689Y335097D01*
X235717Y335178D01*
X235749Y335258D01*
X235785Y335337D01*
X235824Y335413D01*
X235867Y335488D01*
X235912Y335561D01*
X235961Y335632D01*
X236014Y335700D01*
X236069Y335767D01*
X236127Y335830D01*
X236188Y335891D01*
X236251Y335949D01*
X236318Y336004D01*
X236386Y336057D01*
X236457Y336106D01*
X236530Y336151D01*
X236605Y336194D01*
X236681Y336233D01*
X236760Y336269D01*
X236840Y336301D01*
X236921Y336329D01*
X237003Y336354D01*
X237087Y336375D01*
X237171Y336392D01*
X237256Y336406D01*
X237342Y336415D01*
X237428Y336421D01*
X237514Y336423D01*
X237600Y336421D01*
X237686Y336415D01*
X237772Y336406D01*
X237857Y336392D01*
X237941Y336375D01*
X238025Y336354D01*
X238107Y336329D01*
X238188Y336301D01*
X238268Y336269D01*
X238347Y336233D01*
X238423Y336194D01*
X238498Y336151D01*
X238571Y336106D01*
X238642Y336057D01*
X238710Y336004D01*
X238777Y335949D01*
X238840Y335891D01*
X238901Y335830D01*
X238959Y335767D01*
X239014Y335700D01*
X239067Y335632D01*
X239116Y335561D01*
X239161Y335488D01*
X239204Y335413D01*
X239243Y335337D01*
X239279Y335258D01*
X239311Y335178D01*
X239339Y335097D01*
X239364Y335015D01*
X239385Y334931D01*
X239402Y334847D01*
X239416Y334762D01*
X239425Y334676D01*
X239431Y334590D01*
X239433Y334504D01*
X239431Y334418D01*
X239425Y334332D01*
X239416Y334246D01*
X239402Y334161D01*
X239385Y334077D01*
X239364Y333993D01*
X239339Y333911D01*
X239311Y333830D01*
X239279Y333750D01*
X239243Y333671D01*
X239204Y333595D01*
X239161Y333520D01*
X239116Y333447D01*
X239067Y333376D01*
X239014Y333308D01*
X238959Y333241D01*
X238901Y333178D01*
X238840Y333117D01*
X238777Y333059D01*
X238710Y333004D01*
X238642Y332951D01*
X238571Y332902D01*
X238498Y332857D01*
X238423Y332814D01*
X238347Y332775D01*
X238268Y332739D01*
X238188Y332707D01*
X238107Y332679D01*
X238025Y332654D01*
X237941Y332633D01*
X237857Y332616D01*
X237772Y332602D01*
X237686Y332593D01*
X237600Y332587D01*
X237514Y332585D01*
X237428Y332587D01*
X237342Y332593D01*
X237256Y332602D01*
X237171Y332616D01*
X237087Y332633D01*
X237003Y332654D01*
X236921Y332679D01*
X236840Y332707D01*
X236760Y332739D01*
X236681Y332775D01*
X236605Y332814D01*
X236530Y332857D01*
X236457Y332902D01*
X236386Y332951D01*
X236318Y333004D01*
X236251Y333059D01*
X236188Y333117D01*
X236127Y333178D01*
X236069Y333241D01*
X236014Y333308D01*
X235961Y333376D01*
X235912Y333447D01*
X235867Y333520D01*
X235824Y333595D01*
X235785Y333671D01*
X235749Y333750D01*
X235717Y333830D01*
X235689Y333911D01*
X235664Y333993D01*
X235643Y334077D01*
X235626Y334161D01*
X235612Y334246D01*
X235603Y334332D01*
X235597Y334418D01*
X235595Y334504D01*
D11*
X194931Y188468D02*
X192334Y188468D01*
X192235Y188470D01*
X192135Y188476D01*
X192036Y188485D01*
X191938Y188498D01*
X191840Y188515D01*
X191742Y188536D01*
X191646Y188561D01*
X191551Y188589D01*
X191457Y188621D01*
X191364Y188656D01*
X191272Y188695D01*
X191182Y188738D01*
X191094Y188783D01*
X191007Y188833D01*
X190923Y188885D01*
X190840Y188941D01*
X190760Y188999D01*
X190682Y189061D01*
X190607Y189126D01*
X190534Y189194D01*
X190464Y189264D01*
X190396Y189337D01*
X190331Y189412D01*
X190269Y189490D01*
X190211Y189570D01*
X190155Y189653D01*
X190103Y189737D01*
X190053Y189824D01*
X190008Y189912D01*
X189965Y190002D01*
X189926Y190094D01*
X189891Y190187D01*
X189859Y190281D01*
X189831Y190376D01*
X189806Y190472D01*
X189785Y190570D01*
X189768Y190668D01*
X189755Y190766D01*
X189746Y190865D01*
X189740Y190965D01*
X189738Y191064D01*
X189738Y197556D01*
X189740Y197655D01*
X189746Y197755D01*
X189755Y197854D01*
X189768Y197952D01*
X189785Y198050D01*
X189806Y198148D01*
X189831Y198244D01*
X189859Y198339D01*
X189891Y198433D01*
X189926Y198526D01*
X189965Y198618D01*
X190008Y198708D01*
X190053Y198796D01*
X190103Y198883D01*
X190155Y198967D01*
X190211Y199050D01*
X190269Y199130D01*
X190331Y199208D01*
X190396Y199283D01*
X190464Y199356D01*
X190534Y199426D01*
X190607Y199494D01*
X190682Y199559D01*
X190760Y199621D01*
X190840Y199679D01*
X190923Y199735D01*
X191007Y199787D01*
X191094Y199837D01*
X191182Y199882D01*
X191272Y199925D01*
X191364Y199964D01*
X191456Y199999D01*
X191551Y200031D01*
X191646Y200059D01*
X191742Y200084D01*
X191840Y200105D01*
X191938Y200122D01*
X192036Y200135D01*
X192135Y200144D01*
X192235Y200150D01*
X192334Y200152D01*
X194931Y200152D01*
X201893Y193661D02*
X205787Y193661D01*
X201893Y193661D02*
X201794Y193663D01*
X201694Y193669D01*
X201595Y193678D01*
X201497Y193691D01*
X201399Y193708D01*
X201301Y193729D01*
X201205Y193754D01*
X201110Y193782D01*
X201016Y193814D01*
X200923Y193849D01*
X200831Y193888D01*
X200741Y193931D01*
X200653Y193976D01*
X200566Y194026D01*
X200482Y194078D01*
X200399Y194134D01*
X200319Y194192D01*
X200241Y194254D01*
X200166Y194319D01*
X200093Y194387D01*
X200023Y194457D01*
X199955Y194530D01*
X199890Y194605D01*
X199828Y194683D01*
X199770Y194763D01*
X199714Y194846D01*
X199662Y194930D01*
X199612Y195017D01*
X199567Y195105D01*
X199524Y195195D01*
X199485Y195287D01*
X199450Y195380D01*
X199418Y195474D01*
X199390Y195569D01*
X199365Y195665D01*
X199344Y195763D01*
X199327Y195861D01*
X199314Y195959D01*
X199305Y196058D01*
X199299Y196158D01*
X199297Y196257D01*
X199296Y196257D02*
X199296Y196906D01*
X199298Y197019D01*
X199304Y197132D01*
X199314Y197245D01*
X199328Y197358D01*
X199345Y197470D01*
X199367Y197581D01*
X199392Y197691D01*
X199422Y197801D01*
X199455Y197909D01*
X199492Y198016D01*
X199532Y198122D01*
X199577Y198226D01*
X199625Y198329D01*
X199676Y198430D01*
X199731Y198529D01*
X199789Y198626D01*
X199851Y198721D01*
X199916Y198814D01*
X199984Y198904D01*
X200055Y198992D01*
X200130Y199078D01*
X200207Y199161D01*
X200287Y199241D01*
X200370Y199318D01*
X200456Y199393D01*
X200544Y199464D01*
X200634Y199532D01*
X200727Y199597D01*
X200822Y199659D01*
X200919Y199717D01*
X201018Y199772D01*
X201119Y199823D01*
X201222Y199871D01*
X201326Y199916D01*
X201432Y199956D01*
X201539Y199993D01*
X201647Y200026D01*
X201757Y200056D01*
X201867Y200081D01*
X201978Y200103D01*
X202090Y200120D01*
X202203Y200134D01*
X202316Y200144D01*
X202429Y200150D01*
X202542Y200152D01*
X202655Y200150D01*
X202768Y200144D01*
X202881Y200134D01*
X202994Y200120D01*
X203106Y200103D01*
X203217Y200081D01*
X203327Y200056D01*
X203437Y200026D01*
X203545Y199993D01*
X203652Y199956D01*
X203758Y199916D01*
X203862Y199871D01*
X203965Y199823D01*
X204066Y199772D01*
X204165Y199717D01*
X204262Y199659D01*
X204357Y199597D01*
X204450Y199532D01*
X204540Y199464D01*
X204628Y199393D01*
X204714Y199318D01*
X204797Y199241D01*
X204877Y199161D01*
X204954Y199078D01*
X205029Y198992D01*
X205100Y198904D01*
X205168Y198814D01*
X205233Y198721D01*
X205295Y198626D01*
X205353Y198529D01*
X205408Y198430D01*
X205459Y198329D01*
X205507Y198226D01*
X205552Y198122D01*
X205592Y198016D01*
X205629Y197909D01*
X205662Y197801D01*
X205692Y197691D01*
X205717Y197581D01*
X205739Y197470D01*
X205756Y197358D01*
X205770Y197245D01*
X205780Y197132D01*
X205786Y197019D01*
X205788Y196906D01*
X205787Y196906D02*
X205787Y193661D01*
X205785Y193518D01*
X205779Y193375D01*
X205769Y193232D01*
X205755Y193090D01*
X205738Y192948D01*
X205716Y192806D01*
X205691Y192665D01*
X205661Y192525D01*
X205628Y192386D01*
X205591Y192248D01*
X205550Y192111D01*
X205506Y191975D01*
X205457Y191840D01*
X205405Y191707D01*
X205350Y191575D01*
X205290Y191445D01*
X205227Y191316D01*
X205161Y191189D01*
X205091Y191064D01*
X205018Y190942D01*
X204941Y190821D01*
X204861Y190702D01*
X204778Y190586D01*
X204692Y190471D01*
X204603Y190360D01*
X204510Y190250D01*
X204415Y190144D01*
X204316Y190040D01*
X204215Y189939D01*
X204111Y189840D01*
X204005Y189745D01*
X203895Y189652D01*
X203784Y189563D01*
X203669Y189477D01*
X203553Y189394D01*
X203434Y189314D01*
X203313Y189237D01*
X203190Y189164D01*
X203066Y189094D01*
X202939Y189028D01*
X202810Y188965D01*
X202680Y188905D01*
X202548Y188850D01*
X202415Y188798D01*
X202280Y188749D01*
X202144Y188705D01*
X202007Y188664D01*
X201869Y188627D01*
X201730Y188594D01*
X201590Y188564D01*
X201449Y188539D01*
X201307Y188517D01*
X201165Y188500D01*
X201023Y188486D01*
X200880Y188476D01*
X200737Y188470D01*
X200594Y188468D01*
D14*
X105040Y91720D02*
X27040Y91720D01*
X27040Y-280D02*
X105040Y-280D01*
X27040Y39720D02*
X27040Y66720D01*
X105040Y66720D02*
X105040Y39720D01*
X45040Y91720D02*
X34040Y91720D01*
X87040Y91720D02*
X98040Y91720D01*
D11*
X38641Y99728D02*
X36044Y99728D01*
X35945Y99730D01*
X35845Y99736D01*
X35746Y99745D01*
X35648Y99758D01*
X35550Y99775D01*
X35452Y99796D01*
X35356Y99821D01*
X35261Y99849D01*
X35167Y99881D01*
X35074Y99916D01*
X34982Y99955D01*
X34892Y99998D01*
X34804Y100043D01*
X34717Y100093D01*
X34633Y100145D01*
X34550Y100201D01*
X34470Y100259D01*
X34392Y100321D01*
X34317Y100386D01*
X34244Y100454D01*
X34174Y100524D01*
X34106Y100597D01*
X34041Y100672D01*
X33979Y100750D01*
X33921Y100830D01*
X33865Y100913D01*
X33813Y100997D01*
X33763Y101084D01*
X33718Y101172D01*
X33675Y101262D01*
X33636Y101354D01*
X33601Y101447D01*
X33569Y101541D01*
X33541Y101636D01*
X33516Y101732D01*
X33495Y101830D01*
X33478Y101928D01*
X33465Y102026D01*
X33456Y102125D01*
X33450Y102225D01*
X33448Y102324D01*
X33448Y108816D01*
X33450Y108915D01*
X33456Y109015D01*
X33465Y109114D01*
X33478Y109212D01*
X33495Y109310D01*
X33516Y109408D01*
X33541Y109504D01*
X33569Y109599D01*
X33601Y109693D01*
X33636Y109786D01*
X33675Y109878D01*
X33718Y109968D01*
X33763Y110056D01*
X33813Y110143D01*
X33865Y110227D01*
X33921Y110310D01*
X33979Y110390D01*
X34041Y110468D01*
X34106Y110543D01*
X34174Y110616D01*
X34244Y110686D01*
X34317Y110754D01*
X34392Y110819D01*
X34470Y110881D01*
X34550Y110939D01*
X34633Y110995D01*
X34717Y111047D01*
X34804Y111097D01*
X34892Y111142D01*
X34982Y111185D01*
X35074Y111224D01*
X35166Y111259D01*
X35261Y111291D01*
X35356Y111319D01*
X35452Y111344D01*
X35550Y111365D01*
X35648Y111382D01*
X35746Y111395D01*
X35845Y111404D01*
X35945Y111410D01*
X36044Y111412D01*
X38641Y111412D01*
X43387Y111412D02*
X43387Y99728D01*
X49878Y99728D02*
X43387Y111412D01*
X49878Y111412D02*
X49878Y99728D01*
X55198Y108816D02*
X58444Y111412D01*
X58444Y99728D01*
X61689Y99728D02*
X55198Y99728D01*
D10*
X39040Y55720D02*
X39042Y55861D01*
X39048Y56002D01*
X39058Y56142D01*
X39072Y56282D01*
X39090Y56422D01*
X39111Y56561D01*
X39137Y56700D01*
X39166Y56838D01*
X39200Y56974D01*
X39237Y57110D01*
X39278Y57245D01*
X39323Y57379D01*
X39372Y57511D01*
X39424Y57642D01*
X39480Y57771D01*
X39540Y57898D01*
X39603Y58024D01*
X39669Y58148D01*
X39740Y58271D01*
X39813Y58391D01*
X39890Y58509D01*
X39970Y58625D01*
X40054Y58738D01*
X40140Y58849D01*
X40230Y58958D01*
X40323Y59064D01*
X40418Y59167D01*
X40517Y59268D01*
X40618Y59366D01*
X40722Y59461D01*
X40829Y59553D01*
X40938Y59642D01*
X41050Y59727D01*
X41164Y59810D01*
X41280Y59890D01*
X41399Y59966D01*
X41520Y60038D01*
X41642Y60108D01*
X41767Y60173D01*
X41893Y60236D01*
X42021Y60294D01*
X42151Y60349D01*
X42282Y60401D01*
X42415Y60448D01*
X42549Y60492D01*
X42684Y60533D01*
X42820Y60569D01*
X42957Y60601D01*
X43095Y60630D01*
X43233Y60655D01*
X43373Y60675D01*
X43513Y60692D01*
X43653Y60705D01*
X43794Y60714D01*
X43934Y60719D01*
X44075Y60720D01*
X44216Y60717D01*
X44357Y60710D01*
X44497Y60699D01*
X44637Y60684D01*
X44777Y60665D01*
X44916Y60643D01*
X45054Y60616D01*
X45192Y60586D01*
X45328Y60551D01*
X45464Y60513D01*
X45598Y60471D01*
X45732Y60425D01*
X45864Y60376D01*
X45994Y60322D01*
X46123Y60265D01*
X46250Y60205D01*
X46376Y60141D01*
X46499Y60073D01*
X46621Y60002D01*
X46741Y59928D01*
X46858Y59850D01*
X46973Y59769D01*
X47086Y59685D01*
X47197Y59598D01*
X47305Y59507D01*
X47410Y59414D01*
X47513Y59317D01*
X47613Y59218D01*
X47710Y59116D01*
X47804Y59011D01*
X47895Y58904D01*
X47983Y58794D01*
X48068Y58682D01*
X48150Y58567D01*
X48229Y58450D01*
X48304Y58331D01*
X48376Y58210D01*
X48444Y58087D01*
X48509Y57962D01*
X48571Y57835D01*
X48628Y57706D01*
X48683Y57576D01*
X48733Y57445D01*
X48780Y57312D01*
X48823Y57178D01*
X48862Y57042D01*
X48897Y56906D01*
X48929Y56769D01*
X48956Y56631D01*
X48980Y56492D01*
X49000Y56352D01*
X49016Y56212D01*
X49028Y56072D01*
X49036Y55931D01*
X49040Y55790D01*
X49040Y55650D01*
X49036Y55509D01*
X49028Y55368D01*
X49016Y55228D01*
X49000Y55088D01*
X48980Y54948D01*
X48956Y54809D01*
X48929Y54671D01*
X48897Y54534D01*
X48862Y54398D01*
X48823Y54262D01*
X48780Y54128D01*
X48733Y53995D01*
X48683Y53864D01*
X48628Y53734D01*
X48571Y53605D01*
X48509Y53478D01*
X48444Y53353D01*
X48376Y53230D01*
X48304Y53109D01*
X48229Y52990D01*
X48150Y52873D01*
X48068Y52758D01*
X47983Y52646D01*
X47895Y52536D01*
X47804Y52429D01*
X47710Y52324D01*
X47613Y52222D01*
X47513Y52123D01*
X47410Y52026D01*
X47305Y51933D01*
X47197Y51842D01*
X47086Y51755D01*
X46973Y51671D01*
X46858Y51590D01*
X46741Y51512D01*
X46621Y51438D01*
X46499Y51367D01*
X46376Y51299D01*
X46250Y51235D01*
X46123Y51175D01*
X45994Y51118D01*
X45864Y51064D01*
X45732Y51015D01*
X45598Y50969D01*
X45464Y50927D01*
X45328Y50889D01*
X45192Y50854D01*
X45054Y50824D01*
X44916Y50797D01*
X44777Y50775D01*
X44637Y50756D01*
X44497Y50741D01*
X44357Y50730D01*
X44216Y50723D01*
X44075Y50720D01*
X43934Y50721D01*
X43794Y50726D01*
X43653Y50735D01*
X43513Y50748D01*
X43373Y50765D01*
X43233Y50785D01*
X43095Y50810D01*
X42957Y50839D01*
X42820Y50871D01*
X42684Y50907D01*
X42549Y50948D01*
X42415Y50992D01*
X42282Y51039D01*
X42151Y51091D01*
X42021Y51146D01*
X41893Y51204D01*
X41767Y51267D01*
X41642Y51332D01*
X41520Y51402D01*
X41399Y51474D01*
X41280Y51550D01*
X41164Y51630D01*
X41050Y51713D01*
X40938Y51798D01*
X40829Y51887D01*
X40722Y51979D01*
X40618Y52074D01*
X40517Y52172D01*
X40418Y52273D01*
X40323Y52376D01*
X40230Y52482D01*
X40140Y52591D01*
X40054Y52702D01*
X39970Y52815D01*
X39890Y52931D01*
X39813Y53049D01*
X39740Y53169D01*
X39669Y53292D01*
X39603Y53416D01*
X39540Y53542D01*
X39480Y53669D01*
X39424Y53798D01*
X39372Y53929D01*
X39323Y54061D01*
X39278Y54195D01*
X39237Y54330D01*
X39200Y54466D01*
X39166Y54602D01*
X39137Y54740D01*
X39111Y54879D01*
X39090Y55018D01*
X39072Y55158D01*
X39058Y55298D01*
X39048Y55438D01*
X39042Y55579D01*
X39040Y55720D01*
X83040Y55720D02*
X83042Y55861D01*
X83048Y56002D01*
X83058Y56142D01*
X83072Y56282D01*
X83090Y56422D01*
X83111Y56561D01*
X83137Y56700D01*
X83166Y56838D01*
X83200Y56974D01*
X83237Y57110D01*
X83278Y57245D01*
X83323Y57379D01*
X83372Y57511D01*
X83424Y57642D01*
X83480Y57771D01*
X83540Y57898D01*
X83603Y58024D01*
X83669Y58148D01*
X83740Y58271D01*
X83813Y58391D01*
X83890Y58509D01*
X83970Y58625D01*
X84054Y58738D01*
X84140Y58849D01*
X84230Y58958D01*
X84323Y59064D01*
X84418Y59167D01*
X84517Y59268D01*
X84618Y59366D01*
X84722Y59461D01*
X84829Y59553D01*
X84938Y59642D01*
X85050Y59727D01*
X85164Y59810D01*
X85280Y59890D01*
X85399Y59966D01*
X85520Y60038D01*
X85642Y60108D01*
X85767Y60173D01*
X85893Y60236D01*
X86021Y60294D01*
X86151Y60349D01*
X86282Y60401D01*
X86415Y60448D01*
X86549Y60492D01*
X86684Y60533D01*
X86820Y60569D01*
X86957Y60601D01*
X87095Y60630D01*
X87233Y60655D01*
X87373Y60675D01*
X87513Y60692D01*
X87653Y60705D01*
X87794Y60714D01*
X87934Y60719D01*
X88075Y60720D01*
X88216Y60717D01*
X88357Y60710D01*
X88497Y60699D01*
X88637Y60684D01*
X88777Y60665D01*
X88916Y60643D01*
X89054Y60616D01*
X89192Y60586D01*
X89328Y60551D01*
X89464Y60513D01*
X89598Y60471D01*
X89732Y60425D01*
X89864Y60376D01*
X89994Y60322D01*
X90123Y60265D01*
X90250Y60205D01*
X90376Y60141D01*
X90499Y60073D01*
X90621Y60002D01*
X90741Y59928D01*
X90858Y59850D01*
X90973Y59769D01*
X91086Y59685D01*
X91197Y59598D01*
X91305Y59507D01*
X91410Y59414D01*
X91513Y59317D01*
X91613Y59218D01*
X91710Y59116D01*
X91804Y59011D01*
X91895Y58904D01*
X91983Y58794D01*
X92068Y58682D01*
X92150Y58567D01*
X92229Y58450D01*
X92304Y58331D01*
X92376Y58210D01*
X92444Y58087D01*
X92509Y57962D01*
X92571Y57835D01*
X92628Y57706D01*
X92683Y57576D01*
X92733Y57445D01*
X92780Y57312D01*
X92823Y57178D01*
X92862Y57042D01*
X92897Y56906D01*
X92929Y56769D01*
X92956Y56631D01*
X92980Y56492D01*
X93000Y56352D01*
X93016Y56212D01*
X93028Y56072D01*
X93036Y55931D01*
X93040Y55790D01*
X93040Y55650D01*
X93036Y55509D01*
X93028Y55368D01*
X93016Y55228D01*
X93000Y55088D01*
X92980Y54948D01*
X92956Y54809D01*
X92929Y54671D01*
X92897Y54534D01*
X92862Y54398D01*
X92823Y54262D01*
X92780Y54128D01*
X92733Y53995D01*
X92683Y53864D01*
X92628Y53734D01*
X92571Y53605D01*
X92509Y53478D01*
X92444Y53353D01*
X92376Y53230D01*
X92304Y53109D01*
X92229Y52990D01*
X92150Y52873D01*
X92068Y52758D01*
X91983Y52646D01*
X91895Y52536D01*
X91804Y52429D01*
X91710Y52324D01*
X91613Y52222D01*
X91513Y52123D01*
X91410Y52026D01*
X91305Y51933D01*
X91197Y51842D01*
X91086Y51755D01*
X90973Y51671D01*
X90858Y51590D01*
X90741Y51512D01*
X90621Y51438D01*
X90499Y51367D01*
X90376Y51299D01*
X90250Y51235D01*
X90123Y51175D01*
X89994Y51118D01*
X89864Y51064D01*
X89732Y51015D01*
X89598Y50969D01*
X89464Y50927D01*
X89328Y50889D01*
X89192Y50854D01*
X89054Y50824D01*
X88916Y50797D01*
X88777Y50775D01*
X88637Y50756D01*
X88497Y50741D01*
X88357Y50730D01*
X88216Y50723D01*
X88075Y50720D01*
X87934Y50721D01*
X87794Y50726D01*
X87653Y50735D01*
X87513Y50748D01*
X87373Y50765D01*
X87233Y50785D01*
X87095Y50810D01*
X86957Y50839D01*
X86820Y50871D01*
X86684Y50907D01*
X86549Y50948D01*
X86415Y50992D01*
X86282Y51039D01*
X86151Y51091D01*
X86021Y51146D01*
X85893Y51204D01*
X85767Y51267D01*
X85642Y51332D01*
X85520Y51402D01*
X85399Y51474D01*
X85280Y51550D01*
X85164Y51630D01*
X85050Y51713D01*
X84938Y51798D01*
X84829Y51887D01*
X84722Y51979D01*
X84618Y52074D01*
X84517Y52172D01*
X84418Y52273D01*
X84323Y52376D01*
X84230Y52482D01*
X84140Y52591D01*
X84054Y52702D01*
X83970Y52815D01*
X83890Y52931D01*
X83813Y53049D01*
X83740Y53169D01*
X83669Y53292D01*
X83603Y53416D01*
X83540Y53542D01*
X83480Y53669D01*
X83424Y53798D01*
X83372Y53929D01*
X83323Y54061D01*
X83278Y54195D01*
X83237Y54330D01*
X83200Y54466D01*
X83166Y54602D01*
X83137Y54740D01*
X83111Y54879D01*
X83090Y55018D01*
X83072Y55158D01*
X83058Y55298D01*
X83048Y55438D01*
X83042Y55579D01*
X83040Y55720D01*
D14*
X129540Y375920D02*
X165100Y375920D01*
X165100Y360680D01*
X129540Y360680D01*
X129540Y375920D01*
D15*
X136447Y378427D02*
X136447Y382237D01*
X137505Y382237D01*
X137569Y382235D01*
X137633Y382229D01*
X137696Y382220D01*
X137758Y382206D01*
X137820Y382189D01*
X137880Y382168D01*
X137939Y382144D01*
X137997Y382116D01*
X138052Y382084D01*
X138106Y382050D01*
X138157Y382012D01*
X138207Y381971D01*
X138253Y381927D01*
X138297Y381881D01*
X138338Y381831D01*
X138376Y381780D01*
X138410Y381726D01*
X138442Y381671D01*
X138470Y381613D01*
X138494Y381554D01*
X138515Y381494D01*
X138532Y381432D01*
X138546Y381370D01*
X138555Y381307D01*
X138561Y381243D01*
X138563Y381179D01*
X138564Y381179D02*
X138564Y379485D01*
X138563Y379485D02*
X138561Y379421D01*
X138555Y379357D01*
X138546Y379294D01*
X138532Y379232D01*
X138515Y379170D01*
X138494Y379110D01*
X138470Y379051D01*
X138442Y378993D01*
X138410Y378938D01*
X138376Y378884D01*
X138338Y378833D01*
X138297Y378783D01*
X138253Y378737D01*
X138207Y378693D01*
X138157Y378652D01*
X138106Y378614D01*
X138052Y378580D01*
X137997Y378548D01*
X137939Y378520D01*
X137880Y378496D01*
X137820Y378475D01*
X137758Y378458D01*
X137696Y378444D01*
X137633Y378435D01*
X137569Y378429D01*
X137505Y378427D01*
X136447Y378427D01*
X140227Y381390D02*
X141285Y382237D01*
X141285Y378427D01*
X140227Y378427D02*
X142343Y378427D01*
D12*
X479982Y391762D02*
X479982Y398366D01*
X481816Y398366D01*
X481901Y398364D01*
X481985Y398358D01*
X482069Y398348D01*
X482153Y398335D01*
X482236Y398317D01*
X482318Y398296D01*
X482399Y398271D01*
X482479Y398242D01*
X482557Y398210D01*
X482633Y398174D01*
X482708Y398134D01*
X482781Y398091D01*
X482852Y398045D01*
X482921Y397996D01*
X482988Y397943D01*
X483052Y397887D01*
X483113Y397829D01*
X483171Y397768D01*
X483227Y397704D01*
X483280Y397637D01*
X483329Y397568D01*
X483375Y397497D01*
X483418Y397424D01*
X483458Y397349D01*
X483494Y397273D01*
X483526Y397195D01*
X483555Y397115D01*
X483580Y397034D01*
X483601Y396952D01*
X483619Y396869D01*
X483632Y396785D01*
X483642Y396701D01*
X483648Y396617D01*
X483650Y396532D01*
X483651Y396532D02*
X483651Y393596D01*
X483650Y393596D02*
X483648Y393511D01*
X483642Y393427D01*
X483632Y393343D01*
X483619Y393259D01*
X483601Y393176D01*
X483580Y393094D01*
X483555Y393013D01*
X483526Y392933D01*
X483494Y392855D01*
X483458Y392779D01*
X483418Y392704D01*
X483375Y392631D01*
X483329Y392560D01*
X483280Y392491D01*
X483227Y392424D01*
X483171Y392360D01*
X483113Y392299D01*
X483052Y392241D01*
X482988Y392185D01*
X482921Y392132D01*
X482852Y392083D01*
X482781Y392037D01*
X482708Y391994D01*
X482633Y391954D01*
X482557Y391918D01*
X482479Y391886D01*
X482399Y391857D01*
X482318Y391832D01*
X482236Y391811D01*
X482153Y391793D01*
X482069Y391780D01*
X481985Y391770D01*
X481901Y391764D01*
X481816Y391762D01*
X479982Y391762D01*
X489559Y398366D02*
X489638Y398364D01*
X489716Y398359D01*
X489794Y398349D01*
X489871Y398336D01*
X489948Y398319D01*
X490024Y398299D01*
X490099Y398275D01*
X490173Y398248D01*
X490245Y398217D01*
X490316Y398182D01*
X490385Y398145D01*
X490452Y398104D01*
X490517Y398060D01*
X490580Y398013D01*
X490640Y397963D01*
X490698Y397910D01*
X490754Y397854D01*
X490807Y397796D01*
X490857Y397736D01*
X490904Y397673D01*
X490948Y397608D01*
X490989Y397541D01*
X491026Y397472D01*
X491061Y397401D01*
X491092Y397329D01*
X491119Y397255D01*
X491143Y397180D01*
X491163Y397104D01*
X491180Y397027D01*
X491193Y396950D01*
X491203Y396872D01*
X491208Y396794D01*
X491210Y396715D01*
X489559Y398366D02*
X489470Y398364D01*
X489381Y398359D01*
X489293Y398349D01*
X489205Y398336D01*
X489118Y398320D01*
X489031Y398299D01*
X488946Y398275D01*
X488861Y398248D01*
X488778Y398217D01*
X488696Y398182D01*
X488615Y398144D01*
X488536Y398103D01*
X488460Y398059D01*
X488384Y398011D01*
X488311Y397960D01*
X488241Y397907D01*
X488172Y397850D01*
X488106Y397790D01*
X488043Y397728D01*
X487982Y397663D01*
X487924Y397596D01*
X487869Y397526D01*
X487816Y397454D01*
X487767Y397380D01*
X487721Y397304D01*
X487679Y397226D01*
X487639Y397146D01*
X487603Y397065D01*
X487570Y396982D01*
X487541Y396898D01*
X490660Y395431D02*
X490716Y395487D01*
X490770Y395546D01*
X490821Y395607D01*
X490870Y395671D01*
X490915Y395736D01*
X490958Y395804D01*
X490997Y395873D01*
X491034Y395944D01*
X491067Y396017D01*
X491096Y396091D01*
X491123Y396166D01*
X491146Y396242D01*
X491165Y396320D01*
X491181Y396398D01*
X491194Y396476D01*
X491203Y396556D01*
X491208Y396635D01*
X491210Y396715D01*
X490660Y395431D02*
X487541Y391762D01*
X491210Y391762D01*
D16*
X500220Y388000D02*
X480220Y388000D01*
X480220Y374000D02*
X500220Y374000D01*
X493720Y385000D02*
X487720Y381000D01*
X493720Y385000D02*
X493720Y377000D01*
X487720Y381000D01*
D17*
X486720Y381000D03*
D16*
X88646Y287274D02*
X88650Y227330D01*
X23110Y227330D01*
X23114Y287274D01*
D11*
X17272Y225326D02*
X5588Y225326D01*
X17272Y224028D02*
X17272Y226624D01*
X5588Y226624D02*
X5588Y224028D01*
X17272Y233788D02*
X17272Y236384D01*
X17272Y233788D02*
X17270Y233689D01*
X17264Y233589D01*
X17255Y233490D01*
X17242Y233392D01*
X17225Y233294D01*
X17204Y233196D01*
X17179Y233100D01*
X17151Y233005D01*
X17119Y232911D01*
X17084Y232818D01*
X17045Y232726D01*
X17002Y232636D01*
X16957Y232548D01*
X16907Y232461D01*
X16855Y232377D01*
X16799Y232294D01*
X16741Y232214D01*
X16679Y232136D01*
X16614Y232061D01*
X16546Y231988D01*
X16476Y231918D01*
X16403Y231850D01*
X16328Y231785D01*
X16250Y231723D01*
X16170Y231665D01*
X16087Y231609D01*
X16003Y231557D01*
X15916Y231507D01*
X15828Y231462D01*
X15738Y231419D01*
X15646Y231380D01*
X15553Y231345D01*
X15459Y231313D01*
X15364Y231285D01*
X15268Y231260D01*
X15170Y231239D01*
X15072Y231222D01*
X14974Y231209D01*
X14875Y231200D01*
X14775Y231194D01*
X14676Y231192D01*
X14676Y231191D02*
X8184Y231191D01*
X8085Y231193D01*
X7985Y231199D01*
X7886Y231208D01*
X7788Y231221D01*
X7690Y231239D01*
X7592Y231259D01*
X7496Y231284D01*
X7400Y231312D01*
X7306Y231344D01*
X7213Y231379D01*
X7122Y231418D01*
X7032Y231461D01*
X6943Y231506D01*
X6857Y231556D01*
X6772Y231608D01*
X6690Y231664D01*
X6610Y231723D01*
X6532Y231784D01*
X6456Y231849D01*
X6383Y231917D01*
X6313Y231987D01*
X6245Y232060D01*
X6180Y232136D01*
X6119Y232214D01*
X6060Y232294D01*
X6004Y232376D01*
X5952Y232461D01*
X5903Y232547D01*
X5857Y232636D01*
X5814Y232726D01*
X5775Y232817D01*
X5740Y232910D01*
X5708Y233004D01*
X5680Y233100D01*
X5655Y233196D01*
X5635Y233294D01*
X5617Y233392D01*
X5604Y233490D01*
X5595Y233589D01*
X5589Y233688D01*
X5587Y233788D01*
X5588Y233788D02*
X5588Y236384D01*
X8184Y240750D02*
X5588Y243995D01*
X17272Y243995D01*
X17272Y240750D02*
X17272Y247241D01*
D18*
X55880Y222504D03*
D16*
X312420Y82550D02*
X318770Y76200D01*
X331470Y76200D02*
X337820Y82550D01*
X344170Y76200D01*
X356870Y76200D02*
X363220Y82550D01*
X369570Y76200D01*
X382270Y76200D02*
X388620Y82550D01*
X312420Y82550D02*
X312420Y120650D01*
X318770Y127000D01*
X331470Y127000D01*
X337820Y120650D01*
X344170Y127000D01*
X356870Y127000D01*
X363220Y120650D01*
X369570Y127000D01*
X382270Y127000D01*
X388620Y120650D01*
X337820Y120650D02*
X337820Y82550D01*
X363220Y82550D02*
X363220Y120650D01*
X388620Y120650D02*
X388620Y82550D01*
X382270Y76200D02*
X369570Y76200D01*
X356870Y76200D02*
X344170Y76200D01*
X331470Y76200D02*
X318770Y76200D01*
X318770Y72850D02*
X331470Y72850D01*
D14*
X314664Y131247D02*
X314664Y135001D01*
X314663Y131247D02*
X314661Y131182D01*
X314655Y131118D01*
X314645Y131054D01*
X314632Y130990D01*
X314614Y130928D01*
X314593Y130867D01*
X314569Y130807D01*
X314540Y130749D01*
X314508Y130692D01*
X314473Y130638D01*
X314435Y130586D01*
X314393Y130536D01*
X314349Y130489D01*
X314302Y130445D01*
X314252Y130403D01*
X314200Y130365D01*
X314146Y130330D01*
X314089Y130298D01*
X314031Y130269D01*
X313971Y130245D01*
X313910Y130224D01*
X313848Y130206D01*
X313784Y130193D01*
X313720Y130183D01*
X313656Y130177D01*
X313591Y130175D01*
X313055Y130175D01*
X317612Y130175D02*
X318952Y130175D01*
X319023Y130177D01*
X319095Y130183D01*
X319165Y130192D01*
X319235Y130205D01*
X319305Y130222D01*
X319373Y130243D01*
X319440Y130267D01*
X319506Y130295D01*
X319570Y130326D01*
X319633Y130361D01*
X319693Y130399D01*
X319752Y130440D01*
X319808Y130484D01*
X319862Y130531D01*
X319913Y130580D01*
X319961Y130633D01*
X320007Y130688D01*
X320049Y130745D01*
X320089Y130805D01*
X320125Y130866D01*
X320158Y130930D01*
X320187Y130995D01*
X320213Y131061D01*
X320236Y131129D01*
X320255Y131198D01*
X320270Y131268D01*
X320281Y131338D01*
X320289Y131409D01*
X320293Y131480D01*
X320293Y131552D01*
X320289Y131623D01*
X320281Y131694D01*
X320270Y131764D01*
X320255Y131834D01*
X320236Y131903D01*
X320213Y131971D01*
X320187Y132037D01*
X320158Y132102D01*
X320125Y132166D01*
X320089Y132227D01*
X320049Y132287D01*
X320007Y132344D01*
X319961Y132399D01*
X319913Y132452D01*
X319862Y132501D01*
X319808Y132548D01*
X319752Y132592D01*
X319693Y132633D01*
X319633Y132671D01*
X319570Y132706D01*
X319506Y132737D01*
X319440Y132765D01*
X319373Y132789D01*
X319305Y132810D01*
X319235Y132827D01*
X319165Y132840D01*
X319095Y132849D01*
X319023Y132855D01*
X318952Y132857D01*
X319220Y135001D02*
X317612Y135001D01*
X319220Y135001D02*
X319285Y134999D01*
X319349Y134993D01*
X319413Y134983D01*
X319477Y134970D01*
X319539Y134952D01*
X319600Y134931D01*
X319660Y134907D01*
X319718Y134878D01*
X319775Y134846D01*
X319829Y134811D01*
X319881Y134773D01*
X319931Y134731D01*
X319978Y134687D01*
X320022Y134640D01*
X320064Y134590D01*
X320102Y134538D01*
X320137Y134484D01*
X320169Y134427D01*
X320198Y134369D01*
X320222Y134309D01*
X320243Y134248D01*
X320261Y134186D01*
X320274Y134122D01*
X320284Y134058D01*
X320290Y133994D01*
X320292Y133929D01*
X320290Y133864D01*
X320284Y133800D01*
X320274Y133736D01*
X320261Y133672D01*
X320243Y133610D01*
X320222Y133549D01*
X320198Y133489D01*
X320169Y133431D01*
X320137Y133374D01*
X320102Y133320D01*
X320064Y133268D01*
X320022Y133218D01*
X319978Y133171D01*
X319931Y133127D01*
X319881Y133085D01*
X319829Y133047D01*
X319775Y133012D01*
X319718Y132980D01*
X319660Y132951D01*
X319600Y132927D01*
X319539Y132906D01*
X319477Y132888D01*
X319413Y132875D01*
X319349Y132865D01*
X319285Y132859D01*
X319220Y132857D01*
X319220Y132856D02*
X318148Y132856D01*
D11*
X223012Y241808D02*
X211328Y241808D01*
X223012Y241808D02*
X223012Y247001D01*
X223012Y251714D02*
X223012Y256907D01*
X223012Y251714D02*
X211328Y251714D01*
X211328Y256907D01*
X216521Y255609D02*
X216521Y251714D01*
X211328Y261597D02*
X223012Y261597D01*
X211328Y261597D02*
X211328Y264843D01*
X211330Y264956D01*
X211336Y265069D01*
X211346Y265182D01*
X211360Y265295D01*
X211377Y265407D01*
X211399Y265518D01*
X211424Y265628D01*
X211454Y265738D01*
X211487Y265846D01*
X211524Y265953D01*
X211564Y266059D01*
X211609Y266163D01*
X211657Y266266D01*
X211708Y266367D01*
X211763Y266466D01*
X211821Y266563D01*
X211883Y266658D01*
X211948Y266751D01*
X212016Y266841D01*
X212087Y266929D01*
X212162Y267015D01*
X212239Y267098D01*
X212319Y267178D01*
X212402Y267255D01*
X212488Y267330D01*
X212576Y267401D01*
X212666Y267469D01*
X212759Y267534D01*
X212854Y267596D01*
X212951Y267654D01*
X213050Y267709D01*
X213151Y267760D01*
X213254Y267808D01*
X213358Y267853D01*
X213464Y267893D01*
X213571Y267930D01*
X213679Y267963D01*
X213789Y267993D01*
X213899Y268018D01*
X214010Y268040D01*
X214122Y268057D01*
X214235Y268071D01*
X214348Y268081D01*
X214461Y268087D01*
X214574Y268089D01*
X219766Y268089D01*
X219879Y268087D01*
X219992Y268081D01*
X220105Y268071D01*
X220218Y268057D01*
X220330Y268040D01*
X220441Y268018D01*
X220551Y267993D01*
X220661Y267963D01*
X220769Y267930D01*
X220876Y267893D01*
X220982Y267853D01*
X221086Y267808D01*
X221189Y267760D01*
X221290Y267709D01*
X221389Y267654D01*
X221486Y267596D01*
X221581Y267534D01*
X221674Y267469D01*
X221764Y267401D01*
X221852Y267330D01*
X221938Y267255D01*
X222021Y267178D01*
X222101Y267098D01*
X222178Y267015D01*
X222253Y266929D01*
X222324Y266841D01*
X222392Y266751D01*
X222457Y266658D01*
X222519Y266563D01*
X222577Y266466D01*
X222632Y266367D01*
X222683Y266266D01*
X222731Y266163D01*
X222776Y266059D01*
X222816Y265953D01*
X222853Y265846D01*
X222886Y265738D01*
X222916Y265628D01*
X222941Y265518D01*
X222963Y265407D01*
X222980Y265295D01*
X222994Y265182D01*
X223004Y265069D01*
X223010Y264956D01*
X223012Y264843D01*
X223012Y261597D01*
X213924Y273408D02*
X211328Y276654D01*
X223012Y276654D01*
X223012Y279899D02*
X223012Y273408D01*
D19*
X236220Y255000D03*
D11*
X172212Y241808D02*
X160528Y241808D01*
X172212Y241808D02*
X172212Y247001D01*
X172212Y251714D02*
X172212Y256907D01*
X172212Y251714D02*
X160528Y251714D01*
X160528Y256907D01*
X165721Y255609D02*
X165721Y251714D01*
X160528Y261597D02*
X172212Y261597D01*
X160528Y261597D02*
X160528Y264843D01*
X160530Y264956D01*
X160536Y265069D01*
X160546Y265182D01*
X160560Y265295D01*
X160577Y265407D01*
X160599Y265518D01*
X160624Y265628D01*
X160654Y265738D01*
X160687Y265846D01*
X160724Y265953D01*
X160764Y266059D01*
X160809Y266163D01*
X160857Y266266D01*
X160908Y266367D01*
X160963Y266466D01*
X161021Y266563D01*
X161083Y266658D01*
X161148Y266751D01*
X161216Y266841D01*
X161287Y266929D01*
X161362Y267015D01*
X161439Y267098D01*
X161519Y267178D01*
X161602Y267255D01*
X161688Y267330D01*
X161776Y267401D01*
X161866Y267469D01*
X161959Y267534D01*
X162054Y267596D01*
X162151Y267654D01*
X162250Y267709D01*
X162351Y267760D01*
X162454Y267808D01*
X162558Y267853D01*
X162664Y267893D01*
X162771Y267930D01*
X162879Y267963D01*
X162989Y267993D01*
X163099Y268018D01*
X163210Y268040D01*
X163322Y268057D01*
X163435Y268071D01*
X163548Y268081D01*
X163661Y268087D01*
X163774Y268089D01*
X168966Y268089D01*
X169079Y268087D01*
X169192Y268081D01*
X169305Y268071D01*
X169418Y268057D01*
X169530Y268040D01*
X169641Y268018D01*
X169751Y267993D01*
X169861Y267963D01*
X169969Y267930D01*
X170076Y267893D01*
X170182Y267853D01*
X170286Y267808D01*
X170389Y267760D01*
X170490Y267709D01*
X170589Y267654D01*
X170686Y267596D01*
X170781Y267534D01*
X170874Y267469D01*
X170964Y267401D01*
X171052Y267330D01*
X171138Y267255D01*
X171221Y267178D01*
X171301Y267098D01*
X171378Y267015D01*
X171453Y266929D01*
X171524Y266841D01*
X171592Y266751D01*
X171657Y266658D01*
X171719Y266563D01*
X171777Y266466D01*
X171832Y266367D01*
X171883Y266266D01*
X171931Y266163D01*
X171976Y266059D01*
X172016Y265953D01*
X172053Y265846D01*
X172086Y265738D01*
X172116Y265628D01*
X172141Y265518D01*
X172163Y265407D01*
X172180Y265295D01*
X172194Y265182D01*
X172204Y265069D01*
X172210Y264956D01*
X172212Y264843D01*
X172212Y261597D01*
X160528Y276978D02*
X160530Y277085D01*
X160536Y277191D01*
X160546Y277297D01*
X160559Y277403D01*
X160577Y277509D01*
X160598Y277613D01*
X160623Y277717D01*
X160652Y277820D01*
X160684Y277921D01*
X160721Y278021D01*
X160761Y278120D01*
X160804Y278218D01*
X160851Y278314D01*
X160902Y278408D01*
X160956Y278500D01*
X161013Y278590D01*
X161073Y278678D01*
X161137Y278763D01*
X161204Y278846D01*
X161274Y278927D01*
X161346Y279005D01*
X161422Y279081D01*
X161500Y279153D01*
X161581Y279223D01*
X161664Y279290D01*
X161749Y279354D01*
X161837Y279414D01*
X161927Y279471D01*
X162019Y279525D01*
X162113Y279576D01*
X162209Y279623D01*
X162307Y279666D01*
X162406Y279706D01*
X162506Y279743D01*
X162607Y279775D01*
X162710Y279804D01*
X162814Y279829D01*
X162918Y279850D01*
X163024Y279868D01*
X163130Y279881D01*
X163236Y279891D01*
X163342Y279897D01*
X163449Y279899D01*
X160528Y276978D02*
X160530Y276857D01*
X160536Y276736D01*
X160546Y276616D01*
X160559Y276495D01*
X160577Y276376D01*
X160598Y276256D01*
X160623Y276138D01*
X160652Y276021D01*
X160685Y275904D01*
X160721Y275789D01*
X160762Y275675D01*
X160805Y275562D01*
X160853Y275450D01*
X160904Y275341D01*
X160959Y275233D01*
X161017Y275126D01*
X161078Y275022D01*
X161143Y274920D01*
X161211Y274820D01*
X161282Y274722D01*
X161356Y274626D01*
X161433Y274533D01*
X161514Y274443D01*
X161597Y274355D01*
X161683Y274270D01*
X161772Y274187D01*
X161863Y274108D01*
X161957Y274031D01*
X162053Y273958D01*
X162151Y273888D01*
X162252Y273821D01*
X162355Y273757D01*
X162460Y273697D01*
X162567Y273639D01*
X162675Y273586D01*
X162785Y273536D01*
X162897Y273490D01*
X163010Y273447D01*
X163125Y273408D01*
X165721Y278925D02*
X165643Y279004D01*
X165563Y279080D01*
X165480Y279153D01*
X165394Y279223D01*
X165307Y279290D01*
X165216Y279354D01*
X165124Y279414D01*
X165030Y279472D01*
X164933Y279526D01*
X164835Y279576D01*
X164735Y279623D01*
X164634Y279667D01*
X164531Y279707D01*
X164426Y279743D01*
X164321Y279775D01*
X164214Y279804D01*
X164107Y279829D01*
X163998Y279851D01*
X163889Y279868D01*
X163780Y279882D01*
X163670Y279891D01*
X163559Y279897D01*
X163449Y279899D01*
X165721Y278926D02*
X172212Y273408D01*
X172212Y279899D01*
D19*
X185420Y255000D03*
D11*
X121412Y241808D02*
X109728Y241808D01*
X121412Y241808D02*
X121412Y247001D01*
X121412Y251714D02*
X121412Y256907D01*
X121412Y251714D02*
X109728Y251714D01*
X109728Y256907D01*
X114921Y255609D02*
X114921Y251714D01*
X109728Y261597D02*
X121412Y261597D01*
X109728Y261597D02*
X109728Y264843D01*
X109730Y264956D01*
X109736Y265069D01*
X109746Y265182D01*
X109760Y265295D01*
X109777Y265407D01*
X109799Y265518D01*
X109824Y265628D01*
X109854Y265738D01*
X109887Y265846D01*
X109924Y265953D01*
X109964Y266059D01*
X110009Y266163D01*
X110057Y266266D01*
X110108Y266367D01*
X110163Y266466D01*
X110221Y266563D01*
X110283Y266658D01*
X110348Y266751D01*
X110416Y266841D01*
X110487Y266929D01*
X110562Y267015D01*
X110639Y267098D01*
X110719Y267178D01*
X110802Y267255D01*
X110888Y267330D01*
X110976Y267401D01*
X111066Y267469D01*
X111159Y267534D01*
X111254Y267596D01*
X111351Y267654D01*
X111450Y267709D01*
X111551Y267760D01*
X111654Y267808D01*
X111758Y267853D01*
X111864Y267893D01*
X111971Y267930D01*
X112079Y267963D01*
X112189Y267993D01*
X112299Y268018D01*
X112410Y268040D01*
X112522Y268057D01*
X112635Y268071D01*
X112748Y268081D01*
X112861Y268087D01*
X112974Y268089D01*
X118166Y268089D01*
X118279Y268087D01*
X118392Y268081D01*
X118505Y268071D01*
X118618Y268057D01*
X118730Y268040D01*
X118841Y268018D01*
X118951Y267993D01*
X119061Y267963D01*
X119169Y267930D01*
X119276Y267893D01*
X119382Y267853D01*
X119486Y267808D01*
X119589Y267760D01*
X119690Y267709D01*
X119789Y267654D01*
X119886Y267596D01*
X119981Y267534D01*
X120074Y267469D01*
X120164Y267401D01*
X120252Y267330D01*
X120338Y267255D01*
X120421Y267178D01*
X120501Y267098D01*
X120578Y267015D01*
X120653Y266929D01*
X120724Y266841D01*
X120792Y266751D01*
X120857Y266658D01*
X120919Y266563D01*
X120977Y266466D01*
X121032Y266367D01*
X121083Y266266D01*
X121131Y266163D01*
X121176Y266059D01*
X121216Y265953D01*
X121253Y265846D01*
X121286Y265738D01*
X121316Y265628D01*
X121341Y265518D01*
X121363Y265407D01*
X121380Y265295D01*
X121394Y265182D01*
X121404Y265069D01*
X121410Y264956D01*
X121412Y264843D01*
X121412Y261597D01*
X121412Y273408D02*
X121412Y276654D01*
X121410Y276767D01*
X121404Y276880D01*
X121394Y276993D01*
X121380Y277106D01*
X121363Y277218D01*
X121341Y277329D01*
X121316Y277439D01*
X121286Y277549D01*
X121253Y277657D01*
X121216Y277764D01*
X121176Y277870D01*
X121131Y277974D01*
X121083Y278077D01*
X121032Y278178D01*
X120977Y278277D01*
X120919Y278374D01*
X120857Y278469D01*
X120792Y278562D01*
X120724Y278652D01*
X120653Y278740D01*
X120578Y278826D01*
X120501Y278909D01*
X120421Y278989D01*
X120338Y279066D01*
X120252Y279141D01*
X120164Y279212D01*
X120074Y279280D01*
X119981Y279345D01*
X119886Y279407D01*
X119789Y279465D01*
X119690Y279520D01*
X119589Y279571D01*
X119486Y279619D01*
X119382Y279664D01*
X119276Y279704D01*
X119169Y279741D01*
X119061Y279774D01*
X118951Y279804D01*
X118841Y279829D01*
X118730Y279851D01*
X118618Y279868D01*
X118505Y279882D01*
X118392Y279892D01*
X118279Y279898D01*
X118166Y279900D01*
X118053Y279898D01*
X117940Y279892D01*
X117827Y279882D01*
X117714Y279868D01*
X117602Y279851D01*
X117491Y279829D01*
X117381Y279804D01*
X117271Y279774D01*
X117163Y279741D01*
X117056Y279704D01*
X116950Y279664D01*
X116846Y279619D01*
X116743Y279571D01*
X116642Y279520D01*
X116543Y279465D01*
X116446Y279407D01*
X116351Y279345D01*
X116258Y279280D01*
X116168Y279212D01*
X116080Y279141D01*
X115994Y279066D01*
X115911Y278989D01*
X115831Y278909D01*
X115754Y278826D01*
X115679Y278740D01*
X115608Y278652D01*
X115540Y278562D01*
X115475Y278469D01*
X115413Y278374D01*
X115355Y278277D01*
X115300Y278178D01*
X115249Y278077D01*
X115201Y277974D01*
X115156Y277870D01*
X115116Y277764D01*
X115079Y277657D01*
X115046Y277549D01*
X115016Y277439D01*
X114991Y277329D01*
X114969Y277218D01*
X114952Y277106D01*
X114938Y276993D01*
X114928Y276880D01*
X114922Y276767D01*
X114920Y276654D01*
X109728Y277303D02*
X109728Y273408D01*
X109728Y277303D02*
X109730Y277404D01*
X109736Y277504D01*
X109746Y277604D01*
X109759Y277704D01*
X109777Y277803D01*
X109798Y277902D01*
X109823Y277999D01*
X109852Y278096D01*
X109885Y278191D01*
X109921Y278285D01*
X109961Y278377D01*
X110004Y278468D01*
X110051Y278557D01*
X110101Y278644D01*
X110155Y278730D01*
X110212Y278813D01*
X110272Y278893D01*
X110335Y278972D01*
X110402Y279048D01*
X110471Y279121D01*
X110543Y279191D01*
X110617Y279259D01*
X110694Y279324D01*
X110774Y279385D01*
X110856Y279444D01*
X110940Y279499D01*
X111026Y279551D01*
X111114Y279600D01*
X111204Y279645D01*
X111296Y279687D01*
X111389Y279725D01*
X111484Y279759D01*
X111579Y279790D01*
X111676Y279817D01*
X111774Y279840D01*
X111873Y279860D01*
X111973Y279875D01*
X112073Y279887D01*
X112173Y279895D01*
X112274Y279899D01*
X112374Y279899D01*
X112475Y279895D01*
X112575Y279887D01*
X112675Y279875D01*
X112775Y279860D01*
X112874Y279840D01*
X112972Y279817D01*
X113069Y279790D01*
X113164Y279759D01*
X113259Y279725D01*
X113352Y279687D01*
X113444Y279645D01*
X113534Y279600D01*
X113622Y279551D01*
X113708Y279499D01*
X113792Y279444D01*
X113874Y279385D01*
X113954Y279324D01*
X114031Y279259D01*
X114105Y279191D01*
X114177Y279121D01*
X114246Y279048D01*
X114313Y278972D01*
X114376Y278893D01*
X114436Y278813D01*
X114493Y278730D01*
X114547Y278644D01*
X114597Y278557D01*
X114644Y278468D01*
X114687Y278377D01*
X114727Y278285D01*
X114763Y278191D01*
X114796Y278096D01*
X114825Y277999D01*
X114850Y277902D01*
X114871Y277803D01*
X114889Y277704D01*
X114902Y277604D01*
X114912Y277504D01*
X114918Y277404D01*
X114920Y277303D01*
X114921Y277303D02*
X114921Y274707D01*
D19*
X134620Y255000D03*
D11*
X478028Y305308D02*
X489712Y305308D01*
X489712Y310501D01*
X489712Y315214D02*
X489712Y320407D01*
X489712Y315214D02*
X478028Y315214D01*
X478028Y320407D01*
X483221Y319109D02*
X483221Y315214D01*
X478028Y325097D02*
X489712Y325097D01*
X478028Y325097D02*
X478028Y328343D01*
X478030Y328456D01*
X478036Y328569D01*
X478046Y328682D01*
X478060Y328795D01*
X478077Y328907D01*
X478099Y329018D01*
X478124Y329128D01*
X478154Y329238D01*
X478187Y329346D01*
X478224Y329453D01*
X478264Y329559D01*
X478309Y329663D01*
X478357Y329766D01*
X478408Y329867D01*
X478463Y329966D01*
X478521Y330063D01*
X478583Y330158D01*
X478648Y330251D01*
X478716Y330341D01*
X478787Y330429D01*
X478862Y330515D01*
X478939Y330598D01*
X479019Y330678D01*
X479102Y330755D01*
X479188Y330830D01*
X479276Y330901D01*
X479366Y330969D01*
X479459Y331034D01*
X479554Y331096D01*
X479651Y331154D01*
X479750Y331209D01*
X479851Y331260D01*
X479954Y331308D01*
X480058Y331353D01*
X480164Y331393D01*
X480271Y331430D01*
X480379Y331463D01*
X480489Y331493D01*
X480599Y331518D01*
X480710Y331540D01*
X480822Y331557D01*
X480935Y331571D01*
X481048Y331581D01*
X481161Y331587D01*
X481274Y331589D01*
X486466Y331589D01*
X486579Y331587D01*
X486692Y331581D01*
X486805Y331571D01*
X486918Y331557D01*
X487030Y331540D01*
X487141Y331518D01*
X487251Y331493D01*
X487361Y331463D01*
X487469Y331430D01*
X487576Y331393D01*
X487682Y331353D01*
X487786Y331308D01*
X487889Y331260D01*
X487990Y331209D01*
X488089Y331154D01*
X488186Y331096D01*
X488281Y331034D01*
X488374Y330969D01*
X488464Y330901D01*
X488552Y330830D01*
X488638Y330755D01*
X488721Y330678D01*
X488801Y330598D01*
X488878Y330515D01*
X488953Y330429D01*
X489024Y330341D01*
X489092Y330251D01*
X489157Y330158D01*
X489219Y330063D01*
X489277Y329966D01*
X489332Y329867D01*
X489383Y329766D01*
X489431Y329663D01*
X489476Y329559D01*
X489516Y329453D01*
X489553Y329346D01*
X489586Y329238D01*
X489616Y329128D01*
X489641Y329018D01*
X489663Y328907D01*
X489680Y328795D01*
X489694Y328682D01*
X489704Y328569D01*
X489710Y328456D01*
X489712Y328343D01*
X489712Y325097D01*
X487116Y336908D02*
X478028Y339505D01*
X487116Y336908D02*
X487116Y343399D01*
X484519Y341452D02*
X489712Y341452D01*
D19*
X502920Y318500D03*
D16*
X244896Y374476D02*
X244896Y387604D01*
X254484Y387604D01*
X278344Y387604D02*
X278344Y374476D01*
X278344Y387604D02*
X268756Y387604D01*
X263844Y374396D02*
X259256Y374396D01*
D12*
X281432Y383596D02*
X281432Y386532D01*
X281434Y386617D01*
X281440Y386701D01*
X281450Y386785D01*
X281463Y386869D01*
X281481Y386952D01*
X281502Y387034D01*
X281527Y387115D01*
X281556Y387195D01*
X281588Y387273D01*
X281624Y387349D01*
X281664Y387424D01*
X281707Y387497D01*
X281753Y387568D01*
X281802Y387637D01*
X281855Y387704D01*
X281911Y387768D01*
X281969Y387829D01*
X282030Y387887D01*
X282094Y387943D01*
X282161Y387996D01*
X282230Y388045D01*
X282301Y388091D01*
X282374Y388134D01*
X282449Y388174D01*
X282525Y388210D01*
X282603Y388242D01*
X282683Y388271D01*
X282764Y388296D01*
X282846Y388317D01*
X282929Y388335D01*
X283013Y388348D01*
X283097Y388358D01*
X283181Y388364D01*
X283266Y388366D01*
X283351Y388364D01*
X283435Y388358D01*
X283519Y388348D01*
X283603Y388335D01*
X283686Y388317D01*
X283768Y388296D01*
X283849Y388271D01*
X283929Y388242D01*
X284007Y388210D01*
X284083Y388174D01*
X284158Y388134D01*
X284231Y388091D01*
X284302Y388045D01*
X284371Y387996D01*
X284438Y387943D01*
X284502Y387887D01*
X284563Y387829D01*
X284621Y387768D01*
X284677Y387704D01*
X284730Y387637D01*
X284779Y387568D01*
X284825Y387497D01*
X284868Y387424D01*
X284908Y387349D01*
X284944Y387273D01*
X284976Y387195D01*
X285005Y387115D01*
X285030Y387034D01*
X285051Y386952D01*
X285069Y386869D01*
X285082Y386785D01*
X285092Y386701D01*
X285098Y386617D01*
X285100Y386532D01*
X285101Y386532D02*
X285101Y383596D01*
X285100Y383596D02*
X285098Y383511D01*
X285092Y383427D01*
X285082Y383343D01*
X285069Y383259D01*
X285051Y383176D01*
X285030Y383094D01*
X285005Y383013D01*
X284976Y382933D01*
X284944Y382855D01*
X284908Y382779D01*
X284868Y382704D01*
X284825Y382631D01*
X284779Y382560D01*
X284730Y382491D01*
X284677Y382424D01*
X284621Y382360D01*
X284563Y382299D01*
X284502Y382241D01*
X284438Y382185D01*
X284371Y382132D01*
X284302Y382083D01*
X284231Y382037D01*
X284158Y381994D01*
X284083Y381954D01*
X284007Y381918D01*
X283929Y381886D01*
X283849Y381857D01*
X283768Y381832D01*
X283686Y381811D01*
X283603Y381793D01*
X283519Y381780D01*
X283435Y381770D01*
X283351Y381764D01*
X283266Y381762D01*
X283181Y381764D01*
X283097Y381770D01*
X283013Y381780D01*
X282929Y381793D01*
X282846Y381811D01*
X282764Y381832D01*
X282683Y381857D01*
X282603Y381886D01*
X282525Y381918D01*
X282449Y381954D01*
X282374Y381994D01*
X282301Y382037D01*
X282230Y382083D01*
X282161Y382132D01*
X282094Y382185D01*
X282030Y382241D01*
X281969Y382299D01*
X281911Y382360D01*
X281855Y382424D01*
X281802Y382491D01*
X281753Y382560D01*
X281707Y382631D01*
X281664Y382704D01*
X281624Y382779D01*
X281588Y382855D01*
X281556Y382933D01*
X281527Y383013D01*
X281502Y383094D01*
X281481Y383176D01*
X281463Y383259D01*
X281450Y383343D01*
X281440Y383427D01*
X281434Y383511D01*
X281432Y383596D01*
X284367Y383230D02*
X285835Y381762D01*
X288277Y386898D02*
X290112Y388366D01*
X290112Y381762D01*
X291946Y381762D02*
X288277Y381762D01*
D16*
X181396Y387604D02*
X181396Y374476D01*
X181396Y387604D02*
X190984Y387604D01*
X214844Y387604D02*
X214844Y374476D01*
X214844Y387604D02*
X205256Y387604D01*
X200344Y374396D02*
X195756Y374396D01*
D12*
X217932Y383596D02*
X217932Y386532D01*
X217934Y386617D01*
X217940Y386701D01*
X217950Y386785D01*
X217963Y386869D01*
X217981Y386952D01*
X218002Y387034D01*
X218027Y387115D01*
X218056Y387195D01*
X218088Y387273D01*
X218124Y387349D01*
X218164Y387424D01*
X218207Y387497D01*
X218253Y387568D01*
X218302Y387637D01*
X218355Y387704D01*
X218411Y387768D01*
X218469Y387829D01*
X218530Y387887D01*
X218594Y387943D01*
X218661Y387996D01*
X218730Y388045D01*
X218801Y388091D01*
X218874Y388134D01*
X218949Y388174D01*
X219025Y388210D01*
X219103Y388242D01*
X219183Y388271D01*
X219264Y388296D01*
X219346Y388317D01*
X219429Y388335D01*
X219513Y388348D01*
X219597Y388358D01*
X219681Y388364D01*
X219766Y388366D01*
X219851Y388364D01*
X219935Y388358D01*
X220019Y388348D01*
X220103Y388335D01*
X220186Y388317D01*
X220268Y388296D01*
X220349Y388271D01*
X220429Y388242D01*
X220507Y388210D01*
X220583Y388174D01*
X220658Y388134D01*
X220731Y388091D01*
X220802Y388045D01*
X220871Y387996D01*
X220938Y387943D01*
X221002Y387887D01*
X221063Y387829D01*
X221121Y387768D01*
X221177Y387704D01*
X221230Y387637D01*
X221279Y387568D01*
X221325Y387497D01*
X221368Y387424D01*
X221408Y387349D01*
X221444Y387273D01*
X221476Y387195D01*
X221505Y387115D01*
X221530Y387034D01*
X221551Y386952D01*
X221569Y386869D01*
X221582Y386785D01*
X221592Y386701D01*
X221598Y386617D01*
X221600Y386532D01*
X221601Y386532D02*
X221601Y383596D01*
X221600Y383596D02*
X221598Y383511D01*
X221592Y383427D01*
X221582Y383343D01*
X221569Y383259D01*
X221551Y383176D01*
X221530Y383094D01*
X221505Y383013D01*
X221476Y382933D01*
X221444Y382855D01*
X221408Y382779D01*
X221368Y382704D01*
X221325Y382631D01*
X221279Y382560D01*
X221230Y382491D01*
X221177Y382424D01*
X221121Y382360D01*
X221063Y382299D01*
X221002Y382241D01*
X220938Y382185D01*
X220871Y382132D01*
X220802Y382083D01*
X220731Y382037D01*
X220658Y381994D01*
X220583Y381954D01*
X220507Y381918D01*
X220429Y381886D01*
X220349Y381857D01*
X220268Y381832D01*
X220186Y381811D01*
X220103Y381793D01*
X220019Y381780D01*
X219935Y381770D01*
X219851Y381764D01*
X219766Y381762D01*
X219681Y381764D01*
X219597Y381770D01*
X219513Y381780D01*
X219429Y381793D01*
X219346Y381811D01*
X219264Y381832D01*
X219183Y381857D01*
X219103Y381886D01*
X219025Y381918D01*
X218949Y381954D01*
X218874Y381994D01*
X218801Y382037D01*
X218730Y382083D01*
X218661Y382132D01*
X218594Y382185D01*
X218530Y382241D01*
X218469Y382299D01*
X218411Y382360D01*
X218355Y382424D01*
X218302Y382491D01*
X218253Y382560D01*
X218207Y382631D01*
X218164Y382704D01*
X218124Y382779D01*
X218088Y382855D01*
X218056Y382933D01*
X218027Y383013D01*
X218002Y383094D01*
X217981Y383176D01*
X217963Y383259D01*
X217950Y383343D01*
X217940Y383427D01*
X217934Y383511D01*
X217932Y383596D01*
X220867Y383230D02*
X222335Y381762D01*
X228446Y386715D02*
X228444Y386794D01*
X228439Y386872D01*
X228429Y386950D01*
X228416Y387027D01*
X228399Y387104D01*
X228379Y387180D01*
X228355Y387255D01*
X228328Y387329D01*
X228297Y387401D01*
X228262Y387472D01*
X228225Y387541D01*
X228184Y387608D01*
X228140Y387673D01*
X228093Y387736D01*
X228043Y387796D01*
X227990Y387854D01*
X227934Y387910D01*
X227876Y387963D01*
X227816Y388013D01*
X227753Y388060D01*
X227688Y388104D01*
X227621Y388145D01*
X227552Y388182D01*
X227481Y388217D01*
X227409Y388248D01*
X227335Y388275D01*
X227260Y388299D01*
X227184Y388319D01*
X227107Y388336D01*
X227030Y388349D01*
X226952Y388359D01*
X226874Y388364D01*
X226795Y388366D01*
X226706Y388364D01*
X226617Y388359D01*
X226529Y388349D01*
X226441Y388336D01*
X226354Y388320D01*
X226267Y388299D01*
X226182Y388275D01*
X226097Y388248D01*
X226014Y388217D01*
X225932Y388182D01*
X225851Y388144D01*
X225772Y388103D01*
X225696Y388059D01*
X225620Y388011D01*
X225547Y387960D01*
X225477Y387907D01*
X225408Y387850D01*
X225342Y387790D01*
X225279Y387728D01*
X225218Y387663D01*
X225160Y387596D01*
X225105Y387526D01*
X225052Y387454D01*
X225003Y387380D01*
X224957Y387304D01*
X224915Y387226D01*
X224875Y387146D01*
X224839Y387065D01*
X224806Y386982D01*
X224777Y386898D01*
X227896Y385431D02*
X227952Y385487D01*
X228006Y385546D01*
X228057Y385607D01*
X228106Y385671D01*
X228151Y385736D01*
X228194Y385804D01*
X228233Y385873D01*
X228270Y385944D01*
X228303Y386017D01*
X228332Y386091D01*
X228359Y386166D01*
X228382Y386242D01*
X228401Y386320D01*
X228417Y386398D01*
X228430Y386476D01*
X228439Y386556D01*
X228444Y386635D01*
X228446Y386715D01*
X227896Y385431D02*
X224777Y381762D01*
X228446Y381762D01*
D11*
X140208Y200152D02*
X140208Y188468D01*
X140208Y200152D02*
X143454Y200152D01*
X143567Y200150D01*
X143680Y200144D01*
X143793Y200134D01*
X143906Y200120D01*
X144018Y200103D01*
X144129Y200081D01*
X144239Y200056D01*
X144349Y200026D01*
X144457Y199993D01*
X144564Y199956D01*
X144670Y199916D01*
X144774Y199871D01*
X144877Y199823D01*
X144978Y199772D01*
X145077Y199717D01*
X145174Y199659D01*
X145269Y199597D01*
X145362Y199532D01*
X145452Y199464D01*
X145540Y199393D01*
X145626Y199318D01*
X145709Y199241D01*
X145789Y199161D01*
X145866Y199078D01*
X145941Y198992D01*
X146012Y198904D01*
X146080Y198814D01*
X146145Y198721D01*
X146207Y198626D01*
X146265Y198529D01*
X146320Y198430D01*
X146371Y198329D01*
X146419Y198226D01*
X146464Y198122D01*
X146504Y198016D01*
X146541Y197909D01*
X146574Y197801D01*
X146604Y197691D01*
X146629Y197581D01*
X146651Y197470D01*
X146668Y197358D01*
X146682Y197245D01*
X146692Y197132D01*
X146698Y197019D01*
X146700Y196906D01*
X146698Y196793D01*
X146692Y196680D01*
X146682Y196567D01*
X146668Y196454D01*
X146651Y196342D01*
X146629Y196231D01*
X146604Y196121D01*
X146574Y196011D01*
X146541Y195903D01*
X146504Y195796D01*
X146464Y195690D01*
X146419Y195586D01*
X146371Y195483D01*
X146320Y195382D01*
X146265Y195283D01*
X146207Y195186D01*
X146145Y195091D01*
X146080Y194998D01*
X146012Y194908D01*
X145941Y194820D01*
X145866Y194734D01*
X145789Y194651D01*
X145709Y194571D01*
X145626Y194494D01*
X145540Y194419D01*
X145452Y194348D01*
X145362Y194280D01*
X145269Y194215D01*
X145174Y194153D01*
X145077Y194095D01*
X144978Y194040D01*
X144877Y193989D01*
X144774Y193941D01*
X144670Y193896D01*
X144564Y193856D01*
X144457Y193819D01*
X144349Y193786D01*
X144239Y193756D01*
X144129Y193731D01*
X144018Y193709D01*
X143906Y193692D01*
X143793Y193678D01*
X143680Y193668D01*
X143567Y193662D01*
X143454Y193660D01*
X143454Y193661D02*
X140208Y193661D01*
X144103Y193661D02*
X146699Y188468D01*
X151564Y197556D02*
X154810Y200152D01*
X154810Y188468D01*
X158055Y188468D02*
X151564Y188468D01*
D20*
X154634Y177815D03*
X139902Y177815D03*
D12*
X168402Y418592D02*
X168402Y425196D01*
X170236Y425196D01*
X170321Y425194D01*
X170405Y425188D01*
X170489Y425178D01*
X170573Y425165D01*
X170656Y425147D01*
X170738Y425126D01*
X170819Y425101D01*
X170899Y425072D01*
X170977Y425040D01*
X171053Y425004D01*
X171128Y424964D01*
X171201Y424921D01*
X171272Y424875D01*
X171341Y424826D01*
X171408Y424773D01*
X171472Y424717D01*
X171533Y424659D01*
X171591Y424598D01*
X171647Y424534D01*
X171700Y424467D01*
X171749Y424398D01*
X171795Y424327D01*
X171838Y424254D01*
X171878Y424179D01*
X171914Y424103D01*
X171946Y424025D01*
X171975Y423945D01*
X172000Y423864D01*
X172021Y423782D01*
X172039Y423699D01*
X172052Y423615D01*
X172062Y423531D01*
X172068Y423447D01*
X172070Y423362D01*
X172068Y423277D01*
X172062Y423193D01*
X172052Y423109D01*
X172039Y423025D01*
X172021Y422942D01*
X172000Y422860D01*
X171975Y422779D01*
X171946Y422699D01*
X171914Y422621D01*
X171878Y422545D01*
X171838Y422470D01*
X171795Y422397D01*
X171749Y422326D01*
X171700Y422257D01*
X171647Y422190D01*
X171591Y422126D01*
X171533Y422065D01*
X171472Y422007D01*
X171408Y421951D01*
X171341Y421898D01*
X171272Y421849D01*
X171201Y421803D01*
X171128Y421760D01*
X171053Y421720D01*
X170977Y421684D01*
X170899Y421652D01*
X170819Y421623D01*
X170738Y421598D01*
X170656Y421577D01*
X170573Y421559D01*
X170489Y421546D01*
X170405Y421536D01*
X170321Y421530D01*
X170236Y421528D01*
X170236Y421527D02*
X168402Y421527D01*
X170603Y421527D02*
X172071Y418592D01*
X175638Y423728D02*
X177473Y425196D01*
X177473Y418592D01*
X179307Y418592D02*
X175638Y418592D01*
X182954Y421894D02*
X182956Y422039D01*
X182962Y422184D01*
X182971Y422329D01*
X182985Y422474D01*
X183002Y422618D01*
X183024Y422761D01*
X183049Y422905D01*
X183078Y423047D01*
X183110Y423188D01*
X183147Y423329D01*
X183187Y423468D01*
X183231Y423607D01*
X183278Y423744D01*
X183329Y423880D01*
X183384Y424014D01*
X183442Y424147D01*
X183504Y424279D01*
X183503Y424279D02*
X183529Y424348D01*
X183558Y424415D01*
X183591Y424481D01*
X183627Y424544D01*
X183667Y424606D01*
X183710Y424665D01*
X183756Y424722D01*
X183805Y424776D01*
X183857Y424828D01*
X183912Y424877D01*
X183969Y424922D01*
X184029Y424965D01*
X184091Y425004D01*
X184154Y425040D01*
X184220Y425073D01*
X184287Y425101D01*
X184356Y425127D01*
X184426Y425148D01*
X184497Y425166D01*
X184569Y425179D01*
X184642Y425189D01*
X184715Y425195D01*
X184788Y425197D01*
X184788Y425196D02*
X184861Y425194D01*
X184934Y425188D01*
X185007Y425178D01*
X185079Y425165D01*
X185150Y425147D01*
X185220Y425126D01*
X185288Y425100D01*
X185356Y425072D01*
X185421Y425039D01*
X185485Y425003D01*
X185547Y424964D01*
X185606Y424922D01*
X185663Y424876D01*
X185718Y424827D01*
X185770Y424776D01*
X185819Y424721D01*
X185865Y424664D01*
X185908Y424605D01*
X185948Y424544D01*
X185984Y424480D01*
X186017Y424415D01*
X186046Y424348D01*
X186072Y424279D01*
X186134Y424147D01*
X186192Y424014D01*
X186247Y423880D01*
X186298Y423744D01*
X186345Y423607D01*
X186389Y423468D01*
X186429Y423329D01*
X186466Y423188D01*
X186498Y423047D01*
X186527Y422905D01*
X186552Y422762D01*
X186574Y422618D01*
X186591Y422474D01*
X186605Y422329D01*
X186614Y422184D01*
X186620Y422039D01*
X186622Y421894D01*
X182954Y421894D02*
X182956Y421749D01*
X182962Y421604D01*
X182971Y421459D01*
X182985Y421314D01*
X183002Y421170D01*
X183024Y421027D01*
X183049Y420884D01*
X183077Y420741D01*
X183110Y420600D01*
X183147Y420459D01*
X183187Y420320D01*
X183231Y420181D01*
X183278Y420044D01*
X183329Y419908D01*
X183384Y419774D01*
X183442Y419641D01*
X183504Y419509D01*
X183503Y419510D02*
X183529Y419441D01*
X183558Y419374D01*
X183591Y419308D01*
X183627Y419245D01*
X183667Y419183D01*
X183710Y419124D01*
X183756Y419067D01*
X183805Y419013D01*
X183857Y418961D01*
X183912Y418912D01*
X183969Y418867D01*
X184029Y418824D01*
X184091Y418785D01*
X184154Y418749D01*
X184220Y418716D01*
X184287Y418688D01*
X184356Y418662D01*
X184426Y418641D01*
X184497Y418623D01*
X184569Y418610D01*
X184642Y418600D01*
X184715Y418594D01*
X184788Y418592D01*
X186072Y419509D02*
X186134Y419641D01*
X186192Y419774D01*
X186247Y419908D01*
X186298Y420044D01*
X186345Y420181D01*
X186389Y420320D01*
X186429Y420459D01*
X186466Y420600D01*
X186498Y420741D01*
X186527Y420883D01*
X186552Y421026D01*
X186574Y421170D01*
X186591Y421314D01*
X186605Y421459D01*
X186614Y421604D01*
X186620Y421749D01*
X186622Y421894D01*
X186072Y419509D02*
X186046Y419440D01*
X186017Y419373D01*
X185984Y419308D01*
X185948Y419244D01*
X185908Y419183D01*
X185865Y419124D01*
X185819Y419067D01*
X185770Y419012D01*
X185718Y418961D01*
X185663Y418912D01*
X185606Y418866D01*
X185547Y418824D01*
X185485Y418785D01*
X185421Y418749D01*
X185356Y418716D01*
X185288Y418688D01*
X185220Y418662D01*
X185150Y418641D01*
X185078Y418623D01*
X185007Y418610D01*
X184934Y418600D01*
X184861Y418594D01*
X184788Y418592D01*
X183320Y420060D02*
X186256Y423728D01*
D13*
X147320Y424180D02*
X147320Y414020D01*
D12*
X358902Y443992D02*
X358902Y450596D01*
X360736Y450596D01*
X360821Y450594D01*
X360905Y450588D01*
X360989Y450578D01*
X361073Y450565D01*
X361156Y450547D01*
X361238Y450526D01*
X361319Y450501D01*
X361399Y450472D01*
X361477Y450440D01*
X361553Y450404D01*
X361628Y450364D01*
X361701Y450321D01*
X361772Y450275D01*
X361841Y450226D01*
X361908Y450173D01*
X361972Y450117D01*
X362033Y450059D01*
X362091Y449998D01*
X362147Y449934D01*
X362200Y449867D01*
X362249Y449798D01*
X362295Y449727D01*
X362338Y449654D01*
X362378Y449579D01*
X362414Y449503D01*
X362446Y449425D01*
X362475Y449345D01*
X362500Y449264D01*
X362521Y449182D01*
X362539Y449099D01*
X362552Y449015D01*
X362562Y448931D01*
X362568Y448847D01*
X362570Y448762D01*
X362568Y448677D01*
X362562Y448593D01*
X362552Y448509D01*
X362539Y448425D01*
X362521Y448342D01*
X362500Y448260D01*
X362475Y448179D01*
X362446Y448099D01*
X362414Y448021D01*
X362378Y447945D01*
X362338Y447870D01*
X362295Y447797D01*
X362249Y447726D01*
X362200Y447657D01*
X362147Y447590D01*
X362091Y447526D01*
X362033Y447465D01*
X361972Y447407D01*
X361908Y447351D01*
X361841Y447298D01*
X361772Y447249D01*
X361701Y447203D01*
X361628Y447160D01*
X361553Y447120D01*
X361477Y447084D01*
X361399Y447052D01*
X361319Y447023D01*
X361238Y446998D01*
X361156Y446977D01*
X361073Y446959D01*
X360989Y446946D01*
X360905Y446936D01*
X360821Y446930D01*
X360736Y446928D01*
X360736Y446927D02*
X358902Y446927D01*
X361103Y446927D02*
X362571Y443992D01*
X366138Y449128D02*
X367973Y450596D01*
X367973Y443992D01*
X369807Y443992D02*
X366138Y443992D01*
X373454Y449128D02*
X375288Y450596D01*
X375288Y443992D01*
X373454Y443992D02*
X377122Y443992D01*
D13*
X337820Y439420D02*
X337820Y449580D01*
D12*
X104902Y425196D02*
X104902Y418592D01*
X104902Y425196D02*
X106736Y425196D01*
X106821Y425194D01*
X106905Y425188D01*
X106989Y425178D01*
X107073Y425165D01*
X107156Y425147D01*
X107238Y425126D01*
X107319Y425101D01*
X107399Y425072D01*
X107477Y425040D01*
X107553Y425004D01*
X107628Y424964D01*
X107701Y424921D01*
X107772Y424875D01*
X107841Y424826D01*
X107908Y424773D01*
X107972Y424717D01*
X108033Y424659D01*
X108091Y424598D01*
X108147Y424534D01*
X108200Y424467D01*
X108249Y424398D01*
X108295Y424327D01*
X108338Y424254D01*
X108378Y424179D01*
X108414Y424103D01*
X108446Y424025D01*
X108475Y423945D01*
X108500Y423864D01*
X108521Y423782D01*
X108539Y423699D01*
X108552Y423615D01*
X108562Y423531D01*
X108568Y423447D01*
X108570Y423362D01*
X108568Y423277D01*
X108562Y423193D01*
X108552Y423109D01*
X108539Y423025D01*
X108521Y422942D01*
X108500Y422860D01*
X108475Y422779D01*
X108446Y422699D01*
X108414Y422621D01*
X108378Y422545D01*
X108338Y422470D01*
X108295Y422397D01*
X108249Y422326D01*
X108200Y422257D01*
X108147Y422190D01*
X108091Y422126D01*
X108033Y422065D01*
X107972Y422007D01*
X107908Y421951D01*
X107841Y421898D01*
X107772Y421849D01*
X107701Y421803D01*
X107628Y421760D01*
X107553Y421720D01*
X107477Y421684D01*
X107399Y421652D01*
X107319Y421623D01*
X107238Y421598D01*
X107156Y421577D01*
X107073Y421559D01*
X106989Y421546D01*
X106905Y421536D01*
X106821Y421530D01*
X106736Y421528D01*
X106736Y421527D02*
X104902Y421527D01*
X107103Y421527D02*
X108571Y418592D01*
X112138Y423728D02*
X113973Y425196D01*
X113973Y418592D01*
X115807Y418592D02*
X112138Y418592D01*
X121471Y425196D02*
X121550Y425194D01*
X121628Y425189D01*
X121706Y425179D01*
X121783Y425166D01*
X121860Y425149D01*
X121936Y425129D01*
X122011Y425105D01*
X122085Y425078D01*
X122157Y425047D01*
X122228Y425012D01*
X122297Y424975D01*
X122364Y424934D01*
X122429Y424890D01*
X122492Y424843D01*
X122552Y424793D01*
X122610Y424740D01*
X122666Y424684D01*
X122719Y424626D01*
X122769Y424566D01*
X122816Y424503D01*
X122860Y424438D01*
X122901Y424371D01*
X122938Y424302D01*
X122973Y424231D01*
X123004Y424159D01*
X123031Y424085D01*
X123055Y424010D01*
X123075Y423934D01*
X123092Y423857D01*
X123105Y423780D01*
X123115Y423702D01*
X123120Y423624D01*
X123122Y423545D01*
X121471Y425196D02*
X121382Y425194D01*
X121293Y425189D01*
X121205Y425179D01*
X121117Y425166D01*
X121030Y425150D01*
X120943Y425129D01*
X120858Y425105D01*
X120773Y425078D01*
X120690Y425047D01*
X120608Y425012D01*
X120527Y424974D01*
X120448Y424933D01*
X120372Y424889D01*
X120296Y424841D01*
X120223Y424790D01*
X120153Y424737D01*
X120084Y424680D01*
X120018Y424620D01*
X119955Y424558D01*
X119894Y424493D01*
X119836Y424426D01*
X119781Y424356D01*
X119728Y424284D01*
X119679Y424210D01*
X119633Y424134D01*
X119591Y424056D01*
X119551Y423976D01*
X119515Y423895D01*
X119482Y423812D01*
X119453Y423728D01*
X122572Y422261D02*
X122628Y422317D01*
X122682Y422376D01*
X122733Y422437D01*
X122782Y422501D01*
X122827Y422566D01*
X122870Y422634D01*
X122909Y422703D01*
X122946Y422774D01*
X122979Y422847D01*
X123008Y422921D01*
X123035Y422996D01*
X123058Y423072D01*
X123077Y423150D01*
X123093Y423228D01*
X123106Y423306D01*
X123115Y423386D01*
X123120Y423465D01*
X123122Y423545D01*
X122572Y422261D02*
X119454Y418592D01*
X123122Y418592D01*
D13*
X83820Y414020D02*
X83820Y424180D01*
D16*
X375920Y386080D02*
X375920Y375920D01*
D12*
X360807Y391287D02*
X360807Y397891D01*
X362641Y397891D01*
X362726Y397889D01*
X362810Y397883D01*
X362894Y397873D01*
X362978Y397860D01*
X363061Y397842D01*
X363143Y397821D01*
X363224Y397796D01*
X363304Y397767D01*
X363382Y397735D01*
X363458Y397699D01*
X363533Y397659D01*
X363606Y397616D01*
X363677Y397570D01*
X363746Y397521D01*
X363813Y397468D01*
X363877Y397412D01*
X363938Y397354D01*
X363996Y397293D01*
X364052Y397229D01*
X364105Y397162D01*
X364154Y397093D01*
X364200Y397022D01*
X364243Y396949D01*
X364283Y396874D01*
X364319Y396798D01*
X364351Y396720D01*
X364380Y396640D01*
X364405Y396559D01*
X364426Y396477D01*
X364444Y396394D01*
X364457Y396310D01*
X364467Y396226D01*
X364473Y396142D01*
X364475Y396057D01*
X364473Y395972D01*
X364467Y395888D01*
X364457Y395804D01*
X364444Y395720D01*
X364426Y395637D01*
X364405Y395555D01*
X364380Y395474D01*
X364351Y395394D01*
X364319Y395316D01*
X364283Y395240D01*
X364243Y395165D01*
X364200Y395092D01*
X364154Y395021D01*
X364105Y394952D01*
X364052Y394885D01*
X363996Y394821D01*
X363938Y394760D01*
X363877Y394702D01*
X363813Y394646D01*
X363746Y394593D01*
X363677Y394544D01*
X363606Y394498D01*
X363533Y394455D01*
X363458Y394415D01*
X363382Y394379D01*
X363304Y394347D01*
X363224Y394318D01*
X363143Y394293D01*
X363061Y394272D01*
X362978Y394254D01*
X362894Y394241D01*
X362810Y394231D01*
X362726Y394225D01*
X362641Y394223D01*
X362641Y394222D02*
X360807Y394222D01*
X363008Y394222D02*
X364476Y391287D01*
X368043Y396423D02*
X369878Y397891D01*
X369878Y391287D01*
X371712Y391287D02*
X368043Y391287D01*
X375359Y391287D02*
X377193Y391287D01*
X377278Y391289D01*
X377362Y391295D01*
X377446Y391305D01*
X377530Y391318D01*
X377613Y391336D01*
X377695Y391357D01*
X377776Y391382D01*
X377856Y391411D01*
X377934Y391443D01*
X378010Y391479D01*
X378085Y391519D01*
X378158Y391562D01*
X378229Y391608D01*
X378298Y391657D01*
X378365Y391710D01*
X378429Y391766D01*
X378490Y391824D01*
X378548Y391885D01*
X378604Y391949D01*
X378657Y392016D01*
X378706Y392085D01*
X378752Y392156D01*
X378795Y392229D01*
X378835Y392304D01*
X378871Y392380D01*
X378903Y392458D01*
X378932Y392538D01*
X378957Y392619D01*
X378978Y392701D01*
X378996Y392784D01*
X379009Y392868D01*
X379019Y392952D01*
X379025Y393036D01*
X379027Y393121D01*
X379025Y393206D01*
X379019Y393290D01*
X379009Y393374D01*
X378996Y393458D01*
X378978Y393541D01*
X378957Y393623D01*
X378932Y393704D01*
X378903Y393784D01*
X378871Y393862D01*
X378835Y393938D01*
X378795Y394013D01*
X378752Y394086D01*
X378706Y394157D01*
X378657Y394226D01*
X378604Y394293D01*
X378548Y394357D01*
X378490Y394418D01*
X378429Y394476D01*
X378365Y394532D01*
X378298Y394585D01*
X378229Y394634D01*
X378158Y394680D01*
X378085Y394723D01*
X378010Y394763D01*
X377934Y394799D01*
X377856Y394831D01*
X377776Y394860D01*
X377695Y394885D01*
X377613Y394906D01*
X377530Y394924D01*
X377446Y394937D01*
X377362Y394947D01*
X377278Y394953D01*
X377193Y394955D01*
X377560Y397891D02*
X375359Y397891D01*
X377560Y397891D02*
X377636Y397889D01*
X377711Y397883D01*
X377786Y397874D01*
X377860Y397860D01*
X377934Y397843D01*
X378006Y397821D01*
X378078Y397797D01*
X378148Y397768D01*
X378216Y397736D01*
X378283Y397701D01*
X378348Y397662D01*
X378411Y397619D01*
X378471Y397574D01*
X378529Y397526D01*
X378585Y397474D01*
X378637Y397420D01*
X378687Y397363D01*
X378734Y397304D01*
X378778Y397243D01*
X378819Y397179D01*
X378856Y397113D01*
X378890Y397045D01*
X378920Y396976D01*
X378947Y396905D01*
X378970Y396833D01*
X378989Y396760D01*
X379004Y396686D01*
X379016Y396611D01*
X379024Y396536D01*
X379028Y396461D01*
X379028Y396385D01*
X379024Y396310D01*
X379016Y396235D01*
X379004Y396160D01*
X378989Y396086D01*
X378970Y396013D01*
X378947Y395941D01*
X378920Y395870D01*
X378890Y395801D01*
X378856Y395733D01*
X378819Y395667D01*
X378778Y395603D01*
X378734Y395542D01*
X378687Y395483D01*
X378637Y395426D01*
X378585Y395372D01*
X378529Y395320D01*
X378471Y395272D01*
X378411Y395227D01*
X378348Y395184D01*
X378283Y395145D01*
X378216Y395110D01*
X378148Y395078D01*
X378078Y395049D01*
X378006Y395025D01*
X377934Y395003D01*
X377860Y394986D01*
X377786Y394972D01*
X377711Y394963D01*
X377636Y394957D01*
X377560Y394955D01*
X377560Y394956D02*
X376092Y394956D01*
D16*
X325120Y386080D02*
X325120Y375920D01*
D12*
X310007Y391287D02*
X310007Y397891D01*
X311841Y397891D01*
X311926Y397889D01*
X312010Y397883D01*
X312094Y397873D01*
X312178Y397860D01*
X312261Y397842D01*
X312343Y397821D01*
X312424Y397796D01*
X312504Y397767D01*
X312582Y397735D01*
X312658Y397699D01*
X312733Y397659D01*
X312806Y397616D01*
X312877Y397570D01*
X312946Y397521D01*
X313013Y397468D01*
X313077Y397412D01*
X313138Y397354D01*
X313196Y397293D01*
X313252Y397229D01*
X313305Y397162D01*
X313354Y397093D01*
X313400Y397022D01*
X313443Y396949D01*
X313483Y396874D01*
X313519Y396798D01*
X313551Y396720D01*
X313580Y396640D01*
X313605Y396559D01*
X313626Y396477D01*
X313644Y396394D01*
X313657Y396310D01*
X313667Y396226D01*
X313673Y396142D01*
X313675Y396057D01*
X313673Y395972D01*
X313667Y395888D01*
X313657Y395804D01*
X313644Y395720D01*
X313626Y395637D01*
X313605Y395555D01*
X313580Y395474D01*
X313551Y395394D01*
X313519Y395316D01*
X313483Y395240D01*
X313443Y395165D01*
X313400Y395092D01*
X313354Y395021D01*
X313305Y394952D01*
X313252Y394885D01*
X313196Y394821D01*
X313138Y394760D01*
X313077Y394702D01*
X313013Y394646D01*
X312946Y394593D01*
X312877Y394544D01*
X312806Y394498D01*
X312733Y394455D01*
X312658Y394415D01*
X312582Y394379D01*
X312504Y394347D01*
X312424Y394318D01*
X312343Y394293D01*
X312261Y394272D01*
X312178Y394254D01*
X312094Y394241D01*
X312010Y394231D01*
X311926Y394225D01*
X311841Y394223D01*
X311841Y394222D02*
X310007Y394222D01*
X312208Y394222D02*
X313676Y391287D01*
X317243Y396423D02*
X319078Y397891D01*
X319078Y391287D01*
X320912Y391287D02*
X317243Y391287D01*
X324559Y392755D02*
X326026Y397891D01*
X324559Y392755D02*
X328227Y392755D01*
X327127Y394222D02*
X327127Y391287D01*
X485902Y443992D02*
X485902Y450596D01*
X487736Y450596D01*
X487821Y450594D01*
X487905Y450588D01*
X487989Y450578D01*
X488073Y450565D01*
X488156Y450547D01*
X488238Y450526D01*
X488319Y450501D01*
X488399Y450472D01*
X488477Y450440D01*
X488553Y450404D01*
X488628Y450364D01*
X488701Y450321D01*
X488772Y450275D01*
X488841Y450226D01*
X488908Y450173D01*
X488972Y450117D01*
X489033Y450059D01*
X489091Y449998D01*
X489147Y449934D01*
X489200Y449867D01*
X489249Y449798D01*
X489295Y449727D01*
X489338Y449654D01*
X489378Y449579D01*
X489414Y449503D01*
X489446Y449425D01*
X489475Y449345D01*
X489500Y449264D01*
X489521Y449182D01*
X489539Y449099D01*
X489552Y449015D01*
X489562Y448931D01*
X489568Y448847D01*
X489570Y448762D01*
X489568Y448677D01*
X489562Y448593D01*
X489552Y448509D01*
X489539Y448425D01*
X489521Y448342D01*
X489500Y448260D01*
X489475Y448179D01*
X489446Y448099D01*
X489414Y448021D01*
X489378Y447945D01*
X489338Y447870D01*
X489295Y447797D01*
X489249Y447726D01*
X489200Y447657D01*
X489147Y447590D01*
X489091Y447526D01*
X489033Y447465D01*
X488972Y447407D01*
X488908Y447351D01*
X488841Y447298D01*
X488772Y447249D01*
X488701Y447203D01*
X488628Y447160D01*
X488553Y447120D01*
X488477Y447084D01*
X488399Y447052D01*
X488319Y447023D01*
X488238Y446998D01*
X488156Y446977D01*
X488073Y446959D01*
X487989Y446946D01*
X487905Y446936D01*
X487821Y446930D01*
X487736Y446928D01*
X487736Y446927D02*
X485902Y446927D01*
X488103Y446927D02*
X489571Y443992D01*
X493138Y449128D02*
X494973Y450596D01*
X494973Y443992D01*
X496807Y443992D02*
X493138Y443992D01*
X500454Y443992D02*
X502655Y443992D01*
X502729Y443994D01*
X502804Y444000D01*
X502877Y444009D01*
X502951Y444022D01*
X503023Y444039D01*
X503094Y444059D01*
X503165Y444083D01*
X503234Y444111D01*
X503301Y444142D01*
X503367Y444176D01*
X503432Y444214D01*
X503494Y444255D01*
X503554Y444299D01*
X503611Y444346D01*
X503666Y444396D01*
X503719Y444449D01*
X503769Y444504D01*
X503816Y444561D01*
X503860Y444621D01*
X503901Y444683D01*
X503939Y444748D01*
X503973Y444813D01*
X504004Y444881D01*
X504032Y444950D01*
X504056Y445021D01*
X504076Y445092D01*
X504093Y445164D01*
X504106Y445238D01*
X504115Y445311D01*
X504121Y445386D01*
X504123Y445460D01*
X504122Y445460D02*
X504122Y446193D01*
X504123Y446193D02*
X504121Y446267D01*
X504115Y446342D01*
X504106Y446415D01*
X504093Y446489D01*
X504076Y446561D01*
X504056Y446632D01*
X504032Y446703D01*
X504004Y446772D01*
X503973Y446839D01*
X503939Y446905D01*
X503901Y446970D01*
X503860Y447032D01*
X503816Y447092D01*
X503769Y447149D01*
X503719Y447204D01*
X503666Y447257D01*
X503611Y447307D01*
X503554Y447354D01*
X503494Y447398D01*
X503432Y447439D01*
X503367Y447477D01*
X503301Y447511D01*
X503234Y447542D01*
X503165Y447570D01*
X503094Y447594D01*
X503023Y447614D01*
X502951Y447631D01*
X502877Y447644D01*
X502804Y447653D01*
X502729Y447659D01*
X502655Y447661D01*
X500454Y447661D01*
X500454Y450596D01*
X504122Y450596D01*
D13*
X464820Y449580D02*
X464820Y439420D01*
D11*
X89408Y200152D02*
X89408Y188468D01*
X89408Y200152D02*
X92654Y200152D01*
X92767Y200150D01*
X92880Y200144D01*
X92993Y200134D01*
X93106Y200120D01*
X93218Y200103D01*
X93329Y200081D01*
X93439Y200056D01*
X93549Y200026D01*
X93657Y199993D01*
X93764Y199956D01*
X93870Y199916D01*
X93974Y199871D01*
X94077Y199823D01*
X94178Y199772D01*
X94277Y199717D01*
X94374Y199659D01*
X94469Y199597D01*
X94562Y199532D01*
X94652Y199464D01*
X94740Y199393D01*
X94826Y199318D01*
X94909Y199241D01*
X94989Y199161D01*
X95066Y199078D01*
X95141Y198992D01*
X95212Y198904D01*
X95280Y198814D01*
X95345Y198721D01*
X95407Y198626D01*
X95465Y198529D01*
X95520Y198430D01*
X95571Y198329D01*
X95619Y198226D01*
X95664Y198122D01*
X95704Y198016D01*
X95741Y197909D01*
X95774Y197801D01*
X95804Y197691D01*
X95829Y197581D01*
X95851Y197470D01*
X95868Y197358D01*
X95882Y197245D01*
X95892Y197132D01*
X95898Y197019D01*
X95900Y196906D01*
X95898Y196793D01*
X95892Y196680D01*
X95882Y196567D01*
X95868Y196454D01*
X95851Y196342D01*
X95829Y196231D01*
X95804Y196121D01*
X95774Y196011D01*
X95741Y195903D01*
X95704Y195796D01*
X95664Y195690D01*
X95619Y195586D01*
X95571Y195483D01*
X95520Y195382D01*
X95465Y195283D01*
X95407Y195186D01*
X95345Y195091D01*
X95280Y194998D01*
X95212Y194908D01*
X95141Y194820D01*
X95066Y194734D01*
X94989Y194651D01*
X94909Y194571D01*
X94826Y194494D01*
X94740Y194419D01*
X94652Y194348D01*
X94562Y194280D01*
X94469Y194215D01*
X94374Y194153D01*
X94277Y194095D01*
X94178Y194040D01*
X94077Y193989D01*
X93974Y193941D01*
X93870Y193896D01*
X93764Y193856D01*
X93657Y193819D01*
X93549Y193786D01*
X93439Y193756D01*
X93329Y193731D01*
X93218Y193709D01*
X93106Y193692D01*
X92993Y193678D01*
X92880Y193668D01*
X92767Y193662D01*
X92654Y193660D01*
X92654Y193661D02*
X89408Y193661D01*
X93303Y193661D02*
X95899Y188468D01*
X107255Y197231D02*
X107253Y197338D01*
X107247Y197444D01*
X107237Y197550D01*
X107224Y197656D01*
X107206Y197762D01*
X107185Y197866D01*
X107160Y197970D01*
X107131Y198073D01*
X107099Y198174D01*
X107062Y198274D01*
X107022Y198373D01*
X106979Y198471D01*
X106932Y198567D01*
X106881Y198661D01*
X106827Y198753D01*
X106770Y198843D01*
X106710Y198931D01*
X106646Y199016D01*
X106579Y199099D01*
X106509Y199180D01*
X106437Y199258D01*
X106361Y199334D01*
X106283Y199406D01*
X106202Y199476D01*
X106119Y199543D01*
X106034Y199607D01*
X105946Y199667D01*
X105856Y199724D01*
X105764Y199778D01*
X105670Y199829D01*
X105574Y199876D01*
X105476Y199919D01*
X105377Y199959D01*
X105277Y199996D01*
X105176Y200028D01*
X105073Y200057D01*
X104969Y200082D01*
X104865Y200103D01*
X104759Y200121D01*
X104653Y200134D01*
X104547Y200144D01*
X104441Y200150D01*
X104334Y200152D01*
X104213Y200150D01*
X104092Y200144D01*
X103972Y200134D01*
X103851Y200121D01*
X103732Y200103D01*
X103612Y200082D01*
X103494Y200057D01*
X103377Y200028D01*
X103260Y199995D01*
X103145Y199959D01*
X103031Y199918D01*
X102918Y199875D01*
X102806Y199827D01*
X102697Y199776D01*
X102589Y199721D01*
X102482Y199663D01*
X102378Y199602D01*
X102276Y199537D01*
X102176Y199469D01*
X102078Y199398D01*
X101982Y199324D01*
X101889Y199247D01*
X101799Y199166D01*
X101711Y199083D01*
X101626Y198997D01*
X101543Y198908D01*
X101464Y198817D01*
X101387Y198723D01*
X101314Y198627D01*
X101244Y198529D01*
X101177Y198428D01*
X101113Y198325D01*
X101053Y198220D01*
X100996Y198113D01*
X100942Y198005D01*
X100892Y197895D01*
X100846Y197783D01*
X100803Y197670D01*
X100764Y197555D01*
X106282Y194959D02*
X106361Y195036D01*
X106437Y195117D01*
X106510Y195200D01*
X106580Y195285D01*
X106647Y195373D01*
X106711Y195463D01*
X106771Y195555D01*
X106828Y195650D01*
X106882Y195746D01*
X106933Y195844D01*
X106980Y195944D01*
X107024Y196046D01*
X107064Y196149D01*
X107100Y196253D01*
X107132Y196359D01*
X107161Y196465D01*
X107186Y196573D01*
X107208Y196681D01*
X107225Y196791D01*
X107239Y196900D01*
X107248Y197010D01*
X107254Y197121D01*
X107256Y197231D01*
X106282Y194959D02*
X100764Y188468D01*
X107255Y188468D01*
D20*
X103834Y177815D03*
X89102Y177815D03*
D11*
X470408Y264668D02*
X470408Y276352D01*
X473654Y276352D01*
X473767Y276350D01*
X473880Y276344D01*
X473993Y276334D01*
X474106Y276320D01*
X474218Y276303D01*
X474329Y276281D01*
X474439Y276256D01*
X474549Y276226D01*
X474657Y276193D01*
X474764Y276156D01*
X474870Y276116D01*
X474974Y276071D01*
X475077Y276023D01*
X475178Y275972D01*
X475277Y275917D01*
X475374Y275859D01*
X475469Y275797D01*
X475562Y275732D01*
X475652Y275664D01*
X475740Y275593D01*
X475826Y275518D01*
X475909Y275441D01*
X475989Y275361D01*
X476066Y275278D01*
X476141Y275192D01*
X476212Y275104D01*
X476280Y275014D01*
X476345Y274921D01*
X476407Y274826D01*
X476465Y274729D01*
X476520Y274630D01*
X476571Y274529D01*
X476619Y274426D01*
X476664Y274322D01*
X476704Y274216D01*
X476741Y274109D01*
X476774Y274001D01*
X476804Y273891D01*
X476829Y273781D01*
X476851Y273670D01*
X476868Y273558D01*
X476882Y273445D01*
X476892Y273332D01*
X476898Y273219D01*
X476900Y273106D01*
X476898Y272993D01*
X476892Y272880D01*
X476882Y272767D01*
X476868Y272654D01*
X476851Y272542D01*
X476829Y272431D01*
X476804Y272321D01*
X476774Y272211D01*
X476741Y272103D01*
X476704Y271996D01*
X476664Y271890D01*
X476619Y271786D01*
X476571Y271683D01*
X476520Y271582D01*
X476465Y271483D01*
X476407Y271386D01*
X476345Y271291D01*
X476280Y271198D01*
X476212Y271108D01*
X476141Y271020D01*
X476066Y270934D01*
X475989Y270851D01*
X475909Y270771D01*
X475826Y270694D01*
X475740Y270619D01*
X475652Y270548D01*
X475562Y270480D01*
X475469Y270415D01*
X475374Y270353D01*
X475277Y270295D01*
X475178Y270240D01*
X475077Y270189D01*
X474974Y270141D01*
X474870Y270096D01*
X474764Y270056D01*
X474657Y270019D01*
X474549Y269986D01*
X474439Y269956D01*
X474329Y269931D01*
X474218Y269909D01*
X474106Y269892D01*
X473993Y269878D01*
X473880Y269868D01*
X473767Y269862D01*
X473654Y269860D01*
X473654Y269861D02*
X470408Y269861D01*
X474303Y269861D02*
X476899Y264668D01*
X481764Y264668D02*
X485010Y264668D01*
X485123Y264670D01*
X485236Y264676D01*
X485349Y264686D01*
X485462Y264700D01*
X485574Y264717D01*
X485685Y264739D01*
X485795Y264764D01*
X485905Y264794D01*
X486013Y264827D01*
X486120Y264864D01*
X486226Y264904D01*
X486330Y264949D01*
X486433Y264997D01*
X486534Y265048D01*
X486633Y265103D01*
X486730Y265161D01*
X486825Y265223D01*
X486918Y265288D01*
X487008Y265356D01*
X487096Y265427D01*
X487182Y265502D01*
X487265Y265579D01*
X487345Y265659D01*
X487422Y265742D01*
X487497Y265828D01*
X487568Y265916D01*
X487636Y266006D01*
X487701Y266099D01*
X487763Y266194D01*
X487821Y266291D01*
X487876Y266390D01*
X487927Y266491D01*
X487975Y266594D01*
X488020Y266698D01*
X488060Y266804D01*
X488097Y266911D01*
X488130Y267019D01*
X488160Y267129D01*
X488185Y267239D01*
X488207Y267350D01*
X488224Y267462D01*
X488238Y267575D01*
X488248Y267688D01*
X488254Y267801D01*
X488256Y267914D01*
X488254Y268027D01*
X488248Y268140D01*
X488238Y268253D01*
X488224Y268366D01*
X488207Y268478D01*
X488185Y268589D01*
X488160Y268699D01*
X488130Y268809D01*
X488097Y268917D01*
X488060Y269024D01*
X488020Y269130D01*
X487975Y269234D01*
X487927Y269337D01*
X487876Y269438D01*
X487821Y269537D01*
X487763Y269634D01*
X487701Y269729D01*
X487636Y269822D01*
X487568Y269912D01*
X487497Y270000D01*
X487422Y270086D01*
X487345Y270169D01*
X487265Y270249D01*
X487182Y270326D01*
X487096Y270401D01*
X487008Y270472D01*
X486918Y270540D01*
X486825Y270605D01*
X486730Y270667D01*
X486633Y270725D01*
X486534Y270780D01*
X486433Y270831D01*
X486330Y270879D01*
X486226Y270924D01*
X486120Y270964D01*
X486013Y271001D01*
X485905Y271034D01*
X485795Y271064D01*
X485685Y271089D01*
X485574Y271111D01*
X485462Y271128D01*
X485349Y271142D01*
X485236Y271152D01*
X485123Y271158D01*
X485010Y271160D01*
X485659Y276352D02*
X481764Y276352D01*
X485659Y276352D02*
X485760Y276350D01*
X485860Y276344D01*
X485960Y276334D01*
X486060Y276321D01*
X486159Y276303D01*
X486258Y276282D01*
X486355Y276257D01*
X486452Y276228D01*
X486547Y276195D01*
X486641Y276159D01*
X486733Y276119D01*
X486824Y276076D01*
X486913Y276029D01*
X487000Y275979D01*
X487086Y275925D01*
X487169Y275868D01*
X487249Y275808D01*
X487328Y275745D01*
X487404Y275678D01*
X487477Y275609D01*
X487547Y275537D01*
X487615Y275463D01*
X487680Y275386D01*
X487741Y275306D01*
X487800Y275224D01*
X487855Y275140D01*
X487907Y275054D01*
X487956Y274966D01*
X488001Y274876D01*
X488043Y274784D01*
X488081Y274691D01*
X488115Y274596D01*
X488146Y274501D01*
X488173Y274404D01*
X488196Y274306D01*
X488216Y274207D01*
X488231Y274107D01*
X488243Y274007D01*
X488251Y273907D01*
X488255Y273806D01*
X488255Y273706D01*
X488251Y273605D01*
X488243Y273505D01*
X488231Y273405D01*
X488216Y273305D01*
X488196Y273206D01*
X488173Y273108D01*
X488146Y273011D01*
X488115Y272916D01*
X488081Y272821D01*
X488043Y272728D01*
X488001Y272636D01*
X487956Y272546D01*
X487907Y272458D01*
X487855Y272372D01*
X487800Y272288D01*
X487741Y272206D01*
X487680Y272126D01*
X487615Y272049D01*
X487547Y271975D01*
X487477Y271903D01*
X487404Y271834D01*
X487328Y271767D01*
X487249Y271704D01*
X487169Y271644D01*
X487086Y271587D01*
X487000Y271533D01*
X486913Y271483D01*
X486824Y271436D01*
X486733Y271393D01*
X486641Y271353D01*
X486547Y271317D01*
X486452Y271284D01*
X486355Y271255D01*
X486258Y271230D01*
X486159Y271209D01*
X486060Y271191D01*
X485960Y271178D01*
X485860Y271168D01*
X485760Y271162D01*
X485659Y271160D01*
X485659Y271159D02*
X483063Y271159D01*
D20*
X484834Y254015D03*
X470102Y254015D03*
D11*
X419608Y264668D02*
X419608Y276352D01*
X422854Y276352D01*
X422967Y276350D01*
X423080Y276344D01*
X423193Y276334D01*
X423306Y276320D01*
X423418Y276303D01*
X423529Y276281D01*
X423639Y276256D01*
X423749Y276226D01*
X423857Y276193D01*
X423964Y276156D01*
X424070Y276116D01*
X424174Y276071D01*
X424277Y276023D01*
X424378Y275972D01*
X424477Y275917D01*
X424574Y275859D01*
X424669Y275797D01*
X424762Y275732D01*
X424852Y275664D01*
X424940Y275593D01*
X425026Y275518D01*
X425109Y275441D01*
X425189Y275361D01*
X425266Y275278D01*
X425341Y275192D01*
X425412Y275104D01*
X425480Y275014D01*
X425545Y274921D01*
X425607Y274826D01*
X425665Y274729D01*
X425720Y274630D01*
X425771Y274529D01*
X425819Y274426D01*
X425864Y274322D01*
X425904Y274216D01*
X425941Y274109D01*
X425974Y274001D01*
X426004Y273891D01*
X426029Y273781D01*
X426051Y273670D01*
X426068Y273558D01*
X426082Y273445D01*
X426092Y273332D01*
X426098Y273219D01*
X426100Y273106D01*
X426098Y272993D01*
X426092Y272880D01*
X426082Y272767D01*
X426068Y272654D01*
X426051Y272542D01*
X426029Y272431D01*
X426004Y272321D01*
X425974Y272211D01*
X425941Y272103D01*
X425904Y271996D01*
X425864Y271890D01*
X425819Y271786D01*
X425771Y271683D01*
X425720Y271582D01*
X425665Y271483D01*
X425607Y271386D01*
X425545Y271291D01*
X425480Y271198D01*
X425412Y271108D01*
X425341Y271020D01*
X425266Y270934D01*
X425189Y270851D01*
X425109Y270771D01*
X425026Y270694D01*
X424940Y270619D01*
X424852Y270548D01*
X424762Y270480D01*
X424669Y270415D01*
X424574Y270353D01*
X424477Y270295D01*
X424378Y270240D01*
X424277Y270189D01*
X424174Y270141D01*
X424070Y270096D01*
X423964Y270056D01*
X423857Y270019D01*
X423749Y269986D01*
X423639Y269956D01*
X423529Y269931D01*
X423418Y269909D01*
X423306Y269892D01*
X423193Y269878D01*
X423080Y269868D01*
X422967Y269862D01*
X422854Y269860D01*
X422854Y269861D02*
X419608Y269861D01*
X423503Y269861D02*
X426099Y264668D01*
X430964Y267264D02*
X433561Y276352D01*
X430964Y267264D02*
X437455Y267264D01*
X435508Y269861D02*
X435508Y264668D01*
D20*
X434034Y254015D03*
X419302Y254015D03*
D11*
X368808Y264668D02*
X368808Y276352D01*
X372054Y276352D01*
X372167Y276350D01*
X372280Y276344D01*
X372393Y276334D01*
X372506Y276320D01*
X372618Y276303D01*
X372729Y276281D01*
X372839Y276256D01*
X372949Y276226D01*
X373057Y276193D01*
X373164Y276156D01*
X373270Y276116D01*
X373374Y276071D01*
X373477Y276023D01*
X373578Y275972D01*
X373677Y275917D01*
X373774Y275859D01*
X373869Y275797D01*
X373962Y275732D01*
X374052Y275664D01*
X374140Y275593D01*
X374226Y275518D01*
X374309Y275441D01*
X374389Y275361D01*
X374466Y275278D01*
X374541Y275192D01*
X374612Y275104D01*
X374680Y275014D01*
X374745Y274921D01*
X374807Y274826D01*
X374865Y274729D01*
X374920Y274630D01*
X374971Y274529D01*
X375019Y274426D01*
X375064Y274322D01*
X375104Y274216D01*
X375141Y274109D01*
X375174Y274001D01*
X375204Y273891D01*
X375229Y273781D01*
X375251Y273670D01*
X375268Y273558D01*
X375282Y273445D01*
X375292Y273332D01*
X375298Y273219D01*
X375300Y273106D01*
X375298Y272993D01*
X375292Y272880D01*
X375282Y272767D01*
X375268Y272654D01*
X375251Y272542D01*
X375229Y272431D01*
X375204Y272321D01*
X375174Y272211D01*
X375141Y272103D01*
X375104Y271996D01*
X375064Y271890D01*
X375019Y271786D01*
X374971Y271683D01*
X374920Y271582D01*
X374865Y271483D01*
X374807Y271386D01*
X374745Y271291D01*
X374680Y271198D01*
X374612Y271108D01*
X374541Y271020D01*
X374466Y270934D01*
X374389Y270851D01*
X374309Y270771D01*
X374226Y270694D01*
X374140Y270619D01*
X374052Y270548D01*
X373962Y270480D01*
X373869Y270415D01*
X373774Y270353D01*
X373677Y270295D01*
X373578Y270240D01*
X373477Y270189D01*
X373374Y270141D01*
X373270Y270096D01*
X373164Y270056D01*
X373057Y270019D01*
X372949Y269986D01*
X372839Y269956D01*
X372729Y269931D01*
X372618Y269909D01*
X372506Y269892D01*
X372393Y269878D01*
X372280Y269868D01*
X372167Y269862D01*
X372054Y269860D01*
X372054Y269861D02*
X368808Y269861D01*
X372703Y269861D02*
X375299Y264668D01*
X380164Y264668D02*
X384059Y264668D01*
X384158Y264670D01*
X384258Y264676D01*
X384357Y264685D01*
X384455Y264698D01*
X384553Y264715D01*
X384651Y264736D01*
X384747Y264761D01*
X384842Y264789D01*
X384936Y264821D01*
X385029Y264856D01*
X385121Y264895D01*
X385211Y264938D01*
X385299Y264983D01*
X385386Y265033D01*
X385470Y265085D01*
X385553Y265141D01*
X385633Y265199D01*
X385711Y265261D01*
X385786Y265326D01*
X385859Y265394D01*
X385929Y265464D01*
X385997Y265537D01*
X386062Y265612D01*
X386124Y265690D01*
X386182Y265770D01*
X386238Y265853D01*
X386290Y265937D01*
X386340Y266024D01*
X386385Y266112D01*
X386428Y266202D01*
X386467Y266294D01*
X386502Y266387D01*
X386534Y266481D01*
X386562Y266576D01*
X386587Y266672D01*
X386608Y266770D01*
X386625Y266868D01*
X386638Y266966D01*
X386647Y267065D01*
X386653Y267165D01*
X386655Y267264D01*
X386655Y268563D01*
X386653Y268662D01*
X386647Y268762D01*
X386638Y268861D01*
X386625Y268959D01*
X386608Y269057D01*
X386587Y269155D01*
X386562Y269251D01*
X386534Y269346D01*
X386502Y269440D01*
X386467Y269533D01*
X386428Y269625D01*
X386385Y269715D01*
X386340Y269803D01*
X386290Y269890D01*
X386238Y269974D01*
X386182Y270057D01*
X386124Y270137D01*
X386062Y270215D01*
X385997Y270290D01*
X385929Y270363D01*
X385859Y270433D01*
X385786Y270501D01*
X385711Y270566D01*
X385633Y270628D01*
X385553Y270686D01*
X385470Y270742D01*
X385386Y270794D01*
X385299Y270844D01*
X385211Y270889D01*
X385121Y270932D01*
X385029Y270971D01*
X384936Y271006D01*
X384842Y271038D01*
X384747Y271066D01*
X384651Y271091D01*
X384553Y271112D01*
X384455Y271129D01*
X384357Y271142D01*
X384258Y271151D01*
X384158Y271157D01*
X384059Y271159D01*
X380164Y271159D01*
X380164Y276352D01*
X386655Y276352D01*
D20*
X383234Y254015D03*
X368502Y254015D03*
D11*
X318008Y264668D02*
X318008Y276352D01*
X321254Y276352D01*
X321367Y276350D01*
X321480Y276344D01*
X321593Y276334D01*
X321706Y276320D01*
X321818Y276303D01*
X321929Y276281D01*
X322039Y276256D01*
X322149Y276226D01*
X322257Y276193D01*
X322364Y276156D01*
X322470Y276116D01*
X322574Y276071D01*
X322677Y276023D01*
X322778Y275972D01*
X322877Y275917D01*
X322974Y275859D01*
X323069Y275797D01*
X323162Y275732D01*
X323252Y275664D01*
X323340Y275593D01*
X323426Y275518D01*
X323509Y275441D01*
X323589Y275361D01*
X323666Y275278D01*
X323741Y275192D01*
X323812Y275104D01*
X323880Y275014D01*
X323945Y274921D01*
X324007Y274826D01*
X324065Y274729D01*
X324120Y274630D01*
X324171Y274529D01*
X324219Y274426D01*
X324264Y274322D01*
X324304Y274216D01*
X324341Y274109D01*
X324374Y274001D01*
X324404Y273891D01*
X324429Y273781D01*
X324451Y273670D01*
X324468Y273558D01*
X324482Y273445D01*
X324492Y273332D01*
X324498Y273219D01*
X324500Y273106D01*
X324498Y272993D01*
X324492Y272880D01*
X324482Y272767D01*
X324468Y272654D01*
X324451Y272542D01*
X324429Y272431D01*
X324404Y272321D01*
X324374Y272211D01*
X324341Y272103D01*
X324304Y271996D01*
X324264Y271890D01*
X324219Y271786D01*
X324171Y271683D01*
X324120Y271582D01*
X324065Y271483D01*
X324007Y271386D01*
X323945Y271291D01*
X323880Y271198D01*
X323812Y271108D01*
X323741Y271020D01*
X323666Y270934D01*
X323589Y270851D01*
X323509Y270771D01*
X323426Y270694D01*
X323340Y270619D01*
X323252Y270548D01*
X323162Y270480D01*
X323069Y270415D01*
X322974Y270353D01*
X322877Y270295D01*
X322778Y270240D01*
X322677Y270189D01*
X322574Y270141D01*
X322470Y270096D01*
X322364Y270056D01*
X322257Y270019D01*
X322149Y269986D01*
X322039Y269956D01*
X321929Y269931D01*
X321818Y269909D01*
X321706Y269892D01*
X321593Y269878D01*
X321480Y269868D01*
X321367Y269862D01*
X321254Y269860D01*
X321254Y269861D02*
X318008Y269861D01*
X321903Y269861D02*
X324499Y264668D01*
X329364Y271159D02*
X333259Y271159D01*
X333358Y271157D01*
X333458Y271151D01*
X333557Y271142D01*
X333655Y271129D01*
X333753Y271112D01*
X333851Y271091D01*
X333947Y271066D01*
X334042Y271038D01*
X334136Y271006D01*
X334229Y270971D01*
X334321Y270932D01*
X334411Y270889D01*
X334499Y270844D01*
X334586Y270794D01*
X334670Y270742D01*
X334753Y270686D01*
X334833Y270628D01*
X334911Y270566D01*
X334986Y270501D01*
X335059Y270433D01*
X335129Y270363D01*
X335197Y270290D01*
X335262Y270215D01*
X335324Y270137D01*
X335382Y270057D01*
X335438Y269974D01*
X335490Y269890D01*
X335540Y269803D01*
X335585Y269715D01*
X335628Y269625D01*
X335667Y269533D01*
X335702Y269440D01*
X335734Y269346D01*
X335762Y269251D01*
X335787Y269155D01*
X335808Y269057D01*
X335825Y268959D01*
X335838Y268861D01*
X335847Y268762D01*
X335853Y268662D01*
X335855Y268563D01*
X335855Y267914D01*
X335856Y267914D02*
X335854Y267801D01*
X335848Y267688D01*
X335838Y267575D01*
X335824Y267462D01*
X335807Y267350D01*
X335785Y267239D01*
X335760Y267129D01*
X335730Y267019D01*
X335697Y266911D01*
X335660Y266804D01*
X335620Y266698D01*
X335575Y266594D01*
X335527Y266491D01*
X335476Y266390D01*
X335421Y266291D01*
X335363Y266194D01*
X335301Y266099D01*
X335236Y266006D01*
X335168Y265916D01*
X335097Y265828D01*
X335022Y265742D01*
X334945Y265659D01*
X334865Y265579D01*
X334782Y265502D01*
X334696Y265427D01*
X334608Y265356D01*
X334518Y265288D01*
X334425Y265223D01*
X334330Y265161D01*
X334233Y265103D01*
X334134Y265048D01*
X334033Y264997D01*
X333930Y264949D01*
X333826Y264904D01*
X333720Y264864D01*
X333613Y264827D01*
X333505Y264794D01*
X333395Y264764D01*
X333285Y264739D01*
X333174Y264717D01*
X333062Y264700D01*
X332949Y264686D01*
X332836Y264676D01*
X332723Y264670D01*
X332610Y264668D01*
X332497Y264670D01*
X332384Y264676D01*
X332271Y264686D01*
X332158Y264700D01*
X332046Y264717D01*
X331935Y264739D01*
X331825Y264764D01*
X331715Y264794D01*
X331607Y264827D01*
X331500Y264864D01*
X331394Y264904D01*
X331290Y264949D01*
X331187Y264997D01*
X331086Y265048D01*
X330987Y265103D01*
X330890Y265161D01*
X330795Y265223D01*
X330702Y265288D01*
X330612Y265356D01*
X330524Y265427D01*
X330438Y265502D01*
X330355Y265579D01*
X330275Y265659D01*
X330198Y265742D01*
X330123Y265828D01*
X330052Y265916D01*
X329984Y266006D01*
X329919Y266099D01*
X329857Y266194D01*
X329799Y266291D01*
X329744Y266390D01*
X329693Y266491D01*
X329645Y266594D01*
X329600Y266698D01*
X329560Y266804D01*
X329523Y266911D01*
X329490Y267019D01*
X329460Y267129D01*
X329435Y267239D01*
X329413Y267350D01*
X329396Y267462D01*
X329382Y267575D01*
X329372Y267688D01*
X329366Y267801D01*
X329364Y267914D01*
X329364Y271159D01*
X329366Y271302D01*
X329372Y271445D01*
X329382Y271588D01*
X329396Y271730D01*
X329413Y271872D01*
X329435Y272014D01*
X329460Y272155D01*
X329490Y272295D01*
X329523Y272434D01*
X329560Y272572D01*
X329601Y272709D01*
X329645Y272845D01*
X329694Y272980D01*
X329746Y273113D01*
X329801Y273245D01*
X329861Y273375D01*
X329924Y273504D01*
X329990Y273631D01*
X330060Y273755D01*
X330133Y273878D01*
X330210Y273999D01*
X330290Y274118D01*
X330373Y274234D01*
X330459Y274349D01*
X330548Y274460D01*
X330641Y274570D01*
X330736Y274676D01*
X330835Y274780D01*
X330936Y274881D01*
X331040Y274980D01*
X331146Y275075D01*
X331256Y275168D01*
X331367Y275257D01*
X331482Y275343D01*
X331598Y275426D01*
X331717Y275506D01*
X331838Y275583D01*
X331960Y275656D01*
X332085Y275726D01*
X332212Y275792D01*
X332341Y275855D01*
X332471Y275915D01*
X332603Y275970D01*
X332736Y276022D01*
X332871Y276071D01*
X333007Y276115D01*
X333144Y276156D01*
X333282Y276193D01*
X333421Y276226D01*
X333561Y276256D01*
X333702Y276281D01*
X333844Y276303D01*
X333986Y276320D01*
X334128Y276334D01*
X334271Y276344D01*
X334414Y276350D01*
X334557Y276352D01*
D20*
X332434Y254015D03*
X317702Y254015D03*
D11*
X267208Y264668D02*
X267208Y276352D01*
X270454Y276352D01*
X270567Y276350D01*
X270680Y276344D01*
X270793Y276334D01*
X270906Y276320D01*
X271018Y276303D01*
X271129Y276281D01*
X271239Y276256D01*
X271349Y276226D01*
X271457Y276193D01*
X271564Y276156D01*
X271670Y276116D01*
X271774Y276071D01*
X271877Y276023D01*
X271978Y275972D01*
X272077Y275917D01*
X272174Y275859D01*
X272269Y275797D01*
X272362Y275732D01*
X272452Y275664D01*
X272540Y275593D01*
X272626Y275518D01*
X272709Y275441D01*
X272789Y275361D01*
X272866Y275278D01*
X272941Y275192D01*
X273012Y275104D01*
X273080Y275014D01*
X273145Y274921D01*
X273207Y274826D01*
X273265Y274729D01*
X273320Y274630D01*
X273371Y274529D01*
X273419Y274426D01*
X273464Y274322D01*
X273504Y274216D01*
X273541Y274109D01*
X273574Y274001D01*
X273604Y273891D01*
X273629Y273781D01*
X273651Y273670D01*
X273668Y273558D01*
X273682Y273445D01*
X273692Y273332D01*
X273698Y273219D01*
X273700Y273106D01*
X273698Y272993D01*
X273692Y272880D01*
X273682Y272767D01*
X273668Y272654D01*
X273651Y272542D01*
X273629Y272431D01*
X273604Y272321D01*
X273574Y272211D01*
X273541Y272103D01*
X273504Y271996D01*
X273464Y271890D01*
X273419Y271786D01*
X273371Y271683D01*
X273320Y271582D01*
X273265Y271483D01*
X273207Y271386D01*
X273145Y271291D01*
X273080Y271198D01*
X273012Y271108D01*
X272941Y271020D01*
X272866Y270934D01*
X272789Y270851D01*
X272709Y270771D01*
X272626Y270694D01*
X272540Y270619D01*
X272452Y270548D01*
X272362Y270480D01*
X272269Y270415D01*
X272174Y270353D01*
X272077Y270295D01*
X271978Y270240D01*
X271877Y270189D01*
X271774Y270141D01*
X271670Y270096D01*
X271564Y270056D01*
X271457Y270019D01*
X271349Y269986D01*
X271239Y269956D01*
X271129Y269931D01*
X271018Y269909D01*
X270906Y269892D01*
X270793Y269878D01*
X270680Y269868D01*
X270567Y269862D01*
X270454Y269860D01*
X270454Y269861D02*
X267208Y269861D01*
X271103Y269861D02*
X273699Y264668D01*
X278564Y275054D02*
X278564Y276352D01*
X285055Y276352D01*
X281810Y264668D01*
D20*
X281634Y254015D03*
X266902Y254015D03*
D12*
X295402Y443992D02*
X295402Y450596D01*
X297236Y450596D01*
X297321Y450594D01*
X297405Y450588D01*
X297489Y450578D01*
X297573Y450565D01*
X297656Y450547D01*
X297738Y450526D01*
X297819Y450501D01*
X297899Y450472D01*
X297977Y450440D01*
X298053Y450404D01*
X298128Y450364D01*
X298201Y450321D01*
X298272Y450275D01*
X298341Y450226D01*
X298408Y450173D01*
X298472Y450117D01*
X298533Y450059D01*
X298591Y449998D01*
X298647Y449934D01*
X298700Y449867D01*
X298749Y449798D01*
X298795Y449727D01*
X298838Y449654D01*
X298878Y449579D01*
X298914Y449503D01*
X298946Y449425D01*
X298975Y449345D01*
X299000Y449264D01*
X299021Y449182D01*
X299039Y449099D01*
X299052Y449015D01*
X299062Y448931D01*
X299068Y448847D01*
X299070Y448762D01*
X299068Y448677D01*
X299062Y448593D01*
X299052Y448509D01*
X299039Y448425D01*
X299021Y448342D01*
X299000Y448260D01*
X298975Y448179D01*
X298946Y448099D01*
X298914Y448021D01*
X298878Y447945D01*
X298838Y447870D01*
X298795Y447797D01*
X298749Y447726D01*
X298700Y447657D01*
X298647Y447590D01*
X298591Y447526D01*
X298533Y447465D01*
X298472Y447407D01*
X298408Y447351D01*
X298341Y447298D01*
X298272Y447249D01*
X298201Y447203D01*
X298128Y447160D01*
X298053Y447120D01*
X297977Y447084D01*
X297899Y447052D01*
X297819Y447023D01*
X297738Y446998D01*
X297656Y446977D01*
X297573Y446959D01*
X297489Y446946D01*
X297405Y446936D01*
X297321Y446930D01*
X297236Y446928D01*
X297236Y446927D02*
X295402Y446927D01*
X297603Y446927D02*
X299071Y443992D01*
X302639Y445826D02*
X302641Y445911D01*
X302647Y445995D01*
X302657Y446079D01*
X302670Y446163D01*
X302688Y446246D01*
X302709Y446328D01*
X302734Y446409D01*
X302763Y446489D01*
X302795Y446567D01*
X302831Y446643D01*
X302871Y446718D01*
X302914Y446791D01*
X302960Y446862D01*
X303009Y446931D01*
X303062Y446998D01*
X303118Y447062D01*
X303176Y447123D01*
X303237Y447181D01*
X303301Y447237D01*
X303368Y447290D01*
X303437Y447339D01*
X303508Y447385D01*
X303581Y447428D01*
X303656Y447468D01*
X303732Y447504D01*
X303810Y447536D01*
X303890Y447565D01*
X303971Y447590D01*
X304053Y447611D01*
X304136Y447629D01*
X304220Y447642D01*
X304304Y447652D01*
X304388Y447658D01*
X304473Y447660D01*
X304558Y447658D01*
X304642Y447652D01*
X304726Y447642D01*
X304810Y447629D01*
X304893Y447611D01*
X304975Y447590D01*
X305056Y447565D01*
X305136Y447536D01*
X305214Y447504D01*
X305290Y447468D01*
X305365Y447428D01*
X305438Y447385D01*
X305509Y447339D01*
X305578Y447290D01*
X305645Y447237D01*
X305709Y447181D01*
X305770Y447123D01*
X305828Y447062D01*
X305884Y446998D01*
X305937Y446931D01*
X305986Y446862D01*
X306032Y446791D01*
X306075Y446718D01*
X306115Y446643D01*
X306151Y446567D01*
X306183Y446489D01*
X306212Y446409D01*
X306237Y446328D01*
X306258Y446246D01*
X306276Y446163D01*
X306289Y446079D01*
X306299Y445995D01*
X306305Y445911D01*
X306307Y445826D01*
X306305Y445741D01*
X306299Y445657D01*
X306289Y445573D01*
X306276Y445489D01*
X306258Y445406D01*
X306237Y445324D01*
X306212Y445243D01*
X306183Y445163D01*
X306151Y445085D01*
X306115Y445009D01*
X306075Y444934D01*
X306032Y444861D01*
X305986Y444790D01*
X305937Y444721D01*
X305884Y444654D01*
X305828Y444590D01*
X305770Y444529D01*
X305709Y444471D01*
X305645Y444415D01*
X305578Y444362D01*
X305509Y444313D01*
X305438Y444267D01*
X305365Y444224D01*
X305290Y444184D01*
X305214Y444148D01*
X305136Y444116D01*
X305056Y444087D01*
X304975Y444062D01*
X304893Y444041D01*
X304810Y444023D01*
X304726Y444010D01*
X304642Y444000D01*
X304558Y443994D01*
X304473Y443992D01*
X304388Y443994D01*
X304304Y444000D01*
X304220Y444010D01*
X304136Y444023D01*
X304053Y444041D01*
X303971Y444062D01*
X303890Y444087D01*
X303810Y444116D01*
X303732Y444148D01*
X303656Y444184D01*
X303581Y444224D01*
X303508Y444267D01*
X303437Y444313D01*
X303368Y444362D01*
X303301Y444415D01*
X303237Y444471D01*
X303176Y444529D01*
X303118Y444590D01*
X303062Y444654D01*
X303009Y444721D01*
X302960Y444790D01*
X302914Y444861D01*
X302871Y444934D01*
X302831Y445009D01*
X302795Y445085D01*
X302763Y445163D01*
X302734Y445243D01*
X302709Y445324D01*
X302688Y445406D01*
X302670Y445489D01*
X302657Y445573D01*
X302647Y445657D01*
X302641Y445741D01*
X302639Y445826D01*
X303005Y449128D02*
X303007Y449204D01*
X303013Y449279D01*
X303022Y449354D01*
X303036Y449428D01*
X303053Y449502D01*
X303075Y449574D01*
X303099Y449646D01*
X303128Y449716D01*
X303160Y449784D01*
X303195Y449851D01*
X303234Y449916D01*
X303277Y449979D01*
X303322Y450039D01*
X303370Y450097D01*
X303422Y450153D01*
X303476Y450205D01*
X303533Y450255D01*
X303592Y450302D01*
X303653Y450346D01*
X303717Y450387D01*
X303783Y450424D01*
X303851Y450458D01*
X303920Y450488D01*
X303991Y450515D01*
X304063Y450538D01*
X304136Y450557D01*
X304210Y450572D01*
X304285Y450584D01*
X304360Y450592D01*
X304435Y450596D01*
X304511Y450596D01*
X304586Y450592D01*
X304661Y450584D01*
X304736Y450572D01*
X304810Y450557D01*
X304883Y450538D01*
X304955Y450515D01*
X305026Y450488D01*
X305095Y450458D01*
X305163Y450424D01*
X305229Y450387D01*
X305293Y450346D01*
X305354Y450302D01*
X305413Y450255D01*
X305470Y450205D01*
X305524Y450153D01*
X305576Y450097D01*
X305624Y450039D01*
X305669Y449979D01*
X305712Y449916D01*
X305751Y449851D01*
X305786Y449784D01*
X305818Y449716D01*
X305847Y449646D01*
X305871Y449574D01*
X305893Y449502D01*
X305910Y449428D01*
X305924Y449354D01*
X305933Y449279D01*
X305939Y449204D01*
X305941Y449128D01*
X305939Y449052D01*
X305933Y448977D01*
X305924Y448902D01*
X305910Y448828D01*
X305893Y448754D01*
X305871Y448682D01*
X305847Y448610D01*
X305818Y448540D01*
X305786Y448472D01*
X305751Y448405D01*
X305712Y448340D01*
X305669Y448277D01*
X305624Y448217D01*
X305576Y448159D01*
X305524Y448103D01*
X305470Y448051D01*
X305413Y448001D01*
X305354Y447954D01*
X305293Y447910D01*
X305229Y447869D01*
X305163Y447832D01*
X305095Y447798D01*
X305026Y447768D01*
X304955Y447741D01*
X304883Y447718D01*
X304810Y447699D01*
X304736Y447684D01*
X304661Y447672D01*
X304586Y447664D01*
X304511Y447660D01*
X304435Y447660D01*
X304360Y447664D01*
X304285Y447672D01*
X304210Y447684D01*
X304136Y447699D01*
X304063Y447718D01*
X303991Y447741D01*
X303920Y447768D01*
X303851Y447798D01*
X303783Y447832D01*
X303717Y447869D01*
X303653Y447910D01*
X303592Y447954D01*
X303533Y448001D01*
X303476Y448051D01*
X303422Y448103D01*
X303370Y448159D01*
X303322Y448217D01*
X303277Y448277D01*
X303234Y448340D01*
X303195Y448405D01*
X303160Y448472D01*
X303128Y448540D01*
X303099Y448610D01*
X303075Y448682D01*
X303053Y448754D01*
X303036Y448828D01*
X303022Y448902D01*
X303013Y448977D01*
X303007Y449052D01*
X303005Y449128D01*
D13*
X274320Y449580D02*
X274320Y439420D01*
D12*
X231902Y443992D02*
X231902Y450596D01*
X233736Y450596D01*
X233821Y450594D01*
X233905Y450588D01*
X233989Y450578D01*
X234073Y450565D01*
X234156Y450547D01*
X234238Y450526D01*
X234319Y450501D01*
X234399Y450472D01*
X234477Y450440D01*
X234553Y450404D01*
X234628Y450364D01*
X234701Y450321D01*
X234772Y450275D01*
X234841Y450226D01*
X234908Y450173D01*
X234972Y450117D01*
X235033Y450059D01*
X235091Y449998D01*
X235147Y449934D01*
X235200Y449867D01*
X235249Y449798D01*
X235295Y449727D01*
X235338Y449654D01*
X235378Y449579D01*
X235414Y449503D01*
X235446Y449425D01*
X235475Y449345D01*
X235500Y449264D01*
X235521Y449182D01*
X235539Y449099D01*
X235552Y449015D01*
X235562Y448931D01*
X235568Y448847D01*
X235570Y448762D01*
X235568Y448677D01*
X235562Y448593D01*
X235552Y448509D01*
X235539Y448425D01*
X235521Y448342D01*
X235500Y448260D01*
X235475Y448179D01*
X235446Y448099D01*
X235414Y448021D01*
X235378Y447945D01*
X235338Y447870D01*
X235295Y447797D01*
X235249Y447726D01*
X235200Y447657D01*
X235147Y447590D01*
X235091Y447526D01*
X235033Y447465D01*
X234972Y447407D01*
X234908Y447351D01*
X234841Y447298D01*
X234772Y447249D01*
X234701Y447203D01*
X234628Y447160D01*
X234553Y447120D01*
X234477Y447084D01*
X234399Y447052D01*
X234319Y447023D01*
X234238Y446998D01*
X234156Y446977D01*
X234073Y446959D01*
X233989Y446946D01*
X233905Y446936D01*
X233821Y446930D01*
X233736Y446928D01*
X233736Y446927D02*
X231902Y446927D01*
X234103Y446927D02*
X235571Y443992D01*
X240606Y446927D02*
X242807Y446927D01*
X240606Y446927D02*
X240532Y446929D01*
X240457Y446935D01*
X240384Y446944D01*
X240310Y446957D01*
X240238Y446974D01*
X240167Y446994D01*
X240096Y447018D01*
X240027Y447046D01*
X239960Y447077D01*
X239894Y447111D01*
X239829Y447149D01*
X239767Y447190D01*
X239707Y447234D01*
X239650Y447281D01*
X239595Y447331D01*
X239542Y447384D01*
X239492Y447439D01*
X239445Y447496D01*
X239401Y447556D01*
X239360Y447618D01*
X239322Y447683D01*
X239288Y447749D01*
X239257Y447816D01*
X239229Y447885D01*
X239205Y447956D01*
X239185Y448027D01*
X239168Y448099D01*
X239155Y448173D01*
X239146Y448246D01*
X239140Y448321D01*
X239138Y448395D01*
X239138Y448762D01*
X239139Y448762D02*
X239141Y448847D01*
X239147Y448931D01*
X239157Y449015D01*
X239170Y449099D01*
X239188Y449182D01*
X239209Y449264D01*
X239234Y449345D01*
X239263Y449425D01*
X239295Y449503D01*
X239331Y449579D01*
X239371Y449654D01*
X239414Y449727D01*
X239460Y449798D01*
X239509Y449867D01*
X239562Y449934D01*
X239618Y449998D01*
X239676Y450059D01*
X239737Y450117D01*
X239801Y450173D01*
X239868Y450226D01*
X239937Y450275D01*
X240008Y450321D01*
X240081Y450364D01*
X240156Y450404D01*
X240232Y450440D01*
X240310Y450472D01*
X240390Y450501D01*
X240471Y450526D01*
X240553Y450547D01*
X240636Y450565D01*
X240720Y450578D01*
X240804Y450588D01*
X240888Y450594D01*
X240973Y450596D01*
X241058Y450594D01*
X241142Y450588D01*
X241226Y450578D01*
X241310Y450565D01*
X241393Y450547D01*
X241475Y450526D01*
X241556Y450501D01*
X241636Y450472D01*
X241714Y450440D01*
X241790Y450404D01*
X241865Y450364D01*
X241938Y450321D01*
X242009Y450275D01*
X242078Y450226D01*
X242145Y450173D01*
X242209Y450117D01*
X242270Y450059D01*
X242328Y449998D01*
X242384Y449934D01*
X242437Y449867D01*
X242486Y449798D01*
X242532Y449727D01*
X242575Y449654D01*
X242615Y449579D01*
X242651Y449503D01*
X242683Y449425D01*
X242712Y449345D01*
X242737Y449264D01*
X242758Y449182D01*
X242776Y449099D01*
X242789Y449015D01*
X242799Y448931D01*
X242805Y448847D01*
X242807Y448762D01*
X242807Y446927D01*
X242805Y446820D01*
X242799Y446713D01*
X242789Y446606D01*
X242776Y446500D01*
X242758Y446394D01*
X242737Y446289D01*
X242712Y446185D01*
X242683Y446081D01*
X242650Y445979D01*
X242613Y445879D01*
X242573Y445779D01*
X242529Y445681D01*
X242482Y445585D01*
X242431Y445491D01*
X242377Y445398D01*
X242320Y445308D01*
X242259Y445219D01*
X242195Y445133D01*
X242128Y445050D01*
X242058Y444968D01*
X241985Y444890D01*
X241909Y444814D01*
X241831Y444741D01*
X241749Y444671D01*
X241666Y444604D01*
X241580Y444540D01*
X241491Y444479D01*
X241401Y444422D01*
X241308Y444368D01*
X241214Y444317D01*
X241118Y444269D01*
X241020Y444226D01*
X240920Y444186D01*
X240820Y444149D01*
X240718Y444116D01*
X240614Y444087D01*
X240510Y444062D01*
X240405Y444041D01*
X240299Y444023D01*
X240193Y444010D01*
X240086Y444000D01*
X239979Y443994D01*
X239872Y443992D01*
D13*
X210820Y439420D02*
X210820Y449580D01*
D14*
X383020Y336500D02*
X383020Y332500D01*
X383020Y336500D02*
X445020Y336500D01*
X445020Y332500D01*
X383020Y302500D02*
X383020Y298500D01*
X445020Y298500D01*
X445020Y302500D01*
D12*
X388021Y341430D02*
X388019Y341356D01*
X388013Y341281D01*
X388004Y341208D01*
X387991Y341134D01*
X387974Y341062D01*
X387954Y340991D01*
X387930Y340920D01*
X387902Y340851D01*
X387871Y340783D01*
X387837Y340718D01*
X387799Y340653D01*
X387758Y340591D01*
X387714Y340531D01*
X387667Y340474D01*
X387617Y340419D01*
X387564Y340366D01*
X387509Y340316D01*
X387452Y340269D01*
X387392Y340225D01*
X387330Y340184D01*
X387265Y340146D01*
X387199Y340112D01*
X387132Y340081D01*
X387063Y340053D01*
X386992Y340029D01*
X386921Y340009D01*
X386848Y339992D01*
X386775Y339979D01*
X386701Y339970D01*
X386627Y339964D01*
X386553Y339962D01*
X386442Y339964D01*
X386331Y339970D01*
X386220Y339980D01*
X386109Y339994D01*
X386000Y340012D01*
X385891Y340034D01*
X385782Y340059D01*
X385675Y340089D01*
X385569Y340122D01*
X385464Y340160D01*
X385361Y340200D01*
X385259Y340245D01*
X385159Y340293D01*
X385060Y340345D01*
X384964Y340400D01*
X384869Y340459D01*
X384777Y340521D01*
X384687Y340587D01*
X384599Y340655D01*
X384514Y340727D01*
X384432Y340802D01*
X384352Y340879D01*
X384535Y345098D02*
X384537Y345172D01*
X384543Y345247D01*
X384552Y345320D01*
X384565Y345394D01*
X384582Y345466D01*
X384602Y345537D01*
X384626Y345608D01*
X384654Y345677D01*
X384685Y345744D01*
X384719Y345810D01*
X384757Y345875D01*
X384798Y345937D01*
X384842Y345997D01*
X384889Y346054D01*
X384939Y346109D01*
X384992Y346162D01*
X385047Y346212D01*
X385104Y346259D01*
X385164Y346303D01*
X385226Y346344D01*
X385291Y346382D01*
X385357Y346416D01*
X385424Y346447D01*
X385493Y346475D01*
X385564Y346499D01*
X385635Y346519D01*
X385707Y346536D01*
X385781Y346549D01*
X385854Y346558D01*
X385929Y346564D01*
X386003Y346566D01*
X386107Y346564D01*
X386211Y346558D01*
X386315Y346548D01*
X386418Y346535D01*
X386521Y346517D01*
X386623Y346495D01*
X386724Y346470D01*
X386824Y346441D01*
X386923Y346408D01*
X387020Y346371D01*
X387116Y346331D01*
X387211Y346287D01*
X387303Y346239D01*
X387394Y346189D01*
X387483Y346134D01*
X387570Y346077D01*
X387654Y346016D01*
X385269Y343813D02*
X385206Y343852D01*
X385146Y343894D01*
X385088Y343939D01*
X385031Y343987D01*
X384978Y344038D01*
X384927Y344091D01*
X384878Y344146D01*
X384833Y344204D01*
X384790Y344264D01*
X384750Y344326D01*
X384714Y344390D01*
X384680Y344456D01*
X384650Y344524D01*
X384623Y344592D01*
X384600Y344662D01*
X384580Y344733D01*
X384564Y344805D01*
X384551Y344878D01*
X384542Y344951D01*
X384537Y345024D01*
X384535Y345098D01*
X387287Y342715D02*
X387350Y342676D01*
X387410Y342634D01*
X387469Y342589D01*
X387525Y342541D01*
X387578Y342490D01*
X387629Y342437D01*
X387678Y342382D01*
X387723Y342324D01*
X387766Y342264D01*
X387806Y342202D01*
X387842Y342138D01*
X387876Y342072D01*
X387906Y342004D01*
X387933Y341936D01*
X387956Y341866D01*
X387976Y341795D01*
X387992Y341723D01*
X388005Y341650D01*
X388014Y341577D01*
X388019Y341504D01*
X388021Y341430D01*
X387287Y342714D02*
X385269Y343814D01*
X391298Y346566D02*
X392766Y339962D01*
X394233Y344365D01*
X395701Y339962D01*
X397168Y346566D01*
X400689Y345098D02*
X402524Y346566D01*
X402524Y339962D01*
X404358Y339962D02*
X400689Y339962D01*
X449882Y220346D02*
X449882Y215576D01*
X449884Y215491D01*
X449890Y215407D01*
X449900Y215323D01*
X449913Y215239D01*
X449931Y215156D01*
X449952Y215074D01*
X449977Y214993D01*
X450006Y214913D01*
X450038Y214835D01*
X450074Y214759D01*
X450114Y214684D01*
X450157Y214611D01*
X450203Y214540D01*
X450252Y214471D01*
X450305Y214404D01*
X450361Y214340D01*
X450419Y214279D01*
X450480Y214221D01*
X450544Y214165D01*
X450611Y214112D01*
X450680Y214063D01*
X450751Y214017D01*
X450824Y213974D01*
X450899Y213934D01*
X450975Y213898D01*
X451053Y213866D01*
X451133Y213837D01*
X451214Y213812D01*
X451296Y213791D01*
X451379Y213773D01*
X451463Y213760D01*
X451547Y213750D01*
X451631Y213744D01*
X451716Y213742D01*
X451801Y213744D01*
X451885Y213750D01*
X451969Y213760D01*
X452053Y213773D01*
X452136Y213791D01*
X452218Y213812D01*
X452299Y213837D01*
X452379Y213866D01*
X452457Y213898D01*
X452533Y213934D01*
X452608Y213974D01*
X452681Y214017D01*
X452752Y214063D01*
X452821Y214112D01*
X452888Y214165D01*
X452952Y214221D01*
X453013Y214279D01*
X453071Y214340D01*
X453127Y214404D01*
X453180Y214471D01*
X453229Y214540D01*
X453275Y214611D01*
X453318Y214684D01*
X453358Y214759D01*
X453394Y214835D01*
X453426Y214913D01*
X453455Y214993D01*
X453480Y215074D01*
X453501Y215156D01*
X453519Y215239D01*
X453532Y215323D01*
X453542Y215407D01*
X453548Y215491D01*
X453550Y215576D01*
X453551Y215576D02*
X453551Y220346D01*
X458788Y220346D02*
X458788Y213742D01*
X458788Y217044D02*
X457871Y217594D01*
X457870Y217594D02*
X457816Y217629D01*
X457763Y217667D01*
X457713Y217708D01*
X457666Y217752D01*
X457621Y217799D01*
X457579Y217848D01*
X457540Y217900D01*
X457504Y217954D01*
X457472Y218009D01*
X457442Y218067D01*
X457417Y218126D01*
X457394Y218187D01*
X457376Y218249D01*
X457361Y218312D01*
X457349Y218376D01*
X457342Y218440D01*
X457338Y218505D01*
X457339Y218569D01*
X457343Y218634D01*
X457350Y218698D01*
X457362Y218762D01*
X457377Y218825D01*
X457396Y218887D01*
X457419Y218947D01*
X457445Y219006D01*
X457475Y219064D01*
X457508Y219120D01*
X457544Y219173D01*
X457583Y219225D01*
X457625Y219274D01*
X457670Y219320D01*
X457718Y219364D01*
X457768Y219405D01*
X457821Y219442D01*
X457875Y219477D01*
X457932Y219508D01*
X457990Y219536D01*
X458050Y219561D01*
X458111Y219581D01*
X458174Y219599D01*
X458237Y219612D01*
X458238Y219613D02*
X458341Y219630D01*
X458445Y219643D01*
X458549Y219652D01*
X458654Y219658D01*
X458759Y219660D01*
X458864Y219658D01*
X458968Y219653D01*
X459073Y219643D01*
X459177Y219630D01*
X459280Y219613D01*
X459383Y219593D01*
X459485Y219568D01*
X459586Y219540D01*
X459686Y219509D01*
X459784Y219474D01*
X459882Y219435D01*
X459978Y219393D01*
X460072Y219347D01*
X460165Y219298D01*
X460256Y219246D01*
X458788Y217044D02*
X459705Y216494D01*
X459759Y216459D01*
X459812Y216421D01*
X459862Y216380D01*
X459909Y216336D01*
X459954Y216289D01*
X459996Y216240D01*
X460035Y216188D01*
X460071Y216134D01*
X460103Y216079D01*
X460133Y216021D01*
X460158Y215962D01*
X460181Y215901D01*
X460199Y215839D01*
X460214Y215776D01*
X460226Y215712D01*
X460233Y215648D01*
X460237Y215583D01*
X460236Y215519D01*
X460232Y215454D01*
X460225Y215390D01*
X460213Y215326D01*
X460198Y215263D01*
X460179Y215202D01*
X460156Y215141D01*
X460130Y215082D01*
X460100Y215024D01*
X460068Y214969D01*
X460031Y214915D01*
X459992Y214863D01*
X459950Y214814D01*
X459905Y214768D01*
X459857Y214724D01*
X459807Y214684D01*
X459754Y214646D01*
X459700Y214611D01*
X459643Y214580D01*
X459585Y214552D01*
X459525Y214527D01*
X459464Y214507D01*
X459401Y214489D01*
X459338Y214476D01*
X459235Y214459D01*
X459131Y214446D01*
X459027Y214437D01*
X458922Y214431D01*
X458817Y214429D01*
X458713Y214431D01*
X458608Y214436D01*
X458504Y214446D01*
X458400Y214459D01*
X458296Y214476D01*
X458193Y214496D01*
X458091Y214521D01*
X457990Y214549D01*
X457891Y214580D01*
X457792Y214615D01*
X457694Y214654D01*
X457598Y214696D01*
X457504Y214742D01*
X457412Y214791D01*
X457321Y214843D01*
X465799Y220346D02*
X465878Y220344D01*
X465956Y220339D01*
X466034Y220329D01*
X466111Y220316D01*
X466188Y220299D01*
X466264Y220279D01*
X466339Y220255D01*
X466413Y220228D01*
X466485Y220197D01*
X466556Y220162D01*
X466625Y220125D01*
X466692Y220084D01*
X466757Y220040D01*
X466820Y219993D01*
X466880Y219943D01*
X466938Y219890D01*
X466994Y219834D01*
X467047Y219776D01*
X467097Y219716D01*
X467144Y219653D01*
X467188Y219588D01*
X467229Y219521D01*
X467266Y219452D01*
X467301Y219381D01*
X467332Y219309D01*
X467359Y219235D01*
X467383Y219160D01*
X467403Y219084D01*
X467420Y219007D01*
X467433Y218930D01*
X467443Y218852D01*
X467448Y218774D01*
X467450Y218695D01*
X465799Y220346D02*
X465710Y220344D01*
X465621Y220339D01*
X465533Y220329D01*
X465445Y220316D01*
X465358Y220300D01*
X465271Y220279D01*
X465186Y220255D01*
X465101Y220228D01*
X465018Y220197D01*
X464936Y220162D01*
X464855Y220124D01*
X464776Y220083D01*
X464700Y220039D01*
X464624Y219991D01*
X464551Y219940D01*
X464481Y219887D01*
X464412Y219830D01*
X464346Y219770D01*
X464283Y219708D01*
X464222Y219643D01*
X464164Y219576D01*
X464109Y219506D01*
X464056Y219434D01*
X464007Y219360D01*
X463961Y219284D01*
X463919Y219206D01*
X463879Y219126D01*
X463843Y219045D01*
X463810Y218962D01*
X463781Y218878D01*
X466899Y217411D02*
X466955Y217467D01*
X467009Y217526D01*
X467060Y217587D01*
X467109Y217651D01*
X467154Y217716D01*
X467197Y217784D01*
X467236Y217853D01*
X467273Y217924D01*
X467306Y217997D01*
X467335Y218071D01*
X467362Y218146D01*
X467385Y218222D01*
X467404Y218300D01*
X467420Y218378D01*
X467433Y218456D01*
X467442Y218536D01*
X467447Y218615D01*
X467449Y218695D01*
X466899Y217411D02*
X463781Y213742D01*
X467450Y213742D01*
D14*
X449520Y211500D02*
X505520Y211500D01*
X505520Y169500D01*
X449520Y169500D01*
X449520Y211500D01*
D21*
X441520Y206500D02*
X441522Y206589D01*
X441528Y206678D01*
X441538Y206767D01*
X441552Y206855D01*
X441569Y206942D01*
X441591Y207028D01*
X441617Y207114D01*
X441646Y207198D01*
X441679Y207281D01*
X441715Y207362D01*
X441756Y207442D01*
X441799Y207519D01*
X441846Y207595D01*
X441897Y207668D01*
X441950Y207739D01*
X442007Y207808D01*
X442067Y207874D01*
X442130Y207938D01*
X442195Y207998D01*
X442263Y208056D01*
X442334Y208110D01*
X442407Y208161D01*
X442482Y208209D01*
X442559Y208254D01*
X442638Y208295D01*
X442719Y208332D01*
X442801Y208366D01*
X442885Y208397D01*
X442970Y208423D01*
X443056Y208446D01*
X443143Y208464D01*
X443231Y208479D01*
X443320Y208490D01*
X443409Y208497D01*
X443498Y208500D01*
X443587Y208499D01*
X443676Y208494D01*
X443764Y208485D01*
X443853Y208472D01*
X443940Y208455D01*
X444027Y208435D01*
X444113Y208410D01*
X444197Y208382D01*
X444280Y208350D01*
X444362Y208314D01*
X444442Y208275D01*
X444520Y208232D01*
X444596Y208186D01*
X444670Y208136D01*
X444742Y208083D01*
X444811Y208027D01*
X444878Y207968D01*
X444942Y207906D01*
X445003Y207842D01*
X445062Y207774D01*
X445117Y207704D01*
X445169Y207632D01*
X445218Y207557D01*
X445263Y207481D01*
X445305Y207402D01*
X445343Y207322D01*
X445378Y207240D01*
X445409Y207156D01*
X445437Y207071D01*
X445460Y206985D01*
X445480Y206898D01*
X445496Y206811D01*
X445508Y206722D01*
X445516Y206634D01*
X445520Y206545D01*
X445520Y206455D01*
X445516Y206366D01*
X445508Y206278D01*
X445496Y206189D01*
X445480Y206102D01*
X445460Y206015D01*
X445437Y205929D01*
X445409Y205844D01*
X445378Y205760D01*
X445343Y205678D01*
X445305Y205598D01*
X445263Y205519D01*
X445218Y205443D01*
X445169Y205368D01*
X445117Y205296D01*
X445062Y205226D01*
X445003Y205158D01*
X444942Y205094D01*
X444878Y205032D01*
X444811Y204973D01*
X444742Y204917D01*
X444670Y204864D01*
X444596Y204814D01*
X444520Y204768D01*
X444442Y204725D01*
X444362Y204686D01*
X444280Y204650D01*
X444197Y204618D01*
X444113Y204590D01*
X444027Y204565D01*
X443940Y204545D01*
X443853Y204528D01*
X443764Y204515D01*
X443676Y204506D01*
X443587Y204501D01*
X443498Y204500D01*
X443409Y204503D01*
X443320Y204510D01*
X443231Y204521D01*
X443143Y204536D01*
X443056Y204554D01*
X442970Y204577D01*
X442885Y204603D01*
X442801Y204634D01*
X442719Y204668D01*
X442638Y204705D01*
X442559Y204746D01*
X442482Y204791D01*
X442407Y204839D01*
X442334Y204890D01*
X442263Y204944D01*
X442195Y205002D01*
X442130Y205062D01*
X442067Y205126D01*
X442007Y205192D01*
X441950Y205261D01*
X441897Y205332D01*
X441846Y205405D01*
X441799Y205481D01*
X441756Y205558D01*
X441715Y205638D01*
X441679Y205719D01*
X441646Y205802D01*
X441617Y205886D01*
X441591Y205972D01*
X441569Y206058D01*
X441552Y206145D01*
X441538Y206233D01*
X441528Y206322D01*
X441522Y206411D01*
X441520Y206500D01*
D12*
X271780Y188214D02*
X271780Y178054D01*
X345440Y237490D02*
X355600Y237490D01*
X271780Y188214D02*
X271780Y178054D01*
X280162Y294386D02*
X280162Y304546D01*
X345440Y237490D02*
X355600Y237490D01*
X345440Y237490D01*
X355600Y237490D01*
X271780Y188214D02*
X271780Y178054D01*
X258318Y276860D02*
X256540Y276860D01*
X260350Y267716D02*
X265684Y273050D01*
X258318Y205740D02*
X256540Y205740D01*
X327660Y205740D02*
X327660Y207518D01*
X327660Y276860D02*
X325882Y276860D01*
X256540Y276860D02*
X256540Y275082D01*
X256540Y207518D02*
X256540Y205740D01*
X325882Y205740D02*
X327660Y205740D01*
X327660Y275082D02*
X327660Y276860D01*
D22*
X234153Y275788D02*
X234153Y279767D01*
X234153Y275788D02*
X236474Y272803D01*
X234153Y275788D02*
X231831Y272803D01*
X234153Y275788D02*
X237800Y277114D01*
X234153Y275788D02*
X230505Y277114D01*
D16*
X245110Y182118D02*
X245110Y168543D01*
X245112Y168400D01*
X245118Y168258D01*
X245128Y168116D01*
X245141Y167974D01*
X245159Y167832D01*
X245180Y167691D01*
X245205Y167551D01*
X245234Y167411D01*
X245267Y167272D01*
X245304Y167134D01*
X245344Y166998D01*
X245388Y166862D01*
X245436Y166728D01*
X245487Y166595D01*
X245542Y166463D01*
X245601Y166333D01*
X245663Y166205D01*
X245729Y166078D01*
X245798Y165953D01*
X245870Y165830D01*
X245946Y165709D01*
X246025Y165591D01*
X246107Y165474D01*
X246193Y165360D01*
X246281Y165248D01*
X246373Y165139D01*
X246467Y165032D01*
X246564Y164928D01*
X246664Y164826D01*
X246767Y164727D01*
X246873Y164631D01*
X246981Y164538D01*
X247092Y164448D01*
X247205Y164361D01*
X247320Y164278D01*
X247438Y164197D01*
X247558Y164120D01*
X247679Y164045D01*
X247803Y163975D01*
X247929Y163907D01*
X248057Y163843D01*
X248186Y163783D01*
X248317Y163726D01*
X248449Y163673D01*
X248583Y163623D01*
X248718Y163578D01*
X248854Y163535D01*
X248991Y163497D01*
X249130Y163462D01*
X249269Y163431D01*
X249409Y163404D01*
X249549Y163381D01*
X249691Y163361D01*
X249833Y163346D01*
X249975Y163334D01*
X250117Y163326D01*
X250260Y163322D01*
X250402Y163322D01*
X250545Y163326D01*
X250687Y163334D01*
X250829Y163346D01*
X250971Y163361D01*
X251113Y163381D01*
X251253Y163404D01*
X251393Y163431D01*
X251532Y163462D01*
X251671Y163497D01*
X251808Y163535D01*
X251944Y163578D01*
X252079Y163623D01*
X252213Y163673D01*
X252345Y163726D01*
X252476Y163783D01*
X252605Y163843D01*
X252733Y163907D01*
X252859Y163975D01*
X252983Y164045D01*
X253104Y164120D01*
X253224Y164197D01*
X253342Y164278D01*
X253457Y164361D01*
X253570Y164448D01*
X253681Y164538D01*
X253789Y164631D01*
X253895Y164727D01*
X253998Y164826D01*
X254098Y164928D01*
X254195Y165032D01*
X254289Y165139D01*
X254381Y165248D01*
X254469Y165360D01*
X254555Y165474D01*
X254637Y165591D01*
X254716Y165709D01*
X254792Y165830D01*
X254864Y165953D01*
X254933Y166078D01*
X254999Y166205D01*
X255061Y166333D01*
X255120Y166463D01*
X255175Y166595D01*
X255226Y166728D01*
X255274Y166862D01*
X255318Y166998D01*
X255358Y167134D01*
X255395Y167272D01*
X255428Y167411D01*
X255457Y167551D01*
X255482Y167691D01*
X255503Y167832D01*
X255521Y167974D01*
X255534Y168116D01*
X255544Y168258D01*
X255550Y168400D01*
X255552Y168543D01*
X255552Y182118D01*
X263539Y177941D02*
X268760Y182118D01*
X268760Y163322D01*
X263539Y163322D02*
X273982Y163322D01*
D12*
X400120Y130850D02*
X504120Y130850D01*
X504120Y72350D01*
X400120Y72350D01*
X400120Y130850D01*
X405274Y82100D02*
X405276Y82236D01*
X405282Y82371D01*
X405292Y82506D01*
X405306Y82641D01*
X405324Y82775D01*
X405346Y82909D01*
X405372Y83042D01*
X405401Y83175D01*
X405435Y83306D01*
X405473Y83436D01*
X405514Y83565D01*
X405559Y83693D01*
X405608Y83820D01*
X405660Y83945D01*
X405717Y84068D01*
X405776Y84190D01*
X405840Y84309D01*
X405907Y84427D01*
X405977Y84543D01*
X406051Y84657D01*
X406128Y84768D01*
X406208Y84878D01*
X406292Y84984D01*
X406378Y85089D01*
X406468Y85190D01*
X406561Y85289D01*
X406656Y85386D01*
X406755Y85479D01*
X406856Y85569D01*
X406959Y85657D01*
X407065Y85741D01*
X407174Y85822D01*
X407285Y85900D01*
X407398Y85975D01*
X407514Y86046D01*
X407631Y86114D01*
X407750Y86178D01*
X407872Y86239D01*
X407994Y86296D01*
X408119Y86349D01*
X408245Y86399D01*
X408373Y86445D01*
X408501Y86488D01*
X408631Y86526D01*
X408763Y86561D01*
X408895Y86591D01*
X409027Y86618D01*
X409161Y86641D01*
X409295Y86660D01*
X409430Y86675D01*
X409565Y86686D01*
X409701Y86693D01*
X409836Y86696D01*
X409972Y86695D01*
X410107Y86690D01*
X410242Y86681D01*
X410377Y86668D01*
X410512Y86651D01*
X410646Y86630D01*
X410779Y86605D01*
X410912Y86576D01*
X411043Y86544D01*
X411174Y86507D01*
X411303Y86467D01*
X411431Y86423D01*
X411558Y86375D01*
X411683Y86323D01*
X411807Y86268D01*
X411929Y86209D01*
X412050Y86146D01*
X412168Y86080D01*
X412284Y86011D01*
X412399Y85938D01*
X412511Y85862D01*
X412621Y85782D01*
X412728Y85699D01*
X412833Y85613D01*
X412935Y85525D01*
X413035Y85433D01*
X413132Y85338D01*
X413226Y85240D01*
X413317Y85140D01*
X413405Y85037D01*
X413490Y84931D01*
X413572Y84823D01*
X413651Y84713D01*
X413726Y84600D01*
X413798Y84485D01*
X413867Y84369D01*
X413932Y84250D01*
X413994Y84129D01*
X414052Y84006D01*
X414106Y83882D01*
X414157Y83757D01*
X414204Y83629D01*
X414247Y83501D01*
X414287Y83371D01*
X414322Y83240D01*
X414354Y83109D01*
X414382Y82976D01*
X414406Y82842D01*
X414426Y82708D01*
X414442Y82574D01*
X414454Y82439D01*
X414462Y82303D01*
X414466Y82168D01*
X414466Y82032D01*
X414462Y81897D01*
X414454Y81761D01*
X414442Y81626D01*
X414426Y81492D01*
X414406Y81358D01*
X414382Y81224D01*
X414354Y81091D01*
X414322Y80960D01*
X414287Y80829D01*
X414247Y80699D01*
X414204Y80571D01*
X414157Y80443D01*
X414106Y80318D01*
X414052Y80194D01*
X413994Y80071D01*
X413932Y79950D01*
X413867Y79831D01*
X413798Y79715D01*
X413726Y79600D01*
X413651Y79487D01*
X413572Y79377D01*
X413490Y79269D01*
X413405Y79163D01*
X413317Y79060D01*
X413226Y78960D01*
X413132Y78862D01*
X413035Y78767D01*
X412935Y78675D01*
X412833Y78587D01*
X412728Y78501D01*
X412621Y78418D01*
X412511Y78338D01*
X412399Y78262D01*
X412284Y78189D01*
X412168Y78120D01*
X412050Y78054D01*
X411929Y77991D01*
X411807Y77932D01*
X411683Y77877D01*
X411558Y77825D01*
X411431Y77777D01*
X411303Y77733D01*
X411174Y77693D01*
X411043Y77656D01*
X410912Y77624D01*
X410779Y77595D01*
X410646Y77570D01*
X410512Y77549D01*
X410377Y77532D01*
X410242Y77519D01*
X410107Y77510D01*
X409972Y77505D01*
X409836Y77504D01*
X409701Y77507D01*
X409565Y77514D01*
X409430Y77525D01*
X409295Y77540D01*
X409161Y77559D01*
X409027Y77582D01*
X408895Y77609D01*
X408763Y77639D01*
X408631Y77674D01*
X408501Y77712D01*
X408373Y77755D01*
X408245Y77801D01*
X408119Y77851D01*
X407994Y77904D01*
X407872Y77961D01*
X407750Y78022D01*
X407631Y78086D01*
X407514Y78154D01*
X407398Y78225D01*
X407285Y78300D01*
X407174Y78378D01*
X407065Y78459D01*
X406959Y78543D01*
X406856Y78631D01*
X406755Y78721D01*
X406656Y78814D01*
X406561Y78911D01*
X406468Y79010D01*
X406378Y79111D01*
X406292Y79216D01*
X406208Y79322D01*
X406128Y79432D01*
X406051Y79543D01*
X405977Y79657D01*
X405907Y79773D01*
X405840Y79891D01*
X405776Y80010D01*
X405717Y80132D01*
X405660Y80255D01*
X405608Y80380D01*
X405559Y80507D01*
X405514Y80635D01*
X405473Y80764D01*
X405435Y80894D01*
X405401Y81025D01*
X405372Y81158D01*
X405346Y81291D01*
X405324Y81425D01*
X405306Y81559D01*
X405292Y81694D01*
X405282Y81829D01*
X405276Y81964D01*
X405274Y82100D01*
D15*
X414147Y115485D02*
X414147Y118237D01*
X414147Y115485D02*
X414149Y115421D01*
X414155Y115357D01*
X414164Y115294D01*
X414178Y115232D01*
X414195Y115170D01*
X414216Y115110D01*
X414240Y115051D01*
X414268Y114993D01*
X414300Y114938D01*
X414334Y114884D01*
X414372Y114833D01*
X414413Y114783D01*
X414457Y114737D01*
X414503Y114693D01*
X414553Y114652D01*
X414604Y114614D01*
X414658Y114580D01*
X414713Y114548D01*
X414771Y114520D01*
X414830Y114496D01*
X414890Y114475D01*
X414952Y114458D01*
X415014Y114444D01*
X415077Y114435D01*
X415141Y114429D01*
X415205Y114427D01*
X415269Y114429D01*
X415333Y114435D01*
X415396Y114444D01*
X415458Y114458D01*
X415520Y114475D01*
X415580Y114496D01*
X415639Y114520D01*
X415697Y114548D01*
X415752Y114580D01*
X415806Y114614D01*
X415857Y114652D01*
X415907Y114693D01*
X415953Y114737D01*
X415997Y114783D01*
X416038Y114833D01*
X416076Y114884D01*
X416110Y114938D01*
X416142Y114993D01*
X416170Y115051D01*
X416194Y115110D01*
X416215Y115170D01*
X416232Y115232D01*
X416246Y115294D01*
X416255Y115357D01*
X416261Y115421D01*
X416263Y115485D01*
X416264Y115485D02*
X416264Y118237D01*
X419091Y118238D02*
X419151Y118236D01*
X419210Y118230D01*
X419270Y118221D01*
X419328Y118208D01*
X419385Y118191D01*
X419442Y118171D01*
X419497Y118147D01*
X419550Y118120D01*
X419602Y118090D01*
X419651Y118056D01*
X419698Y118019D01*
X419743Y117980D01*
X419786Y117937D01*
X419825Y117892D01*
X419862Y117845D01*
X419896Y117796D01*
X419926Y117744D01*
X419953Y117691D01*
X419977Y117636D01*
X419997Y117579D01*
X420014Y117522D01*
X420027Y117464D01*
X420036Y117404D01*
X420042Y117345D01*
X420044Y117285D01*
X419091Y118237D02*
X419024Y118235D01*
X418957Y118230D01*
X418891Y118221D01*
X418825Y118208D01*
X418761Y118192D01*
X418697Y118172D01*
X418634Y118148D01*
X418572Y118122D01*
X418513Y118092D01*
X418455Y118059D01*
X418398Y118022D01*
X418344Y117983D01*
X418292Y117941D01*
X418243Y117896D01*
X418196Y117848D01*
X418152Y117798D01*
X418110Y117745D01*
X418072Y117690D01*
X418036Y117634D01*
X418004Y117575D01*
X417975Y117515D01*
X417949Y117453D01*
X417927Y117390D01*
X419726Y116544D02*
X419767Y116586D01*
X419806Y116631D01*
X419843Y116677D01*
X419877Y116726D01*
X419908Y116776D01*
X419935Y116828D01*
X419960Y116882D01*
X419982Y116937D01*
X420001Y116993D01*
X420016Y117050D01*
X420028Y117108D01*
X420036Y117167D01*
X420041Y117226D01*
X420043Y117285D01*
X419726Y116544D02*
X417927Y114427D01*
X420043Y114427D01*
D16*
X397520Y373000D02*
X397520Y389000D01*
X430520Y389000D02*
X430520Y373000D01*
D12*
X434562Y383596D02*
X434562Y388366D01*
X434562Y383596D02*
X434564Y383511D01*
X434570Y383427D01*
X434580Y383343D01*
X434593Y383259D01*
X434611Y383176D01*
X434632Y383094D01*
X434657Y383013D01*
X434686Y382933D01*
X434718Y382855D01*
X434754Y382779D01*
X434794Y382704D01*
X434837Y382631D01*
X434883Y382560D01*
X434932Y382491D01*
X434985Y382424D01*
X435041Y382360D01*
X435099Y382299D01*
X435160Y382241D01*
X435224Y382185D01*
X435291Y382132D01*
X435360Y382083D01*
X435431Y382037D01*
X435504Y381994D01*
X435579Y381954D01*
X435655Y381918D01*
X435733Y381886D01*
X435813Y381857D01*
X435894Y381832D01*
X435976Y381811D01*
X436059Y381793D01*
X436143Y381780D01*
X436227Y381770D01*
X436311Y381764D01*
X436396Y381762D01*
X436481Y381764D01*
X436565Y381770D01*
X436649Y381780D01*
X436733Y381793D01*
X436816Y381811D01*
X436898Y381832D01*
X436979Y381857D01*
X437059Y381886D01*
X437137Y381918D01*
X437213Y381954D01*
X437288Y381994D01*
X437361Y382037D01*
X437432Y382083D01*
X437501Y382132D01*
X437568Y382185D01*
X437632Y382241D01*
X437693Y382299D01*
X437751Y382360D01*
X437807Y382424D01*
X437860Y382491D01*
X437909Y382560D01*
X437955Y382631D01*
X437998Y382704D01*
X438038Y382779D01*
X438074Y382855D01*
X438106Y382933D01*
X438135Y383013D01*
X438160Y383094D01*
X438181Y383176D01*
X438199Y383259D01*
X438212Y383343D01*
X438222Y383427D01*
X438228Y383511D01*
X438230Y383596D01*
X438231Y383596D02*
X438231Y388366D01*
X442121Y381762D02*
X443955Y381762D01*
X444040Y381764D01*
X444124Y381770D01*
X444208Y381780D01*
X444292Y381793D01*
X444375Y381811D01*
X444457Y381832D01*
X444538Y381857D01*
X444618Y381886D01*
X444696Y381918D01*
X444772Y381954D01*
X444847Y381994D01*
X444920Y382037D01*
X444991Y382083D01*
X445060Y382132D01*
X445127Y382185D01*
X445191Y382241D01*
X445252Y382299D01*
X445310Y382360D01*
X445366Y382424D01*
X445419Y382491D01*
X445468Y382560D01*
X445514Y382631D01*
X445557Y382704D01*
X445597Y382779D01*
X445633Y382855D01*
X445665Y382933D01*
X445694Y383013D01*
X445719Y383094D01*
X445740Y383176D01*
X445758Y383259D01*
X445771Y383343D01*
X445781Y383427D01*
X445787Y383511D01*
X445789Y383596D01*
X445787Y383681D01*
X445781Y383765D01*
X445771Y383849D01*
X445758Y383933D01*
X445740Y384016D01*
X445719Y384098D01*
X445694Y384179D01*
X445665Y384259D01*
X445633Y384337D01*
X445597Y384413D01*
X445557Y384488D01*
X445514Y384561D01*
X445468Y384632D01*
X445419Y384701D01*
X445366Y384768D01*
X445310Y384832D01*
X445252Y384893D01*
X445191Y384951D01*
X445127Y385007D01*
X445060Y385060D01*
X444991Y385109D01*
X444920Y385155D01*
X444847Y385198D01*
X444772Y385238D01*
X444696Y385274D01*
X444618Y385306D01*
X444538Y385335D01*
X444457Y385360D01*
X444375Y385381D01*
X444292Y385399D01*
X444208Y385412D01*
X444124Y385422D01*
X444040Y385428D01*
X443955Y385430D01*
X444322Y388366D02*
X442121Y388366D01*
X444322Y388366D02*
X444398Y388364D01*
X444473Y388358D01*
X444548Y388349D01*
X444622Y388335D01*
X444696Y388318D01*
X444768Y388296D01*
X444840Y388272D01*
X444910Y388243D01*
X444978Y388211D01*
X445045Y388176D01*
X445110Y388137D01*
X445173Y388094D01*
X445233Y388049D01*
X445291Y388001D01*
X445347Y387949D01*
X445399Y387895D01*
X445449Y387838D01*
X445496Y387779D01*
X445540Y387718D01*
X445581Y387654D01*
X445618Y387588D01*
X445652Y387520D01*
X445682Y387451D01*
X445709Y387380D01*
X445732Y387308D01*
X445751Y387235D01*
X445766Y387161D01*
X445778Y387086D01*
X445786Y387011D01*
X445790Y386936D01*
X445790Y386860D01*
X445786Y386785D01*
X445778Y386710D01*
X445766Y386635D01*
X445751Y386561D01*
X445732Y386488D01*
X445709Y386416D01*
X445682Y386345D01*
X445652Y386276D01*
X445618Y386208D01*
X445581Y386142D01*
X445540Y386078D01*
X445496Y386017D01*
X445449Y385958D01*
X445399Y385901D01*
X445347Y385847D01*
X445291Y385795D01*
X445233Y385747D01*
X445173Y385702D01*
X445110Y385659D01*
X445045Y385620D01*
X444978Y385585D01*
X444910Y385553D01*
X444840Y385524D01*
X444768Y385500D01*
X444696Y385478D01*
X444622Y385461D01*
X444548Y385447D01*
X444473Y385438D01*
X444398Y385432D01*
X444322Y385430D01*
X444322Y385431D02*
X442855Y385431D01*
D16*
X418020Y391500D02*
X410020Y391500D01*
X283210Y66040D02*
X214630Y66040D01*
X214630Y111760D02*
X283210Y111760D01*
X283767Y111753D01*
X284323Y111733D01*
X284879Y111699D01*
X285433Y111652D01*
X285987Y111591D01*
X286538Y111516D01*
X287088Y111429D01*
X287636Y111328D01*
X288180Y111213D01*
X288722Y111085D01*
X289261Y110945D01*
X289796Y110791D01*
X290327Y110624D01*
X290854Y110444D01*
X291376Y110252D01*
X291894Y110046D01*
X292406Y109829D01*
X292913Y109599D01*
X293414Y109356D01*
X293909Y109102D01*
X294398Y108835D01*
X294880Y108557D01*
X295355Y108267D01*
X295823Y107965D01*
X296284Y107652D01*
X296737Y107328D01*
X297181Y106994D01*
X297618Y106648D01*
X298046Y106292D01*
X298465Y105925D01*
X298875Y105549D01*
X299276Y105163D01*
X299667Y104767D01*
X300048Y104361D01*
X300420Y103946D01*
X300781Y103523D01*
X301132Y103091D01*
X301472Y102650D01*
X301802Y102201D01*
X302120Y101745D01*
X302427Y101280D01*
X302723Y100809D01*
X303007Y100330D01*
X303280Y99845D01*
X303540Y99353D01*
X303789Y98854D01*
X304025Y98350D01*
X304249Y97841D01*
X304461Y97326D01*
X304659Y96806D01*
X304846Y96281D01*
X305019Y95752D01*
X305179Y95219D01*
X305327Y94682D01*
X305461Y94142D01*
X305582Y93598D01*
X305690Y93052D01*
X305784Y92504D01*
X305865Y91953D01*
X305933Y91400D01*
X305987Y90846D01*
X306028Y90291D01*
X306055Y89735D01*
X306068Y89178D01*
X306068Y88622D01*
X306055Y88065D01*
X306028Y87509D01*
X305987Y86954D01*
X305933Y86400D01*
X305865Y85847D01*
X305784Y85296D01*
X305690Y84748D01*
X305582Y84202D01*
X305461Y83658D01*
X305327Y83118D01*
X305179Y82581D01*
X305019Y82048D01*
X304846Y81519D01*
X304659Y80994D01*
X304461Y80474D01*
X304249Y79959D01*
X304025Y79450D01*
X303789Y78946D01*
X303540Y78447D01*
X303280Y77955D01*
X303007Y77470D01*
X302723Y76991D01*
X302427Y76520D01*
X302120Y76055D01*
X301802Y75599D01*
X301472Y75150D01*
X301132Y74709D01*
X300781Y74277D01*
X300420Y73854D01*
X300048Y73439D01*
X299667Y73033D01*
X299276Y72637D01*
X298875Y72251D01*
X298465Y71875D01*
X298046Y71508D01*
X297618Y71152D01*
X297181Y70806D01*
X296737Y70472D01*
X296284Y70148D01*
X295823Y69835D01*
X295355Y69533D01*
X294880Y69243D01*
X294398Y68965D01*
X293909Y68698D01*
X293414Y68444D01*
X292913Y68201D01*
X292406Y67971D01*
X291894Y67754D01*
X291376Y67548D01*
X290854Y67356D01*
X290327Y67176D01*
X289796Y67009D01*
X289261Y66855D01*
X288722Y66715D01*
X288180Y66587D01*
X287636Y66472D01*
X287088Y66371D01*
X286538Y66284D01*
X285987Y66209D01*
X285433Y66148D01*
X284879Y66101D01*
X284323Y66067D01*
X283767Y66047D01*
X283210Y66040D01*
X214630Y66040D02*
X214073Y66047D01*
X213517Y66067D01*
X212961Y66101D01*
X212407Y66148D01*
X211853Y66209D01*
X211302Y66284D01*
X210752Y66371D01*
X210204Y66472D01*
X209660Y66587D01*
X209118Y66715D01*
X208579Y66855D01*
X208044Y67009D01*
X207513Y67176D01*
X206986Y67356D01*
X206464Y67548D01*
X205946Y67754D01*
X205434Y67971D01*
X204927Y68201D01*
X204426Y68444D01*
X203931Y68698D01*
X203442Y68965D01*
X202960Y69243D01*
X202485Y69533D01*
X202017Y69835D01*
X201556Y70148D01*
X201103Y70472D01*
X200659Y70806D01*
X200222Y71152D01*
X199794Y71508D01*
X199375Y71875D01*
X198965Y72251D01*
X198564Y72637D01*
X198173Y73033D01*
X197792Y73439D01*
X197420Y73854D01*
X197059Y74277D01*
X196708Y74709D01*
X196368Y75150D01*
X196038Y75599D01*
X195720Y76055D01*
X195413Y76520D01*
X195117Y76991D01*
X194833Y77470D01*
X194560Y77955D01*
X194300Y78447D01*
X194051Y78946D01*
X193815Y79450D01*
X193591Y79959D01*
X193379Y80474D01*
X193181Y80994D01*
X192994Y81519D01*
X192821Y82048D01*
X192661Y82581D01*
X192513Y83118D01*
X192379Y83658D01*
X192258Y84202D01*
X192150Y84748D01*
X192056Y85296D01*
X191975Y85847D01*
X191907Y86400D01*
X191853Y86954D01*
X191812Y87509D01*
X191785Y88065D01*
X191772Y88622D01*
X191772Y89178D01*
X191785Y89735D01*
X191812Y90291D01*
X191853Y90846D01*
X191907Y91400D01*
X191975Y91953D01*
X192056Y92504D01*
X192150Y93052D01*
X192258Y93598D01*
X192379Y94142D01*
X192513Y94682D01*
X192661Y95219D01*
X192821Y95752D01*
X192994Y96281D01*
X193181Y96806D01*
X193379Y97326D01*
X193591Y97841D01*
X193815Y98350D01*
X194051Y98854D01*
X194300Y99353D01*
X194560Y99845D01*
X194833Y100330D01*
X195117Y100809D01*
X195413Y101280D01*
X195720Y101745D01*
X196038Y102201D01*
X196368Y102650D01*
X196708Y103091D01*
X197059Y103523D01*
X197420Y103946D01*
X197792Y104361D01*
X198173Y104767D01*
X198564Y105163D01*
X198965Y105549D01*
X199375Y105925D01*
X199794Y106292D01*
X200222Y106648D01*
X200659Y106994D01*
X201103Y107328D01*
X201556Y107652D01*
X202017Y107965D01*
X202485Y108267D01*
X202960Y108557D01*
X203442Y108835D01*
X203931Y109102D01*
X204426Y109356D01*
X204927Y109599D01*
X205434Y109829D01*
X205946Y110046D01*
X206464Y110252D01*
X206986Y110444D01*
X207513Y110624D01*
X208044Y110791D01*
X208579Y110945D01*
X209118Y111085D01*
X209660Y111213D01*
X210204Y111328D01*
X210752Y111429D01*
X211302Y111516D01*
X211853Y111591D01*
X212407Y111652D01*
X212961Y111699D01*
X213517Y111733D01*
X214073Y111753D01*
X214630Y111760D01*
D14*
X244702Y119761D02*
X246311Y117482D01*
X247920Y119761D01*
X246311Y117482D02*
X246311Y114935D01*
X250457Y118689D02*
X251797Y119761D01*
X251797Y114935D01*
X250457Y114935D02*
X253138Y114935D01*
D16*
X110320Y108900D02*
X106320Y108900D01*
X106320Y68900D01*
X110320Y68900D01*
X129320Y68900D02*
X165320Y68900D01*
X165320Y108900D02*
X129320Y108900D01*
X184320Y108900D02*
X188320Y108900D01*
X188320Y68900D01*
X184320Y68900D01*
D12*
X131283Y121687D02*
X129082Y124806D01*
X131283Y121687D02*
X133485Y124806D01*
X131283Y121687D02*
X131283Y118202D01*
X138782Y124806D02*
X138861Y124804D01*
X138939Y124799D01*
X139017Y124789D01*
X139094Y124776D01*
X139171Y124759D01*
X139247Y124739D01*
X139322Y124715D01*
X139396Y124688D01*
X139468Y124657D01*
X139539Y124622D01*
X139608Y124585D01*
X139675Y124544D01*
X139740Y124500D01*
X139803Y124453D01*
X139863Y124403D01*
X139921Y124350D01*
X139977Y124294D01*
X140030Y124236D01*
X140080Y124176D01*
X140127Y124113D01*
X140171Y124048D01*
X140212Y123981D01*
X140249Y123912D01*
X140284Y123841D01*
X140315Y123769D01*
X140342Y123695D01*
X140366Y123620D01*
X140386Y123544D01*
X140403Y123467D01*
X140416Y123390D01*
X140426Y123312D01*
X140431Y123234D01*
X140433Y123155D01*
X138782Y124806D02*
X138693Y124804D01*
X138604Y124799D01*
X138516Y124789D01*
X138428Y124776D01*
X138341Y124760D01*
X138254Y124739D01*
X138169Y124715D01*
X138084Y124688D01*
X138001Y124657D01*
X137919Y124622D01*
X137838Y124584D01*
X137759Y124543D01*
X137683Y124499D01*
X137607Y124451D01*
X137534Y124400D01*
X137464Y124347D01*
X137395Y124290D01*
X137329Y124230D01*
X137266Y124168D01*
X137205Y124103D01*
X137147Y124036D01*
X137092Y123966D01*
X137039Y123894D01*
X136990Y123820D01*
X136944Y123744D01*
X136902Y123666D01*
X136862Y123586D01*
X136826Y123505D01*
X136793Y123422D01*
X136764Y123338D01*
X139883Y121871D02*
X139939Y121927D01*
X139993Y121986D01*
X140044Y122047D01*
X140093Y122111D01*
X140138Y122176D01*
X140181Y122244D01*
X140220Y122313D01*
X140257Y122384D01*
X140290Y122457D01*
X140319Y122531D01*
X140346Y122606D01*
X140369Y122682D01*
X140388Y122760D01*
X140404Y122838D01*
X140417Y122916D01*
X140426Y122996D01*
X140431Y123075D01*
X140433Y123155D01*
X139883Y121871D02*
X136764Y118202D01*
X140433Y118202D01*
D13*
X177869Y89154D02*
X177871Y89267D01*
X177877Y89381D01*
X177887Y89494D01*
X177901Y89606D01*
X177919Y89719D01*
X177940Y89830D01*
X177966Y89940D01*
X177996Y90050D01*
X178029Y90158D01*
X178066Y90266D01*
X178107Y90372D01*
X178152Y90476D01*
X178200Y90579D01*
X178252Y90680D01*
X178307Y90779D01*
X178366Y90876D01*
X178428Y90971D01*
X178493Y91063D01*
X178562Y91154D01*
X178634Y91242D01*
X178708Y91327D01*
X178786Y91410D01*
X178867Y91490D01*
X178950Y91567D01*
X179036Y91641D01*
X179125Y91712D01*
X179215Y91780D01*
X179309Y91844D01*
X179404Y91905D01*
X179502Y91963D01*
X179601Y92018D01*
X179703Y92069D01*
X179806Y92116D01*
X179911Y92160D01*
X180017Y92200D01*
X180125Y92236D01*
X180233Y92268D01*
X180343Y92297D01*
X180454Y92321D01*
X180565Y92342D01*
X180678Y92359D01*
X180790Y92372D01*
X180904Y92381D01*
X181017Y92386D01*
X181130Y92387D01*
X181244Y92384D01*
X181357Y92377D01*
X181470Y92366D01*
X181583Y92351D01*
X181694Y92332D01*
X181806Y92310D01*
X181916Y92283D01*
X182025Y92252D01*
X182133Y92218D01*
X182240Y92180D01*
X182346Y92138D01*
X182450Y92093D01*
X182552Y92044D01*
X182653Y91991D01*
X182751Y91935D01*
X182848Y91875D01*
X182942Y91812D01*
X183034Y91746D01*
X183124Y91677D01*
X183211Y91604D01*
X183296Y91529D01*
X183378Y91450D01*
X183457Y91369D01*
X183533Y91285D01*
X183607Y91198D01*
X183677Y91109D01*
X183744Y91017D01*
X183808Y90924D01*
X183868Y90827D01*
X183925Y90729D01*
X183979Y90629D01*
X184029Y90527D01*
X184075Y90424D01*
X184118Y90319D01*
X184157Y90212D01*
X184192Y90104D01*
X184224Y89995D01*
X184251Y89885D01*
X184275Y89774D01*
X184295Y89663D01*
X184311Y89550D01*
X184323Y89437D01*
X184331Y89324D01*
X184335Y89211D01*
X184335Y89097D01*
X184331Y88984D01*
X184323Y88871D01*
X184311Y88758D01*
X184295Y88645D01*
X184275Y88534D01*
X184251Y88423D01*
X184224Y88313D01*
X184192Y88204D01*
X184157Y88096D01*
X184118Y87989D01*
X184075Y87884D01*
X184029Y87781D01*
X183979Y87679D01*
X183925Y87579D01*
X183868Y87481D01*
X183808Y87384D01*
X183744Y87291D01*
X183677Y87199D01*
X183607Y87110D01*
X183533Y87023D01*
X183457Y86939D01*
X183378Y86858D01*
X183296Y86779D01*
X183211Y86704D01*
X183124Y86631D01*
X183034Y86562D01*
X182942Y86496D01*
X182848Y86433D01*
X182751Y86373D01*
X182653Y86317D01*
X182552Y86264D01*
X182450Y86215D01*
X182346Y86170D01*
X182240Y86128D01*
X182133Y86090D01*
X182025Y86056D01*
X181916Y86025D01*
X181806Y85998D01*
X181694Y85976D01*
X181583Y85957D01*
X181470Y85942D01*
X181357Y85931D01*
X181244Y85924D01*
X181130Y85921D01*
X181017Y85922D01*
X180904Y85927D01*
X180790Y85936D01*
X180678Y85949D01*
X180565Y85966D01*
X180454Y85987D01*
X180343Y86011D01*
X180233Y86040D01*
X180125Y86072D01*
X180017Y86108D01*
X179911Y86148D01*
X179806Y86192D01*
X179703Y86239D01*
X179601Y86290D01*
X179502Y86345D01*
X179404Y86403D01*
X179309Y86464D01*
X179215Y86528D01*
X179125Y86596D01*
X179036Y86667D01*
X178950Y86741D01*
X178867Y86818D01*
X178786Y86898D01*
X178708Y86981D01*
X178634Y87066D01*
X178562Y87154D01*
X178493Y87245D01*
X178428Y87337D01*
X178366Y87432D01*
X178307Y87529D01*
X178252Y87628D01*
X178200Y87729D01*
X178152Y87832D01*
X178107Y87936D01*
X178066Y88042D01*
X178029Y88150D01*
X177996Y88258D01*
X177966Y88368D01*
X177940Y88478D01*
X177919Y88589D01*
X177901Y88702D01*
X177887Y88814D01*
X177877Y88927D01*
X177871Y89041D01*
X177869Y89154D01*
M02*
