G04 EAGLE Gerber X2 export*
%TF.Part,Single*%
%TF.FileFunction,Other,Silk screen CMP*%
%TF.FilePolarity,Positive*%
%TF.GenerationSoftware,Autodesk,EAGLE,9.0.1*%
%TF.CreationDate,2019-07-20T17:57:42Z*%
G75*
%MOMM*%
%FSLAX34Y34*%
%LPD*%
%AMOC8*
5,1,8,0,0,1.08239X$1,22.5*%
G01*
%ADD10C,0.001000*%
%ADD11C,0.000000*%
%ADD12C,0.101600*%
%ADD13C,0.406400*%
%ADD14C,0.076200*%
%ADD15C,0.152400*%
%ADD16C,0.127000*%
%ADD17C,0.025400*%
%ADD18C,0.203200*%
%ADD19R,0.863600X0.762000*%
%ADD20R,0.200000X0.200000*%


D10*
X152124Y132212D02*
X152127Y132460D01*
X152136Y132707D01*
X152151Y132954D01*
X152173Y133201D01*
X152200Y133447D01*
X152233Y133693D01*
X152273Y133938D01*
X152318Y134181D01*
X152369Y134423D01*
X152426Y134664D01*
X152490Y134904D01*
X152559Y135142D01*
X152633Y135378D01*
X152714Y135612D01*
X152800Y135844D01*
X152892Y136074D01*
X152990Y136302D01*
X153093Y136527D01*
X153202Y136750D01*
X153316Y136970D01*
X153435Y137187D01*
X153560Y137401D01*
X153690Y137612D01*
X153825Y137819D01*
X153965Y138024D01*
X154110Y138224D01*
X154260Y138422D01*
X154415Y138615D01*
X154574Y138804D01*
X154739Y138990D01*
X154907Y139172D01*
X155080Y139349D01*
X155257Y139522D01*
X155439Y139690D01*
X155625Y139855D01*
X155814Y140014D01*
X156007Y140169D01*
X156205Y140319D01*
X156405Y140464D01*
X156610Y140604D01*
X156817Y140739D01*
X157028Y140869D01*
X157242Y140994D01*
X157459Y141113D01*
X157679Y141227D01*
X157902Y141336D01*
X158127Y141439D01*
X158355Y141537D01*
X158585Y141629D01*
X158817Y141715D01*
X159051Y141796D01*
X159287Y141870D01*
X159525Y141939D01*
X159765Y142003D01*
X160006Y142060D01*
X160248Y142111D01*
X160491Y142156D01*
X160736Y142196D01*
X160982Y142229D01*
X161228Y142256D01*
X161475Y142278D01*
X161722Y142293D01*
X161969Y142302D01*
X162217Y142305D01*
X162465Y142302D01*
X162712Y142293D01*
X162959Y142278D01*
X163206Y142256D01*
X163452Y142229D01*
X163698Y142196D01*
X163943Y142156D01*
X164186Y142111D01*
X164428Y142060D01*
X164669Y142003D01*
X164909Y141939D01*
X165147Y141870D01*
X165383Y141796D01*
X165617Y141715D01*
X165849Y141629D01*
X166079Y141537D01*
X166307Y141439D01*
X166532Y141336D01*
X166755Y141227D01*
X166975Y141113D01*
X167192Y140994D01*
X167406Y140869D01*
X167617Y140739D01*
X167824Y140604D01*
X168029Y140464D01*
X168229Y140319D01*
X168427Y140169D01*
X168620Y140014D01*
X168809Y139855D01*
X168995Y139690D01*
X169177Y139522D01*
X169354Y139349D01*
X169527Y139172D01*
X169695Y138990D01*
X169860Y138804D01*
X170019Y138615D01*
X170174Y138422D01*
X170324Y138224D01*
X170469Y138024D01*
X170609Y137819D01*
X170744Y137612D01*
X170874Y137401D01*
X170999Y137187D01*
X171118Y136970D01*
X171232Y136750D01*
X171341Y136527D01*
X171444Y136302D01*
X171542Y136074D01*
X171634Y135844D01*
X171720Y135612D01*
X171801Y135378D01*
X171875Y135142D01*
X171944Y134904D01*
X172008Y134664D01*
X172065Y134423D01*
X172116Y134181D01*
X172161Y133938D01*
X172201Y133693D01*
X172234Y133447D01*
X172261Y133201D01*
X172283Y132954D01*
X172298Y132707D01*
X172307Y132460D01*
X172310Y132212D01*
X172307Y131964D01*
X172298Y131717D01*
X172283Y131470D01*
X172261Y131223D01*
X172234Y130977D01*
X172201Y130731D01*
X172161Y130486D01*
X172116Y130243D01*
X172065Y130001D01*
X172008Y129760D01*
X171944Y129520D01*
X171875Y129282D01*
X171801Y129046D01*
X171720Y128812D01*
X171634Y128580D01*
X171542Y128350D01*
X171444Y128122D01*
X171341Y127897D01*
X171232Y127674D01*
X171118Y127454D01*
X170999Y127237D01*
X170874Y127023D01*
X170744Y126812D01*
X170609Y126605D01*
X170469Y126400D01*
X170324Y126200D01*
X170174Y126002D01*
X170019Y125809D01*
X169860Y125620D01*
X169695Y125434D01*
X169527Y125252D01*
X169354Y125075D01*
X169177Y124902D01*
X168995Y124734D01*
X168809Y124569D01*
X168620Y124410D01*
X168427Y124255D01*
X168229Y124105D01*
X168029Y123960D01*
X167824Y123820D01*
X167617Y123685D01*
X167406Y123555D01*
X167192Y123430D01*
X166975Y123311D01*
X166755Y123197D01*
X166532Y123088D01*
X166307Y122985D01*
X166079Y122887D01*
X165849Y122795D01*
X165617Y122709D01*
X165383Y122628D01*
X165147Y122554D01*
X164909Y122485D01*
X164669Y122421D01*
X164428Y122364D01*
X164186Y122313D01*
X163943Y122268D01*
X163698Y122228D01*
X163452Y122195D01*
X163206Y122168D01*
X162959Y122146D01*
X162712Y122131D01*
X162465Y122122D01*
X162217Y122119D01*
X161969Y122122D01*
X161722Y122131D01*
X161475Y122146D01*
X161228Y122168D01*
X160982Y122195D01*
X160736Y122228D01*
X160491Y122268D01*
X160248Y122313D01*
X160006Y122364D01*
X159765Y122421D01*
X159525Y122485D01*
X159287Y122554D01*
X159051Y122628D01*
X158817Y122709D01*
X158585Y122795D01*
X158355Y122887D01*
X158127Y122985D01*
X157902Y123088D01*
X157679Y123197D01*
X157459Y123311D01*
X157242Y123430D01*
X157028Y123555D01*
X156817Y123685D01*
X156610Y123820D01*
X156405Y123960D01*
X156205Y124105D01*
X156007Y124255D01*
X155814Y124410D01*
X155625Y124569D01*
X155439Y124734D01*
X155257Y124902D01*
X155080Y125075D01*
X154907Y125252D01*
X154739Y125434D01*
X154574Y125620D01*
X154415Y125809D01*
X154260Y126002D01*
X154110Y126200D01*
X153965Y126400D01*
X153825Y126605D01*
X153690Y126812D01*
X153560Y127023D01*
X153435Y127237D01*
X153316Y127454D01*
X153202Y127674D01*
X153093Y127897D01*
X152990Y128122D01*
X152892Y128350D01*
X152800Y128580D01*
X152714Y128812D01*
X152633Y129046D01*
X152559Y129282D01*
X152490Y129520D01*
X152426Y129760D01*
X152369Y130001D01*
X152318Y130243D01*
X152273Y130486D01*
X152233Y130731D01*
X152200Y130977D01*
X152173Y131223D01*
X152151Y131470D01*
X152136Y131717D01*
X152127Y131964D01*
X152124Y132212D01*
X152127Y132460D01*
X152136Y132707D01*
X152151Y132954D01*
X152173Y133201D01*
X152200Y133447D01*
X152233Y133693D01*
X152273Y133938D01*
X152318Y134181D01*
X152369Y134423D01*
X152426Y134664D01*
X152490Y134904D01*
X152559Y135142D01*
X152633Y135378D01*
X152714Y135612D01*
X152800Y135844D01*
X152892Y136074D01*
X152990Y136302D01*
X153093Y136527D01*
X153202Y136750D01*
X153316Y136970D01*
X153435Y137187D01*
X153560Y137401D01*
X153690Y137612D01*
X153825Y137819D01*
X153965Y138024D01*
X154110Y138224D01*
X154260Y138422D01*
X154415Y138615D01*
X154574Y138804D01*
X154739Y138990D01*
X154907Y139172D01*
X155080Y139349D01*
X155257Y139522D01*
X155439Y139690D01*
X155625Y139855D01*
X155814Y140014D01*
X156007Y140169D01*
X156205Y140319D01*
X156405Y140464D01*
X156610Y140604D01*
X156817Y140739D01*
X157028Y140869D01*
X157242Y140994D01*
X157459Y141113D01*
X157679Y141227D01*
X157902Y141336D01*
X158127Y141439D01*
X158355Y141537D01*
X158585Y141629D01*
X158817Y141715D01*
X159051Y141796D01*
X159287Y141870D01*
X159525Y141939D01*
X159765Y142003D01*
X160006Y142060D01*
X160248Y142111D01*
X160491Y142156D01*
X160736Y142196D01*
X160982Y142229D01*
X161228Y142256D01*
X161475Y142278D01*
X161722Y142293D01*
X161969Y142302D01*
X162217Y142305D01*
X162465Y142302D01*
X162712Y142293D01*
X162959Y142278D01*
X163206Y142256D01*
X163452Y142229D01*
X163698Y142196D01*
X163943Y142156D01*
X164186Y142111D01*
X164428Y142060D01*
X164669Y142003D01*
X164909Y141939D01*
X165147Y141870D01*
X165383Y141796D01*
X165617Y141715D01*
X165849Y141629D01*
X166079Y141537D01*
X166307Y141439D01*
X166532Y141336D01*
X166755Y141227D01*
X166975Y141113D01*
X167192Y140994D01*
X167406Y140869D01*
X167617Y140739D01*
X167824Y140604D01*
X168029Y140464D01*
X168229Y140319D01*
X168427Y140169D01*
X168620Y140014D01*
X168809Y139855D01*
X168995Y139690D01*
X169177Y139522D01*
X169354Y139349D01*
X169527Y139172D01*
X169695Y138990D01*
X169860Y138804D01*
X170019Y138615D01*
X170174Y138422D01*
X170324Y138224D01*
X170469Y138024D01*
X170609Y137819D01*
X170744Y137612D01*
X170874Y137401D01*
X170999Y137187D01*
X171118Y136970D01*
X171232Y136750D01*
X171341Y136527D01*
X171444Y136302D01*
X171542Y136074D01*
X171634Y135844D01*
X171720Y135612D01*
X171801Y135378D01*
X171875Y135142D01*
X171944Y134904D01*
X172008Y134664D01*
X172065Y134423D01*
X172116Y134181D01*
X172161Y133938D01*
X172201Y133693D01*
X172234Y133447D01*
X172261Y133201D01*
X172283Y132954D01*
X172298Y132707D01*
X172307Y132460D01*
X172310Y132212D01*
X172307Y131964D01*
X172298Y131717D01*
X172283Y131470D01*
X172261Y131223D01*
X172234Y130977D01*
X172201Y130731D01*
X172161Y130486D01*
X172116Y130243D01*
X172065Y130001D01*
X172008Y129760D01*
X171944Y129520D01*
X171875Y129282D01*
X171801Y129046D01*
X171720Y128812D01*
X171634Y128580D01*
X171542Y128350D01*
X171444Y128122D01*
X171341Y127897D01*
X171232Y127674D01*
X171118Y127454D01*
X170999Y127237D01*
X170874Y127023D01*
X170744Y126812D01*
X170609Y126605D01*
X170469Y126400D01*
X170324Y126200D01*
X170174Y126002D01*
X170019Y125809D01*
X169860Y125620D01*
X169695Y125434D01*
X169527Y125252D01*
X169354Y125075D01*
X169177Y124902D01*
X168995Y124734D01*
X168809Y124569D01*
X168620Y124410D01*
X168427Y124255D01*
X168229Y124105D01*
X168029Y123960D01*
X167824Y123820D01*
X167617Y123685D01*
X167406Y123555D01*
X167192Y123430D01*
X166975Y123311D01*
X166755Y123197D01*
X166532Y123088D01*
X166307Y122985D01*
X166079Y122887D01*
X165849Y122795D01*
X165617Y122709D01*
X165383Y122628D01*
X165147Y122554D01*
X164909Y122485D01*
X164669Y122421D01*
X164428Y122364D01*
X164186Y122313D01*
X163943Y122268D01*
X163698Y122228D01*
X163452Y122195D01*
X163206Y122168D01*
X162959Y122146D01*
X162712Y122131D01*
X162465Y122122D01*
X162217Y122119D01*
X161969Y122122D01*
X161722Y122131D01*
X161475Y122146D01*
X161228Y122168D01*
X160982Y122195D01*
X160736Y122228D01*
X160491Y122268D01*
X160248Y122313D01*
X160006Y122364D01*
X159765Y122421D01*
X159525Y122485D01*
X159287Y122554D01*
X159051Y122628D01*
X158817Y122709D01*
X158585Y122795D01*
X158355Y122887D01*
X158127Y122985D01*
X157902Y123088D01*
X157679Y123197D01*
X157459Y123311D01*
X157242Y123430D01*
X157028Y123555D01*
X156817Y123685D01*
X156610Y123820D01*
X156405Y123960D01*
X156205Y124105D01*
X156007Y124255D01*
X155814Y124410D01*
X155625Y124569D01*
X155439Y124734D01*
X155257Y124902D01*
X155080Y125075D01*
X154907Y125252D01*
X154739Y125434D01*
X154574Y125620D01*
X154415Y125809D01*
X154260Y126002D01*
X154110Y126200D01*
X153965Y126400D01*
X153825Y126605D01*
X153690Y126812D01*
X153560Y127023D01*
X153435Y127237D01*
X153316Y127454D01*
X153202Y127674D01*
X153093Y127897D01*
X152990Y128122D01*
X152892Y128350D01*
X152800Y128580D01*
X152714Y128812D01*
X152633Y129046D01*
X152559Y129282D01*
X152490Y129520D01*
X152426Y129760D01*
X152369Y130001D01*
X152318Y130243D01*
X152273Y130486D01*
X152233Y130731D01*
X152200Y130977D01*
X152173Y131223D01*
X152151Y131470D01*
X152136Y131717D01*
X152127Y131964D01*
X152124Y132212D01*
X525573Y845297D02*
X525576Y845545D01*
X525585Y845792D01*
X525600Y846039D01*
X525622Y846286D01*
X525649Y846532D01*
X525682Y846778D01*
X525722Y847023D01*
X525767Y847266D01*
X525818Y847508D01*
X525875Y847749D01*
X525939Y847989D01*
X526008Y848227D01*
X526082Y848463D01*
X526163Y848697D01*
X526249Y848929D01*
X526341Y849159D01*
X526439Y849387D01*
X526542Y849612D01*
X526651Y849835D01*
X526765Y850055D01*
X526884Y850272D01*
X527009Y850486D01*
X527139Y850697D01*
X527274Y850904D01*
X527414Y851109D01*
X527559Y851309D01*
X527709Y851507D01*
X527864Y851700D01*
X528023Y851889D01*
X528188Y852075D01*
X528356Y852257D01*
X528529Y852434D01*
X528706Y852607D01*
X528888Y852775D01*
X529074Y852940D01*
X529263Y853099D01*
X529456Y853254D01*
X529654Y853404D01*
X529854Y853549D01*
X530059Y853689D01*
X530266Y853824D01*
X530477Y853954D01*
X530691Y854079D01*
X530908Y854198D01*
X531128Y854312D01*
X531351Y854421D01*
X531576Y854524D01*
X531804Y854622D01*
X532034Y854714D01*
X532266Y854800D01*
X532500Y854881D01*
X532736Y854955D01*
X532974Y855024D01*
X533214Y855088D01*
X533455Y855145D01*
X533697Y855196D01*
X533940Y855241D01*
X534185Y855281D01*
X534431Y855314D01*
X534677Y855341D01*
X534924Y855363D01*
X535171Y855378D01*
X535418Y855387D01*
X535666Y855390D01*
X535914Y855387D01*
X536161Y855378D01*
X536408Y855363D01*
X536655Y855341D01*
X536901Y855314D01*
X537147Y855281D01*
X537392Y855241D01*
X537635Y855196D01*
X537877Y855145D01*
X538118Y855088D01*
X538358Y855024D01*
X538596Y854955D01*
X538832Y854881D01*
X539066Y854800D01*
X539298Y854714D01*
X539528Y854622D01*
X539756Y854524D01*
X539981Y854421D01*
X540204Y854312D01*
X540424Y854198D01*
X540641Y854079D01*
X540855Y853954D01*
X541066Y853824D01*
X541273Y853689D01*
X541478Y853549D01*
X541678Y853404D01*
X541876Y853254D01*
X542069Y853099D01*
X542258Y852940D01*
X542444Y852775D01*
X542626Y852607D01*
X542803Y852434D01*
X542976Y852257D01*
X543144Y852075D01*
X543309Y851889D01*
X543468Y851700D01*
X543623Y851507D01*
X543773Y851309D01*
X543918Y851109D01*
X544058Y850904D01*
X544193Y850697D01*
X544323Y850486D01*
X544448Y850272D01*
X544567Y850055D01*
X544681Y849835D01*
X544790Y849612D01*
X544893Y849387D01*
X544991Y849159D01*
X545083Y848929D01*
X545169Y848697D01*
X545250Y848463D01*
X545324Y848227D01*
X545393Y847989D01*
X545457Y847749D01*
X545514Y847508D01*
X545565Y847266D01*
X545610Y847023D01*
X545650Y846778D01*
X545683Y846532D01*
X545710Y846286D01*
X545732Y846039D01*
X545747Y845792D01*
X545756Y845545D01*
X545759Y845297D01*
X545756Y845049D01*
X545747Y844802D01*
X545732Y844555D01*
X545710Y844308D01*
X545683Y844062D01*
X545650Y843816D01*
X545610Y843571D01*
X545565Y843328D01*
X545514Y843086D01*
X545457Y842845D01*
X545393Y842605D01*
X545324Y842367D01*
X545250Y842131D01*
X545169Y841897D01*
X545083Y841665D01*
X544991Y841435D01*
X544893Y841207D01*
X544790Y840982D01*
X544681Y840759D01*
X544567Y840539D01*
X544448Y840322D01*
X544323Y840108D01*
X544193Y839897D01*
X544058Y839690D01*
X543918Y839485D01*
X543773Y839285D01*
X543623Y839087D01*
X543468Y838894D01*
X543309Y838705D01*
X543144Y838519D01*
X542976Y838337D01*
X542803Y838160D01*
X542626Y837987D01*
X542444Y837819D01*
X542258Y837654D01*
X542069Y837495D01*
X541876Y837340D01*
X541678Y837190D01*
X541478Y837045D01*
X541273Y836905D01*
X541066Y836770D01*
X540855Y836640D01*
X540641Y836515D01*
X540424Y836396D01*
X540204Y836282D01*
X539981Y836173D01*
X539756Y836070D01*
X539528Y835972D01*
X539298Y835880D01*
X539066Y835794D01*
X538832Y835713D01*
X538596Y835639D01*
X538358Y835570D01*
X538118Y835506D01*
X537877Y835449D01*
X537635Y835398D01*
X537392Y835353D01*
X537147Y835313D01*
X536901Y835280D01*
X536655Y835253D01*
X536408Y835231D01*
X536161Y835216D01*
X535914Y835207D01*
X535666Y835204D01*
X535418Y835207D01*
X535171Y835216D01*
X534924Y835231D01*
X534677Y835253D01*
X534431Y835280D01*
X534185Y835313D01*
X533940Y835353D01*
X533697Y835398D01*
X533455Y835449D01*
X533214Y835506D01*
X532974Y835570D01*
X532736Y835639D01*
X532500Y835713D01*
X532266Y835794D01*
X532034Y835880D01*
X531804Y835972D01*
X531576Y836070D01*
X531351Y836173D01*
X531128Y836282D01*
X530908Y836396D01*
X530691Y836515D01*
X530477Y836640D01*
X530266Y836770D01*
X530059Y836905D01*
X529854Y837045D01*
X529654Y837190D01*
X529456Y837340D01*
X529263Y837495D01*
X529074Y837654D01*
X528888Y837819D01*
X528706Y837987D01*
X528529Y838160D01*
X528356Y838337D01*
X528188Y838519D01*
X528023Y838705D01*
X527864Y838894D01*
X527709Y839087D01*
X527559Y839285D01*
X527414Y839485D01*
X527274Y839690D01*
X527139Y839897D01*
X527009Y840108D01*
X526884Y840322D01*
X526765Y840539D01*
X526651Y840759D01*
X526542Y840982D01*
X526439Y841207D01*
X526341Y841435D01*
X526249Y841665D01*
X526163Y841897D01*
X526082Y842131D01*
X526008Y842367D01*
X525939Y842605D01*
X525875Y842845D01*
X525818Y843086D01*
X525767Y843328D01*
X525722Y843571D01*
X525682Y843816D01*
X525649Y844062D01*
X525622Y844308D01*
X525600Y844555D01*
X525585Y844802D01*
X525576Y845049D01*
X525573Y845297D01*
X525576Y845545D01*
X525585Y845792D01*
X525600Y846039D01*
X525622Y846286D01*
X525649Y846532D01*
X525682Y846778D01*
X525722Y847023D01*
X525767Y847266D01*
X525818Y847508D01*
X525875Y847749D01*
X525939Y847989D01*
X526008Y848227D01*
X526082Y848463D01*
X526163Y848697D01*
X526249Y848929D01*
X526341Y849159D01*
X526439Y849387D01*
X526542Y849612D01*
X526651Y849835D01*
X526765Y850055D01*
X526884Y850272D01*
X527009Y850486D01*
X527139Y850697D01*
X527274Y850904D01*
X527414Y851109D01*
X527559Y851309D01*
X527709Y851507D01*
X527864Y851700D01*
X528023Y851889D01*
X528188Y852075D01*
X528356Y852257D01*
X528529Y852434D01*
X528706Y852607D01*
X528888Y852775D01*
X529074Y852940D01*
X529263Y853099D01*
X529456Y853254D01*
X529654Y853404D01*
X529854Y853549D01*
X530059Y853689D01*
X530266Y853824D01*
X530477Y853954D01*
X530691Y854079D01*
X530908Y854198D01*
X531128Y854312D01*
X531351Y854421D01*
X531576Y854524D01*
X531804Y854622D01*
X532034Y854714D01*
X532266Y854800D01*
X532500Y854881D01*
X532736Y854955D01*
X532974Y855024D01*
X533214Y855088D01*
X533455Y855145D01*
X533697Y855196D01*
X533940Y855241D01*
X534185Y855281D01*
X534431Y855314D01*
X534677Y855341D01*
X534924Y855363D01*
X535171Y855378D01*
X535418Y855387D01*
X535666Y855390D01*
X535914Y855387D01*
X536161Y855378D01*
X536408Y855363D01*
X536655Y855341D01*
X536901Y855314D01*
X537147Y855281D01*
X537392Y855241D01*
X537635Y855196D01*
X537877Y855145D01*
X538118Y855088D01*
X538358Y855024D01*
X538596Y854955D01*
X538832Y854881D01*
X539066Y854800D01*
X539298Y854714D01*
X539528Y854622D01*
X539756Y854524D01*
X539981Y854421D01*
X540204Y854312D01*
X540424Y854198D01*
X540641Y854079D01*
X540855Y853954D01*
X541066Y853824D01*
X541273Y853689D01*
X541478Y853549D01*
X541678Y853404D01*
X541876Y853254D01*
X542069Y853099D01*
X542258Y852940D01*
X542444Y852775D01*
X542626Y852607D01*
X542803Y852434D01*
X542976Y852257D01*
X543144Y852075D01*
X543309Y851889D01*
X543468Y851700D01*
X543623Y851507D01*
X543773Y851309D01*
X543918Y851109D01*
X544058Y850904D01*
X544193Y850697D01*
X544323Y850486D01*
X544448Y850272D01*
X544567Y850055D01*
X544681Y849835D01*
X544790Y849612D01*
X544893Y849387D01*
X544991Y849159D01*
X545083Y848929D01*
X545169Y848697D01*
X545250Y848463D01*
X545324Y848227D01*
X545393Y847989D01*
X545457Y847749D01*
X545514Y847508D01*
X545565Y847266D01*
X545610Y847023D01*
X545650Y846778D01*
X545683Y846532D01*
X545710Y846286D01*
X545732Y846039D01*
X545747Y845792D01*
X545756Y845545D01*
X545759Y845297D01*
X545756Y845049D01*
X545747Y844802D01*
X545732Y844555D01*
X545710Y844308D01*
X545683Y844062D01*
X545650Y843816D01*
X545610Y843571D01*
X545565Y843328D01*
X545514Y843086D01*
X545457Y842845D01*
X545393Y842605D01*
X545324Y842367D01*
X545250Y842131D01*
X545169Y841897D01*
X545083Y841665D01*
X544991Y841435D01*
X544893Y841207D01*
X544790Y840982D01*
X544681Y840759D01*
X544567Y840539D01*
X544448Y840322D01*
X544323Y840108D01*
X544193Y839897D01*
X544058Y839690D01*
X543918Y839485D01*
X543773Y839285D01*
X543623Y839087D01*
X543468Y838894D01*
X543309Y838705D01*
X543144Y838519D01*
X542976Y838337D01*
X542803Y838160D01*
X542626Y837987D01*
X542444Y837819D01*
X542258Y837654D01*
X542069Y837495D01*
X541876Y837340D01*
X541678Y837190D01*
X541478Y837045D01*
X541273Y836905D01*
X541066Y836770D01*
X540855Y836640D01*
X540641Y836515D01*
X540424Y836396D01*
X540204Y836282D01*
X539981Y836173D01*
X539756Y836070D01*
X539528Y835972D01*
X539298Y835880D01*
X539066Y835794D01*
X538832Y835713D01*
X538596Y835639D01*
X538358Y835570D01*
X538118Y835506D01*
X537877Y835449D01*
X537635Y835398D01*
X537392Y835353D01*
X537147Y835313D01*
X536901Y835280D01*
X536655Y835253D01*
X536408Y835231D01*
X536161Y835216D01*
X535914Y835207D01*
X535666Y835204D01*
X535418Y835207D01*
X535171Y835216D01*
X534924Y835231D01*
X534677Y835253D01*
X534431Y835280D01*
X534185Y835313D01*
X533940Y835353D01*
X533697Y835398D01*
X533455Y835449D01*
X533214Y835506D01*
X532974Y835570D01*
X532736Y835639D01*
X532500Y835713D01*
X532266Y835794D01*
X532034Y835880D01*
X531804Y835972D01*
X531576Y836070D01*
X531351Y836173D01*
X531128Y836282D01*
X530908Y836396D01*
X530691Y836515D01*
X530477Y836640D01*
X530266Y836770D01*
X530059Y836905D01*
X529854Y837045D01*
X529654Y837190D01*
X529456Y837340D01*
X529263Y837495D01*
X529074Y837654D01*
X528888Y837819D01*
X528706Y837987D01*
X528529Y838160D01*
X528356Y838337D01*
X528188Y838519D01*
X528023Y838705D01*
X527864Y838894D01*
X527709Y839087D01*
X527559Y839285D01*
X527414Y839485D01*
X527274Y839690D01*
X527139Y839897D01*
X527009Y840108D01*
X526884Y840322D01*
X526765Y840539D01*
X526651Y840759D01*
X526542Y840982D01*
X526439Y841207D01*
X526341Y841435D01*
X526249Y841665D01*
X526163Y841897D01*
X526082Y842131D01*
X526008Y842367D01*
X525939Y842605D01*
X525875Y842845D01*
X525818Y843086D01*
X525767Y843328D01*
X525722Y843571D01*
X525682Y843816D01*
X525649Y844062D01*
X525622Y844308D01*
X525600Y844555D01*
X525585Y844802D01*
X525576Y845049D01*
X525573Y845297D01*
D11*
X147574Y132080D02*
X147579Y132448D01*
X147592Y132815D01*
X147615Y133182D01*
X147646Y133549D01*
X147687Y133914D01*
X147736Y134279D01*
X147795Y134642D01*
X147862Y135004D01*
X147938Y135363D01*
X148023Y135721D01*
X148117Y136077D01*
X148219Y136430D01*
X148330Y136781D01*
X148450Y137129D01*
X148578Y137473D01*
X148715Y137815D01*
X148860Y138153D01*
X149013Y138487D01*
X149174Y138818D01*
X149344Y139144D01*
X149521Y139467D01*
X149706Y139784D01*
X149899Y140097D01*
X150100Y140406D01*
X150308Y140709D01*
X150523Y141007D01*
X150746Y141300D01*
X150976Y141587D01*
X151212Y141868D01*
X151456Y142144D01*
X151706Y142413D01*
X151963Y142677D01*
X152227Y142934D01*
X152496Y143184D01*
X152772Y143428D01*
X153053Y143664D01*
X153340Y143894D01*
X153633Y144117D01*
X153931Y144332D01*
X154234Y144540D01*
X154543Y144741D01*
X154856Y144934D01*
X155173Y145119D01*
X155496Y145296D01*
X155822Y145466D01*
X156153Y145627D01*
X156487Y145780D01*
X156825Y145925D01*
X157167Y146062D01*
X157511Y146190D01*
X157859Y146310D01*
X158210Y146421D01*
X158563Y146523D01*
X158919Y146617D01*
X159277Y146702D01*
X159636Y146778D01*
X159998Y146845D01*
X160361Y146904D01*
X160726Y146953D01*
X161091Y146994D01*
X161458Y147025D01*
X161825Y147048D01*
X162192Y147061D01*
X162560Y147066D01*
X162928Y147061D01*
X163295Y147048D01*
X163662Y147025D01*
X164029Y146994D01*
X164394Y146953D01*
X164759Y146904D01*
X165122Y146845D01*
X165484Y146778D01*
X165843Y146702D01*
X166201Y146617D01*
X166557Y146523D01*
X166910Y146421D01*
X167261Y146310D01*
X167609Y146190D01*
X167953Y146062D01*
X168295Y145925D01*
X168633Y145780D01*
X168967Y145627D01*
X169298Y145466D01*
X169624Y145296D01*
X169947Y145119D01*
X170264Y144934D01*
X170577Y144741D01*
X170886Y144540D01*
X171189Y144332D01*
X171487Y144117D01*
X171780Y143894D01*
X172067Y143664D01*
X172348Y143428D01*
X172624Y143184D01*
X172893Y142934D01*
X173157Y142677D01*
X173414Y142413D01*
X173664Y142144D01*
X173908Y141868D01*
X174144Y141587D01*
X174374Y141300D01*
X174597Y141007D01*
X174812Y140709D01*
X175020Y140406D01*
X175221Y140097D01*
X175414Y139784D01*
X175599Y139467D01*
X175776Y139144D01*
X175946Y138818D01*
X176107Y138487D01*
X176260Y138153D01*
X176405Y137815D01*
X176542Y137473D01*
X176670Y137129D01*
X176790Y136781D01*
X176901Y136430D01*
X177003Y136077D01*
X177097Y135721D01*
X177182Y135363D01*
X177258Y135004D01*
X177325Y134642D01*
X177384Y134279D01*
X177433Y133914D01*
X177474Y133549D01*
X177505Y133182D01*
X177528Y132815D01*
X177541Y132448D01*
X177546Y132080D01*
X177541Y131712D01*
X177528Y131345D01*
X177505Y130978D01*
X177474Y130611D01*
X177433Y130246D01*
X177384Y129881D01*
X177325Y129518D01*
X177258Y129156D01*
X177182Y128797D01*
X177097Y128439D01*
X177003Y128083D01*
X176901Y127730D01*
X176790Y127379D01*
X176670Y127031D01*
X176542Y126687D01*
X176405Y126345D01*
X176260Y126007D01*
X176107Y125673D01*
X175946Y125342D01*
X175776Y125016D01*
X175599Y124693D01*
X175414Y124376D01*
X175221Y124063D01*
X175020Y123754D01*
X174812Y123451D01*
X174597Y123153D01*
X174374Y122860D01*
X174144Y122573D01*
X173908Y122292D01*
X173664Y122016D01*
X173414Y121747D01*
X173157Y121483D01*
X172893Y121226D01*
X172624Y120976D01*
X172348Y120732D01*
X172067Y120496D01*
X171780Y120266D01*
X171487Y120043D01*
X171189Y119828D01*
X170886Y119620D01*
X170577Y119419D01*
X170264Y119226D01*
X169947Y119041D01*
X169624Y118864D01*
X169298Y118694D01*
X168967Y118533D01*
X168633Y118380D01*
X168295Y118235D01*
X167953Y118098D01*
X167609Y117970D01*
X167261Y117850D01*
X166910Y117739D01*
X166557Y117637D01*
X166201Y117543D01*
X165843Y117458D01*
X165484Y117382D01*
X165122Y117315D01*
X164759Y117256D01*
X164394Y117207D01*
X164029Y117166D01*
X163662Y117135D01*
X163295Y117112D01*
X162928Y117099D01*
X162560Y117094D01*
X162192Y117099D01*
X161825Y117112D01*
X161458Y117135D01*
X161091Y117166D01*
X160726Y117207D01*
X160361Y117256D01*
X159998Y117315D01*
X159636Y117382D01*
X159277Y117458D01*
X158919Y117543D01*
X158563Y117637D01*
X158210Y117739D01*
X157859Y117850D01*
X157511Y117970D01*
X157167Y118098D01*
X156825Y118235D01*
X156487Y118380D01*
X156153Y118533D01*
X155822Y118694D01*
X155496Y118864D01*
X155173Y119041D01*
X154856Y119226D01*
X154543Y119419D01*
X154234Y119620D01*
X153931Y119828D01*
X153633Y120043D01*
X153340Y120266D01*
X153053Y120496D01*
X152772Y120732D01*
X152496Y120976D01*
X152227Y121226D01*
X151963Y121483D01*
X151706Y121747D01*
X151456Y122016D01*
X151212Y122292D01*
X150976Y122573D01*
X150746Y122860D01*
X150523Y123153D01*
X150308Y123451D01*
X150100Y123754D01*
X149899Y124063D01*
X149706Y124376D01*
X149521Y124693D01*
X149344Y125016D01*
X149174Y125342D01*
X149013Y125673D01*
X148860Y126007D01*
X148715Y126345D01*
X148578Y126687D01*
X148450Y127031D01*
X148330Y127379D01*
X148219Y127730D01*
X148117Y128083D01*
X148023Y128439D01*
X147938Y128797D01*
X147862Y129156D01*
X147795Y129518D01*
X147736Y129881D01*
X147687Y130246D01*
X147646Y130611D01*
X147615Y130978D01*
X147592Y131345D01*
X147579Y131712D01*
X147574Y132080D01*
X891794Y132080D02*
X891799Y132448D01*
X891812Y132815D01*
X891835Y133182D01*
X891866Y133549D01*
X891907Y133914D01*
X891956Y134279D01*
X892015Y134642D01*
X892082Y135004D01*
X892158Y135363D01*
X892243Y135721D01*
X892337Y136077D01*
X892439Y136430D01*
X892550Y136781D01*
X892670Y137129D01*
X892798Y137473D01*
X892935Y137815D01*
X893080Y138153D01*
X893233Y138487D01*
X893394Y138818D01*
X893564Y139144D01*
X893741Y139467D01*
X893926Y139784D01*
X894119Y140097D01*
X894320Y140406D01*
X894528Y140709D01*
X894743Y141007D01*
X894966Y141300D01*
X895196Y141587D01*
X895432Y141868D01*
X895676Y142144D01*
X895926Y142413D01*
X896183Y142677D01*
X896447Y142934D01*
X896716Y143184D01*
X896992Y143428D01*
X897273Y143664D01*
X897560Y143894D01*
X897853Y144117D01*
X898151Y144332D01*
X898454Y144540D01*
X898763Y144741D01*
X899076Y144934D01*
X899393Y145119D01*
X899716Y145296D01*
X900042Y145466D01*
X900373Y145627D01*
X900707Y145780D01*
X901045Y145925D01*
X901387Y146062D01*
X901731Y146190D01*
X902079Y146310D01*
X902430Y146421D01*
X902783Y146523D01*
X903139Y146617D01*
X903497Y146702D01*
X903856Y146778D01*
X904218Y146845D01*
X904581Y146904D01*
X904946Y146953D01*
X905311Y146994D01*
X905678Y147025D01*
X906045Y147048D01*
X906412Y147061D01*
X906780Y147066D01*
X907148Y147061D01*
X907515Y147048D01*
X907882Y147025D01*
X908249Y146994D01*
X908614Y146953D01*
X908979Y146904D01*
X909342Y146845D01*
X909704Y146778D01*
X910063Y146702D01*
X910421Y146617D01*
X910777Y146523D01*
X911130Y146421D01*
X911481Y146310D01*
X911829Y146190D01*
X912173Y146062D01*
X912515Y145925D01*
X912853Y145780D01*
X913187Y145627D01*
X913518Y145466D01*
X913844Y145296D01*
X914167Y145119D01*
X914484Y144934D01*
X914797Y144741D01*
X915106Y144540D01*
X915409Y144332D01*
X915707Y144117D01*
X916000Y143894D01*
X916287Y143664D01*
X916568Y143428D01*
X916844Y143184D01*
X917113Y142934D01*
X917377Y142677D01*
X917634Y142413D01*
X917884Y142144D01*
X918128Y141868D01*
X918364Y141587D01*
X918594Y141300D01*
X918817Y141007D01*
X919032Y140709D01*
X919240Y140406D01*
X919441Y140097D01*
X919634Y139784D01*
X919819Y139467D01*
X919996Y139144D01*
X920166Y138818D01*
X920327Y138487D01*
X920480Y138153D01*
X920625Y137815D01*
X920762Y137473D01*
X920890Y137129D01*
X921010Y136781D01*
X921121Y136430D01*
X921223Y136077D01*
X921317Y135721D01*
X921402Y135363D01*
X921478Y135004D01*
X921545Y134642D01*
X921604Y134279D01*
X921653Y133914D01*
X921694Y133549D01*
X921725Y133182D01*
X921748Y132815D01*
X921761Y132448D01*
X921766Y132080D01*
X921761Y131712D01*
X921748Y131345D01*
X921725Y130978D01*
X921694Y130611D01*
X921653Y130246D01*
X921604Y129881D01*
X921545Y129518D01*
X921478Y129156D01*
X921402Y128797D01*
X921317Y128439D01*
X921223Y128083D01*
X921121Y127730D01*
X921010Y127379D01*
X920890Y127031D01*
X920762Y126687D01*
X920625Y126345D01*
X920480Y126007D01*
X920327Y125673D01*
X920166Y125342D01*
X919996Y125016D01*
X919819Y124693D01*
X919634Y124376D01*
X919441Y124063D01*
X919240Y123754D01*
X919032Y123451D01*
X918817Y123153D01*
X918594Y122860D01*
X918364Y122573D01*
X918128Y122292D01*
X917884Y122016D01*
X917634Y121747D01*
X917377Y121483D01*
X917113Y121226D01*
X916844Y120976D01*
X916568Y120732D01*
X916287Y120496D01*
X916000Y120266D01*
X915707Y120043D01*
X915409Y119828D01*
X915106Y119620D01*
X914797Y119419D01*
X914484Y119226D01*
X914167Y119041D01*
X913844Y118864D01*
X913518Y118694D01*
X913187Y118533D01*
X912853Y118380D01*
X912515Y118235D01*
X912173Y118098D01*
X911829Y117970D01*
X911481Y117850D01*
X911130Y117739D01*
X910777Y117637D01*
X910421Y117543D01*
X910063Y117458D01*
X909704Y117382D01*
X909342Y117315D01*
X908979Y117256D01*
X908614Y117207D01*
X908249Y117166D01*
X907882Y117135D01*
X907515Y117112D01*
X907148Y117099D01*
X906780Y117094D01*
X906412Y117099D01*
X906045Y117112D01*
X905678Y117135D01*
X905311Y117166D01*
X904946Y117207D01*
X904581Y117256D01*
X904218Y117315D01*
X903856Y117382D01*
X903497Y117458D01*
X903139Y117543D01*
X902783Y117637D01*
X902430Y117739D01*
X902079Y117850D01*
X901731Y117970D01*
X901387Y118098D01*
X901045Y118235D01*
X900707Y118380D01*
X900373Y118533D01*
X900042Y118694D01*
X899716Y118864D01*
X899393Y119041D01*
X899076Y119226D01*
X898763Y119419D01*
X898454Y119620D01*
X898151Y119828D01*
X897853Y120043D01*
X897560Y120266D01*
X897273Y120496D01*
X896992Y120732D01*
X896716Y120976D01*
X896447Y121226D01*
X896183Y121483D01*
X895926Y121747D01*
X895676Y122016D01*
X895432Y122292D01*
X895196Y122573D01*
X894966Y122860D01*
X894743Y123153D01*
X894528Y123451D01*
X894320Y123754D01*
X894119Y124063D01*
X893926Y124376D01*
X893741Y124693D01*
X893564Y125016D01*
X893394Y125342D01*
X893233Y125673D01*
X893080Y126007D01*
X892935Y126345D01*
X892798Y126687D01*
X892670Y127031D01*
X892550Y127379D01*
X892439Y127730D01*
X892337Y128083D01*
X892243Y128439D01*
X892158Y128797D01*
X892082Y129156D01*
X892015Y129518D01*
X891956Y129881D01*
X891907Y130246D01*
X891866Y130611D01*
X891835Y130978D01*
X891812Y131345D01*
X891799Y131712D01*
X891794Y132080D01*
X520954Y845820D02*
X520959Y846188D01*
X520972Y846555D01*
X520995Y846922D01*
X521026Y847289D01*
X521067Y847654D01*
X521116Y848019D01*
X521175Y848382D01*
X521242Y848744D01*
X521318Y849103D01*
X521403Y849461D01*
X521497Y849817D01*
X521599Y850170D01*
X521710Y850521D01*
X521830Y850869D01*
X521958Y851213D01*
X522095Y851555D01*
X522240Y851893D01*
X522393Y852227D01*
X522554Y852558D01*
X522724Y852884D01*
X522901Y853207D01*
X523086Y853524D01*
X523279Y853837D01*
X523480Y854146D01*
X523688Y854449D01*
X523903Y854747D01*
X524126Y855040D01*
X524356Y855327D01*
X524592Y855608D01*
X524836Y855884D01*
X525086Y856153D01*
X525343Y856417D01*
X525607Y856674D01*
X525876Y856924D01*
X526152Y857168D01*
X526433Y857404D01*
X526720Y857634D01*
X527013Y857857D01*
X527311Y858072D01*
X527614Y858280D01*
X527923Y858481D01*
X528236Y858674D01*
X528553Y858859D01*
X528876Y859036D01*
X529202Y859206D01*
X529533Y859367D01*
X529867Y859520D01*
X530205Y859665D01*
X530547Y859802D01*
X530891Y859930D01*
X531239Y860050D01*
X531590Y860161D01*
X531943Y860263D01*
X532299Y860357D01*
X532657Y860442D01*
X533016Y860518D01*
X533378Y860585D01*
X533741Y860644D01*
X534106Y860693D01*
X534471Y860734D01*
X534838Y860765D01*
X535205Y860788D01*
X535572Y860801D01*
X535940Y860806D01*
X536308Y860801D01*
X536675Y860788D01*
X537042Y860765D01*
X537409Y860734D01*
X537774Y860693D01*
X538139Y860644D01*
X538502Y860585D01*
X538864Y860518D01*
X539223Y860442D01*
X539581Y860357D01*
X539937Y860263D01*
X540290Y860161D01*
X540641Y860050D01*
X540989Y859930D01*
X541333Y859802D01*
X541675Y859665D01*
X542013Y859520D01*
X542347Y859367D01*
X542678Y859206D01*
X543004Y859036D01*
X543327Y858859D01*
X543644Y858674D01*
X543957Y858481D01*
X544266Y858280D01*
X544569Y858072D01*
X544867Y857857D01*
X545160Y857634D01*
X545447Y857404D01*
X545728Y857168D01*
X546004Y856924D01*
X546273Y856674D01*
X546537Y856417D01*
X546794Y856153D01*
X547044Y855884D01*
X547288Y855608D01*
X547524Y855327D01*
X547754Y855040D01*
X547977Y854747D01*
X548192Y854449D01*
X548400Y854146D01*
X548601Y853837D01*
X548794Y853524D01*
X548979Y853207D01*
X549156Y852884D01*
X549326Y852558D01*
X549487Y852227D01*
X549640Y851893D01*
X549785Y851555D01*
X549922Y851213D01*
X550050Y850869D01*
X550170Y850521D01*
X550281Y850170D01*
X550383Y849817D01*
X550477Y849461D01*
X550562Y849103D01*
X550638Y848744D01*
X550705Y848382D01*
X550764Y848019D01*
X550813Y847654D01*
X550854Y847289D01*
X550885Y846922D01*
X550908Y846555D01*
X550921Y846188D01*
X550926Y845820D01*
X550921Y845452D01*
X550908Y845085D01*
X550885Y844718D01*
X550854Y844351D01*
X550813Y843986D01*
X550764Y843621D01*
X550705Y843258D01*
X550638Y842896D01*
X550562Y842537D01*
X550477Y842179D01*
X550383Y841823D01*
X550281Y841470D01*
X550170Y841119D01*
X550050Y840771D01*
X549922Y840427D01*
X549785Y840085D01*
X549640Y839747D01*
X549487Y839413D01*
X549326Y839082D01*
X549156Y838756D01*
X548979Y838433D01*
X548794Y838116D01*
X548601Y837803D01*
X548400Y837494D01*
X548192Y837191D01*
X547977Y836893D01*
X547754Y836600D01*
X547524Y836313D01*
X547288Y836032D01*
X547044Y835756D01*
X546794Y835487D01*
X546537Y835223D01*
X546273Y834966D01*
X546004Y834716D01*
X545728Y834472D01*
X545447Y834236D01*
X545160Y834006D01*
X544867Y833783D01*
X544569Y833568D01*
X544266Y833360D01*
X543957Y833159D01*
X543644Y832966D01*
X543327Y832781D01*
X543004Y832604D01*
X542678Y832434D01*
X542347Y832273D01*
X542013Y832120D01*
X541675Y831975D01*
X541333Y831838D01*
X540989Y831710D01*
X540641Y831590D01*
X540290Y831479D01*
X539937Y831377D01*
X539581Y831283D01*
X539223Y831198D01*
X538864Y831122D01*
X538502Y831055D01*
X538139Y830996D01*
X537774Y830947D01*
X537409Y830906D01*
X537042Y830875D01*
X536675Y830852D01*
X536308Y830839D01*
X535940Y830834D01*
X535572Y830839D01*
X535205Y830852D01*
X534838Y830875D01*
X534471Y830906D01*
X534106Y830947D01*
X533741Y830996D01*
X533378Y831055D01*
X533016Y831122D01*
X532657Y831198D01*
X532299Y831283D01*
X531943Y831377D01*
X531590Y831479D01*
X531239Y831590D01*
X530891Y831710D01*
X530547Y831838D01*
X530205Y831975D01*
X529867Y832120D01*
X529533Y832273D01*
X529202Y832434D01*
X528876Y832604D01*
X528553Y832781D01*
X528236Y832966D01*
X527923Y833159D01*
X527614Y833360D01*
X527311Y833568D01*
X527013Y833783D01*
X526720Y834006D01*
X526433Y834236D01*
X526152Y834472D01*
X525876Y834716D01*
X525607Y834966D01*
X525343Y835223D01*
X525086Y835487D01*
X524836Y835756D01*
X524592Y836032D01*
X524356Y836313D01*
X524126Y836600D01*
X523903Y836893D01*
X523688Y837191D01*
X523480Y837494D01*
X523279Y837803D01*
X523086Y838116D01*
X522901Y838433D01*
X522724Y838756D01*
X522554Y839082D01*
X522393Y839413D01*
X522240Y839747D01*
X522095Y840085D01*
X521958Y840427D01*
X521830Y840771D01*
X521710Y841119D01*
X521599Y841470D01*
X521497Y841823D01*
X521403Y842179D01*
X521318Y842537D01*
X521242Y842896D01*
X521175Y843258D01*
X521116Y843621D01*
X521067Y843986D01*
X521026Y844351D01*
X520995Y844718D01*
X520972Y845085D01*
X520959Y845452D01*
X520954Y845820D01*
D12*
X342900Y330200D02*
X721360Y330200D01*
X703580Y358140D01*
X660400Y429260D01*
X411480Y429260D01*
X363220Y358140D01*
X342900Y330200D01*
D13*
X-36830Y1170940D02*
X1132840Y1170940D01*
D12*
X535940Y697230D02*
X422910Y455930D01*
X648970Y455930D02*
X535940Y697230D01*
X648970Y455930D02*
X422910Y455930D01*
X-1270Y0D02*
X534670Y1151890D01*
X1071880Y0D01*
X861060Y0D01*
X737870Y264160D01*
X334010Y264160D01*
X210820Y0D01*
X-1270Y0D01*
D14*
X467741Y439801D02*
X467741Y447167D01*
X469787Y447167D01*
X469876Y447165D01*
X469965Y447159D01*
X470054Y447149D01*
X470142Y447136D01*
X470230Y447119D01*
X470317Y447097D01*
X470402Y447072D01*
X470487Y447044D01*
X470570Y447011D01*
X470652Y446975D01*
X470732Y446936D01*
X470810Y446893D01*
X470886Y446847D01*
X470961Y446797D01*
X471033Y446744D01*
X471102Y446688D01*
X471169Y446629D01*
X471234Y446568D01*
X471295Y446503D01*
X471354Y446436D01*
X471410Y446367D01*
X471463Y446295D01*
X471513Y446220D01*
X471559Y446144D01*
X471602Y446066D01*
X471641Y445986D01*
X471677Y445904D01*
X471710Y445821D01*
X471738Y445736D01*
X471763Y445651D01*
X471785Y445564D01*
X471802Y445476D01*
X471815Y445388D01*
X471825Y445299D01*
X471831Y445210D01*
X471833Y445121D01*
X471833Y441847D01*
X471831Y441758D01*
X471825Y441669D01*
X471815Y441580D01*
X471802Y441492D01*
X471785Y441404D01*
X471763Y441317D01*
X471738Y441232D01*
X471710Y441147D01*
X471677Y441064D01*
X471641Y440982D01*
X471602Y440902D01*
X471559Y440824D01*
X471513Y440748D01*
X471463Y440673D01*
X471410Y440601D01*
X471354Y440532D01*
X471295Y440465D01*
X471234Y440400D01*
X471169Y440339D01*
X471102Y440280D01*
X471033Y440224D01*
X470961Y440171D01*
X470886Y440121D01*
X470810Y440075D01*
X470732Y440032D01*
X470652Y439993D01*
X470570Y439957D01*
X470487Y439924D01*
X470402Y439896D01*
X470317Y439871D01*
X470230Y439849D01*
X470142Y439832D01*
X470054Y439819D01*
X469965Y439809D01*
X469876Y439803D01*
X469787Y439801D01*
X467741Y439801D01*
X476449Y439801D02*
X478495Y439801D01*
X476449Y439801D02*
X476380Y439803D01*
X476312Y439809D01*
X476243Y439818D01*
X476176Y439832D01*
X476109Y439849D01*
X476043Y439870D01*
X475979Y439894D01*
X475916Y439923D01*
X475855Y439954D01*
X475796Y439989D01*
X475738Y440027D01*
X475683Y440069D01*
X475631Y440113D01*
X475581Y440161D01*
X475533Y440211D01*
X475489Y440263D01*
X475447Y440318D01*
X475409Y440376D01*
X475374Y440435D01*
X475343Y440496D01*
X475314Y440559D01*
X475290Y440623D01*
X475269Y440689D01*
X475252Y440756D01*
X475238Y440823D01*
X475229Y440892D01*
X475223Y440960D01*
X475221Y441029D01*
X475222Y441029D02*
X475222Y443075D01*
X475221Y443075D02*
X475223Y443154D01*
X475229Y443233D01*
X475238Y443312D01*
X475251Y443390D01*
X475269Y443467D01*
X475289Y443543D01*
X475314Y443618D01*
X475342Y443692D01*
X475373Y443765D01*
X475409Y443836D01*
X475447Y443905D01*
X475489Y443972D01*
X475534Y444037D01*
X475582Y444100D01*
X475633Y444161D01*
X475687Y444218D01*
X475743Y444274D01*
X475802Y444326D01*
X475864Y444376D01*
X475928Y444422D01*
X475994Y444466D01*
X476062Y444506D01*
X476132Y444542D01*
X476204Y444576D01*
X476278Y444606D01*
X476352Y444632D01*
X476428Y444655D01*
X476505Y444673D01*
X476582Y444689D01*
X476661Y444700D01*
X476739Y444708D01*
X476818Y444712D01*
X476898Y444712D01*
X476977Y444708D01*
X477055Y444700D01*
X477134Y444689D01*
X477211Y444673D01*
X477288Y444655D01*
X477364Y444632D01*
X477438Y444606D01*
X477512Y444576D01*
X477584Y444542D01*
X477654Y444506D01*
X477722Y444466D01*
X477788Y444422D01*
X477852Y444376D01*
X477914Y444326D01*
X477973Y444274D01*
X478029Y444218D01*
X478083Y444161D01*
X478134Y444100D01*
X478182Y444037D01*
X478227Y443972D01*
X478269Y443905D01*
X478307Y443836D01*
X478343Y443765D01*
X478374Y443692D01*
X478402Y443618D01*
X478427Y443543D01*
X478447Y443467D01*
X478465Y443390D01*
X478478Y443312D01*
X478487Y443233D01*
X478493Y443154D01*
X478495Y443075D01*
X478495Y442256D01*
X475222Y442256D01*
X482175Y442666D02*
X484221Y441847D01*
X482175Y442666D02*
X482116Y442691D01*
X482059Y442720D01*
X482004Y442753D01*
X481951Y442789D01*
X481900Y442827D01*
X481852Y442869D01*
X481806Y442914D01*
X481763Y442961D01*
X481723Y443011D01*
X481686Y443063D01*
X481652Y443118D01*
X481621Y443174D01*
X481594Y443232D01*
X481571Y443292D01*
X481551Y443352D01*
X481535Y443414D01*
X481522Y443477D01*
X481514Y443541D01*
X481509Y443604D01*
X481508Y443668D01*
X481511Y443732D01*
X481518Y443796D01*
X481529Y443859D01*
X481543Y443921D01*
X481561Y443983D01*
X481583Y444043D01*
X481608Y444102D01*
X481637Y444159D01*
X481670Y444214D01*
X481705Y444267D01*
X481744Y444318D01*
X481786Y444367D01*
X481830Y444413D01*
X481878Y444456D01*
X481927Y444496D01*
X481980Y444533D01*
X482034Y444567D01*
X482090Y444598D01*
X482148Y444625D01*
X482207Y444649D01*
X482268Y444668D01*
X482330Y444685D01*
X482393Y444697D01*
X482456Y444706D01*
X482520Y444711D01*
X482584Y444712D01*
X482720Y444708D01*
X482855Y444700D01*
X482991Y444688D01*
X483125Y444672D01*
X483260Y444652D01*
X483393Y444629D01*
X483526Y444601D01*
X483658Y444570D01*
X483789Y444535D01*
X483919Y444496D01*
X484048Y444453D01*
X484175Y444406D01*
X484301Y444356D01*
X484426Y444302D01*
X484221Y441847D02*
X484280Y441822D01*
X484337Y441793D01*
X484392Y441760D01*
X484445Y441724D01*
X484496Y441686D01*
X484544Y441644D01*
X484590Y441599D01*
X484633Y441552D01*
X484673Y441502D01*
X484710Y441450D01*
X484744Y441395D01*
X484775Y441339D01*
X484802Y441281D01*
X484825Y441221D01*
X484845Y441161D01*
X484861Y441099D01*
X484874Y441036D01*
X484882Y440972D01*
X484887Y440909D01*
X484888Y440845D01*
X484885Y440781D01*
X484878Y440717D01*
X484867Y440654D01*
X484853Y440592D01*
X484835Y440530D01*
X484813Y440470D01*
X484788Y440411D01*
X484759Y440354D01*
X484726Y440299D01*
X484691Y440246D01*
X484652Y440195D01*
X484610Y440146D01*
X484566Y440100D01*
X484518Y440057D01*
X484469Y440017D01*
X484416Y439980D01*
X484362Y439946D01*
X484306Y439915D01*
X484248Y439888D01*
X484189Y439864D01*
X484128Y439845D01*
X484066Y439828D01*
X484003Y439816D01*
X483940Y439807D01*
X483876Y439802D01*
X483812Y439801D01*
X483648Y439805D01*
X483484Y439813D01*
X483320Y439825D01*
X483157Y439841D01*
X482994Y439861D01*
X482831Y439884D01*
X482670Y439912D01*
X482508Y439943D01*
X482348Y439978D01*
X482189Y440017D01*
X482030Y440060D01*
X481873Y440106D01*
X481716Y440156D01*
X481561Y440210D01*
X487831Y439801D02*
X487831Y444712D01*
X487627Y446758D02*
X487627Y447167D01*
X488036Y447167D01*
X488036Y446758D01*
X487627Y446758D01*
X492014Y439801D02*
X494060Y439801D01*
X492014Y439801D02*
X491945Y439803D01*
X491877Y439809D01*
X491808Y439818D01*
X491741Y439832D01*
X491674Y439849D01*
X491608Y439870D01*
X491544Y439894D01*
X491481Y439923D01*
X491420Y439954D01*
X491361Y439989D01*
X491303Y440027D01*
X491248Y440069D01*
X491196Y440113D01*
X491146Y440161D01*
X491098Y440211D01*
X491054Y440263D01*
X491012Y440318D01*
X490974Y440376D01*
X490939Y440435D01*
X490908Y440496D01*
X490879Y440559D01*
X490855Y440623D01*
X490834Y440689D01*
X490817Y440756D01*
X490803Y440823D01*
X490794Y440892D01*
X490788Y440960D01*
X490786Y441029D01*
X490786Y443484D01*
X490788Y443553D01*
X490794Y443621D01*
X490803Y443690D01*
X490817Y443757D01*
X490834Y443824D01*
X490855Y443890D01*
X490879Y443954D01*
X490908Y444017D01*
X490939Y444078D01*
X490974Y444137D01*
X491012Y444195D01*
X491054Y444250D01*
X491098Y444302D01*
X491146Y444352D01*
X491196Y444400D01*
X491248Y444444D01*
X491303Y444486D01*
X491361Y444524D01*
X491420Y444559D01*
X491481Y444590D01*
X491544Y444619D01*
X491608Y444643D01*
X491674Y444664D01*
X491741Y444681D01*
X491808Y444695D01*
X491877Y444704D01*
X491945Y444710D01*
X492014Y444712D01*
X494060Y444712D01*
X494060Y438573D01*
X494058Y438504D01*
X494052Y438436D01*
X494043Y438367D01*
X494029Y438300D01*
X494012Y438233D01*
X493991Y438167D01*
X493967Y438103D01*
X493938Y438040D01*
X493907Y437979D01*
X493872Y437920D01*
X493834Y437862D01*
X493792Y437807D01*
X493748Y437755D01*
X493700Y437705D01*
X493650Y437657D01*
X493598Y437613D01*
X493543Y437572D01*
X493485Y437533D01*
X493426Y437498D01*
X493365Y437467D01*
X493302Y437438D01*
X493238Y437414D01*
X493172Y437393D01*
X493105Y437376D01*
X493038Y437362D01*
X492970Y437353D01*
X492901Y437347D01*
X492832Y437345D01*
X492832Y437346D02*
X491196Y437346D01*
X497655Y439801D02*
X497655Y444712D01*
X499701Y444712D01*
X499770Y444710D01*
X499838Y444704D01*
X499907Y444695D01*
X499974Y444681D01*
X500041Y444664D01*
X500107Y444643D01*
X500171Y444619D01*
X500234Y444590D01*
X500295Y444559D01*
X500354Y444524D01*
X500412Y444486D01*
X500467Y444444D01*
X500519Y444400D01*
X500569Y444352D01*
X500617Y444302D01*
X500661Y444250D01*
X500703Y444195D01*
X500741Y444137D01*
X500776Y444078D01*
X500807Y444017D01*
X500836Y443954D01*
X500860Y443890D01*
X500881Y443824D01*
X500898Y443757D01*
X500912Y443690D01*
X500921Y443621D01*
X500927Y443553D01*
X500929Y443484D01*
X500928Y443484D02*
X500928Y439801D01*
X505466Y439801D02*
X507512Y439801D01*
X505466Y439801D02*
X505397Y439803D01*
X505329Y439809D01*
X505260Y439818D01*
X505193Y439832D01*
X505126Y439849D01*
X505060Y439870D01*
X504996Y439894D01*
X504933Y439923D01*
X504872Y439954D01*
X504813Y439989D01*
X504755Y440027D01*
X504700Y440069D01*
X504648Y440113D01*
X504598Y440161D01*
X504550Y440211D01*
X504506Y440263D01*
X504464Y440318D01*
X504426Y440376D01*
X504391Y440435D01*
X504360Y440496D01*
X504331Y440559D01*
X504307Y440623D01*
X504286Y440689D01*
X504269Y440756D01*
X504255Y440823D01*
X504246Y440892D01*
X504240Y440960D01*
X504238Y441029D01*
X504238Y443075D01*
X504240Y443154D01*
X504246Y443233D01*
X504255Y443312D01*
X504268Y443390D01*
X504286Y443467D01*
X504306Y443543D01*
X504331Y443618D01*
X504359Y443692D01*
X504390Y443765D01*
X504426Y443836D01*
X504464Y443905D01*
X504506Y443972D01*
X504551Y444037D01*
X504599Y444100D01*
X504650Y444161D01*
X504704Y444218D01*
X504760Y444274D01*
X504819Y444326D01*
X504881Y444376D01*
X504945Y444422D01*
X505011Y444466D01*
X505079Y444506D01*
X505149Y444542D01*
X505221Y444576D01*
X505295Y444606D01*
X505369Y444632D01*
X505445Y444655D01*
X505522Y444673D01*
X505599Y444689D01*
X505678Y444700D01*
X505756Y444708D01*
X505835Y444712D01*
X505915Y444712D01*
X505994Y444708D01*
X506072Y444700D01*
X506151Y444689D01*
X506228Y444673D01*
X506305Y444655D01*
X506381Y444632D01*
X506455Y444606D01*
X506529Y444576D01*
X506601Y444542D01*
X506671Y444506D01*
X506739Y444466D01*
X506805Y444422D01*
X506869Y444376D01*
X506931Y444326D01*
X506990Y444274D01*
X507046Y444218D01*
X507100Y444161D01*
X507151Y444100D01*
X507199Y444037D01*
X507244Y443972D01*
X507286Y443905D01*
X507324Y443836D01*
X507360Y443765D01*
X507391Y443692D01*
X507419Y443618D01*
X507444Y443543D01*
X507464Y443467D01*
X507482Y443390D01*
X507495Y443312D01*
X507504Y443233D01*
X507510Y443154D01*
X507512Y443075D01*
X507512Y442256D01*
X504238Y442256D01*
X513811Y439801D02*
X513811Y447167D01*
X513811Y439801D02*
X511765Y439801D01*
X511696Y439803D01*
X511628Y439809D01*
X511559Y439818D01*
X511492Y439832D01*
X511425Y439849D01*
X511359Y439870D01*
X511295Y439894D01*
X511232Y439923D01*
X511171Y439954D01*
X511112Y439989D01*
X511054Y440027D01*
X510999Y440069D01*
X510947Y440113D01*
X510897Y440161D01*
X510849Y440211D01*
X510805Y440263D01*
X510763Y440318D01*
X510725Y440376D01*
X510690Y440435D01*
X510659Y440496D01*
X510630Y440559D01*
X510606Y440623D01*
X510585Y440689D01*
X510568Y440756D01*
X510554Y440823D01*
X510545Y440892D01*
X510539Y440960D01*
X510537Y441029D01*
X510537Y443484D01*
X510539Y443553D01*
X510545Y443621D01*
X510554Y443690D01*
X510568Y443757D01*
X510585Y443824D01*
X510606Y443890D01*
X510630Y443954D01*
X510659Y444017D01*
X510690Y444078D01*
X510725Y444137D01*
X510763Y444195D01*
X510805Y444250D01*
X510849Y444302D01*
X510897Y444352D01*
X510947Y444400D01*
X510999Y444444D01*
X511054Y444486D01*
X511112Y444524D01*
X511171Y444559D01*
X511232Y444590D01*
X511295Y444619D01*
X511359Y444643D01*
X511425Y444664D01*
X511492Y444681D01*
X511559Y444695D01*
X511628Y444704D01*
X511696Y444710D01*
X511765Y444712D01*
X513811Y444712D01*
X521348Y447167D02*
X521348Y439801D01*
X523394Y439801D01*
X523463Y439803D01*
X523531Y439809D01*
X523600Y439818D01*
X523667Y439832D01*
X523734Y439849D01*
X523800Y439870D01*
X523864Y439894D01*
X523927Y439923D01*
X523988Y439954D01*
X524047Y439989D01*
X524105Y440027D01*
X524160Y440069D01*
X524212Y440113D01*
X524262Y440161D01*
X524310Y440211D01*
X524354Y440263D01*
X524396Y440318D01*
X524434Y440376D01*
X524469Y440435D01*
X524500Y440496D01*
X524529Y440559D01*
X524553Y440623D01*
X524574Y440689D01*
X524591Y440756D01*
X524605Y440823D01*
X524614Y440892D01*
X524620Y440960D01*
X524622Y441029D01*
X524622Y443484D01*
X524620Y443553D01*
X524614Y443621D01*
X524605Y443690D01*
X524591Y443757D01*
X524574Y443824D01*
X524553Y443890D01*
X524529Y443954D01*
X524500Y444017D01*
X524469Y444078D01*
X524434Y444137D01*
X524396Y444195D01*
X524354Y444250D01*
X524310Y444302D01*
X524262Y444352D01*
X524212Y444400D01*
X524160Y444444D01*
X524105Y444486D01*
X524047Y444524D01*
X523988Y444559D01*
X523927Y444590D01*
X523864Y444619D01*
X523800Y444643D01*
X523734Y444664D01*
X523667Y444681D01*
X523600Y444695D01*
X523531Y444704D01*
X523463Y444710D01*
X523394Y444712D01*
X521348Y444712D01*
X527403Y437346D02*
X528222Y437346D01*
X530677Y444712D01*
X527403Y444712D02*
X529040Y439801D01*
X533468Y440415D02*
X533468Y440824D01*
X533878Y440824D01*
X533878Y440415D01*
X533468Y440415D01*
X533468Y443689D02*
X533468Y444098D01*
X533878Y444098D01*
X533878Y443689D01*
X533468Y443689D01*
X542451Y447167D02*
X542451Y439801D01*
X540405Y447167D02*
X544497Y447167D01*
X548545Y442666D02*
X550387Y442666D01*
X548545Y442665D02*
X548470Y442663D01*
X548395Y442657D01*
X548321Y442647D01*
X548247Y442634D01*
X548174Y442616D01*
X548102Y442595D01*
X548032Y442570D01*
X547963Y442541D01*
X547895Y442509D01*
X547829Y442473D01*
X547765Y442434D01*
X547703Y442392D01*
X547644Y442346D01*
X547587Y442297D01*
X547532Y442246D01*
X547481Y442191D01*
X547432Y442134D01*
X547386Y442075D01*
X547344Y442013D01*
X547305Y441949D01*
X547269Y441883D01*
X547237Y441815D01*
X547208Y441746D01*
X547183Y441676D01*
X547162Y441604D01*
X547144Y441531D01*
X547131Y441457D01*
X547121Y441383D01*
X547115Y441308D01*
X547113Y441233D01*
X547115Y441158D01*
X547121Y441083D01*
X547131Y441009D01*
X547144Y440935D01*
X547162Y440862D01*
X547183Y440790D01*
X547208Y440720D01*
X547237Y440651D01*
X547269Y440583D01*
X547305Y440517D01*
X547344Y440453D01*
X547386Y440391D01*
X547432Y440332D01*
X547481Y440275D01*
X547532Y440220D01*
X547587Y440169D01*
X547644Y440120D01*
X547703Y440074D01*
X547765Y440032D01*
X547829Y439993D01*
X547895Y439957D01*
X547963Y439925D01*
X548032Y439896D01*
X548102Y439871D01*
X548174Y439850D01*
X548247Y439832D01*
X548321Y439819D01*
X548395Y439809D01*
X548470Y439803D01*
X548545Y439801D01*
X550387Y439801D01*
X550387Y443484D01*
X550385Y443553D01*
X550379Y443621D01*
X550370Y443690D01*
X550356Y443757D01*
X550339Y443824D01*
X550318Y443890D01*
X550294Y443954D01*
X550265Y444017D01*
X550234Y444078D01*
X550199Y444137D01*
X550161Y444195D01*
X550119Y444250D01*
X550075Y444302D01*
X550027Y444352D01*
X549977Y444400D01*
X549925Y444444D01*
X549870Y444486D01*
X549812Y444524D01*
X549753Y444559D01*
X549692Y444590D01*
X549629Y444619D01*
X549565Y444643D01*
X549499Y444664D01*
X549432Y444681D01*
X549365Y444695D01*
X549296Y444704D01*
X549228Y444710D01*
X549159Y444712D01*
X547522Y444712D01*
X554028Y444712D02*
X554028Y439801D01*
X554028Y444712D02*
X556483Y444712D01*
X556483Y443893D01*
X558788Y444712D02*
X558788Y439801D01*
X558584Y446758D02*
X558584Y447167D01*
X558993Y447167D01*
X558993Y446758D01*
X558584Y446758D01*
X565017Y444712D02*
X565017Y437346D01*
X565017Y444712D02*
X562971Y444712D01*
X562902Y444710D01*
X562834Y444704D01*
X562765Y444695D01*
X562698Y444681D01*
X562631Y444664D01*
X562565Y444643D01*
X562501Y444619D01*
X562438Y444590D01*
X562377Y444559D01*
X562318Y444524D01*
X562260Y444486D01*
X562205Y444444D01*
X562153Y444400D01*
X562103Y444352D01*
X562055Y444302D01*
X562011Y444250D01*
X561970Y444195D01*
X561931Y444137D01*
X561896Y444078D01*
X561865Y444017D01*
X561836Y443954D01*
X561812Y443890D01*
X561791Y443824D01*
X561774Y443757D01*
X561760Y443690D01*
X561751Y443622D01*
X561745Y443553D01*
X561743Y443484D01*
X561743Y441029D01*
X561745Y440960D01*
X561751Y440892D01*
X561760Y440823D01*
X561774Y440756D01*
X561791Y440689D01*
X561812Y440623D01*
X561836Y440559D01*
X561865Y440496D01*
X561896Y440435D01*
X561931Y440376D01*
X561969Y440318D01*
X562011Y440263D01*
X562055Y440211D01*
X562103Y440161D01*
X562153Y440113D01*
X562205Y440069D01*
X562260Y440027D01*
X562318Y439989D01*
X562377Y439954D01*
X562438Y439923D01*
X562501Y439894D01*
X562565Y439870D01*
X562631Y439849D01*
X562698Y439832D01*
X562765Y439818D01*
X562834Y439809D01*
X562902Y439803D01*
X562971Y439801D01*
X565017Y439801D01*
X572670Y439801D02*
X572670Y447167D01*
X575126Y443075D01*
X577581Y447167D01*
X577581Y439801D01*
X581292Y441029D02*
X581292Y444712D01*
X581291Y441029D02*
X581293Y440960D01*
X581299Y440892D01*
X581308Y440823D01*
X581322Y440756D01*
X581339Y440689D01*
X581360Y440623D01*
X581384Y440559D01*
X581413Y440496D01*
X581444Y440435D01*
X581479Y440376D01*
X581517Y440318D01*
X581559Y440263D01*
X581603Y440211D01*
X581651Y440161D01*
X581701Y440113D01*
X581753Y440069D01*
X581808Y440027D01*
X581866Y439989D01*
X581925Y439954D01*
X581986Y439923D01*
X582049Y439894D01*
X582113Y439870D01*
X582179Y439849D01*
X582246Y439832D01*
X582313Y439818D01*
X582382Y439809D01*
X582450Y439803D01*
X582519Y439801D01*
X584565Y439801D01*
X584565Y444712D01*
X588119Y447167D02*
X588119Y439801D01*
X588119Y444712D02*
X590165Y444712D01*
X590234Y444710D01*
X590302Y444704D01*
X590371Y444695D01*
X590438Y444681D01*
X590505Y444664D01*
X590571Y444643D01*
X590635Y444619D01*
X590698Y444590D01*
X590759Y444559D01*
X590818Y444524D01*
X590876Y444486D01*
X590931Y444444D01*
X590983Y444400D01*
X591033Y444352D01*
X591081Y444302D01*
X591125Y444250D01*
X591167Y444195D01*
X591205Y444137D01*
X591240Y444078D01*
X591271Y444017D01*
X591300Y443954D01*
X591324Y443890D01*
X591345Y443824D01*
X591362Y443757D01*
X591376Y443690D01*
X591385Y443621D01*
X591391Y443553D01*
X591393Y443484D01*
X591393Y439801D01*
X596094Y442666D02*
X597935Y442666D01*
X596094Y442665D02*
X596019Y442663D01*
X595944Y442657D01*
X595870Y442647D01*
X595796Y442634D01*
X595723Y442616D01*
X595651Y442595D01*
X595581Y442570D01*
X595512Y442541D01*
X595444Y442509D01*
X595378Y442473D01*
X595314Y442434D01*
X595252Y442392D01*
X595193Y442346D01*
X595136Y442297D01*
X595081Y442246D01*
X595030Y442191D01*
X594981Y442134D01*
X594935Y442075D01*
X594893Y442013D01*
X594854Y441949D01*
X594818Y441883D01*
X594786Y441815D01*
X594757Y441746D01*
X594732Y441676D01*
X594711Y441604D01*
X594693Y441531D01*
X594680Y441457D01*
X594670Y441383D01*
X594664Y441308D01*
X594662Y441233D01*
X594664Y441158D01*
X594670Y441083D01*
X594680Y441009D01*
X594693Y440935D01*
X594711Y440862D01*
X594732Y440790D01*
X594757Y440720D01*
X594786Y440651D01*
X594818Y440583D01*
X594854Y440517D01*
X594893Y440453D01*
X594935Y440391D01*
X594981Y440332D01*
X595030Y440275D01*
X595081Y440220D01*
X595136Y440169D01*
X595193Y440120D01*
X595252Y440074D01*
X595314Y440032D01*
X595378Y439993D01*
X595444Y439957D01*
X595512Y439925D01*
X595581Y439896D01*
X595651Y439871D01*
X595723Y439850D01*
X595796Y439832D01*
X595870Y439819D01*
X595944Y439809D01*
X596019Y439803D01*
X596094Y439801D01*
X597935Y439801D01*
X597935Y443484D01*
X597936Y443484D02*
X597934Y443553D01*
X597928Y443621D01*
X597919Y443690D01*
X597905Y443757D01*
X597888Y443824D01*
X597867Y443890D01*
X597843Y443954D01*
X597814Y444017D01*
X597783Y444078D01*
X597748Y444137D01*
X597710Y444195D01*
X597668Y444250D01*
X597624Y444302D01*
X597576Y444352D01*
X597526Y444400D01*
X597474Y444444D01*
X597419Y444486D01*
X597361Y444524D01*
X597302Y444559D01*
X597241Y444590D01*
X597178Y444619D01*
X597114Y444643D01*
X597048Y444664D01*
X596981Y444681D01*
X596914Y444695D01*
X596845Y444704D01*
X596777Y444710D01*
X596708Y444712D01*
X595071Y444712D01*
X601530Y444712D02*
X601530Y439801D01*
X601530Y444712D02*
X603576Y444712D01*
X603645Y444710D01*
X603713Y444704D01*
X603782Y444695D01*
X603849Y444681D01*
X603916Y444664D01*
X603982Y444643D01*
X604046Y444619D01*
X604109Y444590D01*
X604170Y444559D01*
X604229Y444524D01*
X604287Y444486D01*
X604342Y444444D01*
X604394Y444400D01*
X604444Y444352D01*
X604492Y444302D01*
X604536Y444250D01*
X604578Y444195D01*
X604616Y444137D01*
X604651Y444078D01*
X604682Y444017D01*
X604711Y443954D01*
X604735Y443890D01*
X604756Y443824D01*
X604773Y443757D01*
X604787Y443690D01*
X604796Y443621D01*
X604802Y443553D01*
X604804Y443484D01*
X604804Y439801D01*
X608358Y439801D02*
X608358Y444712D01*
X610404Y444712D01*
X610473Y444710D01*
X610541Y444704D01*
X610610Y444695D01*
X610677Y444681D01*
X610744Y444664D01*
X610810Y444643D01*
X610874Y444619D01*
X610937Y444590D01*
X610998Y444559D01*
X611057Y444524D01*
X611115Y444486D01*
X611170Y444444D01*
X611222Y444400D01*
X611272Y444352D01*
X611320Y444302D01*
X611364Y444250D01*
X611406Y444195D01*
X611444Y444137D01*
X611479Y444078D01*
X611510Y444017D01*
X611539Y443954D01*
X611563Y443890D01*
X611584Y443824D01*
X611601Y443757D01*
X611615Y443690D01*
X611624Y443621D01*
X611630Y443553D01*
X611632Y443484D01*
X611631Y443484D02*
X611631Y439801D01*
X616333Y442666D02*
X618174Y442666D01*
X616333Y442665D02*
X616258Y442663D01*
X616183Y442657D01*
X616109Y442647D01*
X616035Y442634D01*
X615962Y442616D01*
X615890Y442595D01*
X615820Y442570D01*
X615751Y442541D01*
X615683Y442509D01*
X615617Y442473D01*
X615553Y442434D01*
X615491Y442392D01*
X615432Y442346D01*
X615375Y442297D01*
X615320Y442246D01*
X615269Y442191D01*
X615220Y442134D01*
X615174Y442075D01*
X615132Y442013D01*
X615093Y441949D01*
X615057Y441883D01*
X615025Y441815D01*
X614996Y441746D01*
X614971Y441676D01*
X614950Y441604D01*
X614932Y441531D01*
X614919Y441457D01*
X614909Y441383D01*
X614903Y441308D01*
X614901Y441233D01*
X614903Y441158D01*
X614909Y441083D01*
X614919Y441009D01*
X614932Y440935D01*
X614950Y440862D01*
X614971Y440790D01*
X614996Y440720D01*
X615025Y440651D01*
X615057Y440583D01*
X615093Y440517D01*
X615132Y440453D01*
X615174Y440391D01*
X615220Y440332D01*
X615269Y440275D01*
X615320Y440220D01*
X615375Y440169D01*
X615432Y440120D01*
X615491Y440074D01*
X615553Y440032D01*
X615617Y439993D01*
X615683Y439957D01*
X615751Y439925D01*
X615820Y439896D01*
X615890Y439871D01*
X615962Y439850D01*
X616035Y439832D01*
X616109Y439819D01*
X616183Y439809D01*
X616258Y439803D01*
X616333Y439801D01*
X618174Y439801D01*
X618174Y443484D01*
X618172Y443553D01*
X618166Y443621D01*
X618157Y443690D01*
X618143Y443757D01*
X618126Y443824D01*
X618105Y443890D01*
X618081Y443954D01*
X618052Y444017D01*
X618021Y444078D01*
X617986Y444137D01*
X617948Y444195D01*
X617906Y444250D01*
X617862Y444302D01*
X617814Y444352D01*
X617764Y444400D01*
X617712Y444444D01*
X617657Y444486D01*
X617599Y444524D01*
X617540Y444559D01*
X617479Y444590D01*
X617416Y444619D01*
X617352Y444643D01*
X617286Y444664D01*
X617219Y444681D01*
X617152Y444695D01*
X617083Y444704D01*
X617015Y444710D01*
X616946Y444712D01*
X615310Y444712D01*
D12*
X188150Y337982D02*
X185710Y338870D01*
X185710Y338871D02*
X185617Y338906D01*
X185526Y338946D01*
X185436Y338988D01*
X185348Y339035D01*
X185262Y339084D01*
X185178Y339137D01*
X185095Y339193D01*
X185015Y339252D01*
X184938Y339314D01*
X184863Y339379D01*
X184790Y339447D01*
X184720Y339518D01*
X184653Y339591D01*
X184588Y339667D01*
X184527Y339745D01*
X184468Y339826D01*
X184413Y339908D01*
X184361Y339993D01*
X184312Y340080D01*
X184267Y340168D01*
X184225Y340258D01*
X184186Y340350D01*
X184151Y340443D01*
X184120Y340537D01*
X184092Y340633D01*
X184068Y340729D01*
X184047Y340827D01*
X184031Y340925D01*
X184018Y341023D01*
X184009Y341122D01*
X184004Y341222D01*
X184002Y341321D01*
X184004Y341421D01*
X184010Y341520D01*
X184020Y341619D01*
X184034Y341717D01*
X184052Y341815D01*
X184073Y341912D01*
X184098Y342009D01*
X184126Y342104D01*
X184159Y342198D01*
X184158Y342198D02*
X186378Y348298D01*
X186379Y348298D02*
X186414Y348391D01*
X186454Y348482D01*
X186496Y348572D01*
X186543Y348660D01*
X186592Y348746D01*
X186645Y348830D01*
X186701Y348913D01*
X186760Y348993D01*
X186822Y349070D01*
X186887Y349145D01*
X186955Y349218D01*
X187026Y349288D01*
X187099Y349355D01*
X187175Y349420D01*
X187253Y349481D01*
X187334Y349540D01*
X187416Y349595D01*
X187501Y349647D01*
X187588Y349696D01*
X187676Y349741D01*
X187766Y349783D01*
X187858Y349822D01*
X187951Y349857D01*
X188045Y349888D01*
X188141Y349916D01*
X188237Y349940D01*
X188335Y349961D01*
X188433Y349977D01*
X188531Y349990D01*
X188630Y349999D01*
X188730Y350004D01*
X188829Y350006D01*
X188928Y350004D01*
X189028Y349998D01*
X189127Y349988D01*
X189225Y349974D01*
X189323Y349956D01*
X189420Y349935D01*
X189517Y349910D01*
X189612Y349882D01*
X189706Y349849D01*
X189706Y349850D02*
X192146Y348962D01*
X195360Y345029D02*
X199298Y346359D01*
X195302Y335379D01*
X192252Y336489D02*
X198352Y334269D01*
D15*
X35639Y39531D02*
X34983Y37727D01*
X34982Y37728D02*
X34951Y37647D01*
X34916Y37569D01*
X34878Y37492D01*
X34836Y37416D01*
X34791Y37343D01*
X34743Y37272D01*
X34691Y37203D01*
X34637Y37136D01*
X34579Y37072D01*
X34519Y37010D01*
X34456Y36952D01*
X34390Y36896D01*
X34322Y36843D01*
X34252Y36793D01*
X34180Y36747D01*
X34105Y36703D01*
X34029Y36663D01*
X33951Y36627D01*
X33871Y36594D01*
X33790Y36565D01*
X33708Y36539D01*
X33625Y36517D01*
X33540Y36499D01*
X33456Y36485D01*
X33370Y36475D01*
X33284Y36468D01*
X33198Y36465D01*
X33112Y36466D01*
X33026Y36471D01*
X32940Y36480D01*
X32855Y36493D01*
X32771Y36509D01*
X32687Y36529D01*
X32604Y36553D01*
X32523Y36581D01*
X32523Y36580D02*
X28014Y38221D01*
X28015Y38221D02*
X27934Y38252D01*
X27856Y38287D01*
X27779Y38325D01*
X27703Y38367D01*
X27630Y38412D01*
X27559Y38460D01*
X27490Y38512D01*
X27423Y38566D01*
X27359Y38624D01*
X27297Y38684D01*
X27239Y38747D01*
X27183Y38813D01*
X27130Y38881D01*
X27080Y38951D01*
X27034Y39023D01*
X26990Y39098D01*
X26950Y39174D01*
X26914Y39252D01*
X26881Y39332D01*
X26852Y39413D01*
X26826Y39495D01*
X26804Y39578D01*
X26786Y39663D01*
X26772Y39747D01*
X26762Y39833D01*
X26755Y39919D01*
X26752Y40005D01*
X26753Y40091D01*
X26758Y40177D01*
X26767Y40263D01*
X26780Y40348D01*
X26796Y40432D01*
X26816Y40516D01*
X26840Y40599D01*
X26868Y40680D01*
X26867Y40681D02*
X27524Y42484D01*
X30634Y45417D02*
X29651Y48328D01*
X37766Y45374D01*
X36945Y43120D02*
X38586Y47628D01*
X36015Y53189D02*
X35856Y53249D01*
X35698Y53313D01*
X35543Y53381D01*
X35388Y53452D01*
X35236Y53527D01*
X35085Y53605D01*
X34936Y53687D01*
X34790Y53773D01*
X34645Y53862D01*
X34502Y53954D01*
X34362Y54050D01*
X34224Y54150D01*
X34089Y54252D01*
X33956Y54358D01*
X33825Y54467D01*
X33697Y54579D01*
X33572Y54693D01*
X33450Y54811D01*
X33330Y54932D01*
X33331Y54932D02*
X33269Y54985D01*
X33209Y55040D01*
X33152Y55098D01*
X33097Y55159D01*
X33046Y55222D01*
X32997Y55288D01*
X32951Y55355D01*
X32909Y55425D01*
X32870Y55497D01*
X32834Y55570D01*
X32802Y55645D01*
X32773Y55721D01*
X32747Y55798D01*
X32725Y55877D01*
X32707Y55956D01*
X32693Y56037D01*
X32682Y56117D01*
X32675Y56199D01*
X32671Y56280D01*
X32672Y56362D01*
X32676Y56443D01*
X32684Y56524D01*
X32695Y56605D01*
X32710Y56685D01*
X32729Y56764D01*
X32752Y56843D01*
X32778Y56920D01*
X32808Y56996D01*
X32841Y57071D01*
X32877Y57143D01*
X32917Y57215D01*
X32960Y57284D01*
X33006Y57351D01*
X33055Y57416D01*
X33108Y57479D01*
X33163Y57539D01*
X33220Y57597D01*
X33280Y57652D01*
X33343Y57704D01*
X33408Y57753D01*
X33475Y57799D01*
X33545Y57842D01*
X33616Y57882D01*
X33689Y57918D01*
X33763Y57952D01*
X33839Y57981D01*
X33917Y58007D01*
X33995Y58030D01*
X34074Y58049D01*
X34154Y58064D01*
X34235Y58075D01*
X34316Y58083D01*
X34398Y58087D01*
X34479Y58088D01*
X34649Y58104D01*
X34818Y58116D01*
X34988Y58123D01*
X35158Y58127D01*
X35328Y58126D01*
X35497Y58122D01*
X35667Y58113D01*
X35837Y58100D01*
X36006Y58084D01*
X36174Y58063D01*
X36342Y58038D01*
X36510Y58010D01*
X36677Y57977D01*
X36842Y57940D01*
X37007Y57899D01*
X37171Y57855D01*
X37334Y57806D01*
X37496Y57754D01*
X37656Y57698D01*
X36015Y53189D02*
X36175Y53133D01*
X36337Y53081D01*
X36500Y53032D01*
X36664Y52988D01*
X36829Y52947D01*
X36994Y52910D01*
X37161Y52877D01*
X37329Y52849D01*
X37497Y52824D01*
X37665Y52803D01*
X37834Y52787D01*
X38004Y52774D01*
X38174Y52765D01*
X38343Y52761D01*
X38513Y52760D01*
X38683Y52764D01*
X38853Y52771D01*
X39022Y52783D01*
X39192Y52799D01*
X39273Y52800D01*
X39355Y52804D01*
X39436Y52812D01*
X39517Y52823D01*
X39597Y52838D01*
X39676Y52857D01*
X39754Y52880D01*
X39832Y52906D01*
X39908Y52936D01*
X39982Y52969D01*
X40055Y53005D01*
X40126Y53045D01*
X40196Y53088D01*
X40263Y53134D01*
X40328Y53183D01*
X40391Y53235D01*
X40451Y53290D01*
X40508Y53348D01*
X40563Y53408D01*
X40616Y53471D01*
X40665Y53536D01*
X40711Y53603D01*
X40754Y53672D01*
X40794Y53744D01*
X40830Y53816D01*
X40863Y53891D01*
X40893Y53967D01*
X40341Y55955D02*
X40222Y56076D01*
X40099Y56194D01*
X39974Y56309D01*
X39846Y56421D01*
X39716Y56529D01*
X39583Y56635D01*
X39447Y56738D01*
X39309Y56837D01*
X39169Y56933D01*
X39027Y57025D01*
X38882Y57114D01*
X38735Y57200D01*
X38586Y57282D01*
X38436Y57361D01*
X38283Y57435D01*
X38129Y57507D01*
X37973Y57574D01*
X37816Y57638D01*
X37657Y57698D01*
X40340Y55955D02*
X40403Y55902D01*
X40462Y55847D01*
X40519Y55789D01*
X40574Y55728D01*
X40625Y55665D01*
X40674Y55599D01*
X40720Y55532D01*
X40762Y55462D01*
X40801Y55390D01*
X40837Y55317D01*
X40869Y55242D01*
X40898Y55166D01*
X40924Y55089D01*
X40946Y55010D01*
X40964Y54931D01*
X40978Y54850D01*
X40989Y54770D01*
X40996Y54688D01*
X41000Y54607D01*
X40999Y54525D01*
X40995Y54444D01*
X40987Y54363D01*
X40976Y54282D01*
X40961Y54202D01*
X40942Y54123D01*
X40919Y54044D01*
X40893Y53967D01*
X38434Y52820D02*
X35238Y58067D01*
X358833Y627007D02*
X359489Y628811D01*
X358832Y627008D02*
X358801Y626927D01*
X358766Y626849D01*
X358728Y626772D01*
X358686Y626696D01*
X358641Y626623D01*
X358593Y626552D01*
X358541Y626483D01*
X358487Y626416D01*
X358429Y626352D01*
X358369Y626290D01*
X358306Y626232D01*
X358240Y626176D01*
X358172Y626123D01*
X358102Y626073D01*
X358030Y626027D01*
X357955Y625983D01*
X357879Y625943D01*
X357801Y625907D01*
X357721Y625874D01*
X357640Y625845D01*
X357558Y625819D01*
X357475Y625797D01*
X357390Y625779D01*
X357306Y625765D01*
X357220Y625755D01*
X357134Y625748D01*
X357048Y625745D01*
X356962Y625746D01*
X356876Y625751D01*
X356790Y625760D01*
X356705Y625773D01*
X356621Y625789D01*
X356537Y625809D01*
X356454Y625833D01*
X356373Y625861D01*
X356373Y625860D02*
X351864Y627501D01*
X351865Y627501D02*
X351784Y627532D01*
X351706Y627567D01*
X351629Y627605D01*
X351553Y627647D01*
X351480Y627692D01*
X351409Y627740D01*
X351340Y627792D01*
X351273Y627846D01*
X351209Y627904D01*
X351147Y627964D01*
X351089Y628027D01*
X351033Y628093D01*
X350980Y628161D01*
X350930Y628231D01*
X350884Y628303D01*
X350840Y628378D01*
X350800Y628454D01*
X350764Y628532D01*
X350731Y628612D01*
X350702Y628693D01*
X350676Y628775D01*
X350654Y628858D01*
X350636Y628943D01*
X350622Y629027D01*
X350612Y629113D01*
X350605Y629199D01*
X350602Y629285D01*
X350603Y629371D01*
X350608Y629457D01*
X350617Y629543D01*
X350630Y629628D01*
X350646Y629712D01*
X350666Y629796D01*
X350690Y629879D01*
X350718Y629960D01*
X350717Y629961D02*
X351374Y631764D01*
X353583Y637833D02*
X353616Y637919D01*
X353653Y638003D01*
X353693Y638085D01*
X353737Y638166D01*
X353784Y638244D01*
X353835Y638321D01*
X353888Y638395D01*
X353945Y638467D01*
X354005Y638537D01*
X354067Y638604D01*
X354133Y638668D01*
X354201Y638729D01*
X354272Y638788D01*
X354345Y638843D01*
X354420Y638895D01*
X354497Y638944D01*
X354577Y638990D01*
X354658Y639032D01*
X354741Y639071D01*
X354826Y639106D01*
X354912Y639137D01*
X354999Y639165D01*
X355088Y639189D01*
X355177Y639210D01*
X355267Y639226D01*
X355358Y639239D01*
X355449Y639248D01*
X355541Y639253D01*
X355632Y639254D01*
X355724Y639251D01*
X355815Y639244D01*
X355906Y639234D01*
X355997Y639219D01*
X356087Y639201D01*
X356176Y639179D01*
X356264Y639153D01*
X356350Y639124D01*
X353582Y637834D02*
X353549Y637737D01*
X353519Y637639D01*
X353493Y637539D01*
X353471Y637439D01*
X353452Y637338D01*
X353437Y637237D01*
X353426Y637135D01*
X353419Y637032D01*
X353415Y636930D01*
X353416Y636827D01*
X353420Y636725D01*
X353427Y636622D01*
X353439Y636520D01*
X353454Y636419D01*
X353474Y636318D01*
X353496Y636218D01*
X353523Y636119D01*
X353553Y636021D01*
X353587Y635924D01*
X353624Y635829D01*
X353665Y635734D01*
X353709Y635642D01*
X353757Y635551D01*
X353808Y635462D01*
X353862Y635375D01*
X353919Y635290D01*
X353980Y635207D01*
X354044Y635127D01*
X354110Y635048D01*
X354179Y634973D01*
X354251Y634900D01*
X354326Y634829D01*
X354404Y634762D01*
X354483Y634697D01*
X357682Y637873D02*
X357643Y637958D01*
X357600Y638041D01*
X357554Y638123D01*
X357504Y638203D01*
X357452Y638281D01*
X357396Y638356D01*
X357338Y638430D01*
X357276Y638501D01*
X357212Y638569D01*
X357144Y638635D01*
X357075Y638697D01*
X357002Y638757D01*
X356928Y638814D01*
X356851Y638868D01*
X356772Y638919D01*
X356691Y638967D01*
X356608Y639011D01*
X356524Y639052D01*
X356438Y639089D01*
X356350Y639123D01*
X357682Y637873D02*
X360795Y632400D01*
X362436Y636908D01*
X407749Y611031D02*
X407093Y609227D01*
X407092Y609228D02*
X407061Y609147D01*
X407026Y609069D01*
X406988Y608992D01*
X406946Y608916D01*
X406901Y608843D01*
X406853Y608772D01*
X406801Y608703D01*
X406747Y608636D01*
X406689Y608572D01*
X406629Y608510D01*
X406566Y608452D01*
X406500Y608396D01*
X406432Y608343D01*
X406362Y608293D01*
X406290Y608247D01*
X406215Y608203D01*
X406139Y608163D01*
X406061Y608127D01*
X405981Y608094D01*
X405900Y608065D01*
X405818Y608039D01*
X405735Y608017D01*
X405650Y607999D01*
X405566Y607985D01*
X405480Y607975D01*
X405394Y607968D01*
X405308Y607965D01*
X405222Y607966D01*
X405136Y607971D01*
X405050Y607980D01*
X404965Y607993D01*
X404881Y608009D01*
X404797Y608029D01*
X404714Y608053D01*
X404633Y608081D01*
X404633Y608080D02*
X400124Y609721D01*
X400125Y609721D02*
X400044Y609752D01*
X399966Y609787D01*
X399889Y609825D01*
X399813Y609867D01*
X399740Y609912D01*
X399669Y609960D01*
X399600Y610012D01*
X399533Y610066D01*
X399469Y610124D01*
X399407Y610184D01*
X399349Y610247D01*
X399293Y610313D01*
X399240Y610381D01*
X399190Y610451D01*
X399144Y610523D01*
X399100Y610598D01*
X399060Y610674D01*
X399024Y610752D01*
X398991Y610832D01*
X398962Y610913D01*
X398936Y610995D01*
X398914Y611078D01*
X398896Y611163D01*
X398882Y611247D01*
X398872Y611333D01*
X398865Y611419D01*
X398862Y611505D01*
X398863Y611591D01*
X398868Y611677D01*
X398877Y611763D01*
X398890Y611848D01*
X398906Y611932D01*
X398926Y612016D01*
X398950Y612099D01*
X398978Y612180D01*
X398977Y612181D02*
X399634Y613984D01*
X409055Y614620D02*
X409876Y616874D01*
X409876Y616875D02*
X409908Y616967D01*
X409936Y617061D01*
X409960Y617156D01*
X409980Y617252D01*
X409996Y617348D01*
X410008Y617445D01*
X410016Y617543D01*
X410020Y617641D01*
X410021Y617739D01*
X410017Y617836D01*
X410009Y617934D01*
X409997Y618031D01*
X409982Y618128D01*
X409962Y618224D01*
X409939Y618319D01*
X409911Y618413D01*
X409880Y618505D01*
X409845Y618597D01*
X409806Y618687D01*
X409764Y618775D01*
X409718Y618861D01*
X409669Y618946D01*
X409616Y619028D01*
X409560Y619109D01*
X409501Y619187D01*
X409439Y619262D01*
X409373Y619335D01*
X409305Y619405D01*
X409234Y619472D01*
X409160Y619536D01*
X409083Y619597D01*
X409005Y619655D01*
X408924Y619710D01*
X408840Y619762D01*
X408755Y619810D01*
X408668Y619854D01*
X408579Y619895D01*
X408488Y619932D01*
X408396Y619966D01*
X408303Y619995D01*
X408209Y620021D01*
X408113Y620043D01*
X408017Y620061D01*
X407920Y620075D01*
X407823Y620086D01*
X407725Y620092D01*
X407627Y620094D01*
X407530Y620092D01*
X407432Y620086D01*
X407335Y620077D01*
X407238Y620063D01*
X407141Y620045D01*
X407046Y620024D01*
X406951Y619998D01*
X406858Y619969D01*
X406766Y619936D01*
X406675Y619899D01*
X406586Y619859D01*
X406499Y619815D01*
X406413Y619767D01*
X406330Y619716D01*
X406248Y619662D01*
X406169Y619604D01*
X406093Y619543D01*
X406018Y619479D01*
X405947Y619412D01*
X405878Y619343D01*
X405813Y619270D01*
X405750Y619195D01*
X405690Y619117D01*
X405634Y619037D01*
X405581Y618955D01*
X405531Y618871D01*
X405485Y618785D01*
X405442Y618697D01*
X405403Y618607D01*
X405368Y618516D01*
X401925Y620279D02*
X400940Y617574D01*
X401925Y620278D02*
X401956Y620359D01*
X401991Y620437D01*
X402029Y620514D01*
X402071Y620590D01*
X402116Y620663D01*
X402164Y620734D01*
X402216Y620803D01*
X402270Y620870D01*
X402328Y620934D01*
X402388Y620996D01*
X402451Y621054D01*
X402517Y621110D01*
X402585Y621163D01*
X402655Y621213D01*
X402727Y621259D01*
X402802Y621303D01*
X402878Y621343D01*
X402956Y621379D01*
X403036Y621412D01*
X403117Y621441D01*
X403199Y621467D01*
X403282Y621489D01*
X403367Y621507D01*
X403451Y621521D01*
X403537Y621531D01*
X403623Y621538D01*
X403709Y621541D01*
X403795Y621540D01*
X403881Y621535D01*
X403967Y621526D01*
X404052Y621513D01*
X404136Y621497D01*
X404220Y621477D01*
X404303Y621453D01*
X404384Y621425D01*
X404465Y621394D01*
X404543Y621359D01*
X404620Y621321D01*
X404696Y621279D01*
X404769Y621234D01*
X404840Y621186D01*
X404909Y621134D01*
X404976Y621080D01*
X405040Y621022D01*
X405102Y620962D01*
X405160Y620899D01*
X405216Y620833D01*
X405269Y620765D01*
X405319Y620695D01*
X405365Y620623D01*
X405409Y620548D01*
X405449Y620472D01*
X405485Y620394D01*
X405518Y620314D01*
X405547Y620233D01*
X405573Y620151D01*
X405595Y620068D01*
X405613Y619983D01*
X405627Y619899D01*
X405637Y619813D01*
X405644Y619727D01*
X405647Y619641D01*
X405646Y619555D01*
X405641Y619469D01*
X405632Y619383D01*
X405619Y619298D01*
X405603Y619214D01*
X405583Y619130D01*
X405559Y619047D01*
X405531Y618966D01*
X405532Y618966D02*
X404875Y617163D01*
D12*
X180530Y317662D02*
X178090Y318550D01*
X178090Y318551D02*
X177997Y318586D01*
X177906Y318626D01*
X177816Y318668D01*
X177728Y318715D01*
X177642Y318764D01*
X177558Y318817D01*
X177475Y318873D01*
X177395Y318932D01*
X177318Y318994D01*
X177243Y319059D01*
X177170Y319127D01*
X177100Y319198D01*
X177033Y319271D01*
X176968Y319347D01*
X176907Y319425D01*
X176848Y319506D01*
X176793Y319588D01*
X176741Y319673D01*
X176692Y319760D01*
X176647Y319848D01*
X176605Y319938D01*
X176566Y320030D01*
X176531Y320123D01*
X176500Y320217D01*
X176472Y320313D01*
X176448Y320409D01*
X176427Y320507D01*
X176411Y320605D01*
X176398Y320703D01*
X176389Y320802D01*
X176384Y320902D01*
X176382Y321001D01*
X176384Y321101D01*
X176390Y321200D01*
X176400Y321299D01*
X176414Y321397D01*
X176432Y321495D01*
X176453Y321592D01*
X176478Y321689D01*
X176506Y321784D01*
X176539Y321878D01*
X176538Y321878D02*
X178758Y327978D01*
X178759Y327978D02*
X178794Y328071D01*
X178834Y328162D01*
X178876Y328252D01*
X178923Y328340D01*
X178972Y328426D01*
X179025Y328510D01*
X179081Y328593D01*
X179140Y328673D01*
X179202Y328750D01*
X179267Y328825D01*
X179335Y328898D01*
X179406Y328968D01*
X179479Y329035D01*
X179555Y329100D01*
X179633Y329161D01*
X179714Y329220D01*
X179796Y329275D01*
X179881Y329327D01*
X179968Y329376D01*
X180056Y329421D01*
X180146Y329463D01*
X180238Y329502D01*
X180331Y329537D01*
X180425Y329568D01*
X180521Y329596D01*
X180617Y329620D01*
X180715Y329641D01*
X180813Y329657D01*
X180911Y329670D01*
X181010Y329679D01*
X181110Y329684D01*
X181209Y329686D01*
X181308Y329684D01*
X181408Y329678D01*
X181507Y329668D01*
X181605Y329654D01*
X181703Y329636D01*
X181800Y329615D01*
X181897Y329590D01*
X181992Y329562D01*
X182086Y329529D01*
X182086Y329530D02*
X184526Y328642D01*
X184632Y316169D02*
X188292Y314837D01*
X188292Y314838D02*
X188386Y314805D01*
X188481Y314777D01*
X188578Y314752D01*
X188675Y314731D01*
X188773Y314713D01*
X188871Y314699D01*
X188970Y314689D01*
X189070Y314683D01*
X189169Y314681D01*
X189268Y314683D01*
X189368Y314688D01*
X189467Y314697D01*
X189565Y314710D01*
X189663Y314726D01*
X189761Y314747D01*
X189857Y314771D01*
X189953Y314799D01*
X190047Y314830D01*
X190140Y314865D01*
X190232Y314904D01*
X190322Y314946D01*
X190410Y314991D01*
X190497Y315040D01*
X190582Y315092D01*
X190664Y315147D01*
X190745Y315206D01*
X190823Y315267D01*
X190899Y315332D01*
X190972Y315399D01*
X191043Y315469D01*
X191111Y315542D01*
X191176Y315617D01*
X191238Y315694D01*
X191297Y315774D01*
X191353Y315857D01*
X191406Y315941D01*
X191455Y316027D01*
X191502Y316115D01*
X191544Y316205D01*
X191584Y316296D01*
X191619Y316389D01*
X191620Y316389D02*
X192064Y317609D01*
X192063Y317609D02*
X192096Y317703D01*
X192124Y317799D01*
X192149Y317895D01*
X192170Y317992D01*
X192188Y318090D01*
X192202Y318188D01*
X192212Y318287D01*
X192218Y318387D01*
X192220Y318486D01*
X192218Y318585D01*
X192213Y318685D01*
X192204Y318784D01*
X192191Y318882D01*
X192175Y318980D01*
X192154Y319078D01*
X192130Y319174D01*
X192102Y319270D01*
X192071Y319364D01*
X192036Y319457D01*
X191997Y319549D01*
X191955Y319639D01*
X191910Y319727D01*
X191861Y319814D01*
X191809Y319899D01*
X191754Y319981D01*
X191695Y320062D01*
X191634Y320140D01*
X191569Y320216D01*
X191502Y320289D01*
X191432Y320360D01*
X191359Y320428D01*
X191284Y320493D01*
X191207Y320555D01*
X191127Y320614D01*
X191044Y320670D01*
X190960Y320723D01*
X190874Y320772D01*
X190786Y320819D01*
X190696Y320861D01*
X190605Y320901D01*
X190512Y320936D01*
X190512Y320937D02*
X186852Y322269D01*
X188628Y327149D01*
X194728Y324928D01*
X194500Y359572D02*
X192060Y360460D01*
X192060Y360461D02*
X191967Y360496D01*
X191876Y360536D01*
X191786Y360578D01*
X191698Y360625D01*
X191612Y360674D01*
X191528Y360727D01*
X191445Y360783D01*
X191365Y360842D01*
X191288Y360904D01*
X191213Y360969D01*
X191140Y361037D01*
X191070Y361108D01*
X191003Y361181D01*
X190938Y361257D01*
X190877Y361335D01*
X190818Y361416D01*
X190763Y361498D01*
X190711Y361583D01*
X190662Y361670D01*
X190617Y361758D01*
X190575Y361848D01*
X190536Y361940D01*
X190501Y362033D01*
X190470Y362127D01*
X190442Y362223D01*
X190418Y362319D01*
X190397Y362417D01*
X190381Y362515D01*
X190368Y362613D01*
X190359Y362712D01*
X190354Y362812D01*
X190352Y362911D01*
X190354Y363011D01*
X190360Y363110D01*
X190370Y363209D01*
X190384Y363307D01*
X190402Y363405D01*
X190423Y363502D01*
X190448Y363599D01*
X190476Y363694D01*
X190509Y363788D01*
X190508Y363788D02*
X192728Y369888D01*
X192729Y369888D02*
X192764Y369981D01*
X192804Y370072D01*
X192846Y370162D01*
X192893Y370250D01*
X192942Y370336D01*
X192995Y370420D01*
X193051Y370503D01*
X193110Y370583D01*
X193172Y370660D01*
X193237Y370735D01*
X193305Y370808D01*
X193376Y370878D01*
X193449Y370945D01*
X193525Y371010D01*
X193603Y371071D01*
X193684Y371130D01*
X193766Y371185D01*
X193851Y371237D01*
X193938Y371286D01*
X194026Y371331D01*
X194116Y371373D01*
X194208Y371412D01*
X194301Y371447D01*
X194395Y371478D01*
X194491Y371506D01*
X194587Y371530D01*
X194685Y371551D01*
X194783Y371567D01*
X194881Y371580D01*
X194980Y371589D01*
X195080Y371594D01*
X195179Y371596D01*
X195278Y371594D01*
X195378Y371588D01*
X195477Y371578D01*
X195575Y371564D01*
X195673Y371546D01*
X195770Y371525D01*
X195867Y371500D01*
X195962Y371472D01*
X196056Y371439D01*
X196056Y371440D02*
X198496Y370552D01*
X200822Y364179D02*
X204482Y362847D01*
X204482Y362846D02*
X204575Y362811D01*
X204666Y362771D01*
X204756Y362729D01*
X204844Y362682D01*
X204930Y362633D01*
X205014Y362580D01*
X205097Y362524D01*
X205177Y362465D01*
X205254Y362403D01*
X205329Y362338D01*
X205402Y362270D01*
X205472Y362199D01*
X205539Y362126D01*
X205604Y362050D01*
X205665Y361972D01*
X205724Y361891D01*
X205779Y361809D01*
X205831Y361724D01*
X205880Y361637D01*
X205925Y361549D01*
X205967Y361459D01*
X206006Y361367D01*
X206041Y361274D01*
X206072Y361180D01*
X206100Y361084D01*
X206124Y360988D01*
X206145Y360890D01*
X206161Y360792D01*
X206174Y360694D01*
X206183Y360595D01*
X206188Y360495D01*
X206190Y360396D01*
X206188Y360297D01*
X206182Y360197D01*
X206172Y360098D01*
X206158Y360000D01*
X206140Y359902D01*
X206119Y359805D01*
X206094Y359708D01*
X206066Y359613D01*
X206033Y359519D01*
X206034Y359519D02*
X205812Y358909D01*
X205772Y358803D01*
X205727Y358699D01*
X205680Y358596D01*
X205628Y358495D01*
X205573Y358396D01*
X205515Y358299D01*
X205453Y358204D01*
X205388Y358111D01*
X205320Y358021D01*
X205249Y357933D01*
X205174Y357847D01*
X205097Y357764D01*
X205017Y357684D01*
X204934Y357607D01*
X204849Y357532D01*
X204760Y357461D01*
X204670Y357393D01*
X204577Y357328D01*
X204482Y357266D01*
X204385Y357208D01*
X204286Y357153D01*
X204185Y357102D01*
X204082Y357054D01*
X203978Y357009D01*
X203872Y356969D01*
X203765Y356932D01*
X203657Y356899D01*
X203547Y356869D01*
X203437Y356844D01*
X203326Y356822D01*
X203214Y356805D01*
X203101Y356791D01*
X202988Y356781D01*
X202875Y356775D01*
X202762Y356773D01*
X202649Y356775D01*
X202536Y356781D01*
X202423Y356791D01*
X202310Y356805D01*
X202198Y356822D01*
X202087Y356844D01*
X201977Y356869D01*
X201867Y356899D01*
X201759Y356932D01*
X201652Y356969D01*
X201546Y357009D01*
X201442Y357054D01*
X201339Y357102D01*
X201238Y357153D01*
X201139Y357208D01*
X201042Y357266D01*
X200947Y357328D01*
X200854Y357393D01*
X200764Y357461D01*
X200675Y357532D01*
X200590Y357607D01*
X200507Y357684D01*
X200427Y357764D01*
X200350Y357847D01*
X200275Y357933D01*
X200204Y358021D01*
X200136Y358111D01*
X200071Y358204D01*
X200009Y358299D01*
X199951Y358396D01*
X199896Y358495D01*
X199844Y358596D01*
X199797Y358699D01*
X199752Y358803D01*
X199712Y358909D01*
X199675Y359016D01*
X199642Y359124D01*
X199612Y359234D01*
X199587Y359344D01*
X199565Y359455D01*
X199548Y359567D01*
X199534Y359680D01*
X199524Y359793D01*
X199518Y359906D01*
X199516Y360019D01*
X199518Y360132D01*
X199524Y360246D01*
X199534Y360358D01*
X199548Y360471D01*
X199565Y360583D01*
X199587Y360694D01*
X199612Y360804D01*
X199642Y360914D01*
X199675Y361022D01*
X199712Y361129D01*
X200822Y364179D01*
X200873Y364313D01*
X200927Y364445D01*
X200986Y364576D01*
X201047Y364705D01*
X201112Y364833D01*
X201181Y364958D01*
X201253Y365082D01*
X201329Y365203D01*
X201407Y365323D01*
X201490Y365440D01*
X201575Y365555D01*
X201663Y365667D01*
X201755Y365777D01*
X201849Y365885D01*
X201947Y365990D01*
X202047Y366092D01*
X202150Y366191D01*
X202256Y366288D01*
X202364Y366381D01*
X202475Y366472D01*
X202588Y366559D01*
X202704Y366643D01*
X202822Y366724D01*
X202942Y366802D01*
X203064Y366876D01*
X203189Y366947D01*
X203315Y367015D01*
X203443Y367079D01*
X203572Y367139D01*
X203704Y367196D01*
X203837Y367249D01*
X203971Y367299D01*
X204106Y367345D01*
X204243Y367387D01*
X204381Y367425D01*
X204520Y367460D01*
X204660Y367490D01*
X204800Y367517D01*
X204942Y367540D01*
X205083Y367559D01*
X205226Y367574D01*
X205368Y367585D01*
X205511Y367592D01*
X205654Y367596D01*
X205797Y367595D01*
X205940Y367591D01*
X206083Y367582D01*
X206226Y367570D01*
X206368Y367553D01*
X206510Y367533D01*
X206651Y367509D01*
X206791Y367481D01*
X206931Y367449D01*
X207069Y367413D01*
X207207Y367373D01*
X207343Y367330D01*
X207478Y367283D01*
D15*
X224869Y146211D02*
X224213Y144407D01*
X224212Y144408D02*
X224181Y144327D01*
X224146Y144249D01*
X224108Y144172D01*
X224066Y144096D01*
X224021Y144023D01*
X223973Y143952D01*
X223921Y143883D01*
X223867Y143816D01*
X223809Y143752D01*
X223749Y143690D01*
X223686Y143632D01*
X223620Y143576D01*
X223552Y143523D01*
X223482Y143473D01*
X223410Y143427D01*
X223335Y143383D01*
X223259Y143343D01*
X223181Y143307D01*
X223101Y143274D01*
X223020Y143245D01*
X222938Y143219D01*
X222855Y143197D01*
X222770Y143179D01*
X222686Y143165D01*
X222600Y143155D01*
X222514Y143148D01*
X222428Y143145D01*
X222342Y143146D01*
X222256Y143151D01*
X222170Y143160D01*
X222085Y143173D01*
X222001Y143189D01*
X221917Y143209D01*
X221834Y143233D01*
X221753Y143261D01*
X221753Y143260D02*
X217244Y144901D01*
X217245Y144901D02*
X217164Y144932D01*
X217086Y144967D01*
X217009Y145005D01*
X216933Y145047D01*
X216860Y145092D01*
X216789Y145140D01*
X216720Y145192D01*
X216653Y145246D01*
X216589Y145304D01*
X216527Y145364D01*
X216469Y145427D01*
X216413Y145493D01*
X216360Y145561D01*
X216310Y145631D01*
X216264Y145703D01*
X216220Y145778D01*
X216180Y145854D01*
X216144Y145932D01*
X216111Y146012D01*
X216082Y146093D01*
X216056Y146175D01*
X216034Y146258D01*
X216016Y146343D01*
X216002Y146427D01*
X215992Y146513D01*
X215985Y146599D01*
X215982Y146685D01*
X215983Y146771D01*
X215988Y146857D01*
X215997Y146943D01*
X216010Y147028D01*
X216026Y147112D01*
X216046Y147196D01*
X216070Y147279D01*
X216098Y147360D01*
X216097Y147361D02*
X216754Y149164D01*
X218060Y152754D02*
X218962Y152426D01*
X218060Y152754D02*
X219701Y157262D01*
X226996Y152054D01*
X183573Y281567D02*
X184229Y283371D01*
X183572Y281568D02*
X183541Y281487D01*
X183506Y281409D01*
X183468Y281332D01*
X183426Y281256D01*
X183381Y281183D01*
X183333Y281112D01*
X183281Y281043D01*
X183227Y280976D01*
X183169Y280912D01*
X183109Y280850D01*
X183046Y280792D01*
X182980Y280736D01*
X182912Y280683D01*
X182842Y280633D01*
X182770Y280587D01*
X182695Y280543D01*
X182619Y280503D01*
X182541Y280467D01*
X182461Y280434D01*
X182380Y280405D01*
X182298Y280379D01*
X182215Y280357D01*
X182130Y280339D01*
X182046Y280325D01*
X181960Y280315D01*
X181874Y280308D01*
X181788Y280305D01*
X181702Y280306D01*
X181616Y280311D01*
X181530Y280320D01*
X181445Y280333D01*
X181361Y280349D01*
X181277Y280369D01*
X181194Y280393D01*
X181113Y280421D01*
X181113Y280420D02*
X176604Y282061D01*
X176605Y282061D02*
X176524Y282092D01*
X176446Y282127D01*
X176369Y282165D01*
X176293Y282207D01*
X176220Y282252D01*
X176149Y282300D01*
X176080Y282352D01*
X176013Y282406D01*
X175949Y282464D01*
X175887Y282524D01*
X175829Y282587D01*
X175773Y282653D01*
X175720Y282721D01*
X175670Y282791D01*
X175624Y282863D01*
X175580Y282938D01*
X175540Y283014D01*
X175504Y283092D01*
X175471Y283172D01*
X175442Y283253D01*
X175416Y283335D01*
X175394Y283418D01*
X175376Y283503D01*
X175362Y283587D01*
X175352Y283673D01*
X175345Y283759D01*
X175342Y283845D01*
X175343Y283931D01*
X175348Y284017D01*
X175357Y284103D01*
X175370Y284188D01*
X175386Y284272D01*
X175406Y284356D01*
X175430Y284439D01*
X175458Y284520D01*
X175457Y284521D02*
X176114Y286324D01*
X183281Y287781D02*
X183190Y287816D01*
X183100Y287855D01*
X183012Y287898D01*
X182926Y287944D01*
X182842Y287994D01*
X182760Y288047D01*
X182680Y288103D01*
X182602Y288163D01*
X182527Y288226D01*
X182454Y288291D01*
X182385Y288360D01*
X182318Y288431D01*
X182254Y288505D01*
X182193Y288582D01*
X182135Y288661D01*
X182081Y288743D01*
X182030Y288826D01*
X181982Y288912D01*
X181938Y288999D01*
X181898Y289088D01*
X181861Y289179D01*
X181828Y289271D01*
X181799Y289364D01*
X181773Y289459D01*
X181752Y289554D01*
X181734Y289651D01*
X181720Y289748D01*
X181711Y289845D01*
X181705Y289943D01*
X181703Y290040D01*
X181705Y290138D01*
X181711Y290236D01*
X181722Y290333D01*
X181736Y290430D01*
X181754Y290526D01*
X181776Y290622D01*
X181802Y290716D01*
X181831Y290809D01*
X181865Y290901D01*
X181902Y290992D01*
X181943Y291081D01*
X181987Y291168D01*
X182035Y291253D01*
X182087Y291337D01*
X182142Y291418D01*
X182200Y291497D01*
X182261Y291573D01*
X182325Y291647D01*
X182392Y291718D01*
X182462Y291786D01*
X182535Y291852D01*
X182611Y291914D01*
X182688Y291973D01*
X182769Y292029D01*
X182851Y292082D01*
X182936Y292131D01*
X183022Y292177D01*
X183110Y292219D01*
X183200Y292258D01*
X183292Y292293D01*
X183384Y292324D01*
X183478Y292352D01*
X183573Y292375D01*
X183669Y292395D01*
X183766Y292410D01*
X183863Y292422D01*
X183961Y292430D01*
X184059Y292434D01*
X184156Y292433D01*
X184254Y292429D01*
X184352Y292421D01*
X184449Y292409D01*
X184545Y292393D01*
X184641Y292373D01*
X184736Y292349D01*
X184830Y292321D01*
X184923Y292289D01*
X185013Y292254D01*
X185101Y292216D01*
X185188Y292174D01*
X185274Y292129D01*
X185357Y292080D01*
X185438Y292027D01*
X185517Y291972D01*
X185594Y291913D01*
X185669Y291852D01*
X185740Y291787D01*
X185810Y291720D01*
X185876Y291650D01*
X185940Y291577D01*
X186000Y291502D01*
X186058Y291424D01*
X186112Y291344D01*
X186163Y291262D01*
X186211Y291178D01*
X186255Y291092D01*
X186296Y291005D01*
X186333Y290916D01*
X186367Y290825D01*
X186397Y290733D01*
X186423Y290640D01*
X186446Y290546D01*
X186465Y290452D01*
X186479Y290356D01*
X186490Y290260D01*
X186498Y290164D01*
X186501Y290067D01*
X186500Y289971D01*
X186496Y289874D01*
X186487Y289778D01*
X186475Y289682D01*
X186459Y289587D01*
X186439Y289492D01*
X186415Y289399D01*
X186388Y289306D01*
X186356Y289214D01*
X186321Y289124D01*
X186283Y289036D01*
X186241Y288949D01*
X186196Y288863D01*
X186147Y288780D01*
X186094Y288699D01*
X186039Y288620D01*
X185980Y288543D01*
X185919Y288468D01*
X185854Y288397D01*
X185787Y288327D01*
X185717Y288261D01*
X185644Y288197D01*
X185569Y288137D01*
X185491Y288079D01*
X185411Y288025D01*
X185329Y287974D01*
X185245Y287926D01*
X185159Y287882D01*
X185072Y287841D01*
X184983Y287804D01*
X184892Y287770D01*
X184800Y287740D01*
X184707Y287714D01*
X184613Y287691D01*
X184519Y287672D01*
X184423Y287658D01*
X184327Y287647D01*
X184231Y287639D01*
X184134Y287636D01*
X184038Y287637D01*
X183941Y287641D01*
X183845Y287650D01*
X183749Y287662D01*
X183654Y287678D01*
X183559Y287698D01*
X183466Y287722D01*
X183373Y287749D01*
X183281Y287781D01*
X179388Y289709D02*
X179306Y289740D01*
X179226Y289776D01*
X179148Y289815D01*
X179072Y289857D01*
X178998Y289903D01*
X178925Y289953D01*
X178856Y290005D01*
X178788Y290061D01*
X178724Y290120D01*
X178662Y290181D01*
X178602Y290245D01*
X178546Y290312D01*
X178493Y290382D01*
X178443Y290453D01*
X178397Y290527D01*
X178354Y290603D01*
X178314Y290681D01*
X178278Y290761D01*
X178246Y290842D01*
X178217Y290925D01*
X178192Y291008D01*
X178171Y291093D01*
X178154Y291179D01*
X178141Y291265D01*
X178132Y291352D01*
X178126Y291439D01*
X178125Y291527D01*
X178128Y291614D01*
X178134Y291701D01*
X178145Y291788D01*
X178159Y291874D01*
X178178Y291959D01*
X178200Y292044D01*
X178226Y292127D01*
X178256Y292209D01*
X178290Y292290D01*
X178327Y292369D01*
X178368Y292446D01*
X178412Y292521D01*
X178460Y292595D01*
X178511Y292666D01*
X178565Y292734D01*
X178622Y292800D01*
X178682Y292864D01*
X178745Y292924D01*
X178810Y292982D01*
X178879Y293037D01*
X178949Y293088D01*
X179022Y293136D01*
X179097Y293181D01*
X179174Y293222D01*
X179253Y293260D01*
X179333Y293295D01*
X179415Y293325D01*
X179498Y293352D01*
X179583Y293375D01*
X179668Y293394D01*
X179754Y293409D01*
X179841Y293420D01*
X179928Y293427D01*
X180015Y293431D01*
X180102Y293430D01*
X180189Y293425D01*
X180276Y293417D01*
X180363Y293404D01*
X180449Y293388D01*
X180534Y293367D01*
X180618Y293343D01*
X180700Y293315D01*
X180781Y293284D01*
X180859Y293249D01*
X180936Y293211D01*
X181012Y293169D01*
X181085Y293124D01*
X181156Y293076D01*
X181225Y293024D01*
X181292Y292970D01*
X181356Y292912D01*
X181418Y292852D01*
X181476Y292789D01*
X181532Y292723D01*
X181585Y292655D01*
X181635Y292585D01*
X181681Y292513D01*
X181725Y292438D01*
X181765Y292362D01*
X181801Y292284D01*
X181834Y292204D01*
X181863Y292123D01*
X181889Y292041D01*
X181911Y291958D01*
X181929Y291873D01*
X181943Y291789D01*
X181953Y291703D01*
X181960Y291617D01*
X181963Y291531D01*
X181962Y291445D01*
X181957Y291359D01*
X181948Y291273D01*
X181935Y291188D01*
X181919Y291104D01*
X181899Y291020D01*
X181875Y290937D01*
X181847Y290856D01*
X181816Y290775D01*
X181781Y290697D01*
X181743Y290620D01*
X181701Y290544D01*
X181656Y290471D01*
X181608Y290400D01*
X181556Y290331D01*
X181502Y290264D01*
X181444Y290200D01*
X181384Y290138D01*
X181321Y290080D01*
X181255Y290024D01*
X181187Y289971D01*
X181117Y289921D01*
X181045Y289875D01*
X180970Y289831D01*
X180894Y289791D01*
X180816Y289755D01*
X180736Y289722D01*
X180655Y289693D01*
X180573Y289667D01*
X180490Y289645D01*
X180405Y289627D01*
X180321Y289613D01*
X180235Y289603D01*
X180149Y289596D01*
X180063Y289593D01*
X179977Y289594D01*
X179891Y289599D01*
X179805Y289608D01*
X179720Y289621D01*
X179636Y289637D01*
X179552Y289657D01*
X179469Y289681D01*
X179388Y289709D01*
D12*
X86198Y25590D02*
X85310Y23150D01*
X85309Y23150D02*
X85274Y23057D01*
X85234Y22966D01*
X85192Y22876D01*
X85145Y22788D01*
X85096Y22702D01*
X85043Y22618D01*
X84987Y22535D01*
X84928Y22455D01*
X84866Y22378D01*
X84801Y22303D01*
X84733Y22230D01*
X84662Y22160D01*
X84589Y22093D01*
X84513Y22028D01*
X84435Y21967D01*
X84354Y21908D01*
X84272Y21853D01*
X84187Y21801D01*
X84100Y21752D01*
X84012Y21707D01*
X83922Y21665D01*
X83830Y21626D01*
X83737Y21591D01*
X83643Y21560D01*
X83547Y21532D01*
X83451Y21508D01*
X83353Y21487D01*
X83255Y21471D01*
X83157Y21458D01*
X83058Y21449D01*
X82958Y21444D01*
X82859Y21442D01*
X82760Y21444D01*
X82660Y21450D01*
X82561Y21460D01*
X82463Y21474D01*
X82365Y21492D01*
X82268Y21513D01*
X82171Y21538D01*
X82076Y21566D01*
X81982Y21599D01*
X81982Y21598D02*
X75882Y23818D01*
X75882Y23819D02*
X75789Y23854D01*
X75698Y23894D01*
X75608Y23936D01*
X75520Y23983D01*
X75434Y24032D01*
X75350Y24085D01*
X75267Y24141D01*
X75187Y24200D01*
X75110Y24262D01*
X75035Y24327D01*
X74962Y24395D01*
X74892Y24466D01*
X74825Y24539D01*
X74760Y24615D01*
X74699Y24693D01*
X74640Y24774D01*
X74585Y24856D01*
X74533Y24941D01*
X74484Y25028D01*
X74439Y25116D01*
X74397Y25206D01*
X74358Y25298D01*
X74323Y25391D01*
X74292Y25485D01*
X74264Y25581D01*
X74240Y25677D01*
X74219Y25775D01*
X74203Y25873D01*
X74190Y25971D01*
X74181Y26070D01*
X74176Y26170D01*
X74174Y26269D01*
X74176Y26368D01*
X74182Y26468D01*
X74192Y26567D01*
X74206Y26665D01*
X74224Y26763D01*
X74245Y26860D01*
X74270Y26957D01*
X74298Y27052D01*
X74331Y27146D01*
X74330Y27146D02*
X75218Y29586D01*
X83699Y33908D02*
X85031Y37568D01*
X83698Y33908D02*
X83663Y33815D01*
X83623Y33724D01*
X83581Y33634D01*
X83534Y33546D01*
X83485Y33460D01*
X83432Y33376D01*
X83376Y33293D01*
X83317Y33213D01*
X83255Y33136D01*
X83190Y33061D01*
X83122Y32988D01*
X83051Y32918D01*
X82978Y32851D01*
X82902Y32786D01*
X82824Y32725D01*
X82743Y32666D01*
X82661Y32611D01*
X82576Y32559D01*
X82489Y32510D01*
X82401Y32465D01*
X82311Y32423D01*
X82219Y32384D01*
X82126Y32349D01*
X82032Y32318D01*
X81936Y32290D01*
X81840Y32266D01*
X81742Y32245D01*
X81644Y32229D01*
X81546Y32216D01*
X81447Y32207D01*
X81347Y32202D01*
X81248Y32200D01*
X81149Y32202D01*
X81049Y32208D01*
X80950Y32218D01*
X80852Y32232D01*
X80754Y32250D01*
X80657Y32271D01*
X80560Y32296D01*
X80465Y32324D01*
X80371Y32357D01*
X80371Y32356D02*
X79761Y32578D01*
X79655Y32618D01*
X79551Y32663D01*
X79448Y32710D01*
X79347Y32762D01*
X79248Y32817D01*
X79151Y32875D01*
X79056Y32937D01*
X78963Y33002D01*
X78873Y33070D01*
X78785Y33141D01*
X78699Y33216D01*
X78616Y33293D01*
X78536Y33373D01*
X78459Y33456D01*
X78384Y33541D01*
X78313Y33630D01*
X78245Y33720D01*
X78180Y33813D01*
X78118Y33908D01*
X78060Y34005D01*
X78005Y34104D01*
X77954Y34205D01*
X77906Y34308D01*
X77861Y34412D01*
X77821Y34518D01*
X77784Y34625D01*
X77751Y34733D01*
X77721Y34843D01*
X77696Y34953D01*
X77674Y35064D01*
X77657Y35176D01*
X77643Y35289D01*
X77633Y35402D01*
X77627Y35515D01*
X77625Y35628D01*
X77627Y35741D01*
X77633Y35854D01*
X77643Y35967D01*
X77657Y36080D01*
X77674Y36192D01*
X77696Y36303D01*
X77721Y36413D01*
X77751Y36523D01*
X77784Y36631D01*
X77821Y36738D01*
X77861Y36844D01*
X77906Y36948D01*
X77954Y37051D01*
X78005Y37152D01*
X78060Y37251D01*
X78118Y37348D01*
X78180Y37443D01*
X78245Y37536D01*
X78313Y37626D01*
X78384Y37715D01*
X78459Y37800D01*
X78536Y37883D01*
X78616Y37963D01*
X78699Y38040D01*
X78785Y38115D01*
X78873Y38186D01*
X78963Y38254D01*
X79056Y38319D01*
X79151Y38381D01*
X79248Y38439D01*
X79347Y38494D01*
X79448Y38546D01*
X79551Y38593D01*
X79655Y38638D01*
X79761Y38678D01*
X79868Y38715D01*
X79976Y38748D01*
X80086Y38778D01*
X80196Y38803D01*
X80307Y38825D01*
X80419Y38842D01*
X80532Y38856D01*
X80645Y38866D01*
X80758Y38872D01*
X80871Y38874D01*
X80984Y38872D01*
X81098Y38866D01*
X81210Y38856D01*
X81323Y38842D01*
X81435Y38825D01*
X81546Y38803D01*
X81656Y38778D01*
X81766Y38748D01*
X81874Y38715D01*
X81981Y38678D01*
X85031Y37568D01*
X85165Y37517D01*
X85297Y37463D01*
X85428Y37404D01*
X85557Y37343D01*
X85685Y37278D01*
X85810Y37209D01*
X85934Y37137D01*
X86055Y37061D01*
X86175Y36983D01*
X86292Y36900D01*
X86407Y36815D01*
X86519Y36727D01*
X86629Y36635D01*
X86737Y36541D01*
X86842Y36443D01*
X86944Y36343D01*
X87043Y36240D01*
X87140Y36134D01*
X87233Y36026D01*
X87324Y35915D01*
X87411Y35802D01*
X87495Y35686D01*
X87576Y35568D01*
X87654Y35448D01*
X87728Y35326D01*
X87799Y35201D01*
X87867Y35075D01*
X87931Y34947D01*
X87991Y34818D01*
X88048Y34686D01*
X88101Y34553D01*
X88151Y34419D01*
X88197Y34284D01*
X88239Y34147D01*
X88277Y34009D01*
X88312Y33870D01*
X88342Y33730D01*
X88369Y33590D01*
X88392Y33448D01*
X88411Y33307D01*
X88426Y33164D01*
X88437Y33022D01*
X88444Y32879D01*
X88448Y32736D01*
X88447Y32593D01*
X88443Y32450D01*
X88434Y32307D01*
X88422Y32164D01*
X88405Y32022D01*
X88385Y31880D01*
X88361Y31739D01*
X88333Y31599D01*
X88301Y31459D01*
X88265Y31321D01*
X88225Y31183D01*
X88182Y31047D01*
X88135Y30912D01*
D16*
X110860Y96800D02*
X188860Y96800D01*
X188860Y4800D02*
X110860Y4800D01*
X110860Y44800D02*
X110860Y71800D01*
X188860Y71800D02*
X188860Y44800D01*
X128860Y96800D02*
X117860Y96800D01*
X170860Y96800D02*
X181860Y96800D01*
D12*
X122461Y104808D02*
X119864Y104808D01*
X119765Y104810D01*
X119665Y104816D01*
X119566Y104825D01*
X119468Y104838D01*
X119370Y104855D01*
X119272Y104876D01*
X119176Y104901D01*
X119081Y104929D01*
X118987Y104961D01*
X118894Y104996D01*
X118802Y105035D01*
X118712Y105078D01*
X118624Y105123D01*
X118537Y105173D01*
X118453Y105225D01*
X118370Y105281D01*
X118290Y105339D01*
X118212Y105401D01*
X118137Y105466D01*
X118064Y105534D01*
X117994Y105604D01*
X117926Y105677D01*
X117861Y105752D01*
X117799Y105830D01*
X117741Y105910D01*
X117685Y105993D01*
X117633Y106077D01*
X117583Y106164D01*
X117538Y106252D01*
X117495Y106342D01*
X117456Y106434D01*
X117421Y106527D01*
X117389Y106621D01*
X117361Y106716D01*
X117336Y106812D01*
X117315Y106910D01*
X117298Y107008D01*
X117285Y107106D01*
X117276Y107205D01*
X117270Y107305D01*
X117268Y107404D01*
X117268Y113896D01*
X117270Y113995D01*
X117276Y114095D01*
X117285Y114194D01*
X117298Y114292D01*
X117315Y114390D01*
X117336Y114488D01*
X117361Y114584D01*
X117389Y114679D01*
X117421Y114773D01*
X117456Y114866D01*
X117495Y114958D01*
X117538Y115048D01*
X117583Y115136D01*
X117633Y115223D01*
X117685Y115307D01*
X117741Y115390D01*
X117799Y115470D01*
X117861Y115548D01*
X117926Y115623D01*
X117994Y115696D01*
X118064Y115766D01*
X118137Y115834D01*
X118212Y115899D01*
X118290Y115961D01*
X118370Y116019D01*
X118453Y116075D01*
X118537Y116127D01*
X118624Y116177D01*
X118712Y116222D01*
X118802Y116265D01*
X118894Y116304D01*
X118986Y116339D01*
X119081Y116371D01*
X119176Y116399D01*
X119272Y116424D01*
X119370Y116445D01*
X119468Y116462D01*
X119566Y116475D01*
X119665Y116484D01*
X119765Y116490D01*
X119864Y116492D01*
X122461Y116492D01*
X127207Y116492D02*
X127207Y104808D01*
X133698Y104808D02*
X127207Y116492D01*
X133698Y116492D02*
X133698Y104808D01*
X139018Y113896D02*
X142264Y116492D01*
X142264Y104808D01*
X145509Y104808D02*
X139018Y104808D01*
D11*
X122860Y60800D02*
X122862Y60941D01*
X122868Y61082D01*
X122878Y61222D01*
X122892Y61362D01*
X122910Y61502D01*
X122931Y61641D01*
X122957Y61780D01*
X122986Y61918D01*
X123020Y62054D01*
X123057Y62190D01*
X123098Y62325D01*
X123143Y62459D01*
X123192Y62591D01*
X123244Y62722D01*
X123300Y62851D01*
X123360Y62978D01*
X123423Y63104D01*
X123489Y63228D01*
X123560Y63351D01*
X123633Y63471D01*
X123710Y63589D01*
X123790Y63705D01*
X123874Y63818D01*
X123960Y63929D01*
X124050Y64038D01*
X124143Y64144D01*
X124238Y64247D01*
X124337Y64348D01*
X124438Y64446D01*
X124542Y64541D01*
X124649Y64633D01*
X124758Y64722D01*
X124870Y64807D01*
X124984Y64890D01*
X125100Y64970D01*
X125219Y65046D01*
X125340Y65118D01*
X125462Y65188D01*
X125587Y65253D01*
X125713Y65316D01*
X125841Y65374D01*
X125971Y65429D01*
X126102Y65481D01*
X126235Y65528D01*
X126369Y65572D01*
X126504Y65613D01*
X126640Y65649D01*
X126777Y65681D01*
X126915Y65710D01*
X127053Y65735D01*
X127193Y65755D01*
X127333Y65772D01*
X127473Y65785D01*
X127614Y65794D01*
X127754Y65799D01*
X127895Y65800D01*
X128036Y65797D01*
X128177Y65790D01*
X128317Y65779D01*
X128457Y65764D01*
X128597Y65745D01*
X128736Y65723D01*
X128874Y65696D01*
X129012Y65666D01*
X129148Y65631D01*
X129284Y65593D01*
X129418Y65551D01*
X129552Y65505D01*
X129684Y65456D01*
X129814Y65402D01*
X129943Y65345D01*
X130070Y65285D01*
X130196Y65221D01*
X130319Y65153D01*
X130441Y65082D01*
X130561Y65008D01*
X130678Y64930D01*
X130793Y64849D01*
X130906Y64765D01*
X131017Y64678D01*
X131125Y64587D01*
X131230Y64494D01*
X131333Y64397D01*
X131433Y64298D01*
X131530Y64196D01*
X131624Y64091D01*
X131715Y63984D01*
X131803Y63874D01*
X131888Y63762D01*
X131970Y63647D01*
X132049Y63530D01*
X132124Y63411D01*
X132196Y63290D01*
X132264Y63167D01*
X132329Y63042D01*
X132391Y62915D01*
X132448Y62786D01*
X132503Y62656D01*
X132553Y62525D01*
X132600Y62392D01*
X132643Y62258D01*
X132682Y62122D01*
X132717Y61986D01*
X132749Y61849D01*
X132776Y61711D01*
X132800Y61572D01*
X132820Y61432D01*
X132836Y61292D01*
X132848Y61152D01*
X132856Y61011D01*
X132860Y60870D01*
X132860Y60730D01*
X132856Y60589D01*
X132848Y60448D01*
X132836Y60308D01*
X132820Y60168D01*
X132800Y60028D01*
X132776Y59889D01*
X132749Y59751D01*
X132717Y59614D01*
X132682Y59478D01*
X132643Y59342D01*
X132600Y59208D01*
X132553Y59075D01*
X132503Y58944D01*
X132448Y58814D01*
X132391Y58685D01*
X132329Y58558D01*
X132264Y58433D01*
X132196Y58310D01*
X132124Y58189D01*
X132049Y58070D01*
X131970Y57953D01*
X131888Y57838D01*
X131803Y57726D01*
X131715Y57616D01*
X131624Y57509D01*
X131530Y57404D01*
X131433Y57302D01*
X131333Y57203D01*
X131230Y57106D01*
X131125Y57013D01*
X131017Y56922D01*
X130906Y56835D01*
X130793Y56751D01*
X130678Y56670D01*
X130561Y56592D01*
X130441Y56518D01*
X130319Y56447D01*
X130196Y56379D01*
X130070Y56315D01*
X129943Y56255D01*
X129814Y56198D01*
X129684Y56144D01*
X129552Y56095D01*
X129418Y56049D01*
X129284Y56007D01*
X129148Y55969D01*
X129012Y55934D01*
X128874Y55904D01*
X128736Y55877D01*
X128597Y55855D01*
X128457Y55836D01*
X128317Y55821D01*
X128177Y55810D01*
X128036Y55803D01*
X127895Y55800D01*
X127754Y55801D01*
X127614Y55806D01*
X127473Y55815D01*
X127333Y55828D01*
X127193Y55845D01*
X127053Y55865D01*
X126915Y55890D01*
X126777Y55919D01*
X126640Y55951D01*
X126504Y55987D01*
X126369Y56028D01*
X126235Y56072D01*
X126102Y56119D01*
X125971Y56171D01*
X125841Y56226D01*
X125713Y56284D01*
X125587Y56347D01*
X125462Y56412D01*
X125340Y56482D01*
X125219Y56554D01*
X125100Y56630D01*
X124984Y56710D01*
X124870Y56793D01*
X124758Y56878D01*
X124649Y56967D01*
X124542Y57059D01*
X124438Y57154D01*
X124337Y57252D01*
X124238Y57353D01*
X124143Y57456D01*
X124050Y57562D01*
X123960Y57671D01*
X123874Y57782D01*
X123790Y57895D01*
X123710Y58011D01*
X123633Y58129D01*
X123560Y58249D01*
X123489Y58372D01*
X123423Y58496D01*
X123360Y58622D01*
X123300Y58749D01*
X123244Y58878D01*
X123192Y59009D01*
X123143Y59141D01*
X123098Y59275D01*
X123057Y59410D01*
X123020Y59546D01*
X122986Y59682D01*
X122957Y59820D01*
X122931Y59959D01*
X122910Y60098D01*
X122892Y60238D01*
X122878Y60378D01*
X122868Y60518D01*
X122862Y60659D01*
X122860Y60800D01*
X166860Y60800D02*
X166862Y60941D01*
X166868Y61082D01*
X166878Y61222D01*
X166892Y61362D01*
X166910Y61502D01*
X166931Y61641D01*
X166957Y61780D01*
X166986Y61918D01*
X167020Y62054D01*
X167057Y62190D01*
X167098Y62325D01*
X167143Y62459D01*
X167192Y62591D01*
X167244Y62722D01*
X167300Y62851D01*
X167360Y62978D01*
X167423Y63104D01*
X167489Y63228D01*
X167560Y63351D01*
X167633Y63471D01*
X167710Y63589D01*
X167790Y63705D01*
X167874Y63818D01*
X167960Y63929D01*
X168050Y64038D01*
X168143Y64144D01*
X168238Y64247D01*
X168337Y64348D01*
X168438Y64446D01*
X168542Y64541D01*
X168649Y64633D01*
X168758Y64722D01*
X168870Y64807D01*
X168984Y64890D01*
X169100Y64970D01*
X169219Y65046D01*
X169340Y65118D01*
X169462Y65188D01*
X169587Y65253D01*
X169713Y65316D01*
X169841Y65374D01*
X169971Y65429D01*
X170102Y65481D01*
X170235Y65528D01*
X170369Y65572D01*
X170504Y65613D01*
X170640Y65649D01*
X170777Y65681D01*
X170915Y65710D01*
X171053Y65735D01*
X171193Y65755D01*
X171333Y65772D01*
X171473Y65785D01*
X171614Y65794D01*
X171754Y65799D01*
X171895Y65800D01*
X172036Y65797D01*
X172177Y65790D01*
X172317Y65779D01*
X172457Y65764D01*
X172597Y65745D01*
X172736Y65723D01*
X172874Y65696D01*
X173012Y65666D01*
X173148Y65631D01*
X173284Y65593D01*
X173418Y65551D01*
X173552Y65505D01*
X173684Y65456D01*
X173814Y65402D01*
X173943Y65345D01*
X174070Y65285D01*
X174196Y65221D01*
X174319Y65153D01*
X174441Y65082D01*
X174561Y65008D01*
X174678Y64930D01*
X174793Y64849D01*
X174906Y64765D01*
X175017Y64678D01*
X175125Y64587D01*
X175230Y64494D01*
X175333Y64397D01*
X175433Y64298D01*
X175530Y64196D01*
X175624Y64091D01*
X175715Y63984D01*
X175803Y63874D01*
X175888Y63762D01*
X175970Y63647D01*
X176049Y63530D01*
X176124Y63411D01*
X176196Y63290D01*
X176264Y63167D01*
X176329Y63042D01*
X176391Y62915D01*
X176448Y62786D01*
X176503Y62656D01*
X176553Y62525D01*
X176600Y62392D01*
X176643Y62258D01*
X176682Y62122D01*
X176717Y61986D01*
X176749Y61849D01*
X176776Y61711D01*
X176800Y61572D01*
X176820Y61432D01*
X176836Y61292D01*
X176848Y61152D01*
X176856Y61011D01*
X176860Y60870D01*
X176860Y60730D01*
X176856Y60589D01*
X176848Y60448D01*
X176836Y60308D01*
X176820Y60168D01*
X176800Y60028D01*
X176776Y59889D01*
X176749Y59751D01*
X176717Y59614D01*
X176682Y59478D01*
X176643Y59342D01*
X176600Y59208D01*
X176553Y59075D01*
X176503Y58944D01*
X176448Y58814D01*
X176391Y58685D01*
X176329Y58558D01*
X176264Y58433D01*
X176196Y58310D01*
X176124Y58189D01*
X176049Y58070D01*
X175970Y57953D01*
X175888Y57838D01*
X175803Y57726D01*
X175715Y57616D01*
X175624Y57509D01*
X175530Y57404D01*
X175433Y57302D01*
X175333Y57203D01*
X175230Y57106D01*
X175125Y57013D01*
X175017Y56922D01*
X174906Y56835D01*
X174793Y56751D01*
X174678Y56670D01*
X174561Y56592D01*
X174441Y56518D01*
X174319Y56447D01*
X174196Y56379D01*
X174070Y56315D01*
X173943Y56255D01*
X173814Y56198D01*
X173684Y56144D01*
X173552Y56095D01*
X173418Y56049D01*
X173284Y56007D01*
X173148Y55969D01*
X173012Y55934D01*
X172874Y55904D01*
X172736Y55877D01*
X172597Y55855D01*
X172457Y55836D01*
X172317Y55821D01*
X172177Y55810D01*
X172036Y55803D01*
X171895Y55800D01*
X171754Y55801D01*
X171614Y55806D01*
X171473Y55815D01*
X171333Y55828D01*
X171193Y55845D01*
X171053Y55865D01*
X170915Y55890D01*
X170777Y55919D01*
X170640Y55951D01*
X170504Y55987D01*
X170369Y56028D01*
X170235Y56072D01*
X170102Y56119D01*
X169971Y56171D01*
X169841Y56226D01*
X169713Y56284D01*
X169587Y56347D01*
X169462Y56412D01*
X169340Y56482D01*
X169219Y56554D01*
X169100Y56630D01*
X168984Y56710D01*
X168870Y56793D01*
X168758Y56878D01*
X168649Y56967D01*
X168542Y57059D01*
X168438Y57154D01*
X168337Y57252D01*
X168238Y57353D01*
X168143Y57456D01*
X168050Y57562D01*
X167960Y57671D01*
X167874Y57782D01*
X167790Y57895D01*
X167710Y58011D01*
X167633Y58129D01*
X167560Y58249D01*
X167489Y58372D01*
X167423Y58496D01*
X167360Y58622D01*
X167300Y58749D01*
X167244Y58878D01*
X167192Y59009D01*
X167143Y59141D01*
X167098Y59275D01*
X167057Y59410D01*
X167020Y59546D01*
X166986Y59682D01*
X166957Y59820D01*
X166931Y59959D01*
X166910Y60098D01*
X166892Y60238D01*
X166878Y60378D01*
X166868Y60518D01*
X166862Y60659D01*
X166860Y60800D01*
D16*
X115379Y145786D02*
X127542Y179202D01*
X115379Y145786D02*
X101058Y150998D01*
X113221Y184414D01*
X127542Y179202D01*
D17*
X125518Y166313D02*
X129099Y165010D01*
X125518Y166313D02*
X125880Y167307D01*
X125881Y167307D02*
X125904Y167366D01*
X125932Y167424D01*
X125962Y167480D01*
X125996Y167534D01*
X126033Y167586D01*
X126074Y167636D01*
X126117Y167683D01*
X126163Y167727D01*
X126211Y167769D01*
X126262Y167808D01*
X126316Y167843D01*
X126371Y167875D01*
X126428Y167904D01*
X126487Y167929D01*
X126547Y167951D01*
X126608Y167969D01*
X126670Y167983D01*
X126733Y167993D01*
X126797Y168000D01*
X126861Y168003D01*
X126925Y168002D01*
X126988Y167997D01*
X127052Y167988D01*
X127114Y167976D01*
X127176Y167959D01*
X127237Y167939D01*
X127237Y167940D02*
X128828Y167361D01*
X128828Y167360D02*
X128887Y167337D01*
X128945Y167309D01*
X129001Y167279D01*
X129055Y167245D01*
X129107Y167208D01*
X129157Y167167D01*
X129204Y167124D01*
X129248Y167078D01*
X129290Y167030D01*
X129329Y166979D01*
X129364Y166925D01*
X129396Y166870D01*
X129425Y166813D01*
X129450Y166754D01*
X129472Y166694D01*
X129490Y166633D01*
X129504Y166571D01*
X129514Y166508D01*
X129521Y166444D01*
X129524Y166380D01*
X129523Y166316D01*
X129518Y166253D01*
X129509Y166189D01*
X129497Y166127D01*
X129480Y166065D01*
X129460Y166004D01*
X129461Y166004D02*
X129099Y165010D01*
X127607Y169575D02*
X127173Y170859D01*
X130753Y169556D01*
X131115Y170550D02*
X130391Y168561D01*
D18*
X407924Y708110D02*
X464254Y687612D01*
X407924Y708110D02*
X430340Y769698D01*
X486668Y749192D01*
D12*
X430454Y775869D02*
X434450Y786849D01*
X429234Y776313D02*
X431674Y775425D01*
X435670Y786405D02*
X433230Y787293D01*
X438405Y772975D02*
X440845Y772087D01*
X438405Y772976D02*
X438312Y773011D01*
X438221Y773051D01*
X438131Y773093D01*
X438043Y773140D01*
X437957Y773189D01*
X437873Y773242D01*
X437790Y773298D01*
X437710Y773357D01*
X437633Y773419D01*
X437558Y773484D01*
X437485Y773552D01*
X437415Y773623D01*
X437348Y773696D01*
X437283Y773772D01*
X437222Y773850D01*
X437163Y773931D01*
X437108Y774013D01*
X437056Y774098D01*
X437007Y774185D01*
X436962Y774273D01*
X436920Y774363D01*
X436881Y774455D01*
X436846Y774548D01*
X436815Y774642D01*
X436787Y774738D01*
X436763Y774834D01*
X436742Y774932D01*
X436726Y775030D01*
X436713Y775128D01*
X436704Y775227D01*
X436699Y775327D01*
X436697Y775426D01*
X436699Y775526D01*
X436705Y775625D01*
X436715Y775724D01*
X436729Y775822D01*
X436747Y775920D01*
X436768Y776017D01*
X436793Y776114D01*
X436821Y776209D01*
X436854Y776303D01*
X436853Y776303D02*
X439073Y782403D01*
X439074Y782403D02*
X439109Y782496D01*
X439149Y782587D01*
X439191Y782677D01*
X439238Y782765D01*
X439287Y782851D01*
X439340Y782935D01*
X439396Y783018D01*
X439455Y783098D01*
X439517Y783175D01*
X439582Y783250D01*
X439650Y783323D01*
X439721Y783393D01*
X439794Y783460D01*
X439870Y783525D01*
X439948Y783586D01*
X440029Y783645D01*
X440111Y783700D01*
X440196Y783752D01*
X440283Y783801D01*
X440371Y783846D01*
X440461Y783888D01*
X440553Y783927D01*
X440646Y783962D01*
X440740Y783993D01*
X440836Y784021D01*
X440932Y784045D01*
X441030Y784066D01*
X441128Y784082D01*
X441226Y784095D01*
X441325Y784104D01*
X441425Y784109D01*
X441524Y784111D01*
X441623Y784109D01*
X441723Y784103D01*
X441822Y784093D01*
X441920Y784079D01*
X442018Y784061D01*
X442115Y784040D01*
X442212Y784015D01*
X442307Y783987D01*
X442401Y783954D01*
X444841Y783066D01*
X448055Y779133D02*
X451993Y780463D01*
X447997Y769484D01*
X444947Y770594D02*
X451047Y768374D01*
D19*
G36*
X409540Y737801D02*
X412494Y745915D01*
X419654Y743309D01*
X416700Y735195D01*
X409540Y737801D01*
G37*
D18*
X944242Y44996D02*
X998568Y70333D01*
X944242Y44996D02*
X916544Y104395D01*
X970873Y129725D01*
D12*
X912260Y108840D02*
X907322Y119429D01*
X911084Y108291D02*
X913437Y109388D01*
X908499Y119977D02*
X906146Y118880D01*
X919929Y112416D02*
X922282Y113513D01*
X919929Y112416D02*
X919838Y112376D01*
X919746Y112339D01*
X919652Y112306D01*
X919557Y112276D01*
X919461Y112250D01*
X919364Y112228D01*
X919266Y112210D01*
X919168Y112195D01*
X919069Y112184D01*
X918970Y112177D01*
X918871Y112173D01*
X918771Y112174D01*
X918672Y112178D01*
X918573Y112186D01*
X918474Y112198D01*
X918376Y112213D01*
X918278Y112233D01*
X918181Y112256D01*
X918086Y112283D01*
X917991Y112313D01*
X917898Y112347D01*
X917805Y112385D01*
X917715Y112426D01*
X917626Y112470D01*
X917539Y112518D01*
X917454Y112569D01*
X917370Y112624D01*
X917289Y112681D01*
X917210Y112742D01*
X917134Y112805D01*
X917060Y112872D01*
X916989Y112941D01*
X916920Y113013D01*
X916854Y113088D01*
X916791Y113165D01*
X916731Y113244D01*
X916674Y113326D01*
X916621Y113409D01*
X916570Y113495D01*
X916523Y113583D01*
X916479Y113672D01*
X916479Y113671D02*
X913735Y119554D01*
X913736Y119555D02*
X913696Y119646D01*
X913659Y119738D01*
X913626Y119832D01*
X913596Y119927D01*
X913570Y120023D01*
X913548Y120120D01*
X913530Y120218D01*
X913515Y120316D01*
X913504Y120415D01*
X913497Y120514D01*
X913493Y120613D01*
X913494Y120713D01*
X913498Y120812D01*
X913506Y120911D01*
X913518Y121010D01*
X913533Y121108D01*
X913553Y121206D01*
X913576Y121303D01*
X913603Y121398D01*
X913633Y121493D01*
X913667Y121586D01*
X913705Y121679D01*
X913746Y121769D01*
X913790Y121858D01*
X913838Y121945D01*
X913889Y122030D01*
X913944Y122114D01*
X914001Y122195D01*
X914062Y122274D01*
X914125Y122350D01*
X914192Y122424D01*
X914261Y122495D01*
X914333Y122564D01*
X914408Y122630D01*
X914485Y122693D01*
X914564Y122753D01*
X914646Y122810D01*
X914729Y122863D01*
X914815Y122914D01*
X914903Y122961D01*
X914992Y123005D01*
X914991Y123005D02*
X917344Y124102D01*
X924537Y127455D02*
X924634Y127499D01*
X924733Y127538D01*
X924833Y127574D01*
X924935Y127607D01*
X925038Y127636D01*
X925142Y127660D01*
X925246Y127681D01*
X925352Y127699D01*
X925457Y127712D01*
X925564Y127722D01*
X925670Y127727D01*
X925777Y127729D01*
X925884Y127727D01*
X925990Y127721D01*
X926096Y127711D01*
X926202Y127697D01*
X926307Y127679D01*
X926412Y127658D01*
X926516Y127633D01*
X926618Y127603D01*
X926720Y127571D01*
X926820Y127534D01*
X926919Y127494D01*
X927016Y127450D01*
X927112Y127403D01*
X927206Y127352D01*
X927298Y127298D01*
X927388Y127241D01*
X927475Y127180D01*
X927561Y127116D01*
X927644Y127049D01*
X927725Y126980D01*
X927803Y126907D01*
X927878Y126831D01*
X927950Y126753D01*
X928020Y126672D01*
X928087Y126589D01*
X928150Y126503D01*
X928210Y126415D01*
X928267Y126325D01*
X928321Y126232D01*
X928371Y126138D01*
X928418Y126042D01*
X924536Y127456D02*
X924427Y127403D01*
X924320Y127347D01*
X924215Y127287D01*
X924112Y127224D01*
X924010Y127158D01*
X923912Y127088D01*
X923815Y127015D01*
X923721Y126939D01*
X923629Y126860D01*
X923540Y126778D01*
X923453Y126694D01*
X923370Y126606D01*
X923289Y126516D01*
X923211Y126424D01*
X923136Y126329D01*
X923064Y126231D01*
X922996Y126131D01*
X922930Y126030D01*
X922868Y125926D01*
X922810Y125820D01*
X922755Y125712D01*
X922703Y125603D01*
X922655Y125492D01*
X922610Y125379D01*
X922569Y125265D01*
X922532Y125150D01*
X922499Y125034D01*
X922469Y124916D01*
X922443Y124798D01*
X922421Y124679D01*
X922403Y124560D01*
X922389Y124439D01*
X922378Y124319D01*
X922372Y124198D01*
X922369Y124077D01*
X922370Y123956D01*
X922375Y123835D01*
X922384Y123714D01*
X922397Y123594D01*
X928496Y123572D02*
X928534Y123676D01*
X928569Y123781D01*
X928600Y123887D01*
X928628Y123994D01*
X928651Y124102D01*
X928671Y124210D01*
X928687Y124320D01*
X928699Y124429D01*
X928707Y124540D01*
X928711Y124650D01*
X928712Y124760D01*
X928708Y124871D01*
X928701Y124981D01*
X928690Y125091D01*
X928675Y125200D01*
X928656Y125309D01*
X928633Y125417D01*
X928606Y125525D01*
X928576Y125631D01*
X928542Y125736D01*
X928504Y125840D01*
X928463Y125942D01*
X928418Y126043D01*
X928496Y123572D02*
X926239Y115358D01*
X932121Y118101D01*
D19*
G36*
X924391Y67133D02*
X920742Y74959D01*
X927647Y78179D01*
X931296Y70353D01*
X924391Y67133D01*
G37*
D18*
X554990Y1005840D02*
X561340Y1012190D01*
X561340Y1024890D02*
X554990Y1031240D01*
X561340Y1037590D01*
X561340Y1050290D02*
X554990Y1056640D01*
X561340Y1062990D01*
X561340Y1075690D02*
X554990Y1082040D01*
X554990Y1005840D02*
X516890Y1005840D01*
X510540Y1012190D01*
X510540Y1024890D01*
X516890Y1031240D01*
X510540Y1037590D01*
X510540Y1050290D01*
X516890Y1056640D01*
X510540Y1062990D01*
X510540Y1075690D01*
X516890Y1082040D01*
X516890Y1031240D02*
X554990Y1031240D01*
X554990Y1056640D02*
X516890Y1056640D01*
X516890Y1082040D02*
X554990Y1082040D01*
X561340Y1075690D02*
X561340Y1062990D01*
X561340Y1050290D02*
X561340Y1037590D01*
X561340Y1024890D02*
X561340Y1012190D01*
X564690Y1012190D02*
X564690Y1024890D01*
D16*
X506293Y1008084D02*
X502539Y1008084D01*
X506293Y1008083D02*
X506358Y1008081D01*
X506422Y1008075D01*
X506486Y1008065D01*
X506550Y1008052D01*
X506612Y1008034D01*
X506673Y1008013D01*
X506733Y1007989D01*
X506791Y1007960D01*
X506848Y1007928D01*
X506902Y1007893D01*
X506954Y1007855D01*
X507004Y1007813D01*
X507051Y1007769D01*
X507095Y1007722D01*
X507137Y1007672D01*
X507175Y1007620D01*
X507210Y1007566D01*
X507242Y1007509D01*
X507271Y1007451D01*
X507295Y1007391D01*
X507316Y1007330D01*
X507334Y1007268D01*
X507347Y1007204D01*
X507357Y1007140D01*
X507363Y1007076D01*
X507365Y1007011D01*
X507365Y1006475D01*
X507365Y1011032D02*
X507365Y1012372D01*
X507363Y1012443D01*
X507357Y1012515D01*
X507348Y1012585D01*
X507335Y1012655D01*
X507318Y1012725D01*
X507297Y1012793D01*
X507273Y1012860D01*
X507245Y1012926D01*
X507214Y1012990D01*
X507179Y1013053D01*
X507141Y1013113D01*
X507100Y1013172D01*
X507056Y1013228D01*
X507009Y1013282D01*
X506960Y1013333D01*
X506907Y1013381D01*
X506852Y1013427D01*
X506795Y1013469D01*
X506735Y1013509D01*
X506674Y1013545D01*
X506610Y1013578D01*
X506545Y1013607D01*
X506479Y1013633D01*
X506411Y1013656D01*
X506342Y1013675D01*
X506272Y1013690D01*
X506202Y1013701D01*
X506131Y1013709D01*
X506060Y1013713D01*
X505988Y1013713D01*
X505917Y1013709D01*
X505846Y1013701D01*
X505776Y1013690D01*
X505706Y1013675D01*
X505637Y1013656D01*
X505569Y1013633D01*
X505503Y1013607D01*
X505438Y1013578D01*
X505374Y1013545D01*
X505313Y1013509D01*
X505253Y1013469D01*
X505196Y1013427D01*
X505141Y1013381D01*
X505088Y1013333D01*
X505039Y1013282D01*
X504992Y1013228D01*
X504948Y1013172D01*
X504907Y1013113D01*
X504869Y1013053D01*
X504834Y1012990D01*
X504803Y1012926D01*
X504775Y1012860D01*
X504751Y1012793D01*
X504730Y1012725D01*
X504713Y1012655D01*
X504700Y1012585D01*
X504691Y1012515D01*
X504685Y1012443D01*
X504683Y1012372D01*
X502539Y1012640D02*
X502539Y1011032D01*
X502539Y1012640D02*
X502541Y1012705D01*
X502547Y1012769D01*
X502557Y1012833D01*
X502570Y1012897D01*
X502588Y1012959D01*
X502609Y1013020D01*
X502633Y1013080D01*
X502662Y1013138D01*
X502694Y1013195D01*
X502729Y1013249D01*
X502767Y1013301D01*
X502809Y1013351D01*
X502853Y1013398D01*
X502900Y1013442D01*
X502950Y1013484D01*
X503002Y1013522D01*
X503056Y1013557D01*
X503113Y1013589D01*
X503171Y1013618D01*
X503231Y1013642D01*
X503292Y1013663D01*
X503354Y1013681D01*
X503418Y1013694D01*
X503482Y1013704D01*
X503546Y1013710D01*
X503611Y1013712D01*
X503676Y1013710D01*
X503740Y1013704D01*
X503804Y1013694D01*
X503868Y1013681D01*
X503930Y1013663D01*
X503991Y1013642D01*
X504051Y1013618D01*
X504109Y1013589D01*
X504166Y1013557D01*
X504220Y1013522D01*
X504272Y1013484D01*
X504322Y1013442D01*
X504369Y1013398D01*
X504413Y1013351D01*
X504455Y1013301D01*
X504493Y1013249D01*
X504528Y1013195D01*
X504560Y1013138D01*
X504589Y1013080D01*
X504613Y1013020D01*
X504634Y1012959D01*
X504652Y1012897D01*
X504665Y1012833D01*
X504675Y1012769D01*
X504681Y1012705D01*
X504683Y1012640D01*
X504684Y1012640D02*
X504684Y1011568D01*
D12*
X470913Y865225D02*
X481893Y861229D01*
X483669Y866109D01*
X485281Y870537D02*
X487057Y875417D01*
X485281Y870537D02*
X474301Y874534D01*
X476077Y879413D01*
X480513Y876417D02*
X479181Y872757D01*
X477682Y883821D02*
X488661Y879825D01*
X477682Y883821D02*
X478792Y886871D01*
X478791Y886871D02*
X478831Y886977D01*
X478876Y887081D01*
X478924Y887184D01*
X478975Y887285D01*
X479030Y887384D01*
X479088Y887481D01*
X479150Y887576D01*
X479215Y887669D01*
X479283Y887759D01*
X479354Y887847D01*
X479429Y887933D01*
X479506Y888016D01*
X479586Y888096D01*
X479669Y888173D01*
X479755Y888248D01*
X479843Y888319D01*
X479933Y888387D01*
X480026Y888452D01*
X480121Y888514D01*
X480218Y888572D01*
X480317Y888627D01*
X480418Y888678D01*
X480521Y888726D01*
X480625Y888771D01*
X480731Y888811D01*
X480838Y888848D01*
X480946Y888881D01*
X481056Y888911D01*
X481166Y888936D01*
X481277Y888958D01*
X481389Y888975D01*
X481502Y888989D01*
X481615Y888999D01*
X481728Y889005D01*
X481841Y889007D01*
X481954Y889005D01*
X482067Y888999D01*
X482180Y888989D01*
X482293Y888975D01*
X482405Y888958D01*
X482516Y888936D01*
X482626Y888911D01*
X482736Y888881D01*
X482844Y888848D01*
X482951Y888811D01*
X482952Y888810D02*
X487831Y887034D01*
X487831Y887035D02*
X487937Y886995D01*
X488041Y886950D01*
X488144Y886902D01*
X488245Y886851D01*
X488344Y886796D01*
X488441Y886738D01*
X488536Y886676D01*
X488629Y886611D01*
X488719Y886543D01*
X488807Y886472D01*
X488893Y886397D01*
X488976Y886320D01*
X489056Y886240D01*
X489133Y886157D01*
X489208Y886071D01*
X489279Y885983D01*
X489347Y885893D01*
X489412Y885800D01*
X489474Y885705D01*
X489532Y885608D01*
X489587Y885509D01*
X489638Y885408D01*
X489686Y885305D01*
X489731Y885201D01*
X489771Y885095D01*
X489808Y884988D01*
X489841Y884880D01*
X489871Y884770D01*
X489896Y884660D01*
X489918Y884549D01*
X489935Y884437D01*
X489949Y884324D01*
X489959Y884211D01*
X489965Y884098D01*
X489967Y883985D01*
X489965Y883872D01*
X489959Y883759D01*
X489949Y883646D01*
X489935Y883533D01*
X489918Y883421D01*
X489896Y883310D01*
X489871Y883200D01*
X489841Y883090D01*
X489808Y882982D01*
X489771Y882875D01*
X488661Y879825D01*
X484161Y894032D02*
X482831Y897969D01*
X493811Y893973D01*
X492701Y890923D02*
X494921Y897023D01*
D20*
G36*
X466421Y894421D02*
X468299Y893737D01*
X467615Y891859D01*
X465737Y892543D01*
X466421Y894421D01*
G37*
D12*
X483613Y860145D02*
X494593Y856149D01*
X496369Y861029D01*
X497981Y865457D02*
X499757Y870337D01*
X497981Y865457D02*
X487001Y869454D01*
X488777Y874333D01*
X493213Y871337D02*
X491881Y867677D01*
X490382Y878741D02*
X501361Y874745D01*
X490382Y878741D02*
X491492Y881791D01*
X491491Y881791D02*
X491531Y881897D01*
X491576Y882001D01*
X491624Y882104D01*
X491675Y882205D01*
X491730Y882304D01*
X491788Y882401D01*
X491850Y882496D01*
X491915Y882589D01*
X491983Y882679D01*
X492054Y882767D01*
X492129Y882853D01*
X492206Y882936D01*
X492286Y883016D01*
X492369Y883093D01*
X492455Y883168D01*
X492543Y883239D01*
X492633Y883307D01*
X492726Y883372D01*
X492821Y883434D01*
X492918Y883492D01*
X493017Y883547D01*
X493118Y883598D01*
X493221Y883646D01*
X493325Y883691D01*
X493431Y883731D01*
X493538Y883768D01*
X493646Y883801D01*
X493756Y883831D01*
X493866Y883856D01*
X493977Y883878D01*
X494089Y883895D01*
X494202Y883909D01*
X494315Y883919D01*
X494428Y883925D01*
X494541Y883927D01*
X494654Y883925D01*
X494767Y883919D01*
X494880Y883909D01*
X494993Y883895D01*
X495105Y883878D01*
X495216Y883856D01*
X495326Y883831D01*
X495436Y883801D01*
X495544Y883768D01*
X495651Y883731D01*
X495652Y883730D02*
X500531Y881954D01*
X500531Y881955D02*
X500637Y881915D01*
X500741Y881870D01*
X500844Y881822D01*
X500945Y881771D01*
X501044Y881716D01*
X501141Y881658D01*
X501236Y881596D01*
X501329Y881531D01*
X501419Y881463D01*
X501507Y881392D01*
X501593Y881317D01*
X501676Y881240D01*
X501756Y881160D01*
X501833Y881077D01*
X501908Y880991D01*
X501979Y880903D01*
X502047Y880813D01*
X502112Y880720D01*
X502174Y880625D01*
X502232Y880528D01*
X502287Y880429D01*
X502338Y880328D01*
X502386Y880225D01*
X502431Y880121D01*
X502471Y880015D01*
X502508Y879908D01*
X502541Y879800D01*
X502571Y879690D01*
X502596Y879580D01*
X502618Y879469D01*
X502635Y879357D01*
X502649Y879244D01*
X502659Y879131D01*
X502665Y879018D01*
X502667Y878905D01*
X502665Y878792D01*
X502659Y878679D01*
X502649Y878566D01*
X502635Y878453D01*
X502618Y878341D01*
X502596Y878230D01*
X502571Y878120D01*
X502541Y878010D01*
X502508Y877902D01*
X502471Y877795D01*
X501361Y874745D01*
X495642Y893194D02*
X495680Y893294D01*
X495722Y893392D01*
X495768Y893488D01*
X495817Y893583D01*
X495869Y893676D01*
X495925Y893767D01*
X495984Y893856D01*
X496046Y893942D01*
X496112Y894027D01*
X496180Y894109D01*
X496252Y894188D01*
X496326Y894265D01*
X496403Y894339D01*
X496482Y894410D01*
X496564Y894478D01*
X496649Y894543D01*
X496736Y894605D01*
X496825Y894663D01*
X496916Y894719D01*
X497009Y894771D01*
X497104Y894819D01*
X497201Y894864D01*
X497299Y894906D01*
X497399Y894944D01*
X497500Y894978D01*
X497602Y895009D01*
X497706Y895035D01*
X497810Y895058D01*
X497915Y895078D01*
X498020Y895093D01*
X498127Y895104D01*
X498233Y895112D01*
X498340Y895116D01*
X498446Y895115D01*
X498553Y895111D01*
X498659Y895103D01*
X498765Y895091D01*
X498871Y895076D01*
X498976Y895056D01*
X499080Y895033D01*
X499183Y895005D01*
X499285Y894974D01*
X499386Y894940D01*
X495642Y893195D02*
X495603Y893080D01*
X495567Y892965D01*
X495535Y892848D01*
X495507Y892730D01*
X495482Y892612D01*
X495461Y892493D01*
X495445Y892373D01*
X495432Y892252D01*
X495422Y892132D01*
X495417Y892011D01*
X495416Y891890D01*
X495419Y891769D01*
X495425Y891648D01*
X495436Y891527D01*
X495450Y891407D01*
X495468Y891288D01*
X495490Y891169D01*
X495516Y891050D01*
X495546Y890933D01*
X495579Y890817D01*
X495616Y890702D01*
X495657Y890588D01*
X495702Y890475D01*
X495750Y890364D01*
X495801Y890255D01*
X495856Y890147D01*
X495915Y890041D01*
X495977Y889937D01*
X496042Y889835D01*
X496111Y889736D01*
X496183Y889638D01*
X496257Y889543D01*
X496335Y889450D01*
X496416Y889360D01*
X496500Y889273D01*
X496586Y889188D01*
X496675Y889106D01*
X496767Y889027D01*
X496861Y888951D01*
X501188Y893248D02*
X501142Y893348D01*
X501092Y893447D01*
X501039Y893544D01*
X500983Y893639D01*
X500923Y893732D01*
X500860Y893823D01*
X500794Y893911D01*
X500725Y893998D01*
X500653Y894081D01*
X500578Y894162D01*
X500500Y894241D01*
X500420Y894316D01*
X500337Y894389D01*
X500251Y894459D01*
X500163Y894525D01*
X500073Y894589D01*
X499980Y894649D01*
X499886Y894706D01*
X499789Y894760D01*
X499691Y894810D01*
X499591Y894857D01*
X499489Y894900D01*
X499386Y894940D01*
X501188Y893248D02*
X505401Y885843D01*
X507621Y891943D01*
D20*
G36*
X479121Y889341D02*
X480999Y888657D01*
X480315Y886779D01*
X478437Y887463D01*
X479121Y889341D01*
G37*
D12*
X469193Y866309D02*
X458213Y870305D01*
X469193Y866309D02*
X470969Y871189D01*
X472581Y875617D02*
X474357Y880497D01*
X472581Y875617D02*
X461601Y879614D01*
X463377Y884493D01*
X467813Y881497D02*
X466481Y877837D01*
X464982Y888901D02*
X475961Y884905D01*
X464982Y888901D02*
X466092Y891951D01*
X466091Y891951D02*
X466131Y892057D01*
X466176Y892161D01*
X466224Y892264D01*
X466275Y892365D01*
X466330Y892464D01*
X466388Y892561D01*
X466450Y892656D01*
X466515Y892749D01*
X466583Y892839D01*
X466654Y892927D01*
X466729Y893013D01*
X466806Y893096D01*
X466886Y893176D01*
X466969Y893253D01*
X467055Y893328D01*
X467143Y893399D01*
X467233Y893467D01*
X467326Y893532D01*
X467421Y893594D01*
X467518Y893652D01*
X467617Y893707D01*
X467718Y893758D01*
X467821Y893806D01*
X467925Y893851D01*
X468031Y893891D01*
X468138Y893928D01*
X468246Y893961D01*
X468356Y893991D01*
X468466Y894016D01*
X468577Y894038D01*
X468689Y894055D01*
X468802Y894069D01*
X468915Y894079D01*
X469028Y894085D01*
X469141Y894087D01*
X469254Y894085D01*
X469367Y894079D01*
X469480Y894069D01*
X469593Y894055D01*
X469705Y894038D01*
X469816Y894016D01*
X469926Y893991D01*
X470036Y893961D01*
X470144Y893928D01*
X470251Y893891D01*
X470252Y893890D02*
X475131Y892114D01*
X475131Y892115D02*
X475237Y892075D01*
X475341Y892030D01*
X475444Y891982D01*
X475545Y891931D01*
X475644Y891876D01*
X475741Y891818D01*
X475836Y891756D01*
X475929Y891691D01*
X476019Y891623D01*
X476107Y891552D01*
X476193Y891477D01*
X476276Y891400D01*
X476356Y891320D01*
X476433Y891237D01*
X476508Y891151D01*
X476579Y891063D01*
X476647Y890973D01*
X476712Y890880D01*
X476774Y890785D01*
X476832Y890688D01*
X476887Y890589D01*
X476938Y890488D01*
X476986Y890385D01*
X477031Y890281D01*
X477071Y890175D01*
X477108Y890068D01*
X477141Y889960D01*
X477171Y889850D01*
X477196Y889740D01*
X477218Y889629D01*
X477235Y889517D01*
X477249Y889404D01*
X477259Y889291D01*
X477265Y889178D01*
X477267Y889065D01*
X477265Y888952D01*
X477259Y888839D01*
X477249Y888726D01*
X477235Y888613D01*
X477218Y888501D01*
X477196Y888390D01*
X477171Y888280D01*
X477141Y888170D01*
X477108Y888062D01*
X477071Y887955D01*
X475961Y884905D01*
X480001Y896003D02*
X481111Y899053D01*
X481148Y899160D01*
X481181Y899268D01*
X481211Y899378D01*
X481236Y899488D01*
X481258Y899599D01*
X481275Y899711D01*
X481289Y899824D01*
X481299Y899937D01*
X481305Y900050D01*
X481307Y900163D01*
X481305Y900276D01*
X481299Y900389D01*
X481289Y900502D01*
X481275Y900615D01*
X481258Y900727D01*
X481236Y900838D01*
X481211Y900948D01*
X481181Y901058D01*
X481148Y901166D01*
X481111Y901273D01*
X481071Y901379D01*
X481026Y901483D01*
X480978Y901586D01*
X480927Y901687D01*
X480872Y901786D01*
X480814Y901883D01*
X480752Y901978D01*
X480687Y902071D01*
X480619Y902161D01*
X480548Y902249D01*
X480473Y902335D01*
X480396Y902418D01*
X480316Y902498D01*
X480233Y902575D01*
X480147Y902650D01*
X480059Y902721D01*
X479969Y902789D01*
X479876Y902854D01*
X479781Y902916D01*
X479684Y902974D01*
X479585Y903029D01*
X479484Y903080D01*
X479381Y903128D01*
X479277Y903173D01*
X479171Y903213D01*
X479064Y903250D01*
X478956Y903283D01*
X478846Y903313D01*
X478736Y903338D01*
X478625Y903360D01*
X478513Y903377D01*
X478400Y903391D01*
X478287Y903401D01*
X478174Y903407D01*
X478061Y903409D01*
X477948Y903407D01*
X477835Y903401D01*
X477722Y903391D01*
X477609Y903377D01*
X477497Y903360D01*
X477386Y903338D01*
X477276Y903313D01*
X477166Y903283D01*
X477058Y903250D01*
X476951Y903213D01*
X476845Y903173D01*
X476741Y903128D01*
X476638Y903080D01*
X476537Y903029D01*
X476438Y902974D01*
X476341Y902916D01*
X476246Y902854D01*
X476153Y902789D01*
X476063Y902721D01*
X475975Y902650D01*
X475889Y902575D01*
X475806Y902498D01*
X475726Y902418D01*
X475649Y902335D01*
X475574Y902249D01*
X475503Y902161D01*
X475435Y902071D01*
X475370Y901978D01*
X475308Y901883D01*
X475250Y901786D01*
X475195Y901687D01*
X475144Y901586D01*
X475096Y901483D01*
X475051Y901379D01*
X475011Y901273D01*
X470353Y903659D02*
X469021Y900000D01*
X470354Y903659D02*
X470390Y903753D01*
X470430Y903845D01*
X470473Y903936D01*
X470520Y904025D01*
X470570Y904112D01*
X470624Y904198D01*
X470681Y904281D01*
X470741Y904361D01*
X470804Y904440D01*
X470871Y904516D01*
X470940Y904589D01*
X471012Y904659D01*
X471086Y904727D01*
X471163Y904792D01*
X471243Y904853D01*
X471325Y904912D01*
X471409Y904967D01*
X471495Y905019D01*
X471583Y905068D01*
X471673Y905113D01*
X471765Y905155D01*
X471858Y905193D01*
X471953Y905227D01*
X472048Y905258D01*
X472145Y905285D01*
X472243Y905308D01*
X472342Y905328D01*
X472442Y905343D01*
X472542Y905355D01*
X472642Y905363D01*
X472743Y905367D01*
X472843Y905367D01*
X472944Y905363D01*
X473044Y905355D01*
X473144Y905343D01*
X473244Y905328D01*
X473343Y905308D01*
X473441Y905285D01*
X473538Y905258D01*
X473633Y905227D01*
X473728Y905193D01*
X473821Y905155D01*
X473913Y905113D01*
X474003Y905068D01*
X474091Y905019D01*
X474177Y904967D01*
X474261Y904912D01*
X474343Y904853D01*
X474423Y904792D01*
X474500Y904727D01*
X474574Y904659D01*
X474646Y904589D01*
X474715Y904516D01*
X474782Y904440D01*
X474845Y904361D01*
X474905Y904281D01*
X474962Y904198D01*
X475016Y904112D01*
X475066Y904025D01*
X475113Y903936D01*
X475156Y903845D01*
X475196Y903753D01*
X475232Y903659D01*
X475265Y903564D01*
X475294Y903467D01*
X475319Y903370D01*
X475340Y903271D01*
X475358Y903172D01*
X475371Y903072D01*
X475381Y902972D01*
X475387Y902872D01*
X475389Y902771D01*
X475387Y902670D01*
X475381Y902570D01*
X475371Y902470D01*
X475358Y902370D01*
X475340Y902271D01*
X475319Y902172D01*
X475294Y902075D01*
X475265Y901978D01*
X475232Y901883D01*
X475233Y901883D02*
X474345Y899443D01*
D20*
G36*
X453721Y899501D02*
X455599Y898817D01*
X454915Y896939D01*
X453037Y897623D01*
X453721Y899501D01*
G37*
D12*
X445513Y875385D02*
X456493Y871389D01*
X458269Y876269D01*
X459881Y880697D02*
X461657Y885577D01*
X459881Y880697D02*
X448901Y884694D01*
X450677Y889573D01*
X455113Y886577D02*
X453781Y882917D01*
X452282Y893981D02*
X463261Y889985D01*
X452282Y893981D02*
X453392Y897031D01*
X453391Y897031D02*
X453431Y897137D01*
X453476Y897241D01*
X453524Y897344D01*
X453575Y897445D01*
X453630Y897544D01*
X453688Y897641D01*
X453750Y897736D01*
X453815Y897829D01*
X453883Y897919D01*
X453954Y898007D01*
X454029Y898093D01*
X454106Y898176D01*
X454186Y898256D01*
X454269Y898333D01*
X454355Y898408D01*
X454443Y898479D01*
X454533Y898547D01*
X454626Y898612D01*
X454721Y898674D01*
X454818Y898732D01*
X454917Y898787D01*
X455018Y898838D01*
X455121Y898886D01*
X455225Y898931D01*
X455331Y898971D01*
X455438Y899008D01*
X455546Y899041D01*
X455656Y899071D01*
X455766Y899096D01*
X455877Y899118D01*
X455989Y899135D01*
X456102Y899149D01*
X456215Y899159D01*
X456328Y899165D01*
X456441Y899167D01*
X456554Y899165D01*
X456667Y899159D01*
X456780Y899149D01*
X456893Y899135D01*
X457005Y899118D01*
X457116Y899096D01*
X457226Y899071D01*
X457336Y899041D01*
X457444Y899008D01*
X457551Y898971D01*
X457552Y898970D02*
X462431Y897194D01*
X462431Y897195D02*
X462537Y897155D01*
X462641Y897110D01*
X462744Y897062D01*
X462845Y897011D01*
X462944Y896956D01*
X463041Y896898D01*
X463136Y896836D01*
X463229Y896771D01*
X463319Y896703D01*
X463407Y896632D01*
X463493Y896557D01*
X463576Y896480D01*
X463656Y896400D01*
X463733Y896317D01*
X463808Y896231D01*
X463879Y896143D01*
X463947Y896053D01*
X464012Y895960D01*
X464074Y895865D01*
X464132Y895768D01*
X464187Y895669D01*
X464238Y895568D01*
X464286Y895465D01*
X464331Y895361D01*
X464371Y895255D01*
X464408Y895148D01*
X464441Y895040D01*
X464471Y894930D01*
X464496Y894820D01*
X464518Y894709D01*
X464535Y894597D01*
X464549Y894484D01*
X464559Y894371D01*
X464565Y894258D01*
X464567Y894145D01*
X464565Y894032D01*
X464559Y893919D01*
X464549Y893806D01*
X464535Y893693D01*
X464518Y893581D01*
X464496Y893470D01*
X464471Y893360D01*
X464441Y893250D01*
X464408Y893142D01*
X464371Y893035D01*
X463261Y889985D01*
X464861Y901971D02*
X457209Y907519D01*
X464861Y901971D02*
X467081Y908071D01*
X463975Y907129D02*
X468855Y905353D01*
D20*
G36*
X441021Y904581D02*
X442899Y903897D01*
X442215Y902019D01*
X440337Y902703D01*
X441021Y904581D01*
G37*
D16*
X174154Y309529D02*
X163210Y279459D01*
X174154Y309529D02*
X187310Y304741D01*
X176366Y274671D01*
X163210Y279459D01*
D17*
X175298Y311142D02*
X178878Y309839D01*
X175298Y311142D02*
X175660Y312137D01*
X175661Y312137D02*
X175684Y312196D01*
X175712Y312254D01*
X175742Y312310D01*
X175776Y312364D01*
X175813Y312416D01*
X175854Y312466D01*
X175897Y312513D01*
X175943Y312557D01*
X175991Y312599D01*
X176042Y312638D01*
X176096Y312673D01*
X176151Y312705D01*
X176208Y312734D01*
X176267Y312759D01*
X176327Y312781D01*
X176388Y312799D01*
X176450Y312813D01*
X176513Y312823D01*
X176577Y312830D01*
X176641Y312833D01*
X176705Y312832D01*
X176768Y312827D01*
X176832Y312818D01*
X176894Y312806D01*
X176956Y312789D01*
X177017Y312769D01*
X177076Y312746D01*
X177134Y312718D01*
X177190Y312688D01*
X177244Y312654D01*
X177296Y312617D01*
X177346Y312576D01*
X177393Y312533D01*
X177437Y312487D01*
X177479Y312439D01*
X177518Y312388D01*
X177553Y312334D01*
X177585Y312279D01*
X177614Y312222D01*
X177639Y312163D01*
X177661Y312103D01*
X177679Y312042D01*
X177693Y311980D01*
X177703Y311917D01*
X177710Y311853D01*
X177713Y311789D01*
X177712Y311725D01*
X177707Y311662D01*
X177698Y311598D01*
X177686Y311536D01*
X177669Y311474D01*
X177649Y311413D01*
X177287Y310418D01*
X177722Y311612D02*
X179602Y311828D01*
X178161Y316224D02*
X178104Y316242D01*
X178046Y316257D01*
X177987Y316269D01*
X177928Y316276D01*
X177868Y316280D01*
X177808Y316281D01*
X177749Y316277D01*
X177689Y316270D01*
X177630Y316259D01*
X177572Y316244D01*
X177515Y316226D01*
X177460Y316204D01*
X177405Y316179D01*
X177353Y316150D01*
X177302Y316118D01*
X177254Y316083D01*
X177207Y316045D01*
X177163Y316004D01*
X177122Y315961D01*
X177084Y315915D01*
X177049Y315866D01*
X177016Y315816D01*
X176987Y315764D01*
X176962Y315710D01*
X176939Y315654D01*
X176940Y315654D02*
X176919Y315590D01*
X176901Y315526D01*
X176887Y315460D01*
X176876Y315394D01*
X176870Y315328D01*
X176866Y315261D01*
X176867Y315194D01*
X176871Y315127D01*
X176879Y315061D01*
X176890Y314995D01*
X176905Y314929D01*
X176923Y314865D01*
X176945Y314802D01*
X176971Y314740D01*
X176999Y314679D01*
X177031Y314621D01*
X177067Y314564D01*
X177105Y314509D01*
X177146Y314456D01*
X177190Y314406D01*
X177237Y314358D01*
X177286Y314312D01*
X177337Y314270D01*
X178748Y315671D02*
X178723Y315724D01*
X178695Y315776D01*
X178664Y315826D01*
X178630Y315875D01*
X178593Y315921D01*
X178553Y315965D01*
X178511Y316007D01*
X178467Y316046D01*
X178421Y316083D01*
X178372Y316116D01*
X178322Y316147D01*
X178270Y316175D01*
X178216Y316200D01*
X178161Y316222D01*
X178748Y315671D02*
X180122Y313256D01*
X180846Y315245D01*
D16*
X158914Y314609D02*
X147970Y284539D01*
X158914Y314609D02*
X172070Y309821D01*
X161126Y279751D01*
X147970Y284539D01*
D17*
X160058Y316222D02*
X163638Y314919D01*
X160058Y316222D02*
X160420Y317217D01*
X160421Y317217D02*
X160444Y317276D01*
X160472Y317334D01*
X160502Y317390D01*
X160536Y317444D01*
X160573Y317496D01*
X160614Y317546D01*
X160657Y317593D01*
X160703Y317637D01*
X160751Y317679D01*
X160802Y317718D01*
X160856Y317753D01*
X160911Y317785D01*
X160968Y317814D01*
X161027Y317839D01*
X161087Y317861D01*
X161148Y317879D01*
X161210Y317893D01*
X161273Y317903D01*
X161337Y317910D01*
X161401Y317913D01*
X161465Y317912D01*
X161528Y317907D01*
X161592Y317898D01*
X161654Y317886D01*
X161716Y317869D01*
X161777Y317849D01*
X161836Y317826D01*
X161894Y317798D01*
X161950Y317768D01*
X162004Y317734D01*
X162056Y317697D01*
X162106Y317656D01*
X162153Y317613D01*
X162197Y317567D01*
X162239Y317519D01*
X162278Y317468D01*
X162313Y317414D01*
X162345Y317359D01*
X162374Y317302D01*
X162399Y317243D01*
X162421Y317183D01*
X162439Y317122D01*
X162453Y317060D01*
X162463Y316997D01*
X162470Y316933D01*
X162473Y316869D01*
X162472Y316805D01*
X162467Y316742D01*
X162458Y316678D01*
X162446Y316616D01*
X162429Y316554D01*
X162409Y316493D01*
X162047Y315498D01*
X162482Y316692D02*
X164362Y316908D01*
X164882Y318336D02*
X165244Y319331D01*
X165264Y319392D01*
X165281Y319454D01*
X165293Y319516D01*
X165302Y319580D01*
X165307Y319643D01*
X165308Y319707D01*
X165305Y319771D01*
X165298Y319835D01*
X165288Y319898D01*
X165274Y319960D01*
X165256Y320021D01*
X165234Y320081D01*
X165209Y320140D01*
X165180Y320197D01*
X165148Y320252D01*
X165113Y320306D01*
X165074Y320357D01*
X165032Y320405D01*
X164988Y320451D01*
X164941Y320494D01*
X164891Y320535D01*
X164839Y320572D01*
X164785Y320606D01*
X164729Y320636D01*
X164671Y320664D01*
X164612Y320687D01*
X164551Y320707D01*
X164489Y320724D01*
X164427Y320736D01*
X164363Y320745D01*
X164300Y320750D01*
X164236Y320751D01*
X164172Y320748D01*
X164108Y320741D01*
X164045Y320731D01*
X163983Y320717D01*
X163922Y320699D01*
X163862Y320677D01*
X163803Y320652D01*
X163746Y320623D01*
X163691Y320591D01*
X163637Y320556D01*
X163586Y320517D01*
X163538Y320475D01*
X163492Y320431D01*
X163449Y320384D01*
X163408Y320334D01*
X163371Y320282D01*
X163337Y320228D01*
X163307Y320172D01*
X163279Y320114D01*
X163256Y320055D01*
X161736Y320833D02*
X161302Y319640D01*
X161736Y320833D02*
X161758Y320886D01*
X161783Y320938D01*
X161812Y320989D01*
X161844Y321037D01*
X161879Y321083D01*
X161917Y321126D01*
X161959Y321166D01*
X162002Y321204D01*
X162049Y321239D01*
X162097Y321270D01*
X162148Y321298D01*
X162200Y321322D01*
X162254Y321343D01*
X162310Y321360D01*
X162366Y321374D01*
X162423Y321383D01*
X162481Y321388D01*
X162538Y321390D01*
X162596Y321388D01*
X162654Y321381D01*
X162711Y321371D01*
X162767Y321357D01*
X162822Y321339D01*
X162875Y321317D01*
X162927Y321292D01*
X162978Y321263D01*
X163026Y321231D01*
X163071Y321196D01*
X163115Y321158D01*
X163155Y321116D01*
X163193Y321073D01*
X163228Y321026D01*
X163259Y320978D01*
X163287Y320927D01*
X163311Y320875D01*
X163332Y320821D01*
X163349Y320765D01*
X163363Y320709D01*
X163372Y320652D01*
X163377Y320594D01*
X163379Y320537D01*
X163377Y320479D01*
X163370Y320421D01*
X163360Y320364D01*
X163346Y320308D01*
X163328Y320253D01*
X163327Y320254D02*
X163038Y319458D01*
D16*
X219090Y312479D02*
X230034Y342549D01*
X243190Y337761D01*
X232246Y307691D01*
X219090Y312479D01*
D17*
X231178Y344162D02*
X234758Y342859D01*
X231178Y344162D02*
X231540Y345157D01*
X231541Y345157D02*
X231564Y345216D01*
X231592Y345274D01*
X231622Y345330D01*
X231656Y345384D01*
X231693Y345436D01*
X231734Y345486D01*
X231777Y345533D01*
X231823Y345577D01*
X231871Y345619D01*
X231922Y345658D01*
X231976Y345693D01*
X232031Y345725D01*
X232088Y345754D01*
X232147Y345779D01*
X232207Y345801D01*
X232268Y345819D01*
X232330Y345833D01*
X232393Y345843D01*
X232457Y345850D01*
X232521Y345853D01*
X232585Y345852D01*
X232648Y345847D01*
X232712Y345838D01*
X232774Y345826D01*
X232836Y345809D01*
X232897Y345789D01*
X232956Y345766D01*
X233014Y345738D01*
X233070Y345708D01*
X233124Y345674D01*
X233176Y345637D01*
X233226Y345596D01*
X233273Y345553D01*
X233317Y345507D01*
X233359Y345459D01*
X233398Y345408D01*
X233433Y345354D01*
X233465Y345299D01*
X233494Y345242D01*
X233519Y345183D01*
X233541Y345123D01*
X233559Y345062D01*
X233573Y345000D01*
X233583Y344937D01*
X233590Y344873D01*
X233593Y344809D01*
X233592Y344745D01*
X233587Y344682D01*
X233578Y344618D01*
X233566Y344556D01*
X233549Y344494D01*
X233529Y344433D01*
X233167Y343438D01*
X233602Y344632D02*
X235482Y344848D01*
X235206Y346566D02*
X232711Y348375D01*
X235206Y346566D02*
X235930Y348555D01*
X234918Y348248D02*
X236509Y347669D01*
D16*
X480710Y909379D02*
X491654Y939449D01*
X504810Y934661D01*
X493866Y904591D01*
X480710Y909379D01*
D17*
X492798Y941062D02*
X496378Y939759D01*
X492798Y941062D02*
X493160Y942057D01*
X493161Y942057D02*
X493184Y942116D01*
X493212Y942174D01*
X493242Y942230D01*
X493276Y942284D01*
X493313Y942336D01*
X493354Y942386D01*
X493397Y942433D01*
X493443Y942477D01*
X493491Y942519D01*
X493542Y942558D01*
X493596Y942593D01*
X493651Y942625D01*
X493708Y942654D01*
X493767Y942679D01*
X493827Y942701D01*
X493888Y942719D01*
X493950Y942733D01*
X494013Y942743D01*
X494077Y942750D01*
X494141Y942753D01*
X494205Y942752D01*
X494268Y942747D01*
X494332Y942738D01*
X494394Y942726D01*
X494456Y942709D01*
X494517Y942689D01*
X494576Y942666D01*
X494634Y942638D01*
X494690Y942608D01*
X494744Y942574D01*
X494796Y942537D01*
X494846Y942496D01*
X494893Y942453D01*
X494937Y942407D01*
X494979Y942359D01*
X495018Y942308D01*
X495053Y942254D01*
X495085Y942199D01*
X495114Y942142D01*
X495139Y942083D01*
X495161Y942023D01*
X495179Y941962D01*
X495193Y941900D01*
X495203Y941837D01*
X495210Y941773D01*
X495213Y941709D01*
X495212Y941645D01*
X495207Y941582D01*
X495198Y941518D01*
X495186Y941456D01*
X495169Y941394D01*
X495149Y941333D01*
X494787Y940338D01*
X495222Y941532D02*
X497102Y941748D01*
X497622Y943176D02*
X498056Y944370D01*
X498057Y944369D02*
X498074Y944422D01*
X498088Y944476D01*
X498098Y944530D01*
X498105Y944585D01*
X498108Y944641D01*
X498107Y944696D01*
X498103Y944751D01*
X498095Y944806D01*
X498084Y944860D01*
X498069Y944914D01*
X498050Y944966D01*
X498029Y945017D01*
X498004Y945066D01*
X497975Y945114D01*
X497944Y945160D01*
X497910Y945203D01*
X497873Y945245D01*
X497833Y945283D01*
X497791Y945320D01*
X497747Y945353D01*
X497700Y945383D01*
X497652Y945410D01*
X497602Y945434D01*
X497551Y945455D01*
X497550Y945455D02*
X497153Y945600D01*
X497098Y945618D01*
X497042Y945632D01*
X496985Y945642D01*
X496927Y945649D01*
X496869Y945651D01*
X496812Y945649D01*
X496754Y945644D01*
X496697Y945635D01*
X496641Y945621D01*
X496585Y945604D01*
X496531Y945583D01*
X496479Y945559D01*
X496428Y945531D01*
X496380Y945500D01*
X496333Y945465D01*
X496290Y945427D01*
X496248Y945387D01*
X496210Y945344D01*
X496175Y945298D01*
X496143Y945250D01*
X496114Y945199D01*
X496089Y945147D01*
X496067Y945094D01*
X495633Y943900D01*
X494042Y944480D01*
X494766Y946469D01*
D16*
X241359Y189850D02*
X271429Y178906D01*
X266641Y165750D01*
X236571Y176694D01*
X241359Y189850D01*
D17*
X273042Y177762D02*
X271739Y174182D01*
X273042Y177762D02*
X274037Y177400D01*
X274037Y177399D02*
X274096Y177376D01*
X274154Y177348D01*
X274210Y177318D01*
X274264Y177284D01*
X274316Y177247D01*
X274366Y177206D01*
X274413Y177163D01*
X274457Y177117D01*
X274499Y177069D01*
X274538Y177018D01*
X274573Y176964D01*
X274605Y176909D01*
X274634Y176852D01*
X274659Y176793D01*
X274681Y176733D01*
X274699Y176672D01*
X274713Y176610D01*
X274723Y176547D01*
X274730Y176483D01*
X274733Y176419D01*
X274732Y176355D01*
X274727Y176292D01*
X274718Y176228D01*
X274706Y176166D01*
X274689Y176104D01*
X274669Y176043D01*
X274646Y175984D01*
X274618Y175926D01*
X274588Y175870D01*
X274554Y175816D01*
X274517Y175764D01*
X274476Y175714D01*
X274433Y175667D01*
X274387Y175623D01*
X274339Y175581D01*
X274288Y175542D01*
X274234Y175507D01*
X274179Y175475D01*
X274122Y175446D01*
X274063Y175421D01*
X274003Y175399D01*
X273942Y175381D01*
X273880Y175367D01*
X273817Y175357D01*
X273753Y175350D01*
X273689Y175347D01*
X273625Y175348D01*
X273562Y175353D01*
X273498Y175362D01*
X273436Y175374D01*
X273374Y175391D01*
X273313Y175411D01*
X272318Y175773D01*
X273512Y175338D02*
X273728Y173458D01*
X275880Y174927D02*
X277074Y174492D01*
X277074Y174493D02*
X277127Y174471D01*
X277179Y174446D01*
X277230Y174417D01*
X277278Y174385D01*
X277324Y174350D01*
X277367Y174312D01*
X277407Y174270D01*
X277445Y174227D01*
X277480Y174180D01*
X277511Y174132D01*
X277539Y174081D01*
X277563Y174029D01*
X277584Y173975D01*
X277601Y173919D01*
X277615Y173863D01*
X277624Y173806D01*
X277629Y173748D01*
X277631Y173691D01*
X277629Y173633D01*
X277622Y173575D01*
X277612Y173518D01*
X277598Y173462D01*
X277580Y173407D01*
X277507Y173208D01*
X277484Y173149D01*
X277456Y173091D01*
X277426Y173035D01*
X277392Y172981D01*
X277355Y172929D01*
X277314Y172879D01*
X277271Y172832D01*
X277225Y172788D01*
X277177Y172746D01*
X277126Y172707D01*
X277073Y172672D01*
X277017Y172640D01*
X276960Y172611D01*
X276901Y172586D01*
X276841Y172564D01*
X276780Y172546D01*
X276718Y172532D01*
X276655Y172522D01*
X276591Y172515D01*
X276527Y172512D01*
X276463Y172513D01*
X276400Y172518D01*
X276336Y172527D01*
X276274Y172539D01*
X276212Y172556D01*
X276151Y172576D01*
X276092Y172599D01*
X276034Y172627D01*
X275978Y172657D01*
X275924Y172691D01*
X275872Y172728D01*
X275822Y172769D01*
X275775Y172812D01*
X275731Y172858D01*
X275689Y172906D01*
X275650Y172957D01*
X275615Y173011D01*
X275583Y173066D01*
X275554Y173123D01*
X275529Y173182D01*
X275507Y173242D01*
X275489Y173303D01*
X275475Y173365D01*
X275465Y173428D01*
X275458Y173492D01*
X275455Y173556D01*
X275456Y173620D01*
X275461Y173684D01*
X275470Y173747D01*
X275482Y173810D01*
X275499Y173871D01*
X275519Y173932D01*
X275518Y173932D02*
X275880Y174927D01*
X275881Y174927D02*
X275910Y175002D01*
X275943Y175076D01*
X275980Y175148D01*
X276019Y175218D01*
X276062Y175286D01*
X276109Y175352D01*
X276158Y175416D01*
X276210Y175477D01*
X276265Y175536D01*
X276323Y175592D01*
X276384Y175645D01*
X276447Y175695D01*
X276512Y175742D01*
X276579Y175787D01*
X276649Y175827D01*
X276720Y175865D01*
X276793Y175899D01*
X276868Y175930D01*
X276944Y175956D01*
X277021Y175980D01*
X277099Y175999D01*
X277178Y176015D01*
X277258Y176027D01*
X277338Y176036D01*
X277418Y176040D01*
X277499Y176041D01*
X277579Y176038D01*
X277660Y176031D01*
X277739Y176020D01*
X277819Y176005D01*
X277897Y175987D01*
X277975Y175965D01*
X278051Y175939D01*
D16*
X276509Y194146D02*
X246439Y205090D01*
X276509Y194146D02*
X271721Y180990D01*
X241651Y191934D01*
X246439Y205090D01*
D17*
X278122Y193002D02*
X276819Y189422D01*
X278122Y193002D02*
X279117Y192640D01*
X279117Y192639D02*
X279176Y192616D01*
X279234Y192588D01*
X279290Y192558D01*
X279344Y192524D01*
X279396Y192487D01*
X279446Y192446D01*
X279493Y192403D01*
X279537Y192357D01*
X279579Y192309D01*
X279618Y192258D01*
X279653Y192204D01*
X279685Y192149D01*
X279714Y192092D01*
X279739Y192033D01*
X279761Y191973D01*
X279779Y191912D01*
X279793Y191850D01*
X279803Y191787D01*
X279810Y191723D01*
X279813Y191659D01*
X279812Y191595D01*
X279807Y191532D01*
X279798Y191468D01*
X279786Y191406D01*
X279769Y191344D01*
X279749Y191283D01*
X279726Y191224D01*
X279698Y191166D01*
X279668Y191110D01*
X279634Y191056D01*
X279597Y191004D01*
X279556Y190954D01*
X279513Y190907D01*
X279467Y190863D01*
X279419Y190821D01*
X279368Y190782D01*
X279314Y190747D01*
X279259Y190715D01*
X279202Y190686D01*
X279143Y190661D01*
X279083Y190639D01*
X279022Y190621D01*
X278960Y190607D01*
X278897Y190597D01*
X278833Y190590D01*
X278769Y190587D01*
X278705Y190588D01*
X278642Y190593D01*
X278578Y190602D01*
X278516Y190614D01*
X278454Y190631D01*
X278393Y190651D01*
X277398Y191013D01*
X278592Y190578D02*
X278808Y188698D01*
X281395Y191360D02*
X281540Y191758D01*
X283529Y191034D01*
X281231Y187816D01*
D16*
X313526Y267051D02*
X324470Y297121D01*
X313526Y267051D02*
X300370Y271839D01*
X311314Y301909D01*
X324470Y297121D01*
D17*
X310414Y260031D02*
X306834Y261334D01*
X307196Y262329D01*
X307219Y262388D01*
X307247Y262446D01*
X307277Y262502D01*
X307311Y262556D01*
X307348Y262608D01*
X307389Y262658D01*
X307432Y262705D01*
X307478Y262749D01*
X307526Y262791D01*
X307577Y262830D01*
X307631Y262865D01*
X307686Y262897D01*
X307743Y262926D01*
X307802Y262951D01*
X307862Y262973D01*
X307923Y262991D01*
X307985Y263005D01*
X308048Y263015D01*
X308112Y263022D01*
X308176Y263025D01*
X308240Y263024D01*
X308303Y263019D01*
X308367Y263010D01*
X308429Y262998D01*
X308491Y262981D01*
X308552Y262961D01*
X308611Y262938D01*
X308669Y262910D01*
X308725Y262880D01*
X308779Y262846D01*
X308831Y262809D01*
X308881Y262768D01*
X308928Y262725D01*
X308972Y262679D01*
X309014Y262631D01*
X309053Y262580D01*
X309088Y262526D01*
X309120Y262471D01*
X309149Y262414D01*
X309174Y262355D01*
X309196Y262295D01*
X309214Y262234D01*
X309228Y262172D01*
X309238Y262109D01*
X309245Y262045D01*
X309248Y261981D01*
X309247Y261917D01*
X309242Y261854D01*
X309233Y261790D01*
X309221Y261728D01*
X309204Y261666D01*
X309184Y261605D01*
X309185Y261605D02*
X308823Y260610D01*
X309257Y261804D02*
X311138Y262020D01*
X310663Y263811D02*
X310604Y263834D01*
X310546Y263862D01*
X310490Y263892D01*
X310436Y263926D01*
X310384Y263963D01*
X310334Y264004D01*
X310287Y264047D01*
X310243Y264093D01*
X310201Y264141D01*
X310162Y264192D01*
X310127Y264246D01*
X310095Y264301D01*
X310066Y264358D01*
X310041Y264417D01*
X310019Y264477D01*
X310001Y264538D01*
X309987Y264600D01*
X309977Y264663D01*
X309970Y264727D01*
X309967Y264791D01*
X309968Y264855D01*
X309973Y264918D01*
X309982Y264982D01*
X309994Y265044D01*
X310011Y265106D01*
X310031Y265167D01*
X310054Y265226D01*
X310082Y265284D01*
X310112Y265340D01*
X310146Y265394D01*
X310183Y265446D01*
X310224Y265496D01*
X310267Y265543D01*
X310313Y265587D01*
X310361Y265629D01*
X310412Y265668D01*
X310466Y265703D01*
X310521Y265735D01*
X310578Y265764D01*
X310637Y265789D01*
X310697Y265811D01*
X310758Y265829D01*
X310820Y265843D01*
X310883Y265853D01*
X310947Y265860D01*
X311011Y265863D01*
X311075Y265862D01*
X311138Y265857D01*
X311202Y265848D01*
X311264Y265836D01*
X311326Y265819D01*
X311387Y265799D01*
X311446Y265776D01*
X311504Y265748D01*
X311560Y265718D01*
X311614Y265684D01*
X311666Y265647D01*
X311716Y265606D01*
X311763Y265563D01*
X311807Y265517D01*
X311849Y265469D01*
X311888Y265418D01*
X311923Y265364D01*
X311955Y265309D01*
X311984Y265252D01*
X312009Y265193D01*
X312031Y265133D01*
X312049Y265072D01*
X312063Y265010D01*
X312073Y264947D01*
X312080Y264883D01*
X312083Y264819D01*
X312082Y264755D01*
X312077Y264692D01*
X312068Y264628D01*
X312056Y264566D01*
X312039Y264504D01*
X312019Y264443D01*
X311996Y264384D01*
X311968Y264326D01*
X311938Y264270D01*
X311904Y264216D01*
X311867Y264164D01*
X311826Y264114D01*
X311783Y264067D01*
X311737Y264023D01*
X311689Y263981D01*
X311638Y263942D01*
X311584Y263907D01*
X311529Y263875D01*
X311472Y263846D01*
X311413Y263821D01*
X311353Y263799D01*
X311292Y263781D01*
X311230Y263767D01*
X311167Y263757D01*
X311103Y263750D01*
X311039Y263747D01*
X310975Y263748D01*
X310912Y263753D01*
X310848Y263762D01*
X310786Y263774D01*
X310724Y263791D01*
X310663Y263811D01*
X308945Y264661D02*
X308893Y264682D01*
X308842Y264707D01*
X308793Y264735D01*
X308745Y264766D01*
X308700Y264800D01*
X308658Y264837D01*
X308617Y264877D01*
X308580Y264920D01*
X308546Y264965D01*
X308514Y265012D01*
X308486Y265061D01*
X308461Y265112D01*
X308440Y265164D01*
X308422Y265218D01*
X308408Y265273D01*
X308398Y265329D01*
X308391Y265385D01*
X308388Y265441D01*
X308389Y265498D01*
X308394Y265554D01*
X308402Y265610D01*
X308414Y265666D01*
X308430Y265720D01*
X308449Y265773D01*
X308472Y265825D01*
X308498Y265875D01*
X308528Y265923D01*
X308561Y265969D01*
X308596Y266013D01*
X308635Y266055D01*
X308676Y266094D01*
X308720Y266129D01*
X308766Y266162D01*
X308814Y266192D01*
X308864Y266219D01*
X308916Y266242D01*
X308969Y266261D01*
X309023Y266277D01*
X309079Y266289D01*
X309135Y266298D01*
X309191Y266303D01*
X309248Y266304D01*
X309304Y266301D01*
X309360Y266295D01*
X309416Y266284D01*
X309471Y266270D01*
X309525Y266253D01*
X309578Y266231D01*
X309630Y266206D01*
X309681Y266177D01*
X309729Y266145D01*
X309775Y266110D01*
X309818Y266072D01*
X309858Y266030D01*
X309896Y265987D01*
X309931Y265940D01*
X309962Y265892D01*
X309990Y265841D01*
X310014Y265789D01*
X310035Y265735D01*
X310052Y265679D01*
X310066Y265623D01*
X310075Y265566D01*
X310080Y265508D01*
X310082Y265451D01*
X310080Y265393D01*
X310073Y265335D01*
X310063Y265278D01*
X310049Y265222D01*
X310031Y265167D01*
X310009Y265114D01*
X309984Y265062D01*
X309955Y265011D01*
X309923Y264963D01*
X309888Y264918D01*
X309850Y264874D01*
X309808Y264834D01*
X309765Y264796D01*
X309718Y264761D01*
X309670Y264730D01*
X309619Y264702D01*
X309567Y264678D01*
X309513Y264657D01*
X309457Y264640D01*
X309401Y264626D01*
X309344Y264617D01*
X309286Y264612D01*
X309229Y264610D01*
X309171Y264612D01*
X309113Y264619D01*
X309056Y264629D01*
X309000Y264643D01*
X308945Y264661D01*
D16*
X504940Y995440D02*
X504940Y999440D01*
X566940Y999440D01*
X566940Y995440D01*
X504940Y965440D02*
X504940Y961440D01*
X566940Y961440D01*
X566940Y965440D01*
D15*
X509941Y1004370D02*
X509939Y1004296D01*
X509933Y1004221D01*
X509924Y1004148D01*
X509911Y1004074D01*
X509894Y1004002D01*
X509874Y1003931D01*
X509850Y1003860D01*
X509822Y1003791D01*
X509791Y1003723D01*
X509757Y1003658D01*
X509719Y1003593D01*
X509678Y1003531D01*
X509634Y1003471D01*
X509587Y1003414D01*
X509537Y1003359D01*
X509484Y1003306D01*
X509429Y1003256D01*
X509372Y1003209D01*
X509312Y1003165D01*
X509250Y1003124D01*
X509185Y1003086D01*
X509119Y1003052D01*
X509052Y1003021D01*
X508983Y1002993D01*
X508912Y1002969D01*
X508841Y1002949D01*
X508768Y1002932D01*
X508695Y1002919D01*
X508621Y1002910D01*
X508547Y1002904D01*
X508473Y1002902D01*
X508362Y1002904D01*
X508251Y1002910D01*
X508140Y1002920D01*
X508029Y1002934D01*
X507920Y1002952D01*
X507811Y1002974D01*
X507702Y1002999D01*
X507595Y1003029D01*
X507489Y1003062D01*
X507384Y1003100D01*
X507281Y1003140D01*
X507179Y1003185D01*
X507079Y1003233D01*
X506980Y1003285D01*
X506884Y1003340D01*
X506789Y1003399D01*
X506697Y1003461D01*
X506607Y1003527D01*
X506519Y1003595D01*
X506434Y1003667D01*
X506352Y1003742D01*
X506272Y1003819D01*
X506455Y1008038D02*
X506457Y1008112D01*
X506463Y1008187D01*
X506472Y1008260D01*
X506485Y1008334D01*
X506502Y1008406D01*
X506522Y1008477D01*
X506546Y1008548D01*
X506574Y1008617D01*
X506605Y1008684D01*
X506639Y1008750D01*
X506677Y1008815D01*
X506718Y1008877D01*
X506762Y1008937D01*
X506809Y1008994D01*
X506859Y1009049D01*
X506912Y1009102D01*
X506967Y1009152D01*
X507024Y1009199D01*
X507084Y1009243D01*
X507146Y1009284D01*
X507211Y1009322D01*
X507277Y1009356D01*
X507344Y1009387D01*
X507413Y1009415D01*
X507484Y1009439D01*
X507555Y1009459D01*
X507627Y1009476D01*
X507701Y1009489D01*
X507774Y1009498D01*
X507849Y1009504D01*
X507923Y1009506D01*
X508027Y1009504D01*
X508131Y1009498D01*
X508235Y1009488D01*
X508338Y1009475D01*
X508441Y1009457D01*
X508543Y1009435D01*
X508644Y1009410D01*
X508744Y1009381D01*
X508843Y1009348D01*
X508940Y1009311D01*
X509036Y1009271D01*
X509131Y1009227D01*
X509223Y1009179D01*
X509314Y1009129D01*
X509403Y1009074D01*
X509490Y1009017D01*
X509574Y1008956D01*
X507189Y1006753D02*
X507126Y1006792D01*
X507066Y1006834D01*
X507008Y1006879D01*
X506951Y1006927D01*
X506898Y1006978D01*
X506847Y1007031D01*
X506798Y1007086D01*
X506753Y1007144D01*
X506710Y1007204D01*
X506670Y1007266D01*
X506634Y1007330D01*
X506600Y1007396D01*
X506570Y1007464D01*
X506543Y1007532D01*
X506520Y1007602D01*
X506500Y1007673D01*
X506484Y1007745D01*
X506471Y1007818D01*
X506462Y1007891D01*
X506457Y1007964D01*
X506455Y1008038D01*
X509207Y1005655D02*
X509270Y1005616D01*
X509330Y1005574D01*
X509389Y1005529D01*
X509445Y1005481D01*
X509498Y1005430D01*
X509549Y1005377D01*
X509598Y1005322D01*
X509643Y1005264D01*
X509686Y1005204D01*
X509726Y1005142D01*
X509762Y1005078D01*
X509796Y1005012D01*
X509826Y1004944D01*
X509853Y1004876D01*
X509876Y1004806D01*
X509896Y1004735D01*
X509912Y1004663D01*
X509925Y1004590D01*
X509934Y1004517D01*
X509939Y1004444D01*
X509941Y1004370D01*
X509207Y1005654D02*
X507189Y1006754D01*
X513218Y1009506D02*
X514686Y1002902D01*
X516153Y1007305D01*
X517621Y1002902D01*
X519088Y1009506D01*
X522609Y1008038D02*
X524444Y1009506D01*
X524444Y1002902D01*
X526278Y1002902D02*
X522609Y1002902D01*
X239005Y415711D02*
X229458Y419186D01*
X260116Y329640D02*
X256641Y320093D01*
X239005Y415711D02*
X229458Y419186D01*
X335908Y371522D02*
X345455Y368047D01*
X260116Y329640D02*
X256641Y320093D01*
X260116Y329640D01*
X256641Y320093D01*
X239005Y415711D02*
X229458Y419186D01*
X326910Y398042D02*
X327518Y399713D01*
X320810Y392424D02*
X317622Y399260D01*
X260079Y422367D02*
X260687Y424038D01*
X236362Y357207D02*
X238033Y356599D01*
X303193Y332882D02*
X303801Y334553D01*
X327518Y399713D02*
X325847Y400321D01*
X262358Y423430D02*
X260687Y424038D01*
X236970Y358878D02*
X236362Y357207D01*
X301522Y333490D02*
X303193Y332882D01*
D14*
X334167Y421117D02*
X337906Y419756D01*
X334167Y421117D02*
X330568Y419957D01*
X334167Y421117D02*
X332156Y424319D01*
X334167Y421117D02*
X334166Y417236D01*
X334167Y421117D02*
X336661Y424091D01*
D18*
X242399Y442858D02*
X229642Y447500D01*
X229643Y447500D02*
X229507Y447547D01*
X229370Y447591D01*
X229231Y447631D01*
X229092Y447667D01*
X228952Y447699D01*
X228811Y447727D01*
X228669Y447751D01*
X228527Y447772D01*
X228384Y447788D01*
X228240Y447801D01*
X228097Y447809D01*
X227953Y447814D01*
X227809Y447815D01*
X227665Y447811D01*
X227522Y447804D01*
X227378Y447793D01*
X227235Y447778D01*
X227092Y447759D01*
X226950Y447736D01*
X226809Y447709D01*
X226669Y447678D01*
X226529Y447643D01*
X226390Y447605D01*
X226253Y447562D01*
X226116Y447516D01*
X225981Y447467D01*
X225848Y447413D01*
X225716Y447356D01*
X225586Y447295D01*
X225457Y447231D01*
X225330Y447163D01*
X225205Y447091D01*
X225082Y447017D01*
X224961Y446938D01*
X224843Y446857D01*
X224726Y446772D01*
X224612Y446684D01*
X224501Y446594D01*
X224392Y446500D01*
X224286Y446403D01*
X224182Y446303D01*
X224081Y446200D01*
X223983Y446095D01*
X223888Y445987D01*
X223797Y445876D01*
X223708Y445763D01*
X223622Y445647D01*
X223539Y445529D01*
X223460Y445409D01*
X223384Y445287D01*
X223312Y445163D01*
X223243Y445037D01*
X223177Y444909D01*
X223115Y444779D01*
X223057Y444647D01*
X223002Y444514D01*
X222951Y444380D01*
X222904Y444244D01*
X222860Y444107D01*
X222820Y443968D01*
X222784Y443829D01*
X222752Y443689D01*
X222724Y443548D01*
X222700Y443406D01*
X222679Y443264D01*
X222663Y443121D01*
X222650Y442977D01*
X222642Y442834D01*
X222637Y442690D01*
X222636Y442546D01*
X222640Y442402D01*
X222647Y442259D01*
X222658Y442115D01*
X222673Y441972D01*
X222692Y441829D01*
X222715Y441687D01*
X222742Y441546D01*
X222773Y441406D01*
X222808Y441266D01*
X222846Y441127D01*
X222889Y440990D01*
X222935Y440853D01*
X222984Y440719D01*
X223038Y440585D01*
X223095Y440453D01*
X223156Y440323D01*
X223220Y440194D01*
X223288Y440067D01*
X223360Y439942D01*
X223434Y439819D01*
X223513Y439698D01*
X223594Y439580D01*
X223679Y439463D01*
X223767Y439350D01*
X223857Y439238D01*
X223951Y439129D01*
X224048Y439023D01*
X224148Y438919D01*
X224251Y438818D01*
X224356Y438720D01*
X224464Y438625D01*
X224575Y438534D01*
X224688Y438445D01*
X224804Y438359D01*
X224922Y438276D01*
X225042Y438197D01*
X225164Y438121D01*
X225288Y438049D01*
X225414Y437980D01*
X225542Y437914D01*
X225672Y437852D01*
X225804Y437794D01*
X225937Y437739D01*
X226071Y437688D01*
X238827Y433045D01*
X232170Y426968D02*
X234310Y420633D01*
X216647Y427062D01*
X218433Y431968D02*
X214861Y422156D01*
D15*
X238311Y242060D02*
X202741Y144332D01*
X147769Y164340D01*
X183339Y262068D01*
X238311Y242060D01*
X184570Y249571D02*
X184572Y249707D01*
X184578Y249842D01*
X184588Y249977D01*
X184602Y250112D01*
X184620Y250246D01*
X184642Y250380D01*
X184668Y250513D01*
X184697Y250646D01*
X184731Y250777D01*
X184769Y250907D01*
X184810Y251036D01*
X184855Y251164D01*
X184904Y251291D01*
X184956Y251416D01*
X185013Y251539D01*
X185072Y251661D01*
X185136Y251780D01*
X185203Y251898D01*
X185273Y252014D01*
X185347Y252128D01*
X185424Y252239D01*
X185504Y252349D01*
X185588Y252455D01*
X185674Y252560D01*
X185764Y252661D01*
X185857Y252760D01*
X185952Y252857D01*
X186051Y252950D01*
X186152Y253040D01*
X186255Y253128D01*
X186361Y253212D01*
X186470Y253293D01*
X186581Y253371D01*
X186694Y253446D01*
X186810Y253517D01*
X186927Y253585D01*
X187046Y253649D01*
X187168Y253710D01*
X187290Y253767D01*
X187415Y253820D01*
X187541Y253870D01*
X187669Y253916D01*
X187797Y253959D01*
X187927Y253997D01*
X188059Y254032D01*
X188191Y254062D01*
X188323Y254089D01*
X188457Y254112D01*
X188591Y254131D01*
X188726Y254146D01*
X188861Y254157D01*
X188997Y254164D01*
X189132Y254167D01*
X189268Y254166D01*
X189403Y254161D01*
X189538Y254152D01*
X189673Y254139D01*
X189808Y254122D01*
X189942Y254101D01*
X190075Y254076D01*
X190208Y254047D01*
X190339Y254015D01*
X190470Y253978D01*
X190599Y253938D01*
X190727Y253894D01*
X190854Y253846D01*
X190979Y253794D01*
X191103Y253739D01*
X191225Y253680D01*
X191346Y253617D01*
X191464Y253551D01*
X191580Y253482D01*
X191695Y253409D01*
X191807Y253333D01*
X191917Y253253D01*
X192024Y253170D01*
X192129Y253084D01*
X192231Y252996D01*
X192331Y252904D01*
X192428Y252809D01*
X192522Y252711D01*
X192613Y252611D01*
X192701Y252508D01*
X192786Y252402D01*
X192868Y252294D01*
X192947Y252184D01*
X193022Y252071D01*
X193094Y251956D01*
X193163Y251840D01*
X193228Y251721D01*
X193290Y251600D01*
X193348Y251477D01*
X193402Y251353D01*
X193453Y251228D01*
X193500Y251100D01*
X193543Y250972D01*
X193583Y250842D01*
X193618Y250711D01*
X193650Y250580D01*
X193678Y250447D01*
X193702Y250313D01*
X193722Y250179D01*
X193738Y250045D01*
X193750Y249910D01*
X193758Y249774D01*
X193762Y249639D01*
X193762Y249503D01*
X193758Y249368D01*
X193750Y249232D01*
X193738Y249097D01*
X193722Y248963D01*
X193702Y248829D01*
X193678Y248695D01*
X193650Y248562D01*
X193618Y248431D01*
X193583Y248300D01*
X193543Y248170D01*
X193500Y248042D01*
X193453Y247914D01*
X193402Y247789D01*
X193348Y247665D01*
X193290Y247542D01*
X193228Y247421D01*
X193163Y247302D01*
X193094Y247186D01*
X193022Y247071D01*
X192947Y246958D01*
X192868Y246848D01*
X192786Y246740D01*
X192701Y246634D01*
X192613Y246531D01*
X192522Y246431D01*
X192428Y246333D01*
X192331Y246238D01*
X192231Y246146D01*
X192129Y246058D01*
X192024Y245972D01*
X191917Y245889D01*
X191807Y245809D01*
X191695Y245733D01*
X191580Y245660D01*
X191464Y245591D01*
X191346Y245525D01*
X191225Y245462D01*
X191103Y245403D01*
X190979Y245348D01*
X190854Y245296D01*
X190727Y245248D01*
X190599Y245204D01*
X190470Y245164D01*
X190339Y245127D01*
X190208Y245095D01*
X190075Y245066D01*
X189942Y245041D01*
X189808Y245020D01*
X189673Y245003D01*
X189538Y244990D01*
X189403Y244981D01*
X189268Y244976D01*
X189132Y244975D01*
X188997Y244978D01*
X188861Y244985D01*
X188726Y244996D01*
X188591Y245011D01*
X188457Y245030D01*
X188323Y245053D01*
X188191Y245080D01*
X188059Y245110D01*
X187927Y245145D01*
X187797Y245183D01*
X187669Y245226D01*
X187541Y245272D01*
X187415Y245322D01*
X187290Y245375D01*
X187168Y245432D01*
X187046Y245493D01*
X186927Y245557D01*
X186810Y245625D01*
X186694Y245696D01*
X186581Y245771D01*
X186470Y245849D01*
X186361Y245930D01*
X186255Y246014D01*
X186152Y246102D01*
X186051Y246192D01*
X185952Y246285D01*
X185857Y246382D01*
X185764Y246481D01*
X185674Y246582D01*
X185588Y246687D01*
X185504Y246793D01*
X185424Y246903D01*
X185347Y247014D01*
X185273Y247128D01*
X185203Y247244D01*
X185136Y247362D01*
X185072Y247481D01*
X185013Y247603D01*
X184956Y247726D01*
X184904Y247851D01*
X184855Y247978D01*
X184810Y248106D01*
X184769Y248235D01*
X184731Y248365D01*
X184697Y248496D01*
X184668Y248629D01*
X184642Y248762D01*
X184620Y248896D01*
X184602Y249030D01*
X184588Y249165D01*
X184578Y249300D01*
X184572Y249435D01*
X184570Y249571D01*
D17*
X216064Y228955D02*
X218650Y228014D01*
X218650Y228015D02*
X218711Y227995D01*
X218773Y227978D01*
X218835Y227966D01*
X218899Y227957D01*
X218962Y227952D01*
X219026Y227951D01*
X219090Y227954D01*
X219154Y227961D01*
X219217Y227971D01*
X219279Y227985D01*
X219340Y228003D01*
X219400Y228025D01*
X219459Y228050D01*
X219516Y228079D01*
X219571Y228111D01*
X219625Y228146D01*
X219676Y228185D01*
X219724Y228227D01*
X219770Y228271D01*
X219813Y228318D01*
X219854Y228368D01*
X219891Y228420D01*
X219925Y228474D01*
X219955Y228530D01*
X219983Y228588D01*
X220006Y228647D01*
X220026Y228708D01*
X220043Y228770D01*
X220055Y228832D01*
X220064Y228896D01*
X220069Y228959D01*
X220070Y229023D01*
X220067Y229087D01*
X220060Y229151D01*
X220050Y229214D01*
X220036Y229276D01*
X220018Y229337D01*
X219996Y229397D01*
X219971Y229456D01*
X219942Y229513D01*
X219910Y229568D01*
X219875Y229622D01*
X219836Y229673D01*
X219794Y229721D01*
X219750Y229767D01*
X219703Y229810D01*
X219653Y229851D01*
X219601Y229888D01*
X219547Y229922D01*
X219491Y229952D01*
X219433Y229980D01*
X219374Y230003D01*
X216788Y230944D01*
X217754Y233601D02*
X217777Y233657D01*
X217802Y233711D01*
X217831Y233763D01*
X217864Y233813D01*
X217899Y233862D01*
X217937Y233908D01*
X217978Y233951D01*
X218022Y233992D01*
X218069Y234030D01*
X218117Y234065D01*
X218168Y234097D01*
X218220Y234126D01*
X218275Y234151D01*
X218330Y234173D01*
X218387Y234191D01*
X218445Y234206D01*
X218504Y234217D01*
X218564Y234224D01*
X218623Y234228D01*
X218683Y234227D01*
X218743Y234223D01*
X218802Y234216D01*
X218861Y234204D01*
X218919Y234189D01*
X218976Y234171D01*
X217755Y233601D02*
X217734Y233537D01*
X217716Y233473D01*
X217702Y233407D01*
X217691Y233341D01*
X217685Y233275D01*
X217681Y233208D01*
X217682Y233141D01*
X217686Y233074D01*
X217694Y233008D01*
X217705Y232942D01*
X217720Y232876D01*
X217738Y232812D01*
X217760Y232749D01*
X217786Y232687D01*
X217814Y232626D01*
X217846Y232568D01*
X217882Y232511D01*
X217920Y232456D01*
X217961Y232403D01*
X218005Y232353D01*
X218052Y232305D01*
X218101Y232259D01*
X218152Y232217D01*
X219563Y233618D02*
X219538Y233671D01*
X219510Y233723D01*
X219479Y233773D01*
X219445Y233822D01*
X219408Y233868D01*
X219368Y233912D01*
X219326Y233954D01*
X219282Y233993D01*
X219236Y234030D01*
X219187Y234063D01*
X219137Y234094D01*
X219085Y234122D01*
X219031Y234147D01*
X218976Y234169D01*
X219563Y233618D02*
X220937Y231204D01*
X221661Y233193D01*
D18*
X368899Y650646D02*
X433343Y627191D01*
X448981Y670154D02*
X384537Y693609D01*
X448981Y670153D02*
X449501Y669957D01*
X450017Y669747D01*
X450528Y669525D01*
X451033Y669291D01*
X451532Y669045D01*
X452025Y668786D01*
X452512Y668516D01*
X452991Y668233D01*
X453464Y667939D01*
X453930Y667634D01*
X454388Y667318D01*
X454838Y666990D01*
X455280Y666652D01*
X455713Y666302D01*
X456138Y665943D01*
X456555Y665573D01*
X456962Y665193D01*
X457359Y664804D01*
X457747Y664404D01*
X458125Y663996D01*
X458494Y663578D01*
X458851Y663152D01*
X459199Y662717D01*
X459535Y662273D01*
X459861Y661822D01*
X460176Y661363D01*
X460479Y660896D01*
X460771Y660422D01*
X461051Y659941D01*
X461320Y659453D01*
X461577Y658959D01*
X461821Y658459D01*
X462053Y657953D01*
X462273Y657442D01*
X462480Y656925D01*
X462675Y656403D01*
X462857Y655877D01*
X463026Y655347D01*
X463182Y654812D01*
X463325Y654274D01*
X463455Y653733D01*
X463571Y653189D01*
X463675Y652642D01*
X463765Y652092D01*
X463841Y651541D01*
X463904Y650988D01*
X463954Y650433D01*
X463990Y649878D01*
X464013Y649321D01*
X464022Y648765D01*
X464017Y648208D01*
X463999Y647652D01*
X463968Y647096D01*
X463922Y646541D01*
X463864Y645987D01*
X463792Y645435D01*
X463706Y644885D01*
X463607Y644337D01*
X463495Y643792D01*
X463370Y643250D01*
X463231Y642711D01*
X463079Y642175D01*
X462915Y641643D01*
X462737Y641116D01*
X462547Y640592D01*
X462343Y640074D01*
X462128Y639561D01*
X461900Y639053D01*
X461659Y638551D01*
X461407Y638055D01*
X461142Y637565D01*
X460866Y637082D01*
X460578Y636605D01*
X460278Y636136D01*
X459967Y635674D01*
X459645Y635220D01*
X459312Y634774D01*
X458968Y634336D01*
X458614Y633907D01*
X458249Y633486D01*
X457874Y633075D01*
X457490Y632672D01*
X457095Y632280D01*
X456691Y631896D01*
X456278Y631523D01*
X455856Y631160D01*
X455425Y630808D01*
X454986Y630466D01*
X454539Y630134D01*
X454083Y629814D01*
X453620Y629505D01*
X453150Y629207D01*
X452672Y628921D01*
X452188Y628647D01*
X451697Y628384D01*
X451200Y628134D01*
X450697Y627895D01*
X450188Y627669D01*
X449674Y627456D01*
X449155Y627255D01*
X448631Y627067D01*
X448102Y626891D01*
X447570Y626729D01*
X447034Y626579D01*
X446494Y626443D01*
X445951Y626319D01*
X445405Y626209D01*
X444857Y626113D01*
X444307Y626029D01*
X443754Y625959D01*
X443201Y625903D01*
X442646Y625860D01*
X442090Y625831D01*
X441533Y625815D01*
X440976Y625813D01*
X440420Y625824D01*
X439864Y625849D01*
X439308Y625887D01*
X438754Y625939D01*
X438201Y626005D01*
X437650Y626083D01*
X437101Y626176D01*
X436554Y626281D01*
X436011Y626400D01*
X435470Y626532D01*
X434932Y626677D01*
X434399Y626835D01*
X433869Y627007D01*
X433343Y627191D01*
X368899Y650647D02*
X368379Y650843D01*
X367863Y651053D01*
X367352Y651275D01*
X366847Y651509D01*
X366348Y651755D01*
X365855Y652014D01*
X365368Y652284D01*
X364889Y652567D01*
X364416Y652861D01*
X363950Y653166D01*
X363492Y653482D01*
X363042Y653810D01*
X362600Y654148D01*
X362167Y654498D01*
X361742Y654857D01*
X361325Y655227D01*
X360918Y655607D01*
X360521Y655996D01*
X360133Y656396D01*
X359755Y656804D01*
X359386Y657222D01*
X359029Y657648D01*
X358681Y658083D01*
X358345Y658527D01*
X358019Y658978D01*
X357704Y659437D01*
X357401Y659904D01*
X357109Y660378D01*
X356829Y660859D01*
X356560Y661347D01*
X356303Y661841D01*
X356059Y662341D01*
X355827Y662847D01*
X355607Y663358D01*
X355400Y663875D01*
X355205Y664397D01*
X355023Y664923D01*
X354854Y665453D01*
X354698Y665988D01*
X354555Y666526D01*
X354425Y667067D01*
X354309Y667611D01*
X354205Y668158D01*
X354115Y668708D01*
X354039Y669259D01*
X353976Y669812D01*
X353926Y670367D01*
X353890Y670922D01*
X353867Y671479D01*
X353858Y672035D01*
X353863Y672592D01*
X353881Y673148D01*
X353912Y673704D01*
X353958Y674259D01*
X354016Y674813D01*
X354088Y675365D01*
X354174Y675915D01*
X354273Y676463D01*
X354385Y677008D01*
X354510Y677550D01*
X354649Y678089D01*
X354801Y678625D01*
X354965Y679157D01*
X355143Y679684D01*
X355333Y680208D01*
X355537Y680726D01*
X355752Y681239D01*
X355980Y681747D01*
X356221Y682249D01*
X356473Y682745D01*
X356738Y683235D01*
X357014Y683718D01*
X357302Y684195D01*
X357602Y684664D01*
X357913Y685126D01*
X358235Y685580D01*
X358568Y686026D01*
X358912Y686464D01*
X359266Y686893D01*
X359631Y687314D01*
X360006Y687725D01*
X360390Y688128D01*
X360785Y688520D01*
X361189Y688904D01*
X361602Y689277D01*
X362024Y689640D01*
X362455Y689992D01*
X362894Y690334D01*
X363341Y690666D01*
X363797Y690986D01*
X364260Y691295D01*
X364730Y691593D01*
X365208Y691879D01*
X365692Y692153D01*
X366183Y692416D01*
X366680Y692666D01*
X367183Y692905D01*
X367692Y693131D01*
X368206Y693344D01*
X368725Y693545D01*
X369249Y693733D01*
X369778Y693909D01*
X370310Y694071D01*
X370846Y694221D01*
X371386Y694357D01*
X371929Y694481D01*
X372475Y694591D01*
X373023Y694687D01*
X373573Y694771D01*
X374126Y694841D01*
X374679Y694897D01*
X375234Y694940D01*
X375790Y694969D01*
X376347Y694985D01*
X376904Y694987D01*
X377460Y694976D01*
X378016Y694951D01*
X378572Y694913D01*
X379126Y694861D01*
X379679Y694795D01*
X380230Y694717D01*
X380779Y694624D01*
X381326Y694519D01*
X381869Y694400D01*
X382410Y694268D01*
X382948Y694123D01*
X383481Y693965D01*
X384011Y693793D01*
X384537Y693609D01*
D16*
X415532Y690842D02*
X416264Y688151D01*
X418555Y689742D01*
X416264Y688151D02*
X415393Y685757D01*
X420572Y687866D02*
X422199Y688416D01*
X420548Y683881D01*
X419288Y684339D02*
X421808Y683422D01*
X252894Y332389D02*
X241950Y302319D01*
X252894Y332389D02*
X266050Y327601D01*
X255106Y297531D01*
X241950Y302319D01*
D17*
X257908Y333495D02*
X258197Y334290D01*
X257908Y333494D02*
X257887Y333443D01*
X257863Y333393D01*
X257836Y333345D01*
X257806Y333298D01*
X257773Y333254D01*
X257736Y333212D01*
X257698Y333172D01*
X257656Y333135D01*
X257613Y333101D01*
X257567Y333070D01*
X257519Y333041D01*
X257470Y333016D01*
X257419Y332995D01*
X257367Y332976D01*
X257313Y332961D01*
X257259Y332950D01*
X257204Y332942D01*
X257149Y332938D01*
X257094Y332937D01*
X257038Y332940D01*
X256983Y332947D01*
X256929Y332957D01*
X256875Y332971D01*
X256822Y332988D01*
X256823Y332989D02*
X254834Y333713D01*
X254833Y333712D02*
X254780Y333734D01*
X254728Y333759D01*
X254677Y333788D01*
X254629Y333820D01*
X254583Y333855D01*
X254540Y333893D01*
X254500Y333935D01*
X254462Y333978D01*
X254427Y334025D01*
X254396Y334073D01*
X254368Y334124D01*
X254344Y334176D01*
X254323Y334230D01*
X254306Y334286D01*
X254292Y334342D01*
X254283Y334399D01*
X254278Y334457D01*
X254276Y334514D01*
X254278Y334572D01*
X254285Y334630D01*
X254295Y334687D01*
X254309Y334743D01*
X254327Y334798D01*
X254328Y334798D02*
X254617Y335593D01*
X255481Y337969D02*
X255504Y338025D01*
X255529Y338079D01*
X255558Y338131D01*
X255591Y338181D01*
X255626Y338230D01*
X255664Y338276D01*
X255705Y338319D01*
X255749Y338360D01*
X255796Y338398D01*
X255844Y338433D01*
X255895Y338465D01*
X255947Y338494D01*
X256002Y338519D01*
X256057Y338541D01*
X256114Y338559D01*
X256172Y338574D01*
X256231Y338585D01*
X256291Y338592D01*
X256350Y338596D01*
X256410Y338595D01*
X256470Y338591D01*
X256529Y338584D01*
X256588Y338572D01*
X256646Y338557D01*
X256703Y338539D01*
X255482Y337970D02*
X255461Y337906D01*
X255443Y337842D01*
X255429Y337776D01*
X255418Y337710D01*
X255412Y337644D01*
X255408Y337577D01*
X255409Y337510D01*
X255413Y337443D01*
X255421Y337377D01*
X255432Y337311D01*
X255447Y337245D01*
X255465Y337181D01*
X255487Y337118D01*
X255513Y337056D01*
X255541Y336995D01*
X255573Y336937D01*
X255609Y336880D01*
X255647Y336825D01*
X255688Y336772D01*
X255732Y336722D01*
X255779Y336674D01*
X255828Y336628D01*
X255879Y336586D01*
X257290Y337987D02*
X257265Y338040D01*
X257237Y338092D01*
X257206Y338142D01*
X257172Y338191D01*
X257135Y338237D01*
X257095Y338281D01*
X257053Y338323D01*
X257009Y338362D01*
X256963Y338399D01*
X256914Y338432D01*
X256864Y338463D01*
X256812Y338491D01*
X256758Y338516D01*
X256703Y338538D01*
X257290Y337987D02*
X258664Y335572D01*
X259388Y337561D01*
X259915Y339009D02*
X260277Y340004D01*
X260276Y340004D02*
X260296Y340065D01*
X260313Y340127D01*
X260325Y340189D01*
X260334Y340253D01*
X260339Y340316D01*
X260340Y340380D01*
X260337Y340444D01*
X260330Y340508D01*
X260320Y340571D01*
X260306Y340633D01*
X260288Y340694D01*
X260266Y340754D01*
X260241Y340813D01*
X260212Y340870D01*
X260180Y340925D01*
X260145Y340979D01*
X260106Y341030D01*
X260064Y341078D01*
X260020Y341124D01*
X259973Y341167D01*
X259923Y341208D01*
X259871Y341245D01*
X259817Y341279D01*
X259761Y341309D01*
X259703Y341337D01*
X259644Y341360D01*
X259583Y341380D01*
X259521Y341397D01*
X259459Y341409D01*
X259395Y341418D01*
X259332Y341423D01*
X259268Y341424D01*
X259204Y341421D01*
X259140Y341414D01*
X259077Y341404D01*
X259015Y341390D01*
X258954Y341372D01*
X258894Y341350D01*
X258835Y341325D01*
X258778Y341296D01*
X258723Y341264D01*
X258669Y341229D01*
X258618Y341190D01*
X258570Y341148D01*
X258524Y341104D01*
X258481Y341057D01*
X258440Y341007D01*
X258403Y340955D01*
X258369Y340901D01*
X258339Y340845D01*
X258311Y340787D01*
X258288Y340728D01*
X256769Y341506D02*
X256335Y340312D01*
X256769Y341506D02*
X256791Y341559D01*
X256816Y341611D01*
X256845Y341662D01*
X256877Y341710D01*
X256912Y341756D01*
X256950Y341799D01*
X256992Y341839D01*
X257035Y341877D01*
X257082Y341912D01*
X257130Y341943D01*
X257181Y341971D01*
X257233Y341995D01*
X257287Y342016D01*
X257343Y342033D01*
X257399Y342047D01*
X257456Y342056D01*
X257514Y342061D01*
X257571Y342063D01*
X257629Y342061D01*
X257687Y342054D01*
X257744Y342044D01*
X257800Y342030D01*
X257855Y342012D01*
X257908Y341990D01*
X257960Y341965D01*
X258011Y341936D01*
X258059Y341904D01*
X258104Y341869D01*
X258148Y341831D01*
X258188Y341789D01*
X258226Y341746D01*
X258261Y341699D01*
X258292Y341651D01*
X258320Y341600D01*
X258344Y341548D01*
X258365Y341494D01*
X258382Y341438D01*
X258396Y341382D01*
X258405Y341325D01*
X258410Y341267D01*
X258412Y341210D01*
X258410Y341152D01*
X258403Y341094D01*
X258393Y341037D01*
X258379Y340981D01*
X258361Y340926D01*
X258360Y340927D02*
X258071Y340131D01*
D18*
X970280Y34290D02*
X976630Y40640D01*
X989330Y40640D01*
X995680Y34290D01*
X995680Y21590D02*
X989330Y15240D01*
X976630Y15240D01*
X970280Y21590D01*
X938530Y40640D02*
X925830Y40640D01*
X938530Y40640D02*
X944880Y34290D01*
X944880Y21590D02*
X938530Y15240D01*
X944880Y34290D02*
X951230Y40640D01*
X963930Y40640D01*
X970280Y34290D01*
X970280Y21590D02*
X963930Y15240D01*
X951230Y15240D01*
X944880Y21590D01*
X919480Y21590D02*
X919480Y34290D01*
X925830Y40640D01*
X919480Y21590D02*
X925830Y15240D01*
X938530Y15240D01*
X995680Y21590D02*
X995680Y34290D01*
D16*
X921724Y43617D02*
X921724Y47371D01*
X921723Y43617D02*
X921721Y43552D01*
X921715Y43488D01*
X921705Y43424D01*
X921692Y43360D01*
X921674Y43298D01*
X921653Y43237D01*
X921629Y43177D01*
X921600Y43119D01*
X921568Y43062D01*
X921533Y43008D01*
X921495Y42956D01*
X921453Y42906D01*
X921409Y42859D01*
X921362Y42815D01*
X921312Y42773D01*
X921260Y42735D01*
X921206Y42700D01*
X921149Y42668D01*
X921091Y42639D01*
X921031Y42615D01*
X920970Y42594D01*
X920908Y42576D01*
X920844Y42563D01*
X920780Y42553D01*
X920716Y42547D01*
X920651Y42545D01*
X920115Y42545D01*
X924672Y46299D02*
X926012Y47371D01*
X926012Y42545D01*
X924672Y42545D02*
X927353Y42545D01*
M02*
