G04 EAGLE Gerber X2 export*
%TF.Part,Single*%
%TF.FileFunction,Other,Solder stop mask CMP*%
%TF.FilePolarity,Positive*%
%TF.GenerationSoftware,Autodesk,EAGLE,9.0.1*%
%TF.CreationDate,2019-07-20T17:57:42Z*%
G75*
%MOMM*%
%FSLAX34Y34*%
%LPD*%
%AMOC8*
5,1,8,0,0,1.08239X$1,22.5*%
G01*
%ADD10C,3.200400*%
%ADD11R,1.503200X1.703200*%
%ADD12R,1.473200X1.727200*%
%ADD13R,2.203200X2.603200*%
%ADD14R,0.703200X2.511200*%
%ADD15C,1.203200*%
%ADD16R,1.403200X0.903200*%
%ADD17R,5.603200X6.403200*%
%ADD18R,1.203200X1.803200*%
%ADD19C,2.082800*%
%ADD20R,1.403200X1.403200*%
%ADD21R,1.303200X1.203200*%
%ADD22C,2.743200*%
%ADD23R,0.711200X1.676400*%
%ADD24R,0.551200X1.600200*%
%ADD25C,1.854200*%
%ADD26C,0.959600*%
%ADD27C,0.909600*%


D10*
X162560Y132080D03*
X906780Y132080D03*
X535940Y845820D03*
D11*
G36*
X201957Y365806D02*
X216082Y360664D01*
X210257Y344660D01*
X196132Y349802D01*
X201957Y365806D01*
G37*
G36*
X185983Y371620D02*
X200108Y366478D01*
X194283Y350474D01*
X180158Y355616D01*
X185983Y371620D01*
G37*
D12*
G36*
X54366Y35657D02*
X49327Y21814D01*
X33098Y27721D01*
X38137Y41564D01*
X54366Y35657D01*
G37*
G36*
X60882Y53559D02*
X55843Y39716D01*
X39614Y45623D01*
X44653Y59466D01*
X60882Y53559D01*
G37*
G36*
X378216Y624937D02*
X373177Y611094D01*
X356948Y617001D01*
X361987Y630844D01*
X378216Y624937D01*
G37*
G36*
X384732Y642839D02*
X379693Y628996D01*
X363464Y634903D01*
X368503Y648746D01*
X384732Y642839D01*
G37*
G36*
X426476Y607157D02*
X421437Y593314D01*
X405208Y599221D01*
X410247Y613064D01*
X426476Y607157D01*
G37*
G36*
X432992Y625059D02*
X427953Y611216D01*
X411724Y617123D01*
X416763Y630966D01*
X432992Y625059D01*
G37*
D11*
G36*
X194337Y345486D02*
X208462Y340344D01*
X202637Y324340D01*
X188512Y329482D01*
X194337Y345486D01*
G37*
G36*
X178363Y351300D02*
X192488Y346158D01*
X186663Y330154D01*
X172538Y335296D01*
X178363Y351300D01*
G37*
G36*
X208307Y387396D02*
X222432Y382254D01*
X216607Y366250D01*
X202482Y371392D01*
X208307Y387396D01*
G37*
G36*
X192333Y393210D02*
X206458Y388068D01*
X200633Y372064D01*
X186508Y377206D01*
X192333Y393210D01*
G37*
D12*
G36*
X243596Y142337D02*
X238557Y128494D01*
X222328Y134401D01*
X227367Y148244D01*
X243596Y142337D01*
G37*
G36*
X250112Y160239D02*
X245073Y146396D01*
X228844Y152303D01*
X233883Y166146D01*
X250112Y160239D01*
G37*
G36*
X202956Y279497D02*
X197917Y265654D01*
X181688Y271561D01*
X186727Y285404D01*
X202956Y279497D01*
G37*
G36*
X209472Y297399D02*
X204433Y283556D01*
X188204Y289463D01*
X193243Y303306D01*
X209472Y297399D01*
G37*
D11*
G36*
X58374Y39397D02*
X63516Y53522D01*
X79520Y47697D01*
X74378Y33572D01*
X58374Y39397D01*
G37*
G36*
X52560Y23423D02*
X57702Y37548D01*
X73706Y31723D01*
X68564Y17598D01*
X52560Y23423D01*
G37*
D13*
X105860Y85800D03*
D14*
X133860Y91440D03*
X141860Y91440D03*
X149860Y91440D03*
X157860Y91440D03*
X165860Y91440D03*
D13*
X105860Y30800D03*
X193860Y85800D03*
X193860Y30800D03*
D15*
X127860Y60800D03*
X171860Y60800D03*
D16*
G36*
X113984Y177436D02*
X118783Y190621D01*
X127270Y187532D01*
X122471Y174347D01*
X113984Y177436D01*
G37*
G36*
X101330Y142668D02*
X106129Y155853D01*
X114616Y152764D01*
X109817Y139579D01*
X101330Y142668D01*
G37*
D17*
G36*
X423245Y707593D02*
X442409Y760245D01*
X502579Y738345D01*
X483415Y685693D01*
X423245Y707593D01*
G37*
D18*
G36*
X391584Y766793D02*
X395699Y778098D01*
X412642Y771931D01*
X408527Y760626D01*
X391584Y766793D01*
G37*
G36*
X375988Y723943D02*
X380103Y735248D01*
X397046Y729081D01*
X392931Y717776D01*
X375988Y723943D01*
G37*
D17*
G36*
X955442Y55464D02*
X931762Y106245D01*
X989794Y133306D01*
X1013474Y82525D01*
X955442Y55464D01*
G37*
D18*
G36*
X891194Y74936D02*
X886109Y85840D01*
X902450Y93460D01*
X907535Y82556D01*
X891194Y74936D01*
G37*
G36*
X910465Y33609D02*
X905380Y44513D01*
X921721Y52133D01*
X926806Y41229D01*
X910465Y33609D01*
G37*
D19*
X548640Y1018540D03*
X523240Y1018540D03*
X548640Y1043940D03*
X523240Y1043940D03*
X548640Y1069340D03*
X523240Y1069340D03*
D20*
G36*
X459576Y893205D02*
X472761Y888406D01*
X467962Y875221D01*
X454777Y880020D01*
X459576Y893205D01*
G37*
G36*
X466758Y912939D02*
X479943Y908140D01*
X475144Y894955D01*
X461959Y899754D01*
X466758Y912939D01*
G37*
G36*
X472276Y888125D02*
X485461Y883326D01*
X480662Y870141D01*
X467477Y874940D01*
X472276Y888125D01*
G37*
G36*
X479458Y907859D02*
X492643Y903060D01*
X487844Y889875D01*
X474659Y894674D01*
X479458Y907859D01*
G37*
G36*
X446876Y898285D02*
X460061Y893486D01*
X455262Y880301D01*
X442077Y885100D01*
X446876Y898285D01*
G37*
G36*
X454058Y918019D02*
X467243Y913220D01*
X462444Y900035D01*
X449259Y904834D01*
X454058Y918019D01*
G37*
G36*
X434176Y903365D02*
X447361Y898566D01*
X442562Y885381D01*
X429377Y890180D01*
X434176Y903365D01*
G37*
G36*
X441358Y923099D02*
X454543Y918300D01*
X449744Y905115D01*
X436559Y909914D01*
X441358Y923099D01*
G37*
D21*
G36*
X180234Y288178D02*
X175777Y275933D01*
X164472Y280048D01*
X168929Y292293D01*
X180234Y288178D01*
G37*
G36*
X186048Y304152D02*
X181591Y291907D01*
X170286Y296022D01*
X174743Y308267D01*
X186048Y304152D01*
G37*
G36*
X164994Y293258D02*
X160537Y281013D01*
X149232Y285128D01*
X153689Y297373D01*
X164994Y293258D01*
G37*
G36*
X170808Y309232D02*
X166351Y296987D01*
X155046Y301102D01*
X159503Y313347D01*
X170808Y309232D01*
G37*
G36*
X236114Y321198D02*
X231657Y308953D01*
X220352Y313068D01*
X224809Y325313D01*
X236114Y321198D01*
G37*
G36*
X241928Y337172D02*
X237471Y324927D01*
X226166Y329042D01*
X230623Y341287D01*
X241928Y337172D01*
G37*
G36*
X497734Y918098D02*
X493277Y905853D01*
X481972Y909968D01*
X486429Y922213D01*
X497734Y918098D01*
G37*
G36*
X503548Y934072D02*
X499091Y921827D01*
X487786Y925942D01*
X492243Y938187D01*
X503548Y934072D01*
G37*
G36*
X250078Y172826D02*
X237833Y177283D01*
X241948Y188588D01*
X254193Y184131D01*
X250078Y172826D01*
G37*
G36*
X266052Y167012D02*
X253807Y171469D01*
X257922Y182774D01*
X270167Y178317D01*
X266052Y167012D01*
G37*
G36*
X255158Y188066D02*
X242913Y192523D01*
X247028Y203828D01*
X259273Y199371D01*
X255158Y188066D01*
G37*
G36*
X271132Y182252D02*
X258887Y186709D01*
X263002Y198014D01*
X275247Y193557D01*
X271132Y182252D01*
G37*
G36*
X307446Y288402D02*
X311903Y300647D01*
X323208Y296532D01*
X318751Y284287D01*
X307446Y288402D01*
G37*
G36*
X301632Y272428D02*
X306089Y284673D01*
X317394Y280558D01*
X312937Y268313D01*
X301632Y272428D01*
G37*
D22*
X503440Y980440D03*
X568440Y980440D03*
D23*
G36*
X322229Y417856D02*
X328911Y415424D01*
X323177Y399672D01*
X316495Y402104D01*
X322229Y417856D01*
G37*
G36*
X314830Y420549D02*
X321512Y418117D01*
X315778Y402365D01*
X309096Y404797D01*
X314830Y420549D01*
G37*
G36*
X307192Y423329D02*
X313874Y420897D01*
X308140Y405145D01*
X301458Y407577D01*
X307192Y423329D01*
G37*
G36*
X299793Y426022D02*
X306475Y423590D01*
X300741Y407838D01*
X294059Y410270D01*
X299793Y426022D01*
G37*
G36*
X292155Y428802D02*
X298837Y426370D01*
X293103Y410618D01*
X286421Y413050D01*
X292155Y428802D01*
G37*
G36*
X284756Y431495D02*
X291438Y429063D01*
X285704Y413311D01*
X279022Y415743D01*
X284756Y431495D01*
G37*
G36*
X277118Y434275D02*
X283800Y431843D01*
X278066Y416091D01*
X271384Y418523D01*
X277118Y434275D01*
G37*
G36*
X269719Y436968D02*
X276401Y434536D01*
X270667Y418784D01*
X263985Y421216D01*
X269719Y436968D01*
G37*
G36*
X260728Y419697D02*
X258296Y413015D01*
X242544Y418749D01*
X244976Y425431D01*
X260728Y419697D01*
G37*
G36*
X258035Y412298D02*
X255603Y405616D01*
X239851Y411350D01*
X242283Y418032D01*
X258035Y412298D01*
G37*
G36*
X255255Y404660D02*
X252823Y397978D01*
X237071Y403712D01*
X239503Y410394D01*
X255255Y404660D01*
G37*
G36*
X252562Y397261D02*
X250130Y390579D01*
X234378Y396313D01*
X236810Y402995D01*
X252562Y397261D01*
G37*
G36*
X249782Y389623D02*
X247350Y382941D01*
X231598Y388675D01*
X234030Y395357D01*
X249782Y389623D01*
G37*
G36*
X247089Y382224D02*
X244657Y375542D01*
X228905Y381276D01*
X231337Y387958D01*
X247089Y382224D01*
G37*
G36*
X244309Y374586D02*
X241877Y367904D01*
X226125Y373638D01*
X228557Y380320D01*
X244309Y374586D01*
G37*
G36*
X241616Y367187D02*
X239184Y360505D01*
X223432Y366239D01*
X225864Y372921D01*
X241616Y367187D01*
G37*
G36*
X240703Y357248D02*
X247385Y354816D01*
X241651Y339064D01*
X234969Y341496D01*
X240703Y357248D01*
G37*
G36*
X248102Y354555D02*
X254784Y352123D01*
X249050Y336371D01*
X242368Y338803D01*
X248102Y354555D01*
G37*
G36*
X255740Y351775D02*
X262422Y349343D01*
X256688Y333591D01*
X250006Y336023D01*
X255740Y351775D01*
G37*
G36*
X263139Y349082D02*
X269821Y346650D01*
X264087Y330898D01*
X257405Y333330D01*
X263139Y349082D01*
G37*
G36*
X270777Y346302D02*
X277459Y343870D01*
X271725Y328118D01*
X265043Y330550D01*
X270777Y346302D01*
G37*
G36*
X278176Y343609D02*
X284858Y341177D01*
X279124Y325425D01*
X272442Y327857D01*
X278176Y343609D01*
G37*
G36*
X285814Y340829D02*
X292496Y338397D01*
X286762Y322645D01*
X280080Y325077D01*
X285814Y340829D01*
G37*
G36*
X293213Y338136D02*
X299895Y335704D01*
X294161Y319952D01*
X287479Y322384D01*
X293213Y338136D01*
G37*
G36*
X321336Y338171D02*
X318904Y331489D01*
X303152Y337223D01*
X305584Y343905D01*
X321336Y338171D01*
G37*
G36*
X324029Y345570D02*
X321597Y338888D01*
X305845Y344622D01*
X308277Y351304D01*
X324029Y345570D01*
G37*
G36*
X326809Y353208D02*
X324377Y346526D01*
X308625Y352260D01*
X311057Y358942D01*
X326809Y353208D01*
G37*
G36*
X329502Y360607D02*
X327070Y353925D01*
X311318Y359659D01*
X313750Y366341D01*
X329502Y360607D01*
G37*
G36*
X332282Y368245D02*
X329850Y361563D01*
X314098Y367297D01*
X316530Y373979D01*
X332282Y368245D01*
G37*
G36*
X334975Y375644D02*
X332543Y368962D01*
X316791Y374696D01*
X319223Y381378D01*
X334975Y375644D01*
G37*
G36*
X337755Y383282D02*
X335323Y376600D01*
X319571Y382334D01*
X322003Y389016D01*
X337755Y383282D01*
G37*
G36*
X340448Y390681D02*
X338016Y383999D01*
X322264Y389733D01*
X324696Y396415D01*
X340448Y390681D01*
G37*
D24*
G36*
X233385Y230544D02*
X235271Y235724D01*
X250307Y230252D01*
X248421Y225072D01*
X233385Y230544D01*
G37*
G36*
X231161Y224436D02*
X233047Y229616D01*
X248083Y224144D01*
X246197Y218964D01*
X231161Y224436D01*
G37*
G36*
X228938Y218328D02*
X230824Y223508D01*
X245860Y218036D01*
X243974Y212856D01*
X228938Y218328D01*
G37*
G36*
X226715Y212220D02*
X228601Y217400D01*
X243637Y211928D01*
X241751Y206748D01*
X226715Y212220D01*
G37*
G36*
X224492Y206112D02*
X226378Y211292D01*
X241414Y205820D01*
X239528Y200640D01*
X224492Y206112D01*
G37*
G36*
X222269Y200004D02*
X224155Y205184D01*
X239191Y199712D01*
X237305Y194532D01*
X222269Y200004D01*
G37*
G36*
X220046Y193896D02*
X221932Y199076D01*
X236968Y193604D01*
X235082Y188424D01*
X220046Y193896D01*
G37*
G36*
X215599Y181680D02*
X217485Y186860D01*
X232521Y181388D01*
X230635Y176208D01*
X215599Y181680D01*
G37*
G36*
X217823Y187788D02*
X219709Y192968D01*
X234745Y187496D01*
X232859Y182316D01*
X217823Y187788D01*
G37*
G36*
X213376Y175572D02*
X215262Y180752D01*
X230298Y175280D01*
X228412Y170100D01*
X213376Y175572D01*
G37*
G36*
X211153Y169464D02*
X213039Y174644D01*
X228075Y169172D01*
X226189Y163992D01*
X211153Y169464D01*
G37*
G36*
X208930Y163356D02*
X210816Y168536D01*
X225852Y163064D01*
X223966Y157884D01*
X208930Y163356D01*
G37*
G36*
X206707Y157248D02*
X208593Y162428D01*
X223629Y156956D01*
X221743Y151776D01*
X206707Y157248D01*
G37*
G36*
X204484Y151140D02*
X206370Y156320D01*
X221406Y150848D01*
X219520Y145668D01*
X204484Y151140D01*
G37*
G36*
X164674Y255552D02*
X166560Y260732D01*
X181596Y255260D01*
X179710Y250080D01*
X164674Y255552D01*
G37*
G36*
X162451Y249444D02*
X164337Y254624D01*
X179373Y249152D01*
X177487Y243972D01*
X162451Y249444D01*
G37*
G36*
X160228Y243336D02*
X162114Y248516D01*
X177150Y243044D01*
X175264Y237864D01*
X160228Y243336D01*
G37*
G36*
X158005Y237228D02*
X159891Y242408D01*
X174927Y236936D01*
X173041Y231756D01*
X158005Y237228D01*
G37*
G36*
X155782Y231120D02*
X157668Y236300D01*
X172704Y230828D01*
X170818Y225648D01*
X155782Y231120D01*
G37*
G36*
X153559Y225012D02*
X155445Y230192D01*
X170481Y224720D01*
X168595Y219540D01*
X153559Y225012D01*
G37*
G36*
X151335Y218904D02*
X153221Y224084D01*
X168257Y218612D01*
X166371Y213432D01*
X151335Y218904D01*
G37*
G36*
X149112Y212796D02*
X150998Y217976D01*
X166034Y212504D01*
X164148Y207324D01*
X149112Y212796D01*
G37*
G36*
X146889Y206688D02*
X148775Y211868D01*
X163811Y206396D01*
X161925Y201216D01*
X146889Y206688D01*
G37*
G36*
X144666Y200580D02*
X146552Y205760D01*
X161588Y200288D01*
X159702Y195108D01*
X144666Y200580D01*
G37*
G36*
X142443Y194472D02*
X144329Y199652D01*
X159365Y194180D01*
X157479Y189000D01*
X142443Y194472D01*
G37*
G36*
X140220Y188364D02*
X142106Y193544D01*
X157142Y188072D01*
X155256Y182892D01*
X140220Y188364D01*
G37*
G36*
X137997Y182256D02*
X139883Y187436D01*
X154919Y181964D01*
X153033Y176784D01*
X137997Y182256D01*
G37*
G36*
X135773Y176148D02*
X137659Y181328D01*
X152695Y175856D01*
X150809Y170676D01*
X135773Y176148D01*
G37*
D25*
X385072Y669087D03*
X432808Y651713D03*
D21*
G36*
X258974Y311038D02*
X254517Y298793D01*
X243212Y302908D01*
X247669Y315153D01*
X258974Y311038D01*
G37*
G36*
X264788Y327012D02*
X260331Y314767D01*
X249026Y318882D01*
X253483Y331127D01*
X264788Y327012D01*
G37*
D19*
X932180Y27940D03*
X957580Y27940D03*
X982980Y27940D03*
D26*
X199390Y120650D03*
X220980Y123190D03*
X475279Y879663D03*
X397478Y571020D03*
X341630Y637540D03*
X367582Y620969D03*
X483870Y773430D03*
X422910Y803910D03*
X672048Y543644D03*
X723891Y586648D03*
X796290Y248920D03*
X807720Y271780D03*
X849630Y281940D03*
X582930Y313690D03*
X617220Y308836D03*
X673100Y290012D03*
D27*
X334010Y417830D03*
X318770Y431800D03*
X268084Y457652D03*
X63133Y27573D03*
X159512Y253984D03*
X231140Y288290D03*
X182090Y261754D03*
X251093Y306973D03*
X267970Y320040D03*
D26*
X140970Y243840D03*
X129023Y216203D03*
X495300Y300600D03*
X213360Y227330D03*
X400050Y673100D03*
X400050Y707390D03*
X364490Y734060D03*
X386517Y726512D03*
X212457Y376823D03*
X262890Y488950D03*
X326826Y601543D03*
X389042Y642752D03*
X506730Y955040D03*
X182880Y312420D03*
X209550Y303530D03*
X224790Y298450D03*
X289560Y382270D03*
X173990Y323850D03*
X212090Y312618D03*
X236220Y300990D03*
X259111Y358746D03*
X135121Y204273D03*
X157113Y289193D03*
X741680Y346710D03*
X741680Y322580D03*
X363220Y309880D03*
X205023Y167884D03*
X129540Y170180D03*
X209550Y398780D03*
X749326Y339149D03*
X750768Y320040D03*
X340195Y278380D03*
X275590Y238760D03*
X222250Y270510D03*
X246380Y283210D03*
X364490Y706120D03*
X403860Y735330D03*
X420370Y727710D03*
X483870Y800100D03*
X520700Y951230D03*
X589280Y962229D03*
X510540Y731520D03*
X532130Y885190D03*
D27*
X335996Y345147D03*
X340360Y361950D03*
D26*
X480060Y947420D03*
X389965Y792445D03*
X288290Y275590D03*
X412750Y589280D03*
X383540Y762000D03*
X435610Y852170D03*
X330216Y315801D03*
X490220Y816610D03*
X212090Y322580D03*
X470951Y903947D03*
D27*
X321310Y648970D03*
D26*
X332740Y676910D03*
X897672Y50716D03*
X541020Y299720D03*
X541020Y284480D03*
D27*
X267970Y440690D03*
X315294Y561703D03*
X275590Y481330D03*
D26*
X631620Y281100D03*
X647884Y283436D03*
X290830Y234950D03*
X543355Y940865D03*
M02*
