M48
;GenerationSoftware,Autodesk,EAGLE,9.0.1*%
;CreationDate,2019-07-20T17:58:55Z*%
FMAT,2
ICI,OFF
METRIC,TZ,000.000
T7C0.300
T6C0.350
T5C0.700
T4C1.000
T3C1.016
T2C1.300
T1C2.997
%
G90
M71
T1
X90678Y13208
X16256Y13208
X53594Y84582
T2
X50344Y98044
X56844Y98044
T3
X98298Y2794
X52324Y104394
X54864Y104394
X52324Y101854
X54864Y101854
X54864Y106934
X52324Y106934
X93218Y2794
X95758Y2794
T4
X17186Y6080
X12786Y6080
T5
X38507Y66909
X43281Y65171
T6
X67205Y54364
X72389Y58665
X79629Y24892
X80772Y27178
X84963Y28194
X61722Y30884
X67310Y29001
X14097Y24384
X12902Y21620
X49530Y30060
X21336Y22733
X40005Y67310
X40005Y70739
X36449Y73406
X38652Y72651
X21246Y37682
X26289Y48895
X32683Y60154
X38904Y64275
X50673Y95504
X18288Y31242
X20955Y30353
X22479Y29845
X28956Y38227
X17399Y32385
X21209Y31262
X23622Y30099
X25911Y35875
X13512Y20427
X15711Y28919
X74168Y34671
X74168Y32258
X36322Y30988
X20502Y16788
X12954Y17018
X20955Y39878
X74933Y33915
X58293Y31369
X34020Y27838
X27559Y23876
X22225Y27051
X24638Y28321
X36449Y70612
X40386Y73533
X42037Y72771
X48387Y80010
X52070Y95123
X58928Y96223
X51054Y73152
X53213Y88519
X48006Y94742
X38996Y79245
X28829Y27559
X41275Y58928
X38354Y76200
X43561Y85217
X33022Y31580
X49022Y81661
X21209Y32258
X47095Y90395
X33274Y67691
X89767Y5072
X54102Y28448
X63162Y28110
X64788Y28344
X29083Y23495
X54336Y94087
X75077Y32004
X19939Y12065
X22098Y12319
X47528Y87966
X39748Y57102
X34163Y63754
X36758Y62097
X48387Y77343
X42291Y80391
X54102Y29972
T7
X15951Y25398
X26797Y44069
X6313Y2757
X26808Y45765
X31877Y43180
X33401Y41783
X31529Y56170
X27559Y48133
X33600Y34515
X34036Y36195
X26797Y32004
X32131Y64897
X25109Y30697
X18209Y26175
X23114Y28829
M30