M48
;GenerationSoftware,Autodesk,EAGLE,9.0.1*%
;CreationDate,2019-01-06T12:10:43Z*%
FMAT,2
ICI,OFF
METRIC,TZ,000.000
T10C0.350
T9C0.400
T8C0.700
T7C0.900
T6C1.000
T5C1.016
T4C1.200
T3C1.300
T2C1.700
T1C3.023
%
G90
M71
T1
X2667Y69088
X2667Y2286
X41402Y2286
X41402Y69088
T2
X9569Y52121
T3
X17959Y6223
X24459Y6223
T4
X25369Y64121
T5
X9779Y6223
X9779Y8763
X12319Y6223
X12319Y8763
X14859Y6223
X14859Y8763
T6
X38497Y8087
X38497Y12487
T7
X6477Y35433
X3937Y35433
X9017Y35433
T8
X24511Y13335
X24511Y18415
T9
X27555Y40431
T10
X16891Y30734
X26924Y30226
X17399Y42037
X12573Y53721
X10287Y56134
X23368Y48768
X25781Y47244
X34036Y31623
X33020Y32004
X31115Y50673
X31242Y49022
X31242Y46101
X31115Y33401
X32131Y30861
X30099Y51562
X4953Y61849
X17209Y9525
X15621Y16129
X10795Y13081
X12319Y11557
X14351Y53467
X3810Y62484
X17653Y37719
X7239Y57912
X33147Y33655
X2309Y25019
X2667Y44704
X30099Y17433
X36957Y16383
X32131Y17433
X14605Y15113
X19431Y13843
X10795Y16383
X8509Y15875
X36957Y21717
X36957Y19431
X13843Y13081
X35199Y51415
X19050Y15240
X24257Y20701
X14605Y21414
X16129Y21463
X42037Y26543
X14859Y26035
X32893Y25885
X16891Y25781
X20246Y12296
X8309Y9196
X16637Y8001
X22733Y12827
X26543Y20701
X9779Y19685
X1905Y57531
X9779Y18415
X12065Y27559
X30353Y44323
X23114Y21209
X21463Y21359
X7993Y15105
X20447Y24572
X34925Y19177
X33909Y21463
X33147Y9017
X33663Y9787
X34417Y16383
X22733Y8255
X40513Y22733
X35433Y12827
X2286Y18669
X19050Y32639
X29845Y38227
X31369Y39370
X35687Y16383
X25908Y44069
X11303Y21590
X35941Y19431
X35687Y21717
X37719Y23495
X38989Y21971
X23241Y16891
X25781Y15875
X21209Y12296
X7493Y17369
X3175Y17369
X24257Y46228
X21971Y46355
X14033Y16741
X18669Y16383
X22225Y24447
X24765Y24193
X37084Y59182
X2667Y56007
X7239Y53721
X7874Y37084
X17526Y32639
X4953Y18669
M30