G04 EAGLE Gerber X2 export*
%TF.Part,Single*%
%TF.FileFunction,Other,Solder stop mask CMP*%
%TF.FilePolarity,Positive*%
%TF.GenerationSoftware,Autodesk,EAGLE,9.0.1*%
%TF.CreationDate,2019-01-06T12:14:53Z*%
G75*
%MOMM*%
%FSLAX34Y34*%
%LPD*%
%AMOC8*
5,1,8,0,0,1.08239X$1,22.5*%
G01*
%ADD10C,3.225800*%
%ADD11R,1.703200X1.503200*%
%ADD12R,1.443200X1.703200*%
%ADD13R,1.703200X1.443200*%
%ADD14R,1.727200X1.473200*%
%ADD15R,1.473200X1.727200*%
%ADD16R,1.403200X1.403200*%
%ADD17R,2.603200X2.203200*%
%ADD18R,2.511200X0.703200*%
%ADD19C,1.203200*%
%ADD20R,4.803200X1.203200*%
%ADD21R,3.603200X1.803200*%
%ADD22R,1.403200X0.903200*%
%ADD23R,1.003200X1.553200*%
%ADD24R,0.450000X1.000000*%
%ADD25R,5.603200X6.403200*%
%ADD26R,1.203200X1.803200*%
%ADD27C,2.082800*%
%ADD28R,1.403200X1.203200*%
%ADD29R,1.603200X1.303200*%
%ADD30R,1.703200X1.403200*%
%ADD31C,1.879600*%
%ADD32R,1.753200X1.503200*%
%ADD33C,2.743200*%
%ADD34C,1.303200*%
%ADD35R,1.676400X0.711200*%
%ADD36R,0.711200X1.676400*%
%ADD37R,0.551200X1.600200*%
%ADD38C,0.803200*%
%ADD39R,0.753200X1.403200*%
%ADD40R,4.267200X1.727200*%
%ADD41R,2.235200X1.219200*%
%ADD42R,2.336800X0.914400*%
%ADD43C,1.903200*%
%ADD44C,1.403200*%
%ADD45R,1.253200X2.403200*%
%ADD46R,1.203200X1.003200*%
%ADD47C,1.854200*%
%ADD48C,0.959600*%
%ADD49C,1.009600*%


D10*
X26670Y22860D03*
X414020Y22860D03*
X26670Y690880D03*
X414020Y690880D03*
D11*
X330200Y73270D03*
X330200Y56270D03*
D12*
X78130Y387350D03*
X97130Y387350D03*
D13*
X270510Y74270D03*
X270510Y55270D03*
D12*
X67970Y254000D03*
X86970Y254000D03*
D14*
X222250Y244475D03*
X222250Y225425D03*
X212090Y90805D03*
X212090Y109855D03*
X247650Y222885D03*
X247650Y241935D03*
D11*
X288290Y73270D03*
X288290Y56270D03*
X308610Y73270D03*
X308610Y56270D03*
D15*
X299085Y212090D03*
X318135Y212090D03*
X191135Y95250D03*
X172085Y95250D03*
D13*
X148590Y315570D03*
X148590Y296570D03*
D16*
X42250Y278130D03*
X21250Y278130D03*
X18710Y323850D03*
X39710Y323850D03*
D17*
X359970Y58870D03*
D18*
X354330Y86870D03*
X354330Y94870D03*
X354330Y102870D03*
X354330Y110870D03*
X354330Y118870D03*
D17*
X414970Y58870D03*
X359970Y146870D03*
X414970Y146870D03*
D19*
X384970Y80870D03*
X384970Y124870D03*
D20*
X81450Y433230D03*
X81450Y453230D03*
D21*
X29450Y409230D03*
X29450Y477230D03*
D22*
X279950Y95250D03*
X316950Y95250D03*
X20870Y387350D03*
X57870Y387350D03*
D23*
X130810Y293370D03*
X130810Y318770D03*
X130810Y223520D03*
X130810Y248920D03*
D16*
X21250Y300990D03*
X42250Y300990D03*
D24*
X19870Y532090D03*
X26370Y532090D03*
X32870Y532090D03*
X39370Y532090D03*
X45870Y532090D03*
X52370Y532090D03*
X58870Y532090D03*
X58870Y590590D03*
X52370Y590590D03*
X45870Y590590D03*
X39370Y590590D03*
X32870Y590590D03*
X26370Y590590D03*
X19870Y590590D03*
D25*
X44450Y80410D03*
D26*
X67250Y153410D03*
X21650Y153410D03*
D27*
X97790Y62230D03*
X97790Y87630D03*
X123190Y62230D03*
X123190Y87630D03*
X148590Y62230D03*
X148590Y87630D03*
D16*
X279400Y255610D03*
X279400Y234610D03*
X280670Y174330D03*
X280670Y153330D03*
X321310Y153330D03*
X321310Y174330D03*
X300990Y153330D03*
X300990Y174330D03*
X48260Y514690D03*
X48260Y493690D03*
X34290Y514690D03*
X34290Y493690D03*
D28*
X105250Y227330D03*
X85250Y217830D03*
X85250Y236830D03*
D29*
X92710Y123350D03*
X92710Y143350D03*
X300990Y115730D03*
X300990Y135730D03*
D12*
X57810Y278130D03*
X76810Y278130D03*
X57810Y300990D03*
X76810Y300990D03*
D13*
X20320Y217830D03*
X20320Y236830D03*
D12*
X57810Y323850D03*
X76810Y323850D03*
D30*
X64770Y216830D03*
X64770Y237830D03*
D13*
X204470Y226720D03*
X204470Y245720D03*
X186690Y226720D03*
X186690Y245720D03*
D29*
X148590Y246220D03*
X148590Y226220D03*
X168910Y246220D03*
X168910Y226220D03*
D13*
X19050Y494690D03*
X19050Y513690D03*
X63500Y494690D03*
X63500Y513690D03*
X135890Y372770D03*
X135890Y391770D03*
D29*
X279400Y217010D03*
X279400Y197010D03*
X280670Y135730D03*
X280670Y115730D03*
X321310Y115730D03*
X321310Y135730D03*
D31*
X64770Y354330D03*
X39370Y354330D03*
X90170Y354330D03*
D32*
X25020Y656230D03*
X104520Y656230D03*
X25020Y611230D03*
X104520Y611230D03*
D33*
X179590Y62230D03*
X244590Y62230D03*
D34*
X135890Y430530D03*
D35*
X123952Y186690D03*
X123952Y178816D03*
X123952Y170688D03*
X123952Y162814D03*
X123952Y154686D03*
X123952Y146812D03*
X123952Y138684D03*
X123952Y130810D03*
D36*
X138430Y116332D03*
X146304Y116332D03*
X154432Y116332D03*
X162306Y116332D03*
X170434Y116332D03*
X178308Y116332D03*
X186436Y116332D03*
X194310Y116332D03*
D35*
X208788Y130810D03*
X208788Y138684D03*
X208788Y146812D03*
X208788Y154686D03*
X208788Y162814D03*
X208788Y170688D03*
X208788Y178816D03*
X208788Y186690D03*
D36*
X194310Y201168D03*
X186436Y201168D03*
X178308Y201168D03*
X170434Y201168D03*
X162306Y201168D03*
X154432Y201168D03*
X146304Y201168D03*
X138430Y201168D03*
D37*
X421980Y178070D03*
X415480Y178070D03*
X408980Y178070D03*
X402480Y178070D03*
X395980Y178070D03*
X389480Y178070D03*
X382980Y178070D03*
X369980Y178070D03*
X376480Y178070D03*
X363480Y178070D03*
X356980Y178070D03*
X350480Y178070D03*
X343980Y178070D03*
X337480Y178070D03*
X421980Y251190D03*
X415480Y251190D03*
X408980Y251190D03*
X402480Y251190D03*
X395980Y251190D03*
X389480Y251190D03*
X382980Y251190D03*
X376480Y251190D03*
X369980Y251190D03*
X363480Y251190D03*
X356980Y251190D03*
X350480Y251190D03*
X343980Y251190D03*
X337480Y251190D03*
D38*
X163670Y490210D02*
X149670Y490210D01*
X149670Y480210D02*
X163670Y480210D01*
X163670Y470210D02*
X149670Y470210D01*
X149670Y460210D02*
X163670Y460210D01*
X163670Y450210D02*
X149670Y450210D01*
X149670Y440210D02*
X163670Y440210D01*
X163670Y430210D02*
X149670Y430210D01*
X149670Y420210D02*
X163670Y420210D01*
X163670Y410210D02*
X149670Y410210D01*
X149670Y400210D02*
X163670Y400210D01*
X163670Y390210D02*
X149670Y390210D01*
X149670Y380210D02*
X163670Y380210D01*
X163670Y370210D02*
X149670Y370210D01*
X149670Y360210D02*
X163670Y360210D01*
X163670Y350210D02*
X149670Y350210D01*
X149670Y340210D02*
X163670Y340210D01*
X163670Y330210D02*
X149670Y330210D01*
X200670Y293210D02*
X200670Y279210D01*
X210670Y279210D02*
X210670Y293210D01*
X220670Y293210D02*
X220670Y279210D01*
X230670Y279210D02*
X230670Y293210D01*
X240670Y293210D02*
X240670Y279210D01*
X250670Y279210D02*
X250670Y293210D01*
X260670Y293210D02*
X260670Y279210D01*
X270670Y279210D02*
X270670Y293210D01*
X280670Y293210D02*
X280670Y279210D01*
X290670Y279210D02*
X290670Y293210D01*
X300670Y293210D02*
X300670Y279210D01*
X310670Y279210D02*
X310670Y293210D01*
X320670Y293210D02*
X320670Y279210D01*
X330670Y279210D02*
X330670Y293210D01*
X340670Y293210D02*
X340670Y279210D01*
X350670Y279210D02*
X350670Y293210D01*
X360670Y293210D02*
X360670Y279210D01*
X397670Y330210D02*
X411670Y330210D01*
X411670Y340210D02*
X397670Y340210D01*
X397670Y350210D02*
X411670Y350210D01*
X411670Y360210D02*
X397670Y360210D01*
X397670Y370210D02*
X411670Y370210D01*
X411670Y380210D02*
X397670Y380210D01*
X397670Y390210D02*
X411670Y390210D01*
X411670Y400210D02*
X397670Y400210D01*
X397670Y410210D02*
X411670Y410210D01*
X411670Y420210D02*
X397670Y420210D01*
X397670Y430210D02*
X411670Y430210D01*
X411670Y440210D02*
X397670Y440210D01*
X397670Y450210D02*
X411670Y450210D01*
X411670Y460210D02*
X397670Y460210D01*
X397670Y470210D02*
X411670Y470210D01*
X411670Y480210D02*
X397670Y480210D01*
X397670Y490210D02*
X411670Y490210D01*
X360670Y527210D02*
X360670Y541210D01*
X350670Y541210D02*
X350670Y527210D01*
X340670Y527210D02*
X340670Y541210D01*
X330670Y541210D02*
X330670Y527210D01*
X320670Y527210D02*
X320670Y541210D01*
X310670Y541210D02*
X310670Y527210D01*
X300670Y527210D02*
X300670Y541210D01*
X290670Y541210D02*
X290670Y527210D01*
X280670Y527210D02*
X280670Y541210D01*
X270670Y541210D02*
X270670Y527210D01*
X260670Y527210D02*
X260670Y541210D01*
X250670Y541210D02*
X250670Y527210D01*
X240670Y527210D02*
X240670Y541210D01*
X230670Y541210D02*
X230670Y527210D01*
X220670Y527210D02*
X220670Y541210D01*
X210670Y541210D02*
X210670Y527210D01*
X200670Y527210D02*
X200670Y541210D01*
D39*
X22250Y173689D03*
X31750Y173689D03*
X41250Y173689D03*
X41250Y199691D03*
X22250Y199691D03*
X65430Y173689D03*
X74930Y173689D03*
X84430Y173689D03*
X84430Y199691D03*
X65430Y199691D03*
D40*
X402590Y590550D03*
X402590Y641350D03*
D41*
X392430Y615950D03*
D42*
X402336Y601996D03*
X402336Y629904D03*
D43*
X95690Y521210D03*
D44*
X253690Y641210D03*
D45*
X409990Y553720D03*
X382490Y553720D03*
D46*
X396240Y538470D03*
D47*
X245110Y184150D03*
X245110Y133350D03*
D48*
X354330Y128270D03*
X356870Y163830D03*
X359410Y194310D03*
X356870Y217170D03*
X377190Y234950D03*
X389890Y219710D03*
X232410Y168910D03*
X257810Y158750D03*
X74930Y173689D03*
X31750Y173689D03*
X242570Y462280D03*
X219710Y463550D03*
X140334Y167414D03*
X186690Y163830D03*
X351995Y514145D03*
X222250Y244475D03*
X247650Y241935D03*
X370840Y591820D03*
X26670Y560070D03*
X72390Y537210D03*
X78740Y370840D03*
X175260Y326390D03*
X168910Y307340D03*
X269240Y302260D03*
X173990Y420370D03*
X125730Y537210D03*
X102870Y561340D03*
X233680Y487680D03*
X257810Y472440D03*
X340360Y316230D03*
X330200Y320040D03*
X311150Y506730D03*
X312420Y490220D03*
X312420Y461010D03*
X311150Y334010D03*
X321310Y308610D03*
X300990Y515620D03*
X49530Y618490D03*
X172085Y95250D03*
X156210Y161290D03*
X107950Y130810D03*
X123190Y115570D03*
X143510Y534670D03*
X38100Y624840D03*
X176530Y377190D03*
X72390Y579120D03*
X331470Y336550D03*
X23086Y250190D03*
X26670Y447040D03*
X300990Y174330D03*
X369570Y163830D03*
X321310Y174330D03*
X146050Y151130D03*
X194310Y138430D03*
X107950Y163830D03*
X85090Y158750D03*
X369570Y217170D03*
X369570Y194310D03*
X138430Y130810D03*
X212090Y122964D03*
X190500Y152400D03*
X242570Y207010D03*
X146050Y214144D03*
X161290Y214630D03*
X420370Y265430D03*
X148590Y260350D03*
X328930Y258854D03*
X168910Y257810D03*
X202455Y122964D03*
X83086Y91957D03*
X166370Y80010D03*
X227330Y128270D03*
X265430Y207010D03*
X97790Y196850D03*
X19050Y575310D03*
X97790Y184150D03*
X120650Y275590D03*
X303530Y443230D03*
X231140Y212090D03*
X214630Y213586D03*
X79934Y151054D03*
X204470Y245720D03*
X349250Y191770D03*
X339090Y214630D03*
X331470Y90170D03*
X336626Y97866D03*
X344170Y163830D03*
X227330Y82550D03*
X405130Y227330D03*
X49530Y186690D03*
X22860Y186690D03*
X190500Y326390D03*
X298450Y382270D03*
X313690Y393700D03*
D49*
X275554Y404312D03*
D48*
X259080Y440690D03*
X113030Y215900D03*
M02*
