G04 EAGLE Gerber X2 export*
%TF.Part,Single*%
%TF.FileFunction,Other,Solder stop mask SOL*%
%TF.FilePolarity,Positive*%
%TF.GenerationSoftware,Autodesk,EAGLE,9.0.1*%
%TF.CreationDate,2018-11-29T22:45:45Z*%
G75*
%MOMM*%
%FSLAX34Y34*%
%LPD*%
%AMOC8*
5,1,8,0,0,1.08239X$1,22.5*%
G01*
%ADD10C,3.251200*%
%ADD11R,1.403200X1.403200*%
%ADD12C,6.553200*%
%ADD13R,3.403200X3.403200*%
%ADD14C,12.564231*%
%ADD15R,1.303200X1.203200*%
%ADD16R,1.203200X1.303200*%
%ADD17C,1.203200*%
%ADD18R,1.603200X1.603200*%
%ADD19R,1.553200X1.003200*%
%ADD20R,0.863600X2.235200*%
%ADD21R,1.403200X0.753200*%
%ADD22C,2.082800*%
%ADD23R,1.003200X1.003200*%
%ADD24R,1.603200X1.303200*%
%ADD25R,2.403200X1.053200*%
%ADD26R,1.253200X1.203200*%
%ADD27C,0.453200*%
%ADD28R,2.000000X2.000000*%
%ADD29R,0.753200X1.403200*%
%ADD30R,2.203200X1.203200*%
%ADD31C,3.203200*%
%ADD32R,1.603200X2.103200*%
%ADD33R,2.003200X1.603200*%
%ADD34R,0.903200X1.703200*%
%ADD35C,1.854200*%
%ADD36C,1.625600*%
%ADD37R,1.625600X1.625600*%
%ADD38C,1.611200*%
%ADD39P,1.038661X8X22.500000*%
%ADD40C,0.959600*%
%ADD41C,0.909600*%
%ADD42C,0.809600*%


D10*
X172720Y716280D03*
X711200Y716280D03*
X716280Y172720D03*
X172720Y172720D03*
D11*
X601980Y686140D03*
X601980Y665140D03*
D12*
X619760Y762000D03*
D13*
X537506Y762000D03*
X702014Y762000D03*
D14*
X619760Y762000D03*
D15*
X242180Y373380D03*
X225180Y373380D03*
X275980Y309880D03*
X292980Y309880D03*
X275980Y287020D03*
X292980Y287020D03*
X275980Y271780D03*
X292980Y271780D03*
D16*
X241300Y331860D03*
X241300Y348860D03*
D15*
X272660Y716280D03*
X255660Y716280D03*
X140580Y711200D03*
X123580Y711200D03*
X314080Y673100D03*
X331080Y673100D03*
D17*
X461420Y828200D03*
X417420Y828200D03*
D18*
X342900Y730800D03*
X342900Y767800D03*
D19*
X342900Y535940D03*
X317500Y535940D03*
X231140Y698500D03*
X205740Y698500D03*
D15*
X255660Y731520D03*
X272660Y731520D03*
D20*
X676910Y581406D03*
X676910Y642874D03*
X664210Y581406D03*
X651510Y581406D03*
X664210Y642874D03*
X651510Y642874D03*
X638810Y581406D03*
X638810Y642874D03*
X626110Y581406D03*
X626110Y642874D03*
X613410Y581406D03*
X600710Y581406D03*
X613410Y642874D03*
X600710Y642874D03*
X588010Y581406D03*
X588010Y642874D03*
D21*
X337520Y838860D03*
X337520Y848360D03*
X337520Y857860D03*
X363520Y857860D03*
X363520Y838860D03*
D22*
X109220Y220980D03*
X109220Y246380D03*
X134620Y220980D03*
X134620Y246380D03*
X160020Y220980D03*
X160020Y246380D03*
D23*
X180460Y754380D03*
X195460Y754380D03*
D11*
X99060Y650580D03*
X99060Y629580D03*
D24*
X533400Y728820D03*
X533400Y708820D03*
D15*
X140580Y695960D03*
X123580Y695960D03*
D16*
X78740Y648580D03*
X78740Y631580D03*
D15*
X255660Y698500D03*
X272660Y698500D03*
X212480Y754380D03*
X229480Y754380D03*
D25*
X73660Y578070D03*
X73660Y605570D03*
D26*
X88910Y591820D03*
X58410Y591820D03*
D27*
X256094Y307220D02*
X261594Y307220D01*
X261594Y302220D02*
X256094Y302220D01*
X256094Y297220D02*
X261594Y297220D01*
X261594Y292220D02*
X256094Y292220D01*
X251340Y287466D02*
X251340Y281966D01*
X246340Y281966D02*
X246340Y287466D01*
X241340Y287466D02*
X241340Y281966D01*
X236340Y281966D02*
X236340Y287466D01*
X231586Y292220D02*
X226086Y292220D01*
X226086Y297220D02*
X231586Y297220D01*
X231586Y302220D02*
X226086Y302220D01*
X226086Y307220D02*
X231586Y307220D01*
X236340Y311974D02*
X236340Y317474D01*
X241340Y317474D02*
X241340Y311974D01*
X246340Y311974D02*
X246340Y317474D01*
X251340Y317474D02*
X251340Y311974D01*
D28*
X243840Y299720D03*
D29*
X259740Y353361D03*
X269240Y353361D03*
X278740Y353361D03*
X278740Y327359D03*
X259740Y327359D03*
D30*
X293360Y672020D03*
X293360Y657020D03*
X293360Y642020D03*
X293360Y627020D03*
X293360Y612020D03*
X293360Y597020D03*
X293360Y582020D03*
X293360Y567020D03*
X293360Y552020D03*
X293360Y537020D03*
X133360Y537020D03*
X133360Y552020D03*
X133360Y567020D03*
X133360Y582020D03*
X133360Y597020D03*
X133360Y612020D03*
X133360Y627020D03*
X133360Y642020D03*
X133360Y657020D03*
X133360Y672020D03*
D31*
X211360Y612520D03*
D21*
X236521Y735940D03*
X236521Y726440D03*
X236521Y716940D03*
X210519Y716940D03*
X210519Y735940D03*
D32*
X374840Y813580D03*
X506840Y822580D03*
D33*
X390840Y682580D03*
X450840Y682580D03*
D34*
X383840Y784580D03*
X394840Y784580D03*
X405840Y788580D03*
X416840Y784580D03*
X427840Y788580D03*
X438840Y784580D03*
X449840Y780580D03*
X460840Y784580D03*
D35*
X429260Y281940D03*
X378460Y281940D03*
D22*
X317500Y792480D03*
X342900Y792480D03*
X802640Y553720D03*
X828040Y553720D03*
X802640Y528320D03*
X828040Y528320D03*
X802640Y502920D03*
X828040Y502920D03*
X802640Y477520D03*
X828040Y477520D03*
X802640Y452120D03*
X828040Y452120D03*
X802640Y426720D03*
X828040Y426720D03*
X802640Y401320D03*
X828040Y401320D03*
X802640Y375920D03*
X828040Y375920D03*
X802640Y350520D03*
X828040Y350520D03*
X802640Y325120D03*
X828040Y325120D03*
X60960Y553720D03*
X86360Y553720D03*
X60960Y528320D03*
X86360Y528320D03*
X60960Y502920D03*
X86360Y502920D03*
X60960Y477520D03*
X86360Y477520D03*
X60960Y452120D03*
X86360Y452120D03*
X60960Y426720D03*
X86360Y426720D03*
X60960Y401320D03*
X86360Y401320D03*
X60960Y375920D03*
X86360Y375920D03*
X60960Y350520D03*
X86360Y350520D03*
X60960Y325120D03*
X86360Y325120D03*
X330200Y60960D03*
X330200Y86360D03*
X355600Y60960D03*
X355600Y86360D03*
X381000Y60960D03*
X381000Y86360D03*
X406400Y60960D03*
X406400Y86360D03*
X431800Y60960D03*
X431800Y86360D03*
X457200Y60960D03*
X457200Y86360D03*
X482600Y60960D03*
X482600Y86360D03*
X508000Y60960D03*
X508000Y86360D03*
X533400Y60960D03*
X533400Y86360D03*
X558800Y60960D03*
X558800Y86360D03*
X330200Y599440D03*
X330200Y624840D03*
X355600Y599440D03*
X355600Y624840D03*
X381000Y599440D03*
X381000Y624840D03*
X406400Y599440D03*
X406400Y624840D03*
X431800Y599440D03*
X431800Y624840D03*
X457200Y599440D03*
X457200Y624840D03*
X482600Y599440D03*
X482600Y624840D03*
X508000Y599440D03*
X508000Y624840D03*
X533400Y599440D03*
X533400Y624840D03*
X558800Y599440D03*
X558800Y624840D03*
D36*
X547860Y174720D03*
X547860Y194720D03*
X547860Y214720D03*
X547860Y234720D03*
X547860Y254720D03*
X547860Y274720D03*
X547860Y294720D03*
X547860Y314720D03*
X547860Y334720D03*
D37*
X547860Y354720D03*
D36*
X767860Y174720D03*
X767860Y194720D03*
X767860Y214720D03*
X767860Y234720D03*
X767860Y254720D03*
X767860Y274720D03*
X767860Y294720D03*
X767860Y314720D03*
X767860Y334720D03*
X767860Y354720D03*
D38*
X239915Y219075D03*
X304915Y219075D03*
D39*
X386080Y452120D03*
X38100Y449580D03*
D40*
X312420Y289560D03*
X307340Y309880D03*
D41*
X350520Y574040D03*
D42*
X351155Y544195D03*
X307340Y574040D03*
X523240Y828040D03*
X373380Y828040D03*
X350520Y830580D03*
X360680Y848360D03*
X325120Y848360D03*
X358140Y175260D03*
X332740Y187960D03*
X187960Y523240D03*
X215900Y530860D03*
X596900Y614680D03*
X614680Y624840D03*
X487680Y723900D03*
X464820Y741680D03*
X353060Y688340D03*
X340360Y698500D03*
X363220Y726440D03*
X337820Y650240D03*
X312420Y645160D03*
X195580Y579755D03*
X172720Y581660D03*
X117475Y607060D03*
X119380Y624840D03*
X238760Y586740D03*
X256540Y596900D03*
X246380Y629619D03*
X264160Y657860D03*
X293360Y642020D03*
X449580Y721360D03*
X434340Y736600D03*
X226695Y741045D03*
X271780Y681990D03*
D40*
X370840Y124460D03*
X203200Y127000D03*
X215900Y358140D03*
X401320Y340360D03*
X360680Y340360D03*
X294640Y345440D03*
D39*
X139700Y683260D03*
X304800Y822960D03*
X271780Y751840D03*
D40*
X245872Y599440D03*
X396240Y377952D03*
X294640Y686816D03*
X351536Y717931D03*
X341376Y749808D03*
X264160Y629920D03*
X251968Y642112D03*
X207264Y656336D03*
X373888Y780288D03*
X379984Y721360D03*
X341376Y687832D03*
X223520Y396240D03*
X599440Y601472D03*
X377952Y535940D03*
X377952Y410464D03*
D39*
X373380Y513080D03*
D40*
X392176Y642112D03*
X357632Y534416D03*
X335280Y512064D03*
D42*
X340360Y493865D03*
D40*
X371856Y694944D03*
X310134Y593344D03*
X256032Y540512D03*
X142240Y501904D03*
X408940Y505460D03*
X416560Y495300D03*
X424180Y487680D03*
X306832Y694944D03*
X479552Y768096D03*
X463296Y768096D03*
X394716Y839724D03*
X438912Y843280D03*
X150368Y617728D03*
X209296Y688848D03*
X499872Y800608D03*
X414528Y800608D03*
X469900Y50800D03*
X176784Y621792D03*
X156464Y601472D03*
X156464Y540512D03*
X219456Y562864D03*
X258445Y668020D03*
X245110Y671830D03*
X274320Y517144D03*
X213360Y396240D03*
X199136Y648208D03*
X268224Y616712D03*
X268224Y591312D03*
X233680Y552196D03*
X615696Y562356D03*
X536448Y512064D03*
D42*
X280035Y664845D03*
D40*
X678688Y609600D03*
X542544Y646176D03*
D42*
X117475Y560705D03*
X101600Y581660D03*
D40*
X243840Y696976D03*
X231902Y671068D03*
X276352Y627888D03*
X316992Y585216D03*
D39*
X254000Y746760D03*
X198120Y736600D03*
D42*
X165100Y561340D03*
X157480Y528320D03*
X137160Y510540D03*
X121920Y525780D03*
D40*
X192405Y684784D03*
X119888Y684784D03*
X318516Y854456D03*
X377444Y854456D03*
X636016Y329184D03*
M02*
