G04 EAGLE Gerber X2 export*
%TF.Part,Single*%
%TF.FileFunction,Other,Component side*%
%TF.FilePolarity,Positive*%
%TF.GenerationSoftware,Autodesk,EAGLE,8.7.1*%
%TF.CreationDate,2018-05-15T06:21:16Z*%
G75*
%MOMM*%
%FSLAX34Y34*%
%LPD*%
%AMOC8*
5,1,8,0,0,1.08239X$1,22.5*%
G01*
%ADD10C,1.524000*%
%ADD11C,1.600000*%
%ADD12C,1.879600*%
%ADD13C,1.473200*%
%ADD14C,1.524000*%
%ADD15C,0.406400*%
%ADD16C,0.906400*%
%ADD17C,0.203200*%
%ADD18C,0.254000*%

G36*
X467322Y11041D02*
X467322Y11041D01*
X467416Y11041D01*
X507831Y13805D01*
X507851Y13809D01*
X507946Y13819D01*
X547941Y20247D01*
X547961Y20252D01*
X548054Y20270D01*
X551814Y21232D01*
X556776Y22501D01*
X556777Y22501D01*
X561738Y23770D01*
X561739Y23770D01*
X566701Y25040D01*
X571663Y26309D01*
X576625Y27578D01*
X581587Y28847D01*
X586549Y30117D01*
X587299Y30308D01*
X587319Y30316D01*
X587410Y30342D01*
X625580Y43908D01*
X625599Y43917D01*
X625687Y43951D01*
X662465Y60932D01*
X662483Y60943D01*
X662567Y60985D01*
X697649Y81239D01*
X697666Y81252D01*
X697746Y81301D01*
X730841Y104662D01*
X730856Y104676D01*
X730932Y104733D01*
X761765Y131006D01*
X761779Y131022D01*
X761849Y131085D01*
X790165Y160053D01*
X790178Y160070D01*
X790242Y160139D01*
X815807Y191562D01*
X815818Y191580D01*
X815876Y191655D01*
X838477Y225273D01*
X838486Y225292D01*
X838537Y225372D01*
X857987Y260905D01*
X857995Y260925D01*
X858038Y261009D01*
X874177Y298164D01*
X874183Y298184D01*
X874218Y298272D01*
X886911Y336741D01*
X886915Y336762D01*
X886942Y336852D01*
X896085Y376315D01*
X896087Y376336D01*
X896106Y376429D01*
X901622Y416560D01*
X901622Y416581D01*
X901628Y416638D01*
X901631Y416653D01*
X901631Y416660D01*
X901632Y416675D01*
X903476Y457142D01*
X903474Y457163D01*
X903476Y457258D01*
X901632Y497725D01*
X901629Y497745D01*
X901622Y497840D01*
X896106Y537971D01*
X896100Y537992D01*
X896099Y537998D01*
X896098Y538014D01*
X896095Y538024D01*
X896085Y538085D01*
X886942Y577548D01*
X886935Y577568D01*
X886911Y577659D01*
X874218Y616128D01*
X874209Y616148D01*
X874177Y616236D01*
X858038Y653391D01*
X858027Y653409D01*
X857987Y653495D01*
X838537Y689028D01*
X838524Y689046D01*
X838477Y689127D01*
X815876Y722745D01*
X815862Y722761D01*
X815807Y722838D01*
X790242Y754261D01*
X790227Y754275D01*
X790165Y754347D01*
X761849Y783315D01*
X761833Y783328D01*
X761765Y783394D01*
X730932Y809667D01*
X730914Y809679D01*
X730841Y809738D01*
X697746Y833099D01*
X697727Y833109D01*
X697649Y833161D01*
X662567Y853415D01*
X662548Y853423D01*
X662465Y853468D01*
X625687Y870449D01*
X625667Y870455D01*
X625580Y870492D01*
X601389Y879090D01*
X601372Y879093D01*
X601357Y879101D01*
X601218Y879127D01*
X601078Y879158D01*
X601061Y879157D01*
X601044Y879160D01*
X600903Y879152D01*
X600761Y879147D01*
X600744Y879142D01*
X600727Y879141D01*
X600592Y879097D01*
X600456Y879057D01*
X600441Y879048D01*
X600425Y879043D01*
X600304Y878966D01*
X600182Y878894D01*
X600170Y878882D01*
X600156Y878872D01*
X600058Y878769D01*
X599958Y878668D01*
X599950Y878653D01*
X599938Y878641D01*
X599869Y878516D01*
X599797Y878394D01*
X599793Y878377D01*
X599784Y878362D01*
X599749Y878225D01*
X599710Y878088D01*
X599709Y878071D01*
X599705Y878054D01*
X599695Y877894D01*
X599695Y834644D01*
X599710Y834526D01*
X599717Y834407D01*
X599730Y834369D01*
X599735Y834328D01*
X599778Y834218D01*
X599815Y834105D01*
X599837Y834070D01*
X599852Y834033D01*
X599921Y833937D01*
X599985Y833836D01*
X600015Y833808D01*
X600038Y833775D01*
X600130Y833699D01*
X600217Y833618D01*
X600252Y833598D01*
X600283Y833573D01*
X600391Y833522D01*
X600495Y833464D01*
X600535Y833454D01*
X600571Y833437D01*
X600688Y833415D01*
X600803Y833385D01*
X600863Y833381D01*
X600883Y833377D01*
X600904Y833379D01*
X600964Y833375D01*
X625717Y833375D01*
X625810Y833387D01*
X625861Y833388D01*
X627387Y833375D01*
X627391Y833375D01*
X627398Y833375D01*
X628551Y833375D01*
X629361Y832552D01*
X629364Y832549D01*
X629368Y832544D01*
X630428Y831484D01*
X630434Y831475D01*
X630458Y831447D01*
X630466Y831435D01*
X630481Y831420D01*
X630508Y831389D01*
X630518Y831375D01*
X630526Y831369D01*
X630539Y831353D01*
X777951Y681421D01*
X777954Y681419D01*
X777959Y681414D01*
X778775Y680598D01*
X778765Y679443D01*
X778765Y679439D01*
X778765Y679432D01*
X778765Y475809D01*
X778783Y475665D01*
X778798Y475520D01*
X778803Y475507D01*
X778805Y475493D01*
X778858Y475358D01*
X778909Y475221D01*
X778917Y475210D01*
X778922Y475198D01*
X779007Y475080D01*
X779090Y474960D01*
X779101Y474951D01*
X779108Y474940D01*
X779220Y474848D01*
X779331Y474752D01*
X779343Y474746D01*
X779353Y474738D01*
X779485Y474676D01*
X779616Y474611D01*
X779629Y474608D01*
X779641Y474602D01*
X779783Y474575D01*
X779927Y474544D01*
X779940Y474545D01*
X779953Y474542D01*
X780098Y474551D01*
X780244Y474557D01*
X780257Y474561D01*
X780271Y474562D01*
X780409Y474607D01*
X780549Y474649D01*
X780561Y474656D01*
X780573Y474660D01*
X780696Y474738D01*
X780821Y474813D01*
X780831Y474823D01*
X780842Y474830D01*
X780942Y474936D01*
X781044Y475040D01*
X781054Y475056D01*
X781060Y475062D01*
X781068Y475077D01*
X781133Y475174D01*
X785613Y482934D01*
X793416Y490737D01*
X802973Y496255D01*
X813632Y499111D01*
X824668Y499111D01*
X835327Y496255D01*
X844884Y490737D01*
X852687Y482934D01*
X858205Y473377D01*
X861061Y462718D01*
X861061Y451682D01*
X858205Y441023D01*
X852687Y431466D01*
X844884Y423663D01*
X835327Y418145D01*
X824668Y415289D01*
X813632Y415289D01*
X802973Y418145D01*
X793416Y423663D01*
X785613Y431466D01*
X781133Y439226D01*
X781045Y439342D01*
X780960Y439460D01*
X780949Y439468D01*
X780941Y439479D01*
X780827Y439569D01*
X780715Y439662D01*
X780702Y439668D01*
X780692Y439677D01*
X780558Y439736D01*
X780427Y439798D01*
X780414Y439800D01*
X780401Y439806D01*
X780257Y439831D01*
X780114Y439858D01*
X780101Y439857D01*
X780088Y439859D01*
X779942Y439847D01*
X779797Y439838D01*
X779784Y439834D01*
X779771Y439833D01*
X779633Y439785D01*
X779495Y439740D01*
X779483Y439733D01*
X779470Y439728D01*
X779349Y439648D01*
X779226Y439570D01*
X779217Y439560D01*
X779205Y439552D01*
X779108Y439445D01*
X779008Y439338D01*
X779001Y439326D01*
X778992Y439316D01*
X778925Y439187D01*
X778854Y439060D01*
X778851Y439047D01*
X778845Y439035D01*
X778811Y438893D01*
X778775Y438752D01*
X778774Y438733D01*
X778772Y438725D01*
X778772Y438708D01*
X778765Y438591D01*
X778765Y230554D01*
X778766Y230544D01*
X778765Y230523D01*
X778793Y229375D01*
X777980Y228563D01*
X777975Y228556D01*
X777959Y228541D01*
X706948Y154037D01*
X706939Y154026D01*
X706928Y154017D01*
X706845Y153899D01*
X706841Y153893D01*
X706826Y153875D01*
X706823Y153868D01*
X706759Y153782D01*
X706753Y153768D01*
X706745Y153757D01*
X706694Y153621D01*
X706639Y153487D01*
X706638Y153473D01*
X706633Y153459D01*
X706616Y153315D01*
X706597Y153172D01*
X706599Y153157D01*
X706597Y153143D01*
X706618Y153000D01*
X706635Y152856D01*
X706640Y152842D01*
X706642Y152828D01*
X706694Y152676D01*
X707391Y150994D01*
X707391Y147456D01*
X706037Y144189D01*
X703536Y141688D01*
X700269Y140334D01*
X696731Y140334D01*
X693464Y141688D01*
X690963Y144189D01*
X689609Y147456D01*
X689609Y150994D01*
X690963Y154261D01*
X693464Y156762D01*
X696731Y158116D01*
X700268Y158116D01*
X701504Y157604D01*
X701547Y157592D01*
X701587Y157573D01*
X701700Y157550D01*
X701811Y157520D01*
X701855Y157519D01*
X701899Y157511D01*
X702014Y157517D01*
X702129Y157515D01*
X702172Y157525D01*
X702217Y157528D01*
X702326Y157562D01*
X702438Y157589D01*
X702477Y157610D01*
X702520Y157624D01*
X702618Y157684D01*
X702719Y157738D01*
X702752Y157768D01*
X702790Y157792D01*
X702908Y157901D01*
X772825Y231256D01*
X772875Y231323D01*
X772932Y231384D01*
X772969Y231451D01*
X773014Y231512D01*
X773045Y231590D01*
X773086Y231663D01*
X773104Y231736D01*
X773133Y231806D01*
X773144Y231890D01*
X773165Y231971D01*
X773174Y232113D01*
X773175Y232122D01*
X773175Y232125D01*
X773175Y232132D01*
X773175Y677787D01*
X773164Y677880D01*
X773161Y677973D01*
X773144Y678037D01*
X773135Y678102D01*
X773101Y678189D01*
X773076Y678280D01*
X773043Y678337D01*
X773018Y678398D01*
X772963Y678474D01*
X772916Y678555D01*
X772842Y678641D01*
X772832Y678655D01*
X772824Y678661D01*
X772811Y678677D01*
X626582Y827406D01*
X626500Y827470D01*
X626424Y827542D01*
X626375Y827569D01*
X626332Y827603D01*
X626237Y827645D01*
X626145Y827696D01*
X626092Y827709D01*
X626041Y827732D01*
X625938Y827749D01*
X625837Y827775D01*
X625749Y827781D01*
X625727Y827784D01*
X625713Y827783D01*
X625676Y827785D01*
X595742Y827785D01*
X594105Y829422D01*
X594105Y854994D01*
X594088Y855131D01*
X594075Y855270D01*
X594068Y855289D01*
X594065Y855310D01*
X594014Y855438D01*
X593967Y855570D01*
X593956Y855586D01*
X593948Y855605D01*
X593867Y855718D01*
X593789Y855833D01*
X593773Y855846D01*
X593762Y855863D01*
X593654Y855951D01*
X593550Y856043D01*
X593532Y856052D01*
X593517Y856065D01*
X593391Y856125D01*
X593267Y856188D01*
X593247Y856192D01*
X593229Y856201D01*
X593092Y856227D01*
X592957Y856257D01*
X592936Y856257D01*
X592917Y856261D01*
X592778Y856252D01*
X592639Y856248D01*
X592619Y856242D01*
X592599Y856241D01*
X592467Y856198D01*
X592333Y856159D01*
X592316Y856149D01*
X592297Y856143D01*
X592179Y856068D01*
X592059Y855998D01*
X592038Y855979D01*
X592028Y855973D01*
X592014Y855958D01*
X591939Y855891D01*
X590387Y854340D01*
X588540Y853575D01*
X588515Y853560D01*
X588487Y853551D01*
X588377Y853482D01*
X588264Y853418D01*
X588243Y853397D01*
X588218Y853381D01*
X588129Y853287D01*
X588036Y853196D01*
X588020Y853171D01*
X588000Y853150D01*
X587937Y853036D01*
X587869Y852925D01*
X587861Y852897D01*
X587846Y852871D01*
X587814Y852745D01*
X587776Y852621D01*
X587774Y852592D01*
X587767Y852563D01*
X587757Y852402D01*
X587757Y807666D01*
X587774Y807528D01*
X587787Y807390D01*
X587794Y807371D01*
X587797Y807351D01*
X587848Y807222D01*
X587895Y807091D01*
X587906Y807074D01*
X587914Y807055D01*
X587995Y806943D01*
X588073Y806828D01*
X588089Y806814D01*
X588100Y806798D01*
X588208Y806709D01*
X588312Y806617D01*
X588330Y806608D01*
X588345Y806595D01*
X588471Y806536D01*
X588595Y806473D01*
X588615Y806468D01*
X588633Y806460D01*
X588770Y806433D01*
X588905Y806403D01*
X588926Y806404D01*
X588945Y806400D01*
X589084Y806408D01*
X589223Y806413D01*
X589243Y806418D01*
X589263Y806420D01*
X589395Y806462D01*
X589529Y806501D01*
X589546Y806511D01*
X589565Y806518D01*
X589683Y806592D01*
X589803Y806663D01*
X589824Y806681D01*
X589834Y806688D01*
X589848Y806703D01*
X589923Y806769D01*
X590929Y807775D01*
X593155Y808697D01*
X595565Y808697D01*
X597791Y807775D01*
X598997Y806568D01*
X599075Y806508D01*
X599147Y806440D01*
X599200Y806411D01*
X599248Y806374D01*
X599339Y806334D01*
X599426Y806286D01*
X599484Y806271D01*
X599540Y806247D01*
X599638Y806232D01*
X599734Y806207D01*
X599834Y806201D01*
X599854Y806197D01*
X599867Y806199D01*
X599895Y806197D01*
X602034Y806197D01*
X602172Y806214D01*
X602310Y806227D01*
X602329Y806234D01*
X602349Y806237D01*
X602478Y806288D01*
X602609Y806335D01*
X602626Y806346D01*
X602645Y806354D01*
X602757Y806435D01*
X602872Y806513D01*
X602886Y806529D01*
X602902Y806540D01*
X602991Y806648D01*
X603083Y806752D01*
X603092Y806770D01*
X603105Y806785D01*
X603164Y806911D01*
X603227Y807035D01*
X603232Y807055D01*
X603240Y807073D01*
X603267Y807210D01*
X603297Y807345D01*
X603296Y807366D01*
X603300Y807385D01*
X603292Y807524D01*
X603287Y807663D01*
X603282Y807683D01*
X603280Y807703D01*
X603238Y807835D01*
X603199Y807969D01*
X603189Y807986D01*
X603182Y808005D01*
X603108Y808123D01*
X603037Y808243D01*
X603019Y808264D01*
X603012Y808274D01*
X602997Y808288D01*
X602931Y808363D01*
X601925Y809369D01*
X601003Y811595D01*
X601003Y814005D01*
X601925Y816231D01*
X603629Y817935D01*
X605855Y818857D01*
X608265Y818857D01*
X610491Y817935D01*
X612248Y816177D01*
X612291Y816102D01*
X612312Y816081D01*
X612327Y816056D01*
X612422Y815967D01*
X612512Y815874D01*
X612537Y815858D01*
X612559Y815838D01*
X612672Y815775D01*
X612783Y815707D01*
X612812Y815699D01*
X612838Y815684D01*
X612963Y815652D01*
X613087Y815614D01*
X613117Y815612D01*
X613146Y815605D01*
X613306Y815595D01*
X628538Y815595D01*
X769875Y674258D01*
X769875Y242047D01*
X767866Y240039D01*
X681662Y153835D01*
X681644Y153811D01*
X681621Y153792D01*
X681547Y153686D01*
X681467Y153583D01*
X681455Y153556D01*
X681438Y153532D01*
X681392Y153411D01*
X681341Y153292D01*
X681336Y153262D01*
X681326Y153235D01*
X681311Y153106D01*
X681291Y152977D01*
X681294Y152948D01*
X681290Y152919D01*
X681308Y152790D01*
X681321Y152661D01*
X681331Y152633D01*
X681335Y152604D01*
X681387Y152451D01*
X681991Y150994D01*
X681991Y147456D01*
X680637Y144189D01*
X678136Y141688D01*
X674869Y140334D01*
X671331Y140334D01*
X668064Y141688D01*
X665563Y144189D01*
X664209Y147456D01*
X664209Y150994D01*
X665563Y154261D01*
X668064Y156762D01*
X671331Y158116D01*
X674869Y158116D01*
X676326Y157512D01*
X676355Y157504D01*
X676381Y157491D01*
X676508Y157462D01*
X676633Y157428D01*
X676663Y157427D01*
X676691Y157421D01*
X676821Y157425D01*
X676951Y157423D01*
X676980Y157430D01*
X677009Y157431D01*
X677134Y157467D01*
X677260Y157497D01*
X677287Y157511D01*
X677315Y157519D01*
X677427Y157585D01*
X677542Y157646D01*
X677563Y157666D01*
X677589Y157681D01*
X677710Y157787D01*
X763914Y243991D01*
X763974Y244069D01*
X764042Y244141D01*
X764071Y244194D01*
X764108Y244242D01*
X764148Y244333D01*
X764196Y244420D01*
X764211Y244478D01*
X764235Y244534D01*
X764250Y244632D01*
X764275Y244728D01*
X764281Y244828D01*
X764285Y244848D01*
X764283Y244860D01*
X764285Y244888D01*
X764285Y321851D01*
X764268Y321989D01*
X764255Y322127D01*
X764248Y322146D01*
X764245Y322167D01*
X764194Y322296D01*
X764147Y322427D01*
X764136Y322444D01*
X764128Y322462D01*
X764047Y322575D01*
X763969Y322690D01*
X763953Y322703D01*
X763942Y322720D01*
X763834Y322808D01*
X763730Y322900D01*
X763712Y322910D01*
X763697Y322922D01*
X763571Y322982D01*
X763447Y323045D01*
X763427Y323049D01*
X763409Y323058D01*
X763272Y323084D01*
X763137Y323115D01*
X763116Y323114D01*
X763097Y323118D01*
X762958Y323109D01*
X762819Y323105D01*
X762799Y323099D01*
X762779Y323098D01*
X762647Y323055D01*
X762513Y323017D01*
X762496Y323006D01*
X762477Y323000D01*
X762359Y322926D01*
X762239Y322855D01*
X762218Y322836D01*
X762208Y322830D01*
X762194Y322815D01*
X762119Y322749D01*
X760561Y321192D01*
X758393Y319023D01*
X424635Y319023D01*
X424536Y319011D01*
X424437Y319008D01*
X424379Y318991D01*
X424319Y318983D01*
X424227Y318947D01*
X424132Y318919D01*
X424080Y318889D01*
X424023Y318866D01*
X423943Y318808D01*
X423858Y318758D01*
X423782Y318692D01*
X423766Y318680D01*
X423758Y318670D01*
X423737Y318652D01*
X422531Y317445D01*
X420305Y316523D01*
X417895Y316523D01*
X415669Y317445D01*
X413965Y319149D01*
X413043Y321375D01*
X413043Y323785D01*
X413965Y326011D01*
X414971Y327017D01*
X415056Y327126D01*
X415145Y327233D01*
X415154Y327252D01*
X415166Y327268D01*
X415221Y327395D01*
X415280Y327521D01*
X415284Y327541D01*
X415292Y327560D01*
X415314Y327698D01*
X415340Y327834D01*
X415339Y327854D01*
X415342Y327874D01*
X415329Y328013D01*
X415320Y328151D01*
X415314Y328170D01*
X415312Y328190D01*
X415265Y328322D01*
X415222Y328453D01*
X415212Y328471D01*
X415205Y328490D01*
X415127Y328605D01*
X415052Y328722D01*
X415038Y328736D01*
X415026Y328753D01*
X414922Y328845D01*
X414821Y328940D01*
X414803Y328950D01*
X414788Y328963D01*
X414664Y329026D01*
X414542Y329094D01*
X414523Y329099D01*
X414505Y329108D01*
X414369Y329138D01*
X414234Y329173D01*
X414206Y329175D01*
X414194Y329178D01*
X414174Y329177D01*
X414074Y329183D01*
X335712Y329183D01*
X333257Y331638D01*
X333257Y331639D01*
X331067Y333828D01*
X331044Y333846D01*
X331025Y333869D01*
X330919Y333943D01*
X330816Y334023D01*
X330789Y334035D01*
X330765Y334052D01*
X330643Y334098D01*
X330524Y334149D01*
X330495Y334154D01*
X330467Y334164D01*
X330338Y334179D01*
X330210Y334199D01*
X330180Y334196D01*
X330151Y334200D01*
X330023Y334182D01*
X329893Y334169D01*
X329865Y334159D01*
X329836Y334155D01*
X329684Y334103D01*
X328844Y333755D01*
X325206Y333755D01*
X324366Y334103D01*
X324338Y334111D01*
X324311Y334124D01*
X324185Y334153D01*
X324059Y334187D01*
X324030Y334188D01*
X324001Y334194D01*
X323871Y334190D01*
X323741Y334192D01*
X323713Y334185D01*
X323683Y334184D01*
X323559Y334148D01*
X323432Y334118D01*
X323406Y334104D01*
X323378Y334096D01*
X323266Y334030D01*
X323151Y333969D01*
X323129Y333949D01*
X323104Y333934D01*
X322983Y333828D01*
X308178Y319023D01*
X170635Y319023D01*
X170536Y319011D01*
X170437Y319008D01*
X170379Y318991D01*
X170319Y318983D01*
X170227Y318947D01*
X170132Y318919D01*
X170080Y318889D01*
X170023Y318866D01*
X169943Y318808D01*
X169858Y318758D01*
X169782Y318692D01*
X169766Y318680D01*
X169758Y318670D01*
X169737Y318652D01*
X168531Y317445D01*
X166305Y316523D01*
X163895Y316523D01*
X161669Y317445D01*
X159965Y319149D01*
X159043Y321375D01*
X159043Y323785D01*
X159965Y326011D01*
X161669Y327715D01*
X163895Y328637D01*
X166305Y328637D01*
X168531Y327715D01*
X169737Y326508D01*
X169815Y326448D01*
X169887Y326380D01*
X169940Y326351D01*
X169988Y326314D01*
X170079Y326274D01*
X170166Y326226D01*
X170224Y326211D01*
X170280Y326187D01*
X170378Y326172D01*
X170474Y326147D01*
X170574Y326141D01*
X170594Y326137D01*
X170607Y326139D01*
X170635Y326137D01*
X304706Y326137D01*
X304804Y326149D01*
X304903Y326152D01*
X304961Y326169D01*
X305022Y326177D01*
X305114Y326213D01*
X305209Y326241D01*
X305261Y326271D01*
X305317Y326294D01*
X305397Y326352D01*
X305483Y326402D01*
X305558Y326468D01*
X305575Y326480D01*
X305582Y326490D01*
X305604Y326508D01*
X317953Y338858D01*
X317971Y338881D01*
X317994Y338900D01*
X318068Y339006D01*
X318148Y339109D01*
X318160Y339136D01*
X318177Y339160D01*
X318223Y339282D01*
X318274Y339401D01*
X318279Y339430D01*
X318289Y339458D01*
X318304Y339587D01*
X318324Y339715D01*
X318321Y339745D01*
X318325Y339774D01*
X318307Y339902D01*
X318294Y340032D01*
X318284Y340060D01*
X318280Y340089D01*
X318228Y340241D01*
X317880Y341081D01*
X317880Y344719D01*
X319272Y348080D01*
X321845Y350653D01*
X325206Y352045D01*
X328844Y352045D01*
X332205Y350653D01*
X334778Y348080D01*
X336170Y344719D01*
X336170Y341081D01*
X335822Y340241D01*
X335814Y340213D01*
X335801Y340186D01*
X335797Y340171D01*
X335795Y340167D01*
X335789Y340135D01*
X335772Y340060D01*
X335738Y339934D01*
X335737Y339905D01*
X335731Y339876D01*
X335735Y339746D01*
X335733Y339616D01*
X335740Y339588D01*
X335741Y339558D01*
X335777Y339434D01*
X335807Y339307D01*
X335821Y339281D01*
X335829Y339253D01*
X335895Y339141D01*
X335956Y339026D01*
X335976Y339004D01*
X335991Y338979D01*
X336097Y338858D01*
X338286Y336668D01*
X338365Y336608D01*
X338437Y336540D01*
X338490Y336511D01*
X338538Y336474D01*
X338629Y336434D01*
X338715Y336386D01*
X338774Y336371D01*
X338830Y336347D01*
X338928Y336332D01*
X339023Y336307D01*
X339123Y336301D01*
X339144Y336297D01*
X339156Y336299D01*
X339184Y336297D01*
X555805Y336297D01*
X555904Y336309D01*
X556003Y336312D01*
X556061Y336329D01*
X556121Y336337D01*
X556213Y336373D01*
X556308Y336401D01*
X556360Y336431D01*
X556417Y336454D01*
X556497Y336512D01*
X556582Y336562D01*
X556658Y336628D01*
X556674Y336640D01*
X556682Y336650D01*
X556703Y336668D01*
X557909Y337875D01*
X560135Y338797D01*
X562545Y338797D01*
X564771Y337875D01*
X566475Y336171D01*
X567397Y333945D01*
X567397Y331535D01*
X566475Y329309D01*
X565469Y328303D01*
X565384Y328194D01*
X565295Y328087D01*
X565286Y328068D01*
X565274Y328052D01*
X565219Y327925D01*
X565160Y327799D01*
X565156Y327779D01*
X565148Y327760D01*
X565126Y327622D01*
X565100Y327486D01*
X565101Y327466D01*
X565098Y327446D01*
X565111Y327307D01*
X565120Y327169D01*
X565126Y327150D01*
X565128Y327130D01*
X565175Y326998D01*
X565218Y326867D01*
X565228Y326849D01*
X565235Y326830D01*
X565313Y326715D01*
X565388Y326598D01*
X565402Y326584D01*
X565414Y326567D01*
X565518Y326475D01*
X565619Y326380D01*
X565637Y326370D01*
X565652Y326357D01*
X565776Y326294D01*
X565898Y326226D01*
X565917Y326221D01*
X565935Y326212D01*
X566071Y326182D01*
X566206Y326147D01*
X566234Y326145D01*
X566246Y326142D01*
X566266Y326143D01*
X566366Y326137D01*
X754634Y326137D01*
X754752Y326152D01*
X754871Y326159D01*
X754909Y326172D01*
X754950Y326177D01*
X755060Y326220D01*
X755173Y326257D01*
X755208Y326279D01*
X755245Y326294D01*
X755341Y326363D01*
X755442Y326427D01*
X755470Y326457D01*
X755503Y326480D01*
X755579Y326572D01*
X755660Y326659D01*
X755680Y326694D01*
X755705Y326725D01*
X755756Y326833D01*
X755814Y326937D01*
X755824Y326977D01*
X755841Y327013D01*
X755863Y327130D01*
X755893Y327245D01*
X755897Y327305D01*
X755901Y327325D01*
X755899Y327346D01*
X755903Y327406D01*
X755903Y666021D01*
X755891Y666119D01*
X755888Y666218D01*
X755871Y666276D01*
X755863Y666337D01*
X755827Y666429D01*
X755799Y666524D01*
X755769Y666576D01*
X755746Y666632D01*
X755688Y666712D01*
X755638Y666798D01*
X755572Y666873D01*
X755560Y666890D01*
X755550Y666897D01*
X755532Y666919D01*
X623739Y798712D01*
X623660Y798772D01*
X623588Y798840D01*
X623535Y798869D01*
X623487Y798906D01*
X623396Y798946D01*
X623310Y798994D01*
X623251Y799009D01*
X623195Y799033D01*
X623097Y799048D01*
X623002Y799073D01*
X622902Y799079D01*
X622881Y799083D01*
X622869Y799081D01*
X622841Y799083D01*
X599895Y799083D01*
X599796Y799071D01*
X599697Y799068D01*
X599639Y799051D01*
X599579Y799043D01*
X599487Y799007D01*
X599392Y798979D01*
X599340Y798949D01*
X599283Y798926D01*
X599203Y798868D01*
X599118Y798818D01*
X599042Y798752D01*
X599026Y798740D01*
X599018Y798730D01*
X598997Y798712D01*
X597791Y797505D01*
X595565Y796583D01*
X593155Y796583D01*
X590929Y797505D01*
X589923Y798511D01*
X589814Y798596D01*
X589707Y798685D01*
X589688Y798694D01*
X589672Y798706D01*
X589545Y798761D01*
X589419Y798820D01*
X589399Y798824D01*
X589380Y798832D01*
X589242Y798854D01*
X589106Y798880D01*
X589086Y798879D01*
X589066Y798882D01*
X588927Y798869D01*
X588789Y798860D01*
X588770Y798854D01*
X588750Y798852D01*
X588618Y798805D01*
X588487Y798762D01*
X588469Y798752D01*
X588450Y798745D01*
X588335Y798667D01*
X588218Y798592D01*
X588204Y798578D01*
X588187Y798566D01*
X588095Y798462D01*
X588000Y798361D01*
X587990Y798343D01*
X587977Y798328D01*
X587914Y798204D01*
X587846Y798082D01*
X587841Y798063D01*
X587832Y798045D01*
X587802Y797909D01*
X587767Y797774D01*
X587765Y797746D01*
X587762Y797734D01*
X587763Y797714D01*
X587757Y797614D01*
X587757Y651307D01*
X473828Y537379D01*
X473768Y537300D01*
X473700Y537228D01*
X473671Y537175D01*
X473634Y537127D01*
X473594Y537036D01*
X473546Y536950D01*
X473531Y536891D01*
X473507Y536835D01*
X473492Y536737D01*
X473467Y536642D01*
X473461Y536542D01*
X473457Y536521D01*
X473459Y536509D01*
X473457Y536481D01*
X473457Y514098D01*
X473460Y514069D01*
X473458Y514039D01*
X473480Y513911D01*
X473497Y513782D01*
X473507Y513755D01*
X473512Y513726D01*
X473566Y513607D01*
X473614Y513487D01*
X473631Y513463D01*
X473643Y513436D01*
X473724Y513335D01*
X473800Y513229D01*
X473823Y513211D01*
X473842Y513188D01*
X473945Y513109D01*
X474045Y513027D01*
X474072Y513014D01*
X474096Y512996D01*
X474240Y512925D01*
X475080Y512578D01*
X477653Y510005D01*
X479045Y506644D01*
X479045Y503006D01*
X477653Y499645D01*
X475080Y497072D01*
X471719Y495680D01*
X468081Y495680D01*
X464720Y497072D01*
X462147Y499645D01*
X460755Y503006D01*
X460755Y506644D01*
X462147Y510005D01*
X464720Y512578D01*
X465560Y512925D01*
X465585Y512940D01*
X465613Y512949D01*
X465723Y513019D01*
X465836Y513083D01*
X465857Y513103D01*
X465882Y513119D01*
X465971Y513214D01*
X466064Y513304D01*
X466080Y513329D01*
X466100Y513351D01*
X466163Y513465D01*
X466231Y513575D01*
X466239Y513604D01*
X466254Y513629D01*
X466286Y513755D01*
X466324Y513879D01*
X466326Y513909D01*
X466333Y513937D01*
X466343Y514098D01*
X466343Y539953D01*
X580272Y653881D01*
X580332Y653960D01*
X580400Y654032D01*
X580429Y654085D01*
X580466Y654133D01*
X580506Y654224D01*
X580554Y654310D01*
X580569Y654369D01*
X580593Y654425D01*
X580608Y654523D01*
X580633Y654618D01*
X580639Y654718D01*
X580643Y654739D01*
X580641Y654751D01*
X580643Y654779D01*
X580643Y852402D01*
X580640Y852432D01*
X580642Y852461D01*
X580620Y852589D01*
X580603Y852718D01*
X580593Y852745D01*
X580588Y852775D01*
X580534Y852893D01*
X580486Y853014D01*
X580469Y853038D01*
X580457Y853065D01*
X580376Y853166D01*
X580300Y853271D01*
X580277Y853290D01*
X580258Y853313D01*
X580155Y853391D01*
X580055Y853474D01*
X580028Y853486D01*
X580004Y853504D01*
X579860Y853575D01*
X578013Y854340D01*
X574940Y857413D01*
X573277Y861427D01*
X573277Y865773D01*
X574940Y869787D01*
X578013Y872860D01*
X579808Y873603D01*
X579868Y873638D01*
X579933Y873664D01*
X580006Y873716D01*
X580084Y873761D01*
X580134Y873809D01*
X580191Y873850D01*
X580248Y873920D01*
X580313Y873982D01*
X580349Y874042D01*
X580394Y874095D01*
X580432Y874177D01*
X580479Y874253D01*
X580499Y874320D01*
X580529Y874383D01*
X580546Y874471D01*
X580572Y874557D01*
X580576Y874627D01*
X580589Y874696D01*
X580583Y874785D01*
X580588Y874875D01*
X580573Y874943D01*
X580569Y875013D01*
X580541Y875098D01*
X580523Y875186D01*
X580493Y875249D01*
X580471Y875315D01*
X580423Y875391D01*
X580384Y875472D01*
X580338Y875525D01*
X580301Y875584D01*
X580236Y875646D01*
X580177Y875714D01*
X580120Y875754D01*
X580069Y875802D01*
X579991Y875845D01*
X579917Y875897D01*
X579852Y875922D01*
X579791Y875956D01*
X579704Y875978D01*
X579620Y876010D01*
X579550Y876018D01*
X579483Y876035D01*
X579322Y876045D01*
X563678Y876045D01*
X563609Y876037D01*
X563539Y876038D01*
X563451Y876017D01*
X563362Y876005D01*
X563297Y875980D01*
X563230Y875963D01*
X563150Y875921D01*
X563067Y875888D01*
X563010Y875847D01*
X562948Y875815D01*
X562882Y875754D01*
X562809Y875702D01*
X562765Y875648D01*
X562713Y875601D01*
X562664Y875526D01*
X562606Y875457D01*
X562577Y875393D01*
X562538Y875335D01*
X562509Y875250D01*
X562471Y875169D01*
X562458Y875100D01*
X562435Y875034D01*
X562428Y874945D01*
X562411Y874857D01*
X562415Y874787D01*
X562410Y874717D01*
X562425Y874629D01*
X562431Y874539D01*
X562452Y874473D01*
X562464Y874404D01*
X562501Y874322D01*
X562529Y874237D01*
X562566Y874178D01*
X562595Y874114D01*
X562651Y874044D01*
X562699Y873968D01*
X562750Y873920D01*
X562794Y873866D01*
X562865Y873811D01*
X562931Y873750D01*
X562992Y873716D01*
X563048Y873674D01*
X563192Y873603D01*
X564987Y872860D01*
X568060Y869787D01*
X569723Y865773D01*
X569723Y861427D01*
X568060Y857413D01*
X564987Y854340D01*
X563140Y853575D01*
X563115Y853560D01*
X563087Y853551D01*
X562977Y853482D01*
X562864Y853418D01*
X562843Y853397D01*
X562818Y853381D01*
X562729Y853287D01*
X562636Y853196D01*
X562620Y853171D01*
X562600Y853150D01*
X562537Y853036D01*
X562469Y852925D01*
X562461Y852897D01*
X562446Y852871D01*
X562414Y852745D01*
X562376Y852621D01*
X562374Y852592D01*
X562367Y852563D01*
X562357Y852402D01*
X562357Y643052D01*
X559901Y640597D01*
X428172Y508867D01*
X428154Y508844D01*
X428131Y508825D01*
X428057Y508719D01*
X427977Y508616D01*
X427965Y508589D01*
X427948Y508565D01*
X427902Y508443D01*
X427851Y508324D01*
X427846Y508295D01*
X427836Y508267D01*
X427821Y508138D01*
X427801Y508010D01*
X427804Y507980D01*
X427800Y507951D01*
X427818Y507823D01*
X427831Y507693D01*
X427841Y507665D01*
X427845Y507636D01*
X427897Y507484D01*
X428245Y506644D01*
X428245Y503006D01*
X426853Y499645D01*
X424280Y497072D01*
X420919Y495680D01*
X417281Y495680D01*
X413920Y497072D01*
X411347Y499645D01*
X409955Y503006D01*
X409955Y506644D01*
X411347Y510005D01*
X413920Y512578D01*
X417281Y513970D01*
X420919Y513970D01*
X421759Y513622D01*
X421787Y513614D01*
X421814Y513601D01*
X421940Y513572D01*
X422066Y513538D01*
X422095Y513537D01*
X422124Y513531D01*
X422254Y513535D01*
X422384Y513533D01*
X422412Y513540D01*
X422442Y513541D01*
X422566Y513577D01*
X422693Y513607D01*
X422719Y513621D01*
X422747Y513629D01*
X422859Y513695D01*
X422974Y513756D01*
X422996Y513776D01*
X423021Y513791D01*
X423142Y513897D01*
X554872Y645626D01*
X554932Y645705D01*
X555000Y645777D01*
X555029Y645830D01*
X555066Y645878D01*
X555106Y645969D01*
X555154Y646055D01*
X555169Y646114D01*
X555193Y646170D01*
X555208Y646268D01*
X555233Y646363D01*
X555239Y646463D01*
X555243Y646484D01*
X555241Y646496D01*
X555243Y646524D01*
X555243Y852402D01*
X555240Y852432D01*
X555242Y852461D01*
X555220Y852589D01*
X555203Y852718D01*
X555193Y852745D01*
X555188Y852775D01*
X555134Y852893D01*
X555086Y853014D01*
X555069Y853038D01*
X555057Y853065D01*
X554976Y853166D01*
X554900Y853271D01*
X554877Y853290D01*
X554858Y853313D01*
X554755Y853391D01*
X554655Y853474D01*
X554628Y853486D01*
X554604Y853504D01*
X554460Y853575D01*
X552613Y854340D01*
X549540Y857413D01*
X547877Y861427D01*
X547877Y865773D01*
X549540Y869787D01*
X552613Y872860D01*
X554408Y873603D01*
X554468Y873638D01*
X554533Y873664D01*
X554606Y873716D01*
X554684Y873761D01*
X554734Y873809D01*
X554791Y873850D01*
X554848Y873920D01*
X554913Y873982D01*
X554949Y874042D01*
X554994Y874095D01*
X555032Y874177D01*
X555079Y874253D01*
X555099Y874320D01*
X555129Y874383D01*
X555146Y874471D01*
X555172Y874557D01*
X555176Y874627D01*
X555189Y874696D01*
X555183Y874785D01*
X555188Y874875D01*
X555173Y874943D01*
X555169Y875013D01*
X555141Y875098D01*
X555123Y875186D01*
X555093Y875249D01*
X555071Y875315D01*
X555023Y875391D01*
X554984Y875472D01*
X554938Y875525D01*
X554901Y875584D01*
X554836Y875646D01*
X554777Y875714D01*
X554720Y875754D01*
X554669Y875802D01*
X554591Y875845D01*
X554517Y875897D01*
X554452Y875922D01*
X554391Y875956D01*
X554304Y875978D01*
X554220Y876010D01*
X554150Y876018D01*
X554083Y876035D01*
X553922Y876045D01*
X538278Y876045D01*
X538209Y876037D01*
X538139Y876038D01*
X538051Y876017D01*
X537962Y876005D01*
X537897Y875980D01*
X537830Y875963D01*
X537750Y875921D01*
X537667Y875888D01*
X537610Y875847D01*
X537548Y875815D01*
X537482Y875754D01*
X537409Y875702D01*
X537365Y875648D01*
X537313Y875601D01*
X537264Y875526D01*
X537206Y875457D01*
X537177Y875393D01*
X537138Y875335D01*
X537109Y875250D01*
X537071Y875169D01*
X537058Y875100D01*
X537035Y875034D01*
X537028Y874945D01*
X537011Y874857D01*
X537015Y874787D01*
X537010Y874717D01*
X537025Y874629D01*
X537031Y874539D01*
X537052Y874473D01*
X537064Y874404D01*
X537101Y874322D01*
X537129Y874237D01*
X537166Y874178D01*
X537195Y874114D01*
X537251Y874044D01*
X537299Y873968D01*
X537350Y873920D01*
X537394Y873866D01*
X537465Y873811D01*
X537531Y873750D01*
X537592Y873716D01*
X537648Y873674D01*
X537792Y873603D01*
X539587Y872860D01*
X542660Y869787D01*
X544323Y865773D01*
X544323Y861427D01*
X542660Y857413D01*
X539587Y854340D01*
X537740Y853575D01*
X537715Y853560D01*
X537687Y853551D01*
X537577Y853482D01*
X537464Y853418D01*
X537443Y853397D01*
X537418Y853381D01*
X537329Y853287D01*
X537236Y853196D01*
X537220Y853171D01*
X537200Y853150D01*
X537137Y853036D01*
X537069Y852925D01*
X537061Y852897D01*
X537046Y852871D01*
X537014Y852745D01*
X536976Y852621D01*
X536974Y852592D01*
X536967Y852563D01*
X536957Y852402D01*
X536957Y818947D01*
X532333Y814323D01*
X340815Y814323D01*
X340716Y814311D01*
X340617Y814308D01*
X340559Y814291D01*
X340499Y814283D01*
X340407Y814247D01*
X340312Y814219D01*
X340260Y814189D01*
X340203Y814166D01*
X340123Y814108D01*
X340038Y814058D01*
X339962Y813992D01*
X339946Y813980D01*
X339938Y813970D01*
X339917Y813952D01*
X338711Y812745D01*
X336485Y811823D01*
X334075Y811823D01*
X331849Y812745D01*
X330145Y814449D01*
X329223Y816675D01*
X329223Y819085D01*
X330145Y821311D01*
X331849Y823015D01*
X334075Y823937D01*
X336485Y823937D01*
X338711Y823015D01*
X339917Y821808D01*
X339995Y821748D01*
X340067Y821680D01*
X340120Y821651D01*
X340168Y821614D01*
X340259Y821574D01*
X340346Y821526D01*
X340404Y821511D01*
X340460Y821487D01*
X340558Y821472D01*
X340654Y821447D01*
X340754Y821441D01*
X340774Y821437D01*
X340787Y821439D01*
X340815Y821437D01*
X528574Y821437D01*
X528692Y821452D01*
X528811Y821459D01*
X528849Y821472D01*
X528890Y821477D01*
X529000Y821520D01*
X529113Y821557D01*
X529148Y821579D01*
X529185Y821594D01*
X529281Y821663D01*
X529382Y821727D01*
X529410Y821757D01*
X529443Y821780D01*
X529519Y821872D01*
X529600Y821959D01*
X529620Y821994D01*
X529645Y822025D01*
X529696Y822133D01*
X529754Y822237D01*
X529764Y822277D01*
X529781Y822313D01*
X529803Y822430D01*
X529833Y822545D01*
X529837Y822605D01*
X529841Y822625D01*
X529839Y822646D01*
X529843Y822706D01*
X529843Y852402D01*
X529840Y852432D01*
X529842Y852461D01*
X529820Y852589D01*
X529803Y852718D01*
X529793Y852745D01*
X529788Y852775D01*
X529734Y852893D01*
X529686Y853014D01*
X529669Y853038D01*
X529657Y853065D01*
X529576Y853166D01*
X529500Y853271D01*
X529477Y853290D01*
X529458Y853313D01*
X529355Y853391D01*
X529255Y853474D01*
X529228Y853486D01*
X529204Y853504D01*
X529060Y853575D01*
X527213Y854340D01*
X524140Y857413D01*
X522477Y861427D01*
X522477Y865773D01*
X524140Y869787D01*
X527213Y872860D01*
X529008Y873603D01*
X529068Y873638D01*
X529133Y873664D01*
X529206Y873716D01*
X529284Y873761D01*
X529334Y873809D01*
X529391Y873850D01*
X529448Y873920D01*
X529513Y873982D01*
X529549Y874042D01*
X529594Y874095D01*
X529632Y874177D01*
X529679Y874253D01*
X529699Y874320D01*
X529729Y874383D01*
X529746Y874471D01*
X529772Y874557D01*
X529776Y874627D01*
X529789Y874696D01*
X529783Y874785D01*
X529788Y874875D01*
X529773Y874943D01*
X529769Y875013D01*
X529741Y875098D01*
X529723Y875186D01*
X529693Y875249D01*
X529671Y875315D01*
X529623Y875391D01*
X529584Y875472D01*
X529538Y875525D01*
X529501Y875584D01*
X529436Y875646D01*
X529377Y875714D01*
X529320Y875754D01*
X529269Y875802D01*
X529191Y875845D01*
X529117Y875897D01*
X529052Y875922D01*
X528991Y875956D01*
X528904Y875978D01*
X528820Y876010D01*
X528750Y876018D01*
X528683Y876035D01*
X528522Y876045D01*
X512878Y876045D01*
X512809Y876037D01*
X512739Y876038D01*
X512651Y876017D01*
X512562Y876005D01*
X512497Y875980D01*
X512430Y875963D01*
X512350Y875921D01*
X512267Y875888D01*
X512210Y875847D01*
X512148Y875815D01*
X512082Y875754D01*
X512009Y875702D01*
X511965Y875648D01*
X511913Y875601D01*
X511864Y875526D01*
X511806Y875457D01*
X511777Y875393D01*
X511738Y875335D01*
X511709Y875250D01*
X511671Y875169D01*
X511658Y875100D01*
X511635Y875034D01*
X511628Y874945D01*
X511611Y874857D01*
X511615Y874787D01*
X511610Y874717D01*
X511625Y874629D01*
X511631Y874539D01*
X511652Y874473D01*
X511664Y874404D01*
X511701Y874322D01*
X511729Y874237D01*
X511766Y874178D01*
X511795Y874114D01*
X511851Y874044D01*
X511899Y873968D01*
X511950Y873920D01*
X511994Y873866D01*
X512065Y873811D01*
X512131Y873750D01*
X512192Y873716D01*
X512248Y873674D01*
X512392Y873603D01*
X514187Y872860D01*
X517260Y869787D01*
X518923Y865773D01*
X518923Y861427D01*
X517260Y857413D01*
X514187Y854340D01*
X510173Y852677D01*
X505827Y852677D01*
X501813Y854340D01*
X498740Y857413D01*
X497077Y861427D01*
X497077Y865773D01*
X498740Y869787D01*
X501813Y872860D01*
X503608Y873603D01*
X503668Y873638D01*
X503733Y873664D01*
X503806Y873716D01*
X503884Y873761D01*
X503934Y873809D01*
X503991Y873850D01*
X504048Y873920D01*
X504113Y873982D01*
X504149Y874042D01*
X504194Y874095D01*
X504232Y874177D01*
X504279Y874253D01*
X504299Y874320D01*
X504329Y874383D01*
X504346Y874471D01*
X504372Y874557D01*
X504376Y874627D01*
X504389Y874696D01*
X504383Y874785D01*
X504388Y874875D01*
X504373Y874943D01*
X504369Y875013D01*
X504341Y875098D01*
X504323Y875186D01*
X504293Y875249D01*
X504271Y875315D01*
X504223Y875391D01*
X504184Y875472D01*
X504138Y875525D01*
X504101Y875584D01*
X504036Y875646D01*
X503977Y875714D01*
X503920Y875754D01*
X503869Y875802D01*
X503791Y875845D01*
X503717Y875897D01*
X503652Y875922D01*
X503591Y875956D01*
X503504Y875978D01*
X503420Y876010D01*
X503350Y876018D01*
X503283Y876035D01*
X503122Y876045D01*
X499523Y876045D01*
X499425Y876033D01*
X499326Y876030D01*
X499268Y876013D01*
X499208Y876005D01*
X499116Y875969D01*
X499021Y875941D01*
X498968Y875911D01*
X498912Y875888D01*
X498832Y875830D01*
X498747Y875780D01*
X498671Y875714D01*
X498655Y875702D01*
X498647Y875692D01*
X498626Y875674D01*
X492717Y869765D01*
X492699Y869741D01*
X492677Y869722D01*
X492602Y869616D01*
X492522Y869514D01*
X492510Y869486D01*
X492494Y869462D01*
X492448Y869341D01*
X492396Y869222D01*
X492391Y869193D01*
X492381Y869165D01*
X492366Y869036D01*
X492346Y868908D01*
X492349Y868878D01*
X492346Y868849D01*
X492364Y868720D01*
X492376Y868591D01*
X492386Y868563D01*
X492390Y868534D01*
X492442Y868382D01*
X493523Y865773D01*
X493523Y861427D01*
X491860Y857413D01*
X488787Y854340D01*
X484773Y852677D01*
X480427Y852677D01*
X476413Y854340D01*
X473340Y857413D01*
X471677Y861427D01*
X471677Y865773D01*
X473340Y869787D01*
X476413Y872860D01*
X480427Y874523D01*
X484773Y874523D01*
X487382Y873442D01*
X487410Y873434D01*
X487436Y873421D01*
X487563Y873392D01*
X487688Y873358D01*
X487718Y873358D01*
X487747Y873351D01*
X487876Y873355D01*
X488006Y873353D01*
X488035Y873360D01*
X488065Y873361D01*
X488189Y873397D01*
X488316Y873427D01*
X488342Y873441D01*
X488370Y873449D01*
X488482Y873515D01*
X488597Y873576D01*
X488619Y873596D01*
X488644Y873611D01*
X488765Y873717D01*
X496682Y881635D01*
X586820Y881635D01*
X586821Y881635D01*
X586981Y881655D01*
X587136Y881675D01*
X587137Y881675D01*
X587280Y881732D01*
X587432Y881792D01*
X587550Y881878D01*
X587689Y881978D01*
X587689Y881979D01*
X587690Y881979D01*
X587789Y882099D01*
X587892Y882223D01*
X587892Y882224D01*
X587970Y882389D01*
X588027Y882511D01*
X588027Y882512D01*
X588028Y882512D01*
X588057Y882667D01*
X588087Y882823D01*
X588087Y882824D01*
X588087Y882825D01*
X588077Y882984D01*
X588067Y883141D01*
X588067Y883142D01*
X588017Y883295D01*
X587969Y883443D01*
X587969Y883444D01*
X587900Y883552D01*
X587799Y883712D01*
X587798Y883713D01*
X587685Y883820D01*
X587567Y883930D01*
X587567Y883931D01*
X587433Y884004D01*
X587289Y884084D01*
X587288Y884084D01*
X587135Y884134D01*
X548054Y894130D01*
X548033Y894133D01*
X547941Y894153D01*
X507945Y900581D01*
X507924Y900582D01*
X507831Y900595D01*
X467416Y903359D01*
X467395Y903358D01*
X467301Y903362D01*
X426803Y902440D01*
X426782Y902436D01*
X426687Y902432D01*
X386441Y897831D01*
X386420Y897826D01*
X386327Y897812D01*
X346665Y889571D01*
X346645Y889564D01*
X346553Y889542D01*
X307806Y877728D01*
X307786Y877719D01*
X307697Y877689D01*
X270184Y862400D01*
X270166Y862390D01*
X270079Y862352D01*
X234112Y843715D01*
X234095Y843703D01*
X234012Y843657D01*
X199889Y821827D01*
X199872Y821814D01*
X199794Y821761D01*
X167797Y796918D01*
X167782Y796903D01*
X167709Y796843D01*
X138104Y769194D01*
X138091Y769177D01*
X138023Y769111D01*
X111055Y738884D01*
X111043Y738867D01*
X110982Y738795D01*
X86874Y706240D01*
X86864Y706222D01*
X86810Y706145D01*
X65762Y671533D01*
X65754Y671514D01*
X65707Y671432D01*
X47894Y635050D01*
X47887Y635030D01*
X47848Y634944D01*
X33417Y597093D01*
X33412Y597072D01*
X33381Y596983D01*
X22451Y557976D01*
X22448Y557956D01*
X22425Y557864D01*
X15089Y518025D01*
X15087Y518004D01*
X15073Y517911D01*
X11389Y477570D01*
X11390Y477548D01*
X11384Y477454D01*
X11384Y436946D01*
X11387Y436925D01*
X11389Y436830D01*
X15073Y396489D01*
X15077Y396469D01*
X15089Y396375D01*
X22425Y356536D01*
X22432Y356516D01*
X22451Y356424D01*
X33381Y317417D01*
X33389Y317397D01*
X33417Y317307D01*
X47848Y279456D01*
X47858Y279438D01*
X47894Y279350D01*
X65707Y242968D01*
X65718Y242950D01*
X65762Y242867D01*
X86810Y208255D01*
X86823Y208239D01*
X86874Y208160D01*
X110982Y175605D01*
X110997Y175590D01*
X111055Y175516D01*
X138023Y145289D01*
X138039Y145275D01*
X138104Y145206D01*
X167709Y117557D01*
X167727Y117544D01*
X167797Y117482D01*
X199794Y92639D01*
X199812Y92629D01*
X199889Y92573D01*
X234012Y70743D01*
X234031Y70733D01*
X234112Y70685D01*
X270079Y52048D01*
X270099Y52041D01*
X270184Y52000D01*
X307697Y36711D01*
X307717Y36705D01*
X307806Y36672D01*
X346553Y24858D01*
X346574Y24854D01*
X346665Y24829D01*
X386327Y16588D01*
X386348Y16586D01*
X386441Y16569D01*
X426687Y11968D01*
X426709Y11969D01*
X426803Y11960D01*
X467301Y11038D01*
X467322Y11041D01*
G37*
%LPC*%
G36*
X89732Y415289D02*
X89732Y415289D01*
X79073Y418145D01*
X69516Y423663D01*
X61713Y431466D01*
X56195Y441023D01*
X53339Y451682D01*
X53339Y462718D01*
X56195Y473377D01*
X61713Y482934D01*
X69516Y490737D01*
X79073Y496255D01*
X89732Y499111D01*
X100768Y499111D01*
X111427Y496255D01*
X120984Y490737D01*
X128787Y482934D01*
X134305Y473377D01*
X137161Y462718D01*
X137161Y451682D01*
X134305Y441023D01*
X128787Y431466D01*
X120984Y423663D01*
X111427Y418145D01*
X100768Y415289D01*
X89732Y415289D01*
G37*
%LPD*%
%LPC*%
G36*
X96530Y332900D02*
X96530Y332900D01*
X93030Y334350D01*
X90350Y337030D01*
X88900Y340530D01*
X88900Y344320D01*
X89337Y345375D01*
X89345Y345403D01*
X89359Y345429D01*
X89387Y345556D01*
X89421Y345681D01*
X89422Y345711D01*
X89428Y345740D01*
X89424Y345870D01*
X89426Y345999D01*
X89419Y346028D01*
X89419Y346058D01*
X89382Y346182D01*
X89352Y346309D01*
X89338Y346335D01*
X89330Y346363D01*
X89264Y346475D01*
X89203Y346590D01*
X89184Y346612D01*
X89169Y346637D01*
X89062Y346758D01*
X44619Y391202D01*
X42163Y393657D01*
X42163Y514393D01*
X44619Y516848D01*
X95412Y567642D01*
X95430Y567665D01*
X95453Y567685D01*
X95527Y567791D01*
X95607Y567893D01*
X95619Y567921D01*
X95636Y567945D01*
X95682Y568066D01*
X95733Y568185D01*
X95738Y568214D01*
X95749Y568242D01*
X95763Y568371D01*
X95783Y568499D01*
X95781Y568529D01*
X95784Y568558D01*
X95766Y568687D01*
X95753Y568816D01*
X95743Y568844D01*
X95739Y568873D01*
X95687Y569025D01*
X95250Y570080D01*
X95250Y573870D01*
X96700Y577370D01*
X99380Y580050D01*
X102880Y581500D01*
X106670Y581500D01*
X110170Y580050D01*
X112850Y577370D01*
X114300Y573870D01*
X114300Y570080D01*
X112850Y566580D01*
X110170Y563900D01*
X108353Y563148D01*
X108232Y563079D01*
X108109Y563014D01*
X108095Y563000D01*
X108077Y562990D01*
X107977Y562893D01*
X107874Y562800D01*
X107863Y562783D01*
X107848Y562769D01*
X107776Y562650D01*
X107699Y562534D01*
X107693Y562515D01*
X107682Y562498D01*
X107641Y562365D01*
X107596Y562233D01*
X107595Y562213D01*
X107589Y562194D01*
X107582Y562055D01*
X107571Y561916D01*
X107574Y561896D01*
X107573Y561876D01*
X107602Y561740D01*
X107625Y561603D01*
X107634Y561584D01*
X107638Y561565D01*
X107699Y561439D01*
X107756Y561313D01*
X107769Y561297D01*
X107777Y561279D01*
X107868Y561173D01*
X107955Y561065D01*
X107971Y561052D01*
X107984Y561037D01*
X108098Y560957D01*
X108209Y560873D01*
X108234Y560861D01*
X108244Y560854D01*
X108263Y560847D01*
X108353Y560802D01*
X110170Y560050D01*
X112850Y557370D01*
X114300Y553870D01*
X114300Y550080D01*
X113863Y549025D01*
X113855Y548997D01*
X113841Y548971D01*
X113813Y548844D01*
X113779Y548719D01*
X113778Y548689D01*
X113772Y548660D01*
X113776Y548530D01*
X113774Y548401D01*
X113781Y548372D01*
X113781Y548342D01*
X113818Y548218D01*
X113848Y548091D01*
X113862Y548065D01*
X113870Y548037D01*
X113936Y547925D01*
X113997Y547810D01*
X114016Y547788D01*
X114031Y547763D01*
X114138Y547642D01*
X119371Y542408D01*
X119450Y542348D01*
X119522Y542280D01*
X119575Y542251D01*
X119623Y542214D01*
X119714Y542174D01*
X119800Y542126D01*
X119859Y542111D01*
X119915Y542087D01*
X120013Y542072D01*
X120108Y542047D01*
X120208Y542041D01*
X120229Y542037D01*
X120241Y542039D01*
X120269Y542037D01*
X411025Y542037D01*
X411124Y542049D01*
X411223Y542052D01*
X411281Y542069D01*
X411341Y542077D01*
X411433Y542113D01*
X411528Y542141D01*
X411580Y542171D01*
X411637Y542194D01*
X411717Y542252D01*
X411802Y542302D01*
X411878Y542368D01*
X411894Y542380D01*
X411902Y542390D01*
X411923Y542408D01*
X413129Y543615D01*
X415355Y544537D01*
X417765Y544537D01*
X419991Y543615D01*
X421695Y541911D01*
X422617Y539685D01*
X422617Y537275D01*
X421695Y535049D01*
X419991Y533345D01*
X417765Y532423D01*
X415355Y532423D01*
X413129Y533345D01*
X411923Y534552D01*
X411845Y534612D01*
X411773Y534680D01*
X411720Y534709D01*
X411672Y534746D01*
X411581Y534786D01*
X411494Y534834D01*
X411436Y534849D01*
X411380Y534873D01*
X411282Y534888D01*
X411186Y534913D01*
X411086Y534919D01*
X411066Y534923D01*
X411053Y534921D01*
X411025Y534923D01*
X116797Y534923D01*
X114342Y537379D01*
X109108Y542612D01*
X109085Y542630D01*
X109065Y542653D01*
X108959Y542727D01*
X108857Y542807D01*
X108829Y542819D01*
X108805Y542836D01*
X108684Y542882D01*
X108565Y542933D01*
X108536Y542938D01*
X108508Y542949D01*
X108379Y542963D01*
X108251Y542983D01*
X108221Y542981D01*
X108192Y542984D01*
X108063Y542966D01*
X107934Y542953D01*
X107906Y542943D01*
X107877Y542939D01*
X107725Y542887D01*
X106670Y542450D01*
X102880Y542450D01*
X99380Y543900D01*
X96700Y546580D01*
X95250Y550080D01*
X95250Y553870D01*
X95319Y554036D01*
X95338Y554103D01*
X95365Y554167D01*
X95379Y554256D01*
X95403Y554342D01*
X95404Y554412D01*
X95415Y554481D01*
X95407Y554571D01*
X95408Y554660D01*
X95392Y554728D01*
X95385Y554798D01*
X95355Y554882D01*
X95334Y554970D01*
X95301Y555032D01*
X95278Y555097D01*
X95227Y555171D01*
X95185Y555251D01*
X95138Y555303D01*
X95099Y555360D01*
X95032Y555420D01*
X94971Y555486D01*
X94913Y555525D01*
X94861Y555571D01*
X94781Y555612D01*
X94706Y555661D01*
X94640Y555684D01*
X94577Y555715D01*
X94490Y555735D01*
X94405Y555764D01*
X94335Y555770D01*
X94267Y555785D01*
X94177Y555782D01*
X94088Y555789D01*
X94019Y555778D01*
X93949Y555775D01*
X93863Y555750D01*
X93775Y555735D01*
X93711Y555706D01*
X93644Y555687D01*
X93567Y555641D01*
X93485Y555605D01*
X93430Y555561D01*
X93370Y555525D01*
X93249Y555419D01*
X49648Y511819D01*
X49588Y511740D01*
X49520Y511668D01*
X49491Y511615D01*
X49454Y511567D01*
X49414Y511476D01*
X49366Y511390D01*
X49351Y511331D01*
X49327Y511275D01*
X49312Y511177D01*
X49287Y511082D01*
X49281Y510982D01*
X49277Y510961D01*
X49279Y510949D01*
X49277Y510921D01*
X49277Y397129D01*
X49289Y397031D01*
X49292Y396932D01*
X49309Y396874D01*
X49317Y396813D01*
X49353Y396721D01*
X49381Y396626D01*
X49411Y396574D01*
X49434Y396518D01*
X49492Y396438D01*
X49542Y396352D01*
X49608Y396277D01*
X49620Y396260D01*
X49630Y396253D01*
X49648Y396231D01*
X85799Y360080D01*
X85862Y360032D01*
X85919Y359975D01*
X85988Y359935D01*
X86051Y359886D01*
X86124Y359854D01*
X86192Y359813D01*
X86269Y359791D01*
X86343Y359759D01*
X86421Y359747D01*
X86498Y359724D01*
X86578Y359722D01*
X86657Y359709D01*
X86736Y359717D01*
X86816Y359714D01*
X86894Y359732D01*
X86973Y359739D01*
X87048Y359766D01*
X87126Y359783D01*
X87197Y359820D01*
X87273Y359847D01*
X87339Y359891D01*
X87410Y359928D01*
X87470Y359980D01*
X87536Y360025D01*
X87588Y360085D01*
X87648Y360138D01*
X87693Y360204D01*
X87746Y360264D01*
X87782Y360335D01*
X87827Y360401D01*
X87854Y360476D01*
X87891Y360547D01*
X87908Y360625D01*
X87927Y360676D01*
X97945Y360676D01*
X98063Y360691D01*
X98182Y360698D01*
X98220Y360710D01*
X98260Y360716D01*
X98371Y360759D01*
X98419Y360775D01*
X98437Y360765D01*
X98476Y360755D01*
X98512Y360738D01*
X98629Y360716D01*
X98745Y360686D01*
X98805Y360682D01*
X98825Y360678D01*
X98845Y360680D01*
X98905Y360676D01*
X108820Y360676D01*
X108706Y359957D01*
X108193Y358379D01*
X107440Y356901D01*
X106465Y355558D01*
X105292Y354385D01*
X103949Y353410D01*
X103194Y353025D01*
X103120Y352975D01*
X103041Y352933D01*
X102989Y352886D01*
X102931Y352846D01*
X102872Y352779D01*
X102806Y352719D01*
X102767Y352660D01*
X102721Y352608D01*
X102680Y352528D01*
X102631Y352453D01*
X102608Y352387D01*
X102577Y352324D01*
X102557Y352237D01*
X102528Y352152D01*
X102522Y352083D01*
X102507Y352014D01*
X102510Y351925D01*
X102503Y351835D01*
X102515Y351766D01*
X102517Y351696D01*
X102542Y351610D01*
X102557Y351522D01*
X102586Y351458D01*
X102605Y351391D01*
X102651Y351314D01*
X102688Y351232D01*
X102732Y351177D01*
X102767Y351117D01*
X102830Y351054D01*
X102886Y350984D01*
X102942Y350941D01*
X102992Y350892D01*
X103069Y350846D01*
X103140Y350792D01*
X103253Y350737D01*
X103265Y350730D01*
X103272Y350728D01*
X103285Y350721D01*
X103820Y350500D01*
X106500Y347820D01*
X107950Y344320D01*
X107950Y340530D01*
X106500Y337030D01*
X103820Y334350D01*
X100320Y332900D01*
X96530Y332900D01*
G37*
%LPD*%
%LPC*%
G36*
X404227Y39877D02*
X404227Y39877D01*
X400213Y41540D01*
X397140Y44613D01*
X395477Y48627D01*
X395477Y52973D01*
X396558Y55582D01*
X396566Y55610D01*
X396579Y55636D01*
X396608Y55763D01*
X396642Y55888D01*
X396642Y55918D01*
X396649Y55947D01*
X396645Y56076D01*
X396647Y56206D01*
X396640Y56235D01*
X396639Y56265D01*
X396603Y56389D01*
X396573Y56516D01*
X396559Y56542D01*
X396551Y56570D01*
X396485Y56682D01*
X396424Y56797D01*
X396404Y56819D01*
X396389Y56844D01*
X396283Y56965D01*
X337034Y116214D01*
X336956Y116274D01*
X336884Y116342D01*
X336831Y116371D01*
X336783Y116408D01*
X336692Y116448D01*
X336605Y116496D01*
X336547Y116511D01*
X336491Y116535D01*
X336393Y116550D01*
X336297Y116575D01*
X336197Y116581D01*
X336177Y116585D01*
X336165Y116583D01*
X336137Y116585D01*
X204582Y116585D01*
X187705Y133462D01*
X187705Y139911D01*
X187702Y139940D01*
X187704Y139970D01*
X187682Y140098D01*
X187665Y140227D01*
X187655Y140254D01*
X187650Y140283D01*
X187596Y140402D01*
X187548Y140522D01*
X187531Y140546D01*
X187519Y140573D01*
X187438Y140675D01*
X187362Y140780D01*
X187339Y140799D01*
X187320Y140822D01*
X187217Y140900D01*
X187117Y140983D01*
X187090Y140995D01*
X187066Y141013D01*
X186922Y141084D01*
X185464Y141688D01*
X182963Y144189D01*
X181609Y147456D01*
X181609Y150994D01*
X182963Y154261D01*
X185464Y156762D01*
X188731Y158116D01*
X192269Y158116D01*
X195536Y156762D01*
X198037Y154261D01*
X199391Y150994D01*
X199391Y147456D01*
X198037Y144189D01*
X195536Y141688D01*
X194078Y141084D01*
X194053Y141069D01*
X194025Y141060D01*
X193915Y140991D01*
X193802Y140926D01*
X193781Y140906D01*
X193756Y140890D01*
X193667Y140795D01*
X193574Y140705D01*
X193558Y140680D01*
X193538Y140658D01*
X193475Y140545D01*
X193407Y140434D01*
X193399Y140406D01*
X193384Y140380D01*
X193352Y140254D01*
X193314Y140130D01*
X193312Y140101D01*
X193305Y140072D01*
X193295Y139911D01*
X193295Y136303D01*
X193307Y136205D01*
X193310Y136106D01*
X193327Y136048D01*
X193335Y135988D01*
X193371Y135896D01*
X193399Y135801D01*
X193429Y135748D01*
X193452Y135692D01*
X193510Y135612D01*
X193560Y135527D01*
X193626Y135451D01*
X193638Y135435D01*
X193648Y135427D01*
X193666Y135406D01*
X206526Y122546D01*
X206604Y122486D01*
X206676Y122418D01*
X206729Y122389D01*
X206777Y122352D01*
X206868Y122312D01*
X206955Y122264D01*
X207013Y122249D01*
X207069Y122225D01*
X207167Y122210D01*
X207263Y122185D01*
X207363Y122179D01*
X207383Y122175D01*
X207395Y122177D01*
X207423Y122175D01*
X226409Y122175D01*
X226546Y122192D01*
X226685Y122205D01*
X226704Y122212D01*
X226724Y122215D01*
X226853Y122266D01*
X226984Y122313D01*
X227001Y122324D01*
X227020Y122332D01*
X227132Y122413D01*
X227247Y122491D01*
X227261Y122507D01*
X227277Y122518D01*
X227366Y122626D01*
X227458Y122730D01*
X227467Y122748D01*
X227480Y122763D01*
X227539Y122889D01*
X227603Y123013D01*
X227607Y123033D01*
X227616Y123051D01*
X227642Y123187D01*
X227672Y123323D01*
X227672Y123344D01*
X227675Y123363D01*
X227667Y123502D01*
X227663Y123641D01*
X227657Y123661D01*
X227656Y123681D01*
X227613Y123813D01*
X227574Y123947D01*
X227564Y123964D01*
X227558Y123983D01*
X227483Y124101D01*
X227413Y124221D01*
X227394Y124242D01*
X227387Y124252D01*
X227372Y124266D01*
X227306Y124341D01*
X215114Y136534D01*
X213105Y138542D01*
X213105Y139911D01*
X213102Y139940D01*
X213104Y139970D01*
X213082Y140098D01*
X213065Y140227D01*
X213055Y140254D01*
X213050Y140283D01*
X212996Y140402D01*
X212948Y140522D01*
X212931Y140546D01*
X212919Y140573D01*
X212838Y140675D01*
X212762Y140780D01*
X212739Y140799D01*
X212720Y140822D01*
X212617Y140900D01*
X212517Y140983D01*
X212490Y140995D01*
X212466Y141013D01*
X212322Y141084D01*
X210864Y141688D01*
X208363Y144189D01*
X207009Y147456D01*
X207009Y150994D01*
X208363Y154261D01*
X210864Y156762D01*
X214131Y158116D01*
X217669Y158116D01*
X220936Y156762D01*
X223437Y154261D01*
X224791Y150994D01*
X224791Y147456D01*
X223437Y144189D01*
X220936Y141688D01*
X220519Y141515D01*
X220476Y141490D01*
X220429Y141474D01*
X220338Y141412D01*
X220243Y141358D01*
X220207Y141323D01*
X220166Y141295D01*
X220093Y141213D01*
X220015Y141136D01*
X219989Y141094D01*
X219956Y141057D01*
X219906Y140959D01*
X219848Y140865D01*
X219834Y140818D01*
X219811Y140773D01*
X219787Y140666D01*
X219755Y140561D01*
X219752Y140512D01*
X219741Y140463D01*
X219745Y140353D01*
X219739Y140244D01*
X219750Y140195D01*
X219751Y140145D01*
X219782Y140040D01*
X219804Y139932D01*
X219826Y139887D01*
X219839Y139840D01*
X219895Y139745D01*
X219944Y139646D01*
X219976Y139609D01*
X220001Y139566D01*
X220107Y139445D01*
X229386Y130166D01*
X229464Y130106D01*
X229536Y130038D01*
X229589Y130009D01*
X229637Y129972D01*
X229728Y129932D01*
X229815Y129884D01*
X229873Y129869D01*
X229929Y129845D01*
X230027Y129830D01*
X230123Y129805D01*
X230223Y129799D01*
X230243Y129795D01*
X230255Y129797D01*
X230283Y129795D01*
X356758Y129795D01*
X358766Y127786D01*
X425635Y60917D01*
X425659Y60899D01*
X425678Y60877D01*
X425784Y60802D01*
X425886Y60722D01*
X425914Y60710D01*
X425938Y60694D01*
X426059Y60648D01*
X426178Y60596D01*
X426207Y60591D01*
X426235Y60581D01*
X426364Y60566D01*
X426492Y60546D01*
X426522Y60549D01*
X426551Y60546D01*
X426680Y60564D01*
X426809Y60576D01*
X426837Y60586D01*
X426866Y60590D01*
X427018Y60642D01*
X429627Y61723D01*
X433973Y61723D01*
X437987Y60060D01*
X441060Y56987D01*
X442723Y52973D01*
X442723Y48627D01*
X441060Y44613D01*
X437987Y41540D01*
X433973Y39877D01*
X429627Y39877D01*
X425613Y41540D01*
X422540Y44613D01*
X420877Y48627D01*
X420877Y52973D01*
X421958Y55582D01*
X421966Y55610D01*
X421979Y55636D01*
X422008Y55763D01*
X422042Y55888D01*
X422042Y55918D01*
X422049Y55947D01*
X422045Y56076D01*
X422047Y56206D01*
X422040Y56235D01*
X422039Y56265D01*
X422003Y56389D01*
X421973Y56516D01*
X421959Y56542D01*
X421951Y56570D01*
X421885Y56682D01*
X421824Y56797D01*
X421804Y56819D01*
X421789Y56844D01*
X421683Y56965D01*
X354814Y123834D01*
X354736Y123894D01*
X354664Y123962D01*
X354611Y123991D01*
X354563Y124028D01*
X354472Y124068D01*
X354385Y124116D01*
X354327Y124131D01*
X354271Y124155D01*
X354173Y124170D01*
X354077Y124195D01*
X353977Y124201D01*
X353957Y124205D01*
X353945Y124203D01*
X353917Y124205D01*
X340011Y124205D01*
X339874Y124188D01*
X339735Y124175D01*
X339716Y124168D01*
X339696Y124165D01*
X339567Y124114D01*
X339436Y124067D01*
X339419Y124056D01*
X339400Y124048D01*
X339288Y123967D01*
X339173Y123889D01*
X339159Y123873D01*
X339143Y123862D01*
X339054Y123754D01*
X338962Y123650D01*
X338953Y123632D01*
X338940Y123617D01*
X338881Y123491D01*
X338817Y123367D01*
X338813Y123347D01*
X338804Y123329D01*
X338778Y123192D01*
X338748Y123057D01*
X338748Y123036D01*
X338745Y123017D01*
X338753Y122878D01*
X338757Y122739D01*
X338763Y122719D01*
X338764Y122699D01*
X338807Y122567D01*
X338846Y122433D01*
X338856Y122416D01*
X338862Y122397D01*
X338937Y122279D01*
X339007Y122159D01*
X339026Y122138D01*
X339033Y122128D01*
X339048Y122114D01*
X339114Y122039D01*
X340986Y120166D01*
X340987Y120166D01*
X400235Y60917D01*
X400259Y60899D01*
X400278Y60877D01*
X400384Y60802D01*
X400486Y60722D01*
X400514Y60710D01*
X400538Y60694D01*
X400659Y60648D01*
X400778Y60596D01*
X400807Y60591D01*
X400835Y60581D01*
X400964Y60566D01*
X401092Y60546D01*
X401122Y60549D01*
X401151Y60546D01*
X401280Y60564D01*
X401409Y60576D01*
X401437Y60586D01*
X401466Y60590D01*
X401618Y60642D01*
X404227Y61723D01*
X408573Y61723D01*
X412587Y60060D01*
X415660Y56987D01*
X417323Y52973D01*
X417323Y48627D01*
X415660Y44613D01*
X412587Y41540D01*
X408573Y39877D01*
X404227Y39877D01*
G37*
%LPD*%
%LPC*%
G36*
X505827Y39877D02*
X505827Y39877D01*
X501813Y41540D01*
X498740Y44613D01*
X497077Y48627D01*
X497077Y52973D01*
X498158Y55582D01*
X498166Y55610D01*
X498179Y55636D01*
X498208Y55763D01*
X498242Y55888D01*
X498242Y55918D01*
X498249Y55947D01*
X498245Y56076D01*
X498247Y56206D01*
X498240Y56235D01*
X498239Y56265D01*
X498203Y56389D01*
X498173Y56516D01*
X498159Y56542D01*
X498151Y56570D01*
X498085Y56682D01*
X498024Y56797D01*
X498004Y56819D01*
X497989Y56844D01*
X497883Y56965D01*
X441174Y113674D01*
X441096Y113734D01*
X441024Y113802D01*
X440971Y113831D01*
X440923Y113868D01*
X440832Y113908D01*
X440745Y113956D01*
X440687Y113971D01*
X440631Y113995D01*
X440533Y114010D01*
X440437Y114035D01*
X440337Y114041D01*
X440317Y114045D01*
X440305Y114043D01*
X440277Y114045D01*
X382382Y114045D01*
X365505Y130922D01*
X365505Y139911D01*
X365502Y139940D01*
X365504Y139970D01*
X365482Y140098D01*
X365465Y140227D01*
X365455Y140254D01*
X365450Y140283D01*
X365396Y140402D01*
X365348Y140522D01*
X365331Y140546D01*
X365319Y140573D01*
X365238Y140675D01*
X365162Y140780D01*
X365139Y140799D01*
X365120Y140822D01*
X365017Y140900D01*
X364917Y140983D01*
X364890Y140995D01*
X364866Y141013D01*
X364722Y141084D01*
X363264Y141688D01*
X360763Y144189D01*
X359409Y147456D01*
X359409Y150994D01*
X360763Y154261D01*
X363264Y156762D01*
X366531Y158116D01*
X370069Y158116D01*
X373336Y156762D01*
X375837Y154261D01*
X377191Y150994D01*
X377191Y147456D01*
X375837Y144189D01*
X373336Y141688D01*
X371878Y141084D01*
X371853Y141069D01*
X371825Y141060D01*
X371715Y140991D01*
X371602Y140926D01*
X371581Y140906D01*
X371556Y140890D01*
X371467Y140795D01*
X371374Y140705D01*
X371358Y140680D01*
X371338Y140658D01*
X371275Y140545D01*
X371207Y140434D01*
X371199Y140406D01*
X371184Y140380D01*
X371152Y140254D01*
X371114Y140130D01*
X371112Y140101D01*
X371105Y140072D01*
X371095Y139911D01*
X371095Y133763D01*
X371107Y133665D01*
X371110Y133566D01*
X371127Y133508D01*
X371135Y133448D01*
X371171Y133356D01*
X371199Y133261D01*
X371229Y133208D01*
X371252Y133152D01*
X371310Y133072D01*
X371360Y132987D01*
X371426Y132911D01*
X371438Y132895D01*
X371448Y132887D01*
X371466Y132866D01*
X384326Y120006D01*
X384404Y119946D01*
X384476Y119878D01*
X384529Y119849D01*
X384577Y119812D01*
X384668Y119772D01*
X384755Y119724D01*
X384813Y119709D01*
X384869Y119685D01*
X384967Y119670D01*
X385063Y119645D01*
X385163Y119639D01*
X385183Y119635D01*
X385195Y119637D01*
X385223Y119635D01*
X404209Y119635D01*
X404346Y119652D01*
X404485Y119665D01*
X404504Y119672D01*
X404524Y119675D01*
X404653Y119726D01*
X404784Y119773D01*
X404801Y119784D01*
X404820Y119792D01*
X404932Y119873D01*
X405047Y119951D01*
X405061Y119967D01*
X405077Y119978D01*
X405166Y120086D01*
X405258Y120190D01*
X405267Y120208D01*
X405280Y120223D01*
X405339Y120349D01*
X405403Y120473D01*
X405407Y120493D01*
X405416Y120511D01*
X405442Y120647D01*
X405472Y120783D01*
X405472Y120804D01*
X405475Y120823D01*
X405467Y120962D01*
X405463Y121101D01*
X405457Y121121D01*
X405456Y121141D01*
X405413Y121273D01*
X405374Y121407D01*
X405364Y121424D01*
X405358Y121443D01*
X405283Y121561D01*
X405213Y121681D01*
X405194Y121702D01*
X405187Y121712D01*
X405172Y121726D01*
X405106Y121801D01*
X392914Y133994D01*
X390905Y136002D01*
X390905Y139911D01*
X390902Y139940D01*
X390904Y139970D01*
X390882Y140098D01*
X390865Y140227D01*
X390855Y140254D01*
X390850Y140283D01*
X390796Y140402D01*
X390748Y140522D01*
X390731Y140546D01*
X390719Y140573D01*
X390638Y140675D01*
X390562Y140780D01*
X390539Y140799D01*
X390520Y140822D01*
X390417Y140900D01*
X390317Y140983D01*
X390290Y140995D01*
X390266Y141013D01*
X390122Y141084D01*
X388664Y141688D01*
X386163Y144189D01*
X384809Y147456D01*
X384809Y150994D01*
X386163Y154261D01*
X388664Y156762D01*
X391931Y158116D01*
X395469Y158116D01*
X398736Y156762D01*
X401237Y154261D01*
X402591Y150994D01*
X402591Y147456D01*
X401237Y144189D01*
X398736Y141688D01*
X397278Y141084D01*
X397253Y141069D01*
X397225Y141060D01*
X397115Y140991D01*
X397002Y140926D01*
X396981Y140906D01*
X396956Y140890D01*
X396867Y140795D01*
X396774Y140705D01*
X396758Y140680D01*
X396738Y140658D01*
X396675Y140545D01*
X396607Y140434D01*
X396599Y140406D01*
X396584Y140380D01*
X396552Y140254D01*
X396514Y140130D01*
X396512Y140101D01*
X396505Y140072D01*
X396495Y139911D01*
X396495Y138843D01*
X396507Y138745D01*
X396510Y138646D01*
X396527Y138588D01*
X396535Y138528D01*
X396571Y138436D01*
X396599Y138341D01*
X396629Y138288D01*
X396652Y138232D01*
X396710Y138152D01*
X396760Y138067D01*
X396826Y137991D01*
X396838Y137975D01*
X396848Y137967D01*
X396866Y137946D01*
X407186Y127626D01*
X407264Y127566D01*
X407336Y127498D01*
X407389Y127469D01*
X407437Y127432D01*
X407528Y127392D01*
X407615Y127344D01*
X407673Y127329D01*
X407729Y127305D01*
X407827Y127290D01*
X407923Y127265D01*
X408023Y127259D01*
X408043Y127255D01*
X408055Y127257D01*
X408083Y127255D01*
X460898Y127255D01*
X462906Y125246D01*
X527235Y60917D01*
X527259Y60899D01*
X527278Y60877D01*
X527384Y60802D01*
X527486Y60722D01*
X527514Y60710D01*
X527538Y60694D01*
X527659Y60648D01*
X527778Y60596D01*
X527807Y60591D01*
X527835Y60581D01*
X527964Y60566D01*
X528092Y60546D01*
X528122Y60549D01*
X528151Y60546D01*
X528280Y60564D01*
X528409Y60576D01*
X528437Y60586D01*
X528466Y60590D01*
X528618Y60642D01*
X531227Y61723D01*
X535573Y61723D01*
X539587Y60060D01*
X542660Y56987D01*
X544323Y52973D01*
X544323Y48627D01*
X542660Y44613D01*
X539587Y41540D01*
X535573Y39877D01*
X531227Y39877D01*
X527213Y41540D01*
X524140Y44613D01*
X522477Y48627D01*
X522477Y52973D01*
X523558Y55582D01*
X523566Y55610D01*
X523579Y55636D01*
X523608Y55763D01*
X523642Y55888D01*
X523642Y55918D01*
X523649Y55947D01*
X523645Y56076D01*
X523647Y56206D01*
X523640Y56235D01*
X523639Y56265D01*
X523603Y56389D01*
X523573Y56516D01*
X523559Y56542D01*
X523551Y56570D01*
X523485Y56682D01*
X523424Y56797D01*
X523404Y56819D01*
X523389Y56844D01*
X523283Y56965D01*
X458954Y121294D01*
X458876Y121354D01*
X458804Y121422D01*
X458751Y121451D01*
X458703Y121488D01*
X458612Y121528D01*
X458525Y121576D01*
X458467Y121591D01*
X458411Y121615D01*
X458313Y121630D01*
X458217Y121655D01*
X458117Y121661D01*
X458097Y121665D01*
X458085Y121663D01*
X458057Y121665D01*
X444151Y121665D01*
X444014Y121648D01*
X443875Y121635D01*
X443856Y121628D01*
X443836Y121625D01*
X443707Y121574D01*
X443576Y121527D01*
X443559Y121516D01*
X443540Y121508D01*
X443428Y121427D01*
X443313Y121349D01*
X443299Y121333D01*
X443283Y121322D01*
X443194Y121214D01*
X443102Y121110D01*
X443093Y121092D01*
X443080Y121077D01*
X443021Y120951D01*
X442957Y120827D01*
X442953Y120807D01*
X442944Y120789D01*
X442918Y120652D01*
X442888Y120517D01*
X442888Y120496D01*
X442885Y120477D01*
X442893Y120338D01*
X442897Y120199D01*
X442903Y120179D01*
X442904Y120159D01*
X442947Y120027D01*
X442986Y119893D01*
X442996Y119876D01*
X443002Y119857D01*
X443077Y119739D01*
X443147Y119619D01*
X443166Y119598D01*
X443173Y119588D01*
X443188Y119574D01*
X443254Y119499D01*
X445126Y117626D01*
X501835Y60917D01*
X501859Y60899D01*
X501878Y60877D01*
X501984Y60802D01*
X502086Y60722D01*
X502114Y60710D01*
X502138Y60694D01*
X502259Y60648D01*
X502378Y60596D01*
X502407Y60591D01*
X502435Y60581D01*
X502564Y60566D01*
X502692Y60546D01*
X502722Y60549D01*
X502751Y60546D01*
X502880Y60564D01*
X503009Y60576D01*
X503037Y60586D01*
X503066Y60590D01*
X503218Y60642D01*
X505827Y61723D01*
X510173Y61723D01*
X514187Y60060D01*
X517260Y56987D01*
X518923Y52973D01*
X518923Y48627D01*
X517260Y44613D01*
X514187Y41540D01*
X510173Y39877D01*
X505827Y39877D01*
G37*
%LPD*%
%LPC*%
G36*
X325206Y460755D02*
X325206Y460755D01*
X321845Y462147D01*
X319272Y464720D01*
X318925Y465560D01*
X318910Y465585D01*
X318901Y465613D01*
X318831Y465723D01*
X318767Y465836D01*
X318747Y465857D01*
X318731Y465882D01*
X318636Y465971D01*
X318546Y466064D01*
X318521Y466080D01*
X318499Y466100D01*
X318385Y466163D01*
X318275Y466231D01*
X318246Y466239D01*
X318221Y466254D01*
X318095Y466286D01*
X317971Y466324D01*
X317941Y466326D01*
X317913Y466333D01*
X317752Y466343D01*
X272235Y466343D01*
X272136Y466331D01*
X272037Y466328D01*
X271979Y466311D01*
X271919Y466303D01*
X271827Y466267D01*
X271732Y466239D01*
X271680Y466209D01*
X271623Y466186D01*
X271543Y466128D01*
X271458Y466078D01*
X271382Y466012D01*
X271366Y466000D01*
X271358Y465990D01*
X271337Y465972D01*
X270131Y464765D01*
X267905Y463843D01*
X265495Y463843D01*
X263269Y464765D01*
X261565Y466469D01*
X260643Y468695D01*
X260643Y471105D01*
X261565Y473331D01*
X263269Y475035D01*
X265495Y475957D01*
X267905Y475957D01*
X270131Y475035D01*
X271337Y473828D01*
X271415Y473768D01*
X271487Y473700D01*
X271540Y473671D01*
X271588Y473634D01*
X271679Y473594D01*
X271766Y473546D01*
X271824Y473531D01*
X271880Y473507D01*
X271978Y473492D01*
X272074Y473467D01*
X272174Y473461D01*
X272194Y473457D01*
X272207Y473459D01*
X272235Y473457D01*
X317752Y473457D01*
X317781Y473460D01*
X317811Y473458D01*
X317939Y473480D01*
X318068Y473497D01*
X318095Y473507D01*
X318124Y473512D01*
X318243Y473566D01*
X318363Y473614D01*
X318387Y473631D01*
X318414Y473643D01*
X318515Y473724D01*
X318621Y473800D01*
X318639Y473823D01*
X318662Y473842D01*
X318741Y473945D01*
X318823Y474045D01*
X318836Y474072D01*
X318854Y474096D01*
X318925Y474240D01*
X319272Y475080D01*
X321069Y476877D01*
X321154Y476986D01*
X321243Y477093D01*
X321251Y477112D01*
X321264Y477128D01*
X321319Y477256D01*
X321378Y477381D01*
X321382Y477401D01*
X321390Y477420D01*
X321412Y477558D01*
X321438Y477694D01*
X321437Y477714D01*
X321440Y477734D01*
X321427Y477873D01*
X321418Y478011D01*
X321412Y478030D01*
X321410Y478050D01*
X321363Y478182D01*
X321320Y478313D01*
X321310Y478331D01*
X321303Y478350D01*
X321225Y478465D01*
X321150Y478582D01*
X321135Y478596D01*
X321124Y478613D01*
X321020Y478705D01*
X320919Y478800D01*
X320901Y478810D01*
X320886Y478823D01*
X320762Y478887D01*
X320640Y478954D01*
X320621Y478959D01*
X320602Y478968D01*
X320467Y478998D01*
X320332Y479033D01*
X320304Y479035D01*
X320292Y479038D01*
X320272Y479037D01*
X320171Y479043D01*
X284935Y479043D01*
X284836Y479031D01*
X284737Y479028D01*
X284679Y479011D01*
X284619Y479003D01*
X284527Y478967D01*
X284432Y478939D01*
X284380Y478909D01*
X284323Y478886D01*
X284243Y478828D01*
X284158Y478778D01*
X284082Y478712D01*
X284066Y478700D01*
X284058Y478690D01*
X284037Y478672D01*
X282831Y477465D01*
X280605Y476543D01*
X278195Y476543D01*
X275969Y477465D01*
X274265Y479169D01*
X273343Y481395D01*
X273343Y483805D01*
X274265Y486031D01*
X275969Y487735D01*
X278195Y488657D01*
X280605Y488657D01*
X282831Y487735D01*
X284037Y486528D01*
X284115Y486468D01*
X284187Y486400D01*
X284240Y486371D01*
X284288Y486334D01*
X284379Y486294D01*
X284466Y486246D01*
X284524Y486231D01*
X284580Y486207D01*
X284678Y486192D01*
X284774Y486167D01*
X284874Y486161D01*
X284894Y486157D01*
X284907Y486159D01*
X284935Y486157D01*
X320171Y486157D01*
X320309Y486174D01*
X320448Y486187D01*
X320467Y486194D01*
X320487Y486197D01*
X320616Y486248D01*
X320747Y486295D01*
X320764Y486306D01*
X320783Y486314D01*
X320895Y486395D01*
X321010Y486473D01*
X321024Y486489D01*
X321040Y486500D01*
X321129Y486608D01*
X321221Y486712D01*
X321230Y486730D01*
X321243Y486745D01*
X321302Y486871D01*
X321365Y486995D01*
X321370Y487015D01*
X321378Y487033D01*
X321404Y487170D01*
X321435Y487305D01*
X321434Y487326D01*
X321438Y487345D01*
X321430Y487484D01*
X321425Y487623D01*
X321420Y487643D01*
X321418Y487663D01*
X321376Y487795D01*
X321337Y487929D01*
X321327Y487946D01*
X321320Y487965D01*
X321246Y488083D01*
X321175Y488203D01*
X321157Y488224D01*
X321150Y488234D01*
X321135Y488248D01*
X321069Y488323D01*
X319272Y490120D01*
X318925Y490960D01*
X318910Y490985D01*
X318901Y491013D01*
X318831Y491123D01*
X318767Y491236D01*
X318747Y491257D01*
X318731Y491282D01*
X318636Y491371D01*
X318546Y491464D01*
X318521Y491480D01*
X318499Y491500D01*
X318385Y491563D01*
X318275Y491631D01*
X318246Y491639D01*
X318221Y491654D01*
X318095Y491686D01*
X317971Y491724D01*
X317941Y491726D01*
X317913Y491733D01*
X317752Y491743D01*
X310335Y491743D01*
X310236Y491731D01*
X310137Y491728D01*
X310079Y491711D01*
X310019Y491703D01*
X309927Y491667D01*
X309832Y491639D01*
X309780Y491609D01*
X309723Y491586D01*
X309643Y491528D01*
X309558Y491478D01*
X309482Y491412D01*
X309466Y491400D01*
X309458Y491390D01*
X309437Y491372D01*
X308231Y490165D01*
X306005Y489243D01*
X303595Y489243D01*
X301369Y490165D01*
X299665Y491869D01*
X298743Y494095D01*
X298743Y496505D01*
X299665Y498731D01*
X301369Y500435D01*
X303595Y501357D01*
X306005Y501357D01*
X308231Y500435D01*
X309437Y499228D01*
X309515Y499168D01*
X309587Y499100D01*
X309640Y499071D01*
X309688Y499034D01*
X309779Y498994D01*
X309866Y498946D01*
X309924Y498931D01*
X309980Y498907D01*
X310078Y498892D01*
X310174Y498867D01*
X310274Y498861D01*
X310294Y498857D01*
X310307Y498859D01*
X310335Y498857D01*
X317752Y498857D01*
X317781Y498860D01*
X317811Y498858D01*
X317939Y498880D01*
X318068Y498897D01*
X318095Y498907D01*
X318124Y498912D01*
X318243Y498966D01*
X318363Y499014D01*
X318387Y499031D01*
X318414Y499043D01*
X318515Y499124D01*
X318621Y499200D01*
X318639Y499223D01*
X318662Y499242D01*
X318741Y499345D01*
X318823Y499445D01*
X318836Y499472D01*
X318854Y499496D01*
X318925Y499640D01*
X319272Y500480D01*
X321845Y503053D01*
X325206Y504445D01*
X328844Y504445D01*
X332205Y503053D01*
X334778Y500480D01*
X336170Y497119D01*
X336170Y493481D01*
X334778Y490120D01*
X332981Y488323D01*
X332896Y488214D01*
X332807Y488107D01*
X332799Y488088D01*
X332786Y488072D01*
X332731Y487944D01*
X332672Y487819D01*
X332668Y487799D01*
X332660Y487780D01*
X332638Y487642D01*
X332612Y487506D01*
X332613Y487486D01*
X332610Y487466D01*
X332623Y487327D01*
X332632Y487189D01*
X332638Y487170D01*
X332640Y487150D01*
X332687Y487018D01*
X332730Y486887D01*
X332740Y486869D01*
X332747Y486850D01*
X332825Y486735D01*
X332900Y486618D01*
X332915Y486604D01*
X332926Y486587D01*
X333030Y486495D01*
X333131Y486400D01*
X333149Y486390D01*
X333164Y486377D01*
X333288Y486313D01*
X333410Y486246D01*
X333429Y486241D01*
X333448Y486232D01*
X333583Y486202D01*
X333718Y486167D01*
X333746Y486165D01*
X333758Y486162D01*
X333778Y486163D01*
X333879Y486157D01*
X388165Y486157D01*
X388264Y486169D01*
X388363Y486172D01*
X388421Y486189D01*
X388481Y486197D01*
X388573Y486233D01*
X388668Y486261D01*
X388720Y486291D01*
X388777Y486314D01*
X388857Y486372D01*
X388942Y486422D01*
X389018Y486488D01*
X389034Y486500D01*
X389042Y486510D01*
X389063Y486528D01*
X390269Y487735D01*
X392495Y488657D01*
X394905Y488657D01*
X397131Y487735D01*
X398835Y486031D01*
X399757Y483805D01*
X399757Y481395D01*
X398835Y479169D01*
X397131Y477465D01*
X394905Y476543D01*
X392495Y476543D01*
X390269Y477465D01*
X389063Y478672D01*
X388985Y478732D01*
X388913Y478800D01*
X388860Y478829D01*
X388812Y478866D01*
X388721Y478906D01*
X388634Y478954D01*
X388576Y478969D01*
X388520Y478993D01*
X388422Y479008D01*
X388326Y479033D01*
X388226Y479039D01*
X388206Y479043D01*
X388193Y479041D01*
X388165Y479043D01*
X333879Y479043D01*
X333741Y479026D01*
X333602Y479013D01*
X333583Y479006D01*
X333563Y479003D01*
X333434Y478952D01*
X333303Y478905D01*
X333286Y478894D01*
X333267Y478886D01*
X333155Y478805D01*
X333040Y478727D01*
X333026Y478711D01*
X333010Y478700D01*
X332921Y478592D01*
X332829Y478488D01*
X332820Y478470D01*
X332807Y478455D01*
X332748Y478329D01*
X332685Y478205D01*
X332680Y478185D01*
X332672Y478167D01*
X332646Y478030D01*
X332615Y477895D01*
X332616Y477874D01*
X332612Y477855D01*
X332620Y477716D01*
X332625Y477577D01*
X332630Y477557D01*
X332632Y477537D01*
X332674Y477405D01*
X332713Y477271D01*
X332723Y477254D01*
X332730Y477235D01*
X332804Y477117D01*
X332875Y476997D01*
X332893Y476976D01*
X332900Y476966D01*
X332915Y476952D01*
X332981Y476877D01*
X334778Y475080D01*
X335125Y474240D01*
X335140Y474215D01*
X335149Y474187D01*
X335219Y474077D01*
X335283Y473964D01*
X335303Y473943D01*
X335319Y473918D01*
X335414Y473829D01*
X335504Y473736D01*
X335529Y473720D01*
X335551Y473700D01*
X335665Y473637D01*
X335775Y473569D01*
X335804Y473561D01*
X335829Y473546D01*
X335955Y473514D01*
X336079Y473476D01*
X336109Y473474D01*
X336137Y473467D01*
X336298Y473457D01*
X432341Y473457D01*
X432439Y473469D01*
X432538Y473472D01*
X432596Y473489D01*
X432657Y473497D01*
X432749Y473533D01*
X432844Y473561D01*
X432896Y473591D01*
X432952Y473614D01*
X433032Y473672D01*
X433118Y473722D01*
X433193Y473788D01*
X433210Y473800D01*
X433217Y473810D01*
X433239Y473828D01*
X438072Y478661D01*
X438132Y478740D01*
X438200Y478812D01*
X438229Y478865D01*
X438266Y478913D01*
X438306Y479004D01*
X438354Y479090D01*
X438369Y479149D01*
X438393Y479205D01*
X438408Y479303D01*
X438433Y479398D01*
X438439Y479498D01*
X438443Y479519D01*
X438441Y479531D01*
X438443Y479559D01*
X438443Y481265D01*
X439365Y483491D01*
X441069Y485195D01*
X443295Y486117D01*
X445705Y486117D01*
X447931Y485195D01*
X449635Y483491D01*
X450557Y481265D01*
X450557Y478855D01*
X449635Y476629D01*
X447931Y474925D01*
X445705Y474003D01*
X443999Y474003D01*
X443901Y473991D01*
X443802Y473988D01*
X443744Y473971D01*
X443683Y473963D01*
X443591Y473927D01*
X443496Y473899D01*
X443444Y473869D01*
X443388Y473846D01*
X443308Y473788D01*
X443222Y473738D01*
X443147Y473672D01*
X443130Y473660D01*
X443123Y473650D01*
X443101Y473632D01*
X435813Y466343D01*
X336298Y466343D01*
X336269Y466340D01*
X336239Y466342D01*
X336111Y466320D01*
X335982Y466303D01*
X335955Y466293D01*
X335926Y466288D01*
X335807Y466234D01*
X335687Y466186D01*
X335663Y466169D01*
X335636Y466157D01*
X335535Y466076D01*
X335429Y466000D01*
X335411Y465977D01*
X335388Y465958D01*
X335309Y465855D01*
X335227Y465755D01*
X335214Y465728D01*
X335196Y465704D01*
X335125Y465560D01*
X334778Y464720D01*
X332205Y462147D01*
X328844Y460755D01*
X325206Y460755D01*
G37*
%LPD*%
%LPC*%
G36*
X325206Y409955D02*
X325206Y409955D01*
X321845Y411347D01*
X319272Y413920D01*
X318925Y414760D01*
X318910Y414785D01*
X318901Y414813D01*
X318831Y414923D01*
X318767Y415036D01*
X318747Y415057D01*
X318731Y415082D01*
X318636Y415171D01*
X318546Y415264D01*
X318521Y415280D01*
X318499Y415300D01*
X318385Y415363D01*
X318275Y415431D01*
X318246Y415439D01*
X318221Y415454D01*
X318095Y415486D01*
X317971Y415524D01*
X317941Y415526D01*
X317913Y415533D01*
X317752Y415543D01*
X147775Y415543D01*
X147676Y415531D01*
X147577Y415528D01*
X147519Y415511D01*
X147459Y415503D01*
X147367Y415467D01*
X147272Y415439D01*
X147220Y415409D01*
X147163Y415386D01*
X147083Y415328D01*
X146998Y415278D01*
X146922Y415212D01*
X146906Y415200D01*
X146898Y415190D01*
X146877Y415172D01*
X145671Y413965D01*
X143445Y413043D01*
X141035Y413043D01*
X138809Y413965D01*
X137105Y415669D01*
X136183Y417895D01*
X136183Y420305D01*
X137105Y422531D01*
X138809Y424235D01*
X141035Y425157D01*
X143445Y425157D01*
X145671Y424235D01*
X146877Y423028D01*
X146955Y422968D01*
X147027Y422900D01*
X147080Y422871D01*
X147128Y422834D01*
X147219Y422794D01*
X147306Y422746D01*
X147364Y422731D01*
X147420Y422707D01*
X147518Y422692D01*
X147614Y422667D01*
X147714Y422661D01*
X147734Y422657D01*
X147747Y422659D01*
X147775Y422657D01*
X317752Y422657D01*
X317781Y422660D01*
X317811Y422658D01*
X317939Y422680D01*
X318068Y422697D01*
X318095Y422707D01*
X318124Y422712D01*
X318243Y422766D01*
X318363Y422814D01*
X318387Y422831D01*
X318414Y422843D01*
X318515Y422924D01*
X318621Y423000D01*
X318639Y423023D01*
X318662Y423042D01*
X318741Y423145D01*
X318823Y423245D01*
X318836Y423272D01*
X318854Y423296D01*
X318925Y423440D01*
X319272Y424280D01*
X321845Y426853D01*
X325206Y428245D01*
X328844Y428245D01*
X332205Y426853D01*
X334778Y424280D01*
X335125Y423440D01*
X335140Y423415D01*
X335149Y423387D01*
X335219Y423277D01*
X335283Y423164D01*
X335303Y423143D01*
X335319Y423118D01*
X335414Y423029D01*
X335504Y422936D01*
X335529Y422920D01*
X335551Y422900D01*
X335665Y422837D01*
X335775Y422769D01*
X335804Y422761D01*
X335829Y422746D01*
X335955Y422714D01*
X336079Y422676D01*
X336109Y422674D01*
X336137Y422667D01*
X336298Y422657D01*
X479605Y422657D01*
X479704Y422669D01*
X479803Y422672D01*
X479861Y422689D01*
X479921Y422697D01*
X480013Y422733D01*
X480108Y422761D01*
X480160Y422791D01*
X480217Y422814D01*
X480297Y422872D01*
X480382Y422922D01*
X480458Y422988D01*
X480474Y423000D01*
X480482Y423010D01*
X480503Y423028D01*
X481709Y424235D01*
X483935Y425157D01*
X486345Y425157D01*
X488571Y424235D01*
X490275Y422531D01*
X491197Y420305D01*
X491197Y417895D01*
X490275Y415669D01*
X488571Y413965D01*
X486345Y413043D01*
X483935Y413043D01*
X481709Y413965D01*
X480503Y415172D01*
X480425Y415232D01*
X480353Y415300D01*
X480300Y415329D01*
X480252Y415366D01*
X480161Y415406D01*
X480074Y415454D01*
X480016Y415469D01*
X479960Y415493D01*
X479862Y415508D01*
X479766Y415533D01*
X479666Y415539D01*
X479646Y415543D01*
X479633Y415541D01*
X479605Y415543D01*
X336298Y415543D01*
X336269Y415540D01*
X336239Y415542D01*
X336111Y415520D01*
X335982Y415503D01*
X335955Y415493D01*
X335926Y415488D01*
X335807Y415434D01*
X335687Y415386D01*
X335663Y415369D01*
X335636Y415357D01*
X335535Y415276D01*
X335429Y415200D01*
X335411Y415177D01*
X335388Y415158D01*
X335309Y415055D01*
X335227Y414955D01*
X335214Y414928D01*
X335196Y414904D01*
X335125Y414760D01*
X334778Y413920D01*
X332205Y411347D01*
X328844Y409955D01*
X325206Y409955D01*
G37*
%LPD*%
%LPC*%
G36*
X159752Y747902D02*
X159752Y747902D01*
X155738Y749565D01*
X152665Y752638D01*
X151002Y756652D01*
X151002Y760998D01*
X152665Y765012D01*
X155738Y768085D01*
X159752Y769748D01*
X164098Y769748D01*
X168112Y768085D01*
X171185Y765012D01*
X171950Y763165D01*
X171965Y763140D01*
X171974Y763112D01*
X172043Y763002D01*
X172107Y762889D01*
X172128Y762868D01*
X172144Y762843D01*
X172238Y762754D01*
X172329Y762661D01*
X172354Y762645D01*
X172375Y762625D01*
X172489Y762562D01*
X172600Y762494D01*
X172628Y762486D01*
X172654Y762471D01*
X172780Y762439D01*
X172904Y762401D01*
X172933Y762399D01*
X172962Y762392D01*
X173123Y762382D01*
X486590Y762382D01*
X486689Y762394D01*
X486788Y762397D01*
X486846Y762414D01*
X486906Y762422D01*
X486998Y762458D01*
X487093Y762486D01*
X487145Y762516D01*
X487202Y762539D01*
X487282Y762597D01*
X487367Y762647D01*
X487443Y762713D01*
X487459Y762725D01*
X487467Y762735D01*
X487488Y762753D01*
X488694Y763960D01*
X490920Y764882D01*
X493330Y764882D01*
X495556Y763960D01*
X497260Y762256D01*
X498182Y760030D01*
X498182Y757620D01*
X497260Y755394D01*
X495556Y753690D01*
X493330Y752768D01*
X490920Y752768D01*
X488694Y753690D01*
X487488Y754897D01*
X487410Y754957D01*
X487338Y755025D01*
X487285Y755054D01*
X487237Y755091D01*
X487146Y755131D01*
X487059Y755179D01*
X487001Y755194D01*
X486945Y755218D01*
X486847Y755233D01*
X486751Y755258D01*
X486651Y755264D01*
X486631Y755268D01*
X486618Y755266D01*
X486590Y755268D01*
X173123Y755268D01*
X173093Y755265D01*
X173064Y755267D01*
X172936Y755245D01*
X172807Y755228D01*
X172780Y755218D01*
X172750Y755213D01*
X172632Y755159D01*
X172511Y755111D01*
X172487Y755094D01*
X172460Y755082D01*
X172359Y755001D01*
X172254Y754925D01*
X172235Y754902D01*
X172212Y754883D01*
X172134Y754780D01*
X172051Y754680D01*
X172039Y754653D01*
X172021Y754629D01*
X171950Y754485D01*
X171185Y752638D01*
X168112Y749565D01*
X164098Y747902D01*
X159752Y747902D01*
G37*
%LPD*%
%LPC*%
G36*
X646729Y601979D02*
X646729Y601979D01*
X639945Y603797D01*
X633864Y607308D01*
X628898Y612274D01*
X625387Y618355D01*
X623569Y625139D01*
X623569Y632161D01*
X625387Y638945D01*
X628898Y645026D01*
X633864Y649992D01*
X639945Y653503D01*
X646729Y655321D01*
X653751Y655321D01*
X660535Y653503D01*
X666616Y649992D01*
X671582Y645026D01*
X675093Y638945D01*
X676911Y632161D01*
X676911Y625139D01*
X675093Y618355D01*
X671582Y612274D01*
X666616Y607308D01*
X660535Y603797D01*
X653751Y601979D01*
X646729Y601979D01*
G37*
%LPD*%
%LPC*%
G36*
X325206Y435355D02*
X325206Y435355D01*
X321845Y436747D01*
X319272Y439320D01*
X318925Y440160D01*
X318910Y440185D01*
X318901Y440213D01*
X318831Y440323D01*
X318767Y440436D01*
X318747Y440457D01*
X318731Y440482D01*
X318636Y440571D01*
X318546Y440664D01*
X318521Y440680D01*
X318499Y440700D01*
X318385Y440763D01*
X318275Y440831D01*
X318246Y440839D01*
X318221Y440854D01*
X318095Y440886D01*
X317971Y440924D01*
X317941Y440926D01*
X317913Y440933D01*
X317752Y440943D01*
X206195Y440943D01*
X206096Y440931D01*
X205997Y440928D01*
X205939Y440911D01*
X205879Y440903D01*
X205787Y440867D01*
X205692Y440839D01*
X205640Y440809D01*
X205583Y440786D01*
X205503Y440728D01*
X205418Y440678D01*
X205342Y440612D01*
X205326Y440600D01*
X205318Y440590D01*
X205297Y440572D01*
X204091Y439365D01*
X201865Y438443D01*
X199455Y438443D01*
X197229Y439365D01*
X195525Y441069D01*
X194603Y443295D01*
X194603Y445705D01*
X195525Y447931D01*
X197229Y449635D01*
X199455Y450557D01*
X201865Y450557D01*
X204091Y449635D01*
X205297Y448428D01*
X205375Y448368D01*
X205447Y448300D01*
X205500Y448271D01*
X205548Y448234D01*
X205639Y448194D01*
X205726Y448146D01*
X205784Y448131D01*
X205840Y448107D01*
X205938Y448092D01*
X206034Y448067D01*
X206134Y448061D01*
X206154Y448057D01*
X206167Y448059D01*
X206195Y448057D01*
X317752Y448057D01*
X317781Y448060D01*
X317811Y448058D01*
X317939Y448080D01*
X318068Y448097D01*
X318095Y448107D01*
X318124Y448112D01*
X318243Y448166D01*
X318363Y448214D01*
X318387Y448231D01*
X318414Y448243D01*
X318515Y448324D01*
X318621Y448400D01*
X318639Y448423D01*
X318662Y448442D01*
X318741Y448545D01*
X318823Y448645D01*
X318836Y448672D01*
X318854Y448696D01*
X318925Y448840D01*
X319272Y449680D01*
X321845Y452253D01*
X325206Y453645D01*
X328844Y453645D01*
X332205Y452253D01*
X334778Y449680D01*
X335125Y448840D01*
X335140Y448815D01*
X335149Y448787D01*
X335219Y448677D01*
X335283Y448564D01*
X335303Y448543D01*
X335319Y448518D01*
X335414Y448429D01*
X335504Y448336D01*
X335529Y448320D01*
X335551Y448300D01*
X335665Y448237D01*
X335775Y448169D01*
X335804Y448161D01*
X335829Y448146D01*
X335955Y448114D01*
X336079Y448076D01*
X336109Y448074D01*
X336137Y448067D01*
X336298Y448057D01*
X409481Y448057D01*
X409579Y448069D01*
X409678Y448072D01*
X409736Y448089D01*
X409797Y448097D01*
X409889Y448133D01*
X409984Y448161D01*
X410036Y448191D01*
X410092Y448214D01*
X410172Y448272D01*
X410258Y448322D01*
X410333Y448388D01*
X410350Y448400D01*
X410357Y448410D01*
X410379Y448428D01*
X413135Y451185D01*
X413154Y451209D01*
X413176Y451228D01*
X413251Y451334D01*
X413330Y451437D01*
X413342Y451464D01*
X413359Y451488D01*
X413405Y451609D01*
X413457Y451728D01*
X413461Y451758D01*
X413472Y451785D01*
X413486Y451914D01*
X413507Y452043D01*
X413504Y452072D01*
X413507Y452101D01*
X413489Y452230D01*
X413477Y452359D01*
X413467Y452387D01*
X413463Y452416D01*
X413411Y452569D01*
X413043Y453455D01*
X413043Y455865D01*
X413965Y458091D01*
X415669Y459795D01*
X417895Y460717D01*
X420305Y460717D01*
X422531Y459795D01*
X424235Y458091D01*
X425157Y455865D01*
X425157Y453455D01*
X424235Y451229D01*
X422531Y449525D01*
X421065Y448918D01*
X421057Y448913D01*
X421048Y448911D01*
X420918Y448835D01*
X420788Y448760D01*
X420782Y448754D01*
X420774Y448749D01*
X420653Y448643D01*
X420201Y448191D01*
X412953Y440943D01*
X336298Y440943D01*
X336269Y440940D01*
X336239Y440942D01*
X336111Y440920D01*
X335982Y440903D01*
X335955Y440893D01*
X335926Y440888D01*
X335807Y440834D01*
X335687Y440786D01*
X335663Y440769D01*
X335636Y440757D01*
X335535Y440676D01*
X335429Y440600D01*
X335411Y440577D01*
X335388Y440558D01*
X335309Y440455D01*
X335227Y440355D01*
X335214Y440328D01*
X335196Y440304D01*
X335125Y440160D01*
X334778Y439320D01*
X332205Y436747D01*
X328844Y435355D01*
X325206Y435355D01*
G37*
%LPD*%
%LPC*%
G36*
X159752Y671702D02*
X159752Y671702D01*
X155738Y673365D01*
X152665Y676438D01*
X151002Y680452D01*
X151002Y684798D01*
X152665Y688812D01*
X155105Y691253D01*
X155191Y691362D01*
X155279Y691469D01*
X155288Y691488D01*
X155300Y691504D01*
X155356Y691632D01*
X155415Y691757D01*
X155419Y691777D01*
X155427Y691796D01*
X155449Y691934D01*
X155475Y692070D01*
X155473Y692090D01*
X155477Y692110D01*
X155464Y692249D01*
X155455Y692387D01*
X155449Y692406D01*
X155447Y692426D01*
X155400Y692558D01*
X155357Y692689D01*
X155346Y692707D01*
X155339Y692726D01*
X155261Y692841D01*
X155187Y692958D01*
X155172Y692972D01*
X155161Y692989D01*
X155056Y693081D01*
X154955Y693176D01*
X154937Y693186D01*
X154922Y693199D01*
X154798Y693263D01*
X154677Y693330D01*
X154657Y693335D01*
X154639Y693344D01*
X154503Y693374D01*
X154369Y693409D01*
X154341Y693411D01*
X154329Y693414D01*
X154308Y693413D01*
X154208Y693419D01*
X143511Y693419D01*
X143482Y693416D01*
X143453Y693418D01*
X143325Y693396D01*
X143196Y693379D01*
X143168Y693369D01*
X143139Y693363D01*
X143021Y693310D01*
X142900Y693262D01*
X142876Y693245D01*
X142849Y693233D01*
X142748Y693152D01*
X142643Y693076D01*
X142624Y693053D01*
X142601Y693034D01*
X142523Y692930D01*
X142440Y692831D01*
X142427Y692804D01*
X142410Y692780D01*
X142339Y692636D01*
X142295Y692529D01*
X140591Y690825D01*
X138365Y689903D01*
X135955Y689903D01*
X133729Y690825D01*
X132025Y692529D01*
X131103Y694755D01*
X131103Y697165D01*
X132025Y699391D01*
X133729Y701095D01*
X135955Y702017D01*
X138365Y702017D01*
X140591Y701095D01*
X142295Y699391D01*
X142339Y699284D01*
X142353Y699259D01*
X142363Y699231D01*
X142432Y699121D01*
X142496Y699008D01*
X142517Y698987D01*
X142533Y698962D01*
X142627Y698873D01*
X142718Y698780D01*
X142743Y698764D01*
X142764Y698744D01*
X142878Y698681D01*
X142989Y698613D01*
X143017Y698605D01*
X143043Y698590D01*
X143168Y698558D01*
X143293Y698520D01*
X143322Y698518D01*
X143351Y698511D01*
X143511Y698501D01*
X152938Y698501D01*
X153076Y698518D01*
X153214Y698531D01*
X153233Y698538D01*
X153254Y698541D01*
X153383Y698592D01*
X153514Y698639D01*
X153530Y698650D01*
X153549Y698658D01*
X153661Y698739D01*
X153777Y698817D01*
X153790Y698833D01*
X153807Y698844D01*
X153895Y698952D01*
X153987Y699056D01*
X153996Y699074D01*
X154009Y699089D01*
X154068Y699215D01*
X154132Y699339D01*
X154136Y699359D01*
X154145Y699377D01*
X154171Y699514D01*
X154201Y699649D01*
X154201Y699670D01*
X154205Y699689D01*
X154196Y699828D01*
X154192Y699967D01*
X154186Y699987D01*
X154185Y700007D01*
X154142Y700139D01*
X154103Y700273D01*
X154093Y700290D01*
X154087Y700309D01*
X154012Y700427D01*
X153942Y700547D01*
X153923Y700568D01*
X153917Y700578D01*
X153902Y700592D01*
X153835Y700667D01*
X152665Y701838D01*
X151002Y705852D01*
X151002Y710198D01*
X152665Y714212D01*
X155738Y717285D01*
X159752Y718948D01*
X164098Y718948D01*
X168112Y717285D01*
X171185Y714212D01*
X172848Y710198D01*
X172848Y705852D01*
X171185Y701838D01*
X170015Y700667D01*
X169929Y700558D01*
X169841Y700451D01*
X169832Y700432D01*
X169820Y700416D01*
X169764Y700289D01*
X169705Y700163D01*
X169701Y700143D01*
X169693Y700124D01*
X169671Y699986D01*
X169645Y699850D01*
X169647Y699830D01*
X169643Y699810D01*
X169656Y699671D01*
X169665Y699533D01*
X169671Y699514D01*
X169673Y699494D01*
X169720Y699362D01*
X169763Y699231D01*
X169774Y699213D01*
X169781Y699194D01*
X169859Y699079D01*
X169933Y698962D01*
X169948Y698948D01*
X169959Y698931D01*
X170064Y698839D01*
X170165Y698744D01*
X170183Y698734D01*
X170198Y698721D01*
X170322Y698657D01*
X170443Y698590D01*
X170463Y698585D01*
X170481Y698576D01*
X170617Y698546D01*
X170751Y698511D01*
X170779Y698509D01*
X170791Y698506D01*
X170812Y698507D01*
X170912Y698501D01*
X287763Y698501D01*
X287792Y698504D01*
X287821Y698502D01*
X287949Y698524D01*
X288078Y698541D01*
X288105Y698551D01*
X288135Y698556D01*
X288253Y698610D01*
X288374Y698658D01*
X288398Y698675D01*
X288425Y698687D01*
X288526Y698768D01*
X288631Y698844D01*
X288650Y698867D01*
X288673Y698886D01*
X288751Y698989D01*
X288834Y699089D01*
X288846Y699116D01*
X288864Y699140D01*
X288935Y699284D01*
X289505Y700661D01*
X291209Y702365D01*
X293435Y703287D01*
X295845Y703287D01*
X298071Y702365D01*
X299775Y700661D01*
X300697Y698435D01*
X300697Y696025D01*
X299775Y693799D01*
X298071Y692095D01*
X295845Y691173D01*
X293435Y691173D01*
X291209Y692095D01*
X290257Y693047D01*
X290179Y693108D01*
X290107Y693176D01*
X290053Y693205D01*
X290006Y693242D01*
X289915Y693282D01*
X289828Y693330D01*
X289770Y693345D01*
X289714Y693369D01*
X289616Y693384D01*
X289520Y693409D01*
X289420Y693415D01*
X289400Y693419D01*
X289388Y693417D01*
X289360Y693419D01*
X169642Y693419D01*
X169505Y693402D01*
X169366Y693389D01*
X169347Y693382D01*
X169326Y693379D01*
X169198Y693328D01*
X169066Y693281D01*
X169050Y693270D01*
X169031Y693262D01*
X168918Y693181D01*
X168803Y693103D01*
X168790Y693087D01*
X168773Y693076D01*
X168685Y692968D01*
X168593Y692864D01*
X168584Y692846D01*
X168571Y692831D01*
X168511Y692705D01*
X168448Y692581D01*
X168444Y692561D01*
X168435Y692543D01*
X168409Y692407D01*
X168379Y692271D01*
X168379Y692250D01*
X168375Y692231D01*
X168384Y692092D01*
X168388Y691953D01*
X168394Y691933D01*
X168395Y691913D01*
X168438Y691781D01*
X168477Y691647D01*
X168487Y691630D01*
X168493Y691611D01*
X168568Y691493D01*
X168638Y691373D01*
X168657Y691352D01*
X168663Y691342D01*
X168678Y691328D01*
X168745Y691253D01*
X171185Y688812D01*
X172848Y684798D01*
X172848Y680452D01*
X171185Y676438D01*
X168112Y673365D01*
X164098Y671702D01*
X159752Y671702D01*
G37*
%LPD*%
%LPC*%
G36*
X582027Y39877D02*
X582027Y39877D01*
X578013Y41540D01*
X574940Y44613D01*
X573277Y48627D01*
X573277Y52973D01*
X574940Y56987D01*
X578013Y60060D01*
X582027Y61723D01*
X586373Y61723D01*
X588982Y60642D01*
X589010Y60634D01*
X589036Y60621D01*
X589163Y60592D01*
X589288Y60558D01*
X589318Y60558D01*
X589347Y60551D01*
X589476Y60555D01*
X589606Y60553D01*
X589635Y60560D01*
X589665Y60561D01*
X589789Y60597D01*
X589916Y60627D01*
X589942Y60641D01*
X589970Y60649D01*
X590082Y60715D01*
X590197Y60776D01*
X590219Y60796D01*
X590244Y60811D01*
X590365Y60917D01*
X649614Y120166D01*
X651622Y122175D01*
X729837Y122175D01*
X729935Y122187D01*
X730034Y122190D01*
X730092Y122207D01*
X730152Y122215D01*
X730244Y122251D01*
X730339Y122279D01*
X730392Y122309D01*
X730448Y122332D01*
X730528Y122390D01*
X730613Y122440D01*
X730689Y122506D01*
X730705Y122518D01*
X730713Y122528D01*
X730734Y122546D01*
X746134Y137946D01*
X746194Y138024D01*
X746262Y138096D01*
X746291Y138149D01*
X746328Y138197D01*
X746368Y138288D01*
X746416Y138375D01*
X746431Y138433D01*
X746455Y138489D01*
X746470Y138587D01*
X746495Y138683D01*
X746501Y138783D01*
X746505Y138803D01*
X746503Y138815D01*
X746505Y138843D01*
X746505Y139911D01*
X746502Y139940D01*
X746504Y139970D01*
X746482Y140098D01*
X746465Y140227D01*
X746455Y140254D01*
X746450Y140283D01*
X746396Y140402D01*
X746348Y140522D01*
X746331Y140546D01*
X746319Y140573D01*
X746238Y140675D01*
X746162Y140780D01*
X746139Y140799D01*
X746120Y140822D01*
X746017Y140900D01*
X745917Y140983D01*
X745890Y140995D01*
X745866Y141013D01*
X745722Y141084D01*
X744264Y141688D01*
X741763Y144189D01*
X740409Y147456D01*
X740409Y150994D01*
X741763Y154261D01*
X744264Y156762D01*
X747531Y158116D01*
X751069Y158116D01*
X754336Y156762D01*
X756837Y154261D01*
X758191Y150994D01*
X758191Y147456D01*
X756837Y144189D01*
X754336Y141688D01*
X752878Y141084D01*
X752853Y141069D01*
X752825Y141060D01*
X752715Y140991D01*
X752602Y140926D01*
X752581Y140906D01*
X752556Y140890D01*
X752467Y140795D01*
X752374Y140705D01*
X752358Y140680D01*
X752338Y140658D01*
X752275Y140545D01*
X752207Y140434D01*
X752199Y140406D01*
X752184Y140380D01*
X752152Y140254D01*
X752114Y140130D01*
X752112Y140101D01*
X752105Y140072D01*
X752095Y139911D01*
X752095Y136002D01*
X732678Y116585D01*
X654463Y116585D01*
X654365Y116573D01*
X654266Y116570D01*
X654208Y116553D01*
X654148Y116545D01*
X654056Y116509D01*
X653961Y116481D01*
X653908Y116451D01*
X653852Y116428D01*
X653772Y116370D01*
X653687Y116320D01*
X653611Y116254D01*
X653595Y116242D01*
X653587Y116232D01*
X653566Y116214D01*
X594317Y56965D01*
X594299Y56941D01*
X594277Y56922D01*
X594202Y56816D01*
X594122Y56714D01*
X594110Y56686D01*
X594094Y56662D01*
X594048Y56541D01*
X593996Y56422D01*
X593991Y56393D01*
X593981Y56365D01*
X593966Y56236D01*
X593946Y56108D01*
X593949Y56078D01*
X593946Y56049D01*
X593964Y55920D01*
X593976Y55791D01*
X593986Y55763D01*
X593990Y55734D01*
X594042Y55582D01*
X595123Y52973D01*
X595123Y48627D01*
X593460Y44613D01*
X590387Y41540D01*
X586373Y39877D01*
X582027Y39877D01*
G37*
%LPD*%
%LPC*%
G36*
X556627Y39877D02*
X556627Y39877D01*
X552613Y41540D01*
X549540Y44613D01*
X547877Y48627D01*
X547877Y52973D01*
X549540Y56987D01*
X552613Y60060D01*
X556627Y61723D01*
X560973Y61723D01*
X563582Y60642D01*
X563610Y60634D01*
X563636Y60621D01*
X563763Y60592D01*
X563888Y60558D01*
X563918Y60558D01*
X563947Y60551D01*
X564076Y60555D01*
X564206Y60553D01*
X564235Y60560D01*
X564265Y60561D01*
X564389Y60597D01*
X564516Y60627D01*
X564542Y60641D01*
X564570Y60649D01*
X564682Y60715D01*
X564797Y60776D01*
X564819Y60796D01*
X564844Y60811D01*
X564965Y60917D01*
X634374Y130326D01*
X636382Y132335D01*
X709517Y132335D01*
X709615Y132347D01*
X709714Y132350D01*
X709772Y132367D01*
X709832Y132375D01*
X709924Y132411D01*
X710019Y132439D01*
X710072Y132469D01*
X710128Y132492D01*
X710208Y132550D01*
X710293Y132600D01*
X710369Y132666D01*
X710385Y132678D01*
X710393Y132688D01*
X710414Y132706D01*
X718232Y140524D01*
X718305Y140619D01*
X718384Y140708D01*
X718402Y140744D01*
X718427Y140776D01*
X718474Y140885D01*
X718528Y140991D01*
X718537Y141030D01*
X718553Y141068D01*
X718572Y141185D01*
X718598Y141301D01*
X718597Y141342D01*
X718603Y141382D01*
X718592Y141500D01*
X718588Y141619D01*
X718577Y141658D01*
X718573Y141698D01*
X718533Y141810D01*
X718500Y141925D01*
X718480Y141959D01*
X718466Y141998D01*
X718399Y142096D01*
X718339Y142199D01*
X718299Y142244D01*
X718287Y142261D01*
X718272Y142274D01*
X718232Y142319D01*
X716363Y144189D01*
X715009Y147456D01*
X715009Y150994D01*
X716363Y154261D01*
X718864Y156762D01*
X722131Y158116D01*
X725669Y158116D01*
X728936Y156762D01*
X731437Y154261D01*
X732791Y150994D01*
X732791Y147456D01*
X731437Y144189D01*
X728936Y141688D01*
X726377Y140628D01*
X726368Y140623D01*
X726360Y140620D01*
X726230Y140544D01*
X726100Y140470D01*
X726094Y140464D01*
X726086Y140459D01*
X725965Y140352D01*
X712358Y126745D01*
X639223Y126745D01*
X639125Y126733D01*
X639026Y126730D01*
X638968Y126713D01*
X638908Y126705D01*
X638816Y126669D01*
X638721Y126641D01*
X638668Y126611D01*
X638612Y126588D01*
X638532Y126530D01*
X638447Y126480D01*
X638371Y126414D01*
X638355Y126402D01*
X638347Y126392D01*
X638326Y126374D01*
X568917Y56965D01*
X568899Y56941D01*
X568877Y56922D01*
X568802Y56816D01*
X568722Y56714D01*
X568710Y56686D01*
X568694Y56662D01*
X568648Y56541D01*
X568596Y56422D01*
X568591Y56393D01*
X568581Y56365D01*
X568566Y56236D01*
X568546Y56108D01*
X568549Y56078D01*
X568546Y56049D01*
X568564Y55920D01*
X568576Y55791D01*
X568586Y55763D01*
X568590Y55734D01*
X568642Y55582D01*
X569723Y52973D01*
X569723Y48627D01*
X568060Y44613D01*
X564987Y41540D01*
X560973Y39877D01*
X556627Y39877D01*
G37*
%LPD*%
%LPC*%
G36*
X170078Y332739D02*
X170078Y332739D01*
X161675Y336220D01*
X155245Y342650D01*
X151764Y351053D01*
X151764Y360147D01*
X155245Y368550D01*
X161675Y374980D01*
X170078Y378461D01*
X179172Y378461D01*
X187575Y374980D01*
X194005Y368550D01*
X197486Y360147D01*
X197486Y351053D01*
X194005Y342650D01*
X187575Y336220D01*
X179172Y332739D01*
X170078Y332739D01*
G37*
%LPD*%
%LPC*%
G36*
X401853Y342264D02*
X401853Y342264D01*
X393450Y345745D01*
X387020Y352175D01*
X383539Y360578D01*
X383539Y369672D01*
X387020Y378075D01*
X393450Y384505D01*
X401853Y387986D01*
X410947Y387986D01*
X419350Y384505D01*
X425780Y378075D01*
X429261Y369672D01*
X429261Y360578D01*
X425780Y352175D01*
X419350Y345745D01*
X410947Y342264D01*
X401853Y342264D01*
G37*
%LPD*%
%LPC*%
G36*
X170078Y485139D02*
X170078Y485139D01*
X161675Y488620D01*
X155245Y495050D01*
X151764Y503453D01*
X151764Y512547D01*
X155245Y520950D01*
X161675Y527380D01*
X170078Y530861D01*
X179172Y530861D01*
X187575Y527380D01*
X194005Y520950D01*
X197486Y512547D01*
X197486Y503453D01*
X194005Y495050D01*
X187575Y488620D01*
X179172Y485139D01*
X170078Y485139D01*
G37*
%LPD*%
%LPC*%
G36*
X528853Y342264D02*
X528853Y342264D01*
X520450Y345745D01*
X514020Y352175D01*
X510539Y360578D01*
X510539Y369672D01*
X514020Y378075D01*
X520450Y384505D01*
X528853Y387986D01*
X537947Y387986D01*
X546350Y384505D01*
X552780Y378075D01*
X556261Y369672D01*
X556261Y360578D01*
X552780Y352175D01*
X546350Y345745D01*
X537947Y342264D01*
X528853Y342264D01*
G37*
%LPD*%
%LPC*%
G36*
X437413Y596899D02*
X437413Y596899D01*
X429010Y600380D01*
X422580Y606810D01*
X419099Y615213D01*
X419099Y624307D01*
X422580Y632710D01*
X429010Y639140D01*
X437413Y642621D01*
X446507Y642621D01*
X454910Y639140D01*
X461340Y632710D01*
X464821Y624307D01*
X464821Y615213D01*
X461340Y606810D01*
X454910Y600380D01*
X446507Y596899D01*
X437413Y596899D01*
G37*
%LPD*%
%LPC*%
G36*
X108483Y596899D02*
X108483Y596899D01*
X100080Y600380D01*
X93650Y606810D01*
X90169Y615213D01*
X90169Y624307D01*
X93650Y632710D01*
X100080Y639140D01*
X108483Y642621D01*
X117577Y642621D01*
X125980Y639140D01*
X132410Y632710D01*
X135891Y624307D01*
X135891Y615213D01*
X132410Y606810D01*
X125980Y600380D01*
X117577Y596899D01*
X108483Y596899D01*
G37*
%LPD*%
%LPC*%
G36*
X478241Y644905D02*
X478241Y644905D01*
X474880Y646297D01*
X472307Y648870D01*
X470915Y652231D01*
X470915Y655869D01*
X472307Y659230D01*
X474880Y661803D01*
X475957Y662249D01*
X476035Y662293D01*
X476117Y662329D01*
X476173Y662372D01*
X476233Y662406D01*
X476298Y662469D01*
X476369Y662523D01*
X476411Y662579D01*
X476462Y662628D01*
X476509Y662704D01*
X476564Y662775D01*
X476591Y662839D01*
X476628Y662899D01*
X476654Y662984D01*
X476690Y663066D01*
X476701Y663136D01*
X476722Y663203D01*
X476726Y663292D01*
X476740Y663380D01*
X476734Y663450D01*
X476737Y663520D01*
X476719Y663608D01*
X476710Y663697D01*
X476687Y663763D01*
X476673Y663832D01*
X476633Y663912D01*
X476622Y663942D01*
X476613Y663972D01*
X476610Y663976D01*
X476603Y663996D01*
X476539Y664104D01*
X476533Y664117D01*
X476528Y664123D01*
X476521Y664135D01*
X464585Y681688D01*
X464546Y681732D01*
X464514Y681782D01*
X464441Y681851D01*
X464375Y681926D01*
X464326Y681960D01*
X464283Y682000D01*
X464195Y682049D01*
X464112Y682105D01*
X464056Y682125D01*
X464004Y682154D01*
X463907Y682179D01*
X463813Y682213D01*
X463754Y682218D01*
X463696Y682233D01*
X463536Y682243D01*
X373835Y682243D01*
X373736Y682231D01*
X373637Y682228D01*
X373579Y682211D01*
X373519Y682203D01*
X373427Y682167D01*
X373332Y682139D01*
X373280Y682109D01*
X373223Y682086D01*
X373143Y682028D01*
X373058Y681978D01*
X372982Y681912D01*
X372966Y681900D01*
X372958Y681890D01*
X372937Y681872D01*
X371731Y680665D01*
X369505Y679743D01*
X367095Y679743D01*
X364869Y680665D01*
X363165Y682369D01*
X362243Y684595D01*
X362243Y687005D01*
X363165Y689231D01*
X364869Y690935D01*
X367095Y691857D01*
X369505Y691857D01*
X371731Y690935D01*
X372937Y689728D01*
X373015Y689668D01*
X373087Y689600D01*
X373140Y689571D01*
X373188Y689534D01*
X373279Y689494D01*
X373366Y689446D01*
X373424Y689431D01*
X373480Y689407D01*
X373578Y689392D01*
X373674Y689367D01*
X373774Y689361D01*
X373794Y689357D01*
X373807Y689359D01*
X373835Y689357D01*
X464605Y689357D01*
X464742Y689374D01*
X464880Y689387D01*
X464900Y689394D01*
X464920Y689397D01*
X465049Y689448D01*
X465180Y689495D01*
X465204Y689509D01*
X465216Y689514D01*
X465232Y689526D01*
X465307Y689570D01*
X466308Y689379D01*
X466347Y689377D01*
X466385Y689367D01*
X466546Y689357D01*
X467566Y689357D01*
X467664Y689280D01*
X467771Y689192D01*
X467790Y689183D01*
X467806Y689170D01*
X467933Y689115D01*
X468059Y689056D01*
X468087Y689049D01*
X468098Y689044D01*
X468118Y689041D01*
X468202Y689019D01*
X468775Y688177D01*
X468801Y688147D01*
X468821Y688114D01*
X468927Y687993D01*
X469648Y687272D01*
X469664Y687148D01*
X469677Y687010D01*
X469684Y686990D01*
X469687Y686970D01*
X469738Y686841D01*
X469785Y686710D01*
X469799Y686686D01*
X469804Y686674D01*
X469816Y686658D01*
X469866Y686572D01*
X485385Y663750D01*
X485424Y663706D01*
X485456Y663656D01*
X485529Y663587D01*
X485595Y663512D01*
X485644Y663478D01*
X485687Y663438D01*
X485775Y663389D01*
X485858Y663333D01*
X485914Y663313D01*
X485966Y663284D01*
X486063Y663259D01*
X486158Y663225D01*
X486217Y663220D01*
X486274Y663205D01*
X486435Y663195D01*
X497119Y663195D01*
X500480Y661803D01*
X503053Y659230D01*
X504445Y655869D01*
X504445Y652231D01*
X503053Y648870D01*
X500480Y646297D01*
X497119Y644905D01*
X478241Y644905D01*
G37*
%LPD*%
%LPC*%
G36*
X159752Y620902D02*
X159752Y620902D01*
X155738Y622565D01*
X152665Y625638D01*
X151002Y629652D01*
X151002Y633998D01*
X152665Y638012D01*
X155738Y641085D01*
X159752Y642748D01*
X164098Y642748D01*
X168112Y641085D01*
X171185Y638012D01*
X171687Y636800D01*
X171701Y636775D01*
X171711Y636747D01*
X171780Y636637D01*
X171844Y636524D01*
X171865Y636503D01*
X171881Y636478D01*
X171975Y636389D01*
X172066Y636296D01*
X172091Y636280D01*
X172112Y636260D01*
X172226Y636197D01*
X172337Y636129D01*
X172365Y636121D01*
X172391Y636106D01*
X172517Y636074D01*
X172641Y636036D01*
X172670Y636034D01*
X172699Y636027D01*
X172859Y636017D01*
X261165Y636017D01*
X261264Y636029D01*
X261363Y636032D01*
X261421Y636049D01*
X261481Y636057D01*
X261573Y636093D01*
X261668Y636121D01*
X261720Y636151D01*
X261777Y636174D01*
X261857Y636232D01*
X261942Y636282D01*
X262018Y636348D01*
X262034Y636360D01*
X262042Y636370D01*
X262063Y636388D01*
X263269Y637595D01*
X265495Y638517D01*
X267905Y638517D01*
X270131Y637595D01*
X271835Y635891D01*
X272757Y633665D01*
X272757Y631255D01*
X271835Y629029D01*
X270131Y627325D01*
X267905Y626403D01*
X265495Y626403D01*
X263269Y627325D01*
X262063Y628532D01*
X261985Y628592D01*
X261913Y628660D01*
X261860Y628689D01*
X261812Y628726D01*
X261721Y628766D01*
X261634Y628814D01*
X261576Y628829D01*
X261520Y628853D01*
X261422Y628868D01*
X261326Y628893D01*
X261226Y628899D01*
X261206Y628903D01*
X261193Y628901D01*
X261165Y628903D01*
X173386Y628903D01*
X173356Y628900D01*
X173327Y628902D01*
X173199Y628880D01*
X173070Y628863D01*
X173043Y628853D01*
X173013Y628848D01*
X172895Y628794D01*
X172774Y628746D01*
X172750Y628729D01*
X172724Y628717D01*
X172622Y628636D01*
X172517Y628560D01*
X172498Y628537D01*
X172475Y628518D01*
X172397Y628415D01*
X172314Y628315D01*
X172302Y628288D01*
X172284Y628264D01*
X172213Y628120D01*
X171185Y625638D01*
X168112Y622565D01*
X164098Y620902D01*
X159752Y620902D01*
G37*
%LPD*%
%LPC*%
G36*
X159752Y570102D02*
X159752Y570102D01*
X155738Y571765D01*
X152665Y574838D01*
X151002Y578852D01*
X151002Y583198D01*
X152665Y587212D01*
X155738Y590285D01*
X159752Y591948D01*
X164098Y591948D01*
X168112Y590285D01*
X171185Y587212D01*
X171950Y585365D01*
X171965Y585340D01*
X171974Y585312D01*
X172043Y585202D01*
X172107Y585089D01*
X172128Y585068D01*
X172144Y585043D01*
X172238Y584954D01*
X172329Y584861D01*
X172354Y584845D01*
X172375Y584825D01*
X172489Y584762D01*
X172600Y584694D01*
X172628Y584686D01*
X172654Y584671D01*
X172780Y584639D01*
X172904Y584601D01*
X172933Y584599D01*
X172962Y584592D01*
X173123Y584582D01*
X247830Y584582D01*
X247929Y584594D01*
X248028Y584597D01*
X248086Y584614D01*
X248146Y584622D01*
X248238Y584658D01*
X248333Y584686D01*
X248385Y584716D01*
X248442Y584739D01*
X248522Y584797D01*
X248607Y584847D01*
X248683Y584913D01*
X248699Y584925D01*
X248707Y584935D01*
X248728Y584953D01*
X250569Y586795D01*
X252795Y587717D01*
X255205Y587717D01*
X257431Y586795D01*
X259135Y585091D01*
X260057Y582865D01*
X260057Y580455D01*
X259135Y578229D01*
X257431Y576525D01*
X255205Y575603D01*
X252795Y575603D01*
X250569Y576525D01*
X249998Y577097D01*
X249920Y577157D01*
X249848Y577225D01*
X249795Y577254D01*
X249747Y577291D01*
X249656Y577331D01*
X249569Y577379D01*
X249511Y577394D01*
X249455Y577418D01*
X249357Y577433D01*
X249261Y577458D01*
X249161Y577464D01*
X249141Y577468D01*
X249128Y577466D01*
X249100Y577468D01*
X173123Y577468D01*
X173093Y577465D01*
X173064Y577467D01*
X172936Y577445D01*
X172807Y577428D01*
X172780Y577418D01*
X172750Y577413D01*
X172632Y577359D01*
X172511Y577311D01*
X172487Y577294D01*
X172460Y577282D01*
X172359Y577201D01*
X172254Y577125D01*
X172235Y577102D01*
X172212Y577083D01*
X172134Y576980D01*
X172051Y576880D01*
X172039Y576853D01*
X172021Y576829D01*
X171950Y576685D01*
X171185Y574838D01*
X168112Y571765D01*
X164098Y570102D01*
X159752Y570102D01*
G37*
%LPD*%
%LPC*%
G36*
X159752Y544702D02*
X159752Y544702D01*
X155738Y546365D01*
X152665Y549438D01*
X151002Y553452D01*
X151002Y557798D01*
X152665Y561812D01*
X155738Y564885D01*
X159752Y566548D01*
X164098Y566548D01*
X168112Y564885D01*
X171185Y561812D01*
X171687Y560600D01*
X171701Y560575D01*
X171711Y560547D01*
X171780Y560437D01*
X171844Y560324D01*
X171865Y560303D01*
X171881Y560278D01*
X171975Y560189D01*
X172066Y560096D01*
X172091Y560080D01*
X172112Y560060D01*
X172226Y559997D01*
X172337Y559929D01*
X172365Y559921D01*
X172391Y559906D01*
X172517Y559874D01*
X172641Y559836D01*
X172670Y559834D01*
X172699Y559827D01*
X172859Y559817D01*
X223065Y559817D01*
X223164Y559829D01*
X223263Y559832D01*
X223321Y559849D01*
X223381Y559857D01*
X223473Y559893D01*
X223568Y559921D01*
X223620Y559951D01*
X223677Y559974D01*
X223757Y560032D01*
X223842Y560082D01*
X223918Y560148D01*
X223934Y560160D01*
X223942Y560170D01*
X223963Y560188D01*
X225169Y561395D01*
X227395Y562317D01*
X229805Y562317D01*
X232031Y561395D01*
X233735Y559691D01*
X234657Y557465D01*
X234657Y555055D01*
X233735Y552829D01*
X232031Y551125D01*
X229805Y550203D01*
X227395Y550203D01*
X225169Y551125D01*
X223963Y552332D01*
X223885Y552392D01*
X223813Y552460D01*
X223760Y552489D01*
X223712Y552526D01*
X223621Y552566D01*
X223534Y552614D01*
X223476Y552629D01*
X223420Y552653D01*
X223322Y552668D01*
X223226Y552693D01*
X223126Y552699D01*
X223106Y552703D01*
X223093Y552701D01*
X223065Y552703D01*
X173386Y552703D01*
X173356Y552700D01*
X173327Y552702D01*
X173199Y552680D01*
X173070Y552663D01*
X173043Y552653D01*
X173013Y552648D01*
X172895Y552594D01*
X172774Y552546D01*
X172750Y552529D01*
X172724Y552517D01*
X172622Y552436D01*
X172517Y552360D01*
X172498Y552337D01*
X172475Y552318D01*
X172397Y552215D01*
X172314Y552115D01*
X172302Y552088D01*
X172284Y552064D01*
X172213Y551920D01*
X171185Y549438D01*
X168112Y546365D01*
X164098Y544702D01*
X159752Y544702D01*
G37*
%LPD*%
%LPC*%
G36*
X159752Y595502D02*
X159752Y595502D01*
X155738Y597165D01*
X152665Y600238D01*
X151002Y604252D01*
X151002Y608598D01*
X152665Y612612D01*
X155738Y615685D01*
X159752Y617348D01*
X164098Y617348D01*
X168112Y615685D01*
X171185Y612612D01*
X171687Y611400D01*
X171701Y611375D01*
X171711Y611347D01*
X171780Y611237D01*
X171844Y611124D01*
X171865Y611103D01*
X171881Y611078D01*
X171975Y610989D01*
X172066Y610896D01*
X172091Y610880D01*
X172112Y610860D01*
X172226Y610797D01*
X172337Y610729D01*
X172365Y610721D01*
X172391Y610706D01*
X172517Y610674D01*
X172641Y610636D01*
X172670Y610634D01*
X172699Y610627D01*
X172859Y610617D01*
X195125Y610617D01*
X195224Y610629D01*
X195323Y610632D01*
X195381Y610649D01*
X195441Y610657D01*
X195533Y610693D01*
X195628Y610721D01*
X195680Y610751D01*
X195737Y610774D01*
X195817Y610832D01*
X195902Y610882D01*
X195978Y610948D01*
X195994Y610960D01*
X196002Y610970D01*
X196023Y610988D01*
X197229Y612195D01*
X199455Y613117D01*
X201865Y613117D01*
X204091Y612195D01*
X205795Y610491D01*
X206717Y608265D01*
X206717Y605855D01*
X205795Y603629D01*
X204091Y601925D01*
X201865Y601003D01*
X199455Y601003D01*
X197229Y601925D01*
X196023Y603132D01*
X195945Y603192D01*
X195873Y603260D01*
X195820Y603289D01*
X195772Y603326D01*
X195681Y603366D01*
X195594Y603414D01*
X195536Y603429D01*
X195480Y603453D01*
X195382Y603468D01*
X195286Y603493D01*
X195186Y603499D01*
X195166Y603503D01*
X195153Y603501D01*
X195125Y603503D01*
X173386Y603503D01*
X173356Y603500D01*
X173327Y603502D01*
X173199Y603480D01*
X173070Y603463D01*
X173043Y603453D01*
X173013Y603448D01*
X172895Y603394D01*
X172774Y603346D01*
X172750Y603329D01*
X172724Y603317D01*
X172622Y603236D01*
X172517Y603160D01*
X172498Y603137D01*
X172475Y603118D01*
X172397Y603015D01*
X172314Y602915D01*
X172302Y602888D01*
X172284Y602864D01*
X172213Y602720D01*
X171185Y600238D01*
X168112Y597165D01*
X164098Y595502D01*
X159752Y595502D01*
G37*
%LPD*%
%LPC*%
G36*
X478241Y594105D02*
X478241Y594105D01*
X474880Y595497D01*
X472307Y598070D01*
X470915Y601431D01*
X470915Y605069D01*
X472307Y608430D01*
X474880Y611003D01*
X478241Y612395D01*
X497119Y612395D01*
X500480Y611003D01*
X503053Y608430D01*
X504445Y605069D01*
X504445Y601431D01*
X503053Y598070D01*
X500480Y595497D01*
X497119Y594105D01*
X478241Y594105D01*
G37*
%LPD*%
%LPC*%
G36*
X159752Y646302D02*
X159752Y646302D01*
X155738Y647965D01*
X152665Y651038D01*
X151002Y655052D01*
X151002Y659398D01*
X152665Y663412D01*
X155738Y666485D01*
X159752Y668148D01*
X164098Y668148D01*
X168112Y666485D01*
X171185Y663412D01*
X172848Y659398D01*
X172848Y655052D01*
X171185Y651038D01*
X168112Y647965D01*
X164098Y646302D01*
X159752Y646302D01*
G37*
%LPD*%
%LPC*%
G36*
X388352Y598677D02*
X388352Y598677D01*
X384338Y600340D01*
X381265Y603413D01*
X379602Y607427D01*
X379602Y611773D01*
X381265Y615787D01*
X384338Y618860D01*
X388352Y620523D01*
X392698Y620523D01*
X396712Y618860D01*
X399785Y615787D01*
X401448Y611773D01*
X401448Y607427D01*
X399785Y603413D01*
X396712Y600340D01*
X392698Y598677D01*
X388352Y598677D01*
G37*
%LPD*%
%LPC*%
G36*
X388352Y624077D02*
X388352Y624077D01*
X384338Y625740D01*
X381265Y628813D01*
X379602Y632827D01*
X379602Y637173D01*
X381265Y641187D01*
X384338Y644260D01*
X388352Y645923D01*
X392698Y645923D01*
X396712Y644260D01*
X399785Y641187D01*
X401448Y637173D01*
X401448Y632827D01*
X399785Y628813D01*
X396712Y625740D01*
X392698Y624077D01*
X388352Y624077D01*
G37*
%LPD*%
%LPC*%
G36*
X388352Y649477D02*
X388352Y649477D01*
X384338Y651140D01*
X381265Y654213D01*
X379602Y658227D01*
X379602Y662573D01*
X381265Y666587D01*
X384338Y669660D01*
X388352Y671323D01*
X392698Y671323D01*
X396712Y669660D01*
X399785Y666587D01*
X401448Y662573D01*
X401448Y658227D01*
X399785Y654213D01*
X396712Y651140D01*
X392698Y649477D01*
X388352Y649477D01*
G37*
%LPD*%
%LPC*%
G36*
X388352Y573277D02*
X388352Y573277D01*
X384338Y574940D01*
X381265Y578013D01*
X379602Y582027D01*
X379602Y586373D01*
X381265Y590387D01*
X384338Y593460D01*
X388352Y595123D01*
X392698Y595123D01*
X396712Y593460D01*
X399785Y590387D01*
X401448Y586373D01*
X401448Y582027D01*
X399785Y578013D01*
X396712Y574940D01*
X392698Y573277D01*
X388352Y573277D01*
G37*
%LPD*%
%LPC*%
G36*
X455027Y39877D02*
X455027Y39877D01*
X451013Y41540D01*
X447940Y44613D01*
X446277Y48627D01*
X446277Y52973D01*
X447940Y56987D01*
X451013Y60060D01*
X455027Y61723D01*
X459373Y61723D01*
X463387Y60060D01*
X466460Y56987D01*
X468123Y52973D01*
X468123Y48627D01*
X466460Y44613D01*
X463387Y41540D01*
X459373Y39877D01*
X455027Y39877D01*
G37*
%LPD*%
%LPC*%
G36*
X429627Y852677D02*
X429627Y852677D01*
X425613Y854340D01*
X422540Y857413D01*
X420877Y861427D01*
X420877Y865773D01*
X422540Y869787D01*
X425613Y872860D01*
X429627Y874523D01*
X433973Y874523D01*
X437987Y872860D01*
X441060Y869787D01*
X442723Y865773D01*
X442723Y861427D01*
X441060Y857413D01*
X437987Y854340D01*
X433973Y852677D01*
X429627Y852677D01*
G37*
%LPD*%
%LPC*%
G36*
X388352Y547877D02*
X388352Y547877D01*
X384338Y549540D01*
X381265Y552613D01*
X379602Y556627D01*
X379602Y560973D01*
X381265Y564987D01*
X384338Y568060D01*
X388352Y569723D01*
X392698Y569723D01*
X396712Y568060D01*
X399785Y564987D01*
X401448Y560973D01*
X401448Y556627D01*
X399785Y552613D01*
X396712Y549540D01*
X392698Y547877D01*
X388352Y547877D01*
G37*
%LPD*%
%LPC*%
G36*
X378827Y852677D02*
X378827Y852677D01*
X374813Y854340D01*
X371740Y857413D01*
X370077Y861427D01*
X370077Y865773D01*
X371740Y869787D01*
X374813Y872860D01*
X378827Y874523D01*
X383173Y874523D01*
X387187Y872860D01*
X390260Y869787D01*
X391923Y865773D01*
X391923Y861427D01*
X390260Y857413D01*
X387187Y854340D01*
X383173Y852677D01*
X378827Y852677D01*
G37*
%LPD*%
%LPC*%
G36*
X404227Y852677D02*
X404227Y852677D01*
X400213Y854340D01*
X397140Y857413D01*
X395477Y861427D01*
X395477Y865773D01*
X397140Y869787D01*
X400213Y872860D01*
X404227Y874523D01*
X408573Y874523D01*
X412587Y872860D01*
X415660Y869787D01*
X417323Y865773D01*
X417323Y861427D01*
X415660Y857413D01*
X412587Y854340D01*
X408573Y852677D01*
X404227Y852677D01*
G37*
%LPD*%
%LPC*%
G36*
X353427Y852677D02*
X353427Y852677D01*
X349413Y854340D01*
X346340Y857413D01*
X344677Y861427D01*
X344677Y865773D01*
X346340Y869787D01*
X349413Y872860D01*
X353427Y874523D01*
X357773Y874523D01*
X361787Y872860D01*
X364860Y869787D01*
X366523Y865773D01*
X366523Y861427D01*
X364860Y857413D01*
X361787Y854340D01*
X357773Y852677D01*
X353427Y852677D01*
G37*
%LPD*%
%LPC*%
G36*
X455027Y852677D02*
X455027Y852677D01*
X451013Y854340D01*
X447940Y857413D01*
X446277Y861427D01*
X446277Y865773D01*
X447940Y869787D01*
X451013Y872860D01*
X455027Y874523D01*
X459373Y874523D01*
X463387Y872860D01*
X466460Y869787D01*
X468123Y865773D01*
X468123Y861427D01*
X466460Y857413D01*
X463387Y854340D01*
X459373Y852677D01*
X455027Y852677D01*
G37*
%LPD*%
%LPC*%
G36*
X353427Y39877D02*
X353427Y39877D01*
X349413Y41540D01*
X346340Y44613D01*
X344677Y48627D01*
X344677Y52973D01*
X346340Y56987D01*
X349413Y60060D01*
X353427Y61723D01*
X357773Y61723D01*
X361787Y60060D01*
X364860Y56987D01*
X366523Y52973D01*
X366523Y48627D01*
X364860Y44613D01*
X361787Y41540D01*
X357773Y39877D01*
X353427Y39877D01*
G37*
%LPD*%
%LPC*%
G36*
X480427Y39877D02*
X480427Y39877D01*
X476413Y41540D01*
X473340Y44613D01*
X471677Y48627D01*
X471677Y52973D01*
X473340Y56987D01*
X476413Y60060D01*
X480427Y61723D01*
X484773Y61723D01*
X488787Y60060D01*
X491860Y56987D01*
X493523Y52973D01*
X493523Y48627D01*
X491860Y44613D01*
X488787Y41540D01*
X484773Y39877D01*
X480427Y39877D01*
G37*
%LPD*%
%LPC*%
G36*
X325206Y511555D02*
X325206Y511555D01*
X321845Y512947D01*
X319272Y515520D01*
X317880Y518881D01*
X317880Y522519D01*
X319272Y525880D01*
X321845Y528453D01*
X325206Y529845D01*
X328844Y529845D01*
X332205Y528453D01*
X334778Y525880D01*
X336170Y522519D01*
X336170Y518881D01*
X334778Y515520D01*
X332205Y512947D01*
X328844Y511555D01*
X325206Y511555D01*
G37*
%LPD*%
%LPC*%
G36*
X442681Y495680D02*
X442681Y495680D01*
X439320Y497072D01*
X436747Y499645D01*
X435355Y503006D01*
X435355Y506644D01*
X436747Y510005D01*
X439320Y512578D01*
X442681Y513970D01*
X446319Y513970D01*
X449680Y512578D01*
X452253Y510005D01*
X453645Y506644D01*
X453645Y503006D01*
X452253Y499645D01*
X449680Y497072D01*
X446319Y495680D01*
X442681Y495680D01*
G37*
%LPD*%
%LPC*%
G36*
X544281Y495680D02*
X544281Y495680D01*
X540920Y497072D01*
X538347Y499645D01*
X536955Y503006D01*
X536955Y506644D01*
X538347Y510005D01*
X540920Y512578D01*
X544281Y513970D01*
X547919Y513970D01*
X551280Y512578D01*
X553853Y510005D01*
X555245Y506644D01*
X555245Y503006D01*
X553853Y499645D01*
X551280Y497072D01*
X547919Y495680D01*
X544281Y495680D01*
G37*
%LPD*%
%LPC*%
G36*
X518881Y495680D02*
X518881Y495680D01*
X515520Y497072D01*
X512947Y499645D01*
X511555Y503006D01*
X511555Y506644D01*
X512947Y510005D01*
X515520Y512578D01*
X518881Y513970D01*
X522519Y513970D01*
X525880Y512578D01*
X528453Y510005D01*
X529845Y506644D01*
X529845Y503006D01*
X528453Y499645D01*
X525880Y497072D01*
X522519Y495680D01*
X518881Y495680D01*
G37*
%LPD*%
%LPC*%
G36*
X325206Y359155D02*
X325206Y359155D01*
X321845Y360547D01*
X319272Y363120D01*
X317880Y366481D01*
X317880Y370119D01*
X319272Y373480D01*
X321845Y376053D01*
X325206Y377445D01*
X328844Y377445D01*
X332205Y376053D01*
X334778Y373480D01*
X336170Y370119D01*
X336170Y366481D01*
X334778Y363120D01*
X332205Y360547D01*
X328844Y359155D01*
X325206Y359155D01*
G37*
%LPD*%
%LPC*%
G36*
X391881Y495680D02*
X391881Y495680D01*
X388520Y497072D01*
X385947Y499645D01*
X384555Y503006D01*
X384555Y506644D01*
X385947Y510005D01*
X388520Y512578D01*
X391881Y513970D01*
X395519Y513970D01*
X398880Y512578D01*
X401453Y510005D01*
X402845Y506644D01*
X402845Y503006D01*
X401453Y499645D01*
X398880Y497072D01*
X395519Y495680D01*
X391881Y495680D01*
G37*
%LPD*%
%LPC*%
G36*
X417331Y140334D02*
X417331Y140334D01*
X414064Y141688D01*
X411563Y144189D01*
X410209Y147456D01*
X410209Y150994D01*
X411563Y154261D01*
X414064Y156762D01*
X417331Y158116D01*
X420869Y158116D01*
X424136Y156762D01*
X426637Y154261D01*
X427991Y150994D01*
X427991Y147456D01*
X426637Y144189D01*
X424136Y141688D01*
X420869Y140334D01*
X417331Y140334D01*
G37*
%LPD*%
%LPC*%
G36*
X442731Y140334D02*
X442731Y140334D01*
X439464Y141688D01*
X436963Y144189D01*
X435609Y147456D01*
X435609Y150994D01*
X436963Y154261D01*
X439464Y156762D01*
X442731Y158116D01*
X446269Y158116D01*
X449536Y156762D01*
X452037Y154261D01*
X453391Y150994D01*
X453391Y147456D01*
X452037Y144189D01*
X449536Y141688D01*
X446269Y140334D01*
X442731Y140334D01*
G37*
%LPD*%
%LPC*%
G36*
X468131Y140334D02*
X468131Y140334D01*
X464864Y141688D01*
X462363Y144189D01*
X461009Y147456D01*
X461009Y150994D01*
X462363Y154261D01*
X464864Y156762D01*
X468131Y158116D01*
X471669Y158116D01*
X474936Y156762D01*
X477437Y154261D01*
X478791Y150994D01*
X478791Y147456D01*
X477437Y144189D01*
X474936Y141688D01*
X471669Y140334D01*
X468131Y140334D01*
G37*
%LPD*%
%LPC*%
G36*
X493531Y140334D02*
X493531Y140334D01*
X490264Y141688D01*
X487763Y144189D01*
X486409Y147456D01*
X486409Y150994D01*
X487763Y154261D01*
X490264Y156762D01*
X493531Y158116D01*
X497069Y158116D01*
X500336Y156762D01*
X502837Y154261D01*
X504191Y150994D01*
X504191Y147456D01*
X502837Y144189D01*
X500336Y141688D01*
X497069Y140334D01*
X493531Y140334D01*
G37*
%LPD*%
%LPC*%
G36*
X518931Y140334D02*
X518931Y140334D01*
X515664Y141688D01*
X513163Y144189D01*
X511809Y147456D01*
X511809Y150994D01*
X513163Y154261D01*
X515664Y156762D01*
X518931Y158116D01*
X522469Y158116D01*
X525736Y156762D01*
X528237Y154261D01*
X529591Y150994D01*
X529591Y147456D01*
X528237Y144189D01*
X525736Y141688D01*
X522469Y140334D01*
X518931Y140334D01*
G37*
%LPD*%
%LPC*%
G36*
X544331Y140334D02*
X544331Y140334D01*
X541064Y141688D01*
X538563Y144189D01*
X537209Y147456D01*
X537209Y150994D01*
X538563Y154261D01*
X541064Y156762D01*
X544331Y158116D01*
X547869Y158116D01*
X551136Y156762D01*
X553637Y154261D01*
X554991Y150994D01*
X554991Y147456D01*
X553637Y144189D01*
X551136Y141688D01*
X547869Y140334D01*
X544331Y140334D01*
G37*
%LPD*%
%LPC*%
G36*
X569731Y140334D02*
X569731Y140334D01*
X566464Y141688D01*
X563963Y144189D01*
X562609Y147456D01*
X562609Y150994D01*
X563963Y154261D01*
X566464Y156762D01*
X569731Y158116D01*
X573269Y158116D01*
X576536Y156762D01*
X579037Y154261D01*
X580391Y150994D01*
X580391Y147456D01*
X579037Y144189D01*
X576536Y141688D01*
X573269Y140334D01*
X569731Y140334D01*
G37*
%LPD*%
%LPC*%
G36*
X595131Y140334D02*
X595131Y140334D01*
X591864Y141688D01*
X589363Y144189D01*
X588009Y147456D01*
X588009Y150994D01*
X589363Y154261D01*
X591864Y156762D01*
X595131Y158116D01*
X598669Y158116D01*
X601936Y156762D01*
X604437Y154261D01*
X605791Y150994D01*
X605791Y147456D01*
X604437Y144189D01*
X601936Y141688D01*
X598669Y140334D01*
X595131Y140334D01*
G37*
%LPD*%
%LPC*%
G36*
X620531Y140334D02*
X620531Y140334D01*
X617264Y141688D01*
X614763Y144189D01*
X613409Y147456D01*
X613409Y150994D01*
X614763Y154261D01*
X617264Y156762D01*
X620531Y158116D01*
X624069Y158116D01*
X627336Y156762D01*
X629837Y154261D01*
X631191Y150994D01*
X631191Y147456D01*
X629837Y144189D01*
X627336Y141688D01*
X624069Y140334D01*
X620531Y140334D01*
G37*
%LPD*%
%LPC*%
G36*
X341131Y140334D02*
X341131Y140334D01*
X337864Y141688D01*
X335363Y144189D01*
X334009Y147456D01*
X334009Y150994D01*
X335363Y154261D01*
X337864Y156762D01*
X341131Y158116D01*
X344669Y158116D01*
X347936Y156762D01*
X350437Y154261D01*
X351791Y150994D01*
X351791Y147456D01*
X350437Y144189D01*
X347936Y141688D01*
X344669Y140334D01*
X341131Y140334D01*
G37*
%LPD*%
%LPC*%
G36*
X264931Y140334D02*
X264931Y140334D01*
X261664Y141688D01*
X259163Y144189D01*
X257809Y147456D01*
X257809Y150994D01*
X259163Y154261D01*
X261664Y156762D01*
X264931Y158116D01*
X268469Y158116D01*
X271736Y156762D01*
X274237Y154261D01*
X275591Y150994D01*
X275591Y147456D01*
X274237Y144189D01*
X271736Y141688D01*
X268469Y140334D01*
X264931Y140334D01*
G37*
%LPD*%
%LPC*%
G36*
X315731Y140334D02*
X315731Y140334D01*
X312464Y141688D01*
X309963Y144189D01*
X308609Y147456D01*
X308609Y150994D01*
X309963Y154261D01*
X312464Y156762D01*
X315731Y158116D01*
X319269Y158116D01*
X322536Y156762D01*
X325037Y154261D01*
X326391Y150994D01*
X326391Y147456D01*
X325037Y144189D01*
X322536Y141688D01*
X319269Y140334D01*
X315731Y140334D01*
G37*
%LPD*%
%LPC*%
G36*
X290331Y140334D02*
X290331Y140334D01*
X287064Y141688D01*
X284563Y144189D01*
X283209Y147456D01*
X283209Y150994D01*
X284563Y154261D01*
X287064Y156762D01*
X290331Y158116D01*
X293869Y158116D01*
X297136Y156762D01*
X299637Y154261D01*
X300991Y150994D01*
X300991Y147456D01*
X299637Y144189D01*
X297136Y141688D01*
X293869Y140334D01*
X290331Y140334D01*
G37*
%LPD*%
%LPC*%
G36*
X671331Y292734D02*
X671331Y292734D01*
X668064Y294088D01*
X665563Y296589D01*
X664209Y299856D01*
X664209Y303394D01*
X665563Y306661D01*
X668064Y309162D01*
X671331Y310516D01*
X674869Y310516D01*
X678136Y309162D01*
X680637Y306661D01*
X681991Y303394D01*
X681991Y299856D01*
X680637Y296589D01*
X678136Y294088D01*
X674869Y292734D01*
X671331Y292734D01*
G37*
%LPD*%
%LPC*%
G36*
X645931Y140334D02*
X645931Y140334D01*
X642664Y141688D01*
X640163Y144189D01*
X638809Y147456D01*
X638809Y150994D01*
X640163Y154261D01*
X642664Y156762D01*
X645931Y158116D01*
X649469Y158116D01*
X652736Y156762D01*
X655237Y154261D01*
X656591Y150994D01*
X656591Y147456D01*
X655237Y144189D01*
X652736Y141688D01*
X649469Y140334D01*
X645931Y140334D01*
G37*
%LPD*%
%LPC*%
G36*
X391931Y292734D02*
X391931Y292734D01*
X388664Y294088D01*
X386163Y296589D01*
X384809Y299856D01*
X384809Y303394D01*
X386163Y306661D01*
X388664Y309162D01*
X391931Y310516D01*
X395469Y310516D01*
X398736Y309162D01*
X401237Y306661D01*
X402591Y303394D01*
X402591Y299856D01*
X401237Y296589D01*
X398736Y294088D01*
X395469Y292734D01*
X391931Y292734D01*
G37*
%LPD*%
%LPC*%
G36*
X366531Y292734D02*
X366531Y292734D01*
X363264Y294088D01*
X360763Y296589D01*
X359409Y299856D01*
X359409Y303394D01*
X360763Y306661D01*
X363264Y309162D01*
X366531Y310516D01*
X370069Y310516D01*
X373336Y309162D01*
X375837Y306661D01*
X377191Y303394D01*
X377191Y299856D01*
X375837Y296589D01*
X373336Y294088D01*
X370069Y292734D01*
X366531Y292734D01*
G37*
%LPD*%
%LPC*%
G36*
X341131Y292734D02*
X341131Y292734D01*
X337864Y294088D01*
X335363Y296589D01*
X334009Y299856D01*
X334009Y303394D01*
X335363Y306661D01*
X337864Y309162D01*
X341131Y310516D01*
X344669Y310516D01*
X347936Y309162D01*
X350437Y306661D01*
X351791Y303394D01*
X351791Y299856D01*
X350437Y296589D01*
X347936Y294088D01*
X344669Y292734D01*
X341131Y292734D01*
G37*
%LPD*%
%LPC*%
G36*
X315731Y292734D02*
X315731Y292734D01*
X312464Y294088D01*
X309963Y296589D01*
X308609Y299856D01*
X308609Y303394D01*
X309963Y306661D01*
X312464Y309162D01*
X315731Y310516D01*
X319269Y310516D01*
X322536Y309162D01*
X325037Y306661D01*
X326391Y303394D01*
X326391Y299856D01*
X325037Y296589D01*
X322536Y294088D01*
X319269Y292734D01*
X315731Y292734D01*
G37*
%LPD*%
%LPC*%
G36*
X290331Y292734D02*
X290331Y292734D01*
X287064Y294088D01*
X284563Y296589D01*
X283209Y299856D01*
X283209Y303394D01*
X284563Y306661D01*
X287064Y309162D01*
X290331Y310516D01*
X293869Y310516D01*
X297136Y309162D01*
X299637Y306661D01*
X300991Y303394D01*
X300991Y299856D01*
X299637Y296589D01*
X297136Y294088D01*
X293869Y292734D01*
X290331Y292734D01*
G37*
%LPD*%
%LPC*%
G36*
X264931Y292734D02*
X264931Y292734D01*
X261664Y294088D01*
X259163Y296589D01*
X257809Y299856D01*
X257809Y303394D01*
X259163Y306661D01*
X261664Y309162D01*
X264931Y310516D01*
X268469Y310516D01*
X271736Y309162D01*
X274237Y306661D01*
X275591Y303394D01*
X275591Y299856D01*
X274237Y296589D01*
X271736Y294088D01*
X268469Y292734D01*
X264931Y292734D01*
G37*
%LPD*%
%LPC*%
G36*
X239531Y292734D02*
X239531Y292734D01*
X236264Y294088D01*
X233763Y296589D01*
X232409Y299856D01*
X232409Y303394D01*
X233763Y306661D01*
X236264Y309162D01*
X239531Y310516D01*
X243069Y310516D01*
X246336Y309162D01*
X248837Y306661D01*
X250191Y303394D01*
X250191Y299856D01*
X248837Y296589D01*
X246336Y294088D01*
X243069Y292734D01*
X239531Y292734D01*
G37*
%LPD*%
%LPC*%
G36*
X214131Y292734D02*
X214131Y292734D01*
X210864Y294088D01*
X208363Y296589D01*
X207009Y299856D01*
X207009Y303394D01*
X208363Y306661D01*
X210864Y309162D01*
X214131Y310516D01*
X217669Y310516D01*
X220936Y309162D01*
X223437Y306661D01*
X224791Y303394D01*
X224791Y299856D01*
X223437Y296589D01*
X220936Y294088D01*
X217669Y292734D01*
X214131Y292734D01*
G37*
%LPD*%
%LPC*%
G36*
X188731Y292734D02*
X188731Y292734D01*
X185464Y294088D01*
X182963Y296589D01*
X181609Y299856D01*
X181609Y303394D01*
X182963Y306661D01*
X185464Y309162D01*
X188731Y310516D01*
X192269Y310516D01*
X195536Y309162D01*
X198037Y306661D01*
X199391Y303394D01*
X199391Y299856D01*
X198037Y296589D01*
X195536Y294088D01*
X192269Y292734D01*
X188731Y292734D01*
G37*
%LPD*%
%LPC*%
G36*
X163331Y292734D02*
X163331Y292734D01*
X160064Y294088D01*
X157563Y296589D01*
X156209Y299856D01*
X156209Y303394D01*
X157563Y306661D01*
X160064Y309162D01*
X163331Y310516D01*
X166869Y310516D01*
X170136Y309162D01*
X172637Y306661D01*
X173991Y303394D01*
X173991Y299856D01*
X172637Y296589D01*
X170136Y294088D01*
X166869Y292734D01*
X163331Y292734D01*
G37*
%LPD*%
%LPC*%
G36*
X747531Y292734D02*
X747531Y292734D01*
X744264Y294088D01*
X741763Y296589D01*
X740409Y299856D01*
X740409Y303394D01*
X741763Y306661D01*
X744264Y309162D01*
X747531Y310516D01*
X751069Y310516D01*
X754336Y309162D01*
X756837Y306661D01*
X758191Y303394D01*
X758191Y299856D01*
X756837Y296589D01*
X754336Y294088D01*
X751069Y292734D01*
X747531Y292734D01*
G37*
%LPD*%
%LPC*%
G36*
X722131Y292734D02*
X722131Y292734D01*
X718864Y294088D01*
X716363Y296589D01*
X715009Y299856D01*
X715009Y303394D01*
X716363Y306661D01*
X718864Y309162D01*
X722131Y310516D01*
X725669Y310516D01*
X728936Y309162D01*
X731437Y306661D01*
X732791Y303394D01*
X732791Y299856D01*
X731437Y296589D01*
X728936Y294088D01*
X725669Y292734D01*
X722131Y292734D01*
G37*
%LPD*%
%LPC*%
G36*
X696731Y292734D02*
X696731Y292734D01*
X693464Y294088D01*
X690963Y296589D01*
X689609Y299856D01*
X689609Y303394D01*
X690963Y306661D01*
X693464Y309162D01*
X696731Y310516D01*
X700269Y310516D01*
X703536Y309162D01*
X706037Y306661D01*
X707391Y303394D01*
X707391Y299856D01*
X706037Y296589D01*
X703536Y294088D01*
X700269Y292734D01*
X696731Y292734D01*
G37*
%LPD*%
%LPC*%
G36*
X645931Y292734D02*
X645931Y292734D01*
X642664Y294088D01*
X640163Y296589D01*
X638809Y299856D01*
X638809Y303394D01*
X640163Y306661D01*
X642664Y309162D01*
X645931Y310516D01*
X649469Y310516D01*
X652736Y309162D01*
X655237Y306661D01*
X656591Y303394D01*
X656591Y299856D01*
X655237Y296589D01*
X652736Y294088D01*
X649469Y292734D01*
X645931Y292734D01*
G37*
%LPD*%
%LPC*%
G36*
X620531Y292734D02*
X620531Y292734D01*
X617264Y294088D01*
X614763Y296589D01*
X613409Y299856D01*
X613409Y303394D01*
X614763Y306661D01*
X617264Y309162D01*
X620531Y310516D01*
X624069Y310516D01*
X627336Y309162D01*
X629837Y306661D01*
X631191Y303394D01*
X631191Y299856D01*
X629837Y296589D01*
X627336Y294088D01*
X624069Y292734D01*
X620531Y292734D01*
G37*
%LPD*%
%LPC*%
G36*
X595131Y292734D02*
X595131Y292734D01*
X591864Y294088D01*
X589363Y296589D01*
X588009Y299856D01*
X588009Y303394D01*
X589363Y306661D01*
X591864Y309162D01*
X595131Y310516D01*
X598669Y310516D01*
X601936Y309162D01*
X604437Y306661D01*
X605791Y303394D01*
X605791Y299856D01*
X604437Y296589D01*
X601936Y294088D01*
X598669Y292734D01*
X595131Y292734D01*
G37*
%LPD*%
%LPC*%
G36*
X569731Y292734D02*
X569731Y292734D01*
X566464Y294088D01*
X563963Y296589D01*
X562609Y299856D01*
X562609Y303394D01*
X563963Y306661D01*
X566464Y309162D01*
X569731Y310516D01*
X573269Y310516D01*
X576536Y309162D01*
X579037Y306661D01*
X580391Y303394D01*
X580391Y299856D01*
X579037Y296589D01*
X576536Y294088D01*
X573269Y292734D01*
X569731Y292734D01*
G37*
%LPD*%
%LPC*%
G36*
X544331Y292734D02*
X544331Y292734D01*
X541064Y294088D01*
X538563Y296589D01*
X537209Y299856D01*
X537209Y303394D01*
X538563Y306661D01*
X541064Y309162D01*
X544331Y310516D01*
X547869Y310516D01*
X551136Y309162D01*
X553637Y306661D01*
X554991Y303394D01*
X554991Y299856D01*
X553637Y296589D01*
X551136Y294088D01*
X547869Y292734D01*
X544331Y292734D01*
G37*
%LPD*%
%LPC*%
G36*
X518931Y292734D02*
X518931Y292734D01*
X515664Y294088D01*
X513163Y296589D01*
X511809Y299856D01*
X511809Y303394D01*
X513163Y306661D01*
X515664Y309162D01*
X518931Y310516D01*
X522469Y310516D01*
X525736Y309162D01*
X528237Y306661D01*
X529591Y303394D01*
X529591Y299856D01*
X528237Y296589D01*
X525736Y294088D01*
X522469Y292734D01*
X518931Y292734D01*
G37*
%LPD*%
%LPC*%
G36*
X493531Y292734D02*
X493531Y292734D01*
X490264Y294088D01*
X487763Y296589D01*
X486409Y299856D01*
X486409Y303394D01*
X487763Y306661D01*
X490264Y309162D01*
X493531Y310516D01*
X497069Y310516D01*
X500336Y309162D01*
X502837Y306661D01*
X504191Y303394D01*
X504191Y299856D01*
X502837Y296589D01*
X500336Y294088D01*
X497069Y292734D01*
X493531Y292734D01*
G37*
%LPD*%
%LPC*%
G36*
X468131Y292734D02*
X468131Y292734D01*
X464864Y294088D01*
X462363Y296589D01*
X461009Y299856D01*
X461009Y303394D01*
X462363Y306661D01*
X464864Y309162D01*
X468131Y310516D01*
X471669Y310516D01*
X474936Y309162D01*
X477437Y306661D01*
X478791Y303394D01*
X478791Y299856D01*
X477437Y296589D01*
X474936Y294088D01*
X471669Y292734D01*
X468131Y292734D01*
G37*
%LPD*%
%LPC*%
G36*
X442731Y292734D02*
X442731Y292734D01*
X439464Y294088D01*
X436963Y296589D01*
X435609Y299856D01*
X435609Y303394D01*
X436963Y306661D01*
X439464Y309162D01*
X442731Y310516D01*
X446269Y310516D01*
X449536Y309162D01*
X452037Y306661D01*
X453391Y303394D01*
X453391Y299856D01*
X452037Y296589D01*
X449536Y294088D01*
X446269Y292734D01*
X442731Y292734D01*
G37*
%LPD*%
%LPC*%
G36*
X417331Y292734D02*
X417331Y292734D01*
X414064Y294088D01*
X411563Y296589D01*
X410209Y299856D01*
X410209Y303394D01*
X411563Y306661D01*
X414064Y309162D01*
X417331Y310516D01*
X420869Y310516D01*
X424136Y309162D01*
X426637Y306661D01*
X427991Y303394D01*
X427991Y299856D01*
X426637Y296589D01*
X424136Y294088D01*
X420869Y292734D01*
X417331Y292734D01*
G37*
%LPD*%
%LPC*%
G36*
X290331Y267334D02*
X290331Y267334D01*
X287064Y268688D01*
X284563Y271189D01*
X283209Y274456D01*
X283209Y277994D01*
X284563Y281261D01*
X287064Y283762D01*
X290331Y285116D01*
X293869Y285116D01*
X297136Y283762D01*
X299637Y281261D01*
X300991Y277994D01*
X300991Y274456D01*
X299637Y271189D01*
X297136Y268688D01*
X293869Y267334D01*
X290331Y267334D01*
G37*
%LPD*%
%LPC*%
G36*
X188731Y267334D02*
X188731Y267334D01*
X185464Y268688D01*
X182963Y271189D01*
X181609Y274456D01*
X181609Y277994D01*
X182963Y281261D01*
X185464Y283762D01*
X188731Y285116D01*
X192269Y285116D01*
X195536Y283762D01*
X198037Y281261D01*
X199391Y277994D01*
X199391Y274456D01*
X198037Y271189D01*
X195536Y268688D01*
X192269Y267334D01*
X188731Y267334D01*
G37*
%LPD*%
%LPC*%
G36*
X264931Y267334D02*
X264931Y267334D01*
X261664Y268688D01*
X259163Y271189D01*
X257809Y274456D01*
X257809Y277994D01*
X259163Y281261D01*
X261664Y283762D01*
X264931Y285116D01*
X268469Y285116D01*
X271736Y283762D01*
X274237Y281261D01*
X275591Y277994D01*
X275591Y274456D01*
X274237Y271189D01*
X271736Y268688D01*
X268469Y267334D01*
X264931Y267334D01*
G37*
%LPD*%
%LPC*%
G36*
X239531Y267334D02*
X239531Y267334D01*
X236264Y268688D01*
X233763Y271189D01*
X232409Y274456D01*
X232409Y277994D01*
X233763Y281261D01*
X236264Y283762D01*
X239531Y285116D01*
X243069Y285116D01*
X246336Y283762D01*
X248837Y281261D01*
X250191Y277994D01*
X250191Y274456D01*
X248837Y271189D01*
X246336Y268688D01*
X243069Y267334D01*
X239531Y267334D01*
G37*
%LPD*%
%LPC*%
G36*
X239531Y140334D02*
X239531Y140334D01*
X236264Y141688D01*
X233763Y144189D01*
X232409Y147456D01*
X232409Y150994D01*
X233763Y154261D01*
X236264Y156762D01*
X239531Y158116D01*
X243069Y158116D01*
X246336Y156762D01*
X248837Y154261D01*
X250191Y150994D01*
X250191Y147456D01*
X248837Y144189D01*
X246336Y141688D01*
X243069Y140334D01*
X239531Y140334D01*
G37*
%LPD*%
%LPC*%
G36*
X490219Y631189D02*
X490219Y631189D01*
X490219Y638811D01*
X496100Y638811D01*
X497679Y638561D01*
X499200Y638066D01*
X500625Y637340D01*
X501919Y636400D01*
X503050Y635269D01*
X503990Y633975D01*
X504716Y632550D01*
X505159Y631189D01*
X490219Y631189D01*
G37*
%LPD*%
%LPC*%
G36*
X470201Y631189D02*
X470201Y631189D01*
X470644Y632550D01*
X471370Y633975D01*
X472310Y635269D01*
X473441Y636400D01*
X474735Y637340D01*
X476160Y638066D01*
X477681Y638561D01*
X479260Y638811D01*
X485141Y638811D01*
X485141Y631189D01*
X470201Y631189D01*
G37*
%LPD*%
%LPC*%
G36*
X490219Y618489D02*
X490219Y618489D01*
X490219Y626111D01*
X505159Y626111D01*
X504716Y624750D01*
X503990Y623325D01*
X503050Y622031D01*
X501919Y620900D01*
X500625Y619960D01*
X499200Y619234D01*
X497679Y618739D01*
X496100Y618489D01*
X490219Y618489D01*
G37*
%LPD*%
%LPC*%
G36*
X479260Y618489D02*
X479260Y618489D01*
X477681Y618739D01*
X476160Y619234D01*
X474735Y619960D01*
X473441Y620900D01*
X472310Y622031D01*
X471370Y623325D01*
X470644Y624750D01*
X470201Y626111D01*
X485141Y626111D01*
X485141Y618489D01*
X479260Y618489D01*
G37*
%LPD*%
%LPC*%
G36*
X164464Y735964D02*
X164464Y735964D01*
X164464Y745110D01*
X164721Y745070D01*
X166508Y744489D01*
X168182Y743636D01*
X169703Y742531D01*
X171031Y741203D01*
X172136Y739682D01*
X172989Y738008D01*
X173570Y736221D01*
X173610Y735964D01*
X164464Y735964D01*
G37*
%LPD*%
%LPC*%
G36*
X383539Y53339D02*
X383539Y53339D01*
X383539Y62485D01*
X383796Y62445D01*
X385583Y61864D01*
X387257Y61011D01*
X388778Y59906D01*
X390106Y58578D01*
X391211Y57057D01*
X392064Y55383D01*
X392645Y53596D01*
X392685Y53339D01*
X383539Y53339D01*
G37*
%LPD*%
%LPC*%
G36*
X150240Y735964D02*
X150240Y735964D01*
X150280Y736221D01*
X150861Y738008D01*
X151714Y739682D01*
X152819Y741203D01*
X154147Y742531D01*
X155668Y743636D01*
X157342Y744489D01*
X159129Y745070D01*
X159386Y745110D01*
X159386Y735964D01*
X150240Y735964D01*
G37*
%LPD*%
%LPC*%
G36*
X164464Y730886D02*
X164464Y730886D01*
X173610Y730886D01*
X173570Y730629D01*
X172989Y728842D01*
X172136Y727168D01*
X171031Y725647D01*
X169703Y724319D01*
X168182Y723214D01*
X166508Y722361D01*
X164721Y721780D01*
X164464Y721740D01*
X164464Y730886D01*
G37*
%LPD*%
%LPC*%
G36*
X369315Y53339D02*
X369315Y53339D01*
X369355Y53596D01*
X369936Y55383D01*
X370789Y57057D01*
X371894Y58578D01*
X373222Y59906D01*
X374743Y61011D01*
X376417Y61864D01*
X378204Y62445D01*
X378461Y62485D01*
X378461Y53339D01*
X369315Y53339D01*
G37*
%LPD*%
%LPC*%
G36*
X383539Y48261D02*
X383539Y48261D01*
X392685Y48261D01*
X392645Y48004D01*
X392064Y46217D01*
X391211Y44543D01*
X390106Y43022D01*
X388778Y41694D01*
X387257Y40589D01*
X385583Y39736D01*
X383796Y39155D01*
X383539Y39115D01*
X383539Y48261D01*
G37*
%LPD*%
%LPC*%
G36*
X159129Y721780D02*
X159129Y721780D01*
X157342Y722361D01*
X155668Y723214D01*
X154147Y724319D01*
X152819Y725647D01*
X151714Y727168D01*
X150861Y728842D01*
X150280Y730629D01*
X150240Y730886D01*
X159386Y730886D01*
X159386Y721740D01*
X159129Y721780D01*
G37*
%LPD*%
%LPC*%
G36*
X378204Y39155D02*
X378204Y39155D01*
X376417Y39736D01*
X374743Y40589D01*
X373222Y41694D01*
X371894Y43022D01*
X370789Y44543D01*
X369936Y46217D01*
X369355Y48004D01*
X369315Y48261D01*
X378461Y48261D01*
X378461Y39115D01*
X378204Y39155D01*
G37*
%LPD*%
%LPC*%
G36*
X100174Y364174D02*
X100174Y364174D01*
X100174Y372820D01*
X100893Y372706D01*
X102471Y372193D01*
X103949Y371440D01*
X105292Y370465D01*
X106465Y369292D01*
X107440Y367949D01*
X108193Y366471D01*
X108706Y364893D01*
X108820Y364174D01*
X100174Y364174D01*
G37*
%LPD*%
%LPC*%
G36*
X88030Y364174D02*
X88030Y364174D01*
X88144Y364893D01*
X88657Y366471D01*
X89410Y367949D01*
X90385Y369292D01*
X91558Y370465D01*
X92901Y371440D01*
X94379Y372193D01*
X95957Y372706D01*
X96676Y372820D01*
X96676Y364174D01*
X88030Y364174D01*
G37*
%LPD*%
%LPC*%
G36*
X497839Y507364D02*
X497839Y507364D01*
X497839Y514684D01*
X499200Y514241D01*
X500625Y513515D01*
X501919Y512575D01*
X503050Y511444D01*
X503990Y510150D01*
X504716Y508725D01*
X505159Y507364D01*
X497839Y507364D01*
G37*
%LPD*%
%LPC*%
G36*
X329564Y396239D02*
X329564Y396239D01*
X329564Y403559D01*
X330925Y403116D01*
X332350Y402390D01*
X333644Y401450D01*
X334775Y400319D01*
X335715Y399025D01*
X336441Y397600D01*
X336884Y396239D01*
X329564Y396239D01*
G37*
%LPD*%
%LPC*%
G36*
X485441Y507364D02*
X485441Y507364D01*
X485884Y508725D01*
X486610Y510150D01*
X487550Y511444D01*
X488681Y512575D01*
X489975Y513515D01*
X491400Y514241D01*
X492761Y514684D01*
X492761Y507364D01*
X485441Y507364D01*
G37*
%LPD*%
%LPC*%
G36*
X329564Y391161D02*
X329564Y391161D01*
X336884Y391161D01*
X336441Y389800D01*
X335715Y388375D01*
X334775Y387081D01*
X333644Y385950D01*
X332350Y385010D01*
X330925Y384284D01*
X329564Y383841D01*
X329564Y391161D01*
G37*
%LPD*%
%LPC*%
G36*
X317166Y396239D02*
X317166Y396239D01*
X317609Y397600D01*
X318335Y399025D01*
X319275Y400319D01*
X320406Y401450D01*
X321700Y402390D01*
X323125Y403116D01*
X324486Y403559D01*
X324486Y396239D01*
X317166Y396239D01*
G37*
%LPD*%
%LPC*%
G36*
X497839Y502286D02*
X497839Y502286D01*
X505159Y502286D01*
X504716Y500925D01*
X503990Y499500D01*
X503050Y498206D01*
X501919Y497075D01*
X500625Y496135D01*
X499200Y495409D01*
X497839Y494966D01*
X497839Y502286D01*
G37*
%LPD*%
%LPC*%
G36*
X491400Y495409D02*
X491400Y495409D01*
X489975Y496135D01*
X488681Y497075D01*
X487550Y498206D01*
X486610Y499500D01*
X485884Y500925D01*
X485441Y502286D01*
X492761Y502286D01*
X492761Y494966D01*
X491400Y495409D01*
G37*
%LPD*%
%LPC*%
G36*
X323125Y384284D02*
X323125Y384284D01*
X321700Y385010D01*
X320406Y385950D01*
X319275Y387081D01*
X318335Y388375D01*
X317609Y389800D01*
X317166Y391161D01*
X324486Y391161D01*
X324486Y383841D01*
X323125Y384284D01*
G37*
%LPD*%
%LPC*%
G36*
X167512Y151637D02*
X167512Y151637D01*
X167512Y158858D01*
X168903Y158406D01*
X170292Y157698D01*
X171554Y156782D01*
X172657Y155679D01*
X173573Y154417D01*
X174281Y153028D01*
X174733Y151637D01*
X167512Y151637D01*
G37*
%LPD*%
%LPC*%
G36*
X155467Y151637D02*
X155467Y151637D01*
X155919Y153028D01*
X156627Y154417D01*
X157543Y155679D01*
X158646Y156782D01*
X159908Y157698D01*
X161297Y158406D01*
X162688Y158858D01*
X162688Y151637D01*
X155467Y151637D01*
G37*
%LPD*%
%LPC*%
G36*
X167512Y146813D02*
X167512Y146813D01*
X174733Y146813D01*
X174281Y145422D01*
X173573Y144033D01*
X172657Y142771D01*
X171554Y141668D01*
X170292Y140752D01*
X168903Y140044D01*
X167512Y139592D01*
X167512Y146813D01*
G37*
%LPD*%
%LPC*%
G36*
X161297Y140044D02*
X161297Y140044D01*
X159908Y140752D01*
X158646Y141668D01*
X157543Y142771D01*
X156627Y144033D01*
X155919Y145422D01*
X155467Y146813D01*
X162688Y146813D01*
X162688Y139592D01*
X161297Y140044D01*
G37*
%LPD*%
%LPC*%
G36*
X161924Y733424D02*
X161924Y733424D01*
X161924Y733426D01*
X161926Y733426D01*
X161926Y733424D01*
X161924Y733424D01*
G37*
%LPD*%
%LPC*%
G36*
X487679Y628649D02*
X487679Y628649D01*
X487679Y628651D01*
X487681Y628651D01*
X487681Y628649D01*
X487679Y628649D01*
G37*
%LPD*%
%LPC*%
G36*
X495299Y504824D02*
X495299Y504824D01*
X495299Y504826D01*
X495301Y504826D01*
X495301Y504824D01*
X495299Y504824D01*
G37*
%LPD*%
%LPC*%
G36*
X327024Y393699D02*
X327024Y393699D01*
X327024Y393701D01*
X327026Y393701D01*
X327026Y393699D01*
X327024Y393699D01*
G37*
%LPD*%
%LPC*%
G36*
X380999Y50799D02*
X380999Y50799D01*
X380999Y50801D01*
X381001Y50801D01*
X381001Y50799D01*
X380999Y50799D01*
G37*
%LPD*%
D10*
X480060Y654050D02*
X495300Y654050D01*
X495300Y628650D02*
X480060Y628650D01*
X480060Y603250D02*
X495300Y603250D01*
D11*
X104775Y551975D03*
X104775Y571975D03*
D12*
X390525Y558800D03*
X390525Y584200D03*
X390525Y609600D03*
X390525Y635000D03*
X390525Y660400D03*
X161925Y555625D03*
X161925Y581025D03*
X161925Y606425D03*
X161925Y631825D03*
X161925Y657225D03*
X161925Y682625D03*
X161925Y708025D03*
X161925Y733425D03*
X161925Y758825D03*
D11*
X98425Y342425D03*
X98425Y362425D03*
D13*
X215900Y149225D03*
X241300Y149225D03*
X266700Y149225D03*
X292100Y149225D03*
X317500Y149225D03*
X342900Y149225D03*
X368300Y149225D03*
X393700Y149225D03*
X419100Y149225D03*
X444500Y149225D03*
X469900Y149225D03*
X495300Y149225D03*
X495300Y301625D03*
X469900Y301625D03*
X444500Y301625D03*
X419100Y301625D03*
X393700Y301625D03*
X368300Y301625D03*
X342900Y301625D03*
X317500Y301625D03*
X292100Y301625D03*
X266700Y301625D03*
X241300Y301625D03*
X190500Y149225D03*
X215900Y301625D03*
X190500Y301625D03*
X165100Y149225D03*
X165100Y301625D03*
X520700Y149225D03*
X520700Y301625D03*
X546100Y149225D03*
X571500Y149225D03*
X596900Y149225D03*
X622300Y149225D03*
X647700Y149225D03*
X673100Y149225D03*
X698500Y149225D03*
X723900Y149225D03*
X749300Y149225D03*
X749300Y301625D03*
X723900Y301625D03*
X698500Y301625D03*
X673100Y301625D03*
X647700Y301625D03*
X622300Y301625D03*
X596900Y301625D03*
X571500Y301625D03*
X546100Y301625D03*
X190500Y276225D03*
X241300Y276225D03*
X266700Y276225D03*
X292100Y276225D03*
D14*
X327025Y444500D03*
X327025Y469900D03*
X327025Y495300D03*
X327025Y520700D03*
X327025Y419100D03*
X327025Y393700D03*
X327025Y368300D03*
X327025Y342900D03*
X393700Y504825D03*
X419100Y504825D03*
X444500Y504825D03*
X469900Y504825D03*
X495300Y504825D03*
X520700Y504825D03*
X546100Y504825D03*
D12*
X355600Y50800D03*
X381000Y50800D03*
X406400Y50800D03*
X431800Y50800D03*
X457200Y50800D03*
X482600Y50800D03*
X508000Y50800D03*
X533400Y50800D03*
X558800Y50800D03*
X584200Y50800D03*
X355600Y863600D03*
X381000Y863600D03*
X406400Y863600D03*
X431800Y863600D03*
X457200Y863600D03*
X482600Y863600D03*
X508000Y863600D03*
X533400Y863600D03*
X558800Y863600D03*
X584200Y863600D03*
D15*
X98425Y342425D02*
X45720Y395130D01*
X45720Y512920D02*
X104775Y571975D01*
X45720Y512920D02*
X45720Y395130D01*
D16*
X137160Y695960D03*
X294640Y697230D03*
D17*
X293370Y695960D02*
X137160Y695960D01*
D18*
X293370Y695960D02*
X294640Y697230D01*
D16*
X304800Y495300D03*
D15*
X327025Y495300D01*
X327025Y469900D02*
X434340Y469900D01*
X444500Y480060D01*
D16*
X444500Y480060D03*
D15*
X327025Y469900D02*
X266700Y469900D01*
D16*
X266700Y469900D03*
X266700Y632460D03*
D15*
X162560Y632460D01*
X161925Y631825D01*
D16*
X335280Y817880D03*
D15*
X530860Y817880D01*
X533400Y820420D01*
X533400Y863600D01*
X411480Y444500D02*
X327025Y444500D01*
X411480Y444500D02*
X419100Y452120D01*
X419100Y454660D01*
D16*
X419100Y454660D03*
D15*
X327025Y444500D02*
X200660Y444500D01*
D16*
X200660Y444500D03*
X200660Y607060D03*
D15*
X162560Y607060D01*
X161925Y606425D01*
X419100Y504825D02*
X558800Y644525D01*
X558800Y863600D01*
X485140Y419100D02*
X327025Y419100D01*
D16*
X485140Y419100D03*
D15*
X327025Y419100D02*
X142240Y419100D01*
D16*
X142240Y419100D03*
D15*
X469900Y504825D02*
X469900Y538480D01*
X584200Y652780D01*
X584200Y863600D01*
X327025Y342900D02*
X337185Y332740D01*
X561340Y332740D01*
D16*
X561340Y332740D03*
X165100Y322580D03*
D15*
X306705Y322580D01*
X327025Y342900D01*
X161925Y758825D02*
X492125Y758825D01*
D16*
X492125Y758825D03*
X279400Y482600D03*
D15*
X393700Y482600D01*
D16*
X393700Y482600D03*
D18*
X337820Y119380D02*
X406400Y50800D01*
X337820Y119380D02*
X205740Y119380D01*
X190500Y134620D01*
X190500Y149225D01*
X355600Y127000D02*
X431800Y50800D01*
X355600Y127000D02*
X228600Y127000D01*
X215900Y139700D01*
X215900Y149225D01*
D16*
X228600Y556260D03*
D15*
X162560Y556260D01*
X161925Y555625D01*
D16*
X254000Y581660D03*
D15*
X253365Y581025D01*
X161925Y581025D01*
D18*
X441960Y116840D02*
X508000Y50800D01*
X441960Y116840D02*
X383540Y116840D01*
X368300Y132080D01*
X368300Y149225D01*
X459740Y124460D02*
X533400Y50800D01*
X459740Y124460D02*
X406400Y124460D01*
X393700Y137160D01*
X393700Y149225D01*
X558800Y50800D02*
X637540Y129540D01*
X711200Y129540D01*
X723900Y142240D01*
X723900Y149225D01*
X652780Y119380D02*
X584200Y50800D01*
X652780Y119380D02*
X731520Y119380D01*
X749300Y137160D01*
X749300Y149225D01*
D15*
X118270Y538480D02*
X104775Y551975D01*
X118270Y538480D02*
X416560Y538480D01*
D16*
X416560Y538480D03*
X368300Y685800D03*
D15*
X466090Y685800D01*
X487680Y654050D01*
D18*
X767080Y243205D02*
X673100Y149225D01*
X767080Y243205D02*
X767080Y673100D01*
X627380Y812800D01*
X607060Y812800D01*
D16*
X607060Y812800D03*
D18*
X775970Y230505D02*
X698500Y149225D01*
X775970Y230505D02*
X775970Y679450D01*
X627380Y830580D01*
X596900Y830580D01*
X596900Y878840D01*
X497840Y878840D01*
X482600Y863600D01*
D16*
X419100Y322580D03*
D15*
X756920Y322580D01*
X759460Y325120D01*
X759460Y668020D01*
X624840Y802640D01*
X594360Y802640D01*
D16*
X594360Y802640D03*
M02*
