G04 EAGLE Gerber X2 export*
%TF.Part,Single*%
%TF.FileFunction,Other,Solder stop mask SOL*%
%TF.FilePolarity,Positive*%
%TF.GenerationSoftware,Autodesk,EAGLE,8.7.1*%
%TF.CreationDate,2018-05-15T06:21:16Z*%
G75*
%MOMM*%
%FSLAX34Y34*%
%LPD*%
%AMOC8*
5,1,8,0,0,1.08239X$1,22.5*%
G01*
%ADD10C,6.553200*%
%ADD11C,2.743200*%
%ADD12C,1.727200*%
%ADD13C,3.505200*%
%ADD14C,1.803200*%
%ADD15C,2.082800*%
%ADD16C,1.676400*%
%ADD17C,1.727200*%
%ADD18C,1.109600*%


D10*
X95250Y457200D03*
X819150Y457200D03*
D11*
X441960Y619760D03*
X113030Y619760D03*
D12*
X480060Y654050D02*
X495300Y654050D01*
X495300Y628650D02*
X480060Y628650D01*
X480060Y603250D02*
X495300Y603250D01*
D13*
X650240Y628650D03*
D14*
X104775Y551975D03*
X104775Y571975D03*
D15*
X390525Y558800D03*
X390525Y584200D03*
X390525Y609600D03*
X390525Y635000D03*
X390525Y660400D03*
X161925Y555625D03*
X161925Y581025D03*
X161925Y606425D03*
X161925Y631825D03*
X161925Y657225D03*
X161925Y682625D03*
X161925Y708025D03*
X161925Y733425D03*
X161925Y758825D03*
D14*
X98425Y342425D03*
X98425Y362425D03*
D16*
X215900Y149225D03*
X241300Y149225D03*
X266700Y149225D03*
X292100Y149225D03*
X317500Y149225D03*
X342900Y149225D03*
X368300Y149225D03*
X393700Y149225D03*
X419100Y149225D03*
X444500Y149225D03*
X469900Y149225D03*
X495300Y149225D03*
X495300Y301625D03*
X469900Y301625D03*
X444500Y301625D03*
X419100Y301625D03*
X393700Y301625D03*
X368300Y301625D03*
X342900Y301625D03*
X317500Y301625D03*
X292100Y301625D03*
X266700Y301625D03*
X241300Y301625D03*
X190500Y149225D03*
X215900Y301625D03*
X190500Y301625D03*
X165100Y149225D03*
X165100Y301625D03*
X520700Y149225D03*
X520700Y301625D03*
X546100Y149225D03*
X571500Y149225D03*
X596900Y149225D03*
X622300Y149225D03*
X647700Y149225D03*
X673100Y149225D03*
X698500Y149225D03*
X723900Y149225D03*
X749300Y149225D03*
X749300Y301625D03*
X723900Y301625D03*
X698500Y301625D03*
X673100Y301625D03*
X647700Y301625D03*
X622300Y301625D03*
X596900Y301625D03*
X571500Y301625D03*
X546100Y301625D03*
X190500Y276225D03*
X241300Y276225D03*
X266700Y276225D03*
X292100Y276225D03*
D17*
X327025Y444500D03*
X327025Y469900D03*
X327025Y495300D03*
X327025Y520700D03*
X327025Y419100D03*
X327025Y393700D03*
X327025Y368300D03*
X327025Y342900D03*
D11*
X174625Y355600D03*
X174625Y508000D03*
D17*
X393700Y504825D03*
X419100Y504825D03*
X444500Y504825D03*
X469900Y504825D03*
X495300Y504825D03*
X520700Y504825D03*
X546100Y504825D03*
D11*
X533400Y365125D03*
X406400Y365125D03*
D15*
X355600Y50800D03*
X381000Y50800D03*
X406400Y50800D03*
X431800Y50800D03*
X457200Y50800D03*
X482600Y50800D03*
X508000Y50800D03*
X533400Y50800D03*
X558800Y50800D03*
X584200Y50800D03*
X355600Y863600D03*
X381000Y863600D03*
X406400Y863600D03*
X431800Y863600D03*
X457200Y863600D03*
X482600Y863600D03*
X508000Y863600D03*
X533400Y863600D03*
X558800Y863600D03*
X584200Y863600D03*
D18*
X137160Y695960D03*
X294640Y697230D03*
X304800Y495300D03*
X444500Y480060D03*
X266700Y469900D03*
X266700Y632460D03*
X335280Y817880D03*
X419100Y454660D03*
X200660Y444500D03*
X200660Y607060D03*
X485140Y419100D03*
X142240Y419100D03*
X561340Y332740D03*
X165100Y322580D03*
X492125Y758825D03*
X279400Y482600D03*
X393700Y482600D03*
X228600Y556260D03*
X254000Y581660D03*
X416560Y538480D03*
X368300Y685800D03*
X607060Y812800D03*
X419100Y322580D03*
X594360Y802640D03*
M02*
