%
M48
M72
T01C0.01969
T02C0.02756
T03C0.03800
T04C0.04000
T05C0.10000
T06C0.13000
T07C0.25000
%
T01
X66500Y128500
X57500Y166500
X80500Y176500
X106500Y186500
X111500Y191500
X121500Y196500
X91500Y220500
X101500Y230500
X80500Y240500
X106500Y250500
X117500Y276000
X146500Y271500
X195250Y300250
X235500Y317500
X240500Y321500
X133500Y323500
X55500Y275500
X156500Y191500
X166500Y180500
X176500Y190500
X165500Y213500
X192500Y166500
X222500Y132500
X166500Y128500
T02
X40250Y136313
X40250Y144187
X42750Y218813
X42750Y226687
T03
X66500Y60250
X76500Y60250
X86500Y60250
X96500Y60250
X106500Y60250
X116500Y60250
X126500Y60250
X136500Y60250
X146500Y60250
X156500Y60250
X166500Y60250
X176500Y60250
X186500Y60250
X196500Y60250
X206500Y60250
X216500Y60250
X226500Y60250
X236500Y60250
X246500Y60250
X256500Y60250
X266500Y60250
X276500Y60250
X286500Y60250
X296500Y60250
X296500Y120250
X286500Y120250
X276500Y120250
X266500Y120250
X256500Y120250
X246500Y120250
X236500Y120250
X226500Y120250
X216500Y120250
X206500Y120250
X196500Y120250
X186500Y120250
X176500Y120250
X166500Y120250
X156500Y120250
X146500Y120250
X136500Y120250
X126500Y120250
X116500Y120250
X116500Y110250
X106500Y110250
X106500Y120250
X96500Y120250
X96500Y110250
X86500Y120250
X76500Y120250
X76500Y110250
X66500Y120250
T04
X130250Y136500
X130250Y146500
X130250Y156500
X130250Y166500
X130250Y176500
X130250Y186500
X130250Y196500
X130250Y206500
X155250Y221500
X155250Y231500
X155250Y241500
X155250Y251500
X155250Y261500
X193500Y259000
X193500Y249000
X193500Y239000
X196500Y200250
X206500Y200250
X216500Y200250
X186500Y200250
X176500Y200250
X166500Y200250
X156500Y200250
X65250Y220250
X65250Y230250
X65250Y240250
X65250Y250250
X65250Y260250
X65250Y270250
X65250Y280250
X65250Y290250
X65250Y300250
X141500Y341500
X151500Y341500
X161500Y341500
X171500Y341500
X181500Y341500
X191500Y341500
X201500Y341500
X211500Y341500
X221500Y341500
X231500Y341500
X231500Y21500
X221500Y21500
X211500Y21500
X201500Y21500
X191500Y21500
X181500Y21500
X171500Y21500
X161500Y21500
X151500Y21500
X141500Y21500
T05
X70250Y141500
X70250Y201500
X46000Y245500
X161500Y145250
X211500Y145250
X175500Y245500
T06
X257500Y249000
T07
X324000Y181500
X39000Y181500
M30
