G04 EAGLE Gerber X2 export*
%TF.Part,Single*%
%TF.FileFunction,Other,Solder side*%
%TF.FilePolarity,Positive*%
%TF.GenerationSoftware,Autodesk,EAGLE,8.7.1*%
%TF.CreationDate,2018-05-15T06:21:16Z*%
G75*
%MOMM*%
%FSLAX34Y34*%
%LPD*%
%AMOC8*
5,1,8,0,0,1.08239X$1,22.5*%
G01*
%ADD10C,1.524000*%
%ADD11C,1.600000*%
%ADD12C,1.879600*%
%ADD13C,1.473200*%
%ADD14C,1.524000*%
%ADD15C,0.254000*%
%ADD16C,0.906400*%
%ADD17C,0.406400*%


D10*
X480060Y654050D02*
X495300Y654050D01*
X495300Y628650D02*
X480060Y628650D01*
X480060Y603250D02*
X495300Y603250D01*
D11*
X104775Y551975D03*
X104775Y571975D03*
D12*
X390525Y558800D03*
X390525Y584200D03*
X390525Y609600D03*
X390525Y635000D03*
X390525Y660400D03*
X161925Y555625D03*
X161925Y581025D03*
X161925Y606425D03*
X161925Y631825D03*
X161925Y657225D03*
X161925Y682625D03*
X161925Y708025D03*
X161925Y733425D03*
X161925Y758825D03*
D11*
X98425Y342425D03*
X98425Y362425D03*
D13*
X215900Y149225D03*
X241300Y149225D03*
X266700Y149225D03*
X292100Y149225D03*
X317500Y149225D03*
X342900Y149225D03*
X368300Y149225D03*
X393700Y149225D03*
X419100Y149225D03*
X444500Y149225D03*
X469900Y149225D03*
X495300Y149225D03*
X495300Y301625D03*
X469900Y301625D03*
X444500Y301625D03*
X419100Y301625D03*
X393700Y301625D03*
X368300Y301625D03*
X342900Y301625D03*
X317500Y301625D03*
X292100Y301625D03*
X266700Y301625D03*
X241300Y301625D03*
X190500Y149225D03*
X215900Y301625D03*
X190500Y301625D03*
X165100Y149225D03*
X165100Y301625D03*
X520700Y149225D03*
X520700Y301625D03*
X546100Y149225D03*
X571500Y149225D03*
X596900Y149225D03*
X622300Y149225D03*
X647700Y149225D03*
X673100Y149225D03*
X698500Y149225D03*
X723900Y149225D03*
X749300Y149225D03*
X749300Y301625D03*
X723900Y301625D03*
X698500Y301625D03*
X673100Y301625D03*
X647700Y301625D03*
X622300Y301625D03*
X596900Y301625D03*
X571500Y301625D03*
X546100Y301625D03*
X190500Y276225D03*
X241300Y276225D03*
X266700Y276225D03*
X292100Y276225D03*
D14*
X327025Y444500D03*
X327025Y469900D03*
X327025Y495300D03*
X327025Y520700D03*
X327025Y419100D03*
X327025Y393700D03*
X327025Y368300D03*
X327025Y342900D03*
X393700Y504825D03*
X419100Y504825D03*
X444500Y504825D03*
X469900Y504825D03*
X495300Y504825D03*
X520700Y504825D03*
X546100Y504825D03*
D12*
X355600Y50800D03*
X381000Y50800D03*
X406400Y50800D03*
X431800Y50800D03*
X457200Y50800D03*
X482600Y50800D03*
X508000Y50800D03*
X533400Y50800D03*
X558800Y50800D03*
X584200Y50800D03*
X355600Y863600D03*
X381000Y863600D03*
X406400Y863600D03*
X431800Y863600D03*
X457200Y863600D03*
X482600Y863600D03*
X508000Y863600D03*
X533400Y863600D03*
X558800Y863600D03*
X584200Y863600D03*
D15*
X137160Y604360D02*
X104775Y571975D01*
X137160Y604360D02*
X137160Y695960D01*
D16*
X137160Y695960D03*
X294640Y697230D03*
D17*
X325120Y726440D01*
X325120Y829310D01*
X355600Y859790D01*
X355600Y863600D01*
X304800Y161925D02*
X317500Y149225D01*
X304800Y161925D02*
X304800Y495300D01*
D16*
X304800Y495300D03*
X444500Y480060D03*
D17*
X444500Y504825D01*
X495300Y274320D02*
X495300Y149225D01*
X444500Y447040D02*
X444500Y480060D01*
X482600Y287020D02*
X495300Y274320D01*
X482600Y287020D02*
X482600Y408940D01*
X444500Y447040D01*
D16*
X266700Y469900D03*
D17*
X266700Y632460D01*
D16*
X266700Y632460D03*
D17*
X335280Y701040D01*
X335280Y817880D01*
D16*
X335280Y817880D03*
X419100Y454660D03*
D17*
X419100Y504825D01*
X469900Y276860D02*
X469900Y149225D01*
X469900Y276860D02*
X457200Y289560D01*
X457200Y416560D01*
X419100Y454660D01*
D16*
X200660Y444500D03*
D17*
X200660Y607060D01*
D16*
X200660Y607060D03*
D17*
X495300Y419100D02*
X495300Y301625D01*
X495300Y419100D02*
X495300Y479425D01*
X469900Y504825D01*
D16*
X485140Y419100D03*
D17*
X495300Y419100D01*
D16*
X142240Y419100D03*
D17*
X142240Y657225D01*
X161925Y657225D01*
D16*
X561340Y332740D03*
D17*
X561340Y489585D01*
X165100Y322580D02*
X165100Y301625D01*
D16*
X165100Y322580D03*
X492125Y758825D03*
D17*
X546100Y504825D02*
X561340Y489585D01*
X546100Y504825D02*
X546100Y544830D01*
X487680Y603250D01*
X501650Y603250D01*
X533400Y635000D01*
X533400Y711200D01*
X492125Y752475D01*
X492125Y758825D01*
X279400Y161925D02*
X292100Y149225D01*
X279400Y161925D02*
X279400Y482600D01*
D16*
X279400Y482600D03*
X393700Y482600D03*
D17*
X393700Y504825D01*
D15*
X419100Y88900D02*
X457200Y50800D01*
X419100Y88900D02*
X419100Y149225D01*
X444500Y88900D02*
X482600Y50800D01*
X444500Y88900D02*
X444500Y149225D01*
D17*
X342900Y149225D02*
X330200Y161925D01*
X330200Y322580D01*
X340360Y337820D01*
X340360Y520700D02*
X327025Y520700D01*
X340360Y520700D02*
X340360Y337820D01*
X228600Y161925D02*
X241300Y149225D01*
X228600Y161925D02*
X228600Y556260D01*
D16*
X228600Y556260D03*
D17*
X254000Y161925D02*
X266700Y149225D01*
X254000Y161925D02*
X254000Y581660D01*
D16*
X254000Y581660D03*
X416560Y538480D03*
D17*
X416560Y652780D01*
X417830Y654050D01*
X487680Y654050D01*
X355600Y680720D02*
X355600Y50800D01*
X355600Y680720D02*
X360680Y685800D01*
X368300Y685800D01*
D16*
X368300Y685800D03*
X607060Y812800D03*
D15*
X558800Y812800D01*
X508000Y863600D01*
D16*
X419100Y322580D03*
X594360Y802640D03*
D17*
X518160Y802640D01*
X457200Y863600D01*
X419100Y322580D02*
X419100Y301625D01*
X393700Y301625D02*
X393700Y330200D01*
X378460Y345440D01*
X378460Y515620D01*
X408940Y551180D02*
X408940Y825500D01*
X408940Y551180D02*
X378460Y515620D01*
X408940Y825500D02*
X431800Y848360D01*
X431800Y863600D01*
X368300Y673100D02*
X368300Y301625D01*
X368300Y673100D02*
X378460Y683260D01*
X378460Y807720D01*
X406400Y835660D01*
X406400Y863600D01*
X342900Y330200D02*
X342900Y301625D01*
X342900Y330200D02*
X347980Y335280D01*
X347980Y802640D01*
X381000Y835660D01*
X381000Y863600D01*
M02*
