G75*
%MOIN*%
%OFA0B0*%
%FSLAX25Y25*%
%IPPOS*%
%LPD*%
%AMOC8*
5,1,8,0,0,1.08239X$1,22.5*
%
%ADD10C,0.06500*%
%ADD11C,0.10000*%
%ADD12C,0.07400*%
%ADD13R,0.04750X0.04750*%
%ADD14C,0.01600*%
%ADD15R,0.04356X0.04356*%
%ADD16C,0.01200*%
%ADD17R,0.02978X0.02978*%
D10*
X0091800Y0161800D03*
X0111800Y0161800D03*
D11*
X0134005Y0161800D03*
X0159595Y0161800D03*
D12*
X0021800Y0011800D03*
X0021800Y0021800D03*
X0021800Y0031800D03*
X0021800Y0041800D03*
X0021800Y0051800D03*
X0021800Y0061800D03*
X0021800Y0071800D03*
X0021800Y0081800D03*
X0021800Y0091800D03*
X0021800Y0101800D03*
X0021800Y0111800D03*
X0021800Y0121800D03*
X0021800Y0131800D03*
X0021800Y0141800D03*
X0021800Y0151800D03*
X0121800Y0031800D03*
X0121800Y0021800D03*
X0131800Y0021800D03*
X0131800Y0031800D03*
X0141800Y0031800D03*
X0141800Y0021800D03*
X0231800Y0021800D03*
X0231800Y0031800D03*
X0231800Y0041800D03*
X0231800Y0051800D03*
X0231800Y0061800D03*
X0231800Y0071800D03*
X0231800Y0081800D03*
X0231800Y0091800D03*
X0231800Y0101800D03*
X0231800Y0111800D03*
X0231800Y0121800D03*
X0231800Y0131800D03*
X0231800Y0141800D03*
X0231800Y0151800D03*
X0231800Y0011800D03*
D13*
X0219800Y0031800D03*
X0211800Y0041800D03*
X0175800Y0035800D03*
X0169300Y0053300D03*
X0167333Y0068800D03*
X0160800Y0074800D03*
X0162800Y0099800D03*
X0162800Y0106800D03*
X0163800Y0113800D03*
X0164800Y0122800D03*
X0153800Y0141800D03*
X0141306Y0148306D03*
X0139800Y0118800D03*
X0121800Y0114842D03*
X0113800Y0110800D03*
X0130800Y0084800D03*
X0131800Y0051800D03*
X0146800Y0049800D03*
X0148746Y0036842D03*
X0157800Y0013800D03*
X0103800Y0021800D03*
X0098806Y0009794D03*
X0076800Y0031800D03*
X0074800Y0041800D03*
X0074800Y0051800D03*
X0074800Y0061800D03*
X0093800Y0071800D03*
X0093800Y0080800D03*
X0080800Y0116758D03*
X0056300Y0144300D03*
X0056262Y0159338D03*
X0062800Y0164800D03*
X0070800Y0161800D03*
X0075842Y0151800D03*
X0101800Y0161800D03*
X0103958Y0174629D03*
X0089800Y0188800D03*
X0063800Y0216800D03*
X0088333Y0220833D03*
X0103812Y0242800D03*
X0125800Y0206800D03*
X0125806Y0192806D03*
X0148794Y0197794D03*
X0149800Y0232800D03*
X0204800Y0151800D03*
X0219800Y0141800D03*
X0231800Y0162800D03*
X0194800Y0131800D03*
X0189800Y0121800D03*
X0199758Y0111800D03*
X0095800Y0040800D03*
X0030800Y0141800D03*
X0044800Y0158800D03*
X0026800Y0211842D03*
D14*
X0075842Y0211842D01*
X0084800Y0220800D01*
X0088300Y0220800D01*
X0088333Y0220833D01*
X0096800Y0228800D02*
X0096800Y0240800D01*
X0098800Y0242800D01*
X0103812Y0242800D01*
X0104800Y0242800D01*
X0096800Y0228800D02*
X0096800Y0188800D01*
X0096800Y0180800D01*
X0113800Y0180800D01*
X0125806Y0192806D01*
X0125806Y0194806D01*
X0129800Y0198800D01*
X0129800Y0216285D01*
X0129285Y0216800D01*
X0149800Y0232800D02*
X0149800Y0197800D01*
X0148800Y0197800D01*
X0148794Y0197794D01*
X0125812Y0192800D02*
X0125806Y0192806D01*
X0103958Y0174629D02*
X0022629Y0174629D01*
X0021800Y0173800D01*
X0021800Y0151800D01*
X0021800Y0141800D02*
X0030800Y0141800D01*
X0021800Y0131800D02*
X0013800Y0131800D01*
X0013800Y0216800D01*
X0063800Y0216800D01*
X0089800Y0188800D02*
X0096800Y0188800D01*
X0114800Y0167800D02*
X0065800Y0167800D01*
X0062800Y0164800D01*
X0056262Y0159338D02*
X0055800Y0158875D01*
X0055800Y0158800D01*
X0062800Y0151800D01*
X0075842Y0151800D01*
X0080800Y0153800D02*
X0111800Y0153800D01*
X0111800Y0161800D01*
X0101800Y0161800D01*
X0091800Y0161800D02*
X0070800Y0161800D01*
X0080800Y0153800D02*
X0080800Y0116758D01*
X0089800Y0111800D02*
X0021800Y0111800D01*
X0021800Y0101800D02*
X0093800Y0101800D01*
X0107800Y0115800D01*
X0120842Y0115800D01*
X0121800Y0114842D01*
X0113800Y0110800D02*
X0094800Y0091800D01*
X0021800Y0091800D01*
X0021800Y0081800D02*
X0092800Y0081800D01*
X0093800Y0080800D01*
X0093800Y0071800D02*
X0021800Y0071800D01*
X0021800Y0061800D02*
X0074800Y0061800D01*
X0074800Y0051800D02*
X0021800Y0051800D01*
X0021800Y0041800D02*
X0074800Y0041800D01*
X0076800Y0031800D02*
X0021800Y0031800D01*
X0021800Y0021800D02*
X0076800Y0021800D01*
X0095800Y0040800D01*
X0108800Y0040800D01*
X0119800Y0051800D01*
X0131800Y0051800D01*
X0139800Y0042800D02*
X0145758Y0036842D01*
X0148746Y0036842D01*
X0141800Y0031800D02*
X0163800Y0031800D01*
X0176800Y0044800D01*
X0176800Y0045800D01*
X0169300Y0053300D01*
X0137800Y0084800D01*
X0130800Y0084800D01*
X0160800Y0074800D02*
X0172800Y0074800D01*
X0185800Y0061800D01*
X0231800Y0061800D01*
X0231800Y0071800D02*
X0185800Y0071800D01*
X0162800Y0099800D01*
X0162800Y0106800D02*
X0188800Y0081800D01*
X0231800Y0081800D01*
X0231800Y0091800D02*
X0185800Y0091800D01*
X0163800Y0113800D01*
X0164800Y0122800D02*
X0185800Y0101800D01*
X0231800Y0101800D01*
X0231800Y0111800D02*
X0199758Y0111800D01*
X0189800Y0121800D02*
X0231800Y0121800D01*
X0231800Y0131800D02*
X0194800Y0131800D01*
X0204800Y0151800D02*
X0231800Y0151800D01*
X0231800Y0162800D01*
X0231800Y0141800D02*
X0219800Y0141800D01*
X0159595Y0161800D02*
X0146101Y0148306D01*
X0141306Y0148306D01*
X0140800Y0141800D02*
X0114800Y0167800D01*
X0140800Y0141800D02*
X0153800Y0141800D01*
X0138800Y0119800D02*
X0097800Y0119800D01*
X0089800Y0111800D01*
X0056300Y0144300D02*
X0056300Y0146300D01*
X0044800Y0157800D01*
X0044800Y0158800D01*
X0138800Y0119800D02*
X0139800Y0118800D01*
X0167333Y0068800D02*
X0184333Y0051800D01*
X0231800Y0051800D01*
X0231800Y0041800D02*
X0211800Y0041800D01*
X0219800Y0031800D02*
X0231800Y0031800D01*
X0231800Y0011800D02*
X0163800Y0011800D01*
X0159800Y0007800D01*
X0100800Y0007800D01*
X0098806Y0009794D01*
X0093800Y0011800D02*
X0103800Y0021800D01*
X0121800Y0021800D01*
X0121800Y0031800D02*
X0121800Y0042800D01*
X0139800Y0042800D01*
X0146800Y0049800D01*
X0168800Y0053800D02*
X0169300Y0053300D01*
X0175800Y0035800D02*
X0175800Y0021800D01*
X0141800Y0021800D01*
X0131800Y0021800D02*
X0131800Y0013800D01*
X0157800Y0013800D01*
X0093800Y0011800D02*
X0021800Y0011800D01*
D15*
X0129285Y0216800D03*
D16*
X0125800Y0211800D02*
X0113800Y0223800D01*
X0113800Y0213800D01*
X0113800Y0223800D02*
X0104800Y0223800D01*
X0103210Y0225390D01*
X0102800Y0225390D01*
X0104869Y0228279D02*
X0097321Y0228279D01*
X0096800Y0228800D01*
X0104869Y0228279D02*
X0107348Y0225800D01*
X0109814Y0225800D01*
X0111320Y0227306D01*
X0125800Y0211800D02*
X0125800Y0206800D01*
D17*
X0113800Y0213800D03*
X0111320Y0227306D03*
X0102800Y0225390D03*
M02*
