G75*
%MOIN*%
%OFA0B0*%
%FSLAX25Y25*%
%IPPOS*%
%LPD*%
%AMOC8*
5,1,8,0,0,1.08239X$1,22.5*
%
%ADD10R,0.02000X0.05800*%
%ADD11C,0.06500*%
%ADD12R,0.05118X0.05906*%
%ADD13R,0.06000X0.05000*%
%ADD14R,0.05000X0.06000*%
%ADD15C,0.10000*%
%ADD16R,0.05512X0.04331*%
%ADD17R,0.04331X0.05512*%
%ADD18C,0.07400*%
%ADD19R,0.05906X0.05118*%
%ADD20R,0.04724X0.04724*%
%ADD21R,0.21260X0.24409*%
%ADD22R,0.03937X0.06299*%
%ADD23R,0.04724X0.02756*%
%ADD24R,0.05500X0.01370*%
%ADD25R,0.07874X0.09449*%
%ADD26R,0.01969X0.09087*%
%ADD27C,0.01600*%
%ADD28R,0.04750X0.04750*%
%ADD29R,0.04356X0.04356*%
%ADD30R,0.02978X0.02978*%
%ADD31C,0.01200*%
D10*
G36*
X0108556Y0085526D02*
X0109970Y0084112D01*
X0105870Y0080012D01*
X0104456Y0081426D01*
X0108556Y0085526D01*
G37*
G36*
X0110748Y0083334D02*
X0112162Y0081920D01*
X0108062Y0077820D01*
X0106648Y0079234D01*
X0110748Y0083334D01*
G37*
G36*
X0113011Y0081072D02*
X0114425Y0079658D01*
X0110325Y0075558D01*
X0108911Y0076972D01*
X0113011Y0081072D01*
G37*
G36*
X0115203Y0078880D02*
X0116617Y0077466D01*
X0112517Y0073366D01*
X0111103Y0074780D01*
X0115203Y0078880D01*
G37*
G36*
X0117466Y0076617D02*
X0118880Y0075203D01*
X0114780Y0071103D01*
X0113366Y0072517D01*
X0117466Y0076617D01*
G37*
G36*
X0119658Y0074425D02*
X0121072Y0073011D01*
X0116972Y0068911D01*
X0115558Y0070325D01*
X0119658Y0074425D01*
G37*
G36*
X0121920Y0072162D02*
X0123334Y0070748D01*
X0119234Y0066648D01*
X0117820Y0068062D01*
X0121920Y0072162D01*
G37*
G36*
X0124112Y0069970D02*
X0125526Y0068556D01*
X0121426Y0064456D01*
X0120012Y0065870D01*
X0124112Y0069970D01*
G37*
G36*
X0128073Y0068556D02*
X0129487Y0069970D01*
X0133587Y0065870D01*
X0132173Y0064456D01*
X0128073Y0068556D01*
G37*
G36*
X0130266Y0070748D02*
X0131680Y0072162D01*
X0135780Y0068062D01*
X0134366Y0066648D01*
X0130266Y0070748D01*
G37*
G36*
X0132528Y0073011D02*
X0133942Y0074425D01*
X0138042Y0070325D01*
X0136628Y0068911D01*
X0132528Y0073011D01*
G37*
G36*
X0134720Y0075203D02*
X0136134Y0076617D01*
X0140234Y0072517D01*
X0138820Y0071103D01*
X0134720Y0075203D01*
G37*
G36*
X0136983Y0077466D02*
X0138397Y0078880D01*
X0142497Y0074780D01*
X0141083Y0073366D01*
X0136983Y0077466D01*
G37*
G36*
X0139175Y0079658D02*
X0140589Y0081072D01*
X0144689Y0076972D01*
X0143275Y0075558D01*
X0139175Y0079658D01*
G37*
G36*
X0141438Y0081920D02*
X0142852Y0083334D01*
X0146952Y0079234D01*
X0145538Y0077820D01*
X0141438Y0081920D01*
G37*
G36*
X0143630Y0084112D02*
X0145044Y0085526D01*
X0149144Y0081426D01*
X0147730Y0080012D01*
X0143630Y0084112D01*
G37*
G36*
X0147730Y0093587D02*
X0149144Y0092173D01*
X0145044Y0088073D01*
X0143630Y0089487D01*
X0147730Y0093587D01*
G37*
G36*
X0145538Y0095780D02*
X0146952Y0094366D01*
X0142852Y0090266D01*
X0141438Y0091680D01*
X0145538Y0095780D01*
G37*
G36*
X0143275Y0098042D02*
X0144689Y0096628D01*
X0140589Y0092528D01*
X0139175Y0093942D01*
X0143275Y0098042D01*
G37*
G36*
X0141083Y0100234D02*
X0142497Y0098820D01*
X0138397Y0094720D01*
X0136983Y0096134D01*
X0141083Y0100234D01*
G37*
G36*
X0138820Y0102497D02*
X0140234Y0101083D01*
X0136134Y0096983D01*
X0134720Y0098397D01*
X0138820Y0102497D01*
G37*
G36*
X0136628Y0104689D02*
X0138042Y0103275D01*
X0133942Y0099175D01*
X0132528Y0100589D01*
X0136628Y0104689D01*
G37*
G36*
X0134366Y0106952D02*
X0135780Y0105538D01*
X0131680Y0101438D01*
X0130266Y0102852D01*
X0134366Y0106952D01*
G37*
G36*
X0132173Y0109144D02*
X0133587Y0107730D01*
X0129487Y0103630D01*
X0128073Y0105044D01*
X0132173Y0109144D01*
G37*
G36*
X0120012Y0107730D02*
X0121426Y0109144D01*
X0125526Y0105044D01*
X0124112Y0103630D01*
X0120012Y0107730D01*
G37*
G36*
X0117820Y0105538D02*
X0119234Y0106952D01*
X0123334Y0102852D01*
X0121920Y0101438D01*
X0117820Y0105538D01*
G37*
G36*
X0115558Y0103275D02*
X0116972Y0104689D01*
X0121072Y0100589D01*
X0119658Y0099175D01*
X0115558Y0103275D01*
G37*
G36*
X0113366Y0101083D02*
X0114780Y0102497D01*
X0118880Y0098397D01*
X0117466Y0096983D01*
X0113366Y0101083D01*
G37*
G36*
X0111103Y0098820D02*
X0112517Y0100234D01*
X0116617Y0096134D01*
X0115203Y0094720D01*
X0111103Y0098820D01*
G37*
G36*
X0108911Y0096628D02*
X0110325Y0098042D01*
X0114425Y0093942D01*
X0113011Y0092528D01*
X0108911Y0096628D01*
G37*
G36*
X0106648Y0094366D02*
X0108062Y0095780D01*
X0112162Y0091680D01*
X0110748Y0090266D01*
X0106648Y0094366D01*
G37*
G36*
X0104456Y0092173D02*
X0105870Y0093587D01*
X0109970Y0089487D01*
X0108556Y0088073D01*
X0104456Y0092173D01*
G37*
D11*
X0111800Y0161800D03*
X0091800Y0161800D03*
D12*
G36*
X0087176Y0133599D02*
X0090795Y0129980D01*
X0086620Y0125805D01*
X0083001Y0129424D01*
X0087176Y0133599D01*
G37*
G36*
X0091909Y0128866D02*
X0095528Y0125247D01*
X0091353Y0121072D01*
X0087734Y0124691D01*
X0091909Y0128866D01*
G37*
D13*
X0089800Y0173050D03*
X0089800Y0180550D03*
X0175800Y0207050D03*
X0175800Y0214550D03*
X0206800Y0184550D03*
X0206800Y0177050D03*
D14*
G36*
X0157795Y0049563D02*
X0154259Y0053099D01*
X0158501Y0057341D01*
X0162037Y0053805D01*
X0157795Y0049563D01*
G37*
G36*
X0163099Y0044259D02*
X0159563Y0047795D01*
X0163805Y0052037D01*
X0167341Y0048501D01*
X0163099Y0044259D01*
G37*
G36*
X0092099Y0101259D02*
X0088563Y0104795D01*
X0092805Y0109037D01*
X0096341Y0105501D01*
X0092099Y0101259D01*
G37*
G36*
X0086795Y0106563D02*
X0083259Y0110099D01*
X0087501Y0114341D01*
X0091037Y0110805D01*
X0086795Y0106563D01*
G37*
X0080550Y0216800D03*
X0073050Y0216800D03*
D15*
X0134005Y0161800D03*
X0159595Y0161800D03*
D16*
X0146507Y0134030D03*
X0146507Y0126156D03*
X0191800Y0192863D03*
X0191800Y0200737D03*
X0206800Y0200737D03*
X0206800Y0192863D03*
X0221800Y0192863D03*
X0221800Y0200737D03*
X0186800Y0035737D03*
X0186800Y0027863D03*
D17*
X0045737Y0141800D03*
X0037863Y0141800D03*
X0192863Y0226800D03*
X0200737Y0226800D03*
D18*
X0231800Y0151800D03*
X0231800Y0141800D03*
X0231800Y0131800D03*
X0231800Y0121800D03*
X0231800Y0111800D03*
X0231800Y0101800D03*
X0231800Y0091800D03*
X0231800Y0081800D03*
X0231800Y0071800D03*
X0231800Y0061800D03*
X0231800Y0051800D03*
X0231800Y0041800D03*
X0231800Y0031800D03*
X0231800Y0021800D03*
X0231800Y0011800D03*
X0141800Y0021800D03*
X0141800Y0031800D03*
X0131800Y0031800D03*
X0131800Y0021800D03*
X0121800Y0021800D03*
X0121800Y0031800D03*
X0021800Y0031800D03*
X0021800Y0021800D03*
X0021800Y0011800D03*
X0021800Y0041800D03*
X0021800Y0051800D03*
X0021800Y0061800D03*
X0021800Y0071800D03*
X0021800Y0081800D03*
X0021800Y0091800D03*
X0021800Y0101800D03*
X0021800Y0111800D03*
X0021800Y0121800D03*
X0021800Y0131800D03*
X0021800Y0141800D03*
X0021800Y0151800D03*
D19*
X0164800Y0207454D03*
X0164800Y0214146D03*
X0200000Y0035146D03*
X0200000Y0028454D03*
X0211800Y0028454D03*
X0211800Y0035146D03*
D20*
X0206800Y0207666D03*
X0206800Y0215934D03*
X0221800Y0215934D03*
X0221800Y0207666D03*
X0233800Y0207666D03*
X0233800Y0215934D03*
X0191800Y0215934D03*
X0191800Y0207666D03*
D21*
X0046800Y0196643D03*
D22*
X0037824Y0167902D03*
X0055776Y0167902D03*
D23*
X0165517Y0226800D03*
X0180083Y0226800D03*
D24*
X0136194Y0218434D03*
X0136194Y0215875D03*
X0136194Y0213316D03*
X0136194Y0210757D03*
X0136194Y0208198D03*
X0136194Y0205639D03*
X0136194Y0203080D03*
X0136194Y0200520D03*
X0136194Y0197961D03*
X0136194Y0195402D03*
X0136194Y0192843D03*
X0136194Y0190284D03*
X0136194Y0187725D03*
X0136194Y0185166D03*
X0107406Y0185166D03*
X0107406Y0187725D03*
X0107406Y0190284D03*
X0107406Y0192843D03*
X0107406Y0195402D03*
X0107406Y0197961D03*
X0107406Y0200520D03*
X0107406Y0203080D03*
X0107406Y0205639D03*
X0107406Y0208198D03*
X0107406Y0210757D03*
X0107406Y0213316D03*
X0107406Y0215875D03*
X0107406Y0218434D03*
D25*
X0104477Y0233020D03*
X0104477Y0254674D03*
X0139123Y0254674D03*
X0139123Y0233020D03*
D26*
X0128099Y0230800D03*
X0124950Y0230800D03*
X0121800Y0230800D03*
X0118650Y0230800D03*
X0115501Y0230800D03*
D27*
X0006600Y0258701D02*
X0006600Y0006600D01*
X0020504Y0006600D01*
X0018798Y0007307D01*
X0017307Y0008798D01*
X0016500Y0010746D01*
X0016500Y0012854D01*
X0017307Y0014802D01*
X0018798Y0016293D01*
X0020022Y0016800D01*
X0018798Y0017307D01*
X0017307Y0018798D01*
X0016500Y0020746D01*
X0016500Y0022854D01*
X0017307Y0024802D01*
X0018798Y0026293D01*
X0020022Y0026800D01*
X0018798Y0027307D01*
X0017307Y0028798D01*
X0016500Y0030746D01*
X0016500Y0032854D01*
X0017307Y0034802D01*
X0018798Y0036293D01*
X0020022Y0036800D01*
X0018798Y0037307D01*
X0017307Y0038798D01*
X0016500Y0040746D01*
X0016500Y0042854D01*
X0017307Y0044802D01*
X0018798Y0046293D01*
X0020022Y0046800D01*
X0018798Y0047307D01*
X0017307Y0048798D01*
X0016500Y0050746D01*
X0016500Y0052854D01*
X0017307Y0054802D01*
X0018798Y0056293D01*
X0020022Y0056800D01*
X0018798Y0057307D01*
X0017307Y0058798D01*
X0016500Y0060746D01*
X0016500Y0062854D01*
X0017307Y0064802D01*
X0018798Y0066293D01*
X0020022Y0066800D01*
X0018798Y0067307D01*
X0017307Y0068798D01*
X0016500Y0070746D01*
X0016500Y0072854D01*
X0017307Y0074802D01*
X0018798Y0076293D01*
X0020022Y0076800D01*
X0018798Y0077307D01*
X0017307Y0078798D01*
X0016500Y0080746D01*
X0016500Y0082854D01*
X0017307Y0084802D01*
X0018798Y0086293D01*
X0020022Y0086800D01*
X0018798Y0087307D01*
X0017307Y0088798D01*
X0016500Y0090746D01*
X0016500Y0092854D01*
X0017307Y0094802D01*
X0018798Y0096293D01*
X0020022Y0096800D01*
X0018798Y0097307D01*
X0017307Y0098798D01*
X0016500Y0100746D01*
X0016500Y0102854D01*
X0017307Y0104802D01*
X0018798Y0106293D01*
X0020022Y0106800D01*
X0018798Y0107307D01*
X0017307Y0108798D01*
X0016500Y0110746D01*
X0016500Y0112854D01*
X0017307Y0114802D01*
X0018798Y0116293D01*
X0019744Y0116685D01*
X0019689Y0116703D01*
X0018917Y0117096D01*
X0018217Y0117605D01*
X0017605Y0118217D01*
X0017096Y0118917D01*
X0016703Y0119689D01*
X0016435Y0120512D01*
X0016300Y0121367D01*
X0016300Y0121600D01*
X0021600Y0121600D01*
X0021600Y0122000D01*
X0016300Y0122000D01*
X0016300Y0122233D01*
X0016435Y0123088D01*
X0016703Y0123911D01*
X0017096Y0124683D01*
X0017605Y0125383D01*
X0018217Y0125995D01*
X0018917Y0126504D01*
X0019689Y0126897D01*
X0019744Y0126915D01*
X0018798Y0127307D01*
X0017307Y0128798D01*
X0016500Y0130746D01*
X0016500Y0132854D01*
X0017307Y0134802D01*
X0018798Y0136293D01*
X0020022Y0136800D01*
X0018798Y0137307D01*
X0017307Y0138798D01*
X0016500Y0140746D01*
X0016500Y0142854D01*
X0017307Y0144802D01*
X0018798Y0146293D01*
X0020022Y0146800D01*
X0018798Y0147307D01*
X0017307Y0148798D01*
X0016500Y0150746D01*
X0016500Y0152854D01*
X0017307Y0154802D01*
X0018798Y0156293D01*
X0020746Y0157100D01*
X0022854Y0157100D01*
X0024802Y0156293D01*
X0026293Y0154802D01*
X0027100Y0152854D01*
X0027100Y0150746D01*
X0026293Y0148798D01*
X0024802Y0147307D01*
X0023578Y0146800D01*
X0024802Y0146293D01*
X0026293Y0144802D01*
X0026825Y0143518D01*
X0026825Y0144838D01*
X0027762Y0145775D01*
X0033838Y0145775D01*
X0034246Y0145367D01*
X0035035Y0146156D01*
X0035463Y0146156D01*
X0035463Y0154743D01*
X0017441Y0172765D01*
X0016765Y0173441D01*
X0016400Y0174323D01*
X0016400Y0213277D01*
X0016765Y0214159D01*
X0017441Y0214835D01*
X0018323Y0215200D01*
X0023146Y0215200D01*
X0023762Y0215816D01*
X0029838Y0215816D01*
X0030775Y0214879D01*
X0030775Y0208804D01*
X0029838Y0207867D01*
X0023762Y0207867D01*
X0022825Y0208804D01*
X0022825Y0210400D01*
X0021200Y0210400D01*
X0021200Y0175794D01*
X0039898Y0157096D01*
X0040263Y0156214D01*
X0040263Y0146156D01*
X0040691Y0146156D01*
X0041628Y0145219D01*
X0041628Y0138381D01*
X0040691Y0137444D01*
X0035035Y0137444D01*
X0034246Y0138233D01*
X0033838Y0137825D01*
X0027762Y0137825D01*
X0026825Y0138762D01*
X0026825Y0140082D01*
X0026293Y0138798D01*
X0024802Y0137307D01*
X0023578Y0136800D01*
X0024802Y0136293D01*
X0026293Y0134802D01*
X0027100Y0132854D01*
X0027100Y0130746D01*
X0026293Y0128798D01*
X0024802Y0127307D01*
X0023856Y0126915D01*
X0023911Y0126897D01*
X0024683Y0126504D01*
X0025383Y0125995D01*
X0025995Y0125383D01*
X0026504Y0124683D01*
X0026897Y0123911D01*
X0027165Y0123088D01*
X0027300Y0122233D01*
X0027300Y0122000D01*
X0022000Y0122000D01*
X0022000Y0121600D01*
X0027300Y0121600D01*
X0027300Y0121367D01*
X0027165Y0120512D01*
X0026897Y0119689D01*
X0026504Y0118917D01*
X0025995Y0118217D01*
X0025383Y0117605D01*
X0024683Y0117096D01*
X0023911Y0116703D01*
X0023856Y0116685D01*
X0024802Y0116293D01*
X0026293Y0114802D01*
X0027100Y0112854D01*
X0027100Y0110746D01*
X0026293Y0108798D01*
X0024802Y0107307D01*
X0023578Y0106800D01*
X0024802Y0106293D01*
X0026293Y0104802D01*
X0027100Y0102854D01*
X0027100Y0100746D01*
X0026293Y0098798D01*
X0024802Y0097307D01*
X0023578Y0096800D01*
X0024802Y0096293D01*
X0026293Y0094802D01*
X0027100Y0092854D01*
X0027100Y0090746D01*
X0026293Y0088798D01*
X0024802Y0087307D01*
X0023578Y0086800D01*
X0024802Y0086293D01*
X0026293Y0084802D01*
X0027100Y0082854D01*
X0027100Y0080746D01*
X0026293Y0078798D01*
X0024802Y0077307D01*
X0023578Y0076800D01*
X0024802Y0076293D01*
X0026293Y0074802D01*
X0027100Y0072854D01*
X0027100Y0070746D01*
X0026293Y0068798D01*
X0024802Y0067307D01*
X0023578Y0066800D01*
X0024802Y0066293D01*
X0026293Y0064802D01*
X0027100Y0062854D01*
X0027100Y0060746D01*
X0026293Y0058798D01*
X0024802Y0057307D01*
X0023578Y0056800D01*
X0024802Y0056293D01*
X0026293Y0054802D01*
X0027100Y0052854D01*
X0027100Y0050746D01*
X0026293Y0048798D01*
X0024802Y0047307D01*
X0023578Y0046800D01*
X0024802Y0046293D01*
X0026293Y0044802D01*
X0027100Y0042854D01*
X0027100Y0040746D01*
X0026293Y0038798D01*
X0024802Y0037307D01*
X0023578Y0036800D01*
X0024802Y0036293D01*
X0026293Y0034802D01*
X0027100Y0032854D01*
X0027100Y0030746D01*
X0026293Y0028798D01*
X0024802Y0027307D01*
X0023578Y0026800D01*
X0024802Y0026293D01*
X0026293Y0024802D01*
X0027100Y0022854D01*
X0027100Y0020746D01*
X0026293Y0018798D01*
X0024802Y0017307D01*
X0023578Y0016800D01*
X0024802Y0016293D01*
X0026293Y0014802D01*
X0027100Y0012854D01*
X0027100Y0010746D01*
X0026293Y0008798D01*
X0024802Y0007307D01*
X0023096Y0006600D01*
X0094988Y0006600D01*
X0094831Y0006756D01*
X0094831Y0007394D01*
X0077329Y0007394D01*
X0076447Y0007759D01*
X0060441Y0023765D01*
X0059765Y0024441D01*
X0059400Y0025323D01*
X0059400Y0137806D01*
X0056881Y0140325D01*
X0053262Y0140325D01*
X0052325Y0141262D01*
X0052325Y0144994D01*
X0049502Y0142171D01*
X0049502Y0138381D01*
X0048565Y0137444D01*
X0042909Y0137444D01*
X0041972Y0138381D01*
X0041972Y0145219D01*
X0042909Y0146156D01*
X0046699Y0146156D01*
X0055906Y0155363D01*
X0053225Y0155363D01*
X0052288Y0156300D01*
X0052288Y0162375D01*
X0053105Y0163193D01*
X0052208Y0164090D01*
X0052208Y0171715D01*
X0053145Y0172652D01*
X0053376Y0172652D01*
X0053376Y0179254D01*
X0053742Y0180136D01*
X0056244Y0182638D01*
X0047600Y0182638D01*
X0047600Y0195842D01*
X0046000Y0195842D01*
X0046000Y0182638D01*
X0035933Y0182638D01*
X0035475Y0182760D01*
X0035065Y0182997D01*
X0034730Y0183333D01*
X0034493Y0183743D01*
X0034370Y0184201D01*
X0034370Y0195843D01*
X0046000Y0195843D01*
X0046000Y0197442D01*
X0034370Y0197442D01*
X0034370Y0209084D01*
X0034493Y0209542D01*
X0034730Y0209952D01*
X0035065Y0210288D01*
X0035475Y0210525D01*
X0035933Y0210647D01*
X0046000Y0210647D01*
X0046000Y0197443D01*
X0047600Y0197443D01*
X0047600Y0210647D01*
X0054559Y0210647D01*
X0053441Y0211765D01*
X0053441Y0211765D01*
X0052765Y0212441D01*
X0052400Y0213323D01*
X0052400Y0227277D01*
X0052765Y0228159D01*
X0053441Y0228835D01*
X0054323Y0229200D01*
X0092277Y0229200D01*
X0093159Y0228835D01*
X0094204Y0227790D01*
X0098940Y0227790D01*
X0098940Y0238408D01*
X0099877Y0239345D01*
X0107270Y0239345D01*
X0106370Y0241517D01*
X0106370Y0244209D01*
X0107401Y0246697D01*
X0109053Y0248350D01*
X0099877Y0248350D01*
X0098940Y0249287D01*
X0098940Y0258701D01*
X0006600Y0258701D01*
X0006600Y0257442D02*
X0098940Y0257442D01*
X0098940Y0255843D02*
X0006600Y0255843D01*
X0006600Y0254245D02*
X0098940Y0254245D01*
X0098940Y0252646D02*
X0006600Y0252646D01*
X0006600Y0251048D02*
X0098940Y0251048D01*
X0098940Y0249449D02*
X0006600Y0249449D01*
X0006600Y0247851D02*
X0108554Y0247851D01*
X0107216Y0246252D02*
X0006600Y0246252D01*
X0006600Y0244654D02*
X0106554Y0244654D01*
X0106370Y0243055D02*
X0006600Y0243055D01*
X0006600Y0241457D02*
X0106395Y0241457D01*
X0107057Y0239858D02*
X0006600Y0239858D01*
X0006600Y0238260D02*
X0098940Y0238260D01*
X0098940Y0236661D02*
X0006600Y0236661D01*
X0006600Y0235063D02*
X0098940Y0235063D01*
X0098940Y0233464D02*
X0006600Y0233464D01*
X0006600Y0231866D02*
X0098940Y0231866D01*
X0098940Y0230267D02*
X0006600Y0230267D01*
X0006600Y0228669D02*
X0053275Y0228669D01*
X0052400Y0227070D02*
X0006600Y0227070D01*
X0006600Y0225472D02*
X0052400Y0225472D01*
X0052400Y0223873D02*
X0006600Y0223873D01*
X0006600Y0222275D02*
X0052400Y0222275D01*
X0052400Y0220676D02*
X0006600Y0220676D01*
X0006600Y0219078D02*
X0052400Y0219078D01*
X0052400Y0217479D02*
X0006600Y0217479D01*
X0006600Y0215881D02*
X0052400Y0215881D01*
X0052400Y0214282D02*
X0030775Y0214282D01*
X0030775Y0212684D02*
X0052665Y0212684D01*
X0054121Y0211085D02*
X0030775Y0211085D01*
X0030775Y0209486D02*
X0034478Y0209486D01*
X0034370Y0207888D02*
X0029859Y0207888D01*
X0026800Y0211842D02*
X0025842Y0212800D01*
X0018800Y0212800D01*
X0018800Y0174800D01*
X0037863Y0155737D01*
X0037863Y0141800D01*
X0030800Y0141800D01*
X0034066Y0145546D02*
X0034425Y0145546D01*
X0035463Y0147145D02*
X0024410Y0147145D01*
X0025549Y0145546D02*
X0027534Y0145546D01*
X0026825Y0143948D02*
X0026647Y0143948D01*
X0026238Y0148743D02*
X0035463Y0148743D01*
X0035463Y0150342D02*
X0026933Y0150342D01*
X0027100Y0151940D02*
X0035463Y0151940D01*
X0035463Y0153539D02*
X0026817Y0153539D01*
X0025958Y0155137D02*
X0035069Y0155137D01*
X0033470Y0156736D02*
X0023734Y0156736D01*
X0019866Y0156736D02*
X0006600Y0156736D01*
X0006600Y0158334D02*
X0031872Y0158334D01*
X0030273Y0159933D02*
X0006600Y0159933D01*
X0006600Y0161531D02*
X0028675Y0161531D01*
X0027076Y0163130D02*
X0006600Y0163130D01*
X0006600Y0164728D02*
X0025478Y0164728D01*
X0023879Y0166327D02*
X0006600Y0166327D01*
X0006600Y0167925D02*
X0022281Y0167925D01*
X0020682Y0169524D02*
X0006600Y0169524D01*
X0006600Y0171122D02*
X0019084Y0171122D01*
X0017485Y0172721D02*
X0006600Y0172721D01*
X0006600Y0174319D02*
X0016401Y0174319D01*
X0016400Y0175918D02*
X0006600Y0175918D01*
X0006600Y0177516D02*
X0016400Y0177516D01*
X0016400Y0179115D02*
X0006600Y0179115D01*
X0006600Y0180713D02*
X0016400Y0180713D01*
X0016400Y0182312D02*
X0006600Y0182312D01*
X0006600Y0183910D02*
X0016400Y0183910D01*
X0016400Y0185509D02*
X0006600Y0185509D01*
X0006600Y0187107D02*
X0016400Y0187107D01*
X0016400Y0188706D02*
X0006600Y0188706D01*
X0006600Y0190304D02*
X0016400Y0190304D01*
X0016400Y0191903D02*
X0006600Y0191903D01*
X0006600Y0193501D02*
X0016400Y0193501D01*
X0016400Y0195100D02*
X0006600Y0195100D01*
X0006600Y0196698D02*
X0016400Y0196698D01*
X0016400Y0198297D02*
X0006600Y0198297D01*
X0006600Y0199895D02*
X0016400Y0199895D01*
X0016400Y0201494D02*
X0006600Y0201494D01*
X0006600Y0203092D02*
X0016400Y0203092D01*
X0016400Y0204691D02*
X0006600Y0204691D01*
X0006600Y0206289D02*
X0016400Y0206289D01*
X0016400Y0207888D02*
X0006600Y0207888D01*
X0006600Y0209486D02*
X0016400Y0209486D01*
X0016400Y0211085D02*
X0006600Y0211085D01*
X0006600Y0212684D02*
X0016400Y0212684D01*
X0016888Y0214282D02*
X0006600Y0214282D01*
X0021200Y0209486D02*
X0022825Y0209486D01*
X0023741Y0207888D02*
X0021200Y0207888D01*
X0021200Y0206289D02*
X0034370Y0206289D01*
X0034370Y0204691D02*
X0021200Y0204691D01*
X0021200Y0203092D02*
X0034370Y0203092D01*
X0034370Y0201494D02*
X0021200Y0201494D01*
X0021200Y0199895D02*
X0034370Y0199895D01*
X0034370Y0198297D02*
X0021200Y0198297D01*
X0021200Y0196698D02*
X0046000Y0196698D01*
X0046000Y0195100D02*
X0047600Y0195100D01*
X0047600Y0195843D02*
X0047600Y0197442D01*
X0059230Y0197442D01*
X0059230Y0205976D01*
X0061400Y0203806D01*
X0061400Y0187794D01*
X0059230Y0185624D01*
X0059230Y0195843D01*
X0047600Y0195843D01*
X0047600Y0196698D02*
X0061400Y0196698D01*
X0061400Y0195100D02*
X0059230Y0195100D01*
X0059230Y0193501D02*
X0061400Y0193501D01*
X0061400Y0191903D02*
X0059230Y0191903D01*
X0059230Y0190304D02*
X0061400Y0190304D01*
X0061400Y0188706D02*
X0059230Y0188706D01*
X0059230Y0187107D02*
X0060713Y0187107D01*
X0063800Y0186800D02*
X0063800Y0204800D01*
X0054800Y0213800D01*
X0054800Y0226800D01*
X0091800Y0226800D01*
X0093210Y0225390D01*
X0102800Y0225390D01*
X0105889Y0225472D02*
X0112891Y0225472D01*
X0112839Y0225562D02*
X0113076Y0225151D01*
X0113411Y0224816D01*
X0113822Y0224579D01*
X0114280Y0224457D01*
X0115501Y0224457D01*
X0116722Y0224457D01*
X0117180Y0224579D01*
X0117314Y0224657D01*
X0119400Y0224657D01*
X0119400Y0223794D01*
X0115765Y0220159D01*
X0115400Y0219277D01*
X0115400Y0218323D01*
X0115400Y0216889D01*
X0111756Y0216889D01*
X0111756Y0219782D01*
X0110819Y0220719D01*
X0103994Y0220719D01*
X0103909Y0220634D01*
X0097077Y0220634D01*
X0095967Y0221745D01*
X0094721Y0222990D01*
X0099959Y0222990D01*
X0100648Y0222301D01*
X0104952Y0222301D01*
X0105889Y0223239D01*
X0105889Y0226696D01*
X0109077Y0226696D01*
X0110014Y0227633D01*
X0110014Y0236831D01*
X0111792Y0236094D01*
X0112872Y0236094D01*
X0112839Y0236038D01*
X0112717Y0235580D01*
X0112717Y0230800D01*
X0112717Y0226020D01*
X0112839Y0225562D01*
X0112717Y0227070D02*
X0109451Y0227070D01*
X0110014Y0228669D02*
X0112717Y0228669D01*
X0112717Y0230267D02*
X0110014Y0230267D01*
X0110014Y0231866D02*
X0112717Y0231866D01*
X0112717Y0230800D02*
X0115501Y0230800D01*
X0115501Y0224457D01*
X0115501Y0230800D01*
X0115501Y0230800D01*
X0112717Y0230800D01*
X0112717Y0233464D02*
X0110014Y0233464D01*
X0110014Y0235063D02*
X0112717Y0235063D01*
X0110424Y0236661D02*
X0110014Y0236661D01*
X0115501Y0230800D02*
X0115501Y0230800D01*
X0115501Y0230267D02*
X0115501Y0230267D01*
X0115501Y0228669D02*
X0115501Y0228669D01*
X0115501Y0227070D02*
X0115501Y0227070D01*
X0115501Y0225472D02*
X0115501Y0225472D01*
X0117880Y0222275D02*
X0095437Y0222275D01*
X0095967Y0221745D02*
X0095967Y0221745D01*
X0097035Y0220676D02*
X0103951Y0220676D01*
X0105889Y0223873D02*
X0119400Y0223873D01*
X0121800Y0222800D02*
X0121800Y0230800D01*
X0124800Y0230650D02*
X0124950Y0230800D01*
X0124800Y0230650D02*
X0124800Y0220800D01*
X0120800Y0216800D01*
X0120800Y0190800D01*
X0123875Y0187725D01*
X0136194Y0187725D01*
X0136194Y0185166D02*
X0122434Y0185166D01*
X0117800Y0189800D01*
X0117800Y0218800D01*
X0121800Y0222800D01*
X0127200Y0222275D02*
X0162400Y0222275D01*
X0162400Y0223873D02*
X0127200Y0223873D01*
X0127200Y0224657D02*
X0129746Y0224657D01*
X0130297Y0225208D01*
X0130844Y0224661D01*
X0131726Y0224296D01*
X0144200Y0224296D01*
X0144451Y0224400D01*
X0161914Y0224400D01*
X0162400Y0223914D01*
X0162400Y0218305D01*
X0161184Y0218305D01*
X0160247Y0217368D01*
X0160247Y0210925D01*
X0160278Y0210894D01*
X0160170Y0210707D01*
X0160047Y0210250D01*
X0160047Y0207933D01*
X0164320Y0207933D01*
X0164320Y0206974D01*
X0160047Y0206974D01*
X0160047Y0204658D01*
X0160170Y0204200D01*
X0160407Y0203789D01*
X0160742Y0203454D01*
X0161152Y0203217D01*
X0161610Y0203094D01*
X0164320Y0203094D01*
X0164320Y0206974D01*
X0165280Y0206974D01*
X0165280Y0207933D01*
X0169553Y0207933D01*
X0169553Y0210250D01*
X0169430Y0210707D01*
X0169322Y0210894D01*
X0169353Y0210925D01*
X0169353Y0212150D01*
X0171200Y0212150D01*
X0171200Y0211387D01*
X0171646Y0210941D01*
X0171360Y0210655D01*
X0171123Y0210245D01*
X0171000Y0209787D01*
X0171000Y0207500D01*
X0175350Y0207500D01*
X0175350Y0206600D01*
X0176250Y0206600D01*
X0176250Y0207500D01*
X0180600Y0207500D01*
X0180600Y0209787D01*
X0180477Y0210245D01*
X0180240Y0210655D01*
X0179954Y0210941D01*
X0180400Y0211387D01*
X0180400Y0217713D01*
X0179463Y0218650D01*
X0172137Y0218650D01*
X0171200Y0217713D01*
X0171200Y0216950D01*
X0169353Y0216950D01*
X0169353Y0217368D01*
X0168415Y0218305D01*
X0167200Y0218305D01*
X0167200Y0223822D01*
X0168541Y0223822D01*
X0169479Y0224759D01*
X0169479Y0228841D01*
X0168541Y0229778D01*
X0162492Y0229778D01*
X0161914Y0229200D01*
X0153212Y0229200D01*
X0153775Y0229762D01*
X0153775Y0230400D01*
X0174806Y0230400D01*
X0176243Y0228963D01*
X0176121Y0228841D01*
X0176121Y0224759D01*
X0177059Y0223822D01*
X0183108Y0223822D01*
X0183686Y0224400D01*
X0189098Y0224400D01*
X0189098Y0223381D01*
X0189400Y0223079D01*
X0189400Y0219896D01*
X0188775Y0219896D01*
X0187838Y0218959D01*
X0187838Y0212909D01*
X0188775Y0211972D01*
X0194825Y0211972D01*
X0195762Y0212909D01*
X0195762Y0213534D01*
X0202838Y0213534D01*
X0202838Y0212909D01*
X0203775Y0211972D01*
X0209825Y0211972D01*
X0210762Y0212909D01*
X0210762Y0218959D01*
X0209825Y0219896D01*
X0203775Y0219896D01*
X0202838Y0218959D01*
X0202838Y0218334D01*
X0195762Y0218334D01*
X0195762Y0218959D01*
X0194825Y0219896D01*
X0194200Y0219896D01*
X0194200Y0222444D01*
X0195691Y0222444D01*
X0196628Y0223381D01*
X0196628Y0230219D01*
X0195691Y0231156D01*
X0190035Y0231156D01*
X0189098Y0230219D01*
X0189098Y0229200D01*
X0183686Y0229200D01*
X0183108Y0229778D01*
X0182159Y0229778D01*
X0182118Y0229876D01*
X0177835Y0234159D01*
X0177159Y0234835D01*
X0176277Y0235200D01*
X0153775Y0235200D01*
X0153775Y0235838D01*
X0152838Y0236775D01*
X0146762Y0236775D01*
X0145825Y0235838D01*
X0145825Y0229762D01*
X0146388Y0229200D01*
X0144660Y0229200D01*
X0144660Y0238408D01*
X0143723Y0239345D01*
X0136330Y0239345D01*
X0137230Y0241517D01*
X0137230Y0244209D01*
X0136199Y0246697D01*
X0134547Y0248350D01*
X0143723Y0248350D01*
X0144660Y0249287D01*
X0144660Y0258701D01*
X0244921Y0258701D01*
X0244921Y0006600D01*
X0233096Y0006600D01*
X0234802Y0007307D01*
X0236293Y0008798D01*
X0237100Y0010746D01*
X0237100Y0012854D01*
X0236293Y0014802D01*
X0234802Y0016293D01*
X0233856Y0016685D01*
X0233911Y0016703D01*
X0234683Y0017096D01*
X0235383Y0017605D01*
X0235995Y0018217D01*
X0236504Y0018917D01*
X0236897Y0019689D01*
X0237165Y0020512D01*
X0237300Y0021367D01*
X0237300Y0021600D01*
X0232000Y0021600D01*
X0232000Y0022000D01*
X0237300Y0022000D01*
X0237300Y0022233D01*
X0237165Y0023088D01*
X0236897Y0023911D01*
X0236504Y0024683D01*
X0235995Y0025383D01*
X0235383Y0025995D01*
X0234683Y0026504D01*
X0233911Y0026897D01*
X0233856Y0026915D01*
X0234802Y0027307D01*
X0236293Y0028798D01*
X0237100Y0030746D01*
X0237100Y0032854D01*
X0236293Y0034802D01*
X0234802Y0036293D01*
X0233578Y0036800D01*
X0234802Y0037307D01*
X0236293Y0038798D01*
X0237100Y0040746D01*
X0237100Y0042854D01*
X0236293Y0044802D01*
X0234802Y0046293D01*
X0233578Y0046800D01*
X0234802Y0047307D01*
X0236293Y0048798D01*
X0237100Y0050746D01*
X0237100Y0052854D01*
X0236293Y0054802D01*
X0234802Y0056293D01*
X0233578Y0056800D01*
X0234802Y0057307D01*
X0236293Y0058798D01*
X0237100Y0060746D01*
X0237100Y0062854D01*
X0236293Y0064802D01*
X0234802Y0066293D01*
X0233578Y0066800D01*
X0234802Y0067307D01*
X0236293Y0068798D01*
X0237100Y0070746D01*
X0237100Y0072854D01*
X0236293Y0074802D01*
X0234802Y0076293D01*
X0233578Y0076800D01*
X0234802Y0077307D01*
X0236293Y0078798D01*
X0237100Y0080746D01*
X0237100Y0082854D01*
X0236293Y0084802D01*
X0234802Y0086293D01*
X0233578Y0086800D01*
X0234802Y0087307D01*
X0236293Y0088798D01*
X0237100Y0090746D01*
X0237100Y0092854D01*
X0236293Y0094802D01*
X0234802Y0096293D01*
X0233578Y0096800D01*
X0234802Y0097307D01*
X0236293Y0098798D01*
X0237100Y0100746D01*
X0237100Y0102854D01*
X0236293Y0104802D01*
X0234802Y0106293D01*
X0233578Y0106800D01*
X0234802Y0107307D01*
X0236293Y0108798D01*
X0237100Y0110746D01*
X0237100Y0112854D01*
X0236293Y0114802D01*
X0234802Y0116293D01*
X0233578Y0116800D01*
X0234802Y0117307D01*
X0236293Y0118798D01*
X0237100Y0120746D01*
X0237100Y0122854D01*
X0236293Y0124802D01*
X0234802Y0126293D01*
X0233578Y0126800D01*
X0234802Y0127307D01*
X0236293Y0128798D01*
X0237100Y0130746D01*
X0237100Y0132854D01*
X0236293Y0134802D01*
X0234802Y0136293D01*
X0233578Y0136800D01*
X0234802Y0137307D01*
X0236293Y0138798D01*
X0237100Y0140746D01*
X0237100Y0142854D01*
X0236293Y0144802D01*
X0234802Y0146293D01*
X0233578Y0146800D01*
X0234802Y0147307D01*
X0236293Y0148798D01*
X0237100Y0150746D01*
X0237100Y0152854D01*
X0236293Y0154802D01*
X0234802Y0156293D01*
X0232854Y0157100D01*
X0230746Y0157100D01*
X0228798Y0156293D01*
X0227307Y0154802D01*
X0226500Y0152854D01*
X0226500Y0150746D01*
X0227307Y0148798D01*
X0228798Y0147307D01*
X0230022Y0146800D01*
X0228798Y0146293D01*
X0227307Y0144802D01*
X0226500Y0142854D01*
X0226500Y0140746D01*
X0227307Y0138798D01*
X0228798Y0137307D01*
X0230022Y0136800D01*
X0228798Y0136293D01*
X0227307Y0134802D01*
X0226500Y0132854D01*
X0226500Y0130746D01*
X0227307Y0128798D01*
X0228798Y0127307D01*
X0230022Y0126800D01*
X0228798Y0126293D01*
X0227307Y0124802D01*
X0226500Y0122854D01*
X0226500Y0120746D01*
X0227307Y0118798D01*
X0228798Y0117307D01*
X0230022Y0116800D01*
X0228798Y0116293D01*
X0227307Y0114802D01*
X0226500Y0112854D01*
X0226500Y0110746D01*
X0227307Y0108798D01*
X0228798Y0107307D01*
X0230022Y0106800D01*
X0228798Y0106293D01*
X0227307Y0104802D01*
X0226500Y0102854D01*
X0226500Y0100746D01*
X0227307Y0098798D01*
X0228798Y0097307D01*
X0230022Y0096800D01*
X0228798Y0096293D01*
X0227307Y0094802D01*
X0226500Y0092854D01*
X0226500Y0090746D01*
X0227307Y0088798D01*
X0228798Y0087307D01*
X0230022Y0086800D01*
X0228798Y0086293D01*
X0227307Y0084802D01*
X0226500Y0082854D01*
X0226500Y0080746D01*
X0227307Y0078798D01*
X0228798Y0077307D01*
X0230022Y0076800D01*
X0228798Y0076293D01*
X0227307Y0074802D01*
X0226500Y0072854D01*
X0226500Y0070746D01*
X0227307Y0068798D01*
X0228798Y0067307D01*
X0230022Y0066800D01*
X0228798Y0066293D01*
X0227307Y0064802D01*
X0226500Y0062854D01*
X0226500Y0060746D01*
X0227307Y0058798D01*
X0228798Y0057307D01*
X0230022Y0056800D01*
X0228798Y0056293D01*
X0227307Y0054802D01*
X0226500Y0052854D01*
X0226500Y0050746D01*
X0227307Y0048798D01*
X0228798Y0047307D01*
X0230022Y0046800D01*
X0228798Y0046293D01*
X0227307Y0044802D01*
X0226500Y0042854D01*
X0226500Y0040746D01*
X0227307Y0038798D01*
X0228798Y0037307D01*
X0230022Y0036800D01*
X0228798Y0036293D01*
X0227307Y0034802D01*
X0226500Y0032854D01*
X0226500Y0030746D01*
X0227307Y0028798D01*
X0228798Y0027307D01*
X0229744Y0026915D01*
X0229689Y0026897D01*
X0228917Y0026504D01*
X0228217Y0025995D01*
X0227605Y0025383D01*
X0227096Y0024683D01*
X0226703Y0023911D01*
X0226435Y0023088D01*
X0226300Y0022233D01*
X0226300Y0022000D01*
X0231600Y0022000D01*
X0231600Y0021600D01*
X0226300Y0021600D01*
X0226300Y0021367D01*
X0226435Y0020512D01*
X0226703Y0019689D01*
X0227096Y0018917D01*
X0227605Y0018217D01*
X0228217Y0017605D01*
X0228917Y0017096D01*
X0229689Y0016703D01*
X0229744Y0016685D01*
X0228798Y0016293D01*
X0227307Y0014802D01*
X0226500Y0012854D01*
X0226500Y0010746D01*
X0227307Y0008798D01*
X0228798Y0007307D01*
X0230504Y0006600D01*
X0175760Y0006600D01*
X0176159Y0006765D01*
X0176835Y0007441D01*
X0188835Y0019441D01*
X0189200Y0020323D01*
X0189200Y0024098D01*
X0190219Y0024098D01*
X0191156Y0025035D01*
X0191156Y0025463D01*
X0193157Y0025463D01*
X0194039Y0025828D01*
X0194715Y0026503D01*
X0195080Y0027386D01*
X0195080Y0032760D01*
X0195447Y0032760D01*
X0195447Y0031925D01*
X0195478Y0031894D01*
X0195370Y0031707D01*
X0195247Y0031250D01*
X0195247Y0028933D01*
X0199520Y0028933D01*
X0199520Y0027974D01*
X0195247Y0027974D01*
X0195247Y0025658D01*
X0193627Y0025658D01*
X0195247Y0025658D02*
X0195370Y0025200D01*
X0195607Y0024789D01*
X0195942Y0024454D01*
X0196352Y0024217D01*
X0196810Y0024094D01*
X0199520Y0024094D01*
X0199520Y0027974D01*
X0200480Y0027974D01*
X0200480Y0028933D01*
X0204753Y0028933D01*
X0204753Y0031250D01*
X0204630Y0031707D01*
X0204522Y0031894D01*
X0204553Y0031925D01*
X0204553Y0032746D01*
X0207247Y0032746D01*
X0207247Y0031925D01*
X0207278Y0031894D01*
X0207170Y0031707D01*
X0207047Y0031250D01*
X0207047Y0028933D01*
X0211320Y0028933D01*
X0211320Y0027974D01*
X0207047Y0027974D01*
X0207047Y0025658D01*
X0204753Y0025658D01*
X0204753Y0027974D01*
X0200480Y0027974D01*
X0200480Y0024094D01*
X0203190Y0024094D01*
X0203648Y0024217D01*
X0204058Y0024454D01*
X0204393Y0024789D01*
X0204630Y0025200D01*
X0204753Y0025658D01*
X0204753Y0027256D02*
X0207047Y0027256D01*
X0207047Y0025658D02*
X0207170Y0025200D01*
X0207407Y0024789D01*
X0207742Y0024454D01*
X0208152Y0024217D01*
X0208610Y0024094D01*
X0211320Y0024094D01*
X0211320Y0027974D01*
X0212280Y0027974D01*
X0212280Y0028933D01*
X0215825Y0028933D01*
X0215825Y0028762D01*
X0216762Y0027825D01*
X0222838Y0027825D01*
X0223775Y0028762D01*
X0223775Y0034838D01*
X0222838Y0035775D01*
X0222200Y0035775D01*
X0222200Y0048277D01*
X0221835Y0049159D01*
X0221159Y0049835D01*
X0220277Y0050200D01*
X0211200Y0050200D01*
X0211200Y0156277D01*
X0210835Y0157159D01*
X0210159Y0157835D01*
X0209277Y0158200D01*
X0165248Y0158200D01*
X0166195Y0160487D01*
X0166195Y0163113D01*
X0165190Y0165539D01*
X0163334Y0167395D01*
X0160908Y0168400D01*
X0158282Y0168400D01*
X0155857Y0167395D01*
X0154000Y0165539D01*
X0152995Y0163113D01*
X0152995Y0160487D01*
X0154000Y0158061D01*
X0155857Y0156205D01*
X0157195Y0155650D01*
X0157195Y0155189D01*
X0157167Y0155106D01*
X0157195Y0154715D01*
X0157195Y0145417D01*
X0156838Y0145775D01*
X0150762Y0145775D01*
X0149825Y0144838D01*
X0149825Y0138762D01*
X0150762Y0137825D01*
X0151400Y0137825D01*
X0151400Y0121794D01*
X0148200Y0118594D01*
X0148200Y0122391D01*
X0149926Y0122391D01*
X0150863Y0123328D01*
X0150863Y0128984D01*
X0149926Y0129921D01*
X0143088Y0129921D01*
X0142151Y0128984D01*
X0142151Y0123328D01*
X0142704Y0122775D01*
X0136762Y0122775D01*
X0135825Y0121838D01*
X0135825Y0115762D01*
X0136319Y0115269D01*
X0131794Y0110745D01*
X0131511Y0110745D01*
X0126800Y0106033D01*
X0124200Y0108633D01*
X0124200Y0110867D01*
X0124838Y0110867D01*
X0125775Y0111804D01*
X0125775Y0117879D01*
X0124838Y0118816D01*
X0118762Y0118816D01*
X0117825Y0117879D01*
X0117825Y0111804D01*
X0118762Y0110867D01*
X0119400Y0110867D01*
X0119400Y0109381D01*
X0119093Y0109074D01*
X0117775Y0110392D01*
X0117775Y0113838D01*
X0116838Y0114775D01*
X0110762Y0114775D01*
X0109825Y0113838D01*
X0109825Y0109432D01*
X0095900Y0123357D01*
X0097128Y0124585D01*
X0097128Y0125910D01*
X0096716Y0126322D01*
X0099159Y0128765D01*
X0099835Y0129441D01*
X0100200Y0130323D01*
X0100200Y0131277D01*
X0099835Y0132159D01*
X0079816Y0152178D01*
X0079816Y0154838D01*
X0078879Y0155775D01*
X0073200Y0155775D01*
X0073200Y0157825D01*
X0073838Y0157825D01*
X0074775Y0158762D01*
X0074775Y0164838D01*
X0073838Y0165775D01*
X0067762Y0165775D01*
X0066825Y0164838D01*
X0066825Y0158762D01*
X0067762Y0157825D01*
X0068400Y0157825D01*
X0068400Y0113822D01*
X0068246Y0105461D01*
X0068237Y0105440D01*
X0068237Y0104985D01*
X0068229Y0104529D01*
X0068237Y0104508D01*
X0068237Y0104485D01*
X0068412Y0104065D01*
X0068578Y0103641D01*
X0068594Y0103624D01*
X0068603Y0103603D01*
X0068925Y0103281D01*
X0069241Y0102953D01*
X0069262Y0102944D01*
X0069278Y0102928D01*
X0069699Y0102754D01*
X0070116Y0102572D01*
X0070139Y0102571D01*
X0070160Y0102563D01*
X0070615Y0102563D01*
X0071071Y0102554D01*
X0071092Y0102563D01*
X0087935Y0102563D01*
X0088357Y0102737D01*
X0091435Y0099659D01*
X0092761Y0099659D01*
X0093876Y0100774D01*
X0102855Y0091794D01*
X0102855Y0091511D01*
X0107567Y0086800D01*
X0103967Y0083200D01*
X0097775Y0083200D01*
X0097775Y0083838D01*
X0096838Y0084775D01*
X0090762Y0084775D01*
X0089825Y0083838D01*
X0089825Y0077762D01*
X0090762Y0076825D01*
X0096838Y0076825D01*
X0097775Y0077762D01*
X0097775Y0078400D01*
X0103834Y0078400D01*
X0099634Y0074200D01*
X0097775Y0074200D01*
X0097775Y0074838D01*
X0096838Y0075775D01*
X0090762Y0075775D01*
X0089825Y0074838D01*
X0089825Y0068762D01*
X0090762Y0067825D01*
X0096838Y0067825D01*
X0097775Y0068762D01*
X0097775Y0069400D01*
X0099359Y0069400D01*
X0094159Y0064200D01*
X0078775Y0064200D01*
X0078775Y0064838D01*
X0077838Y0065775D01*
X0071762Y0065775D01*
X0070825Y0064838D01*
X0070825Y0058762D01*
X0071762Y0057825D01*
X0077838Y0057825D01*
X0078775Y0058762D01*
X0078775Y0059400D01*
X0093743Y0059400D01*
X0088543Y0054200D01*
X0078775Y0054200D01*
X0078775Y0054838D01*
X0077838Y0055775D01*
X0071762Y0055775D01*
X0070825Y0054838D01*
X0070825Y0048762D01*
X0071762Y0047825D01*
X0077838Y0047825D01*
X0078775Y0048762D01*
X0078775Y0049400D01*
X0088269Y0049400D01*
X0083069Y0044200D01*
X0078775Y0044200D01*
X0078775Y0044838D01*
X0077838Y0045775D01*
X0071762Y0045775D01*
X0070825Y0044838D01*
X0070825Y0038762D01*
X0071762Y0037825D01*
X0077838Y0037825D01*
X0078775Y0038762D01*
X0078775Y0039400D01*
X0082653Y0039400D01*
X0079027Y0035775D01*
X0073762Y0035775D01*
X0072825Y0034838D01*
X0072825Y0028762D01*
X0073762Y0027825D01*
X0079838Y0027825D01*
X0080775Y0028762D01*
X0080775Y0030734D01*
X0091825Y0041784D01*
X0091825Y0037762D01*
X0092762Y0036825D01*
X0098838Y0036825D01*
X0099775Y0037762D01*
X0099775Y0043838D01*
X0099089Y0044523D01*
X0101400Y0046834D01*
X0101400Y0025775D01*
X0100762Y0025775D01*
X0099825Y0024838D01*
X0099825Y0018762D01*
X0100762Y0017825D01*
X0106838Y0017825D01*
X0107775Y0018762D01*
X0107775Y0024838D01*
X0106838Y0025775D01*
X0106200Y0025775D01*
X0106200Y0047250D01*
X0121806Y0062855D01*
X0122089Y0062855D01*
X0126800Y0067567D01*
X0131511Y0062855D01*
X0131794Y0062855D01*
X0139400Y0055250D01*
X0139400Y0042323D01*
X0139765Y0041441D01*
X0140765Y0040441D01*
X0141441Y0039765D01*
X0142323Y0039400D01*
X0144771Y0039400D01*
X0144771Y0036440D01*
X0144683Y0036504D01*
X0143911Y0036897D01*
X0143088Y0037165D01*
X0142233Y0037300D01*
X0142000Y0037300D01*
X0142000Y0032000D01*
X0141600Y0032000D01*
X0141600Y0037300D01*
X0141367Y0037300D01*
X0140512Y0037165D01*
X0139689Y0036897D01*
X0138917Y0036504D01*
X0138217Y0035995D01*
X0137605Y0035383D01*
X0137096Y0034683D01*
X0136703Y0033911D01*
X0136685Y0033856D01*
X0136293Y0034802D01*
X0134802Y0036293D01*
X0134200Y0036543D01*
X0134200Y0047825D01*
X0134838Y0047825D01*
X0135775Y0048762D01*
X0135775Y0054838D01*
X0134838Y0055775D01*
X0128762Y0055775D01*
X0127825Y0054838D01*
X0127825Y0048762D01*
X0128762Y0047825D01*
X0129400Y0047825D01*
X0129400Y0036543D01*
X0128798Y0036293D01*
X0127307Y0034802D01*
X0126800Y0033578D01*
X0126293Y0034802D01*
X0124802Y0036293D01*
X0122854Y0037100D01*
X0120746Y0037100D01*
X0118798Y0036293D01*
X0117307Y0034802D01*
X0116500Y0032854D01*
X0116500Y0030746D01*
X0117307Y0028798D01*
X0118798Y0027307D01*
X0120022Y0026800D01*
X0118798Y0026293D01*
X0117307Y0024802D01*
X0116500Y0022854D01*
X0116500Y0020746D01*
X0117307Y0018798D01*
X0118798Y0017307D01*
X0120746Y0016500D01*
X0122854Y0016500D01*
X0124802Y0017307D01*
X0126293Y0018798D01*
X0126800Y0020022D01*
X0127307Y0018798D01*
X0128798Y0017307D01*
X0130746Y0016500D01*
X0132854Y0016500D01*
X0134802Y0017307D01*
X0136293Y0018798D01*
X0136800Y0020022D01*
X0137307Y0018798D01*
X0138798Y0017307D01*
X0140746Y0016500D01*
X0142854Y0016500D01*
X0144802Y0017307D01*
X0146293Y0018798D01*
X0146400Y0019056D01*
X0146400Y0013323D01*
X0146765Y0012441D01*
X0147441Y0011765D01*
X0152441Y0006765D01*
X0152840Y0006600D01*
X0102625Y0006600D01*
X0102781Y0006756D01*
X0102781Y0012831D01*
X0101844Y0013769D01*
X0095769Y0013769D01*
X0094831Y0012831D01*
X0094831Y0012194D01*
X0078800Y0012194D01*
X0064200Y0026794D01*
X0064200Y0139277D01*
X0063835Y0140159D01*
X0060275Y0143719D01*
X0060275Y0147338D01*
X0059338Y0148275D01*
X0055606Y0148275D01*
X0064835Y0157503D01*
X0065200Y0158386D01*
X0065200Y0160825D01*
X0065838Y0160825D01*
X0066775Y0161762D01*
X0066775Y0167838D01*
X0065838Y0168775D01*
X0059762Y0168775D01*
X0059345Y0168357D01*
X0059345Y0171715D01*
X0058408Y0172652D01*
X0058176Y0172652D01*
X0058176Y0177782D01*
X0065159Y0184765D01*
X0065835Y0185441D01*
X0066200Y0186323D01*
X0066200Y0205277D01*
X0065835Y0206159D01*
X0065159Y0206835D01*
X0057200Y0214794D01*
X0057200Y0224400D01*
X0084888Y0224400D01*
X0084358Y0223871D01*
X0084358Y0220754D01*
X0083713Y0221400D01*
X0077387Y0221400D01*
X0076800Y0220813D01*
X0076213Y0221400D01*
X0069887Y0221400D01*
X0068950Y0220463D01*
X0068950Y0219200D01*
X0067775Y0219200D01*
X0067775Y0219838D01*
X0066838Y0220775D01*
X0060762Y0220775D01*
X0059825Y0219838D01*
X0059825Y0213762D01*
X0060762Y0212825D01*
X0066838Y0212825D01*
X0067775Y0213762D01*
X0067775Y0214400D01*
X0068950Y0214400D01*
X0068950Y0213137D01*
X0069887Y0212200D01*
X0070650Y0212200D01*
X0070650Y0170073D01*
X0071015Y0169191D01*
X0092765Y0147441D01*
X0092765Y0147441D01*
X0093441Y0146765D01*
X0094323Y0146400D01*
X0137331Y0146400D01*
X0137331Y0145269D01*
X0138269Y0144331D01*
X0144107Y0144331D01*
X0144107Y0137795D01*
X0143088Y0137795D01*
X0142151Y0136858D01*
X0142151Y0131202D01*
X0143088Y0130265D01*
X0149926Y0130265D01*
X0150863Y0131202D01*
X0150863Y0136858D01*
X0149926Y0137795D01*
X0148907Y0137795D01*
X0148907Y0163570D01*
X0148542Y0164452D01*
X0135835Y0177159D01*
X0135835Y0177159D01*
X0135159Y0177835D01*
X0134277Y0178200D01*
X0128794Y0178200D01*
X0124228Y0182766D01*
X0136671Y0182766D01*
X0136949Y0182881D01*
X0139606Y0182881D01*
X0140544Y0183818D01*
X0140544Y0187884D01*
X0157322Y0187884D01*
X0169765Y0175441D01*
X0170441Y0174765D01*
X0171323Y0174400D01*
X0202200Y0174400D01*
X0202200Y0173887D01*
X0203137Y0172950D01*
X0204400Y0172950D01*
X0204400Y0169323D01*
X0204765Y0168441D01*
X0217400Y0155806D01*
X0217400Y0145775D01*
X0216762Y0145775D01*
X0215825Y0144838D01*
X0215825Y0138762D01*
X0216762Y0137825D01*
X0222838Y0137825D01*
X0223775Y0138762D01*
X0223775Y0144838D01*
X0222838Y0145775D01*
X0222200Y0145775D01*
X0222200Y0157277D01*
X0221835Y0158159D01*
X0221159Y0158835D01*
X0209200Y0170794D01*
X0209200Y0172950D01*
X0210463Y0172950D01*
X0211400Y0173887D01*
X0211400Y0180213D01*
X0210954Y0180659D01*
X0211240Y0180945D01*
X0211477Y0181355D01*
X0211600Y0181813D01*
X0211600Y0184100D01*
X0207250Y0184100D01*
X0207250Y0185000D01*
X0206350Y0185000D01*
X0206350Y0188850D01*
X0203563Y0188850D01*
X0203105Y0188727D01*
X0202695Y0188490D01*
X0202360Y0188155D01*
X0202123Y0187745D01*
X0202000Y0187287D01*
X0202000Y0185000D01*
X0206350Y0185000D01*
X0206350Y0184100D01*
X0202000Y0184100D01*
X0202000Y0181813D01*
X0202123Y0181355D01*
X0202360Y0180945D01*
X0202646Y0180659D01*
X0202200Y0180213D01*
X0202200Y0179200D01*
X0172794Y0179200D01*
X0165296Y0186698D01*
X0195696Y0186698D01*
X0196578Y0187063D01*
X0197253Y0187738D01*
X0199978Y0190463D01*
X0202444Y0190463D01*
X0202444Y0190035D01*
X0203381Y0189098D01*
X0210219Y0189098D01*
X0211156Y0190035D01*
X0211156Y0195691D01*
X0210219Y0196628D01*
X0203381Y0196628D01*
X0202444Y0195691D01*
X0202444Y0195263D01*
X0198507Y0195263D01*
X0197625Y0194898D01*
X0196156Y0193429D01*
X0196156Y0195691D01*
X0195219Y0196628D01*
X0188381Y0196628D01*
X0187444Y0195691D01*
X0187444Y0195263D01*
X0166731Y0195263D01*
X0154835Y0207159D01*
X0154159Y0207835D01*
X0153277Y0208200D01*
X0140544Y0208200D01*
X0140544Y0209243D01*
X0140621Y0209377D01*
X0140744Y0209835D01*
X0140744Y0210757D01*
X0140744Y0211679D01*
X0140621Y0212137D01*
X0140544Y0212270D01*
X0140544Y0219782D01*
X0139606Y0220719D01*
X0132781Y0220719D01*
X0131844Y0219782D01*
X0131844Y0212270D01*
X0131766Y0212137D01*
X0131644Y0211679D01*
X0131644Y0210757D01*
X0136194Y0210757D01*
X0140744Y0210757D01*
X0136194Y0210757D01*
X0136194Y0210757D01*
X0136194Y0210757D01*
X0131644Y0210757D01*
X0131644Y0209835D01*
X0131766Y0209377D01*
X0131844Y0209243D01*
X0131844Y0202034D01*
X0131766Y0201900D01*
X0131644Y0201442D01*
X0131644Y0200521D01*
X0135713Y0200521D01*
X0135713Y0200520D01*
X0131644Y0200520D01*
X0131644Y0200200D01*
X0128200Y0200200D01*
X0128200Y0202825D01*
X0128838Y0202825D01*
X0129775Y0203762D01*
X0129775Y0209838D01*
X0128838Y0210775D01*
X0123200Y0210775D01*
X0123200Y0215806D01*
X0126159Y0218765D01*
X0126835Y0219441D01*
X0127200Y0220323D01*
X0127200Y0224657D01*
X0127200Y0220676D02*
X0132738Y0220676D01*
X0131844Y0219078D02*
X0126472Y0219078D01*
X0124873Y0217479D02*
X0131844Y0217479D01*
X0131844Y0215881D02*
X0123275Y0215881D01*
X0123200Y0214282D02*
X0131844Y0214282D01*
X0131844Y0212684D02*
X0123200Y0212684D01*
X0123200Y0211085D02*
X0131644Y0211085D01*
X0131737Y0209486D02*
X0129775Y0209486D01*
X0129775Y0207888D02*
X0131844Y0207888D01*
X0131844Y0206289D02*
X0129775Y0206289D01*
X0129775Y0204691D02*
X0131844Y0204691D01*
X0131844Y0203092D02*
X0129105Y0203092D01*
X0128200Y0201494D02*
X0131657Y0201494D01*
X0130080Y0200520D02*
X0129800Y0200800D01*
X0129800Y0216285D01*
X0129285Y0216800D01*
X0132203Y0226696D02*
X0128099Y0230800D01*
X0132203Y0226696D02*
X0143723Y0226696D01*
X0143827Y0226800D01*
X0165517Y0226800D01*
X0164800Y0226083D01*
X0164800Y0214146D01*
X0165204Y0214550D01*
X0175800Y0214550D01*
X0171502Y0211085D02*
X0169353Y0211085D01*
X0169553Y0209486D02*
X0171000Y0209486D01*
X0171000Y0207888D02*
X0165280Y0207888D01*
X0165280Y0206974D02*
X0169553Y0206974D01*
X0169553Y0204658D01*
X0169430Y0204200D01*
X0169193Y0203789D01*
X0168858Y0203454D01*
X0168448Y0203217D01*
X0167990Y0203094D01*
X0165280Y0203094D01*
X0165280Y0206974D01*
X0165280Y0206289D02*
X0164320Y0206289D01*
X0164320Y0204691D02*
X0165280Y0204691D01*
X0162099Y0199895D02*
X0187444Y0199895D01*
X0187444Y0198297D02*
X0163697Y0198297D01*
X0165296Y0196698D02*
X0244921Y0196698D01*
X0244921Y0195100D02*
X0226156Y0195100D01*
X0226156Y0195691D02*
X0225219Y0196628D01*
X0218381Y0196628D01*
X0217444Y0195691D01*
X0217444Y0190035D01*
X0218381Y0189098D01*
X0219400Y0189098D01*
X0219400Y0173323D01*
X0219765Y0172441D01*
X0227825Y0164381D01*
X0227825Y0159762D01*
X0228762Y0158825D01*
X0234838Y0158825D01*
X0235775Y0159762D01*
X0235775Y0165838D01*
X0234838Y0166775D01*
X0232219Y0166775D01*
X0224200Y0174794D01*
X0224200Y0189098D01*
X0225219Y0189098D01*
X0226156Y0190035D01*
X0226156Y0195691D01*
X0225219Y0196972D02*
X0226156Y0197909D01*
X0226156Y0203565D01*
X0225421Y0204300D01*
X0225762Y0204641D01*
X0225762Y0210691D01*
X0224825Y0211628D01*
X0218775Y0211628D01*
X0217838Y0210691D01*
X0217838Y0204641D01*
X0218179Y0204300D01*
X0217444Y0203565D01*
X0217444Y0197909D01*
X0218381Y0196972D01*
X0225219Y0196972D01*
X0226156Y0198297D02*
X0244921Y0198297D01*
X0244921Y0199895D02*
X0226156Y0199895D01*
X0226156Y0201494D02*
X0244921Y0201494D01*
X0244921Y0203092D02*
X0226156Y0203092D01*
X0225762Y0204691D02*
X0229739Y0204691D01*
X0229760Y0204609D02*
X0229997Y0204199D01*
X0230333Y0203864D01*
X0230743Y0203627D01*
X0231201Y0203504D01*
X0233419Y0203504D01*
X0233419Y0207285D01*
X0234181Y0207285D01*
X0234181Y0203504D01*
X0236399Y0203504D01*
X0236857Y0203627D01*
X0237267Y0203864D01*
X0237603Y0204199D01*
X0237840Y0204609D01*
X0237962Y0205067D01*
X0237962Y0207285D01*
X0234181Y0207285D01*
X0234181Y0208047D01*
X0237962Y0208047D01*
X0237962Y0210265D01*
X0237840Y0210723D01*
X0237603Y0211134D01*
X0237267Y0211469D01*
X0236857Y0211706D01*
X0236399Y0211828D01*
X0234181Y0211828D01*
X0234181Y0208047D01*
X0233419Y0208047D01*
X0233419Y0207285D01*
X0229638Y0207285D01*
X0229638Y0205067D01*
X0229760Y0204609D01*
X0229638Y0206289D02*
X0225762Y0206289D01*
X0225762Y0207888D02*
X0233419Y0207888D01*
X0233419Y0208047D02*
X0229638Y0208047D01*
X0229638Y0210265D01*
X0229760Y0210723D01*
X0229997Y0211134D01*
X0230333Y0211469D01*
X0230743Y0211706D01*
X0231201Y0211828D01*
X0233419Y0211828D01*
X0233419Y0208047D01*
X0234181Y0207888D02*
X0244921Y0207888D01*
X0244921Y0209486D02*
X0237962Y0209486D01*
X0237631Y0211085D02*
X0244921Y0211085D01*
X0244921Y0212684D02*
X0237537Y0212684D01*
X0237762Y0212909D02*
X0237762Y0218959D01*
X0236825Y0219896D01*
X0233232Y0219896D01*
X0224293Y0228835D01*
X0223411Y0229200D01*
X0204502Y0229200D01*
X0204502Y0230219D01*
X0203565Y0231156D01*
X0197909Y0231156D01*
X0196972Y0230219D01*
X0196972Y0223381D01*
X0197909Y0222444D01*
X0203565Y0222444D01*
X0204502Y0223381D01*
X0204502Y0224400D01*
X0221940Y0224400D01*
X0229838Y0216502D01*
X0229838Y0212909D01*
X0230775Y0211972D01*
X0236825Y0211972D01*
X0237762Y0212909D01*
X0237762Y0214282D02*
X0244921Y0214282D01*
X0244921Y0215881D02*
X0237762Y0215881D01*
X0237762Y0217479D02*
X0244921Y0217479D01*
X0244921Y0219078D02*
X0237643Y0219078D01*
X0233800Y0215934D02*
X0222934Y0226800D01*
X0200737Y0226800D01*
X0196972Y0227070D02*
X0196628Y0227070D01*
X0196628Y0225472D02*
X0196972Y0225472D01*
X0196972Y0223873D02*
X0196628Y0223873D01*
X0194200Y0222275D02*
X0224065Y0222275D01*
X0224399Y0220096D02*
X0222181Y0220096D01*
X0222181Y0216315D01*
X0221419Y0216315D01*
X0221419Y0220096D01*
X0219201Y0220096D01*
X0218743Y0219973D01*
X0218333Y0219736D01*
X0217997Y0219401D01*
X0217760Y0218991D01*
X0217638Y0218533D01*
X0217638Y0216315D01*
X0221419Y0216315D01*
X0221419Y0215553D01*
X0217638Y0215553D01*
X0217638Y0213335D01*
X0217760Y0212877D01*
X0217997Y0212466D01*
X0218333Y0212131D01*
X0218743Y0211894D01*
X0219201Y0211772D01*
X0221419Y0211772D01*
X0221419Y0215553D01*
X0222181Y0215553D01*
X0222181Y0216315D01*
X0225962Y0216315D01*
X0225962Y0218533D01*
X0225840Y0218991D01*
X0225603Y0219401D01*
X0225267Y0219736D01*
X0224857Y0219973D01*
X0224399Y0220096D01*
X0225664Y0220676D02*
X0194200Y0220676D01*
X0195643Y0219078D02*
X0202957Y0219078D01*
X0206800Y0215934D02*
X0191800Y0215934D01*
X0191800Y0225737D01*
X0192863Y0226800D01*
X0180083Y0226800D01*
X0180083Y0228517D01*
X0175800Y0232800D01*
X0149800Y0232800D01*
X0153775Y0230267D02*
X0174939Y0230267D01*
X0176121Y0228669D02*
X0169479Y0228669D01*
X0169479Y0227070D02*
X0176121Y0227070D01*
X0176121Y0225472D02*
X0169479Y0225472D01*
X0168593Y0223873D02*
X0177007Y0223873D01*
X0183159Y0223873D02*
X0189098Y0223873D01*
X0189400Y0222275D02*
X0167200Y0222275D01*
X0167200Y0220676D02*
X0189400Y0220676D01*
X0187957Y0219078D02*
X0167200Y0219078D01*
X0169242Y0217479D02*
X0171200Y0217479D01*
X0162400Y0219078D02*
X0140544Y0219078D01*
X0140544Y0217479D02*
X0160358Y0217479D01*
X0160247Y0215881D02*
X0140544Y0215881D01*
X0140544Y0214282D02*
X0160247Y0214282D01*
X0160247Y0212684D02*
X0140544Y0212684D01*
X0140744Y0211085D02*
X0160247Y0211085D01*
X0160047Y0209486D02*
X0140650Y0209486D01*
X0136355Y0205800D02*
X0136194Y0205639D01*
X0136355Y0205800D02*
X0152800Y0205800D01*
X0165737Y0192863D01*
X0191800Y0192863D01*
X0196156Y0193501D02*
X0196228Y0193501D01*
X0196156Y0195100D02*
X0198113Y0195100D01*
X0198984Y0192863D02*
X0195219Y0189098D01*
X0164502Y0189098D01*
X0150800Y0202800D01*
X0139612Y0202800D01*
X0139606Y0202806D01*
X0136468Y0202806D01*
X0136194Y0203080D01*
X0136194Y0200520D02*
X0130080Y0200520D01*
X0125800Y0197800D02*
X0125800Y0206800D01*
X0123400Y0202825D02*
X0123200Y0202825D01*
X0123200Y0191794D01*
X0124869Y0190125D01*
X0131844Y0190125D01*
X0131844Y0191330D01*
X0131766Y0191463D01*
X0131644Y0191921D01*
X0131644Y0192843D01*
X0136194Y0192843D01*
X0136194Y0192843D01*
X0140744Y0192843D01*
X0140744Y0192684D01*
X0157522Y0192684D01*
X0152769Y0197437D01*
X0152769Y0194756D01*
X0151831Y0193819D01*
X0145756Y0193819D01*
X0144819Y0194756D01*
X0144819Y0195394D01*
X0140544Y0195394D01*
X0140544Y0194357D01*
X0140621Y0194223D01*
X0140744Y0193765D01*
X0140744Y0192843D01*
X0136194Y0192843D01*
X0136157Y0192806D01*
X0125806Y0192806D01*
X0125323Y0195400D02*
X0131844Y0195400D01*
X0131844Y0194357D01*
X0131766Y0194223D01*
X0131644Y0193765D01*
X0131644Y0192843D01*
X0136194Y0192843D01*
X0136194Y0192843D01*
X0136194Y0190284D02*
X0158316Y0190284D01*
X0171800Y0176800D01*
X0206550Y0176800D01*
X0206800Y0177050D01*
X0206800Y0169800D01*
X0219800Y0156800D01*
X0219800Y0141800D01*
X0223775Y0142349D02*
X0226500Y0142349D01*
X0226500Y0140750D02*
X0223775Y0140750D01*
X0223775Y0139152D02*
X0227160Y0139152D01*
X0228551Y0137553D02*
X0211200Y0137553D01*
X0211200Y0135955D02*
X0228460Y0135955D01*
X0227122Y0134356D02*
X0211200Y0134356D01*
X0211200Y0132758D02*
X0226500Y0132758D01*
X0226500Y0131159D02*
X0211200Y0131159D01*
X0211200Y0129561D02*
X0226991Y0129561D01*
X0228142Y0127962D02*
X0211200Y0127962D01*
X0211200Y0126364D02*
X0228969Y0126364D01*
X0227292Y0124765D02*
X0211200Y0124765D01*
X0211200Y0123167D02*
X0226630Y0123167D01*
X0226500Y0121568D02*
X0211200Y0121568D01*
X0211200Y0119970D02*
X0226821Y0119970D01*
X0227733Y0118371D02*
X0211200Y0118371D01*
X0211200Y0116773D02*
X0229956Y0116773D01*
X0227679Y0115174D02*
X0211200Y0115174D01*
X0211200Y0113576D02*
X0226799Y0113576D01*
X0226500Y0111977D02*
X0211200Y0111977D01*
X0211200Y0110379D02*
X0226652Y0110379D01*
X0227324Y0108780D02*
X0211200Y0108780D01*
X0211200Y0107182D02*
X0229100Y0107182D01*
X0228088Y0105583D02*
X0211200Y0105583D01*
X0211200Y0103985D02*
X0226968Y0103985D01*
X0226500Y0102386D02*
X0211200Y0102386D01*
X0211200Y0100788D02*
X0226500Y0100788D01*
X0227145Y0099189D02*
X0211200Y0099189D01*
X0211200Y0097591D02*
X0228514Y0097591D01*
X0228497Y0095992D02*
X0211200Y0095992D01*
X0211200Y0094394D02*
X0227138Y0094394D01*
X0226500Y0092795D02*
X0211200Y0092795D01*
X0211200Y0091197D02*
X0226500Y0091197D01*
X0226975Y0089598D02*
X0211200Y0089598D01*
X0211200Y0088000D02*
X0228105Y0088000D01*
X0229059Y0086401D02*
X0211200Y0086401D01*
X0211200Y0084803D02*
X0227307Y0084803D01*
X0226645Y0083204D02*
X0211200Y0083204D01*
X0211200Y0081606D02*
X0226500Y0081606D01*
X0226806Y0080007D02*
X0211200Y0080007D01*
X0211200Y0078409D02*
X0227696Y0078409D01*
X0229997Y0076810D02*
X0211200Y0076810D01*
X0211200Y0075212D02*
X0227716Y0075212D01*
X0226814Y0073613D02*
X0211200Y0073613D01*
X0211200Y0072015D02*
X0226500Y0072015D01*
X0226637Y0070416D02*
X0211200Y0070416D01*
X0211200Y0068817D02*
X0227299Y0068817D01*
X0229010Y0067219D02*
X0211200Y0067219D01*
X0211200Y0065620D02*
X0228125Y0065620D01*
X0226984Y0064022D02*
X0211200Y0064022D01*
X0211200Y0062423D02*
X0226500Y0062423D01*
X0226500Y0060825D02*
X0211200Y0060825D01*
X0211200Y0059226D02*
X0227129Y0059226D01*
X0228477Y0057628D02*
X0211200Y0057628D01*
X0211200Y0056029D02*
X0228534Y0056029D01*
X0227153Y0054431D02*
X0211200Y0054431D01*
X0211200Y0052832D02*
X0226500Y0052832D01*
X0226500Y0051234D02*
X0211200Y0051234D01*
X0208800Y0047800D02*
X0208800Y0155800D01*
X0161595Y0155800D01*
X0159595Y0154800D01*
X0159595Y0161800D01*
X0154788Y0166327D02*
X0146667Y0166327D01*
X0145069Y0167925D02*
X0157136Y0167925D01*
X0153664Y0164728D02*
X0148266Y0164728D01*
X0148907Y0163130D02*
X0153002Y0163130D01*
X0152995Y0161531D02*
X0148907Y0161531D01*
X0148907Y0159933D02*
X0153225Y0159933D01*
X0153887Y0158334D02*
X0148907Y0158334D01*
X0148907Y0156736D02*
X0155326Y0156736D01*
X0157178Y0155137D02*
X0148907Y0155137D01*
X0148907Y0153539D02*
X0157195Y0153539D01*
X0157195Y0151940D02*
X0148907Y0151940D01*
X0148907Y0150342D02*
X0157195Y0150342D01*
X0157195Y0148743D02*
X0148907Y0148743D01*
X0148907Y0147145D02*
X0157195Y0147145D01*
X0157195Y0145546D02*
X0157066Y0145546D01*
X0153800Y0141800D02*
X0153800Y0120800D01*
X0135285Y0102285D01*
X0135285Y0101932D01*
X0133195Y0104195D02*
X0145800Y0116800D01*
X0145800Y0125449D01*
X0146507Y0126156D01*
X0150863Y0126364D02*
X0151400Y0126364D01*
X0151400Y0127962D02*
X0150863Y0127962D01*
X0151400Y0129561D02*
X0150286Y0129561D01*
X0150821Y0131159D02*
X0151400Y0131159D01*
X0151400Y0132758D02*
X0150863Y0132758D01*
X0150863Y0134356D02*
X0151400Y0134356D01*
X0151400Y0135955D02*
X0150863Y0135955D01*
X0151400Y0137553D02*
X0150168Y0137553D01*
X0149825Y0139152D02*
X0148907Y0139152D01*
X0148907Y0140750D02*
X0149825Y0140750D01*
X0149825Y0142349D02*
X0148907Y0142349D01*
X0148907Y0143948D02*
X0149825Y0143948D01*
X0150534Y0145546D02*
X0148907Y0145546D01*
X0144107Y0143948D02*
X0088047Y0143948D01*
X0086448Y0145546D02*
X0137331Y0145546D01*
X0140812Y0148800D02*
X0094800Y0148800D01*
X0073050Y0170550D01*
X0073050Y0216800D01*
X0063800Y0216800D01*
X0067775Y0214282D02*
X0068950Y0214282D01*
X0069404Y0212684D02*
X0059311Y0212684D01*
X0059825Y0214282D02*
X0057712Y0214282D01*
X0057200Y0215881D02*
X0059825Y0215881D01*
X0059825Y0217479D02*
X0057200Y0217479D01*
X0057200Y0219078D02*
X0059825Y0219078D01*
X0060664Y0220676D02*
X0057200Y0220676D01*
X0057200Y0222275D02*
X0084358Y0222275D01*
X0084361Y0223873D02*
X0057200Y0223873D01*
X0066936Y0220676D02*
X0069163Y0220676D01*
X0070650Y0211085D02*
X0060909Y0211085D01*
X0062508Y0209486D02*
X0070650Y0209486D01*
X0070650Y0207888D02*
X0064106Y0207888D01*
X0065159Y0206835D02*
X0065159Y0206835D01*
X0065705Y0206289D02*
X0070650Y0206289D01*
X0070650Y0204691D02*
X0066200Y0204691D01*
X0066200Y0203092D02*
X0070650Y0203092D01*
X0070650Y0201494D02*
X0066200Y0201494D01*
X0066200Y0199895D02*
X0070650Y0199895D01*
X0070650Y0198297D02*
X0066200Y0198297D01*
X0066200Y0196698D02*
X0070650Y0196698D01*
X0070650Y0195100D02*
X0066200Y0195100D01*
X0066200Y0193501D02*
X0070650Y0193501D01*
X0070650Y0191903D02*
X0066200Y0191903D01*
X0066200Y0190304D02*
X0070650Y0190304D01*
X0070650Y0188706D02*
X0066200Y0188706D01*
X0066200Y0187107D02*
X0070650Y0187107D01*
X0070650Y0185509D02*
X0065863Y0185509D01*
X0064304Y0183910D02*
X0070650Y0183910D01*
X0070650Y0182312D02*
X0062706Y0182312D01*
X0061107Y0180713D02*
X0070650Y0180713D01*
X0070650Y0179115D02*
X0059509Y0179115D01*
X0058176Y0177516D02*
X0070650Y0177516D01*
X0070650Y0175918D02*
X0058176Y0175918D01*
X0058176Y0174319D02*
X0070650Y0174319D01*
X0070650Y0172721D02*
X0058176Y0172721D01*
X0059345Y0171122D02*
X0070650Y0171122D01*
X0070877Y0169524D02*
X0059345Y0169524D01*
X0056262Y0167416D02*
X0055776Y0167902D01*
X0055776Y0178776D01*
X0063800Y0186800D01*
X0055918Y0182312D02*
X0021200Y0182312D01*
X0021200Y0183910D02*
X0034448Y0183910D01*
X0034370Y0185509D02*
X0021200Y0185509D01*
X0021200Y0187107D02*
X0034370Y0187107D01*
X0034370Y0188706D02*
X0021200Y0188706D01*
X0021200Y0190304D02*
X0034370Y0190304D01*
X0034370Y0191903D02*
X0021200Y0191903D01*
X0021200Y0193501D02*
X0034370Y0193501D01*
X0034370Y0195100D02*
X0021200Y0195100D01*
X0021200Y0180713D02*
X0054319Y0180713D01*
X0053376Y0179115D02*
X0021200Y0179115D01*
X0021200Y0177516D02*
X0053376Y0177516D01*
X0053376Y0175918D02*
X0021200Y0175918D01*
X0022675Y0174319D02*
X0053376Y0174319D01*
X0053376Y0172721D02*
X0024273Y0172721D01*
X0025872Y0171122D02*
X0034255Y0171122D01*
X0034255Y0171715D02*
X0034255Y0164090D01*
X0035192Y0163153D01*
X0039179Y0163153D01*
X0040825Y0161507D01*
X0040825Y0155762D01*
X0041762Y0154825D01*
X0047838Y0154825D01*
X0048775Y0155762D01*
X0048775Y0161838D01*
X0047838Y0162775D01*
X0046345Y0162775D01*
X0041392Y0167728D01*
X0041392Y0171715D01*
X0040455Y0172652D01*
X0035192Y0172652D01*
X0034255Y0171715D01*
X0034255Y0169524D02*
X0027470Y0169524D01*
X0029069Y0167925D02*
X0034255Y0167925D01*
X0034255Y0166327D02*
X0030667Y0166327D01*
X0032266Y0164728D02*
X0034255Y0164728D01*
X0033864Y0163130D02*
X0039202Y0163130D01*
X0040801Y0161531D02*
X0035463Y0161531D01*
X0037061Y0159933D02*
X0040825Y0159933D01*
X0040825Y0158334D02*
X0038660Y0158334D01*
X0040047Y0156736D02*
X0040825Y0156736D01*
X0040263Y0155137D02*
X0041451Y0155137D01*
X0040263Y0153539D02*
X0054081Y0153539D01*
X0052483Y0151940D02*
X0040263Y0151940D01*
X0040263Y0150342D02*
X0050884Y0150342D01*
X0049286Y0148743D02*
X0040263Y0148743D01*
X0040263Y0147145D02*
X0047687Y0147145D01*
X0051279Y0143948D02*
X0052325Y0143948D01*
X0052325Y0142349D02*
X0049680Y0142349D01*
X0049502Y0140750D02*
X0052837Y0140750D01*
X0049502Y0139152D02*
X0058054Y0139152D01*
X0059400Y0137553D02*
X0048674Y0137553D01*
X0045737Y0141800D02*
X0062800Y0158863D01*
X0062800Y0164800D01*
X0065200Y0159933D02*
X0066825Y0159933D01*
X0066825Y0161531D02*
X0066543Y0161531D01*
X0066775Y0163130D02*
X0066825Y0163130D01*
X0066775Y0164728D02*
X0066825Y0164728D01*
X0066775Y0166327D02*
X0073879Y0166327D01*
X0074775Y0164728D02*
X0075478Y0164728D01*
X0074775Y0163130D02*
X0077076Y0163130D01*
X0078675Y0161531D02*
X0074775Y0161531D01*
X0074775Y0159933D02*
X0080273Y0159933D01*
X0081872Y0158334D02*
X0074346Y0158334D01*
X0073200Y0156736D02*
X0083470Y0156736D01*
X0085069Y0155137D02*
X0079517Y0155137D01*
X0079816Y0153539D02*
X0086667Y0153539D01*
X0088266Y0151940D02*
X0080054Y0151940D01*
X0081653Y0150342D02*
X0089864Y0150342D01*
X0091463Y0148743D02*
X0083251Y0148743D01*
X0084850Y0147145D02*
X0093061Y0147145D01*
X0095794Y0151200D02*
X0089485Y0157509D01*
X0090835Y0156950D01*
X0092765Y0156950D01*
X0094547Y0157688D01*
X0095912Y0159053D01*
X0096650Y0160835D01*
X0096650Y0162765D01*
X0096621Y0162835D01*
X0097825Y0161631D01*
X0097825Y0158762D01*
X0098762Y0157825D01*
X0104838Y0157825D01*
X0105775Y0158762D01*
X0105775Y0164838D01*
X0104838Y0165775D01*
X0100469Y0165775D01*
X0094400Y0171844D01*
X0094400Y0176213D01*
X0093954Y0176659D01*
X0094240Y0176945D01*
X0094477Y0177355D01*
X0094600Y0177813D01*
X0094600Y0180100D01*
X0090250Y0180100D01*
X0090250Y0181000D01*
X0089350Y0181000D01*
X0089350Y0184850D01*
X0086563Y0184850D01*
X0086105Y0184727D01*
X0085695Y0184490D01*
X0085360Y0184155D01*
X0085123Y0183745D01*
X0085000Y0183287D01*
X0085000Y0181000D01*
X0089350Y0181000D01*
X0089350Y0180100D01*
X0085000Y0180100D01*
X0085000Y0177813D01*
X0085123Y0177355D01*
X0085360Y0176945D01*
X0085646Y0176659D01*
X0085200Y0176213D01*
X0085200Y0169887D01*
X0086137Y0168950D01*
X0090506Y0168950D01*
X0092835Y0166621D01*
X0092765Y0166650D01*
X0090835Y0166650D01*
X0089053Y0165912D01*
X0087688Y0164547D01*
X0086950Y0162765D01*
X0086950Y0160835D01*
X0087509Y0159485D01*
X0075450Y0171544D01*
X0075450Y0212200D01*
X0076213Y0212200D01*
X0076800Y0212787D01*
X0077387Y0212200D01*
X0083713Y0212200D01*
X0084650Y0213137D01*
X0084650Y0213675D01*
X0103056Y0213675D01*
X0103056Y0204593D01*
X0102979Y0204459D01*
X0102856Y0204002D01*
X0102856Y0203080D01*
X0107406Y0203080D01*
X0107406Y0203079D01*
X0102856Y0203079D01*
X0102856Y0202158D01*
X0102979Y0201700D01*
X0103056Y0201566D01*
X0103056Y0183818D01*
X0103994Y0182881D01*
X0110819Y0182881D01*
X0111756Y0183818D01*
X0111756Y0188462D01*
X0111765Y0188441D01*
X0112441Y0187765D01*
X0122006Y0178200D01*
X0107400Y0178200D01*
X0106996Y0178604D01*
X0100921Y0178604D01*
X0099984Y0177667D01*
X0099984Y0171592D01*
X0100921Y0170654D01*
X0106996Y0170654D01*
X0107933Y0171592D01*
X0107933Y0173400D01*
X0132806Y0173400D01*
X0144107Y0162099D01*
X0144107Y0152281D01*
X0138269Y0152281D01*
X0137331Y0151344D01*
X0137331Y0151200D01*
X0095794Y0151200D01*
X0095054Y0151940D02*
X0137928Y0151940D01*
X0136195Y0155347D02*
X0135334Y0155116D01*
X0134484Y0155004D01*
X0134484Y0161320D01*
X0133525Y0161320D01*
X0133525Y0155004D01*
X0132675Y0155116D01*
X0131814Y0155347D01*
X0130991Y0155688D01*
X0130219Y0156134D01*
X0129512Y0156677D01*
X0128881Y0157307D01*
X0128339Y0158014D01*
X0127893Y0158786D01*
X0127552Y0159610D01*
X0127321Y0160471D01*
X0127209Y0161320D01*
X0133525Y0161320D01*
X0133525Y0162280D01*
X0133525Y0168596D01*
X0132675Y0168484D01*
X0131814Y0168253D01*
X0130991Y0167912D01*
X0130219Y0167466D01*
X0129512Y0166923D01*
X0128881Y0166293D01*
X0128339Y0165586D01*
X0127893Y0164814D01*
X0127552Y0163990D01*
X0127321Y0163129D01*
X0127209Y0162280D01*
X0133525Y0162280D01*
X0134484Y0162280D01*
X0134484Y0168596D01*
X0135334Y0168484D01*
X0136195Y0168253D01*
X0137019Y0167912D01*
X0137791Y0167466D01*
X0138498Y0166923D01*
X0139128Y0166293D01*
X0139671Y0165586D01*
X0140117Y0164814D01*
X0140458Y0163990D01*
X0140688Y0163129D01*
X0140800Y0162280D01*
X0134484Y0162280D01*
X0134484Y0161320D01*
X0140800Y0161320D01*
X0140688Y0160471D01*
X0140458Y0159610D01*
X0140117Y0158786D01*
X0139671Y0158014D01*
X0139128Y0157307D01*
X0138498Y0156677D01*
X0137791Y0156134D01*
X0137019Y0155688D01*
X0136195Y0155347D01*
X0135412Y0155137D02*
X0144107Y0155137D01*
X0144107Y0153539D02*
X0093456Y0153539D01*
X0091857Y0155137D02*
X0132598Y0155137D01*
X0133525Y0155137D02*
X0134484Y0155137D01*
X0134484Y0156736D02*
X0133525Y0156736D01*
X0133525Y0158334D02*
X0134484Y0158334D01*
X0134484Y0159933D02*
X0133525Y0159933D01*
X0133525Y0161531D02*
X0116650Y0161531D01*
X0116650Y0160835D02*
X0115912Y0159053D01*
X0114547Y0157688D01*
X0112765Y0156950D01*
X0110835Y0156950D01*
X0109053Y0157688D01*
X0107688Y0159053D01*
X0106950Y0160835D01*
X0106950Y0162765D01*
X0107688Y0164547D01*
X0109053Y0165912D01*
X0110835Y0166650D01*
X0112765Y0166650D01*
X0114547Y0165912D01*
X0115912Y0164547D01*
X0116650Y0162765D01*
X0116650Y0160835D01*
X0116276Y0159933D02*
X0127465Y0159933D01*
X0128154Y0158334D02*
X0115193Y0158334D01*
X0116499Y0163130D02*
X0127321Y0163130D01*
X0127857Y0164728D02*
X0115731Y0164728D01*
X0113545Y0166327D02*
X0128915Y0166327D01*
X0131023Y0167925D02*
X0098319Y0167925D01*
X0099917Y0166327D02*
X0110055Y0166327D01*
X0107869Y0164728D02*
X0105775Y0164728D01*
X0105775Y0163130D02*
X0107101Y0163130D01*
X0106950Y0161531D02*
X0105775Y0161531D01*
X0105775Y0159933D02*
X0107324Y0159933D01*
X0108407Y0158334D02*
X0105346Y0158334D01*
X0101800Y0161800D02*
X0101050Y0161800D01*
X0089800Y0173050D01*
X0094400Y0172721D02*
X0099984Y0172721D01*
X0099984Y0174319D02*
X0094400Y0174319D01*
X0094400Y0175918D02*
X0099984Y0175918D01*
X0099984Y0177516D02*
X0094520Y0177516D01*
X0094600Y0179115D02*
X0121091Y0179115D01*
X0119493Y0180713D02*
X0090250Y0180713D01*
X0090250Y0181000D02*
X0094600Y0181000D01*
X0094600Y0183287D01*
X0094477Y0183745D01*
X0094240Y0184155D01*
X0093905Y0184490D01*
X0093495Y0184727D01*
X0093037Y0184850D01*
X0090250Y0184850D01*
X0090250Y0181000D01*
X0089800Y0180550D02*
X0089800Y0188800D01*
X0089350Y0183910D02*
X0090250Y0183910D01*
X0090250Y0182312D02*
X0089350Y0182312D01*
X0089350Y0180713D02*
X0075450Y0180713D01*
X0075450Y0179115D02*
X0085000Y0179115D01*
X0085080Y0177516D02*
X0075450Y0177516D01*
X0075450Y0175918D02*
X0085200Y0175918D01*
X0085200Y0174319D02*
X0075450Y0174319D01*
X0075450Y0172721D02*
X0085200Y0172721D01*
X0085200Y0171122D02*
X0075872Y0171122D01*
X0077470Y0169524D02*
X0085564Y0169524D01*
X0087869Y0164728D02*
X0082266Y0164728D01*
X0083864Y0163130D02*
X0087101Y0163130D01*
X0086950Y0161531D02*
X0085463Y0161531D01*
X0087061Y0159933D02*
X0087324Y0159933D01*
X0090258Y0156736D02*
X0129452Y0156736D01*
X0134484Y0161531D02*
X0144107Y0161531D01*
X0144107Y0159933D02*
X0140544Y0159933D01*
X0139856Y0158334D02*
X0144107Y0158334D01*
X0144107Y0156736D02*
X0138557Y0156736D01*
X0140688Y0163130D02*
X0143076Y0163130D01*
X0141478Y0164728D02*
X0140152Y0164728D01*
X0139879Y0166327D02*
X0139095Y0166327D01*
X0138281Y0167925D02*
X0136986Y0167925D01*
X0136682Y0169524D02*
X0096720Y0169524D01*
X0095122Y0171122D02*
X0100453Y0171122D01*
X0103958Y0174629D02*
X0105129Y0175800D01*
X0127800Y0175800D01*
X0113800Y0189800D01*
X0113800Y0207800D01*
X0110943Y0207800D01*
X0110819Y0207924D01*
X0107680Y0207924D01*
X0107406Y0208198D01*
X0103056Y0207888D02*
X0075450Y0207888D01*
X0075450Y0209486D02*
X0103056Y0209486D01*
X0103056Y0211085D02*
X0075450Y0211085D01*
X0076696Y0212684D02*
X0076904Y0212684D01*
X0080550Y0215875D02*
X0080550Y0216800D01*
X0084196Y0212684D02*
X0103056Y0212684D01*
X0103056Y0206289D02*
X0075450Y0206289D01*
X0075450Y0204691D02*
X0103056Y0204691D01*
X0102856Y0203092D02*
X0075450Y0203092D01*
X0075450Y0201494D02*
X0103056Y0201494D01*
X0103056Y0199895D02*
X0075450Y0199895D01*
X0075450Y0198297D02*
X0103056Y0198297D01*
X0103056Y0196698D02*
X0075450Y0196698D01*
X0075450Y0195100D02*
X0103056Y0195100D01*
X0103056Y0193501D02*
X0075450Y0193501D01*
X0075450Y0191903D02*
X0103056Y0191903D01*
X0103056Y0190304D02*
X0075450Y0190304D01*
X0075450Y0188706D02*
X0103056Y0188706D01*
X0103056Y0187107D02*
X0075450Y0187107D01*
X0075450Y0185509D02*
X0103056Y0185509D01*
X0103056Y0183910D02*
X0094382Y0183910D01*
X0094600Y0182312D02*
X0117894Y0182312D01*
X0116296Y0183910D02*
X0111756Y0183910D01*
X0111756Y0185509D02*
X0114697Y0185509D01*
X0113099Y0187107D02*
X0111756Y0187107D01*
X0123200Y0191903D02*
X0131649Y0191903D01*
X0131644Y0193501D02*
X0123200Y0193501D01*
X0123200Y0195100D02*
X0131844Y0195100D01*
X0136032Y0197800D02*
X0136194Y0197961D01*
X0136361Y0197794D01*
X0148794Y0197794D01*
X0152769Y0196698D02*
X0153508Y0196698D01*
X0152769Y0195100D02*
X0155106Y0195100D01*
X0156705Y0193501D02*
X0140744Y0193501D01*
X0140544Y0195100D02*
X0144819Y0195100D01*
X0140544Y0187107D02*
X0158099Y0187107D01*
X0159697Y0185509D02*
X0140544Y0185509D01*
X0140544Y0183910D02*
X0161296Y0183910D01*
X0162894Y0182312D02*
X0124682Y0182312D01*
X0126281Y0180713D02*
X0164493Y0180713D01*
X0166091Y0179115D02*
X0127879Y0179115D01*
X0127800Y0175800D02*
X0133800Y0175800D01*
X0146507Y0163093D01*
X0146507Y0134030D01*
X0142151Y0134356D02*
X0097638Y0134356D01*
X0099236Y0132758D02*
X0142151Y0132758D01*
X0142194Y0131159D02*
X0100200Y0131159D01*
X0099884Y0129561D02*
X0142728Y0129561D01*
X0142151Y0127962D02*
X0098356Y0127962D01*
X0096758Y0126364D02*
X0142151Y0126364D01*
X0142151Y0124765D02*
X0097128Y0124765D01*
X0096090Y0123167D02*
X0142312Y0123167D01*
X0139800Y0118800D02*
X0139800Y0115356D01*
X0130830Y0106387D01*
X0129547Y0108780D02*
X0124200Y0108780D01*
X0124200Y0110379D02*
X0131145Y0110379D01*
X0133027Y0111977D02*
X0125775Y0111977D01*
X0125775Y0113576D02*
X0134625Y0113576D01*
X0136224Y0115174D02*
X0125775Y0115174D01*
X0125775Y0116773D02*
X0135825Y0116773D01*
X0135825Y0118371D02*
X0125283Y0118371D01*
X0121800Y0114842D02*
X0121800Y0107356D01*
X0122769Y0106387D01*
X0125652Y0107182D02*
X0127948Y0107182D01*
X0126800Y0104053D02*
X0128824Y0102029D01*
X0128824Y0102029D01*
X0130928Y0099926D01*
X0130928Y0099926D01*
X0133279Y0097574D01*
X0135471Y0095382D01*
X0137734Y0093120D01*
X0139926Y0090928D01*
X0142029Y0088824D01*
X0144053Y0086800D01*
X0142029Y0084776D01*
X0142029Y0084776D01*
X0139926Y0082672D01*
X0137851Y0080598D01*
X0137702Y0080558D01*
X0137291Y0080321D01*
X0136417Y0079446D01*
X0139740Y0076123D01*
X0139740Y0076123D01*
X0136417Y0079446D01*
X0135542Y0078571D01*
X0135305Y0078161D01*
X0135265Y0078012D01*
X0133120Y0075866D01*
X0131538Y0074284D01*
X0125614Y0080208D01*
X0125614Y0093126D01*
X0125248Y0094008D01*
X0124573Y0094683D01*
X0121143Y0098114D01*
X0121638Y0098609D01*
X0122513Y0099483D01*
X0122750Y0099894D01*
X0122790Y0100043D01*
X0124776Y0102029D01*
X0126800Y0104053D01*
X0126731Y0103985D02*
X0126869Y0103985D01*
X0128467Y0102386D02*
X0125133Y0102386D01*
X0124776Y0102029D02*
X0124776Y0102029D01*
X0123534Y0100788D02*
X0130066Y0100788D01*
X0131664Y0099189D02*
X0122219Y0099189D01*
X0121638Y0098609D02*
X0118315Y0101932D01*
X0118315Y0101932D01*
X0121638Y0098609D01*
X0121057Y0099189D02*
X0121058Y0099189D01*
X0121666Y0097591D02*
X0133263Y0097591D01*
X0134861Y0095992D02*
X0123265Y0095992D01*
X0124863Y0094394D02*
X0136460Y0094394D01*
X0138058Y0092795D02*
X0125614Y0092795D01*
X0125614Y0091197D02*
X0139657Y0091197D01*
X0139926Y0090928D02*
X0139926Y0090928D01*
X0141255Y0089598D02*
X0125614Y0089598D01*
X0125614Y0088000D02*
X0142854Y0088000D01*
X0142029Y0088824D02*
X0142029Y0088824D01*
X0143655Y0086401D02*
X0125614Y0086401D01*
X0125614Y0084803D02*
X0142056Y0084803D01*
X0140458Y0083204D02*
X0125614Y0083204D01*
X0125614Y0081606D02*
X0138859Y0081606D01*
X0139926Y0082672D02*
X0139926Y0082672D01*
X0136978Y0080007D02*
X0125815Y0080007D01*
X0127413Y0078409D02*
X0135448Y0078409D01*
X0137454Y0078409D02*
X0137454Y0078409D01*
X0139053Y0076810D02*
X0139053Y0076810D01*
X0139477Y0076123D02*
X0130800Y0084800D01*
X0129012Y0076810D02*
X0134063Y0076810D01*
X0132465Y0075212D02*
X0130610Y0075212D01*
X0135285Y0071668D02*
X0151800Y0055153D01*
X0151800Y0050800D01*
X0160800Y0041800D01*
X0165800Y0041800D01*
X0199800Y0075800D01*
X0199800Y0111800D01*
X0199758Y0111800D01*
X0197400Y0107825D02*
X0197200Y0107825D01*
X0197200Y0080323D01*
X0196835Y0079441D01*
X0196159Y0078765D01*
X0176159Y0058765D01*
X0175277Y0058400D01*
X0166491Y0058400D01*
X0163098Y0055007D01*
X0163637Y0054468D01*
X0163637Y0053837D01*
X0164042Y0053837D01*
X0164500Y0053715D01*
X0164910Y0053478D01*
X0166528Y0051861D01*
X0163452Y0048785D01*
X0164088Y0048148D01*
X0167164Y0051224D01*
X0168781Y0049607D01*
X0169018Y0049197D01*
X0169141Y0048739D01*
X0169141Y0048535D01*
X0197400Y0076794D01*
X0197400Y0107825D01*
X0197400Y0107182D02*
X0197200Y0107182D01*
X0197200Y0105583D02*
X0197400Y0105583D01*
X0197400Y0103985D02*
X0197200Y0103985D01*
X0197200Y0102386D02*
X0197400Y0102386D01*
X0197400Y0100788D02*
X0197200Y0100788D01*
X0197200Y0099189D02*
X0197400Y0099189D01*
X0197400Y0097591D02*
X0197200Y0097591D01*
X0197200Y0095992D02*
X0197400Y0095992D01*
X0197400Y0094394D02*
X0197200Y0094394D01*
X0197200Y0092795D02*
X0197400Y0092795D01*
X0197400Y0091197D02*
X0197200Y0091197D01*
X0197200Y0089598D02*
X0197400Y0089598D01*
X0197400Y0088000D02*
X0197200Y0088000D01*
X0197200Y0086401D02*
X0197400Y0086401D01*
X0197400Y0084803D02*
X0197200Y0084803D01*
X0197200Y0083204D02*
X0197400Y0083204D01*
X0197400Y0081606D02*
X0197200Y0081606D01*
X0197069Y0080007D02*
X0197400Y0080007D01*
X0197400Y0078409D02*
X0195803Y0078409D01*
X0197400Y0076810D02*
X0194204Y0076810D01*
X0192606Y0075212D02*
X0195817Y0075212D01*
X0194219Y0073613D02*
X0191007Y0073613D01*
X0189409Y0072015D02*
X0192620Y0072015D01*
X0191022Y0070416D02*
X0187810Y0070416D01*
X0186212Y0068817D02*
X0189423Y0068817D01*
X0187825Y0067219D02*
X0184613Y0067219D01*
X0183015Y0065620D02*
X0186226Y0065620D01*
X0184628Y0064022D02*
X0181416Y0064022D01*
X0179818Y0062423D02*
X0183029Y0062423D01*
X0181431Y0060825D02*
X0178219Y0060825D01*
X0176621Y0059226D02*
X0179832Y0059226D01*
X0178234Y0057628D02*
X0165719Y0057628D01*
X0164120Y0056029D02*
X0176635Y0056029D01*
X0175037Y0054431D02*
X0163637Y0054431D01*
X0165556Y0052832D02*
X0173438Y0052832D01*
X0171840Y0051234D02*
X0165901Y0051234D01*
X0165575Y0049635D02*
X0164302Y0049635D01*
X0168753Y0049635D02*
X0170241Y0049635D01*
X0174800Y0060800D02*
X0165497Y0060800D01*
X0158148Y0053452D01*
X0150886Y0060452D01*
X0137477Y0073860D01*
X0139477Y0076123D02*
X0139740Y0076123D01*
X0143063Y0072799D01*
X0139740Y0076123D01*
X0139740Y0076123D01*
X0140651Y0075212D02*
X0140651Y0075212D01*
X0142250Y0073613D02*
X0142250Y0073613D01*
X0143063Y0072799D02*
X0142498Y0072234D01*
X0152567Y0062164D01*
X0156893Y0057995D01*
X0157839Y0058941D01*
X0159165Y0058941D01*
X0159704Y0058401D01*
X0162703Y0061400D01*
X0155969Y0061400D01*
X0155087Y0061765D01*
X0154412Y0062441D01*
X0143558Y0073294D01*
X0143063Y0072799D01*
X0142717Y0072015D02*
X0144838Y0072015D01*
X0144315Y0070416D02*
X0146437Y0070416D01*
X0145914Y0068817D02*
X0148035Y0068817D01*
X0147512Y0067219D02*
X0149634Y0067219D01*
X0149111Y0065620D02*
X0151232Y0065620D01*
X0150709Y0064022D02*
X0152831Y0064022D01*
X0152308Y0062423D02*
X0154429Y0062423D01*
X0153957Y0060825D02*
X0162128Y0060825D01*
X0160529Y0059226D02*
X0155615Y0059226D01*
X0156447Y0063800D02*
X0171800Y0063800D01*
X0189800Y0081800D01*
X0189800Y0121800D01*
X0194800Y0131800D02*
X0194800Y0080800D01*
X0174800Y0060800D01*
X0167800Y0068800D02*
X0167333Y0068800D01*
X0155972Y0068800D01*
X0144195Y0080577D01*
X0146387Y0082769D02*
X0154356Y0074800D01*
X0160800Y0074800D01*
X0156447Y0063800D02*
X0141932Y0078315D01*
X0133023Y0069405D02*
X0146800Y0055628D01*
X0146800Y0049800D01*
X0141800Y0056244D02*
X0141800Y0042800D01*
X0142800Y0041800D01*
X0150800Y0041800D01*
X0157800Y0034800D01*
X0160800Y0037800D01*
X0167800Y0037800D01*
X0204800Y0074800D01*
X0204800Y0151800D01*
X0211200Y0151940D02*
X0217400Y0151940D01*
X0217400Y0150342D02*
X0211200Y0150342D01*
X0211200Y0148743D02*
X0217400Y0148743D01*
X0217400Y0147145D02*
X0211200Y0147145D01*
X0211200Y0145546D02*
X0216534Y0145546D01*
X0215825Y0143948D02*
X0211200Y0143948D01*
X0211200Y0142349D02*
X0215825Y0142349D01*
X0215825Y0140750D02*
X0211200Y0140750D01*
X0211200Y0139152D02*
X0215825Y0139152D01*
X0223775Y0143948D02*
X0226953Y0143948D01*
X0228051Y0145546D02*
X0223066Y0145546D01*
X0222200Y0147145D02*
X0229190Y0147145D01*
X0227362Y0148743D02*
X0222200Y0148743D01*
X0222200Y0150342D02*
X0226667Y0150342D01*
X0226500Y0151940D02*
X0222200Y0151940D01*
X0222200Y0153539D02*
X0226783Y0153539D01*
X0227642Y0155137D02*
X0222200Y0155137D01*
X0222200Y0156736D02*
X0229866Y0156736D01*
X0233734Y0156736D02*
X0244921Y0156736D01*
X0244921Y0158334D02*
X0221660Y0158334D01*
X0220061Y0159933D02*
X0227825Y0159933D01*
X0227825Y0161531D02*
X0218463Y0161531D01*
X0216864Y0163130D02*
X0227825Y0163130D01*
X0227478Y0164728D02*
X0215266Y0164728D01*
X0213667Y0166327D02*
X0225879Y0166327D01*
X0224281Y0167925D02*
X0212069Y0167925D01*
X0210470Y0169524D02*
X0222682Y0169524D01*
X0221084Y0171122D02*
X0209200Y0171122D01*
X0209200Y0172721D02*
X0219649Y0172721D01*
X0219400Y0174319D02*
X0211400Y0174319D01*
X0211400Y0175918D02*
X0219400Y0175918D01*
X0219400Y0177516D02*
X0211400Y0177516D01*
X0211400Y0179115D02*
X0219400Y0179115D01*
X0219400Y0180713D02*
X0211009Y0180713D01*
X0211600Y0182312D02*
X0219400Y0182312D01*
X0219400Y0183910D02*
X0211600Y0183910D01*
X0211600Y0185000D02*
X0211600Y0187287D01*
X0211477Y0187745D01*
X0211240Y0188155D01*
X0210905Y0188490D01*
X0210495Y0188727D01*
X0210037Y0188850D01*
X0207250Y0188850D01*
X0207250Y0185000D01*
X0211600Y0185000D01*
X0211600Y0185509D02*
X0219400Y0185509D01*
X0219400Y0187107D02*
X0211600Y0187107D01*
X0210532Y0188706D02*
X0219400Y0188706D01*
X0217444Y0190304D02*
X0211156Y0190304D01*
X0211156Y0191903D02*
X0217444Y0191903D01*
X0217444Y0193501D02*
X0211156Y0193501D01*
X0211156Y0195100D02*
X0217444Y0195100D01*
X0217444Y0198297D02*
X0211156Y0198297D01*
X0211156Y0197909D02*
X0211156Y0203565D01*
X0210421Y0204300D01*
X0210762Y0204641D01*
X0210762Y0210691D01*
X0209825Y0211628D01*
X0203775Y0211628D01*
X0202838Y0210691D01*
X0202838Y0204641D01*
X0203179Y0204300D01*
X0202444Y0203565D01*
X0202444Y0197909D01*
X0203381Y0196972D01*
X0210219Y0196972D01*
X0211156Y0197909D01*
X0211156Y0199895D02*
X0217444Y0199895D01*
X0217444Y0201494D02*
X0211156Y0201494D01*
X0211156Y0203092D02*
X0217444Y0203092D01*
X0217838Y0204691D02*
X0210762Y0204691D01*
X0210762Y0206289D02*
X0217838Y0206289D01*
X0217838Y0207888D02*
X0210762Y0207888D01*
X0210762Y0209486D02*
X0217838Y0209486D01*
X0218232Y0211085D02*
X0210368Y0211085D01*
X0210537Y0212684D02*
X0217872Y0212684D01*
X0217638Y0214282D02*
X0210762Y0214282D01*
X0210762Y0215881D02*
X0221419Y0215881D01*
X0222181Y0215881D02*
X0229838Y0215881D01*
X0229838Y0214282D02*
X0225962Y0214282D01*
X0225962Y0213335D02*
X0225962Y0215553D01*
X0222181Y0215553D01*
X0222181Y0211772D01*
X0224399Y0211772D01*
X0224857Y0211894D01*
X0225267Y0212131D01*
X0225603Y0212466D01*
X0225840Y0212877D01*
X0225962Y0213335D01*
X0225728Y0212684D02*
X0230063Y0212684D01*
X0229969Y0211085D02*
X0225368Y0211085D01*
X0225762Y0209486D02*
X0229638Y0209486D01*
X0233419Y0209486D02*
X0234181Y0209486D01*
X0234181Y0211085D02*
X0233419Y0211085D01*
X0233419Y0206289D02*
X0234181Y0206289D01*
X0234181Y0204691D02*
X0233419Y0204691D01*
X0237861Y0204691D02*
X0244921Y0204691D01*
X0244921Y0206289D02*
X0237962Y0206289D01*
X0228861Y0217479D02*
X0225962Y0217479D01*
X0225789Y0219078D02*
X0227262Y0219078D01*
X0230853Y0222275D02*
X0244921Y0222275D01*
X0244921Y0223873D02*
X0229255Y0223873D01*
X0227656Y0225472D02*
X0244921Y0225472D01*
X0244921Y0227070D02*
X0226058Y0227070D01*
X0224459Y0228669D02*
X0244921Y0228669D01*
X0244921Y0230267D02*
X0204454Y0230267D01*
X0204502Y0223873D02*
X0222467Y0223873D01*
X0222181Y0219078D02*
X0221419Y0219078D01*
X0221419Y0217479D02*
X0222181Y0217479D01*
X0222181Y0214282D02*
X0221419Y0214282D01*
X0221419Y0212684D02*
X0222181Y0212684D01*
X0221800Y0207666D02*
X0221800Y0200737D01*
X0221800Y0192863D02*
X0221800Y0173800D01*
X0231800Y0163800D01*
X0231800Y0162800D01*
X0235775Y0163130D02*
X0244921Y0163130D01*
X0244921Y0164728D02*
X0235775Y0164728D01*
X0235286Y0166327D02*
X0244921Y0166327D01*
X0244921Y0167925D02*
X0231069Y0167925D01*
X0229470Y0169524D02*
X0244921Y0169524D01*
X0244921Y0171122D02*
X0227872Y0171122D01*
X0226273Y0172721D02*
X0244921Y0172721D01*
X0244921Y0174319D02*
X0224675Y0174319D01*
X0224200Y0175918D02*
X0244921Y0175918D01*
X0244921Y0177516D02*
X0224200Y0177516D01*
X0224200Y0179115D02*
X0244921Y0179115D01*
X0244921Y0180713D02*
X0224200Y0180713D01*
X0224200Y0182312D02*
X0244921Y0182312D01*
X0244921Y0183910D02*
X0224200Y0183910D01*
X0224200Y0185509D02*
X0244921Y0185509D01*
X0244921Y0187107D02*
X0224200Y0187107D01*
X0224200Y0188706D02*
X0244921Y0188706D01*
X0244921Y0190304D02*
X0226156Y0190304D01*
X0226156Y0191903D02*
X0244921Y0191903D01*
X0244921Y0193501D02*
X0226156Y0193501D01*
X0206800Y0192863D02*
X0198984Y0192863D01*
X0199819Y0190304D02*
X0202444Y0190304D01*
X0203068Y0188706D02*
X0198221Y0188706D01*
X0196622Y0187107D02*
X0202000Y0187107D01*
X0202000Y0185509D02*
X0166485Y0185509D01*
X0168084Y0183910D02*
X0202000Y0183910D01*
X0202000Y0182312D02*
X0169682Y0182312D01*
X0171281Y0180713D02*
X0202591Y0180713D01*
X0206350Y0185509D02*
X0207250Y0185509D01*
X0207250Y0187107D02*
X0206350Y0187107D01*
X0206350Y0188706D02*
X0207250Y0188706D01*
X0202444Y0198297D02*
X0196156Y0198297D01*
X0196156Y0197909D02*
X0196156Y0203565D01*
X0195421Y0204300D01*
X0195762Y0204641D01*
X0195762Y0210691D01*
X0194825Y0211628D01*
X0188775Y0211628D01*
X0187838Y0210691D01*
X0187838Y0204641D01*
X0188179Y0204300D01*
X0187444Y0203565D01*
X0187444Y0197909D01*
X0188381Y0196972D01*
X0195219Y0196972D01*
X0196156Y0197909D01*
X0196156Y0199895D02*
X0202444Y0199895D01*
X0202444Y0201494D02*
X0196156Y0201494D01*
X0196156Y0203092D02*
X0202444Y0203092D01*
X0202838Y0204691D02*
X0195762Y0204691D01*
X0195762Y0206289D02*
X0202838Y0206289D01*
X0202838Y0207888D02*
X0195762Y0207888D01*
X0195762Y0209486D02*
X0202838Y0209486D01*
X0203232Y0211085D02*
X0195368Y0211085D01*
X0195537Y0212684D02*
X0203063Y0212684D01*
X0206800Y0207666D02*
X0206800Y0200737D01*
X0191800Y0200737D02*
X0191800Y0207666D01*
X0187838Y0207888D02*
X0180600Y0207888D01*
X0180600Y0206600D02*
X0176250Y0206600D01*
X0176250Y0202750D01*
X0179037Y0202750D01*
X0179495Y0202873D01*
X0179905Y0203110D01*
X0180240Y0203445D01*
X0180477Y0203855D01*
X0180600Y0204313D01*
X0180600Y0206600D01*
X0180600Y0206289D02*
X0187838Y0206289D01*
X0187838Y0204691D02*
X0180600Y0204691D01*
X0179875Y0203092D02*
X0187444Y0203092D01*
X0187444Y0201494D02*
X0160500Y0201494D01*
X0158902Y0203092D02*
X0171725Y0203092D01*
X0171695Y0203110D02*
X0172105Y0202873D01*
X0172563Y0202750D01*
X0175350Y0202750D01*
X0175350Y0206600D01*
X0171000Y0206600D01*
X0171000Y0204313D01*
X0171123Y0203855D01*
X0171360Y0203445D01*
X0171695Y0203110D01*
X0171000Y0204691D02*
X0169553Y0204691D01*
X0169553Y0206289D02*
X0171000Y0206289D01*
X0175350Y0206289D02*
X0176250Y0206289D01*
X0176250Y0204691D02*
X0175350Y0204691D01*
X0175350Y0203092D02*
X0176250Y0203092D01*
X0180600Y0209486D02*
X0187838Y0209486D01*
X0188232Y0211085D02*
X0180098Y0211085D01*
X0180400Y0212684D02*
X0188063Y0212684D01*
X0187838Y0214282D02*
X0180400Y0214282D01*
X0180400Y0215881D02*
X0187838Y0215881D01*
X0187838Y0217479D02*
X0180400Y0217479D01*
X0181727Y0230267D02*
X0189146Y0230267D01*
X0196580Y0230267D02*
X0197020Y0230267D01*
X0196972Y0228669D02*
X0196628Y0228669D01*
X0180128Y0231866D02*
X0244921Y0231866D01*
X0244921Y0233464D02*
X0178530Y0233464D01*
X0176609Y0235063D02*
X0244921Y0235063D01*
X0244921Y0236661D02*
X0152951Y0236661D01*
X0146649Y0236661D02*
X0144660Y0236661D01*
X0144660Y0235063D02*
X0145825Y0235063D01*
X0145825Y0233464D02*
X0144660Y0233464D01*
X0144660Y0231866D02*
X0145825Y0231866D01*
X0145825Y0230267D02*
X0144660Y0230267D01*
X0144660Y0238260D02*
X0244921Y0238260D01*
X0244921Y0239858D02*
X0136543Y0239858D01*
X0137205Y0241457D02*
X0244921Y0241457D01*
X0244921Y0243055D02*
X0137230Y0243055D01*
X0137046Y0244654D02*
X0244921Y0244654D01*
X0244921Y0246252D02*
X0136384Y0246252D01*
X0135046Y0247851D02*
X0244921Y0247851D01*
X0244921Y0249449D02*
X0144660Y0249449D01*
X0144660Y0251048D02*
X0244921Y0251048D01*
X0244921Y0252646D02*
X0144660Y0252646D01*
X0144660Y0254245D02*
X0244921Y0254245D01*
X0244921Y0255843D02*
X0144660Y0255843D01*
X0144660Y0257442D02*
X0244921Y0257442D01*
X0244921Y0220676D02*
X0232452Y0220676D01*
X0217811Y0219078D02*
X0210643Y0219078D01*
X0210762Y0217479D02*
X0217638Y0217479D01*
X0202200Y0174319D02*
X0138675Y0174319D01*
X0140273Y0172721D02*
X0204400Y0172721D01*
X0204400Y0171122D02*
X0141872Y0171122D01*
X0143470Y0169524D02*
X0204400Y0169524D01*
X0205281Y0167925D02*
X0162054Y0167925D01*
X0164402Y0166327D02*
X0206879Y0166327D01*
X0208478Y0164728D02*
X0165526Y0164728D01*
X0166188Y0163130D02*
X0210076Y0163130D01*
X0211675Y0161531D02*
X0166195Y0161531D01*
X0165966Y0159933D02*
X0213273Y0159933D01*
X0214872Y0158334D02*
X0165303Y0158334D01*
X0159595Y0154800D02*
X0159595Y0121858D01*
X0137477Y0099740D01*
X0139740Y0097477D02*
X0164800Y0122537D01*
X0164800Y0122800D01*
X0163800Y0113800D02*
X0160447Y0113800D01*
X0141932Y0095285D01*
X0144195Y0093023D02*
X0157972Y0106800D01*
X0162800Y0106800D01*
X0162800Y0099800D02*
X0155356Y0099800D01*
X0146387Y0090830D01*
X0133195Y0104195D02*
X0133023Y0104195D01*
X0120577Y0104195D02*
X0113972Y0110800D01*
X0113800Y0110800D01*
X0117788Y0110379D02*
X0119400Y0110379D01*
X0117825Y0111977D02*
X0117775Y0111977D01*
X0117775Y0113576D02*
X0117825Y0113576D01*
X0117825Y0115174D02*
X0104083Y0115174D01*
X0105681Y0113576D02*
X0109825Y0113576D01*
X0109825Y0111977D02*
X0107280Y0111977D01*
X0108878Y0110379D02*
X0109825Y0110379D01*
X0112432Y0106825D02*
X0114553Y0106825D01*
X0115557Y0105821D01*
X0114991Y0105255D01*
X0114496Y0104760D01*
X0112432Y0106825D01*
X0113674Y0105583D02*
X0115319Y0105583D01*
X0114991Y0105255D02*
X0118315Y0101932D01*
X0118315Y0101932D01*
X0114991Y0105255D01*
X0116262Y0103985D02*
X0116262Y0103985D01*
X0117860Y0102386D02*
X0117861Y0102386D01*
X0119459Y0100788D02*
X0119459Y0100788D01*
X0116123Y0099740D02*
X0091631Y0124232D01*
X0091631Y0124969D01*
X0091969Y0124969D01*
X0097800Y0130800D01*
X0076800Y0151800D01*
X0075842Y0151800D01*
X0077381Y0147825D02*
X0073200Y0147825D01*
X0073200Y0114254D01*
X0073208Y0114233D01*
X0073200Y0113778D01*
X0073200Y0113323D01*
X0073191Y0113301D01*
X0073082Y0107363D01*
X0084696Y0107363D01*
X0087148Y0109815D01*
X0086512Y0110452D01*
X0083436Y0107376D01*
X0081819Y0108993D01*
X0081582Y0109403D01*
X0081459Y0109861D01*
X0081459Y0110335D01*
X0081582Y0110793D01*
X0081819Y0111203D01*
X0083399Y0112784D01*
X0077762Y0112784D01*
X0076825Y0113721D01*
X0076825Y0119796D01*
X0077762Y0120733D01*
X0083838Y0120733D01*
X0084775Y0119796D01*
X0084775Y0118341D01*
X0092137Y0118341D01*
X0093019Y0117975D01*
X0093694Y0117300D01*
X0093694Y0117300D01*
X0100835Y0110159D01*
X0101200Y0109277D01*
X0101200Y0104622D01*
X0107920Y0097902D01*
X0109385Y0099366D01*
X0109425Y0099516D01*
X0109662Y0099926D01*
X0110537Y0100801D01*
X0113860Y0097477D01*
X0113860Y0097477D01*
X0117183Y0094154D01*
X0116512Y0093482D01*
X0119835Y0090159D01*
X0120200Y0089277D01*
X0120200Y0085622D01*
X0120814Y0085008D01*
X0120814Y0091655D01*
X0117749Y0094720D01*
X0117183Y0094154D01*
X0113860Y0097477D01*
X0110537Y0100801D01*
X0111102Y0101366D01*
X0092506Y0119963D01*
X0092015Y0119472D01*
X0090690Y0119472D01*
X0086133Y0124028D01*
X0086133Y0124071D01*
X0085925Y0124127D01*
X0085515Y0124364D01*
X0083877Y0126002D01*
X0086898Y0129024D01*
X0086220Y0129702D01*
X0083477Y0132445D01*
X0081560Y0130529D01*
X0081323Y0130118D01*
X0081201Y0129660D01*
X0081201Y0129186D01*
X0081323Y0128729D01*
X0081560Y0128318D01*
X0083198Y0126680D01*
X0086220Y0129702D01*
X0086898Y0130380D01*
X0084155Y0133123D01*
X0086071Y0135040D01*
X0086482Y0135277D01*
X0086940Y0135399D01*
X0087413Y0135399D01*
X0087871Y0135277D01*
X0088282Y0135040D01*
X0089920Y0133402D01*
X0086898Y0130380D01*
X0087576Y0129702D01*
X0090598Y0132723D01*
X0092236Y0131085D01*
X0092473Y0130675D01*
X0092529Y0130467D01*
X0092572Y0130467D01*
X0093322Y0129716D01*
X0094406Y0130800D01*
X0077381Y0147825D01*
X0078061Y0147145D02*
X0073200Y0147145D01*
X0073200Y0145546D02*
X0079660Y0145546D01*
X0081258Y0143948D02*
X0073200Y0143948D01*
X0073200Y0142349D02*
X0082857Y0142349D01*
X0084455Y0140750D02*
X0073200Y0140750D01*
X0073200Y0139152D02*
X0086054Y0139152D01*
X0087652Y0137553D02*
X0073200Y0137553D01*
X0073200Y0135955D02*
X0089251Y0135955D01*
X0088965Y0134356D02*
X0090849Y0134356D01*
X0089276Y0132758D02*
X0092448Y0132758D01*
X0092162Y0131159D02*
X0094046Y0131159D01*
X0089034Y0131159D02*
X0087678Y0131159D01*
X0086119Y0131159D02*
X0084762Y0131159D01*
X0084520Y0132758D02*
X0073200Y0132758D01*
X0073200Y0134356D02*
X0085388Y0134356D01*
X0082191Y0131159D02*
X0073200Y0131159D01*
X0073200Y0129561D02*
X0081201Y0129561D01*
X0081916Y0127962D02*
X0073200Y0127962D01*
X0073200Y0126364D02*
X0084238Y0126364D01*
X0084481Y0127962D02*
X0085837Y0127962D01*
X0086079Y0129561D02*
X0086361Y0129561D01*
X0085113Y0124765D02*
X0073200Y0124765D01*
X0073200Y0123167D02*
X0086995Y0123167D01*
X0088593Y0121568D02*
X0073200Y0121568D01*
X0073200Y0119970D02*
X0076999Y0119970D01*
X0076825Y0118371D02*
X0073200Y0118371D01*
X0073200Y0116773D02*
X0076825Y0116773D01*
X0076825Y0115174D02*
X0073200Y0115174D01*
X0073200Y0113576D02*
X0076970Y0113576D01*
X0073167Y0111977D02*
X0082593Y0111977D01*
X0081471Y0110379D02*
X0073137Y0110379D01*
X0073108Y0108780D02*
X0082031Y0108780D01*
X0084841Y0108780D02*
X0086113Y0108780D01*
X0086439Y0110379D02*
X0086585Y0110379D01*
X0087643Y0105148D02*
X0087458Y0104963D01*
X0070637Y0104963D01*
X0070800Y0113800D01*
X0070800Y0161800D01*
X0067254Y0158334D02*
X0065179Y0158334D01*
X0064067Y0156736D02*
X0068400Y0156736D01*
X0068400Y0155137D02*
X0062468Y0155137D01*
X0060870Y0153539D02*
X0068400Y0153539D01*
X0068400Y0151940D02*
X0059271Y0151940D01*
X0057673Y0150342D02*
X0068400Y0150342D01*
X0068400Y0148743D02*
X0056074Y0148743D01*
X0055800Y0144800D02*
X0056300Y0144300D01*
X0061800Y0138800D01*
X0061800Y0025800D01*
X0077806Y0009794D01*
X0098806Y0009794D01*
X0102781Y0009673D02*
X0149533Y0009673D01*
X0147935Y0011271D02*
X0102781Y0011271D01*
X0102743Y0012870D02*
X0146588Y0012870D01*
X0146400Y0014468D02*
X0076526Y0014468D01*
X0078125Y0012870D02*
X0094870Y0012870D01*
X0099825Y0019264D02*
X0071730Y0019264D01*
X0070132Y0020862D02*
X0099825Y0020862D01*
X0099825Y0022461D02*
X0068533Y0022461D01*
X0066935Y0024059D02*
X0099825Y0024059D01*
X0100645Y0025658D02*
X0065336Y0025658D01*
X0064200Y0027256D02*
X0101400Y0027256D01*
X0101400Y0028855D02*
X0080775Y0028855D01*
X0080775Y0030453D02*
X0101400Y0030453D01*
X0101400Y0032052D02*
X0082093Y0032052D01*
X0083691Y0033650D02*
X0101400Y0033650D01*
X0101400Y0035249D02*
X0085290Y0035249D01*
X0086888Y0036847D02*
X0092740Y0036847D01*
X0091825Y0038446D02*
X0088487Y0038446D01*
X0090085Y0040044D02*
X0091825Y0040044D01*
X0091825Y0041643D02*
X0091684Y0041643D01*
X0095800Y0040800D02*
X0095800Y0044628D01*
X0120577Y0069405D01*
X0122769Y0067213D02*
X0103800Y0048244D01*
X0103800Y0021800D01*
X0107775Y0022461D02*
X0116500Y0022461D01*
X0116500Y0020862D02*
X0107775Y0020862D01*
X0107775Y0019264D02*
X0117114Y0019264D01*
X0118440Y0017665D02*
X0073329Y0017665D01*
X0074927Y0016067D02*
X0146400Y0016067D01*
X0146400Y0017665D02*
X0145160Y0017665D01*
X0148800Y0013800D02*
X0148800Y0036895D01*
X0148746Y0036842D01*
X0144771Y0036847D02*
X0144009Y0036847D01*
X0144771Y0038446D02*
X0134200Y0038446D01*
X0134200Y0040044D02*
X0141162Y0040044D01*
X0139682Y0041643D02*
X0134200Y0041643D01*
X0134200Y0043241D02*
X0139400Y0043241D01*
X0139400Y0044840D02*
X0134200Y0044840D01*
X0134200Y0046438D02*
X0139400Y0046438D01*
X0139400Y0048037D02*
X0135049Y0048037D01*
X0135775Y0049635D02*
X0139400Y0049635D01*
X0139400Y0051234D02*
X0135775Y0051234D01*
X0135775Y0052832D02*
X0139400Y0052832D01*
X0139400Y0054431D02*
X0135775Y0054431D01*
X0138620Y0056029D02*
X0114980Y0056029D01*
X0113381Y0054431D02*
X0127825Y0054431D01*
X0127825Y0052832D02*
X0111783Y0052832D01*
X0110184Y0051234D02*
X0127825Y0051234D01*
X0127825Y0049635D02*
X0108586Y0049635D01*
X0106987Y0048037D02*
X0128551Y0048037D01*
X0129400Y0046438D02*
X0106200Y0046438D01*
X0106200Y0044840D02*
X0129400Y0044840D01*
X0129400Y0043241D02*
X0106200Y0043241D01*
X0106200Y0041643D02*
X0129400Y0041643D01*
X0129400Y0040044D02*
X0106200Y0040044D01*
X0106200Y0038446D02*
X0129400Y0038446D01*
X0129400Y0036847D02*
X0123464Y0036847D01*
X0125847Y0035249D02*
X0127753Y0035249D01*
X0126830Y0033650D02*
X0126770Y0033650D01*
X0131800Y0031800D02*
X0131800Y0051800D01*
X0137022Y0057628D02*
X0116578Y0057628D01*
X0118177Y0059226D02*
X0135423Y0059226D01*
X0133825Y0060825D02*
X0119775Y0060825D01*
X0121374Y0062423D02*
X0132226Y0062423D01*
X0130345Y0064022D02*
X0123255Y0064022D01*
X0124854Y0065620D02*
X0128746Y0065620D01*
X0127148Y0067219D02*
X0126452Y0067219D01*
X0130830Y0067213D02*
X0141800Y0056244D01*
X0133023Y0069405D02*
X0123214Y0079214D01*
X0123214Y0092649D01*
X0116123Y0099740D01*
X0113860Y0097477D02*
X0113860Y0097477D01*
X0113747Y0097591D02*
X0113746Y0097591D01*
X0112148Y0099189D02*
X0112148Y0099189D01*
X0110550Y0100788D02*
X0110549Y0100788D01*
X0110524Y0100788D02*
X0105034Y0100788D01*
X0103436Y0102386D02*
X0110082Y0102386D01*
X0108484Y0103985D02*
X0101837Y0103985D01*
X0101200Y0105583D02*
X0106885Y0105583D01*
X0105287Y0107182D02*
X0101200Y0107182D01*
X0101200Y0108780D02*
X0103688Y0108780D01*
X0102090Y0110379D02*
X0100615Y0110379D01*
X0100491Y0111977D02*
X0099017Y0111977D01*
X0098893Y0113576D02*
X0097418Y0113576D01*
X0097294Y0115174D02*
X0095820Y0115174D01*
X0095696Y0116773D02*
X0094221Y0116773D01*
X0094097Y0118371D02*
X0084775Y0118371D01*
X0084601Y0119970D02*
X0090192Y0119970D01*
X0091659Y0115941D02*
X0081618Y0115941D01*
X0080800Y0116758D01*
X0091659Y0115941D02*
X0098800Y0108800D01*
X0098800Y0103628D01*
X0109405Y0093023D01*
X0111668Y0094932D02*
X0111668Y0095285D01*
X0111668Y0094932D02*
X0117800Y0088800D01*
X0117800Y0084628D01*
X0123214Y0079214D01*
X0116123Y0073860D02*
X0084063Y0041800D01*
X0074800Y0041800D01*
X0070825Y0041643D02*
X0064200Y0041643D01*
X0064200Y0043241D02*
X0070825Y0043241D01*
X0070827Y0044840D02*
X0064200Y0044840D01*
X0064200Y0046438D02*
X0085307Y0046438D01*
X0083708Y0044840D02*
X0078773Y0044840D01*
X0078049Y0048037D02*
X0086905Y0048037D01*
X0089537Y0051800D02*
X0074800Y0051800D01*
X0070825Y0051234D02*
X0064200Y0051234D01*
X0064200Y0052832D02*
X0070825Y0052832D01*
X0070825Y0054431D02*
X0064200Y0054431D01*
X0064200Y0056029D02*
X0090373Y0056029D01*
X0091971Y0057628D02*
X0064200Y0057628D01*
X0064200Y0059226D02*
X0070825Y0059226D01*
X0070825Y0060825D02*
X0064200Y0060825D01*
X0064200Y0062423D02*
X0070825Y0062423D01*
X0070825Y0064022D02*
X0064200Y0064022D01*
X0064200Y0065620D02*
X0071608Y0065620D01*
X0074800Y0061800D02*
X0095153Y0061800D01*
X0111668Y0078315D01*
X0113860Y0076123D02*
X0089537Y0051800D01*
X0088774Y0054431D02*
X0078775Y0054431D01*
X0078775Y0059226D02*
X0093570Y0059226D01*
X0095580Y0065620D02*
X0077992Y0065620D01*
X0089825Y0068817D02*
X0064200Y0068817D01*
X0064200Y0067219D02*
X0097178Y0067219D01*
X0097775Y0068817D02*
X0098777Y0068817D01*
X0100628Y0071800D02*
X0093800Y0071800D01*
X0089825Y0072015D02*
X0064200Y0072015D01*
X0064200Y0073613D02*
X0089825Y0073613D01*
X0090199Y0075212D02*
X0064200Y0075212D01*
X0064200Y0076810D02*
X0102244Y0076810D01*
X0100645Y0075212D02*
X0097401Y0075212D01*
X0100628Y0071800D02*
X0109405Y0080577D01*
X0107213Y0082769D02*
X0105244Y0080800D01*
X0093800Y0080800D01*
X0097775Y0083204D02*
X0103971Y0083204D01*
X0105569Y0084803D02*
X0064200Y0084803D01*
X0064200Y0086401D02*
X0107168Y0086401D01*
X0106367Y0088000D02*
X0064200Y0088000D01*
X0064200Y0089598D02*
X0104769Y0089598D01*
X0103170Y0091197D02*
X0064200Y0091197D01*
X0064200Y0092795D02*
X0101854Y0092795D01*
X0100256Y0094394D02*
X0064200Y0094394D01*
X0064200Y0095992D02*
X0098657Y0095992D01*
X0097059Y0097591D02*
X0064200Y0097591D01*
X0064200Y0099189D02*
X0095460Y0099189D01*
X0090307Y0100788D02*
X0064200Y0100788D01*
X0064200Y0102386D02*
X0088708Y0102386D01*
X0087643Y0105148D02*
X0092452Y0105148D01*
X0092895Y0105148D01*
X0107213Y0090830D01*
X0106633Y0099189D02*
X0109208Y0099189D01*
X0115345Y0095992D02*
X0115345Y0095992D01*
X0116943Y0094394D02*
X0116944Y0094394D01*
X0117423Y0094394D02*
X0118075Y0094394D01*
X0117199Y0092795D02*
X0119673Y0092795D01*
X0118797Y0091197D02*
X0120814Y0091197D01*
X0120814Y0089598D02*
X0120067Y0089598D01*
X0120200Y0088000D02*
X0120814Y0088000D01*
X0120814Y0086401D02*
X0120200Y0086401D01*
X0118315Y0071668D02*
X0078447Y0031800D01*
X0076800Y0031800D01*
X0072825Y0032052D02*
X0064200Y0032052D01*
X0064200Y0033650D02*
X0072825Y0033650D01*
X0073236Y0035249D02*
X0064200Y0035249D01*
X0064200Y0036847D02*
X0080100Y0036847D01*
X0081698Y0038446D02*
X0078458Y0038446D01*
X0071142Y0038446D02*
X0064200Y0038446D01*
X0064200Y0040044D02*
X0070825Y0040044D01*
X0071551Y0048037D02*
X0064200Y0048037D01*
X0064200Y0049635D02*
X0070825Y0049635D01*
X0059400Y0049635D02*
X0026640Y0049635D01*
X0027100Y0051234D02*
X0059400Y0051234D01*
X0059400Y0052832D02*
X0027100Y0052832D01*
X0026447Y0054431D02*
X0059400Y0054431D01*
X0059400Y0056029D02*
X0025066Y0056029D01*
X0025123Y0057628D02*
X0059400Y0057628D01*
X0059400Y0059226D02*
X0026471Y0059226D01*
X0027100Y0060825D02*
X0059400Y0060825D01*
X0059400Y0062423D02*
X0027100Y0062423D01*
X0026616Y0064022D02*
X0059400Y0064022D01*
X0059400Y0065620D02*
X0025475Y0065620D01*
X0024590Y0067219D02*
X0059400Y0067219D01*
X0059400Y0068817D02*
X0026301Y0068817D01*
X0026963Y0070416D02*
X0059400Y0070416D01*
X0059400Y0072015D02*
X0027100Y0072015D01*
X0026786Y0073613D02*
X0059400Y0073613D01*
X0059400Y0075212D02*
X0025884Y0075212D01*
X0023603Y0076810D02*
X0059400Y0076810D01*
X0059400Y0078409D02*
X0025904Y0078409D01*
X0026794Y0080007D02*
X0059400Y0080007D01*
X0059400Y0081606D02*
X0027100Y0081606D01*
X0026955Y0083204D02*
X0059400Y0083204D01*
X0059400Y0084803D02*
X0026293Y0084803D01*
X0024541Y0086401D02*
X0059400Y0086401D01*
X0059400Y0088000D02*
X0025495Y0088000D01*
X0026625Y0089598D02*
X0059400Y0089598D01*
X0059400Y0091197D02*
X0027100Y0091197D01*
X0027100Y0092795D02*
X0059400Y0092795D01*
X0059400Y0094394D02*
X0026462Y0094394D01*
X0025103Y0095992D02*
X0059400Y0095992D01*
X0059400Y0097591D02*
X0025086Y0097591D01*
X0026455Y0099189D02*
X0059400Y0099189D01*
X0059400Y0100788D02*
X0027100Y0100788D01*
X0027100Y0102386D02*
X0059400Y0102386D01*
X0059400Y0103985D02*
X0026632Y0103985D01*
X0025512Y0105583D02*
X0059400Y0105583D01*
X0059400Y0107182D02*
X0024500Y0107182D01*
X0026276Y0108780D02*
X0059400Y0108780D01*
X0059400Y0110379D02*
X0026948Y0110379D01*
X0027100Y0111977D02*
X0059400Y0111977D01*
X0059400Y0113576D02*
X0026801Y0113576D01*
X0025921Y0115174D02*
X0059400Y0115174D01*
X0059400Y0116773D02*
X0024048Y0116773D01*
X0026107Y0118371D02*
X0059400Y0118371D01*
X0059400Y0119970D02*
X0026988Y0119970D01*
X0027300Y0121568D02*
X0059400Y0121568D01*
X0059400Y0123167D02*
X0027139Y0123167D01*
X0026444Y0124765D02*
X0059400Y0124765D01*
X0059400Y0126364D02*
X0024875Y0126364D01*
X0025458Y0127962D02*
X0059400Y0127962D01*
X0059400Y0129561D02*
X0026609Y0129561D01*
X0027100Y0131159D02*
X0059400Y0131159D01*
X0059400Y0132758D02*
X0027100Y0132758D01*
X0026478Y0134356D02*
X0059400Y0134356D01*
X0059400Y0135955D02*
X0025140Y0135955D01*
X0025049Y0137553D02*
X0034926Y0137553D01*
X0040800Y0137553D02*
X0042800Y0137553D01*
X0041972Y0139152D02*
X0041628Y0139152D01*
X0041628Y0140750D02*
X0041972Y0140750D01*
X0041972Y0142349D02*
X0041628Y0142349D01*
X0041628Y0143948D02*
X0041972Y0143948D01*
X0042299Y0145546D02*
X0041301Y0145546D01*
X0048149Y0155137D02*
X0055680Y0155137D01*
X0056262Y0159338D02*
X0056262Y0167416D01*
X0053042Y0163130D02*
X0045990Y0163130D01*
X0044392Y0164728D02*
X0052208Y0164728D01*
X0052208Y0166327D02*
X0042793Y0166327D01*
X0041392Y0167925D02*
X0052208Y0167925D01*
X0052208Y0169524D02*
X0041392Y0169524D01*
X0041392Y0171122D02*
X0052208Y0171122D01*
X0052288Y0161531D02*
X0048775Y0161531D01*
X0048775Y0159933D02*
X0052288Y0159933D01*
X0052288Y0158334D02*
X0048775Y0158334D01*
X0048775Y0156736D02*
X0052288Y0156736D01*
X0044800Y0158800D02*
X0044800Y0160926D01*
X0037824Y0167902D01*
X0046000Y0183910D02*
X0047600Y0183910D01*
X0047600Y0185509D02*
X0046000Y0185509D01*
X0046000Y0187107D02*
X0047600Y0187107D01*
X0047600Y0188706D02*
X0046000Y0188706D01*
X0046000Y0190304D02*
X0047600Y0190304D01*
X0047600Y0191903D02*
X0046000Y0191903D01*
X0046000Y0193501D02*
X0047600Y0193501D01*
X0047600Y0198297D02*
X0046000Y0198297D01*
X0046000Y0199895D02*
X0047600Y0199895D01*
X0047600Y0201494D02*
X0046000Y0201494D01*
X0046000Y0203092D02*
X0047600Y0203092D01*
X0047600Y0204691D02*
X0046000Y0204691D01*
X0046000Y0206289D02*
X0047600Y0206289D01*
X0047600Y0207888D02*
X0046000Y0207888D01*
X0046000Y0209486D02*
X0047600Y0209486D01*
X0059230Y0204691D02*
X0060515Y0204691D01*
X0061400Y0203092D02*
X0059230Y0203092D01*
X0059230Y0201494D02*
X0061400Y0201494D01*
X0061400Y0199895D02*
X0059230Y0199895D01*
X0059230Y0198297D02*
X0061400Y0198297D01*
X0075450Y0183910D02*
X0085218Y0183910D01*
X0085000Y0182312D02*
X0075450Y0182312D01*
X0072281Y0167925D02*
X0066687Y0167925D01*
X0079069Y0167925D02*
X0091531Y0167925D01*
X0090055Y0166327D02*
X0080667Y0166327D01*
X0095193Y0158334D02*
X0098254Y0158334D01*
X0097825Y0159933D02*
X0096276Y0159933D01*
X0096650Y0161531D02*
X0097825Y0161531D01*
X0107464Y0171122D02*
X0135084Y0171122D01*
X0133485Y0172721D02*
X0107933Y0172721D01*
X0124690Y0190304D02*
X0131844Y0190304D01*
X0125323Y0195400D02*
X0124441Y0195765D01*
X0123765Y0196441D01*
X0123400Y0197323D01*
X0123400Y0202825D01*
X0123400Y0201494D02*
X0123200Y0201494D01*
X0123200Y0199895D02*
X0123400Y0199895D01*
X0123400Y0198297D02*
X0123200Y0198297D01*
X0123200Y0196698D02*
X0123659Y0196698D01*
X0125800Y0197800D02*
X0136032Y0197800D01*
X0135478Y0177516D02*
X0167690Y0177516D01*
X0169288Y0175918D02*
X0137076Y0175918D01*
X0134484Y0167925D02*
X0133525Y0167925D01*
X0133525Y0166327D02*
X0134484Y0166327D01*
X0134484Y0164728D02*
X0133525Y0164728D01*
X0133525Y0163130D02*
X0134484Y0163130D01*
X0140812Y0148800D02*
X0141306Y0148306D01*
X0144107Y0142349D02*
X0089645Y0142349D01*
X0091244Y0140750D02*
X0144107Y0140750D01*
X0144107Y0139152D02*
X0092842Y0139152D01*
X0094441Y0137553D02*
X0142847Y0137553D01*
X0142151Y0135955D02*
X0096039Y0135955D01*
X0097688Y0121568D02*
X0135825Y0121568D01*
X0135825Y0119970D02*
X0099287Y0119970D01*
X0100885Y0118371D02*
X0118317Y0118371D01*
X0117825Y0116773D02*
X0102484Y0116773D01*
X0089825Y0083204D02*
X0064200Y0083204D01*
X0064200Y0081606D02*
X0089825Y0081606D01*
X0089825Y0080007D02*
X0064200Y0080007D01*
X0064200Y0078409D02*
X0089825Y0078409D01*
X0089825Y0070416D02*
X0064200Y0070416D01*
X0059400Y0048037D02*
X0025532Y0048037D01*
X0024452Y0046438D02*
X0059400Y0046438D01*
X0059400Y0044840D02*
X0026255Y0044840D01*
X0026940Y0043241D02*
X0059400Y0043241D01*
X0059400Y0041643D02*
X0027100Y0041643D01*
X0026809Y0040044D02*
X0059400Y0040044D01*
X0059400Y0038446D02*
X0025941Y0038446D01*
X0023693Y0036847D02*
X0059400Y0036847D01*
X0059400Y0035249D02*
X0025847Y0035249D01*
X0026770Y0033650D02*
X0059400Y0033650D01*
X0059400Y0032052D02*
X0027100Y0032052D01*
X0026979Y0030453D02*
X0059400Y0030453D01*
X0059400Y0028855D02*
X0026317Y0028855D01*
X0024680Y0027256D02*
X0059400Y0027256D01*
X0059400Y0025658D02*
X0025438Y0025658D01*
X0026601Y0024059D02*
X0060147Y0024059D01*
X0061745Y0022461D02*
X0027100Y0022461D01*
X0027100Y0020862D02*
X0063344Y0020862D01*
X0064942Y0019264D02*
X0026486Y0019264D01*
X0025160Y0017665D02*
X0066541Y0017665D01*
X0068139Y0016067D02*
X0025029Y0016067D01*
X0026432Y0014468D02*
X0069738Y0014468D01*
X0071336Y0012870D02*
X0027094Y0012870D01*
X0027100Y0011271D02*
X0072935Y0011271D01*
X0074533Y0009673D02*
X0026655Y0009673D01*
X0025569Y0008074D02*
X0076132Y0008074D01*
X0072825Y0028855D02*
X0064200Y0028855D01*
X0064200Y0030453D02*
X0072825Y0030453D01*
X0098860Y0036847D02*
X0101400Y0036847D01*
X0101400Y0038446D02*
X0099775Y0038446D01*
X0099775Y0040044D02*
X0101400Y0040044D01*
X0101400Y0041643D02*
X0099775Y0041643D01*
X0099775Y0043241D02*
X0101400Y0043241D01*
X0101400Y0044840D02*
X0099406Y0044840D01*
X0101005Y0046438D02*
X0101400Y0046438D01*
X0106200Y0036847D02*
X0120136Y0036847D01*
X0117753Y0035249D02*
X0106200Y0035249D01*
X0106200Y0033650D02*
X0116830Y0033650D01*
X0116500Y0032052D02*
X0106200Y0032052D01*
X0106200Y0030453D02*
X0116621Y0030453D01*
X0117283Y0028855D02*
X0106200Y0028855D01*
X0106200Y0027256D02*
X0118920Y0027256D01*
X0118162Y0025658D02*
X0106955Y0025658D01*
X0107775Y0024059D02*
X0116999Y0024059D01*
X0125160Y0017665D02*
X0128440Y0017665D01*
X0127114Y0019264D02*
X0126486Y0019264D01*
X0135160Y0017665D02*
X0138440Y0017665D01*
X0137114Y0019264D02*
X0136486Y0019264D01*
X0148800Y0013800D02*
X0153800Y0008800D01*
X0174800Y0008800D01*
X0186800Y0020800D01*
X0186800Y0027863D01*
X0192680Y0027863D01*
X0192680Y0035160D01*
X0200000Y0035160D01*
X0200000Y0035146D01*
X0211800Y0035146D01*
X0211800Y0041800D01*
X0208800Y0047800D02*
X0219800Y0047800D01*
X0219800Y0031800D01*
X0223775Y0032052D02*
X0226500Y0032052D01*
X0226621Y0030453D02*
X0223775Y0030453D01*
X0223775Y0028855D02*
X0227283Y0028855D01*
X0228920Y0027256D02*
X0216553Y0027256D01*
X0216553Y0027974D02*
X0212280Y0027974D01*
X0212280Y0024094D01*
X0214990Y0024094D01*
X0215448Y0024217D01*
X0215858Y0024454D01*
X0216193Y0024789D01*
X0216430Y0025200D01*
X0216553Y0025658D01*
X0227880Y0025658D01*
X0226778Y0024059D02*
X0189200Y0024059D01*
X0189200Y0022461D02*
X0226336Y0022461D01*
X0226380Y0020862D02*
X0189200Y0020862D01*
X0188658Y0019264D02*
X0226920Y0019264D01*
X0228157Y0017665D02*
X0187059Y0017665D01*
X0185461Y0016067D02*
X0228571Y0016067D01*
X0227168Y0014468D02*
X0183862Y0014468D01*
X0182264Y0012870D02*
X0226506Y0012870D01*
X0226500Y0011271D02*
X0180665Y0011271D01*
X0179067Y0009673D02*
X0226945Y0009673D01*
X0228031Y0008074D02*
X0177468Y0008074D01*
X0185737Y0026800D02*
X0186800Y0027863D01*
X0186863Y0027800D01*
X0186800Y0035737D02*
X0186800Y0047800D01*
X0208800Y0047800D01*
X0221359Y0049635D02*
X0226960Y0049635D01*
X0228068Y0048037D02*
X0222200Y0048037D01*
X0222200Y0046438D02*
X0229148Y0046438D01*
X0227344Y0044840D02*
X0222200Y0044840D01*
X0222200Y0043241D02*
X0226660Y0043241D01*
X0226500Y0041643D02*
X0222200Y0041643D01*
X0222200Y0040044D02*
X0226791Y0040044D01*
X0227659Y0038446D02*
X0222200Y0038446D01*
X0222200Y0036847D02*
X0229907Y0036847D01*
X0227753Y0035249D02*
X0223364Y0035249D01*
X0223775Y0033650D02*
X0226830Y0033650D01*
X0233693Y0036847D02*
X0244921Y0036847D01*
X0244921Y0035249D02*
X0235847Y0035249D01*
X0236770Y0033650D02*
X0244921Y0033650D01*
X0244921Y0032052D02*
X0237100Y0032052D01*
X0236979Y0030453D02*
X0244921Y0030453D01*
X0244921Y0028855D02*
X0236317Y0028855D01*
X0234680Y0027256D02*
X0244921Y0027256D01*
X0244921Y0025658D02*
X0235720Y0025658D01*
X0236822Y0024059D02*
X0244921Y0024059D01*
X0244921Y0022461D02*
X0237264Y0022461D01*
X0237220Y0020862D02*
X0244921Y0020862D01*
X0244921Y0019264D02*
X0236680Y0019264D01*
X0235443Y0017665D02*
X0244921Y0017665D01*
X0244921Y0016067D02*
X0235029Y0016067D01*
X0236432Y0014468D02*
X0244921Y0014468D01*
X0244921Y0012870D02*
X0237094Y0012870D01*
X0237100Y0011271D02*
X0244921Y0011271D01*
X0244921Y0009673D02*
X0236655Y0009673D01*
X0235569Y0008074D02*
X0244921Y0008074D01*
X0244921Y0038446D02*
X0235941Y0038446D01*
X0236809Y0040044D02*
X0244921Y0040044D01*
X0244921Y0041643D02*
X0237100Y0041643D01*
X0236940Y0043241D02*
X0244921Y0043241D01*
X0244921Y0044840D02*
X0236255Y0044840D01*
X0234452Y0046438D02*
X0244921Y0046438D01*
X0244921Y0048037D02*
X0235532Y0048037D01*
X0236640Y0049635D02*
X0244921Y0049635D01*
X0244921Y0051234D02*
X0237100Y0051234D01*
X0237100Y0052832D02*
X0244921Y0052832D01*
X0244921Y0054431D02*
X0236447Y0054431D01*
X0235066Y0056029D02*
X0244921Y0056029D01*
X0244921Y0057628D02*
X0235123Y0057628D01*
X0236471Y0059226D02*
X0244921Y0059226D01*
X0244921Y0060825D02*
X0237100Y0060825D01*
X0237100Y0062423D02*
X0244921Y0062423D01*
X0244921Y0064022D02*
X0236616Y0064022D01*
X0235475Y0065620D02*
X0244921Y0065620D01*
X0244921Y0067219D02*
X0234590Y0067219D01*
X0236301Y0068817D02*
X0244921Y0068817D01*
X0244921Y0070416D02*
X0236963Y0070416D01*
X0237100Y0072015D02*
X0244921Y0072015D01*
X0244921Y0073613D02*
X0236786Y0073613D01*
X0235884Y0075212D02*
X0244921Y0075212D01*
X0244921Y0076810D02*
X0233603Y0076810D01*
X0235904Y0078409D02*
X0244921Y0078409D01*
X0244921Y0080007D02*
X0236794Y0080007D01*
X0237100Y0081606D02*
X0244921Y0081606D01*
X0244921Y0083204D02*
X0236955Y0083204D01*
X0236293Y0084803D02*
X0244921Y0084803D01*
X0244921Y0086401D02*
X0234541Y0086401D01*
X0235495Y0088000D02*
X0244921Y0088000D01*
X0244921Y0089598D02*
X0236625Y0089598D01*
X0237100Y0091197D02*
X0244921Y0091197D01*
X0244921Y0092795D02*
X0237100Y0092795D01*
X0236462Y0094394D02*
X0244921Y0094394D01*
X0244921Y0095992D02*
X0235103Y0095992D01*
X0235086Y0097591D02*
X0244921Y0097591D01*
X0244921Y0099189D02*
X0236455Y0099189D01*
X0237100Y0100788D02*
X0244921Y0100788D01*
X0244921Y0102386D02*
X0237100Y0102386D01*
X0236632Y0103985D02*
X0244921Y0103985D01*
X0244921Y0105583D02*
X0235512Y0105583D01*
X0234500Y0107182D02*
X0244921Y0107182D01*
X0244921Y0108780D02*
X0236276Y0108780D01*
X0236948Y0110379D02*
X0244921Y0110379D01*
X0244921Y0111977D02*
X0237100Y0111977D01*
X0236801Y0113576D02*
X0244921Y0113576D01*
X0244921Y0115174D02*
X0235921Y0115174D01*
X0233644Y0116773D02*
X0244921Y0116773D01*
X0244921Y0118371D02*
X0235867Y0118371D01*
X0236779Y0119970D02*
X0244921Y0119970D01*
X0244921Y0121568D02*
X0237100Y0121568D01*
X0236970Y0123167D02*
X0244921Y0123167D01*
X0244921Y0124765D02*
X0236308Y0124765D01*
X0234631Y0126364D02*
X0244921Y0126364D01*
X0244921Y0127962D02*
X0235458Y0127962D01*
X0236609Y0129561D02*
X0244921Y0129561D01*
X0244921Y0131159D02*
X0237100Y0131159D01*
X0237100Y0132758D02*
X0244921Y0132758D01*
X0244921Y0134356D02*
X0236478Y0134356D01*
X0235140Y0135955D02*
X0244921Y0135955D01*
X0244921Y0137553D02*
X0235049Y0137553D01*
X0236440Y0139152D02*
X0244921Y0139152D01*
X0244921Y0140750D02*
X0237100Y0140750D01*
X0237100Y0142349D02*
X0244921Y0142349D01*
X0244921Y0143948D02*
X0236647Y0143948D01*
X0235549Y0145546D02*
X0244921Y0145546D01*
X0244921Y0147145D02*
X0234410Y0147145D01*
X0236238Y0148743D02*
X0244921Y0148743D01*
X0244921Y0150342D02*
X0236933Y0150342D01*
X0237100Y0151940D02*
X0244921Y0151940D01*
X0244921Y0153539D02*
X0236817Y0153539D01*
X0235958Y0155137D02*
X0244921Y0155137D01*
X0244921Y0159933D02*
X0235775Y0159933D01*
X0235775Y0161531D02*
X0244921Y0161531D01*
X0217400Y0155137D02*
X0211200Y0155137D01*
X0211200Y0153539D02*
X0217400Y0153539D01*
X0216470Y0156736D02*
X0211010Y0156736D01*
X0164320Y0207888D02*
X0154031Y0207888D01*
X0155705Y0206289D02*
X0160047Y0206289D01*
X0160047Y0204691D02*
X0157303Y0204691D01*
X0162400Y0220676D02*
X0139649Y0220676D01*
X0116282Y0220676D02*
X0110862Y0220676D01*
X0111756Y0219078D02*
X0115400Y0219078D01*
X0115400Y0217479D02*
X0111756Y0217479D01*
X0098940Y0228669D02*
X0093325Y0228669D01*
X0068400Y0147145D02*
X0060275Y0147145D01*
X0060275Y0145546D02*
X0068400Y0145546D01*
X0068400Y0143948D02*
X0060275Y0143948D01*
X0061645Y0142349D02*
X0068400Y0142349D01*
X0068400Y0140750D02*
X0063244Y0140750D01*
X0064200Y0139152D02*
X0068400Y0139152D01*
X0068400Y0137553D02*
X0064200Y0137553D01*
X0064200Y0135955D02*
X0068400Y0135955D01*
X0068400Y0134356D02*
X0064200Y0134356D01*
X0064200Y0132758D02*
X0068400Y0132758D01*
X0068400Y0131159D02*
X0064200Y0131159D01*
X0064200Y0129561D02*
X0068400Y0129561D01*
X0068400Y0127962D02*
X0064200Y0127962D01*
X0064200Y0126364D02*
X0068400Y0126364D01*
X0068400Y0124765D02*
X0064200Y0124765D01*
X0064200Y0123167D02*
X0068400Y0123167D01*
X0068400Y0121568D02*
X0064200Y0121568D01*
X0064200Y0119970D02*
X0068400Y0119970D01*
X0068400Y0118371D02*
X0064200Y0118371D01*
X0064200Y0116773D02*
X0068400Y0116773D01*
X0068400Y0115174D02*
X0064200Y0115174D01*
X0064200Y0113576D02*
X0068395Y0113576D01*
X0068366Y0111977D02*
X0064200Y0111977D01*
X0064200Y0110379D02*
X0068337Y0110379D01*
X0068307Y0108780D02*
X0064200Y0108780D01*
X0064200Y0107182D02*
X0068278Y0107182D01*
X0068248Y0105583D02*
X0064200Y0105583D01*
X0064200Y0103985D02*
X0068443Y0103985D01*
X0026825Y0139152D02*
X0026440Y0139152D01*
X0018551Y0137553D02*
X0006600Y0137553D01*
X0006600Y0135955D02*
X0018460Y0135955D01*
X0017122Y0134356D02*
X0006600Y0134356D01*
X0006600Y0132758D02*
X0016500Y0132758D01*
X0016500Y0131159D02*
X0006600Y0131159D01*
X0006600Y0129561D02*
X0016991Y0129561D01*
X0018142Y0127962D02*
X0006600Y0127962D01*
X0006600Y0126364D02*
X0018725Y0126364D01*
X0017156Y0124765D02*
X0006600Y0124765D01*
X0006600Y0123167D02*
X0016461Y0123167D01*
X0016300Y0121568D02*
X0006600Y0121568D01*
X0006600Y0119970D02*
X0016612Y0119970D01*
X0017493Y0118371D02*
X0006600Y0118371D01*
X0006600Y0116773D02*
X0019552Y0116773D01*
X0017679Y0115174D02*
X0006600Y0115174D01*
X0006600Y0113576D02*
X0016799Y0113576D01*
X0016500Y0111977D02*
X0006600Y0111977D01*
X0006600Y0110379D02*
X0016652Y0110379D01*
X0017324Y0108780D02*
X0006600Y0108780D01*
X0006600Y0107182D02*
X0019100Y0107182D01*
X0018088Y0105583D02*
X0006600Y0105583D01*
X0006600Y0103985D02*
X0016968Y0103985D01*
X0016500Y0102386D02*
X0006600Y0102386D01*
X0006600Y0100788D02*
X0016500Y0100788D01*
X0017145Y0099189D02*
X0006600Y0099189D01*
X0006600Y0097591D02*
X0018514Y0097591D01*
X0018497Y0095992D02*
X0006600Y0095992D01*
X0006600Y0094394D02*
X0017138Y0094394D01*
X0016500Y0092795D02*
X0006600Y0092795D01*
X0006600Y0091197D02*
X0016500Y0091197D01*
X0016975Y0089598D02*
X0006600Y0089598D01*
X0006600Y0088000D02*
X0018105Y0088000D01*
X0019059Y0086401D02*
X0006600Y0086401D01*
X0006600Y0084803D02*
X0017307Y0084803D01*
X0016645Y0083204D02*
X0006600Y0083204D01*
X0006600Y0081606D02*
X0016500Y0081606D01*
X0016806Y0080007D02*
X0006600Y0080007D01*
X0006600Y0078409D02*
X0017696Y0078409D01*
X0019997Y0076810D02*
X0006600Y0076810D01*
X0006600Y0075212D02*
X0017716Y0075212D01*
X0016814Y0073613D02*
X0006600Y0073613D01*
X0006600Y0072015D02*
X0016500Y0072015D01*
X0016637Y0070416D02*
X0006600Y0070416D01*
X0006600Y0068817D02*
X0017299Y0068817D01*
X0019010Y0067219D02*
X0006600Y0067219D01*
X0006600Y0065620D02*
X0018125Y0065620D01*
X0016984Y0064022D02*
X0006600Y0064022D01*
X0006600Y0062423D02*
X0016500Y0062423D01*
X0016500Y0060825D02*
X0006600Y0060825D01*
X0006600Y0059226D02*
X0017129Y0059226D01*
X0018477Y0057628D02*
X0006600Y0057628D01*
X0006600Y0056029D02*
X0018534Y0056029D01*
X0017153Y0054431D02*
X0006600Y0054431D01*
X0006600Y0052832D02*
X0016500Y0052832D01*
X0016500Y0051234D02*
X0006600Y0051234D01*
X0006600Y0049635D02*
X0016960Y0049635D01*
X0018068Y0048037D02*
X0006600Y0048037D01*
X0006600Y0046438D02*
X0019148Y0046438D01*
X0017344Y0044840D02*
X0006600Y0044840D01*
X0006600Y0043241D02*
X0016660Y0043241D01*
X0016500Y0041643D02*
X0006600Y0041643D01*
X0006600Y0040044D02*
X0016791Y0040044D01*
X0017659Y0038446D02*
X0006600Y0038446D01*
X0006600Y0036847D02*
X0019907Y0036847D01*
X0017753Y0035249D02*
X0006600Y0035249D01*
X0006600Y0033650D02*
X0016830Y0033650D01*
X0016500Y0032052D02*
X0006600Y0032052D01*
X0006600Y0030453D02*
X0016621Y0030453D01*
X0017283Y0028855D02*
X0006600Y0028855D01*
X0006600Y0027256D02*
X0018920Y0027256D01*
X0018162Y0025658D02*
X0006600Y0025658D01*
X0006600Y0024059D02*
X0016999Y0024059D01*
X0016500Y0022461D02*
X0006600Y0022461D01*
X0006600Y0020862D02*
X0016500Y0020862D01*
X0017114Y0019264D02*
X0006600Y0019264D01*
X0006600Y0017665D02*
X0018440Y0017665D01*
X0018571Y0016067D02*
X0006600Y0016067D01*
X0006600Y0014468D02*
X0017168Y0014468D01*
X0016506Y0012870D02*
X0006600Y0012870D01*
X0006600Y0011271D02*
X0016500Y0011271D01*
X0016945Y0009673D02*
X0006600Y0009673D01*
X0006600Y0008074D02*
X0018031Y0008074D01*
X0102781Y0008074D02*
X0151132Y0008074D01*
X0157800Y0013800D02*
X0157800Y0034800D01*
X0142000Y0035249D02*
X0141600Y0035249D01*
X0141600Y0036847D02*
X0142000Y0036847D01*
X0139591Y0036847D02*
X0134200Y0036847D01*
X0135847Y0035249D02*
X0137507Y0035249D01*
X0141600Y0033650D02*
X0142000Y0033650D01*
X0142000Y0032052D02*
X0141600Y0032052D01*
X0175800Y0035800D02*
X0175863Y0035737D01*
X0186800Y0035737D01*
X0195080Y0032052D02*
X0195447Y0032052D01*
X0195247Y0030453D02*
X0195080Y0030453D01*
X0195080Y0028855D02*
X0199520Y0028855D01*
X0200480Y0028855D02*
X0211320Y0028855D01*
X0212280Y0028855D02*
X0215825Y0028855D01*
X0216553Y0027974D02*
X0216553Y0025658D01*
X0212280Y0025658D02*
X0211320Y0025658D01*
X0211320Y0027256D02*
X0212280Y0027256D01*
X0207047Y0030453D02*
X0204753Y0030453D01*
X0204553Y0032052D02*
X0207247Y0032052D01*
X0200480Y0027256D02*
X0199520Y0027256D01*
X0199520Y0025658D02*
X0200480Y0025658D01*
X0195247Y0027256D02*
X0195026Y0027256D01*
X0149576Y0119970D02*
X0148200Y0119970D01*
X0148200Y0121568D02*
X0151174Y0121568D01*
X0151400Y0123167D02*
X0150702Y0123167D01*
X0150863Y0124765D02*
X0151400Y0124765D01*
X0019190Y0147145D02*
X0006600Y0147145D01*
X0006600Y0148743D02*
X0017362Y0148743D01*
X0016667Y0150342D02*
X0006600Y0150342D01*
X0006600Y0151940D02*
X0016500Y0151940D01*
X0016783Y0153539D02*
X0006600Y0153539D01*
X0006600Y0155137D02*
X0017642Y0155137D01*
X0018051Y0145546D02*
X0006600Y0145546D01*
X0006600Y0143948D02*
X0016953Y0143948D01*
X0016500Y0142349D02*
X0006600Y0142349D01*
X0006600Y0140750D02*
X0016500Y0140750D01*
X0017160Y0139152D02*
X0006600Y0139152D01*
D28*
X0030800Y0141800D03*
X0044800Y0158800D03*
X0056262Y0159338D03*
X0062800Y0164800D03*
X0070800Y0161800D03*
X0075842Y0151800D03*
X0056300Y0144300D03*
X0080800Y0116758D03*
X0113800Y0110800D03*
X0121800Y0114842D03*
X0139800Y0118800D03*
X0163800Y0113800D03*
X0162800Y0106800D03*
X0162800Y0099800D03*
X0164800Y0122800D03*
X0153800Y0141800D03*
X0141306Y0148306D03*
X0103958Y0174629D03*
X0101800Y0161800D03*
X0089800Y0188800D03*
X0063800Y0216800D03*
X0088333Y0220833D03*
X0103812Y0242800D03*
X0125800Y0206800D03*
X0125806Y0192806D03*
X0148794Y0197794D03*
X0149800Y0232800D03*
X0204800Y0151800D03*
X0219800Y0141800D03*
X0231800Y0162800D03*
X0194800Y0131800D03*
X0189800Y0121800D03*
X0199758Y0111800D03*
X0160800Y0074800D03*
X0167333Y0068800D03*
X0169300Y0053300D03*
X0175800Y0035800D03*
X0157800Y0013800D03*
X0148746Y0036842D03*
X0146800Y0049800D03*
X0131800Y0051800D03*
X0103800Y0021800D03*
X0098806Y0009794D03*
X0076800Y0031800D03*
X0074800Y0041800D03*
X0074800Y0051800D03*
X0074800Y0061800D03*
X0093800Y0071800D03*
X0093800Y0080800D03*
X0130800Y0084800D03*
X0095800Y0040800D03*
X0211800Y0041800D03*
X0219800Y0031800D03*
X0026800Y0211842D03*
D29*
X0129285Y0216800D03*
D30*
X0113800Y0213800D03*
X0111320Y0227306D03*
X0102800Y0225390D03*
D31*
X0107406Y0218434D02*
X0096166Y0218434D01*
X0093767Y0220833D01*
X0088333Y0220833D01*
X0081475Y0215875D02*
X0080550Y0216800D01*
X0081475Y0215875D02*
X0107406Y0215875D01*
X0107406Y0210757D02*
X0113757Y0210757D01*
X0113800Y0210800D01*
X0113800Y0213800D01*
M02*
