G75*
%MOIN*%
%OFA0B0*%
%FSLAX25Y25*%
%IPPOS*%
%LPD*%
%AMOC8*
5,1,8,0,0,1.08239X$1,22.5*
%
%ADD10R,0.02800X0.06600*%
%ADD11C,0.07300*%
%ADD12R,0.05918X0.06706*%
%ADD13R,0.06800X0.05800*%
%ADD14R,0.05800X0.06800*%
%ADD15C,0.10800*%
%ADD16R,0.06312X0.05131*%
%ADD17R,0.05131X0.06312*%
%ADD18C,0.08200*%
%ADD19R,0.06706X0.05918*%
%ADD20R,0.05524X0.05524*%
%ADD21R,0.22060X0.25209*%
%ADD22R,0.04737X0.07099*%
%ADD23R,0.05524X0.03556*%
%ADD24R,0.06300X0.02170*%
%ADD25R,0.08674X0.10249*%
%ADD26R,0.02769X0.09887*%
%ADD27C,0.04737*%
%ADD28R,0.05550X0.05550*%
%ADD29R,0.05156X0.05156*%
%ADD30R,0.03778X0.03778*%
D10*
G36*
X0108556Y0086092D02*
X0110536Y0084112D01*
X0105870Y0079446D01*
X0103890Y0081426D01*
X0108556Y0086092D01*
G37*
G36*
X0103890Y0092173D02*
X0105870Y0094153D01*
X0110536Y0089487D01*
X0108556Y0087507D01*
X0103890Y0092173D01*
G37*
G36*
X0106082Y0094366D02*
X0108062Y0096346D01*
X0112728Y0091680D01*
X0110748Y0089700D01*
X0106082Y0094366D01*
G37*
G36*
X0108345Y0096628D02*
X0110325Y0098608D01*
X0114991Y0093942D01*
X0113011Y0091962D01*
X0108345Y0096628D01*
G37*
G36*
X0110537Y0098820D02*
X0112517Y0100800D01*
X0117183Y0096134D01*
X0115203Y0094154D01*
X0110537Y0098820D01*
G37*
G36*
X0112800Y0101083D02*
X0114780Y0103063D01*
X0119446Y0098397D01*
X0117466Y0096417D01*
X0112800Y0101083D01*
G37*
G36*
X0114992Y0103275D02*
X0116972Y0105255D01*
X0121638Y0100589D01*
X0119658Y0098609D01*
X0114992Y0103275D01*
G37*
G36*
X0117254Y0105538D02*
X0119234Y0107518D01*
X0123900Y0102852D01*
X0121920Y0100872D01*
X0117254Y0105538D01*
G37*
G36*
X0119446Y0107730D02*
X0121426Y0109710D01*
X0126092Y0105044D01*
X0124112Y0103064D01*
X0119446Y0107730D01*
G37*
G36*
X0132173Y0109710D02*
X0134153Y0107730D01*
X0129487Y0103064D01*
X0127507Y0105044D01*
X0132173Y0109710D01*
G37*
G36*
X0134366Y0107518D02*
X0136346Y0105538D01*
X0131680Y0100872D01*
X0129700Y0102852D01*
X0134366Y0107518D01*
G37*
G36*
X0136628Y0105255D02*
X0138608Y0103275D01*
X0133942Y0098609D01*
X0131962Y0100589D01*
X0136628Y0105255D01*
G37*
G36*
X0138820Y0103063D02*
X0140800Y0101083D01*
X0136134Y0096417D01*
X0134154Y0098397D01*
X0138820Y0103063D01*
G37*
G36*
X0141083Y0100800D02*
X0143063Y0098820D01*
X0138397Y0094154D01*
X0136417Y0096134D01*
X0141083Y0100800D01*
G37*
G36*
X0143275Y0098608D02*
X0145255Y0096628D01*
X0140589Y0091962D01*
X0138609Y0093942D01*
X0143275Y0098608D01*
G37*
G36*
X0145538Y0096346D02*
X0147518Y0094366D01*
X0142852Y0089700D01*
X0140872Y0091680D01*
X0145538Y0096346D01*
G37*
G36*
X0147730Y0094153D02*
X0149710Y0092173D01*
X0145044Y0087507D01*
X0143064Y0089487D01*
X0147730Y0094153D01*
G37*
G36*
X0143064Y0084112D02*
X0145044Y0086092D01*
X0149710Y0081426D01*
X0147730Y0079446D01*
X0143064Y0084112D01*
G37*
G36*
X0140872Y0081920D02*
X0142852Y0083900D01*
X0147518Y0079234D01*
X0145538Y0077254D01*
X0140872Y0081920D01*
G37*
G36*
X0138609Y0079658D02*
X0140589Y0081638D01*
X0145255Y0076972D01*
X0143275Y0074992D01*
X0138609Y0079658D01*
G37*
G36*
X0136417Y0077466D02*
X0138397Y0079446D01*
X0143063Y0074780D01*
X0141083Y0072800D01*
X0136417Y0077466D01*
G37*
G36*
X0134154Y0075203D02*
X0136134Y0077183D01*
X0140800Y0072517D01*
X0138820Y0070537D01*
X0134154Y0075203D01*
G37*
G36*
X0131962Y0073011D02*
X0133942Y0074991D01*
X0138608Y0070325D01*
X0136628Y0068345D01*
X0131962Y0073011D01*
G37*
G36*
X0129700Y0070748D02*
X0131680Y0072728D01*
X0136346Y0068062D01*
X0134366Y0066082D01*
X0129700Y0070748D01*
G37*
G36*
X0127507Y0068556D02*
X0129487Y0070536D01*
X0134153Y0065870D01*
X0132173Y0063890D01*
X0127507Y0068556D01*
G37*
G36*
X0124112Y0070536D02*
X0126092Y0068556D01*
X0121426Y0063890D01*
X0119446Y0065870D01*
X0124112Y0070536D01*
G37*
G36*
X0121920Y0072728D02*
X0123900Y0070748D01*
X0119234Y0066082D01*
X0117254Y0068062D01*
X0121920Y0072728D01*
G37*
G36*
X0119658Y0074991D02*
X0121638Y0073011D01*
X0116972Y0068345D01*
X0114992Y0070325D01*
X0119658Y0074991D01*
G37*
G36*
X0117466Y0077183D02*
X0119446Y0075203D01*
X0114780Y0070537D01*
X0112800Y0072517D01*
X0117466Y0077183D01*
G37*
G36*
X0115203Y0079446D02*
X0117183Y0077466D01*
X0112517Y0072800D01*
X0110537Y0074780D01*
X0115203Y0079446D01*
G37*
G36*
X0113011Y0081638D02*
X0114991Y0079658D01*
X0110325Y0074992D01*
X0108345Y0076972D01*
X0113011Y0081638D01*
G37*
G36*
X0110748Y0083900D02*
X0112728Y0081920D01*
X0108062Y0077254D01*
X0106082Y0079234D01*
X0110748Y0083900D01*
G37*
D11*
X0111800Y0161800D03*
X0091800Y0161800D03*
D12*
G36*
X0087176Y0134165D02*
X0091361Y0129980D01*
X0086620Y0125239D01*
X0082435Y0129424D01*
X0087176Y0134165D01*
G37*
G36*
X0091909Y0129432D02*
X0096094Y0125247D01*
X0091353Y0120506D01*
X0087168Y0124691D01*
X0091909Y0129432D01*
G37*
D13*
X0089800Y0173050D03*
X0089800Y0180550D03*
X0175800Y0207050D03*
X0175800Y0214550D03*
X0206800Y0184550D03*
X0206800Y0177050D03*
D14*
G36*
X0157795Y0048998D02*
X0153694Y0053099D01*
X0158501Y0057906D01*
X0162602Y0053805D01*
X0157795Y0048998D01*
G37*
G36*
X0163099Y0043694D02*
X0158998Y0047795D01*
X0163805Y0052602D01*
X0167906Y0048501D01*
X0163099Y0043694D01*
G37*
G36*
X0092099Y0100694D02*
X0087998Y0104795D01*
X0092805Y0109602D01*
X0096906Y0105501D01*
X0092099Y0100694D01*
G37*
G36*
X0086795Y0105998D02*
X0082694Y0110099D01*
X0087501Y0114906D01*
X0091602Y0110805D01*
X0086795Y0105998D01*
G37*
X0080550Y0216800D03*
X0073050Y0216800D03*
D15*
X0134005Y0161800D03*
X0159595Y0161800D03*
D16*
X0146507Y0134030D03*
X0146507Y0126156D03*
X0191800Y0192863D03*
X0191800Y0200737D03*
X0206800Y0200737D03*
X0206800Y0192863D03*
X0221800Y0192863D03*
X0221800Y0200737D03*
X0186800Y0035737D03*
X0186800Y0027863D03*
D17*
X0045737Y0141800D03*
X0037863Y0141800D03*
X0192863Y0226800D03*
X0200737Y0226800D03*
D18*
X0021800Y0011800D03*
X0021800Y0021800D03*
X0021800Y0031800D03*
X0021800Y0041800D03*
X0021800Y0051800D03*
X0021800Y0061800D03*
X0021800Y0071800D03*
X0021800Y0081800D03*
X0021800Y0091800D03*
X0021800Y0101800D03*
X0021800Y0111800D03*
X0021800Y0121800D03*
X0021800Y0131800D03*
X0021800Y0141800D03*
X0021800Y0151800D03*
X0121800Y0031800D03*
X0121800Y0021800D03*
X0131800Y0021800D03*
X0131800Y0031800D03*
X0141800Y0031800D03*
X0141800Y0021800D03*
X0231800Y0021800D03*
X0231800Y0031800D03*
X0231800Y0041800D03*
X0231800Y0051800D03*
X0231800Y0061800D03*
X0231800Y0071800D03*
X0231800Y0081800D03*
X0231800Y0091800D03*
X0231800Y0101800D03*
X0231800Y0111800D03*
X0231800Y0121800D03*
X0231800Y0131800D03*
X0231800Y0141800D03*
X0231800Y0151800D03*
X0231800Y0011800D03*
D19*
X0211800Y0028454D03*
X0211800Y0035146D03*
X0200000Y0035146D03*
X0200000Y0028454D03*
X0164800Y0207454D03*
X0164800Y0214146D03*
D20*
X0191800Y0215934D03*
X0191800Y0207666D03*
X0206800Y0207666D03*
X0206800Y0215934D03*
X0221800Y0215934D03*
X0221800Y0207666D03*
X0233800Y0207666D03*
X0233800Y0215934D03*
D21*
X0046800Y0196643D03*
D22*
X0037824Y0167902D03*
X0055776Y0167902D03*
D23*
X0165517Y0226800D03*
X0180083Y0226800D03*
D24*
X0136194Y0218434D03*
X0136194Y0215875D03*
X0136194Y0213316D03*
X0136194Y0210757D03*
X0136194Y0208198D03*
X0136194Y0205639D03*
X0136194Y0203080D03*
X0136194Y0200520D03*
X0136194Y0197961D03*
X0136194Y0195402D03*
X0136194Y0192843D03*
X0136194Y0190284D03*
X0136194Y0187725D03*
X0136194Y0185166D03*
X0107406Y0185166D03*
X0107406Y0187725D03*
X0107406Y0190284D03*
X0107406Y0192843D03*
X0107406Y0195402D03*
X0107406Y0197961D03*
X0107406Y0200520D03*
X0107406Y0203080D03*
X0107406Y0205639D03*
X0107406Y0208198D03*
X0107406Y0210757D03*
X0107406Y0213316D03*
X0107406Y0215875D03*
X0107406Y0218434D03*
D25*
X0104477Y0233020D03*
X0104477Y0254674D03*
X0139123Y0254674D03*
X0139123Y0233020D03*
D26*
X0128099Y0230800D03*
X0124950Y0230800D03*
X0121800Y0230800D03*
X0118650Y0230800D03*
X0115501Y0230800D03*
D27*
X0113139Y0242863D03*
X0130461Y0242863D03*
D28*
X0149800Y0232800D03*
X0125800Y0206800D03*
X0125806Y0192806D03*
X0103958Y0174629D03*
X0101800Y0161800D03*
X0075842Y0151800D03*
X0070800Y0161800D03*
X0062800Y0164800D03*
X0056262Y0159338D03*
X0044800Y0158800D03*
X0056300Y0144300D03*
X0030800Y0141800D03*
X0080800Y0116758D03*
X0113800Y0110800D03*
X0121800Y0114842D03*
X0139800Y0118800D03*
X0163800Y0113800D03*
X0162800Y0106800D03*
X0162800Y0099800D03*
X0164800Y0122800D03*
X0153800Y0141800D03*
X0141306Y0148306D03*
X0148794Y0197794D03*
X0103812Y0242800D03*
X0088333Y0220833D03*
X0063800Y0216800D03*
X0089800Y0188800D03*
X0026800Y0211842D03*
X0130800Y0084800D03*
X0160800Y0074800D03*
X0167333Y0068800D03*
X0169300Y0053300D03*
X0175800Y0035800D03*
X0157800Y0013800D03*
X0148746Y0036842D03*
X0146800Y0049800D03*
X0131800Y0051800D03*
X0103800Y0021800D03*
X0098806Y0009794D03*
X0076800Y0031800D03*
X0074800Y0041800D03*
X0074800Y0051800D03*
X0074800Y0061800D03*
X0093800Y0071800D03*
X0093800Y0080800D03*
X0095800Y0040800D03*
X0189800Y0121800D03*
X0194800Y0131800D03*
X0199758Y0111800D03*
X0219800Y0141800D03*
X0204800Y0151800D03*
X0231800Y0162800D03*
X0211800Y0041800D03*
X0219800Y0031800D03*
D29*
X0129285Y0216800D03*
D30*
X0113800Y0213800D03*
X0111320Y0227306D03*
X0102800Y0225390D03*
M02*
