G04 EAGLE Gerber X2 export*
%TF.Part,Single*%
%TF.FileFunction,Other,Silk screen CMP*%
%TF.FilePolarity,Positive*%
%TF.GenerationSoftware,Autodesk,EAGLE,9.0.0*%
%TF.CreationDate,2018-05-11T01:15:21Z*%
G75*
%MOMM*%
%FSLAX34Y34*%
%LPD*%
%AMOC8*
5,1,8,0,0,1.08239X$1,22.5*%
G01*
%ADD10C,0.000000*%
%ADD11C,0.076200*%
%ADD12R,0.853438X0.030475*%
%ADD13R,1.219200X0.030481*%
%ADD14R,1.432556X0.030481*%
%ADD15R,1.402075X0.030475*%
%ADD16R,0.091438X0.030481*%
%ADD17R,1.280156X0.030481*%
%ADD18R,0.121919X0.030481*%
%ADD19R,0.182875X0.030475*%
%ADD20R,1.158238X0.030475*%
%ADD21R,0.213356X0.030475*%
%ADD22R,0.274319X0.030481*%
%ADD23R,1.066800X0.030481*%
%ADD24R,0.304800X0.030481*%
%ADD25R,0.365756X0.030481*%
%ADD26R,0.944875X0.030481*%
%ADD27R,0.365762X0.030481*%
%ADD28R,0.426719X0.030475*%
%ADD29R,0.548638X0.030475*%
%ADD30R,0.457200X0.030475*%
%ADD31R,0.518156X0.030481*%
%ADD32R,0.487675X0.030481*%
%ADD33R,0.579119X0.030475*%
%ADD34R,0.762000X0.030475*%
%ADD35R,0.518156X0.030475*%
%ADD36R,0.579119X0.030481*%
%ADD37R,0.792481X0.030481*%
%ADD38R,0.548638X0.030481*%
%ADD39R,0.609600X0.030481*%
%ADD40R,0.640081X0.030475*%
%ADD41R,0.792481X0.030475*%
%ADD42R,0.213356X0.030481*%
%ADD43R,0.822963X0.030481*%
%ADD44R,0.243838X0.030481*%
%ADD45R,0.274319X0.030475*%
%ADD46R,0.091438X0.030475*%
%ADD47R,0.121919X0.030475*%
%ADD48R,0.822963X0.030475*%
%ADD49R,0.213363X0.030475*%
%ADD50R,0.182881X0.030481*%
%ADD51R,0.304800X0.030475*%
%ADD52R,0.701037X0.030475*%
%ADD53R,0.640075X0.030475*%
%ADD54R,0.243838X0.030475*%
%ADD55R,1.645919X0.030481*%
%ADD56R,1.706881X0.030475*%
%ADD57R,1.706881X0.030481*%
%ADD58R,1.767838X0.030481*%
%ADD59R,1.767838X0.030475*%
%ADD60R,0.335281X0.030481*%
%ADD61R,1.371600X0.030481*%
%ADD62R,0.152400X0.030481*%
%ADD63R,0.182881X0.030475*%
%ADD64R,1.341119X0.030475*%
%ADD65R,0.182875X0.030481*%
%ADD66R,0.335275X0.030481*%
%ADD67R,0.030475X0.030481*%
%ADD68R,1.249681X0.030481*%
%ADD69R,0.030481X0.030481*%
%ADD70R,0.335275X0.030475*%
%ADD71R,0.060956X0.030475*%
%ADD72R,1.188719X0.030475*%
%ADD73R,0.152400X0.030475*%
%ADD74R,1.158238X0.030481*%
%ADD75R,0.335281X0.030475*%
%ADD76R,0.396238X0.030481*%
%ADD77R,0.060956X0.030481*%
%ADD78R,0.365756X0.030475*%
%ADD79R,0.030475X0.030475*%
%ADD80R,1.676400X0.030475*%
%ADD81R,0.396238X0.030475*%
%ADD82R,1.737363X0.030481*%
%ADD83R,0.365762X0.030475*%
%ADD84R,1.737363X0.030475*%
%ADD85R,0.030481X0.030475*%
%ADD86R,1.798319X0.030481*%
%ADD87R,1.859281X0.030481*%
%ADD88R,0.060963X0.030481*%
%ADD89R,1.859281X0.030475*%
%ADD90R,0.060963X0.030475*%
%ADD91R,1.920238X0.030481*%
%ADD92R,1.920238X0.030475*%
%ADD93R,1.950719X0.030481*%
%ADD94R,1.981200X0.030481*%
%ADD95R,2.011681X0.030475*%
%ADD96R,2.042162X0.030481*%
%ADD97R,2.042162X0.030475*%
%ADD98R,2.072637X0.030481*%
%ADD99R,2.103119X0.030481*%
%ADD100R,2.133600X0.030475*%
%ADD101R,2.164081X0.030481*%
%ADD102R,2.194556X0.030475*%
%ADD103R,2.225038X0.030481*%
%ADD104R,2.255519X0.030481*%
%ADD105R,2.286000X0.030475*%
%ADD106R,2.316481X0.030481*%
%ADD107R,2.377438X0.030475*%
%ADD108R,2.377438X0.030481*%
%ADD109R,2.438400X0.030481*%
%ADD110R,2.499356X0.030475*%
%ADD111R,2.499356X0.030481*%
%ADD112R,2.560319X0.030475*%
%ADD113R,2.621281X0.030481*%
%ADD114R,2.682238X0.030475*%
%ADD115R,2.712719X0.030481*%
%ADD116R,2.743200X0.030475*%
%ADD117R,2.804156X0.030481*%
%ADD118R,2.834637X0.030481*%
%ADD119R,2.895600X0.030475*%
%ADD120R,2.895600X0.030481*%
%ADD121R,2.956562X0.030475*%
%ADD122R,2.987038X0.030481*%
%ADD123R,3.017519X0.030481*%
%ADD124R,3.048000X0.030475*%
%ADD125R,3.078481X0.030481*%
%ADD126R,3.108956X0.030475*%
%ADD127R,3.169919X0.030481*%
%ADD128R,3.230881X0.030475*%
%ADD129R,3.230881X0.030481*%
%ADD130R,3.261356X0.030475*%
%ADD131R,1.036319X0.030481*%
%ADD132R,0.914400X0.030481*%
%ADD133R,1.097281X0.030481*%
%ADD134R,0.853438X0.030481*%
%ADD135R,0.792475X0.030481*%
%ADD136R,0.640075X0.030481*%
%ADD137R,0.457200X0.030481*%
%ADD138R,0.487681X0.030481*%
%ADD139R,0.914400X0.030475*%
%ADD140R,0.426719X0.030481*%
%ADD141R,1.432562X0.030481*%
%ADD142R,1.554481X0.030475*%
%ADD143R,1.676400X0.030481*%
%ADD144R,1.798319X0.030475*%
%ADD145R,2.164081X0.030475*%
%ADD146R,2.590800X0.030481*%
%ADD147R,2.926081X0.030475*%
%ADD148R,3.200400X0.030481*%
%ADD149R,3.169919X0.030475*%
%ADD150R,3.139438X0.030481*%
%ADD151R,3.139438X0.030475*%
%ADD152R,1.463037X0.030475*%
%ADD153R,1.493519X0.030475*%
%ADD154R,1.341119X0.030481*%
%ADD155R,1.097275X0.030481*%
%ADD156R,1.066800X0.030475*%
%ADD157R,0.792475X0.030475*%
%ADD158R,1.097275X0.030475*%
%ADD159R,0.883919X0.030481*%
%ADD160R,0.944881X0.030481*%
%ADD161R,0.944881X0.030475*%
%ADD162R,1.036319X0.030475*%
%ADD163R,0.975356X0.030475*%
%ADD164R,0.975356X0.030481*%
%ADD165R,1.005837X0.030481*%
%ADD166R,1.005837X0.030475*%
%ADD167R,1.127763X0.030475*%
%ADD168R,1.127763X0.030481*%
%ADD169R,0.944875X0.030475*%
%ADD170R,0.731519X0.030481*%
%ADD171R,0.701037X0.030481*%
%ADD172R,0.670556X0.030475*%
%ADD173R,1.188719X0.030481*%
%ADD174R,0.487675X0.030475*%
%ADD175R,0.822956X0.030481*%
%ADD176R,0.883919X0.030475*%
%ADD177R,2.286000X0.030481*%
%ADD178R,3.352800X0.030481*%
%ADD179R,3.352800X0.030475*%
%ADD180R,3.291838X0.030481*%
%ADD181R,3.108956X0.030481*%
%ADD182R,3.078475X0.030475*%
%ADD183R,2.987038X0.030475*%
%ADD184R,2.926081X0.030481*%
%ADD185R,2.865119X0.030481*%
%ADD186R,2.773681X0.030475*%
%ADD187R,2.651763X0.030475*%
%ADD188R,2.560319X0.030481*%
%ADD189R,2.468881X0.030481*%
%ADD190R,2.346963X0.030475*%
%ADD191R,2.011681X0.030481*%
%ADD192R,1.889756X0.030481*%
%ADD193R,1.584956X0.030481*%
%ADD194R,1.402081X0.030475*%
%ADD195C,0.101600*%
%ADD196C,0.152400*%
%ADD197C,0.203200*%
%ADD198C,0.127000*%
%ADD199R,1.400000X0.650000*%
%ADD200R,0.650000X1.400000*%
%ADD201R,0.200000X0.200000*%
%ADD202R,0.863600X0.762000*%
%ADD203C,0.025400*%
%ADD204C,0.050800*%


D10*
X-203Y305D02*
X629517Y305D01*
X629517Y665025D01*
X-203Y665025D01*
X-203Y305D01*
D11*
X7798Y376606D02*
X7798Y386012D01*
X7798Y376606D02*
X12501Y376606D01*
X14068Y378173D01*
X14068Y384444D01*
X12501Y386012D01*
X7798Y386012D01*
X17153Y382876D02*
X20288Y386012D01*
X20288Y376606D01*
X17153Y376606D02*
X23424Y376606D01*
X7798Y360612D02*
X7798Y351206D01*
X12501Y351206D01*
X14068Y352773D01*
X14068Y359044D01*
X12501Y360612D01*
X7798Y360612D01*
X17153Y359044D02*
X17153Y352773D01*
X17153Y359044D02*
X18721Y360612D01*
X21856Y360612D01*
X23424Y359044D01*
X23424Y352773D01*
X21856Y351206D01*
X18721Y351206D01*
X17153Y352773D01*
X23424Y359044D01*
X7798Y335212D02*
X7798Y325806D01*
X7798Y335212D02*
X12501Y335212D01*
X14068Y333644D01*
X14068Y330509D01*
X12501Y328941D01*
X7798Y328941D01*
X10933Y328941D02*
X14068Y325806D01*
X23424Y333644D02*
X21856Y335212D01*
X18721Y335212D01*
X17153Y333644D01*
X17153Y332076D01*
X18721Y330509D01*
X21856Y330509D01*
X23424Y328941D01*
X23424Y327373D01*
X21856Y325806D01*
X18721Y325806D01*
X17153Y327373D01*
X29644Y325806D02*
X29644Y335212D01*
X32779Y335212D02*
X26508Y335212D01*
X12501Y309812D02*
X14068Y308244D01*
X12501Y309812D02*
X9365Y309812D01*
X7798Y308244D01*
X7798Y301973D01*
X9365Y300406D01*
X12501Y300406D01*
X14068Y301973D01*
X14068Y305109D01*
X10933Y305109D01*
X17153Y300406D02*
X17153Y309812D01*
X23424Y300406D01*
X23424Y309812D01*
X26508Y309812D02*
X26508Y300406D01*
X31211Y300406D01*
X32779Y301973D01*
X32779Y308244D01*
X31211Y309812D01*
X26508Y309812D01*
X7798Y284412D02*
X7798Y275006D01*
X12501Y275006D01*
X14068Y276573D01*
X14068Y282844D01*
X12501Y284412D01*
X7798Y284412D01*
X17153Y275006D02*
X23424Y275006D01*
X23424Y281276D02*
X17153Y275006D01*
X23424Y281276D02*
X23424Y282844D01*
X21856Y284412D01*
X18721Y284412D01*
X17153Y282844D01*
X7798Y259012D02*
X7798Y249606D01*
X12501Y249606D01*
X14068Y251173D01*
X14068Y257444D01*
X12501Y259012D01*
X7798Y259012D01*
X17153Y257444D02*
X18721Y259012D01*
X21856Y259012D01*
X23424Y257444D01*
X23424Y255876D01*
X21856Y254309D01*
X20288Y254309D01*
X21856Y254309D02*
X23424Y252741D01*
X23424Y251173D01*
X21856Y249606D01*
X18721Y249606D01*
X17153Y251173D01*
X7798Y233612D02*
X7798Y224206D01*
X12501Y224206D01*
X14068Y225773D01*
X14068Y232044D01*
X12501Y233612D01*
X7798Y233612D01*
X21856Y233612D02*
X21856Y224206D01*
X17153Y228909D02*
X21856Y233612D01*
X23424Y228909D02*
X17153Y228909D01*
X7798Y208212D02*
X7798Y198806D01*
X12501Y198806D01*
X14068Y200373D01*
X14068Y206644D01*
X12501Y208212D01*
X7798Y208212D01*
X17153Y208212D02*
X23424Y208212D01*
X17153Y208212D02*
X17153Y203509D01*
X20288Y205076D01*
X21856Y205076D01*
X23424Y203509D01*
X23424Y200373D01*
X21856Y198806D01*
X18721Y198806D01*
X17153Y200373D01*
X7798Y182812D02*
X7798Y173406D01*
X12501Y173406D01*
X14068Y174973D01*
X14068Y181244D01*
X12501Y182812D01*
X7798Y182812D01*
X20288Y181244D02*
X23424Y182812D01*
X20288Y181244D02*
X17153Y178109D01*
X17153Y174973D01*
X18721Y173406D01*
X21856Y173406D01*
X23424Y174973D01*
X23424Y176541D01*
X21856Y178109D01*
X17153Y178109D01*
X7798Y157412D02*
X7798Y148006D01*
X12501Y148006D01*
X14068Y149573D01*
X14068Y155844D01*
X12501Y157412D01*
X7798Y157412D01*
X17153Y157412D02*
X23424Y157412D01*
X23424Y155844D01*
X17153Y149573D01*
X17153Y148006D01*
X7798Y132012D02*
X7798Y122606D01*
X12501Y122606D01*
X14068Y124173D01*
X14068Y130444D01*
X12501Y132012D01*
X7798Y132012D01*
X17153Y130444D02*
X18721Y132012D01*
X21856Y132012D01*
X23424Y130444D01*
X23424Y128876D01*
X21856Y127309D01*
X23424Y125741D01*
X23424Y124173D01*
X21856Y122606D01*
X18721Y122606D01*
X17153Y124173D01*
X17153Y125741D01*
X18721Y127309D01*
X17153Y128876D01*
X17153Y130444D01*
X18721Y127309D02*
X21856Y127309D01*
X7798Y106612D02*
X7798Y97206D01*
X12501Y97206D01*
X14068Y98773D01*
X14068Y105044D01*
X12501Y106612D01*
X7798Y106612D01*
X17153Y98773D02*
X18721Y97206D01*
X21856Y97206D01*
X23424Y98773D01*
X23424Y105044D01*
X21856Y106612D01*
X18721Y106612D01*
X17153Y105044D01*
X17153Y103476D01*
X18721Y101909D01*
X23424Y101909D01*
X7798Y81212D02*
X7798Y71806D01*
X12501Y71806D01*
X14068Y73373D01*
X14068Y79644D01*
X12501Y81212D01*
X7798Y81212D01*
X17153Y78076D02*
X20288Y81212D01*
X20288Y71806D01*
X17153Y71806D02*
X23424Y71806D01*
X26508Y73373D02*
X26508Y79644D01*
X28076Y81212D01*
X31211Y81212D01*
X32779Y79644D01*
X32779Y73373D01*
X31211Y71806D01*
X28076Y71806D01*
X26508Y73373D01*
X32779Y79644D01*
X7798Y55812D02*
X7798Y46406D01*
X12501Y46406D01*
X14068Y47973D01*
X14068Y54244D01*
X12501Y55812D01*
X7798Y55812D01*
X17153Y52676D02*
X20288Y55812D01*
X20288Y46406D01*
X17153Y46406D02*
X23424Y46406D01*
X26508Y52676D02*
X29644Y55812D01*
X29644Y46406D01*
X32779Y46406D02*
X26508Y46406D01*
X7798Y30412D02*
X7798Y21006D01*
X12501Y21006D01*
X14068Y22573D01*
X14068Y28844D01*
X12501Y30412D01*
X7798Y30412D01*
X17153Y27276D02*
X20288Y30412D01*
X20288Y21006D01*
X17153Y21006D02*
X23424Y21006D01*
X26508Y21006D02*
X32779Y21006D01*
X32779Y27276D02*
X26508Y21006D01*
X32779Y27276D02*
X32779Y28844D01*
X31211Y30412D01*
X28076Y30412D01*
X26508Y28844D01*
X602158Y376606D02*
X602158Y386012D01*
X602158Y376606D02*
X606861Y376606D01*
X608428Y378173D01*
X608428Y384444D01*
X606861Y386012D01*
X602158Y386012D01*
X611513Y382876D02*
X614648Y386012D01*
X614648Y376606D01*
X611513Y376606D02*
X617784Y376606D01*
X620868Y384444D02*
X622436Y386012D01*
X625571Y386012D01*
X627139Y384444D01*
X627139Y382876D01*
X625571Y381309D01*
X624004Y381309D01*
X625571Y381309D02*
X627139Y379741D01*
X627139Y378173D01*
X625571Y376606D01*
X622436Y376606D01*
X620868Y378173D01*
X603725Y360612D02*
X602158Y359044D01*
X603725Y360612D02*
X606861Y360612D01*
X608428Y359044D01*
X608428Y357476D01*
X606861Y355909D01*
X605293Y355909D01*
X606861Y355909D02*
X608428Y354341D01*
X608428Y352773D01*
X606861Y351206D01*
X603725Y351206D01*
X602158Y352773D01*
X611513Y354341D02*
X611513Y360612D01*
X611513Y354341D02*
X614648Y351206D01*
X617784Y354341D01*
X617784Y360612D01*
X620868Y359044D02*
X622436Y360612D01*
X625571Y360612D01*
X627139Y359044D01*
X627139Y357476D01*
X625571Y355909D01*
X624004Y355909D01*
X625571Y355909D02*
X627139Y354341D01*
X627139Y352773D01*
X625571Y351206D01*
X622436Y351206D01*
X620868Y352773D01*
X602158Y332076D02*
X602158Y325806D01*
X602158Y332076D02*
X605293Y335212D01*
X608428Y332076D01*
X608428Y325806D01*
X608428Y330509D02*
X602158Y330509D01*
X611513Y325806D02*
X611513Y335212D01*
X616216Y335212D01*
X617784Y333644D01*
X617784Y330509D01*
X616216Y328941D01*
X611513Y328941D01*
X614648Y328941D02*
X617784Y325806D01*
X620868Y325806D02*
X620868Y335212D01*
X627139Y335212D01*
X624004Y330509D02*
X620868Y330509D01*
X602158Y306676D02*
X602158Y300406D01*
X602158Y306676D02*
X605293Y309812D01*
X608428Y306676D01*
X608428Y300406D01*
X608428Y305109D02*
X602158Y305109D01*
X611513Y309812D02*
X617784Y309812D01*
X617784Y308244D01*
X611513Y301973D01*
X611513Y300406D01*
X602158Y281276D02*
X602158Y275006D01*
X602158Y281276D02*
X605293Y284412D01*
X608428Y281276D01*
X608428Y275006D01*
X608428Y279709D02*
X602158Y279709D01*
X614648Y282844D02*
X617784Y284412D01*
X614648Y282844D02*
X611513Y279709D01*
X611513Y276573D01*
X613081Y275006D01*
X616216Y275006D01*
X617784Y276573D01*
X617784Y278141D01*
X616216Y279709D01*
X611513Y279709D01*
X602158Y255876D02*
X602158Y249606D01*
X602158Y255876D02*
X605293Y259012D01*
X608428Y255876D01*
X608428Y249606D01*
X608428Y254309D02*
X602158Y254309D01*
X611513Y259012D02*
X617784Y259012D01*
X611513Y259012D02*
X611513Y254309D01*
X614648Y255876D01*
X616216Y255876D01*
X617784Y254309D01*
X617784Y251173D01*
X616216Y249606D01*
X613081Y249606D01*
X611513Y251173D01*
X602158Y230476D02*
X602158Y224206D01*
X602158Y230476D02*
X605293Y233612D01*
X608428Y230476D01*
X608428Y224206D01*
X608428Y228909D02*
X602158Y228909D01*
X616216Y224206D02*
X616216Y233612D01*
X611513Y228909D01*
X617784Y228909D01*
X602158Y205076D02*
X602158Y198806D01*
X602158Y205076D02*
X605293Y208212D01*
X608428Y205076D01*
X608428Y198806D01*
X608428Y203509D02*
X602158Y203509D01*
X611513Y206644D02*
X613081Y208212D01*
X616216Y208212D01*
X617784Y206644D01*
X617784Y205076D01*
X616216Y203509D01*
X614648Y203509D01*
X616216Y203509D02*
X617784Y201941D01*
X617784Y200373D01*
X616216Y198806D01*
X613081Y198806D01*
X611513Y200373D01*
X602158Y179676D02*
X602158Y173406D01*
X602158Y179676D02*
X605293Y182812D01*
X608428Y179676D01*
X608428Y173406D01*
X608428Y178109D02*
X602158Y178109D01*
X611513Y173406D02*
X617784Y173406D01*
X617784Y179676D02*
X611513Y173406D01*
X617784Y179676D02*
X617784Y181244D01*
X616216Y182812D01*
X613081Y182812D01*
X611513Y181244D01*
X602158Y154276D02*
X602158Y148006D01*
X602158Y154276D02*
X605293Y157412D01*
X608428Y154276D01*
X608428Y148006D01*
X608428Y152709D02*
X602158Y152709D01*
X611513Y154276D02*
X614648Y157412D01*
X614648Y148006D01*
X611513Y148006D02*
X617784Y148006D01*
X602158Y128876D02*
X602158Y122606D01*
X602158Y128876D02*
X605293Y132012D01*
X608428Y128876D01*
X608428Y122606D01*
X608428Y127309D02*
X602158Y127309D01*
X611513Y124173D02*
X611513Y130444D01*
X613081Y132012D01*
X616216Y132012D01*
X617784Y130444D01*
X617784Y124173D01*
X616216Y122606D01*
X613081Y122606D01*
X611513Y124173D01*
X617784Y130444D01*
X608428Y109152D02*
X602158Y109152D01*
X602158Y104449D01*
X605293Y106016D01*
X606861Y106016D01*
X608428Y104449D01*
X608428Y101313D01*
X606861Y99746D01*
X603725Y99746D01*
X602158Y101313D01*
X611513Y102881D02*
X611513Y109152D01*
X611513Y102881D02*
X614648Y99746D01*
X617784Y102881D01*
X617784Y109152D01*
X602158Y81212D02*
X602158Y71806D01*
X602158Y81212D02*
X606861Y81212D01*
X608428Y79644D01*
X608428Y76509D01*
X606861Y74941D01*
X602158Y74941D01*
X605293Y74941D02*
X608428Y71806D01*
X617784Y79644D02*
X616216Y81212D01*
X613081Y81212D01*
X611513Y79644D01*
X611513Y78076D01*
X613081Y76509D01*
X616216Y76509D01*
X617784Y74941D01*
X617784Y73373D01*
X616216Y71806D01*
X613081Y71806D01*
X611513Y73373D01*
X624004Y71806D02*
X624004Y81212D01*
X627139Y81212D02*
X620868Y81212D01*
X602898Y56421D02*
X604466Y54854D01*
X602898Y56421D02*
X599763Y56421D01*
X598195Y54854D01*
X598195Y48583D01*
X599763Y47015D01*
X602898Y47015D01*
X604466Y48583D01*
X604466Y51718D01*
X601331Y51718D01*
X607551Y47015D02*
X607551Y56421D01*
X613821Y47015D01*
X613821Y56421D01*
X616906Y56421D02*
X616906Y47015D01*
X621609Y47015D01*
X623176Y48583D01*
X623176Y54854D01*
X621609Y56421D01*
X616906Y56421D01*
X602158Y30412D02*
X602158Y24141D01*
X605293Y21006D01*
X608428Y24141D01*
X608428Y30412D01*
X611513Y21006D02*
X614648Y21006D01*
X613081Y21006D02*
X613081Y30412D01*
X614648Y30412D02*
X611513Y30412D01*
X617750Y30412D02*
X617750Y21006D01*
X624020Y21006D02*
X617750Y30412D01*
X624020Y30412D02*
X624020Y21006D01*
D12*
X31547Y588264D03*
D13*
X31547Y588569D03*
D14*
X31394Y588874D03*
D15*
X31547Y589178D03*
D16*
X23774Y589483D03*
D17*
X31547Y589483D03*
D18*
X39472Y589483D03*
D19*
X23927Y589788D03*
D20*
X31547Y589788D03*
D21*
X39319Y589788D03*
D22*
X24079Y590093D03*
D23*
X31699Y590093D03*
D24*
X39167Y590093D03*
D25*
X24232Y590398D03*
D26*
X31699Y590398D03*
D27*
X38862Y590398D03*
D28*
X24536Y590702D03*
D29*
X30328Y590702D03*
D30*
X38710Y590702D03*
D31*
X24689Y591007D03*
D32*
X38557Y591007D03*
D33*
X24689Y591312D03*
D34*
X32004Y591312D03*
D35*
X38710Y591312D03*
D36*
X24689Y591617D03*
D37*
X31852Y591617D03*
D38*
X38862Y591617D03*
D39*
X24536Y591922D03*
D37*
X31852Y591922D03*
D31*
X39014Y591922D03*
D40*
X24384Y592226D03*
D41*
X31852Y592226D03*
D29*
X39167Y592226D03*
D22*
X22555Y592531D03*
D42*
X26518Y592531D03*
D43*
X32004Y592531D03*
D42*
X37490Y592531D03*
D44*
X40996Y592531D03*
D45*
X22250Y592836D03*
D46*
X24689Y592836D03*
D47*
X26975Y592836D03*
D48*
X32004Y592836D03*
D47*
X37033Y592836D03*
D46*
X39014Y592836D03*
D49*
X41148Y592836D03*
D24*
X22098Y593141D03*
D42*
X24994Y593141D03*
D24*
X32156Y593141D03*
D50*
X38862Y593141D03*
D44*
X41300Y593141D03*
D22*
X21946Y593446D03*
D36*
X26822Y593446D03*
D44*
X32156Y593446D03*
D36*
X36881Y593446D03*
D44*
X41605Y593446D03*
D51*
X21793Y593750D03*
D52*
X27127Y593750D03*
D53*
X36881Y593750D03*
D54*
X41605Y593750D03*
D22*
X21641Y594055D03*
D55*
X31852Y594055D03*
D44*
X41910Y594055D03*
D51*
X21488Y594360D03*
D56*
X31852Y594360D03*
D45*
X42062Y594360D03*
D24*
X21184Y594665D03*
D57*
X31852Y594665D03*
D22*
X42062Y594665D03*
D24*
X21184Y594970D03*
D58*
X31852Y594970D03*
D22*
X42367Y594970D03*
D51*
X20879Y595274D03*
D59*
X31852Y595274D03*
D45*
X42367Y595274D03*
D60*
X20726Y595579D03*
D50*
X23622Y595579D03*
D61*
X32004Y595579D03*
D62*
X40234Y595579D03*
D22*
X42672Y595579D03*
D51*
X20574Y595884D03*
D63*
X23622Y595884D03*
D64*
X31852Y595884D03*
D47*
X40386Y595884D03*
D51*
X42824Y595884D03*
D60*
X20422Y596189D03*
D65*
X23317Y596189D03*
D17*
X31852Y596189D03*
D62*
X40538Y596189D03*
D22*
X42977Y596189D03*
D66*
X20117Y596494D03*
D62*
X23165Y596494D03*
D67*
X24689Y596494D03*
D68*
X32004Y596494D03*
D69*
X39014Y596494D03*
D18*
X40691Y596494D03*
D24*
X43129Y596494D03*
D70*
X20117Y596798D03*
D63*
X23012Y596798D03*
D71*
X24841Y596798D03*
D72*
X32004Y596798D03*
D46*
X39014Y596798D03*
D73*
X40843Y596798D03*
D51*
X43434Y596798D03*
D25*
X19964Y597103D03*
D62*
X22860Y597103D03*
D18*
X24841Y597103D03*
D74*
X31852Y597103D03*
D18*
X39167Y597103D03*
X40996Y597103D03*
D24*
X43434Y597103D03*
D75*
X19812Y597408D03*
D47*
X22708Y597408D03*
X24841Y597408D03*
D73*
X39014Y597408D03*
D46*
X41148Y597408D03*
D75*
X43586Y597408D03*
D25*
X19660Y597713D03*
D18*
X22708Y597713D03*
D65*
X24841Y597713D03*
D42*
X39014Y597713D03*
D16*
X41148Y597713D03*
D25*
X43739Y597713D03*
D76*
X19507Y598018D03*
D77*
X22708Y598018D03*
D55*
X31852Y598018D03*
D69*
X41148Y598018D03*
D25*
X43739Y598018D03*
D78*
X19355Y598322D03*
D79*
X22555Y598322D03*
D80*
X32004Y598322D03*
D81*
X43891Y598322D03*
D76*
X19202Y598627D03*
D67*
X21641Y598627D03*
X22555Y598627D03*
D82*
X32004Y598627D03*
D25*
X44044Y598627D03*
D83*
X19050Y598932D03*
D71*
X21793Y598932D03*
D84*
X32004Y598932D03*
D85*
X41758Y598932D03*
D81*
X44196Y598932D03*
D76*
X18898Y599237D03*
D16*
X21641Y599237D03*
D86*
X32004Y599237D03*
D69*
X41758Y599237D03*
D25*
X44348Y599237D03*
D76*
X18898Y599542D03*
D16*
X21641Y599542D03*
D87*
X32004Y599542D03*
D88*
X41910Y599542D03*
D76*
X44501Y599542D03*
D81*
X18593Y599846D03*
D46*
X21641Y599846D03*
D89*
X32004Y599846D03*
D90*
X41910Y599846D03*
D78*
X44653Y599846D03*
D76*
X18593Y600151D03*
D18*
X21488Y600151D03*
D91*
X32004Y600151D03*
D77*
X42215Y600151D03*
D25*
X44653Y600151D03*
D81*
X18593Y600456D03*
D46*
X21336Y600456D03*
D92*
X32004Y600456D03*
D71*
X42215Y600456D03*
D83*
X44958Y600456D03*
D76*
X18288Y600761D03*
D16*
X21336Y600761D03*
D93*
X31852Y600761D03*
D77*
X42520Y600761D03*
D27*
X44958Y600761D03*
D76*
X18288Y601066D03*
D16*
X21031Y601066D03*
D94*
X32004Y601066D03*
D77*
X42520Y601066D03*
D27*
X44958Y601066D03*
D78*
X18136Y601370D03*
D46*
X21031Y601370D03*
D95*
X31852Y601370D03*
D71*
X42824Y601370D03*
D75*
X45110Y601370D03*
D25*
X18136Y601675D03*
D16*
X21031Y601675D03*
D96*
X32004Y601675D03*
D77*
X42824Y601675D03*
D25*
X45263Y601675D03*
D78*
X18136Y601980D03*
D46*
X20726Y601980D03*
D97*
X32004Y601980D03*
D71*
X42824Y601980D03*
D70*
X45415Y601980D03*
D66*
X17983Y602285D03*
D16*
X20726Y602285D03*
D98*
X31852Y602285D03*
D77*
X43129Y602285D03*
D66*
X45415Y602285D03*
X17983Y602590D03*
D16*
X20422Y602590D03*
D99*
X32004Y602590D03*
D77*
X43129Y602590D03*
D24*
X45568Y602590D03*
D70*
X17983Y602894D03*
D46*
X20422Y602894D03*
D100*
X31852Y602894D03*
D90*
X43434Y602894D03*
D51*
X45568Y602894D03*
D24*
X17831Y603199D03*
D77*
X20269Y603199D03*
D101*
X32004Y603199D03*
D88*
X43434Y603199D03*
D22*
X45720Y603199D03*
D51*
X17831Y603504D03*
D46*
X20117Y603504D03*
D102*
X31852Y603504D03*
D71*
X43739Y603504D03*
D45*
X45720Y603504D03*
D22*
X17678Y603809D03*
D77*
X19964Y603809D03*
D103*
X32004Y603809D03*
D77*
X43739Y603809D03*
D44*
X45872Y603809D03*
D24*
X17526Y604114D03*
D16*
X19812Y604114D03*
D104*
X31852Y604114D03*
D77*
X44044Y604114D03*
D44*
X45872Y604114D03*
D45*
X17374Y604418D03*
D71*
X19660Y604418D03*
D105*
X32004Y604418D03*
D71*
X44044Y604418D03*
D54*
X45872Y604418D03*
D22*
X17374Y604723D03*
D16*
X19507Y604723D03*
D106*
X31852Y604723D03*
D77*
X44348Y604723D03*
D42*
X46025Y604723D03*
D45*
X17374Y605028D03*
D71*
X19355Y605028D03*
D107*
X31852Y605028D03*
D71*
X44348Y605028D03*
D54*
X46177Y605028D03*
D44*
X17221Y605333D03*
D88*
X19050Y605333D03*
D108*
X31852Y605333D03*
D67*
X44501Y605333D03*
D42*
X46330Y605333D03*
D44*
X17221Y605638D03*
D69*
X18898Y605638D03*
D109*
X31852Y605638D03*
D77*
X44653Y605638D03*
D42*
X46330Y605638D03*
D21*
X17069Y605942D03*
D85*
X18898Y605942D03*
D110*
X31852Y605942D03*
D85*
X44806Y605942D03*
D63*
X46482Y605942D03*
D42*
X17069Y606247D03*
D67*
X18593Y606247D03*
D111*
X31852Y606247D03*
D69*
X45110Y606247D03*
D50*
X46482Y606247D03*
D63*
X16916Y606552D03*
D79*
X18593Y606552D03*
D112*
X31852Y606552D03*
D73*
X46634Y606552D03*
D50*
X16916Y606857D03*
D69*
X18288Y606857D03*
D113*
X31852Y606857D03*
D67*
X45415Y606857D03*
D62*
X46634Y606857D03*
X16764Y607162D03*
D113*
X31852Y607162D03*
D18*
X46787Y607162D03*
D73*
X16764Y607466D03*
D79*
X17983Y607466D03*
D114*
X31852Y607466D03*
D47*
X46787Y607466D03*
D18*
X16612Y607771D03*
D115*
X32004Y607771D03*
D16*
X46939Y607771D03*
D73*
X16459Y608076D03*
D85*
X17678Y608076D03*
D116*
X31852Y608076D03*
D46*
X46939Y608076D03*
D18*
X16307Y608381D03*
D117*
X31852Y608381D03*
D16*
X46939Y608381D03*
D18*
X16307Y608686D03*
D118*
X32004Y608686D03*
D77*
X47092Y608686D03*
D46*
X16154Y608990D03*
D119*
X32004Y608990D03*
D46*
X47244Y608990D03*
D16*
X16154Y609295D03*
D120*
X32004Y609295D03*
D77*
X47396Y609295D03*
D46*
X16154Y609600D03*
D121*
X32004Y609600D03*
D71*
X47396Y609600D03*
D88*
X16002Y609905D03*
D122*
X31852Y609905D03*
D67*
X47549Y609905D03*
D88*
X16002Y610210D03*
D123*
X32004Y610210D03*
D67*
X47549Y610210D03*
D85*
X15850Y610514D03*
D124*
X31852Y610514D03*
D69*
X15850Y610819D03*
D125*
X32004Y610819D03*
D126*
X31852Y611124D03*
D127*
X31852Y611429D03*
X31852Y611734D03*
D128*
X31852Y612038D03*
D129*
X31852Y612343D03*
D130*
X31699Y612648D03*
D131*
X20574Y612953D03*
D132*
X31547Y612953D03*
D133*
X42824Y612953D03*
D134*
X19355Y613258D03*
X31547Y613258D03*
D132*
X43739Y613258D03*
D52*
X18593Y613562D03*
D12*
X31547Y613562D03*
D34*
X44501Y613562D03*
D39*
X18136Y613867D03*
D135*
X31547Y613867D03*
D136*
X45415Y613867D03*
D29*
X17526Y614172D03*
X45872Y614172D03*
D32*
X17221Y614477D03*
X46177Y614477D03*
D137*
X17069Y614782D03*
D135*
X31547Y614782D03*
D138*
X46482Y614782D03*
D28*
X16916Y615086D03*
D139*
X31547Y615086D03*
D30*
X46634Y615086D03*
D76*
X16764Y615391D03*
D131*
X31852Y615391D03*
D140*
X46787Y615391D03*
D81*
X16764Y615696D03*
D20*
X31852Y615696D03*
D81*
X46939Y615696D03*
D25*
X16612Y616001D03*
D17*
X31852Y616001D03*
D25*
X47092Y616001D03*
X16612Y616306D03*
D141*
X32004Y616306D03*
D25*
X47092Y616306D03*
D51*
X16612Y616610D03*
D142*
X32004Y616610D03*
D75*
X47244Y616610D03*
D69*
X14630Y616915D03*
D24*
X16612Y616915D03*
D143*
X32004Y616915D03*
D24*
X47396Y616915D03*
D85*
X14630Y617220D03*
D45*
X16459Y617220D03*
D144*
X32004Y617220D03*
D45*
X47244Y617220D03*
D69*
X14630Y617525D03*
D22*
X16459Y617525D03*
D91*
X32004Y617525D03*
D22*
X47244Y617525D03*
D69*
X14630Y617830D03*
D44*
X16612Y617830D03*
D96*
X32004Y617830D03*
D22*
X47244Y617830D03*
D67*
X49073Y617830D03*
D69*
X49682Y617830D03*
D79*
X14021Y618134D03*
D71*
X14783Y618134D03*
D54*
X16612Y618134D03*
D145*
X32004Y618134D03*
D51*
X47092Y618134D03*
D79*
X49073Y618134D03*
D85*
X49682Y618134D03*
D67*
X14021Y618439D03*
D77*
X14783Y618439D03*
D44*
X16612Y618439D03*
D104*
X32156Y618439D03*
D22*
X46939Y618439D03*
D67*
X49073Y618439D03*
D77*
X49835Y618439D03*
D71*
X13868Y618744D03*
X14783Y618744D03*
D54*
X16612Y618744D03*
D107*
X32156Y618744D03*
D45*
X46939Y618744D03*
D79*
X49073Y618744D03*
D71*
X49835Y618744D03*
D77*
X13868Y619049D03*
X14783Y619049D03*
D22*
X16764Y619049D03*
D111*
X32156Y619049D03*
D22*
X46939Y619049D03*
D77*
X48920Y619049D03*
D16*
X49987Y619049D03*
X13716Y619354D03*
D77*
X14783Y619354D03*
D44*
X16916Y619354D03*
D146*
X32309Y619354D03*
D22*
X46939Y619354D03*
D77*
X48920Y619354D03*
D16*
X49987Y619354D03*
D46*
X13716Y619658D03*
X14935Y619658D03*
D54*
X16916Y619658D03*
D147*
X33376Y619658D03*
D71*
X48920Y619658D03*
D47*
X50140Y619658D03*
D18*
X13564Y619963D03*
D16*
X14935Y619963D03*
D129*
X31852Y619963D03*
D77*
X48920Y619963D03*
D18*
X50140Y619963D03*
D47*
X13564Y620268D03*
D46*
X14935Y620268D03*
D128*
X31852Y620268D03*
D46*
X48768Y620268D03*
D73*
X50292Y620268D03*
D18*
X13564Y620573D03*
D16*
X14935Y620573D03*
D148*
X32004Y620573D03*
D16*
X48768Y620573D03*
D62*
X50292Y620573D03*
X13411Y620878D03*
D18*
X15088Y620878D03*
D148*
X32004Y620878D03*
D16*
X48768Y620878D03*
D62*
X50292Y620878D03*
D73*
X13411Y621182D03*
D47*
X15088Y621182D03*
D149*
X31852Y621182D03*
D46*
X48768Y621182D03*
D47*
X50444Y621182D03*
D62*
X13411Y621487D03*
D18*
X15088Y621487D03*
D127*
X31852Y621487D03*
D18*
X48616Y621487D03*
D62*
X50597Y621487D03*
D73*
X13411Y621792D03*
D47*
X15088Y621792D03*
D149*
X31852Y621792D03*
D47*
X48616Y621792D03*
D73*
X50597Y621792D03*
D62*
X13411Y622097D03*
D18*
X15088Y622097D03*
D150*
X32004Y622097D03*
D18*
X48616Y622097D03*
D62*
X50597Y622097D03*
X13411Y622402D03*
D18*
X15088Y622402D03*
D150*
X32004Y622402D03*
D18*
X48616Y622402D03*
D62*
X50597Y622402D03*
D19*
X13259Y622706D03*
D47*
X15088Y622706D03*
D151*
X32004Y622706D03*
D47*
X48616Y622706D03*
D73*
X50597Y622706D03*
D65*
X13259Y623011D03*
D18*
X15088Y623011D03*
D150*
X32004Y623011D03*
D18*
X48616Y623011D03*
D65*
X50749Y623011D03*
D73*
X13106Y623316D03*
D47*
X15088Y623316D03*
D151*
X32004Y623316D03*
D47*
X48616Y623316D03*
D19*
X50749Y623316D03*
D62*
X13106Y623621D03*
D18*
X15088Y623621D03*
D150*
X32004Y623621D03*
D18*
X48616Y623621D03*
D65*
X50749Y623621D03*
D62*
X13106Y623926D03*
D18*
X15088Y623926D03*
D150*
X32004Y623926D03*
D18*
X48616Y623926D03*
D65*
X50749Y623926D03*
D73*
X13106Y624230D03*
D47*
X15088Y624230D03*
D151*
X32004Y624230D03*
D47*
X48616Y624230D03*
D19*
X50749Y624230D03*
D62*
X13106Y624535D03*
D18*
X15088Y624535D03*
D150*
X32004Y624535D03*
D18*
X48616Y624535D03*
D65*
X50749Y624535D03*
D73*
X13106Y624840D03*
D47*
X15088Y624840D03*
D151*
X32004Y624840D03*
D47*
X48616Y624840D03*
D19*
X50749Y624840D03*
D62*
X13106Y625145D03*
D18*
X15088Y625145D03*
D150*
X32004Y625145D03*
D18*
X48616Y625145D03*
D65*
X50749Y625145D03*
D62*
X13106Y625450D03*
D18*
X15088Y625450D03*
D150*
X32004Y625450D03*
D18*
X48616Y625450D03*
D65*
X50749Y625450D03*
D73*
X13106Y625754D03*
D47*
X15088Y625754D03*
D151*
X32004Y625754D03*
D47*
X48616Y625754D03*
D19*
X50749Y625754D03*
D62*
X13106Y626059D03*
D18*
X15088Y626059D03*
D150*
X32004Y626059D03*
D62*
X48768Y626059D03*
D65*
X50749Y626059D03*
D73*
X13106Y626364D03*
D47*
X15088Y626364D03*
D152*
X23622Y626364D03*
D153*
X40234Y626364D03*
D73*
X48768Y626364D03*
D19*
X50749Y626364D03*
D62*
X13106Y626669D03*
D18*
X15088Y626669D03*
D17*
X22708Y626669D03*
D77*
X31852Y626669D03*
D154*
X40996Y626669D03*
D62*
X48768Y626669D03*
D65*
X50749Y626669D03*
D62*
X13106Y626974D03*
D18*
X15088Y626974D03*
D155*
X21793Y626974D03*
D140*
X31852Y626974D03*
D74*
X41910Y626974D03*
D62*
X48768Y626974D03*
D65*
X50749Y626974D03*
D73*
X13106Y627278D03*
D47*
X15088Y627278D03*
D156*
X21641Y627278D03*
D157*
X31547Y627278D03*
D158*
X42215Y627278D03*
D73*
X48768Y627278D03*
D19*
X50749Y627278D03*
D62*
X13106Y627583D03*
D18*
X15088Y627583D03*
D23*
X21641Y627583D03*
D159*
X32004Y627583D03*
D155*
X42215Y627583D03*
D62*
X48768Y627583D03*
D65*
X50749Y627583D03*
D73*
X13106Y627888D03*
D47*
X15088Y627888D03*
D156*
X21641Y627888D03*
D139*
X31852Y627888D03*
D158*
X42215Y627888D03*
D73*
X48768Y627888D03*
D19*
X50749Y627888D03*
D62*
X13106Y628193D03*
D18*
X15088Y628193D03*
D23*
X21641Y628193D03*
D132*
X31852Y628193D03*
D23*
X42367Y628193D03*
D62*
X48768Y628193D03*
X50597Y628193D03*
X13106Y628498D03*
D18*
X15088Y628498D03*
D23*
X21641Y628498D03*
D132*
X31852Y628498D03*
D23*
X42367Y628498D03*
D62*
X48768Y628498D03*
X50597Y628498D03*
D73*
X13106Y628802D03*
X14935Y628802D03*
D156*
X21641Y628802D03*
D139*
X31852Y628802D03*
D156*
X42367Y628802D03*
D73*
X48768Y628802D03*
X50597Y628802D03*
D18*
X13259Y629107D03*
D62*
X14935Y629107D03*
D23*
X21641Y629107D03*
D160*
X32004Y629107D03*
D23*
X42367Y629107D03*
D62*
X48768Y629107D03*
X50597Y629107D03*
D47*
X13259Y629412D03*
D73*
X14935Y629412D03*
D156*
X21641Y629412D03*
D161*
X32004Y629412D03*
D156*
X42367Y629412D03*
D73*
X48768Y629412D03*
X50597Y629412D03*
D18*
X13259Y629717D03*
D62*
X14935Y629717D03*
D23*
X21641Y629717D03*
D160*
X32004Y629717D03*
D23*
X42367Y629717D03*
D62*
X48768Y629717D03*
D18*
X50444Y629717D03*
D16*
X13411Y630022D03*
D62*
X14935Y630022D03*
D131*
X21488Y630022D03*
D160*
X32004Y630022D03*
D23*
X42367Y630022D03*
D62*
X48768Y630022D03*
D18*
X50444Y630022D03*
D46*
X13411Y630326D03*
D73*
X14935Y630326D03*
D162*
X21488Y630326D03*
D161*
X32004Y630326D03*
D156*
X42367Y630326D03*
D73*
X48768Y630326D03*
D47*
X50444Y630326D03*
D16*
X13411Y630631D03*
D62*
X14935Y630631D03*
D131*
X21488Y630631D03*
D160*
X32004Y630631D03*
D23*
X42367Y630631D03*
D62*
X48768Y630631D03*
D16*
X50292Y630631D03*
D71*
X13564Y630936D03*
D73*
X14935Y630936D03*
D162*
X21488Y630936D03*
D163*
X31852Y630936D03*
D156*
X42367Y630936D03*
D73*
X48768Y630936D03*
D46*
X50292Y630936D03*
D69*
X13716Y631241D03*
D62*
X14935Y631241D03*
D131*
X21488Y631241D03*
D164*
X31852Y631241D03*
D131*
X42520Y631241D03*
D62*
X48768Y631241D03*
D77*
X50140Y631241D03*
D69*
X13716Y631546D03*
D62*
X14935Y631546D03*
D131*
X21488Y631546D03*
D164*
X31852Y631546D03*
D131*
X42520Y631546D03*
D62*
X48768Y631546D03*
D67*
X49987Y631546D03*
D73*
X14935Y631850D03*
D162*
X21488Y631850D03*
D163*
X31852Y631850D03*
D162*
X42520Y631850D03*
D73*
X48768Y631850D03*
D79*
X49987Y631850D03*
D62*
X14935Y632155D03*
D131*
X21488Y632155D03*
D165*
X32004Y632155D03*
D131*
X42520Y632155D03*
D62*
X48768Y632155D03*
D73*
X14935Y632460D03*
D162*
X21488Y632460D03*
D166*
X32004Y632460D03*
D162*
X42520Y632460D03*
D73*
X48768Y632460D03*
D62*
X14935Y632765D03*
D131*
X21488Y632765D03*
D165*
X32004Y632765D03*
D131*
X42520Y632765D03*
D62*
X48768Y632765D03*
X14935Y633070D03*
D131*
X21488Y633070D03*
D165*
X32004Y633070D03*
D131*
X42520Y633070D03*
D62*
X48768Y633070D03*
D73*
X14935Y633374D03*
D166*
X21336Y633374D03*
X32004Y633374D03*
D162*
X42520Y633374D03*
D73*
X48768Y633374D03*
D18*
X15088Y633679D03*
D165*
X21336Y633679D03*
X32004Y633679D03*
D131*
X42520Y633679D03*
D62*
X48768Y633679D03*
D47*
X15088Y633984D03*
D166*
X21336Y633984D03*
X32004Y633984D03*
D162*
X42520Y633984D03*
D73*
X48768Y633984D03*
D18*
X15088Y634289D03*
D165*
X21336Y634289D03*
D131*
X31852Y634289D03*
D165*
X42672Y634289D03*
D18*
X48616Y634289D03*
X15088Y634594D03*
D165*
X21336Y634594D03*
D131*
X31852Y634594D03*
D165*
X42672Y634594D03*
D18*
X48616Y634594D03*
D47*
X15088Y634898D03*
D166*
X21336Y634898D03*
D162*
X31852Y634898D03*
D166*
X42672Y634898D03*
D47*
X48616Y634898D03*
D18*
X15088Y635203D03*
D165*
X21336Y635203D03*
D23*
X32004Y635203D03*
D165*
X42672Y635203D03*
D18*
X48616Y635203D03*
D47*
X15088Y635508D03*
D166*
X21336Y635508D03*
D156*
X32004Y635508D03*
D166*
X42672Y635508D03*
D47*
X48616Y635508D03*
D18*
X15088Y635813D03*
D165*
X21336Y635813D03*
D23*
X32004Y635813D03*
D165*
X42672Y635813D03*
D18*
X48616Y635813D03*
X15088Y636118D03*
D165*
X21336Y636118D03*
D23*
X32004Y636118D03*
D165*
X42672Y636118D03*
D18*
X48616Y636118D03*
D47*
X15088Y636422D03*
D163*
X21184Y636422D03*
D156*
X32004Y636422D03*
D166*
X42672Y636422D03*
D47*
X48616Y636422D03*
D18*
X15088Y636727D03*
D164*
X21184Y636727D03*
D23*
X32004Y636727D03*
D165*
X42672Y636727D03*
D18*
X48616Y636727D03*
D47*
X15088Y637032D03*
D163*
X21184Y637032D03*
D156*
X32004Y637032D03*
D166*
X42672Y637032D03*
D47*
X48616Y637032D03*
D18*
X15088Y637337D03*
D164*
X21184Y637337D03*
D133*
X31852Y637337D03*
D164*
X42824Y637337D03*
D18*
X48616Y637337D03*
X15088Y637642D03*
D164*
X21184Y637642D03*
D133*
X31852Y637642D03*
D164*
X42824Y637642D03*
D18*
X48616Y637642D03*
D46*
X15240Y637946D03*
D163*
X21184Y637946D03*
D167*
X32004Y637946D03*
D163*
X42824Y637946D03*
D46*
X48463Y637946D03*
D16*
X15240Y638251D03*
D164*
X21184Y638251D03*
D168*
X32004Y638251D03*
D164*
X42824Y638251D03*
D16*
X48463Y638251D03*
D46*
X15240Y638556D03*
D163*
X21184Y638556D03*
D167*
X32004Y638556D03*
D163*
X42824Y638556D03*
D46*
X48463Y638556D03*
D16*
X15240Y638861D03*
D164*
X21184Y638861D03*
D168*
X32004Y638861D03*
D164*
X42824Y638861D03*
D16*
X48463Y638861D03*
X15240Y639166D03*
D165*
X21031Y639166D03*
D168*
X32004Y639166D03*
D164*
X42824Y639166D03*
D16*
X48463Y639166D03*
D46*
X15240Y639470D03*
D169*
X21031Y639470D03*
D167*
X32004Y639470D03*
D139*
X42520Y639470D03*
D46*
X48463Y639470D03*
D18*
X15392Y639775D03*
D132*
X21184Y639775D03*
D168*
X32004Y639775D03*
D159*
X42367Y639775D03*
D62*
X48158Y639775D03*
D19*
X15697Y640080D03*
D12*
X21488Y640080D03*
D167*
X32004Y640080D03*
D157*
X42215Y640080D03*
D63*
X48006Y640080D03*
D44*
X16002Y640385D03*
D135*
X21793Y640385D03*
D74*
X31852Y640385D03*
D170*
X41910Y640385D03*
D44*
X47701Y640385D03*
D22*
X16154Y640690D03*
D170*
X22098Y640690D03*
D74*
X31852Y640690D03*
D171*
X41758Y640690D03*
D24*
X47396Y640690D03*
D70*
X16459Y640994D03*
D172*
X22403Y640994D03*
D72*
X32004Y640994D03*
D53*
X41453Y640994D03*
D75*
X47244Y640994D03*
D76*
X16764Y641299D03*
D39*
X22708Y641299D03*
D173*
X32004Y641299D03*
D36*
X41148Y641299D03*
D76*
X46939Y641299D03*
D30*
X17069Y641604D03*
D29*
X23012Y641604D03*
D72*
X32004Y641604D03*
D174*
X40691Y641604D03*
D28*
X46482Y641604D03*
D38*
X17526Y641909D03*
D137*
X23470Y641909D03*
D173*
X32004Y641909D03*
D76*
X40234Y641909D03*
D31*
X46025Y641909D03*
D36*
X17983Y642214D03*
D66*
X24079Y642214D03*
D173*
X32004Y642214D03*
D24*
X39776Y642214D03*
D39*
X45568Y642214D03*
D52*
X18593Y642518D03*
D21*
X24689Y642518D03*
D72*
X32004Y642518D03*
D21*
X39319Y642518D03*
D52*
X45110Y642518D03*
D175*
X19202Y642823D03*
D69*
X25298Y642823D03*
D173*
X32004Y642823D03*
D18*
X38862Y642823D03*
D135*
X44653Y642823D03*
D161*
X19812Y643128D03*
D72*
X32004Y643128D03*
D176*
X44196Y643128D03*
D177*
X26518Y643433D03*
D164*
X43739Y643433D03*
D178*
X31852Y643738D03*
D179*
X31852Y644042D03*
D180*
X31852Y644347D03*
D128*
X31852Y644652D03*
D127*
X31852Y644957D03*
D181*
X31852Y645262D03*
D182*
X31699Y645566D03*
D123*
X31699Y645871D03*
D183*
X31852Y646176D03*
D184*
X31852Y646481D03*
D185*
X31852Y646786D03*
D186*
X32004Y647090D03*
D115*
X32004Y647395D03*
D187*
X32004Y647700D03*
D188*
X31852Y648005D03*
D189*
X32004Y648310D03*
D190*
X32004Y648614D03*
D104*
X31852Y648919D03*
D100*
X31852Y649224D03*
D191*
X31852Y649529D03*
D192*
X31852Y649834D03*
D84*
X32004Y650138D03*
D193*
X31852Y650443D03*
D194*
X31852Y650748D03*
D173*
X32004Y651053D03*
D159*
X32004Y651358D03*
D30*
X32004Y651662D03*
D195*
X60249Y641198D02*
X64147Y641198D01*
X62198Y641198D02*
X62198Y652892D01*
X60249Y652892D02*
X64147Y652892D01*
X68045Y648994D02*
X68045Y641198D01*
X68045Y645096D02*
X71943Y648994D01*
X73892Y648994D01*
X79739Y641198D02*
X83637Y641198D01*
X85586Y643147D01*
X85586Y647045D01*
X83637Y648994D01*
X79739Y648994D01*
X77790Y647045D01*
X77790Y643147D01*
X79739Y641198D01*
X89484Y641198D02*
X89484Y648994D01*
X95331Y648994D01*
X97280Y647045D01*
X97280Y641198D01*
X101178Y641198D02*
X101178Y652892D01*
X107025Y652892D01*
X108974Y650943D01*
X108974Y648994D01*
X107025Y647045D01*
X108974Y645096D01*
X108974Y643147D01*
X107025Y641198D01*
X101178Y641198D01*
X101178Y647045D02*
X107025Y647045D01*
X114821Y641198D02*
X118719Y641198D01*
X120668Y643147D01*
X120668Y647045D01*
X118719Y648994D01*
X114821Y648994D01*
X112872Y647045D01*
X112872Y643147D01*
X114821Y641198D01*
X126515Y648994D02*
X130413Y648994D01*
X132362Y647045D01*
X132362Y641198D01*
X126515Y641198D01*
X124566Y643147D01*
X126515Y645096D01*
X132362Y645096D01*
X136260Y641198D02*
X136260Y648994D01*
X136260Y645096D02*
X140158Y648994D01*
X142107Y648994D01*
X153801Y652892D02*
X153801Y641198D01*
X147954Y641198D01*
X146005Y643147D01*
X146005Y647045D01*
X147954Y648994D01*
X153801Y648994D01*
X169392Y652892D02*
X169392Y641198D01*
X169392Y652892D02*
X175239Y652892D01*
X177188Y650943D01*
X177188Y647045D01*
X175239Y645096D01*
X169392Y645096D01*
X173290Y645096D02*
X177188Y641198D01*
X183035Y641198D02*
X186933Y641198D01*
X183035Y641198D02*
X181086Y643147D01*
X181086Y647045D01*
X183035Y648994D01*
X186933Y648994D01*
X188882Y647045D01*
X188882Y645096D01*
X181086Y645096D01*
X192780Y648994D02*
X196678Y641198D01*
X200576Y648994D01*
X216168Y648994D02*
X216168Y641198D01*
X216168Y648994D02*
X220066Y652892D01*
X223964Y648994D01*
X223964Y641198D01*
X223964Y647045D02*
X216168Y647045D01*
D11*
X81632Y630316D02*
X80065Y631884D01*
X76929Y631884D01*
X75362Y630316D01*
X75362Y628748D01*
X76929Y627181D01*
X80065Y627181D01*
X81632Y625613D01*
X81632Y624045D01*
X80065Y622478D01*
X76929Y622478D01*
X75362Y624045D01*
X84717Y622478D02*
X84717Y631884D01*
X86285Y628748D02*
X84717Y627181D01*
X86285Y628748D02*
X89420Y628748D01*
X90988Y627181D01*
X90988Y622478D01*
X95640Y628748D02*
X98775Y628748D01*
X100343Y627181D01*
X100343Y622478D01*
X95640Y622478D01*
X94072Y624045D01*
X95640Y625613D01*
X100343Y625613D01*
X103427Y624045D02*
X103427Y628748D01*
X103427Y624045D02*
X104995Y622478D01*
X106563Y624045D01*
X108130Y622478D01*
X109698Y624045D01*
X109698Y628748D01*
X112783Y628748D02*
X112783Y622478D01*
X112783Y628748D02*
X117486Y628748D01*
X119053Y627181D01*
X119053Y622478D01*
X131493Y625613D02*
X131493Y631884D01*
X131493Y625613D02*
X134628Y622478D01*
X137764Y625613D01*
X137764Y631884D01*
X140848Y628748D02*
X142416Y628748D01*
X142416Y622478D01*
X143983Y622478D02*
X140848Y622478D01*
X142416Y631884D02*
X142416Y633451D01*
X148653Y628748D02*
X153356Y628748D01*
X148653Y628748D02*
X147085Y627181D01*
X147085Y624045D01*
X148653Y622478D01*
X153356Y622478D01*
X158008Y624045D02*
X158008Y630316D01*
X158008Y624045D02*
X159575Y622478D01*
X159575Y628748D02*
X156440Y628748D01*
X164245Y622478D02*
X167380Y622478D01*
X168948Y624045D01*
X168948Y627181D01*
X167380Y628748D01*
X164245Y628748D01*
X162677Y627181D01*
X162677Y624045D01*
X164245Y622478D01*
X172032Y622478D02*
X172032Y628748D01*
X172032Y625613D02*
X175167Y628748D01*
X176735Y628748D01*
D196*
X265391Y193036D02*
X258207Y185852D01*
X352320Y175794D02*
X359504Y168609D01*
X265391Y193036D02*
X258207Y185852D01*
X346393Y262184D02*
X353577Y269368D01*
X352320Y175794D02*
X359504Y168609D01*
X352320Y175794D01*
X359504Y168609D01*
X265391Y193036D02*
X258207Y185852D01*
X318554Y265237D02*
X317297Y266494D01*
X321068Y257334D02*
X313525Y257334D01*
X268265Y214948D02*
X267007Y216205D01*
X317297Y165915D02*
X318554Y167173D01*
X367586Y216205D02*
X366329Y217462D01*
X317297Y266494D02*
X316040Y265237D01*
X268265Y217462D02*
X267007Y216205D01*
X316040Y167173D02*
X317297Y165915D01*
X366329Y214948D02*
X367586Y216205D01*
D11*
X301887Y276638D02*
X301887Y287903D01*
X307519Y282271D02*
X296254Y282271D01*
X299070Y285087D02*
X304703Y279454D01*
X299070Y279454D02*
X304703Y285087D01*
D197*
X242233Y207595D02*
X231148Y196510D01*
X231148Y192076D01*
X235582Y187642D01*
X240016Y187642D01*
X251101Y198727D01*
X251360Y189600D02*
X260228Y189600D01*
X246926Y176298D01*
X242492Y180732D02*
X251360Y171864D01*
D11*
X288919Y236141D02*
X294552Y241773D01*
X300184Y241773D01*
X300184Y236141D01*
X294552Y230508D01*
X298776Y234733D02*
X293143Y240365D01*
X300004Y225056D02*
X308453Y233504D01*
X311269Y230688D02*
X305637Y236321D01*
X313906Y228052D02*
X305457Y219603D01*
X313906Y222419D02*
X313906Y228052D01*
X313906Y222419D02*
X319538Y222419D01*
X311089Y213971D01*
X322174Y219783D02*
X327807Y214150D01*
X322174Y219783D02*
X313726Y211334D01*
X319358Y205702D01*
X320766Y212742D02*
X317950Y215559D01*
X334668Y207290D02*
X334668Y204473D01*
X334668Y207290D02*
X331851Y210106D01*
X329035Y210106D01*
X323403Y204473D01*
X323403Y201657D01*
X326219Y198841D01*
X329035Y198841D01*
X331851Y201657D01*
X329035Y204473D01*
X335896Y200429D02*
X330264Y194796D01*
X335896Y200429D02*
X341528Y200429D01*
X341528Y194796D01*
X335896Y189164D01*
X340120Y193388D02*
X334488Y199021D01*
X345573Y193568D02*
X348389Y193568D01*
X351205Y190752D01*
X351205Y187936D01*
X349797Y186527D01*
X346981Y186527D01*
X345573Y187936D01*
X346981Y186527D02*
X346981Y183711D01*
X345573Y182303D01*
X342757Y182303D01*
X339940Y185119D01*
X339940Y187936D01*
X346801Y178259D02*
X352434Y172626D01*
X358066Y178259D02*
X346801Y178259D01*
X358066Y178259D02*
X359474Y179667D01*
X359474Y182483D01*
X356658Y185299D01*
X353842Y185299D01*
X362111Y177030D02*
X364927Y177030D01*
X367743Y174214D01*
X367743Y171398D01*
X366335Y169990D01*
X363519Y169990D01*
X363519Y167173D01*
X362111Y165765D01*
X359294Y165765D01*
X356478Y168582D01*
X356478Y171398D01*
X357886Y172806D01*
X360703Y172806D01*
X360703Y175622D01*
X362111Y177030D01*
X360703Y172806D02*
X363519Y169990D01*
X363339Y161721D02*
X371788Y170169D01*
X376012Y165945D01*
X376012Y163129D01*
X373196Y160313D01*
X370380Y160313D01*
X366155Y164537D01*
X375832Y157676D02*
X381465Y152044D01*
X385509Y150815D02*
X379877Y145183D01*
X385509Y150815D02*
X391142Y150815D01*
X391142Y145183D01*
X385509Y139551D01*
X389734Y143775D02*
X384101Y149407D01*
X389554Y138322D02*
X396594Y145363D01*
X389554Y138322D02*
X389554Y135506D01*
X392370Y132690D01*
X395186Y132690D01*
X402227Y139730D01*
D10*
X327457Y216205D02*
X307137Y216205D01*
X317297Y206045D02*
X317297Y226365D01*
D197*
X288087Y429565D02*
X219507Y429565D01*
X219507Y383845D02*
X288087Y383845D01*
X219507Y383845D02*
X218950Y383852D01*
X218394Y383872D01*
X217838Y383906D01*
X217284Y383953D01*
X216730Y384014D01*
X216179Y384089D01*
X215629Y384176D01*
X215081Y384277D01*
X214537Y384392D01*
X213995Y384520D01*
X213456Y384660D01*
X212921Y384814D01*
X212390Y384981D01*
X211863Y385161D01*
X211341Y385353D01*
X210823Y385559D01*
X210311Y385776D01*
X209804Y386006D01*
X209303Y386249D01*
X208808Y386503D01*
X208319Y386770D01*
X207837Y387048D01*
X207362Y387338D01*
X206894Y387640D01*
X206433Y387953D01*
X205980Y388277D01*
X205536Y388611D01*
X205099Y388957D01*
X204671Y389313D01*
X204252Y389680D01*
X203842Y390056D01*
X203441Y390442D01*
X203050Y390838D01*
X202669Y391244D01*
X202297Y391659D01*
X201936Y392082D01*
X201585Y392514D01*
X201245Y392955D01*
X200915Y393404D01*
X200597Y393860D01*
X200290Y394325D01*
X199994Y394796D01*
X199710Y395275D01*
X199437Y395760D01*
X199177Y396252D01*
X198928Y396751D01*
X198692Y397255D01*
X198468Y397764D01*
X198256Y398279D01*
X198058Y398799D01*
X197871Y399324D01*
X197698Y399853D01*
X197538Y400386D01*
X197390Y400923D01*
X197256Y401463D01*
X197135Y402007D01*
X197027Y402553D01*
X196933Y403101D01*
X196852Y403652D01*
X196784Y404205D01*
X196730Y404759D01*
X196689Y405314D01*
X196662Y405870D01*
X196649Y406427D01*
X196649Y406983D01*
X196662Y407540D01*
X196689Y408096D01*
X196730Y408651D01*
X196784Y409205D01*
X196852Y409758D01*
X196933Y410309D01*
X197027Y410857D01*
X197135Y411403D01*
X197256Y411947D01*
X197390Y412487D01*
X197538Y413024D01*
X197698Y413557D01*
X197871Y414086D01*
X198058Y414611D01*
X198256Y415131D01*
X198468Y415646D01*
X198692Y416155D01*
X198928Y416659D01*
X199177Y417158D01*
X199437Y417650D01*
X199710Y418135D01*
X199994Y418614D01*
X200290Y419085D01*
X200597Y419550D01*
X200915Y420006D01*
X201245Y420455D01*
X201585Y420896D01*
X201936Y421328D01*
X202297Y421751D01*
X202669Y422166D01*
X203050Y422572D01*
X203441Y422968D01*
X203842Y423354D01*
X204252Y423730D01*
X204671Y424097D01*
X205099Y424453D01*
X205536Y424799D01*
X205980Y425133D01*
X206433Y425457D01*
X206894Y425770D01*
X207362Y426072D01*
X207837Y426362D01*
X208319Y426640D01*
X208808Y426907D01*
X209303Y427161D01*
X209804Y427404D01*
X210311Y427634D01*
X210823Y427851D01*
X211341Y428057D01*
X211863Y428249D01*
X212390Y428429D01*
X212921Y428596D01*
X213456Y428750D01*
X213995Y428890D01*
X214537Y429018D01*
X215081Y429133D01*
X215629Y429234D01*
X216179Y429321D01*
X216730Y429396D01*
X217284Y429457D01*
X217838Y429504D01*
X218394Y429538D01*
X218950Y429558D01*
X219507Y429565D01*
X288087Y429565D02*
X288644Y429558D01*
X289200Y429538D01*
X289756Y429504D01*
X290310Y429457D01*
X290864Y429396D01*
X291415Y429321D01*
X291965Y429234D01*
X292513Y429133D01*
X293057Y429018D01*
X293599Y428890D01*
X294138Y428750D01*
X294673Y428596D01*
X295204Y428429D01*
X295731Y428249D01*
X296253Y428057D01*
X296771Y427851D01*
X297283Y427634D01*
X297790Y427404D01*
X298291Y427161D01*
X298786Y426907D01*
X299275Y426640D01*
X299757Y426362D01*
X300232Y426072D01*
X300700Y425770D01*
X301161Y425457D01*
X301614Y425133D01*
X302058Y424799D01*
X302495Y424453D01*
X302923Y424097D01*
X303342Y423730D01*
X303752Y423354D01*
X304153Y422968D01*
X304544Y422572D01*
X304925Y422166D01*
X305297Y421751D01*
X305658Y421328D01*
X306009Y420896D01*
X306349Y420455D01*
X306679Y420006D01*
X306997Y419550D01*
X307304Y419085D01*
X307600Y418614D01*
X307884Y418135D01*
X308157Y417650D01*
X308417Y417158D01*
X308666Y416659D01*
X308902Y416155D01*
X309126Y415646D01*
X309338Y415131D01*
X309536Y414611D01*
X309723Y414086D01*
X309896Y413557D01*
X310056Y413024D01*
X310204Y412487D01*
X310338Y411947D01*
X310459Y411403D01*
X310567Y410857D01*
X310661Y410309D01*
X310742Y409758D01*
X310810Y409205D01*
X310864Y408651D01*
X310905Y408096D01*
X310932Y407540D01*
X310945Y406983D01*
X310945Y406427D01*
X310932Y405870D01*
X310905Y405314D01*
X310864Y404759D01*
X310810Y404205D01*
X310742Y403652D01*
X310661Y403101D01*
X310567Y402553D01*
X310459Y402007D01*
X310338Y401463D01*
X310204Y400923D01*
X310056Y400386D01*
X309896Y399853D01*
X309723Y399324D01*
X309536Y398799D01*
X309338Y398279D01*
X309126Y397764D01*
X308902Y397255D01*
X308666Y396751D01*
X308417Y396252D01*
X308157Y395760D01*
X307884Y395275D01*
X307600Y394796D01*
X307304Y394325D01*
X306997Y393860D01*
X306679Y393404D01*
X306349Y392955D01*
X306009Y392514D01*
X305658Y392082D01*
X305297Y391659D01*
X304925Y391244D01*
X304544Y390838D01*
X304153Y390442D01*
X303752Y390056D01*
X303342Y389680D01*
X302923Y389313D01*
X302495Y388957D01*
X302058Y388611D01*
X301614Y388277D01*
X301161Y387953D01*
X300700Y387640D01*
X300232Y387338D01*
X299757Y387048D01*
X299275Y386770D01*
X298786Y386503D01*
X298291Y386249D01*
X297790Y386006D01*
X297283Y385776D01*
X296771Y385559D01*
X296253Y385353D01*
X295731Y385161D01*
X295204Y384981D01*
X294673Y384814D01*
X294138Y384660D01*
X293599Y384520D01*
X293057Y384392D01*
X292513Y384277D01*
X291965Y384176D01*
X291415Y384089D01*
X290864Y384014D01*
X290310Y383953D01*
X289756Y383906D01*
X289200Y383872D01*
X288644Y383852D01*
X288087Y383845D01*
D198*
X248819Y380674D02*
X248819Y379869D01*
X250429Y378259D01*
X252039Y379869D01*
X252039Y380674D01*
X250429Y378259D02*
X250429Y375844D01*
X254432Y379064D02*
X256042Y380674D01*
X256042Y375844D01*
X254432Y375844D02*
X257652Y375844D01*
X240399Y435960D02*
X242009Y437570D01*
X242009Y432740D01*
X240399Y432740D02*
X243619Y432740D01*
X247622Y436765D02*
X249232Y437570D01*
X247622Y436765D02*
X246012Y435155D01*
X246012Y433545D01*
X246817Y432740D01*
X248427Y432740D01*
X249232Y433545D01*
X249232Y434350D01*
X248427Y435155D01*
X246012Y435155D01*
X251625Y432740D02*
X251625Y437570D01*
X253235Y435960D01*
X254845Y437570D01*
X254845Y432740D01*
X257238Y432740D02*
X257238Y437570D01*
X257238Y435155D02*
X260458Y435155D01*
X260458Y437570D02*
X260458Y432740D01*
X262851Y435960D02*
X266071Y435960D01*
X262851Y432740D01*
X266071Y432740D01*
D10*
X263957Y406705D02*
X243637Y406705D01*
X253797Y396545D02*
X253797Y416865D01*
D195*
X208662Y317387D02*
X208662Y314630D01*
X208662Y317387D02*
X205906Y320143D01*
X203150Y320143D01*
X197637Y314630D01*
X197637Y311874D01*
X200393Y309118D01*
X203149Y309118D01*
X210040Y310496D02*
X215553Y310496D01*
X207284Y302227D01*
X204528Y304983D02*
X210040Y299471D01*
X200313Y358651D02*
X205826Y364164D01*
X208582Y364164D01*
X211338Y361408D01*
X211338Y358651D01*
X205826Y353139D01*
X203070Y353139D01*
X200313Y355895D01*
X200313Y358651D01*
X211338Y358651D01*
X208582Y350382D02*
X207204Y349004D01*
X208582Y350382D02*
X209960Y349004D01*
X208582Y347626D01*
X207204Y349004D01*
X216851Y350382D02*
X222364Y350382D01*
X214095Y342113D01*
X216851Y339357D02*
X211338Y344870D01*
X220985Y337979D02*
X225120Y342113D01*
X220985Y337979D02*
X220985Y335223D01*
X225120Y331088D01*
X230632Y336601D01*
X236145Y336601D02*
X227876Y328332D01*
X236145Y336601D02*
X241658Y331088D01*
X234767Y329710D02*
X232011Y332466D01*
D10*
X232117Y319165D02*
X211797Y319165D01*
X221957Y309005D02*
X221957Y329325D01*
D196*
X233596Y440703D02*
X235037Y442144D01*
X233596Y440703D02*
X233596Y437822D01*
X235037Y436381D01*
X240799Y436381D01*
X242240Y437822D01*
X242240Y440703D01*
X240799Y442144D01*
X242240Y445737D02*
X242240Y451499D01*
X242240Y445737D02*
X236478Y451499D01*
X235037Y451499D01*
X233596Y450058D01*
X233596Y447177D01*
X235037Y445737D01*
D11*
X207099Y424774D02*
X204642Y427232D01*
X212014Y427232D01*
X212014Y429689D02*
X212014Y424774D01*
X204642Y432258D02*
X204642Y437173D01*
X204642Y432258D02*
X208328Y432258D01*
X207099Y434716D01*
X207099Y435944D01*
X208328Y437173D01*
X210785Y437173D01*
X212014Y435944D01*
X212014Y433487D01*
X210785Y432258D01*
X214471Y439742D02*
X207099Y439742D01*
X207099Y443429D01*
X208328Y444657D01*
X210785Y444657D01*
X212014Y443429D01*
X212014Y439742D01*
X212014Y447227D02*
X204642Y447227D01*
X204642Y452141D01*
X208328Y449684D02*
X208328Y447227D01*
D10*
X213157Y444805D02*
X233477Y444805D01*
X223317Y434645D02*
X223317Y454965D01*
D196*
X233562Y286071D02*
X233562Y284034D01*
X233562Y286071D02*
X231525Y288108D01*
X229488Y288108D01*
X225413Y284034D01*
X225413Y281996D01*
X227450Y279959D01*
X229488Y279959D01*
X236103Y281493D02*
X238140Y281493D01*
X240177Y279456D01*
X240177Y277419D01*
X239159Y276400D01*
X237121Y276400D01*
X236103Y277419D01*
X237121Y276400D02*
X237121Y274363D01*
X236103Y273344D01*
X234065Y273344D01*
X232028Y275381D01*
X232028Y277419D01*
D11*
X210601Y266285D02*
X207125Y266285D01*
X210601Y266285D02*
X205388Y261072D01*
X203650Y262810D02*
X207125Y259334D01*
X214155Y262730D02*
X217630Y259255D01*
X214155Y262730D02*
X211549Y260124D01*
X214155Y259255D01*
X215024Y258386D01*
X215024Y256649D01*
X213286Y254911D01*
X211549Y254911D01*
X209811Y256649D01*
X209811Y258386D01*
X212497Y250488D02*
X217710Y255701D01*
X220316Y253094D01*
X220316Y251356D01*
X218578Y249619D01*
X216841Y249619D01*
X214234Y252225D01*
X219526Y246933D02*
X224739Y252146D01*
X228215Y248671D01*
X223870Y247802D02*
X222133Y249540D01*
D10*
X213157Y269545D02*
X233477Y269545D01*
X223317Y259385D02*
X223317Y279705D01*
D196*
X413902Y141291D02*
X413902Y139254D01*
X413902Y141291D02*
X411865Y143328D01*
X409828Y143328D01*
X405753Y139254D01*
X405753Y137216D01*
X407790Y135179D01*
X409828Y135179D01*
X414405Y128564D02*
X420517Y134676D01*
X414405Y134676D01*
X418480Y130601D01*
D11*
X388334Y122374D02*
X384859Y118898D01*
X388334Y122374D02*
X390072Y122374D01*
X391809Y120636D01*
X391809Y118898D01*
X388334Y115423D01*
X386596Y115423D01*
X384859Y117161D01*
X384859Y118898D01*
X391809Y118898D01*
X390151Y113606D02*
X389282Y112737D01*
X390151Y113606D02*
X391020Y112737D01*
X390151Y111869D01*
X389282Y112737D01*
X395403Y113567D02*
X398879Y113567D01*
X393666Y108354D01*
X391928Y110091D02*
X395403Y106616D01*
X398089Y105668D02*
X400696Y108275D01*
X398089Y105668D02*
X398089Y103930D01*
X400696Y101324D01*
X404171Y104799D01*
X407725Y104720D02*
X402512Y99507D01*
X407725Y104720D02*
X411201Y101245D01*
X406856Y100376D02*
X405119Y102114D01*
D10*
X413817Y124765D02*
X393497Y124765D01*
X403657Y114605D02*
X403657Y134925D01*
D198*
X399097Y387705D02*
X399097Y391705D01*
X399097Y387705D02*
X337097Y387705D01*
X337097Y391705D01*
X399097Y421705D02*
X399097Y425705D01*
X337097Y425705D01*
X337097Y421705D01*
D196*
X380141Y384248D02*
X381243Y383147D01*
X380141Y384248D02*
X377938Y384248D01*
X376836Y383147D01*
X376836Y382045D01*
X377938Y380944D01*
X380141Y380944D01*
X381243Y379842D01*
X381243Y378740D01*
X380141Y377639D01*
X377938Y377639D01*
X376836Y378740D01*
X384320Y377639D02*
X384320Y384248D01*
X386524Y379842D02*
X384320Y377639D01*
X386524Y379842D02*
X388727Y377639D01*
X388727Y384248D01*
X391805Y382045D02*
X394008Y384248D01*
X394008Y377639D01*
X391805Y377639D02*
X396211Y377639D01*
D10*
X378257Y406705D02*
X357937Y406705D01*
X368097Y396545D02*
X368097Y416865D01*
D199*
X469712Y69191D03*
X469712Y83923D03*
D195*
X459842Y53452D02*
X459842Y41758D01*
X459842Y53452D02*
X465689Y53452D01*
X467638Y51503D01*
X467638Y47605D01*
X465689Y45656D01*
X459842Y45656D01*
X463740Y45656D02*
X467638Y41758D01*
X471536Y49554D02*
X475434Y53452D01*
X475434Y41758D01*
X471536Y41758D02*
X479332Y41758D01*
X449284Y53449D02*
X447335Y57347D01*
X449284Y53449D02*
X453182Y49551D01*
X457080Y49551D01*
X459029Y51500D01*
X459029Y55398D01*
X457080Y57347D01*
X455131Y57347D01*
X453182Y55398D01*
X453182Y49551D01*
X449284Y61245D02*
X447335Y63194D01*
X447335Y67092D01*
X449284Y69041D01*
X451233Y69041D01*
X453182Y67092D01*
X455131Y69041D01*
X457080Y69041D01*
X459029Y67092D01*
X459029Y63194D01*
X457080Y61245D01*
X455131Y61245D01*
X453182Y63194D01*
X451233Y61245D01*
X449284Y61245D01*
X453182Y63194D02*
X453182Y67092D01*
X457080Y72939D02*
X449284Y72939D01*
X447335Y74888D01*
X447335Y78786D01*
X449284Y80735D01*
X457080Y80735D01*
X459029Y78786D01*
X459029Y74888D01*
X457080Y72939D01*
X449284Y80735D01*
D10*
X459537Y76505D02*
X479857Y76505D01*
X469697Y66345D02*
X469697Y86665D01*
D195*
X94285Y366573D02*
X94285Y378267D01*
X100132Y378267D01*
X102081Y376318D01*
X102081Y372420D01*
X100132Y370471D01*
X94285Y370471D01*
X98183Y370471D02*
X102081Y366573D01*
X105979Y366573D02*
X113775Y366573D01*
X105979Y366573D02*
X113775Y374369D01*
X113775Y376318D01*
X111826Y378267D01*
X107928Y378267D01*
X105979Y376318D01*
X98183Y345247D02*
X94285Y341349D01*
X98183Y345247D02*
X98183Y333553D01*
X94285Y333553D02*
X102081Y333553D01*
X105979Y335502D02*
X105979Y343298D01*
X107928Y345247D01*
X111826Y345247D01*
X113775Y343298D01*
X113775Y335502D01*
X111826Y333553D01*
X107928Y333553D01*
X105979Y335502D01*
X113775Y343298D01*
X117673Y343298D02*
X117673Y335502D01*
X117673Y343298D02*
X119622Y345247D01*
X123520Y345247D01*
X125469Y343298D01*
X125469Y335502D01*
X123520Y333553D01*
X119622Y333553D01*
X117673Y335502D01*
X125469Y343298D01*
D200*
X108711Y355920D03*
X93979Y355920D03*
D10*
X91237Y355905D02*
X111557Y355905D01*
X101397Y345745D02*
X101397Y366065D01*
D195*
X378011Y310909D02*
X389705Y310909D01*
X378011Y310909D02*
X378011Y316756D01*
X379960Y318705D01*
X383858Y318705D01*
X385807Y316756D01*
X385807Y310909D01*
X385807Y314807D02*
X389705Y318705D01*
X379960Y322603D02*
X378011Y324552D01*
X378011Y328450D01*
X379960Y330399D01*
X381909Y330399D01*
X383858Y328450D01*
X383858Y326501D01*
X383858Y328450D02*
X385807Y330399D01*
X387756Y330399D01*
X389705Y328450D01*
X389705Y324552D01*
X387756Y322603D01*
X348889Y299215D02*
X344991Y303113D01*
X356685Y303113D01*
X356685Y299215D02*
X356685Y307011D01*
X354736Y310909D02*
X346940Y310909D01*
X344991Y312858D01*
X344991Y316756D01*
X346940Y318705D01*
X354736Y318705D01*
X356685Y316756D01*
X356685Y312858D01*
X354736Y310909D01*
X346940Y318705D01*
X346940Y322603D02*
X354736Y322603D01*
X346940Y322603D02*
X344991Y324552D01*
X344991Y328450D01*
X346940Y330399D01*
X354736Y330399D01*
X356685Y328450D01*
X356685Y324552D01*
X354736Y322603D01*
X346940Y330399D01*
D199*
X367368Y318855D03*
X367368Y333587D03*
D10*
X377513Y326169D02*
X357193Y326169D01*
X367353Y316009D02*
X367353Y336329D01*
D197*
X37897Y184455D02*
X37897Y171755D01*
X37897Y184455D02*
X44247Y190805D01*
X56947Y190805D02*
X63297Y184455D01*
X37897Y146355D02*
X44247Y140005D01*
X37897Y146355D02*
X37897Y159055D01*
X44247Y165405D01*
X56947Y165405D02*
X63297Y159055D01*
X63297Y146355D01*
X56947Y140005D01*
X44247Y165405D02*
X37897Y171755D01*
X56947Y165405D02*
X63297Y171755D01*
X63297Y184455D01*
X37897Y108255D02*
X37897Y95555D01*
X37897Y108255D02*
X44247Y114605D01*
X56947Y114605D02*
X63297Y108255D01*
X44247Y114605D02*
X37897Y120955D01*
X37897Y133655D01*
X44247Y140005D01*
X56947Y140005D02*
X63297Y133655D01*
X63297Y120955D01*
X56947Y114605D01*
X37897Y70155D02*
X44247Y63805D01*
X37897Y70155D02*
X37897Y82855D01*
X44247Y89205D01*
X56947Y89205D02*
X63297Y82855D01*
X63297Y70155D01*
X56947Y63805D01*
X44247Y89205D02*
X37897Y95555D01*
X56947Y89205D02*
X63297Y95555D01*
X63297Y108255D01*
X37897Y32055D02*
X37897Y19355D01*
X37897Y32055D02*
X44247Y38405D01*
X56947Y38405D02*
X63297Y32055D01*
X44247Y38405D02*
X37897Y44755D01*
X37897Y57455D01*
X44247Y63805D01*
X56947Y63805D02*
X63297Y57455D01*
X63297Y44755D01*
X56947Y38405D01*
X56947Y13005D02*
X44247Y13005D01*
X37897Y19355D01*
X56947Y13005D02*
X63297Y19355D01*
X63297Y32055D01*
X37897Y349555D02*
X37897Y362255D01*
X44247Y368605D01*
X56947Y368605D02*
X63297Y362255D01*
X37897Y324155D02*
X44247Y317805D01*
X37897Y324155D02*
X37897Y336855D01*
X44247Y343205D01*
X56947Y343205D02*
X63297Y336855D01*
X63297Y324155D01*
X56947Y317805D01*
X44247Y343205D02*
X37897Y349555D01*
X56947Y343205D02*
X63297Y349555D01*
X63297Y362255D01*
X37897Y286055D02*
X37897Y273355D01*
X37897Y286055D02*
X44247Y292405D01*
X56947Y292405D02*
X63297Y286055D01*
X44247Y292405D02*
X37897Y298755D01*
X37897Y311455D01*
X44247Y317805D01*
X56947Y317805D02*
X63297Y311455D01*
X63297Y298755D01*
X56947Y292405D01*
X37897Y247955D02*
X44247Y241605D01*
X37897Y247955D02*
X37897Y260655D01*
X44247Y267005D01*
X56947Y267005D02*
X63297Y260655D01*
X63297Y247955D01*
X56947Y241605D01*
X44247Y267005D02*
X37897Y273355D01*
X56947Y267005D02*
X63297Y273355D01*
X63297Y286055D01*
X37897Y209855D02*
X37897Y197155D01*
X37897Y209855D02*
X44247Y216205D01*
X56947Y216205D02*
X63297Y209855D01*
X44247Y216205D02*
X37897Y222555D01*
X37897Y235255D01*
X44247Y241605D01*
X56947Y241605D02*
X63297Y235255D01*
X63297Y222555D01*
X56947Y216205D01*
X37897Y197155D02*
X44247Y190805D01*
X56947Y190805D02*
X63297Y197155D01*
X63297Y209855D01*
X44247Y368605D02*
X37897Y374955D01*
X37897Y387655D01*
X44247Y394005D01*
X56947Y394005D01*
X63297Y387655D01*
X63297Y374955D01*
X56947Y368605D01*
D198*
X35992Y14445D02*
X35187Y13640D01*
X35992Y14445D02*
X35992Y15250D01*
X35187Y16055D01*
X31162Y16055D01*
X31162Y15250D02*
X31162Y16860D01*
X32772Y19253D02*
X31162Y20863D01*
X35992Y20863D01*
X35992Y19253D02*
X35992Y22473D01*
D10*
X40437Y25705D02*
X60757Y25705D01*
X50597Y15545D02*
X50597Y35865D01*
D197*
X571297Y171755D02*
X571297Y184455D01*
X577647Y190805D01*
X590347Y190805D02*
X596697Y184455D01*
X571297Y146355D02*
X577647Y140005D01*
X571297Y146355D02*
X571297Y159055D01*
X577647Y165405D01*
X590347Y165405D02*
X596697Y159055D01*
X596697Y146355D01*
X590347Y140005D01*
X577647Y165405D02*
X571297Y171755D01*
X590347Y165405D02*
X596697Y171755D01*
X596697Y184455D01*
X571297Y108255D02*
X571297Y95555D01*
X571297Y108255D02*
X577647Y114605D01*
X590347Y114605D02*
X596697Y108255D01*
X577647Y114605D02*
X571297Y120955D01*
X571297Y133655D01*
X577647Y140005D01*
X590347Y140005D02*
X596697Y133655D01*
X596697Y120955D01*
X590347Y114605D01*
X571297Y70155D02*
X577647Y63805D01*
X571297Y70155D02*
X571297Y82855D01*
X577647Y89205D01*
X590347Y89205D02*
X596697Y82855D01*
X596697Y70155D01*
X590347Y63805D01*
X577647Y89205D02*
X571297Y95555D01*
X590347Y89205D02*
X596697Y95555D01*
X596697Y108255D01*
X571297Y32055D02*
X571297Y19355D01*
X571297Y32055D02*
X577647Y38405D01*
X590347Y38405D02*
X596697Y32055D01*
X577647Y38405D02*
X571297Y44755D01*
X571297Y57455D01*
X577647Y63805D01*
X590347Y63805D02*
X596697Y57455D01*
X596697Y44755D01*
X590347Y38405D01*
X590347Y13005D02*
X577647Y13005D01*
X571297Y19355D01*
X590347Y13005D02*
X596697Y19355D01*
X596697Y32055D01*
X571297Y349555D02*
X571297Y362255D01*
X577647Y368605D01*
X590347Y368605D02*
X596697Y362255D01*
X571297Y324155D02*
X577647Y317805D01*
X571297Y324155D02*
X571297Y336855D01*
X577647Y343205D01*
X590347Y343205D02*
X596697Y336855D01*
X596697Y324155D01*
X590347Y317805D01*
X577647Y343205D02*
X571297Y349555D01*
X590347Y343205D02*
X596697Y349555D01*
X596697Y362255D01*
X571297Y286055D02*
X571297Y273355D01*
X571297Y286055D02*
X577647Y292405D01*
X590347Y292405D02*
X596697Y286055D01*
X577647Y292405D02*
X571297Y298755D01*
X571297Y311455D01*
X577647Y317805D01*
X590347Y317805D02*
X596697Y311455D01*
X596697Y298755D01*
X590347Y292405D01*
X571297Y247955D02*
X577647Y241605D01*
X571297Y247955D02*
X571297Y260655D01*
X577647Y267005D01*
X590347Y267005D02*
X596697Y260655D01*
X596697Y247955D01*
X590347Y241605D01*
X577647Y267005D02*
X571297Y273355D01*
X590347Y267005D02*
X596697Y273355D01*
X596697Y286055D01*
X571297Y209855D02*
X571297Y197155D01*
X571297Y209855D02*
X577647Y216205D01*
X590347Y216205D02*
X596697Y209855D01*
X577647Y216205D02*
X571297Y222555D01*
X571297Y235255D01*
X577647Y241605D01*
X590347Y241605D02*
X596697Y235255D01*
X596697Y222555D01*
X590347Y216205D01*
X571297Y197155D02*
X577647Y190805D01*
X590347Y190805D02*
X596697Y197155D01*
X596697Y209855D01*
X577647Y368605D02*
X571297Y374955D01*
X571297Y387655D01*
X577647Y394005D01*
X590347Y394005D01*
X596697Y387655D01*
X596697Y374955D01*
X590347Y368605D01*
D198*
X569392Y14445D02*
X568587Y13640D01*
X569392Y14445D02*
X569392Y15250D01*
X568587Y16055D01*
X564562Y16055D01*
X564562Y15250D02*
X564562Y16860D01*
X569392Y19253D02*
X569392Y22473D01*
X569392Y19253D02*
X566172Y22473D01*
X565367Y22473D01*
X564562Y21668D01*
X564562Y20058D01*
X565367Y19253D01*
D10*
X573837Y25705D02*
X594157Y25705D01*
X583997Y15545D02*
X583997Y35865D01*
D195*
X529461Y53433D02*
X527512Y55382D01*
X523614Y55382D01*
X521665Y53433D01*
X521665Y45637D01*
X523614Y43688D01*
X527512Y43688D01*
X529461Y45637D01*
X533359Y55382D02*
X541155Y55382D01*
X533359Y55382D02*
X533359Y49535D01*
X537257Y51484D01*
X539206Y51484D01*
X541155Y49535D01*
X541155Y45637D01*
X539206Y43688D01*
X535308Y43688D01*
X533359Y45637D01*
X525577Y52233D02*
X513883Y52233D01*
X519730Y46386D01*
X519730Y54182D01*
X523628Y58080D02*
X525577Y58080D01*
X523628Y58080D02*
X523628Y60029D01*
X525577Y60029D01*
X525577Y58080D01*
X513883Y63927D02*
X513883Y71723D01*
X515832Y71723D01*
X523628Y63927D01*
X525577Y63927D01*
X523628Y75621D02*
X517781Y75621D01*
X523628Y75621D02*
X525577Y77570D01*
X525577Y83417D01*
X517781Y83417D01*
X513883Y87315D02*
X525577Y87315D01*
X513883Y87315D02*
X513883Y95111D01*
X519730Y91213D02*
X519730Y87315D01*
D10*
X523037Y76505D02*
X543357Y76505D01*
X533197Y66345D02*
X533197Y86665D01*
D195*
X499591Y52112D02*
X497642Y54061D01*
X493744Y54061D01*
X491795Y52112D01*
X491795Y44316D01*
X493744Y42367D01*
X497642Y42367D01*
X499591Y44316D01*
X507387Y52112D02*
X511285Y54061D01*
X507387Y52112D02*
X503489Y48214D01*
X503489Y44316D01*
X505438Y42367D01*
X509336Y42367D01*
X511285Y44316D01*
X511285Y46265D01*
X509336Y48214D01*
X503489Y48214D01*
X492557Y49795D02*
X480863Y49795D01*
X486710Y43948D01*
X486710Y51744D01*
X490608Y55642D02*
X492557Y55642D01*
X490608Y55642D02*
X490608Y57591D01*
X492557Y57591D01*
X492557Y55642D01*
X480863Y61489D02*
X480863Y69285D01*
X482812Y69285D01*
X490608Y61489D01*
X492557Y61489D01*
X490608Y73183D02*
X484761Y73183D01*
X490608Y73183D02*
X492557Y75132D01*
X492557Y80979D01*
X484761Y80979D01*
X480863Y84877D02*
X492557Y84877D01*
X480863Y84877D02*
X480863Y92673D01*
X486710Y88775D02*
X486710Y84877D01*
D10*
X493065Y76505D02*
X513385Y76505D01*
X503225Y66345D02*
X503225Y86665D01*
D199*
X558612Y488291D03*
X558612Y503023D03*
D195*
X554624Y450474D02*
X566318Y450474D01*
X554624Y450474D02*
X554624Y456321D01*
X556573Y458270D01*
X560471Y458270D01*
X562420Y456321D01*
X562420Y450474D01*
X562420Y454372D02*
X566318Y458270D01*
X566318Y468015D02*
X554624Y468015D01*
X560471Y462168D01*
X560471Y469964D01*
X571712Y477426D02*
X569763Y481324D01*
X571712Y477426D02*
X575610Y473528D01*
X579508Y473528D01*
X581457Y475477D01*
X581457Y479375D01*
X579508Y481324D01*
X577559Y481324D01*
X575610Y479375D01*
X575610Y473528D01*
X571712Y485222D02*
X569763Y487171D01*
X569763Y491069D01*
X571712Y493018D01*
X573661Y493018D01*
X575610Y491069D01*
X577559Y493018D01*
X579508Y493018D01*
X581457Y491069D01*
X581457Y487171D01*
X579508Y485222D01*
X577559Y485222D01*
X575610Y487171D01*
X573661Y485222D01*
X571712Y485222D01*
X575610Y487171D02*
X575610Y491069D01*
X579508Y496916D02*
X571712Y496916D01*
X569763Y498865D01*
X569763Y502763D01*
X571712Y504712D01*
X579508Y504712D01*
X581457Y502763D01*
X581457Y498865D01*
X579508Y496916D01*
X571712Y504712D01*
D10*
X568757Y495605D02*
X548437Y495605D01*
X558597Y485445D02*
X558597Y505765D01*
D201*
X558597Y534705D03*
D11*
X567199Y516509D02*
X576605Y516509D01*
X576605Y522780D01*
X567199Y525864D02*
X567199Y532135D01*
X567199Y525864D02*
X576605Y525864D01*
X576605Y532135D01*
X571902Y529000D02*
X571902Y525864D01*
X567199Y535219D02*
X576605Y535219D01*
X576605Y539922D01*
X575038Y541490D01*
X568767Y541490D01*
X567199Y539922D01*
X567199Y535219D01*
X570335Y544575D02*
X567199Y547710D01*
X576605Y547710D01*
X576605Y544575D02*
X576605Y550845D01*
D10*
X568757Y533705D02*
X548437Y533705D01*
X558597Y523545D02*
X558597Y543865D01*
D197*
X146863Y508559D02*
X146867Y448615D01*
X81327Y448615D01*
X81331Y508559D01*
D195*
X75489Y449211D02*
X75489Y445313D01*
X75489Y447262D02*
X63795Y447262D01*
X63795Y445313D02*
X63795Y449211D01*
X63795Y458956D02*
X65744Y460905D01*
X63795Y458956D02*
X63795Y455058D01*
X65744Y453109D01*
X73540Y453109D01*
X75489Y455058D01*
X75489Y458956D01*
X73540Y460905D01*
X67693Y464803D02*
X63795Y468701D01*
X75489Y468701D01*
X75489Y464803D02*
X75489Y472599D01*
X152695Y453109D02*
X152695Y445313D01*
X152695Y453109D02*
X154644Y453109D01*
X162440Y445313D01*
X164389Y445313D01*
X154644Y457007D02*
X152695Y458956D01*
X152695Y462854D01*
X154644Y464803D01*
X156593Y464803D01*
X158542Y462854D01*
X160491Y464803D01*
X162440Y464803D01*
X164389Y462854D01*
X164389Y458956D01*
X162440Y457007D01*
X160491Y457007D01*
X158542Y458956D01*
X156593Y457007D01*
X154644Y457007D01*
X158542Y458956D02*
X158542Y462854D01*
X164389Y468701D02*
X164389Y476497D01*
X164389Y468701D02*
X156593Y476497D01*
X154644Y476497D01*
X152695Y474548D01*
X152695Y470650D01*
X154644Y468701D01*
X152695Y486242D02*
X164389Y486242D01*
X158542Y480395D02*
X152695Y486242D01*
X158542Y488191D02*
X158542Y480395D01*
X152695Y492089D02*
X164389Y492089D01*
X164389Y497936D01*
X162440Y499885D01*
X154644Y499885D01*
X152695Y497936D01*
X152695Y492089D01*
X152695Y507681D02*
X164389Y507681D01*
X152695Y503783D02*
X152695Y511579D01*
D202*
X114097Y443789D03*
D10*
X103937Y470205D02*
X124257Y470205D01*
X114097Y460045D02*
X114097Y480365D01*
D198*
X416357Y564185D02*
X451917Y564185D01*
X416357Y564185D02*
X416357Y579425D01*
X451917Y579425D01*
X451917Y564185D01*
D203*
X437780Y561681D02*
X437780Y557868D01*
X439686Y557868D01*
X440322Y558503D01*
X440322Y561045D01*
X439686Y561681D01*
X437780Y561681D01*
X441522Y560410D02*
X442793Y561681D01*
X442793Y557868D01*
X441522Y557868D02*
X444064Y557868D01*
D10*
X442808Y571805D02*
X425466Y571805D01*
X434137Y563134D02*
X434137Y580476D01*
D200*
X487783Y571790D03*
X502515Y571790D03*
D195*
X516108Y566826D02*
X516108Y578520D01*
X521955Y578520D01*
X523904Y576571D01*
X523904Y572673D01*
X521955Y570724D01*
X516108Y570724D01*
X520006Y570724D02*
X523904Y566826D01*
X527802Y578520D02*
X535598Y578520D01*
X527802Y578520D02*
X527802Y572673D01*
X531700Y574622D01*
X533649Y574622D01*
X535598Y572673D01*
X535598Y568775D01*
X533649Y566826D01*
X529751Y566826D01*
X527802Y568775D01*
X483864Y594776D02*
X479966Y592827D01*
X476068Y588929D01*
X476068Y585031D01*
X478017Y583082D01*
X481915Y583082D01*
X483864Y585031D01*
X483864Y586980D01*
X481915Y588929D01*
X476068Y588929D01*
X487762Y592827D02*
X489711Y594776D01*
X493609Y594776D01*
X495558Y592827D01*
X495558Y590878D01*
X493609Y588929D01*
X495558Y586980D01*
X495558Y585031D01*
X493609Y583082D01*
X489711Y583082D01*
X487762Y585031D01*
X487762Y586980D01*
X489711Y588929D01*
X487762Y590878D01*
X487762Y592827D01*
X489711Y588929D02*
X493609Y588929D01*
X499456Y585031D02*
X499456Y592827D01*
X501405Y594776D01*
X505303Y594776D01*
X507252Y592827D01*
X507252Y585031D01*
X505303Y583082D01*
X501405Y583082D01*
X499456Y585031D01*
X507252Y592827D01*
D10*
X505257Y571805D02*
X484937Y571805D01*
X495097Y561645D02*
X495097Y581965D01*
D201*
X589077Y532705D03*
D11*
X598492Y513327D02*
X607898Y513327D01*
X607898Y519598D01*
X598492Y522683D02*
X598492Y528953D01*
X598492Y522683D02*
X607898Y522683D01*
X607898Y528953D01*
X603195Y525818D02*
X603195Y522683D01*
X598492Y532038D02*
X607898Y532038D01*
X607898Y536741D01*
X606331Y538308D01*
X600060Y538308D01*
X598492Y536741D01*
X598492Y532038D01*
X607898Y541393D02*
X607898Y547664D01*
X601628Y547664D02*
X607898Y541393D01*
X601628Y547664D02*
X600060Y547664D01*
X598492Y546096D01*
X598492Y542961D01*
X600060Y541393D01*
D10*
X599237Y533705D02*
X578917Y533705D01*
X589077Y523545D02*
X589077Y543865D01*
D197*
X291897Y44755D02*
X298247Y38405D01*
X310947Y38405D02*
X317297Y44755D01*
X323647Y38405D01*
X336347Y38405D02*
X342697Y44755D01*
X349047Y38405D01*
X361747Y38405D02*
X368097Y44755D01*
X291897Y44755D02*
X291897Y82855D01*
X298247Y89205D01*
X310947Y89205D01*
X317297Y82855D01*
X323647Y89205D01*
X336347Y89205D01*
X342697Y82855D01*
X349047Y89205D01*
X361747Y89205D01*
X368097Y82855D01*
X317297Y82855D02*
X317297Y44755D01*
X342697Y44755D02*
X342697Y82855D01*
X368097Y82855D02*
X368097Y44755D01*
X361747Y38405D02*
X349047Y38405D01*
X336347Y38405D02*
X323647Y38405D01*
X310947Y38405D02*
X298247Y38405D01*
X298247Y35055D02*
X310947Y35055D01*
D198*
X293337Y92380D02*
X292532Y93185D01*
X293337Y92380D02*
X294142Y92380D01*
X294947Y93185D01*
X294947Y97210D01*
X294142Y97210D02*
X295752Y97210D01*
X298145Y96405D02*
X298950Y97210D01*
X300560Y97210D01*
X301365Y96405D01*
X301365Y95600D01*
X300560Y94795D01*
X299755Y94795D01*
X300560Y94795D02*
X301365Y93990D01*
X301365Y93185D01*
X300560Y92380D01*
X298950Y92380D01*
X298145Y93185D01*
X292532Y32440D02*
X292532Y27610D01*
X292532Y32440D02*
X295752Y32440D01*
X294142Y30025D02*
X292532Y30025D01*
X298145Y32440D02*
X301365Y32440D01*
X298145Y32440D02*
X298145Y27610D01*
X301365Y27610D01*
X299755Y30025D02*
X298145Y30025D01*
X303758Y27610D02*
X303758Y32440D01*
X305368Y30830D01*
X306978Y32440D01*
X306978Y27610D01*
X309371Y27610D02*
X309371Y30830D01*
X310981Y32440D01*
X312591Y30830D01*
X312591Y27610D01*
X312591Y30025D02*
X309371Y30025D01*
X314984Y32440D02*
X314984Y27610D01*
X318204Y27610D01*
X320597Y32440D02*
X323817Y32440D01*
X320597Y32440D02*
X320597Y27610D01*
X323817Y27610D01*
X322207Y30025D02*
X320597Y30025D01*
X331823Y27610D02*
X335044Y27610D01*
X335044Y30830D02*
X331823Y27610D01*
X335044Y30830D02*
X335044Y31635D01*
X334239Y32440D01*
X332628Y32440D01*
X331823Y31635D01*
X337437Y30830D02*
X340657Y27610D01*
X337437Y27610D02*
X340657Y30830D01*
X343050Y31635D02*
X343855Y32440D01*
X345465Y32440D01*
X346270Y31635D01*
X346270Y30830D01*
X345465Y30025D01*
X344660Y30025D01*
X345465Y30025D02*
X346270Y29220D01*
X346270Y28415D01*
X345465Y27610D01*
X343855Y27610D01*
X343050Y28415D01*
D197*
X310947Y35055D02*
X298247Y35055D01*
D10*
X294437Y51105D02*
X314757Y51105D01*
X304597Y40945D02*
X304597Y61265D01*
D196*
X333847Y456305D02*
X333847Y560305D01*
X333847Y456305D02*
X275347Y456305D01*
X275347Y560305D01*
X333847Y560305D01*
D204*
X332227Y558685D02*
X332227Y457925D01*
X276967Y457925D01*
X276967Y558685D01*
X332227Y558685D01*
D196*
X280501Y550555D02*
X280503Y550691D01*
X280509Y550826D01*
X280519Y550961D01*
X280533Y551096D01*
X280551Y551230D01*
X280573Y551364D01*
X280599Y551497D01*
X280628Y551630D01*
X280662Y551761D01*
X280700Y551891D01*
X280741Y552020D01*
X280786Y552148D01*
X280835Y552275D01*
X280887Y552400D01*
X280944Y552523D01*
X281003Y552645D01*
X281067Y552764D01*
X281134Y552882D01*
X281204Y552998D01*
X281278Y553112D01*
X281355Y553223D01*
X281435Y553333D01*
X281519Y553439D01*
X281605Y553544D01*
X281695Y553645D01*
X281788Y553744D01*
X281883Y553841D01*
X281982Y553934D01*
X282083Y554024D01*
X282186Y554112D01*
X282292Y554196D01*
X282401Y554277D01*
X282512Y554355D01*
X282625Y554430D01*
X282741Y554501D01*
X282858Y554569D01*
X282977Y554633D01*
X283099Y554694D01*
X283221Y554751D01*
X283346Y554804D01*
X283472Y554854D01*
X283600Y554900D01*
X283728Y554943D01*
X283858Y554981D01*
X283990Y555016D01*
X284122Y555046D01*
X284254Y555073D01*
X284388Y555096D01*
X284522Y555115D01*
X284657Y555130D01*
X284792Y555141D01*
X284928Y555148D01*
X285063Y555151D01*
X285199Y555150D01*
X285334Y555145D01*
X285469Y555136D01*
X285604Y555123D01*
X285739Y555106D01*
X285873Y555085D01*
X286006Y555060D01*
X286139Y555031D01*
X286270Y554999D01*
X286401Y554962D01*
X286530Y554922D01*
X286658Y554878D01*
X286785Y554830D01*
X286910Y554778D01*
X287034Y554723D01*
X287156Y554664D01*
X287277Y554601D01*
X287395Y554535D01*
X287511Y554466D01*
X287626Y554393D01*
X287738Y554317D01*
X287848Y554237D01*
X287955Y554154D01*
X288060Y554068D01*
X288162Y553980D01*
X288262Y553888D01*
X288359Y553793D01*
X288453Y553695D01*
X288544Y553595D01*
X288632Y553492D01*
X288717Y553386D01*
X288799Y553278D01*
X288878Y553168D01*
X288953Y553055D01*
X289025Y552940D01*
X289094Y552824D01*
X289159Y552705D01*
X289221Y552584D01*
X289279Y552461D01*
X289333Y552337D01*
X289384Y552212D01*
X289431Y552084D01*
X289474Y551956D01*
X289514Y551826D01*
X289549Y551695D01*
X289581Y551564D01*
X289609Y551431D01*
X289633Y551297D01*
X289653Y551163D01*
X289669Y551029D01*
X289681Y550894D01*
X289689Y550758D01*
X289693Y550623D01*
X289693Y550487D01*
X289689Y550352D01*
X289681Y550216D01*
X289669Y550081D01*
X289653Y549947D01*
X289633Y549813D01*
X289609Y549679D01*
X289581Y549546D01*
X289549Y549415D01*
X289514Y549284D01*
X289474Y549154D01*
X289431Y549026D01*
X289384Y548898D01*
X289333Y548773D01*
X289279Y548649D01*
X289221Y548526D01*
X289159Y548405D01*
X289094Y548286D01*
X289025Y548170D01*
X288953Y548055D01*
X288878Y547942D01*
X288799Y547832D01*
X288717Y547724D01*
X288632Y547618D01*
X288544Y547515D01*
X288453Y547415D01*
X288359Y547317D01*
X288262Y547222D01*
X288162Y547130D01*
X288060Y547042D01*
X287955Y546956D01*
X287848Y546873D01*
X287738Y546793D01*
X287626Y546717D01*
X287511Y546644D01*
X287395Y546575D01*
X287277Y546509D01*
X287156Y546446D01*
X287034Y546387D01*
X286910Y546332D01*
X286785Y546280D01*
X286658Y546232D01*
X286530Y546188D01*
X286401Y546148D01*
X286270Y546111D01*
X286139Y546079D01*
X286006Y546050D01*
X285873Y546025D01*
X285739Y546004D01*
X285604Y545987D01*
X285469Y545974D01*
X285334Y545965D01*
X285199Y545960D01*
X285063Y545959D01*
X284928Y545962D01*
X284792Y545969D01*
X284657Y545980D01*
X284522Y545995D01*
X284388Y546014D01*
X284254Y546037D01*
X284122Y546064D01*
X283990Y546094D01*
X283858Y546129D01*
X283728Y546167D01*
X283600Y546210D01*
X283472Y546256D01*
X283346Y546306D01*
X283221Y546359D01*
X283099Y546416D01*
X282977Y546477D01*
X282858Y546541D01*
X282741Y546609D01*
X282625Y546680D01*
X282512Y546755D01*
X282401Y546833D01*
X282292Y546914D01*
X282186Y546998D01*
X282083Y547086D01*
X281982Y547176D01*
X281883Y547269D01*
X281788Y547366D01*
X281695Y547465D01*
X281605Y547566D01*
X281519Y547671D01*
X281435Y547777D01*
X281355Y547887D01*
X281278Y547998D01*
X281204Y548112D01*
X281134Y548228D01*
X281067Y548346D01*
X281003Y548465D01*
X280944Y548587D01*
X280887Y548710D01*
X280835Y548835D01*
X280786Y548962D01*
X280741Y549090D01*
X280700Y549219D01*
X280662Y549349D01*
X280628Y549480D01*
X280599Y549613D01*
X280573Y549746D01*
X280551Y549880D01*
X280533Y550014D01*
X280519Y550149D01*
X280509Y550284D01*
X280503Y550419D01*
X280501Y550555D01*
D203*
X317421Y539048D02*
X320598Y539048D01*
X321234Y539683D01*
X321234Y540954D01*
X320598Y541590D01*
X317421Y541590D01*
X321234Y542790D02*
X321234Y545332D01*
X321234Y542790D02*
X318692Y545332D01*
X318056Y545332D01*
X317421Y544696D01*
X317421Y543425D01*
X318056Y542790D01*
D10*
X314757Y508305D02*
X294437Y508305D01*
X304597Y498145D02*
X304597Y518465D01*
D198*
X343597Y576605D02*
X265597Y576605D01*
X265597Y668605D02*
X343597Y668605D01*
X343597Y628605D02*
X343597Y601605D01*
X265597Y601605D02*
X265597Y628605D01*
X325597Y576605D02*
X336597Y576605D01*
X283597Y576605D02*
X272597Y576605D01*
D195*
X308970Y568607D02*
X310919Y566658D01*
X308970Y568607D02*
X305072Y568607D01*
X303123Y566658D01*
X303123Y558862D01*
X305072Y556913D01*
X308970Y556913D01*
X310919Y558862D01*
X314817Y556913D02*
X314817Y568607D01*
X322613Y556913D01*
X322613Y568607D01*
X326511Y564709D02*
X330409Y568607D01*
X330409Y556913D01*
X326511Y556913D02*
X334307Y556913D01*
D10*
X321597Y612605D02*
X321599Y612746D01*
X321605Y612887D01*
X321615Y613027D01*
X321629Y613167D01*
X321647Y613307D01*
X321668Y613446D01*
X321694Y613585D01*
X321723Y613723D01*
X321757Y613859D01*
X321794Y613995D01*
X321835Y614130D01*
X321880Y614264D01*
X321929Y614396D01*
X321981Y614527D01*
X322037Y614656D01*
X322097Y614783D01*
X322160Y614909D01*
X322226Y615033D01*
X322297Y615156D01*
X322370Y615276D01*
X322447Y615394D01*
X322527Y615510D01*
X322611Y615623D01*
X322697Y615734D01*
X322787Y615843D01*
X322880Y615949D01*
X322975Y616052D01*
X323074Y616153D01*
X323175Y616251D01*
X323279Y616346D01*
X323386Y616438D01*
X323495Y616527D01*
X323607Y616612D01*
X323721Y616695D01*
X323837Y616775D01*
X323956Y616851D01*
X324077Y616923D01*
X324199Y616993D01*
X324324Y617058D01*
X324450Y617121D01*
X324578Y617179D01*
X324708Y617234D01*
X324839Y617286D01*
X324972Y617333D01*
X325106Y617377D01*
X325241Y617418D01*
X325377Y617454D01*
X325514Y617486D01*
X325652Y617515D01*
X325790Y617540D01*
X325930Y617560D01*
X326070Y617577D01*
X326210Y617590D01*
X326351Y617599D01*
X326491Y617604D01*
X326632Y617605D01*
X326773Y617602D01*
X326914Y617595D01*
X327054Y617584D01*
X327194Y617569D01*
X327334Y617550D01*
X327473Y617528D01*
X327611Y617501D01*
X327749Y617471D01*
X327885Y617436D01*
X328021Y617398D01*
X328155Y617356D01*
X328289Y617310D01*
X328421Y617261D01*
X328551Y617207D01*
X328680Y617150D01*
X328807Y617090D01*
X328933Y617026D01*
X329056Y616958D01*
X329178Y616887D01*
X329298Y616813D01*
X329415Y616735D01*
X329530Y616654D01*
X329643Y616570D01*
X329754Y616483D01*
X329862Y616392D01*
X329967Y616299D01*
X330070Y616202D01*
X330170Y616103D01*
X330267Y616001D01*
X330361Y615896D01*
X330452Y615789D01*
X330540Y615679D01*
X330625Y615567D01*
X330707Y615452D01*
X330786Y615335D01*
X330861Y615216D01*
X330933Y615095D01*
X331001Y614972D01*
X331066Y614847D01*
X331128Y614720D01*
X331185Y614591D01*
X331240Y614461D01*
X331290Y614330D01*
X331337Y614197D01*
X331380Y614063D01*
X331419Y613927D01*
X331454Y613791D01*
X331486Y613654D01*
X331513Y613516D01*
X331537Y613377D01*
X331557Y613237D01*
X331573Y613097D01*
X331585Y612957D01*
X331593Y612816D01*
X331597Y612675D01*
X331597Y612535D01*
X331593Y612394D01*
X331585Y612253D01*
X331573Y612113D01*
X331557Y611973D01*
X331537Y611833D01*
X331513Y611694D01*
X331486Y611556D01*
X331454Y611419D01*
X331419Y611283D01*
X331380Y611147D01*
X331337Y611013D01*
X331290Y610880D01*
X331240Y610749D01*
X331185Y610619D01*
X331128Y610490D01*
X331066Y610363D01*
X331001Y610238D01*
X330933Y610115D01*
X330861Y609994D01*
X330786Y609875D01*
X330707Y609758D01*
X330625Y609643D01*
X330540Y609531D01*
X330452Y609421D01*
X330361Y609314D01*
X330267Y609209D01*
X330170Y609107D01*
X330070Y609008D01*
X329967Y608911D01*
X329862Y608818D01*
X329754Y608727D01*
X329643Y608640D01*
X329530Y608556D01*
X329415Y608475D01*
X329298Y608397D01*
X329178Y608323D01*
X329056Y608252D01*
X328933Y608184D01*
X328807Y608120D01*
X328680Y608060D01*
X328551Y608003D01*
X328421Y607949D01*
X328289Y607900D01*
X328155Y607854D01*
X328021Y607812D01*
X327885Y607774D01*
X327749Y607739D01*
X327611Y607709D01*
X327473Y607682D01*
X327334Y607660D01*
X327194Y607641D01*
X327054Y607626D01*
X326914Y607615D01*
X326773Y607608D01*
X326632Y607605D01*
X326491Y607606D01*
X326351Y607611D01*
X326210Y607620D01*
X326070Y607633D01*
X325930Y607650D01*
X325790Y607670D01*
X325652Y607695D01*
X325514Y607724D01*
X325377Y607756D01*
X325241Y607792D01*
X325106Y607833D01*
X324972Y607877D01*
X324839Y607924D01*
X324708Y607976D01*
X324578Y608031D01*
X324450Y608089D01*
X324324Y608152D01*
X324199Y608217D01*
X324077Y608287D01*
X323956Y608359D01*
X323837Y608435D01*
X323721Y608515D01*
X323607Y608598D01*
X323495Y608683D01*
X323386Y608772D01*
X323279Y608864D01*
X323175Y608959D01*
X323074Y609057D01*
X322975Y609158D01*
X322880Y609261D01*
X322787Y609367D01*
X322697Y609476D01*
X322611Y609587D01*
X322527Y609700D01*
X322447Y609816D01*
X322370Y609934D01*
X322297Y610054D01*
X322226Y610177D01*
X322160Y610301D01*
X322097Y610427D01*
X322037Y610554D01*
X321981Y610683D01*
X321929Y610814D01*
X321880Y610946D01*
X321835Y611080D01*
X321794Y611215D01*
X321757Y611351D01*
X321723Y611487D01*
X321694Y611625D01*
X321668Y611764D01*
X321647Y611903D01*
X321629Y612043D01*
X321615Y612183D01*
X321605Y612323D01*
X321599Y612464D01*
X321597Y612605D01*
X277597Y612605D02*
X277599Y612746D01*
X277605Y612887D01*
X277615Y613027D01*
X277629Y613167D01*
X277647Y613307D01*
X277668Y613446D01*
X277694Y613585D01*
X277723Y613723D01*
X277757Y613859D01*
X277794Y613995D01*
X277835Y614130D01*
X277880Y614264D01*
X277929Y614396D01*
X277981Y614527D01*
X278037Y614656D01*
X278097Y614783D01*
X278160Y614909D01*
X278226Y615033D01*
X278297Y615156D01*
X278370Y615276D01*
X278447Y615394D01*
X278527Y615510D01*
X278611Y615623D01*
X278697Y615734D01*
X278787Y615843D01*
X278880Y615949D01*
X278975Y616052D01*
X279074Y616153D01*
X279175Y616251D01*
X279279Y616346D01*
X279386Y616438D01*
X279495Y616527D01*
X279607Y616612D01*
X279721Y616695D01*
X279837Y616775D01*
X279956Y616851D01*
X280077Y616923D01*
X280199Y616993D01*
X280324Y617058D01*
X280450Y617121D01*
X280578Y617179D01*
X280708Y617234D01*
X280839Y617286D01*
X280972Y617333D01*
X281106Y617377D01*
X281241Y617418D01*
X281377Y617454D01*
X281514Y617486D01*
X281652Y617515D01*
X281790Y617540D01*
X281930Y617560D01*
X282070Y617577D01*
X282210Y617590D01*
X282351Y617599D01*
X282491Y617604D01*
X282632Y617605D01*
X282773Y617602D01*
X282914Y617595D01*
X283054Y617584D01*
X283194Y617569D01*
X283334Y617550D01*
X283473Y617528D01*
X283611Y617501D01*
X283749Y617471D01*
X283885Y617436D01*
X284021Y617398D01*
X284155Y617356D01*
X284289Y617310D01*
X284421Y617261D01*
X284551Y617207D01*
X284680Y617150D01*
X284807Y617090D01*
X284933Y617026D01*
X285056Y616958D01*
X285178Y616887D01*
X285298Y616813D01*
X285415Y616735D01*
X285530Y616654D01*
X285643Y616570D01*
X285754Y616483D01*
X285862Y616392D01*
X285967Y616299D01*
X286070Y616202D01*
X286170Y616103D01*
X286267Y616001D01*
X286361Y615896D01*
X286452Y615789D01*
X286540Y615679D01*
X286625Y615567D01*
X286707Y615452D01*
X286786Y615335D01*
X286861Y615216D01*
X286933Y615095D01*
X287001Y614972D01*
X287066Y614847D01*
X287128Y614720D01*
X287185Y614591D01*
X287240Y614461D01*
X287290Y614330D01*
X287337Y614197D01*
X287380Y614063D01*
X287419Y613927D01*
X287454Y613791D01*
X287486Y613654D01*
X287513Y613516D01*
X287537Y613377D01*
X287557Y613237D01*
X287573Y613097D01*
X287585Y612957D01*
X287593Y612816D01*
X287597Y612675D01*
X287597Y612535D01*
X287593Y612394D01*
X287585Y612253D01*
X287573Y612113D01*
X287557Y611973D01*
X287537Y611833D01*
X287513Y611694D01*
X287486Y611556D01*
X287454Y611419D01*
X287419Y611283D01*
X287380Y611147D01*
X287337Y611013D01*
X287290Y610880D01*
X287240Y610749D01*
X287185Y610619D01*
X287128Y610490D01*
X287066Y610363D01*
X287001Y610238D01*
X286933Y610115D01*
X286861Y609994D01*
X286786Y609875D01*
X286707Y609758D01*
X286625Y609643D01*
X286540Y609531D01*
X286452Y609421D01*
X286361Y609314D01*
X286267Y609209D01*
X286170Y609107D01*
X286070Y609008D01*
X285967Y608911D01*
X285862Y608818D01*
X285754Y608727D01*
X285643Y608640D01*
X285530Y608556D01*
X285415Y608475D01*
X285298Y608397D01*
X285178Y608323D01*
X285056Y608252D01*
X284933Y608184D01*
X284807Y608120D01*
X284680Y608060D01*
X284551Y608003D01*
X284421Y607949D01*
X284289Y607900D01*
X284155Y607854D01*
X284021Y607812D01*
X283885Y607774D01*
X283749Y607739D01*
X283611Y607709D01*
X283473Y607682D01*
X283334Y607660D01*
X283194Y607641D01*
X283054Y607626D01*
X282914Y607615D01*
X282773Y607608D01*
X282632Y607605D01*
X282491Y607606D01*
X282351Y607611D01*
X282210Y607620D01*
X282070Y607633D01*
X281930Y607650D01*
X281790Y607670D01*
X281652Y607695D01*
X281514Y607724D01*
X281377Y607756D01*
X281241Y607792D01*
X281106Y607833D01*
X280972Y607877D01*
X280839Y607924D01*
X280708Y607976D01*
X280578Y608031D01*
X280450Y608089D01*
X280324Y608152D01*
X280199Y608217D01*
X280077Y608287D01*
X279956Y608359D01*
X279837Y608435D01*
X279721Y608515D01*
X279607Y608598D01*
X279495Y608683D01*
X279386Y608772D01*
X279279Y608864D01*
X279175Y608959D01*
X279074Y609057D01*
X278975Y609158D01*
X278880Y609261D01*
X278787Y609367D01*
X278697Y609476D01*
X278611Y609587D01*
X278527Y609700D01*
X278447Y609816D01*
X278370Y609934D01*
X278297Y610054D01*
X278226Y610177D01*
X278160Y610301D01*
X278097Y610427D01*
X278037Y610554D01*
X277981Y610683D01*
X277929Y610814D01*
X277880Y610946D01*
X277835Y611080D01*
X277794Y611215D01*
X277757Y611351D01*
X277723Y611487D01*
X277694Y611625D01*
X277668Y611764D01*
X277647Y611903D01*
X277629Y612043D01*
X277615Y612183D01*
X277605Y612323D01*
X277599Y612464D01*
X277597Y612605D01*
X294437Y622605D02*
X314757Y622605D01*
X304597Y612445D02*
X304597Y632765D01*
D196*
X530776Y450863D02*
X532217Y452304D01*
X530776Y450863D02*
X530776Y447982D01*
X532217Y446541D01*
X537979Y446541D01*
X539420Y447982D01*
X539420Y450863D01*
X537979Y452304D01*
X530776Y455897D02*
X530776Y461659D01*
X532217Y461659D01*
X537979Y455897D01*
X539420Y455897D01*
D11*
X507965Y431192D02*
X503050Y431192D01*
X501822Y432421D01*
X501822Y434878D01*
X503050Y436107D01*
X507965Y436107D01*
X509194Y434878D01*
X509194Y432421D01*
X507965Y431192D01*
X503050Y436107D01*
X507965Y438676D02*
X509194Y438676D01*
X507965Y438676D02*
X507965Y439905D01*
X509194Y439905D01*
X509194Y438676D01*
X504279Y442418D02*
X501822Y444876D01*
X509194Y444876D01*
X509194Y447333D02*
X509194Y442418D01*
X507965Y449902D02*
X504279Y449902D01*
X507965Y449902D02*
X509194Y451131D01*
X509194Y454817D01*
X504279Y454817D01*
X501822Y457387D02*
X509194Y457387D01*
X501822Y457387D02*
X501822Y462301D01*
X505508Y459844D02*
X505508Y457387D01*
D10*
X510337Y454965D02*
X530657Y454965D01*
X520497Y444805D02*
X520497Y465125D01*
D199*
X520482Y502919D03*
X520482Y488187D03*
D195*
X509829Y488493D02*
X498135Y488493D01*
X498135Y494340D01*
X500084Y496289D01*
X503982Y496289D01*
X505931Y494340D01*
X505931Y488493D01*
X505931Y492391D02*
X509829Y496289D01*
X500084Y504085D02*
X498135Y507983D01*
X500084Y504085D02*
X503982Y500187D01*
X507880Y500187D01*
X509829Y502136D01*
X509829Y506034D01*
X507880Y507983D01*
X505931Y507983D01*
X503982Y506034D01*
X503982Y500187D01*
X530850Y490193D02*
X532799Y486295D01*
X536697Y482397D01*
X540595Y482397D01*
X542544Y484346D01*
X542544Y488244D01*
X540595Y490193D01*
X538646Y490193D01*
X536697Y488244D01*
X536697Y482397D01*
X532799Y494091D02*
X530850Y496040D01*
X530850Y499938D01*
X532799Y501887D01*
X534748Y501887D01*
X536697Y499938D01*
X538646Y501887D01*
X540595Y501887D01*
X542544Y499938D01*
X542544Y496040D01*
X540595Y494091D01*
X538646Y494091D01*
X536697Y496040D01*
X534748Y494091D01*
X532799Y494091D01*
X536697Y496040D02*
X536697Y499938D01*
X540595Y505785D02*
X532799Y505785D01*
X530850Y507734D01*
X530850Y511632D01*
X532799Y513581D01*
X540595Y513581D01*
X542544Y511632D01*
X542544Y507734D01*
X540595Y505785D01*
X532799Y513581D01*
D10*
X530657Y495605D02*
X510337Y495605D01*
X520497Y485445D02*
X520497Y505765D01*
D199*
X482382Y502919D03*
X482382Y488187D03*
D195*
X476799Y455270D02*
X488493Y455270D01*
X476799Y455270D02*
X476799Y461117D01*
X478748Y463066D01*
X482646Y463066D01*
X484595Y461117D01*
X484595Y455270D01*
X484595Y459168D02*
X488493Y463066D01*
X476799Y466964D02*
X476799Y474760D01*
X478748Y474760D01*
X486544Y466964D01*
X488493Y466964D01*
X460561Y485685D02*
X458612Y489583D01*
X460561Y485685D02*
X464459Y481787D01*
X468357Y481787D01*
X470306Y483736D01*
X470306Y487634D01*
X468357Y489583D01*
X466408Y489583D01*
X464459Y487634D01*
X464459Y481787D01*
X460561Y493481D02*
X458612Y495430D01*
X458612Y499328D01*
X460561Y501277D01*
X462510Y501277D01*
X464459Y499328D01*
X466408Y501277D01*
X468357Y501277D01*
X470306Y499328D01*
X470306Y495430D01*
X468357Y493481D01*
X466408Y493481D01*
X464459Y495430D01*
X462510Y493481D01*
X460561Y493481D01*
X464459Y495430D02*
X464459Y499328D01*
X468357Y505175D02*
X460561Y505175D01*
X458612Y507124D01*
X458612Y511022D01*
X460561Y512971D01*
X468357Y512971D01*
X470306Y511022D01*
X470306Y507124D01*
X468357Y505175D01*
X460561Y512971D01*
D10*
X472237Y495605D02*
X492557Y495605D01*
X482397Y485445D02*
X482397Y505765D01*
D201*
X520497Y532705D03*
D11*
X529912Y515461D02*
X539318Y515461D01*
X539318Y521732D01*
X529912Y524816D02*
X529912Y531087D01*
X529912Y524816D02*
X539318Y524816D01*
X539318Y531087D01*
X534615Y527952D02*
X534615Y524816D01*
X529912Y534171D02*
X539318Y534171D01*
X539318Y538874D01*
X537751Y540442D01*
X531480Y540442D01*
X529912Y538874D01*
X529912Y534171D01*
X531480Y543527D02*
X529912Y545094D01*
X529912Y548230D01*
X531480Y549797D01*
X533048Y549797D01*
X534615Y548230D01*
X534615Y546662D01*
X534615Y548230D02*
X536183Y549797D01*
X537751Y549797D01*
X539318Y548230D01*
X539318Y545094D01*
X537751Y543527D01*
D10*
X530657Y533705D02*
X510337Y533705D01*
X520497Y523545D02*
X520497Y543865D01*
D201*
X482397Y532705D03*
D11*
X491203Y514242D02*
X500609Y514242D01*
X500609Y520513D01*
X491203Y523597D02*
X491203Y529868D01*
X491203Y523597D02*
X500609Y523597D01*
X500609Y529868D01*
X495906Y526732D02*
X495906Y523597D01*
X491203Y532952D02*
X500609Y532952D01*
X500609Y537655D01*
X499041Y539223D01*
X492770Y539223D01*
X491203Y537655D01*
X491203Y532952D01*
X491203Y547010D02*
X500609Y547010D01*
X495906Y542307D02*
X491203Y547010D01*
X495906Y548578D02*
X495906Y542307D01*
D10*
X492557Y533705D02*
X472237Y533705D01*
X482397Y523545D02*
X482397Y543865D01*
D196*
X187636Y534685D02*
X186195Y536125D01*
X183314Y536125D01*
X181873Y534685D01*
X181873Y528922D01*
X183314Y527482D01*
X186195Y527482D01*
X187636Y528922D01*
X191229Y534685D02*
X192669Y536125D01*
X195550Y536125D01*
X196991Y534685D01*
X196991Y533244D01*
X195550Y531803D01*
X196991Y530363D01*
X196991Y528922D01*
X195550Y527482D01*
X192669Y527482D01*
X191229Y528922D01*
X191229Y530363D01*
X192669Y531803D01*
X191229Y533244D01*
X191229Y534685D01*
X192669Y531803D02*
X195550Y531803D01*
D11*
X166524Y558936D02*
X166524Y563851D01*
X167753Y565080D01*
X170210Y565080D01*
X171439Y563851D01*
X171439Y558936D01*
X170210Y557708D01*
X167753Y557708D01*
X166524Y558936D01*
X171439Y563851D01*
X174008Y558936D02*
X174008Y557708D01*
X174008Y558936D02*
X175237Y558936D01*
X175237Y557708D01*
X174008Y557708D01*
X177750Y562623D02*
X180208Y565080D01*
X180208Y557708D01*
X182665Y557708D02*
X177750Y557708D01*
X185234Y558936D02*
X185234Y562623D01*
X185234Y558936D02*
X186463Y557708D01*
X190149Y557708D01*
X190149Y562623D01*
X192719Y565080D02*
X192719Y557708D01*
X192719Y565080D02*
X197633Y565080D01*
X195176Y561394D02*
X192719Y561394D01*
D10*
X200457Y546405D02*
X180137Y546405D01*
X190297Y536245D02*
X190297Y556565D01*
D195*
X408016Y496504D02*
X409965Y498453D01*
X408016Y496504D02*
X408016Y492606D01*
X409965Y490657D01*
X417761Y490657D01*
X419710Y492606D01*
X419710Y496504D01*
X417761Y498453D01*
X417761Y502351D02*
X419710Y504300D01*
X419710Y508198D01*
X417761Y510147D01*
X409965Y510147D01*
X408016Y508198D01*
X408016Y504300D01*
X409965Y502351D01*
X411914Y502351D01*
X413863Y504300D01*
X413863Y510147D01*
D11*
X401041Y510051D02*
X391635Y510051D01*
X396338Y505348D01*
X396338Y511618D01*
X399473Y514703D02*
X401041Y514703D01*
X399473Y514703D02*
X399473Y516271D01*
X401041Y516271D01*
X401041Y514703D01*
X391635Y519381D02*
X391635Y525651D01*
X393202Y525651D01*
X399473Y519381D01*
X401041Y519381D01*
X399473Y528736D02*
X394770Y528736D01*
X399473Y528736D02*
X401041Y530303D01*
X401041Y535006D01*
X394770Y535006D01*
X391635Y538091D02*
X401041Y538091D01*
X391635Y538091D02*
X391635Y544362D01*
X396338Y541226D02*
X396338Y538091D01*
D10*
X403657Y531165D02*
X423977Y531165D01*
X413817Y521005D02*
X413817Y541325D01*
D196*
X438593Y493112D02*
X437152Y491671D01*
X437152Y488790D01*
X438593Y487350D01*
X444355Y487350D01*
X445795Y488790D01*
X445795Y491671D01*
X444355Y493112D01*
X440033Y496705D02*
X437152Y499586D01*
X445795Y499586D01*
X445795Y496705D02*
X445795Y502467D01*
X444355Y506060D02*
X438593Y506060D01*
X437152Y507501D01*
X437152Y510382D01*
X438593Y511822D01*
X444355Y511822D01*
X445795Y510382D01*
X445795Y507501D01*
X444355Y506060D01*
X438593Y511822D01*
D11*
X454282Y522021D02*
X459197Y522021D01*
X454282Y522021D02*
X453054Y523249D01*
X453054Y525707D01*
X454282Y526936D01*
X459197Y526936D01*
X460426Y525707D01*
X460426Y523249D01*
X459197Y522021D01*
X454282Y526936D01*
X459197Y529505D02*
X460426Y529505D01*
X459197Y529505D02*
X459197Y530734D01*
X460426Y530734D01*
X460426Y529505D01*
X455511Y533247D02*
X453054Y535704D01*
X460426Y535704D01*
X460426Y533247D02*
X460426Y538162D01*
X459197Y540731D02*
X455511Y540731D01*
X459197Y540731D02*
X460426Y541960D01*
X460426Y545646D01*
X455511Y545646D01*
X453054Y548215D02*
X460426Y548215D01*
X453054Y548215D02*
X453054Y553130D01*
X456740Y550673D02*
X456740Y548215D01*
D10*
X451917Y531165D02*
X431597Y531165D01*
X441757Y521005D02*
X441757Y541325D01*
M02*
