G75*
%MOIN*%
%OFA0B0*%
%FSLAX25Y25*%
%IPPOS*%
%LPD*%
%AMOC8*
5,1,8,0,0,1.08239X$1,22.5*
%
%ADD10C,0.07300*%
%ADD11C,0.10800*%
%ADD12C,0.08200*%
%ADD13C,0.04737*%
%ADD14R,0.05550X0.05550*%
%ADD15R,0.05156X0.05156*%
%ADD16R,0.03778X0.03778*%
D10*
X0091800Y0161800D03*
X0111800Y0161800D03*
D11*
X0134005Y0161800D03*
X0159595Y0161800D03*
D12*
X0021800Y0011800D03*
X0021800Y0021800D03*
X0021800Y0031800D03*
X0021800Y0041800D03*
X0021800Y0051800D03*
X0021800Y0061800D03*
X0021800Y0071800D03*
X0021800Y0081800D03*
X0021800Y0091800D03*
X0021800Y0101800D03*
X0021800Y0111800D03*
X0021800Y0121800D03*
X0021800Y0131800D03*
X0021800Y0141800D03*
X0021800Y0151800D03*
X0121800Y0031800D03*
X0121800Y0021800D03*
X0131800Y0021800D03*
X0131800Y0031800D03*
X0141800Y0031800D03*
X0141800Y0021800D03*
X0231800Y0021800D03*
X0231800Y0031800D03*
X0231800Y0041800D03*
X0231800Y0051800D03*
X0231800Y0061800D03*
X0231800Y0071800D03*
X0231800Y0081800D03*
X0231800Y0091800D03*
X0231800Y0101800D03*
X0231800Y0111800D03*
X0231800Y0121800D03*
X0231800Y0131800D03*
X0231800Y0141800D03*
X0231800Y0151800D03*
X0231800Y0011800D03*
D13*
X0130461Y0242863D03*
X0113139Y0242863D03*
D14*
X0103812Y0242800D03*
X0088333Y0220833D03*
X0063800Y0216800D03*
X0089800Y0188800D03*
X0103958Y0174629D03*
X0101800Y0161800D03*
X0075842Y0151800D03*
X0070800Y0161800D03*
X0062800Y0164800D03*
X0056262Y0159338D03*
X0044800Y0158800D03*
X0056300Y0144300D03*
X0030800Y0141800D03*
X0080800Y0116758D03*
X0113800Y0110800D03*
X0121800Y0114842D03*
X0139800Y0118800D03*
X0163800Y0113800D03*
X0162800Y0106800D03*
X0162800Y0099800D03*
X0164800Y0122800D03*
X0153800Y0141800D03*
X0141306Y0148306D03*
X0125806Y0192806D03*
X0125800Y0206800D03*
X0148794Y0197794D03*
X0149800Y0232800D03*
X0204800Y0151800D03*
X0219800Y0141800D03*
X0231800Y0162800D03*
X0194800Y0131800D03*
X0189800Y0121800D03*
X0199758Y0111800D03*
X0160800Y0074800D03*
X0167333Y0068800D03*
X0169300Y0053300D03*
X0175800Y0035800D03*
X0157800Y0013800D03*
X0148746Y0036842D03*
X0146800Y0049800D03*
X0131800Y0051800D03*
X0103800Y0021800D03*
X0098806Y0009794D03*
X0076800Y0031800D03*
X0074800Y0041800D03*
X0074800Y0051800D03*
X0074800Y0061800D03*
X0093800Y0071800D03*
X0093800Y0080800D03*
X0130800Y0084800D03*
X0095800Y0040800D03*
X0211800Y0041800D03*
X0219800Y0031800D03*
X0026800Y0211842D03*
D15*
X0129285Y0216800D03*
D16*
X0113800Y0213800D03*
X0111320Y0227306D03*
X0102800Y0225390D03*
M02*
