%
M48
M72
T01C0.01378
T02C0.02756
T03C0.03150
T04C0.03937
T05C0.04000
T06C0.05118
%
T01
X113800Y213800
X111320Y227306
X102800Y225390
T02
X129285Y216800
X111800Y161800
X91800Y161800
T03
X101800Y161800
X103958Y174629
X89800Y188800
X70800Y161800
X75842Y151800
X62800Y164800
X56262Y159338
X44800Y158800
X56300Y144300
X30800Y141800
X80800Y116758
X113800Y110800
X121800Y114842
X139800Y118800
X163800Y113800
X162800Y106800
X162800Y99800
X164800Y122800
X153800Y141800
X141306Y148306
X125806Y192806
X125800Y206800
X148794Y197794
X149800Y232800
X103812Y242800
X88333Y220833
X63800Y216800
X26800Y211842
X130800Y84800
X160800Y74800
X167333Y68800
X169300Y53300
X175800Y35800
X157800Y13800
X148746Y36842
X146800Y49800
X131800Y51800
X103800Y21800
X98806Y9794
X76800Y31800
X74800Y41800
X74800Y51800
X74800Y61800
X93800Y71800
X93800Y80800
X95800Y40800
X189800Y121800
X194800Y131800
X199758Y111800
X219800Y141800
X204800Y151800
X231800Y162800
X211800Y41800
X219800Y31800
T04
X130461Y242863
X113139Y242863
T05
X21800Y11800
X21800Y21800
X21800Y31800
X21800Y41800
X21800Y51800
X21800Y61800
X21800Y71800
X21800Y81800
X21800Y91800
X21800Y101800
X21800Y111800
X21800Y121800
X21800Y131800
X21800Y141800
X21800Y151800
X121800Y31800
X121800Y21800
X131800Y21800
X131800Y31800
X141800Y31800
X141800Y21800
X231800Y21800
X231800Y31800
X231800Y41800
X231800Y51800
X231800Y61800
X231800Y71800
X231800Y81800
X231800Y91800
X231800Y101800
X231800Y111800
X231800Y121800
X231800Y131800
X231800Y141800
X231800Y151800
X231800Y11800
T06
X159595Y161800
X134005Y161800
M30
