G75*
%MOIN*%
%OFA0B0*%
%FSLAX25Y25*%
%IPPOS*%
%LPD*%
%AMOC8*
5,1,8,0,0,1.08239X$1,22.5*
%
%ADD10C,0.07400*%
%ADD11OC8,0.05543*%
%ADD12C,0.00500*%
D10*
X0060750Y0121700D03*
X0181300Y0124300D03*
X0181300Y0114300D03*
X0181300Y0104300D03*
X0233800Y0036300D03*
X0243800Y0036300D03*
X0181300Y0234300D03*
X0181300Y0244300D03*
X0181300Y0254300D03*
X0141300Y0338800D03*
X0131300Y0338800D03*
D11*
X0143800Y0021300D03*
X0143800Y0013300D03*
X0151800Y0013300D03*
X0151800Y0021300D03*
X0159800Y0021300D03*
X0159800Y0013300D03*
X0167800Y0013300D03*
X0167800Y0021300D03*
X0175800Y0021300D03*
X0175800Y0013300D03*
X0183800Y0013300D03*
X0183800Y0021300D03*
X0191800Y0021300D03*
X0191800Y0013300D03*
X0199800Y0013300D03*
X0199800Y0021300D03*
X0207800Y0021300D03*
X0207800Y0013300D03*
X0215800Y0013300D03*
X0215800Y0021300D03*
D12*
X0179800Y0017300D02*
X0179800Y0086300D01*
X0190800Y0097300D01*
X0190800Y0114800D01*
X0181300Y0124300D01*
X0181300Y0114300D02*
X0171800Y0104800D01*
X0171800Y0017300D01*
X0167800Y0013300D01*
X0163800Y0017300D02*
X0163800Y0046300D01*
X0168300Y0050800D01*
X0168300Y0221300D01*
X0181300Y0234300D01*
X0181300Y0244300D02*
X0139300Y0202300D01*
X0139300Y0053300D01*
X0147800Y0044800D01*
X0147800Y0017300D01*
X0151800Y0013300D01*
X0159800Y0013300D02*
X0163800Y0017300D01*
X0175800Y0013300D02*
X0179800Y0017300D01*
M02*
