G75*
%MOIN*%
%OFA0B0*%
%FSLAX25Y25*%
%IPPOS*%
%LPD*%
%AMOC8*
5,1,8,0,0,1.08239X$1,22.5*
%
%ADD10C,0.00000*%
%ADD11C,0.00600*%
%ADD12C,0.00500*%
%ADD13C,0.00400*%
%ADD14C,0.02400*%
%ADD15R,0.90000X0.00300*%
%ADD16R,0.27600X0.00300*%
%ADD17R,0.54000X0.00300*%
%ADD18R,0.27000X0.00300*%
%ADD19R,0.52800X0.00300*%
%ADD20R,0.25800X0.00300*%
%ADD21R,0.51300X0.00300*%
%ADD22R,0.24900X0.00300*%
%ADD23R,0.50100X0.00300*%
%ADD24R,0.24300X0.00300*%
%ADD25R,0.49500X0.00300*%
%ADD26R,0.23400X0.00300*%
%ADD27R,0.48300X0.00300*%
%ADD28R,0.22800X0.00300*%
%ADD29R,0.47400X0.00300*%
%ADD30R,0.22200X0.00300*%
%ADD31R,0.46500X0.00300*%
%ADD32R,0.21900X0.00300*%
%ADD33R,0.45900X0.00300*%
%ADD34R,0.21300X0.00300*%
%ADD35R,0.45000X0.00300*%
%ADD36R,0.20700X0.00300*%
%ADD37R,0.44400X0.00300*%
%ADD38R,0.20400X0.00300*%
%ADD39R,0.44100X0.00300*%
%ADD40R,0.20100X0.00300*%
%ADD41R,0.43200X0.00300*%
%ADD42R,0.19500X0.00300*%
%ADD43R,0.42600X0.00300*%
%ADD44R,0.06300X0.00300*%
%ADD45R,0.42300X0.00300*%
%ADD46R,0.18900X0.00300*%
%ADD47R,0.08700X0.00300*%
%ADD48R,0.41700X0.00300*%
%ADD49R,0.18600X0.00300*%
%ADD50R,0.12000X0.00300*%
%ADD51R,0.03900X0.00300*%
%ADD52R,0.36300X0.00300*%
%ADD53R,0.18300X0.00300*%
%ADD54R,0.14700X0.00300*%
%ADD55R,0.03000X0.00300*%
%ADD56R,0.36000X0.00300*%
%ADD57R,0.18000X0.00300*%
%ADD58R,0.16500X0.00300*%
%ADD59R,0.02700X0.00300*%
%ADD60R,0.35400X0.00300*%
%ADD61R,0.00900X0.00300*%
%ADD62R,0.17400X0.00300*%
%ADD63R,0.00600X0.00300*%
%ADD64R,0.35100X0.00300*%
%ADD65R,0.01500X0.00300*%
%ADD66R,0.17700X0.00300*%
%ADD67R,0.00300X0.00300*%
%ADD68R,0.34200X0.00300*%
%ADD69R,0.01800X0.00300*%
%ADD70R,0.02100X0.00300*%
%ADD71R,0.21000X0.00300*%
%ADD72R,0.33600X0.00300*%
%ADD73R,0.17100X0.00300*%
%ADD74R,0.16800X0.00300*%
%ADD75R,0.01200X0.00300*%
%ADD76R,0.22500X0.00300*%
%ADD77R,0.23700X0.00300*%
%ADD78R,0.24000X0.00300*%
%ADD79R,0.16200X0.00300*%
%ADD80R,0.33300X0.00300*%
%ADD81R,0.32700X0.00300*%
%ADD82R,0.32100X0.00300*%
%ADD83R,0.15900X0.00300*%
%ADD84R,0.31800X0.00300*%
%ADD85R,0.25500X0.00300*%
%ADD86R,0.31200X0.00300*%
%ADD87R,0.30900X0.00300*%
%ADD88R,0.03300X0.00300*%
%ADD89R,0.26700X0.00300*%
%ADD90R,0.30300X0.00300*%
%ADD91R,0.02400X0.00300*%
%ADD92R,0.03600X0.00300*%
%ADD93R,0.27300X0.00300*%
%ADD94R,0.30000X0.00300*%
%ADD95R,0.15600X0.00300*%
%ADD96R,0.27900X0.00300*%
%ADD97R,0.29400X0.00300*%
%ADD98R,0.28800X0.00300*%
%ADD99R,0.29100X0.00300*%
%ADD100R,0.32400X0.00300*%
%ADD101R,0.28500X0.00300*%
%ADD102R,0.33000X0.00300*%
%ADD103R,0.33900X0.00300*%
%ADD104R,0.34800X0.00300*%
%ADD105R,0.26400X0.00300*%
%ADD106R,0.36900X0.00300*%
%ADD107R,0.24600X0.00300*%
%ADD108R,0.37500X0.00300*%
%ADD109R,0.38400X0.00300*%
%ADD110R,0.38700X0.00300*%
%ADD111R,0.39300X0.00300*%
%ADD112R,0.39900X0.00300*%
%ADD113R,0.40200X0.00300*%
%ADD114R,0.21600X0.00300*%
%ADD115R,0.40800X0.00300*%
%ADD116R,0.41400X0.00300*%
%ADD117R,0.19800X0.00300*%
%ADD118R,0.42900X0.00300*%
%ADD119R,0.43500X0.00300*%
%ADD120R,0.19200X0.00300*%
%ADD121R,0.43800X0.00300*%
%ADD122R,0.45300X0.00300*%
%ADD123R,0.46800X0.00300*%
%ADD124R,0.47700X0.00300*%
%ADD125R,0.48000X0.00300*%
%ADD126R,0.49200X0.00300*%
%ADD127R,0.66900X0.00300*%
%ADD128R,0.66600X0.00300*%
%ADD129R,0.66300X0.00300*%
%ADD130R,0.66000X0.00300*%
%ADD131R,0.23100X0.00300*%
%ADD132R,0.42000X0.00300*%
%ADD133R,0.41100X0.00300*%
%ADD134R,0.39000X0.00300*%
%ADD135R,0.38100X0.00300*%
%ADD136R,0.05700X0.00300*%
%ADD137R,0.06900X0.00300*%
%ADD138R,0.10800X0.00300*%
%ADD139R,0.05100X0.00300*%
%ADD140R,0.06600X0.00300*%
%ADD141R,0.12600X0.00300*%
%ADD142R,0.04200X0.00300*%
%ADD143R,0.05400X0.00300*%
%ADD144R,0.06000X0.00300*%
%ADD145R,0.10500X0.00300*%
%ADD146R,0.13200X0.00300*%
%ADD147R,0.04800X0.00300*%
%ADD148R,0.09900X0.00300*%
%ADD149R,0.13800X0.00300*%
%ADD150R,0.14100X0.00300*%
%ADD151R,0.04500X0.00300*%
%ADD152R,0.15000X0.00300*%
%ADD153R,0.09300X0.00300*%
%ADD154R,0.09000X0.00300*%
%ADD155R,0.15300X0.00300*%
%ADD156R,0.08400X0.00300*%
%ADD157R,0.08100X0.00300*%
%ADD158R,0.07500X0.00300*%
%ADD159R,0.07200X0.00300*%
%ADD160R,0.07800X0.00300*%
%ADD161R,0.10200X0.00300*%
%ADD162R,0.09600X0.00300*%
%ADD163R,0.14400X0.00300*%
%ADD164R,0.11100X0.00300*%
%ADD165R,0.11700X0.00300*%
%ADD166R,0.12300X0.00300*%
%ADD167R,0.13500X0.00300*%
%ADD168R,0.12900X0.00300*%
%ADD169R,0.11400X0.00300*%
%ADD170R,0.51600X0.00300*%
%ADD171R,0.51000X0.00300*%
%ADD172R,0.50700X0.00300*%
%ADD173R,0.34500X0.00300*%
%ADD174R,0.50400X0.00300*%
%ADD175R,0.49800X0.00300*%
%ADD176R,0.35700X0.00300*%
%ADD177R,0.48600X0.00300*%
%ADD178R,0.37200X0.00300*%
%ADD179R,0.37800X0.00300*%
%ADD180R,0.47100X0.00300*%
%ADD181R,0.46200X0.00300*%
%ADD182R,0.45600X0.00300*%
%ADD183R,0.40500X0.00300*%
%ADD184R,0.44700X0.00300*%
%ADD185R,0.48900X0.00300*%
%ADD186R,0.52200X0.00300*%
%ADD187R,0.52500X0.00300*%
%ADD188R,0.53700X0.00300*%
%ADD189R,0.54300X0.00300*%
%ADD190R,0.54600X0.00300*%
%ADD191R,0.55200X0.00300*%
%ADD192R,0.55800X0.00300*%
%ADD193R,0.56400X0.00300*%
%ADD194R,0.56700X0.00300*%
%ADD195R,0.57600X0.00300*%
%ADD196R,0.30600X0.00300*%
%ADD197R,0.58200X0.00300*%
%ADD198R,0.58500X0.00300*%
%ADD199R,0.29700X0.00300*%
%ADD200R,0.59400X0.00300*%
%ADD201R,0.60000X0.00300*%
%ADD202R,0.60600X0.00300*%
%ADD203R,0.28200X0.00300*%
%ADD204R,0.60900X0.00300*%
%ADD205R,0.61800X0.00300*%
%ADD206R,0.62400X0.00300*%
%ADD207R,0.63000X0.00300*%
%ADD208R,0.26100X0.00300*%
%ADD209R,0.63600X0.00300*%
%ADD210C,0.00800*%
D10*
X0074800Y0046300D02*
X0082800Y0046300D01*
X0078800Y0042300D02*
X0078800Y0050300D01*
X0085300Y0058800D02*
X0085302Y0058954D01*
X0085308Y0059109D01*
X0085318Y0059263D01*
X0085332Y0059417D01*
X0085350Y0059570D01*
X0085371Y0059723D01*
X0085397Y0059876D01*
X0085427Y0060027D01*
X0085460Y0060178D01*
X0085498Y0060328D01*
X0085539Y0060477D01*
X0085584Y0060625D01*
X0085633Y0060771D01*
X0085686Y0060917D01*
X0085742Y0061060D01*
X0085802Y0061203D01*
X0085866Y0061343D01*
X0085933Y0061483D01*
X0086004Y0061620D01*
X0086078Y0061755D01*
X0086156Y0061889D01*
X0086237Y0062020D01*
X0086322Y0062149D01*
X0086410Y0062277D01*
X0086501Y0062401D01*
X0086595Y0062524D01*
X0086693Y0062644D01*
X0086793Y0062761D01*
X0086897Y0062876D01*
X0087003Y0062988D01*
X0087112Y0063097D01*
X0087224Y0063203D01*
X0087339Y0063307D01*
X0087456Y0063407D01*
X0087576Y0063505D01*
X0087699Y0063599D01*
X0087823Y0063690D01*
X0087951Y0063778D01*
X0088080Y0063863D01*
X0088211Y0063944D01*
X0088345Y0064022D01*
X0088480Y0064096D01*
X0088617Y0064167D01*
X0088757Y0064234D01*
X0088897Y0064298D01*
X0089040Y0064358D01*
X0089183Y0064414D01*
X0089329Y0064467D01*
X0089475Y0064516D01*
X0089623Y0064561D01*
X0089772Y0064602D01*
X0089922Y0064640D01*
X0090073Y0064673D01*
X0090224Y0064703D01*
X0090377Y0064729D01*
X0090530Y0064750D01*
X0090683Y0064768D01*
X0090837Y0064782D01*
X0090991Y0064792D01*
X0091146Y0064798D01*
X0091300Y0064800D01*
X0091454Y0064798D01*
X0091609Y0064792D01*
X0091763Y0064782D01*
X0091917Y0064768D01*
X0092070Y0064750D01*
X0092223Y0064729D01*
X0092376Y0064703D01*
X0092527Y0064673D01*
X0092678Y0064640D01*
X0092828Y0064602D01*
X0092977Y0064561D01*
X0093125Y0064516D01*
X0093271Y0064467D01*
X0093417Y0064414D01*
X0093560Y0064358D01*
X0093703Y0064298D01*
X0093843Y0064234D01*
X0093983Y0064167D01*
X0094120Y0064096D01*
X0094255Y0064022D01*
X0094389Y0063944D01*
X0094520Y0063863D01*
X0094649Y0063778D01*
X0094777Y0063690D01*
X0094901Y0063599D01*
X0095024Y0063505D01*
X0095144Y0063407D01*
X0095261Y0063307D01*
X0095376Y0063203D01*
X0095488Y0063097D01*
X0095597Y0062988D01*
X0095703Y0062876D01*
X0095807Y0062761D01*
X0095907Y0062644D01*
X0096005Y0062524D01*
X0096099Y0062401D01*
X0096190Y0062277D01*
X0096278Y0062149D01*
X0096363Y0062020D01*
X0096444Y0061889D01*
X0096522Y0061755D01*
X0096596Y0061620D01*
X0096667Y0061483D01*
X0096734Y0061343D01*
X0096798Y0061203D01*
X0096858Y0061060D01*
X0096914Y0060917D01*
X0096967Y0060771D01*
X0097016Y0060625D01*
X0097061Y0060477D01*
X0097102Y0060328D01*
X0097140Y0060178D01*
X0097173Y0060027D01*
X0097203Y0059876D01*
X0097229Y0059723D01*
X0097250Y0059570D01*
X0097268Y0059417D01*
X0097282Y0059263D01*
X0097292Y0059109D01*
X0097298Y0058954D01*
X0097300Y0058800D01*
X0097298Y0058646D01*
X0097292Y0058491D01*
X0097282Y0058337D01*
X0097268Y0058183D01*
X0097250Y0058030D01*
X0097229Y0057877D01*
X0097203Y0057724D01*
X0097173Y0057573D01*
X0097140Y0057422D01*
X0097102Y0057272D01*
X0097061Y0057123D01*
X0097016Y0056975D01*
X0096967Y0056829D01*
X0096914Y0056683D01*
X0096858Y0056540D01*
X0096798Y0056397D01*
X0096734Y0056257D01*
X0096667Y0056117D01*
X0096596Y0055980D01*
X0096522Y0055845D01*
X0096444Y0055711D01*
X0096363Y0055580D01*
X0096278Y0055451D01*
X0096190Y0055323D01*
X0096099Y0055199D01*
X0096005Y0055076D01*
X0095907Y0054956D01*
X0095807Y0054839D01*
X0095703Y0054724D01*
X0095597Y0054612D01*
X0095488Y0054503D01*
X0095376Y0054397D01*
X0095261Y0054293D01*
X0095144Y0054193D01*
X0095024Y0054095D01*
X0094901Y0054001D01*
X0094777Y0053910D01*
X0094649Y0053822D01*
X0094520Y0053737D01*
X0094389Y0053656D01*
X0094255Y0053578D01*
X0094120Y0053504D01*
X0093983Y0053433D01*
X0093843Y0053366D01*
X0093703Y0053302D01*
X0093560Y0053242D01*
X0093417Y0053186D01*
X0093271Y0053133D01*
X0093125Y0053084D01*
X0092977Y0053039D01*
X0092828Y0052998D01*
X0092678Y0052960D01*
X0092527Y0052927D01*
X0092376Y0052897D01*
X0092223Y0052871D01*
X0092070Y0052850D01*
X0091917Y0052832D01*
X0091763Y0052818D01*
X0091609Y0052808D01*
X0091454Y0052802D01*
X0091300Y0052800D01*
X0091146Y0052802D01*
X0090991Y0052808D01*
X0090837Y0052818D01*
X0090683Y0052832D01*
X0090530Y0052850D01*
X0090377Y0052871D01*
X0090224Y0052897D01*
X0090073Y0052927D01*
X0089922Y0052960D01*
X0089772Y0052998D01*
X0089623Y0053039D01*
X0089475Y0053084D01*
X0089329Y0053133D01*
X0089183Y0053186D01*
X0089040Y0053242D01*
X0088897Y0053302D01*
X0088757Y0053366D01*
X0088617Y0053433D01*
X0088480Y0053504D01*
X0088345Y0053578D01*
X0088211Y0053656D01*
X0088080Y0053737D01*
X0087951Y0053822D01*
X0087823Y0053910D01*
X0087699Y0054001D01*
X0087576Y0054095D01*
X0087456Y0054193D01*
X0087339Y0054293D01*
X0087224Y0054397D01*
X0087112Y0054503D01*
X0087003Y0054612D01*
X0086897Y0054724D01*
X0086793Y0054839D01*
X0086693Y0054956D01*
X0086595Y0055076D01*
X0086501Y0055199D01*
X0086410Y0055323D01*
X0086322Y0055451D01*
X0086237Y0055580D01*
X0086156Y0055711D01*
X0086078Y0055845D01*
X0086004Y0055980D01*
X0085933Y0056117D01*
X0085866Y0056257D01*
X0085802Y0056397D01*
X0085742Y0056540D01*
X0085686Y0056683D01*
X0085633Y0056829D01*
X0085584Y0056975D01*
X0085539Y0057123D01*
X0085498Y0057272D01*
X0085460Y0057422D01*
X0085427Y0057573D01*
X0085397Y0057724D01*
X0085371Y0057877D01*
X0085350Y0058030D01*
X0085332Y0058183D01*
X0085318Y0058337D01*
X0085308Y0058491D01*
X0085302Y0058646D01*
X0085300Y0058800D01*
X0139800Y0021300D02*
X0147800Y0021300D01*
X0143800Y0017300D02*
X0143800Y0025300D01*
X0150300Y0058800D02*
X0150302Y0058954D01*
X0150308Y0059109D01*
X0150318Y0059263D01*
X0150332Y0059417D01*
X0150350Y0059570D01*
X0150371Y0059723D01*
X0150397Y0059876D01*
X0150427Y0060027D01*
X0150460Y0060178D01*
X0150498Y0060328D01*
X0150539Y0060477D01*
X0150584Y0060625D01*
X0150633Y0060771D01*
X0150686Y0060917D01*
X0150742Y0061060D01*
X0150802Y0061203D01*
X0150866Y0061343D01*
X0150933Y0061483D01*
X0151004Y0061620D01*
X0151078Y0061755D01*
X0151156Y0061889D01*
X0151237Y0062020D01*
X0151322Y0062149D01*
X0151410Y0062277D01*
X0151501Y0062401D01*
X0151595Y0062524D01*
X0151693Y0062644D01*
X0151793Y0062761D01*
X0151897Y0062876D01*
X0152003Y0062988D01*
X0152112Y0063097D01*
X0152224Y0063203D01*
X0152339Y0063307D01*
X0152456Y0063407D01*
X0152576Y0063505D01*
X0152699Y0063599D01*
X0152823Y0063690D01*
X0152951Y0063778D01*
X0153080Y0063863D01*
X0153211Y0063944D01*
X0153345Y0064022D01*
X0153480Y0064096D01*
X0153617Y0064167D01*
X0153757Y0064234D01*
X0153897Y0064298D01*
X0154040Y0064358D01*
X0154183Y0064414D01*
X0154329Y0064467D01*
X0154475Y0064516D01*
X0154623Y0064561D01*
X0154772Y0064602D01*
X0154922Y0064640D01*
X0155073Y0064673D01*
X0155224Y0064703D01*
X0155377Y0064729D01*
X0155530Y0064750D01*
X0155683Y0064768D01*
X0155837Y0064782D01*
X0155991Y0064792D01*
X0156146Y0064798D01*
X0156300Y0064800D01*
X0156454Y0064798D01*
X0156609Y0064792D01*
X0156763Y0064782D01*
X0156917Y0064768D01*
X0157070Y0064750D01*
X0157223Y0064729D01*
X0157376Y0064703D01*
X0157527Y0064673D01*
X0157678Y0064640D01*
X0157828Y0064602D01*
X0157977Y0064561D01*
X0158125Y0064516D01*
X0158271Y0064467D01*
X0158417Y0064414D01*
X0158560Y0064358D01*
X0158703Y0064298D01*
X0158843Y0064234D01*
X0158983Y0064167D01*
X0159120Y0064096D01*
X0159255Y0064022D01*
X0159389Y0063944D01*
X0159520Y0063863D01*
X0159649Y0063778D01*
X0159777Y0063690D01*
X0159901Y0063599D01*
X0160024Y0063505D01*
X0160144Y0063407D01*
X0160261Y0063307D01*
X0160376Y0063203D01*
X0160488Y0063097D01*
X0160597Y0062988D01*
X0160703Y0062876D01*
X0160807Y0062761D01*
X0160907Y0062644D01*
X0161005Y0062524D01*
X0161099Y0062401D01*
X0161190Y0062277D01*
X0161278Y0062149D01*
X0161363Y0062020D01*
X0161444Y0061889D01*
X0161522Y0061755D01*
X0161596Y0061620D01*
X0161667Y0061483D01*
X0161734Y0061343D01*
X0161798Y0061203D01*
X0161858Y0061060D01*
X0161914Y0060917D01*
X0161967Y0060771D01*
X0162016Y0060625D01*
X0162061Y0060477D01*
X0162102Y0060328D01*
X0162140Y0060178D01*
X0162173Y0060027D01*
X0162203Y0059876D01*
X0162229Y0059723D01*
X0162250Y0059570D01*
X0162268Y0059417D01*
X0162282Y0059263D01*
X0162292Y0059109D01*
X0162298Y0058954D01*
X0162300Y0058800D01*
X0162298Y0058646D01*
X0162292Y0058491D01*
X0162282Y0058337D01*
X0162268Y0058183D01*
X0162250Y0058030D01*
X0162229Y0057877D01*
X0162203Y0057724D01*
X0162173Y0057573D01*
X0162140Y0057422D01*
X0162102Y0057272D01*
X0162061Y0057123D01*
X0162016Y0056975D01*
X0161967Y0056829D01*
X0161914Y0056683D01*
X0161858Y0056540D01*
X0161798Y0056397D01*
X0161734Y0056257D01*
X0161667Y0056117D01*
X0161596Y0055980D01*
X0161522Y0055845D01*
X0161444Y0055711D01*
X0161363Y0055580D01*
X0161278Y0055451D01*
X0161190Y0055323D01*
X0161099Y0055199D01*
X0161005Y0055076D01*
X0160907Y0054956D01*
X0160807Y0054839D01*
X0160703Y0054724D01*
X0160597Y0054612D01*
X0160488Y0054503D01*
X0160376Y0054397D01*
X0160261Y0054293D01*
X0160144Y0054193D01*
X0160024Y0054095D01*
X0159901Y0054001D01*
X0159777Y0053910D01*
X0159649Y0053822D01*
X0159520Y0053737D01*
X0159389Y0053656D01*
X0159255Y0053578D01*
X0159120Y0053504D01*
X0158983Y0053433D01*
X0158843Y0053366D01*
X0158703Y0053302D01*
X0158560Y0053242D01*
X0158417Y0053186D01*
X0158271Y0053133D01*
X0158125Y0053084D01*
X0157977Y0053039D01*
X0157828Y0052998D01*
X0157678Y0052960D01*
X0157527Y0052927D01*
X0157376Y0052897D01*
X0157223Y0052871D01*
X0157070Y0052850D01*
X0156917Y0052832D01*
X0156763Y0052818D01*
X0156609Y0052808D01*
X0156454Y0052802D01*
X0156300Y0052800D01*
X0156146Y0052802D01*
X0155991Y0052808D01*
X0155837Y0052818D01*
X0155683Y0052832D01*
X0155530Y0052850D01*
X0155377Y0052871D01*
X0155224Y0052897D01*
X0155073Y0052927D01*
X0154922Y0052960D01*
X0154772Y0052998D01*
X0154623Y0053039D01*
X0154475Y0053084D01*
X0154329Y0053133D01*
X0154183Y0053186D01*
X0154040Y0053242D01*
X0153897Y0053302D01*
X0153757Y0053366D01*
X0153617Y0053433D01*
X0153480Y0053504D01*
X0153345Y0053578D01*
X0153211Y0053656D01*
X0153080Y0053737D01*
X0152951Y0053822D01*
X0152823Y0053910D01*
X0152699Y0054001D01*
X0152576Y0054095D01*
X0152456Y0054193D01*
X0152339Y0054293D01*
X0152224Y0054397D01*
X0152112Y0054503D01*
X0152003Y0054612D01*
X0151897Y0054724D01*
X0151793Y0054839D01*
X0151693Y0054956D01*
X0151595Y0055076D01*
X0151501Y0055199D01*
X0151410Y0055323D01*
X0151322Y0055451D01*
X0151237Y0055580D01*
X0151156Y0055711D01*
X0151078Y0055845D01*
X0151004Y0055980D01*
X0150933Y0056117D01*
X0150866Y0056257D01*
X0150802Y0056397D01*
X0150742Y0056540D01*
X0150686Y0056683D01*
X0150633Y0056829D01*
X0150584Y0056975D01*
X0150539Y0057123D01*
X0150498Y0057272D01*
X0150460Y0057422D01*
X0150427Y0057573D01*
X0150397Y0057724D01*
X0150371Y0057877D01*
X0150350Y0058030D01*
X0150332Y0058183D01*
X0150318Y0058337D01*
X0150308Y0058491D01*
X0150302Y0058646D01*
X0150300Y0058800D01*
X0189800Y0046300D02*
X0197800Y0046300D01*
X0193800Y0042300D02*
X0193800Y0050300D01*
X0200300Y0058800D02*
X0200302Y0058954D01*
X0200308Y0059109D01*
X0200318Y0059263D01*
X0200332Y0059417D01*
X0200350Y0059570D01*
X0200371Y0059723D01*
X0200397Y0059876D01*
X0200427Y0060027D01*
X0200460Y0060178D01*
X0200498Y0060328D01*
X0200539Y0060477D01*
X0200584Y0060625D01*
X0200633Y0060771D01*
X0200686Y0060917D01*
X0200742Y0061060D01*
X0200802Y0061203D01*
X0200866Y0061343D01*
X0200933Y0061483D01*
X0201004Y0061620D01*
X0201078Y0061755D01*
X0201156Y0061889D01*
X0201237Y0062020D01*
X0201322Y0062149D01*
X0201410Y0062277D01*
X0201501Y0062401D01*
X0201595Y0062524D01*
X0201693Y0062644D01*
X0201793Y0062761D01*
X0201897Y0062876D01*
X0202003Y0062988D01*
X0202112Y0063097D01*
X0202224Y0063203D01*
X0202339Y0063307D01*
X0202456Y0063407D01*
X0202576Y0063505D01*
X0202699Y0063599D01*
X0202823Y0063690D01*
X0202951Y0063778D01*
X0203080Y0063863D01*
X0203211Y0063944D01*
X0203345Y0064022D01*
X0203480Y0064096D01*
X0203617Y0064167D01*
X0203757Y0064234D01*
X0203897Y0064298D01*
X0204040Y0064358D01*
X0204183Y0064414D01*
X0204329Y0064467D01*
X0204475Y0064516D01*
X0204623Y0064561D01*
X0204772Y0064602D01*
X0204922Y0064640D01*
X0205073Y0064673D01*
X0205224Y0064703D01*
X0205377Y0064729D01*
X0205530Y0064750D01*
X0205683Y0064768D01*
X0205837Y0064782D01*
X0205991Y0064792D01*
X0206146Y0064798D01*
X0206300Y0064800D01*
X0206454Y0064798D01*
X0206609Y0064792D01*
X0206763Y0064782D01*
X0206917Y0064768D01*
X0207070Y0064750D01*
X0207223Y0064729D01*
X0207376Y0064703D01*
X0207527Y0064673D01*
X0207678Y0064640D01*
X0207828Y0064602D01*
X0207977Y0064561D01*
X0208125Y0064516D01*
X0208271Y0064467D01*
X0208417Y0064414D01*
X0208560Y0064358D01*
X0208703Y0064298D01*
X0208843Y0064234D01*
X0208983Y0064167D01*
X0209120Y0064096D01*
X0209255Y0064022D01*
X0209389Y0063944D01*
X0209520Y0063863D01*
X0209649Y0063778D01*
X0209777Y0063690D01*
X0209901Y0063599D01*
X0210024Y0063505D01*
X0210144Y0063407D01*
X0210261Y0063307D01*
X0210376Y0063203D01*
X0210488Y0063097D01*
X0210597Y0062988D01*
X0210703Y0062876D01*
X0210807Y0062761D01*
X0210907Y0062644D01*
X0211005Y0062524D01*
X0211099Y0062401D01*
X0211190Y0062277D01*
X0211278Y0062149D01*
X0211363Y0062020D01*
X0211444Y0061889D01*
X0211522Y0061755D01*
X0211596Y0061620D01*
X0211667Y0061483D01*
X0211734Y0061343D01*
X0211798Y0061203D01*
X0211858Y0061060D01*
X0211914Y0060917D01*
X0211967Y0060771D01*
X0212016Y0060625D01*
X0212061Y0060477D01*
X0212102Y0060328D01*
X0212140Y0060178D01*
X0212173Y0060027D01*
X0212203Y0059876D01*
X0212229Y0059723D01*
X0212250Y0059570D01*
X0212268Y0059417D01*
X0212282Y0059263D01*
X0212292Y0059109D01*
X0212298Y0058954D01*
X0212300Y0058800D01*
X0212298Y0058646D01*
X0212292Y0058491D01*
X0212282Y0058337D01*
X0212268Y0058183D01*
X0212250Y0058030D01*
X0212229Y0057877D01*
X0212203Y0057724D01*
X0212173Y0057573D01*
X0212140Y0057422D01*
X0212102Y0057272D01*
X0212061Y0057123D01*
X0212016Y0056975D01*
X0211967Y0056829D01*
X0211914Y0056683D01*
X0211858Y0056540D01*
X0211798Y0056397D01*
X0211734Y0056257D01*
X0211667Y0056117D01*
X0211596Y0055980D01*
X0211522Y0055845D01*
X0211444Y0055711D01*
X0211363Y0055580D01*
X0211278Y0055451D01*
X0211190Y0055323D01*
X0211099Y0055199D01*
X0211005Y0055076D01*
X0210907Y0054956D01*
X0210807Y0054839D01*
X0210703Y0054724D01*
X0210597Y0054612D01*
X0210488Y0054503D01*
X0210376Y0054397D01*
X0210261Y0054293D01*
X0210144Y0054193D01*
X0210024Y0054095D01*
X0209901Y0054001D01*
X0209777Y0053910D01*
X0209649Y0053822D01*
X0209520Y0053737D01*
X0209389Y0053656D01*
X0209255Y0053578D01*
X0209120Y0053504D01*
X0208983Y0053433D01*
X0208843Y0053366D01*
X0208703Y0053302D01*
X0208560Y0053242D01*
X0208417Y0053186D01*
X0208271Y0053133D01*
X0208125Y0053084D01*
X0207977Y0053039D01*
X0207828Y0052998D01*
X0207678Y0052960D01*
X0207527Y0052927D01*
X0207376Y0052897D01*
X0207223Y0052871D01*
X0207070Y0052850D01*
X0206917Y0052832D01*
X0206763Y0052818D01*
X0206609Y0052808D01*
X0206454Y0052802D01*
X0206300Y0052800D01*
X0206146Y0052802D01*
X0205991Y0052808D01*
X0205837Y0052818D01*
X0205683Y0052832D01*
X0205530Y0052850D01*
X0205377Y0052871D01*
X0205224Y0052897D01*
X0205073Y0052927D01*
X0204922Y0052960D01*
X0204772Y0052998D01*
X0204623Y0053039D01*
X0204475Y0053084D01*
X0204329Y0053133D01*
X0204183Y0053186D01*
X0204040Y0053242D01*
X0203897Y0053302D01*
X0203757Y0053366D01*
X0203617Y0053433D01*
X0203480Y0053504D01*
X0203345Y0053578D01*
X0203211Y0053656D01*
X0203080Y0053737D01*
X0202951Y0053822D01*
X0202823Y0053910D01*
X0202699Y0054001D01*
X0202576Y0054095D01*
X0202456Y0054193D01*
X0202339Y0054293D01*
X0202224Y0054397D01*
X0202112Y0054503D01*
X0202003Y0054612D01*
X0201897Y0054724D01*
X0201793Y0054839D01*
X0201693Y0054956D01*
X0201595Y0055076D01*
X0201501Y0055199D01*
X0201410Y0055323D01*
X0201322Y0055451D01*
X0201237Y0055580D01*
X0201156Y0055711D01*
X0201078Y0055845D01*
X0201004Y0055980D01*
X0200933Y0056117D01*
X0200866Y0056257D01*
X0200802Y0056397D01*
X0200742Y0056540D01*
X0200686Y0056683D01*
X0200633Y0056829D01*
X0200584Y0056975D01*
X0200539Y0057123D01*
X0200498Y0057272D01*
X0200460Y0057422D01*
X0200427Y0057573D01*
X0200397Y0057724D01*
X0200371Y0057877D01*
X0200350Y0058030D01*
X0200332Y0058183D01*
X0200318Y0058337D01*
X0200308Y0058491D01*
X0200302Y0058646D01*
X0200300Y0058800D01*
X0229800Y0036300D02*
X0237800Y0036300D01*
X0233800Y0032300D02*
X0233800Y0040300D01*
X0265300Y0058800D02*
X0265302Y0058954D01*
X0265308Y0059109D01*
X0265318Y0059263D01*
X0265332Y0059417D01*
X0265350Y0059570D01*
X0265371Y0059723D01*
X0265397Y0059876D01*
X0265427Y0060027D01*
X0265460Y0060178D01*
X0265498Y0060328D01*
X0265539Y0060477D01*
X0265584Y0060625D01*
X0265633Y0060771D01*
X0265686Y0060917D01*
X0265742Y0061060D01*
X0265802Y0061203D01*
X0265866Y0061343D01*
X0265933Y0061483D01*
X0266004Y0061620D01*
X0266078Y0061755D01*
X0266156Y0061889D01*
X0266237Y0062020D01*
X0266322Y0062149D01*
X0266410Y0062277D01*
X0266501Y0062401D01*
X0266595Y0062524D01*
X0266693Y0062644D01*
X0266793Y0062761D01*
X0266897Y0062876D01*
X0267003Y0062988D01*
X0267112Y0063097D01*
X0267224Y0063203D01*
X0267339Y0063307D01*
X0267456Y0063407D01*
X0267576Y0063505D01*
X0267699Y0063599D01*
X0267823Y0063690D01*
X0267951Y0063778D01*
X0268080Y0063863D01*
X0268211Y0063944D01*
X0268345Y0064022D01*
X0268480Y0064096D01*
X0268617Y0064167D01*
X0268757Y0064234D01*
X0268897Y0064298D01*
X0269040Y0064358D01*
X0269183Y0064414D01*
X0269329Y0064467D01*
X0269475Y0064516D01*
X0269623Y0064561D01*
X0269772Y0064602D01*
X0269922Y0064640D01*
X0270073Y0064673D01*
X0270224Y0064703D01*
X0270377Y0064729D01*
X0270530Y0064750D01*
X0270683Y0064768D01*
X0270837Y0064782D01*
X0270991Y0064792D01*
X0271146Y0064798D01*
X0271300Y0064800D01*
X0271454Y0064798D01*
X0271609Y0064792D01*
X0271763Y0064782D01*
X0271917Y0064768D01*
X0272070Y0064750D01*
X0272223Y0064729D01*
X0272376Y0064703D01*
X0272527Y0064673D01*
X0272678Y0064640D01*
X0272828Y0064602D01*
X0272977Y0064561D01*
X0273125Y0064516D01*
X0273271Y0064467D01*
X0273417Y0064414D01*
X0273560Y0064358D01*
X0273703Y0064298D01*
X0273843Y0064234D01*
X0273983Y0064167D01*
X0274120Y0064096D01*
X0274255Y0064022D01*
X0274389Y0063944D01*
X0274520Y0063863D01*
X0274649Y0063778D01*
X0274777Y0063690D01*
X0274901Y0063599D01*
X0275024Y0063505D01*
X0275144Y0063407D01*
X0275261Y0063307D01*
X0275376Y0063203D01*
X0275488Y0063097D01*
X0275597Y0062988D01*
X0275703Y0062876D01*
X0275807Y0062761D01*
X0275907Y0062644D01*
X0276005Y0062524D01*
X0276099Y0062401D01*
X0276190Y0062277D01*
X0276278Y0062149D01*
X0276363Y0062020D01*
X0276444Y0061889D01*
X0276522Y0061755D01*
X0276596Y0061620D01*
X0276667Y0061483D01*
X0276734Y0061343D01*
X0276798Y0061203D01*
X0276858Y0061060D01*
X0276914Y0060917D01*
X0276967Y0060771D01*
X0277016Y0060625D01*
X0277061Y0060477D01*
X0277102Y0060328D01*
X0277140Y0060178D01*
X0277173Y0060027D01*
X0277203Y0059876D01*
X0277229Y0059723D01*
X0277250Y0059570D01*
X0277268Y0059417D01*
X0277282Y0059263D01*
X0277292Y0059109D01*
X0277298Y0058954D01*
X0277300Y0058800D01*
X0277298Y0058646D01*
X0277292Y0058491D01*
X0277282Y0058337D01*
X0277268Y0058183D01*
X0277250Y0058030D01*
X0277229Y0057877D01*
X0277203Y0057724D01*
X0277173Y0057573D01*
X0277140Y0057422D01*
X0277102Y0057272D01*
X0277061Y0057123D01*
X0277016Y0056975D01*
X0276967Y0056829D01*
X0276914Y0056683D01*
X0276858Y0056540D01*
X0276798Y0056397D01*
X0276734Y0056257D01*
X0276667Y0056117D01*
X0276596Y0055980D01*
X0276522Y0055845D01*
X0276444Y0055711D01*
X0276363Y0055580D01*
X0276278Y0055451D01*
X0276190Y0055323D01*
X0276099Y0055199D01*
X0276005Y0055076D01*
X0275907Y0054956D01*
X0275807Y0054839D01*
X0275703Y0054724D01*
X0275597Y0054612D01*
X0275488Y0054503D01*
X0275376Y0054397D01*
X0275261Y0054293D01*
X0275144Y0054193D01*
X0275024Y0054095D01*
X0274901Y0054001D01*
X0274777Y0053910D01*
X0274649Y0053822D01*
X0274520Y0053737D01*
X0274389Y0053656D01*
X0274255Y0053578D01*
X0274120Y0053504D01*
X0273983Y0053433D01*
X0273843Y0053366D01*
X0273703Y0053302D01*
X0273560Y0053242D01*
X0273417Y0053186D01*
X0273271Y0053133D01*
X0273125Y0053084D01*
X0272977Y0053039D01*
X0272828Y0052998D01*
X0272678Y0052960D01*
X0272527Y0052927D01*
X0272376Y0052897D01*
X0272223Y0052871D01*
X0272070Y0052850D01*
X0271917Y0052832D01*
X0271763Y0052818D01*
X0271609Y0052808D01*
X0271454Y0052802D01*
X0271300Y0052800D01*
X0271146Y0052802D01*
X0270991Y0052808D01*
X0270837Y0052818D01*
X0270683Y0052832D01*
X0270530Y0052850D01*
X0270377Y0052871D01*
X0270224Y0052897D01*
X0270073Y0052927D01*
X0269922Y0052960D01*
X0269772Y0052998D01*
X0269623Y0053039D01*
X0269475Y0053084D01*
X0269329Y0053133D01*
X0269183Y0053186D01*
X0269040Y0053242D01*
X0268897Y0053302D01*
X0268757Y0053366D01*
X0268617Y0053433D01*
X0268480Y0053504D01*
X0268345Y0053578D01*
X0268211Y0053656D01*
X0268080Y0053737D01*
X0267951Y0053822D01*
X0267823Y0053910D01*
X0267699Y0054001D01*
X0267576Y0054095D01*
X0267456Y0054193D01*
X0267339Y0054293D01*
X0267224Y0054397D01*
X0267112Y0054503D01*
X0267003Y0054612D01*
X0266897Y0054724D01*
X0266793Y0054839D01*
X0266693Y0054956D01*
X0266595Y0055076D01*
X0266501Y0055199D01*
X0266410Y0055323D01*
X0266322Y0055451D01*
X0266237Y0055580D01*
X0266156Y0055711D01*
X0266078Y0055845D01*
X0266004Y0055980D01*
X0265933Y0056117D01*
X0265866Y0056257D01*
X0265802Y0056397D01*
X0265742Y0056540D01*
X0265686Y0056683D01*
X0265633Y0056829D01*
X0265584Y0056975D01*
X0265539Y0057123D01*
X0265498Y0057272D01*
X0265460Y0057422D01*
X0265427Y0057573D01*
X0265397Y0057724D01*
X0265371Y0057877D01*
X0265350Y0058030D01*
X0265332Y0058183D01*
X0265318Y0058337D01*
X0265308Y0058491D01*
X0265302Y0058646D01*
X0265300Y0058800D01*
X0185300Y0104300D02*
X0177300Y0104300D01*
X0181300Y0100300D02*
X0181300Y0108300D01*
X0064750Y0121700D02*
X0056750Y0121700D01*
X0060750Y0117700D02*
X0060750Y0125700D01*
X0026300Y0181300D02*
X0026304Y0181607D01*
X0026315Y0181913D01*
X0026334Y0182220D01*
X0026360Y0182525D01*
X0026394Y0182830D01*
X0026435Y0183134D01*
X0026484Y0183437D01*
X0026540Y0183739D01*
X0026604Y0184039D01*
X0026675Y0184337D01*
X0026753Y0184634D01*
X0026838Y0184929D01*
X0026931Y0185221D01*
X0027031Y0185511D01*
X0027138Y0185799D01*
X0027252Y0186084D01*
X0027372Y0186366D01*
X0027500Y0186644D01*
X0027635Y0186920D01*
X0027776Y0187192D01*
X0027924Y0187461D01*
X0028078Y0187726D01*
X0028239Y0187987D01*
X0028407Y0188245D01*
X0028580Y0188498D01*
X0028760Y0188746D01*
X0028946Y0188990D01*
X0029137Y0189230D01*
X0029335Y0189465D01*
X0029538Y0189694D01*
X0029747Y0189919D01*
X0029961Y0190139D01*
X0030181Y0190353D01*
X0030406Y0190562D01*
X0030635Y0190765D01*
X0030870Y0190963D01*
X0031110Y0191154D01*
X0031354Y0191340D01*
X0031602Y0191520D01*
X0031855Y0191693D01*
X0032113Y0191861D01*
X0032374Y0192022D01*
X0032639Y0192176D01*
X0032908Y0192324D01*
X0033180Y0192465D01*
X0033456Y0192600D01*
X0033734Y0192728D01*
X0034016Y0192848D01*
X0034301Y0192962D01*
X0034589Y0193069D01*
X0034879Y0193169D01*
X0035171Y0193262D01*
X0035466Y0193347D01*
X0035763Y0193425D01*
X0036061Y0193496D01*
X0036361Y0193560D01*
X0036663Y0193616D01*
X0036966Y0193665D01*
X0037270Y0193706D01*
X0037575Y0193740D01*
X0037880Y0193766D01*
X0038187Y0193785D01*
X0038493Y0193796D01*
X0038800Y0193800D01*
X0039107Y0193796D01*
X0039413Y0193785D01*
X0039720Y0193766D01*
X0040025Y0193740D01*
X0040330Y0193706D01*
X0040634Y0193665D01*
X0040937Y0193616D01*
X0041239Y0193560D01*
X0041539Y0193496D01*
X0041837Y0193425D01*
X0042134Y0193347D01*
X0042429Y0193262D01*
X0042721Y0193169D01*
X0043011Y0193069D01*
X0043299Y0192962D01*
X0043584Y0192848D01*
X0043866Y0192728D01*
X0044144Y0192600D01*
X0044420Y0192465D01*
X0044692Y0192324D01*
X0044961Y0192176D01*
X0045226Y0192022D01*
X0045487Y0191861D01*
X0045745Y0191693D01*
X0045998Y0191520D01*
X0046246Y0191340D01*
X0046490Y0191154D01*
X0046730Y0190963D01*
X0046965Y0190765D01*
X0047194Y0190562D01*
X0047419Y0190353D01*
X0047639Y0190139D01*
X0047853Y0189919D01*
X0048062Y0189694D01*
X0048265Y0189465D01*
X0048463Y0189230D01*
X0048654Y0188990D01*
X0048840Y0188746D01*
X0049020Y0188498D01*
X0049193Y0188245D01*
X0049361Y0187987D01*
X0049522Y0187726D01*
X0049676Y0187461D01*
X0049824Y0187192D01*
X0049965Y0186920D01*
X0050100Y0186644D01*
X0050228Y0186366D01*
X0050348Y0186084D01*
X0050462Y0185799D01*
X0050569Y0185511D01*
X0050669Y0185221D01*
X0050762Y0184929D01*
X0050847Y0184634D01*
X0050925Y0184337D01*
X0050996Y0184039D01*
X0051060Y0183739D01*
X0051116Y0183437D01*
X0051165Y0183134D01*
X0051206Y0182830D01*
X0051240Y0182525D01*
X0051266Y0182220D01*
X0051285Y0181913D01*
X0051296Y0181607D01*
X0051300Y0181300D01*
X0051296Y0180993D01*
X0051285Y0180687D01*
X0051266Y0180380D01*
X0051240Y0180075D01*
X0051206Y0179770D01*
X0051165Y0179466D01*
X0051116Y0179163D01*
X0051060Y0178861D01*
X0050996Y0178561D01*
X0050925Y0178263D01*
X0050847Y0177966D01*
X0050762Y0177671D01*
X0050669Y0177379D01*
X0050569Y0177089D01*
X0050462Y0176801D01*
X0050348Y0176516D01*
X0050228Y0176234D01*
X0050100Y0175956D01*
X0049965Y0175680D01*
X0049824Y0175408D01*
X0049676Y0175139D01*
X0049522Y0174874D01*
X0049361Y0174613D01*
X0049193Y0174355D01*
X0049020Y0174102D01*
X0048840Y0173854D01*
X0048654Y0173610D01*
X0048463Y0173370D01*
X0048265Y0173135D01*
X0048062Y0172906D01*
X0047853Y0172681D01*
X0047639Y0172461D01*
X0047419Y0172247D01*
X0047194Y0172038D01*
X0046965Y0171835D01*
X0046730Y0171637D01*
X0046490Y0171446D01*
X0046246Y0171260D01*
X0045998Y0171080D01*
X0045745Y0170907D01*
X0045487Y0170739D01*
X0045226Y0170578D01*
X0044961Y0170424D01*
X0044692Y0170276D01*
X0044420Y0170135D01*
X0044144Y0170000D01*
X0043866Y0169872D01*
X0043584Y0169752D01*
X0043299Y0169638D01*
X0043011Y0169531D01*
X0042721Y0169431D01*
X0042429Y0169338D01*
X0042134Y0169253D01*
X0041837Y0169175D01*
X0041539Y0169104D01*
X0041239Y0169040D01*
X0040937Y0168984D01*
X0040634Y0168935D01*
X0040330Y0168894D01*
X0040025Y0168860D01*
X0039720Y0168834D01*
X0039413Y0168815D01*
X0039107Y0168804D01*
X0038800Y0168800D01*
X0038493Y0168804D01*
X0038187Y0168815D01*
X0037880Y0168834D01*
X0037575Y0168860D01*
X0037270Y0168894D01*
X0036966Y0168935D01*
X0036663Y0168984D01*
X0036361Y0169040D01*
X0036061Y0169104D01*
X0035763Y0169175D01*
X0035466Y0169253D01*
X0035171Y0169338D01*
X0034879Y0169431D01*
X0034589Y0169531D01*
X0034301Y0169638D01*
X0034016Y0169752D01*
X0033734Y0169872D01*
X0033456Y0170000D01*
X0033180Y0170135D01*
X0032908Y0170276D01*
X0032639Y0170424D01*
X0032374Y0170578D01*
X0032113Y0170739D01*
X0031855Y0170907D01*
X0031602Y0171080D01*
X0031354Y0171260D01*
X0031110Y0171446D01*
X0030870Y0171637D01*
X0030635Y0171835D01*
X0030406Y0172038D01*
X0030181Y0172247D01*
X0029961Y0172461D01*
X0029747Y0172681D01*
X0029538Y0172906D01*
X0029335Y0173135D01*
X0029137Y0173370D01*
X0028946Y0173610D01*
X0028760Y0173854D01*
X0028580Y0174102D01*
X0028407Y0174355D01*
X0028239Y0174613D01*
X0028078Y0174874D01*
X0027924Y0175139D01*
X0027776Y0175408D01*
X0027635Y0175680D01*
X0027500Y0175956D01*
X0027372Y0176234D01*
X0027252Y0176516D01*
X0027138Y0176801D01*
X0027031Y0177089D01*
X0026931Y0177379D01*
X0026838Y0177671D01*
X0026753Y0177966D01*
X0026675Y0178263D01*
X0026604Y0178561D01*
X0026540Y0178861D01*
X0026484Y0179163D01*
X0026435Y0179466D01*
X0026394Y0179770D01*
X0026360Y0180075D01*
X0026334Y0180380D01*
X0026315Y0180687D01*
X0026304Y0180993D01*
X0026300Y0181300D01*
X0085300Y0308800D02*
X0085302Y0308954D01*
X0085308Y0309109D01*
X0085318Y0309263D01*
X0085332Y0309417D01*
X0085350Y0309570D01*
X0085371Y0309723D01*
X0085397Y0309876D01*
X0085427Y0310027D01*
X0085460Y0310178D01*
X0085498Y0310328D01*
X0085539Y0310477D01*
X0085584Y0310625D01*
X0085633Y0310771D01*
X0085686Y0310917D01*
X0085742Y0311060D01*
X0085802Y0311203D01*
X0085866Y0311343D01*
X0085933Y0311483D01*
X0086004Y0311620D01*
X0086078Y0311755D01*
X0086156Y0311889D01*
X0086237Y0312020D01*
X0086322Y0312149D01*
X0086410Y0312277D01*
X0086501Y0312401D01*
X0086595Y0312524D01*
X0086693Y0312644D01*
X0086793Y0312761D01*
X0086897Y0312876D01*
X0087003Y0312988D01*
X0087112Y0313097D01*
X0087224Y0313203D01*
X0087339Y0313307D01*
X0087456Y0313407D01*
X0087576Y0313505D01*
X0087699Y0313599D01*
X0087823Y0313690D01*
X0087951Y0313778D01*
X0088080Y0313863D01*
X0088211Y0313944D01*
X0088345Y0314022D01*
X0088480Y0314096D01*
X0088617Y0314167D01*
X0088757Y0314234D01*
X0088897Y0314298D01*
X0089040Y0314358D01*
X0089183Y0314414D01*
X0089329Y0314467D01*
X0089475Y0314516D01*
X0089623Y0314561D01*
X0089772Y0314602D01*
X0089922Y0314640D01*
X0090073Y0314673D01*
X0090224Y0314703D01*
X0090377Y0314729D01*
X0090530Y0314750D01*
X0090683Y0314768D01*
X0090837Y0314782D01*
X0090991Y0314792D01*
X0091146Y0314798D01*
X0091300Y0314800D01*
X0091454Y0314798D01*
X0091609Y0314792D01*
X0091763Y0314782D01*
X0091917Y0314768D01*
X0092070Y0314750D01*
X0092223Y0314729D01*
X0092376Y0314703D01*
X0092527Y0314673D01*
X0092678Y0314640D01*
X0092828Y0314602D01*
X0092977Y0314561D01*
X0093125Y0314516D01*
X0093271Y0314467D01*
X0093417Y0314414D01*
X0093560Y0314358D01*
X0093703Y0314298D01*
X0093843Y0314234D01*
X0093983Y0314167D01*
X0094120Y0314096D01*
X0094255Y0314022D01*
X0094389Y0313944D01*
X0094520Y0313863D01*
X0094649Y0313778D01*
X0094777Y0313690D01*
X0094901Y0313599D01*
X0095024Y0313505D01*
X0095144Y0313407D01*
X0095261Y0313307D01*
X0095376Y0313203D01*
X0095488Y0313097D01*
X0095597Y0312988D01*
X0095703Y0312876D01*
X0095807Y0312761D01*
X0095907Y0312644D01*
X0096005Y0312524D01*
X0096099Y0312401D01*
X0096190Y0312277D01*
X0096278Y0312149D01*
X0096363Y0312020D01*
X0096444Y0311889D01*
X0096522Y0311755D01*
X0096596Y0311620D01*
X0096667Y0311483D01*
X0096734Y0311343D01*
X0096798Y0311203D01*
X0096858Y0311060D01*
X0096914Y0310917D01*
X0096967Y0310771D01*
X0097016Y0310625D01*
X0097061Y0310477D01*
X0097102Y0310328D01*
X0097140Y0310178D01*
X0097173Y0310027D01*
X0097203Y0309876D01*
X0097229Y0309723D01*
X0097250Y0309570D01*
X0097268Y0309417D01*
X0097282Y0309263D01*
X0097292Y0309109D01*
X0097298Y0308954D01*
X0097300Y0308800D01*
X0097298Y0308646D01*
X0097292Y0308491D01*
X0097282Y0308337D01*
X0097268Y0308183D01*
X0097250Y0308030D01*
X0097229Y0307877D01*
X0097203Y0307724D01*
X0097173Y0307573D01*
X0097140Y0307422D01*
X0097102Y0307272D01*
X0097061Y0307123D01*
X0097016Y0306975D01*
X0096967Y0306829D01*
X0096914Y0306683D01*
X0096858Y0306540D01*
X0096798Y0306397D01*
X0096734Y0306257D01*
X0096667Y0306117D01*
X0096596Y0305980D01*
X0096522Y0305845D01*
X0096444Y0305711D01*
X0096363Y0305580D01*
X0096278Y0305451D01*
X0096190Y0305323D01*
X0096099Y0305199D01*
X0096005Y0305076D01*
X0095907Y0304956D01*
X0095807Y0304839D01*
X0095703Y0304724D01*
X0095597Y0304612D01*
X0095488Y0304503D01*
X0095376Y0304397D01*
X0095261Y0304293D01*
X0095144Y0304193D01*
X0095024Y0304095D01*
X0094901Y0304001D01*
X0094777Y0303910D01*
X0094649Y0303822D01*
X0094520Y0303737D01*
X0094389Y0303656D01*
X0094255Y0303578D01*
X0094120Y0303504D01*
X0093983Y0303433D01*
X0093843Y0303366D01*
X0093703Y0303302D01*
X0093560Y0303242D01*
X0093417Y0303186D01*
X0093271Y0303133D01*
X0093125Y0303084D01*
X0092977Y0303039D01*
X0092828Y0302998D01*
X0092678Y0302960D01*
X0092527Y0302927D01*
X0092376Y0302897D01*
X0092223Y0302871D01*
X0092070Y0302850D01*
X0091917Y0302832D01*
X0091763Y0302818D01*
X0091609Y0302808D01*
X0091454Y0302802D01*
X0091300Y0302800D01*
X0091146Y0302802D01*
X0090991Y0302808D01*
X0090837Y0302818D01*
X0090683Y0302832D01*
X0090530Y0302850D01*
X0090377Y0302871D01*
X0090224Y0302897D01*
X0090073Y0302927D01*
X0089922Y0302960D01*
X0089772Y0302998D01*
X0089623Y0303039D01*
X0089475Y0303084D01*
X0089329Y0303133D01*
X0089183Y0303186D01*
X0089040Y0303242D01*
X0088897Y0303302D01*
X0088757Y0303366D01*
X0088617Y0303433D01*
X0088480Y0303504D01*
X0088345Y0303578D01*
X0088211Y0303656D01*
X0088080Y0303737D01*
X0087951Y0303822D01*
X0087823Y0303910D01*
X0087699Y0304001D01*
X0087576Y0304095D01*
X0087456Y0304193D01*
X0087339Y0304293D01*
X0087224Y0304397D01*
X0087112Y0304503D01*
X0087003Y0304612D01*
X0086897Y0304724D01*
X0086793Y0304839D01*
X0086693Y0304956D01*
X0086595Y0305076D01*
X0086501Y0305199D01*
X0086410Y0305323D01*
X0086322Y0305451D01*
X0086237Y0305580D01*
X0086156Y0305711D01*
X0086078Y0305845D01*
X0086004Y0305980D01*
X0085933Y0306117D01*
X0085866Y0306257D01*
X0085802Y0306397D01*
X0085742Y0306540D01*
X0085686Y0306683D01*
X0085633Y0306829D01*
X0085584Y0306975D01*
X0085539Y0307123D01*
X0085498Y0307272D01*
X0085460Y0307422D01*
X0085427Y0307573D01*
X0085397Y0307724D01*
X0085371Y0307877D01*
X0085350Y0308030D01*
X0085332Y0308183D01*
X0085318Y0308337D01*
X0085308Y0308491D01*
X0085302Y0308646D01*
X0085300Y0308800D01*
X0127300Y0338800D02*
X0135300Y0338800D01*
X0131300Y0334800D02*
X0131300Y0342800D01*
X0150300Y0308800D02*
X0150302Y0308954D01*
X0150308Y0309109D01*
X0150318Y0309263D01*
X0150332Y0309417D01*
X0150350Y0309570D01*
X0150371Y0309723D01*
X0150397Y0309876D01*
X0150427Y0310027D01*
X0150460Y0310178D01*
X0150498Y0310328D01*
X0150539Y0310477D01*
X0150584Y0310625D01*
X0150633Y0310771D01*
X0150686Y0310917D01*
X0150742Y0311060D01*
X0150802Y0311203D01*
X0150866Y0311343D01*
X0150933Y0311483D01*
X0151004Y0311620D01*
X0151078Y0311755D01*
X0151156Y0311889D01*
X0151237Y0312020D01*
X0151322Y0312149D01*
X0151410Y0312277D01*
X0151501Y0312401D01*
X0151595Y0312524D01*
X0151693Y0312644D01*
X0151793Y0312761D01*
X0151897Y0312876D01*
X0152003Y0312988D01*
X0152112Y0313097D01*
X0152224Y0313203D01*
X0152339Y0313307D01*
X0152456Y0313407D01*
X0152576Y0313505D01*
X0152699Y0313599D01*
X0152823Y0313690D01*
X0152951Y0313778D01*
X0153080Y0313863D01*
X0153211Y0313944D01*
X0153345Y0314022D01*
X0153480Y0314096D01*
X0153617Y0314167D01*
X0153757Y0314234D01*
X0153897Y0314298D01*
X0154040Y0314358D01*
X0154183Y0314414D01*
X0154329Y0314467D01*
X0154475Y0314516D01*
X0154623Y0314561D01*
X0154772Y0314602D01*
X0154922Y0314640D01*
X0155073Y0314673D01*
X0155224Y0314703D01*
X0155377Y0314729D01*
X0155530Y0314750D01*
X0155683Y0314768D01*
X0155837Y0314782D01*
X0155991Y0314792D01*
X0156146Y0314798D01*
X0156300Y0314800D01*
X0156454Y0314798D01*
X0156609Y0314792D01*
X0156763Y0314782D01*
X0156917Y0314768D01*
X0157070Y0314750D01*
X0157223Y0314729D01*
X0157376Y0314703D01*
X0157527Y0314673D01*
X0157678Y0314640D01*
X0157828Y0314602D01*
X0157977Y0314561D01*
X0158125Y0314516D01*
X0158271Y0314467D01*
X0158417Y0314414D01*
X0158560Y0314358D01*
X0158703Y0314298D01*
X0158843Y0314234D01*
X0158983Y0314167D01*
X0159120Y0314096D01*
X0159255Y0314022D01*
X0159389Y0313944D01*
X0159520Y0313863D01*
X0159649Y0313778D01*
X0159777Y0313690D01*
X0159901Y0313599D01*
X0160024Y0313505D01*
X0160144Y0313407D01*
X0160261Y0313307D01*
X0160376Y0313203D01*
X0160488Y0313097D01*
X0160597Y0312988D01*
X0160703Y0312876D01*
X0160807Y0312761D01*
X0160907Y0312644D01*
X0161005Y0312524D01*
X0161099Y0312401D01*
X0161190Y0312277D01*
X0161278Y0312149D01*
X0161363Y0312020D01*
X0161444Y0311889D01*
X0161522Y0311755D01*
X0161596Y0311620D01*
X0161667Y0311483D01*
X0161734Y0311343D01*
X0161798Y0311203D01*
X0161858Y0311060D01*
X0161914Y0310917D01*
X0161967Y0310771D01*
X0162016Y0310625D01*
X0162061Y0310477D01*
X0162102Y0310328D01*
X0162140Y0310178D01*
X0162173Y0310027D01*
X0162203Y0309876D01*
X0162229Y0309723D01*
X0162250Y0309570D01*
X0162268Y0309417D01*
X0162282Y0309263D01*
X0162292Y0309109D01*
X0162298Y0308954D01*
X0162300Y0308800D01*
X0162298Y0308646D01*
X0162292Y0308491D01*
X0162282Y0308337D01*
X0162268Y0308183D01*
X0162250Y0308030D01*
X0162229Y0307877D01*
X0162203Y0307724D01*
X0162173Y0307573D01*
X0162140Y0307422D01*
X0162102Y0307272D01*
X0162061Y0307123D01*
X0162016Y0306975D01*
X0161967Y0306829D01*
X0161914Y0306683D01*
X0161858Y0306540D01*
X0161798Y0306397D01*
X0161734Y0306257D01*
X0161667Y0306117D01*
X0161596Y0305980D01*
X0161522Y0305845D01*
X0161444Y0305711D01*
X0161363Y0305580D01*
X0161278Y0305451D01*
X0161190Y0305323D01*
X0161099Y0305199D01*
X0161005Y0305076D01*
X0160907Y0304956D01*
X0160807Y0304839D01*
X0160703Y0304724D01*
X0160597Y0304612D01*
X0160488Y0304503D01*
X0160376Y0304397D01*
X0160261Y0304293D01*
X0160144Y0304193D01*
X0160024Y0304095D01*
X0159901Y0304001D01*
X0159777Y0303910D01*
X0159649Y0303822D01*
X0159520Y0303737D01*
X0159389Y0303656D01*
X0159255Y0303578D01*
X0159120Y0303504D01*
X0158983Y0303433D01*
X0158843Y0303366D01*
X0158703Y0303302D01*
X0158560Y0303242D01*
X0158417Y0303186D01*
X0158271Y0303133D01*
X0158125Y0303084D01*
X0157977Y0303039D01*
X0157828Y0302998D01*
X0157678Y0302960D01*
X0157527Y0302927D01*
X0157376Y0302897D01*
X0157223Y0302871D01*
X0157070Y0302850D01*
X0156917Y0302832D01*
X0156763Y0302818D01*
X0156609Y0302808D01*
X0156454Y0302802D01*
X0156300Y0302800D01*
X0156146Y0302802D01*
X0155991Y0302808D01*
X0155837Y0302818D01*
X0155683Y0302832D01*
X0155530Y0302850D01*
X0155377Y0302871D01*
X0155224Y0302897D01*
X0155073Y0302927D01*
X0154922Y0302960D01*
X0154772Y0302998D01*
X0154623Y0303039D01*
X0154475Y0303084D01*
X0154329Y0303133D01*
X0154183Y0303186D01*
X0154040Y0303242D01*
X0153897Y0303302D01*
X0153757Y0303366D01*
X0153617Y0303433D01*
X0153480Y0303504D01*
X0153345Y0303578D01*
X0153211Y0303656D01*
X0153080Y0303737D01*
X0152951Y0303822D01*
X0152823Y0303910D01*
X0152699Y0304001D01*
X0152576Y0304095D01*
X0152456Y0304193D01*
X0152339Y0304293D01*
X0152224Y0304397D01*
X0152112Y0304503D01*
X0152003Y0304612D01*
X0151897Y0304724D01*
X0151793Y0304839D01*
X0151693Y0304956D01*
X0151595Y0305076D01*
X0151501Y0305199D01*
X0151410Y0305323D01*
X0151322Y0305451D01*
X0151237Y0305580D01*
X0151156Y0305711D01*
X0151078Y0305845D01*
X0151004Y0305980D01*
X0150933Y0306117D01*
X0150866Y0306257D01*
X0150802Y0306397D01*
X0150742Y0306540D01*
X0150686Y0306683D01*
X0150633Y0306829D01*
X0150584Y0306975D01*
X0150539Y0307123D01*
X0150498Y0307272D01*
X0150460Y0307422D01*
X0150427Y0307573D01*
X0150397Y0307724D01*
X0150371Y0307877D01*
X0150350Y0308030D01*
X0150332Y0308183D01*
X0150318Y0308337D01*
X0150308Y0308491D01*
X0150302Y0308646D01*
X0150300Y0308800D01*
X0200300Y0308800D02*
X0200302Y0308954D01*
X0200308Y0309109D01*
X0200318Y0309263D01*
X0200332Y0309417D01*
X0200350Y0309570D01*
X0200371Y0309723D01*
X0200397Y0309876D01*
X0200427Y0310027D01*
X0200460Y0310178D01*
X0200498Y0310328D01*
X0200539Y0310477D01*
X0200584Y0310625D01*
X0200633Y0310771D01*
X0200686Y0310917D01*
X0200742Y0311060D01*
X0200802Y0311203D01*
X0200866Y0311343D01*
X0200933Y0311483D01*
X0201004Y0311620D01*
X0201078Y0311755D01*
X0201156Y0311889D01*
X0201237Y0312020D01*
X0201322Y0312149D01*
X0201410Y0312277D01*
X0201501Y0312401D01*
X0201595Y0312524D01*
X0201693Y0312644D01*
X0201793Y0312761D01*
X0201897Y0312876D01*
X0202003Y0312988D01*
X0202112Y0313097D01*
X0202224Y0313203D01*
X0202339Y0313307D01*
X0202456Y0313407D01*
X0202576Y0313505D01*
X0202699Y0313599D01*
X0202823Y0313690D01*
X0202951Y0313778D01*
X0203080Y0313863D01*
X0203211Y0313944D01*
X0203345Y0314022D01*
X0203480Y0314096D01*
X0203617Y0314167D01*
X0203757Y0314234D01*
X0203897Y0314298D01*
X0204040Y0314358D01*
X0204183Y0314414D01*
X0204329Y0314467D01*
X0204475Y0314516D01*
X0204623Y0314561D01*
X0204772Y0314602D01*
X0204922Y0314640D01*
X0205073Y0314673D01*
X0205224Y0314703D01*
X0205377Y0314729D01*
X0205530Y0314750D01*
X0205683Y0314768D01*
X0205837Y0314782D01*
X0205991Y0314792D01*
X0206146Y0314798D01*
X0206300Y0314800D01*
X0206454Y0314798D01*
X0206609Y0314792D01*
X0206763Y0314782D01*
X0206917Y0314768D01*
X0207070Y0314750D01*
X0207223Y0314729D01*
X0207376Y0314703D01*
X0207527Y0314673D01*
X0207678Y0314640D01*
X0207828Y0314602D01*
X0207977Y0314561D01*
X0208125Y0314516D01*
X0208271Y0314467D01*
X0208417Y0314414D01*
X0208560Y0314358D01*
X0208703Y0314298D01*
X0208843Y0314234D01*
X0208983Y0314167D01*
X0209120Y0314096D01*
X0209255Y0314022D01*
X0209389Y0313944D01*
X0209520Y0313863D01*
X0209649Y0313778D01*
X0209777Y0313690D01*
X0209901Y0313599D01*
X0210024Y0313505D01*
X0210144Y0313407D01*
X0210261Y0313307D01*
X0210376Y0313203D01*
X0210488Y0313097D01*
X0210597Y0312988D01*
X0210703Y0312876D01*
X0210807Y0312761D01*
X0210907Y0312644D01*
X0211005Y0312524D01*
X0211099Y0312401D01*
X0211190Y0312277D01*
X0211278Y0312149D01*
X0211363Y0312020D01*
X0211444Y0311889D01*
X0211522Y0311755D01*
X0211596Y0311620D01*
X0211667Y0311483D01*
X0211734Y0311343D01*
X0211798Y0311203D01*
X0211858Y0311060D01*
X0211914Y0310917D01*
X0211967Y0310771D01*
X0212016Y0310625D01*
X0212061Y0310477D01*
X0212102Y0310328D01*
X0212140Y0310178D01*
X0212173Y0310027D01*
X0212203Y0309876D01*
X0212229Y0309723D01*
X0212250Y0309570D01*
X0212268Y0309417D01*
X0212282Y0309263D01*
X0212292Y0309109D01*
X0212298Y0308954D01*
X0212300Y0308800D01*
X0212298Y0308646D01*
X0212292Y0308491D01*
X0212282Y0308337D01*
X0212268Y0308183D01*
X0212250Y0308030D01*
X0212229Y0307877D01*
X0212203Y0307724D01*
X0212173Y0307573D01*
X0212140Y0307422D01*
X0212102Y0307272D01*
X0212061Y0307123D01*
X0212016Y0306975D01*
X0211967Y0306829D01*
X0211914Y0306683D01*
X0211858Y0306540D01*
X0211798Y0306397D01*
X0211734Y0306257D01*
X0211667Y0306117D01*
X0211596Y0305980D01*
X0211522Y0305845D01*
X0211444Y0305711D01*
X0211363Y0305580D01*
X0211278Y0305451D01*
X0211190Y0305323D01*
X0211099Y0305199D01*
X0211005Y0305076D01*
X0210907Y0304956D01*
X0210807Y0304839D01*
X0210703Y0304724D01*
X0210597Y0304612D01*
X0210488Y0304503D01*
X0210376Y0304397D01*
X0210261Y0304293D01*
X0210144Y0304193D01*
X0210024Y0304095D01*
X0209901Y0304001D01*
X0209777Y0303910D01*
X0209649Y0303822D01*
X0209520Y0303737D01*
X0209389Y0303656D01*
X0209255Y0303578D01*
X0209120Y0303504D01*
X0208983Y0303433D01*
X0208843Y0303366D01*
X0208703Y0303302D01*
X0208560Y0303242D01*
X0208417Y0303186D01*
X0208271Y0303133D01*
X0208125Y0303084D01*
X0207977Y0303039D01*
X0207828Y0302998D01*
X0207678Y0302960D01*
X0207527Y0302927D01*
X0207376Y0302897D01*
X0207223Y0302871D01*
X0207070Y0302850D01*
X0206917Y0302832D01*
X0206763Y0302818D01*
X0206609Y0302808D01*
X0206454Y0302802D01*
X0206300Y0302800D01*
X0206146Y0302802D01*
X0205991Y0302808D01*
X0205837Y0302818D01*
X0205683Y0302832D01*
X0205530Y0302850D01*
X0205377Y0302871D01*
X0205224Y0302897D01*
X0205073Y0302927D01*
X0204922Y0302960D01*
X0204772Y0302998D01*
X0204623Y0303039D01*
X0204475Y0303084D01*
X0204329Y0303133D01*
X0204183Y0303186D01*
X0204040Y0303242D01*
X0203897Y0303302D01*
X0203757Y0303366D01*
X0203617Y0303433D01*
X0203480Y0303504D01*
X0203345Y0303578D01*
X0203211Y0303656D01*
X0203080Y0303737D01*
X0202951Y0303822D01*
X0202823Y0303910D01*
X0202699Y0304001D01*
X0202576Y0304095D01*
X0202456Y0304193D01*
X0202339Y0304293D01*
X0202224Y0304397D01*
X0202112Y0304503D01*
X0202003Y0304612D01*
X0201897Y0304724D01*
X0201793Y0304839D01*
X0201693Y0304956D01*
X0201595Y0305076D01*
X0201501Y0305199D01*
X0201410Y0305323D01*
X0201322Y0305451D01*
X0201237Y0305580D01*
X0201156Y0305711D01*
X0201078Y0305845D01*
X0201004Y0305980D01*
X0200933Y0306117D01*
X0200866Y0306257D01*
X0200802Y0306397D01*
X0200742Y0306540D01*
X0200686Y0306683D01*
X0200633Y0306829D01*
X0200584Y0306975D01*
X0200539Y0307123D01*
X0200498Y0307272D01*
X0200460Y0307422D01*
X0200427Y0307573D01*
X0200397Y0307724D01*
X0200371Y0307877D01*
X0200350Y0308030D01*
X0200332Y0308183D01*
X0200318Y0308337D01*
X0200308Y0308491D01*
X0200302Y0308646D01*
X0200300Y0308800D01*
X0181300Y0258300D02*
X0181300Y0250300D01*
X0177300Y0254300D02*
X0185300Y0254300D01*
X0265300Y0308800D02*
X0265302Y0308954D01*
X0265308Y0309109D01*
X0265318Y0309263D01*
X0265332Y0309417D01*
X0265350Y0309570D01*
X0265371Y0309723D01*
X0265397Y0309876D01*
X0265427Y0310027D01*
X0265460Y0310178D01*
X0265498Y0310328D01*
X0265539Y0310477D01*
X0265584Y0310625D01*
X0265633Y0310771D01*
X0265686Y0310917D01*
X0265742Y0311060D01*
X0265802Y0311203D01*
X0265866Y0311343D01*
X0265933Y0311483D01*
X0266004Y0311620D01*
X0266078Y0311755D01*
X0266156Y0311889D01*
X0266237Y0312020D01*
X0266322Y0312149D01*
X0266410Y0312277D01*
X0266501Y0312401D01*
X0266595Y0312524D01*
X0266693Y0312644D01*
X0266793Y0312761D01*
X0266897Y0312876D01*
X0267003Y0312988D01*
X0267112Y0313097D01*
X0267224Y0313203D01*
X0267339Y0313307D01*
X0267456Y0313407D01*
X0267576Y0313505D01*
X0267699Y0313599D01*
X0267823Y0313690D01*
X0267951Y0313778D01*
X0268080Y0313863D01*
X0268211Y0313944D01*
X0268345Y0314022D01*
X0268480Y0314096D01*
X0268617Y0314167D01*
X0268757Y0314234D01*
X0268897Y0314298D01*
X0269040Y0314358D01*
X0269183Y0314414D01*
X0269329Y0314467D01*
X0269475Y0314516D01*
X0269623Y0314561D01*
X0269772Y0314602D01*
X0269922Y0314640D01*
X0270073Y0314673D01*
X0270224Y0314703D01*
X0270377Y0314729D01*
X0270530Y0314750D01*
X0270683Y0314768D01*
X0270837Y0314782D01*
X0270991Y0314792D01*
X0271146Y0314798D01*
X0271300Y0314800D01*
X0271454Y0314798D01*
X0271609Y0314792D01*
X0271763Y0314782D01*
X0271917Y0314768D01*
X0272070Y0314750D01*
X0272223Y0314729D01*
X0272376Y0314703D01*
X0272527Y0314673D01*
X0272678Y0314640D01*
X0272828Y0314602D01*
X0272977Y0314561D01*
X0273125Y0314516D01*
X0273271Y0314467D01*
X0273417Y0314414D01*
X0273560Y0314358D01*
X0273703Y0314298D01*
X0273843Y0314234D01*
X0273983Y0314167D01*
X0274120Y0314096D01*
X0274255Y0314022D01*
X0274389Y0313944D01*
X0274520Y0313863D01*
X0274649Y0313778D01*
X0274777Y0313690D01*
X0274901Y0313599D01*
X0275024Y0313505D01*
X0275144Y0313407D01*
X0275261Y0313307D01*
X0275376Y0313203D01*
X0275488Y0313097D01*
X0275597Y0312988D01*
X0275703Y0312876D01*
X0275807Y0312761D01*
X0275907Y0312644D01*
X0276005Y0312524D01*
X0276099Y0312401D01*
X0276190Y0312277D01*
X0276278Y0312149D01*
X0276363Y0312020D01*
X0276444Y0311889D01*
X0276522Y0311755D01*
X0276596Y0311620D01*
X0276667Y0311483D01*
X0276734Y0311343D01*
X0276798Y0311203D01*
X0276858Y0311060D01*
X0276914Y0310917D01*
X0276967Y0310771D01*
X0277016Y0310625D01*
X0277061Y0310477D01*
X0277102Y0310328D01*
X0277140Y0310178D01*
X0277173Y0310027D01*
X0277203Y0309876D01*
X0277229Y0309723D01*
X0277250Y0309570D01*
X0277268Y0309417D01*
X0277282Y0309263D01*
X0277292Y0309109D01*
X0277298Y0308954D01*
X0277300Y0308800D01*
X0277298Y0308646D01*
X0277292Y0308491D01*
X0277282Y0308337D01*
X0277268Y0308183D01*
X0277250Y0308030D01*
X0277229Y0307877D01*
X0277203Y0307724D01*
X0277173Y0307573D01*
X0277140Y0307422D01*
X0277102Y0307272D01*
X0277061Y0307123D01*
X0277016Y0306975D01*
X0276967Y0306829D01*
X0276914Y0306683D01*
X0276858Y0306540D01*
X0276798Y0306397D01*
X0276734Y0306257D01*
X0276667Y0306117D01*
X0276596Y0305980D01*
X0276522Y0305845D01*
X0276444Y0305711D01*
X0276363Y0305580D01*
X0276278Y0305451D01*
X0276190Y0305323D01*
X0276099Y0305199D01*
X0276005Y0305076D01*
X0275907Y0304956D01*
X0275807Y0304839D01*
X0275703Y0304724D01*
X0275597Y0304612D01*
X0275488Y0304503D01*
X0275376Y0304397D01*
X0275261Y0304293D01*
X0275144Y0304193D01*
X0275024Y0304095D01*
X0274901Y0304001D01*
X0274777Y0303910D01*
X0274649Y0303822D01*
X0274520Y0303737D01*
X0274389Y0303656D01*
X0274255Y0303578D01*
X0274120Y0303504D01*
X0273983Y0303433D01*
X0273843Y0303366D01*
X0273703Y0303302D01*
X0273560Y0303242D01*
X0273417Y0303186D01*
X0273271Y0303133D01*
X0273125Y0303084D01*
X0272977Y0303039D01*
X0272828Y0302998D01*
X0272678Y0302960D01*
X0272527Y0302927D01*
X0272376Y0302897D01*
X0272223Y0302871D01*
X0272070Y0302850D01*
X0271917Y0302832D01*
X0271763Y0302818D01*
X0271609Y0302808D01*
X0271454Y0302802D01*
X0271300Y0302800D01*
X0271146Y0302802D01*
X0270991Y0302808D01*
X0270837Y0302818D01*
X0270683Y0302832D01*
X0270530Y0302850D01*
X0270377Y0302871D01*
X0270224Y0302897D01*
X0270073Y0302927D01*
X0269922Y0302960D01*
X0269772Y0302998D01*
X0269623Y0303039D01*
X0269475Y0303084D01*
X0269329Y0303133D01*
X0269183Y0303186D01*
X0269040Y0303242D01*
X0268897Y0303302D01*
X0268757Y0303366D01*
X0268617Y0303433D01*
X0268480Y0303504D01*
X0268345Y0303578D01*
X0268211Y0303656D01*
X0268080Y0303737D01*
X0267951Y0303822D01*
X0267823Y0303910D01*
X0267699Y0304001D01*
X0267576Y0304095D01*
X0267456Y0304193D01*
X0267339Y0304293D01*
X0267224Y0304397D01*
X0267112Y0304503D01*
X0267003Y0304612D01*
X0266897Y0304724D01*
X0266793Y0304839D01*
X0266693Y0304956D01*
X0266595Y0305076D01*
X0266501Y0305199D01*
X0266410Y0305323D01*
X0266322Y0305451D01*
X0266237Y0305580D01*
X0266156Y0305711D01*
X0266078Y0305845D01*
X0266004Y0305980D01*
X0265933Y0306117D01*
X0265866Y0306257D01*
X0265802Y0306397D01*
X0265742Y0306540D01*
X0265686Y0306683D01*
X0265633Y0306829D01*
X0265584Y0306975D01*
X0265539Y0307123D01*
X0265498Y0307272D01*
X0265460Y0307422D01*
X0265427Y0307573D01*
X0265397Y0307724D01*
X0265371Y0307877D01*
X0265350Y0308030D01*
X0265332Y0308183D01*
X0265318Y0308337D01*
X0265308Y0308491D01*
X0265302Y0308646D01*
X0265300Y0308800D01*
X0311300Y0181300D02*
X0311304Y0181607D01*
X0311315Y0181913D01*
X0311334Y0182220D01*
X0311360Y0182525D01*
X0311394Y0182830D01*
X0311435Y0183134D01*
X0311484Y0183437D01*
X0311540Y0183739D01*
X0311604Y0184039D01*
X0311675Y0184337D01*
X0311753Y0184634D01*
X0311838Y0184929D01*
X0311931Y0185221D01*
X0312031Y0185511D01*
X0312138Y0185799D01*
X0312252Y0186084D01*
X0312372Y0186366D01*
X0312500Y0186644D01*
X0312635Y0186920D01*
X0312776Y0187192D01*
X0312924Y0187461D01*
X0313078Y0187726D01*
X0313239Y0187987D01*
X0313407Y0188245D01*
X0313580Y0188498D01*
X0313760Y0188746D01*
X0313946Y0188990D01*
X0314137Y0189230D01*
X0314335Y0189465D01*
X0314538Y0189694D01*
X0314747Y0189919D01*
X0314961Y0190139D01*
X0315181Y0190353D01*
X0315406Y0190562D01*
X0315635Y0190765D01*
X0315870Y0190963D01*
X0316110Y0191154D01*
X0316354Y0191340D01*
X0316602Y0191520D01*
X0316855Y0191693D01*
X0317113Y0191861D01*
X0317374Y0192022D01*
X0317639Y0192176D01*
X0317908Y0192324D01*
X0318180Y0192465D01*
X0318456Y0192600D01*
X0318734Y0192728D01*
X0319016Y0192848D01*
X0319301Y0192962D01*
X0319589Y0193069D01*
X0319879Y0193169D01*
X0320171Y0193262D01*
X0320466Y0193347D01*
X0320763Y0193425D01*
X0321061Y0193496D01*
X0321361Y0193560D01*
X0321663Y0193616D01*
X0321966Y0193665D01*
X0322270Y0193706D01*
X0322575Y0193740D01*
X0322880Y0193766D01*
X0323187Y0193785D01*
X0323493Y0193796D01*
X0323800Y0193800D01*
X0324107Y0193796D01*
X0324413Y0193785D01*
X0324720Y0193766D01*
X0325025Y0193740D01*
X0325330Y0193706D01*
X0325634Y0193665D01*
X0325937Y0193616D01*
X0326239Y0193560D01*
X0326539Y0193496D01*
X0326837Y0193425D01*
X0327134Y0193347D01*
X0327429Y0193262D01*
X0327721Y0193169D01*
X0328011Y0193069D01*
X0328299Y0192962D01*
X0328584Y0192848D01*
X0328866Y0192728D01*
X0329144Y0192600D01*
X0329420Y0192465D01*
X0329692Y0192324D01*
X0329961Y0192176D01*
X0330226Y0192022D01*
X0330487Y0191861D01*
X0330745Y0191693D01*
X0330998Y0191520D01*
X0331246Y0191340D01*
X0331490Y0191154D01*
X0331730Y0190963D01*
X0331965Y0190765D01*
X0332194Y0190562D01*
X0332419Y0190353D01*
X0332639Y0190139D01*
X0332853Y0189919D01*
X0333062Y0189694D01*
X0333265Y0189465D01*
X0333463Y0189230D01*
X0333654Y0188990D01*
X0333840Y0188746D01*
X0334020Y0188498D01*
X0334193Y0188245D01*
X0334361Y0187987D01*
X0334522Y0187726D01*
X0334676Y0187461D01*
X0334824Y0187192D01*
X0334965Y0186920D01*
X0335100Y0186644D01*
X0335228Y0186366D01*
X0335348Y0186084D01*
X0335462Y0185799D01*
X0335569Y0185511D01*
X0335669Y0185221D01*
X0335762Y0184929D01*
X0335847Y0184634D01*
X0335925Y0184337D01*
X0335996Y0184039D01*
X0336060Y0183739D01*
X0336116Y0183437D01*
X0336165Y0183134D01*
X0336206Y0182830D01*
X0336240Y0182525D01*
X0336266Y0182220D01*
X0336285Y0181913D01*
X0336296Y0181607D01*
X0336300Y0181300D01*
X0336296Y0180993D01*
X0336285Y0180687D01*
X0336266Y0180380D01*
X0336240Y0180075D01*
X0336206Y0179770D01*
X0336165Y0179466D01*
X0336116Y0179163D01*
X0336060Y0178861D01*
X0335996Y0178561D01*
X0335925Y0178263D01*
X0335847Y0177966D01*
X0335762Y0177671D01*
X0335669Y0177379D01*
X0335569Y0177089D01*
X0335462Y0176801D01*
X0335348Y0176516D01*
X0335228Y0176234D01*
X0335100Y0175956D01*
X0334965Y0175680D01*
X0334824Y0175408D01*
X0334676Y0175139D01*
X0334522Y0174874D01*
X0334361Y0174613D01*
X0334193Y0174355D01*
X0334020Y0174102D01*
X0333840Y0173854D01*
X0333654Y0173610D01*
X0333463Y0173370D01*
X0333265Y0173135D01*
X0333062Y0172906D01*
X0332853Y0172681D01*
X0332639Y0172461D01*
X0332419Y0172247D01*
X0332194Y0172038D01*
X0331965Y0171835D01*
X0331730Y0171637D01*
X0331490Y0171446D01*
X0331246Y0171260D01*
X0330998Y0171080D01*
X0330745Y0170907D01*
X0330487Y0170739D01*
X0330226Y0170578D01*
X0329961Y0170424D01*
X0329692Y0170276D01*
X0329420Y0170135D01*
X0329144Y0170000D01*
X0328866Y0169872D01*
X0328584Y0169752D01*
X0328299Y0169638D01*
X0328011Y0169531D01*
X0327721Y0169431D01*
X0327429Y0169338D01*
X0327134Y0169253D01*
X0326837Y0169175D01*
X0326539Y0169104D01*
X0326239Y0169040D01*
X0325937Y0168984D01*
X0325634Y0168935D01*
X0325330Y0168894D01*
X0325025Y0168860D01*
X0324720Y0168834D01*
X0324413Y0168815D01*
X0324107Y0168804D01*
X0323800Y0168800D01*
X0323493Y0168804D01*
X0323187Y0168815D01*
X0322880Y0168834D01*
X0322575Y0168860D01*
X0322270Y0168894D01*
X0321966Y0168935D01*
X0321663Y0168984D01*
X0321361Y0169040D01*
X0321061Y0169104D01*
X0320763Y0169175D01*
X0320466Y0169253D01*
X0320171Y0169338D01*
X0319879Y0169431D01*
X0319589Y0169531D01*
X0319301Y0169638D01*
X0319016Y0169752D01*
X0318734Y0169872D01*
X0318456Y0170000D01*
X0318180Y0170135D01*
X0317908Y0170276D01*
X0317639Y0170424D01*
X0317374Y0170578D01*
X0317113Y0170739D01*
X0316855Y0170907D01*
X0316602Y0171080D01*
X0316354Y0171260D01*
X0316110Y0171446D01*
X0315870Y0171637D01*
X0315635Y0171835D01*
X0315406Y0172038D01*
X0315181Y0172247D01*
X0314961Y0172461D01*
X0314747Y0172681D01*
X0314538Y0172906D01*
X0314335Y0173135D01*
X0314137Y0173370D01*
X0313946Y0173610D01*
X0313760Y0173854D01*
X0313580Y0174102D01*
X0313407Y0174355D01*
X0313239Y0174613D01*
X0313078Y0174874D01*
X0312924Y0175139D01*
X0312776Y0175408D01*
X0312635Y0175680D01*
X0312500Y0175956D01*
X0312372Y0176234D01*
X0312252Y0176516D01*
X0312138Y0176801D01*
X0312031Y0177089D01*
X0311931Y0177379D01*
X0311838Y0177671D01*
X0311753Y0177966D01*
X0311675Y0178263D01*
X0311604Y0178561D01*
X0311540Y0178861D01*
X0311484Y0179163D01*
X0311435Y0179466D01*
X0311394Y0179770D01*
X0311360Y0180075D01*
X0311334Y0180380D01*
X0311315Y0180687D01*
X0311304Y0180993D01*
X0311300Y0181300D01*
D11*
X0278059Y0288465D02*
X0276992Y0288465D01*
X0278059Y0288465D02*
X0279127Y0289532D01*
X0279127Y0294870D01*
X0279127Y0290600D02*
X0275924Y0290600D01*
X0274857Y0291668D01*
X0274857Y0294870D01*
X0272688Y0294870D02*
X0271621Y0294870D01*
X0269485Y0292735D01*
X0269485Y0290600D02*
X0269485Y0294870D01*
X0267324Y0294870D02*
X0265188Y0294870D01*
X0266256Y0295938D02*
X0266256Y0291668D01*
X0267324Y0290600D01*
X0263013Y0292735D02*
X0263013Y0293803D01*
X0261946Y0294870D01*
X0259811Y0294870D01*
X0258743Y0293803D01*
X0258743Y0291668D01*
X0259811Y0290600D01*
X0261946Y0290600D01*
X0263013Y0292735D02*
X0258743Y0292735D01*
X0256574Y0290600D02*
X0253372Y0292735D01*
X0256574Y0294870D01*
X0253372Y0297005D02*
X0253372Y0290600D01*
X0251197Y0290600D02*
X0247994Y0290600D01*
X0246926Y0291668D01*
X0246926Y0293803D01*
X0247994Y0294870D01*
X0251197Y0294870D01*
X0244751Y0293803D02*
X0244751Y0291668D01*
X0243683Y0290600D01*
X0241548Y0290600D01*
X0240481Y0291668D01*
X0240481Y0293803D01*
X0241548Y0294870D01*
X0243683Y0294870D01*
X0244751Y0293803D01*
X0238306Y0293803D02*
X0237238Y0292735D01*
X0234035Y0292735D01*
X0234035Y0290600D02*
X0234035Y0297005D01*
X0237238Y0297005D01*
X0238306Y0295938D01*
X0238306Y0293803D01*
X0236170Y0292735D02*
X0238306Y0290600D01*
X0225415Y0290600D02*
X0225415Y0293803D01*
X0224347Y0294870D01*
X0221144Y0294870D01*
X0221144Y0290600D01*
X0218976Y0294870D02*
X0217908Y0294870D01*
X0215773Y0292735D01*
X0215773Y0290600D02*
X0215773Y0294870D01*
X0213598Y0293803D02*
X0213598Y0291668D01*
X0212530Y0290600D01*
X0210395Y0290600D01*
X0209327Y0291668D01*
X0209327Y0293803D01*
X0210395Y0294870D01*
X0212530Y0294870D01*
X0213598Y0293803D01*
X0207152Y0293803D02*
X0207152Y0290600D01*
X0207152Y0293803D02*
X0206085Y0294870D01*
X0203950Y0294870D01*
X0202882Y0293803D01*
X0200707Y0294870D02*
X0197504Y0294870D01*
X0196436Y0293803D01*
X0196436Y0291668D01*
X0197504Y0290600D01*
X0200707Y0290600D01*
X0200707Y0289532D02*
X0200707Y0294870D01*
X0202882Y0297005D02*
X0202882Y0290600D01*
X0200707Y0289532D02*
X0199639Y0288465D01*
X0198572Y0288465D01*
X0194261Y0290600D02*
X0194261Y0293803D01*
X0193194Y0294870D01*
X0189991Y0294870D01*
X0189991Y0290600D01*
X0187816Y0291668D02*
X0187816Y0293803D01*
X0186748Y0294870D01*
X0184613Y0294870D01*
X0183545Y0293803D01*
X0183545Y0291668D01*
X0184613Y0290600D01*
X0186748Y0290600D01*
X0187816Y0291668D01*
X0181370Y0290600D02*
X0177100Y0290600D01*
X0177100Y0297005D01*
X0287748Y0294870D02*
X0287748Y0290600D01*
X0287748Y0293803D02*
X0292018Y0293803D01*
X0292018Y0294870D02*
X0292018Y0290600D01*
X0294193Y0290600D02*
X0297396Y0290600D01*
X0298464Y0291668D01*
X0297396Y0292735D01*
X0295261Y0292735D01*
X0294193Y0293803D01*
X0295261Y0294870D01*
X0298464Y0294870D01*
X0300639Y0293803D02*
X0301706Y0292735D01*
X0303841Y0292735D01*
X0304909Y0291668D01*
X0303841Y0290600D01*
X0300639Y0290600D01*
X0300639Y0293803D02*
X0301706Y0294870D01*
X0304909Y0294870D01*
X0307084Y0293803D02*
X0307084Y0291668D01*
X0308152Y0290600D01*
X0310287Y0290600D01*
X0311355Y0291668D01*
X0311355Y0293803D01*
X0310287Y0294870D01*
X0308152Y0294870D01*
X0307084Y0293803D01*
X0313530Y0294870D02*
X0314597Y0294870D01*
X0314597Y0290600D01*
X0313530Y0290600D02*
X0315665Y0290600D01*
X0317827Y0291668D02*
X0318894Y0290600D01*
X0322097Y0290600D01*
X0324272Y0291668D02*
X0325340Y0292735D01*
X0328542Y0292735D01*
X0328542Y0293803D02*
X0328542Y0290600D01*
X0325340Y0290600D01*
X0324272Y0291668D01*
X0325340Y0294870D02*
X0327475Y0294870D01*
X0328542Y0293803D01*
X0330718Y0294870D02*
X0332853Y0294870D01*
X0331785Y0295938D02*
X0331785Y0291668D01*
X0332853Y0290600D01*
X0335015Y0290600D02*
X0337150Y0290600D01*
X0336082Y0290600D02*
X0336082Y0294870D01*
X0335015Y0294870D01*
X0336082Y0297005D02*
X0336082Y0298073D01*
X0339312Y0293803D02*
X0339312Y0291668D01*
X0340379Y0290600D01*
X0342514Y0290600D01*
X0343582Y0291668D01*
X0343582Y0293803D01*
X0342514Y0294870D01*
X0340379Y0294870D01*
X0339312Y0293803D01*
X0345757Y0294870D02*
X0345757Y0290600D01*
X0345757Y0294870D02*
X0348960Y0294870D01*
X0350027Y0293803D01*
X0350027Y0290600D01*
X0322097Y0294870D02*
X0318894Y0294870D01*
X0317827Y0293803D01*
X0317827Y0291668D01*
X0314597Y0297005D02*
X0314597Y0298073D01*
X0292018Y0294870D02*
X0289883Y0297005D01*
X0287748Y0294870D01*
X0001300Y0181300D02*
X0001354Y0185717D01*
X0001517Y0190132D01*
X0001788Y0194542D01*
X0002167Y0198943D01*
X0002654Y0203334D01*
X0003248Y0207711D01*
X0003950Y0212073D01*
X0004759Y0216416D01*
X0005674Y0220738D01*
X0006694Y0225036D01*
X0007820Y0229308D01*
X0009051Y0233551D01*
X0010385Y0237763D01*
X0011822Y0241940D01*
X0013361Y0246081D01*
X0015002Y0250183D01*
X0016742Y0254243D01*
X0018582Y0258260D01*
X0020520Y0262230D01*
X0022554Y0266151D01*
X0024684Y0270022D01*
X0026909Y0273838D01*
X0029226Y0277600D01*
X0031635Y0281303D01*
X0034135Y0284945D01*
X0036723Y0288526D01*
X0039398Y0292042D01*
X0042158Y0295491D01*
X0045002Y0298871D01*
X0047929Y0302181D01*
X0050936Y0305417D01*
X0054021Y0308579D01*
X0057183Y0311664D01*
X0060419Y0314671D01*
X0063729Y0317598D01*
X0067109Y0320442D01*
X0070558Y0323202D01*
X0074074Y0325877D01*
X0077655Y0328465D01*
X0081297Y0330965D01*
X0085000Y0333374D01*
X0088762Y0335691D01*
X0092578Y0337916D01*
X0096449Y0340046D01*
X0100370Y0342080D01*
X0104340Y0344018D01*
X0108357Y0345858D01*
X0112417Y0347598D01*
X0116519Y0349239D01*
X0120660Y0350778D01*
X0124837Y0352215D01*
X0129049Y0353549D01*
X0133292Y0354780D01*
X0137564Y0355906D01*
X0141862Y0356926D01*
X0146184Y0357841D01*
X0150527Y0358650D01*
X0154889Y0359352D01*
X0159266Y0359946D01*
X0163657Y0360433D01*
X0168058Y0360812D01*
X0172468Y0361083D01*
X0176883Y0361246D01*
X0181300Y0361300D01*
X0185717Y0361246D01*
X0190132Y0361083D01*
X0194542Y0360812D01*
X0198943Y0360433D01*
X0203334Y0359946D01*
X0207711Y0359352D01*
X0212073Y0358650D01*
X0216416Y0357841D01*
X0220738Y0356926D01*
X0225036Y0355906D01*
X0229308Y0354780D01*
X0233551Y0353549D01*
X0237763Y0352215D01*
X0241940Y0350778D01*
X0246081Y0349239D01*
X0250183Y0347598D01*
X0254243Y0345858D01*
X0258260Y0344018D01*
X0262230Y0342080D01*
X0266151Y0340046D01*
X0270022Y0337916D01*
X0273838Y0335691D01*
X0277600Y0333374D01*
X0281303Y0330965D01*
X0284945Y0328465D01*
X0288526Y0325877D01*
X0292042Y0323202D01*
X0295491Y0320442D01*
X0298871Y0317598D01*
X0302181Y0314671D01*
X0305417Y0311664D01*
X0308579Y0308579D01*
X0311664Y0305417D01*
X0314671Y0302181D01*
X0317598Y0298871D01*
X0320442Y0295491D01*
X0323202Y0292042D01*
X0325877Y0288526D01*
X0328465Y0284945D01*
X0330965Y0281303D01*
X0333374Y0277600D01*
X0335691Y0273838D01*
X0337916Y0270022D01*
X0340046Y0266151D01*
X0342080Y0262230D01*
X0344018Y0258260D01*
X0345858Y0254243D01*
X0347598Y0250183D01*
X0349239Y0246081D01*
X0350778Y0241940D01*
X0352215Y0237763D01*
X0353549Y0233551D01*
X0354780Y0229308D01*
X0355906Y0225036D01*
X0356926Y0220738D01*
X0357841Y0216416D01*
X0358650Y0212073D01*
X0359352Y0207711D01*
X0359946Y0203334D01*
X0360433Y0198943D01*
X0360812Y0194542D01*
X0361083Y0190132D01*
X0361246Y0185717D01*
X0361300Y0181300D01*
X0361246Y0176883D01*
X0361083Y0172468D01*
X0360812Y0168058D01*
X0360433Y0163657D01*
X0359946Y0159266D01*
X0359352Y0154889D01*
X0358650Y0150527D01*
X0357841Y0146184D01*
X0356926Y0141862D01*
X0355906Y0137564D01*
X0354780Y0133292D01*
X0353549Y0129049D01*
X0352215Y0124837D01*
X0350778Y0120660D01*
X0349239Y0116519D01*
X0347598Y0112417D01*
X0345858Y0108357D01*
X0344018Y0104340D01*
X0342080Y0100370D01*
X0340046Y0096449D01*
X0337916Y0092578D01*
X0335691Y0088762D01*
X0333374Y0085000D01*
X0330965Y0081297D01*
X0328465Y0077655D01*
X0325877Y0074074D01*
X0323202Y0070558D01*
X0320442Y0067109D01*
X0317598Y0063729D01*
X0314671Y0060419D01*
X0311664Y0057183D01*
X0308579Y0054021D01*
X0305417Y0050936D01*
X0302181Y0047929D01*
X0298871Y0045002D01*
X0295491Y0042158D01*
X0292042Y0039398D01*
X0288526Y0036723D01*
X0284945Y0034135D01*
X0281303Y0031635D01*
X0277600Y0029226D01*
X0273838Y0026909D01*
X0270022Y0024684D01*
X0266151Y0022554D01*
X0262230Y0020520D01*
X0258260Y0018582D01*
X0254243Y0016742D01*
X0250183Y0015002D01*
X0246081Y0013361D01*
X0241940Y0011822D01*
X0237763Y0010385D01*
X0233551Y0009051D01*
X0229308Y0007820D01*
X0225036Y0006694D01*
X0220738Y0005674D01*
X0216416Y0004759D01*
X0212073Y0003950D01*
X0207711Y0003248D01*
X0203334Y0002654D01*
X0198943Y0002167D01*
X0194542Y0001788D01*
X0190132Y0001517D01*
X0185717Y0001354D01*
X0181300Y0001300D01*
X0176883Y0001354D01*
X0172468Y0001517D01*
X0168058Y0001788D01*
X0163657Y0002167D01*
X0159266Y0002654D01*
X0154889Y0003248D01*
X0150527Y0003950D01*
X0146184Y0004759D01*
X0141862Y0005674D01*
X0137564Y0006694D01*
X0133292Y0007820D01*
X0129049Y0009051D01*
X0124837Y0010385D01*
X0120660Y0011822D01*
X0116519Y0013361D01*
X0112417Y0015002D01*
X0108357Y0016742D01*
X0104340Y0018582D01*
X0100370Y0020520D01*
X0096449Y0022554D01*
X0092578Y0024684D01*
X0088762Y0026909D01*
X0085000Y0029226D01*
X0081297Y0031635D01*
X0077655Y0034135D01*
X0074074Y0036723D01*
X0070558Y0039398D01*
X0067109Y0042158D01*
X0063729Y0045002D01*
X0060419Y0047929D01*
X0057183Y0050936D01*
X0054021Y0054021D01*
X0050936Y0057183D01*
X0047929Y0060419D01*
X0045002Y0063729D01*
X0042158Y0067109D01*
X0039398Y0070558D01*
X0036723Y0074074D01*
X0034135Y0077655D01*
X0031635Y0081297D01*
X0029226Y0085000D01*
X0026909Y0088762D01*
X0024684Y0092578D01*
X0022554Y0096449D01*
X0020520Y0100370D01*
X0018582Y0104340D01*
X0016742Y0108357D01*
X0015002Y0112417D01*
X0013361Y0116519D01*
X0011822Y0120660D01*
X0010385Y0124837D01*
X0009051Y0129049D01*
X0007820Y0133292D01*
X0006694Y0137564D01*
X0005674Y0141862D01*
X0004759Y0146184D01*
X0003950Y0150527D01*
X0003248Y0154889D01*
X0002654Y0159266D01*
X0002167Y0163657D01*
X0001788Y0168058D01*
X0001517Y0172468D01*
X0001354Y0176883D01*
X0001300Y0181300D01*
D12*
X0056634Y0129352D02*
X0057268Y0129352D01*
X0056951Y0129352D02*
X0056951Y0127767D01*
X0056634Y0127450D01*
X0056317Y0127450D01*
X0056000Y0127767D01*
X0058210Y0127767D02*
X0058527Y0127450D01*
X0059161Y0127450D01*
X0059478Y0127767D01*
X0059478Y0128084D01*
X0059161Y0128401D01*
X0058844Y0128401D01*
X0059161Y0128401D02*
X0059478Y0128718D01*
X0059478Y0129035D01*
X0059161Y0129352D01*
X0058527Y0129352D01*
X0058210Y0129035D01*
X0078800Y0046300D02*
X0078800Y0321300D01*
X0168800Y0321300D01*
X0168800Y0046300D01*
X0078800Y0046300D01*
X0173648Y0100184D02*
X0173648Y0100818D01*
X0173648Y0100501D02*
X0175233Y0100501D01*
X0175550Y0100184D01*
X0175550Y0099867D01*
X0175233Y0099550D01*
X0174599Y0101760D02*
X0174599Y0103028D01*
X0173648Y0102711D02*
X0174599Y0101760D01*
X0175550Y0102711D02*
X0173648Y0102711D01*
X0193800Y0046300D02*
X0193800Y0321300D01*
X0283800Y0321300D01*
X0283800Y0046300D01*
X0193800Y0046300D01*
X0229050Y0042367D02*
X0229367Y0042050D01*
X0229684Y0042050D01*
X0230001Y0042367D01*
X0230001Y0043952D01*
X0229684Y0043952D02*
X0230318Y0043952D01*
X0231260Y0043635D02*
X0231577Y0043952D01*
X0232211Y0043952D01*
X0232528Y0043635D01*
X0232528Y0043318D01*
X0231260Y0042050D01*
X0232528Y0042050D01*
X0188633Y0255130D02*
X0188950Y0255447D01*
X0188950Y0255764D01*
X0188633Y0256081D01*
X0187048Y0256081D01*
X0187048Y0255764D02*
X0187048Y0256398D01*
X0187048Y0257340D02*
X0187999Y0257340D01*
X0187682Y0257974D01*
X0187682Y0258291D01*
X0187999Y0258608D01*
X0188633Y0258608D01*
X0188950Y0258291D01*
X0188950Y0257657D01*
X0188633Y0257340D01*
X0187048Y0257340D02*
X0187048Y0258608D01*
X0187103Y0281050D02*
X0188120Y0282068D01*
X0188120Y0287155D01*
X0190127Y0285120D02*
X0193180Y0285120D01*
X0194197Y0284103D01*
X0194197Y0281050D01*
X0196204Y0281050D02*
X0198239Y0281050D01*
X0197222Y0281050D02*
X0197222Y0285120D01*
X0196204Y0285120D01*
X0197222Y0287155D02*
X0197222Y0288173D01*
X0200256Y0285120D02*
X0202291Y0281050D01*
X0204326Y0285120D01*
X0206333Y0284103D02*
X0207351Y0285120D01*
X0209386Y0285120D01*
X0210403Y0284103D01*
X0210403Y0283085D01*
X0206333Y0283085D01*
X0206333Y0282068D02*
X0206333Y0284103D01*
X0206333Y0282068D02*
X0207351Y0281050D01*
X0209386Y0281050D01*
X0212410Y0281050D02*
X0212410Y0285120D01*
X0212410Y0283085D02*
X0214445Y0285120D01*
X0215463Y0285120D01*
X0217475Y0284103D02*
X0218492Y0285120D01*
X0221545Y0285120D01*
X0223552Y0285120D02*
X0224569Y0285120D01*
X0224569Y0281050D01*
X0223552Y0281050D02*
X0225587Y0281050D01*
X0228621Y0282068D02*
X0228621Y0286138D01*
X0229638Y0285120D02*
X0227603Y0285120D01*
X0228621Y0282068D02*
X0229638Y0281050D01*
X0231655Y0282068D02*
X0231655Y0285120D01*
X0231655Y0282068D02*
X0232672Y0281050D01*
X0235725Y0281050D01*
X0235725Y0280032D02*
X0234707Y0279015D01*
X0233690Y0279015D01*
X0235725Y0280032D02*
X0235725Y0285120D01*
X0243809Y0284103D02*
X0243809Y0282068D01*
X0244827Y0281050D01*
X0246862Y0281050D01*
X0247879Y0282068D01*
X0247879Y0284103D01*
X0246862Y0285120D01*
X0244827Y0285120D01*
X0243809Y0284103D01*
X0249886Y0284103D02*
X0251921Y0284103D01*
X0250904Y0286138D02*
X0251921Y0287155D01*
X0250904Y0286138D02*
X0250904Y0281050D01*
X0260015Y0287155D02*
X0264085Y0287155D01*
X0262050Y0287155D02*
X0262050Y0281050D01*
X0266092Y0282068D02*
X0266092Y0284103D01*
X0267110Y0285120D01*
X0269145Y0285120D01*
X0270162Y0284103D01*
X0270162Y0283085D01*
X0266092Y0283085D01*
X0266092Y0282068D02*
X0267110Y0281050D01*
X0269145Y0281050D01*
X0272169Y0281050D02*
X0276239Y0285120D01*
X0279264Y0285120D02*
X0281299Y0285120D01*
X0282317Y0284103D01*
X0282317Y0281050D01*
X0279264Y0281050D01*
X0278246Y0282068D01*
X0279264Y0283085D01*
X0282317Y0283085D01*
X0284324Y0284103D02*
X0285341Y0285120D01*
X0288394Y0285120D01*
X0287376Y0283085D02*
X0285341Y0283085D01*
X0284324Y0284103D01*
X0284324Y0281050D02*
X0287376Y0281050D01*
X0288394Y0282068D01*
X0287376Y0283085D01*
X0296478Y0282068D02*
X0297496Y0283085D01*
X0300548Y0283085D01*
X0300548Y0284103D02*
X0300548Y0281050D01*
X0297496Y0281050D01*
X0296478Y0282068D01*
X0297496Y0285120D02*
X0299531Y0285120D01*
X0300548Y0284103D01*
X0302555Y0285120D02*
X0304590Y0285120D01*
X0303573Y0286138D02*
X0303573Y0282068D01*
X0304590Y0281050D01*
X0312684Y0281050D02*
X0312684Y0285120D01*
X0314719Y0287155D01*
X0316754Y0285120D01*
X0316754Y0281050D01*
X0318761Y0282068D02*
X0318761Y0285120D01*
X0316754Y0284103D02*
X0312684Y0284103D01*
X0318761Y0282068D02*
X0319779Y0281050D01*
X0322831Y0281050D01*
X0322831Y0285120D01*
X0324838Y0284103D02*
X0325856Y0285120D01*
X0328908Y0285120D01*
X0330915Y0285120D02*
X0332950Y0285120D01*
X0331933Y0286138D02*
X0331933Y0282068D01*
X0332950Y0281050D01*
X0334967Y0281050D02*
X0337002Y0281050D01*
X0335984Y0281050D02*
X0335984Y0285120D01*
X0334967Y0285120D01*
X0335984Y0287155D02*
X0335984Y0288173D01*
X0339018Y0285120D02*
X0342071Y0285120D01*
X0343088Y0284103D01*
X0343088Y0281050D01*
X0339018Y0281050D02*
X0339018Y0285120D01*
X0328908Y0282068D02*
X0327891Y0283085D01*
X0325856Y0283085D01*
X0324838Y0284103D01*
X0324838Y0281050D02*
X0327891Y0281050D01*
X0328908Y0282068D01*
X0276239Y0281050D02*
X0272169Y0285120D01*
X0224569Y0287155D02*
X0224569Y0288173D01*
X0220527Y0283085D02*
X0218492Y0283085D01*
X0217475Y0284103D01*
X0217475Y0281050D02*
X0220527Y0281050D01*
X0221545Y0282068D01*
X0220527Y0283085D01*
X0190127Y0281050D02*
X0190127Y0285120D01*
X0187103Y0281050D02*
X0185068Y0281050D01*
X0184050Y0282068D01*
X0184050Y0287155D01*
X0130028Y0344550D02*
X0128760Y0344550D01*
X0129394Y0344550D02*
X0129394Y0346452D01*
X0128760Y0345818D01*
X0127818Y0346452D02*
X0127184Y0346452D01*
X0127501Y0346452D02*
X0127501Y0344867D01*
X0127184Y0344550D01*
X0126867Y0344550D01*
X0126550Y0344867D01*
D13*
X0187000Y0276204D02*
X0190470Y0276204D01*
X0192156Y0276204D02*
X0193024Y0276204D01*
X0193024Y0271000D01*
X0193891Y0271000D02*
X0192156Y0271000D01*
X0195594Y0271000D02*
X0197329Y0271000D01*
X0196461Y0271000D02*
X0196461Y0274470D01*
X0195594Y0274470D01*
X0196461Y0276204D02*
X0196461Y0277072D01*
X0199899Y0274470D02*
X0199032Y0273602D01*
X0199032Y0271867D01*
X0199899Y0271000D01*
X0202501Y0271000D01*
X0202501Y0270133D02*
X0202501Y0274470D01*
X0199899Y0274470D01*
X0204188Y0273602D02*
X0205055Y0274470D01*
X0206790Y0274470D01*
X0207658Y0273602D01*
X0207658Y0271000D01*
X0210212Y0271867D02*
X0211079Y0271000D01*
X0210212Y0271867D02*
X0210212Y0275337D01*
X0209344Y0274470D02*
X0211079Y0274470D01*
X0217938Y0275337D02*
X0217938Y0271867D01*
X0218806Y0271000D01*
X0220541Y0271000D01*
X0221408Y0271867D01*
X0223095Y0271867D02*
X0223095Y0273602D01*
X0223962Y0274470D01*
X0225697Y0274470D01*
X0226564Y0273602D01*
X0226564Y0271867D01*
X0225697Y0271000D01*
X0223962Y0271000D01*
X0223095Y0271867D01*
X0221408Y0275337D02*
X0220541Y0276204D01*
X0218806Y0276204D01*
X0217938Y0275337D01*
X0228251Y0274470D02*
X0228251Y0271000D01*
X0229986Y0271000D02*
X0229986Y0273602D01*
X0230853Y0274470D01*
X0231721Y0273602D01*
X0231721Y0271000D01*
X0233408Y0271000D02*
X0236010Y0271000D01*
X0236877Y0271867D01*
X0236877Y0273602D01*
X0236010Y0274470D01*
X0233408Y0274470D01*
X0233408Y0269265D01*
X0229986Y0273602D02*
X0229119Y0274470D01*
X0228251Y0274470D01*
X0238564Y0274470D02*
X0238564Y0271867D01*
X0239431Y0271000D01*
X0242034Y0271000D01*
X0242034Y0274470D01*
X0243720Y0274470D02*
X0245455Y0274470D01*
X0244588Y0275337D02*
X0244588Y0271867D01*
X0245455Y0271000D01*
X0247158Y0271867D02*
X0247158Y0273602D01*
X0248025Y0274470D01*
X0249760Y0274470D01*
X0250628Y0273602D01*
X0250628Y0272735D01*
X0247158Y0272735D01*
X0247158Y0271867D02*
X0248025Y0271000D01*
X0249760Y0271000D01*
X0252314Y0271000D02*
X0252314Y0274470D01*
X0252314Y0272735D02*
X0254049Y0274470D01*
X0254917Y0274470D01*
X0261768Y0274470D02*
X0262635Y0273602D01*
X0264370Y0273602D01*
X0265237Y0272735D01*
X0265237Y0271867D01*
X0264370Y0271000D01*
X0262635Y0271000D01*
X0261768Y0271867D01*
X0261768Y0274470D02*
X0261768Y0275337D01*
X0262635Y0276204D01*
X0264370Y0276204D01*
X0265237Y0275337D01*
X0266924Y0274470D02*
X0268659Y0274470D01*
X0267792Y0275337D02*
X0267792Y0271867D01*
X0268659Y0271000D01*
X0270362Y0271000D02*
X0270362Y0274470D01*
X0270362Y0272735D02*
X0272097Y0274470D01*
X0272964Y0274470D01*
X0275526Y0274470D02*
X0277261Y0274470D01*
X0278128Y0273602D01*
X0278128Y0271000D01*
X0275526Y0271000D01*
X0274659Y0271867D01*
X0275526Y0272735D01*
X0278128Y0272735D01*
X0279815Y0274470D02*
X0281550Y0274470D01*
X0280683Y0275337D02*
X0280683Y0271867D01*
X0281550Y0271000D01*
X0283253Y0271867D02*
X0284120Y0271000D01*
X0285855Y0271000D01*
X0286722Y0271867D01*
X0286722Y0273602D01*
X0285855Y0274470D01*
X0284120Y0274470D01*
X0283253Y0273602D01*
X0283253Y0271867D01*
X0288409Y0271000D02*
X0290144Y0271000D01*
X0289277Y0271000D02*
X0289277Y0276204D01*
X0288409Y0276204D01*
X0291847Y0273602D02*
X0291847Y0271867D01*
X0292714Y0271000D01*
X0294449Y0271000D01*
X0295316Y0271867D01*
X0295316Y0273602D01*
X0294449Y0274470D01*
X0292714Y0274470D01*
X0291847Y0273602D01*
X0297003Y0273602D02*
X0297003Y0271867D01*
X0297871Y0271000D01*
X0300473Y0271000D01*
X0300473Y0270133D02*
X0300473Y0274470D01*
X0297871Y0274470D01*
X0297003Y0273602D01*
X0298738Y0269265D02*
X0299605Y0269265D01*
X0300473Y0270133D01*
X0302160Y0271867D02*
X0303027Y0271000D01*
X0305629Y0271000D01*
X0305629Y0270133D02*
X0305629Y0274470D01*
X0303027Y0274470D01*
X0302160Y0273602D01*
X0302160Y0271867D01*
X0303894Y0269265D02*
X0304762Y0269265D01*
X0305629Y0270133D01*
X0307316Y0271867D02*
X0307316Y0273602D01*
X0308183Y0274470D01*
X0309918Y0274470D01*
X0310786Y0273602D01*
X0310786Y0272735D01*
X0307316Y0272735D01*
X0307316Y0271867D02*
X0308183Y0271000D01*
X0309918Y0271000D01*
X0312472Y0271000D02*
X0312472Y0274470D01*
X0312472Y0272735D02*
X0314207Y0274470D01*
X0315075Y0274470D01*
X0321926Y0273602D02*
X0324528Y0273602D01*
X0325395Y0272735D01*
X0325395Y0271867D01*
X0324528Y0271000D01*
X0321926Y0271000D01*
X0321926Y0276204D01*
X0324528Y0276204D01*
X0325395Y0275337D01*
X0325395Y0274470D01*
X0324528Y0273602D01*
X0327082Y0273602D02*
X0327082Y0271867D01*
X0327950Y0271000D01*
X0329684Y0271000D01*
X0330552Y0271867D01*
X0330552Y0273602D01*
X0329684Y0274470D01*
X0327950Y0274470D01*
X0327082Y0273602D01*
X0332239Y0271867D02*
X0333106Y0272735D01*
X0335708Y0272735D01*
X0335708Y0273602D02*
X0335708Y0271000D01*
X0333106Y0271000D01*
X0332239Y0271867D01*
X0333106Y0274470D02*
X0334841Y0274470D01*
X0335708Y0273602D01*
X0337395Y0272735D02*
X0339130Y0274470D01*
X0339997Y0274470D01*
X0341692Y0273602D02*
X0341692Y0271867D01*
X0342559Y0271000D01*
X0345162Y0271000D01*
X0345162Y0276204D01*
X0345162Y0274470D02*
X0342559Y0274470D01*
X0341692Y0273602D01*
X0337395Y0274470D02*
X0337395Y0271000D01*
X0352005Y0271000D02*
X0352005Y0276204D01*
X0354607Y0276204D01*
X0355474Y0275337D01*
X0355474Y0273602D01*
X0354607Y0272735D01*
X0352005Y0272735D01*
X0353740Y0272735D02*
X0355474Y0271000D01*
X0357161Y0271867D02*
X0357161Y0273602D01*
X0358029Y0274470D01*
X0359763Y0274470D01*
X0360631Y0273602D01*
X0360631Y0272735D01*
X0357161Y0272735D01*
X0357161Y0271867D02*
X0358029Y0271000D01*
X0359763Y0271000D01*
X0364052Y0271000D02*
X0362318Y0274470D01*
X0365787Y0274470D02*
X0364052Y0271000D01*
X0372630Y0271000D02*
X0372630Y0274470D01*
X0374365Y0276204D01*
X0376100Y0274470D01*
X0376100Y0271000D01*
X0377787Y0271000D02*
X0378654Y0271000D01*
X0378654Y0271867D01*
X0377787Y0271867D01*
X0377787Y0271000D01*
X0376100Y0273602D02*
X0372630Y0273602D01*
X0204188Y0276204D02*
X0204188Y0271000D01*
X0202501Y0270133D02*
X0201634Y0269265D01*
X0200766Y0269265D01*
X0188735Y0273602D02*
X0187000Y0273602D01*
X0187000Y0271000D02*
X0187000Y0276204D01*
D14*
X0186700Y0264800D02*
X0304800Y0264900D01*
X0186700Y0264800D02*
X0167300Y0300300D01*
D15*
X0250150Y0258700D03*
X0250150Y0258400D03*
X0250150Y0258100D03*
X0250150Y0257800D03*
X0250150Y0257500D03*
X0250150Y0257200D03*
X0250150Y0256900D03*
X0250150Y0256600D03*
X0250150Y0256300D03*
X0250150Y0256000D03*
X0250150Y0255700D03*
X0250150Y0255400D03*
X0250150Y0255100D03*
X0250150Y0254800D03*
X0250150Y0254500D03*
X0250150Y0254200D03*
X0250150Y0253900D03*
X0250150Y0253600D03*
X0250150Y0253300D03*
X0250150Y0253000D03*
X0250150Y0252700D03*
X0250150Y0252400D03*
X0250150Y0252100D03*
X0250150Y0251800D03*
X0250150Y0251500D03*
X0250150Y0251200D03*
X0250150Y0250900D03*
X0250150Y0250600D03*
X0250150Y0250300D03*
X0250150Y0250000D03*
X0250150Y0249700D03*
X0250150Y0249400D03*
X0250150Y0249100D03*
X0250150Y0248800D03*
X0250150Y0248500D03*
X0250150Y0181600D03*
X0250150Y0181300D03*
X0250150Y0181000D03*
X0250150Y0180700D03*
X0250150Y0180400D03*
X0250150Y0180100D03*
X0250150Y0179800D03*
X0250150Y0179500D03*
X0250150Y0179200D03*
X0250150Y0178900D03*
X0250150Y0178600D03*
X0250150Y0178300D03*
X0250150Y0178000D03*
X0250150Y0177700D03*
X0250150Y0177400D03*
X0250150Y0177100D03*
X0250150Y0176800D03*
X0250150Y0176500D03*
X0250150Y0176200D03*
X0250150Y0175900D03*
X0250150Y0175600D03*
X0250150Y0175300D03*
X0250150Y0175000D03*
X0250150Y0174700D03*
X0250150Y0174400D03*
X0250150Y0174100D03*
X0250150Y0173800D03*
X0250150Y0173500D03*
X0250150Y0173200D03*
X0250150Y0172900D03*
X0250150Y0172600D03*
X0250150Y0172300D03*
X0250150Y0172000D03*
X0250150Y0171700D03*
X0250150Y0171400D03*
X0250150Y0171100D03*
X0250150Y0170800D03*
X0250150Y0170500D03*
X0250150Y0170200D03*
X0250150Y0169900D03*
X0250150Y0169600D03*
X0250150Y0169300D03*
X0250450Y0169000D03*
D16*
X0218950Y0181900D03*
X0237550Y0208000D03*
X0281350Y0247000D03*
D17*
X0268150Y0181900D03*
D18*
X0281650Y0194500D03*
X0281650Y0247300D03*
X0218650Y0182200D03*
D19*
X0268750Y0182200D03*
X0231550Y0242800D03*
D20*
X0282250Y0248200D03*
X0282250Y0195100D03*
X0242950Y0192100D03*
X0218050Y0182500D03*
D21*
X0269500Y0182500D03*
X0269500Y0228700D03*
X0230800Y0241900D03*
D22*
X0282700Y0195700D03*
X0243100Y0190900D03*
X0242800Y0191200D03*
X0242800Y0191500D03*
X0217600Y0182800D03*
D23*
X0270100Y0182800D03*
X0270100Y0229900D03*
D24*
X0243400Y0190600D03*
X0243400Y0190300D03*
X0217300Y0183100D03*
D25*
X0270400Y0183100D03*
X0270400Y0230500D03*
D26*
X0216850Y0183400D03*
D27*
X0271000Y0183400D03*
X0271000Y0231700D03*
X0229300Y0240100D03*
D28*
X0240850Y0206500D03*
X0216550Y0183700D03*
X0283750Y0196900D03*
X0283750Y0227500D03*
D29*
X0271450Y0232600D03*
X0228850Y0239500D03*
X0271450Y0183700D03*
D30*
X0284050Y0197200D03*
X0284050Y0226900D03*
X0243850Y0189100D03*
X0240550Y0207100D03*
X0240550Y0207400D03*
X0216250Y0184000D03*
D31*
X0271900Y0184000D03*
X0271900Y0233500D03*
X0228400Y0238900D03*
D32*
X0244300Y0188800D03*
X0216100Y0184300D03*
X0284200Y0197500D03*
X0284200Y0226600D03*
D33*
X0251200Y0201100D03*
X0272200Y0184300D03*
X0228100Y0238600D03*
D34*
X0215800Y0184600D03*
X0284500Y0225400D03*
D35*
X0272650Y0234700D03*
X0250750Y0200500D03*
X0272650Y0184600D03*
D36*
X0284800Y0198400D03*
X0284800Y0223900D03*
X0284800Y0224200D03*
X0215500Y0184900D03*
D37*
X0250450Y0200200D03*
X0272950Y0184900D03*
X0272950Y0235300D03*
X0227350Y0237400D03*
D38*
X0215350Y0185200D03*
X0284950Y0223300D03*
X0284950Y0223600D03*
D39*
X0273100Y0235600D03*
X0273100Y0185200D03*
D40*
X0285100Y0198700D03*
X0285100Y0222700D03*
X0285100Y0223000D03*
X0244300Y0188200D03*
X0215200Y0185500D03*
D41*
X0226750Y0236500D03*
X0273550Y0236200D03*
X0273550Y0185500D03*
D42*
X0285400Y0199300D03*
X0285400Y0220900D03*
X0285400Y0221200D03*
X0285400Y0221500D03*
X0214900Y0186100D03*
X0214900Y0185800D03*
D43*
X0226450Y0236200D03*
X0273850Y0236800D03*
X0273850Y0185800D03*
D44*
X0270400Y0213700D03*
X0270400Y0224800D03*
X0270400Y0225100D03*
X0258100Y0212800D03*
X0248800Y0221500D03*
X0237700Y0217900D03*
X0237700Y0217600D03*
X0228700Y0221500D03*
X0243400Y0186100D03*
D45*
X0249400Y0199000D03*
X0274000Y0186100D03*
X0226300Y0235900D03*
D46*
X0214600Y0186400D03*
X0244300Y0187900D03*
X0285700Y0220000D03*
X0285700Y0220300D03*
D47*
X0270400Y0222400D03*
X0261700Y0223000D03*
X0251800Y0217600D03*
X0270400Y0211000D03*
X0243700Y0186400D03*
X0229900Y0224200D03*
X0229900Y0224500D03*
D48*
X0226000Y0235600D03*
X0249100Y0198700D03*
X0274300Y0186400D03*
D49*
X0285850Y0199900D03*
X0285850Y0219100D03*
X0285850Y0219400D03*
X0285850Y0219700D03*
X0214450Y0208300D03*
X0214450Y0186700D03*
D50*
X0243850Y0186700D03*
X0247150Y0227200D03*
X0231550Y0227800D03*
D51*
X0238900Y0221200D03*
X0227500Y0218500D03*
X0247600Y0211900D03*
X0247600Y0211600D03*
X0253900Y0208000D03*
X0258100Y0210400D03*
X0263200Y0210100D03*
X0270400Y0216400D03*
X0277600Y0210100D03*
X0270700Y0197500D03*
X0256000Y0186700D03*
X0270400Y0226900D03*
D52*
X0277000Y0241300D03*
X0277000Y0241600D03*
X0246700Y0195700D03*
X0246700Y0195400D03*
X0277000Y0186700D03*
X0223300Y0231100D03*
X0223300Y0231400D03*
D53*
X0214300Y0208000D03*
X0214300Y0207700D03*
X0214300Y0187000D03*
X0286000Y0208300D03*
X0286000Y0218800D03*
D54*
X0287800Y0211000D03*
X0287800Y0210700D03*
X0287800Y0210400D03*
X0287800Y0210100D03*
X0248500Y0224800D03*
X0248500Y0225100D03*
X0229300Y0210100D03*
X0229300Y0209800D03*
X0244000Y0187000D03*
D55*
X0256150Y0187000D03*
X0266650Y0195100D03*
X0267550Y0195700D03*
X0271450Y0198100D03*
X0270550Y0217300D03*
X0247150Y0214000D03*
X0247150Y0213700D03*
X0247150Y0213400D03*
X0239350Y0222400D03*
X0227050Y0217300D03*
D56*
X0277150Y0187000D03*
D57*
X0286150Y0200200D03*
X0286150Y0200500D03*
X0286150Y0208600D03*
X0286150Y0217900D03*
X0286150Y0218200D03*
X0286150Y0218500D03*
X0214150Y0208600D03*
X0214150Y0207400D03*
X0214150Y0207100D03*
X0214150Y0206800D03*
X0214150Y0187600D03*
X0214150Y0187300D03*
D58*
X0213400Y0190000D03*
X0213400Y0190300D03*
X0213400Y0201400D03*
X0213400Y0201700D03*
X0213400Y0202000D03*
X0213400Y0202300D03*
X0213400Y0202600D03*
X0213400Y0209500D03*
X0213400Y0209800D03*
X0244000Y0187300D03*
X0286900Y0209200D03*
X0286900Y0214600D03*
X0286900Y0214900D03*
D59*
X0277000Y0209500D03*
X0275200Y0200500D03*
X0274900Y0200200D03*
X0274300Y0199900D03*
X0271600Y0198400D03*
X0256300Y0187300D03*
X0247000Y0214300D03*
X0247000Y0214600D03*
X0239500Y0222700D03*
X0226900Y0217000D03*
X0226900Y0216700D03*
X0270400Y0217600D03*
X0270400Y0217900D03*
D60*
X0246250Y0195100D03*
X0277450Y0187300D03*
X0222850Y0230500D03*
D61*
X0226000Y0214000D03*
X0226000Y0213700D03*
X0246100Y0217900D03*
X0246100Y0218200D03*
X0264400Y0208900D03*
X0270400Y0219700D03*
X0271900Y0199000D03*
X0260800Y0189400D03*
X0259300Y0191500D03*
X0260200Y0193000D03*
X0256300Y0190900D03*
X0258400Y0187300D03*
D62*
X0244150Y0187600D03*
X0213850Y0188500D03*
X0213850Y0204700D03*
X0213850Y0205000D03*
X0213850Y0205300D03*
X0213850Y0205600D03*
X0213850Y0208900D03*
X0286450Y0216400D03*
X0286450Y0216700D03*
X0286450Y0201100D03*
D63*
X0276550Y0208900D03*
X0273850Y0198700D03*
X0261550Y0191200D03*
X0261250Y0190900D03*
X0260650Y0190600D03*
X0260350Y0190300D03*
X0258850Y0189400D03*
X0258250Y0190900D03*
X0257350Y0190300D03*
X0256150Y0188500D03*
X0255550Y0187600D03*
X0257050Y0187600D03*
X0270550Y0220000D03*
X0270550Y0220300D03*
X0240550Y0224800D03*
X0240550Y0225100D03*
D64*
X0222700Y0230200D03*
X0277600Y0242200D03*
X0277600Y0242500D03*
X0277600Y0187600D03*
D65*
X0258700Y0187600D03*
X0256600Y0191200D03*
X0258400Y0192700D03*
X0264100Y0209200D03*
X0270400Y0218800D03*
X0276700Y0209200D03*
X0246400Y0216700D03*
X0246400Y0217000D03*
X0246400Y0217300D03*
X0240100Y0223900D03*
X0240100Y0224200D03*
X0226300Y0215200D03*
X0226300Y0214900D03*
D66*
X0214000Y0206500D03*
X0214000Y0206200D03*
X0214000Y0205900D03*
X0214000Y0188200D03*
X0214000Y0187900D03*
X0286300Y0200800D03*
X0286300Y0217000D03*
X0286300Y0217300D03*
X0286300Y0217600D03*
D67*
X0276400Y0208600D03*
X0273700Y0198400D03*
X0264700Y0208600D03*
X0270400Y0220600D03*
X0252700Y0206500D03*
X0258400Y0193000D03*
X0257800Y0190600D03*
X0256900Y0190000D03*
X0257200Y0189400D03*
X0257800Y0188800D03*
X0258400Y0189100D03*
X0259300Y0189700D03*
X0259900Y0190000D03*
X0261100Y0189700D03*
X0257200Y0188500D03*
X0256300Y0188200D03*
X0256300Y0187900D03*
X0255700Y0187900D03*
X0255400Y0188500D03*
X0255700Y0189100D03*
X0256000Y0188800D03*
X0256300Y0189700D03*
X0256000Y0190600D03*
X0240700Y0225400D03*
X0240700Y0225700D03*
X0240700Y0226000D03*
X0240700Y0226300D03*
X0240700Y0226600D03*
X0240700Y0226900D03*
X0240700Y0227200D03*
X0240700Y0227500D03*
X0240700Y0227800D03*
D68*
X0222250Y0229300D03*
X0245950Y0194500D03*
X0278050Y0188200D03*
X0278050Y0187900D03*
D69*
X0274150Y0199300D03*
X0271750Y0198700D03*
X0276250Y0201100D03*
X0261850Y0191800D03*
X0261850Y0191500D03*
X0260350Y0188800D03*
X0259750Y0188500D03*
X0258850Y0187900D03*
X0256750Y0191500D03*
X0257050Y0191800D03*
X0257650Y0192100D03*
X0253150Y0207100D03*
X0246550Y0216100D03*
X0246550Y0216400D03*
X0226450Y0215500D03*
D70*
X0226600Y0215800D03*
X0226600Y0216100D03*
X0239800Y0223300D03*
X0239800Y0223600D03*
X0246700Y0215800D03*
X0246700Y0215500D03*
X0246700Y0215200D03*
X0270400Y0218500D03*
X0275800Y0200800D03*
X0259300Y0188200D03*
D71*
X0244150Y0188500D03*
X0284650Y0198100D03*
X0284650Y0224500D03*
X0284650Y0224800D03*
X0284650Y0225100D03*
D72*
X0278350Y0243400D03*
X0278350Y0190300D03*
X0278350Y0190000D03*
X0278350Y0189700D03*
X0278350Y0189400D03*
X0278350Y0189100D03*
X0278350Y0188800D03*
X0278350Y0188500D03*
D73*
X0286600Y0201400D03*
X0286600Y0202300D03*
X0286600Y0208900D03*
X0286600Y0216100D03*
X0213700Y0204400D03*
X0213700Y0204100D03*
X0213700Y0188800D03*
D74*
X0213550Y0189100D03*
X0213550Y0189400D03*
X0213550Y0189700D03*
X0213550Y0202900D03*
X0213550Y0203200D03*
X0213550Y0203500D03*
X0213550Y0203800D03*
X0213550Y0209200D03*
X0286750Y0215200D03*
X0286750Y0215500D03*
X0286750Y0215800D03*
X0286750Y0202000D03*
X0286750Y0201700D03*
D75*
X0277150Y0201700D03*
X0276850Y0201400D03*
X0273850Y0199000D03*
X0260650Y0189100D03*
X0253150Y0206800D03*
X0246250Y0217600D03*
X0240250Y0224500D03*
X0226150Y0214600D03*
X0226150Y0214300D03*
X0270550Y0219100D03*
X0270550Y0219400D03*
D76*
X0283900Y0227200D03*
X0243700Y0189400D03*
X0240700Y0206800D03*
D77*
X0244000Y0189700D03*
X0283300Y0196300D03*
X0283300Y0196600D03*
D78*
X0283150Y0228100D03*
X0243550Y0190000D03*
D79*
X0228550Y0212800D03*
X0213250Y0210100D03*
X0213250Y0201100D03*
X0213250Y0200800D03*
X0213250Y0200500D03*
X0213250Y0191200D03*
X0213250Y0190900D03*
X0213250Y0190600D03*
X0260650Y0227800D03*
X0287050Y0214300D03*
X0287050Y0214000D03*
D80*
X0278500Y0190600D03*
X0221800Y0228700D03*
D81*
X0278800Y0190900D03*
D82*
X0279100Y0191200D03*
X0279100Y0244300D03*
D83*
X0287200Y0213700D03*
X0287200Y0213400D03*
X0228700Y0212500D03*
X0228700Y0212200D03*
X0228700Y0211900D03*
X0213100Y0210700D03*
X0213100Y0210400D03*
X0213100Y0200200D03*
X0213100Y0199900D03*
X0213100Y0199600D03*
X0213100Y0199300D03*
X0213100Y0199000D03*
X0213100Y0198700D03*
X0213100Y0198400D03*
X0213100Y0192700D03*
X0213100Y0192400D03*
X0213100Y0192100D03*
X0213100Y0191800D03*
X0213100Y0191500D03*
D84*
X0279250Y0191500D03*
X0279250Y0244600D03*
D85*
X0282400Y0195400D03*
X0242800Y0191800D03*
D86*
X0279550Y0191800D03*
X0279550Y0244900D03*
D87*
X0279700Y0192100D03*
D88*
X0271000Y0197800D03*
X0270100Y0197200D03*
X0269500Y0196900D03*
X0268600Y0196300D03*
X0266200Y0194800D03*
X0265300Y0194200D03*
X0264700Y0193900D03*
X0264100Y0193600D03*
X0263200Y0193000D03*
X0262600Y0192700D03*
X0261700Y0192100D03*
X0263500Y0209800D03*
X0270400Y0216700D03*
X0270400Y0217000D03*
X0247300Y0213100D03*
X0239200Y0221800D03*
X0239200Y0222100D03*
X0227200Y0217600D03*
D89*
X0243100Y0192400D03*
X0281800Y0247600D03*
D90*
X0280000Y0245500D03*
X0280000Y0192400D03*
D91*
X0274150Y0199600D03*
X0263950Y0209500D03*
X0253450Y0207400D03*
X0246850Y0214900D03*
X0239650Y0223000D03*
X0226750Y0216400D03*
X0258250Y0192400D03*
X0260050Y0193300D03*
X0270550Y0218200D03*
X0270550Y0227500D03*
D92*
X0270250Y0227200D03*
X0277450Y0209800D03*
X0269050Y0196600D03*
X0268150Y0196000D03*
X0267250Y0195400D03*
X0265750Y0194500D03*
X0263650Y0193300D03*
X0262150Y0192400D03*
X0253750Y0207700D03*
X0258250Y0210100D03*
X0247450Y0212200D03*
X0247450Y0212500D03*
X0247450Y0212800D03*
X0239050Y0212800D03*
X0239050Y0213100D03*
X0239050Y0212500D03*
X0239050Y0212200D03*
X0239050Y0211900D03*
X0239050Y0211600D03*
X0239050Y0211300D03*
X0239050Y0211000D03*
X0239050Y0210700D03*
X0239050Y0210400D03*
X0239050Y0210100D03*
X0239050Y0209800D03*
X0239050Y0209500D03*
X0239050Y0209200D03*
X0239050Y0208900D03*
X0239050Y0208600D03*
X0239050Y0208300D03*
X0227350Y0217900D03*
X0227350Y0218200D03*
X0239050Y0221500D03*
D93*
X0238000Y0207700D03*
X0243100Y0192700D03*
X0281500Y0194200D03*
D94*
X0280150Y0192700D03*
D95*
X0287350Y0209500D03*
X0287350Y0212500D03*
X0287350Y0212800D03*
X0287350Y0213100D03*
X0248950Y0223300D03*
X0228850Y0211600D03*
X0228850Y0211300D03*
X0212950Y0211300D03*
X0212950Y0211000D03*
X0212950Y0198100D03*
X0212950Y0197800D03*
X0212950Y0197500D03*
X0212950Y0197200D03*
X0212950Y0196900D03*
X0212950Y0196600D03*
X0212950Y0196300D03*
X0212950Y0196000D03*
X0212950Y0195700D03*
X0212950Y0195400D03*
X0212950Y0195100D03*
X0212950Y0194800D03*
X0212950Y0194500D03*
X0212950Y0194200D03*
X0212950Y0193900D03*
X0212950Y0193600D03*
X0212950Y0193300D03*
X0212950Y0193000D03*
D96*
X0243400Y0193000D03*
X0281200Y0193900D03*
D97*
X0280450Y0193000D03*
X0255250Y0228100D03*
D98*
X0243550Y0193300D03*
D99*
X0280600Y0193300D03*
X0280600Y0246100D03*
D100*
X0278950Y0244000D03*
X0245350Y0193600D03*
D101*
X0280900Y0193600D03*
X0280900Y0246400D03*
D102*
X0278650Y0243700D03*
X0245650Y0193900D03*
X0221650Y0228100D03*
X0221650Y0228400D03*
D103*
X0222100Y0229000D03*
X0245800Y0194200D03*
X0278200Y0243100D03*
D104*
X0222550Y0229900D03*
X0246250Y0194800D03*
D105*
X0281950Y0194800D03*
D106*
X0247000Y0196000D03*
X0223600Y0231700D03*
X0276700Y0241000D03*
D107*
X0282850Y0196000D03*
D108*
X0247300Y0196300D03*
X0223900Y0232300D03*
X0276400Y0240700D03*
D109*
X0247450Y0196600D03*
D110*
X0247600Y0196900D03*
X0224500Y0233200D03*
X0275800Y0239800D03*
D111*
X0275500Y0239200D03*
X0275500Y0207400D03*
X0247900Y0197200D03*
X0224800Y0233800D03*
D112*
X0225100Y0234100D03*
X0248200Y0197500D03*
X0275200Y0238900D03*
D113*
X0275050Y0238600D03*
X0275050Y0207100D03*
X0248350Y0197800D03*
X0225250Y0234400D03*
D114*
X0284350Y0226300D03*
X0284350Y0226000D03*
X0284350Y0225700D03*
X0284350Y0197800D03*
D115*
X0274750Y0206800D03*
X0248650Y0198100D03*
X0225550Y0235000D03*
X0274750Y0238300D03*
D116*
X0274450Y0237700D03*
X0248950Y0198400D03*
X0225850Y0235300D03*
D117*
X0285250Y0222400D03*
X0285250Y0222100D03*
X0285250Y0221800D03*
X0285250Y0199000D03*
D118*
X0249700Y0199300D03*
X0273700Y0236500D03*
D119*
X0273400Y0235900D03*
X0250000Y0199600D03*
X0226900Y0236800D03*
D120*
X0285550Y0220600D03*
X0285550Y0199600D03*
D121*
X0250150Y0199900D03*
X0227050Y0237100D03*
D122*
X0227800Y0238000D03*
X0250900Y0200800D03*
X0272500Y0234400D03*
D123*
X0271750Y0233200D03*
X0251650Y0201400D03*
D124*
X0252100Y0201700D03*
X0271300Y0232300D03*
X0229000Y0239800D03*
D125*
X0271150Y0232000D03*
X0252250Y0202000D03*
D126*
X0252850Y0202300D03*
X0270550Y0230800D03*
X0270550Y0231100D03*
X0229750Y0240700D03*
D127*
X0261700Y0202600D03*
D128*
X0261850Y0202900D03*
X0261850Y0203200D03*
X0261850Y0203500D03*
X0261850Y0203800D03*
X0261850Y0204100D03*
D129*
X0262000Y0204400D03*
X0262000Y0204700D03*
X0262000Y0205000D03*
D130*
X0262150Y0205300D03*
X0262150Y0205600D03*
X0262150Y0205900D03*
D131*
X0240700Y0206200D03*
X0283600Y0227800D03*
D132*
X0274150Y0237100D03*
X0274150Y0237400D03*
X0274150Y0206200D03*
D133*
X0274600Y0206500D03*
X0274600Y0238000D03*
D134*
X0275650Y0239500D03*
X0275650Y0207700D03*
X0224650Y0233500D03*
D135*
X0224200Y0232900D03*
X0276100Y0240100D03*
X0276100Y0240400D03*
X0276100Y0208000D03*
D136*
X0270400Y0214000D03*
X0270400Y0225400D03*
X0270400Y0225700D03*
X0258100Y0212500D03*
X0258100Y0212200D03*
X0253600Y0218200D03*
X0248500Y0218800D03*
X0238000Y0218500D03*
X0228400Y0220900D03*
X0248500Y0208600D03*
X0248500Y0208300D03*
D137*
X0259300Y0216400D03*
X0259600Y0216700D03*
X0259600Y0217000D03*
X0259900Y0217300D03*
X0260200Y0217600D03*
X0260200Y0217900D03*
X0260500Y0218500D03*
X0260500Y0218800D03*
X0260800Y0219400D03*
X0261100Y0220300D03*
X0270400Y0224200D03*
X0270400Y0224500D03*
X0270400Y0212800D03*
X0260500Y0208300D03*
X0237400Y0216700D03*
X0229000Y0222100D03*
X0229000Y0222400D03*
D138*
X0230950Y0226600D03*
X0261550Y0225400D03*
X0261550Y0225100D03*
X0270550Y0208600D03*
X0270550Y0208300D03*
D139*
X0270400Y0214900D03*
X0263200Y0210700D03*
X0258100Y0211600D03*
X0253900Y0209200D03*
X0253600Y0209500D03*
X0253300Y0210100D03*
X0253300Y0210400D03*
X0253000Y0210700D03*
X0253000Y0211000D03*
X0252400Y0211900D03*
X0252400Y0212200D03*
X0252100Y0212800D03*
X0252100Y0213100D03*
X0251800Y0213400D03*
X0251500Y0214000D03*
X0251200Y0214600D03*
X0251200Y0214900D03*
X0254200Y0218500D03*
X0254500Y0222100D03*
X0254500Y0222400D03*
X0254200Y0222700D03*
X0254200Y0208600D03*
X0254200Y0208300D03*
X0248200Y0209200D03*
X0248200Y0209500D03*
X0238300Y0219400D03*
X0238300Y0219700D03*
X0228100Y0220000D03*
X0228100Y0220300D03*
X0270400Y0226300D03*
D140*
X0260350Y0218200D03*
X0258250Y0213400D03*
X0258250Y0213100D03*
X0260350Y0208600D03*
X0251350Y0215800D03*
X0251350Y0216100D03*
X0248950Y0219700D03*
X0248950Y0220000D03*
X0248950Y0220300D03*
X0248950Y0220600D03*
X0248950Y0220900D03*
X0248950Y0221200D03*
X0237550Y0217300D03*
X0237550Y0217000D03*
X0228850Y0221800D03*
X0270550Y0213400D03*
X0270550Y0213100D03*
D141*
X0261250Y0226600D03*
X0230350Y0208600D03*
D142*
X0227650Y0218800D03*
X0238750Y0220600D03*
X0238750Y0220900D03*
X0243250Y0220900D03*
X0243250Y0220600D03*
X0243250Y0220300D03*
X0243250Y0220000D03*
X0243250Y0219700D03*
X0243250Y0219400D03*
X0243250Y0219100D03*
X0243250Y0218800D03*
X0243250Y0218500D03*
X0243250Y0218200D03*
X0243250Y0217900D03*
X0243250Y0217600D03*
X0243250Y0217300D03*
X0243250Y0217000D03*
X0243250Y0216700D03*
X0243250Y0216400D03*
X0243250Y0216100D03*
X0243250Y0215800D03*
X0243250Y0215500D03*
X0243250Y0215200D03*
X0243250Y0214900D03*
X0243250Y0214600D03*
X0243250Y0214300D03*
X0243250Y0214000D03*
X0243250Y0213700D03*
X0243250Y0213400D03*
X0243250Y0213100D03*
X0243250Y0212800D03*
X0243250Y0212500D03*
X0243250Y0212200D03*
X0243250Y0211900D03*
X0243250Y0211600D03*
X0243250Y0211300D03*
X0243250Y0211000D03*
X0243250Y0210700D03*
X0243250Y0210400D03*
X0243250Y0210100D03*
X0243250Y0209800D03*
X0243250Y0209500D03*
X0243250Y0209200D03*
X0243250Y0208900D03*
X0243250Y0208600D03*
X0247750Y0211300D03*
X0254650Y0219400D03*
X0258250Y0210700D03*
X0270550Y0216100D03*
X0273250Y0220600D03*
X0243250Y0221200D03*
X0243250Y0221500D03*
X0243250Y0221800D03*
X0243250Y0222100D03*
X0243250Y0222400D03*
X0243250Y0222700D03*
X0243250Y0223000D03*
D143*
X0248350Y0222400D03*
X0251050Y0215200D03*
X0251650Y0213700D03*
X0248350Y0208900D03*
X0258250Y0211900D03*
X0259450Y0209200D03*
X0270550Y0214300D03*
X0270550Y0214600D03*
X0270550Y0226000D03*
X0238150Y0219100D03*
X0238150Y0218800D03*
X0228250Y0220600D03*
D144*
X0228550Y0221200D03*
X0237850Y0218200D03*
X0248650Y0219100D03*
X0248650Y0219400D03*
X0248650Y0221800D03*
X0248650Y0222100D03*
X0253750Y0223000D03*
X0251050Y0215500D03*
X0260050Y0208900D03*
D145*
X0270400Y0208900D03*
X0230800Y0226000D03*
X0230800Y0226300D03*
D146*
X0230050Y0208900D03*
X0261250Y0226900D03*
D147*
X0267850Y0221200D03*
X0267550Y0220600D03*
X0267250Y0219700D03*
X0266950Y0219100D03*
X0266650Y0218500D03*
X0266350Y0217900D03*
X0266350Y0217600D03*
X0266050Y0217000D03*
X0265750Y0216700D03*
X0265750Y0216400D03*
X0265450Y0215800D03*
X0265450Y0215500D03*
X0265150Y0215200D03*
X0265150Y0214900D03*
X0265150Y0214600D03*
X0264850Y0214300D03*
X0264550Y0214000D03*
X0264550Y0213700D03*
X0264250Y0213100D03*
X0264250Y0212800D03*
X0263950Y0212500D03*
X0263650Y0211900D03*
X0263650Y0211600D03*
X0263350Y0211300D03*
X0263350Y0211000D03*
X0263050Y0210400D03*
X0259150Y0209500D03*
X0258250Y0211300D03*
X0254050Y0208900D03*
X0253450Y0209800D03*
X0252850Y0211300D03*
X0252550Y0211600D03*
X0252250Y0212500D03*
X0251350Y0214300D03*
X0248050Y0218500D03*
X0254350Y0218800D03*
X0254950Y0220600D03*
X0254950Y0220900D03*
X0254950Y0221200D03*
X0254950Y0221500D03*
X0248050Y0210100D03*
X0248050Y0209800D03*
X0238450Y0220000D03*
X0227950Y0219700D03*
X0222850Y0219700D03*
X0222850Y0220000D03*
X0222850Y0220300D03*
X0222850Y0220600D03*
X0222850Y0220900D03*
X0222850Y0221200D03*
X0222850Y0221500D03*
X0222850Y0221800D03*
X0222850Y0222100D03*
X0222850Y0222400D03*
X0222850Y0222700D03*
X0222850Y0223000D03*
X0222850Y0223300D03*
X0222850Y0223600D03*
X0222850Y0223900D03*
X0222850Y0224200D03*
X0222850Y0224500D03*
X0222850Y0224800D03*
X0222850Y0225100D03*
X0222850Y0225400D03*
X0222850Y0225700D03*
X0222850Y0226000D03*
X0222850Y0226300D03*
X0222850Y0226600D03*
X0222850Y0226900D03*
X0222850Y0227200D03*
X0222850Y0227500D03*
X0222850Y0219400D03*
X0222850Y0219100D03*
X0222850Y0218800D03*
X0222850Y0218500D03*
X0222850Y0218200D03*
X0222850Y0217900D03*
X0222850Y0217600D03*
X0222850Y0217300D03*
X0222850Y0217000D03*
X0222850Y0216700D03*
X0222850Y0216400D03*
X0222850Y0216100D03*
X0222850Y0215800D03*
X0222850Y0215500D03*
X0222850Y0215200D03*
X0222850Y0214900D03*
X0222850Y0214600D03*
X0222850Y0214300D03*
X0222850Y0214000D03*
X0222850Y0213700D03*
X0222850Y0213400D03*
X0222850Y0213100D03*
X0270550Y0215200D03*
X0274750Y0217000D03*
X0274750Y0217300D03*
X0274450Y0217900D03*
X0274450Y0218200D03*
X0273850Y0219100D03*
X0273550Y0220000D03*
X0272950Y0221200D03*
X0275650Y0215200D03*
X0275950Y0214600D03*
X0275950Y0214300D03*
X0276550Y0213400D03*
X0276850Y0212800D03*
X0276850Y0212500D03*
X0277150Y0211900D03*
X0277450Y0211300D03*
X0277750Y0210700D03*
X0277750Y0210400D03*
D148*
X0270400Y0209800D03*
X0270400Y0209500D03*
X0270400Y0209200D03*
X0261700Y0224200D03*
X0261700Y0224500D03*
X0230500Y0225700D03*
D149*
X0248050Y0225700D03*
X0248050Y0226000D03*
X0229750Y0209200D03*
D150*
X0229600Y0209500D03*
D151*
X0227800Y0219100D03*
X0227800Y0219400D03*
X0238600Y0220300D03*
X0247900Y0211000D03*
X0247900Y0210700D03*
X0247900Y0210400D03*
X0254500Y0219100D03*
X0254800Y0219700D03*
X0254800Y0220000D03*
X0254800Y0220300D03*
X0254800Y0221800D03*
X0258100Y0211000D03*
X0258700Y0209800D03*
X0263800Y0212200D03*
X0264400Y0213400D03*
X0265600Y0216100D03*
X0266200Y0217300D03*
X0266500Y0218200D03*
X0266800Y0218800D03*
X0267100Y0219400D03*
X0267400Y0220000D03*
X0267400Y0220300D03*
X0267700Y0220900D03*
X0270400Y0215800D03*
X0270400Y0215500D03*
X0274900Y0216700D03*
X0275200Y0216400D03*
X0275200Y0216100D03*
X0275500Y0215800D03*
X0275500Y0215500D03*
X0275800Y0214900D03*
X0276100Y0214000D03*
X0276400Y0213700D03*
X0276700Y0213100D03*
X0277000Y0212200D03*
X0277300Y0211600D03*
X0277600Y0211000D03*
X0274600Y0217600D03*
X0274300Y0218500D03*
X0274000Y0218800D03*
X0273700Y0219400D03*
X0273700Y0219700D03*
X0273400Y0220300D03*
X0273100Y0220900D03*
X0270400Y0226600D03*
D152*
X0287650Y0211600D03*
X0287650Y0211300D03*
X0287650Y0209800D03*
X0248650Y0224500D03*
X0229150Y0210400D03*
X0212650Y0212200D03*
X0212650Y0212500D03*
X0212650Y0212800D03*
X0212650Y0213100D03*
X0212650Y0213400D03*
X0212650Y0213700D03*
X0212650Y0214000D03*
X0212650Y0214300D03*
X0212650Y0214600D03*
X0212650Y0214900D03*
X0212650Y0215200D03*
X0212650Y0215500D03*
X0212650Y0215800D03*
X0212650Y0216100D03*
X0212650Y0216400D03*
X0212650Y0216700D03*
X0212650Y0217000D03*
X0212650Y0217300D03*
X0212650Y0217600D03*
X0212650Y0217900D03*
X0212650Y0218200D03*
X0212650Y0218500D03*
X0212650Y0218800D03*
X0212650Y0219100D03*
X0212650Y0219400D03*
X0212650Y0219700D03*
X0212650Y0220000D03*
X0212650Y0220300D03*
X0212650Y0220600D03*
X0212650Y0220900D03*
X0212650Y0221200D03*
X0212650Y0221500D03*
X0212650Y0221800D03*
X0212650Y0222100D03*
X0212650Y0222400D03*
X0212650Y0222700D03*
X0212650Y0223000D03*
X0212650Y0223300D03*
X0212650Y0223600D03*
X0212650Y0223900D03*
X0212650Y0224200D03*
X0212650Y0224500D03*
X0212650Y0224800D03*
X0212650Y0225100D03*
X0212650Y0225400D03*
X0212650Y0225700D03*
X0212650Y0226000D03*
X0212650Y0226300D03*
X0212650Y0226600D03*
X0212650Y0226900D03*
X0212650Y0227200D03*
X0212650Y0227500D03*
X0212650Y0227800D03*
D153*
X0230200Y0224800D03*
X0251800Y0217900D03*
X0261700Y0223900D03*
X0270400Y0221800D03*
X0270400Y0221500D03*
X0270400Y0210100D03*
D154*
X0270550Y0210400D03*
X0270550Y0210700D03*
X0270550Y0222100D03*
X0261550Y0223300D03*
X0261550Y0223600D03*
D155*
X0248800Y0223600D03*
X0248800Y0223900D03*
X0248800Y0224200D03*
X0233200Y0213400D03*
X0229000Y0211000D03*
X0229000Y0210700D03*
X0212800Y0211600D03*
X0212800Y0211900D03*
X0287500Y0211900D03*
X0287500Y0212200D03*
D156*
X0270550Y0211300D03*
X0270550Y0222700D03*
X0261550Y0222700D03*
X0261550Y0222400D03*
X0258250Y0214900D03*
X0251650Y0217000D03*
X0251650Y0217300D03*
X0236650Y0214300D03*
X0236650Y0214000D03*
X0236650Y0213700D03*
X0229750Y0223900D03*
D157*
X0229600Y0223600D03*
X0236800Y0214900D03*
X0236800Y0214600D03*
X0258100Y0214600D03*
X0258400Y0215200D03*
X0270400Y0211600D03*
X0270400Y0223000D03*
D158*
X0270400Y0223600D03*
X0261400Y0221800D03*
X0261400Y0221500D03*
X0261400Y0221200D03*
X0259000Y0216100D03*
X0258700Y0215500D03*
X0258100Y0214300D03*
X0270400Y0212200D03*
X0270400Y0211900D03*
X0237100Y0215500D03*
X0237100Y0215800D03*
X0229300Y0223000D03*
D159*
X0229150Y0222700D03*
X0237250Y0216400D03*
X0237250Y0216100D03*
X0251350Y0216400D03*
X0258250Y0214000D03*
X0258250Y0213700D03*
X0260650Y0219100D03*
X0260950Y0219700D03*
X0260950Y0220000D03*
X0261250Y0220600D03*
X0261250Y0220900D03*
X0270550Y0223900D03*
X0270550Y0212500D03*
D160*
X0270250Y0223300D03*
X0261550Y0222100D03*
X0258850Y0215800D03*
X0251650Y0216700D03*
X0236950Y0215200D03*
X0229450Y0223300D03*
D161*
X0261550Y0224800D03*
D162*
X0230350Y0225100D03*
X0230350Y0225400D03*
D163*
X0248350Y0225400D03*
X0260950Y0227200D03*
X0260950Y0227500D03*
D164*
X0261400Y0225700D03*
X0246700Y0227500D03*
D165*
X0261400Y0226000D03*
X0231400Y0227200D03*
X0231400Y0227500D03*
D166*
X0247300Y0226900D03*
X0261400Y0226300D03*
D167*
X0247900Y0226300D03*
D168*
X0247600Y0226600D03*
D169*
X0231250Y0226900D03*
D170*
X0269350Y0228400D03*
D171*
X0269650Y0229000D03*
X0230650Y0241600D03*
D172*
X0269800Y0229300D03*
D173*
X0277900Y0242800D03*
X0222400Y0229600D03*
D174*
X0230350Y0241300D03*
X0269950Y0229600D03*
D175*
X0270250Y0230200D03*
X0230050Y0241000D03*
D176*
X0223000Y0230800D03*
X0277300Y0241900D03*
D177*
X0270850Y0231400D03*
D178*
X0223750Y0232000D03*
D179*
X0224050Y0232600D03*
D180*
X0228700Y0239200D03*
X0271600Y0232900D03*
D181*
X0272050Y0233800D03*
D182*
X0272350Y0234100D03*
X0227950Y0238300D03*
D183*
X0225400Y0234700D03*
D184*
X0227500Y0237700D03*
X0272800Y0235000D03*
D185*
X0229600Y0240400D03*
D186*
X0231250Y0242200D03*
D187*
X0231400Y0242500D03*
D188*
X0232000Y0243100D03*
D189*
X0232300Y0243400D03*
D190*
X0232450Y0243700D03*
D191*
X0232750Y0244000D03*
D192*
X0233050Y0244300D03*
D193*
X0233350Y0244600D03*
D194*
X0233500Y0244900D03*
D195*
X0233950Y0245200D03*
D196*
X0279850Y0245200D03*
D197*
X0234250Y0245500D03*
D198*
X0234400Y0245800D03*
D199*
X0280300Y0245800D03*
D200*
X0234850Y0246100D03*
D201*
X0235150Y0246400D03*
D202*
X0235450Y0246700D03*
D203*
X0281050Y0246700D03*
D204*
X0235600Y0247000D03*
D205*
X0236050Y0247300D03*
D206*
X0236350Y0247600D03*
D207*
X0236650Y0247900D03*
D208*
X0282100Y0247900D03*
D209*
X0236950Y0248200D03*
D210*
X0186300Y0246800D02*
X0186300Y0241800D01*
X0183800Y0239300D01*
X0186300Y0236800D01*
X0186300Y0231800D01*
X0183800Y0229300D01*
X0178800Y0229300D01*
X0176300Y0231800D01*
X0176300Y0236800D01*
X0178800Y0239300D01*
X0176300Y0241800D01*
X0176300Y0246800D01*
X0178800Y0249300D01*
X0176300Y0251800D01*
X0176300Y0256800D01*
X0178800Y0259300D01*
X0183800Y0259300D01*
X0186300Y0256800D01*
X0186300Y0251800D01*
X0183800Y0249300D01*
X0186300Y0246800D01*
X0143800Y0333800D02*
X0138800Y0333800D01*
X0136300Y0336300D01*
X0133800Y0333800D01*
X0128800Y0333800D01*
X0126300Y0336300D01*
X0126300Y0341300D01*
X0128800Y0343800D01*
X0133800Y0343800D01*
X0136300Y0341300D01*
X0138800Y0343800D01*
X0143800Y0343800D01*
X0146300Y0341300D01*
X0146300Y0336300D01*
X0143800Y0333800D01*
X0178800Y0129300D02*
X0183800Y0129300D01*
X0186300Y0126800D01*
X0186300Y0121800D01*
X0183800Y0119300D01*
X0186300Y0116800D01*
X0186300Y0111800D01*
X0183800Y0109300D01*
X0186300Y0106800D01*
X0186300Y0101800D01*
X0183800Y0099300D01*
X0178800Y0099300D01*
X0176300Y0101800D01*
X0176300Y0106800D01*
X0178800Y0109300D01*
X0176300Y0111800D01*
X0176300Y0116800D01*
X0178800Y0119300D01*
X0176300Y0121800D01*
X0176300Y0126800D01*
X0178800Y0129300D01*
X0231300Y0041300D02*
X0228800Y0038800D01*
X0228800Y0033800D01*
X0231300Y0031300D01*
X0236300Y0031300D01*
X0238800Y0033800D01*
X0241300Y0031300D01*
X0246300Y0031300D01*
X0248800Y0033800D01*
X0248800Y0038800D01*
X0246300Y0041300D01*
X0241300Y0041300D01*
X0238800Y0038800D01*
X0236300Y0041300D01*
X0231300Y0041300D01*
X0065750Y0119200D02*
X0065750Y0124200D01*
X0063250Y0126700D01*
X0058250Y0126700D01*
X0055750Y0124200D01*
X0055750Y0119200D01*
X0058250Y0116700D01*
X0063250Y0116700D01*
X0065750Y0119200D01*
M02*
