%
M48
M72
T01C0.03543
T02C0.04000
T03C0.12000
T04C0.25000
%
T01
X143800Y13300
X143800Y21300
X151800Y21300
X151800Y13300
X159800Y13300
X159800Y21300
X167800Y21300
X167800Y13300
X175800Y13300
X175800Y21300
X183800Y21300
X183800Y13300
X191800Y13300
X191800Y21300
X199800Y21300
X199800Y13300
X207800Y13300
X207800Y21300
X215800Y21300
X215800Y13300
T02
X233800Y36300
X243800Y36300
X181300Y104300
X181300Y114300
X181300Y124300
X181300Y234300
X181300Y244300
X181300Y254300
X141300Y338800
X131300Y338800
X60750Y121700
T03
X91300Y58800
X156300Y58800
X206300Y58800
X271300Y58800
X271300Y308800
X206300Y308800
X156300Y308800
X91300Y308800
T04
X38800Y181300
X323800Y181300
M30
