M48
;GenerationSoftware,Autodesk,EAGLE,9.0.1*%
;CreationDate,2019-01-18T03:32:41Z*%
FMAT,2
ICI,OFF
METRIC,TZ,000.000
T9C0.350
T8C0.550
T7C0.650
T6C0.813
T5C0.965
T4C1.016
T3C1.200
T2C3.048
T1C3.073
%
G90
M71
T1
X17272Y17272
X71628Y17272
X71628Y71628
X17272Y71628
T2
X23571Y77572
X23571Y14072
X40081Y14072
X40081Y77572
X48717Y14072
X65227Y14072
X65227Y77572
X48717Y77572
T3
X39172Y84074
X42672Y84074
X47046Y84074
X50546Y84074
T4
X60706Y75946
X77470Y29464
X77470Y26924
X77470Y24384
X77470Y21844
X77470Y19304
X11938Y31750
X11938Y34290
X11938Y36830
X77216Y32512
X35560Y8636
X77216Y35052
X77216Y37592
X66802Y61976
X66802Y64516
X66802Y67056
X58166Y75946
X55880Y8636
X55880Y6096
X53340Y8636
X50800Y8636
X50800Y6096
X48260Y8636
X48260Y6096
X45720Y8636
X45720Y6096
X43180Y8636
X43180Y6096
X40640Y8636
X40640Y6096
X53340Y6096
X8636Y40132
X6096Y37592
X8636Y37592
X38100Y6096
X6096Y35052
X8636Y35052
X6096Y32512
X8636Y32512
X33020Y6096
X33020Y8636
X38100Y8636
X35560Y6096
X80264Y55372
X82804Y55372
X80264Y52832
X82804Y52832
X80264Y50292
X82804Y50292
X80264Y47752
X82804Y47752
X80264Y45212
X82804Y45212
X80264Y42672
X82804Y42672
X80264Y40132
X82804Y40132
X80264Y37592
X82804Y37592
X80264Y35052
X82804Y35052
X80264Y32512
X82804Y32512
X6096Y55372
X8636Y55372
X6096Y52832
X8636Y52832
X6096Y50292
X8636Y50292
X6096Y47752
X8636Y47752
X6096Y45212
X8636Y45212
X6096Y42672
X8636Y42672
X6096Y40132
T5
X60960Y34290
X17780Y34290
X22860Y34290
X25400Y34290
X27940Y34290
X21590Y24765
X24130Y24765
X29210Y24765
X31750Y24765
X26670Y24765
X63500Y21590
X20320Y21590
X22860Y21590
X25400Y21590
X27940Y21590
X30480Y21590
X33020Y21590
X35560Y21590
X38100Y21590
X40640Y21590
X43180Y21590
X45720Y21590
X48260Y21590
X48260Y36830
X45720Y36830
X43180Y36830
X40640Y36830
X38100Y36830
X35560Y36830
X33020Y36830
X30480Y36830
X27940Y36830
X25400Y36830
X22860Y36830
X17780Y21590
X20320Y36830
X17780Y36830
X15240Y21590
X15240Y36830
X50800Y21590
X50800Y36830
X53340Y21590
X55880Y21590
X58420Y21590
X60960Y21590
X66040Y21590
X68580Y21590
X71120Y21590
X73660Y21590
X73660Y36830
X71120Y36830
X68580Y36830
X66040Y36830
X63500Y36830
X60960Y36830
X58420Y36830
X55880Y36830
X53340Y36830
X60960Y24130
X60960Y29210
X60960Y31750
X60960Y26670
T6
X69342Y41148
X64262Y41148
X66802Y41148
T7
X50673Y74041
T8
X64008Y45720
X59690Y39624
X52578Y49022
T9
X34544Y52324
X34544Y48006
X55118Y69088
X64008Y71120
X76200Y59944
X46228Y44958
X46990Y39370
X34544Y68326
X25654Y62992
X41910Y38100
X24130Y61468
X37846Y32766
X34544Y32766
X34290Y34036
X36068Y19558
X39370Y20574
X38100Y20320
X52324Y24042
X41402Y34036
X28194Y65532
X47752Y26162
X21336Y65024
X17018Y66548
X65024Y48768
X73660Y19558
X22352Y65024
X32004Y70358
X43688Y32766
X53086Y32004
X50546Y28956
X50546Y27686
X23876Y26924
X29210Y36322
X21590Y62738
X35052Y66548
X39878Y73152
X33274Y67818
X27686Y69342
X50800Y25742
X54102Y25742
X55626Y40640
X38608Y44958
X32766Y74422
M30