G04 EAGLE Gerber X2 export*
%TF.Part,Single*%
%TF.FileFunction,Other,Solder stop mask SOL*%
%TF.FilePolarity,Positive*%
%TF.GenerationSoftware,Autodesk,EAGLE,9.0.1*%
%TF.CreationDate,2019-01-18T03:32:27Z*%
G75*
%MOMM*%
%FSLAX34Y34*%
%LPD*%
%AMOC8*
5,1,8,0,0,1.08239X$1,22.5*%
G01*
%ADD10C,3.276600*%
%ADD11C,2.082800*%
%ADD12C,1.676400*%
%ADD13C,1.524000*%
%ADD14C,3.251200*%
%ADD15R,2.235200X2.235200*%
%ADD16C,2.235200*%
%ADD17C,0.959600*%
%ADD18C,1.159600*%
%ADD19C,1.259600*%


D10*
X716280Y172720D03*
X716280Y716280D03*
X172720Y172720D03*
X172720Y716280D03*
D11*
X802640Y553720D03*
X828040Y553720D03*
X802640Y528320D03*
X828040Y528320D03*
X802640Y502920D03*
X828040Y502920D03*
X802640Y477520D03*
X828040Y477520D03*
X802640Y452120D03*
X828040Y452120D03*
X802640Y426720D03*
X828040Y426720D03*
X802640Y401320D03*
X828040Y401320D03*
X802640Y375920D03*
X828040Y375920D03*
X802640Y350520D03*
X828040Y350520D03*
X802640Y325120D03*
X828040Y325120D03*
X60960Y553720D03*
X86360Y553720D03*
X60960Y528320D03*
X86360Y528320D03*
X60960Y502920D03*
X86360Y502920D03*
X60960Y477520D03*
X86360Y477520D03*
X60960Y452120D03*
X86360Y452120D03*
X60960Y426720D03*
X86360Y426720D03*
X60960Y401320D03*
X86360Y401320D03*
X60960Y375920D03*
X86360Y375920D03*
X60960Y350520D03*
X86360Y350520D03*
X60960Y325120D03*
X86360Y325120D03*
X330200Y60960D03*
X330200Y86360D03*
X355600Y60960D03*
X355600Y86360D03*
X381000Y60960D03*
X381000Y86360D03*
X406400Y60960D03*
X406400Y86360D03*
X431800Y60960D03*
X431800Y86360D03*
X457200Y60960D03*
X457200Y86360D03*
X482600Y60960D03*
X482600Y86360D03*
X508000Y60960D03*
X508000Y86360D03*
X533400Y60960D03*
X533400Y86360D03*
X558800Y60960D03*
X558800Y86360D03*
D12*
X203200Y215900D03*
X228600Y215900D03*
X254000Y215900D03*
X279400Y215900D03*
X304800Y215900D03*
X330200Y215900D03*
X355600Y215900D03*
X381000Y215900D03*
X406400Y215900D03*
X431800Y215900D03*
X457200Y215900D03*
X482600Y215900D03*
X482600Y368300D03*
X457200Y368300D03*
X431800Y368300D03*
X406400Y368300D03*
X381000Y368300D03*
X355600Y368300D03*
X330200Y368300D03*
X304800Y368300D03*
X279400Y368300D03*
X254000Y368300D03*
X228600Y368300D03*
X177800Y215900D03*
X203200Y368300D03*
X177800Y368300D03*
X152400Y215900D03*
X152400Y368300D03*
X508000Y215900D03*
X508000Y368300D03*
X533400Y215900D03*
X558800Y215900D03*
X584200Y215900D03*
X609600Y215900D03*
X635000Y215900D03*
X660400Y215900D03*
X685800Y215900D03*
X711200Y215900D03*
X736600Y215900D03*
X736600Y368300D03*
X711200Y368300D03*
X685800Y368300D03*
X660400Y368300D03*
X635000Y368300D03*
X609600Y368300D03*
X584200Y368300D03*
X558800Y368300D03*
X533400Y368300D03*
X609600Y241300D03*
X609600Y292100D03*
X609600Y317500D03*
X609600Y266700D03*
X609600Y342900D03*
X177800Y342900D03*
X228600Y342900D03*
X254000Y342900D03*
X279400Y342900D03*
X215900Y247650D03*
X241300Y247650D03*
X266700Y247650D03*
X292100Y247650D03*
X317500Y247650D03*
D13*
X693420Y404876D02*
X693420Y418084D01*
X642620Y418084D02*
X642620Y404876D01*
X668020Y404876D02*
X668020Y418084D01*
D11*
X668020Y670560D03*
X668020Y645160D03*
X668020Y619760D03*
X772160Y375920D03*
X772160Y350520D03*
X772160Y325120D03*
X119380Y368300D03*
X119380Y342900D03*
X119380Y317500D03*
X774700Y193040D03*
X774700Y218440D03*
X774700Y243840D03*
X774700Y269240D03*
X774700Y294640D03*
D14*
X235712Y140716D03*
X400812Y140716D03*
X400812Y775716D03*
X235712Y775716D03*
X487172Y140716D03*
X652272Y140716D03*
X652272Y775716D03*
X487172Y775716D03*
D15*
X505460Y840740D03*
D16*
X470460Y840740D03*
D15*
X426720Y840740D03*
D16*
X391720Y840740D03*
D11*
X607060Y759460D03*
X581660Y759460D03*
D17*
X523240Y240420D03*
X477520Y261620D03*
X213360Y650240D03*
X170180Y665480D03*
X345440Y523240D03*
X345440Y480060D03*
X551180Y690880D03*
X640080Y711200D03*
X762000Y599440D03*
D18*
X640080Y457200D03*
X596900Y396240D03*
D17*
X386080Y449580D03*
X556260Y406400D03*
X541020Y257420D03*
X508000Y257420D03*
X276860Y693420D03*
X332740Y678180D03*
X398780Y731520D03*
X350520Y665480D03*
X215900Y627380D03*
X292100Y363220D03*
X238760Y269240D03*
X505460Y276860D03*
X505460Y289560D03*
X530860Y320040D03*
X419100Y381000D03*
X436880Y327660D03*
X320040Y703580D03*
X223520Y650240D03*
D18*
X525780Y490220D03*
D17*
X650240Y487680D03*
X241300Y614680D03*
X256540Y629920D03*
X345440Y683260D03*
X469900Y393700D03*
X462280Y449580D03*
X327660Y744220D03*
X281940Y655320D03*
X736600Y195580D03*
X381000Y203200D03*
X393700Y205740D03*
X360680Y195580D03*
X342900Y340360D03*
X414020Y340360D03*
X345440Y327660D03*
X378460Y327660D03*
D19*
X506730Y740410D03*
M02*
