M48
;GenerationSoftware,Autodesk,EAGLE,8.7.1*%
;CreationDate,2020-01-06T03:29:20Z*%
FMAT,2
ICI,OFF
METRIC,TZ,000.000
T8C0.350
T7C0.800
T6C0.900
T5C0.965
T4C1.020
T3C1.090
T2C1.200
T1C2.800
%
G90
M71
T1
X47244Y78994
X47244Y4064
X3810Y3810
X3810Y78994
T2
X43561Y39370
X41148Y13259
X25019Y47498
X43561Y47498
X43561Y50038
X38608Y31801
X25019Y39370
X43561Y36830
X25019Y50038
X25019Y36830
X30480Y31801
X27940Y31801
X30480Y13259
X38608Y13259
X41148Y31801
X27940Y13259
T3
X31496Y61698
X31496Y64698
X31496Y67698
X31496Y70698
X31496Y73698
X40084Y61698
X40084Y64698
X40084Y67698
X40084Y73698
X40084Y70698
X31496Y58698
X31496Y55698
X31496Y52698
X31496Y49698
X31496Y46698
X28496Y73698
X28496Y70698
X28496Y67698
X28496Y64698
X28496Y61698
X28496Y58698
X28496Y55698
X28496Y52698
X28496Y49698
X28496Y46698
X37084Y46698
X37084Y49698
X37084Y52698
X37084Y55698
X37084Y58698
X37084Y61698
X37084Y64698
X37084Y67698
X37084Y70698
X37084Y73698
X40084Y46698
X40084Y49698
X40084Y52698
X40084Y55698
X40084Y58698
T4
X41024Y43698
X27556Y76698
X27556Y43698
X41024Y76698
T5
X19050Y68326
X19050Y70866
X19050Y73406
X3810Y73406
X3810Y70866
X3810Y68326
X3810Y65786
X3810Y63246
X3810Y60706
X3810Y58166
X3810Y55626
X3810Y53086
X16510Y60706
X11430Y60706
X8890Y60706
X13970Y60706
X6350Y60706
X6350Y17526
X6350Y22606
X3810Y48006
X6350Y27686
X15875Y21336
X15875Y23876
X15875Y26416
X15875Y28956
X15875Y31496
X6350Y25146
X19050Y20066
X19050Y22606
X19050Y25146
X19050Y27686
X19050Y30226
X19050Y32766
X19050Y35306
X19050Y37846
X19050Y40386
X19050Y42926
X19050Y45466
X19050Y48006
X3810Y45466
X3810Y42926
X3810Y40386
X3810Y37846
X3810Y35306
X3810Y32766
X3810Y30226
X3810Y27686
X3810Y25146
X3810Y22606
X19050Y17526
X3810Y20066
X3810Y17526
X19050Y14986
X3810Y14986
X19050Y50546
X3810Y50546
X19050Y53086
X19050Y55626
X19050Y58166
X19050Y60706
X19050Y63246
X19050Y65786
T6
X18796Y3608
X18796Y10108
T7
X45544Y16146
X45544Y20146
X45544Y22146
X45544Y24146
X45544Y26146
X45544Y28146
X45544Y30146
X45544Y32146
X45544Y34146
X23544Y34146
X23544Y32146
X23544Y30146
X23544Y28146
X23544Y26146
X23544Y24146
X23544Y22146
X23544Y20146
X23544Y18146
X23544Y16146
X45544Y18146
T8
X22352Y46482
X31242Y43180
X25146Y34290
X30988Y34036
X26162Y45720
X32004Y41958
X12126Y37592
X12126Y35560
X12126Y33528
X13142Y28448
X13142Y26416
X13142Y22352
X13142Y24384
X22418Y52070
X39608Y8018
X25908Y53086
X29972Y49022
X29972Y44704
M30