M48
;GenerationSoftware,Autodesk,EAGLE,8.7.1*%
;CreationDate,2020-01-05T08:13:59Z*%
FMAT,2
ICI,OFF
METRIC,TZ,000.000
T13C0.300
T12C0.350
T11C0.800
T10C0.813
T9C0.965
T8C1.000
T7C1.020
T6C1.090
T5C1.200
T4C1.300
T3C1.500
T2C2.800
T1C5.000
%
G90
M71
T1
X102290Y95250
X109290Y95250
T2
X5080Y5080
X5080Y95250
X154940Y5080
X154940Y95250
T3
X133600Y39720
X145800Y82200
X133600Y85440
X133600Y24480
X133600Y36480
X145800Y24480
X145800Y36480
X131600Y45720
X133600Y51720
X145800Y39720
X145800Y51720
X131600Y60960
X133600Y54960
X145800Y70200
X133600Y66960
X145800Y54960
X145800Y66960
X131600Y91440
X133600Y97440
X145800Y85440
X145800Y97440
X131600Y30480
X131600Y76200
X133600Y70200
X133600Y82200
T4
X129540Y4445
X121840Y4445
X116840Y4445
X109140Y4445
X104140Y4445
X142240Y4445
X134540Y4445
X3810Y87630
X3810Y82630
X3810Y74930
X3810Y69930
X147240Y4445
T5
X12319Y94234
X76581Y86106
X76581Y83566
X58039Y86106
X76581Y94234
X58039Y94234
X76581Y96774
X58039Y83566
X12319Y83566
X58039Y96774
X30861Y86106
X30861Y83566
X30861Y96774
X12319Y86106
X35179Y83566
X30861Y94234
X35179Y96774
X53721Y86106
X53721Y83566
X35179Y86106
X53721Y94234
X35179Y94234
X53721Y96774
X12319Y96774
T6
X156210Y75160
X156210Y81160
X156210Y84160
X156210Y87160
X16551Y3175
X64746Y3175
X67746Y3175
X70746Y3175
X73746Y3175
X76746Y3175
X13551Y6175
X16551Y6175
X19551Y6175
X22551Y6175
X25551Y6175
X28551Y6175
X31551Y6175
X34551Y6175
X37551Y6175
X40551Y6175
X13551Y3175
X19551Y3175
X22551Y3175
X25551Y3175
X28551Y3175
X31551Y3175
X34551Y3175
X40551Y3175
X153210Y60160
X153210Y63160
X153210Y66160
X153210Y69160
X153210Y72160
X37551Y3175
X153210Y75160
X153210Y78160
X153210Y81160
X153210Y84160
X153210Y87160
X156210Y60160
X156210Y63160
X156210Y66160
X156210Y78160
X156210Y69160
X156210Y72160
X61746Y3175
X58746Y3175
X55746Y3175
X52746Y3175
X49746Y3175
X76746Y6175
X73746Y6175
X70746Y6175
X67746Y6175
X64746Y6175
X61746Y6175
X58746Y6175
X55746Y6175
X52746Y6175
X49746Y6175
T7
X152270Y90160
X152270Y57160
X43551Y7115
X10551Y7115
X79746Y7115
X46746Y7115
T8
X128270Y71875
X128270Y80525
X128270Y95765
X128270Y87115
X128270Y65285
X128270Y56635
X128270Y50045
X128270Y41395
X128270Y34805
X128270Y26155
T9
X82550Y29210
X82550Y26670
X82550Y24130
X82550Y21590
X82550Y19050
X82550Y16510
X82550Y13970
X82550Y11430
X97790Y6350
X82550Y8890
X82550Y6350
X97790Y3810
X82550Y3810
X97790Y39370
X82550Y39370
X97790Y41910
X97790Y44450
X97790Y46990
X97790Y49530
X97790Y52070
X97790Y54610
X97790Y57150
X97790Y59690
X97790Y62230
X82550Y62230
X82550Y59690
X82550Y57150
X82550Y54610
X82550Y52070
X82550Y49530
X82550Y46990
X82550Y44450
X82550Y41910
X95250Y49530
X90170Y49530
X87630Y49530
X92710Y49530
X85090Y49530
X85090Y6350
X85090Y11430
X85090Y13970
X85090Y16510
X94615Y10160
X94615Y12700
X94615Y15240
X94615Y17780
X94615Y20320
X97790Y8890
X97790Y11430
X97790Y13970
X97790Y16510
X97790Y19050
X97790Y21590
X97790Y24130
X97790Y26670
X97790Y29210
X97790Y31750
X97790Y34290
X97790Y36830
X82550Y36830
X82550Y34290
X82550Y31750
T10
X119380Y95250
X119380Y87630
X116840Y87630
X116840Y34290
X119380Y34290
X122555Y91440
X119380Y26670
X116840Y26670
X116840Y49530
X119380Y49530
X119380Y41910
X116840Y41910
X116840Y64770
X119380Y64770
X119380Y57150
X116840Y57150
X116840Y80010
X119380Y80010
X119380Y72390
X116840Y72390
X124460Y62230
X124460Y74930
X122555Y76200
X124460Y77470
X116840Y95250
X103391Y48654
X103391Y46114
X103391Y58382
X103391Y60922
X124460Y29210
X124460Y90170
X124460Y92710
X122555Y30480
X124460Y31750
X124460Y44450
X122555Y45720
X124460Y46990
X124460Y59690
X122555Y60960
T11
X92155Y88470
X90155Y88470
X88155Y88470
X106155Y88470
X104155Y88470
X102155Y88470
X100155Y88470
X98155Y88470
X88155Y66470
X96155Y88470
X94155Y88470
X90155Y66470
X104155Y66470
X92155Y66470
X94155Y66470
X96155Y66470
X98155Y66470
X100155Y66470
X102155Y66470
X106155Y66470
T12
X50800Y12916
X58166Y14158
X14478Y14158
X17272Y19050
X61148Y17145
X61214Y19939
X46251Y19939
X44069Y19939
X38034Y17018
X38227Y19939
X20127Y17145
X20066Y19939
X111091Y16355
X143637Y16510
X91440Y24064
X89281Y24064
X87122Y24064
X84963Y24064
X111506Y17879
X130556Y17168
X112415Y17992
X147828Y13081
X139418Y15240
X133223Y15085
X126746Y15852
X122174Y15494
X122301Y14351
X134874Y14351
X147828Y14351
X114173Y15748
X43561Y17018
X109347Y13208
X125575Y41910
X125575Y72390
X114300Y44770
X125575Y57150
X114300Y60010
X63185Y17526
X58166Y12258
X43815Y18796
X155194Y16129
X145415Y11811
X132715Y11811
X119761Y11811
X106807Y11732
X125575Y26035
X114300Y75250
X86233Y91059
X83820Y89281
X83566Y73406
X7747Y29053
X125575Y87630
X107950Y78740
X117856Y18034
X107950Y73660
X114300Y90490
X44224Y9019
X34671Y14285
X155194Y19619
X51562Y11557
X91694Y12319
X91875Y19431
X99060Y22733
X109982Y20066
X117856Y19304
X130429Y19304
X143383Y19304
X96012Y11430
X109474Y14351
T13
X16510Y14158
X20447Y10033
X105131Y15517
X24064Y17399
M30