M48
;GenerationSoftware,Autodesk,EAGLE,9.0.1*%
;CreationDate,2018-11-25T02:53:33Z*%
FMAT,2
ICI,OFF
METRIC,TZ,000.000
T9C0.300
T8C0.350
T7C0.400
T6C0.600
T5C0.813
T4C0.965
T3C1.016
T2C1.200
T1C3.048
%
G90
M71
T1
X17272Y17272
X71628Y17272
X17272Y71628
X71628Y71628
T2
X12700Y63048
X12700Y66548
X47300Y83820
X50800Y83820
X38410Y83820
X41910Y83820
T3
X48260Y6096
X48260Y8636
X50800Y6096
X50800Y8636
X11684Y27178
X11684Y24638
X11684Y22098
X11684Y19558
X29464Y12700
X29464Y10160
X29464Y7620
X11684Y29718
X71120Y66040
X71120Y63500
X53340Y6096
X55880Y62484
X55880Y59944
X53340Y62484
X53340Y59944
X50800Y62484
X6096Y42672
X50800Y59944
X48260Y62484
X48260Y59944
X45720Y62484
X45720Y59944
X43180Y62484
X43180Y59944
X40640Y62484
X40640Y59944
X38100Y62484
X38100Y59944
X35560Y62484
X35560Y59944
X33020Y62484
X33020Y59944
X55880Y8636
X55880Y6096
X80264Y55372
X82804Y55372
X80264Y52832
X82804Y52832
X53340Y8636
X82804Y50292
X80264Y47752
X82804Y47752
X80264Y45212
X82804Y45212
X80264Y42672
X82804Y42672
X80264Y40132
X82804Y40132
X80264Y37592
X82804Y37592
X80264Y35052
X82804Y35052
X80264Y32512
X82804Y32512
X6096Y55372
X8636Y55372
X6096Y52832
X8636Y52832
X6096Y50292
X8636Y50292
X6096Y47752
X8636Y47752
X6096Y45212
X8636Y45212
X80264Y50292
X8636Y42672
X6096Y40132
X8636Y40132
X6096Y37592
X8636Y37592
X6096Y35052
X8636Y35052
X6096Y32512
X8636Y32512
X33020Y6096
X33020Y8636
X35560Y6096
X35560Y8636
X38100Y6096
X38100Y8636
X40640Y6096
X40640Y8636
X43180Y6096
X43180Y8636
X45720Y6096
X45720Y8636
T4
X26670Y24765
X29210Y24765
X31750Y24765
X60960Y24130
X22860Y36830
X20320Y21590
X22860Y21590
X25400Y21590
X27940Y21590
X30480Y21590
X33020Y21590
X35560Y21590
X38100Y21590
X40640Y21590
X43180Y21590
X45720Y21590
X48260Y21590
X48260Y36830
X45720Y36830
X43180Y36830
X40640Y36830
X38100Y36830
X35560Y36830
X33020Y36830
X30480Y36830
X27940Y36830
X25400Y36830
X17780Y21590
X20320Y36830
X17780Y36830
X15240Y21590
X15240Y36830
X50800Y21590
X50800Y36830
X53340Y21590
X55880Y21590
X58420Y21590
X60960Y21590
X63500Y21590
X66040Y21590
X68580Y21590
X71120Y21590
X73660Y21590
X73660Y36830
X71120Y36830
X68580Y36830
X66040Y36830
X63500Y36830
X60960Y36830
X58420Y36830
X55880Y36830
X53340Y36830
X60960Y29210
X60960Y31750
X60960Y26670
X60960Y34290
X17780Y34290
X22860Y34290
X25400Y34290
X27940Y34290
X21590Y24765
X24130Y24765
T5
X66040Y41910
X60960Y41910
X63500Y41910
T6
X51308Y27686
X55118Y41656
X62738Y56388
X47498Y26670
T7
X65024Y46482
X69342Y48768
X62992Y60452
X61976Y62992
T8
X18542Y32512
X22098Y28956
X17780Y26416
X20574Y30480
X17018Y27940
X14986Y29972
X61214Y17780
X56896Y18796
X65532Y17018
X36576Y35052
X38608Y33528
X49022Y16256
X33274Y29972
X27178Y31496
X62992Y17780
X55372Y12954
X51308Y12446
X35560Y30480
X65278Y18288
X37592Y11430
T9
X57658Y13462
X26162Y18542
X30988Y69342
X23622Y68326
X38100Y67310
X14224Y20066
X13462Y55372
X43688Y68072
X34036Y73406
X25654Y74422
X38354Y70612
X71374Y27432
X39878Y65786
X32512Y70866
X57658Y17272
X77216Y27432
M30