G04 EAGLE Gerber X2 export*
%TF.Part,Single*%
%TF.FileFunction,Other,Solder side*%
%TF.FilePolarity,Positive*%
%TF.GenerationSoftware,Autodesk,EAGLE,9.0.1*%
%TF.CreationDate,2018-11-25T02:53:11Z*%
G75*
%MOMM*%
%FSLAX34Y34*%
%LPD*%
%AMOC8*
5,1,8,0,0,1.08239X$1,22.5*%
G01*
%ADD10C,1.879600*%
%ADD11R,2.032000X2.032000*%
%ADD12C,2.032000*%
%ADD13C,1.473200*%
%ADD14C,1.320800*%
%ADD15C,0.706400*%
%ADD16C,0.254000*%
%ADD17C,0.203200*%
%ADD18C,0.756400*%
%ADD19C,0.304800*%
%ADD20C,0.609600*%
%ADD21C,0.406400*%
%ADD22C,0.806400*%
%ADD23C,1.006400*%
%ADD24C,0.812800*%
%ADD25C,1.016000*%

G36*
X567457Y28971D02*
X567457Y28971D01*
X567581Y28977D01*
X567643Y28992D01*
X567680Y28997D01*
X567725Y29013D01*
X567818Y29036D01*
X601060Y40177D01*
X601102Y40197D01*
X601191Y40228D01*
X637698Y56348D01*
X637739Y56371D01*
X637824Y56410D01*
X672688Y75830D01*
X672726Y75857D01*
X672808Y75904D01*
X705732Y98457D01*
X705767Y98488D01*
X705844Y98542D01*
X736546Y124036D01*
X736578Y124070D01*
X736650Y124131D01*
X764869Y152350D01*
X764898Y152387D01*
X764964Y152454D01*
X780952Y171708D01*
X780983Y171755D01*
X781020Y171797D01*
X781078Y171901D01*
X781142Y172000D01*
X781162Y172053D01*
X781189Y172102D01*
X781221Y172216D01*
X781262Y172327D01*
X781268Y172383D01*
X781284Y172437D01*
X781301Y172658D01*
X781303Y172673D01*
X781303Y172676D01*
X781303Y172681D01*
X781303Y269748D01*
X781300Y269774D01*
X781302Y269800D01*
X781280Y269947D01*
X781263Y270094D01*
X781255Y270119D01*
X781251Y270145D01*
X781196Y270283D01*
X781146Y270422D01*
X781132Y270444D01*
X781122Y270469D01*
X781037Y270590D01*
X780957Y270715D01*
X780938Y270733D01*
X780923Y270755D01*
X780813Y270854D01*
X780706Y270957D01*
X780684Y270971D01*
X780664Y270988D01*
X780534Y271060D01*
X780407Y271136D01*
X780382Y271144D01*
X780359Y271157D01*
X780216Y271197D01*
X780075Y271242D01*
X780049Y271244D01*
X780024Y271252D01*
X779780Y271271D01*
X776894Y271271D01*
X776768Y271257D01*
X776642Y271250D01*
X776595Y271237D01*
X776547Y271231D01*
X776428Y271189D01*
X776307Y271154D01*
X776265Y271130D01*
X776219Y271114D01*
X776113Y271045D01*
X776003Y270984D01*
X775956Y270944D01*
X775926Y270925D01*
X775893Y270890D01*
X775816Y270825D01*
X775024Y270033D01*
X773166Y269263D01*
X771154Y269263D01*
X769296Y270033D01*
X767873Y271456D01*
X767103Y273314D01*
X767103Y275326D01*
X767873Y277184D01*
X769296Y278607D01*
X771154Y279377D01*
X773166Y279377D01*
X775024Y278607D01*
X775816Y277815D01*
X775915Y277736D01*
X776009Y277652D01*
X776052Y277628D01*
X776089Y277598D01*
X776204Y277544D01*
X776314Y277483D01*
X776361Y277470D01*
X776405Y277449D01*
X776528Y277423D01*
X776650Y277388D01*
X776710Y277383D01*
X776745Y277376D01*
X776793Y277377D01*
X776894Y277369D01*
X779780Y277369D01*
X779806Y277372D01*
X779832Y277370D01*
X779979Y277392D01*
X780126Y277409D01*
X780151Y277417D01*
X780177Y277421D01*
X780315Y277476D01*
X780454Y277526D01*
X780476Y277540D01*
X780501Y277550D01*
X780622Y277635D01*
X780747Y277715D01*
X780765Y277734D01*
X780787Y277749D01*
X780886Y277859D01*
X780989Y277966D01*
X781003Y277988D01*
X781020Y278008D01*
X781092Y278138D01*
X781168Y278265D01*
X781176Y278290D01*
X781189Y278313D01*
X781229Y278456D01*
X781274Y278597D01*
X781276Y278623D01*
X781284Y278648D01*
X781303Y278892D01*
X781303Y548640D01*
X781300Y548666D01*
X781302Y548692D01*
X781280Y548839D01*
X781263Y548986D01*
X781255Y549011D01*
X781251Y549037D01*
X781196Y549175D01*
X781146Y549314D01*
X781132Y549336D01*
X781122Y549361D01*
X781037Y549482D01*
X780957Y549607D01*
X780938Y549625D01*
X780923Y549647D01*
X780813Y549746D01*
X780706Y549849D01*
X780684Y549863D01*
X780664Y549880D01*
X780534Y549952D01*
X780407Y550028D01*
X780382Y550036D01*
X780359Y550049D01*
X780216Y550089D01*
X780075Y550134D01*
X780049Y550136D01*
X780024Y550144D01*
X779780Y550163D01*
X679247Y550163D01*
X640105Y589305D01*
X640085Y589321D01*
X640067Y589341D01*
X639948Y589430D01*
X639832Y589522D01*
X639808Y589533D01*
X639787Y589548D01*
X639651Y589607D01*
X639517Y589671D01*
X639491Y589676D01*
X639467Y589686D01*
X639321Y589713D01*
X639176Y589744D01*
X639150Y589743D01*
X639124Y589748D01*
X638976Y589740D01*
X638828Y589738D01*
X638802Y589732D01*
X638776Y589730D01*
X638634Y589689D01*
X638490Y589653D01*
X638466Y589641D01*
X638441Y589634D01*
X638312Y589561D01*
X638180Y589493D01*
X638160Y589476D01*
X638137Y589464D01*
X637951Y589305D01*
X631829Y583183D01*
X436880Y583183D01*
X436754Y583169D01*
X436628Y583162D01*
X436582Y583149D01*
X436534Y583143D01*
X436415Y583101D01*
X436293Y583066D01*
X436251Y583042D01*
X436206Y583026D01*
X436099Y582957D01*
X435989Y582896D01*
X435943Y582856D01*
X435913Y582837D01*
X435879Y582802D01*
X435803Y582737D01*
X372303Y519237D01*
X372224Y519138D01*
X372140Y519044D01*
X372116Y519002D01*
X372086Y518964D01*
X372032Y518850D01*
X371971Y518739D01*
X371958Y518693D01*
X371937Y518649D01*
X371911Y518526D01*
X371876Y518404D01*
X371872Y518343D01*
X371864Y518308D01*
X371865Y518260D01*
X371857Y518160D01*
X371857Y396240D01*
X371871Y396114D01*
X371878Y395988D01*
X371891Y395942D01*
X371897Y395894D01*
X371939Y395775D01*
X371974Y395653D01*
X371998Y395611D01*
X372014Y395566D01*
X372083Y395459D01*
X372144Y395349D01*
X372184Y395303D01*
X372203Y395273D01*
X372238Y395239D01*
X372303Y395163D01*
X385003Y382463D01*
X385102Y382384D01*
X385196Y382300D01*
X385238Y382276D01*
X385276Y382246D01*
X385390Y382192D01*
X385501Y382131D01*
X385547Y382118D01*
X385591Y382097D01*
X385714Y382071D01*
X385836Y382036D01*
X385897Y382032D01*
X385932Y382024D01*
X385980Y382025D01*
X386080Y382017D01*
X565789Y382017D01*
X569977Y377829D01*
X569977Y235712D01*
X569980Y235686D01*
X569978Y235660D01*
X570000Y235513D01*
X570017Y235366D01*
X570025Y235341D01*
X570029Y235315D01*
X570084Y235177D01*
X570134Y235038D01*
X570148Y235016D01*
X570158Y234991D01*
X570243Y234870D01*
X570323Y234745D01*
X570342Y234727D01*
X570357Y234705D01*
X570467Y234606D01*
X570574Y234503D01*
X570596Y234489D01*
X570616Y234472D01*
X570746Y234400D01*
X570873Y234324D01*
X570898Y234316D01*
X570921Y234303D01*
X571064Y234263D01*
X571205Y234218D01*
X571231Y234216D01*
X571256Y234208D01*
X571500Y234189D01*
X600643Y234189D01*
X600792Y234206D01*
X600942Y234218D01*
X600965Y234226D01*
X600989Y234229D01*
X601130Y234279D01*
X601273Y234325D01*
X601294Y234338D01*
X601317Y234346D01*
X601443Y234428D01*
X601572Y234505D01*
X601589Y234522D01*
X601610Y234535D01*
X601714Y234643D01*
X601822Y234748D01*
X601835Y234768D01*
X601852Y234786D01*
X601929Y234915D01*
X602010Y235041D01*
X602018Y235064D01*
X602031Y235085D01*
X602077Y235228D01*
X602127Y235370D01*
X602130Y235394D01*
X602137Y235417D01*
X602149Y235566D01*
X602166Y235716D01*
X602163Y235740D01*
X602165Y235764D01*
X602143Y235913D01*
X602125Y236062D01*
X602116Y236090D01*
X602113Y236109D01*
X602096Y236153D01*
X602050Y236295D01*
X600709Y239531D01*
X600709Y243068D01*
X602063Y246336D01*
X604564Y248837D01*
X607832Y250191D01*
X611368Y250191D01*
X614636Y248837D01*
X617137Y246336D01*
X618491Y243068D01*
X618491Y239532D01*
X617137Y236264D01*
X614636Y233763D01*
X611368Y232409D01*
X607831Y232409D01*
X605775Y233261D01*
X605726Y233275D01*
X605681Y233297D01*
X605559Y233323D01*
X605440Y233357D01*
X605389Y233359D01*
X605340Y233370D01*
X605216Y233368D01*
X605092Y233374D01*
X605042Y233365D01*
X604992Y233364D01*
X604871Y233334D01*
X604749Y233311D01*
X604703Y233291D01*
X604654Y233279D01*
X604543Y233222D01*
X604429Y233172D01*
X604389Y233142D01*
X604344Y233119D01*
X604249Y233039D01*
X604149Y232965D01*
X604117Y232926D01*
X604078Y232893D01*
X604005Y232793D01*
X603924Y232699D01*
X603901Y232654D01*
X603871Y232613D01*
X603822Y232499D01*
X603765Y232388D01*
X603753Y232339D01*
X603733Y232293D01*
X603711Y232171D01*
X603681Y232050D01*
X603681Y232000D01*
X603672Y231950D01*
X603678Y231826D01*
X603676Y231702D01*
X603687Y231652D01*
X603690Y231602D01*
X603724Y231483D01*
X603751Y231361D01*
X603772Y231316D01*
X603786Y231267D01*
X603847Y231159D01*
X603900Y231046D01*
X603932Y231007D01*
X603956Y230963D01*
X604115Y230777D01*
X604117Y230774D01*
X604118Y230774D01*
X609655Y225237D01*
X609754Y225158D01*
X609848Y225074D01*
X609890Y225050D01*
X609928Y225020D01*
X610042Y224966D01*
X610153Y224905D01*
X610199Y224892D01*
X610243Y224871D01*
X610366Y224845D01*
X610488Y224810D01*
X610549Y224805D01*
X610584Y224798D01*
X610632Y224799D01*
X610732Y224791D01*
X611368Y224791D01*
X614636Y223437D01*
X617137Y220936D01*
X618491Y217668D01*
X618491Y214132D01*
X617137Y210864D01*
X614636Y208363D01*
X611368Y207009D01*
X607832Y207009D01*
X604564Y208363D01*
X602063Y210864D01*
X600709Y214132D01*
X600709Y217668D01*
X602063Y220936D01*
X602620Y221494D01*
X602637Y221514D01*
X602657Y221531D01*
X602745Y221651D01*
X602837Y221767D01*
X602848Y221790D01*
X602864Y221812D01*
X602922Y221947D01*
X602986Y222082D01*
X602991Y222108D01*
X603002Y222132D01*
X603028Y222278D01*
X603059Y222423D01*
X603059Y222449D01*
X603064Y222475D01*
X603056Y222623D01*
X603053Y222771D01*
X603047Y222797D01*
X603046Y222823D01*
X603005Y222965D01*
X602968Y223109D01*
X602956Y223132D01*
X602949Y223158D01*
X602877Y223287D01*
X602809Y223419D01*
X602792Y223439D01*
X602779Y223462D01*
X602620Y223648D01*
X598623Y227645D01*
X598524Y227724D01*
X598430Y227808D01*
X598388Y227832D01*
X598350Y227862D01*
X598236Y227916D01*
X598125Y227977D01*
X598079Y227990D01*
X598035Y228011D01*
X597912Y228037D01*
X597790Y228072D01*
X597729Y228077D01*
X597694Y228084D01*
X597646Y228083D01*
X597546Y228091D01*
X571500Y228091D01*
X571474Y228088D01*
X571448Y228090D01*
X571301Y228068D01*
X571154Y228051D01*
X571129Y228043D01*
X571103Y228039D01*
X570965Y227984D01*
X570826Y227934D01*
X570804Y227920D01*
X570779Y227910D01*
X570658Y227825D01*
X570533Y227745D01*
X570515Y227726D01*
X570493Y227711D01*
X570394Y227601D01*
X570291Y227494D01*
X570277Y227472D01*
X570260Y227452D01*
X570188Y227322D01*
X570112Y227195D01*
X570104Y227170D01*
X570091Y227147D01*
X570051Y227004D01*
X570006Y226863D01*
X570004Y226837D01*
X569996Y226812D01*
X569977Y226568D01*
X569977Y205740D01*
X569991Y205614D01*
X569998Y205488D01*
X570011Y205442D01*
X570017Y205394D01*
X570059Y205275D01*
X570094Y205153D01*
X570118Y205111D01*
X570134Y205066D01*
X570203Y204959D01*
X570264Y204849D01*
X570304Y204803D01*
X570323Y204773D01*
X570358Y204739D01*
X570423Y204663D01*
X580137Y194949D01*
X580137Y194067D01*
X580151Y193941D01*
X580158Y193815D01*
X580171Y193768D01*
X580177Y193720D01*
X580219Y193601D01*
X580254Y193480D01*
X580278Y193438D01*
X580294Y193392D01*
X580363Y193286D01*
X580424Y193176D01*
X580464Y193129D01*
X580483Y193099D01*
X580518Y193066D01*
X580583Y192989D01*
X584911Y188661D01*
X585010Y188582D01*
X585104Y188498D01*
X585147Y188474D01*
X585184Y188444D01*
X585299Y188390D01*
X585409Y188329D01*
X585456Y188316D01*
X585500Y188295D01*
X585623Y188269D01*
X585745Y188234D01*
X585806Y188229D01*
X585840Y188222D01*
X585888Y188223D01*
X585989Y188215D01*
X641238Y188215D01*
X643321Y186132D01*
X643321Y186131D01*
X645288Y184164D01*
X645406Y184071D01*
X645521Y183974D01*
X645542Y183963D01*
X645561Y183947D01*
X645697Y183883D01*
X645831Y183815D01*
X645854Y183809D01*
X645876Y183799D01*
X646023Y183767D01*
X646169Y183731D01*
X646193Y183730D01*
X646217Y183725D01*
X646367Y183728D01*
X646518Y183726D01*
X646541Y183731D01*
X646565Y183731D01*
X646711Y183768D01*
X646858Y183800D01*
X646880Y183810D01*
X646903Y183816D01*
X647038Y183885D01*
X647173Y183950D01*
X647192Y183965D01*
X647213Y183976D01*
X647328Y184073D01*
X647445Y184167D01*
X647460Y184186D01*
X647479Y184202D01*
X647568Y184323D01*
X647661Y184441D01*
X647674Y184467D01*
X647686Y184482D01*
X647705Y184525D01*
X647773Y184658D01*
X648281Y185886D01*
X649774Y187379D01*
X651724Y188187D01*
X653144Y188187D01*
X653270Y188201D01*
X653396Y188208D01*
X653442Y188221D01*
X653490Y188227D01*
X653609Y188269D01*
X653731Y188304D01*
X653773Y188328D01*
X653819Y188344D01*
X653925Y188413D01*
X654035Y188474D01*
X654081Y188514D01*
X654111Y188533D01*
X654145Y188568D01*
X654221Y188633D01*
X669605Y204017D01*
X669684Y204116D01*
X669768Y204210D01*
X669792Y204252D01*
X669822Y204290D01*
X669876Y204404D01*
X669937Y204515D01*
X669950Y204561D01*
X669971Y204605D01*
X669997Y204728D01*
X670032Y204850D01*
X670037Y204911D01*
X670044Y204946D01*
X670043Y204994D01*
X670051Y205094D01*
X670051Y209300D01*
X670040Y209400D01*
X670038Y209501D01*
X670020Y209573D01*
X670011Y209647D01*
X669978Y209741D01*
X669953Y209839D01*
X669919Y209905D01*
X669894Y209975D01*
X669839Y210059D01*
X669793Y210148D01*
X669745Y210205D01*
X669705Y210268D01*
X669633Y210337D01*
X669568Y210414D01*
X669508Y210458D01*
X669454Y210510D01*
X669368Y210561D01*
X669287Y210621D01*
X669219Y210650D01*
X669155Y210689D01*
X669059Y210719D01*
X668967Y210759D01*
X668894Y210772D01*
X668823Y210795D01*
X668723Y210803D01*
X668624Y210821D01*
X668550Y210817D01*
X668476Y210823D01*
X668376Y210808D01*
X668276Y210803D01*
X668205Y210782D01*
X668131Y210771D01*
X668038Y210734D01*
X667941Y210706D01*
X667876Y210670D01*
X667807Y210642D01*
X667725Y210585D01*
X667637Y210536D01*
X667561Y210471D01*
X667521Y210443D01*
X667497Y210417D01*
X667451Y210378D01*
X665436Y208363D01*
X662168Y207009D01*
X658632Y207009D01*
X655364Y208363D01*
X652863Y210864D01*
X651509Y214132D01*
X651509Y217668D01*
X652863Y220936D01*
X655364Y223437D01*
X658632Y224791D01*
X662168Y224791D01*
X665436Y223437D01*
X667451Y221422D01*
X667529Y221360D01*
X667602Y221290D01*
X667666Y221252D01*
X667724Y221206D01*
X667815Y221163D01*
X667901Y221111D01*
X667972Y221089D01*
X668039Y221057D01*
X668137Y221036D01*
X668233Y221005D01*
X668307Y220999D01*
X668380Y220984D01*
X668480Y220985D01*
X668580Y220977D01*
X668654Y220988D01*
X668728Y220990D01*
X668825Y221014D01*
X668925Y221029D01*
X668994Y221056D01*
X669066Y221075D01*
X669155Y221121D01*
X669249Y221158D01*
X669310Y221200D01*
X669376Y221234D01*
X669452Y221299D01*
X669535Y221357D01*
X669585Y221412D01*
X669641Y221460D01*
X669701Y221541D01*
X669768Y221615D01*
X669804Y221680D01*
X669849Y221740D01*
X669888Y221832D01*
X669937Y221920D01*
X669957Y221992D01*
X669987Y222060D01*
X670004Y222159D01*
X670032Y222256D01*
X670040Y222356D01*
X670048Y222403D01*
X670046Y222439D01*
X670051Y222500D01*
X670051Y237483D01*
X709027Y276459D01*
X709028Y276460D01*
X709030Y276461D01*
X709136Y276596D01*
X709244Y276732D01*
X709244Y276733D01*
X709246Y276735D01*
X709357Y276953D01*
X709453Y277184D01*
X710876Y278607D01*
X712734Y279377D01*
X714746Y279377D01*
X716604Y278607D01*
X718027Y277184D01*
X718797Y275326D01*
X718797Y273314D01*
X718027Y271456D01*
X716604Y270033D01*
X714746Y269263D01*
X712734Y269263D01*
X712124Y269516D01*
X712063Y269541D01*
X711989Y269562D01*
X711919Y269593D01*
X711822Y269610D01*
X711728Y269637D01*
X711651Y269641D01*
X711576Y269654D01*
X711478Y269649D01*
X711380Y269654D01*
X711304Y269640D01*
X711228Y269636D01*
X711134Y269609D01*
X711037Y269591D01*
X710967Y269561D01*
X710893Y269540D01*
X710807Y269492D01*
X710717Y269453D01*
X710656Y269407D01*
X710589Y269370D01*
X710496Y269291D01*
X710486Y269284D01*
X710474Y269272D01*
X710437Y269245D01*
X710425Y269230D01*
X710403Y269211D01*
X676595Y235403D01*
X676516Y235304D01*
X676432Y235210D01*
X676408Y235168D01*
X676378Y235130D01*
X676324Y235016D01*
X676263Y234905D01*
X676250Y234859D01*
X676229Y234815D01*
X676203Y234692D01*
X676168Y234570D01*
X676163Y234509D01*
X676156Y234474D01*
X676157Y234426D01*
X676149Y234326D01*
X676149Y222500D01*
X676160Y222400D01*
X676162Y222299D01*
X676180Y222227D01*
X676189Y222153D01*
X676222Y222059D01*
X676247Y221961D01*
X676281Y221895D01*
X676306Y221825D01*
X676361Y221741D01*
X676407Y221652D01*
X676455Y221595D01*
X676495Y221532D01*
X676567Y221463D01*
X676632Y221386D01*
X676692Y221342D01*
X676746Y221290D01*
X676832Y221239D01*
X676913Y221179D01*
X676981Y221150D01*
X677045Y221111D01*
X677141Y221081D01*
X677233Y221041D01*
X677306Y221028D01*
X677377Y221005D01*
X677477Y220997D01*
X677576Y220979D01*
X677650Y220983D01*
X677724Y220977D01*
X677824Y220992D01*
X677924Y220997D01*
X677995Y221018D01*
X678069Y221029D01*
X678162Y221066D01*
X678259Y221094D01*
X678324Y221130D01*
X678393Y221158D01*
X678475Y221215D01*
X678563Y221264D01*
X678639Y221329D01*
X678679Y221357D01*
X678703Y221383D01*
X678749Y221422D01*
X680764Y223437D01*
X684032Y224791D01*
X687568Y224791D01*
X690836Y223437D01*
X693337Y220936D01*
X694691Y217668D01*
X694691Y214132D01*
X693337Y210864D01*
X690836Y208363D01*
X687568Y207009D01*
X684032Y207009D01*
X680764Y208363D01*
X678749Y210378D01*
X678671Y210440D01*
X678598Y210510D01*
X678534Y210548D01*
X678476Y210594D01*
X678385Y210637D01*
X678299Y210689D01*
X678228Y210711D01*
X678161Y210743D01*
X678063Y210764D01*
X677967Y210795D01*
X677893Y210801D01*
X677820Y210816D01*
X677720Y210815D01*
X677620Y210823D01*
X677546Y210812D01*
X677472Y210810D01*
X677375Y210786D01*
X677275Y210771D01*
X677206Y210744D01*
X677134Y210725D01*
X677045Y210679D01*
X676951Y210642D01*
X676890Y210600D01*
X676824Y210566D01*
X676748Y210501D01*
X676665Y210443D01*
X676615Y210388D01*
X676559Y210340D01*
X676499Y210259D01*
X676432Y210185D01*
X676396Y210120D01*
X676351Y210060D01*
X676312Y209968D01*
X676263Y209880D01*
X676243Y209808D01*
X676213Y209740D01*
X676196Y209641D01*
X676168Y209544D01*
X676160Y209444D01*
X676152Y209397D01*
X676154Y209361D01*
X676149Y209300D01*
X676149Y201937D01*
X658533Y184321D01*
X658454Y184222D01*
X658370Y184128D01*
X658346Y184086D01*
X658316Y184048D01*
X658262Y183934D01*
X658201Y183823D01*
X658188Y183777D01*
X658167Y183733D01*
X658141Y183610D01*
X658106Y183488D01*
X658101Y183427D01*
X658094Y183392D01*
X658095Y183344D01*
X658087Y183244D01*
X658087Y181824D01*
X657279Y179874D01*
X655779Y178374D01*
X655677Y178308D01*
X655569Y178248D01*
X655531Y178214D01*
X655489Y178187D01*
X655402Y178097D01*
X655310Y178014D01*
X655282Y177973D01*
X655247Y177936D01*
X655183Y177829D01*
X655112Y177727D01*
X655094Y177680D01*
X655068Y177637D01*
X655030Y177519D01*
X654984Y177403D01*
X654977Y177353D01*
X654962Y177305D01*
X654952Y177181D01*
X654934Y177058D01*
X654938Y177008D01*
X654934Y176958D01*
X654952Y176835D01*
X654962Y176711D01*
X654978Y176663D01*
X654985Y176613D01*
X655031Y176498D01*
X655070Y176379D01*
X655096Y176336D01*
X655114Y176289D01*
X655185Y176187D01*
X655249Y176081D01*
X655284Y176045D01*
X655313Y176003D01*
X655405Y175920D01*
X655492Y175831D01*
X655534Y175803D01*
X655572Y175770D01*
X655681Y175709D01*
X655785Y175642D01*
X655833Y175626D01*
X655877Y175601D01*
X655997Y175567D01*
X656114Y175526D01*
X656164Y175520D01*
X656212Y175506D01*
X656356Y175495D01*
X658326Y174679D01*
X659819Y173186D01*
X660627Y171236D01*
X660627Y169124D01*
X659819Y167174D01*
X658326Y165681D01*
X656376Y164873D01*
X654264Y164873D01*
X652314Y165681D01*
X650821Y167174D01*
X650013Y169124D01*
X650013Y170903D01*
X649999Y171029D01*
X649992Y171155D01*
X649979Y171202D01*
X649973Y171250D01*
X649931Y171369D01*
X649896Y171490D01*
X649872Y171532D01*
X649856Y171578D01*
X649787Y171684D01*
X649726Y171794D01*
X649686Y171841D01*
X649667Y171871D01*
X649632Y171904D01*
X649567Y171981D01*
X639369Y182179D01*
X639270Y182258D01*
X639176Y182342D01*
X639133Y182366D01*
X639096Y182396D01*
X638981Y182450D01*
X638871Y182511D01*
X638824Y182524D01*
X638780Y182545D01*
X638657Y182571D01*
X638535Y182606D01*
X638474Y182611D01*
X638440Y182618D01*
X638392Y182617D01*
X638291Y182625D01*
X635945Y182625D01*
X635796Y182608D01*
X635646Y182596D01*
X635623Y182588D01*
X635599Y182585D01*
X635458Y182535D01*
X635314Y182489D01*
X635293Y182476D01*
X635271Y182468D01*
X635145Y182386D01*
X635015Y182309D01*
X634998Y182292D01*
X634978Y182279D01*
X634873Y182171D01*
X634766Y182066D01*
X634752Y182046D01*
X634736Y182028D01*
X634658Y181899D01*
X634577Y181773D01*
X634569Y181750D01*
X634557Y181729D01*
X634511Y181586D01*
X634461Y181444D01*
X634458Y181420D01*
X634451Y181397D01*
X634439Y181248D01*
X634422Y181098D01*
X634425Y181074D01*
X634423Y181050D01*
X634445Y180901D01*
X634463Y180752D01*
X634471Y180724D01*
X634474Y180705D01*
X634492Y180661D01*
X634538Y180519D01*
X635227Y178856D01*
X635227Y176744D01*
X634419Y174794D01*
X632926Y173301D01*
X630976Y172493D01*
X629753Y172493D01*
X629743Y172492D01*
X629732Y172493D01*
X629569Y172472D01*
X629407Y172453D01*
X629397Y172450D01*
X629387Y172449D01*
X629233Y172391D01*
X629079Y172336D01*
X629070Y172330D01*
X629060Y172327D01*
X628924Y172236D01*
X628786Y172147D01*
X628779Y172139D01*
X628770Y172134D01*
X628596Y171961D01*
X587105Y123555D01*
X587040Y123458D01*
X586967Y123366D01*
X586942Y123314D01*
X586910Y123266D01*
X586868Y123157D01*
X586818Y123051D01*
X586800Y122979D01*
X586786Y122940D01*
X586780Y122896D01*
X586771Y122862D01*
X586252Y122491D01*
X586206Y122449D01*
X586154Y122415D01*
X586015Y122278D01*
X585993Y122257D01*
X585988Y122251D01*
X585980Y122243D01*
X585563Y121756D01*
X585499Y121744D01*
X585383Y121730D01*
X585329Y121710D01*
X585272Y121699D01*
X585165Y121652D01*
X585055Y121612D01*
X584991Y121574D01*
X584954Y121557D01*
X584918Y121530D01*
X584888Y121512D01*
X584258Y121617D01*
X584196Y121620D01*
X584136Y121632D01*
X583941Y121633D01*
X583910Y121635D01*
X583902Y121633D01*
X583891Y121633D01*
X583252Y121584D01*
X583249Y121586D01*
X583242Y121592D01*
X583230Y121599D01*
X583198Y121621D01*
X583106Y121693D01*
X583054Y121718D01*
X583006Y121750D01*
X582897Y121792D01*
X582791Y121842D01*
X582719Y121860D01*
X582680Y121874D01*
X582636Y121880D01*
X582554Y121901D01*
X581910Y122008D01*
X581759Y122016D01*
X581608Y122028D01*
X581585Y122025D01*
X581562Y122026D01*
X581413Y121999D01*
X581263Y121976D01*
X581242Y121968D01*
X581219Y121964D01*
X581080Y121904D01*
X580939Y121848D01*
X580920Y121835D01*
X580900Y121826D01*
X580778Y121735D01*
X580653Y121649D01*
X580638Y121632D01*
X580619Y121618D01*
X580521Y121503D01*
X580420Y121390D01*
X580409Y121370D01*
X580394Y121353D01*
X580325Y121218D01*
X580251Y121085D01*
X580245Y121063D01*
X580234Y121043D01*
X580198Y120896D01*
X580156Y120750D01*
X580154Y120722D01*
X580150Y120705D01*
X580149Y120658D01*
X580137Y120506D01*
X580137Y56443D01*
X565719Y39623D01*
X320772Y39623D01*
X311403Y51334D01*
X311403Y129540D01*
X311403Y129543D01*
X311403Y129545D01*
X311383Y129719D01*
X311363Y129886D01*
X311363Y129889D01*
X311362Y129891D01*
X311304Y130052D01*
X311246Y130214D01*
X311244Y130217D01*
X311244Y130219D01*
X311152Y130360D01*
X311057Y130507D01*
X311055Y130509D01*
X311054Y130511D01*
X310883Y130686D01*
X306459Y134558D01*
X306320Y134653D01*
X306173Y134755D01*
X306172Y134755D01*
X306011Y134819D01*
X305849Y134883D01*
X305848Y134883D01*
X305666Y134910D01*
X305504Y134934D01*
X305503Y134934D01*
X305342Y134920D01*
X305157Y134905D01*
X305156Y134905D01*
X305011Y134858D01*
X304825Y134798D01*
X304825Y134797D01*
X304824Y134797D01*
X304680Y134711D01*
X304526Y134618D01*
X304526Y134617D01*
X304405Y134500D01*
X304276Y134375D01*
X304276Y134374D01*
X304191Y134242D01*
X304088Y134082D01*
X304088Y134081D01*
X304037Y133938D01*
X303972Y133753D01*
X303971Y133753D01*
X303971Y133752D01*
X303953Y133587D01*
X303933Y133407D01*
X303933Y133406D01*
X303952Y133240D01*
X303973Y133061D01*
X303974Y133060D01*
X303974Y133058D01*
X304049Y132828D01*
X305563Y129173D01*
X305563Y124827D01*
X303900Y120813D01*
X300827Y117740D01*
X297028Y116167D01*
X296936Y116115D01*
X296840Y116073D01*
X296784Y116031D01*
X296724Y115997D01*
X296646Y115926D01*
X296562Y115863D01*
X296517Y115810D01*
X296465Y115763D01*
X296405Y115676D01*
X296338Y115596D01*
X296307Y115534D01*
X296267Y115476D01*
X296229Y115378D01*
X296181Y115285D01*
X296165Y115217D01*
X296139Y115152D01*
X296124Y115048D01*
X296099Y114946D01*
X296099Y114876D01*
X296089Y114807D01*
X296097Y114702D01*
X296096Y114597D01*
X296112Y114529D01*
X296117Y114460D01*
X296150Y114360D01*
X296173Y114257D01*
X296203Y114195D01*
X296225Y114128D01*
X296279Y114038D01*
X296325Y113944D01*
X296368Y113889D01*
X296404Y113830D01*
X296478Y113754D01*
X296544Y113673D01*
X296598Y113630D01*
X296647Y113580D01*
X296736Y113523D01*
X296819Y113458D01*
X296882Y113429D01*
X296940Y113392D01*
X297039Y113356D01*
X297135Y113312D01*
X297225Y113290D01*
X297269Y113275D01*
X297307Y113271D01*
X297373Y113255D01*
X297436Y113245D01*
X299223Y112664D01*
X300897Y111811D01*
X302418Y110706D01*
X303746Y109378D01*
X304851Y107857D01*
X305704Y106183D01*
X306285Y104396D01*
X306325Y104139D01*
X295656Y104139D01*
X295630Y104136D01*
X295604Y104138D01*
X295457Y104116D01*
X295310Y104099D01*
X295285Y104091D01*
X295259Y104087D01*
X295122Y104032D01*
X294982Y103982D01*
X294960Y103968D01*
X294935Y103958D01*
X294814Y103873D01*
X294689Y103793D01*
X294671Y103774D01*
X294649Y103759D01*
X294635Y103743D01*
X294550Y103825D01*
X294527Y103839D01*
X294508Y103856D01*
X294378Y103928D01*
X294251Y104004D01*
X294226Y104012D01*
X294203Y104025D01*
X294060Y104065D01*
X293919Y104110D01*
X293893Y104112D01*
X293868Y104120D01*
X293624Y104139D01*
X282955Y104139D01*
X282995Y104396D01*
X283576Y106183D01*
X284429Y107857D01*
X285534Y109378D01*
X286862Y110706D01*
X288383Y111811D01*
X290057Y112664D01*
X291844Y113245D01*
X291907Y113255D01*
X292009Y113283D01*
X292112Y113302D01*
X292176Y113330D01*
X292243Y113348D01*
X292335Y113399D01*
X292432Y113441D01*
X292488Y113482D01*
X292549Y113516D01*
X292627Y113586D01*
X292711Y113649D01*
X292756Y113702D01*
X292808Y113748D01*
X292869Y113834D01*
X292937Y113915D01*
X292968Y113977D01*
X293008Y114034D01*
X293047Y114131D01*
X293095Y114225D01*
X293112Y114292D01*
X293138Y114357D01*
X293154Y114461D01*
X293180Y114563D01*
X293181Y114633D01*
X293191Y114701D01*
X293183Y114806D01*
X293185Y114912D01*
X293170Y114980D01*
X293164Y115049D01*
X293133Y115149D01*
X293110Y115252D01*
X293080Y115315D01*
X293059Y115381D01*
X293006Y115472D01*
X292961Y115567D01*
X292917Y115621D01*
X292882Y115681D01*
X292809Y115757D01*
X292743Y115839D01*
X292689Y115882D01*
X292640Y115933D01*
X292552Y115990D01*
X292470Y116055D01*
X292387Y116097D01*
X292348Y116123D01*
X292312Y116136D01*
X292252Y116167D01*
X288453Y117740D01*
X285380Y120813D01*
X283717Y124827D01*
X283717Y129173D01*
X284019Y129901D01*
X284019Y129902D01*
X284059Y130040D01*
X284115Y130236D01*
X284115Y130237D01*
X284121Y130360D01*
X284132Y130585D01*
X284105Y130732D01*
X284069Y130927D01*
X284069Y130928D01*
X284009Y131067D01*
X283930Y131247D01*
X283930Y131248D01*
X283824Y131391D01*
X283722Y131527D01*
X283541Y131692D01*
X269338Y142617D01*
X269251Y142669D01*
X269169Y142730D01*
X269102Y142759D01*
X269039Y142796D01*
X268942Y142827D01*
X268849Y142868D01*
X268777Y142881D01*
X268708Y142903D01*
X268606Y142911D01*
X268506Y142930D01*
X268433Y142926D01*
X268360Y142932D01*
X268259Y142917D01*
X268157Y142912D01*
X268088Y142891D01*
X268016Y142881D01*
X267921Y142843D01*
X267823Y142815D01*
X267759Y142779D01*
X267691Y142753D01*
X267608Y142695D01*
X267518Y142645D01*
X267444Y142582D01*
X267405Y142554D01*
X267380Y142527D01*
X267332Y142486D01*
X260543Y135697D01*
X260464Y135598D01*
X260380Y135504D01*
X260356Y135462D01*
X260326Y135424D01*
X260272Y135310D01*
X260211Y135199D01*
X260198Y135153D01*
X260177Y135109D01*
X260151Y134986D01*
X260116Y134864D01*
X260112Y134803D01*
X260104Y134768D01*
X260105Y134720D01*
X260097Y134620D01*
X260097Y66040D01*
X260103Y65983D01*
X260101Y65925D01*
X260123Y65810D01*
X260137Y65694D01*
X260156Y65640D01*
X260167Y65583D01*
X260215Y65476D01*
X260254Y65366D01*
X260285Y65317D01*
X260309Y65265D01*
X260433Y65089D01*
X260443Y65073D01*
X260446Y65070D01*
X260450Y65065D01*
X273150Y49825D01*
X273165Y49810D01*
X273177Y49793D01*
X273291Y49690D01*
X273402Y49584D01*
X273420Y49574D01*
X273436Y49560D01*
X273570Y49485D01*
X273702Y49408D01*
X273722Y49401D01*
X273741Y49391D01*
X273888Y49349D01*
X274035Y49304D01*
X274056Y49302D01*
X274076Y49296D01*
X274320Y49277D01*
X291521Y49277D01*
X309889Y32950D01*
X309897Y32944D01*
X309904Y32936D01*
X310039Y32844D01*
X310174Y32749D01*
X310183Y32746D01*
X310192Y32740D01*
X310417Y32644D01*
X321182Y29036D01*
X321303Y29010D01*
X321422Y28976D01*
X321487Y28971D01*
X321523Y28964D01*
X321570Y28964D01*
X321666Y28957D01*
X567334Y28957D01*
X567457Y28971D01*
G37*
G36*
X561367Y41151D02*
X561367Y41151D01*
X561393Y41149D01*
X561567Y41171D01*
X561741Y41189D01*
X561766Y41197D01*
X561793Y41200D01*
X561958Y41256D01*
X562126Y41307D01*
X562149Y41320D01*
X562174Y41328D01*
X562326Y41415D01*
X562480Y41499D01*
X562500Y41516D01*
X562523Y41529D01*
X562776Y41744D01*
X575476Y54444D01*
X575493Y54464D01*
X575514Y54482D01*
X575621Y54620D01*
X575731Y54755D01*
X575744Y54779D01*
X575760Y54800D01*
X575838Y54957D01*
X575920Y55111D01*
X575928Y55136D01*
X575940Y55161D01*
X575985Y55330D01*
X576035Y55497D01*
X576037Y55523D01*
X576044Y55549D01*
X576071Y55880D01*
X576071Y93980D01*
X576070Y93989D01*
X576071Y93997D01*
X576069Y94013D01*
X576071Y94033D01*
X576049Y94207D01*
X576031Y94381D01*
X576024Y94406D01*
X576020Y94433D01*
X575965Y94598D01*
X575913Y94766D01*
X575900Y94789D01*
X575892Y94814D01*
X575805Y94966D01*
X575721Y95120D01*
X575704Y95140D01*
X575691Y95163D01*
X575476Y95416D01*
X567856Y103036D01*
X567836Y103053D01*
X567818Y103074D01*
X567680Y103181D01*
X567545Y103291D01*
X567521Y103304D01*
X567500Y103320D01*
X567343Y103398D01*
X567189Y103480D01*
X567164Y103488D01*
X567140Y103500D01*
X566970Y103545D01*
X566803Y103595D01*
X566777Y103597D01*
X566751Y103604D01*
X566420Y103631D01*
X488521Y103631D01*
X481496Y110656D01*
X481476Y110673D01*
X481458Y110694D01*
X481320Y110801D01*
X481185Y110911D01*
X481161Y110924D01*
X481140Y110940D01*
X480983Y111018D01*
X480829Y111100D01*
X480804Y111108D01*
X480779Y111120D01*
X480610Y111165D01*
X480443Y111215D01*
X480417Y111217D01*
X480391Y111224D01*
X480060Y111251D01*
X381217Y111251D01*
X381191Y111249D01*
X381164Y111251D01*
X380991Y111229D01*
X380817Y111211D01*
X380791Y111203D01*
X380765Y111200D01*
X380599Y111145D01*
X380432Y111093D01*
X380408Y111080D01*
X380383Y111072D01*
X380232Y110985D01*
X380078Y110901D01*
X380057Y110884D01*
X380034Y110871D01*
X379781Y110656D01*
X378926Y109801D01*
X376976Y108993D01*
X374864Y108993D01*
X372914Y109801D01*
X371421Y111294D01*
X370613Y113244D01*
X370613Y115356D01*
X371421Y117306D01*
X372914Y118799D01*
X374864Y119607D01*
X376976Y119607D01*
X378926Y118799D01*
X379781Y117944D01*
X379802Y117927D01*
X379819Y117906D01*
X379957Y117799D01*
X380093Y117689D01*
X380116Y117676D01*
X380137Y117660D01*
X380294Y117582D01*
X380448Y117500D01*
X380474Y117492D01*
X380498Y117480D01*
X380667Y117435D01*
X380834Y117385D01*
X380861Y117383D01*
X380887Y117376D01*
X381217Y117349D01*
X469900Y117349D01*
X469909Y117350D01*
X469918Y117349D01*
X470111Y117370D01*
X470301Y117389D01*
X470309Y117391D01*
X470318Y117392D01*
X470503Y117451D01*
X470686Y117507D01*
X470693Y117511D01*
X470702Y117514D01*
X470870Y117607D01*
X471040Y117699D01*
X471046Y117704D01*
X471054Y117709D01*
X471201Y117833D01*
X471349Y117956D01*
X471354Y117963D01*
X471361Y117969D01*
X471481Y118121D01*
X471601Y118270D01*
X471605Y118278D01*
X471611Y118285D01*
X471699Y118458D01*
X471787Y118627D01*
X471789Y118636D01*
X471793Y118644D01*
X471845Y118830D01*
X471898Y119014D01*
X471899Y119023D01*
X471901Y119032D01*
X471915Y119225D01*
X471931Y119416D01*
X471930Y119424D01*
X471931Y119433D01*
X471906Y119626D01*
X471884Y119815D01*
X471881Y119824D01*
X471880Y119833D01*
X471819Y120015D01*
X471759Y120198D01*
X471755Y120206D01*
X471752Y120214D01*
X471656Y120381D01*
X471561Y120549D01*
X471556Y120556D01*
X471551Y120563D01*
X471336Y120816D01*
X387516Y204636D01*
X387496Y204653D01*
X387478Y204674D01*
X387340Y204781D01*
X387205Y204891D01*
X387181Y204904D01*
X387160Y204920D01*
X387003Y204998D01*
X386849Y205080D01*
X386824Y205088D01*
X386800Y205100D01*
X386630Y205145D01*
X386463Y205195D01*
X386437Y205197D01*
X386411Y205204D01*
X386080Y205231D01*
X298021Y205231D01*
X294131Y209121D01*
X294131Y221416D01*
X294129Y221442D01*
X294131Y221469D01*
X294109Y221643D01*
X294091Y221816D01*
X294084Y221842D01*
X294080Y221869D01*
X294025Y222034D01*
X293973Y222201D01*
X293960Y222225D01*
X293952Y222250D01*
X293865Y222402D01*
X293781Y222555D01*
X293764Y222576D01*
X293751Y222599D01*
X293536Y222852D01*
X283812Y232576D01*
X283791Y232593D01*
X283774Y232614D01*
X283636Y232721D01*
X283501Y232831D01*
X283477Y232844D01*
X283456Y232860D01*
X283299Y232938D01*
X283145Y233020D01*
X283119Y233028D01*
X283095Y233040D01*
X282926Y233085D01*
X282759Y233135D01*
X282732Y233137D01*
X282707Y233144D01*
X282376Y233171D01*
X204041Y233171D01*
X178954Y258258D01*
X178934Y258275D01*
X178916Y258296D01*
X178778Y258403D01*
X178643Y258513D01*
X178619Y258526D01*
X178598Y258542D01*
X178441Y258620D01*
X178287Y258702D01*
X178262Y258710D01*
X178237Y258722D01*
X178068Y258767D01*
X177901Y258817D01*
X177875Y258819D01*
X177849Y258826D01*
X177518Y258853D01*
X176744Y258853D01*
X174794Y259661D01*
X173301Y261154D01*
X172493Y263104D01*
X172493Y263878D01*
X172491Y263905D01*
X172493Y263931D01*
X172471Y264105D01*
X172453Y264279D01*
X172446Y264304D01*
X172442Y264331D01*
X172387Y264496D01*
X172335Y264664D01*
X172322Y264687D01*
X172314Y264712D01*
X172227Y264864D01*
X172143Y265018D01*
X172126Y265038D01*
X172113Y265061D01*
X171898Y265314D01*
X167131Y270081D01*
X167131Y274103D01*
X167129Y274129D01*
X167131Y274156D01*
X167109Y274329D01*
X167091Y274503D01*
X167083Y274529D01*
X167080Y274555D01*
X167025Y274721D01*
X166973Y274888D01*
X166960Y274912D01*
X166952Y274937D01*
X166865Y275088D01*
X166781Y275242D01*
X166764Y275263D01*
X166751Y275286D01*
X166536Y275539D01*
X165681Y276394D01*
X164873Y278344D01*
X164873Y280456D01*
X165681Y282406D01*
X166536Y283261D01*
X166553Y283282D01*
X166574Y283299D01*
X166681Y283437D01*
X166791Y283573D01*
X166804Y283596D01*
X166820Y283617D01*
X166898Y283774D01*
X166980Y283928D01*
X166988Y283954D01*
X167000Y283978D01*
X167045Y284147D01*
X167095Y284314D01*
X167097Y284341D01*
X167104Y284367D01*
X167131Y284697D01*
X167131Y307776D01*
X167130Y307785D01*
X167131Y307794D01*
X167110Y307987D01*
X167091Y308176D01*
X167089Y308185D01*
X167088Y308194D01*
X167029Y308378D01*
X166973Y308561D01*
X166969Y308569D01*
X166966Y308578D01*
X166873Y308746D01*
X166781Y308915D01*
X166776Y308922D01*
X166771Y308930D01*
X166647Y309077D01*
X166524Y309225D01*
X166517Y309230D01*
X166511Y309237D01*
X166359Y309357D01*
X166210Y309477D01*
X166202Y309481D01*
X166195Y309487D01*
X166022Y309574D01*
X165853Y309662D01*
X165844Y309665D01*
X165836Y309669D01*
X165650Y309721D01*
X165466Y309774D01*
X165457Y309775D01*
X165448Y309777D01*
X165255Y309791D01*
X165064Y309807D01*
X165056Y309806D01*
X165047Y309806D01*
X164854Y309782D01*
X164665Y309760D01*
X164656Y309757D01*
X164647Y309756D01*
X164465Y309695D01*
X164282Y309635D01*
X164274Y309631D01*
X164266Y309628D01*
X164099Y309532D01*
X163931Y309437D01*
X163924Y309431D01*
X163917Y309427D01*
X163664Y309212D01*
X155762Y301310D01*
X155745Y301289D01*
X155724Y301272D01*
X155617Y301134D01*
X155507Y300999D01*
X155494Y300975D01*
X155478Y300954D01*
X155400Y300797D01*
X155318Y300643D01*
X155310Y300617D01*
X155298Y300593D01*
X155253Y300424D01*
X155203Y300257D01*
X155201Y300230D01*
X155194Y300205D01*
X155167Y299874D01*
X155167Y298664D01*
X154359Y296714D01*
X152866Y295221D01*
X152083Y294897D01*
X150916Y294413D01*
X148804Y294413D01*
X146854Y295221D01*
X145361Y296714D01*
X144553Y298664D01*
X144553Y300776D01*
X145361Y302726D01*
X146854Y304219D01*
X148804Y305027D01*
X150014Y305027D01*
X150040Y305029D01*
X150067Y305027D01*
X150241Y305049D01*
X150414Y305067D01*
X150440Y305074D01*
X150467Y305078D01*
X150632Y305133D01*
X150799Y305185D01*
X150823Y305198D01*
X150848Y305206D01*
X151000Y305293D01*
X151153Y305377D01*
X151174Y305394D01*
X151197Y305407D01*
X151450Y305622D01*
X166536Y320708D01*
X166553Y320729D01*
X166574Y320746D01*
X166681Y320884D01*
X166791Y321019D01*
X166804Y321043D01*
X166820Y321064D01*
X166898Y321221D01*
X166980Y321375D01*
X166988Y321401D01*
X167000Y321425D01*
X167045Y321594D01*
X167095Y321761D01*
X167097Y321788D01*
X167104Y321813D01*
X167131Y322144D01*
X167131Y375920D01*
X167129Y375947D01*
X167131Y375973D01*
X167109Y376147D01*
X167091Y376321D01*
X167084Y376346D01*
X167080Y376373D01*
X167025Y376538D01*
X166973Y376706D01*
X166960Y376729D01*
X166952Y376754D01*
X166865Y376906D01*
X166781Y377060D01*
X166764Y377080D01*
X166751Y377103D01*
X166536Y377356D01*
X161456Y382436D01*
X161436Y382453D01*
X161418Y382474D01*
X161280Y382581D01*
X161145Y382691D01*
X161121Y382704D01*
X161100Y382720D01*
X160943Y382798D01*
X160789Y382880D01*
X160764Y382888D01*
X160740Y382900D01*
X160570Y382945D01*
X160403Y382995D01*
X160377Y382997D01*
X160351Y383004D01*
X160020Y383031D01*
X142240Y383031D01*
X142213Y383029D01*
X142187Y383031D01*
X142013Y383009D01*
X141839Y382991D01*
X141814Y382984D01*
X141787Y382980D01*
X141622Y382925D01*
X141454Y382873D01*
X141431Y382860D01*
X141406Y382852D01*
X141254Y382765D01*
X141100Y382681D01*
X141080Y382664D01*
X141057Y382651D01*
X140804Y382436D01*
X138264Y379896D01*
X138247Y379876D01*
X138226Y379858D01*
X138119Y379720D01*
X138009Y379585D01*
X137996Y379561D01*
X137980Y379540D01*
X137902Y379383D01*
X137820Y379229D01*
X137812Y379204D01*
X137800Y379179D01*
X137755Y379010D01*
X137705Y378843D01*
X137703Y378817D01*
X137696Y378791D01*
X137669Y378460D01*
X137669Y217099D01*
X137679Y216996D01*
X137679Y216893D01*
X137699Y216797D01*
X137709Y216699D01*
X137739Y216600D01*
X137760Y216499D01*
X137804Y216388D01*
X137827Y216314D01*
X137854Y216263D01*
X137883Y216191D01*
X140106Y211744D01*
X140176Y211634D01*
X140237Y211520D01*
X140283Y211465D01*
X140321Y211404D01*
X140411Y211310D01*
X140493Y211210D01*
X140549Y211165D01*
X140599Y211112D01*
X140705Y211038D01*
X140806Y210956D01*
X140870Y210923D01*
X140929Y210881D01*
X141048Y210829D01*
X141162Y210769D01*
X141232Y210749D01*
X141298Y210720D01*
X141425Y210693D01*
X141549Y210656D01*
X141621Y210650D01*
X141691Y210635D01*
X141821Y210633D01*
X141950Y210622D01*
X142022Y210630D01*
X142094Y210629D01*
X142221Y210652D01*
X142350Y210667D01*
X142419Y210689D01*
X142490Y210702D01*
X142610Y210750D01*
X142733Y210790D01*
X142796Y210825D01*
X142863Y210852D01*
X142972Y210923D01*
X143085Y210986D01*
X143140Y211033D01*
X143200Y211073D01*
X143292Y211164D01*
X143391Y211248D01*
X143435Y211305D01*
X143487Y211356D01*
X143559Y211463D01*
X143639Y211565D01*
X143671Y211630D01*
X143712Y211689D01*
X143762Y211809D01*
X143820Y211925D01*
X143839Y211994D01*
X143866Y212061D01*
X143892Y212188D01*
X143926Y212313D01*
X143931Y212385D01*
X143945Y212456D01*
X143945Y212586D01*
X143954Y212715D01*
X143944Y212786D01*
X143944Y212859D01*
X143918Y212986D01*
X143901Y213114D01*
X143876Y213193D01*
X143864Y213253D01*
X143829Y213341D01*
X143800Y213430D01*
X143509Y214132D01*
X143509Y217669D01*
X144863Y220936D01*
X147364Y223437D01*
X150631Y224791D01*
X154169Y224791D01*
X157436Y223437D01*
X159937Y220936D01*
X161291Y217669D01*
X161291Y214131D01*
X159937Y210864D01*
X157436Y208363D01*
X155482Y207553D01*
X154169Y207009D01*
X150632Y207009D01*
X147110Y208468D01*
X147106Y208469D01*
X147102Y208471D01*
X146913Y208527D01*
X146724Y208584D01*
X146720Y208585D01*
X146716Y208586D01*
X146518Y208604D01*
X146324Y208623D01*
X146319Y208622D01*
X146315Y208623D01*
X146116Y208601D01*
X145923Y208581D01*
X145919Y208580D01*
X145914Y208579D01*
X145727Y208520D01*
X145539Y208461D01*
X145535Y208459D01*
X145531Y208458D01*
X145357Y208362D01*
X145186Y208268D01*
X145182Y208265D01*
X145178Y208263D01*
X145027Y208134D01*
X144877Y208009D01*
X144875Y208005D01*
X144871Y208002D01*
X144748Y207846D01*
X144626Y207694D01*
X144624Y207690D01*
X144622Y207686D01*
X144532Y207511D01*
X144443Y207336D01*
X144441Y207331D01*
X144439Y207327D01*
X144386Y207136D01*
X144333Y206948D01*
X144333Y206944D01*
X144331Y206940D01*
X144317Y206738D01*
X144302Y206547D01*
X144302Y206543D01*
X144302Y206538D01*
X144327Y206340D01*
X144350Y206147D01*
X144352Y206143D01*
X144352Y206139D01*
X144414Y205954D01*
X144477Y205765D01*
X144479Y205761D01*
X144481Y205757D01*
X144577Y205589D01*
X144676Y205415D01*
X144679Y205412D01*
X144682Y205408D01*
X144896Y205155D01*
X146527Y203524D01*
X146983Y202423D01*
X146994Y202403D01*
X147001Y202382D01*
X147089Y202225D01*
X147173Y202068D01*
X147188Y202051D01*
X147199Y202031D01*
X147316Y201895D01*
X147430Y201757D01*
X147447Y201743D01*
X147462Y201727D01*
X147603Y201617D01*
X147742Y201504D01*
X147762Y201493D01*
X147780Y201480D01*
X147940Y201400D01*
X148099Y201317D01*
X148120Y201310D01*
X148140Y201300D01*
X148314Y201254D01*
X148485Y201204D01*
X148508Y201202D01*
X148529Y201196D01*
X148860Y201169D01*
X223520Y201169D01*
X223538Y201171D01*
X223556Y201169D01*
X223738Y201190D01*
X223921Y201209D01*
X223938Y201214D01*
X223955Y201216D01*
X224130Y201273D01*
X224306Y201327D01*
X224321Y201335D01*
X224338Y201341D01*
X224498Y201431D01*
X224660Y201519D01*
X224673Y201530D01*
X224689Y201539D01*
X224828Y201659D01*
X224969Y201776D01*
X224980Y201790D01*
X224994Y201802D01*
X225106Y201947D01*
X225221Y202090D01*
X225229Y202106D01*
X225240Y202120D01*
X225322Y202285D01*
X225407Y202447D01*
X225412Y202464D01*
X225420Y202481D01*
X225467Y202659D01*
X225518Y202834D01*
X225520Y202852D01*
X225524Y202869D01*
X225551Y203200D01*
X225551Y206182D01*
X225549Y206205D01*
X225551Y206227D01*
X225529Y206404D01*
X225511Y206583D01*
X225505Y206604D01*
X225502Y206626D01*
X225446Y206796D01*
X225393Y206968D01*
X225383Y206987D01*
X225376Y207009D01*
X225287Y207165D01*
X225201Y207322D01*
X225187Y207339D01*
X225176Y207358D01*
X225058Y207494D01*
X224944Y207631D01*
X224926Y207645D01*
X224912Y207662D01*
X224769Y207771D01*
X224630Y207883D01*
X224610Y207894D01*
X224593Y207907D01*
X224297Y208059D01*
X223564Y208363D01*
X221063Y210864D01*
X219709Y214131D01*
X219709Y217669D01*
X221063Y220936D01*
X223564Y223437D01*
X226831Y224791D01*
X230369Y224791D01*
X233636Y223437D01*
X236137Y220936D01*
X237491Y217669D01*
X237491Y214131D01*
X236137Y210864D01*
X233636Y208363D01*
X232903Y208059D01*
X232883Y208048D01*
X232862Y208042D01*
X232705Y207953D01*
X232548Y207869D01*
X232531Y207855D01*
X232511Y207844D01*
X232375Y207726D01*
X232237Y207612D01*
X232223Y207595D01*
X232206Y207580D01*
X232097Y207439D01*
X231984Y207300D01*
X231973Y207280D01*
X231960Y207262D01*
X231880Y207102D01*
X231797Y206943D01*
X231790Y206922D01*
X231780Y206902D01*
X231734Y206729D01*
X231684Y206557D01*
X231682Y206535D01*
X231676Y206513D01*
X231649Y206182D01*
X231649Y203200D01*
X231651Y203182D01*
X231649Y203164D01*
X231670Y202982D01*
X231689Y202799D01*
X231694Y202782D01*
X231696Y202765D01*
X231753Y202590D01*
X231807Y202414D01*
X231815Y202399D01*
X231821Y202382D01*
X231911Y202222D01*
X231999Y202060D01*
X232010Y202047D01*
X232019Y202031D01*
X232139Y201892D01*
X232256Y201751D01*
X232270Y201740D01*
X232282Y201727D01*
X232427Y201614D01*
X232570Y201499D01*
X232586Y201491D01*
X232600Y201480D01*
X232765Y201398D01*
X232927Y201313D01*
X232944Y201308D01*
X232960Y201300D01*
X233139Y201253D01*
X233314Y201202D01*
X233332Y201200D01*
X233349Y201196D01*
X233680Y201169D01*
X255780Y201169D01*
X263592Y194376D01*
X263713Y194290D01*
X263830Y194198D01*
X263877Y194174D01*
X263920Y194143D01*
X264056Y194083D01*
X264189Y194016D01*
X264240Y194001D01*
X264288Y193980D01*
X264433Y193948D01*
X264577Y193908D01*
X264629Y193904D01*
X264681Y193892D01*
X264830Y193889D01*
X264978Y193878D01*
X265031Y193885D01*
X265084Y193884D01*
X265230Y193910D01*
X265378Y193929D01*
X265428Y193946D01*
X265480Y193955D01*
X265618Y194010D01*
X265759Y194057D01*
X265805Y194083D01*
X265855Y194103D01*
X265979Y194184D01*
X266108Y194258D01*
X266154Y194297D01*
X266193Y194322D01*
X266253Y194381D01*
X266361Y194473D01*
X275756Y203868D01*
X275773Y203889D01*
X275794Y203906D01*
X275901Y204044D01*
X276011Y204179D01*
X276024Y204203D01*
X276040Y204224D01*
X276118Y204381D01*
X276200Y204535D01*
X276208Y204561D01*
X276220Y204585D01*
X276265Y204754D01*
X276315Y204921D01*
X276317Y204948D01*
X276324Y204973D01*
X276351Y205304D01*
X276351Y206182D01*
X276349Y206205D01*
X276351Y206227D01*
X276329Y206404D01*
X276311Y206583D01*
X276305Y206604D01*
X276302Y206626D01*
X276246Y206796D01*
X276193Y206968D01*
X276183Y206987D01*
X276176Y207009D01*
X276087Y207165D01*
X276001Y207322D01*
X275987Y207339D01*
X275976Y207358D01*
X275858Y207494D01*
X275744Y207631D01*
X275726Y207645D01*
X275712Y207662D01*
X275569Y207771D01*
X275430Y207883D01*
X275410Y207894D01*
X275393Y207907D01*
X275097Y208059D01*
X274364Y208363D01*
X271863Y210864D01*
X270509Y214131D01*
X270509Y217669D01*
X271863Y220936D01*
X274364Y223437D01*
X277631Y224791D01*
X281169Y224791D01*
X284436Y223437D01*
X286937Y220936D01*
X288291Y217669D01*
X288291Y214131D01*
X286937Y210864D01*
X284436Y208363D01*
X283703Y208059D01*
X283683Y208048D01*
X283662Y208042D01*
X283505Y207953D01*
X283348Y207869D01*
X283331Y207855D01*
X283311Y207844D01*
X283175Y207726D01*
X283037Y207612D01*
X283023Y207595D01*
X283006Y207580D01*
X282897Y207439D01*
X282784Y207300D01*
X282773Y207280D01*
X282760Y207262D01*
X282680Y207102D01*
X282597Y206943D01*
X282590Y206922D01*
X282580Y206902D01*
X282534Y206729D01*
X282484Y206557D01*
X282482Y206535D01*
X282476Y206513D01*
X282449Y206182D01*
X282449Y201937D01*
X280068Y199556D01*
X271174Y190662D01*
X271118Y190594D01*
X271054Y190532D01*
X270990Y190438D01*
X270919Y190351D01*
X270877Y190273D01*
X270827Y190199D01*
X270783Y190095D01*
X270730Y189995D01*
X270705Y189910D01*
X270670Y189829D01*
X270648Y189718D01*
X270615Y189609D01*
X270607Y189521D01*
X270590Y189434D01*
X270589Y189321D01*
X270579Y189208D01*
X270589Y189120D01*
X270588Y189031D01*
X270610Y188921D01*
X270622Y188808D01*
X270649Y188723D01*
X270666Y188637D01*
X270710Y188532D01*
X270744Y188424D01*
X270787Y188346D01*
X270821Y188265D01*
X270884Y188171D01*
X270939Y188072D01*
X270996Y188004D01*
X271046Y187931D01*
X271144Y187829D01*
X271199Y187765D01*
X271235Y187736D01*
X271277Y187693D01*
X312929Y151475D01*
X312929Y55880D01*
X312940Y55765D01*
X312942Y55649D01*
X312960Y55565D01*
X312969Y55479D01*
X313003Y55369D01*
X313027Y55255D01*
X313062Y55176D01*
X313087Y55094D01*
X313142Y54993D01*
X313188Y54886D01*
X313245Y54802D01*
X313279Y54740D01*
X313321Y54689D01*
X313374Y54611D01*
X323534Y41911D01*
X323631Y41812D01*
X323722Y41707D01*
X323771Y41668D01*
X323815Y41623D01*
X323931Y41545D01*
X324040Y41460D01*
X324096Y41432D01*
X324148Y41396D01*
X324276Y41342D01*
X324401Y41280D01*
X324461Y41264D01*
X324519Y41240D01*
X324655Y41212D01*
X324789Y41176D01*
X324861Y41170D01*
X324913Y41159D01*
X324994Y41159D01*
X325120Y41149D01*
X561340Y41149D01*
X561367Y41151D01*
G37*
%LPC*%
G36*
X535939Y60452D02*
X535939Y60452D01*
X535937Y60470D01*
X535939Y60487D01*
X535918Y60670D01*
X535899Y60852D01*
X535894Y60869D01*
X535892Y60887D01*
X535835Y61062D01*
X535781Y61237D01*
X535773Y61253D01*
X535767Y61270D01*
X535677Y61430D01*
X535589Y61591D01*
X535578Y61605D01*
X535569Y61621D01*
X535449Y61760D01*
X535332Y61901D01*
X535318Y61912D01*
X535306Y61925D01*
X535161Y62038D01*
X535018Y62153D01*
X535002Y62161D01*
X534988Y62172D01*
X534823Y62254D01*
X534661Y62338D01*
X534644Y62343D01*
X534628Y62351D01*
X534449Y62399D01*
X534274Y62450D01*
X534256Y62451D01*
X534239Y62456D01*
X533908Y62483D01*
X532892Y62483D01*
X532874Y62481D01*
X532856Y62483D01*
X532674Y62461D01*
X532491Y62443D01*
X532474Y62438D01*
X532457Y62436D01*
X532282Y62379D01*
X532106Y62325D01*
X532091Y62317D01*
X532074Y62311D01*
X531914Y62221D01*
X531752Y62133D01*
X531739Y62122D01*
X531723Y62113D01*
X531584Y61993D01*
X531443Y61875D01*
X531432Y61862D01*
X531418Y61850D01*
X531306Y61705D01*
X531191Y61562D01*
X531183Y61546D01*
X531172Y61532D01*
X531090Y61367D01*
X531005Y61204D01*
X531000Y61187D01*
X530992Y61171D01*
X530944Y60993D01*
X530894Y60818D01*
X530892Y60800D01*
X530888Y60783D01*
X530861Y60452D01*
X530861Y49275D01*
X530604Y49315D01*
X528817Y49896D01*
X527143Y50749D01*
X525622Y51854D01*
X524294Y53182D01*
X523189Y54703D01*
X522336Y56377D01*
X522098Y57109D01*
X522062Y57191D01*
X522036Y57275D01*
X521982Y57374D01*
X521936Y57478D01*
X521885Y57551D01*
X521843Y57628D01*
X521770Y57715D01*
X521705Y57807D01*
X521641Y57869D01*
X521584Y57937D01*
X521495Y58007D01*
X521413Y58085D01*
X521338Y58132D01*
X521269Y58188D01*
X521168Y58239D01*
X521073Y58299D01*
X520990Y58331D01*
X520911Y58371D01*
X520802Y58402D01*
X520696Y58442D01*
X520608Y58457D01*
X520523Y58481D01*
X520411Y58490D01*
X520299Y58508D01*
X520210Y58505D01*
X520122Y58512D01*
X520010Y58499D01*
X519897Y58495D01*
X519810Y58474D01*
X519722Y58464D01*
X519615Y58428D01*
X519505Y58402D01*
X519424Y58365D01*
X519340Y58337D01*
X519242Y58281D01*
X519139Y58234D01*
X519067Y58182D01*
X518990Y58138D01*
X518905Y58063D01*
X518814Y57997D01*
X518754Y57932D01*
X518687Y57873D01*
X518618Y57784D01*
X518541Y57700D01*
X518495Y57624D01*
X518441Y57554D01*
X518377Y57428D01*
X518333Y57356D01*
X518317Y57313D01*
X518290Y57259D01*
X517260Y54773D01*
X514187Y51700D01*
X512852Y51147D01*
X510173Y50037D01*
X505827Y50037D01*
X501813Y51700D01*
X498740Y54773D01*
X497177Y58547D01*
X497172Y58555D01*
X497170Y58564D01*
X497077Y58733D01*
X496986Y58902D01*
X496981Y58909D01*
X496976Y58917D01*
X496853Y59064D01*
X496730Y59213D01*
X496723Y59218D01*
X496717Y59225D01*
X496567Y59345D01*
X496417Y59466D01*
X496409Y59471D01*
X496402Y59476D01*
X496233Y59563D01*
X496061Y59654D01*
X496052Y59656D01*
X496044Y59660D01*
X495862Y59712D01*
X495674Y59767D01*
X495665Y59767D01*
X495657Y59770D01*
X495466Y59785D01*
X495273Y59801D01*
X495264Y59800D01*
X495256Y59801D01*
X495065Y59778D01*
X494873Y59756D01*
X494865Y59753D01*
X494856Y59752D01*
X494674Y59692D01*
X494490Y59633D01*
X494482Y59628D01*
X494474Y59626D01*
X494306Y59530D01*
X494138Y59437D01*
X494132Y59431D01*
X494124Y59426D01*
X493978Y59299D01*
X493833Y59175D01*
X493827Y59168D01*
X493820Y59162D01*
X493703Y59010D01*
X493584Y58858D01*
X493580Y58850D01*
X493575Y58843D01*
X493423Y58547D01*
X491860Y54773D01*
X488787Y51700D01*
X487452Y51147D01*
X484773Y50037D01*
X480427Y50037D01*
X476413Y51700D01*
X473340Y54773D01*
X471777Y58547D01*
X471772Y58555D01*
X471770Y58564D01*
X471677Y58733D01*
X471586Y58902D01*
X471581Y58909D01*
X471576Y58917D01*
X471453Y59064D01*
X471330Y59213D01*
X471323Y59218D01*
X471317Y59225D01*
X471167Y59345D01*
X471017Y59466D01*
X471009Y59471D01*
X471002Y59476D01*
X470833Y59563D01*
X470661Y59654D01*
X470652Y59656D01*
X470644Y59660D01*
X470462Y59712D01*
X470274Y59767D01*
X470265Y59767D01*
X470257Y59770D01*
X470066Y59785D01*
X469873Y59801D01*
X469864Y59800D01*
X469856Y59801D01*
X469665Y59778D01*
X469473Y59756D01*
X469465Y59753D01*
X469456Y59752D01*
X469274Y59692D01*
X469090Y59633D01*
X469082Y59628D01*
X469074Y59626D01*
X468906Y59530D01*
X468738Y59437D01*
X468732Y59431D01*
X468724Y59426D01*
X468578Y59299D01*
X468433Y59175D01*
X468427Y59168D01*
X468420Y59162D01*
X468303Y59010D01*
X468184Y58858D01*
X468180Y58850D01*
X468175Y58843D01*
X468023Y58547D01*
X466460Y54773D01*
X463387Y51700D01*
X462052Y51147D01*
X459373Y50037D01*
X455027Y50037D01*
X451013Y51700D01*
X447940Y54773D01*
X446377Y58547D01*
X446372Y58555D01*
X446370Y58564D01*
X446277Y58733D01*
X446186Y58902D01*
X446181Y58909D01*
X446176Y58917D01*
X446053Y59064D01*
X445930Y59213D01*
X445923Y59218D01*
X445917Y59225D01*
X445767Y59345D01*
X445617Y59466D01*
X445609Y59471D01*
X445602Y59476D01*
X445433Y59563D01*
X445261Y59654D01*
X445252Y59656D01*
X445244Y59660D01*
X445062Y59712D01*
X444874Y59767D01*
X444865Y59767D01*
X444857Y59770D01*
X444666Y59785D01*
X444473Y59801D01*
X444464Y59800D01*
X444456Y59801D01*
X444265Y59778D01*
X444073Y59756D01*
X444065Y59753D01*
X444056Y59752D01*
X443874Y59692D01*
X443690Y59633D01*
X443682Y59628D01*
X443674Y59626D01*
X443506Y59530D01*
X443338Y59437D01*
X443332Y59431D01*
X443324Y59426D01*
X443178Y59299D01*
X443033Y59175D01*
X443027Y59168D01*
X443020Y59162D01*
X442903Y59010D01*
X442784Y58858D01*
X442780Y58850D01*
X442775Y58843D01*
X442623Y58547D01*
X441060Y54773D01*
X437987Y51700D01*
X436652Y51147D01*
X433973Y50037D01*
X429627Y50037D01*
X425613Y51700D01*
X422540Y54773D01*
X420977Y58547D01*
X420972Y58555D01*
X420970Y58564D01*
X420877Y58733D01*
X420786Y58902D01*
X420781Y58909D01*
X420776Y58917D01*
X420653Y59064D01*
X420530Y59213D01*
X420523Y59218D01*
X420517Y59225D01*
X420367Y59345D01*
X420217Y59466D01*
X420209Y59471D01*
X420202Y59476D01*
X420033Y59563D01*
X419861Y59654D01*
X419852Y59656D01*
X419844Y59660D01*
X419662Y59712D01*
X419474Y59767D01*
X419465Y59767D01*
X419457Y59770D01*
X419266Y59785D01*
X419073Y59801D01*
X419064Y59800D01*
X419056Y59801D01*
X418865Y59778D01*
X418673Y59756D01*
X418665Y59753D01*
X418656Y59752D01*
X418474Y59692D01*
X418290Y59633D01*
X418282Y59628D01*
X418274Y59626D01*
X418106Y59530D01*
X417938Y59437D01*
X417932Y59431D01*
X417924Y59426D01*
X417778Y59299D01*
X417633Y59175D01*
X417627Y59168D01*
X417620Y59162D01*
X417503Y59010D01*
X417384Y58858D01*
X417380Y58850D01*
X417375Y58843D01*
X417223Y58547D01*
X415660Y54773D01*
X412587Y51700D01*
X411252Y51147D01*
X408573Y50037D01*
X404227Y50037D01*
X400213Y51700D01*
X397140Y54773D01*
X395577Y58547D01*
X395572Y58555D01*
X395570Y58564D01*
X395477Y58733D01*
X395386Y58902D01*
X395381Y58909D01*
X395376Y58917D01*
X395253Y59064D01*
X395130Y59213D01*
X395123Y59218D01*
X395117Y59225D01*
X394967Y59345D01*
X394817Y59466D01*
X394809Y59471D01*
X394802Y59476D01*
X394633Y59563D01*
X394461Y59654D01*
X394452Y59656D01*
X394444Y59660D01*
X394262Y59712D01*
X394074Y59767D01*
X394065Y59767D01*
X394057Y59770D01*
X393866Y59785D01*
X393673Y59801D01*
X393664Y59800D01*
X393656Y59801D01*
X393465Y59778D01*
X393273Y59756D01*
X393265Y59753D01*
X393256Y59752D01*
X393074Y59692D01*
X392890Y59633D01*
X392882Y59628D01*
X392874Y59626D01*
X392706Y59530D01*
X392538Y59437D01*
X392532Y59431D01*
X392524Y59426D01*
X392378Y59299D01*
X392233Y59175D01*
X392227Y59168D01*
X392220Y59162D01*
X392103Y59010D01*
X391984Y58858D01*
X391980Y58850D01*
X391975Y58843D01*
X391823Y58547D01*
X390260Y54773D01*
X387187Y51700D01*
X385852Y51147D01*
X383173Y50037D01*
X378827Y50037D01*
X374813Y51700D01*
X371740Y54773D01*
X370177Y58547D01*
X370172Y58555D01*
X370170Y58564D01*
X370077Y58733D01*
X369986Y58902D01*
X369981Y58909D01*
X369976Y58917D01*
X369853Y59064D01*
X369730Y59213D01*
X369723Y59218D01*
X369717Y59225D01*
X369567Y59345D01*
X369417Y59466D01*
X369409Y59471D01*
X369402Y59476D01*
X369233Y59563D01*
X369061Y59654D01*
X369052Y59656D01*
X369044Y59660D01*
X368862Y59712D01*
X368674Y59767D01*
X368665Y59767D01*
X368657Y59770D01*
X368466Y59785D01*
X368273Y59801D01*
X368264Y59800D01*
X368256Y59801D01*
X368065Y59778D01*
X367873Y59756D01*
X367865Y59753D01*
X367856Y59752D01*
X367674Y59692D01*
X367490Y59633D01*
X367482Y59628D01*
X367474Y59626D01*
X367306Y59530D01*
X367138Y59437D01*
X367132Y59431D01*
X367124Y59426D01*
X366978Y59299D01*
X366833Y59175D01*
X366827Y59168D01*
X366820Y59162D01*
X366703Y59010D01*
X366584Y58858D01*
X366580Y58850D01*
X366575Y58843D01*
X366423Y58547D01*
X364860Y54773D01*
X361787Y51700D01*
X360452Y51147D01*
X357773Y50037D01*
X353427Y50037D01*
X349413Y51700D01*
X346340Y54773D01*
X344777Y58547D01*
X344772Y58555D01*
X344770Y58564D01*
X344677Y58733D01*
X344586Y58902D01*
X344581Y58909D01*
X344576Y58917D01*
X344453Y59064D01*
X344330Y59213D01*
X344323Y59218D01*
X344317Y59225D01*
X344167Y59345D01*
X344017Y59466D01*
X344009Y59471D01*
X344002Y59476D01*
X343833Y59563D01*
X343661Y59654D01*
X343652Y59656D01*
X343644Y59660D01*
X343462Y59712D01*
X343274Y59767D01*
X343265Y59767D01*
X343257Y59770D01*
X343066Y59785D01*
X342873Y59801D01*
X342864Y59800D01*
X342856Y59801D01*
X342665Y59778D01*
X342473Y59756D01*
X342465Y59753D01*
X342456Y59752D01*
X342274Y59692D01*
X342090Y59633D01*
X342082Y59628D01*
X342074Y59626D01*
X341906Y59530D01*
X341738Y59437D01*
X341732Y59431D01*
X341724Y59426D01*
X341578Y59299D01*
X341433Y59175D01*
X341427Y59168D01*
X341420Y59162D01*
X341303Y59010D01*
X341184Y58858D01*
X341180Y58850D01*
X341175Y58843D01*
X341023Y58547D01*
X339460Y54773D01*
X336387Y51700D01*
X335052Y51147D01*
X332373Y50037D01*
X328027Y50037D01*
X324013Y51700D01*
X320940Y54773D01*
X319277Y58787D01*
X319277Y63133D01*
X320940Y67147D01*
X324013Y70220D01*
X327769Y71776D01*
X327787Y71783D01*
X327795Y71788D01*
X327804Y71790D01*
X327972Y71882D01*
X328142Y71974D01*
X328149Y71979D01*
X328157Y71984D01*
X328303Y72107D01*
X328453Y72230D01*
X328458Y72237D01*
X328465Y72243D01*
X328585Y72393D01*
X328706Y72543D01*
X328711Y72551D01*
X328716Y72557D01*
X328804Y72729D01*
X328893Y72899D01*
X328896Y72908D01*
X328900Y72916D01*
X328952Y73100D01*
X329007Y73286D01*
X329007Y73294D01*
X329010Y73303D01*
X329025Y73494D01*
X329041Y73687D01*
X329040Y73696D01*
X329041Y73704D01*
X329018Y73895D01*
X328996Y74087D01*
X328993Y74095D01*
X328992Y74104D01*
X328932Y74287D01*
X328873Y74470D01*
X328869Y74478D01*
X328866Y74486D01*
X328770Y74654D01*
X328677Y74822D01*
X328671Y74828D01*
X328666Y74836D01*
X328540Y74981D01*
X328415Y75127D01*
X328408Y75133D01*
X328402Y75140D01*
X328250Y75257D01*
X328098Y75376D01*
X328090Y75380D01*
X328083Y75385D01*
X327787Y75537D01*
X324013Y77100D01*
X320940Y80173D01*
X319277Y84187D01*
X319277Y88533D01*
X320940Y92547D01*
X324013Y95620D01*
X328027Y97283D01*
X332373Y97283D01*
X336387Y95620D01*
X339460Y92547D01*
X341023Y88773D01*
X341028Y88765D01*
X341030Y88756D01*
X341122Y88588D01*
X341214Y88418D01*
X341219Y88411D01*
X341224Y88403D01*
X341347Y88257D01*
X341470Y88107D01*
X341477Y88102D01*
X341483Y88095D01*
X341633Y87975D01*
X341783Y87854D01*
X341791Y87849D01*
X341797Y87844D01*
X341969Y87756D01*
X342139Y87667D01*
X342148Y87664D01*
X342156Y87660D01*
X342340Y87608D01*
X342526Y87553D01*
X342534Y87553D01*
X342543Y87550D01*
X342734Y87535D01*
X342927Y87519D01*
X342936Y87520D01*
X342944Y87519D01*
X343135Y87542D01*
X343327Y87564D01*
X343335Y87567D01*
X343344Y87568D01*
X343527Y87628D01*
X343710Y87687D01*
X343718Y87691D01*
X343726Y87694D01*
X343894Y87790D01*
X344062Y87883D01*
X344068Y87889D01*
X344076Y87894D01*
X344221Y88020D01*
X344367Y88145D01*
X344373Y88152D01*
X344380Y88158D01*
X344497Y88310D01*
X344616Y88462D01*
X344620Y88470D01*
X344625Y88477D01*
X344777Y88773D01*
X346340Y92547D01*
X349413Y95620D01*
X353427Y97283D01*
X357773Y97283D01*
X361787Y95620D01*
X364860Y92547D01*
X366423Y88773D01*
X366428Y88765D01*
X366430Y88756D01*
X366522Y88588D01*
X366614Y88418D01*
X366619Y88411D01*
X366624Y88403D01*
X366747Y88257D01*
X366870Y88107D01*
X366877Y88102D01*
X366883Y88095D01*
X367033Y87975D01*
X367183Y87854D01*
X367191Y87849D01*
X367197Y87844D01*
X367369Y87756D01*
X367539Y87667D01*
X367548Y87664D01*
X367556Y87660D01*
X367740Y87608D01*
X367926Y87553D01*
X367934Y87553D01*
X367943Y87550D01*
X368134Y87535D01*
X368327Y87519D01*
X368336Y87520D01*
X368344Y87519D01*
X368535Y87542D01*
X368727Y87564D01*
X368735Y87567D01*
X368744Y87568D01*
X368927Y87628D01*
X369110Y87687D01*
X369118Y87691D01*
X369126Y87694D01*
X369294Y87790D01*
X369462Y87883D01*
X369468Y87889D01*
X369476Y87894D01*
X369621Y88020D01*
X369767Y88145D01*
X369773Y88152D01*
X369780Y88158D01*
X369897Y88310D01*
X370016Y88462D01*
X370020Y88470D01*
X370025Y88477D01*
X370177Y88773D01*
X371740Y92547D01*
X374813Y95620D01*
X378827Y97283D01*
X383173Y97283D01*
X387187Y95620D01*
X390260Y92547D01*
X391823Y88773D01*
X391828Y88765D01*
X391830Y88756D01*
X391922Y88588D01*
X392014Y88418D01*
X392019Y88411D01*
X392024Y88403D01*
X392147Y88257D01*
X392270Y88107D01*
X392277Y88102D01*
X392283Y88095D01*
X392433Y87975D01*
X392583Y87854D01*
X392591Y87849D01*
X392597Y87844D01*
X392769Y87756D01*
X392939Y87667D01*
X392948Y87664D01*
X392956Y87660D01*
X393140Y87608D01*
X393326Y87553D01*
X393334Y87553D01*
X393343Y87550D01*
X393534Y87535D01*
X393727Y87519D01*
X393736Y87520D01*
X393744Y87519D01*
X393935Y87542D01*
X394127Y87564D01*
X394135Y87567D01*
X394144Y87568D01*
X394327Y87628D01*
X394510Y87687D01*
X394518Y87691D01*
X394526Y87694D01*
X394694Y87790D01*
X394862Y87883D01*
X394868Y87889D01*
X394876Y87894D01*
X395021Y88020D01*
X395167Y88145D01*
X395173Y88152D01*
X395180Y88158D01*
X395297Y88310D01*
X395416Y88462D01*
X395420Y88470D01*
X395425Y88477D01*
X395577Y88773D01*
X397140Y92547D01*
X400213Y95620D01*
X404227Y97283D01*
X408573Y97283D01*
X412587Y95620D01*
X415660Y92547D01*
X417223Y88773D01*
X417228Y88765D01*
X417230Y88756D01*
X417322Y88588D01*
X417414Y88418D01*
X417419Y88411D01*
X417424Y88403D01*
X417547Y88257D01*
X417670Y88107D01*
X417677Y88102D01*
X417683Y88095D01*
X417833Y87975D01*
X417983Y87854D01*
X417991Y87849D01*
X417997Y87844D01*
X418169Y87756D01*
X418339Y87667D01*
X418348Y87664D01*
X418356Y87660D01*
X418540Y87608D01*
X418726Y87553D01*
X418734Y87553D01*
X418743Y87550D01*
X418934Y87535D01*
X419127Y87519D01*
X419136Y87520D01*
X419144Y87519D01*
X419335Y87542D01*
X419527Y87564D01*
X419535Y87567D01*
X419544Y87568D01*
X419727Y87628D01*
X419910Y87687D01*
X419918Y87691D01*
X419926Y87694D01*
X420094Y87790D01*
X420262Y87883D01*
X420268Y87889D01*
X420276Y87894D01*
X420421Y88020D01*
X420567Y88145D01*
X420573Y88152D01*
X420580Y88158D01*
X420697Y88310D01*
X420816Y88462D01*
X420820Y88470D01*
X420825Y88477D01*
X420977Y88773D01*
X422540Y92547D01*
X425613Y95620D01*
X429627Y97283D01*
X433973Y97283D01*
X437987Y95620D01*
X441060Y92547D01*
X442623Y88773D01*
X442628Y88765D01*
X442630Y88756D01*
X442722Y88588D01*
X442814Y88418D01*
X442819Y88411D01*
X442824Y88403D01*
X442947Y88257D01*
X443070Y88107D01*
X443077Y88102D01*
X443083Y88095D01*
X443233Y87975D01*
X443383Y87854D01*
X443391Y87849D01*
X443397Y87844D01*
X443569Y87756D01*
X443739Y87667D01*
X443748Y87664D01*
X443756Y87660D01*
X443940Y87608D01*
X444126Y87553D01*
X444134Y87553D01*
X444143Y87550D01*
X444334Y87535D01*
X444527Y87519D01*
X444536Y87520D01*
X444544Y87519D01*
X444735Y87542D01*
X444927Y87564D01*
X444935Y87567D01*
X444944Y87568D01*
X445127Y87628D01*
X445310Y87687D01*
X445318Y87691D01*
X445326Y87694D01*
X445494Y87790D01*
X445662Y87883D01*
X445668Y87889D01*
X445676Y87894D01*
X445821Y88020D01*
X445967Y88145D01*
X445973Y88152D01*
X445980Y88158D01*
X446097Y88310D01*
X446216Y88462D01*
X446220Y88470D01*
X446225Y88477D01*
X446377Y88773D01*
X447940Y92547D01*
X451013Y95620D01*
X455027Y97283D01*
X459373Y97283D01*
X463387Y95620D01*
X466460Y92547D01*
X468023Y88773D01*
X468028Y88765D01*
X468030Y88756D01*
X468122Y88588D01*
X468214Y88418D01*
X468219Y88411D01*
X468224Y88403D01*
X468347Y88257D01*
X468470Y88107D01*
X468477Y88102D01*
X468483Y88095D01*
X468633Y87975D01*
X468783Y87854D01*
X468791Y87849D01*
X468797Y87844D01*
X468969Y87756D01*
X469139Y87667D01*
X469148Y87664D01*
X469156Y87660D01*
X469340Y87608D01*
X469526Y87553D01*
X469534Y87553D01*
X469543Y87550D01*
X469734Y87535D01*
X469927Y87519D01*
X469936Y87520D01*
X469944Y87519D01*
X470135Y87542D01*
X470327Y87564D01*
X470335Y87567D01*
X470344Y87568D01*
X470527Y87628D01*
X470710Y87687D01*
X470718Y87691D01*
X470726Y87694D01*
X470894Y87790D01*
X471062Y87883D01*
X471068Y87889D01*
X471076Y87894D01*
X471221Y88020D01*
X471367Y88145D01*
X471373Y88152D01*
X471380Y88158D01*
X471497Y88310D01*
X471616Y88462D01*
X471620Y88470D01*
X471625Y88477D01*
X471777Y88773D01*
X473340Y92547D01*
X476413Y95620D01*
X480427Y97283D01*
X484773Y97283D01*
X488787Y95620D01*
X491860Y92547D01*
X493423Y88773D01*
X493428Y88765D01*
X493430Y88756D01*
X493522Y88588D01*
X493614Y88418D01*
X493619Y88411D01*
X493624Y88403D01*
X493747Y88257D01*
X493870Y88107D01*
X493877Y88102D01*
X493883Y88095D01*
X494033Y87975D01*
X494183Y87854D01*
X494191Y87849D01*
X494197Y87844D01*
X494369Y87756D01*
X494539Y87667D01*
X494548Y87664D01*
X494556Y87660D01*
X494740Y87608D01*
X494926Y87553D01*
X494934Y87553D01*
X494943Y87550D01*
X495134Y87535D01*
X495327Y87519D01*
X495336Y87520D01*
X495344Y87519D01*
X495535Y87542D01*
X495727Y87564D01*
X495735Y87567D01*
X495744Y87568D01*
X495927Y87628D01*
X496110Y87687D01*
X496118Y87691D01*
X496126Y87694D01*
X496294Y87790D01*
X496462Y87883D01*
X496468Y87889D01*
X496476Y87894D01*
X496621Y88020D01*
X496767Y88145D01*
X496773Y88152D01*
X496780Y88158D01*
X496897Y88310D01*
X497016Y88462D01*
X497020Y88470D01*
X497025Y88477D01*
X497177Y88773D01*
X498740Y92547D01*
X501813Y95620D01*
X505827Y97283D01*
X510173Y97283D01*
X514187Y95620D01*
X517260Y92547D01*
X518823Y88773D01*
X518828Y88765D01*
X518830Y88756D01*
X518922Y88588D01*
X519014Y88418D01*
X519019Y88411D01*
X519024Y88403D01*
X519147Y88257D01*
X519270Y88107D01*
X519277Y88102D01*
X519283Y88095D01*
X519433Y87975D01*
X519583Y87854D01*
X519591Y87849D01*
X519597Y87844D01*
X519769Y87756D01*
X519939Y87667D01*
X519948Y87664D01*
X519956Y87660D01*
X520140Y87608D01*
X520326Y87553D01*
X520334Y87553D01*
X520343Y87550D01*
X520534Y87535D01*
X520727Y87519D01*
X520736Y87520D01*
X520744Y87519D01*
X520935Y87542D01*
X521127Y87564D01*
X521135Y87567D01*
X521144Y87568D01*
X521327Y87628D01*
X521510Y87687D01*
X521518Y87691D01*
X521526Y87694D01*
X521694Y87790D01*
X521862Y87883D01*
X521868Y87889D01*
X521876Y87894D01*
X522021Y88020D01*
X522167Y88145D01*
X522173Y88152D01*
X522180Y88158D01*
X522297Y88310D01*
X522416Y88462D01*
X522420Y88470D01*
X522425Y88477D01*
X522577Y88773D01*
X524140Y92547D01*
X527213Y95620D01*
X531227Y97283D01*
X535573Y97283D01*
X539587Y95620D01*
X542660Y92547D01*
X544223Y88773D01*
X544228Y88765D01*
X544230Y88756D01*
X544322Y88588D01*
X544414Y88418D01*
X544419Y88411D01*
X544424Y88403D01*
X544547Y88257D01*
X544670Y88107D01*
X544677Y88102D01*
X544683Y88095D01*
X544833Y87975D01*
X544983Y87854D01*
X544991Y87849D01*
X544997Y87844D01*
X545169Y87756D01*
X545339Y87667D01*
X545348Y87664D01*
X545356Y87660D01*
X545541Y87607D01*
X545726Y87553D01*
X545734Y87553D01*
X545743Y87550D01*
X545934Y87535D01*
X546127Y87519D01*
X546136Y87520D01*
X546144Y87519D01*
X546337Y87543D01*
X546527Y87564D01*
X546535Y87567D01*
X546544Y87568D01*
X546729Y87629D01*
X546910Y87687D01*
X546918Y87691D01*
X546926Y87694D01*
X547094Y87790D01*
X547262Y87884D01*
X547268Y87889D01*
X547276Y87894D01*
X547421Y88020D01*
X547567Y88145D01*
X547573Y88152D01*
X547580Y88158D01*
X547697Y88311D01*
X547816Y88462D01*
X547820Y88470D01*
X547825Y88477D01*
X547977Y88773D01*
X549540Y92547D01*
X552613Y95620D01*
X556627Y97283D01*
X560973Y97283D01*
X564987Y95620D01*
X568060Y92547D01*
X569723Y88533D01*
X569723Y84187D01*
X568060Y80173D01*
X564987Y77100D01*
X561213Y75537D01*
X561205Y75532D01*
X561196Y75530D01*
X561027Y75437D01*
X560858Y75346D01*
X560851Y75341D01*
X560843Y75336D01*
X560695Y75212D01*
X560547Y75090D01*
X560542Y75083D01*
X560535Y75077D01*
X560415Y74926D01*
X560294Y74777D01*
X560289Y74770D01*
X560284Y74762D01*
X560197Y74592D01*
X560107Y74421D01*
X560104Y74412D01*
X560100Y74404D01*
X560048Y74222D01*
X559993Y74034D01*
X559993Y74025D01*
X559990Y74017D01*
X559975Y73826D01*
X559959Y73633D01*
X559960Y73624D01*
X559959Y73616D01*
X559982Y73425D01*
X560004Y73233D01*
X560007Y73225D01*
X560008Y73216D01*
X560068Y73035D01*
X560127Y72850D01*
X560132Y72842D01*
X560134Y72834D01*
X560229Y72668D01*
X560324Y72498D01*
X560329Y72492D01*
X560334Y72484D01*
X560461Y72338D01*
X560585Y72193D01*
X560592Y72187D01*
X560598Y72180D01*
X560751Y72063D01*
X560902Y71944D01*
X560910Y71940D01*
X560917Y71935D01*
X561213Y71783D01*
X564987Y70220D01*
X568060Y67147D01*
X569723Y63133D01*
X569723Y58787D01*
X568060Y54773D01*
X564987Y51700D01*
X563652Y51147D01*
X560973Y50037D01*
X556627Y50037D01*
X552613Y51700D01*
X549540Y54773D01*
X548510Y57259D01*
X548468Y57337D01*
X548435Y57420D01*
X548373Y57514D01*
X548320Y57614D01*
X548264Y57682D01*
X548215Y57757D01*
X548136Y57837D01*
X548064Y57924D01*
X547995Y57980D01*
X547932Y58043D01*
X547839Y58107D01*
X547751Y58178D01*
X547673Y58219D01*
X547599Y58269D01*
X547495Y58312D01*
X547395Y58365D01*
X547309Y58390D01*
X547227Y58424D01*
X547117Y58446D01*
X547008Y58478D01*
X546920Y58486D01*
X546833Y58503D01*
X546719Y58503D01*
X546607Y58513D01*
X546519Y58503D01*
X546430Y58503D01*
X546319Y58480D01*
X546207Y58467D01*
X546122Y58440D01*
X546035Y58423D01*
X545931Y58379D01*
X545824Y58344D01*
X545746Y58301D01*
X545664Y58267D01*
X545571Y58203D01*
X545472Y58148D01*
X545405Y58090D01*
X545331Y58040D01*
X545252Y57960D01*
X545166Y57886D01*
X545112Y57816D01*
X545049Y57753D01*
X544988Y57658D01*
X544918Y57569D01*
X544878Y57490D01*
X544830Y57415D01*
X544775Y57285D01*
X544737Y57209D01*
X544725Y57165D01*
X544702Y57109D01*
X544464Y56377D01*
X543611Y54703D01*
X542506Y53182D01*
X541178Y51854D01*
X539657Y50749D01*
X537983Y49896D01*
X536196Y49315D01*
X535939Y49275D01*
X535939Y60452D01*
G37*
%LPD*%
%LPC*%
G36*
X712936Y147319D02*
X712936Y147319D01*
X706476Y149050D01*
X700683Y152394D01*
X695954Y157123D01*
X692610Y162916D01*
X690879Y169376D01*
X690879Y176064D01*
X692610Y182524D01*
X695954Y188317D01*
X700683Y193046D01*
X706476Y196390D01*
X712936Y198121D01*
X719624Y198121D01*
X726084Y196390D01*
X731877Y193046D01*
X736606Y188317D01*
X739950Y182524D01*
X741681Y176064D01*
X741681Y169376D01*
X739950Y162916D01*
X736606Y157123D01*
X731877Y152394D01*
X726084Y149050D01*
X719624Y147319D01*
X712936Y147319D01*
G37*
%LPD*%
%LPC*%
G36*
X292467Y65277D02*
X292467Y65277D01*
X288453Y66940D01*
X285380Y70013D01*
X283717Y74027D01*
X283717Y78373D01*
X285380Y82387D01*
X288453Y85460D01*
X292252Y87033D01*
X292344Y87085D01*
X292440Y87127D01*
X292496Y87169D01*
X292556Y87203D01*
X292634Y87274D01*
X292718Y87337D01*
X292763Y87390D01*
X292815Y87437D01*
X292875Y87524D01*
X292942Y87604D01*
X292973Y87666D01*
X293013Y87724D01*
X293051Y87822D01*
X293099Y87915D01*
X293115Y87983D01*
X293141Y88048D01*
X293156Y88152D01*
X293181Y88254D01*
X293181Y88324D01*
X293191Y88393D01*
X293183Y88498D01*
X293184Y88603D01*
X293168Y88671D01*
X293163Y88740D01*
X293130Y88840D01*
X293107Y88943D01*
X293077Y89005D01*
X293055Y89072D01*
X293001Y89162D01*
X292955Y89256D01*
X292912Y89311D01*
X292876Y89370D01*
X292802Y89446D01*
X292736Y89527D01*
X292682Y89570D01*
X292633Y89620D01*
X292544Y89677D01*
X292461Y89742D01*
X292398Y89771D01*
X292340Y89808D01*
X292241Y89844D01*
X292145Y89888D01*
X292055Y89910D01*
X292011Y89925D01*
X291973Y89929D01*
X291907Y89945D01*
X291844Y89955D01*
X290057Y90536D01*
X288383Y91389D01*
X286862Y92494D01*
X285534Y93822D01*
X284429Y95343D01*
X283576Y97017D01*
X282995Y98804D01*
X282955Y99061D01*
X293624Y99061D01*
X293650Y99064D01*
X293676Y99062D01*
X293823Y99084D01*
X293970Y99101D01*
X293995Y99109D01*
X294021Y99113D01*
X294158Y99168D01*
X294298Y99218D01*
X294320Y99232D01*
X294345Y99242D01*
X294466Y99327D01*
X294591Y99407D01*
X294609Y99426D01*
X294631Y99441D01*
X294645Y99457D01*
X294730Y99375D01*
X294753Y99361D01*
X294772Y99344D01*
X294902Y99272D01*
X295029Y99196D01*
X295054Y99188D01*
X295077Y99175D01*
X295220Y99135D01*
X295361Y99090D01*
X295387Y99087D01*
X295412Y99080D01*
X295656Y99061D01*
X306325Y99061D01*
X306285Y98804D01*
X305704Y97017D01*
X304851Y95343D01*
X303746Y93822D01*
X302418Y92494D01*
X300897Y91389D01*
X299223Y90536D01*
X297436Y89955D01*
X297373Y89945D01*
X297271Y89917D01*
X297168Y89898D01*
X297104Y89870D01*
X297037Y89852D01*
X296945Y89801D01*
X296848Y89759D01*
X296792Y89718D01*
X296731Y89684D01*
X296653Y89614D01*
X296569Y89551D01*
X296524Y89498D01*
X296472Y89452D01*
X296411Y89366D01*
X296343Y89285D01*
X296312Y89223D01*
X296272Y89166D01*
X296233Y89069D01*
X296185Y88975D01*
X296168Y88908D01*
X296142Y88843D01*
X296126Y88739D01*
X296100Y88637D01*
X296099Y88567D01*
X296089Y88499D01*
X296097Y88394D01*
X296095Y88288D01*
X296110Y88220D01*
X296116Y88151D01*
X296147Y88051D01*
X296170Y87948D01*
X296200Y87885D01*
X296221Y87819D01*
X296274Y87728D01*
X296319Y87633D01*
X296363Y87579D01*
X296398Y87519D01*
X296471Y87443D01*
X296537Y87361D01*
X296591Y87318D01*
X296640Y87267D01*
X296728Y87210D01*
X296810Y87145D01*
X296893Y87103D01*
X296932Y87077D01*
X296968Y87064D01*
X297028Y87033D01*
X300827Y85460D01*
X303900Y82387D01*
X305563Y78373D01*
X305563Y74027D01*
X303900Y70013D01*
X300827Y66940D01*
X296813Y65277D01*
X292467Y65277D01*
G37*
%LPD*%
%LPC*%
G36*
X649135Y459263D02*
X649135Y459263D01*
X647092Y460109D01*
X645529Y461672D01*
X644683Y463715D01*
X644683Y465925D01*
X645529Y467968D01*
X647092Y469531D01*
X649135Y470377D01*
X649311Y470377D01*
X649357Y470382D01*
X649404Y470380D01*
X649530Y470402D01*
X649657Y470417D01*
X649701Y470432D01*
X649747Y470441D01*
X649865Y470491D01*
X649985Y470534D01*
X650025Y470559D01*
X650068Y470578D01*
X650171Y470654D01*
X650278Y470723D01*
X650311Y470757D01*
X650348Y470784D01*
X650513Y470965D01*
X664142Y488488D01*
X664159Y488515D01*
X664180Y488539D01*
X664249Y488664D01*
X664323Y488786D01*
X664333Y488816D01*
X664349Y488844D01*
X664388Y488981D01*
X664432Y489117D01*
X664433Y489123D01*
X665281Y489971D01*
X665312Y490010D01*
X665407Y490113D01*
X666147Y491066D01*
X666188Y491076D01*
X666216Y491090D01*
X666247Y491099D01*
X666372Y491169D01*
X666499Y491233D01*
X666503Y491237D01*
X667704Y491237D01*
X667752Y491242D01*
X667893Y491248D01*
X669090Y491398D01*
X669126Y491377D01*
X669156Y491367D01*
X669184Y491351D01*
X669321Y491312D01*
X669457Y491268D01*
X669488Y491265D01*
X669519Y491256D01*
X669763Y491237D01*
X688487Y491237D01*
X688613Y491251D01*
X688739Y491258D01*
X688786Y491271D01*
X688834Y491277D01*
X688953Y491319D01*
X689074Y491354D01*
X689116Y491378D01*
X689162Y491394D01*
X689268Y491463D01*
X689378Y491524D01*
X689425Y491564D01*
X689455Y491583D01*
X689488Y491618D01*
X689564Y491683D01*
X690272Y492391D01*
X692315Y493237D01*
X694525Y493237D01*
X696568Y492391D01*
X698131Y490828D01*
X698977Y488785D01*
X698977Y486575D01*
X698131Y484532D01*
X696568Y482969D01*
X694525Y482123D01*
X692315Y482123D01*
X690272Y482969D01*
X689564Y483677D01*
X689465Y483756D01*
X689372Y483840D01*
X689329Y483864D01*
X689291Y483894D01*
X689177Y483948D01*
X689067Y484009D01*
X689020Y484022D01*
X688976Y484043D01*
X688853Y484069D01*
X688731Y484104D01*
X688670Y484109D01*
X688636Y484116D01*
X688588Y484115D01*
X688487Y484123D01*
X670505Y484123D01*
X670458Y484118D01*
X670411Y484120D01*
X670285Y484098D01*
X670158Y484083D01*
X670114Y484068D01*
X670068Y484059D01*
X669951Y484009D01*
X669830Y483966D01*
X669791Y483941D01*
X669748Y483922D01*
X669645Y483846D01*
X669537Y483777D01*
X669505Y483743D01*
X669467Y483716D01*
X669302Y483535D01*
X656118Y466584D01*
X656101Y466556D01*
X656080Y466533D01*
X656011Y466408D01*
X655937Y466286D01*
X655927Y466256D01*
X655911Y466228D01*
X655872Y466090D01*
X655828Y465955D01*
X655825Y465923D01*
X655816Y465892D01*
X655797Y465648D01*
X655797Y463715D01*
X654951Y461672D01*
X653388Y460109D01*
X651345Y459263D01*
X649135Y459263D01*
G37*
%LPD*%
%LPC*%
G36*
X658783Y404367D02*
X658783Y404367D01*
X655795Y405605D01*
X653509Y407891D01*
X652271Y410879D01*
X652271Y427321D01*
X653509Y430309D01*
X655795Y432595D01*
X658783Y433833D01*
X662017Y433833D01*
X665005Y432595D01*
X667291Y430309D01*
X668529Y427321D01*
X668529Y410879D01*
X667291Y407891D01*
X665005Y405605D01*
X662017Y404367D01*
X658783Y404367D01*
G37*
%LPD*%
%LPC*%
G36*
X633383Y404367D02*
X633383Y404367D01*
X630395Y405605D01*
X628109Y407891D01*
X626871Y410879D01*
X626871Y427321D01*
X628109Y430309D01*
X630395Y432595D01*
X633383Y433833D01*
X636617Y433833D01*
X639605Y432595D01*
X641891Y430309D01*
X643129Y427321D01*
X643129Y410879D01*
X641891Y407891D01*
X639605Y405605D01*
X636617Y404367D01*
X633383Y404367D01*
G37*
%LPD*%
%LPC*%
G36*
X252231Y207009D02*
X252231Y207009D01*
X248964Y208363D01*
X246463Y210864D01*
X245109Y214131D01*
X245109Y217669D01*
X246463Y220936D01*
X248964Y223437D01*
X252231Y224791D01*
X255769Y224791D01*
X259036Y223437D01*
X261537Y220936D01*
X262891Y217669D01*
X262891Y214131D01*
X261537Y210864D01*
X259036Y208363D01*
X257082Y207553D01*
X255769Y207009D01*
X252231Y207009D01*
G37*
%LPD*%
%LPC*%
G36*
X176031Y207009D02*
X176031Y207009D01*
X172764Y208363D01*
X170263Y210864D01*
X168909Y214131D01*
X168909Y217669D01*
X170263Y220936D01*
X172764Y223437D01*
X176031Y224791D01*
X179569Y224791D01*
X182836Y223437D01*
X185337Y220936D01*
X186691Y217669D01*
X186691Y214131D01*
X185337Y210864D01*
X182836Y208363D01*
X180882Y207553D01*
X179569Y207009D01*
X176031Y207009D01*
G37*
%LPD*%
%LPC*%
G36*
X201431Y207009D02*
X201431Y207009D01*
X198164Y208363D01*
X195663Y210864D01*
X194309Y214131D01*
X194309Y217669D01*
X195663Y220936D01*
X198164Y223437D01*
X201431Y224791D01*
X204969Y224791D01*
X208236Y223437D01*
X210737Y220936D01*
X212091Y217669D01*
X212091Y214131D01*
X210737Y210864D01*
X208236Y208363D01*
X206282Y207553D01*
X204969Y207009D01*
X201431Y207009D01*
G37*
%LPD*%
%LPC*%
G36*
X658632Y359409D02*
X658632Y359409D01*
X655364Y360763D01*
X652863Y363264D01*
X651509Y366532D01*
X651509Y370068D01*
X652863Y373336D01*
X655364Y375837D01*
X658632Y377191D01*
X662168Y377191D01*
X665436Y375837D01*
X667937Y373336D01*
X669291Y370068D01*
X669291Y366532D01*
X667937Y363264D01*
X665436Y360763D01*
X662168Y359409D01*
X658632Y359409D01*
G37*
%LPD*%
%LPC*%
G36*
X633232Y359409D02*
X633232Y359409D01*
X629964Y360763D01*
X627463Y363264D01*
X626109Y366532D01*
X626109Y370068D01*
X627463Y373336D01*
X629964Y375837D01*
X633232Y377191D01*
X636768Y377191D01*
X640036Y375837D01*
X642537Y373336D01*
X643891Y370068D01*
X643891Y366532D01*
X642537Y363264D01*
X640036Y360763D01*
X636768Y359409D01*
X633232Y359409D01*
G37*
%LPD*%
%LPC*%
G36*
X582432Y359409D02*
X582432Y359409D01*
X579164Y360763D01*
X576663Y363264D01*
X575309Y366532D01*
X575309Y370068D01*
X576663Y373336D01*
X579164Y375837D01*
X582432Y377191D01*
X585968Y377191D01*
X589236Y375837D01*
X591737Y373336D01*
X593091Y370068D01*
X593091Y366532D01*
X591737Y363264D01*
X589236Y360763D01*
X585968Y359409D01*
X582432Y359409D01*
G37*
%LPD*%
%LPC*%
G36*
X709432Y359409D02*
X709432Y359409D01*
X706164Y360763D01*
X703663Y363264D01*
X702309Y366532D01*
X702309Y370068D01*
X703663Y373336D01*
X706164Y375837D01*
X709432Y377191D01*
X712968Y377191D01*
X716236Y375837D01*
X718737Y373336D01*
X720091Y370068D01*
X720091Y366532D01*
X718737Y363264D01*
X716236Y360763D01*
X712968Y359409D01*
X709432Y359409D01*
G37*
%LPD*%
%LPC*%
G36*
X684032Y359409D02*
X684032Y359409D01*
X680764Y360763D01*
X678263Y363264D01*
X676909Y366532D01*
X676909Y370068D01*
X678263Y373336D01*
X680764Y375837D01*
X684032Y377191D01*
X687568Y377191D01*
X690836Y375837D01*
X693337Y373336D01*
X694691Y370068D01*
X694691Y366532D01*
X693337Y363264D01*
X690836Y360763D01*
X687568Y359409D01*
X684032Y359409D01*
G37*
%LPD*%
%LPC*%
G36*
X734832Y359409D02*
X734832Y359409D01*
X731564Y360763D01*
X729063Y363264D01*
X727709Y366532D01*
X727709Y370068D01*
X729063Y373336D01*
X731564Y375837D01*
X734832Y377191D01*
X738368Y377191D01*
X741636Y375837D01*
X744137Y373336D01*
X745491Y370068D01*
X745491Y366532D01*
X744137Y363264D01*
X741636Y360763D01*
X738368Y359409D01*
X734832Y359409D01*
G37*
%LPD*%
%LPC*%
G36*
X607832Y334009D02*
X607832Y334009D01*
X604564Y335363D01*
X602063Y337864D01*
X600709Y341132D01*
X600709Y344668D01*
X602063Y347936D01*
X604564Y350437D01*
X607832Y351791D01*
X611368Y351791D01*
X614636Y350437D01*
X617137Y347936D01*
X618491Y344668D01*
X618491Y341132D01*
X617137Y337864D01*
X614636Y335363D01*
X611368Y334009D01*
X607832Y334009D01*
G37*
%LPD*%
%LPC*%
G36*
X607832Y308609D02*
X607832Y308609D01*
X604564Y309963D01*
X602063Y312464D01*
X600709Y315732D01*
X600709Y319268D01*
X602063Y322536D01*
X604564Y325037D01*
X607832Y326391D01*
X611368Y326391D01*
X614636Y325037D01*
X617137Y322536D01*
X618491Y319268D01*
X618491Y315732D01*
X617137Y312464D01*
X614636Y309963D01*
X611368Y308609D01*
X607832Y308609D01*
G37*
%LPD*%
%LPC*%
G36*
X607832Y283209D02*
X607832Y283209D01*
X604564Y284563D01*
X602063Y287064D01*
X600709Y290332D01*
X600709Y293868D01*
X602063Y297136D01*
X604564Y299637D01*
X607832Y300991D01*
X611368Y300991D01*
X614636Y299637D01*
X617137Y297136D01*
X618491Y293868D01*
X618491Y290332D01*
X617137Y287064D01*
X614636Y284563D01*
X611368Y283209D01*
X607832Y283209D01*
G37*
%LPD*%
%LPC*%
G36*
X607832Y257809D02*
X607832Y257809D01*
X604564Y259163D01*
X602063Y261664D01*
X600709Y264932D01*
X600709Y268468D01*
X602063Y271736D01*
X604564Y274237D01*
X607832Y275591D01*
X611368Y275591D01*
X614636Y274237D01*
X617137Y271736D01*
X618491Y268468D01*
X618491Y264932D01*
X617137Y261664D01*
X614636Y259163D01*
X611368Y257809D01*
X607832Y257809D01*
G37*
%LPD*%
%LPC*%
G36*
X734832Y207009D02*
X734832Y207009D01*
X731564Y208363D01*
X729063Y210864D01*
X727709Y214132D01*
X727709Y217668D01*
X729063Y220936D01*
X731564Y223437D01*
X734832Y224791D01*
X738368Y224791D01*
X741636Y223437D01*
X744137Y220936D01*
X745491Y217668D01*
X745491Y214132D01*
X744137Y210864D01*
X741636Y208363D01*
X738368Y207009D01*
X734832Y207009D01*
G37*
%LPD*%
%LPC*%
G36*
X709432Y207009D02*
X709432Y207009D01*
X706164Y208363D01*
X703663Y210864D01*
X702309Y214132D01*
X702309Y217668D01*
X703663Y220936D01*
X706164Y223437D01*
X709432Y224791D01*
X712968Y224791D01*
X716236Y223437D01*
X718737Y220936D01*
X720091Y217668D01*
X720091Y214132D01*
X718737Y210864D01*
X716236Y208363D01*
X712968Y207009D01*
X709432Y207009D01*
G37*
%LPD*%
%LPC*%
G36*
X633232Y207009D02*
X633232Y207009D01*
X629964Y208363D01*
X627463Y210864D01*
X626109Y214132D01*
X626109Y217668D01*
X627463Y220936D01*
X629964Y223437D01*
X633232Y224791D01*
X636768Y224791D01*
X640036Y223437D01*
X642537Y220936D01*
X643891Y217668D01*
X643891Y214132D01*
X642537Y210864D01*
X640036Y208363D01*
X636768Y207009D01*
X633232Y207009D01*
G37*
%LPD*%
%LPC*%
G36*
X582432Y207009D02*
X582432Y207009D01*
X579164Y208363D01*
X576663Y210864D01*
X575309Y214132D01*
X575309Y217668D01*
X576663Y220936D01*
X579164Y223437D01*
X582432Y224791D01*
X585968Y224791D01*
X589236Y223437D01*
X591737Y220936D01*
X593091Y217668D01*
X593091Y214132D01*
X591737Y210864D01*
X589236Y208363D01*
X585968Y207009D01*
X582432Y207009D01*
G37*
%LPD*%
%LPC*%
G36*
X607832Y359409D02*
X607832Y359409D01*
X604564Y360763D01*
X602063Y363264D01*
X600709Y366532D01*
X600709Y370068D01*
X602063Y373336D01*
X604564Y375837D01*
X607832Y377191D01*
X611368Y377191D01*
X614636Y375837D01*
X617137Y373336D01*
X618491Y370068D01*
X618491Y366532D01*
X617137Y363264D01*
X614636Y360763D01*
X611368Y359409D01*
X607832Y359409D01*
G37*
%LPD*%
%LPC*%
G36*
X611631Y421131D02*
X611631Y421131D01*
X611631Y434641D01*
X611742Y434624D01*
X613110Y434179D01*
X614393Y433525D01*
X615557Y432679D01*
X616575Y431661D01*
X617421Y430497D01*
X618075Y429214D01*
X618520Y427846D01*
X618745Y426424D01*
X618745Y421131D01*
X611631Y421131D01*
G37*
%LPD*%
%LPC*%
G36*
X611631Y417069D02*
X611631Y417069D01*
X618745Y417069D01*
X618745Y411776D01*
X618520Y410354D01*
X618075Y408986D01*
X617421Y407703D01*
X616575Y406539D01*
X615557Y405521D01*
X614393Y404675D01*
X613110Y404021D01*
X611742Y403576D01*
X611631Y403559D01*
X611631Y417069D01*
G37*
%LPD*%
%LPC*%
G36*
X600455Y421131D02*
X600455Y421131D01*
X600455Y426424D01*
X600680Y427846D01*
X601125Y429214D01*
X601779Y430497D01*
X602625Y431661D01*
X603643Y432679D01*
X604807Y433525D01*
X606090Y434179D01*
X607458Y434624D01*
X607569Y434641D01*
X607569Y421131D01*
X600455Y421131D01*
G37*
%LPD*%
%LPC*%
G36*
X607458Y403576D02*
X607458Y403576D01*
X606090Y404021D01*
X604807Y404675D01*
X603643Y405521D01*
X602625Y406539D01*
X601779Y407703D01*
X601125Y408986D01*
X600680Y410354D01*
X600455Y411776D01*
X600455Y417069D01*
X607569Y417069D01*
X607569Y403559D01*
X607458Y403576D01*
G37*
%LPD*%
%LPC*%
G36*
X154812Y370712D02*
X154812Y370712D01*
X154812Y377933D01*
X156203Y377481D01*
X157592Y376773D01*
X158854Y375856D01*
X159956Y374754D01*
X160873Y373492D01*
X161581Y372103D01*
X162033Y370712D01*
X154812Y370712D01*
G37*
%LPD*%
%LPC*%
G36*
X142767Y370712D02*
X142767Y370712D01*
X143219Y372103D01*
X143927Y373492D01*
X144844Y374754D01*
X145946Y375856D01*
X147208Y376773D01*
X148597Y377481D01*
X149988Y377933D01*
X149988Y370712D01*
X142767Y370712D01*
G37*
%LPD*%
%LPC*%
G36*
X154812Y365888D02*
X154812Y365888D01*
X162033Y365888D01*
X161581Y364497D01*
X160873Y363108D01*
X159956Y361846D01*
X158854Y360744D01*
X157592Y359827D01*
X156203Y359119D01*
X154812Y358667D01*
X154812Y365888D01*
G37*
%LPD*%
%LPC*%
G36*
X148597Y359119D02*
X148597Y359119D01*
X147208Y359827D01*
X145946Y360744D01*
X144844Y361846D01*
X143927Y363108D01*
X143219Y364497D01*
X142767Y365888D01*
X149988Y365888D01*
X149988Y358667D01*
X148597Y359119D01*
G37*
%LPD*%
D10*
X802640Y553720D03*
X828040Y553720D03*
X802640Y528320D03*
X828040Y528320D03*
X802640Y502920D03*
X828040Y502920D03*
X802640Y477520D03*
X828040Y477520D03*
X802640Y452120D03*
X828040Y452120D03*
X802640Y426720D03*
X828040Y426720D03*
X802640Y401320D03*
X828040Y401320D03*
X802640Y375920D03*
X828040Y375920D03*
X802640Y350520D03*
X828040Y350520D03*
X802640Y325120D03*
X828040Y325120D03*
X60960Y553720D03*
X86360Y553720D03*
X60960Y528320D03*
X86360Y528320D03*
X60960Y502920D03*
X86360Y502920D03*
X60960Y477520D03*
X86360Y477520D03*
X60960Y452120D03*
X86360Y452120D03*
X60960Y426720D03*
X86360Y426720D03*
X60960Y401320D03*
X86360Y401320D03*
X60960Y375920D03*
X86360Y375920D03*
X60960Y350520D03*
X86360Y350520D03*
X60960Y325120D03*
X86360Y325120D03*
X330200Y60960D03*
X330200Y86360D03*
X355600Y60960D03*
X355600Y86360D03*
X381000Y60960D03*
X381000Y86360D03*
X406400Y60960D03*
X406400Y86360D03*
X431800Y60960D03*
X431800Y86360D03*
X457200Y60960D03*
X457200Y86360D03*
X482600Y60960D03*
X482600Y86360D03*
X508000Y60960D03*
X508000Y86360D03*
X533400Y60960D03*
X533400Y86360D03*
X558800Y60960D03*
X558800Y86360D03*
X330200Y599440D03*
X330200Y624840D03*
X355600Y599440D03*
X355600Y624840D03*
X381000Y599440D03*
X381000Y624840D03*
X406400Y599440D03*
X406400Y624840D03*
X431800Y599440D03*
X431800Y624840D03*
X457200Y599440D03*
X457200Y624840D03*
X482600Y599440D03*
X482600Y624840D03*
X508000Y599440D03*
X508000Y624840D03*
X533400Y599440D03*
X533400Y624840D03*
X558800Y599440D03*
X558800Y624840D03*
D11*
X508000Y838200D03*
D12*
X473000Y838200D03*
D11*
X419100Y838200D03*
D12*
X384100Y838200D03*
D10*
X711200Y635000D03*
X711200Y660400D03*
D13*
X203200Y215900D03*
X228600Y215900D03*
X254000Y215900D03*
X279400Y215900D03*
X304800Y215900D03*
X330200Y215900D03*
X355600Y215900D03*
X381000Y215900D03*
X406400Y215900D03*
X431800Y215900D03*
X457200Y215900D03*
X482600Y215900D03*
X482600Y368300D03*
X457200Y368300D03*
X431800Y368300D03*
X406400Y368300D03*
X381000Y368300D03*
X355600Y368300D03*
X330200Y368300D03*
X304800Y368300D03*
X279400Y368300D03*
X254000Y368300D03*
X228600Y368300D03*
X177800Y215900D03*
X203200Y368300D03*
X177800Y368300D03*
X152400Y215900D03*
X152400Y368300D03*
X508000Y215900D03*
X508000Y368300D03*
X533400Y215900D03*
X558800Y215900D03*
X584200Y215900D03*
X609600Y215900D03*
X635000Y215900D03*
X660400Y215900D03*
X685800Y215900D03*
X711200Y215900D03*
X736600Y215900D03*
X736600Y368300D03*
X711200Y368300D03*
X685800Y368300D03*
X660400Y368300D03*
X635000Y368300D03*
X609600Y368300D03*
X584200Y368300D03*
X558800Y368300D03*
X533400Y368300D03*
X609600Y241300D03*
X609600Y292100D03*
X609600Y317500D03*
X609600Y266700D03*
X609600Y342900D03*
X177800Y342900D03*
X228600Y342900D03*
X254000Y342900D03*
X279400Y342900D03*
X215900Y247650D03*
X241300Y247650D03*
X266700Y247650D03*
X292100Y247650D03*
X317500Y247650D03*
D14*
X660400Y412496D02*
X660400Y425704D01*
X609600Y425704D02*
X609600Y412496D01*
X635000Y412496D02*
X635000Y425704D01*
D10*
X294640Y76200D03*
X294640Y101600D03*
X294640Y127000D03*
D11*
X127000Y665480D03*
D12*
X127000Y630480D03*
D10*
X116840Y195580D03*
X116840Y220980D03*
X116840Y246380D03*
X116840Y271780D03*
X116840Y297180D03*
D15*
X309880Y693420D03*
D16*
X299720Y683260D01*
X287020Y683260D01*
D17*
X236220Y683260D01*
D15*
X236220Y683260D03*
D18*
X629920Y177800D03*
D16*
X584200Y124460D01*
X553720Y129540D01*
D18*
X553720Y129540D03*
X513080Y124460D03*
D19*
X502920Y114300D01*
X375920Y114300D01*
D18*
X375920Y114300D03*
X652780Y182880D03*
D19*
X673100Y203200D01*
X673100Y236220D01*
X850900Y322580D02*
X850900Y436880D01*
X835660Y452120D01*
X828040Y452120D01*
X850900Y322580D02*
X802640Y274320D01*
D15*
X398780Y657860D03*
D16*
X383540Y642620D01*
X350520Y642620D01*
X342900Y635000D01*
X342900Y609600D01*
X332740Y599440D01*
X330200Y599440D01*
D19*
X673100Y236220D02*
X711200Y274320D01*
D17*
X713740Y274320D01*
D15*
X713740Y274320D03*
X772160Y274320D03*
D19*
X802640Y274320D01*
D20*
X127000Y630480D02*
X106680Y610160D01*
X106680Y487680D01*
X96520Y477520D01*
X86360Y477520D01*
D21*
X812800Y568960D02*
X828040Y553720D01*
X812800Y568960D02*
X680720Y568960D01*
X619760Y629920D01*
D22*
X619760Y629920D03*
D21*
X680720Y553720D02*
X802640Y553720D01*
X680720Y553720D02*
X629920Y604520D01*
D22*
X629920Y604520D03*
D19*
X482600Y259080D02*
X482600Y215900D01*
X482600Y259080D02*
X474980Y266700D01*
D23*
X474980Y266700D03*
D15*
X134620Y553720D03*
D19*
X134620Y215900D01*
X142240Y200660D01*
D15*
X142240Y200660D03*
X261620Y185420D03*
D19*
X279400Y203200D01*
X279400Y215900D01*
D23*
X513080Y276860D03*
D19*
X558800Y231140D01*
X599440Y231140D01*
X609600Y220980D01*
X609600Y215900D01*
D23*
X551180Y416560D03*
D24*
X294640Y101600D02*
X284480Y101600D01*
D23*
X627380Y563880D03*
D25*
X627380Y441960D01*
X609600Y419100D01*
D21*
X566420Y416560D02*
X551180Y416560D01*
X566420Y416560D02*
X594360Y388620D01*
X746760Y388620D01*
X759460Y375920D01*
X759460Y170180D01*
X622300Y78740D02*
X579120Y35560D01*
X317500Y35560D01*
X309880Y48260D01*
X307340Y83820D01*
X294640Y101600D01*
X668020Y78740D02*
X759460Y170180D01*
X668020Y78740D02*
X622300Y78740D01*
D22*
X650240Y464820D03*
D21*
X668020Y487680D01*
X693420Y487680D01*
D22*
X693420Y487680D03*
D15*
X436880Y680720D03*
D16*
X429260Y673100D01*
X381000Y673100D01*
D15*
X381000Y673100D03*
X256540Y744220D03*
D16*
X330200Y744220D01*
X340360Y734060D01*
D15*
X340360Y734060D03*
D18*
X490220Y162560D03*
D16*
X469900Y182880D01*
X469900Y259080D01*
X393700Y335280D01*
X386080Y335280D01*
D18*
X386080Y335280D03*
X365760Y350520D03*
D16*
X355600Y360680D01*
X355600Y368300D01*
D15*
X383540Y706120D03*
D16*
X327660Y706120D01*
X325120Y708660D01*
D15*
X325120Y708660D03*
D18*
X655320Y170180D03*
D16*
X640080Y185420D01*
X584200Y185420D01*
X566420Y203200D01*
X551180Y203200D02*
X546100Y208280D01*
X546100Y226060D01*
X429260Y342900D01*
X342900Y342900D01*
X330200Y355600D01*
X330200Y368300D01*
X551180Y203200D02*
X566420Y203200D01*
D18*
X568960Y187960D03*
D16*
X581660Y177800D01*
X612140Y177800D01*
D18*
X612140Y177800D03*
D15*
X576580Y172720D03*
D16*
X576580Y134620D01*
D15*
X576580Y134620D03*
D19*
X228600Y177800D02*
X228600Y215900D01*
X228600Y177800D02*
X294640Y127000D01*
D18*
X149860Y299720D03*
D19*
X175260Y325120D01*
X185420Y325120D01*
D18*
X185420Y325120D03*
X170180Y279400D03*
D19*
X195580Y304800D01*
X205740Y304800D01*
D18*
X205740Y304800D03*
X177800Y264160D03*
D19*
X203200Y289560D01*
X220980Y289560D01*
D18*
X220980Y289560D03*
X271780Y314960D03*
D19*
X271780Y264160D01*
X279400Y256540D01*
X279400Y241300D01*
X304800Y215900D01*
D18*
X355600Y304800D03*
D19*
X355600Y215900D01*
D18*
X332740Y299720D03*
D19*
X332740Y218440D01*
X330200Y215900D01*
M02*
