M48
;GenerationSoftware,Autodesk,EAGLE,9.0.1*%
;CreationDate,2019-01-06T05:07:55Z*%
FMAT,2
ICI,OFF
METRIC,TZ,000.000
T8C0.350
T7C0.700
T6C0.900
T5C1.000
T4C1.016
T3C1.200
T2C3.000
T1C3.048
%
G90
M71
T1
X71628Y17272
X17272Y17272
X17272Y71628
X71120Y71628
T2
X65669Y30162
T3
X11524Y68464
X11524Y64964
T4
X80264Y40132
X55880Y59944
X80264Y55372
X82804Y55372
X80264Y52832
X82804Y52832
X80264Y50292
X82804Y50292
X80264Y47752
X82804Y47752
X80264Y45212
X82804Y45212
X80264Y42672
X82804Y42672
X82804Y40132
X80264Y37592
X82804Y37592
X80264Y35052
X82804Y35052
X80264Y32512
X82804Y32512
X6096Y55372
X8636Y55372
X6096Y52832
X8636Y52832
X6096Y50292
X8636Y50292
X6096Y47752
X8636Y47752
X6096Y45212
X8636Y45212
X6096Y42672
X8636Y42672
X6096Y40132
X8636Y40132
X6096Y37592
X8636Y37592
X6096Y35052
X8636Y35052
X6096Y32512
X8636Y32512
X33020Y6096
X33020Y8636
X35560Y6096
X35560Y8636
X38100Y6096
X38100Y8636
X40640Y6096
X40640Y8636
X43180Y6096
X43180Y8636
X45720Y6096
X45720Y8636
X48260Y6096
X48260Y8636
X50800Y6096
X50800Y8636
X53340Y6096
X53340Y8636
X55880Y6096
X55880Y8636
X33020Y59944
X33020Y62484
X35560Y59944
X35560Y62484
X38100Y59944
X38100Y62484
X40640Y59944
X40640Y62484
X43180Y59944
X43180Y62484
X45720Y59944
X45720Y62484
X48260Y59944
X48260Y62484
X50800Y59944
X50800Y62484
X53340Y59944
X53340Y62484
X55880Y62484
X26651Y11369
X26651Y8829
X24111Y11369
X24111Y8829
X21571Y11369
X21571Y8829
X8666Y58826
X6126Y58826
T5
X41914Y82707
X46314Y82707
T6
X20546Y22730
X27046Y22730
T7
X31559Y18058
X31559Y20058
X31559Y22058
X31559Y24058
X31559Y26058
X31559Y28058
X31559Y30058
X31559Y32058
X53559Y14058
X31559Y14058
X53559Y18058
X53559Y20058
X53559Y22058
X53559Y24058
X53559Y26058
X53559Y28058
X53559Y30058
X53559Y32058
X31559Y16058
X53559Y16058
T8
X41697Y75743
X49378Y66538
X24597Y17800
X50902Y44409
X50902Y49439
X44074Y68336
X30389Y74036
X43373Y67666
X27767Y74005
X43861Y75011
X34991Y75499
X72512Y68824
X64587Y73457
X43678Y31303
X62880Y11979
X70470Y65684
X64557Y72360
X73122Y36363
X78181Y29718
X66111Y23805
X73823Y25055
X59558Y19446
X30450Y19050
X65471Y17191
X63033Y18318
X69129Y74676
X64496Y75499
X46665Y77876
X43129Y77663
X40935Y47762
X40935Y50749
X58583Y37155
X54590Y36393
X37277Y23134
X61874Y77633
X60137Y76901
X33437Y74036
X73030Y55992
X74127Y56815
X39929Y44226
X42306Y39167
X37308Y25847
X39502Y25298
X30450Y13076
X33680Y13990
X47488Y78395
X62728Y17221
X41209Y78608
X28499Y17069
X81504Y56418
X30785Y7285
X57150Y4816
X45811Y32461
X28651Y29261
X43129Y10424
X37277Y10912
X35113Y25420
X46147Y31455
X46025Y25298
X44745Y31333
X40599Y25359
X38862Y26914
X43404Y30297
X39106Y28316
X78456Y64740
X63734Y65014
X60869Y73823
X54620Y63795
X44440Y63551
X39136Y39837
X16673Y12924
X19202Y12984
X45537Y49256
X48707Y50201
X38070Y47214
X48859Y46299
X50262Y46055
X77572Y24841
X38740Y47854
X48311Y46970
X50292Y46970
X78303Y20452
X78456Y44684
X84308Y43983
X38984Y49713
X46391Y67026
X38039Y50048
X47031Y65197
X22982Y59619
X30785Y64038
X27493Y59040
X27737Y62514
X31943Y61143
X31943Y58491
X58613Y38710
X78486Y33619
X54163Y38100
X78456Y31913
X59497Y16032
X46695Y37856
X28834Y33528
X39898Y45690
X43495Y49317
X51206Y54102
X53127Y55535
X56205Y52639
X76810Y57211
X58979Y10881
X49835Y10546
X44928Y38557
X34534Y33802
X48036Y38710
X8687Y23652
X40599Y44988
X44501Y49286
X51267Y53096
X52913Y54468
X55626Y51846
X59009Y51145
X61600Y46848
X69433Y46817
X49713Y34778
X37308Y33528
X34503Y30724
X12527Y19812
X45659Y48372
X48768Y49164
X11003Y23500
X46512Y47732
X68671Y63825
X35265Y11186
X34351Y26731
X36820Y58400
X11003Y45690
X9723Y46543
X42459Y25329
X44409Y25329
X10363Y43678
X22403Y57485
X35082Y74219
X36698Y68702
X26335Y74981
X19812Y68184
X19263Y64160
X19355Y60747
X45720Y77023
M30