G04 EAGLE Gerber X2 export*
%TF.Part,Single*%
%TF.FileFunction,Other,Solder stop mask SOL*%
%TF.FilePolarity,Positive*%
%TF.GenerationSoftware,Autodesk,EAGLE,9.0.1*%
%TF.CreationDate,2019-01-06T05:07:40Z*%
G75*
%MOMM*%
%FSLAX34Y34*%
%LPD*%
%AMOC8*
5,1,8,0,0,1.08239X$1,22.5*%
G01*
%ADD10C,3.251200*%
%ADD11C,2.082800*%
%ADD12C,1.203200*%
%ADD13C,6.553200*%
%ADD14R,3.403200X3.403200*%
%ADD15C,12.564231*%
%ADD16C,3.203200*%
%ADD17C,1.625600*%
%ADD18R,1.625600X1.625600*%
%ADD19R,5.603200X6.403200*%
%ADD20R,1.203200X1.803200*%
%ADD21R,1.603200X1.603200*%
%ADD22C,1.611200*%
%ADD23R,1.203200X1.303200*%
%ADD24R,1.303200X1.603200*%
%ADD25R,2.235200X2.235200*%
%ADD26C,2.235200*%
%ADD27R,1.303200X1.203200*%
%ADD28R,1.203200X1.403200*%
%ADD29R,1.403200X0.753200*%
%ADD30R,1.003200X1.553200*%
%ADD31R,1.553200X1.003200*%
%ADD32R,0.553200X0.433200*%
%ADD33R,0.433200X0.553200*%
%ADD34C,0.959600*%


D10*
X172720Y716280D03*
X711200Y716280D03*
X716280Y172720D03*
X172720Y172720D03*
D11*
X802640Y553720D03*
X828040Y553720D03*
X802640Y528320D03*
X828040Y528320D03*
X802640Y502920D03*
X828040Y502920D03*
X802640Y477520D03*
X828040Y477520D03*
X802640Y452120D03*
X828040Y452120D03*
X802640Y426720D03*
X828040Y426720D03*
X802640Y401320D03*
X828040Y401320D03*
X802640Y375920D03*
X828040Y375920D03*
X802640Y350520D03*
X828040Y350520D03*
X802640Y325120D03*
X828040Y325120D03*
X60960Y553720D03*
X86360Y553720D03*
X60960Y528320D03*
X86360Y528320D03*
X60960Y502920D03*
X86360Y502920D03*
X60960Y477520D03*
X86360Y477520D03*
X60960Y452120D03*
X86360Y452120D03*
X60960Y426720D03*
X86360Y426720D03*
X60960Y401320D03*
X86360Y401320D03*
X60960Y375920D03*
X86360Y375920D03*
X60960Y350520D03*
X86360Y350520D03*
X60960Y325120D03*
X86360Y325120D03*
X330200Y60960D03*
X330200Y86360D03*
X355600Y60960D03*
X355600Y86360D03*
X381000Y60960D03*
X381000Y86360D03*
X406400Y60960D03*
X406400Y86360D03*
X431800Y60960D03*
X431800Y86360D03*
X457200Y60960D03*
X457200Y86360D03*
X482600Y60960D03*
X482600Y86360D03*
X508000Y60960D03*
X508000Y86360D03*
X533400Y60960D03*
X533400Y86360D03*
X558800Y60960D03*
X558800Y86360D03*
X330200Y599440D03*
X330200Y624840D03*
X355600Y599440D03*
X355600Y624840D03*
X381000Y599440D03*
X381000Y624840D03*
X406400Y599440D03*
X406400Y624840D03*
X431800Y599440D03*
X431800Y624840D03*
X457200Y599440D03*
X457200Y624840D03*
X482600Y599440D03*
X482600Y624840D03*
X508000Y599440D03*
X508000Y624840D03*
X533400Y599440D03*
X533400Y624840D03*
X558800Y599440D03*
X558800Y624840D03*
D12*
X463143Y827073D03*
X419143Y827073D03*
D11*
X266506Y113686D03*
X266506Y88286D03*
X241106Y113686D03*
X241106Y88286D03*
X215706Y113686D03*
X215706Y88286D03*
D13*
X425097Y182291D03*
D14*
X507351Y182291D03*
X342843Y182291D03*
D15*
X425097Y182291D03*
D16*
X656688Y301616D03*
D17*
X315594Y140578D03*
X315594Y160578D03*
X315594Y180578D03*
X315594Y200578D03*
X315594Y220578D03*
X315594Y240578D03*
X315594Y260578D03*
X315594Y280578D03*
X315594Y300578D03*
D18*
X315594Y320578D03*
D17*
X535594Y140578D03*
X535594Y160578D03*
X535594Y180578D03*
X535594Y200578D03*
X535594Y220578D03*
X535594Y240578D03*
X535594Y260578D03*
X535594Y280578D03*
X535594Y300578D03*
X535594Y320578D03*
D19*
X245559Y268213D03*
D20*
X222759Y341213D03*
X268359Y341213D03*
D21*
X222817Y367381D03*
X222817Y404381D03*
D22*
X205464Y227300D03*
X270464Y227300D03*
D23*
X209821Y157390D03*
X209821Y140390D03*
D19*
X157268Y586149D03*
D20*
X134468Y659149D03*
X180068Y659149D03*
D24*
X74506Y613859D03*
X94506Y613859D03*
D25*
X115240Y649639D03*
D26*
X115240Y684639D03*
D27*
X774928Y627558D03*
X757928Y627558D03*
D23*
X692616Y504486D03*
X692616Y487486D03*
D28*
X725636Y505986D03*
X716136Y485986D03*
X735136Y485986D03*
X767342Y589008D03*
X776842Y609008D03*
X757842Y609008D03*
D27*
X671906Y494716D03*
X654906Y494716D03*
X783887Y582854D03*
X800887Y582854D03*
D29*
X829518Y618262D03*
X829518Y608762D03*
X829518Y599262D03*
X803516Y599262D03*
X803516Y618262D03*
D27*
X840088Y583311D03*
X823088Y583311D03*
X712056Y571780D03*
X729056Y571780D03*
X805832Y634975D03*
X822832Y634975D03*
D23*
X655786Y560366D03*
X655786Y543366D03*
X673566Y560366D03*
X673566Y543366D03*
D27*
X616806Y497256D03*
X633806Y497256D03*
X661256Y521386D03*
X678256Y521386D03*
X758199Y523248D03*
X775199Y523248D03*
D23*
X753576Y545906D03*
X753576Y562906D03*
D30*
X690076Y567106D03*
X690076Y541706D03*
X638006Y567106D03*
X638006Y541706D03*
D31*
X737066Y597586D03*
X711666Y597586D03*
D32*
X708356Y534476D03*
X708356Y538776D03*
X708356Y530176D03*
X708356Y525876D03*
X708356Y521576D03*
X708356Y543076D03*
X708356Y547376D03*
X708356Y551676D03*
D33*
X718406Y551376D03*
X722706Y551376D03*
X727006Y551376D03*
X714106Y551376D03*
X714106Y521876D03*
X718406Y521876D03*
X722706Y521876D03*
X727006Y521876D03*
D32*
X732756Y534476D03*
X732756Y538776D03*
X732756Y543076D03*
X732756Y547376D03*
X732756Y551676D03*
X732756Y530176D03*
X732756Y525876D03*
X732756Y521576D03*
D11*
X61265Y588264D03*
X86665Y588264D03*
D34*
X466649Y778764D03*
X431292Y776630D03*
X409346Y477622D03*
X409346Y507492D03*
X585826Y371551D03*
X545897Y363931D03*
X372770Y231343D03*
X618744Y776326D03*
X601370Y769010D03*
X334366Y740359D03*
X730301Y559918D03*
X741274Y568147D03*
X399288Y442265D03*
X423062Y391668D03*
X373075Y258470D03*
X395021Y252984D03*
X304495Y130759D03*
X336804Y139903D03*
X474878Y783946D03*
X412090Y786079D03*
X284988Y170688D03*
X815035Y564185D03*
X307848Y72847D03*
X571500Y48158D03*
X458114Y324612D03*
X286512Y292608D03*
X431292Y104242D03*
X372770Y109118D03*
X351130Y254203D03*
X461467Y314554D03*
X460248Y252984D03*
X447446Y313334D03*
X405994Y253594D03*
X436778Y313030D03*
X388620Y269138D03*
X434035Y302971D03*
X391058Y283159D03*
X784555Y647395D03*
X637337Y650138D03*
X608686Y738226D03*
X546202Y637946D03*
X444398Y635508D03*
X391363Y398374D03*
X166726Y129235D03*
X192024Y129845D03*
X455371Y492557D03*
X487070Y502006D03*
X380695Y472135D03*
X488594Y462991D03*
X502615Y460553D03*
X775716Y248412D03*
X387401Y478536D03*
X483108Y469697D03*
X502920Y469697D03*
X783031Y204521D03*
X784555Y446837D03*
X843077Y439826D03*
X389839Y497129D03*
X463906Y670255D03*
X380390Y500482D03*
X470306Y651967D03*
X229819Y596189D03*
X307848Y640385D03*
X274930Y590398D03*
X277368Y625145D03*
X319430Y611429D03*
X319430Y584911D03*
X586130Y387096D03*
X784860Y336194D03*
X541630Y381000D03*
X784555Y319126D03*
X594970Y160325D03*
X466954Y378562D03*
X288341Y335280D03*
X398983Y456895D03*
X434950Y493166D03*
X512064Y541020D03*
X531266Y555346D03*
X562051Y526390D03*
X768096Y572110D03*
X589788Y108814D03*
X498348Y105461D03*
X449275Y385572D03*
X345338Y338023D03*
X480365Y387096D03*
X405994Y449885D03*
X445008Y492862D03*
X512674Y530962D03*
X529133Y544678D03*
X556260Y518465D03*
X590093Y511454D03*
X616001Y468478D03*
X694334Y468173D03*
X497129Y347777D03*
X373075Y335280D03*
X345034Y307238D03*
X125273Y198120D03*
X456590Y483718D03*
X487680Y491642D03*
X86868Y236525D03*
X110033Y235001D03*
X465125Y477317D03*
X686714Y638251D03*
X352654Y111862D03*
X343510Y267310D03*
X368198Y583997D03*
X110033Y456895D03*
X97231Y465430D03*
X424586Y253289D03*
X444094Y253289D03*
X103632Y436778D03*
X224028Y574853D03*
X350825Y742188D03*
X366979Y687019D03*
X263347Y749808D03*
X198120Y681838D03*
X192634Y641604D03*
X193548Y607466D03*
X457200Y770230D03*
X416966Y757428D03*
X493776Y665378D03*
X245974Y178003D03*
X509016Y444094D03*
X509016Y494386D03*
X440741Y683362D03*
X303886Y740359D03*
X433730Y676656D03*
X277673Y740054D03*
X438607Y750113D03*
X349910Y754990D03*
X725119Y688238D03*
X645871Y734568D03*
X627278Y172212D03*
X628802Y119786D03*
X704698Y656844D03*
X645566Y723595D03*
X731215Y363626D03*
X781812Y297180D03*
X661111Y238049D03*
X738226Y250546D03*
X595579Y194462D03*
X304495Y190500D03*
X654710Y171907D03*
X630326Y183185D03*
X691286Y746760D03*
X644957Y754990D03*
M02*
