G04 EAGLE Gerber X2 export*
%TF.Part,Single*%
%TF.FileFunction,Other,Solder stop mask CMP*%
%TF.FilePolarity,Positive*%
%TF.GenerationSoftware,Autodesk,EAGLE,9.0.1*%
%TF.CreationDate,2019-01-06T05:07:40Z*%
G75*
%MOMM*%
%FSLAX34Y34*%
%LPD*%
%AMOC8*
5,1,8,0,0,1.08239X$1,22.5*%
G01*
%ADD10C,3.251200*%
%ADD11C,2.082800*%
%ADD12R,1.703200X1.503200*%
%ADD13R,3.203200X1.603200*%
%ADD14R,1.603200X3.203200*%
%ADD15R,2.203200X2.603200*%
%ADD16R,0.703200X2.511200*%
%ADD17C,1.203200*%
%ADD18R,1.603200X1.603200*%
%ADD19R,1.703200X0.553200*%
%ADD20R,0.553200X1.703200*%
%ADD21R,1.403200X1.403200*%
%ADD22R,1.753200X1.503200*%
%ADD23R,1.903200X0.903200*%
%ADD24R,1.600200X0.551200*%
%ADD25R,5.603200X6.403200*%
%ADD26R,1.203200X1.803200*%
%ADD27R,1.703200X2.153200*%
%ADD28R,1.603200X1.303200*%
%ADD29R,0.863600X2.235200*%
%ADD30R,0.753200X1.403200*%
%ADD31R,1.603200X2.103200*%
%ADD32R,2.003200X1.603200*%
%ADD33R,0.903200X1.703200*%
%ADD34R,1.203200X1.303200*%
%ADD35R,1.003200X1.553200*%
%ADD36R,1.553200X1.003200*%
%ADD37R,2.403200X1.053200*%
%ADD38R,1.253200X1.203200*%
%ADD39R,1.203200X2.203200*%
%ADD40C,3.203200*%
%ADD41R,1.473200X0.838200*%
%ADD42R,1.303200X1.203200*%
%ADD43C,0.453200*%
%ADD44R,2.000000X2.000000*%
%ADD45R,2.103200X0.803200*%
%ADD46R,1.403200X1.203200*%
%ADD47R,1.503200X2.103200*%
%ADD48R,2.403200X0.803200*%
%ADD49C,1.625600*%
%ADD50R,1.625600X1.625600*%
%ADD51C,1.611200*%
%ADD52R,2.235200X2.235200*%
%ADD53C,2.235200*%
%ADD54C,0.959600*%


D10*
X172720Y716280D03*
X711200Y716280D03*
X716280Y172720D03*
X172720Y172720D03*
D11*
X802640Y553720D03*
X828040Y553720D03*
X802640Y528320D03*
X828040Y528320D03*
X802640Y502920D03*
X828040Y502920D03*
X802640Y477520D03*
X828040Y477520D03*
X802640Y452120D03*
X828040Y452120D03*
X802640Y426720D03*
X828040Y426720D03*
X802640Y401320D03*
X828040Y401320D03*
X802640Y375920D03*
X828040Y375920D03*
X802640Y350520D03*
X828040Y350520D03*
X802640Y325120D03*
X828040Y325120D03*
X60960Y553720D03*
X86360Y553720D03*
X60960Y528320D03*
X86360Y528320D03*
X60960Y502920D03*
X86360Y502920D03*
X60960Y477520D03*
X86360Y477520D03*
X60960Y452120D03*
X86360Y452120D03*
X60960Y426720D03*
X86360Y426720D03*
X60960Y401320D03*
X86360Y401320D03*
X60960Y375920D03*
X86360Y375920D03*
X60960Y350520D03*
X86360Y350520D03*
X60960Y325120D03*
X86360Y325120D03*
X330200Y60960D03*
X330200Y86360D03*
X355600Y60960D03*
X355600Y86360D03*
X381000Y60960D03*
X381000Y86360D03*
X406400Y60960D03*
X406400Y86360D03*
X431800Y60960D03*
X431800Y86360D03*
X457200Y60960D03*
X457200Y86360D03*
X482600Y60960D03*
X482600Y86360D03*
X508000Y60960D03*
X508000Y86360D03*
X533400Y60960D03*
X533400Y86360D03*
X558800Y60960D03*
X558800Y86360D03*
X330200Y599440D03*
X330200Y624840D03*
X355600Y599440D03*
X355600Y624840D03*
X381000Y599440D03*
X381000Y624840D03*
X406400Y599440D03*
X406400Y624840D03*
X431800Y599440D03*
X431800Y624840D03*
X457200Y599440D03*
X457200Y624840D03*
X482600Y599440D03*
X482600Y624840D03*
X508000Y599440D03*
X508000Y624840D03*
X533400Y599440D03*
X533400Y624840D03*
X558800Y599440D03*
X558800Y624840D03*
D12*
X314651Y706771D03*
X314651Y725771D03*
X380792Y706771D03*
X380792Y725771D03*
X334971Y706771D03*
X334971Y725771D03*
X294331Y706771D03*
X294331Y725771D03*
X265892Y137820D03*
X265892Y156820D03*
D13*
X131642Y592028D03*
X179642Y592028D03*
D14*
X248306Y812000D03*
X248306Y764000D03*
D12*
X245780Y156210D03*
X245780Y137210D03*
X293628Y765209D03*
X293628Y784209D03*
D15*
X485143Y802073D03*
D16*
X457143Y796433D03*
X449143Y796433D03*
X441143Y796433D03*
X433143Y796433D03*
X425143Y796433D03*
D15*
X485143Y857073D03*
X397143Y802073D03*
X397143Y857073D03*
D17*
X463143Y827073D03*
X419143Y827073D03*
D18*
X355300Y686631D03*
X355300Y649631D03*
X380792Y780491D03*
X380792Y743491D03*
D19*
X364500Y504500D03*
X364500Y499500D03*
X364500Y494500D03*
X364500Y489500D03*
X364500Y484500D03*
X364500Y479500D03*
X364500Y474500D03*
X364500Y469500D03*
X364500Y464500D03*
X364500Y459500D03*
X364500Y454500D03*
X364500Y449500D03*
X364500Y444500D03*
X364500Y439500D03*
X364500Y434500D03*
X364500Y429500D03*
X364500Y424500D03*
X364500Y419500D03*
X364500Y414500D03*
X364500Y409500D03*
X364500Y404500D03*
X364500Y399500D03*
X364500Y394500D03*
X364500Y389500D03*
X364500Y384500D03*
D20*
X384500Y364500D03*
X389500Y364500D03*
X394500Y364500D03*
X399500Y364500D03*
X404500Y364500D03*
X409500Y364500D03*
X414500Y364500D03*
X419500Y364500D03*
X424500Y364500D03*
X429500Y364500D03*
X434500Y364500D03*
X439500Y364500D03*
X444500Y364500D03*
X449500Y364500D03*
X454500Y364500D03*
X459500Y364500D03*
X464500Y364500D03*
X469500Y364500D03*
X474500Y364500D03*
X479500Y364500D03*
X484500Y364500D03*
X489500Y364500D03*
X494500Y364500D03*
X499500Y364500D03*
X504500Y364500D03*
D19*
X524500Y384500D03*
X524500Y389500D03*
X524500Y394500D03*
X524500Y399500D03*
X524500Y404500D03*
X524500Y409500D03*
X524500Y414500D03*
X524500Y419500D03*
X524500Y424500D03*
X524500Y429500D03*
X524500Y434500D03*
X524500Y439500D03*
X524500Y444500D03*
X524500Y449500D03*
X524500Y454500D03*
X524500Y459500D03*
X524500Y464500D03*
X524500Y469500D03*
X524500Y474500D03*
X524500Y479500D03*
X524500Y484500D03*
X524500Y489500D03*
X524500Y494500D03*
X524500Y499500D03*
X524500Y504500D03*
D20*
X504500Y524500D03*
X499500Y524500D03*
X494500Y524500D03*
X489500Y524500D03*
X484500Y524500D03*
X479500Y524500D03*
X474500Y524500D03*
X469500Y524500D03*
X464500Y524500D03*
X459500Y524500D03*
X454500Y524500D03*
X449500Y524500D03*
X444500Y524500D03*
X439500Y524500D03*
X434500Y524500D03*
X429500Y524500D03*
X424500Y524500D03*
X419500Y524500D03*
X414500Y524500D03*
X409500Y524500D03*
X404500Y524500D03*
X399500Y524500D03*
X394500Y524500D03*
X389500Y524500D03*
X384500Y524500D03*
D11*
X266506Y113686D03*
X266506Y88286D03*
X241106Y113686D03*
X241106Y88286D03*
X215706Y113686D03*
X215706Y88286D03*
D21*
X230627Y665131D03*
X230627Y686131D03*
X293919Y55849D03*
X293919Y76849D03*
X253691Y686131D03*
X253691Y665131D03*
X274011Y686131D03*
X274011Y665131D03*
D12*
X405786Y265217D03*
X405786Y284217D03*
X448255Y283912D03*
X448255Y264912D03*
X285801Y137210D03*
X285801Y156210D03*
X230627Y706771D03*
X230627Y725771D03*
X289652Y95559D03*
X289652Y114559D03*
X313635Y666740D03*
X313635Y685740D03*
X294737Y667045D03*
X294737Y686045D03*
X253691Y706771D03*
X253691Y725771D03*
X274011Y706771D03*
X274011Y725771D03*
D22*
X95678Y250887D03*
X175178Y250887D03*
X95678Y205887D03*
X175178Y205887D03*
D23*
X425801Y286717D03*
X425801Y274717D03*
X425801Y262717D03*
D24*
X404176Y665486D03*
X404176Y671986D03*
X404176Y678486D03*
X404176Y684986D03*
X404176Y691486D03*
X404176Y697986D03*
X404176Y704486D03*
X404176Y717486D03*
X404176Y710986D03*
X404176Y723986D03*
X404176Y730486D03*
X404176Y736986D03*
X404176Y743486D03*
X404176Y749986D03*
X477296Y665486D03*
X477296Y671986D03*
X477296Y678486D03*
X477296Y684986D03*
X477296Y691486D03*
X477296Y697986D03*
X477296Y704486D03*
X477296Y710986D03*
X477296Y717486D03*
X477296Y723986D03*
X477296Y730486D03*
X477296Y736986D03*
X477296Y743486D03*
X477296Y749986D03*
D12*
X380598Y666048D03*
X380598Y685048D03*
D25*
X338933Y825802D03*
D26*
X316133Y752802D03*
X361733Y752802D03*
D21*
X662328Y720268D03*
X662328Y699268D03*
D27*
X751029Y702235D03*
X751029Y729735D03*
D28*
X355094Y705985D03*
X355094Y725985D03*
D29*
X743054Y672246D03*
X743054Y610778D03*
X730354Y672246D03*
X717654Y672246D03*
X730354Y610778D03*
X717654Y610778D03*
X704954Y672246D03*
X704954Y610778D03*
X692254Y672246D03*
X692254Y610778D03*
X679554Y672246D03*
X666854Y672246D03*
X679554Y610778D03*
X666854Y610778D03*
X654154Y672246D03*
X654154Y610778D03*
D30*
X756859Y645675D03*
X766359Y645675D03*
X775859Y645675D03*
X775859Y671675D03*
X756859Y671675D03*
D28*
X662328Y758986D03*
X662328Y738986D03*
D31*
X636586Y777909D03*
X504586Y786909D03*
D32*
X620586Y646909D03*
X560586Y646909D03*
D33*
X627586Y748909D03*
X616586Y748909D03*
X605586Y752909D03*
X594586Y748909D03*
X583586Y752909D03*
X572586Y748909D03*
X561586Y744909D03*
X550586Y748909D03*
D34*
X574569Y278213D03*
X574569Y295213D03*
X559227Y355835D03*
X559227Y372835D03*
X559389Y244689D03*
X559389Y261689D03*
D35*
X770453Y209903D03*
X770453Y235303D03*
D36*
X641911Y197023D03*
X616511Y197023D03*
D34*
X559329Y295213D03*
X559329Y278213D03*
D21*
X756207Y273217D03*
X756207Y252217D03*
D34*
X575381Y355835D03*
X575381Y372835D03*
X756109Y290529D03*
X756109Y307529D03*
X574670Y261380D03*
X574670Y244380D03*
D37*
X814322Y266239D03*
X814322Y293739D03*
D38*
X799072Y279989D03*
X829572Y279989D03*
D39*
X597188Y219616D03*
X612188Y219616D03*
X627188Y219616D03*
X642188Y219616D03*
X657188Y219616D03*
X672188Y219616D03*
X687188Y219616D03*
X702188Y219616D03*
X717188Y219616D03*
X732188Y219616D03*
X732188Y379616D03*
X717188Y379616D03*
X702188Y379616D03*
X687188Y379616D03*
X672188Y379616D03*
X657188Y379616D03*
X642188Y379616D03*
X627188Y379616D03*
X612188Y379616D03*
X597188Y379616D03*
D40*
X656688Y301616D03*
D30*
X574375Y338123D03*
X564875Y338123D03*
X555375Y338123D03*
X555375Y312121D03*
X574375Y312121D03*
D41*
X754685Y187524D03*
X754685Y196524D03*
X770534Y187829D03*
X770534Y196829D03*
D42*
X307601Y628087D03*
X290601Y628087D03*
X307601Y610408D03*
X290601Y610408D03*
X307296Y593035D03*
X290296Y593035D03*
X245902Y581143D03*
X262902Y581143D03*
X307310Y575656D03*
X290310Y575656D03*
D43*
X247216Y594275D02*
X247216Y599775D01*
X252216Y599775D02*
X252216Y594275D01*
X257216Y594275D02*
X257216Y599775D01*
X262216Y599775D02*
X262216Y594275D01*
X266970Y604529D02*
X272470Y604529D01*
X272470Y609529D02*
X266970Y609529D01*
X266970Y614529D02*
X272470Y614529D01*
X272470Y619529D02*
X266970Y619529D01*
X262216Y624283D02*
X262216Y629783D01*
X257216Y629783D02*
X257216Y624283D01*
X252216Y624283D02*
X252216Y629783D01*
X247216Y629783D02*
X247216Y624283D01*
X242462Y619529D02*
X236962Y619529D01*
X236962Y614529D02*
X242462Y614529D01*
X242462Y609529D02*
X236962Y609529D01*
X236962Y604529D02*
X242462Y604529D01*
D44*
X254716Y612029D03*
D30*
X224476Y632858D03*
X214976Y632858D03*
X205476Y632858D03*
X205476Y606856D03*
X224476Y606856D03*
D42*
X580049Y154508D03*
X563049Y154508D03*
D34*
X627093Y106005D03*
X627093Y89005D03*
D45*
X639843Y164847D03*
X639843Y152347D03*
X639843Y139847D03*
X639843Y127347D03*
X669843Y127347D03*
X669843Y139847D03*
X669843Y152347D03*
X669843Y164847D03*
D42*
X562777Y118665D03*
X579777Y118665D03*
D30*
X646156Y83210D03*
X655656Y83210D03*
X665156Y83210D03*
X665156Y109212D03*
X646156Y109212D03*
D46*
X597970Y171521D03*
X617970Y181021D03*
X617970Y162021D03*
X597411Y135402D03*
X617411Y144902D03*
X617411Y125902D03*
D34*
X611714Y106184D03*
X611714Y89184D03*
X681248Y197175D03*
X681248Y180175D03*
D42*
X563097Y135961D03*
X580097Y135961D03*
X580461Y171633D03*
X563461Y171633D03*
X663800Y183181D03*
X646800Y183181D03*
D47*
X207550Y301244D03*
X262550Y301244D03*
X262550Y333244D03*
X207550Y333244D03*
D48*
X179364Y280871D03*
X127364Y280871D03*
X179364Y268171D03*
X179364Y293571D03*
X179364Y306271D03*
X127364Y268171D03*
X127364Y293571D03*
X127364Y306271D03*
D42*
X87207Y287731D03*
X104207Y287731D03*
X87207Y302971D03*
X104207Y302971D03*
X71289Y302971D03*
X54289Y302971D03*
X60994Y272186D03*
X77994Y272186D03*
X71594Y287731D03*
X54594Y287731D03*
D49*
X315594Y140578D03*
X315594Y160578D03*
X315594Y180578D03*
X315594Y200578D03*
X315594Y220578D03*
X315594Y240578D03*
X315594Y260578D03*
X315594Y280578D03*
X315594Y300578D03*
D50*
X315594Y320578D03*
D49*
X535594Y140578D03*
X535594Y160578D03*
X535594Y180578D03*
X535594Y200578D03*
X535594Y220578D03*
X535594Y240578D03*
X535594Y260578D03*
X535594Y280578D03*
X535594Y300578D03*
X535594Y320578D03*
D51*
X205464Y227300D03*
X270464Y227300D03*
D42*
X824450Y577291D03*
X807450Y577291D03*
D52*
X115240Y649639D03*
D53*
X115240Y684639D03*
D11*
X61265Y588264D03*
X86665Y588264D03*
D54*
X466649Y778764D03*
X431292Y776630D03*
X409346Y477622D03*
X409346Y507492D03*
X585826Y371551D03*
X545897Y363931D03*
X372770Y231343D03*
X618744Y776326D03*
X601370Y769010D03*
X334366Y740359D03*
X730301Y559918D03*
X741274Y568147D03*
X399288Y442265D03*
X423062Y391668D03*
X373075Y258470D03*
X395021Y252984D03*
X304495Y130759D03*
X336804Y139903D03*
X474878Y783946D03*
X412090Y786079D03*
X284988Y170688D03*
X815035Y564185D03*
X307848Y72847D03*
X571500Y48158D03*
X458114Y324612D03*
X286512Y292608D03*
X431292Y104242D03*
X372770Y109118D03*
X351130Y254203D03*
X461467Y314554D03*
X460248Y252984D03*
X447446Y313334D03*
X405994Y253594D03*
X436778Y313030D03*
X388620Y269138D03*
X434035Y302971D03*
X391058Y283159D03*
X784555Y647395D03*
X637337Y650138D03*
X608686Y738226D03*
X546202Y637946D03*
X444398Y635508D03*
X391363Y398374D03*
X166726Y129235D03*
X192024Y129845D03*
X455371Y492557D03*
X487070Y502006D03*
X380695Y472135D03*
X488594Y462991D03*
X502615Y460553D03*
X775716Y248412D03*
X387401Y478536D03*
X483108Y469697D03*
X502920Y469697D03*
X783031Y204521D03*
X784555Y446837D03*
X843077Y439826D03*
X389839Y497129D03*
X463906Y670255D03*
X380390Y500482D03*
X470306Y651967D03*
X229819Y596189D03*
X307848Y640385D03*
X274930Y590398D03*
X277368Y625145D03*
X319430Y611429D03*
X319430Y584911D03*
X586130Y387096D03*
X784860Y336194D03*
X541630Y381000D03*
X784555Y319126D03*
X594970Y160325D03*
X466954Y378562D03*
X288341Y335280D03*
X398983Y456895D03*
X434950Y493166D03*
X512064Y541020D03*
X531266Y555346D03*
X562051Y526390D03*
X768096Y572110D03*
X589788Y108814D03*
X498348Y105461D03*
X449275Y385572D03*
X345338Y338023D03*
X480365Y387096D03*
X405994Y449885D03*
X445008Y492862D03*
X512674Y530962D03*
X529133Y544678D03*
X556260Y518465D03*
X590093Y511454D03*
X616001Y468478D03*
X694334Y468173D03*
X497129Y347777D03*
X373075Y335280D03*
X345034Y307238D03*
X125273Y198120D03*
X456590Y483718D03*
X487680Y491642D03*
X86868Y236525D03*
X110033Y235001D03*
X465125Y477317D03*
X686714Y638251D03*
X352654Y111862D03*
X343510Y267310D03*
X368198Y583997D03*
X110033Y456895D03*
X97231Y465430D03*
X424586Y253289D03*
X444094Y253289D03*
X103632Y436778D03*
X224028Y574853D03*
X350825Y742188D03*
X366979Y687019D03*
X263347Y749808D03*
X198120Y681838D03*
X192634Y641604D03*
X193548Y607466D03*
X457200Y770230D03*
X416966Y757428D03*
X493776Y665378D03*
X245974Y178003D03*
X509016Y444094D03*
X509016Y494386D03*
X440741Y683362D03*
X303886Y740359D03*
X433730Y676656D03*
X277673Y740054D03*
X438607Y750113D03*
X349910Y754990D03*
X725119Y688238D03*
X645871Y734568D03*
X627278Y172212D03*
X628802Y119786D03*
X704698Y656844D03*
X645566Y723595D03*
X731215Y363626D03*
X781812Y297180D03*
X661111Y238049D03*
X738226Y250546D03*
X595579Y194462D03*
X304495Y190500D03*
X654710Y171907D03*
X630326Y183185D03*
X691286Y746760D03*
X644957Y754990D03*
M02*
