G75*
%MOIN*%
%OFA0B0*%
%FSLAX25Y25*%
%IPPOS*%
%LPD*%
%AMOC8*
5,1,8,0,0,1.08239X$1,22.5*
%
%ADD10C,0.07400*%
%ADD11OC8,0.05543*%
%ADD12C,0.06000*%
%ADD13C,0.00500*%
%ADD14R,0.03962X0.03962*%
%ADD15C,0.01600*%
%ADD16C,0.02400*%
%ADD17C,0.01000*%
%ADD18C,0.04000*%
D10*
X0151100Y0051600D03*
X0151100Y0061600D03*
X0151100Y0071600D03*
X0151100Y0081600D03*
X0151100Y0091600D03*
X0151100Y0101600D03*
X0151100Y0111600D03*
X0151100Y0121600D03*
X0151100Y0131600D03*
X0151100Y0141600D03*
X0151100Y0151600D03*
X0151100Y0161600D03*
X0151100Y0171600D03*
X0151100Y0181600D03*
X0161100Y0181600D03*
X0171100Y0181600D03*
X0181100Y0181600D03*
X0191100Y0181600D03*
X0201100Y0181600D03*
X0211100Y0181600D03*
X0211100Y0171600D03*
X0211100Y0161600D03*
X0211100Y0151600D03*
X0211100Y0141600D03*
X0211100Y0131600D03*
X0211100Y0121600D03*
X0211100Y0111600D03*
X0211100Y0101600D03*
X0211100Y0091600D03*
X0211100Y0081600D03*
X0211100Y0071600D03*
X0211100Y0061600D03*
X0211100Y0051600D03*
X0161100Y0061600D03*
X0161100Y0081600D03*
X0161100Y0091600D03*
X0161100Y0101600D03*
X0055600Y0212600D03*
X0055600Y0222600D03*
X0055600Y0232600D03*
X0055600Y0242600D03*
X0055600Y0252600D03*
X0055600Y0262600D03*
X0055600Y0272600D03*
X0055600Y0282600D03*
X0055600Y0292600D03*
X0154600Y0292600D03*
X0154600Y0282600D03*
X0154600Y0272600D03*
X0154600Y0262600D03*
X0154600Y0252600D03*
X0290600Y0083600D03*
X0290600Y0073600D03*
D11*
X0216100Y0021600D03*
X0216100Y0013600D03*
X0208100Y0013600D03*
X0208100Y0021600D03*
X0200100Y0021600D03*
X0200100Y0013600D03*
X0192100Y0013600D03*
X0192100Y0021600D03*
X0184100Y0021600D03*
X0184100Y0013600D03*
X0176100Y0013600D03*
X0176100Y0021600D03*
X0168100Y0021600D03*
X0168100Y0013600D03*
X0160100Y0013600D03*
X0160100Y0021600D03*
X0152100Y0021600D03*
X0152100Y0013600D03*
X0144100Y0013600D03*
X0144100Y0021600D03*
D12*
X0244600Y0072600D02*
X0244600Y0078600D01*
X0254600Y0078600D02*
X0254600Y0072600D01*
X0264600Y0072600D02*
X0264600Y0078600D01*
D13*
X0245500Y0045700D02*
X0245500Y0036700D01*
X0218100Y0009300D01*
X0189100Y0009300D01*
X0186100Y0013300D01*
X0184300Y0013300D01*
X0184100Y0013600D01*
X0182300Y0008000D02*
X0219500Y0008000D01*
X0249100Y0037600D01*
X0249100Y0123100D01*
X0235600Y0032600D02*
X0235600Y0031600D01*
X0236600Y0031600D01*
X0216100Y0013600D01*
X0182300Y0008000D02*
X0178000Y0013300D01*
X0176200Y0013300D01*
X0176100Y0013600D01*
X0168100Y0013600D02*
X0162500Y0008000D01*
X0142000Y0008000D01*
X0134800Y0014200D01*
X0134800Y0028600D01*
X0140200Y0034000D01*
X0138400Y0021400D02*
X0138400Y0013300D01*
X0142900Y0009300D01*
X0155800Y0009300D01*
X0160100Y0013600D01*
D14*
X0223600Y0033498D03*
X0235600Y0032600D03*
X0223600Y0141600D03*
X0236600Y0147600D03*
X0267600Y0158600D03*
X0210600Y0205600D03*
X0182600Y0233600D03*
D15*
X0182600Y0234600D01*
X0181600Y0234600D01*
X0182600Y0233600D01*
X0210600Y0205600D01*
X0223600Y0141600D02*
X0223600Y0140600D01*
X0225600Y0140600D01*
X0225600Y0048191D01*
X0225700Y0048091D01*
X0225700Y0035598D01*
X0223600Y0033498D01*
D16*
X0254600Y0075600D02*
X0254500Y0075700D01*
X0254500Y0087400D01*
X0254800Y0087100D01*
X0270700Y0087100D01*
X0284200Y0073600D01*
X0290600Y0073600D01*
X0237600Y0147600D02*
X0236600Y0147600D01*
X0237600Y0147600D02*
X0248600Y0158600D01*
X0267600Y0158600D01*
D17*
X0151000Y0052000D02*
X0106000Y0097000D01*
X0106000Y0137500D01*
X0071800Y0123100D02*
X0168100Y0026800D01*
X0168100Y0021600D01*
X0168100Y0026800D02*
X0168100Y0027700D01*
X0204100Y0063700D01*
X0204100Y0095200D01*
X0210400Y0101500D01*
X0211100Y0101600D01*
X0216200Y0106000D02*
X0211100Y0111600D01*
X0216200Y0106000D02*
X0216700Y0049300D01*
X0214000Y0046600D01*
X0203200Y0046600D01*
X0178200Y0021600D01*
X0176100Y0021600D01*
X0174400Y0028600D02*
X0174400Y0031300D01*
X0205900Y0062800D01*
X0205900Y0066400D01*
X0211100Y0071600D01*
X0222100Y0046600D02*
X0222100Y0131200D01*
X0211300Y0142000D01*
X0211100Y0141600D01*
X0214000Y0136600D02*
X0176200Y0136600D01*
X0151900Y0160900D01*
X0151100Y0161600D01*
X0151100Y0151600D02*
X0151900Y0151000D01*
X0181600Y0121300D01*
X0181600Y0046600D01*
X0178000Y0043000D02*
X0178000Y0056500D01*
X0166300Y0068200D01*
X0166300Y0104200D01*
X0159100Y0111400D01*
X0151900Y0111400D01*
X0151100Y0111600D01*
X0153700Y0136600D02*
X0145600Y0136600D01*
X0077200Y0205000D01*
X0068200Y0205000D01*
X0071800Y0201400D02*
X0071800Y0123100D01*
X0064600Y0127600D02*
X0064600Y0225700D01*
X0071800Y0218500D02*
X0095200Y0195100D01*
X0175300Y0195100D01*
X0186100Y0184300D01*
X0186100Y0178900D01*
X0193300Y0171700D01*
X0210400Y0171700D01*
X0211100Y0171600D01*
X0211100Y0181600D02*
X0210400Y0181600D01*
X0210400Y0198700D01*
X0161800Y0247300D01*
X0108700Y0247300D01*
X0058300Y0297700D01*
X0052900Y0297700D01*
X0050200Y0295000D01*
X0050200Y0248200D01*
X0055600Y0242800D01*
X0055600Y0242600D01*
X0055600Y0241900D01*
X0061000Y0236500D01*
X0061000Y0128500D01*
X0151900Y0037600D01*
X0151900Y0022300D01*
X0152100Y0021600D01*
X0144100Y0021600D02*
X0143800Y0022300D01*
X0143800Y0043000D01*
X0056500Y0130300D01*
X0056500Y0204100D01*
X0047500Y0213100D01*
X0047500Y0245500D01*
X0055600Y0251800D02*
X0055600Y0252600D01*
X0055600Y0251800D02*
X0068200Y0239200D01*
X0068200Y0216700D01*
X0103300Y0181600D01*
X0151100Y0181600D01*
X0121300Y0196900D02*
X0055600Y0262600D01*
X0121300Y0196900D02*
X0206800Y0196900D01*
X0211100Y0161600D02*
X0211300Y0160900D01*
X0249100Y0123100D01*
X0218500Y0132100D02*
X0214000Y0136600D01*
X0218500Y0132100D02*
X0218500Y0031500D01*
X0216100Y0021600D02*
X0218700Y0021300D01*
X0242100Y0047200D01*
X0244600Y0075600D01*
X0213100Y0043000D02*
X0195400Y0024800D01*
X0192100Y0021600D01*
X0186300Y0021600D02*
X0207700Y0043000D01*
X0186300Y0021600D02*
X0184100Y0021600D01*
X0160100Y0021600D02*
X0160000Y0022300D01*
X0160000Y0032200D01*
X0064600Y0127600D01*
X0151000Y0052000D02*
X0151100Y0051600D01*
X0151900Y0051100D01*
X0152800Y0050200D01*
X0174400Y0050200D01*
X0178000Y0061900D02*
X0178000Y0112300D01*
X0153700Y0136600D01*
D18*
X0106000Y0137500D03*
X0071800Y0201400D03*
X0068200Y0205000D03*
X0071800Y0218500D03*
X0064600Y0225700D03*
X0047500Y0245500D03*
X0206800Y0196900D03*
X0178000Y0061900D03*
X0174400Y0050200D03*
X0178000Y0043000D03*
X0181600Y0046600D03*
X0174400Y0028600D03*
X0207700Y0043000D03*
X0213100Y0043000D03*
X0222100Y0046600D03*
X0218500Y0031500D03*
X0245500Y0045700D03*
X0140200Y0034000D03*
X0138400Y0021400D03*
M02*
