%
M48
M72
T01C0.02362
T02C0.02400
T03C0.03543
T04C0.04000
T05C0.13000
T06C0.25000
%
T01
X210600Y205600
X182600Y233600
X267600Y158600
X236600Y147600
X223600Y141600
X223600Y33498
X235600Y32600
T02
X106000Y137500
X71800Y201400
X68200Y205000
X71800Y218500
X64600Y225700
X47500Y245500
X206800Y196900
X178000Y61900
X174400Y50200
X178000Y43000
X181600Y46600
X174400Y28600
X207700Y43000
X213100Y43000
X222100Y46600
X218500Y31500
X245500Y45700
X140200Y34000
X138400Y21400
T03
X144100Y21600
X144100Y13600
X152100Y13600
X152100Y21600
X160100Y21600
X160100Y13600
X168100Y13600
X168100Y21600
X176100Y21600
X176100Y13600
X184100Y13600
X184100Y21600
X192100Y21600
X192100Y13600
X200100Y13600
X200100Y21600
X208100Y21600
X208100Y13600
X216100Y13600
X216100Y21600
T04
X211100Y51600
X211100Y61600
X211100Y71600
X211100Y81600
X211100Y91600
X211100Y101600
X211100Y111600
X211100Y121600
X211100Y131600
X211100Y141600
X211100Y151600
X211100Y161600
X211100Y171600
X211100Y181600
X201100Y181600
X191100Y181600
X181100Y181600
X171100Y181600
X161100Y181600
X151100Y181600
X151100Y171600
X151100Y161600
X151100Y151600
X151100Y141600
X151100Y131600
X151100Y121600
X151100Y111600
X151100Y101600
X151100Y91600
X151100Y81600
X151100Y71600
X151100Y61600
X151100Y51600
X161100Y61600
X161100Y81600
X161100Y91600
X161100Y101600
X244600Y75600
X254600Y75600
X264600Y75600
X290600Y73600
X290600Y83600
X154600Y252600
X154600Y262600
X154600Y272600
X154600Y282600
X154600Y292600
X55600Y292600
X55600Y282600
X55600Y272600
X55600Y262600
X55600Y252600
X55600Y242600
X55600Y232600
X55600Y222600
X55600Y212600
T05
X254600Y139600
T06
X324100Y181600
X39100Y181600
M30
